<svg xmlns="http://www.w3.org/2000/svg" fill="none" viewBox="0 0 124 123">
  <defs/>
  <path fill="#C7F0FF" d="M6.43018 61.01c0 14.8521 5.90002 29.0959 16.40202 39.598 10.502 10.502 24.7459 16.402 39.598 16.402s29.0959-5.9 39.5978-16.402C112.53 90.1059 118.43 75.8621 118.43 61.01s-5.9-29.0959-16.402-39.598C91.5261 10.91 77.2823 5.00999 62.4302 5.00999S33.3342 10.91 22.8322 21.412C12.3302 31.9141 6.43018 46.1579 6.43018 61.01z"/>
  <path fill="#45413C" d="M1.12939 113.651c0 .742 3.1133 1.453 8.65501 1.978 5.5417.525 13.0579.82 20.895.82 7.8372 0 15.3533-.295 20.895-.82 5.5417-.525 8.655-1.236 8.655-1.978s-3.1133-1.454-8.655-1.979c-5.5417-.524-13.0578-.819-20.895-.819-7.8371 0-15.3533.295-20.895.819-5.54171.525-8.65501 1.237-8.65501 1.979zM62.7471 113.651c0 .742 3.1133 1.453 8.655 1.978 5.5417.525 13.0578.82 20.895.82 7.8369 0 15.3529-.295 20.8949-.82 5.542-.525 8.655-1.236 8.655-1.978s-3.113-1.454-8.655-1.979c-5.542-.524-13.058-.819-20.8949-.819-7.8372 0-15.3533.295-20.895.819-5.5417.525-8.655 1.237-8.655 1.979z" opacity=".15"/>
  <path fill="#E0E0E0" d="M43.5195 28.5465c-.0002.2878.0532.5727.157.8386s.256.5076.448.7111c.192.2035.42.365.6709.4751.2509.1102.5198.1669.7914.1669h4.1359c.2716 0 .5405-.0567.7914-.1669.2509-.1101.4789-.2716.6709-.4751.192-.2035.3442-.4452.448-.7111.1038-.2659.1572-.5508.157-.8386V16.3344h-8.2705v12.2121z"/>
  <path fill="#BDBEC0" d="M51.79 23.2546c-2.6765.997-5.594.997-8.2705 0v-6.9202H51.79v6.9202z"/>
  <path stroke="#45413C" stroke-linecap="round" stroke-linejoin="round" stroke-width="1.4" d="M43.5195 28.5465c-.0002.2878.0532.5727.157.8386s.256.5076.448.7111c.192.2035.42.365.6709.4751.2509.1102.5198.1669.7914.1669h4.1359c.2716 0 .5405-.0567.7914-.1669.2509-.1101.4789-.2716.6709-.4751.192-.2035.3442-.4452.448-.7111.1038-.2659.1572-.5508.157-.8386V16.3344h-8.2705v12.2121z"/>
  <path fill="#ADC4D9" stroke="#45413C" stroke-linecap="round" stroke-linejoin="round" stroke-width="1.4" d="M30.3882 56.947c-.5377.1133-1.0959-.0042-1.5519-.3266-.456-.3225-.7726-.8235-.8801-1.3931l-1.5786-8.3685c-.1845-.9777-.0487-1.9928.3849-2.8777.4335-.8849 1.1389-1.5867 1.9997-1.9895l15.4523-8.8626.8116 4.2964-13.0968 7.7593c-.4305.2014-.7833.5523-1.0002.9947-.2169.4425-.2849.95-.1929 1.4389l1.2738 6.7506c.1074.5697-.0031 1.1613-.3072 1.6447-.3041.4834-.777.8192-1.3146.9334zM64.9217 56.947c.5379.1133 1.0963-.0041 1.5525-.3265.4562-.3225.7731-.8235.8809-1.3932l1.5786-8.3685c.184-.9777.048-1.9925-.3855-2.8773s-1.1386-1.5866-1.9991-1.9899L51.0968 33.129l-.8102 4.2964 13.0857 7.7594c.4305.2012.7833.5521 1 .9946s.2843.9501.1917 1.4389l-1.2724 6.7506c-.0531.2827-.053.5737.0002.8564.0533.2827.1586.5515.31.7909.1515.2395.346.445.5725.6047.2265.1597.4805.2705.7474.3261z"/>
  <path fill="#FFE500" d="M40.9053 34.6334c0 .939.1745 1.8688.5137 2.7363.3392.8675.8363 1.6557 1.463 2.3197.6267.664 1.3707 1.1906 2.1895 1.55.8188.3593 1.6964.5443 2.5827.5443.8862 0 1.7638-.185 2.5826-.5443.8189-.3594 1.5628-.886 2.1895-1.55.6267-.664 1.1238-1.4522 1.463-2.3197.3392-.8675.5137-1.7973.5137-2.7363 0-.939-.1745-1.8688-.5137-2.7363-.3392-.8675-.8363-1.6557-1.463-2.3197-.6267-.664-1.3706-1.1907-2.1895-1.55-.8188-.3593-1.6964-.5443-2.5826-.5443-.8863 0-1.7639.185-2.5827.5443s-1.5628.886-2.1895 1.55c-.6267.664-1.1238 1.4522-1.463 2.3197-.3392.8675-.5137 1.7973-.5137 2.7363z"/>
  <path fill="#FFF48C" d="M47.6597 31.1335c1.4902.0003 2.9385.5228 4.1192 1.4861 1.1807.9633 2.0274 2.3133 2.4084 3.8397.2636-1.0584.2944-2.1669.0899-3.2399-.2044-1.0731-.6387-2.0821-1.2692-2.9493-.6306-.8672-1.4406-1.5695-2.3677-2.0528-.9272-.4832-1.9466-.7345-2.9799-.7345-1.0332 0-2.0527.2513-2.9798.7345-.9271.4833-1.7372 1.1856-2.3677 2.0528-.6306.8672-1.0648 1.8762-1.2693 2.9493-.2044 1.073-.1737 2.1815.09 3.2399.3806-1.5262 1.2271-2.8762 2.4076-3.8396 1.1804-.9633 2.6285-1.4859 4.1185-1.4862z"/>
  <path stroke="#45413C" stroke-linecap="round" stroke-linejoin="round" stroke-width="1.4" d="M40.9053 34.6334c0 .939.1745 1.8688.5137 2.7363.3392.8675.8363 1.6557 1.463 2.3197.6267.664 1.3707 1.1906 2.1895 1.55.8188.3593 1.6964.5443 2.5827.5443.8862 0 1.7638-.185 2.5826-.5443.8189-.3594 1.5628-.886 2.1895-1.55.6267-.664 1.1238-1.4522 1.463-2.3197.3392-.8675.5137-1.7973.5137-2.7363 0-.939-.1745-1.8688-.5137-2.7363-.3392-.8675-.8363-1.6557-1.463-2.3197-.6267-.664-1.3706-1.1907-2.1895-1.55-.8188-.3593-1.6964-.5443-2.5826-.5443-.8863 0-1.7639.185-2.5827.5443s-1.5628.886-2.1895 1.55c-.6267.664-1.1238 1.4522-1.463 2.3197-.3392.8675-.5137 1.7973-.5137 2.7363v0z"/>
  <path fill="#FFE500" d="M122.943 18.8108c.052-.2059.065-.4206.039-.6319-.027-.2113-.092-.415-.193-.5995-.101-.1845-.235-.3462-.394-.4758-.16-.1296-.342-.2245-.537-.2795L97.2685 9.84344c-2.6501-.75203-5.4452-.71016-8.0742.12094-.2508.07942-.4783.22562-.6606.42472-.1823.1991-.3133.4444-.3807.7124l-5.3122 20.9951c-.0681.2679-.0703.5499-.0062.819.0641.2691.1923.5162.3723.7178 1.8854 2.1131 4.2873 3.6305 6.9382 4.3834l24.5909 6.9792c.393.1112.811.0529 1.162-.1623.352-.2152.609-.5696.714-.9852l6.331-25.0377z"/>
  <path fill="#EBCB00" d="M99.6142 24.0938c-3.2408.0004-6.3944 1.113-8.9885 3.1712s-4.4892 4.9512-5.4016 8.246c1.4801 1.1507 3.1486 2.0008 4.9211 2.5073l23.7788 6.7447c.707-2.3809.875-4.9048.491-7.3673-.385-2.4626-1.311-4.7946-2.705-6.8073-1.393-2.0126-3.214-3.6494-5.316-4.7777-2.101-1.1283-4.424-1.7165-6.7798-1.7169z"/>
  <path fill="#FFF48C" d="M121.858 16.8241l-24.59-6.98065c-2.65-.75226-5.4452-.71039-8.0741.12094-.2509.07911-.4786.22501-.6611.42381-.1825.1988-.3139.4439-.3816.7119l-1.2738 5.0367c2.8594-1.1036 5.9701-1.2478 8.9095-.413l24.5911 6.9807c.392.1113.727.3831.93.7557.203.3726.258.8154.153 1.231l1.487-5.8804c.052-.2063.065-.4214.038-.633-.027-.2116-.092-.4155-.194-.6001-.101-.1845-.236-.3461-.396-.4754-.16-.1293-.343-.2239-.538-.2782z"/>
  <path stroke="#45413C" stroke-linecap="round" stroke-linejoin="round" stroke-width="1.4" d="M122.943 18.8108c.052-.2059.065-.4206.039-.6319-.027-.2113-.092-.415-.193-.5995-.101-.1845-.235-.3462-.394-.4758-.16-.1296-.342-.2245-.537-.2795L97.2685 9.84344c-2.6501-.75203-5.4452-.71016-8.0742.12094-.2508.07942-.4783.22562-.6606.42472-.1823.1991-.3133.4444-.3807.7124l-5.3122 20.9951c-.0681.2679-.0703.5499-.0062.819.0641.2691.1923.5162.3723.7178 1.8854 2.1131 4.2873 3.6305 6.9382 4.3834l24.5919 6.9792c.392.1112.81.0529 1.161-.1623.352-.2152.609-.5696.714-.9852l6.331-25.0377z"/>
  <path fill="#E0E0E0" d="M46.3174 16.1481L48.993 5.56726l19.9738 5.66944-2.6756 10.5809-19.9738-5.6695z"/>
  <path fill="#fff" d="M48.1885 8.74219l.8026-3.17412 19.9738 5.66943-.8026 3.1742-19.9738-5.66951z"/>
  <path stroke="#45413C" stroke-linecap="round" stroke-linejoin="round" stroke-width="1.4" d="M46.3174 16.1481L48.993 5.56726l19.9738 5.66944-2.6756 10.5809-19.9738-5.6695z"/>
  <path fill="#FFE500" d="M38.3496 10.8582c0 1.2946.2407 2.5765.7083 3.7725.4676 1.1961 1.153 2.2828 2.017 3.1982.864.9155 1.8898 1.6416 3.0187 2.137 1.1289.4954 2.3389.7504 3.5608.7504 1.2219 0 2.4319-.255 3.5608-.7504 1.1289-.4954 2.1546-1.2215 3.0186-2.137.8641-.9154 1.5495-2.0021 2.0171-3.1982.4676-1.196.7083-2.4779.7083-3.7725 0-1.29462-.2407-2.57654-.7083-3.77259s-1.153-2.2828-2.0171-3.19822c-.864-.91542-1.8897-1.64156-3.0186-2.13698C50.0863 1.25499 48.8763 1 47.6544 1c-1.2219 0-2.4319.25499-3.5608.75041-1.1289.49542-2.1547 1.22156-3.0187 2.13698-.864.91542-1.5494 2.00217-2.017 3.19822-.4676 1.19605-.7083 2.47797-.7083 3.77259z"/>
  <path fill="#FFF48C" d="M48.992 5.56733c-2.0367-.57756-4.1982-.40546-6.1306.48811-1.9324.89357-3.5212 2.45569-4.5064 4.43066.0538-1.47897.4212-2.92611 1.075-4.23407.6539-1.30795 1.5772-2.44315 2.7017-3.32136 1.1245-.87822 2.4212-1.47691 3.7939-1.75166 1.3726-.274753 2.7861-.218509 4.1355.16456 1.3494.38306 2.6 1.08312 3.6591 2.04822 1.0592.9651 1.8996 2.17049 2.4589 3.52672.5594 1.35622.8234 2.82849.7723 4.30759-.051 1.479-.4158 2.9269-1.0671 4.2363.0788-2.2326-.5602-4.4274-1.8123-6.22503-1.2521-1.79763-3.0432-3.09161-5.08-3.67004z"/>
  <path stroke="#45413C" stroke-linecap="round" stroke-linejoin="round" stroke-width="1.4" d="M38.3496 10.8582c0 1.2946.2407 2.5765.7083 3.7725.4676 1.1961 1.153 2.2828 2.017 3.1982.864.9155 1.8898 1.6416 3.0187 2.137 1.1289.4954 2.3389.7504 3.5608.7504 1.2219 0 2.4319-.255 3.5608-.7504 1.1289-.4954 2.1546-1.2215 3.0186-2.137.8641-.9154 1.5495-2.0021 2.0171-3.1982.4676-1.196.7083-2.4779.7083-3.7725 0-1.29462-.2407-2.57654-.7083-3.77259s-1.153-2.2828-2.0171-3.19822c-.864-.91542-1.8897-1.64156-3.0186-2.13698C50.0863 1.25499 48.8763 1 47.6544 1c-1.2219 0-2.4319.25499-3.5608.75041-1.1289.49542-2.1547 1.22156-3.0187 2.13698-.864.91542-1.5494 2.00217-2.017 3.19822-.4676 1.19605-.7083 2.47797-.7083 3.77259z"/>
  <path fill="#87898C" d="M43.5186 10.8582c0 1.1621.4357 2.2767 1.2113 3.0985.7757.8217 1.8277 1.2834 2.9246 1.2834 1.0969 0 2.1489-.4617 2.9245-1.2834.7756-.8218 1.2114-1.9364 1.2114-3.0985 0-1.16216-.4358-2.27672-1.2114-3.09848-.7756-.82177-1.8276-1.28343-2.9245-1.28343-1.0969 0-2.1489.46166-2.9246 1.28343-.7756.82176-1.2113 1.93632-1.2113 3.09848z"/>
  <path fill="#656769" d="M47.3816 11.9157c.7957.2258 1.6369.1949 2.4159-.0889.779-.2838 1.4603-.8075 1.9567-1.504.082.7116-.002 1.4337-.2448 2.1029-.2428.6691-.637 1.265-1.1478 1.7351-.5108.4702-1.1228.8003-1.7821.9614-.6594.1612-1.346.1484-1.9996-.0372s-1.2542-.5383-1.7492-1.0271c-.4949-.4889-.869-1.099-1.0895-1.7768-.2204-.6778-.2805-1.4026-.1749-2.1107.1056-.70817.3736-1.37802.7805-1.95081.1009.86623.4437 1.68081.9844 2.33931.5407.6585 1.2546 1.131 2.0504 1.3568z"/>
  <path stroke="#45413C" stroke-linecap="round" stroke-linejoin="round" stroke-width="1.4" d="M43.5186 10.8582c0 1.1621.4357 2.2767 1.2113 3.0985.7757.8217 1.8277 1.2834 2.9246 1.2834 1.0969 0 2.1489-.4617 2.9245-1.2834.7756-.8218 1.2114-1.9364 1.2114-3.0985 0-1.16216-.4358-2.27672-1.2114-3.09848-.7756-.82177-1.8276-1.28343-2.9245-1.28343-1.0969 0-2.1489.46166-2.9246 1.28343-.7756.82176-1.2113 1.93632-1.2113 3.09848z"/>
  <path fill="#FFE500" d="M66.6993 26.4699l16.3877 4.6518 4.8167-19.0453-16.3892-4.64881c-.3923-.11126-.8102-.05287-1.1618.16232-.3517.21518-.6083.56955-.7133.98515L65.6176 24.4832c-.105.4154-.0501.858.1527 1.2306.2028.3725.537.6445.929.7561z"/>
  <path fill="#FFF48C" d="M71.5149 7.42759c-.3923-.11126-.8102-.05287-1.1619.16232-.3516.21518-.6082.56955-.7133.98515l-1.2876 5.09284c.105-.4156.3616-.77.7132-.9852.3517-.2152.7696-.2736 1.1619-.1623l16.3892 4.6518 1.2876-5.0928-16.3891-4.65181z"/>
  <path stroke="#45413C" stroke-linecap="round" stroke-linejoin="round" stroke-width="1.4" d="M66.6993 26.4699l16.3877 4.6518 4.8167-19.0453-16.3892-4.64881c-.3923-.11126-.8102-.05287-1.1618.16232-.3517.21518-.6083.56955-.7133.98515L65.6176 24.4832c-.105.4154-.0501.858.1527 1.2306.2028.3725.537.6445.929.7561z"/>
  <path fill="#FFE500" d="M93.2439 99.6156h17.4891c2.493-18.1839 1.595-36.7095-2.645-54.5267H91.146c3.2035 17.9701 3.9103 36.3399 2.0979 54.5267z"/>
  <path fill="#EBCB00" d="M109.866 53.5754c-.505-2.8406-1.102-5.669-1.789-8.485H91.146c.6311 3.5662 1.1647 7.1335 1.6009 10.7018 2.767 1.3495 5.8338 1.8573 8.8571 1.4666 3.024-.3907 5.886-1.6644 8.266-3.679l-.004-.0044z"/>
  <path stroke="#45413C" stroke-linecap="round" stroke-linejoin="round" stroke-width="1.4" d="M93.2439 99.6156h17.4891c2.493-18.1839 1.595-36.7095-2.645-54.5267H91.146c3.2035 17.9701 3.9103 36.3399 2.0979 54.5267v0z"/>
  <path fill="#FFE500" d="M87.1421 39.9858c0 3.5044 1.314 6.8653 3.6529 9.3433 2.3389 2.4781 5.5112 3.8702 8.8189 3.8702 3.3081 0 6.4801-1.3921 8.8191-3.8702 2.339-2.478 3.653-5.8389 3.653-9.3433 0-3.5045-1.314-6.8654-3.653-9.3434-2.339-2.478-5.511-3.8702-8.8191-3.8702-3.3077 0-6.48 1.3922-8.8189 3.8702-2.3389 2.478-3.6529 5.8389-3.6529 9.3434z"/>
  <path fill="#FFF48C" d="M99.6139 32.6482c-2.8265.0002-5.5692 1.0173-7.7789 2.8846-2.2096 1.8674-3.7553 4.4743-4.3839 7.3939-.4142-1.9344-.412-3.9429.0064-5.8763.4185-1.9334 1.2424-3.7423 2.4107-5.2923 1.1683-1.55 2.651-2.8015 4.3381-3.6616 1.6871-.86 3.5353-1.3066 5.4076-1.3066 1.8721 0 3.7201.4466 5.4071 1.3066 1.688.8601 3.17 2.1116 4.339 3.6616 1.168 1.55 1.992 3.3589 2.41 5.2923.419 1.9334.421 3.9419.007 5.8763-.629-2.9196-2.175-5.5265-4.384-7.3939-2.21-1.8673-4.953-2.8844-7.7791-2.8846z"/>
  <path stroke="#45413C" stroke-linecap="round" stroke-linejoin="round" stroke-width="1.4" d="M87.1421 39.9858c0 3.5044 1.314 6.8653 3.6529 9.3433 2.3389 2.4781 5.5112 3.8702 8.8189 3.8702 3.3081 0 6.4801-1.3921 8.8191-3.8702 2.339-2.478 3.653-5.8389 3.653-9.3433 0-3.5045-1.314-6.8654-3.653-9.3434-2.339-2.478-5.511-3.8702-8.8191-3.8702-3.3077 0-6.48 1.3922-8.8189 3.8702-2.3389 2.478-3.6529 5.8389-3.6529 9.3434z"/>
  <path fill="#87898C" d="M95.478 39.9858c0 1.1621.4358 2.2767 1.2114 3.0985.7756.8217 1.8276 1.2834 2.9245 1.2834 1.0971 0 2.1491-.4617 2.9241-1.2834.776-.8218 1.212-1.9364 1.212-3.0985 0-1.1622-.436-2.2767-1.212-3.0985-.775-.8218-1.827-1.2834-2.9241-1.2834-1.0969 0-2.1489.4616-2.9245 1.2834-.7756.8218-1.2114 1.9363-1.2114 3.0985z"/>
  <path fill="#656769" d="M99.6139 41.0801c.8241.0001 1.6291-.2604 2.3121-.7481.683-.4877 1.213-1.1804 1.522-1.9893.254.6652.35 1.3863.279 2.1-.07.7137-.305 1.3982-.684 1.9932-.378.595-.889 1.0825-1.487 1.4194-.598.337-1.265.5133-1.9421.5133-.6773 0-1.3442-.1763-1.9422-.5133-.598-.3369-1.1087-.8244-1.4873-1.4194-.3786-.595-.6134-1.2795-.6839-1.9932-.0705-.7137.0255-1.4348.2796-2.1.3091.8089.8392 1.5016 1.5222 1.9893s1.488.7482 2.3116.7481z"/>
  <path stroke="#45413C" stroke-linecap="round" stroke-linejoin="round" stroke-width="1.4" d="M95.478 39.9858c0 1.1621.4358 2.2767 1.2114 3.0985.7756.8217 1.8276 1.2834 2.9245 1.2834 1.0971 0 2.1491-.4617 2.9241-1.2834.776-.8218 1.212-1.9364 1.212-3.0985 0-1.1622-.436-2.2767-1.212-3.0985-.775-.8218-1.827-1.2834-2.9241-1.2834-1.0969 0-2.1489.4616-2.9245 1.2834-.7756.8218-1.2114 1.9363-1.2114 3.0985v0z"/>
  <path fill="#45413C" d="M98.0825 31.1881c0 .4302.1614.8429.4485 1.1471.2872.3043.6767.4752 1.0828.4752.4062 0 .7952-.1709 1.0832-.4752.287-.3042.448-.7169.448-1.1471 0-.4303-.161-.843-.448-1.1472-.288-.3043-.677-.4752-1.0832-.4752-.4061 0-.7956.1709-1.0828.4752-.2871.3042-.4485.7169-.4485 1.1472zM90.8911 35.5862c0 .4303.1613.8429.4485 1.1472.2872.3042.6767.4752 1.0828.4752.4062 0 .7956-.171 1.0828-.4752.2872-.3043.4485-.7169.4485-1.1472s-.1613-.843-.4485-1.1472c-.2872-.3043-.6766-.4752-1.0828-.4752-.4061 0-.7956.1709-1.0828.4752-.2872.3042-.4485.7169-.4485 1.1472zM90.8911 44.3839c0 .4303.1613.8429.4485 1.1472.2872.3042.6767.4752 1.0828.4752.4062 0 .7956-.171 1.0828-.4752.2872-.3043.4485-.7169.4485-1.1472s-.1613-.843-.4485-1.1472c-.2872-.3043-.6766-.4752-1.0828-.4752-.4061 0-.7956.1709-1.0828.4752-.2872.3042-.4485.7169-.4485 1.1472zM98.0825 48.7835c0 .4303.1614.843.4485 1.1472.2872.3043.6767.4752 1.0828.4752.4062 0 .7952-.1709 1.0832-.4752.287-.3042.448-.7169.448-1.1472s-.161-.8429-.448-1.1472c-.288-.3042-.677-.4752-1.0832-.4752-.4061 0-.7956.171-1.0828.4752-.2871.3043-.4485.7169-.4485 1.1472zM105.274 44.3839c0 .4303.162.8429.449 1.1472.287.3042.677.4752 1.083.4752.406 0 .795-.171 1.083-.4752.287-.3043.448-.7169.448-1.1472s-.161-.843-.448-1.1472c-.288-.3043-.677-.4752-1.083-.4752-.406 0-.796.1709-1.083.4752-.287.3042-.449.7169-.449 1.1472zM105.274 35.5862c0 .4303.162.8429.449 1.1472.287.3042.677.4752 1.083.4752.406 0 .795-.171 1.083-.4752.287-.3043.448-.7169.448-1.1472s-.161-.843-.448-1.1472c-.288-.3043-.677-.4752-1.083-.4752-.406 0-.796.1709-1.083.4752-.287.3042-.449.7169-.449 1.1472z"/>
  <path fill="#FF6242" d="M106.774 82.3373c-.007-.0144-.015-.0278-.025-.0399-.505-1.0189-1.222-1.9026-2.097-2.584-11.2041-8.7115-24.14-14.5938-37.8188-17.1972-18.785-3.0973-16.8764-1.6224-29.525 10.0012-.629.5787-1.3831.9839-2.1953 1.18-.0682.0693-24.7125 3.2049-24.8058 3.2167-1.10203.1408-2.1461.6007-3.01746 1.3293-.87137.7285-1.53629 1.6975-1.92169 2.8004l-.74477 2.1061-.64593 1.8082-1.45196 4.5884c-.10634.3406-.14174.7016-.10377 1.058.03797.3565.14841.7.32372 1.0069.64888 1.1434 1.56611 2.0894 2.66242 2.7459 1.09631.6565 2.33436 1.0011 3.59367 1.0003h3.36607c.0287-2.3753.9394-4.643 2.5349-6.312 1.5956-1.669 3.7475-2.6048 5.9896-2.6048 2.2422 0 4.3941.9358 5.9896 2.6048 1.5955 1.669 2.5063 3.9367 2.5349 6.312h52.4667c.0287-2.3753.9394-4.643 2.5349-6.312 1.5956-1.669 3.7475-2.6048 5.9896-2.6048 2.2422 0 4.3941.9358 5.9896 2.6048 1.5956 1.669 2.5063 3.9367 2.5349 6.312h5.0979c.469.0004.934-.0973 1.368-.2874.434-.1901.828-.469 1.16-.8206.332-.3517.595-.7692.774-1.2287.18-.4595.272-.952.272-1.4493 0-6.0028.203-7.1459-.83-9.2343zm-63.7958-7.7919c-.1893-.0006-.374-.0617-.53-.1753-.156-.1136-.2761-.2744-.3445-.4614-.0684-.187-.082-.3915-.039-.5868.043-.1953.1407-.3724.2801-.508 2.5587-2.5485 5.3212-4.857 8.2565-6.8995 4.0733-2.559 15.9145.5811 15.9145.5811v8.0499H42.9782zm27.1111 0v-6.9895c11.9845 3.9262 12.501 3.6872 12.501 5.3096 0 2.1755-1.3712 1.6799-12.501 1.6799z"/>
  <path stroke="#45413C" stroke-linecap="round" stroke-linejoin="round" stroke-width="1.4" d="M60.2583 78.3256h2.6812M66.5126 74.5351v6.637c0 5.6754-4.4672 14.1944-4.4672 14.1944"/>
  <path fill="#656769" stroke="#45413C" stroke-linecap="round" stroke-linejoin="round" stroke-width="1.4" d="M70.0891 67.5559v6.9895h-3.5735v-8.0499l3.5735 1.0604z"/>
  <path fill="#FF866E" d="M4.63147 83.116c1.042-1.3848 2.55482-2.2818 4.21388-2.4984l25.63545-3.292c1.0609-.1357 2.0591-.6047 2.8663-1.3466l10.0565-9.2343c1.8606-1.6981 4.2375-2.6272 6.6932-2.6164 18.9021.2281 37.2852 6.5815 52.6782 18.206-.007-.0143-.015-.0277-.025-.0398-.504-1.0189-1.221-1.9027-2.096-2.584-11.2048-8.7115-24.1407-14.5938-37.8195-17.1972-18.7849-3.0973-16.8764-1.6224-29.525 10.0012-.629.5786-1.3831.9839-2.1953 1.1799-.0682.0694-24.7125 3.205-24.8058 3.2168-1.102.1408-2.14607.6007-3.01743 1.3293-.87137.7285-1.53629 1.6975-1.92169 2.8004l-.74477 2.1061"/>
  <path stroke="#45413C" stroke-linecap="round" stroke-linejoin="round" stroke-width="1.4" d="M36.3125 73.2313c-1.295 2.421-1.9715 5.158-1.9628 7.9408v14.1973"/>
  <path stroke="#45413C" stroke-linecap="round" stroke-linejoin="round" stroke-width="1.4" d="M106.774 82.3373c-.007-.0144-.015-.0278-.025-.0399-.505-1.0189-1.222-1.9026-2.097-2.584-11.2041-8.7115-24.14-14.5938-37.8188-17.1972-18.785-3.0973-16.8764-1.6224-29.525 10.0012-.629.5787-1.3831.9839-2.1953 1.18-.0682.0693-24.7125 3.2049-24.8058 3.2167-1.10203.1408-2.1461.6007-3.01746 1.3293-.87137.7285-1.53629 1.6975-1.92169 2.8004l-.74477 2.1061-.64593 1.8082-1.45196 4.5884c-.10634.3406-.14174.7016-.10377 1.058.03797.3565.14841.7.32372 1.0069.64888 1.1434 1.56611 2.0894 2.66242 2.7459 1.09631.6565 2.33436 1.0011 3.59367 1.0003h3.36607c.0287-2.3753.9394-4.643 2.5349-6.312 1.5956-1.669 3.7475-2.6048 5.9896-2.6048 2.2422 0 4.3941.9358 5.9896 2.6048 1.5955 1.669 2.5063 3.9367 2.5349 6.312h52.4667c.0287-2.3753.9394-4.643 2.5349-6.312 1.5956-1.669 3.7475-2.6048 5.9896-2.6048 2.2422 0 4.3941.9358 5.9896 2.6048 1.5956 1.669 2.5063 3.9367 2.5349 6.312h5.0979c.469.0004.934-.0973 1.368-.2874.434-.1901.828-.469 1.16-.8206.332-.3517.595-.7692.774-1.2287.18-.4595.272-.952.272-1.4493 0-6.0028.203-7.1459-.83-9.2343zm-63.7958-7.7919c-.1893-.0006-.374-.0617-.53-.1753-.156-.1136-.2761-.2744-.3445-.4614-.0684-.187-.082-.3915-.039-.5868.0431-.1953.1407-.3724.2801-.508 2.5587-2.5485 5.3212-4.857 8.2565-6.8995 4.0733-2.559 15.9145.5811 15.9145.5811v8.0499H42.9782zm27.1111 0v-6.9895c11.9845 3.9262 12.501 3.6872 12.501 5.3096 0 2.1755-1.3712 1.6799-12.501 1.6799v0z"/>
  <path fill="#F0F0F0" d="M59.1906 103.472c0 2.152-.8067 4.215-2.2425 5.736-1.4359 1.522-3.3834 2.376-5.414 2.376H8.6575c-2.03063 0-3.9781-.854-5.41398-2.376-1.43588-1.521-2.24254-3.584-2.24254-5.736 0-2.151.80666-4.2142 2.24254-5.7355s3.38335-2.3759 5.41398-2.3759h42.8766c2.0306 0 3.9781.8546 5.414 2.3759 1.4358 1.5213 2.2425 3.5845 2.2425 5.7355z"/>
  <path fill="#BDBEC0" d="M8.65728 98.8207H51.5338c1.7471-.0002 3.4418.6326 4.8026 1.7933 1.3608 1.161 2.306 2.78 2.6786 4.589.244-1.185.2344-2.412-.0282-3.592-.2625-1.18-.7713-2.2824-1.489-3.2265-.7177-.9442-1.6259-1.7059-2.658-2.2292-1.0321-.5233-2.1618-.7949-3.306-.7947H8.65728c-1.14419-.0002-2.27385.2714-3.30593.7947-1.03209.5233-1.94035 1.285-2.65802 2.2292-.71766.9441-1.22647 2.0465-1.48902 3.2265-.262559 1.18-.272178 2.407-.02815 3.592.37261-1.809 1.31777-3.428 2.67859-4.589 1.36081-1.1607 3.05543-1.7935 4.80253-1.7933z"/>
  <path stroke="#45413C" stroke-linecap="round" stroke-linejoin="round" stroke-width="1.4" d="M59.1906 103.472c0 2.152-.8067 4.215-2.2425 5.736-1.4359 1.522-3.3834 2.376-5.414 2.376H8.6575c-2.03063 0-3.9781-.854-5.41398-2.376-1.43588-1.521-2.24254-3.584-2.24254-5.736 0-2.151.80666-4.2142 2.24254-5.7355s3.38335-2.3759 5.41398-2.3759h42.8766c2.0306 0 3.9781.8546 5.414 2.3759 1.4358 1.5213 2.2425 3.5845 2.2425 5.7355z"/>
  <path fill="#ADC4D9" d="M4.06299 103.472c0 1.291.484 2.529 1.34552 3.442.86153.913 2.03001 1.426 3.24839 1.426 1.21839 0 2.3869-.513 3.2484-1.426.8615-.913 1.3455-2.151 1.3455-3.442 0-1.29-.484-2.528-1.3455-3.441-.8615-.9129-2.03001-1.4257-3.2484-1.4257-1.21838 0-2.38686.5128-3.24839 1.4257-.86152.913-1.34552 2.151-1.34552 3.441z"/>
  <path fill="#C0DCEB" d="M8.65691 102.065c.93165 0 1.84129.3 2.60829.86.7671.561 1.3552 1.355 1.6863 2.277.2641-.736.3554-1.53.266-2.313-.0894-.782-.3568-1.53-.7793-2.178-.4224-.649-.9872-1.1796-1.6459-1.546-.6587-.3663-1.39147-.5577-2.13539-.5577-.74392 0-1.47672.1914-2.13538.5577-.65867.3664-1.22351.897-1.64596 1.546-.42245.648-.68987 1.396-.77928 2.178-.08941.783.00187 1.577.266 2.313.33116-.922.91926-1.716 1.68627-2.277.76702-.56 1.6767-.86 2.60835-.86z"/>
  <path stroke="#45413C" stroke-linecap="round" stroke-linejoin="round" stroke-width="1.4" d="M4.06299 103.472c0 1.291.484 2.529 1.34552 3.442.86153.913 2.03001 1.426 3.24839 1.426 1.21839 0 2.3869-.513 3.2484-1.426.8615-.913 1.3455-2.151 1.3455-3.442 0-1.29-.484-2.528-1.3455-3.441-.8615-.9129-2.03001-1.4257-3.2484-1.4257-1.21838 0-2.38686.5128-3.24839 1.4257-.86152.913-1.34552 2.151-1.34552 3.441v0z"/>
  <path fill="#ADC4D9" d="M25.5015 103.472c0 .64.1188 1.273.3497 1.863.2308.591.5692 1.127.9958 1.579.4266.452.933.811 1.4904 1.055.5573.245 1.1547.371 1.758.371s1.2006-.126 1.758-.371c.5574-.244 1.0638-.603 1.4904-1.055.4266-.452.7649-.988.9958-1.579.2309-.59.3497-1.223.3497-1.863 0-.639-.1188-1.272-.3497-1.862-.2309-.591-.5692-1.127-.9958-1.579-.4266-.4521-.933-.8106-1.4904-1.0552-.5574-.2446-1.1547-.3705-1.758-.3705s-1.2007.1259-1.758.3705c-.5574.2446-1.0638.6031-1.4904 1.0552-.4266.452-.765.988-.9958 1.579-.2309.59-.3497 1.223-.3497 1.862z"/>
  <path fill="#C0DCEB" d="M30.0954 102.065c.9316 0 1.8413.3 2.6083.86.767.561 1.3551 1.355 1.6863 2.277.2641-.736.3554-1.53.266-2.313-.0894-.782-.3568-1.53-.7793-2.178-.4224-.649-.9873-1.1796-1.6459-1.546-.6587-.3663-1.3915-.5577-2.1354-.5577-.7439 0-1.4767.1914-2.1354.5577-.6587.3664-1.2235.897-1.646 1.546-.4224.648-.6898 1.396-.7792 2.178-.0894.783.0018 1.577.266 2.313.3311-.922.9192-1.716 1.6862-2.277.7671-.56 1.6767-.86 2.6084-.86z"/>
  <path stroke="#45413C" stroke-linecap="round" stroke-linejoin="round" stroke-width="1.4" d="M25.5015 103.472c0 .64.1188 1.273.3497 1.863.2308.591.5692 1.127.9958 1.579.4266.452.933.811 1.4904 1.055.5573.245 1.1547.371 1.758.371s1.2006-.126 1.758-.371c.5574-.244 1.0638-.603 1.4904-1.055.4266-.452.7649-.988.9958-1.579.2309-.59.3497-1.223.3497-1.863 0-.639-.1188-1.272-.3497-1.862-.2309-.591-.5692-1.127-.9958-1.579-.4266-.4521-.933-.8106-1.4904-1.0552-.5574-.2446-1.1547-.3705-1.758-.3705s-1.2007.1259-1.758.3705c-.5574.2446-1.0638.6031-1.4904 1.0552-.4266.452-.765.988-.9958 1.579-.2309.59-.3497 1.223-.3497 1.862v0z"/>
  <path fill="#ADC4D9" d="M46.9399 103.472c0 1.291.484 2.529 1.3456 3.442.8615.913 2.03 1.426 3.2484 1.426 1.2183 0 2.3868-.513 3.2484-1.426.8615-.913 1.3455-2.151 1.3455-3.442 0-1.29-.484-2.528-1.3455-3.441-.8616-.9129-2.0301-1.4257-3.2484-1.4257-1.2184 0-2.3869.5128-3.2484 1.4257-.8616.913-1.3456 2.151-1.3456 3.441z"/>
  <path fill="#C0DCEB" d="M51.5339 102.065c.9316 0 1.8413.3 2.6083.86.767.561 1.3551 1.355 1.6863 2.277.2641-.736.3554-1.53.266-2.313-.0894-.782-.3569-1.53-.7793-2.178-.4225-.649-.9873-1.1796-1.646-1.546-.6586-.3663-1.3914-.5577-2.1353-.5577-.744 0-1.4768.1914-2.1354.5577-.6587.3664-1.2235.897-1.646 1.546-.4224.648-.6899 1.396-.7793 2.178-.0894.783.0019 1.577.266 2.313.3312-.922.9193-1.716 1.6863-2.277.767-.56 1.6767-.86 2.6084-.86z"/>
  <path stroke="#45413C" stroke-linecap="round" stroke-linejoin="round" stroke-width="1.4" d="M46.9399 103.472c0 1.291.484 2.529 1.3456 3.442.8615.913 2.03 1.426 3.2484 1.426 1.2183 0 2.3868-.513 3.2484-1.426.8615-.913 1.3455-2.151 1.3455-3.442 0-1.29-.484-2.528-1.3455-3.441-.8616-.9129-2.0301-1.4257-3.2484-1.4257-1.2184 0-2.3869.5128-3.2484 1.4257-.8616.913-1.3456 2.151-1.3456 3.441v0z"/>
  <path fill="#F0F0F0" d="M121.974 103.472c0 2.152-.807 4.215-2.243 5.736-1.436 1.522-3.383 2.376-5.414 2.376H71.4407c-2.0306 0-3.9781-.854-5.414-2.376-1.4359-1.521-2.2425-3.584-2.2425-5.736 0-2.151.8066-4.2142 2.2425-5.7355 1.4359-1.5213 3.3834-2.3759 5.414-2.3759h42.8763c2.031 0 3.978.8546 5.414 2.3759 1.436 1.5213 2.243 3.5845 2.243 5.7355z"/>
  <path fill="#BDBEC0" d="M71.441 98.8207h42.877c1.747-.0002 3.441.6326 4.802 1.7933 1.361 1.161 2.306 2.78 2.679 4.589.244-1.185.234-2.412-.028-3.592-.263-1.18-.772-2.2824-1.49-3.2265-.717-.9442-1.625-1.7059-2.658-2.2292-1.032-.5233-2.161-.7949-3.305-.7947H71.441c-1.1442-.0002-2.2739.2714-3.306.7947-1.032.5233-1.9403 1.285-2.658 2.2292-.7176.9441-1.2264 2.0465-1.489 3.2265-.2626 1.18-.2722 2.407-.0282 3.592.3727-1.809 1.3178-3.428 2.6786-4.589 1.3609-1.1607 3.0555-1.7935 4.8026-1.7933z"/>
  <path stroke="#45413C" stroke-linecap="round" stroke-linejoin="round" stroke-width="1.4" d="M121.974 103.472c0 2.152-.807 4.215-2.243 5.736-1.436 1.522-3.383 2.376-5.414 2.376H71.4407c-2.0306 0-3.9781-.854-5.414-2.376-1.4359-1.521-2.2425-3.584-2.2425-5.736 0-2.151.8066-4.2142 2.2425-5.7355 1.4359-1.5213 3.3834-2.3759 5.414-2.3759h42.8763c2.031 0 3.978.8546 5.414 2.3759 1.436 1.5213 2.243 3.5845 2.243 5.7355z"/>
  <path fill="#ADC4D9" d="M66.8467 103.472c0 1.291.484 2.529 1.3455 3.442.8615.913 2.03 1.426 3.2484 1.426 1.2184 0 2.3869-.513 3.2484-1.426.8615-.913 1.3455-2.151 1.3455-3.442 0-1.29-.484-2.528-1.3455-3.441-.8615-.9129-2.03-1.4257-3.2484-1.4257-1.2184 0-2.3869.5128-3.2484 1.4257-.8615.913-1.3455 2.151-1.3455 3.441z"/>
  <path fill="#C0DCEB" d="M71.4406 102.065c.9317 0 1.8413.3 2.6083.86.7671.561 1.3552 1.355 1.6863 2.277.2641-.736.3554-1.53.266-2.313-.0894-.782-.3568-1.53-.7793-2.178-.4224-.649-.9873-1.1796-1.6459-1.546-.6587-.3663-1.3915-.5577-2.1354-.5577-.7439 0-1.4767.1914-2.1354.5577-.6586.3664-1.2235.897-1.6459 1.546-.4225.648-.6899 1.396-.7793 2.178-.0894.783.0019 1.577.266 2.313.3311-.922.9192-1.716 1.6863-2.277.767-.56 1.6766-.86 2.6083-.86z"/>
  <path stroke="#45413C" stroke-linecap="round" stroke-linejoin="round" stroke-width="1.4" d="M66.8467 103.472c0 1.291.484 2.529 1.3455 3.442.8615.913 2.03 1.426 3.2484 1.426 1.2184 0 2.3869-.513 3.2484-1.426.8615-.913 1.3455-2.151 1.3455-3.442 0-1.29-.484-2.528-1.3455-3.441-.8615-.9129-2.03-1.4257-3.2484-1.4257-1.2184 0-2.3869.5128-3.2484 1.4257-.8615.913-1.3455 2.151-1.3455 3.441v0z"/>
  <path fill="#ADC4D9" d="M88.2852 103.472c0 1.291.484 2.529 1.3455 3.442.8615.913 2.03 1.426 3.2484 1.426 1.2183 0 2.3868-.513 3.2484-1.426.8615-.913 1.3455-2.151 1.3455-3.442 0-1.29-.484-2.528-1.3455-3.441-.8616-.9129-2.0301-1.4257-3.2484-1.4257-1.2184 0-2.3869.5128-3.2484 1.4257-.8615.913-1.3455 2.151-1.3455 3.441z"/>
  <path fill="#C0DCEB" d="M92.8791 102.065c.9316 0 1.8413.3 2.6083.86.767.561 1.3551 1.355 1.6863 2.277.2641-.736.3554-1.53.266-2.313-.0894-.782-.3568-1.53-.7793-2.178-.4224-.649-.9873-1.1796-1.6459-1.546-.6587-.3663-1.3915-.5577-2.1354-.5577-.7439 0-1.4767.1914-2.1354.5577-.6587.3664-1.2235.897-1.646 1.546-.4224.648-.6898 1.396-.7792 2.178-.0895.783.0018 1.577.266 2.313.3311-.922.9192-1.716 1.6862-2.277.767-.56 1.6767-.86 2.6084-.86z"/>
  <path stroke="#45413C" stroke-linecap="round" stroke-linejoin="round" stroke-width="1.4" d="M88.2852 103.472c0 1.291.484 2.529 1.3455 3.442.8615.913 2.03 1.426 3.2484 1.426 1.2183 0 2.3868-.513 3.2484-1.426.8615-.913 1.3455-2.151 1.3455-3.442 0-1.29-.484-2.528-1.3455-3.441-.8616-.9129-2.0301-1.4257-3.2484-1.4257-1.2184 0-2.3869.5128-3.2484 1.4257-.8615.913-1.3455 2.151-1.3455 3.441v0z"/>
  <path fill="#ADC4D9" d="M109.724 103.472c0 .64.118 1.273.349 1.863.231.591.57 1.127.996 1.579.427.452.933.811 1.491 1.055.557.245 1.154.371 1.758.371.603 0 1.2-.126 1.758-.371.557-.244 1.063-.603 1.49-1.055.427-.452.765-.988.996-1.579.231-.59.349-1.223.349-1.863 0-.639-.118-1.272-.349-1.862-.231-.591-.569-1.127-.996-1.579-.427-.4521-.933-.8106-1.49-1.0552-.558-.2446-1.155-.3705-1.758-.3705-.604 0-1.201.1259-1.758.3705-.558.2446-1.064.6031-1.491 1.0552-.426.452-.765.988-.996 1.579-.231.59-.349 1.223-.349 1.862z"/>
  <path fill="#C0DCEB" d="M114.318 102.065c.931 0 1.841.3 2.608.86.767.561 1.355 1.355 1.686 2.277.264-.736.356-1.53.266-2.313-.089-.782-.357-1.53-.779-2.178-.423-.649-.987-1.1796-1.646-1.546-.659-.3663-1.392-.5577-2.135-.5577-.744 0-1.477.1914-2.136.5577-.659.3664-1.223.897-1.646 1.546-.422.648-.69 1.396-.779 2.178-.089.783.002 1.577.266 2.313.331-.922.919-1.716 1.686-2.277.767-.56 1.677-.86 2.609-.86z"/>
  <path stroke="#45413C" stroke-linecap="round" stroke-linejoin="round" stroke-width="1.4" d="M109.724 103.472c0 .64.118 1.273.349 1.863.231.591.57 1.127.996 1.579.427.452.933.811 1.491 1.055.557.245 1.154.371 1.758.371.603 0 1.2-.126 1.758-.371.557-.244 1.063-.603 1.49-1.055.427-.452.765-.988.996-1.579.231-.59.349-1.223.349-1.863 0-.639-.118-1.272-.349-1.862-.231-.591-.569-1.127-.996-1.579-.427-.4521-.933-.8106-1.49-1.0552-.558-.2446-1.155-.3705-1.758-.3705-.604 0-1.201.1259-1.758.3705-.558.2446-1.064.6031-1.491 1.0552-.426.452-.765.988-.996 1.579-.231.59-.349 1.223-.349 1.862z"/>
</svg>
