<svg xmlns="http://www.w3.org/2000/svg" fill="none" viewBox="0 0 118 118">
  <defs/>
  <g clip-path="url(#clip0)">
    <path fill="#C7F0FF" d="M3 62.2616C3 77.1137 8.89998 91.3575 19.402 101.86 29.9041 112.362 44.1479 118.262 59 118.262s29.0959-5.9 39.598-16.402C109.1 91.3575 115 77.1137 115 62.2616c0-14.8521-5.9-29.0959-16.402-39.598C88.0959 12.1616 73.8521 6.2616 59 6.2616s-29.0959 5.9-39.598 16.402C8.89998 33.1657 3 47.4095 3 62.2616z"/>
    <path fill="#45413C" d="M19.2739 90.825c0 .7397 1.5414 1.449 4.2851 1.972 2.7436.523 6.4648.8168 10.3449.8168 3.8801 0 7.6013-.2938 10.345-.8168 2.7437-.523 4.285-1.2323 4.285-1.972 0-.7396-1.5413-1.449-4.285-1.972-2.7437-.523-6.4649-.8168-10.345-.8168-3.8801 0-7.6013.2938-10.3449.8168-2.7437.523-4.2851 1.2324-4.2851 1.972zM72.0303 90.825c0 .7397 1.5413 1.449 4.285 1.972 2.7437.523 6.4649.8168 10.345.8168 3.8801 0 7.6013-.2938 10.3449-.8168 2.7437-.523 4.2848-1.2323 4.2848-1.972 0-.7396-1.5411-1.449-4.2848-1.972-2.7436-.523-6.4648-.8168-10.3449-.8168-3.8801 0-7.6013.2938-10.345.8168-2.7437.523-4.285 1.2324-4.285 1.972z" opacity=".15"/>
    <path fill="#fff" stroke="#45413C" stroke-linecap="round" stroke-linejoin="round" stroke-width="1.4" d="M97.4627 84.9702H76.9331c-.5145.0004-1.0079.2049-1.3717.5688-.3638.3638-.5684.8571-.5687 1.3716v3.4846h24.4104v-3.4846c-.0004-.5145-.2049-1.0078-.5688-1.3716-.3638-.3639-.8571-.5684-1.3716-.5688z"/>
    <path fill="#fff" d="M96.6913 84.9702H77.7045l-.5978-.8974c-1.3788-2.0668-2.1144-4.4958-2.114-6.9804-.0001-1.9543.4553-3.8818 1.33-5.6294 2.6932-5.3847 4.0957-11.3225 4.0964-17.3432v-3.052h13.5604v3.052c-.0001 6.0195 1.4014 11.9564 4.0936 17.3404.8736 1.7475 1.3285 3.6743 1.3286 5.628 0 2.4845-.7355 4.9134-2.114 6.9804l-.5964.9016z"/>
    <path fill="#DAEDF7" d="M94.0159 55.419c-.014-.434-.0378-.8652-.0378-1.2992v-3.052h-13.559v3.052c0 .434-.0238.8652-.0378 1.2992h13.6346z"/>
    <path stroke="#45413C" stroke-linecap="round" stroke-linejoin="round" stroke-width="1.4" d="M96.6913 84.9702H77.7045l-.5978-.8974c-1.3788-2.0668-2.1144-4.4958-2.114-6.9804v0c-.0001-1.9543.4553-3.8818 1.33-5.6294 2.6932-5.3847 4.0957-11.3225 4.0964-17.3432v-3.052h13.5604v3.052c-.0001 6.0195 1.4014 11.9564 4.0936 17.3404v0c.8736 1.7475 1.3285 3.6743 1.3286 5.628v0c0 2.4845-.7355 4.9134-2.114 6.9804l-.5964.9016z"/>
    <path fill="#fff" d="M77.7046 36.1508c0-1.8776.5568-3.7131 1.5999-5.2742 1.0432-1.5612 2.5258-2.778 4.2605-3.4965 1.7347-.7186 3.6435-.9066 5.4851-.5403 1.8415.3663 3.5331 1.2705 4.8607 2.5982 1.3277 1.3276 2.2319 3.0192 2.5982 4.8607.3663 1.8416.1783 3.7504-.5402 5.4851-.7186 1.7347-1.9354 3.2173-3.4966 4.2605-1.5611 1.0431-3.3966 1.5999-5.2742 1.5999-2.5178 0-4.9325-1.0002-6.7129-2.7805-1.7803-1.7804-2.7805-4.1951-2.7805-6.7129z"/>
    <path fill="#E8F4FA" d="M87.1981 41.6766c-2.1724-.0009-4.2787-.747-5.9673-2.1137-1.6885-1.3667-2.8571-3.2714-3.3105-5.3959-.2993 1.3848-.2848 2.8189.0424 4.1974.3272 1.3784.9588 2.6661 1.8485 3.7686.8897 1.1026 2.0149 1.992 3.2932 2.603 1.2782.611 2.6769.9281 4.0937.9281 1.4167 0 2.8155-.3171 4.0937-.9281s2.4034-1.5004 3.2931-2.603c.8897-1.1025 1.5213-2.3902 1.8485-3.7686.3272-1.3785.3417-2.8126.0424-4.1974-.4534 2.1245-1.622 4.0292-3.3105 5.3959-1.6886 1.3667-3.7949 2.1128-5.9672 2.1137z"/>
    <path stroke="#45413C" stroke-linecap="round" stroke-linejoin="round" stroke-width="1.4" d="M77.7046 36.1508c0-1.8776.5568-3.7131 1.5999-5.2742 1.0432-1.5612 2.5258-2.778 4.2605-3.4965 1.7347-.7186 3.6435-.9066 5.4851-.5403 1.8415.3663 3.5331 1.2705 4.8607 2.5982 1.3277 1.3276 2.2319 3.0192 2.5982 4.8607.3663 1.8416.1783 3.7504-.5402 5.4851-.7186 1.7347-1.9354 3.2173-3.4966 4.2605-1.5611 1.0431-3.3966 1.5999-5.2742 1.5999-2.5178 0-4.9325-1.0002-6.7129-2.7805-1.7803-1.7804-2.7805-4.1951-2.7805-6.7129v0z"/>
    <path fill="#fff" stroke="#45413C" stroke-linecap="round" stroke-linejoin="round" stroke-width="1.4" d="M93.9782 45.6442h-13.559c-.7189-.0004-1.4085.2845-1.9175.7922-.5089.5076-.7956 1.1965-.7971 1.9154-.0004.3566.0696.7099.2058 1.0395.1363.3296.3362.6291.5884.8813.2521.2523.5515.4524.881.5888.3295.1364.6827.2066 1.0394.2064h13.5604c.3564-.0002.7093-.0706 1.0385-.2072.3292-.1366.6283-.3367.8801-.589.2518-.2522.4515-.5516.5876-.881s.206-.6824.2056-1.0388c-.0015-.7186-.288-1.4073-.7967-1.9149-.5086-.5076-1.1979-.7927-1.9165-.7927zM42.72 84.9702H22.1904c-.5146 0-1.0082.2045-1.3721.5683-.3639.3639-.5683.8575-.5683 1.3721v3.4846h24.4104v-3.4846c-.0004-.5145-.2049-1.0078-.5687-1.3716-.3639-.3639-.8572-.5684-1.3717-.5688z"/>
    <path fill="#fff" d="M41.9472 84.9702H22.9618l-.5978-.8974c-1.3788-2.0668-2.1144-4.4958-2.114-6.9804.0004-1.9541.4552-3.8813 1.3286-5.6294 2.6951-5.3842 4.0991-11.3221 4.1006-17.3432v-3.052h13.5604v3.052c-.0001 6.0195 1.4015 11.9564 4.0936 17.3404.8736 1.7475 1.3285 3.6743 1.3286 5.628.0001 2.4845-.7355 4.9134-2.114 6.9804l-.6006.9016z"/>
    <path fill="#DAEDF7" d="M39.2729 55.419c-.014-.434-.0378-.8652-.0378-1.2992v-3.052H25.6789v3.052c0 .434-.0238.8652-.0378 1.2992h13.6318z"/>
    <path stroke="#45413C" stroke-linecap="round" stroke-linejoin="round" stroke-width="1.4" d="M41.9472 84.9702H22.9618l-.5978-.8974c-1.3788-2.0668-2.1144-4.4958-2.114-6.9804v0c.0004-1.9541.4552-3.8813 1.3286-5.6294v0c2.6951-5.3842 4.0991-11.3221 4.1006-17.3432v-3.052h13.5604v3.052c-.0001 6.0195 1.4015 11.9564 4.0936 17.3404v0c.8736 1.7475 1.3285 3.6743 1.3286 5.628v0c.0001 2.4845-.7355 4.9134-2.114 6.9804l-.6006.9016z"/>
    <path fill="#fff" d="M22.9614 36.1508c0-1.8776.5568-3.7131 1.6-5.2742 1.0431-1.5612 2.5258-2.778 4.2605-3.4965 1.7347-.7186 3.6435-.9066 5.485-.5403 1.8415.3663 3.5331 1.2705 4.8608 2.5982 1.3276 1.3276 2.2318 3.0192 2.5981 4.8607.3663 1.8416.1783 3.7504-.5402 5.4851-.7185 1.7347-1.9353 3.2173-3.4965 4.2605-1.5612 1.0431-3.3967 1.5999-5.2743 1.5999-2.5178 0-4.9325-1.0002-6.7128-2.7805-1.7804-1.7804-2.7806-4.1951-2.7806-6.7129z"/>
    <path fill="#E8F4FA" d="M32.4549 41.6766c-2.1724-.0009-4.2787-.747-5.9673-2.1137-1.6885-1.3667-2.8571-3.2714-3.3105-5.3959-.2993 1.3848-.2848 2.8189.0424 4.1974.3272 1.3784.9589 2.6661 1.8486 3.7686.8897 1.1026 2.0149 1.992 3.2931 2.603 1.2782.611 2.677.9281 4.0937.9281s2.8155-.3171 4.0937-.9281 2.4034-1.5004 3.2931-2.603c.8897-1.1025 1.5214-2.3902 1.8486-3.7686.3272-1.3785.3417-2.8126.0424-4.1974-.4535 2.1245-1.622 4.0292-3.3106 5.3959-1.6885 1.3667-3.7948 2.1128-5.9672 2.1137z"/>
    <path stroke="#45413C" stroke-linecap="round" stroke-linejoin="round" stroke-width="1.4" d="M41.9468 36.1508c.0002 1.8777-.5563 3.7134-1.5994 5.2748-1.043 1.5614-2.5257 2.7784-4.2604 3.4971-1.7348.7187-3.6437.9068-5.4854.5406-1.8416-.3663-3.5333-1.2705-4.8611-2.5982-1.3277-1.3278-2.2319-3.0195-2.5982-4.8612-.3663-1.8416-.1781-3.7506.5406-5.4853.7187-1.7347 1.9357-3.2174 3.4971-4.2604 1.5614-1.0431 3.397-1.5997 5.2748-1.5994 2.5174 0 4.9317 1.0001 6.7118 2.7802 1.7801 1.78 2.7802 4.1944 2.7802 6.7118v0z"/>
    <path fill="#fff" stroke="#45413C" stroke-linecap="round" stroke-linejoin="round" stroke-width="1.4" d="M39.235 45.6442H25.6788c-.7193-.0011-1.4097.2835-1.9192.7912-.5096.5077-.7967 1.1971-.7982 1.9164-.0003.3569.0697.7103.2062 1.0401.1364.3298.3366.6294.589.8817.2524.2523.5521.4523.882.5886.3298.1363.6833.2062 1.0402.2056h13.5604c.3561-.0006.7087-.0712 1.0375-.208.3288-.1368.6274-.337.8788-.5892.2515-.2522.4507-.5515.5865-.8807.1358-.3292.2054-.682.2048-1.0381-.0011-.7185-.2873-1.4072-.7957-1.9148-.5085-.5077-1.1976-.7928-1.9161-.7928z"/>
    <path fill="#45413C" d="M33.082 103.44c0 .779 2.7835 1.526 7.7381 2.076 4.9546.551 11.6745.86 18.6813.86 7.0069 0 13.7268-.309 18.6814-.86 4.9546-.55 7.738-1.297 7.738-2.076 0-.778-2.7834-1.525-7.738-2.076-4.9546-.55-11.6745-.859-18.6814-.859-7.0068 0-13.7267.309-18.6813.859-4.9546.551-7.7381 1.298-7.7381 2.076z" opacity=".15"/>
    <path fill="#F0F0F0" stroke="#45413C" stroke-linecap="round" stroke-linejoin="round" stroke-width="1.4" d="M76.9972 97.279h-34.202c-.3913-.0004-.7669.1545-1.0443.4306-.2774.276-.434.6509-.4355 1.0422v2.5862c0 .371.1475.727.4101.99.2625.262.6186.41.9899.41H77.077c.3713 0 .7274-.148.99-.41.2625-.263.41-.619.41-.99v-2.5862c-.0015-.3913-.1581-.7662-.4355-1.0422-.2774-.2761-.6529-.431-1.0443-.4306z"/>
    <path fill="#fff" stroke="#45413C" stroke-linecap="round" stroke-linejoin="round" stroke-width="1.4" d="M46.7812 47.0008h26.2319v4.3722H46.7812v-4.3722zM47.873 38.2578h24.045V42.63H47.873v-4.3722z"/>
    <path fill="#fff" d="M50.0603 38.2578c0-5.0613-.8851-10.0836-2.6152-14.84l-.6902-1.8998c-.1213-.3305-.1609-.6855-.1156-1.0347.0453-.3491.1743-.6822.3759-.9708.2016-.2887.47-.5243.7822-.687.3123-.1627.6592-.2476 1.0113-.2475h22.176c.3522-.0004.6993.0844 1.0117.247.3125.1626.581.3982.7828.6869.2018.2887.3309.6218.3763.9711.0454.3493.0057.7043-.1156 1.035l-.6916 1.8998c-1.7295 4.7566-2.6145 9.7788-2.6152 14.84H50.0603z"/>
    <path stroke="#45413C" stroke-linecap="round" stroke-linejoin="round" stroke-width="1.4" d="M50.0603 38.2578c0-5.0613-.8851-10.0836-2.6152-14.84l-.6902-1.8998c-.1213-.3305-.1609-.6855-.1156-1.0347.0453-.3491.1743-.6822.3759-.9708.2016-.2887.47-.5244.7822-.687.3123-.1627.6592-.2476 1.0113-.2475h22.176c.3522-.0004.6993.0844 1.0117.247.3125.1626.581.3982.7828.6869.2018.2887.3309.6218.3763.9711.0454.3493.0057.7043-.1156 1.035l-.6916 1.8998c-1.7295 4.7566-2.6145 9.7788-2.6152 14.84H50.0603z"/>
    <path fill="#fff" d="M66.3072 4.7292c-1.1496.3239-2.3226.55794-3.5084.7.0826-.42.1624-.84.28-1.26L63.8712 1.4c.0477-.16312.0566-.33511.0262-.502307C63.867.730495 63.798.572689 63.696.4368c-.1021-.135889-.2344-.246118-.3865-.32194s-.3198-.11514862-.4897-.1148584h-5.8464c-.1698-.0000725-.3373.039414-.4892.1153294-.1519.075915-.2841.186172-.386.322031-.1019.135859-.1707.293584-.2011.460675-.0303.167093-.0213.338953.0263.501963l.791 2.7692c.119.42.1974.84.28 1.26-1.1858-.14219-2.3588-.37623-3.5084-.7-.1448-.03992-.2969-.04601-.4444-.01781-.1476.02821-.2867.08996-.4066.18048-.1199.09053-.2173.2074-.2848.3416-.0676.13419-.1033.28211-.1046.43233v5.0694c.0013.1502.037.2981.1046.4323.0675.1342.1649.2511.2848.3416.1199.0906.259.1523.4066.1805.1475.0282.2996.0221.4444-.0178 1.1622-.3246 2.3478-.5586 3.5462-.7-.014.0798-.0168.161-.0322.2394l-1.4756 7.3724h8.7444l-1.4742-7.3724c-.0154-.0784-.0182-.1596-.0336-.2394 1.1984.1414 2.384.3754 3.5462.7.1448.0399.2969.046.4444.0178.1476-.0282.2867-.0899.4066-.1805.1199-.0905.2173-.2074.2849-.3416.0675-.1342.1033-.2821.1045-.4323V5.6658c-.0012-.15022-.037-.29814-.1045-.43233-.0676-.1342-.165-.25107-.2849-.3416-.1199-.09052-.259-.15227-.4066-.18048-.1475-.0282-.2996-.02211-.4444.01781z"/>
    <path stroke="#45413C" stroke-linecap="round" stroke-linejoin="round" stroke-width="1.4" d="M66.3072 4.7292c-1.1495.3239-2.3226.55794-3.5084.7.0826-.42.161-.84.28-1.26l.791-2.7692c.0476-.16301.0566-.33487.0263-.501962-.0304-.167091-.0992-.324816-.2011-.460675s-.234-.246116-.386-.322031c-.1519-.0759155-.3194-.115402-.4892-.1153295h-5.8464c-.1699-.0003636-.3376.038932-.4896.1147605-.1521.075829-.2844.186099-.3863.322037-.102.135937-.1708.293792-.201.461006-.0302.167214-.021.339174.0269.502194l.791 2.7692c.1176.42.1974.84.28 1.26-1.1858-.14206-2.3588-.3761-3.5084-.7-.1448-.03992-.2969-.04601-.4444-.01781-.1476.02821-.2867.08996-.4066.18048-.1199.09053-.2173.2074-.2848.3416-.0676.13419-.1033.28211-.1046.43233v5.0694c.0013.1502.037.2981.1046.4323.0675.1342.1649.2511.2848.3416.1199.0906.259.1523.4066.1805.1475.0282.2996.0221.4444-.0178 1.1622-.3246 2.3478-.5586 3.5462-.7-.014.0798-.0168.161-.0336.2394l-1.4742 7.3724h8.7444l-1.4756-7.3724c-.0154-.0784-.0182-.1596-.0322-.2394 1.1984.1414 2.384.3754 3.5462.7.1448.0399.2969.046.4444.0178.1476-.0282.2867-.0899.4066-.1805.1199-.0905.2173-.2074.2849-.3416.0675-.1342.1033-.2821.1045-.4323V5.6658c-.0012-.15022-.037-.29814-.1045-.43233-.0676-.1342-.165-.25107-.2849-.3416-.1199-.09052-.259-.15227-.4066-.18048-.1475-.0282-.2996-.02211-.4444.01781v0z"/>
    <path fill="#fff" d="M74.7602 97.279l.5012-.5894c2.0543-2.3624 3.1963-5.3814 3.22-8.512-.0109-2.6636-.8419-5.2593-2.38-7.434-4.8583-6.8604-7.4857-15.0506-7.525-23.457V51.373H51.2248v5.9122c-.0388 8.4069-2.6663 16.5977-7.525 23.4584-1.5375 2.175-2.3684 4.7705-2.38 7.434.0237 3.1306 1.1658 6.1496 3.22 8.512l.4998.5894h29.7206z"/>
    <path fill="#DAEDF7" d="M51.2246 51.373h17.3418v5.1002H51.2246V51.373z"/>
    <path stroke="#45413C" stroke-linecap="round" stroke-linejoin="round" stroke-width="1.4" d="M74.7602 97.279l.5012-.5894c2.0543-2.3624 3.1963-5.3814 3.22-8.512-.0109-2.6636-.8419-5.2593-2.38-7.434-4.8583-6.8604-7.4857-15.0506-7.525-23.457V51.373H51.2248v5.9122c-.0388 8.4069-2.6663 16.5977-7.525 23.4584v0c-1.5375 2.175-2.3684 4.7705-2.38 7.434.0237 3.1306 1.1658 6.1496 3.22 8.512l.4998.5894h29.7206z"/>
    <path fill="#E8F4FA" stroke="#45413C" stroke-linecap="round" stroke-linejoin="round" stroke-width="1.4" d="M51.1519 42.63h17.4874v4.3722H51.1519V42.63z"/>
  </g>
  <defs>
    <clipPath id="clip0">
      <path fill="#fff" d="M0 0h118v118H0z"/>
    </clipPath>
  </defs>
</svg>
