<svg xmlns="http://www.w3.org/2000/svg" fill="none" viewBox="0 0 114 114">
  <defs/>
  <path fill="#C7F0FF" d="M4.00439 58.6673c0 13.9105 5.52595 27.2513 15.36221 37.0876 9.8362 9.8361 23.177 15.3621 37.0876 15.3621 13.9105 0 27.2514-5.526 37.0876-15.3621 9.8362-9.8363 15.3622-23.1771 15.3622-37.0876 0-13.9106-5.526-27.2514-15.3622-37.0876-9.8362-9.8363-23.1771-15.36223-37.0876-15.36223-13.9106 0-27.2514 5.52593-37.0876 15.36223-9.83626 9.8362-15.36221 23.177-15.36221 37.0876z"/>
  <path fill="#00B8F0" d="M17.6021 57.002c0 5.1741 1.0191 10.2976 2.9991 15.0778 1.9801 4.7803 4.8823 9.1237 8.5409 12.7824 3.6587 3.6586 8.0021 6.5609 12.7824 8.5409 4.7803 1.9801 9.9037 2.9992 15.0778 2.9992 5.1742 0 10.2976-1.0191 15.0779-2.9992 4.7802-1.98 9.1237-4.8823 12.7824-8.5409 3.6586-3.6587 6.5608-8.0021 8.5409-12.7824 1.98-4.7802 2.9991-9.9037 2.9991-15.0778 0-5.1741-1.0191-10.2976-2.9991-15.0779-1.9801-4.7802-4.8823-9.1237-8.5409-12.7823-3.6587-3.6587-8.0022-6.5609-12.7824-8.5409-4.7803-1.9801-9.9037-2.9992-15.0779-2.9992-5.1741 0-10.2975 1.0191-15.0778 2.9992-4.7803 1.98-9.1237 4.8822-12.7824 8.5409-3.6586 3.6586-6.5608 8.0021-8.5409 12.7823-1.98 4.7803-2.9991 9.9038-2.9991 15.0779z"/>
  <path fill="#4ACFFF" d="M96.1784 61.2216c.5735-5.3216.0568-10.7043-1.5186-15.8196-1.5755-5.1153-4.1766-9.856-7.6447-13.9328-3.4682-4.0768-7.7305-7.4043-12.5271-9.7794-4.7966-2.3751-10.0268-3.7481-15.3715-4.0351-5.3447-.287-10.6919.5179-15.7152 2.3657-5.0234 1.8478-9.6176 4.6997-13.5023 8.3816-3.8848 3.682-6.9787 8.1169-9.0929 13.034-2.1142 4.9172-3.2044 10.2136-3.204 15.566-.0001 1.4094.0743 2.8179.2229 4.2196 1.0399-9.6636 5.6151-18.6017 12.8461-25.0962 7.231-6.4946 16.6073-10.0871 26.3267-10.0871 9.7193 0 19.0956 3.5925 26.3266 10.0871 7.231 6.4945 11.8062 15.4326 12.8461 25.0962"/>
  <path fill="#45413C" fill-rule="evenodd" d="M41.6564 19.9541c4.8652-2.0152 10.0797-3.0524 15.3457-3.0524 5.2661 0 10.4806 1.0372 15.3458 3.0524 4.8652 2.0153 9.2858 4.969 13.0094 8.6927 3.7237 3.7236 6.6775 8.1443 8.6927 13.0094 2.0152 4.8652 3.0524 10.0797 3.0524 15.3458 0 5.266-1.0372 10.4805-3.0524 15.3457-2.0152 4.8652-4.969 9.2858-8.6927 13.0095-3.7236 3.7236-8.1442 6.6774-13.0094 8.6926-4.8652 2.0152-10.0797 3.0525-15.3458 3.0525-5.266 0-10.4805-1.0373-15.3457-3.0525-4.8652-2.0152-9.2858-4.969-13.0094-8.6926-3.7237-3.7237-6.6775-8.1443-8.6927-13.0095S16.9019 62.268 16.9019 57.002c0-5.2661 1.0372-10.4806 3.0524-15.3458 2.0152-4.8651 4.969-9.2858 8.6927-13.0094 3.7236-3.7237 8.1442-6.6774 13.0094-8.6927zm15.3457-1.6524c-5.0821 0-10.1146 1.001-14.8099 2.9459-4.6953 1.9448-8.9616 4.7955-12.5553 8.3891-3.5936 3.5937-6.4443 7.86-8.3892 12.5553-1.9448 4.6953-2.9458 9.7278-2.9458 14.81s1.001 10.1146 2.9458 14.8099c1.9449 4.6954 4.7956 8.9616 8.3892 12.5553 3.5937 3.5937 7.86 6.4443 12.5553 8.3892 4.6953 1.9448 9.7278 2.9459 14.8099 2.9459 5.0822 0 10.1147-1.0011 14.81-2.9459 4.6953-1.9449 8.9616-4.7955 12.5553-8.3892 3.5936-3.5937 6.4443-7.8599 8.3892-12.5553 1.9448-4.6953 2.9458-9.7277 2.9458-14.8099s-1.001-10.1147-2.9458-14.81c-1.9449-4.6953-4.7956-8.9616-8.3892-12.5553-3.5937-3.5936-7.86-6.4443-12.5553-8.3891-4.6953-1.9449-9.7278-2.9459-14.81-2.9459z" clip-rule="evenodd"/>
  <path fill="#fff" d="M59.4449 96.3275c-.3316 4.1545-1.1232 8.2585-2.3602 12.2375-1.9472-4.72-4.2576-23.2703-4.2576-51.563 0-28.2928 2.3104-46.8482 4.2576-51.56344 1.237 3.97942 2.0286 8.08384 2.3602 12.23784 1.2396.0761 2.4634.2072 3.6715.3934C61.32 2.32698 59.062 1 57.0847 1 55.1073 1 52.81 2.35058 51.007 18.4763c-1.2735 12.8015-1.8706 25.6612-1.7885 38.5257-.0828 12.863.5134 25.7215 1.7859 38.5217C52.8074 111.652 55.0876 113 57.082 113c1.9944 0 4.2354-1.328 6.0318-17.0698-1.2064.1853-2.4293.3178-3.6689.3973z"/>
  <path fill="#45413C" fill-rule="evenodd" d="M55.143.896482c.6793-.493057 1.3549-.596479 1.9415-.596479.5843 0 1.256.100953 1.9312.583977.6559.46914 1.2449 1.2486 1.7907 2.45979 1.0847 2.40722 2.1065 6.77013 3.0053 14.64663.0247.2168-.0531.4328-.2104.584-.1572.1512-.3761.2205-.5917.1872-1.1867-.1829-2.3892-.3117-3.6078-.3865-.3479-.0213-.6271-.2955-.6549-.643-.266-3.3321-.8317-6.6319-1.6894-9.85951-.2542 1.0131-.5135 2.26471-.7699 3.75221-.4865 2.8221-.9558 6.449-1.3652 10.8192-.8186 8.7395-1.3955 20.4294-1.3955 34.558 0 14.1285.5769 25.8171 1.3955 34.556.4094 4.3698.8787 7.9966 1.3652 10.819.2565 1.488.5158 2.74.7701 3.754.8576-3.228 1.4232-6.5273 1.6892-9.8592.0277-.3468.3058-.6206.653-.6428 1.2193-.0783 2.4218-.2085 3.6074-.3907.2156-.0331.4343.0362.5916.1874.1572.1513.2349.3671.2102.5839-.8988 7.8754-1.9163 12.2384-2.9987 14.6454-.5447 1.212-1.1332 1.992-1.7904 2.461-.6765.483-1.3505.584-1.9381.584-.5897 0-1.2675-.103-1.9481-.596-.6603-.478-1.2531-1.273-1.8023-2.51-1.0922-2.46-2.1209-6.923-3.0229-14.9925l-.001-.0085h.0001c-1.2749-12.8233-1.8722-25.7049-1.7894-38.5911-.0821-12.8875.5161-25.7704 1.792-38.5949l.0008-.0085h.0001c.9021-8.0681 1.9351-12.53176 3.0295-14.992.5503-1.2372 1.1434-2.03182 1.8023-2.510018zM51.703 18.5498c-1.2709 12.7756-1.8666 25.6093-1.7847 38.4477l.0001.009h-.0001c-.0826 12.837.5122 25.6694 1.7821 38.4437.9008 8.0568 1.9135 12.3298 2.9106 14.5758.4955 1.116.9595 1.666 1.344 1.944.3642.264.7193.33 1.1269.33.4095 0 .7635-.065 1.1243-.323.38-.272.8379-.807 1.3273-1.896.9475-2.107 1.9091-6.043 2.7795-13.3298-.7348.0964-1.4753.1738-2.2216.2321-.362 4.0007-1.1457 7.9527-2.3385 11.7897-.0875.282-.3423.478-.637.492-.2947.013-.566-.16-.6785-.433-.5182-1.256-1.0378-3.365-1.5295-6.217-.4943-2.8679-.9677-6.5321-1.3794-10.9265-.8234-8.7895-1.4016-20.5223-1.4016-34.6865 0-14.1642.5782-25.8984 1.4016-34.6886.4117-4.3946.8851-8.059 1.3794-10.9264.4917-2.85207 1.0114-4.96075 1.5296-6.21562.1125-.2726.3839-.4454.6785-.4321.2947.0133.5494.20986.6369.4915 1.1926 3.83667 1.9763 7.78812 2.3384 11.78832.7469.0567 1.4883.1332 2.2243.2296-.8706-7.2871-1.8363-11.223-2.7856-13.32978-.4905-1.08841-.949-1.62462-1.3287-1.89625-.3604-.25775-.7124-.32267-1.1168-.32267-.4021 0-.7553.0654-1.1191.32951-.3844.27896-.849.82984-1.3456 1.946-.9991 2.24608-2.016 6.51949-2.9168 14.57429z" clip-rule="evenodd"/>
  <path fill="#fff" d="M86.5361 83.0813c2.7023 3.173 5.0445 6.6357 6.9837 10.3248-4.7126-1.9564-19.4719-13.4442-39.4724-33.4499C34.047 39.9505 22.5539 25.1964 20.5976 20.4877c3.6891 1.9391 7.1519 4.2813 10.3247 6.9837.9301-.8235 1.8882-1.5945 2.8743-2.313-12.4018-9.8619-14.9364-9.205-16.3342-7.8059-1.3978 1.3991-2.0692 3.977 8.0589 16.6528 8.1503 9.9515 16.8201 19.466 25.9731 28.5039 9.0383 9.153 18.5532 17.8228 28.5052 25.9731 12.6771 10.1268 15.2458 9.4698 16.6528 8.0589 1.407-1.4109 2.056-3.9337-7.8058-16.3341-.7177.9851-1.4879 1.9432-2.3105 2.8742z"/>
  <path fill="#45413C" fill-rule="evenodd" d="M21.7508 16.378c2.469.9354 6.2764 3.2983 12.4813 8.2325.171.136.2687.3441.2641.5626-.0046.2185-.1109.4223-.2875.551-.9679.7053-1.9087 1.4623-2.8225 2.2714-.2611.2311-.6525.2349-.9179.0088-2.5452-2.1678-5.2792-4.1009-8.1685-5.7765.5366.8957 1.2383 1.9636 2.1087 3.1962 1.6519 2.3392 3.8851 5.2354 6.6863 8.6149 5.6016 6.7582 13.4599 15.4321 23.4475 25.4224 9.9876 9.9902 18.6614 17.8483 25.4207 23.4493 3.38 2.8007 6.2771 5.0335 8.6171 6.6849 1.2343.871 2.3035 1.573 3.2002 2.1096-1.6759-2.8897-3.6092-5.6243-5.7772-8.17-.2259-.2652-.2224-.6562.0083-.9173.8083-.9149 1.5647-1.8558 2.2692-2.8229.1287-.1767.3325-.2831.551-.2877.2185-.0046.4266.0931.5627.2641 4.9339 6.204 7.2988 10.0081 8.2353 12.4755.4712 1.2416.6064 2.2092.4739 3.0057-.1365.8198-.5412 1.3675-.9556 1.783-.4164.4176-.9682.8244-1.798.957-.805.1287-1.7862-.0145-3.0493-.5009-2.5118-.9672-6.3957-3.3959-12.7381-8.4624l-.0066-.0053c-9.9699-8.165-19.502-16.8503-28.5566-26.0197-9.1694-9.0542-17.8547-18.5859-26.0197-28.5553l-.0054-.0066h.0001c-5.0674-6.3421-7.4928-10.228-8.4583-12.7411-.4855-1.2638-.6277-2.245-.4998-3.049.1318-.8288.5364-1.3796.9508-1.7944.4131-.4135.9594-.8173 1.7785-.9533.7955-.132 1.7631.0028 3.0053.4735zm-2.776.9076c-.4369.0726-.7316.2756-1.0174.5616-.2844.2847-.488.5809-.5586 1.025-.0746.469-.0138 1.1869.4241 2.3269.8813 2.2942 3.1836 6.0342 8.2425 12.366 8.1339 9.9312 16.7862 19.4264 25.9207 28.446l.0063.0062c9.0199 9.1345 18.5155 17.7868 28.4472 25.9207 6.3327 5.0585 10.0708 7.364 12.3641 8.2471 1.1396.4389 1.8566.4999 2.3252.425.4436-.0709.7406-.2753 1.0277-.5632.2891-.2899.493-.5866.5659-1.0242.0766-.4609.0216-1.1636-.4018-2.2791-.8195-2.1593-2.9217-5.6215-7.4583-11.3881-.4496.5877-.9179 1.1654-1.4048 1.7332 2.5722 3.0858 4.8119 6.4348 6.6817 9.9916.1372.261.0961.5801-.1028.7978-.1989.2178-.5129.2875-.7852.1744-1.2542-.5206-3.1134-1.6441-5.4784-3.3131-2.3777-1.678-5.3042-3.9344-8.7031-6.7508-6.7986-5.6335-15.5047-13.5221-25.5176-23.5375-10.0128-10.0154-17.9013-18.7215-23.5353-25.5188-2.8168-3.3984-5.0736-6.324-6.752-8.7007-1.6693-2.364-2.7932-4.2221-3.3139-5.4753-.1132-.2724-.0435-.5864.1742-.7854.2178-.1989.5368-.24.7979-.1028 3.5568 1.8695 6.9057 4.1091 9.9912 6.6813.5677-.4876 1.1456-.9566 1.7337-1.4069-5.7672-4.5364-9.2325-6.6367-11.3932-7.4553-1.1164-.423-1.8196-.478-2.28-.4016z" clip-rule="evenodd"/>
  <path fill="#fff" d="M96.3275 59.2835c4.1545-.3317 8.2585-1.1233 12.2375-2.3603-4.72-1.9471-23.2703-4.2576-51.563-4.2576-28.2928 0-46.8482 2.3105-51.56344 4.2576 3.97942 1.237 8.08384 2.0286 12.23784 2.3603.0761 1.2387.2072 2.4625.3934 3.6715C2.32698 61.1586 1 58.9019 1 56.9232c0-1.9786 1.35058-4.2746 17.4763-6.0776 12.8015-1.2736 25.6612-1.8706 38.5257-1.7885 12.863-.0841 25.7214.5107 38.5217 1.782C111.652 52.642 113 54.9223 113 56.9167c0 1.9944-1.328 4.2353-17.0698 6.0317.1853-1.2037.3178-2.4253.3973-3.6649z"/>
  <path fill="#45413C" fill-rule="evenodd" d="M95.45 51.5352c-12.7743-1.2685-25.6067-1.862-38.4437-1.7781h-.009c-12.8384-.0819-25.6721.5138-38.4477 1.7847-8.0548.9008-12.32824 1.9174-14.57432 2.9164-1.11616.4964-1.66701.961-1.94595 1.3454-.26409.3639-.32953.7172-.32953 1.1197 0 .4048.06496.757.3227 1.1173.27161.3798.80778.8383 1.89618 1.3287 2.1068.9491 6.04272 1.9145 13.32992 2.7851-.0964-.7363-.1729-1.4777-.2296-2.2243-4.0003-.3621-7.95174-1.1458-11.78842-2.3384-.28164-.0875-.47819-.3422-.4915-.6369-.0133-.2946.1595-.566.4321-.6785 1.25488-.5182 3.36355-1.0379 6.21562-1.5296 2.8674-.4943 6.5318-.9677 10.9264-1.3794 8.7902-.8234 20.5244-1.4016 34.6886-1.4016 14.1642 0 25.897.5782 34.6865 1.4016 4.3944.4117 8.0586.8851 10.9267 1.3794 2.852.4917 4.961 1.0113 6.217 1.5295.273.1124.446.3838.432.6785-.013.2947-.209.5495-.491.637-3.837 1.1928-7.789 1.9765-11.7899 2.3385-.0583.7454-.1356 1.4846-.2319 2.2176 7.2868-.8703 11.2228-1.832 13.3298-2.7794 1.088-.4894 1.624-.9473 1.896-1.3274.257-.3607.323-.7147.323-1.1243 0-.4076-.066-.7627-.33-1.1268-.278-.3846-.828-.8485-1.944-1.344-2.246-.9971-6.519-2.0098-14.576-2.9107zm-38.4483-3.1781c12.8861-.0841 25.7677.5119 38.591 1.7854l.0086.0009c8.0687.9021 12.5327 1.9308 14.9927 3.0229 1.237.5493 2.032 1.142 2.51 1.8023.493.6807.596 1.3585.596 1.9481 0 .5876-.101 1.2616-.584 1.9381-.47.6572-1.25 1.2458-2.461 1.7905-2.407 1.0824-6.77 2.0999-14.6456 2.9986-.2168.0248-.4327-.053-.5839-.2103-.1513-.1572-.2205-.376-.1873-.5917.1821-1.1828.3123-2.3839.3906-3.6032.0222-.3472.2961-.6253.6428-.653 3.3319-.266 6.6314-.8316 9.8584-1.6892-1.013-.2543-2.265-.5136-3.753-.7701-2.8226-.4866-6.4493-.9558-10.8192-1.3652-8.7389-.8186-20.4275-1.3955-34.556-1.3955-14.1286 0-25.8185.5769-34.558 1.3955-4.3702.4094-7.9971.8786-10.8191 1.3652-1.4876.2564-2.73921.5157-3.75231.7699 3.22761.8577 6.52741 1.4234 9.85951 1.6894.3475.0278.6216.307.643.6549.0748 1.2177.2036 2.4203.3865 3.6078.0332.2157-.036.4345-.1872.5918-.1513.1573-.3672.235-.584.2103-7.8765-.8988-12.23937-1.9203-14.64659-3.0048C2.13242 60.1 1.35292 59.5111.883758 58.8551c-.483034-.6754-.583953-1.3473-.583953-1.9318 0-.5869.103387-1.2626.596455-1.942.47822-.659 1.27288-1.2521 2.51008-1.8023 2.46024-1.0943 6.92386-2.1269 14.99196-3.029l.0085-.001v.0001c12.8245-1.2759 25.7074-1.8741 38.5949-1.792z" clip-rule="evenodd"/>
  <path fill="#fff" d="M86.4224 30.8085c2.7024-3.1728 5.0446-6.6355 6.9837-10.3247-4.7126 1.9564-19.4668 13.4403-39.4724 33.4499C33.928 73.9433 22.4415 88.6935 20.4838 93.4021c3.6895-1.9379 7.1523-4.2797 10.3247-6.9823.9293.8225 1.8874 1.5936 2.8743 2.313-12.4018 9.8619-14.9364 9.2049-16.3342 7.8058-1.3978-1.3991-2.0691-3.977 8.0589-16.6528 8.152-9.9508 16.8231-19.4649 25.9771-28.5025 9.0372-9.1536 18.5508-17.8242 28.5012-25.9758 12.6771-10.1267 15.2459-9.4698 16.6528-8.0602 1.407 1.4096 2.0561 3.9337-7.8058 16.3355-.7177-.9861-1.4878-1.9441-2.3104-2.8743z"/>
  <path fill="#45413C" fill-rule="evenodd" d="M80.3259 25.9517c-9.9301 8.1352-19.4244 16.7884-28.4433 25.9234l-.0063.0064-.0001-.0001c-9.1355 9.0193-17.789 18.5141-25.9246 28.4447-5.0589 6.3317-7.3611 10.0717-8.2424 12.3659-.438 1.14-.4988 1.8579-.4242 2.3269.0707.4441.2742.7403.5587 1.025.2858.2861.5804.4891 1.0173.5616.4604.0764 1.1637.0214 2.28-.4015 2.1607-.8186 5.6261-2.919 11.3933-7.4555-.5884-.4505-1.1663-.9194-1.7337-1.4068-3.0852 2.5724-6.4342 4.8117-9.9915 6.6801-.2611.1372-.5801.096-.7978-.103-.2176-.199-.2873-.5131-.174-.7854.521-1.2531 1.6446-3.1109 3.3137-5.4746 1.678-2.3764 3.9343-5.3016 6.7506-8.6998 5.6333-6.7968 13.5215-15.5029 23.5369-25.5203C63.4539 43.4213 72.16 35.5327 78.958 29.8998c3.3986-2.8162 6.3246-5.0722 8.7019-6.7499 2.3646-1.6687 4.2234-2.792 5.4776-3.3126.2724-.1131.5864-.0433.7852.1744.1989.2177.24.5367.1028.7978-1.8695 3.5569-4.1092 6.9059-6.6815 9.9915.4869.5674.9552 1.1451 1.4048 1.733 4.5365-5.767 6.6386-9.2298 7.4581-11.3894.4234-1.1157.4785-1.8185.4018-2.2793-.0728-.4375-.2767-.734-.5657-1.0235-.287-.2876-.584-.4918-1.0277-.5626-.4686-.0748-1.1858-.0136-2.3253.4253-2.2933.8833-6.0314 3.1888-12.3641 8.2472zm14.91-10.055c.8298.1324 1.3815.5388 1.798.9561.4145.4153.8194.9629.9558 1.7827.1325.7965-.0027 1.7641-.4739 3.0058-.9364 2.4678-3.3014 6.2725-8.2353 12.4772-.1361.1711-.3442.2688-.5628.2641-.2186-.0046-.4224-.1111-.551-.2879-.7045-.9678-1.4607-1.9086-2.2688-2.8224-.231-.2611-.2346-.6523-.0086-.9177 2.1682-2.5456 4.1016-5.2802 5.7775-8.1701-.8966.5366-1.9657 1.2384-3.1997 2.1092-2.3397 1.6511-5.2362 3.8835-8.6159 6.6841-6.7587 5.6004-15.4325 13.4586-25.4227 23.4508s-17.8481 18.666-23.449 25.4238c-2.8007 3.3792-5.0334 6.2751-6.6849 8.6139-.8705 1.2328-1.5722 2.3007-2.1088 3.1965 2.8896-1.675 5.6238-3.6079 8.1686-5.7759.2655-.2261.6569-.2224.918.0087.9129.8082 1.8538 1.5653 2.8226 2.2715.1766.1287.2829.3325.2875.551.0045.2185-.0932.4266-.2642.5626-6.2049 4.9341-10.0123 7.297-12.4812 8.2325-1.2423.4706-2.2099.6054-3.0054.4734-.8191-.136-1.3654-.5398-1.7785-.9532-.4144-.4149-.8189-.9656-.9508-1.7945-.1279-.804.0144-1.7851.4999-3.0489.9654-2.5131 3.3908-6.3991 8.4582-12.7411l.0053-.0067h.0001c8.1666-9.9688 16.8533-19.5 26.0237-28.5541 9.0535-9.1698 18.5842-17.8559 28.5525-26.0221l.0066-.0055.0001.0001c6.3424-5.0665 10.2263-7.4951 12.738-8.4626 1.2631-.4864 2.2442-.6297 3.0491-.5013z" clip-rule="evenodd"/>
  <path fill="#F0F0F0" d="M24.6562 56.0343c.0001 7.2682 2.8874 14.2388 8.0268 19.3782 5.1394 5.1395 12.11 8.0268 19.3783 8.0268 7.2682 0 14.2388-2.8873 19.3782-8.0268 5.1395-5.1394 8.0268-12.11 8.0268-19.3782 0-7.2683-2.8873-14.2389-8.0268-19.3783-5.1394-5.1395-12.11-8.0268-19.3782-8.0268-7.2683 0-14.2389 2.8873-19.3783 8.0268-5.1394 5.1394-8.0267 12.11-8.0268 19.3783z"/>
  <path fill="#fff" d="M79.2758 59.2731c.4579-3.8484.0944-7.7501-1.0666-11.4476s-3.093-7.1068-5.6685-10.0027c-2.5755-2.8959-5.736-5.2126-9.2727-6.7972-3.5368-1.5846-7.3694-2.401-11.2449-2.3954-3.8755.0056-7.7057.8331-11.2379 2.4279-3.5321 1.5948-6.6858 3.9207-9.253 6.824-2.5671 2.9034-4.4892 6.3182-5.6395 10.019-1.1503 3.7009-1.5026 7.6036-1.0336 11.4506.7688-6.6691 3.9603-12.8236 8.9684-17.2944 5.0081-4.4707 11.4839-6.9462 18.1972-6.9562 6.7134-.0101 13.1965 2.4461 18.218 6.9018 5.0214 4.4558 8.2313 10.6007 9.02 17.2675"/>
  <path fill="#45413C" fill-rule="evenodd" d="M32.1878 36.161c5.2707-5.2707 12.4194-8.2318 19.8733-8.2318 7.4539 0 14.6025 2.9611 19.8732 8.2318 5.2707 5.2707 8.2318 12.4193 8.2318 19.8733 0 7.4539-2.9611 14.6025-8.2318 19.8732-5.2707 5.2707-12.4193 8.2318-19.8732 8.2318-7.4539 0-14.6026-2.9611-19.8733-8.2318s-8.2317-12.4193-8.2317-19.8732c0-7.454 2.961-14.6026 8.2317-19.8733zm19.8733-6.8318c-7.0826 0-13.8752 2.8136-18.8833 7.8217-5.0082 5.0082-7.8217 11.8007-7.8217 18.8834 0 7.0826 2.8135 13.8751 7.8217 18.8833 5.0081 5.0081 11.8007 7.8217 18.8833 7.8217 7.0826 0 13.8751-2.8136 18.8833-7.8217 5.0081-5.0082 7.8217-11.8007 7.8217-18.8833 0-7.0827-2.8136-13.8752-7.8217-18.8834-5.0082-5.0081-11.8007-7.8217-18.8833-7.8217z" clip-rule="evenodd"/>
</svg>
