<svg viewBox="0 0 58 58" fill="none" xmlns="http://www.w3.org/2000/svg">
<path d="M3.2876 28.7145C3.2876 35.4719 5.97193 41.9524 10.7501 46.7305C15.5282 51.5087 22.0088 54.193 28.7661 54.193C35.5234 54.193 42.004 51.5087 46.7821 46.7305C51.5602 41.9524 54.2446 35.4719 54.2446 28.7145C54.2446 21.9572 51.5602 15.4767 46.7821 10.6985C42.004 5.92039 35.5234 3.23605 28.7661 3.23605C22.0088 3.23605 15.5282 5.92039 10.7501 10.6985C5.97193 15.4767 3.2876 21.9572 3.2876 28.7145Z" fill="#C7F0FF" stroke="white" stroke-width="6" stroke-miterlimit="10"/>
<path d="M12.1152 28.0008C12.1152 30.2183 12.552 32.4141 13.4006 34.4628C14.2492 36.5115 15.493 38.3729 17.061 39.9409C18.629 41.5089 20.4905 42.7527 22.5391 43.6013C24.5878 44.4499 26.7836 44.8867 29.0011 44.8867C31.2186 44.8867 33.4143 44.4499 35.463 43.6013C37.5117 42.7527 39.3732 41.5089 40.9412 39.9409C42.5092 38.3729 43.753 36.5115 44.6016 34.4628C45.4501 32.4141 45.8869 30.2183 45.8869 28.0008C45.8869 25.7834 45.4501 23.5876 44.6016 21.5389C43.753 19.4902 42.5092 17.6287 40.9412 16.0608C39.3732 14.4928 37.5117 13.249 35.463 12.4004C33.4143 11.5518 31.2186 11.115 29.0011 11.115C26.7836 11.115 24.5878 11.5518 22.5391 12.4004C20.4905 13.249 18.629 14.4928 17.061 16.0608C15.493 17.6287 14.2492 19.4902 13.4006 21.5389C12.552 23.5876 12.1152 25.7834 12.1152 28.0008Z" fill="#00B8F0"/>
<path d="M45.7908 29.8092C46.0366 27.5286 45.8152 25.2217 45.14 23.0294C44.4648 20.8372 43.35 18.8054 41.8637 17.0582C40.3773 15.311 38.5506 13.885 36.4949 12.867C34.4392 11.8491 32.1977 11.2607 29.9071 11.1377C27.6165 11.0147 25.3249 11.3597 23.172 12.1516C21.0192 12.9435 19.0502 14.1657 17.3853 15.7437C15.7204 17.3217 14.3945 19.2224 13.4884 21.3297C12.5823 23.4371 12.1151 25.707 12.1152 28.0008C12.1152 28.6049 12.1471 29.2085 12.2108 29.8092C12.6565 25.6677 14.6173 21.8371 17.7163 19.0537C20.8152 16.2704 24.8337 14.7307 28.9991 14.7307C33.1645 14.7307 37.183 16.2704 40.282 19.0537C43.3809 21.8371 45.3417 25.6677 45.7874 29.8092" fill="#4ACFFF"/>
<path fill-rule="evenodd" clip-rule="evenodd" d="M22.4243 12.1232C24.5094 11.2595 26.7441 10.815 29.001 10.815C31.2579 10.815 33.4927 11.2595 35.5778 12.1232C37.6628 12.9869 39.5574 14.2528 41.1532 15.8486C42.7491 17.4445 44.015 19.339 44.8787 21.4241C45.7423 23.5092 46.1869 25.744 46.1869 28.0008C46.1869 30.2577 45.7423 32.4925 44.8787 34.5776C44.015 36.6627 42.7491 38.5572 41.1532 40.1531C39.5574 41.7489 37.6628 43.0148 35.5778 43.8785C33.4927 44.7422 31.2579 45.1867 29.001 45.1867C26.7441 45.1867 24.5094 44.7422 22.4243 43.8785C20.3392 43.0148 18.4447 41.7489 16.8488 40.1531C15.2529 38.5572 13.987 36.6627 13.1234 34.5776C12.2597 32.4925 11.8152 30.2577 11.8152 28.0008C11.8152 25.744 12.2597 23.5092 13.1234 21.4241C13.987 19.339 15.2529 17.4445 16.8488 15.8486C18.4447 14.2528 20.3392 12.9869 22.4243 12.1232ZM29.001 11.415C26.8229 11.415 24.6662 11.844 22.6539 12.6775C20.6416 13.511 18.8132 14.7327 17.2731 16.2729C15.7329 17.813 14.5112 19.6414 13.6777 21.6537C12.8442 23.666 12.4152 25.8228 12.4152 28.0008C12.4152 30.1789 12.8442 32.3357 13.6777 34.348C14.5112 36.3603 15.7329 38.1887 17.2731 39.7288C18.8132 41.2689 20.6416 42.4906 22.6539 43.3242C24.6662 44.1577 26.8229 44.5867 29.001 44.5867C31.1791 44.5867 33.3359 44.1577 35.3481 43.3242C37.3604 42.4906 39.1888 41.2689 40.729 39.7288C42.2691 38.1887 43.4908 36.3603 44.3243 34.348C45.1579 32.3357 45.5869 30.1789 45.5869 28.0008C45.5869 25.8228 45.1579 23.666 44.3243 21.6537C43.4908 19.6414 42.2691 17.813 40.729 16.2729C39.1888 14.7327 37.3604 13.511 35.3481 12.6775C33.3359 11.844 31.1791 11.415 29.001 11.415Z" fill="#45413C"/>
<path d="M30.0476 44.8546C29.9055 46.6349 29.5662 48.394 29.0361 50.0994C28.2016 48.0764 27.2114 40.1263 27.2114 28.0008C27.2114 15.8754 28.2016 7.92306 29.0361 5.90224C29.5662 7.60771 29.9055 9.36674 30.0476 11.147C30.5789 11.1796 31.1034 11.2358 31.6211 11.3156C30.8512 4.56871 29.8835 4 29.0361 4C28.1886 4 27.2041 4.57882 26.4314 11.4898C25.8856 16.9762 25.6297 22.4875 25.6649 28.0008C25.6294 33.5136 25.8849 39.0244 26.4303 44.5102C27.203 51.4223 28.1802 52 29.035 52C29.8897 52 30.8501 51.4307 31.62 44.6844C31.103 44.7638 30.5789 44.8206 30.0476 44.8546Z" fill="white"/>
<path fill-rule="evenodd" clip-rule="evenodd" d="M28.2042 3.95563C28.4954 3.74432 28.7849 3.7 29.0363 3.7C29.2867 3.7 29.5745 3.74326 29.864 3.95027C30.1451 4.15133 30.3975 4.48539 30.6314 5.00447C31.0963 6.03613 31.5342 7.90595 31.9194 11.2816C31.93 11.3745 31.8966 11.4671 31.8292 11.5319C31.7618 11.5967 31.668 11.6264 31.5756 11.6121C31.067 11.5337 30.5517 11.4785 30.0294 11.4465C29.8803 11.4373 29.7606 11.3198 29.7488 11.1709C29.6347 9.74285 29.3923 8.32865 29.0247 6.94539C28.9158 7.37958 28.8046 7.91598 28.6947 8.5535C28.4862 9.76295 28.2851 11.3173 28.1097 13.1903C27.7588 16.9358 27.5116 21.9457 27.5116 28.0008C27.5116 34.0559 27.7588 39.0653 28.1097 42.8106C28.2851 44.6834 28.4862 46.2377 28.6947 47.4472C28.8047 48.0849 28.9158 48.6216 29.0248 49.056C29.3923 47.6728 29.6347 46.2587 29.7488 44.8308C29.7606 44.6822 29.8798 44.5648 30.0286 44.5553C30.5512 44.5217 31.0665 44.4659 31.5746 44.3879C31.667 44.3737 31.7608 44.4034 31.8281 44.4682C31.8955 44.533 31.9288 44.6255 31.9182 44.7184C31.5331 48.0936 31.097 49.9634 30.6331 50.9951C30.3997 51.5142 30.1474 51.8485 29.8658 52.0497C29.5758 52.2569 29.287 52.3 29.0351 52.3C28.7825 52.3 28.4919 52.256 28.2003 52.0447C27.9173 51.8397 27.6632 51.4991 27.4278 50.9689C26.9598 49.9146 26.5189 48.0016 26.1323 44.5435L26.1319 44.5398L26.1319 44.5398C25.5856 39.0442 25.3296 33.5235 25.3651 28.0008C25.3299 22.4776 25.5862 16.9563 26.1331 11.4601L26.1334 11.4565L26.1334 11.4565C26.52 7.99872 26.9628 6.08574 27.4318 5.03135C27.6677 4.50113 27.9218 4.16057 28.2042 3.95563ZM26.7299 11.5214C26.1853 16.9966 25.93 22.4968 25.9651 27.9989L25.9651 28.0028H25.9651C25.9297 33.5043 26.1846 39.0039 26.7288 44.4786C27.1149 47.9314 27.5489 49.7629 27.9762 50.7254C28.1886 51.2036 28.3874 51.4394 28.5522 51.5588C28.7083 51.6718 28.8605 51.7 29.0351 51.7C29.2107 51.7 29.3624 51.672 29.517 51.5615C29.6799 51.4452 29.8761 51.2155 30.0859 50.749C30.4919 49.846 30.9041 48.1592 31.2771 45.0362C30.9622 45.0775 30.6448 45.1107 30.3249 45.1357C30.1698 46.8503 29.8339 48.544 29.3227 50.1885C29.2852 50.3092 29.176 50.3935 29.0497 50.3991C28.9234 50.4048 28.8071 50.3307 28.7589 50.2138C28.5369 49.6755 28.3142 48.7716 28.1035 47.5492C27.8916 46.3202 27.6887 44.7498 27.5123 42.8665C27.1594 39.0996 26.9116 34.0712 26.9116 28.0008C26.9116 21.9305 27.1594 16.9015 27.5123 13.1343C27.6887 11.2509 27.8916 9.68045 28.1035 8.45157C28.3142 7.22925 28.5369 6.32553 28.759 5.78773C28.8072 5.6709 28.9235 5.59684 29.0498 5.60254C29.1761 5.60825 29.2852 5.69248 29.3227 5.81319C29.8339 7.45747 30.1697 9.15094 30.3249 10.8653C30.645 10.8896 30.9628 10.9224 31.2782 10.9637C30.9051 7.84068 30.4912 6.15387 30.0843 5.25096C29.8742 4.7845 29.6776 4.5547 29.5149 4.43828C29.3605 4.32782 29.2096 4.3 29.0363 4.3C28.8639 4.3 28.7126 4.32803 28.5567 4.44121C28.3919 4.56077 28.1928 4.79686 27.98 5.27522C27.5518 6.23782 27.116 8.06928 26.7299 11.5214Z" fill="#45413C"/>
<path d="M41.6584 39.1777C42.8165 40.5375 43.8203 42.0216 44.6514 43.6026C42.6317 42.7641 36.3063 37.8408 27.7346 29.2669C19.163 20.6931 14.2374 14.3699 13.399 12.3519C14.9801 13.1829 16.4641 14.1867 17.8239 15.3449C18.2225 14.992 18.6331 14.6615 19.0557 14.3536C13.7407 10.1271 12.6544 10.4086 12.0553 11.0082C11.4563 11.6078 11.1686 12.7126 15.5092 18.1451C19.0022 22.4101 22.7178 26.4877 26.6405 30.3611C30.514 34.2838 34.5919 37.9994 38.857 41.4924C44.2901 45.8325 45.3909 45.5509 45.9939 44.9462C46.5969 44.3416 46.8751 43.2603 42.6486 37.9459C42.341 38.3681 42.0109 38.7787 41.6584 39.1777Z" fill="white"/>
<path fill-rule="evenodd" clip-rule="evenodd" d="M13.8933 10.5906C14.9514 10.9915 16.5831 12.0041 19.2424 14.1188C19.3157 14.1771 19.3576 14.2663 19.3556 14.3599C19.3536 14.4535 19.308 14.5409 19.2323 14.596C18.8176 14.8983 18.4143 15.2228 18.0227 15.5695C17.9108 15.6686 17.7431 15.6702 17.6293 15.5733C16.5386 14.6442 15.3668 13.8158 14.1286 13.0976C14.3585 13.4815 14.6592 13.9392 15.0323 14.4675C15.7402 15.4699 16.6973 16.7112 17.8978 18.1595C20.2985 21.0559 23.6663 24.7733 27.9468 29.0548C32.2272 33.3363 35.9445 36.7041 38.8414 39.1045C40.2899 40.3049 41.5315 41.2618 42.5344 41.9695C43.0634 42.3428 43.5216 42.6437 43.9059 42.8736C43.1877 41.6352 42.3591 40.4632 41.43 39.3722C41.3331 39.2585 41.3347 39.091 41.4335 38.9791C41.78 38.587 42.1041 38.1837 42.406 37.7692C42.4612 37.6935 42.5485 37.6479 42.6422 37.6459C42.7358 37.644 42.825 37.6858 42.8833 37.7591C44.9979 40.418 46.0114 42.0483 46.4127 43.1058C46.6147 43.6379 46.6726 44.0526 46.6158 44.3939C46.5574 44.7453 46.3839 44.98 46.2063 45.1581C46.0278 45.337 45.7914 45.5114 45.4357 45.5682C45.0908 45.6234 44.6702 45.562 44.1289 45.3536C43.0524 44.939 41.3879 43.8982 38.6697 41.7268L38.6669 41.7245C34.3941 38.2253 30.3089 34.503 26.4283 30.5732C22.4986 26.6928 18.7763 22.6078 15.277 18.3352L15.2747 18.3324L15.2747 18.3324C13.103 15.6144 12.0636 13.949 11.6498 12.8719C11.4417 12.3303 11.3808 11.9098 11.4356 11.5653C11.4921 11.21 11.6654 10.974 11.8431 10.7962C12.0201 10.619 12.2542 10.4459 12.6053 10.3877C12.9462 10.3311 13.3609 10.3889 13.8933 10.5906ZM12.7035 10.9796C12.5163 11.0107 12.39 11.0977 12.2675 11.2203C12.1456 11.3423 12.0584 11.4692 12.0281 11.6595C11.9961 11.8605 12.0222 12.1682 12.2099 12.6568C12.5876 13.64 13.5743 15.2429 15.7424 17.9565C19.2284 22.2127 22.9365 26.2821 26.8513 30.1476L26.854 30.1503L26.8539 30.1503C30.7196 34.0651 34.7892 37.7732 39.0456 41.2592C41.7596 43.4271 43.3617 44.4152 44.3445 44.7936C44.8329 44.9817 45.1402 45.0079 45.341 44.9758C45.5312 44.9454 45.6584 44.8578 45.7815 44.7344C45.9054 44.6101 45.9928 44.483 46.024 44.2954C46.0568 44.0979 46.0332 43.7968 45.8518 43.3187C45.5006 42.3933 44.5997 40.9095 42.6554 38.4381C42.4627 38.6899 42.262 38.9375 42.0533 39.1809C43.1557 40.5033 44.1156 41.9386 44.9169 43.463C44.9757 43.5749 44.9581 43.7116 44.8729 43.8049C44.7876 43.8982 44.6531 43.9281 44.5363 43.8797C43.9988 43.6565 43.202 43.175 42.1885 42.4597C41.1694 41.7406 39.9152 40.7736 38.4585 39.5665C35.5449 37.1522 31.8137 33.7714 27.5224 29.479C23.2313 25.1867 19.8505 21.4556 17.4359 18.5424C16.2287 17.086 15.2615 15.8322 14.5422 14.8136C13.8267 13.8004 13.3451 13.0041 13.1219 12.467C13.0734 12.3503 13.1033 12.2157 13.1966 12.1304C13.2899 12.0451 13.4267 12.0275 13.5385 12.0863C15.0629 12.8875 16.4981 13.8474 17.8205 14.9498C18.0638 14.7408 18.3115 14.5398 18.5635 14.3468C16.0918 12.4026 14.6067 11.5025 13.6807 11.1516C13.2023 10.9704 12.9009 10.9468 12.7035 10.9796Z" fill="#45413C"/>
<path d="M45.8546 28.9786C47.6349 28.8365 49.394 28.4973 51.0994 27.9671C49.0764 27.1326 41.1263 26.1424 29.0008 26.1424C16.8754 26.1424 8.92306 27.1326 6.90224 27.9671C8.60771 28.4973 10.3667 28.8365 12.147 28.9786C12.1796 29.5095 12.2358 30.034 12.3156 30.5521C5.56871 29.7823 5 28.8151 5 27.9671C5 27.1191 5.57882 26.1351 12.4898 25.3624C17.9762 24.8166 23.4875 24.5607 29.0008 24.5959C34.5136 24.5599 40.0243 24.8148 45.5102 25.3596C52.4223 26.1323 53 27.1096 53 27.9643C53 28.8191 52.4307 29.7794 45.6844 30.5493C45.7638 30.0335 45.8206 29.5099 45.8546 28.9786Z" fill="white"/>
<path fill-rule="evenodd" clip-rule="evenodd" d="M45.4789 25.658C40.0041 25.1143 34.5045 24.8599 29.003 24.8959L28.9991 24.8959C23.497 24.8608 17.9968 25.1161 12.5215 25.6608C9.06947 26.0468 7.238 26.4825 6.2754 26.9106C5.79704 27.1234 5.56097 27.3225 5.44142 27.4872C5.32824 27.6432 5.3002 27.7946 5.3002 27.9671C5.3002 28.1406 5.32803 28.2915 5.43849 28.446C5.5549 28.6088 5.78468 28.8052 6.25114 29.0154C7.15406 29.4222 8.84088 29.8359 11.9639 30.209C11.9226 29.8935 11.8898 29.5757 11.8656 29.2557C10.1511 29.1006 8.45768 28.7647 6.81339 28.2536C6.69268 28.2161 6.60844 28.1069 6.60274 27.9806C6.59704 27.8544 6.6711 27.7381 6.78793 27.6898C7.32573 27.4677 8.22945 27.245 9.45177 27.0343C10.6807 26.8224 12.2511 26.6196 14.1345 26.4431C17.9017 26.0903 22.9307 25.8424 29.001 25.8424C35.0714 25.8424 40.0998 26.0903 43.8667 26.4431C45.75 26.6196 47.3204 26.8224 48.5494 27.0343C49.7718 27.245 50.6757 27.4677 51.214 27.6898C51.3309 27.738 51.405 27.8543 51.3993 27.9806C51.3937 28.1069 51.3094 28.2161 51.1887 28.2536C49.5442 28.7648 47.8505 29.1007 46.1359 29.2558C46.1109 29.5753 46.0778 29.8921 46.0365 30.2062C49.1594 29.8332 50.8462 29.4211 51.7492 29.015C52.2157 28.8053 52.4454 28.609 52.5617 28.4462C52.6722 28.2916 52.7002 28.1398 52.7002 27.9643C52.7002 27.7896 52.672 27.6374 52.559 27.4814C52.4396 27.3166 52.2038 27.1177 51.7256 26.9054C50.7631 26.478 48.9317 26.044 45.4789 25.658ZM29.001 24.2959C34.5236 24.2599 40.0443 24.5153 45.54 25.0611L45.5437 25.0614L45.5437 25.0615C49.0018 25.448 50.9148 25.8889 51.9691 26.357C52.4993 26.5924 52.8399 26.8464 53.0449 27.1294C53.2562 27.4211 53.3002 27.7116 53.3002 27.9643C53.3002 28.2161 53.2571 28.505 53.0499 28.7949C52.8487 29.0766 52.5144 29.3288 51.9953 29.5622C50.9636 30.0262 49.0938 30.4622 45.7186 30.8474C45.6257 30.858 45.5331 30.8247 45.4683 30.7573C45.4035 30.6899 45.3738 30.5961 45.3881 30.5037C45.4661 29.9967 45.5219 29.482 45.5555 28.9594C45.565 28.8107 45.6824 28.6915 45.831 28.6796C47.2589 28.5656 48.673 28.3232 50.0562 27.9556C49.6217 27.8466 49.0851 27.7355 48.4474 27.6256C47.2379 27.4171 45.6836 27.216 43.8108 27.0405C40.0655 26.6897 35.0561 26.4424 29.001 26.4424C22.9459 26.4424 17.936 26.6897 14.1905 27.0405C12.3175 27.216 10.7631 27.4171 9.5537 27.6256C8.91618 27.7355 8.37978 27.8466 7.94559 27.9556C9.32884 28.3231 10.743 28.5656 12.1711 28.6796C12.32 28.6915 12.4375 28.8111 12.4467 28.9603C12.4787 29.4821 12.5339 29.9975 12.6123 30.5065C12.6266 30.5989 12.5969 30.6927 12.5321 30.7601C12.4673 30.8275 12.3747 30.8608 12.2818 30.8502C8.90616 30.465 7.03635 30.0272 6.00468 29.5624C5.4856 29.3286 5.15153 29.0762 4.95046 28.795C4.74345 28.5056 4.7002 28.2176 4.7002 27.9671C4.7002 27.7156 4.7445 27.426 4.95582 27.1348C5.16077 26.8524 5.50134 26.5982 6.03157 26.3624C7.08596 25.8935 8.99894 25.4509 12.4567 25.0643L12.4603 25.0639L12.4603 25.0639C17.9565 24.5171 23.4778 24.2607 29.001 24.2959Z" fill="#45413C"/>
<path d="M41.6096 16.7751C42.7677 15.4153 43.7715 13.9313 44.6026 12.3502C42.5829 13.1886 36.2597 18.1103 27.6858 26.6858C19.112 35.2614 14.1892 41.5829 13.3502 43.6009C14.9314 42.7704 16.4155 41.7667 17.7751 40.6085C18.1733 40.961 18.5839 41.2914 19.0069 41.5998C13.6918 45.8263 12.6056 45.5447 12.0065 44.9451C11.4075 44.3455 11.1197 43.2407 15.4603 37.8082C18.954 33.5435 22.6702 29.4661 26.5934 25.5928C30.4665 21.6699 34.5437 17.9539 38.8082 14.4604C44.2412 10.1203 45.3421 10.4019 45.9451 11.006C46.5481 11.6101 46.8262 12.6919 42.5997 18.0069C42.2922 17.5843 41.9621 17.1737 41.6096 16.7751Z" fill="white"/>
<path fill-rule="evenodd" clip-rule="evenodd" d="M38.9971 14.6936C34.7413 18.1801 30.6723 21.8886 26.8071 25.8036L26.8044 25.8063L26.8043 25.8063C22.8891 29.6718 19.1805 33.7409 15.6938 37.9969C13.5257 40.7105 12.539 42.3134 12.1613 43.2966C11.9736 43.7852 11.9476 44.0928 11.9795 44.2938C12.0098 44.4842 12.0971 44.6111 12.219 44.7331C12.3414 44.8557 12.4677 44.9427 12.655 44.9738C12.8523 45.0065 13.1537 44.983 13.6321 44.8017C14.5581 44.4509 16.0433 43.5507 18.515 41.6065C18.2628 41.4134 18.0151 41.2125 17.7719 41.0036C16.4497 42.1061 15.0144 43.0658 13.4899 43.8665C13.378 43.9253 13.2412 43.9076 13.148 43.8223C13.0547 43.7371 13.0248 43.6025 13.0734 43.4858C13.2966 42.9487 13.7782 42.1525 14.4935 41.1395C15.2127 40.121 16.1796 38.8674 17.3867 37.411C19.8009 34.4981 23.1816 30.7669 27.4739 26.4737C31.7662 22.1806 35.4974 18.7998 38.4108 16.3856C39.8673 15.1787 41.1213 14.2118 42.1402 13.4928C43.1536 12.7777 43.9502 12.2963 44.4878 12.0731C44.6045 12.0247 44.739 12.0546 44.8243 12.1479C44.9095 12.2412 44.9271 12.3779 44.8683 12.4898C44.0671 14.0142 43.1072 15.4494 42.0048 16.7718C42.2135 17.0151 42.4142 17.2626 42.6069 17.5146C44.5511 15.043 45.452 13.559 45.8032 12.6334C45.9847 12.1552 46.0083 11.854 45.9754 11.6566C45.9442 11.4691 45.8568 11.342 45.733 11.2179C45.61 11.0947 45.4827 11.0072 45.2925 10.9768C45.0917 10.9448 44.7843 10.971 44.2959 11.1591C43.3131 11.5376 41.7111 12.5257 38.9971 14.6936ZM45.3871 10.3843C45.7427 10.441 45.9791 10.6152 46.1576 10.7941C46.3353 10.972 46.5088 11.2067 46.5673 11.5581C46.6241 11.8994 46.5661 12.3141 46.3642 12.8463C45.9628 13.9039 44.9493 15.5345 42.8347 18.1936C42.7764 18.267 42.6872 18.3088 42.5935 18.3068C42.4999 18.3048 42.4125 18.2592 42.3574 18.1835C42.0555 17.7687 41.7314 17.3655 41.385 16.9738C41.2861 16.8619 41.2845 16.6943 41.3814 16.5806C42.3106 15.4896 43.1392 14.3176 43.8574 13.0791C43.4732 13.309 43.015 13.6098 42.4861 13.983C41.4834 14.6907 40.2421 15.6474 38.7936 16.8476C35.897 19.2478 32.1797 22.6156 27.8982 26.898C23.6166 31.1804 20.249 34.8977 17.8486 37.7939C16.6483 39.2421 15.6914 40.4832 14.9836 41.4856C14.6106 42.0139 14.3099 42.4716 14.0799 42.8555C15.3183 42.1376 16.4901 41.3093 17.5807 40.3801C17.6945 40.2832 17.8622 40.2848 17.9741 40.3838C18.3654 40.7302 18.7686 41.0547 19.1838 41.3573C19.2595 41.4125 19.3051 41.4999 19.307 41.5935C19.309 41.6871 19.2671 41.7763 19.1938 41.8346C16.5346 43.9492 14.9028 44.9619 13.8447 45.3628C13.3123 45.5645 12.8976 45.6223 12.5567 45.5657C12.2057 45.5074 11.9715 45.3344 11.7945 45.1572C11.6169 44.9794 11.4435 44.7433 11.387 44.3881C11.3322 44.0435 11.3931 43.6231 11.6012 43.0814C12.015 42.0044 13.0544 40.339 15.2262 37.621L15.2285 37.6181L15.2285 37.6181C18.7285 33.3458 22.4513 29.2609 26.3815 25.3806C30.2616 21.4507 34.3462 17.7281 38.6183 14.2283L38.6211 14.226L38.6211 14.226C41.3393 12.0546 43.0038 11.0138 44.0803 10.5992C44.6216 10.3907 45.0421 10.3293 45.3871 10.3843Z" fill="#45413C"/>
<path d="M15.1384 27.5861C15.1384 30.7011 16.3758 33.6885 18.5785 35.8911C20.7811 38.0937 23.7685 39.3311 26.8834 39.3311C29.9984 39.3311 32.9858 38.0937 35.1884 35.8911C37.391 33.6885 38.6284 30.7011 38.6284 27.5861C38.6284 24.4711 37.391 21.4837 35.1884 19.2811C32.9858 17.0785 29.9984 15.8411 26.8834 15.8411C23.7685 15.8411 20.7811 17.0785 18.5785 19.2811C16.3758 21.4837 15.1384 24.4711 15.1384 27.5861Z" fill="#F0F0F0"/>
<path d="M38.5467 28.9742C38.7429 27.3249 38.5871 25.6527 38.0895 24.0681C37.592 22.4834 36.764 21.0223 35.6602 19.7812C34.5564 18.5401 33.2019 17.5472 31.6862 16.8681C30.1704 16.189 28.5279 15.8391 26.8669 15.8415C25.206 15.8439 23.5645 16.1986 22.0507 16.882C20.5369 17.5655 19.1853 18.5623 18.0851 19.8066C16.9849 21.0509 16.1612 22.5144 15.6682 24.1005C15.1752 25.6866 15.0242 27.3592 15.2252 29.0079C15.5547 26.1497 16.9225 23.512 19.0688 21.596C21.2152 19.68 23.9905 18.619 26.8676 18.6147C29.7448 18.6104 32.5233 19.6631 34.6753 21.5727C36.8274 23.4823 38.2031 26.1158 38.541 28.973" fill="white"/>
<path fill-rule="evenodd" clip-rule="evenodd" d="M18.3665 19.069C20.6254 16.8101 23.6891 15.5411 26.8836 15.5411C30.0782 15.5411 33.1419 16.8101 35.4007 19.069C37.6596 21.3279 38.9286 24.3916 38.9286 27.5861C38.9286 30.7807 37.6596 33.8443 35.4007 36.1032C33.1419 38.3621 30.0782 39.6311 26.8836 39.6311C23.6891 39.6311 20.6254 38.3621 18.3665 36.1032C16.1076 33.8443 14.8386 30.7807 14.8386 27.5861C14.8386 24.3916 16.1076 21.3279 18.3665 19.069ZM26.8836 16.1411C23.8482 16.1411 20.9371 17.3469 18.7908 19.4933C16.6444 21.6396 15.4386 24.5507 15.4386 27.5861C15.4386 30.6215 16.6444 33.5326 18.7908 35.679C20.9371 37.8253 23.8482 39.0311 26.8836 39.0311C29.919 39.0311 32.8301 37.8253 34.9765 35.679C37.1228 33.5326 38.3286 30.6215 38.3286 27.5861C38.3286 24.5507 37.1228 21.6396 34.9765 19.4933C32.8301 17.3469 29.919 16.1411 26.8836 16.1411Z" fill="#45413C"/>
</svg>
