<svg xmlns="http://www.w3.org/2000/svg" fill="none" viewBox="0 0 114 113">
  <defs/>
  <path fill="#C7F0FF" d="M1 55.3733C1 69.794 6.76871 83.624 17.0371 93.821c10.2684 10.197 24.1953 15.926 38.717 15.926 14.5216 0 28.4486-5.729 38.7169-15.926 10.268-10.197 16.037-24.027 16.037-38.4477 0-14.4207-5.769-28.2508-16.037-38.4477C84.2027 6.7286 70.2757 1 55.7541 1c-14.5217 0-28.4486 5.7286-38.717 15.9256C6.76871 27.1225 1 40.9526 1 55.3733z"/>
  <path fill="#45413C" d="M35.9932 105.306c0 .295.527.588 1.5508.861 1.0239.272 2.5247.52 4.4166.729 1.8919.209 4.1379.374 6.6098.487 2.4718.113 5.1212.172 7.7967.172 2.6756 0 5.325-.059 7.7968-.172 2.4719-.113 4.7179-.278 6.6098-.487 1.8919-.209 3.3927-.457 4.4166-.729 1.0238-.273 1.5508-.566 1.5508-.861 0-.295-.527-.587-1.5508-.86-1.0239-.273-2.5247-.521-4.4166-.73-1.8919-.208-4.1379-.374-6.6098-.487-2.4718-.113-5.1212-.171-7.7968-.171-2.6755 0-5.3249.058-7.7967.171-2.4719.113-4.7179.279-6.6098.487-1.8919.209-3.3927.457-4.4166.73-1.0238.273-1.5508.565-1.5508.86z" opacity=".15"/>
  <path fill="#FFE500" stroke="#45413C" stroke-linecap="round" stroke-linejoin="round" stroke-width="1.4" d="M53.2821 10.0211c-.2364.0003-.4713-.03786-.6954-.11284-.2739-.08999-.5272-.23284-.7454-.42034-.2181-.1875-.3968-.41596-.5258-.67225-.129-.25629-.2057-.53536-.2257-.82117-.0201-.28582.0169-.57276.1089-.84433l1.5646-4.65979c.1842-.54852.5804-1.0019 1.1012-1.2604.5209-.258489 1.1238-.300922 1.6762-.11796.5524.18296 1.0089.57633 1.2692 1.09358.2603.51724.3031 1.11598.1188 1.66451L55.3655 8.5299c-.145.43471-.4244.81289-.7985 1.08065-.3741.26776-.8238.41145-1.2849.41055zM11.1611 29.4745c-.2884.0002-.5739-.0561-.8403-.1657-.2664-.1097-.50833-.2705-.71198-.4732l-3.49741-3.4731c-.20394-.2028-.36566-.4435-.47593-.7083-.11026-.2649-.16692-.5487-.16673-.8353.00019-.2866.05723-.5703.16784-.8351.11062-.2647.27266-.5051.47687-.7077.41242-.409.97156-.6385 1.55441-.6381.28861.0001.57435.0568.84091.1666.26656.1099.50872.2708.71266.4736l3.49746 3.4731c.3101.3038.5219.6926.6084 1.1166.0865.424.0437.864-.123 1.2637-.1666.3997-.4495.741-.8125.9802-.363.2392-.7896.3655-1.2252.3627h-.0055z"/>
  <path fill="#4ACFFF" stroke="#45413C" stroke-linecap="round" stroke-linejoin="round" stroke-width="1.4" d="M58.1262 60.2267h-3.1278c-.5823 0-1.1408-.2298-1.5526-.6387-.4117-.4089-.6431-.9634-.6431-1.5417s.2314-1.1329.6431-1.5418c.4118-.4089.9703-.6386 1.5526-.6386h3.1278c.5823 0 1.1408.2297 1.5526.6386.4117.4089.643.9635.643 1.5418s-.2313 1.1328-.643 1.5417c-.4118.4089-.9703.6387-1.5526.6387zM65.3264 93.9449c-.4355.0028-.8619-.1234-1.2248-.3624-.3629-.2391-.6458-.5801-.8126-.9796-.1667-.3995-.2098-.8393-.1236-1.2632.0861-.4239.2976-.8127.6073-1.1167l4.6925-4.6598c.4118-.409.9704-.6387 1.5529-.6387.5825 0 1.1411.2297 1.553.6387.4118.4091.6432.9638.6432 1.5422s-.2314 1.1332-.6432 1.5422l-4.6924 4.6584c-.2037.2027-.4457.3635-.712.4732-.2664.1096-.552.1659-.8403.1657z"/>
  <path fill="#FFE500" stroke="#45413C" stroke-linecap="round" stroke-linejoin="round" stroke-width="1.4" d="M91.1744 77.4317c-.2886.0004-.5744-.0558-.841-.1654-.2667-.1097-.5088-.2706-.7127-.4735l-4.6896-4.6584c-.204-.2024-.3658-.4428-.4762-.7073s-.1672-.548-.1673-.8344c-.0001-.2863.0567-.5699.167-.8344.1102-.2646.2719-.505.4758-.7075.2038-.2026.4458-.3632.7122-.4729.2664-.1096.5519-.1661.8403-.1661.2883-.0001.5738.0562.8403.1658.2664.1095.5085.2701.7124.4725l4.6856 4.6584c.3101.3038.522.6926.6085 1.1166.0864.424.0436.864-.123 1.2637-.1667.3997-.4496.741-.8126.9802-.363.2392-.7895.3655-1.2252.3627h.0055z"/>
  <path fill="#4ACFFF" stroke="#45413C" stroke-linecap="round" stroke-linejoin="round" stroke-width="1.4" d="M83.6282 14.4878c-.2884.0003-.5739-.056-.8403-.1657-.2664-.1096-.5084-.2704-.712-.4731l-4.6856-4.65847c-.4118-.409-.6432-.96374-.6432-1.54216 0-.57842.2314-1.13316.6432-1.54216.4119-.40901.9705-.63879 1.553-.63879.5825 0 1.1411.22978 1.5529.63879l4.6897 4.65839c.3102.3039.522.6926.6085 1.1166.0865.424.0436.864-.123 1.2637-.1667.3998-.4496.741-.8125.9803-.363.2392-.7896.3654-1.2252.3626h-.0055z"/>
  <path fill="#FFE500" stroke="#45413C" stroke-linecap="round" stroke-linejoin="round" stroke-width="1.4" d="M110.79 39.9645c-.288.0002-.573-.0559-.838-.165-.266-.1092-.508-.2693-.711-.4712l-4.692-4.6584c-.204-.2026-.366-.4431-.477-.7078-.11-.2647-.167-.5485-.168-.8352 0-.2867.057-.5706.167-.8355.11-.2649.272-.5057.476-.7086.204-.2029.446-.3639.712-.4738.267-.1099.553-.1666.842-.1669.288-.0002.574.056.841.1654.267.1095.509.2701.713.4726l4.69 4.6584c.311.3039.524.6931.611 1.1178.087.4248.044.8656-.123 1.266-.167.4004-.451.7421-.815.9812-.364.2392-.791.3649-1.228.361z"/>
  <path fill="#4ACFFF" stroke="#45413C" stroke-linecap="round" stroke-linejoin="round" stroke-width="1.4" d="M8.14266 60.9417c-.28836.0002-.57392-.0561-.8403-.1658-.26638-.1096-.50833-.2704-.71198-.4731l-4.69106-4.6544c-.41169-.4088-.64297-.9633-.64297-1.5415 0-.5781.23128-1.1326.64297-1.5414.41169-.4089.97006-.6386 1.55228-.6386.58222 0 1.14059.2297 1.55228.6386l4.69105 4.6584c.30827.3041.51837.6924.60377 1.1155.0854.423.0421.8618-.1243 1.2604-.1664.3985-.44846.739-.81025.9779-.3618.239-.78699.3657-1.22149.364zM100.146 62.4736c-.2365.0003-.4714-.0378-.6955-.1128-.2742-.0897-.5278-.2324-.7462-.4197-.2185-.1874-.3975-.4158-.5267-.6722-.1292-.2563-.2062-.5354-.2264-.8214-.0202-.2859.0167-.573.1086-.8448l1.5645-4.6584c.1837-.5489.5797-1.0028 1.1007-1.262.52-.2591 1.123-.3022 1.676-.1198.553.1825 1.01.5754 1.271 1.0926.261.5171.304 1.1159.121 1.6648l-1.564 4.6625c-.145.4348-.424.8129-.798 1.0807-.374.2678-.824.4114-1.285.4105zM94.0286 93.9163c-.4353.0026-.8616-.1238-1.2243-.363-.3627-.2391-.6453-.5802-.8119-.9796-.1666-.3994-.2096-.8391-.1234-1.2629.0862-.4238.2977-.8124.6073-1.1163l3.1279-3.1074c.4113-.4091.9694-.639 1.5515-.6394.5821-.0004 1.1405.2288 1.5523.6373.4119.4085.6435.9627.6439 1.5407.0004.5781-.2305 1.1326-.6418 1.5416l-3.1278 3.1102c-.2039.2028-.446.3637-.7127.4734-.2666.1096-.5524.1658-.841.1654z"/>
  <path fill="#FFE500" stroke="#45413C" stroke-linecap="round" stroke-linejoin="round" stroke-width="1.4" d="M9.54172 89.3952c-.43563.0028-.86221-.1235-1.2252-.3627-.36299-.2392-.64589-.5805-.81254-.9802-.16665-.3997-.20947-.8397-.12299-1.2637.08647-.424.29832-.8128.60846-1.1166l3.12785-3.1061c.4118-.409.9705-.6388 1.5529-.6388.5825 0 1.1411.2298 1.553.6388.4119.409.6433.9638.6433 1.5422s-.2314 1.1331-.6433 1.5421l-3.1292 3.1061c-.2036.2027-.4456.3635-.712.4732-.2664.1096-.55192.1659-.84028.1657z"/>
  <path fill="#4ACFFF" stroke="#45413C" stroke-linecap="round" stroke-linejoin="round" stroke-width="1.4" d="M33.6349 23.507c-.4358.0031-.8625-.123-1.2257-.3621-.3632-.2391-.6463-.5804-.8132-.9802-.1668-.3997-.2097-.8398-.1233-1.264.0865-.4241.2983-.813.6086-1.1169l4.6924-4.6516c.2035-.2028.4452-.3638.7113-.4738.2662-.1101.5515-.1669.8398-.1674.2883-.0006.5739.0553.8404.1644.2665.1091.5088.2693.713.4713.2042.2021.3664.4421.4772.7064.1107.2643.168.5477.1685.834.0006.2863-.0557.5698-.1656.8345-.1098.2647-.2711.5053-.4746.7081l-4.691 4.6584c-.2043.2034-.4472.3646-.7146.4742-.2673.1097-.5539.1657-.8432.1647z"/>
  <path fill="#FF6242" d="M76.1884 39.4248h.0137c.5439-3.0066 1.5373-5.9155 2.9472-8.6304 3.9409-7.7482 9.946-12.6187 13.4147-10.8747 3.4687 1.7441 3.084 9.4297-.8569 17.1779-7.155 14.0637-12.8809 10.7564-16.689 10.5593l1.1703-8.2321z"/>
  <path fill="#FF866E" d="M75.4736 44.4489c.5463-2.9737 1.5325-5.8508 2.9266-8.538 3.9409-7.7482 9.946-12.6173 13.4147-10.8746 1.6111.8088 2.3804 2.9117 2.3572 5.6996 1.388-5.2225.887-9.5615-1.6098-10.8134-3.4673-1.74-9.4725 3.1264-13.4148 10.8746-1.4098 2.7149-2.4032 5.6239-2.9471 8.6304h-.0137l-.7282 5.1165"/>
  <path stroke="#45413C" stroke-linecap="round" stroke-linejoin="round" stroke-width="1.4" d="M76.1884 39.4248h.0137c.5439-3.0066 1.5373-5.9155 2.9472-8.6304 3.9409-7.7482 9.946-12.6187 13.4147-10.8747 3.4687 1.7441 3.084 9.4297-.8569 17.1779-7.155 14.0637-12.8809 10.7564-16.689 10.5593l1.1703-8.2321z"/>
  <path fill="#FF6242" d="M75.9432 39.3935h-.0151c.2275-3.0463-.0055-6.1093-.6912-9.0871-1.8754-8.4782-6.472-14.6808-10.2664-13.8516-3.7945.8292-5.3495 8.3721-3.4742 16.8557 3.4057 15.3904 9.7818 13.6029 13.5188 14.3518l.9281-8.2688z"/>
  <path fill="#FF866E" d="M75.3763 44.4353c.2153-3.015-.019-6.045-.6953-8.992-1.8754-8.4781-6.472-14.6808-10.2664-13.8516-1.7645.3847-3.0361 2.232-3.7123 4.9385-.0356-5.402 1.5358-9.48 4.268-10.0768 3.7945-.8278 8.3911 5.3735 10.2664 13.8516.6857 2.9779.9187 6.0408.6913 9.0872h.0151l-.5777 5.1355"/>
  <path stroke="#45413C" stroke-linecap="round" stroke-linejoin="round" stroke-width="1.4" d="M75.9432 39.3935h-.0151c.2275-3.0463-.0055-6.1093-.6912-9.0871-1.8754-8.4782-6.472-14.6808-10.2664-13.8516-3.7945.8292-5.3495 8.3721-3.4742 16.8557 3.4057 15.3904 9.7818 13.6029 13.5188 14.3518l.9281-8.2688z"/>
  <path fill="#FF6242" d="M78.2786 62.2222c-1.0951 7.6394-4.3078 13.5049-7.1933 13.0998-2.8856-.405-4.342-6.9258-3.2538-14.5666 1.0882-7.6408 4.3064-13.5036 7.1919-13.0985 2.8856.4051 4.342 6.9258 3.2552 14.5653z"/>
  <path fill="#E04122" d="M68.2709 58.2692c-.2026 5.8859 1.2018 10.4207 3.5919 10.755 2.5693.3616 5.4001-4.2547 6.758-10.6653-.0448 1.2929-.159 2.5825-.3422 3.8632-1.0951 7.6395-4.3078 13.505-7.1933 13.0999-2.8856-.405-4.342-6.9258-3.2538-14.5666.1205-.8523.2683-1.6842.4394-2.4862z"/>
  <path stroke="#45413C" stroke-linecap="round" stroke-linejoin="round" stroke-width="1.4" d="M78.2786 62.2222c-1.0951 7.6394-4.3078 13.5049-7.1933 13.0998-2.8856-.405-4.342-6.9258-3.2538-14.5666 1.0882-7.6408 4.3064-13.5036 7.1919-13.0985 2.8856.4051 4.342 6.9258 3.2552 14.5653z"/>
  <path fill="#00F5BC" d="M33.4498 56.3063h.0137c-.4176-3.0246-.3789-6.0942.115-9.1075 1.336-8.5774 5.5315-15.0532 9.3697-14.4633 3.8383.59 5.8697 8.0201 4.5337 16.5988-2.4256 15.5712-8.8975 14.1847-12.5839 15.1661l-1.4482-8.1941z"/>
  <path fill="#8CFFE4" d="M34.3341 61.3032c-.4059-2.9956-.3639-6.0343.1245-9.0178 1.336-8.5773 5.5316-15.0532 9.3698-14.4646 1.7795.2718 3.1717 2.039 4.0176 4.6978-.3066-5.3938-2.1327-9.3658-4.8978-9.7872-3.8327-.5899-8.0337 5.8859-9.3697 14.4633-.4939 3.0133-.5326 6.0829-.115 9.1076h-.0137l.9007 5.0893"/>
  <path stroke="#45413C" stroke-linecap="round" stroke-linejoin="round" stroke-width="1.4" d="M33.4498 56.3063h.0137c-.4176-3.0246-.3789-6.0942.115-9.1075 1.336-8.5774 5.5315-15.0532 9.3697-14.4633 3.8383.59 5.8697 8.0201 4.5337 16.5988-2.4256 15.5712-8.8975 14.1847-12.5839 15.1661l-1.4482-8.1941z"/>
  <path fill="#00F5BC" d="M33.2079 56.3526h-.0137c-.733-2.9661-1.9081-5.8067-3.4865-8.4279-4.4227-7.4858-10.7249-11.9716-14.0759-10.0196-3.3509 1.952-2.4803 9.605 1.9397 17.0908 8.0311 13.5934 13.5366 9.9327 17.3242 9.4977l-1.6878-8.141z"/>
  <path fill="#8CFFE4" d="M34.2384 61.3209c-.7339-2.9336-1.9004-5.7433-3.4618-8.3381-4.4228-7.4872-10.7249-11.973-14.0759-10.021-1.5578.908-2.1902 3.0558-1.993 5.8369-1.7152-5.1274-1.4907-9.4881.9226-10.8936 3.3495-1.952 9.6517 2.5338 14.0759 10.0196 1.5782 2.6212 2.7534 5.4618 3.4864 8.4279h.0137l1.0513 5.0621"/>
  <path stroke="#45413C" stroke-linecap="round" stroke-linejoin="round" stroke-width="1.4" d="M33.2062 56.3512h-.0137c-.7331-2.966-1.9082-5.8066-3.4865-8.4279-4.4241-7.4858-10.7263-11.9716-14.0759-10.0196-3.3496 1.952-2.4817 9.605 1.941 17.0909 8.0297 13.5933 13.5366 9.9326 17.3242 9.4976l-1.6891-8.141z"/>
  <path fill="#00F5BC" d="M36.4806 72.6673h-.0137c.4633 3.0179.4698 6.0876.0192 9.1075-1.2087 8.5964-5.3084 15.1334-9.1562 14.5992-3.8479-.5342-5.986-7.9344-4.7773-16.5308 2.1901-15.6065 8.6922-14.3138 12.3593-15.3483l1.5687 8.1724z"/>
  <path fill="#00DBA8" d="M35.524 67.6826c.4488 2.9897.4511 6.0288.0068 9.0192-1.2087 8.5964-5.3084 15.132-9.1562 14.5992-1.7877-.2474-3.2004-1.9914-4.086-4.6381.3874 5.3884 2.2709 9.3332 5.0415 9.7179 3.8478.5342 7.9475-6.0028 9.1562-14.5992.4506-3.0199.4441-6.0896-.0192-9.1076h.0137l-.9773-5.0825"/>
  <path stroke="#45413C" stroke-linecap="round" stroke-linejoin="round" stroke-width="1.4" d="M36.4806 72.6673h-.0137c.4633 3.0179.4698 6.0876.0192 9.1075-1.2087 8.5964-5.3084 15.1334-9.1562 14.5992-3.8479-.5342-5.986-7.9344-4.7773-16.5308 2.1901-15.6065 8.6922-14.3138 12.3593-15.3483l1.5687 8.1724z"/>
  <path fill="#00F5BC" d="M36.723 72.6183h.0137c.777 2.9555 1.9941 5.7791 3.611 8.3776 4.5337 7.4206 10.9002 11.8153 14.2224 9.8144 3.3222-2.001 2.3394-9.6391-2.1902-17.0596-8.2295-13.4724-13.6817-9.7342-17.4624-9.2435l1.8055 8.1111z"/>
  <path fill="#00DBA8" d="M35.6181 67.6649c.7761 2.9222 1.9828 5.7146 3.5809 8.2865 4.5323 7.422 10.9002 11.8153 14.221 9.8157 1.5441-.9297 2.1477-3.087 1.9068-5.8655 1.7905 5.1016 1.6303 9.4651-.7611 10.9059-3.3222 2.001-9.6887-2.3937-14.2223-9.8143-1.616-2.5986-2.8322-5.4223-3.6083-8.3776h-.0137l-1.1252-5.0458"/>
  <path stroke="#45413C" stroke-linecap="round" stroke-linejoin="round" stroke-width="1.4" d="M36.723 72.6183h.0137c.777 2.9555 1.9941 5.7791 3.611 8.3776 4.5337 7.4206 10.9002 11.8153 14.2224 9.8144 3.3222-2.001 2.3394-9.6391-2.1902-17.0596-8.2295-13.4724-13.6817-9.7342-17.4624-9.2435l1.8055 8.1111z"/>
</svg>
