<svg width="58" height="54" viewBox="0 0 58 54" fill="none" xmlns="http://www.w3.org/2000/svg">
<path d="M49.1025 41.7743H51.0765L51.8576 39.9615C53.5715 35.9839 54.3066 31.6256 54.0016 27.2825C53.6966 22.9394 52.3602 18.7368 50.1045 15.0592C47.8483 11.3809 44.7405 8.33941 41.0531 6.2265C37.3646 4.11297 33.2199 3 28.9999 3C24.7798 3 20.6352 4.11297 16.9467 6.2265C13.2593 8.33941 10.1514 11.3809 7.8953 15.0592C5.63959 18.7368 4.3032 22.9394 3.99819 27.2825C3.69318 31.6256 4.42825 35.9839 6.14214 39.9615L6.92327 41.7743H8.89726H49.1025Z" fill="#627B8C" stroke="white" stroke-width="6"/>
<path d="M8.89746 38.7743C10.6479 42.8368 13.475 46.2828 17.0403 48.6997C20.6055 51.1166 24.7579 52.402 29.0001 52.402C33.2423 52.402 37.3946 51.1166 40.9599 48.6997C44.5252 46.2828 47.3523 42.8368 49.1027 38.7743H8.89746Z" fill="#8CA4B8"/>
<path fill-rule="evenodd" clip-rule="evenodd" d="M7.17725 38.7744C7.17725 38.5984 7.314 38.4557 7.4827 38.4557H50.5172C50.6859 38.4557 50.8226 38.5984 50.8226 38.7744C50.8226 38.9503 50.6859 39.093 50.5172 39.093H7.4827C7.314 39.093 7.17725 38.9503 7.17725 38.7744Z" fill="#45413C"/>
<path fill-rule="evenodd" clip-rule="evenodd" d="M4.69458 38.7744C4.69458 38.5984 4.83134 38.4557 5.00003 38.4557H6.37935C6.54804 38.4557 6.6848 38.5984 6.6848 38.7744C6.6848 38.9503 6.54804 39.093 6.37935 39.093H5.00003C4.83134 39.093 4.69458 38.9503 4.69458 38.7744Z" fill="#45413C"/>
<path fill-rule="evenodd" clip-rule="evenodd" d="M51.3152 38.7744C51.3152 38.5984 51.4519 38.4557 51.6206 38.4557H53C53.1686 38.4557 53.3054 38.5984 53.3054 38.7744C53.3054 38.9503 53.1686 39.093 53 39.093H51.6206C51.4519 39.093 51.3152 38.9503 51.3152 38.7744Z" fill="#45413C"/>
<path d="M17.9137 24.718L13.5551 23.7366C13.2603 23.6703 12.996 23.4996 12.8064 23.2531C12.6169 23.0066 12.5134 22.6992 12.5134 22.3823V20.2571L17.9121 21.4751L17.9137 24.718Z" fill="#00AD85"/>
<path fill-rule="evenodd" clip-rule="evenodd" d="M12.3217 20.0091C12.3935 19.9486 12.4878 19.9253 12.578 19.9456L17.9767 21.1637C18.1172 21.1954 18.2175 21.325 18.2175 21.4749L18.2192 24.7179C18.2192 24.8142 18.1775 24.9054 18.1057 24.9659C18.0338 25.0264 17.9396 25.0498 17.8493 25.0295L13.4907 24.0481C13.4907 24.0481 13.4907 24.0481 13.4907 24.0481C13.127 23.9662 12.8015 23.7558 12.5682 23.4525C12.335 23.1493 12.208 22.7715 12.208 22.3823V20.2571C12.208 20.1607 12.2498 20.0696 12.3217 20.0091ZM12.8189 20.652V22.3823C12.8189 22.3823 12.8189 22.3823 12.8189 22.3823C12.8189 22.627 12.8988 22.864 13.0447 23.0537C13.1906 23.2434 13.3936 23.3743 13.6196 23.4252L17.6081 24.3232L17.6068 21.7322L12.8189 20.652Z" fill="#45413C"/>
<path d="M17.9135 21.4751L12.5149 24.718V28.7718L17.9135 25.5289V21.4751Z" fill="#00DBA8"/>
<path fill-rule="evenodd" clip-rule="evenodd" d="M18.0664 21.1993C18.1608 21.2562 18.219 21.3613 18.219 21.4751V25.5289C18.219 25.6429 18.1607 25.7481 18.066 25.805L12.6674 29.0479C12.5728 29.1047 12.4565 29.1046 12.3621 29.0477C12.2676 28.9907 12.2095 28.8856 12.2095 28.7718V24.718C12.2095 24.6041 12.2678 24.4988 12.3625 24.4419L17.7611 21.199C17.8556 21.1422 17.972 21.1423 18.0664 21.1993ZM12.8204 24.9022V28.2207L17.6081 25.3447V22.0263L12.8204 24.9022Z" fill="#45413C"/>
<path d="M17.9137 18.2316L13.5551 17.2502C13.2603 17.1838 12.996 17.0132 12.8064 16.7667C12.6169 16.5202 12.5134 16.2128 12.5134 15.8958V13.7724L17.9121 14.9904L17.9137 18.2316Z" fill="#00AD85"/>
<path fill-rule="evenodd" clip-rule="evenodd" d="M12.3217 13.5244C12.3935 13.4639 12.4878 13.4406 12.578 13.461L17.9767 14.679C18.1172 14.7107 18.2175 14.8403 18.2175 14.9903L18.2192 18.2314C18.2192 18.3278 18.1775 18.419 18.1057 18.4795C18.0338 18.54 17.9396 18.5634 17.8493 18.5431L13.4907 17.5617C13.4907 17.5617 13.4907 17.5617 13.4907 17.5617C13.127 17.4798 12.8015 17.2693 12.5682 16.9661C12.335 16.6628 12.208 16.2851 12.208 15.8959V13.7724C12.208 13.676 12.2498 13.5849 12.3217 13.5244ZM12.8189 14.1673V15.8958C12.8189 15.8958 12.8189 15.8958 12.8189 15.8958C12.8189 16.1406 12.8988 16.3776 13.0447 16.5673C13.1906 16.757 13.3936 16.8879 13.6196 16.9388L17.6081 17.8368L17.6068 15.2475L12.8189 14.1673Z" fill="#45413C"/>
<path d="M17.9135 14.9887L12.5149 18.2316V22.286L17.9135 19.0425V14.9887Z" fill="#00DBA8"/>
<path fill-rule="evenodd" clip-rule="evenodd" d="M18.0664 14.7128C18.1608 14.7698 18.219 14.8749 18.219 14.9887V19.0425C18.219 19.1564 18.1607 19.2617 18.066 19.3186L12.6674 22.5621C12.5729 22.6189 12.4565 22.6188 12.3621 22.5618C12.2676 22.5049 12.2095 22.3998 12.2095 22.286V18.2316C12.2095 18.1177 12.2678 18.0124 12.3625 17.9555L17.7611 14.7126C17.8556 14.6558 17.972 14.6559 18.0664 14.7128ZM12.8204 18.4158V21.7348L17.6081 18.8583V15.5399L12.8204 18.4158Z" fill="#45413C"/>
<path d="M17.9135 12.5567L12.5149 15.7996V10.5295C12.525 9.78387 12.8139 9.07242 13.319 8.54893C13.8241 8.02544 14.5049 7.73198 15.2142 7.73198C15.9235 7.73198 16.6043 8.02544 17.1094 8.54893C17.6145 9.07242 17.9034 9.78387 17.9135 10.5295V12.5567Z" fill="#00DBA8"/>
<path fill-rule="evenodd" clip-rule="evenodd" d="M15.2142 8.05059C14.586 8.05059 13.9825 8.31052 13.5343 8.77496C13.0866 9.23896 12.8299 9.86991 12.8204 10.5318V15.2484L17.6081 12.3725V10.5318C17.5985 9.86991 17.3419 9.23896 16.8942 8.77496C16.446 8.31052 15.8425 8.05059 15.2142 8.05059ZM13.1037 8.3229C13.6658 7.74036 14.4239 7.41335 15.2142 7.41335C16.0045 7.41335 16.7626 7.74036 17.3247 8.3229C17.8867 8.90536 18.2077 9.69643 18.219 10.5249L18.219 10.5295L18.219 12.5566C18.219 12.6706 18.1607 12.7759 18.066 12.8328L12.6674 16.0757C12.5728 16.1325 12.4565 16.1323 12.3621 16.0754C12.2676 16.0185 12.2095 15.9133 12.2095 15.7996V10.5249C12.2207 9.69643 12.5417 8.90536 13.1037 8.3229Z" fill="#45413C"/>
<path d="M24.0837 24.718L28.4424 23.7366C28.7372 23.6703 29.0014 23.4996 29.191 23.2531C29.3806 23.0066 29.484 22.6992 29.484 22.3823V20.2571L24.0854 21.4751L24.0837 24.718Z" fill="#00AD85"/>
<path fill-rule="evenodd" clip-rule="evenodd" d="M29.6759 20.0091C29.7477 20.0696 29.7895 20.1607 29.7895 20.2571V22.3823C29.7895 22.7715 29.6625 23.1493 29.4293 23.4525C29.1961 23.7558 28.8706 23.9662 28.5068 24.0481C28.5068 24.0481 28.5069 24.0481 28.5068 24.0481L24.1482 25.0295C24.058 25.0498 23.9637 25.0264 23.8919 24.9659C23.82 24.9054 23.7783 24.8142 23.7783 24.7179L23.78 21.4749C23.7801 21.325 23.8803 21.1954 24.0209 21.1637L29.4195 19.9456C29.5097 19.9253 29.604 19.9486 29.6759 20.0091ZM24.3908 21.7322L24.3894 24.3232L28.3779 23.4252C28.6039 23.3743 28.8069 23.2434 28.9528 23.0537C29.0987 22.864 29.1786 22.627 29.1786 22.3823C29.1786 22.3823 29.1786 22.3823 29.1786 22.3823V20.652L24.3908 21.7322Z" fill="#45413C"/>
<path d="M24.0837 21.4751L29.4824 24.718V28.7718L24.0837 25.5289V21.4751Z" fill="#00DBA8"/>
<path fill-rule="evenodd" clip-rule="evenodd" d="M23.9309 21.1993C24.0253 21.1423 24.1417 21.1422 24.2362 21.199L29.6348 24.4419C29.7295 24.4988 29.7879 24.6041 29.7879 24.718V28.7718C29.7879 28.8856 29.7297 28.9907 29.6353 29.0477C29.5408 29.1046 29.4245 29.1047 29.33 29.0479L23.9313 25.805C23.8367 25.7481 23.7783 25.6429 23.7783 25.5289V21.4751C23.7783 21.3613 23.8365 21.2562 23.9309 21.1993ZM24.3892 22.0263V25.3447L29.1769 28.2207V24.9022L24.3892 22.0263Z" fill="#45413C"/>
<path d="M24.0837 18.2316L28.4424 17.2502C28.7372 17.1838 29.0014 17.0132 29.191 16.7667C29.3806 16.5202 29.484 16.2128 29.484 15.8958V13.7724L24.0854 14.9904L24.0837 18.2316Z" fill="#00AD85"/>
<path fill-rule="evenodd" clip-rule="evenodd" d="M29.6759 13.5244C29.7477 13.5849 29.7895 13.676 29.7895 13.7724V15.8958C29.7895 16.2851 29.6625 16.6628 29.4293 16.9661C29.1961 17.2693 28.8706 17.4798 28.5068 17.5617C28.5068 17.5617 28.5069 17.5617 28.5068 17.5617L24.1482 18.5431C24.058 18.5634 23.9637 18.54 23.8919 18.4795C23.82 18.419 23.7783 18.3278 23.7783 18.2314L23.78 14.9903C23.7801 14.8403 23.8803 14.7107 24.0209 14.679L29.4195 13.461C29.5097 13.4406 29.604 13.4639 29.6759 13.5244ZM24.3908 15.2475L24.3894 17.8368L28.3779 16.9388C28.6039 16.8879 28.8069 16.757 28.9528 16.5673C29.0987 16.3776 29.1786 16.1406 29.1786 15.8958C29.1786 15.8958 29.1786 15.8959 29.1786 15.8958V14.1673L24.3908 15.2475Z" fill="#45413C"/>
<path d="M24.0837 14.9887L29.4824 18.2316V22.286L24.0837 19.0425V14.9887Z" fill="#00DBA8"/>
<path fill-rule="evenodd" clip-rule="evenodd" d="M23.9309 14.7128C24.0253 14.6559 24.1417 14.6558 24.2362 14.7126L29.6348 17.9555C29.7295 18.0124 29.7879 18.1177 29.7879 18.2316V22.286C29.7879 22.3998 29.7297 22.5049 29.6353 22.5618C29.5408 22.6188 29.4245 22.6189 29.3299 22.5621L23.9313 19.3186C23.8367 19.2617 23.7783 19.1564 23.7783 19.0425V14.9887C23.7783 14.8749 23.8365 14.7698 23.9309 14.7128ZM24.3892 15.5399V18.8583L29.1769 21.7348V18.4158L24.3892 15.5399Z" fill="#45413C"/>
<path d="M24.0837 12.5567L29.4824 15.7996V10.5295C29.4722 9.78387 29.1834 9.07242 28.6783 8.54893C28.1731 8.02544 27.4923 7.73198 26.7831 7.73198C26.0738 7.73198 25.393 8.02544 24.8878 8.54893C24.3827 9.07242 24.0939 9.78387 24.0837 10.5295V12.5567Z" fill="#00DBA8"/>
<path fill-rule="evenodd" clip-rule="evenodd" d="M24.6726 8.3229C25.2347 7.74037 25.9928 7.41335 26.7831 7.41335C27.5734 7.41335 28.3315 7.74036 28.8936 8.3229C29.4556 8.90536 29.7766 9.69643 29.7878 10.5249L29.7879 10.5295L29.7878 15.7996C29.7878 15.9133 29.7297 16.0185 29.6353 16.0754C29.5408 16.1323 29.4245 16.1325 29.33 16.0757L23.9313 12.8328C23.8367 12.7759 23.7783 12.6706 23.7783 12.5566V10.5249C23.7896 9.69643 24.1106 8.90536 24.6726 8.3229ZM26.7831 8.05059C26.1548 8.05059 25.5513 8.31052 25.1032 8.77496C24.6554 9.23896 24.3988 9.86991 24.3892 10.5318V12.3725L29.1769 15.2484V10.5318C29.1674 9.86991 28.9107 9.23896 28.463 8.77496C28.0149 8.31052 27.4114 8.05059 26.7831 8.05059Z" fill="#45413C"/>
<path d="M15.6003 14.5833C15.6003 16.0885 16.1691 17.5321 17.1816 18.5965C18.194 19.6608 19.5672 20.2588 20.999 20.2588C22.4308 20.2588 23.8039 19.6608 24.8164 18.5965C25.8288 17.5321 26.3976 16.0885 26.3976 14.5833C26.3976 13.078 25.8288 11.6344 24.8164 10.57C23.8039 9.50567 22.4308 8.90771 20.999 8.90771C19.5672 8.90771 18.194 9.50567 17.1816 10.57C16.1691 11.6344 15.6003 13.078 15.6003 14.5833Z" fill="#00DBA8"/>
<path fill-rule="evenodd" clip-rule="evenodd" d="M16.9648 10.3456C18.0343 9.22123 19.4854 8.5891 20.999 8.5891C22.5126 8.5891 23.9637 9.22123 25.0332 10.3456C26.1027 11.4699 26.7031 12.9943 26.7031 14.5833C26.7031 16.1722 26.1027 17.6966 25.0332 18.8209C23.9637 19.9453 22.5126 20.5774 20.999 20.5774C19.4854 20.5774 18.0343 19.9453 16.9648 18.8209C15.8953 17.6966 15.2949 16.1722 15.2949 14.5833C15.2949 12.9943 15.8953 11.4699 16.9648 10.3456ZM20.999 9.22634C19.649 9.22634 18.3538 9.79012 17.3984 10.7945C16.443 11.7989 15.9058 13.1617 15.9058 14.5833C15.9058 16.0048 16.443 17.3676 17.3984 18.3721C18.3538 19.3764 19.649 19.9402 20.999 19.9402C22.349 19.9402 23.6442 19.3764 24.5996 18.3721C25.555 17.3676 26.0922 16.0048 26.0922 14.5833C26.0922 13.1617 25.555 11.7989 24.5996 10.7945C23.6442 9.79011 22.349 9.22634 20.999 9.22634Z" fill="#45413C"/>
<path d="M14.8291 10.8021L17.0103 8.50903L18.2938 9.85839L16.1126 12.1515L14.8291 10.8021Z" fill="#BF8DF2"/>
<path fill-rule="evenodd" clip-rule="evenodd" d="M14.6141 11.0283C14.4952 10.9034 14.4952 10.7009 14.6141 10.5759L16.7953 8.28285C16.9141 8.15793 17.1067 8.15793 17.2256 8.28285L18.5091 9.63221C18.6279 9.75712 18.6279 9.95965 18.5091 10.0846L16.3279 12.3777C16.2091 12.5026 16.0164 12.5026 15.8976 12.3777L14.6141 11.0283ZM15.2595 10.8021L16.1127 11.6991L17.8637 9.85839L17.0104 8.96138L15.2595 10.8021Z" fill="#45413C"/>
<path d="M23.7034 9.85809L24.9869 8.50873L27.1681 10.8018L25.8846 12.1512L23.7034 9.85809Z" fill="#BF8DF2"/>
<path fill-rule="evenodd" clip-rule="evenodd" d="M23.4886 10.0843C23.3698 9.95935 23.3698 9.75682 23.4886 9.63191L24.7721 8.28255C24.8909 8.15763 25.0836 8.15763 25.2024 8.28255L27.3836 10.5756C27.5024 10.7006 27.5024 10.9031 27.3836 11.028L26.1001 12.3774C25.9813 12.5023 25.7886 12.5023 25.6698 12.3774L23.4886 10.0843ZM24.134 9.85809L25.8849 11.6988L26.7382 10.8018L24.9872 8.96108L24.134 9.85809Z" fill="#45413C"/>
<path opacity="0.15" d="M13.2881 52.7837C13.2881 53.1063 14.1006 53.4157 15.5469 53.6438C16.9932 53.8719 18.9547 54 21.0001 54C23.0454 54 25.007 53.8719 26.4533 53.6438C27.8996 53.4157 28.7121 53.1063 28.7121 52.7837C28.7121 52.4611 27.8996 52.1517 26.4533 51.9236C25.007 51.6955 23.0454 51.5674 21.0001 51.5674C18.9547 51.5674 16.9932 51.6955 15.5469 51.9236C14.1006 52.1517 13.2881 52.4611 13.2881 52.7837Z" fill="#45413C"/>
<path d="M16.7585 37.3788L18.3012 52.3782H23.6992L25.2419 37.3788H16.7585Z" fill="#FFE9BD"/>
<path fill-rule="evenodd" clip-rule="evenodd" d="M16.5311 37.1659C16.5891 37.0986 16.6717 37.0602 16.7583 37.0602H25.2416C25.3283 37.0602 25.4109 37.0986 25.4689 37.1659C25.5268 37.2331 25.5546 37.3229 25.5454 37.4128L24.0027 52.4122C23.9861 52.5741 23.8551 52.6969 23.699 52.6969H18.301C18.1449 52.6969 18.0139 52.5741 17.9972 52.4122L16.4546 37.4128C16.4454 37.3229 16.4732 37.2331 16.5311 37.1659ZM17.0983 37.6974L18.5754 52.0596H23.4246L24.9017 37.6974H17.0983Z" fill="#45413C"/>
<path fill-rule="evenodd" clip-rule="evenodd" d="M21 40.3031C21.1687 40.3031 21.3055 40.4458 21.3055 40.6217V52.3782C21.3055 52.5542 21.1687 52.6969 21 52.6969C20.8313 52.6969 20.6946 52.5542 20.6946 52.3782V40.6217C20.6946 40.4458 20.8313 40.3031 21 40.3031Z" fill="#45413C"/>
<path fill-rule="evenodd" clip-rule="evenodd" d="M16.5311 37.1659C16.5891 37.0986 16.6717 37.0602 16.7583 37.0602H25.2416C25.3283 37.0602 25.4109 37.0986 25.4689 37.1659C25.5268 37.2331 25.5546 37.3229 25.5454 37.4128L24.0027 52.4122C23.9861 52.5741 23.8551 52.6969 23.699 52.6969H18.301C18.1449 52.6969 18.0139 52.5741 17.9972 52.4122L16.4546 37.4128C16.4454 37.3229 16.4732 37.2331 16.5311 37.1659ZM17.0983 37.6974L18.5754 52.0596H23.4246L24.9017 37.6974H17.0983Z" fill="#45413C"/>
<path d="M25.0353 52.3783C25.1708 52.3781 25.3039 52.3405 25.4212 52.2691C25.5386 52.1978 25.636 52.0953 25.7037 51.9719C25.7714 51.8485 25.807 51.7085 25.8069 51.566C25.8069 51.4235 25.7712 51.2836 25.7035 51.1602C25.5006 50.79 25.2085 50.4824 24.8566 50.2686C24.5047 50.0548 24.1055 49.9422 23.699 49.9421H23.3128C23.0088 49.9423 22.7077 50.0054 22.4269 50.128C22.1461 50.2505 21.891 50.43 21.6762 50.6563C21.4614 50.8825 21.2911 51.1511 21.1751 51.4465C21.0591 51.742 20.9996 52.0586 21 52.3783H25.0353Z" fill="#525252"/>
<path fill-rule="evenodd" clip-rule="evenodd" d="M23.3129 49.6235L23.6991 49.6235C24.1596 49.6236 24.6119 49.7512 25.0104 49.9933C25.4088 50.2354 25.7392 50.5834 25.9686 51.0019C26.0628 51.1736 26.1124 51.3681 26.1124 51.5659C26.1125 51.7638 26.063 51.9584 25.9688 52.1301C25.8746 52.3018 25.7389 52.4448 25.5751 52.5444C25.4113 52.644 25.2252 52.6967 25.0357 52.6969L21 52.6969C20.8315 52.6969 20.6948 52.5545 20.6946 52.3787C20.6941 52.0175 20.7613 51.6597 20.8925 51.3257C21.0236 50.9918 21.2161 50.6881 21.4592 50.4321C21.7022 50.1761 21.991 49.9728 22.3091 49.834C22.6271 49.6952 22.9683 49.6237 23.3129 49.6235ZM23.3129 50.2608C23.3128 50.2608 23.3129 50.2608 23.3129 50.2608C23.0493 50.2609 22.7883 50.3157 22.5448 50.4219C22.3012 50.5282 22.0798 50.684 21.8932 50.8805C21.7067 51.077 21.5587 51.3103 21.4578 51.5673C21.3956 51.7256 21.3521 51.891 21.3279 52.0596L25.035 52.0596C25.0351 52.0596 25.035 52.0596 25.035 52.0596C25.1164 52.0595 25.1967 52.0369 25.2674 51.9939C25.3383 51.9508 25.3974 51.8887 25.4386 51.8136C25.4798 51.7385 25.5015 51.6531 25.5015 51.5661C25.5015 51.479 25.4797 51.3937 25.4384 51.3186C25.2621 50.9967 25.0082 50.7294 24.7029 50.5439C24.3976 50.3584 24.0514 50.2608 23.6991 50.2608M23.6991 50.2608H23.3129H23.6991Z" fill="#45413C"/>
<path d="M20.9999 52.3782C20.9999 51.7332 20.7562 51.1145 20.3223 50.6583C19.8885 50.2021 19.3001 49.9458 18.6865 49.9456H18.3003C17.8938 49.9456 17.4946 50.0582 17.1427 50.2721C16.7908 50.4859 16.4987 50.7934 16.2959 51.1637C16.2281 51.2871 16.1924 51.427 16.1924 51.5695C16.1923 51.7119 16.228 51.8519 16.2957 51.9753C16.3634 52.0988 16.4608 52.2013 16.5781 52.2726C16.6954 52.3439 16.8285 52.3816 16.964 52.3817L20.9999 52.3782Z" fill="#525252"/>
<path fill-rule="evenodd" clip-rule="evenodd" d="M16.9892 49.9968C17.3877 49.7546 17.84 49.627 18.3005 49.627H18.6868C19.3821 49.6272 20.0486 49.9177 20.5395 50.4339C21.0303 50.9501 21.3056 51.6495 21.3056 52.3782C21.3056 52.5541 21.169 52.6967 21.0004 52.6969L16.9645 52.7003L16.964 52.7003C16.7744 52.7001 16.5883 52.6475 16.4245 52.5479C16.2607 52.4483 16.125 52.3053 16.0308 52.1336C15.9366 51.9618 15.8872 51.7673 15.8872 51.5694C15.8873 51.3716 15.9368 51.1771 16.031 51.0055C16.2604 50.5869 16.5908 50.2389 16.9892 49.9968ZM18.3006 50.2642C17.9483 50.2643 17.602 50.3619 17.2967 50.5474C16.9914 50.7329 16.7377 50.9999 16.5613 51.3218C16.5201 51.3969 16.4981 51.4825 16.4981 51.5696C16.4981 51.6566 16.5199 51.742 16.5611 51.8171C16.6023 51.8922 16.6614 51.9543 16.7322 51.9973C16.8029 52.0404 16.883 52.063 16.9644 52.0631C16.9645 52.0631 16.9643 52.0631 16.9644 52.0631L20.6718 52.0599C20.6076 51.6165 20.4106 51.2033 20.1058 50.8827C19.729 50.4866 19.2186 50.2644 18.6868 50.2642M18.3006 50.2642C18.3006 50.2642 18.3006 50.2642 18.3006 50.2642V50.2642ZM18.6868 50.2642H18.3006H18.6868Z" fill="#45413C"/>
<path fill-rule="evenodd" clip-rule="evenodd" d="M16.7583 27.7363C16.927 27.7363 17.0638 27.8789 17.0638 28.0549V37.3788C17.0638 37.5548 16.927 37.6974 16.7583 37.6974C16.5896 37.6974 16.4529 37.5548 16.4529 37.3788V28.0549C16.4529 27.8789 16.5896 27.7363 16.7583 27.7363Z" fill="#45413C"/>
<path fill-rule="evenodd" clip-rule="evenodd" d="M25.2417 27.7363C25.4104 27.7363 25.5472 27.8789 25.5472 28.0549V37.3788C25.5472 37.5548 25.4104 37.6974 25.2417 37.6974C25.073 37.6974 24.9363 37.5548 24.9363 37.3788V28.0549C24.9363 27.8789 25.073 27.7363 25.2417 27.7363Z" fill="#45413C"/>
<path d="M27.5738 48.0246C27.6793 48.0121 27.7812 47.9769 27.8732 47.9212C27.9652 47.8655 28.0452 47.7905 28.1084 47.7008C28.1715 47.6111 28.2164 47.5087 28.2403 47.3999C28.2641 47.2912 28.2664 47.1784 28.2469 47.0687C28.1142 46.3733 27.8811 45.7034 27.5556 45.0821H14.4444C14.1188 45.7037 13.8857 46.3741 13.7531 47.0699C13.7336 47.1796 13.7359 47.2923 13.7597 47.4011C13.7835 47.5098 13.8284 47.6122 13.8916 47.7019C13.9548 47.7916 14.0348 47.8667 14.1268 47.9224C14.2188 47.9781 14.3207 48.0133 14.4262 48.0257C16.6107 48.2499 18.8052 48.3497 21 48.3245C23.1948 48.3493 25.3893 48.2492 27.5738 48.0246Z" fill="#525252"/>
<path fill-rule="evenodd" clip-rule="evenodd" d="M14.1766 44.9294C14.2302 44.8271 14.333 44.7635 14.4447 44.7635H27.5559C27.6675 44.7635 27.7703 44.8271 27.8239 44.9293C28.1643 45.579 28.408 46.2795 28.5467 47.0065L28.5475 47.0107L28.5475 47.0107C28.5746 47.1631 28.5714 47.3198 28.5383 47.4709C28.5052 47.622 28.4428 47.7645 28.3548 47.8894C28.2669 48.0143 28.1553 48.119 28.0268 48.1968C27.8984 48.2746 27.756 48.3238 27.6084 48.3412L27.604 48.3417L27.604 48.3417C25.4096 48.5673 23.2051 48.6679 21.0003 48.6431C18.7955 48.6683 16.591 48.5681 14.3966 48.3428L14.3921 48.3424L14.3921 48.3423C14.2446 48.3249 14.1021 48.2757 13.9737 48.1979C13.8453 48.1201 13.7336 48.0155 13.6457 47.8906C13.5577 47.7657 13.4953 47.6232 13.4622 47.4721C13.4291 47.321 13.426 47.1643 13.453 47.0119L13.4537 47.0078L13.4538 47.0078C13.5924 46.2803 13.8361 45.5794 14.1766 44.9294ZM14.6287 45.4007C14.362 45.946 14.1683 46.5278 14.0534 47.1297C14.0419 47.1961 14.0433 47.2643 14.0578 47.3301C14.0723 47.3965 14.0997 47.4588 14.1381 47.5133C14.1764 47.5678 14.2249 47.6132 14.2805 47.6469C14.3354 47.6801 14.3961 47.7012 14.4589 47.7089C16.6315 47.9318 18.8141 48.0309 20.9969 48.0059L21.0036 48.0059C23.1864 48.0305 25.369 47.931 27.5416 47.7078C27.6044 47.7001 27.6651 47.679 27.7201 47.6457C27.7756 47.6121 27.8241 47.5667 27.8625 47.5122C27.9009 47.4577 27.9282 47.3953 27.9428 47.3289C27.9572 47.2632 27.9587 47.195 27.9472 47.1286C27.8322 46.5271 27.6385 45.9457 27.3718 45.4007H14.6287Z" fill="#45413C"/>
<path d="M28.311 45.1494C28.0759 39.5812 25.2417 37.3771 25.2417 37.3771V23.9008C24.0268 22.9144 22.5351 22.3793 21.0001 22.3793C19.465 22.3793 17.9733 22.9144 16.7584 23.9008V37.3788C16.7584 37.3788 13.9242 39.5794 13.6892 45.1511C13.6809 45.3562 13.7468 45.5569 13.8737 45.713C14.0005 45.869 14.1788 45.9688 14.3728 45.9922C16.5748 46.2222 18.7873 46.325 21.0001 46.3002C23.2128 46.3254 25.4253 46.223 27.6274 45.9933C27.8218 45.9699 28.0005 45.8697 28.1274 45.7131C28.2543 45.5564 28.3199 45.3549 28.311 45.1494Z" fill="#656769"/>
<path fill-rule="evenodd" clip-rule="evenodd" d="M16.5706 23.6493C17.839 22.6196 19.3966 22.0607 20.9999 22.0607C22.6031 22.0607 24.1608 22.6196 25.4291 23.6493C25.5035 23.7097 25.547 23.8025 25.547 23.9008V37.2266C25.5528 37.2318 25.5587 37.2372 25.5649 37.2428C25.6492 37.3198 25.7674 37.4341 25.9087 37.5882C26.1913 37.8962 26.5665 38.3633 26.9479 39.0078C27.7118 40.2986 28.496 42.2941 28.6159 45.1354C28.6282 45.4207 28.5372 45.7006 28.3606 45.9187C28.1838 46.137 27.9343 46.277 27.6622 46.3098L27.6576 46.3104L27.6576 46.3104C25.4453 46.5411 23.2228 46.644 20.9998 46.6188C18.7769 46.6436 16.5543 46.5403 14.3421 46.3092L14.3374 46.3087L14.3374 46.3087C14.0661 46.2759 13.8172 46.1364 13.6405 45.919C13.4638 45.7017 13.3723 45.4225 13.3838 45.1378L13.3838 45.1371C13.5037 42.2942 14.2879 40.2986 15.0518 39.0082C15.4332 38.3639 15.8084 37.8971 16.0911 37.5893C16.2324 37.4354 16.3506 37.3212 16.435 37.2443C16.4411 37.2388 16.447 37.2334 16.4527 37.2282V23.9008C16.4527 23.8025 16.4962 23.7097 16.5706 23.6493ZM16.9406 37.6344L16.937 37.6373C16.9331 37.6404 16.9267 37.6456 16.9178 37.6531C16.9001 37.668 16.8727 37.6916 16.8369 37.7242C16.7654 37.7894 16.6603 37.8906 16.5323 38.0301C16.2762 38.309 15.9282 38.7407 15.5716 39.343C14.8597 40.5457 14.1093 42.4362 13.9941 45.1648C13.9892 45.29 14.0295 45.4122 14.1064 45.5069C14.1829 45.601 14.2898 45.6609 14.4056 45.6754C16.5956 45.9041 18.7959 46.0063 20.9966 45.9816H21.0032C23.2038 46.0067 25.4041 45.9048 27.5942 45.6766C27.7102 45.662 27.8174 45.6019 27.8939 45.5074C27.971 45.4123 28.0111 45.2895 28.0056 45.1639L28.0056 45.1634C27.8905 42.4364 27.1401 40.5458 26.4281 39.3425C26.0715 38.7399 25.7235 38.308 25.4673 38.0287C25.3393 37.8891 25.2342 37.7878 25.1626 37.7224C25.1268 37.6898 25.0994 37.6661 25.0817 37.6512C25.0728 37.6438 25.0664 37.6385 25.0626 37.6354L25.0589 37.6325L25.0587 37.6324L25.0587 37.6323C24.9815 37.5722 24.9361 37.4776 24.9361 37.3771V24.0587C23.7967 23.1755 22.4175 22.6979 20.9999 22.6979C19.5822 22.6979 18.203 23.1755 17.0637 24.0587V37.3788C17.0637 37.4792 17.0183 37.5738 16.9412 37.6339C16.9411 37.634 16.941 37.6341 16.9409 37.6341C16.9409 37.6342 16.9409 37.6342 16.9408 37.6342L16.9408 37.6342L16.9406 37.6344ZM20.9998 46.6188C20.9987 46.6188 20.9976 46.6188 20.9965 46.6188L20.9999 46.3002L21.0031 46.6188C21.002 46.6188 21.0009 46.6188 20.9998 46.6188Z" fill="#45413C"/>
<path d="M22.9688 22.6781C22.8545 22.6428 22.7541 22.5695 22.6827 22.4692C22.6113 22.369 22.5727 22.2471 22.5726 22.1218V20.6874H19.446V22.1218C19.446 22.2471 19.4073 22.369 19.3359 22.4692C19.2645 22.5695 19.1642 22.6428 19.0499 22.6781C18.4596 22.8612 17.8954 23.1265 17.3721 23.4669C18.2548 25.0614 19.8278 26.8311 21.0096 26.8311C22.1914 26.8311 23.7616 25.062 24.6466 23.4669C24.1233 23.1264 23.559 22.8611 22.9688 22.6781Z" fill="#FFE9BD"/>
<path fill-rule="evenodd" clip-rule="evenodd" d="M19.1404 20.6874C19.1404 20.5115 19.2771 20.3688 19.4458 20.3688H22.5725C22.7412 20.3688 22.8779 20.5115 22.8779 20.6874V22.1217C22.8779 22.1788 22.8955 22.234 22.9277 22.2792C22.9599 22.3244 23.0048 22.3569 23.0554 22.3726C23.672 22.5637 24.2616 22.8409 24.8081 23.1966C24.9479 23.2876 24.9933 23.4778 24.9108 23.6265C24.4555 24.447 23.8241 25.3132 23.149 25.9787C22.8113 26.3116 22.4564 26.6006 22.1008 26.8078C21.7475 27.0138 21.3755 27.1497 21.0094 27.1497C20.6433 27.1497 20.2712 27.0138 19.9177 26.8078C19.5619 26.6005 19.2067 26.3115 18.8688 25.9785C18.1933 25.313 17.5616 24.4467 17.1074 23.6263C17.025 23.4775 17.0705 23.2875 17.2102 23.1966C17.7567 22.841 18.3461 22.5639 18.9626 22.3727C19.0132 22.357 19.0584 22.3244 19.0906 22.2792C19.1228 22.234 19.1404 22.1788 19.1404 22.1217V20.6874ZM22.8816 22.9835C22.7037 22.9285 22.5479 22.8145 22.4373 22.6592C22.3267 22.5039 22.2671 22.3154 22.267 22.122V21.0061H19.7513V22.1218C19.7512 22.3153 19.6916 22.5039 19.581 22.6592C19.4703 22.8146 19.3146 22.9285 19.1366 22.9835M22.8816 22.9835C23.3496 23.1286 23.8006 23.3279 24.2263 23.5775C23.8139 24.268 23.2836 24.9692 22.7294 25.5156C22.4162 25.8243 22.1017 26.0773 21.8028 26.2516C21.5017 26.4271 21.2342 26.5124 21.0094 26.5124C20.7846 26.5124 20.517 26.4271 20.2156 26.2515C19.9164 26.0771 19.6017 25.8241 19.2883 25.5153C18.7337 24.9689 18.2034 24.2678 17.7918 23.5777C18.2175 23.3281 18.6686 23.1287 19.1366 22.9835" fill="#45413C"/>
<path d="M19.4553 33.325H20.2277C20.5857 33.325 20.9289 33.4745 21.182 33.7406C21.4351 34.0066 21.5773 34.3675 21.5773 34.7438C21.5773 35.12 21.4351 35.4809 21.182 35.747C20.9289 36.013 20.5857 36.1625 20.2277 36.1625H19.4553V33.325Z" fill="#FFE9BD"/>
<path fill-rule="evenodd" clip-rule="evenodd" d="M19.1499 33.325C19.1499 33.149 19.2867 33.0064 19.4554 33.0064H20.2278C20.6675 33.0064 21.0887 33.19 21.3989 33.5161C21.709 33.8421 21.8827 34.2838 21.8827 34.7438C21.8827 35.2037 21.709 35.6454 21.3989 35.9714C21.0887 36.2975 20.6675 36.4811 20.2278 36.4811H19.4554C19.2867 36.4811 19.1499 36.3385 19.1499 36.1625V33.325ZM19.7608 33.6436V35.8439H20.2278C20.5039 35.8439 20.7692 35.7286 20.9652 35.5225C21.1613 35.3164 21.2718 35.0363 21.2718 34.7438C21.2718 34.4512 21.1613 34.1711 20.9652 33.965C20.7692 33.7589 20.5039 33.6436 20.2278 33.6436H19.7608Z" fill="#45413C"/>
<path d="M22.545 33.325H21.7726C21.4147 33.325 21.0714 33.4745 20.8184 33.7406C20.5653 34.0066 20.4231 34.3675 20.4231 34.7438C20.4231 35.12 20.5653 35.4809 20.8184 35.747C21.0714 36.013 21.4147 36.1625 21.7726 36.1625H22.545V33.325Z" fill="#FFE9BD"/>
<path fill-rule="evenodd" clip-rule="evenodd" d="M20.6013 33.5161C20.9115 33.19 21.3327 33.0064 21.7724 33.0064H22.5448C22.7135 33.0064 22.8503 33.149 22.8503 33.325V36.1625C22.8503 36.3385 22.7135 36.4811 22.5448 36.4811H21.7724C21.3327 36.4811 20.9115 36.2975 20.6013 35.9714C20.2912 35.6454 20.1174 35.2037 20.1174 34.7438C20.1174 34.2838 20.2912 33.8421 20.6013 33.5161ZM21.7724 33.6436C21.4963 33.6436 21.231 33.7589 21.035 33.965C20.8389 34.1711 20.7283 34.4512 20.7283 34.7438C20.7283 35.0363 20.8389 35.3164 21.035 35.5225C21.231 35.7286 21.4963 35.8439 21.7724 35.8439H22.2394V33.6436H21.7724Z" fill="#45413C"/>
<path d="M23.6156 37.5418C23.8134 37.453 24.0013 37.3414 24.1756 37.2089C24.7425 36.7757 25.1259 36.1266 25.2437 35.4003C26.0641 34.9021 26.7452 34.1855 27.2186 33.3227C27.692 32.4599 27.941 31.4813 27.9406 30.4852V29.6732C27.9413 28.4286 27.6389 27.2045 27.0624 26.1174C26.4858 25.0303 25.6542 24.1165 24.6468 23.4629C23.5229 25.957 22.5425 28.6518 22.5425 30.4812C22.5483 31.4301 22.6571 32.3753 22.8669 33.2983C22.7593 33.3123 22.6509 33.3193 22.5425 33.3192V36.7918C22.5422 36.926 22.5735 37.0582 22.6337 37.1766C22.6938 37.2949 22.781 37.3958 22.8873 37.4701C22.9936 37.5444 23.1157 37.5898 23.2428 37.6023C23.3699 37.6148 23.498 37.594 23.6156 37.5418Z" fill="#525252"/>
<path fill-rule="evenodd" clip-rule="evenodd" d="M24.5602 23.1573C24.6438 23.1315 24.7341 23.1442 24.8081 23.1923C25.86 23.8748 26.728 24.8287 27.3297 25.9632C27.9314 27.0976 28.2468 28.3748 28.246 29.6734V30.4851C28.2465 31.5365 27.9837 32.5699 27.4838 33.481C27.0071 34.3497 26.3309 35.0783 25.5176 35.6006C25.5278 35.5519 25.5369 35.5029 25.5449 35.4535L25.2438 35.4003L25.3975 35.6757C25.4378 35.6512 25.4779 35.6261 25.5176 35.6006C25.361 36.3485 24.9489 37.013 24.3561 37.4659L24.3555 37.4663C24.1628 37.6128 23.9551 37.7363 23.7363 37.8345L23.6156 37.5418L23.4959 37.2487C23.4958 37.2487 23.4956 37.2488 23.4955 37.2488C23.6721 37.1696 23.8397 37.0699 23.9954 36.9516C24.4977 36.5677 24.8379 35.9921 24.9426 35.3472C24.9577 35.254 25.0117 35.1726 25.0901 35.125C25.8639 34.655 26.5067 33.9789 26.9536 33.1644C27.4004 32.35 27.6356 31.426 27.6351 30.4854V29.6732C27.6358 28.4825 27.3466 27.3113 26.7951 26.2716C26.2999 25.3378 25.6079 24.5379 24.7744 23.9319C24.8236 23.8205 24.8733 23.7092 24.9232 23.5984L24.6468 23.4629L24.4855 23.7334C24.5835 23.797 24.6799 23.8632 24.7744 23.9319C24.2723 25.0678 23.8096 26.2307 23.4632 27.3215C23.0813 28.5238 22.8482 29.6164 22.848 30.4802C22.848 30.4798 22.848 30.4795 22.848 30.4791L22.5426 30.4811H22.848C22.848 30.4808 22.848 30.4805 22.848 30.4802C22.8537 31.4047 22.9597 32.3256 23.1641 33.2248C23.1842 33.3129 23.1673 33.4057 23.1178 33.4801C23.0683 33.5544 22.9908 33.6033 22.9047 33.6145C22.8858 33.617 22.8669 33.6192 22.848 33.6213V33.3192H22.7825L22.8669 33.2983L22.8291 32.9822C22.7341 32.9945 22.6385 33.0007 22.5428 33.0006C22.5255 33.0006 22.5085 33.0021 22.4917 33.005C22.3276 32.1757 22.2422 31.3309 22.2371 30.4832L22.2371 30.4811C22.2371 29.5157 22.4941 28.3465 22.8832 27.1211C23.274 25.8906 23.8055 24.5809 24.3704 23.3273C24.4075 23.245 24.4765 23.1831 24.5602 23.1573ZM22.2371 36.7914C22.2367 36.9777 22.2802 37.1613 22.3638 37.3258C22.4476 37.4905 22.5689 37.6311 22.7173 37.7348C22.8657 37.8385 23.0364 37.902 23.2142 37.9195C23.3919 37.937 23.571 37.9079 23.7353 37.8349L23.6156 37.5418L23.495 37.2491C23.4951 37.249 23.4953 37.2489 23.4955 37.2488C23.4248 37.2802 23.3479 37.2926 23.2716 37.2851C23.1952 37.2776 23.1216 37.2502 23.0573 37.2054C22.9931 37.1605 22.9402 37.0993 22.9036 37.0273C22.8669 36.9552 22.8478 36.8746 22.848 36.7926L22.848 36.7918V33.6213C22.7464 33.6324 22.6444 33.6379 22.5423 33.6378L22.5425 33.3192H22.5579C22.5527 33.2961 22.5476 33.2729 22.5426 33.2498C22.5249 33.1683 22.5079 33.0868 22.4917 33.005M22.2371 36.7914V33.3192C22.2371 33.2347 22.2693 33.1536 22.3266 33.0938C22.3718 33.0468 22.4296 33.0159 22.4917 33.005M22.2371 36.7914C22.2371 36.7913 22.2371 36.7916 22.2371 36.7914V36.7914Z" fill="#45413C"/>
<path fill-rule="evenodd" clip-rule="evenodd" d="M25.2437 28.1417C25.4124 28.1417 25.5492 28.2844 25.5492 28.4603V30.4869C25.5492 30.4869 25.5492 30.4869 25.5492 30.4869C25.5493 30.901 25.4717 31.3113 25.321 31.6941C25.1702 32.0769 24.9492 32.4249 24.6703 32.7181C24.3914 33.0114 24.0601 33.2441 23.6954 33.403C23.3307 33.5618 22.9397 33.6436 22.5447 33.6436C22.376 33.6436 22.2393 33.501 22.2393 33.325C22.2393 33.149 22.376 33.0064 22.5447 33.0064C22.8588 33.0064 23.1698 32.9414 23.46 32.8149C23.7503 32.6885 24.0142 32.5032 24.2366 32.2693C24.4589 32.0355 24.6355 31.7577 24.7559 31.4519C24.8764 31.1461 24.9384 30.8182 24.9383 30.487V28.4603C24.9383 28.2844 25.0751 28.1417 25.2437 28.1417Z" fill="#45413C"/>
<path d="M24.1753 37.2112C24.7706 38.609 25.3626 39.7818 25.6274 40.6217C25.9585 41.6768 27.0249 42.2945 27.9524 42.6443L27.9066 42.2487C27.0647 38.8062 25.2418 37.3765 25.2418 37.3765V35.4131V35.4021C25.1245 36.1283 24.7418 36.7776 24.1753 37.2112Z" fill="#525252"/>
<path fill-rule="evenodd" clip-rule="evenodd" d="M25.2671 35.0846C25.4254 35.0984 25.5471 35.2364 25.5471 35.4021V37.2267C25.6009 37.2756 25.6707 37.3417 25.7532 37.4259C25.9477 37.6244 26.2126 37.9232 26.5035 38.3317C27.0857 39.1492 27.7707 40.4045 28.2024 42.1699C28.2057 42.1833 28.2081 42.1968 28.2097 42.2105L28.2555 42.6061C28.2682 42.7159 28.2254 42.8247 28.1424 42.8936C28.0594 42.9625 27.9481 42.9815 27.8484 42.9439C26.9114 42.5905 25.7161 41.9289 25.3371 40.7211C25.211 40.3213 25.0041 39.8339 24.7482 39.2601C24.676 39.0982 24.6 38.9296 24.5213 38.7551C24.324 38.3175 24.1098 37.8425 23.896 37.3405L24.1751 37.2112L23.9944 36.9543C24.4965 36.57 24.8363 35.9941 24.9404 35.3492C24.9668 35.1858 25.1088 35.0708 25.2671 35.0846ZM24.5504 37.3057C24.7287 37.7179 24.9047 38.1083 25.0712 38.4774C25.1506 38.6535 25.2278 38.8248 25.3021 38.9913C25.5572 39.5633 25.7787 40.0822 25.9174 40.5222L25.9176 40.5226C26.1496 41.2621 26.8215 41.781 27.5617 42.1346C27.1503 40.5595 26.5319 39.4402 26.0131 38.7117C25.743 38.3324 25.4997 38.0586 25.326 37.8814C25.2392 37.7928 25.1698 37.7284 25.1234 37.687C25.1001 37.6664 25.0826 37.6515 25.0715 37.6422C25.0659 37.6376 25.062 37.6343 25.0597 37.6325L25.0581 37.6311C24.9814 37.571 24.9362 37.4765 24.9362 37.3765V36.8834C24.821 37.0357 24.692 37.1772 24.5504 37.3057Z" fill="#45413C"/>
<path d="M18.3843 37.5418C18.1864 37.453 17.9986 37.3414 17.8243 37.2089C17.2574 36.7757 16.874 36.1266 16.7562 35.4003C15.9358 34.9021 15.2546 34.1855 14.7812 33.3227C14.3078 32.4599 14.0589 31.4813 14.0593 30.4852V29.6732C14.0586 28.4286 14.3609 27.2045 14.9375 26.1174C15.514 25.0303 16.3456 24.1165 17.3531 23.4629C18.477 25.957 19.4574 28.6518 19.4574 30.4812C19.4516 31.4301 19.3428 32.3753 19.133 33.2983C19.2406 33.3123 19.349 33.3193 19.4574 33.3192V36.7918C19.4577 36.926 19.4264 37.0582 19.3662 37.1766C19.306 37.2949 19.2189 37.3958 19.1126 37.4701C19.0063 37.5444 18.8841 37.5898 18.757 37.6023C18.6299 37.6148 18.5019 37.594 18.3843 37.5418Z" fill="#525252"/>
<path fill-rule="evenodd" clip-rule="evenodd" d="M17.4395 23.1573C17.5232 23.1831 17.5922 23.245 17.6294 23.3273C18.1942 24.5809 18.7257 25.8906 19.1165 27.1211C19.5056 28.3465 19.7626 29.5157 19.7626 30.4812V30.4832H19.7626C19.7575 31.3309 19.6721 32.1757 19.508 33.005C19.5701 33.016 19.6279 33.0468 19.6731 33.0938C19.7304 33.1536 19.7626 33.2347 19.7626 33.3192V36.7914M13.7537 29.6733C13.7537 29.6732 13.7537 29.6732 13.7537 29.6732C13.753 28.3747 14.0684 27.0975 14.67 25.9632C15.2717 24.8287 16.1397 23.8748 17.1916 23.1923C17.2657 23.1442 17.3559 23.1315 17.4395 23.1573" fill="#45413C"/>
<path fill-rule="evenodd" clip-rule="evenodd" d="M16.7561 28.1417C16.9248 28.1417 17.0616 28.2844 17.0616 28.4603V30.4869C17.0615 30.8181 17.1235 31.1461 17.244 31.4519C17.3644 31.7577 17.5409 32.0355 17.7633 32.2693C17.9857 32.5032 18.2496 32.6885 18.5399 32.8149C18.8301 32.9414 19.1411 33.0064 19.4552 33.0064C19.6239 33.0064 19.7606 33.149 19.7606 33.325C19.7606 33.501 19.6239 33.6436 19.4552 33.6436C19.0602 33.6436 18.6692 33.5618 18.3045 33.403C17.9397 33.2441 17.6085 33.0114 17.3296 32.7181C17.0507 32.4249 16.8297 32.0769 16.6789 31.6941C16.5281 31.3113 16.4506 30.9011 16.4507 30.4869C16.4507 30.4869 16.4507 30.487 16.4507 30.4869V28.4603C16.4507 28.2844 16.5874 28.1417 16.7561 28.1417Z" fill="#45413C"/>
<path d="M17.8247 37.2112C17.2294 38.609 16.6374 39.7818 16.3726 40.6217C16.0415 41.6768 14.9751 42.2945 14.0476 42.6443L14.0934 42.2487C14.9353 38.8062 16.7582 37.3765 16.7582 37.3765V35.4131V35.4021C16.8755 36.1283 17.2582 36.7776 17.8247 37.2112Z" fill="#525252"/>
<path fill-rule="evenodd" clip-rule="evenodd" d="M16.7328 35.0846C16.8911 35.0708 17.0331 35.1858 17.0595 35.3492C17.1636 35.9941 17.5034 36.57 18.0055 36.9543L17.8248 37.2112L18.1039 37.3405C17.8901 37.8425 17.6759 38.3175 17.4786 38.7551C17.3999 38.9296 17.3239 39.0982 17.2517 39.2601C16.9958 39.8338 16.7889 40.3212 16.6629 40.721C16.2838 41.9288 15.0885 42.5905 14.1515 42.9439C14.0518 42.9815 13.9405 42.9625 13.8575 42.8936C13.7745 42.8247 13.7317 42.7159 13.7444 42.6061L13.7902 42.2105C13.7918 42.1968 13.7942 42.1833 13.7975 42.1699C14.2292 40.4045 14.9142 39.1492 15.4964 38.3317C15.7873 37.9232 16.0522 37.6244 16.2467 37.4259C16.3292 37.3417 16.399 37.2756 16.4528 37.2267V35.4021C16.4528 35.2364 16.5745 35.0984 16.7328 35.0846ZM16.9422 37.6309L16.9402 37.6325C16.9379 37.6343 16.934 37.6376 16.9284 37.6422C16.9173 37.6515 16.8998 37.6664 16.8765 37.687C16.8301 37.7284 16.7607 37.7928 16.6739 37.8814C16.5002 38.0586 16.2569 38.3324 15.9868 38.7117C15.468 39.4402 14.8496 40.5595 14.4382 42.1346C15.1784 41.781 15.8503 41.2621 16.0823 40.5226L16.0824 40.5222C16.2212 40.0822 16.4427 39.5633 16.6978 38.9913C16.772 38.8248 16.8493 38.6535 16.9287 38.4774C17.0951 38.1083 17.2712 37.7179 17.4495 37.3057C17.3079 37.1772 17.1789 37.0357 17.0637 36.8834V37.3765C17.0637 37.4764 17.0186 37.5707 16.9422 37.6309Z" fill="#45413C"/>
<path d="M26.3986 16.9347C26.3966 16.7037 26.3185 16.4806 26.1777 16.3033C26.0369 16.126 25.842 16.0054 25.6262 15.962V15.7184C25.6262 14.4282 25.1387 13.1908 24.2709 12.2785C23.4031 11.3662 22.2261 10.8537 20.9989 10.8537C19.7717 10.8537 18.5947 11.3662 17.7269 12.2785C16.8591 13.1908 16.3716 14.4282 16.3716 15.7184V15.962C16.1468 16.0063 15.9449 16.1349 15.8034 16.3238C15.6619 16.5128 15.5905 16.7493 15.6023 16.9895C15.6142 17.2296 15.7086 17.4571 15.8679 17.6296C16.0272 17.8022 16.2407 17.9081 16.4687 17.9277C16.686 19.0218 17.2549 20.0039 18.0799 20.7089C18.905 21.4139 19.9357 21.7987 20.9989 21.7987C22.0621 21.7987 23.0928 21.4139 23.9179 20.7089C24.7429 20.0039 25.3119 19.0218 25.5291 17.9277C25.7655 17.9055 25.9856 17.7914 26.1464 17.6078C26.3072 17.4242 26.3971 17.1842 26.3986 16.9347Z" fill="#FFE9BD"/>
<path fill-rule="evenodd" clip-rule="evenodd" d="M17.5101 12.0541C18.435 11.0818 19.6899 10.5351 20.9989 10.5351C22.308 10.5351 23.5629 11.0818 24.4878 12.0541C25.4126 13.0264 25.9317 14.3445 25.9317 15.7184V15.7273C26.1174 15.8087 26.2828 15.9361 26.4129 16.1C26.5987 16.3339 26.7014 16.6278 26.7041 16.9317L26.3987 16.9347L26.7041 16.9367C26.7021 17.2648 26.5839 17.5807 26.372 17.8227C26.2121 18.0053 26.0075 18.136 25.7823 18.2018C25.5228 19.2827 24.9378 20.2493 24.1115 20.9554C23.232 21.7069 22.1329 22.1173 20.9989 22.1173C19.8649 22.1173 18.7658 21.7069 17.8864 20.9554C17.0604 20.2496 16.4756 19.2835 16.2159 18.2031C16.0011 18.1415 15.8046 18.0203 15.6479 17.8507C15.4373 17.6226 15.313 17.3224 15.2973 17.0059C15.2817 16.6894 15.3758 16.3773 15.5627 16.1277C15.6958 15.95 15.8695 15.8124 16.0662 15.7267V15.7184C16.0662 14.3445 16.5853 13.0264 17.5101 12.0541ZM26.0932 16.9351C26.0912 16.778 26.0379 16.6267 25.9425 16.5065C25.8466 16.3858 25.7144 16.3042 25.5684 16.2748C25.4247 16.2459 25.3208 16.1147 25.3208 15.962V15.7184C25.3208 14.5119 24.8649 13.3553 24.0541 12.5029C23.2434 11.6507 22.1444 11.1723 20.9989 11.1723C19.8535 11.1723 18.7545 11.6507 17.9438 12.5029C17.133 13.3553 16.6771 14.5119 16.6771 15.7184V15.962C16.6771 16.1151 16.5726 16.2466 16.4283 16.2751C16.2768 16.3049 16.1402 16.3917 16.0442 16.5199C15.9481 16.6483 15.8993 16.8093 15.9074 16.9731C15.9155 17.1369 15.9799 17.2916 16.0879 17.4086C16.1959 17.5256 16.3402 17.5969 16.4938 17.6101C16.6288 17.6217 16.7404 17.7247 16.7678 17.8631C16.971 18.8861 17.5029 19.8039 18.2735 20.4624C19.0442 21.1209 20.0066 21.4801 20.9989 21.4801C21.9913 21.4801 22.9537 21.1209 23.7243 20.4624C24.495 19.8039 25.0269 18.8861 25.23 17.8631C25.2573 17.7256 25.3677 17.6229 25.5017 17.6103C25.6618 17.5953 25.8113 17.5181 25.9209 17.3929C26.03 17.2684 26.0916 17.1053 26.0932 16.9351Z" fill="#45413C"/>
<path d="M25.5628 14.9081C25.3807 13.7743 24.8226 12.745 23.9873 12.0027C23.1521 11.2604 22.0937 10.8531 21 10.8531C19.9063 10.8531 18.848 11.2604 18.0127 12.0027C17.1775 12.745 16.6193 13.7743 16.4373 14.9081H25.5628Z" fill="#00DBA8"/>
<path fill-rule="evenodd" clip-rule="evenodd" d="M17.8147 11.7602C18.705 10.9689 19.8335 10.5345 21.0001 10.5345C22.1666 10.5345 23.2951 10.9689 24.1855 11.7602C25.0757 12.5513 25.6702 13.648 25.8641 14.8554C25.8789 14.9479 25.854 15.0424 25.796 15.1139C25.7379 15.1854 25.6526 15.2267 25.5628 15.2267H16.4373C16.3475 15.2267 16.2622 15.1854 16.2041 15.1139C16.1461 15.0424 16.1212 14.9479 16.136 14.8554C16.3299 13.648 16.9244 12.5513 17.8147 11.7602ZM21.0001 11.1717C19.9792 11.1717 18.991 11.5519 18.2108 12.2452C17.5228 12.8567 17.0356 13.6771 16.8134 14.5894H25.1867C24.9645 13.6771 24.4774 12.8567 23.7893 12.2452C23.0091 11.5519 22.0209 11.1717 21.0001 11.1717Z" fill="#45413C"/>
<path d="M17.9153 17.5425C17.9153 17.7038 17.9762 17.8584 18.0846 17.9724C18.1931 18.0864 18.3401 18.1504 18.4935 18.1504C18.6468 18.1504 18.7939 18.0864 18.9023 17.9724C19.0108 17.8584 19.0717 17.7038 19.0717 17.5425C19.0717 17.3813 19.0108 17.2267 18.9023 17.1127C18.7939 16.9987 18.6468 16.9347 18.4935 16.9347C18.3401 16.9347 18.1931 16.9987 18.0846 17.1127C17.9762 17.2267 17.9153 17.3813 17.9153 17.5425Z" fill="#FFDA8F"/>
<path d="M22.9282 17.5425C22.9282 17.7038 22.9891 17.8584 23.0976 17.9724C23.206 18.0864 23.3531 18.1504 23.5064 18.1504C23.6598 18.1504 23.8068 18.0864 23.9153 17.9724C24.0237 17.8584 24.0846 17.7038 24.0846 17.5425C24.0846 17.3813 24.0237 17.2267 23.9153 17.1127C23.8068 16.9987 23.6598 16.9347 23.5064 16.9347C23.3531 16.9347 23.206 16.9987 23.0976 17.1127C22.9891 17.2267 22.9282 17.3813 22.9282 17.5425Z" fill="#FFDA8F"/>
<path fill-rule="evenodd" clip-rule="evenodd" d="M19.5878 18.8214C19.6818 18.6753 19.8715 18.6364 20.0116 18.7344C20.3041 18.9392 20.6474 19.0483 20.9983 19.0483C21.3493 19.0483 21.6926 18.9392 21.9851 18.7344C22.1251 18.6364 22.3149 18.6753 22.4089 18.8214C22.5029 18.9675 22.4656 19.1655 22.3255 19.2635C21.9326 19.5386 21.4709 19.6856 20.9983 19.6856C20.5258 19.6856 20.064 19.5386 19.6711 19.2635C19.5311 19.1655 19.4937 18.9675 19.5878 18.8214Z" fill="#45413C"/>
<path fill-rule="evenodd" clip-rule="evenodd" d="M22.0476 12.5811C22.2048 12.5172 22.3819 12.5983 22.4432 12.7623C22.6981 13.4445 22.8359 14.1688 22.8502 14.9016C22.8536 15.0775 22.7196 15.223 22.551 15.2266C22.3823 15.2302 22.2428 15.0905 22.2394 14.9145C22.2266 14.2565 22.1028 13.6062 21.874 12.9937C21.8127 12.8297 21.8905 12.645 22.0476 12.5811Z" fill="#45413C"/>
<path fill-rule="evenodd" clip-rule="evenodd" d="M19.9525 12.5811C20.1097 12.645 20.1874 12.8297 20.1262 12.9937C19.8973 13.6062 19.7736 14.2565 19.7607 14.9145C19.7573 15.0905 19.6178 15.2302 19.4491 15.2266C19.2805 15.223 19.1465 15.0775 19.15 14.9016C19.1642 14.1688 19.302 13.4445 19.557 12.7623C19.6182 12.5983 19.7953 12.5172 19.9525 12.5811Z" fill="#45413C"/>
<path fill-rule="evenodd" clip-rule="evenodd" d="M21.9388 15.8779C22.1191 15.6889 22.3639 15.5824 22.6196 15.5824C22.8753 15.5824 23.1201 15.6889 23.3004 15.8779C23.4194 16.0027 23.4189 16.2044 23.2993 16.3285C23.1797 16.4527 22.9863 16.4521 22.8673 16.3274C22.8012 16.2581 22.7121 16.2196 22.6196 16.2196C22.5271 16.2196 22.4379 16.2581 22.3718 16.3274C22.2529 16.4521 22.0594 16.4527 21.9399 16.3285C21.8203 16.2044 21.8198 16.0027 21.9388 15.8779Z" fill="#45413C"/>
<path fill-rule="evenodd" clip-rule="evenodd" d="M18.6968 15.878C18.877 15.689 19.1218 15.5824 19.3774 15.5824C19.633 15.5824 19.8777 15.689 20.0579 15.878C20.1769 16.0028 20.1764 16.2045 20.0568 16.3286C19.9371 16.4527 19.7437 16.4521 19.6248 16.3274C19.5588 16.2581 19.4698 16.2196 19.3774 16.2196C19.285 16.2196 19.1959 16.2581 19.1299 16.3274C19.011 16.4521 18.8176 16.4527 18.698 16.3286C18.5784 16.2045 18.5778 16.0028 18.6968 15.878Z" fill="#45413C"/>
<path d="M29.2756 18.7635C29.2756 20.7633 30.0313 22.6812 31.3764 24.0953C32.7215 25.5094 34.5458 26.3038 36.4481 26.3038C38.3503 26.3038 40.1746 25.5094 41.5197 24.0953C42.8648 22.6812 43.6205 20.7633 43.6205 18.7635C43.6205 16.7637 42.8648 14.8458 41.5197 13.4317C40.1746 12.0176 38.3503 11.2232 36.4481 11.2232C34.5458 11.2232 32.7215 12.0176 31.3764 13.4317C30.0313 14.8458 29.2756 16.7637 29.2756 18.7635Z" fill="#FFFCE5"/>
<path d="M42.327 14.451C42.7048 16.1569 42.5054 17.9479 41.7632 19.516C41.021 21.0841 39.7823 22.3313 38.2601 23.0433C36.7379 23.7553 35.0273 23.8875 33.4225 23.4172C31.8176 22.947 30.4187 21.9036 29.4663 20.4664C29.7044 21.5492 30.1672 22.5633 30.8218 23.436C31.4763 24.3086 32.3063 25.0183 33.2524 25.5142C34.1984 26.0101 35.2371 26.2799 36.2939 26.3043C37.3508 26.3287 38.3997 26.1071 39.3655 25.6553C40.3313 25.2035 41.1902 24.5328 41.8805 23.6912C42.5709 22.8496 43.0756 21.8579 43.3587 20.7871C43.6417 19.7163 43.696 18.593 43.5176 17.4976C43.3393 16.4022 42.9327 15.3618 42.327 14.451Z" fill="#FFFACF"/>
<path fill-rule="evenodd" clip-rule="evenodd" d="M31.1598 13.2073C32.562 11.7332 34.4643 10.9046 36.4483 10.9046C38.4324 10.9046 40.3346 11.7332 41.7368 13.2073C43.1389 14.6813 43.9262 16.68 43.9262 18.7635C43.9262 20.847 43.1389 22.8457 41.7368 24.3197C40.3346 25.7938 38.4324 26.6224 36.4483 26.6224C34.4643 26.6224 32.562 25.7938 31.1598 24.3197C29.7577 22.8457 28.9705 20.847 28.9705 18.7635C28.9705 16.68 29.7577 14.6813 31.1598 13.2073ZM36.4483 11.5418C34.6279 11.5418 32.8815 12.302 31.5935 13.6561C30.3054 15.0102 29.5814 16.8474 29.5814 18.7635C29.5814 20.6796 30.3054 22.5167 31.5935 23.8709C32.8815 25.225 34.6279 25.9852 36.4483 25.9852C38.2688 25.9852 40.0152 25.225 41.3032 23.8709C42.5912 22.5167 43.3153 20.6796 43.3153 18.7635C43.3153 16.8474 42.5912 15.0102 41.3032 13.6561C40.0152 12.302 38.2688 11.5418 36.4483 11.5418Z" fill="#45413C"/>
<path d="M35.8967 34.521L35.0387 35.1225C34.9632 35.1755 34.9013 35.2473 34.8584 35.3314C34.8156 35.4156 34.7932 35.5096 34.7932 35.6051V38.7743H35.8967V34.521Z" fill="#525252"/>
<path d="M35.8967 34.521L35.0387 35.1225C34.9632 35.1755 34.9013 35.2473 34.8584 35.3314C34.8156 35.4156 34.7932 35.5096 34.7932 35.6051V36.6718C34.7932 36.5763 34.8156 36.4823 34.8584 36.3981C34.9013 36.3139 34.9632 36.2422 35.0387 36.1892L35.8967 35.5906V34.521Z" fill="#656769"/>
<path d="M37.5517 33.5541L36.7241 31.8141L35.8965 33.5541V38.7743H37.5517V33.5541Z" fill="#525252"/>
<path d="M36.7241 31.8141L35.8965 33.5541V34.4242L36.222 33.7403C36.2686 33.6422 36.3402 33.5597 36.4289 33.502C36.5176 33.4444 36.6198 33.4138 36.7241 33.4138C36.8284 33.4138 36.9306 33.4444 37.0193 33.502C37.1079 33.5597 37.1796 33.6422 37.2261 33.7403L37.5517 34.4242V33.5541L36.7241 31.8141Z" fill="#656769"/>
<path fill-rule="evenodd" clip-rule="evenodd" d="M36.7239 31.4954C36.8399 31.4954 36.9459 31.564 36.9975 31.6724L37.8251 33.4125C37.846 33.4565 37.8569 33.505 37.8569 33.5541V38.7743C37.8569 38.9503 37.7202 39.093 37.5515 39.093H35.8963C35.7276 39.093 35.5908 38.9503 35.5908 38.7743V33.5541C35.5908 33.505 35.6017 33.4565 35.6226 33.4125L36.4502 31.6724C36.5018 31.564 36.6078 31.4954 36.7239 31.4954ZM36.2017 33.6288V38.4557H37.246V33.6288L36.7239 32.531L36.2017 33.6288Z" fill="#45413C"/>
<path d="M45.8275 33.5541L45 31.8141L44.1724 33.5541V38.7743H45.8275V33.5541Z" fill="#525252"/>
<path d="M45 31.8141L44.1724 33.5541V34.4242L44.4979 33.7403C44.5444 33.6422 44.6161 33.5597 44.7048 33.502C44.7935 33.4444 44.8957 33.4138 45 33.4138C45.1042 33.4138 45.2064 33.4444 45.2951 33.502C45.3838 33.5597 45.4555 33.6422 45.502 33.7403L45.8275 34.4242V33.5541L45 31.8141Z" fill="#656769"/>
<path fill-rule="evenodd" clip-rule="evenodd" d="M45 31.4954C45.116 31.4954 45.222 31.564 45.2736 31.6724L46.1012 33.4125C46.1221 33.4565 46.133 33.505 46.133 33.5541V38.7743C46.133 38.9503 45.9963 39.093 45.8276 39.093H44.1724C44.0037 39.093 43.8669 38.9503 43.8669 38.7743V33.5541C43.8669 33.505 43.8778 33.4565 43.8988 33.4125L44.7263 31.6724C44.7779 31.564 44.8839 31.4954 45 31.4954ZM44.4779 33.6288V38.4557H45.5221V33.6288L45 32.531L44.4779 33.6288Z" fill="#45413C"/>
<path d="M37.552 33.5541H44.1727V38.7743H37.552V33.5541Z" fill="#525252"/>
<path d="M37.552 33.5541H44.1727V34.4242H37.552V33.5541Z" fill="#656769"/>
<path fill-rule="evenodd" clip-rule="evenodd" d="M37.2463 33.5541C37.2463 33.3782 37.3831 33.2355 37.5518 33.2355H44.1725C44.3412 33.2355 44.4779 33.3782 44.4779 33.5541V38.7743C44.4779 38.9503 44.3412 39.093 44.1725 39.093H37.5518C37.3831 39.093 37.2463 38.9503 37.2463 38.7743V33.5541ZM37.8572 33.8727V38.4557H43.867V33.8727H37.8572Z" fill="#45413C"/>
<path d="M41.6896 30.074L40.862 27.7539L40.0344 30.074V33.5541H41.6896V30.074Z" fill="#525252"/>
<path d="M40.862 27.7539L40.0344 30.074V30.654L40.2628 30.016C40.3086 29.8878 40.3905 29.7773 40.4976 29.6994C40.6046 29.6214 40.7318 29.5796 40.862 29.5796C40.9923 29.5796 41.1194 29.6214 41.2265 29.6994C41.3335 29.7773 41.4154 29.8878 41.4612 30.016L41.6896 30.654V30.074L40.862 27.7539Z" fill="#656769"/>
<path fill-rule="evenodd" clip-rule="evenodd" d="M40.8618 27.4352C40.9894 27.4352 41.1036 27.518 41.1481 27.6428L41.9757 29.9629C41.9883 29.9984 41.9948 30.036 41.9948 30.074V33.5541C41.9948 33.7301 41.8581 33.8727 41.6894 33.8727H40.0342C39.8655 33.8727 39.7288 33.7301 39.7288 33.5541V30.074C39.7288 30.036 39.7353 29.9984 39.7479 29.9629L40.5755 27.6428C40.62 27.518 40.7342 27.4352 40.8618 27.4352ZM40.3397 30.1313V33.2355H41.3839V30.1313L40.8618 28.6676L40.3397 30.1313Z" fill="#45413C"/>
<path d="M41.6896 37.6143C41.6896 37.3836 41.6024 37.1623 41.4472 36.9991C41.292 36.8359 41.0815 36.7443 40.862 36.7443C40.6425 36.7443 40.432 36.8359 40.2768 36.9991C40.1216 37.1623 40.0344 37.3836 40.0344 37.6143V38.7743H41.6896V37.6143Z" fill="#FFE500"/>
<path fill-rule="evenodd" clip-rule="evenodd" d="M40.0598 36.7747C40.2721 36.5515 40.5605 36.4256 40.8618 36.4256C41.1631 36.4256 41.4515 36.5515 41.6638 36.7747C41.876 36.9978 41.9948 37.2998 41.9948 37.6143V38.7743C41.9948 38.9503 41.8581 39.093 41.6894 39.093H40.0342C39.8655 39.093 39.7288 38.9503 39.7288 38.7743V37.6143C39.7288 37.2998 39.8476 36.9978 40.0598 36.7747ZM40.8618 37.0629C40.7241 37.0629 40.5915 37.1204 40.4934 37.2235C40.3953 37.3267 40.3397 37.4672 40.3397 37.6143V38.4557H41.3839V37.6143C41.3839 37.4672 41.3283 37.3267 41.2302 37.2235C41.1321 37.1204 40.9995 37.0629 40.8618 37.0629Z" fill="#45413C"/>
<path fill-rule="evenodd" clip-rule="evenodd" d="M38.6551 34.3956C38.8238 34.3956 38.9605 34.5382 38.9605 34.7142V35.2942C38.9605 35.4702 38.8238 35.6128 38.6551 35.6128C38.4864 35.6128 38.3496 35.4702 38.3496 35.2942V34.7142C38.3496 34.5382 38.4864 34.3956 38.6551 34.3956Z" fill="#45413C"/>
<path fill-rule="evenodd" clip-rule="evenodd" d="M39.7588 34.3956C39.9275 34.3956 40.0643 34.5382 40.0643 34.7142V35.2942C40.0643 35.4702 39.9275 35.6128 39.7588 35.6128C39.5901 35.6128 39.4534 35.4702 39.4534 35.2942V34.7142C39.4534 34.5382 39.5901 34.3956 39.7588 34.3956Z" fill="#45413C"/>
<path fill-rule="evenodd" clip-rule="evenodd" d="M40.8621 34.3956C41.0308 34.3956 41.1676 34.5382 41.1676 34.7142V35.2942C41.1676 35.4702 41.0308 35.6128 40.8621 35.6128C40.6934 35.6128 40.5566 35.4702 40.5566 35.2942V34.7142C40.5566 34.5382 40.6934 34.3956 40.8621 34.3956Z" fill="#45413C"/>
<path fill-rule="evenodd" clip-rule="evenodd" d="M41.9656 34.3956C42.1343 34.3956 42.2711 34.5382 42.2711 34.7142V35.2942C42.2711 35.4702 42.1343 35.6128 41.9656 35.6128C41.7969 35.6128 41.6602 35.4702 41.6602 35.2942V34.7142C41.6602 34.5382 41.7969 34.3956 41.9656 34.3956Z" fill="#45413C"/>
<path fill-rule="evenodd" clip-rule="evenodd" d="M43.0691 34.3956C43.2378 34.3956 43.3746 34.5382 43.3746 34.7142V35.2942C43.3746 35.4702 43.2378 35.6128 43.0691 35.6128C42.9004 35.6128 42.7637 35.4702 42.7637 35.2942V34.7142C42.7637 34.5382 42.9004 34.3956 43.0691 34.3956Z" fill="#45413C"/>
<path d="M40.3102 31.8141L39.4826 30.074L38.655 31.8141V33.5541H40.3102V31.8141Z" fill="#525252"/>
<path d="M39.4826 30.074L38.655 31.8141V32.6841L38.9805 32.0002C39.0271 31.9021 39.0987 31.8196 39.1874 31.762C39.2761 31.7043 39.3783 31.6737 39.4826 31.6737C39.5869 31.6737 39.6891 31.7043 39.7778 31.762C39.8665 31.8196 39.9381 31.9021 39.9847 32.0002L40.3102 32.6841V31.8141L39.4826 30.074Z" fill="#656769"/>
<path fill-rule="evenodd" clip-rule="evenodd" d="M39.4826 29.7554C39.5987 29.7554 39.7047 29.8239 39.7563 29.9324L40.5839 31.6724C40.6048 31.7165 40.6157 31.7649 40.6157 31.814V33.5541C40.6157 33.7301 40.4789 33.8727 40.3102 33.8727H38.6551C38.4864 33.8727 38.3496 33.7301 38.3496 33.5541V31.814C38.3496 31.7649 38.3605 31.7165 38.3814 31.6724L39.209 29.9324C39.2606 29.8239 39.3666 29.7554 39.4826 29.7554ZM38.9605 31.8887V33.2355H40.0048V31.8887L39.4826 30.7909L38.9605 31.8887Z" fill="#45413C"/>
<path d="M43.069 31.8141L42.2414 30.074L41.4138 31.8141V33.5541H43.069V31.8141Z" fill="#525252"/>
<path d="M42.2414 30.074L41.4138 31.8141V32.6841L41.7393 32.0002C41.7859 31.9021 41.8575 31.8196 41.9462 31.762C42.0349 31.7043 42.1371 31.6737 42.2414 31.6737C42.3457 31.6737 42.4479 31.7043 42.5366 31.762C42.6253 31.8196 42.6969 31.9021 42.7435 32.0002L43.069 32.6841V31.8141L42.2414 30.074Z" fill="#656769"/>
<path fill-rule="evenodd" clip-rule="evenodd" d="M42.2414 29.7554C42.3575 29.7554 42.4635 29.8239 42.5151 29.9324L43.3427 31.6724C43.3636 31.7165 43.3745 31.7649 43.3745 31.814V33.5541C43.3745 33.7301 43.2377 33.8727 43.069 33.8727H41.4139C41.2452 33.8727 41.1084 33.7301 41.1084 33.5541V31.814C41.1084 31.7649 41.1193 31.7165 41.1402 31.6724L41.9678 29.9324C42.0194 29.8239 42.1254 29.7554 42.2414 29.7554ZM41.7193 31.8887V33.2355H42.7636V31.8887L42.2414 30.7909L41.7193 31.8887Z" fill="#45413C"/>
<path fill-rule="evenodd" clip-rule="evenodd" d="M36.0401 34.2398C36.1397 34.2952 36.2019 34.4033 36.2019 34.521V38.7744C36.2019 38.9503 36.0651 39.093 35.8965 39.093H34.793C34.6243 39.093 34.4875 38.9503 34.4875 38.7744V35.6051C34.4875 35.6051 34.4875 35.6052 34.4875 35.6051C34.4875 35.4577 34.5221 35.3124 34.5884 35.1821C34.6547 35.0518 34.7507 34.9404 34.8681 34.8581L35.7261 34.2566C35.8197 34.1909 35.9405 34.1845 36.0401 34.2398ZM35.2089 35.387C35.2089 35.387 35.2089 35.3869 35.2089 35.387C35.1752 35.4106 35.1474 35.4428 35.128 35.4808C35.1087 35.5189 35.0985 35.5616 35.0985 35.605V38.4557H35.591V35.1191L35.2089 35.387Z" fill="#45413C"/>
<path d="M45.8276 34.521L46.6856 35.1225C46.7611 35.1755 46.823 35.2473 46.8659 35.3314C46.9087 35.4156 46.9311 35.5096 46.9311 35.6051V38.7743H45.8276V34.521Z" fill="#525252"/>
<path d="M45.8276 34.521L46.6856 35.1225C46.7611 35.1755 46.823 35.2473 46.8659 35.3314C46.9087 35.4156 46.9311 35.5096 46.9311 35.6051V36.6718C46.9311 36.5763 46.9087 36.4823 46.8659 36.3981C46.823 36.3139 46.7611 36.2422 46.6856 36.1892L45.8276 35.5906V34.521Z" fill="#656769"/>
<path fill-rule="evenodd" clip-rule="evenodd" d="M45.6838 34.2398C45.7834 34.1845 45.9042 34.1909 45.9978 34.2566L46.8557 34.8581C46.9731 34.9404 47.0692 35.0518 47.1355 35.1821C47.2017 35.3124 47.2363 35.4576 47.2363 35.6051C47.2363 35.6051 47.2363 35.6051 47.2363 35.6051V38.7744C47.2363 38.9503 47.0996 39.093 46.9309 39.093H45.8274C45.6587 39.093 45.522 38.9503 45.522 38.7744V34.521C45.522 34.4033 45.5842 34.2952 45.6838 34.2398ZM46.1329 35.1191V38.4557H46.6254V35.6051C46.6254 35.5616 46.6152 35.5189 46.5958 35.4808C46.5765 35.4428 46.5486 35.4106 46.515 35.387C46.5149 35.3869 46.515 35.387 46.515 35.387L46.1329 35.1191Z" fill="#45413C"/>
</svg>
