<svg viewBox="0 0 48 48" fill="none" xmlns="http://www.w3.org/2000/svg">
<g clip-path="url(#clip0)">
<path d="M-1.77954 25.3268C-1.77954 32.1639 0.936522 38.7211 5.77115 43.5557C10.6058 48.3904 17.1629 51.1064 24.0001 51.1064C30.8373 51.1064 37.3945 48.3904 42.2291 43.5557C47.0637 38.7211 49.7798 32.1639 49.7798 25.3268C49.7798 18.4896 47.0637 11.9324 42.2291 7.09778C37.3945 2.26315 30.8373 -0.452911 24.0001 -0.452911C17.1629 -0.452911 10.6058 2.26315 5.77115 7.09778C0.936522 11.9324 -1.77954 18.4896 -1.77954 25.3268Z" fill="#C7F0FF" stroke="white" stroke-width="6" stroke-miterlimit="10"/>
<path opacity="0.15" d="M7.84033 36.9458C7.84033 37.2466 8.46733 37.5352 9.58339 37.7479C10.6995 37.9607 12.2132 38.0802 13.7915 38.0802C15.3699 38.0802 16.8836 37.9607 17.9996 37.7479C19.1157 37.5352 19.7427 37.2466 19.7427 36.9458C19.7427 36.6449 19.1157 36.3564 17.9996 36.1436C16.8836 35.9309 15.3699 35.8113 13.7915 35.8113C12.2132 35.8113 10.6995 35.9309 9.58339 36.1436C8.46733 36.3564 7.84033 36.6449 7.84033 36.9458Z" fill="#45413C"/>
<path opacity="0.15" d="M29.3005 36.9458C29.3005 37.2466 29.9275 37.5352 31.0436 37.7479C32.1597 37.9607 33.6734 38.0802 35.2517 38.0802C36.8301 38.0802 38.3438 37.9607 39.4598 37.7479C40.5759 37.5352 41.2029 37.2466 41.2029 36.9458C41.2029 36.6449 40.5759 36.3564 39.4598 36.1436C38.3438 35.9309 36.8301 35.8113 35.2517 35.8113C33.6734 35.8113 32.1597 35.9309 31.0436 36.1436C29.9275 36.3564 29.3005 36.6449 29.3005 36.9458Z" fill="#45413C"/>
<path d="M39.646 34.5642H31.2949C31.0856 34.5643 30.885 34.6475 30.737 34.7955C30.589 34.9435 30.5058 35.1442 30.5056 35.3535V36.7709H40.4353V35.3535C40.4351 35.1442 40.3519 34.9435 40.2039 34.7955C40.0559 34.6475 39.8552 34.5643 39.646 34.5642Z" fill="white" stroke="#45413C" stroke-width="1.4" stroke-linecap="round" stroke-linejoin="round"/>
<path d="M39.3322 34.5642H31.6087L31.3655 34.1991C30.8047 33.3584 30.5054 32.3703 30.5056 31.3596C30.5056 30.5646 30.6908 29.7806 31.0466 29.0697C32.1422 26.8793 32.7127 24.4639 32.713 22.0148V20.7733H38.2291V22.0148C38.229 24.4635 38.7992 26.8785 39.8943 29.0686C40.2496 29.7794 40.4347 30.5632 40.4347 31.3579C40.4347 32.3686 40.1355 33.3566 39.5748 34.1974L39.3322 34.5642Z" fill="white"/>
<path d="M38.2438 22.5433C38.2381 22.3668 38.2284 22.1914 38.2284 22.0148V20.7733H32.7129V22.0148C32.7129 22.1914 32.7032 22.3668 32.6975 22.5433H38.2438Z" fill="#DAEDF7"/>
<path d="M39.3322 34.5642H31.6087L31.3655 34.1991C30.8047 33.3584 30.5054 32.3703 30.5056 31.3596V31.3596C30.5056 30.5646 30.6908 29.7806 31.0466 29.0697C32.1422 26.8793 32.7127 24.4639 32.713 22.0148V20.7733H38.2291V22.0148C38.229 24.4635 38.7992 26.8785 39.8943 29.0686V29.0686C40.2496 29.7794 40.4347 30.5632 40.4347 31.3579V31.3579C40.4347 32.3686 40.1355 33.3566 39.5748 34.1974L39.3322 34.5642Z" stroke="#45413C" stroke-width="1.4" stroke-linecap="round" stroke-linejoin="round"/>
<path d="M31.6089 14.7054C31.6089 13.9416 31.8354 13.195 32.2597 12.56C32.684 11.9249 33.2872 11.4299 33.9928 11.1376C34.6984 10.8454 35.4749 10.7689 36.224 10.9179C36.9731 11.0669 37.6612 11.4347 38.2013 11.9748C38.7413 12.5148 39.1091 13.2029 39.2581 13.952C39.4071 14.7011 39.3307 15.4776 39.0384 16.1832C38.7461 16.8889 38.2511 17.492 37.6161 17.9163C36.981 18.3406 36.2344 18.5671 35.4706 18.5671C34.4464 18.5671 33.4642 18.1603 32.74 17.4361C32.0157 16.7118 31.6089 15.7296 31.6089 14.7054Z" fill="white"/>
<path d="M35.4705 16.9532C34.5869 16.9528 33.73 16.6493 33.0432 16.0934C32.3563 15.5374 31.881 14.7626 31.6965 13.8984C31.5748 14.4617 31.5807 15.0451 31.7138 15.6058C31.8469 16.1666 32.1038 16.6904 32.4657 17.1389C32.8276 17.5873 33.2853 17.9491 33.8053 18.1977C34.3252 18.4462 34.8942 18.5752 35.4705 18.5752C36.0468 18.5752 36.6158 18.4462 37.1358 18.1977C37.6557 17.9491 38.1134 17.5873 38.4753 17.1389C38.8373 16.6904 39.0942 16.1666 39.2273 15.6058C39.3604 15.0451 39.3663 14.4617 39.2445 13.8984C39.0601 14.7626 38.5847 15.5374 37.8979 16.0934C37.211 16.6493 36.3542 16.9528 35.4705 16.9532Z" fill="#E8F4FA"/>
<path d="M31.6089 14.7054C31.6089 13.9416 31.8354 13.195 32.2597 12.56C32.684 11.9249 33.2872 11.4299 33.9928 11.1376C34.6984 10.8454 35.4749 10.7689 36.224 10.9179C36.9731 11.0669 37.6612 11.4347 38.2013 11.9748C38.7413 12.5148 39.1091 13.2029 39.2581 13.952C39.4071 14.7011 39.3307 15.4776 39.0384 16.1832C38.7461 16.8889 38.2511 17.492 37.6161 17.9163C36.981 18.3406 36.2344 18.5671 35.4706 18.5671C34.4464 18.5671 33.4642 18.1603 32.74 17.4361C32.0157 16.7118 31.6089 15.7296 31.6089 14.7054V14.7054Z" stroke="#45413C" stroke-width="1.4" stroke-linecap="round" stroke-linejoin="round"/>
<path d="M38.2287 18.5671H32.7131C32.4207 18.567 32.1402 18.6829 31.9332 18.8894C31.7261 19.0959 31.6095 19.3761 31.6089 19.6685C31.6087 19.8136 31.6372 19.9573 31.6926 20.0914C31.7481 20.2254 31.8294 20.3473 31.9319 20.4499C32.0345 20.5525 32.1563 20.6339 32.2903 20.6894C32.4244 20.7449 32.5681 20.7734 32.7131 20.7733H38.2292C38.3742 20.7733 38.5178 20.7446 38.6517 20.6891C38.7856 20.6335 38.9072 20.5521 39.0097 20.4495C39.1121 20.3469 39.1933 20.2251 39.2487 20.0911C39.3041 19.9571 39.3325 19.8135 39.3323 19.6685C39.3317 19.3762 39.2152 19.0961 39.0083 18.8896C38.8014 18.6831 38.521 18.5671 38.2287 18.5671Z" fill="white" stroke="#45413C" stroke-width="1.4" stroke-linecap="round" stroke-linejoin="round"/>
<path d="M17.3776 34.5642H9.02662C8.81728 34.5642 8.61651 34.6473 8.46849 34.7953C8.32046 34.9434 8.2373 35.1441 8.2373 35.3535V36.7709H18.167V35.3535C18.1668 35.1442 18.0836 34.9435 17.9356 34.7955C17.7876 34.6475 17.5869 34.5643 17.3776 34.5642Z" fill="white" stroke="#45413C" stroke-width="1.4" stroke-linecap="round" stroke-linejoin="round"/>
<path d="M17.0633 34.5642H9.34041L9.09724 34.1991C8.53637 33.3584 8.23714 32.3703 8.2373 31.3596C8.23745 30.5647 8.42247 29.7808 8.77775 29.0697C9.87407 26.8795 10.4452 24.4641 10.4458 22.0148V20.7733H15.9619V22.0148C15.9619 24.4635 16.532 26.8785 17.6271 29.0686C17.9825 29.7794 18.1675 30.5632 18.1675 31.3579C18.1676 32.3686 17.8683 33.3566 17.3076 34.1974L17.0633 34.5642Z" fill="white"/>
<path d="M15.9756 22.5433C15.9699 22.3668 15.9602 22.1914 15.9602 22.0148V20.7733H10.4458V22.0148C10.4458 22.1914 10.4361 22.3668 10.4304 22.5433H15.9756Z" fill="#DAEDF7"/>
<path d="M17.0633 34.5642H9.34041L9.09724 34.1991C8.53637 33.3584 8.23714 32.3703 8.2373 31.3596V31.3596C8.23745 30.5647 8.42247 29.7808 8.77775 29.0697V29.0697C9.87407 26.8795 10.4452 24.4641 10.4458 22.0148V20.7733H15.9619V22.0148C15.9619 24.4635 16.532 26.8785 17.6271 29.0686V29.0686C17.9825 29.7794 18.1675 30.5632 18.1675 31.3579V31.3579C18.1676 32.3686 17.8683 33.3566 17.3076 34.1974L17.0633 34.5642Z" stroke="#45413C" stroke-width="1.4" stroke-linecap="round" stroke-linejoin="round"/>
<path d="M9.34033 14.7054C9.34033 13.9416 9.56682 13.195 9.99115 12.56C10.4155 11.9249 11.0186 11.4299 11.7242 11.1376C12.4299 10.8454 13.2063 10.7689 13.9554 10.9179C14.7045 11.0669 15.3926 11.4347 15.9327 11.9748C16.4728 12.5148 16.8406 13.2029 16.9896 13.952C17.1386 14.7011 17.0621 15.4776 16.7698 16.1832C16.4775 16.8889 15.9826 17.492 15.3475 17.9163C14.7125 18.3406 13.9658 18.5671 13.2021 18.5671C12.1779 18.5671 11.1956 18.1603 10.4714 17.4361C9.74719 16.7118 9.34033 15.7296 9.34033 14.7054Z" fill="white"/>
<path d="M13.2022 16.9532C12.3185 16.9528 11.4617 16.6493 10.7749 16.0934C10.088 15.5374 9.61265 14.7626 9.4282 13.8984C9.30646 14.4617 9.31236 15.0451 9.44546 15.6058C9.57856 16.1666 9.83549 16.6904 10.1974 17.1389C10.5593 17.5873 11.017 17.9491 11.537 18.1977C12.0569 18.4462 12.6259 18.5752 13.2022 18.5752C13.7785 18.5752 14.3475 18.4462 14.8675 18.1977C15.3874 17.9491 15.8451 17.5873 16.207 17.1389C16.5689 16.6904 16.8259 16.1666 16.959 15.6058C17.0921 15.0451 17.098 14.4617 16.9762 13.8984C16.7918 14.7626 16.3164 15.5374 15.6296 16.0934C14.9427 16.6493 14.0859 16.9528 13.2022 16.9532Z" fill="#E8F4FA"/>
<path d="M17.0633 14.7054C17.0634 15.4692 16.837 16.2159 16.4127 16.8511C15.9884 17.4862 15.3853 17.9813 14.6796 18.2736C13.974 18.566 13.1975 18.6425 12.4483 18.4935C11.6992 18.3445 11.011 17.9767 10.4709 17.4366C9.93081 16.8965 9.56301 16.2084 9.41402 15.4592C9.26503 14.7101 9.34156 13.9336 9.63391 13.2279C9.92627 12.5222 10.4213 11.9191 11.0565 11.4948C11.6916 11.0706 12.4383 10.8441 13.2021 10.8443C14.2262 10.8443 15.2083 11.2511 15.9324 11.9752C16.6565 12.6993 17.0633 13.6814 17.0633 14.7054V14.7054Z" stroke="#45413C" stroke-width="1.4" stroke-linecap="round" stroke-linejoin="round"/>
<path d="M15.9601 18.5671H10.4457C10.1531 18.5667 9.87228 18.6824 9.665 18.889C9.45772 19.0955 9.34094 19.3759 9.34033 19.6685C9.34018 19.8137 9.36868 19.9575 9.42418 20.0916C9.47968 20.2258 9.56111 20.3477 9.66379 20.4503C9.76647 20.5529 9.88839 20.6343 10.0226 20.6897C10.1567 20.7451 10.3005 20.7736 10.4457 20.7733H15.9618C16.1067 20.7731 16.2501 20.7444 16.3838 20.6887C16.5176 20.6331 16.6391 20.5516 16.7413 20.449C16.8436 20.3464 16.9247 20.2247 16.9799 20.0908C17.0351 19.9569 17.0634 19.8134 17.0632 19.6685C17.0628 19.3763 16.9463 19.0961 16.7395 18.8896C16.5327 18.6831 16.2524 18.5671 15.9601 18.5671Z" fill="white" stroke="#45413C" stroke-width="1.4" stroke-linecap="round" stroke-linejoin="round"/>
<path opacity="0.15" d="M13.4573 42.0775C13.4573 42.3942 14.5895 42.6979 16.605 42.9219C18.6204 43.1459 21.3539 43.2717 24.2041 43.2717C27.0544 43.2717 29.7879 43.1459 31.8033 42.9219C33.8188 42.6979 34.951 42.3942 34.951 42.0775C34.951 41.7607 33.8188 41.457 31.8033 41.233C29.7879 41.0091 27.0544 40.8832 24.2041 40.8832C21.3539 40.8832 18.6204 41.0091 16.605 41.233C14.5895 41.457 13.4573 41.7607 13.4573 42.0775Z" fill="#45413C"/>
<path d="M31.321 39.5711H17.4083C17.2491 39.571 17.0964 39.634 16.9835 39.7463C16.8707 39.8586 16.807 40.011 16.8064 40.1702V41.2221C16.8064 41.3731 16.8664 41.518 16.9732 41.6248C17.08 41.7316 17.2248 41.7916 17.3759 41.7916H31.3535C31.5045 41.7916 31.6494 41.7316 31.7562 41.6248C31.863 41.518 31.923 41.3731 31.923 41.2221V40.1702C31.9224 40.011 31.8587 39.8586 31.7458 39.7463C31.633 39.634 31.4802 39.571 31.321 39.5711Z" fill="#F0F0F0" stroke="#45413C" stroke-width="1.4" stroke-linecap="round" stroke-linejoin="round"/>
<path d="M19.0298 19.119H29.7003V20.8975H19.0298V19.119Z" fill="white" stroke="#45413C" stroke-width="1.4" stroke-linecap="round" stroke-linejoin="round"/>
<path d="M19.4739 15.5625H29.2549V17.341H19.4739V15.5625Z" fill="white" stroke="#45413C" stroke-width="1.4" stroke-linecap="round" stroke-linejoin="round"/>
<path d="M20.3636 15.5625C20.3636 13.5037 20.0036 11.4607 19.2998 9.52588L19.019 8.75308C18.9697 8.61862 18.9536 8.47424 18.972 8.3322C18.9904 8.19017 19.0429 8.05469 19.1249 7.93728C19.2069 7.81986 19.3161 7.72399 19.4431 7.65781C19.5701 7.59163 19.7112 7.5571 19.8545 7.55715H28.8752C29.0185 7.55701 29.1597 7.59147 29.2868 7.65761C29.4139 7.72375 29.5231 7.81962 29.6052 7.93704C29.6873 8.05447 29.7398 8.18998 29.7582 8.33206C29.7767 8.47414 29.7606 8.61858 29.7112 8.75308L29.4299 9.52588C28.7264 11.4608 28.3664 13.5037 28.3661 15.5625H20.3636Z" fill="white"/>
<path d="M20.3636 15.5625C20.3636 13.5037 20.0036 11.4607 19.2998 9.52588L19.019 8.75308C18.9697 8.61862 18.9536 8.47424 18.972 8.3322C18.9904 8.19017 19.0429 8.05469 19.1249 7.93728C19.2069 7.81986 19.3161 7.72399 19.4431 7.65781C19.5701 7.59163 19.7112 7.5571 19.8545 7.55715H28.8752C29.0185 7.55701 29.1597 7.59147 29.2868 7.65761C29.4139 7.72375 29.5231 7.81962 29.6052 7.93704C29.6873 8.05447 29.7398 8.18998 29.7582 8.33206C29.7767 8.47414 29.7606 8.61858 29.7112 8.75308L29.4299 9.52588C28.7264 11.4608 28.3664 13.5037 28.3661 15.5625H20.3636Z" stroke="#45413C" stroke-width="1.4" stroke-linecap="round" stroke-linejoin="round"/>
<path d="M26.9727 1.92374C26.505 2.0555 26.0279 2.1507 25.5455 2.20849C25.5791 2.03764 25.6116 1.86679 25.6594 1.69595L25.9817 0.569492C26.0011 0.503136 26.0048 0.433176 25.9924 0.365163C25.98 0.297151 25.952 0.232958 25.9105 0.177681C25.869 0.122405 25.8151 0.0775656 25.7533 0.0467227C25.6914 0.0158799 25.6232 -0.000117405 25.5541 6.48673e-07H23.1759C23.1068 -2.88437e-05 23.0386 0.0160335 22.9768 0.0469142C22.9151 0.0777949 22.8613 0.122645 22.8199 0.17791C22.7784 0.233175 22.7504 0.297334 22.7381 0.365303C22.7257 0.433273 22.7294 0.503183 22.7487 0.569492L23.0705 1.69595C23.1189 1.86679 23.1508 2.03764 23.1844 2.20849C22.702 2.15065 22.2249 2.05545 21.7573 1.92374C21.6983 1.9075 21.6365 1.90502 21.5765 1.9165C21.5164 1.92797 21.4599 1.95309 21.4111 1.98992C21.3623 2.02674 21.3227 2.07428 21.2952 2.12887C21.2677 2.18346 21.2532 2.24363 21.2527 2.30473V4.36686C21.2532 4.42797 21.2677 4.48814 21.2952 4.54273C21.3227 4.59731 21.3623 4.64486 21.4111 4.68168C21.4599 4.7185 21.5164 4.74362 21.5765 4.7551C21.6365 4.76657 21.6983 4.76409 21.7573 4.74785C22.23 4.61582 22.7123 4.52062 23.1998 4.46311C23.1941 4.49557 23.1929 4.5286 23.1867 4.56049L22.5864 7.55943H26.1435L25.5438 4.56049C25.5375 4.5286 25.5364 4.49557 25.5301 4.46311C26.0176 4.52062 26.4999 4.61582 26.9727 4.74785C27.0316 4.76409 27.0934 4.76657 27.1534 4.7551C27.2135 4.74362 27.2701 4.7185 27.3188 4.68168C27.3676 4.64486 27.4072 4.59731 27.4347 4.54273C27.4622 4.48814 27.4767 4.42797 27.4772 4.36686V2.30473C27.4767 2.24363 27.4622 2.18346 27.4347 2.12887C27.4072 2.07428 27.3676 2.02674 27.3188 1.98992C27.2701 1.95309 27.2135 1.92797 27.1534 1.9165C27.0934 1.90502 27.0316 1.9075 26.9727 1.92374Z" fill="white"/>
<path d="M26.9727 1.92374C26.505 2.0555 26.0279 2.1507 25.5455 2.20849C25.5791 2.03764 25.611 1.86679 25.6594 1.69595L25.9812 0.569492C26.0005 0.503183 26.0042 0.433273 25.9919 0.365304C25.9795 0.297335 25.9515 0.233175 25.9101 0.17791C25.8686 0.122646 25.8149 0.0777953 25.7531 0.0469145C25.6913 0.0160338 25.6231 -2.84752e-05 25.5541 1.01713e-06H23.1759C23.1067 -0.000146888 23.0385 0.0158378 22.9767 0.0466835C22.9148 0.0775291 22.861 0.122384 22.8195 0.177681C22.7781 0.232978 22.7501 0.29719 22.7378 0.365209C22.7255 0.433229 22.7292 0.503178 22.7487 0.569492L23.0705 1.69595C23.1183 1.86679 23.1508 2.03764 23.1844 2.20849C22.702 2.1507 22.2249 2.0555 21.7573 1.92374C21.6983 1.9075 21.6365 1.90503 21.5765 1.9165C21.5164 1.92797 21.4599 1.95309 21.4111 1.98992C21.3623 2.02674 21.3227 2.07428 21.2952 2.12887C21.2677 2.18346 21.2532 2.24363 21.2527 2.30473V4.36686C21.2532 4.42797 21.2677 4.48814 21.2952 4.54273C21.3227 4.59732 21.3623 4.64486 21.4111 4.68168C21.4599 4.7185 21.5164 4.74362 21.5765 4.7551C21.6365 4.76657 21.6983 4.76409 21.7573 4.74785C22.23 4.61582 22.7123 4.52062 23.1998 4.46311C23.1941 4.49557 23.1929 4.5286 23.1861 4.56049L22.5864 7.55943H26.1435L25.5432 4.56049C25.537 4.5286 25.5358 4.49557 25.5301 4.46311C26.0176 4.52062 26.4999 4.61582 26.9727 4.74785C27.0316 4.76409 27.0934 4.76657 27.1534 4.7551C27.2135 4.74362 27.2701 4.7185 27.3188 4.68168C27.3676 4.64486 27.4072 4.59732 27.4347 4.54273C27.4622 4.48814 27.4767 4.42797 27.4772 4.36686V2.30473C27.4767 2.24363 27.4622 2.18346 27.4347 2.12887C27.4072 2.07428 27.3676 2.02674 27.3188 1.98992C27.2701 1.95309 27.2135 1.92797 27.1534 1.9165C27.0934 1.90503 27.0316 1.9075 26.9727 1.92374V1.92374Z" stroke="#45413C" stroke-width="1.4" stroke-linecap="round" stroke-linejoin="round"/>
<path d="M30.411 39.5711L30.6149 39.3314C31.4505 38.3704 31.9151 37.1423 31.9247 35.8689C31.9202 34.7854 31.5822 33.7295 30.9566 32.8449C28.9803 30.0542 27.9115 26.7226 27.8955 23.303V20.8975H20.8373V23.3025C20.8215 26.7222 19.7527 30.0541 17.7762 32.8449C17.1508 33.7296 16.8128 34.7854 16.8081 35.8689C16.8177 37.1423 17.2823 38.3704 18.1179 39.3314L18.3212 39.5711H30.411Z" fill="white"/>
<path d="M20.8372 20.8975H27.8915V22.9722H20.8372V20.8975Z" fill="#DAEDF7"/>
<path d="M30.411 39.5711L30.6149 39.3314C31.4505 38.3704 31.9151 37.1423 31.9247 35.8689C31.9202 34.7854 31.5822 33.7295 30.9566 32.8449C28.9803 30.0542 27.9115 26.7226 27.8955 23.303V20.8975H20.8373V23.3025C20.8215 26.7222 19.7527 30.0541 17.7762 32.8449V32.8449C17.1508 33.7296 16.8128 34.7854 16.8081 35.8689C16.8177 37.1423 17.2823 38.3704 18.1179 39.3314L18.3212 39.5711H30.411Z" stroke="#45413C" stroke-width="1.4" stroke-linecap="round" stroke-linejoin="round"/>
<path d="M20.8076 17.341H27.9211V19.1195H20.8076V17.341Z" fill="#E8F4FA" stroke="#45413C" stroke-width="1.4" stroke-linecap="round" stroke-linejoin="round"/>
</g>
<defs>
<clipPath id="clip0">
<rect width="48" height="48" fill="white"/>
</clipPath>
</defs>
</svg>
