<svg xmlns="http://www.w3.org/2000/svg" fill="none" viewBox="0 0 112 112">
  <defs/>
  <path fill="#C7F0FF" d="M0 56c0 14.8521 5.89998 29.0959 16.402 39.598C26.9041 106.1 41.1479 112 56 112s29.0959-5.9 39.598-16.402C106.1 85.0959 112 70.8521 112 56s-5.9-29.0959-16.402-39.598C85.0959 5.89998 70.8521 0 56 0S26.9041 5.89998 16.402 16.402C5.89998 26.9041 0 41.1479 0 56z"/>
  <path fill="#45413C" d="M20.6626 93.3744c0 .6405 3.8611 1.2548 10.7339 1.7077 6.8728.4529 16.1943.7073 25.9139.7073 9.7196 0 19.0411-.2544 25.9139-.7073 6.8728-.4529 10.7339-1.0672 10.7339-1.7077 0-.6405-3.8611-1.2548-10.7339-1.7077-6.8728-.4529-16.1943-.7073-25.9139-.7073-9.7196 0-19.0411.2544-25.9139.7073-6.8728.4529-10.7339 1.0672-10.7339 1.7077z" opacity=".15"/>
  <path fill="#656769" d="M21.9014 37.3226H92.691v38.4286H21.9014V37.3226z"/>
  <path fill="#525252" d="M21.9014 37.3226H92.691v7.4158H21.9014v-7.4158z"/>
  <path fill="#E8F4FA" d="M91.2924 91.9324h-67.991c-.3713 0-.7274-.1475-.99-.41-.2625-.2626-.41-.6187-.41-.99V75.7512h70.791v14.7812c0 .3713-.1475.7274-.4101.99-.2625.2625-.6186.41-.9899.41z"/>
  <path fill="#DAEDF7" d="M21.9014 75.7512H92.691v11.1244H21.9014V75.7512z"/>
  <path fill="#C0DCEB" d="M27.9692 79.8c.0004 1.0728.4268 2.1016 1.1856 2.8601.7587.7584 1.7876 1.1845 2.8604 1.1845H82.579c1.0729 0 2.1018-.4261 2.8605-1.1845.7587-.7585 1.1852-1.7873 1.1855-2.8601H27.9692z"/>
  <path fill="#FFAA54" d="M25.9478 41.3672h62.7004v30.338H25.9478v-30.338z"/>
  <path fill="#FF8A14" d="M85.8468 41.3672h-57.099c-.7427 0-1.4548.295-1.9799.8201-.5251.5251-.8201 1.2373-.8201 1.9799v3.3712c0-.7426.295-1.4548.8201-1.9799.5251-.5251 1.2372-.8201 1.9799-.8201h57.099c.7426 0 1.4548.295 1.9799.8201.5251.5251.8201 1.2373.8201 1.9799v-3.3712c0-.7426-.295-1.4548-.8201-1.9799-.5251-.5251-1.2373-.8201-1.9799-.8201z"/>
  <path fill="#E8F4FA" d="M92.6924 37.3226h-70.791V23.94c0-.7426.295-1.4548.8201-1.9799.5251-.5251 1.2373-.8201 1.9799-.8201h65.191c.7426 0 1.4548.295 1.9799.8201.5251.5251.8201 1.2373.8201 1.9799v13.3826z"/>
  <path fill="#fff" d="M89.8924 21.14h-65.191c-.7426 0-1.4548.295-1.9799.8201-.5251.5251-.8201 1.2373-.8201 1.9799v3.3712c0-.7426.295-1.4548.8201-1.9799.5251-.5251 1.2373-.8201 1.9799-.8201h65.191c.7426 0 1.4548.295 1.9799.8201.5251.5251.8201 1.2373.8201 1.9799V23.94c0-.7426-.295-1.4548-.8201-1.9799-.5251-.5251-1.2373-.8201-1.9799-.8201z"/>
  <path fill="#00B8F0" d="M42.1274 25.1874h16.1812v8.0906H42.1274v-8.0906z"/>
  <path fill="#4ACFFF" d="M45.1614 33.278h-2.191c-.1103 0-.2196-.0217-.3215-.0639-.1019-.0423-.1945-.1041-.2725-.1821-.078-.078-.1399-.1706-.1821-.2725-.0422-.102-.0639-.2112-.0639-.3215v-6.4078c0-.1103.0217-.2195.0639-.3215.0422-.1019.1041-.1945.1821-.2725.078-.078.1706-.1398.2725-.1821.1019-.0422.2112-.0639.3215-.0639H53.252l-8.0906 8.0878z"/>
  <path fill="#E8F4FA" d="M27.9707 29.232c0 1.0727.4261 2.1015 1.1846 2.86.7585.7585 1.7873 1.1846 2.86 1.1846 1.0727 0 2.1015-.4261 2.86-1.1846.7585-.7585 1.1846-1.7873 1.1846-2.86 0-1.0727-.4261-2.1015-1.1846-2.86-.7585-.7585-1.7873-1.1846-2.86-1.1846-1.0727 0-2.1015.4261-2.86 1.1846-.7585.7585-1.1846 1.7873-1.1846 2.86z"/>
  <path fill="#fff" d="M32.0154 27.9524c.8267.0025 1.6327.2591 2.3088.7348.6761.4758 1.1897 1.1479 1.4712 1.9252.2303-.6122.3087-1.2711.2285-1.9203-.0802-.6492-.3166-1.2692-.6889-1.807-.3723-.5378-.8694-.9773-1.4488-1.2809-.5794-.3036-1.2237-.4621-1.8778-.4621-.6541 0-1.2984.1585-1.8778.4621-.5794.3036-1.0765.7431-1.4488 1.2809-.3723.5378-.6087 1.1578-.6889 1.807-.0802.6492-.0018 1.3081.2285 1.9203.2822-.7797.7978-1.4534 1.4767-1.9294.679-.476 1.4881-.7311 2.3173-.7306z"/>
  <path fill="#45413C" fill-rule="evenodd" d="M21.2017 75.7512c0-.3866.3134-.7.7-.7h70.791c.3866 0 .7.3134.7.7v14.7812c0 .557-.2213 1.0911-.6151 1.4849-.3938.3939-.928.6151-1.4849.6151h-67.991c-.557 0-1.0911-.2212-1.485-.6151-.3938-.3938-.615-.9279-.615-1.4849V75.7512zm1.4.7v14.0812c0 .1857.0737.3637.205.495.1313.1313.3093.205.495.205h67.991c.1856 0 .3637-.0737.4949-.205.1313-.1313.2051-.3093.2051-.495V76.4512h-69.391z" clip-rule="evenodd"/>
  <path fill="#45413C" fill-rule="evenodd" d="M27.474 79.3051c.1313-.1313.3093-.2051.495-.2051h58.6558c.1857 0 .3638.0738.4951.2051.1313.1313.205.3095.2049.4951-.0004 1.2585-.5006 2.4652-1.3906 3.3549-.89.8897-2.0969 1.3895-3.3554 1.3895H32.015c-1.2584 0-2.4653-.4998-3.3553-1.3895-.89-.8897-1.3902-2.0964-1.3907-3.3549 0-.1856.0737-.3638.205-.4951zM28.7434 80.5c.1342.6259.4464 1.2055.9061 1.665.6274.6272 1.4783.9796 2.3655.9796h50.5638c.8873 0 1.7381-.3524 2.3656-.9796.4597-.4595.7719-1.0391.9061-1.665H28.7434zM24.7017 21.84c-.557 0-1.0911.2213-1.485.6151-.3938.3938-.615.9279-.615 1.4849v12.6826h69.391V23.94c0-.557-.2213-1.0911-.6151-1.4849-.3938-.3938-.928-.6151-1.4849-.6151h-65.191zm-2.4749-.3749c.6564-.6563 1.5466-1.0251 2.4749-1.0251h65.191c.9282 0 1.8185.3688 2.4748 1.0251.6564.6564 1.0252 1.5466 1.0252 2.4749v13.3826c0 .3866-.3134.7-.7.7h-70.791c-.3866 0-.7-.3134-.7-.7V23.94c0-.9283.3687-1.8185 1.0251-2.4749z" clip-rule="evenodd"/>
  <path fill="#45413C" fill-rule="evenodd" d="M41.4272 25.1874c0-.3866.3134-.7.7-.7h16.1812c.3866 0 .7.3134.7.7v8.0906c0 .3866-.3134.7-.7.7H42.1272c-.3866 0-.7-.3134-.7-.7v-8.0906zm1.4.7v6.6906h14.7812v-6.6906H42.8272zM28.6602 25.8771c.8898-.8898 2.0966-1.3897 3.3549-1.3897 1.2584 0 2.4652.4999 3.3549 1.3897.8898.8897 1.3897 2.0965 1.3897 3.3549 0 1.2583-.4999 2.4652-1.3897 3.3549-.8897.8898-2.0965 1.3897-3.3549 1.3897-1.2583 0-2.4651-.4999-3.3549-1.3897-.8898-.8897-1.3897-2.0966-1.3897-3.3549 0-1.2584.4999-2.4652 1.3897-3.3549zm3.3549.0103c-.887 0-1.7377.3524-2.365.9796-.6272.6272-.9796 1.478-.9796 2.365 0 .887.3524 1.7378.9796 2.365.6273.6272 1.478.9796 2.365.9796.8871 0 1.7378-.3524 2.365-.9796.6272-.6272.9796-1.478.9796-2.365 0-.887-.3524-1.7378-.9796-2.365-.6272-.6272-1.4779-.9796-2.365-.9796z" clip-rule="evenodd"/>
  <path fill="#E8F4FA" d="M64.376 29.232c0 1.0727.4261 2.1015 1.1846 2.86.7585.7585 1.7873 1.1846 2.86 1.1846 1.0727 0 2.1014-.4261 2.8599-1.1846.7586-.7585 1.1847-1.7873 1.1847-2.86 0-1.0727-.4261-2.1015-1.1847-2.86-.7585-.7585-1.7872-1.1846-2.8599-1.1846-1.0727 0-2.1015.4261-2.86 1.1846-.7585.7585-1.1846 1.7873-1.1846 2.86z"/>
  <path fill="#fff" d="M68.4207 27.9524c.8268.0023 1.6329.2588 2.309.7346.6762.4758 1.1897 1.148 1.471 1.9254.2295-.6119.3074-1.2703.2268-1.9189-.0806-.6486-.3171-1.268-.6893-1.8051-.3723-.5372-.8692-.9762-1.4481-1.2794-.579-.3032-1.2228-.4616-1.8764-.4616-.6535 0-1.2973.1584-1.8763.4616-.579.3032-1.0758.7422-1.4481 1.2794-.3722.5371-.6088 1.1565-.6893 1.8051-.0806.6486-.0028 1.307.2267 1.9189.2824-.7796.7981-1.4532 1.477-1.9292.6788-.4759 1.4879-.7311 2.317-.7308z"/>
  <path fill="#45413C" fill-rule="evenodd" d="M65.0659 25.8771c.8898-.8898 2.0966-1.3897 3.355-1.3897 1.2583 0 2.4651.4999 3.3549 1.3897.8898.8897 1.3897 2.0965 1.3897 3.3549 0 1.2583-.4999 2.4652-1.3897 3.3549-.8898.8898-2.0966 1.3897-3.3549 1.3897-1.2584 0-2.4652-.4999-3.355-1.3897-.8898-.8897-1.3896-2.0966-1.3896-3.3549 0-1.2584.4998-2.4652 1.3896-3.3549zm3.355.0103c-.8871 0-1.7378.3524-2.365.9796-.6273.6272-.9796 1.478-.9796 2.365 0 .887.3523 1.7378.9796 2.365.6272.6272 1.4779.9796 2.365.9796.887 0 1.7377-.3524 2.365-.9796.6272-.6272.9796-1.478.9796-2.365 0-.887-.3524-1.7378-.9796-2.365-.6273-.6272-1.478-.9796-2.365-.9796z" clip-rule="evenodd"/>
  <path fill="#E8F4FA" d="M78.5342 29.232c0 .5311.1046 1.0571.3079 1.5478.2032.4907.5011.9366.8767 1.3122.3756.3755.8215.6735 1.3122.8767.4907.2033 1.0166.3079 1.5478.3079.5311 0 1.0571-.1046 1.5478-.3079.4907-.2032.9366-.5012 1.3121-.8767.3756-.3756.6735-.8215.8768-1.3122.2033-.4907.3079-1.0167.3079-1.5478 0-.5311-.1046-1.0571-.3079-1.5478-.2033-.4907-.5012-.9366-.8768-1.3122-.3755-.3755-.8214-.6735-1.3121-.8767-.4907-.2033-1.0167-.3079-1.5478-.3079-.5312 0-1.0571.1046-1.5478.3079-.4907.2032-.9366.5012-1.3122.8767-.3756.3756-.6735.8215-.8767 1.3122-.2033.4907-.3079 1.0167-.3079 1.5478z"/>
  <path fill="#fff" d="M82.5789 27.9524c.8268.0025 1.6328.2591 2.3089.7348.6761.4758 1.1896 1.1479 1.4711 1.9252.2296-.6119.3074-1.2703.2268-1.9189-.0806-.6486-.3171-1.268-.6893-1.8051-.3723-.5372-.8692-.9762-1.4481-1.2794-.579-.3032-1.2228-.4616-1.8763-.4616-.6536 0-1.2974.1584-1.8764.4616s-1.0758.7422-1.4481 1.2794c-.3722.5371-.6088 1.1565-.6893 1.8051-.0806.6486-.0028 1.307.2267 1.9189.2824-.7796.7981-1.4532 1.477-1.9292.6789-.4759 1.4879-.7311 2.317-.7308z"/>
  <path fill="#45413C" fill-rule="evenodd" d="M80.7634 24.8486c.5756-.2385 1.1926-.3612 1.8157-.3612.623 0 1.24.1227 1.8157.3612.5756.2384 1.0986.5879 1.5392 1.0285.4406.4405.7901.9636 1.0285 1.5392.2385.5757.3612 1.1926.3612 1.8157s-.1227 1.24-.3612 1.8157c-.2384.5756-.5879 1.0987-1.0285 1.5392-.4406.4406-.9636.7901-1.5392 1.0285-.5757.2385-1.1927.3612-1.8157.3612-.6231 0-1.2401-.1227-1.8157-.3612-.5757-.2384-1.0987-.5879-1.5393-1.0285-.4405-.4405-.79-.9636-1.0285-1.5392-.2384-.5757-.3611-1.1926-.3611-1.8157s.1227-1.24.3611-1.8157c.2385-.5756.588-1.0987 1.0285-1.5392.4406-.4406.9636-.7901 1.5393-1.0285zm1.8157 1.0388c-.4392 0-.8742.0865-1.28.2546-.4057.1681-.7744.4144-1.085.725s-.557.6793-.725 1.0851c-.1681.4058-.2546.8407-.2546 1.2799 0 .4392.0865.8741.2546 1.2799.168.4058.4144.7745.725 1.0851s.6793.5569 1.085.725c.4058.1681.8408.2546 1.28.2546.4392 0 .8741-.0865 1.2799-.2546.4058-.1681.7745-.4144 1.0851-.725.3105-.3106.5569-.6793.725-1.0851.1681-.4058.2546-.8407.2546-1.2799 0-.4392-.0865-.8741-.2546-1.2799-.1681-.4058-.4145-.7745-.725-1.0851-.3106-.3106-.6793-.5569-1.0851-.725-.4058-.1681-.8407-.2546-1.2799-.2546z" clip-rule="evenodd"/>
  <path fill="#E8F4FA" d="M21.9141 75.7512h70.7896v4.0446H21.9141v-4.0446z"/>
  <path fill="#45413C" fill-rule="evenodd" d="M21.2144 75.7512c0-.3866.3134-.7.7-.7H92.704c.3866 0 .7.3134.7.7v4.0446c0 .3866-.3134.7-.7.7H21.9144c-.3866 0-.7-.3134-.7-.7v-4.0446zm1.4.7v2.6446H92.004v-2.6446H22.6144zM25.2603 67.6606c0-.3866.3134-.7.7-.7h62.699c.3866 0 .7.3134.7.7 0 .3866-.3134.7-.7.7h-62.699c-.3866 0-.7-.3134-.7-.7z" clip-rule="evenodd"/>
  <path fill="#45413C" fill-rule="evenodd" d="M21.2017 37.3226c0-.3866.3134-.7.7-.7h70.7896c.3866 0 .7.3134.7.7v38.4286c0 .3866-.3134.7-.7.7H21.9017c-.3866 0-.7-.3134-.7-.7V37.3226zm1.4.7v37.0286h69.3896V38.0226H22.6017z" clip-rule="evenodd"/>
  <path fill="#45413C" fill-rule="evenodd" d="M25.2476 41.3672c0-.3866.3134-.7.7-.7H88.648c.3866 0 .7.3134.7.7v30.338c0 .3866-.3134.7-.7.7H25.9476c-.3866 0-.7-.3134-.7-.7v-30.338zm1.4.7v28.938H87.948v-28.938H26.6476z" clip-rule="evenodd"/>
</svg>
