<svg xmlns="http://www.w3.org/2000/svg" fill="none" viewBox="-0.5 -0.5 100 100" height="100" width="100"><path fill="#daedf7" stroke="#daedf7" stroke-miterlimit="10" d="M48.842639999999996 96.28146000000001c21.87009 0 39.6 -17.72991 39.6 -39.6s-17.72991 -39.6 -39.6 -39.6 -39.6 17.72991 -39.6 39.6 17.72991 39.6 39.6 39.6Z" stroke-width="1"></path><path stroke="#45413c" stroke-linecap="round" stroke-linejoin="round" d="M15.21729 68.81985a11.76714 11.76714 0 0 0 2.84625 7.387379999999999" stroke-width="1"></path><path stroke="#45413c" stroke-linecap="round" stroke-linejoin="round" d="M12.98484 72.89865a12.233429999999998 12.233429999999998 0 0 0 4.96287 6.4251000000000005" stroke-width="1"></path><path stroke="#45413c" stroke-linecap="round" stroke-linejoin="round" d="M67.32 55.143c1.5453899999999998 1.683 2.06217 4.02534 0.72171 7.5339" stroke-width="1"></path><path stroke="#45413c" stroke-linecap="round" stroke-linejoin="round" d="M68.8446 52.58385c1.94832 1.20087 3.0848400000000002 3.3066 2.7551699999999997 7.0488" stroke-width="1"></path><path fill="#45413c" d="M44.3619 92.73429c7.25076 0 13.12839 -0.69795 13.12839 -1.55925s-5.87763 -1.55925 -13.12839 -1.55925c-7.25076 0 -13.12839 0.69894 -13.12839 1.56024 0 0.8613 5.87763 1.55925 13.12839 1.55925Z" opacity=".15" stroke-width="1"></path><path fill="#adc4d9" stroke="#45413c" stroke-linecap="round" stroke-linejoin="round" d="M29.997 87.95655a1.53252 1.53252 0 0 1 -1.9978199999999997 -2.00673l2.0364299999999997 -4.88466a1.53252 1.53252 0 0 1 2.50272 -0.49401 1.5345 1.5345 0 0 1 0.32967 1.6731l-2.0394 4.88466a1.5275699999999999 1.5275699999999999 0 0 1 -0.8316 0.8276399999999999v0Z" stroke-width="1"></path><path fill="#adc4d9" stroke="#45413c" stroke-linecap="round" stroke-linejoin="round" d="M56.57058 85.15485a1.53252 1.53252 0 0 0 1.53549 -2.376l-3.0096 -4.356a1.5345 1.5345 0 0 0 -2.13246 -0.38907 1.5345 1.5345 0 0 0 -0.38907 2.13246l3.01059 4.356a1.5275699999999999 1.5275699999999999 0 0 0 0.98505 0.63261v0Z" stroke-width="1"></path><path fill="#ff6242" stroke="#45413c" stroke-linecap="round" stroke-linejoin="round" d="M49.87224 82.06902c9.83268 -4.93713 13.801590000000001 -16.9092 8.86545 -26.74287 -4.93713 -9.83268 -16.9092 -13.801590000000001 -26.74287 -8.86545 -9.83268 4.93713 -13.801590000000001 16.9092 -8.86545 26.74287 4.93713 9.83268 16.9092 13.801590000000001 26.74287 8.86545Z" stroke-width="1"></path><path fill="#ff6242" d="M60.8553 64.02429000000001a19.91088 19.91088 0 0 0 -39.45546 4.158 19.921770000000002 19.921770000000002 0 1 1 39.45546 -4.158Z" stroke-width="1"></path><path stroke="#45413c" stroke-linecap="round" stroke-linejoin="round" d="M49.87224 82.06902c9.83268 -4.93713 13.801590000000001 -16.9092 8.86545 -26.74287 -4.93713 -9.83268 -16.9092 -13.801590000000001 -26.74287 -8.86545 -9.83268 4.93713 -13.801590000000001 16.9092 -8.86545 26.74287 4.93713 9.83268 16.9092 13.801590000000001 26.74287 8.86545Z" stroke-width="1"></path><path fill="#ffffff" stroke="#45413c" stroke-linecap="round" stroke-linejoin="round" d="M45.11727 78.52284c7.87446 -2.31066 12.3849 -10.56726 10.07424 -18.44172 -2.31066 -7.87446 -10.56726 -12.3849 -18.44172 -10.07424 -7.87446 2.31066 -12.3849 10.56726 -10.07424 18.44172 2.31066 7.87446 10.56726 12.3849 18.44172 10.07424Z" stroke-width="1"></path><path fill="#87898c" stroke="#45413c" stroke-linecap="round" stroke-linejoin="round" d="M42.40764 64.67076c0.052469999999999996 -0.18414 0.0693 -0.3762 0.0495 -0.5672699999999999l-0.96426 -9.143640000000001a1.5315299999999998 1.5315299999999998 0 1 0 -3.04722 0.32175l0.8969400000000001 8.514 -2.8116 3.47589a1.53252 1.53252 0 0 0 2.38095 1.9304999999999999l3.2125500000000002 -3.9718799999999996a1.5246 1.5246 0 0 0 0.28313999999999995 -0.5593499999999999v0Z" stroke-width="1"></path><path fill="#ffe500" d="M19.97325 59.58513a2.04435 2.04435 0 0 1 -2.88486 -0.27918 9.7515 9.7515 0 0 1 12.03444 -14.870790000000001 2.04534 2.04534 0 0 1 0.87417 2.7621 43.21647 43.21647 0 0 1 -4.5738 6.54885 43.24122 43.24122 0 0 1 -5.449949999999999 5.83902Z" stroke-width="1"></path><path fill="#fff48c" d="M29.799 47.56652999999999a9.43866 9.43866 0 0 0 -14.6124 8.0586 9.74061 9.74061 0 0 1 13.94019 -11.187000000000001 2.04534 2.04534 0 0 1 0.87417 2.7621c-0.06534000000000001 0.11385 -0.13266 0.23661 -0.20195999999999997 0.3663Z" stroke-width="1"></path><path stroke="#45413c" stroke-linecap="round" stroke-linejoin="round" d="M19.97325 59.58513a2.04435 2.04435 0 0 1 -2.88486 -0.27918 9.7515 9.7515 0 0 1 12.03444 -14.870790000000001 2.04534 2.04534 0 0 1 0.87417 2.7621 43.21647 43.21647 0 0 1 -4.5738 6.54885 43.24122 43.24122 0 0 1 -5.449949999999999 5.83902v0Z" stroke-width="1"></path><path fill="#ffe500" d="M61.04538 55.11528a2.04534 2.04534 0 0 0 2.71854 -1.0048499999999998A9.7515 9.7515 0 0 0 48.33477 42.7977a2.04534 2.04534 0 0 0 -0.14057999999999998 2.8947599999999998 43.08876 43.08876 0 0 0 6.09246 5.164829999999999 43.09272 43.09272 0 0 0 6.75873 4.257Z" stroke-width="1"></path><path fill="#fff48c" d="M48.48327 45.99837a9.43866 9.43866 0 0 1 16.18452 4.06593 9.74259 9.74259 0 0 0 -16.335 -7.2665999999999995 2.04534 2.04534 0 0 0 -0.14057999999999998 2.8957499999999996c0.09108 0.09702000000000001 0.1881 0.198 0.29106 0.30491999999999997Z" stroke-width="1"></path><path stroke="#45413c" stroke-linecap="round" stroke-linejoin="round" d="M61.04538 55.11528a2.04534 2.04534 0 0 0 2.71854 -1.0048499999999998A9.7515 9.7515 0 0 0 48.33477 42.7977a2.04534 2.04534 0 0 0 -0.14057999999999998 2.8947599999999998 43.08876 43.08876 0 0 0 6.09246 5.164829999999999 43.09272 43.09272 0 0 0 6.75873 4.257v0Z" stroke-width="1"></path><path fill="#ffffff" d="M67.38237000000001 2.80863a20.41875 20.41875 0 0 0 -16.774559999999997 28.5318L45.68157 42.5997a1.0206899999999999 1.0206899999999999 0 0 0 1.22364 1.386l11.72457 -3.44817a20.42766 20.42766 0 1 0 8.75259 -37.728899999999996Z" stroke-width="1"></path><path fill="#daedf7" d="m46.3419 41.08995 12.287880000000001 -3.6134999999999997A20.38509 20.38509 0 0 0 89.69399999999999 21.483c0.099 1.2196799999999999 0.0891 2.4453 -0.02673 3.6630000000000003a20.4039 20.4039 0 0 1 -31.0365 15.39549l-11.72556 3.44817a1.02168 1.02168 0 0 1 -1.22364 -1.386l0.6603300000000001 -1.5137099999999999Z" stroke-width="1"></path><path stroke="#45413c" stroke-linecap="round" stroke-linejoin="round" d="M67.38237000000001 2.80863a20.41875 20.41875 0 0 0 -16.774559999999997 28.5318L45.68157 42.5997a1.0206899999999999 1.0206899999999999 0 0 0 1.22364 1.386l11.72457 -3.44817a20.42766 20.42766 0 1 0 8.75259 -37.728899999999996v0Z" stroke-width="1"></path><path fill="#ff6242" stroke="#45413c" stroke-linecap="round" stroke-linejoin="round" d="M70.02765 24.552a0.81873 0.81873 0 0 1 -1.584 0c-3.20067 -12.61557 -3.069 -12.04632 -3.0789 -12.177000000000001a3.88773 3.88773 0 1 1 7.742789999999999 0c-0.01287 0.13068000000000002 0.12177 -0.44253 -3.0789 12.177000000000001Z" stroke-width="1"></path><path fill="#ff6242" d="M69.23465999999999 35.442a3.3957 3.3957 0 1 1 0 -6.78942 3.3957 3.3957 0 0 1 0 6.78942Z" stroke-width="1"></path><path fill="#45413c" d="M69.23465999999999 29.14362a2.9007 2.9007 0 1 1 0.00396 5.79942 2.9007 2.9007 0 0 1 -0.00396 -5.79942Zm0 -0.99a3.8907000000000003 3.8907000000000003 0 1 0 0 7.78041 3.8907000000000003 3.8907000000000003 0 0 0 0 -7.7814000000000005Z" stroke-width="1"></path><path fill="#ffffff" d="M67.38237000000001 2.80863a20.41875 20.41875 0 0 0 -16.774559999999997 28.5318L45.68157 42.5997a1.0206899999999999 1.0206899999999999 0 0 0 1.22364 1.386l11.72457 -3.44817a20.42766 20.42766 0 1 0 8.75259 -37.728899999999996Z" stroke-width="1"></path><path fill="#daedf7" d="m46.3419 41.08995 12.287880000000001 -3.6134999999999997A20.38509 20.38509 0 0 0 89.69399999999999 21.483c0.099 1.2196799999999999 0.0891 2.4453 -0.02673 3.6630000000000003a20.4039 20.4039 0 0 1 -31.0365 15.39549l-11.72556 3.44817a1.02168 1.02168 0 0 1 -1.22364 -1.386l0.6603300000000001 -1.5137099999999999Z" stroke-width="1"></path><path stroke="#45413c" stroke-linecap="round" stroke-linejoin="round" d="M67.38237000000001 2.80863a20.41875 20.41875 0 0 0 -16.774559999999997 28.5318L45.68157 42.5997a1.0206899999999999 1.0206899999999999 0 0 0 1.22364 1.386l11.72457 -3.44817a20.42766 20.42766 0 1 0 8.75259 -37.728899999999996v0Z" stroke-width="1"></path><path fill="#ff6242" stroke="#e04122" stroke-linecap="round" stroke-linejoin="round" d="M70.02765 24.552a0.81873 0.81873 0 0 1 -1.584 0c-3.20067 -12.61557 -3.069 -12.04632 -3.0789 -12.177000000000001a3.88773 3.88773 0 1 1 7.742789999999999 0c-0.01287 0.13068000000000002 0.12177 -0.44253 -3.0789 12.177000000000001Z" stroke-width="1"></path><path fill="#ff6242" d="M69.23465999999999 35.442a3.3957 3.3957 0 1 1 0 -6.78942 3.3957 3.3957 0 0 1 0 6.78942Z" stroke-width="1"></path><path fill="#e04122" d="M69.23465999999999 29.14362a2.9007 2.9007 0 1 1 0.00396 5.79942 2.9007 2.9007 0 0 1 -0.00396 -5.79942Zm0 -0.99a3.8907000000000003 3.8907000000000003 0 1 0 0 7.78041 3.8907000000000003 3.8907000000000003 0 0 0 0 -7.7814000000000005Z" stroke-width="1"></path></svg>