<svg viewBox="0 0 64 64" fill="none" xmlns="http://www.w3.org/2000/svg">
<path d="M32 64C49.6731 64 64 49.6731 64 32C64 14.3269 49.6731 0 32 0C14.3269 0 0 14.3269 0 32C0 49.6731 14.3269 64 32 64Z" fill="#E1EBFF"/>
<path fill-rule="evenodd" clip-rule="evenodd" d="M30.4372 28.069C28.7455 22.1632 23.5344 17.189 17.7922 18.8338C12.05 20.4786 10.2623 27.4567 11.954 33.3625C13.4004 38.4128 17.4231 42.7676 22.1485 42.8985C22.0496 43.2526 22.0383 43.6352 22.1471 44.0142C22.4599 45.1079 23.6006 45.7408 24.6943 45.4272L26.0148 45.0489C27.1085 44.7353 27.7414 43.5946 27.4278 42.5017C27.319 42.1226 27.1071 41.8041 26.8361 41.5559C30.7757 38.9433 31.8836 33.1193 30.4372 28.069Z" fill="#FFCC00"/>
<path fill-rule="evenodd" clip-rule="evenodd" d="M33.529 28.069C35.2208 22.1632 40.4318 17.189 46.174 18.8338C51.9162 20.4786 53.704 27.4567 52.0122 33.3625C50.5658 38.4128 46.5431 42.7676 41.8177 42.8985C41.9166 43.2526 41.928 43.6352 41.8192 44.0142C41.5063 45.1079 40.3656 45.7408 39.272 45.4272L37.9514 45.0489C36.8577 44.7353 36.2248 43.5946 36.5384 42.5017C36.6472 42.1226 36.8592 41.8041 37.1301 41.5559C33.1905 38.9433 32.0826 33.1193 33.529 28.069Z" fill="#81D4EF"/>
<path fill-rule="evenodd" clip-rule="evenodd" d="M41.9555 24.1778C41.9555 17.8155 38.1852 11.3778 32 11.3778C25.8147 11.3778 22.0444 17.8155 22.0444 24.1778C22.0444 29.6185 24.8078 35.1005 29.4748 36.5789C29.2764 36.9024 29.1555 37.2807 29.1555 37.6889C29.1555 38.8672 30.1106 39.8223 31.2889 39.8223H32.7111C33.8894 39.8223 34.8444 38.8672 34.8444 37.6889C34.8444 37.2807 34.7235 36.9031 34.5251 36.5789C39.1922 35.1005 41.9555 29.6185 41.9555 24.1778Z" fill="#E45544"/>
<path d="M32.7113 40.5334H31.2891C29.7203 40.5334 28.4446 39.2576 28.4446 37.6889C28.4446 37.4535 28.4752 37.2189 28.5342 36.9906C24.259 35.2093 21.3335 30.0722 21.3335 24.1778C21.3335 17.5367 25.3235 10.6667 32.0002 10.6667C38.6768 10.6667 42.6668 17.5367 42.6668 24.1778C42.6668 30.0722 39.7413 35.2093 35.4661 36.9906C35.5251 37.2189 35.5557 37.4535 35.5557 37.6889C35.5557 39.2576 34.28 40.5334 32.7113 40.5334ZM32.0002 12.0889C26.2139 12.0889 22.7557 18.2358 22.7557 24.1778C22.7557 28.9124 25.1379 34.459 29.6898 35.9005C29.8981 35.9666 30.0652 36.1245 30.1413 36.33C30.2174 36.5355 30.1954 36.7638 30.0816 36.9508C29.9394 37.1826 29.8668 37.4308 29.8668 37.6889C29.8668 38.4733 30.5047 39.1111 31.2891 39.1111H32.7113C33.4956 39.1111 34.1335 38.4733 34.1335 37.6889C34.1335 37.4308 34.061 37.1826 33.9187 36.9501C33.8043 36.7638 33.7822 36.5348 33.859 36.3293C33.9351 36.1245 34.1022 35.9659 34.3106 35.8998C38.8624 34.459 41.2446 28.9124 41.2446 24.1778C41.2446 18.2358 37.7865 12.0889 32.0002 12.0889Z" fill="#3F291E"/>
<path d="M24.0845 46.2215C22.85 46.2215 21.7157 45.4059 21.3808 44.1721C21.3225 43.9573 21.2912 43.7369 21.2877 43.5136C16.7956 42.9141 12.7309 38.8565 11.2368 33.3625C10.1886 29.5097 10.5968 25.4208 12.3262 22.4242C13.6041 20.2105 15.5348 18.7086 17.9099 18.0821C18.6018 17.8994 19.3037 17.8034 20.0567 17.7885C20.435 17.8069 20.7735 18.0935 20.7813 18.4861C20.7885 18.8786 20.4763 19.2029 20.0837 19.2107C19.4466 19.2228 18.8542 19.3031 18.2733 19.4567C16.2729 19.9851 14.643 21.2565 13.5586 23.1353C12.0141 25.8105 11.6592 29.4941 12.61 32.9892C13.8061 37.3917 17.4569 41.9556 22.1182 42.1618C22.338 42.1717 22.5399 42.282 22.6665 42.4605C22.7938 42.6389 22.8308 42.8665 22.7675 43.077C22.6935 43.323 22.6885 43.5655 22.7518 43.7995C22.9474 44.5198 23.7054 44.9472 24.4407 44.7531L25.7847 44.3982C26.1438 44.3037 26.4418 44.0768 26.6253 43.7604C26.803 43.4525 26.8493 43.0948 26.7568 42.7527C26.6928 42.5181 26.5641 42.309 26.3742 42.1312C26.2128 41.9812 26.131 41.7636 26.1517 41.5445C26.173 41.3248 26.2946 41.1278 26.4809 41.0098C26.7106 40.8654 26.9403 40.6997 27.1821 40.5049C27.4871 40.2589 27.9351 40.3058 28.1819 40.6116C28.4286 40.9173 28.3803 41.3646 28.0752 41.6114C28.0091 41.6647 27.9429 41.7166 27.8775 41.7671C27.9863 41.9605 28.0709 42.1661 28.1293 42.3787C28.322 43.0898 28.226 43.8322 27.8569 44.4708C27.4829 45.1179 26.8763 45.5801 26.1481 45.7728L24.8041 46.1277C24.5645 46.1917 24.3227 46.2215 24.0845 46.2215Z" fill="#383128"/>
<path d="M39.9153 46.2215C39.6771 46.2215 39.4353 46.1916 39.1942 46.1276L37.8502 45.7728C37.1221 45.5801 36.5155 45.1186 36.1414 44.4707C35.7724 43.8322 35.6764 43.0898 35.8691 42.3794C35.9274 42.166 36.012 41.9605 36.1208 41.7671C36.0554 41.7166 35.9893 41.6647 35.9231 41.6114C35.6173 41.3646 35.5697 40.9166 35.8172 40.6115C36.0646 40.3058 36.5119 40.2588 36.817 40.5056C37.0566 40.699 37.2863 40.8647 37.5174 41.0098C37.7045 41.1278 37.8261 41.3248 37.8467 41.5445C37.8673 41.7643 37.7855 41.9811 37.6241 42.1312C37.4342 42.309 37.3055 42.518 37.2415 42.7527C37.1491 43.094 37.1953 43.4517 37.3731 43.7603C37.5558 44.0768 37.8545 44.3036 38.2136 44.3982L39.5576 44.7531C40.2929 44.9458 41.0509 44.5191 41.2465 43.7995C41.3098 43.5655 41.3048 43.323 41.2309 43.077C41.1676 42.8672 41.2045 42.6396 41.3318 42.4604C41.4584 42.2819 41.6611 42.171 41.8801 42.1618C46.5414 41.9555 50.1923 37.3916 51.3898 32.9906C52.3398 29.4955 51.985 25.8119 50.4412 23.1367C49.3567 21.2579 47.7261 19.9865 45.7265 19.4581C45.1455 19.3045 44.5532 19.2242 43.916 19.2121C43.5235 19.2043 43.2113 18.88 43.2184 18.4875C43.2262 18.0992 43.5434 17.7899 43.9295 17.7899C43.9345 17.7899 43.9388 17.7899 43.9437 17.7899C44.6968 17.8048 45.3987 17.9001 46.0906 18.0835C48.465 18.7107 50.3957 20.2119 51.6742 22.4256C53.4044 25.4222 53.8118 29.5111 52.7637 33.3639C51.2696 38.8579 47.2056 42.9155 42.7128 43.515C42.7093 43.7376 42.678 43.9587 42.6197 44.1735C42.284 45.4059 41.1505 46.2215 39.9153 46.2215Z" fill="#232E38"/>
<path d="M26.5001 18.5209C26.3799 18.5209 26.2569 18.4903 26.1453 18.4256C25.8047 18.2293 25.6887 17.7941 25.885 17.4542C27.3535 14.9113 29.5252 13.5111 31.9999 13.5111C32.3924 13.5111 32.711 13.8297 32.711 14.2222C32.711 14.6148 32.3924 14.9333 31.9999 14.9333C30.055 14.9333 28.3206 16.0811 27.1167 18.1653C26.9851 18.3936 26.7462 18.5209 26.5001 18.5209Z" fill="white"/>
<path d="M14.7369 26.6418C14.6658 26.6418 14.594 26.6311 14.5228 26.6084C14.1481 26.4903 13.9404 26.0907 14.0585 25.7166C14.8876 23.0877 16.578 21.2814 18.8194 20.6293C19.197 20.5198 19.5909 20.7367 19.7012 21.1136C19.8107 21.4905 19.5938 21.8852 19.2169 21.9954C17.4469 22.5102 16.0965 23.9837 15.4153 26.144C15.3186 26.4477 15.0384 26.6418 14.7369 26.6418Z" fill="white"/>
<path d="M49.1594 26.6418C48.8572 26.6418 48.577 26.4477 48.4817 26.144C47.8005 23.9829 46.4501 22.5095 44.6801 21.9954C44.3033 21.8859 44.0864 21.4912 44.1959 21.1136C44.3054 20.7367 44.6986 20.5205 45.0777 20.6293C47.3184 21.2814 49.0094 23.0877 49.8385 25.7166C49.9566 26.0914 49.7489 26.4903 49.3742 26.6084C49.3024 26.6311 49.2305 26.6418 49.1594 26.6418Z" fill="white"/>
<path d="M31.9997 43.3778C31.8148 43.3778 31.6299 43.2996 31.4948 43.1716C31.3668 43.0365 31.2886 42.8516 31.2886 42.6667C31.2886 42.4747 31.3668 42.2969 31.4948 42.1618C31.7579 41.8987 32.2344 41.8987 32.5046 42.1618C32.6326 42.2969 32.7108 42.4747 32.7108 42.6667C32.7108 42.8516 32.6326 43.0365 32.5046 43.1716C32.3695 43.2996 32.1846 43.3778 31.9997 43.3778Z" fill="#232E38"/>
<path d="M31.6441 51.392C31.3952 51.0934 31.4378 50.6383 31.7436 50.3894V50.3965C32.0423 50.1405 32.4903 50.1832 32.7392 50.4889C32.9881 50.7947 32.9454 51.2427 32.6396 51.4916C32.5116 51.5983 32.3481 51.6552 32.1916 51.6552C31.9854 51.6552 31.7792 51.5627 31.6441 51.392ZM33.3294 49.024C32.9383 48.9885 32.6538 48.6472 32.6823 48.256C32.7178 47.8649 33.0663 47.5734 33.4574 47.6089C33.8485 47.6445 34.1401 47.9858 34.1045 48.3769C34.0689 48.7467 33.7561 49.024 33.3934 49.024C33.3721 49.024 33.3507 49.024 33.3294 49.024ZM32.4547 45.5894C32.3338 45.2196 32.5401 44.8143 32.9098 44.6934C33.2867 44.5725 33.6849 44.7787 33.8058 45.1556C33.9267 45.5254 33.7205 45.9307 33.3507 46.0516C33.2796 46.0729 33.2014 46.08 33.1303 46.08C32.8316 46.08 32.5472 45.888 32.4547 45.5894Z" fill="#232E38"/>
<path d="M29.8664 53.3334C29.6815 53.3334 29.4966 53.2552 29.3615 53.1272C29.2335 52.992 29.1553 52.8072 29.1553 52.6223C29.1553 52.4374 29.2335 52.2525 29.3615 52.1174C29.6246 51.8543 30.1082 51.8543 30.3713 52.1174C30.4993 52.2525 30.5775 52.4374 30.5775 52.6223C30.5775 52.8072 30.4993 52.992 30.3713 53.1272C30.2362 53.2552 30.0584 53.3334 29.8664 53.3334Z" fill="#232E38"/>
<path d="M25.5998 48.3556C25.4149 48.3556 25.23 48.2774 25.0949 48.1494C24.9669 48.0143 24.8887 47.8294 24.8887 47.6445C24.8887 47.4596 24.9669 47.2747 25.0949 47.1396C25.358 46.8765 25.8344 46.8765 26.1047 47.1396C26.2327 47.2747 26.3109 47.4596 26.3109 47.6445C26.3109 47.8294 26.2327 48.0143 26.1047 48.1494C25.9696 48.2774 25.7918 48.3556 25.5998 48.3556Z" fill="#232E38"/>
<path d="M23.8575 50.5245C23.5873 50.2329 23.6086 49.7849 23.9002 49.5218C24.1917 49.2587 24.6397 49.28 24.9028 49.5645C25.1731 49.856 25.1517 50.304 24.8602 50.5671C24.8602 50.5671 24.8602 50.5671 24.8602 50.5742C24.7251 50.6951 24.5544 50.7591 24.3837 50.7591C24.1917 50.7591 23.9997 50.6809 23.8575 50.5245Z" fill="#232E38"/>
<path d="M23.4665 53.3334C23.2816 53.3334 23.0967 53.2552 22.9616 53.1272C22.8336 52.992 22.7554 52.8072 22.7554 52.6223C22.7554 52.4374 22.8336 52.2525 22.9616 52.1174C23.2247 51.8543 23.7083 51.8543 23.9714 52.1174C24.0994 52.2525 24.1776 52.4374 24.1776 52.6223C24.1776 52.8072 24.0994 52.992 23.9714 53.1272C23.8363 53.2552 23.6514 53.3334 23.4665 53.3334Z" fill="#232E38"/>
<path d="M38.3996 48.3556C38.2147 48.3556 38.0298 48.2774 37.8947 48.1494C37.7667 48.0143 37.6885 47.8294 37.6885 47.6445C37.6885 47.4596 37.7667 47.2747 37.8947 47.1396C38.1649 46.8765 38.6343 46.8765 38.9045 47.1396C39.0325 47.2747 39.1107 47.4596 39.1107 47.6445C39.1107 47.8294 39.0325 48.0143 38.9045 48.1494C38.7694 48.2774 38.5845 48.3556 38.3996 48.3556Z" fill="#232E38"/>
<path d="M37.8376 50.8445H37.8447C37.6599 50.5031 37.7879 50.0694 38.1363 49.8845C38.4776 49.6996 38.9114 49.8276 39.0963 50.176C39.2812 50.5245 39.1461 50.9512 38.8047 51.136C38.6981 51.1929 38.5843 51.2214 38.4705 51.2214C38.2145 51.2214 37.9656 51.0863 37.8376 50.8445Z" fill="#232E38"/>
<path d="M40.5329 53.3334C40.348 53.3334 40.1631 53.2552 40.028 53.1272C39.9 52.992 39.8218 52.8072 39.8218 52.6223C39.8218 52.4374 39.9 52.2525 40.028 52.1174C40.2911 51.8543 40.7747 51.8543 41.0378 52.1174C41.1658 52.2525 41.244 52.4374 41.244 52.6223C41.244 52.8072 41.1658 52.992 41.0378 53.1272C40.9027 53.2552 40.7178 53.3334 40.5329 53.3334Z" fill="#232E38"/>
</svg>

