<svg width="480" height="270" viewBox="0 0 480 270" fill="none" xmlns="http://www.w3.org/2000/svg">
<g clip-path="url(#clip0)">
<rect width="480" height="270" fill="url(#paint0_linear)"/>
<path d="M187.888 204.918C187.888 205.918 188.285 206.877 188.992 207.584C189.699 208.291 190.658 208.688 191.658 208.688H301.002C302.001 208.688 302.96 208.291 303.667 207.584C304.374 206.877 304.771 205.918 304.771 204.918V82.3776L272.723 50.3296H191.658C191.162 50.3292 190.672 50.4264 190.215 50.6157C189.757 50.805 189.341 51.0827 188.991 51.4328C188.641 51.7829 188.363 52.1986 188.174 52.6562C187.985 53.1137 187.888 53.6041 187.888 54.0992V204.918Z" fill="white"/>
<path d="M187.888 204.918C187.888 205.918 188.285 206.877 188.992 207.584C189.699 208.291 190.658 208.688 191.658 208.688H301.002C302.001 208.688 302.96 208.291 303.667 207.584C304.374 206.877 304.771 205.918 304.771 204.918V82.3776L272.723 50.3296H191.658C191.162 50.3292 190.672 50.4264 190.215 50.6157C189.757 50.805 189.341 51.0827 188.991 51.4328C188.641 51.7829 188.363 52.1986 188.174 52.6562C187.985 53.1137 187.888 53.6041 187.888 54.0992V204.918Z" stroke="#45413C" stroke-width="1.5" stroke-linecap="round" stroke-linejoin="round"/>
<path d="M304.771 82.3776H276.243C275.31 82.3776 274.414 82.0068 273.754 81.3466C273.094 80.6865 272.723 79.7912 272.723 78.8576V50.3296L304.771 82.3776Z" fill="#E8F4FA" stroke="#45413C" stroke-width="1.5" stroke-linecap="round" stroke-linejoin="round"/>
<path opacity="0.15" d="M210.973 238.723C210.973 240.124 215.052 241.467 222.314 242.457C229.575 243.447 239.424 244.003 249.693 244.003C259.962 244.003 269.811 243.447 277.072 242.457C284.333 241.467 288.413 240.124 288.413 238.723C288.413 237.323 284.333 235.98 277.072 234.99C269.811 234 259.962 233.443 249.693 233.443C239.424 233.443 229.575 234 222.314 234.99C215.052 235.98 210.973 237.323 210.973 238.723Z" fill="#45413C"/>
<path d="M285.12 168.854V182.934C285.12 183.868 284.749 184.763 284.089 185.423C283.429 186.084 282.534 186.454 281.6 186.454H260.48C259.546 186.454 258.651 186.084 257.991 185.423C257.331 184.763 256.96 183.868 256.96 182.934V172.374L263.613 167.942C264.768 167.167 266.128 166.752 267.52 166.752C268.912 166.752 270.272 167.167 271.427 167.942L274.736 170.157C275.753 170.831 276.929 171.225 278.146 171.3C279.363 171.374 280.579 171.127 281.67 170.582L285.12 168.854Z" fill="#C8FFA1" stroke="#45413C" stroke-width="1.5" stroke-linecap="round" stroke-linejoin="round"/>
<path d="M239.366 94.9344H285.126" stroke="#627B8C" stroke-width="1.5" stroke-linecap="round" stroke-linejoin="round"/>
<path d="M207.686 116.054H285.126" stroke="#627B8C" stroke-width="1.5" stroke-linecap="round" stroke-linejoin="round"/>
<path d="M207.686 137.174H285.126" stroke="#627B8C" stroke-width="1.5" stroke-linecap="round" stroke-linejoin="round"/>
<path d="M207.686 158.294H242.886" stroke="#627B8C" stroke-width="1.5" stroke-linecap="round" stroke-linejoin="round"/>
<path d="M207.686 179.414H242.886" stroke="#627B8C" stroke-width="1.5" stroke-linecap="round" stroke-linejoin="round"/>
<path d="M281.6 151.254C282.534 151.254 283.429 151.625 284.089 152.285C284.749 152.946 285.12 153.841 285.12 154.774V168.854L281.67 170.582C280.579 171.127 279.363 171.374 278.146 171.3C276.929 171.225 275.753 170.831 274.736 170.157L271.427 167.942C270.272 167.167 268.912 166.752 267.52 166.752C266.128 166.752 264.768 167.167 263.613 167.942L256.96 172.374V154.774C256.96 153.841 257.331 152.946 257.991 152.285C258.651 151.625 259.546 151.254 260.48 151.254H281.6Z" fill="#80DDFF" stroke="#45413C" stroke-width="1.5" stroke-linecap="round" stroke-linejoin="round"/>
</g>
<defs>
<linearGradient id="paint0_linear" x1="472" y1="-2.65879e-05" x2="240" y2="270" gradientUnits="userSpaceOnUse">
<stop stop-color="#A6E7FF"/>
<stop offset="1" stop-color="#9EC4FE"/>
</linearGradient>
<clipPath id="clip0">
<rect width="480" height="270" fill="white"/>
</clipPath>
</defs>
</svg>
