<svg width="64" height="64" viewBox="0 0 64 64" fill="none" xmlns="http://www.w3.org/2000/svg">
<g clip-path="url(#clip0)">
<path d="M0.939941 30.0778C0.939941 38.055 4.10885 45.7054 9.74954 51.3461C15.3902 56.9868 23.0406 60.1557 31.0178 60.1557C38.9949 60.1557 46.6453 56.9868 52.286 51.3461C57.9267 45.7054 61.0956 38.055 61.0956 30.0778C61.0956 22.1007 57.9267 14.4503 52.286 8.8096C46.6453 3.16891 38.9949 0 31.0178 0C23.0406 0 15.3902 3.16891 9.74954 8.8096C4.10885 14.4503 0.939941 22.1007 0.939941 30.0778Z" fill="#C7F0FF"/>
<path d="M32.6001 36.6472L35.1834 34.2069L44.3338 43.8936L41.7505 46.3339L32.6001 36.6472Z" fill="white"/>
<path fill-rule="evenodd" clip-rule="evenodd" d="M32.327 36.9054C32.1844 36.7544 32.1912 36.5165 32.3422 36.3739L34.9255 33.9336C35.0765 33.791 35.3144 33.7978 35.457 33.9487L44.6074 43.6355C44.75 43.7864 44.7432 44.0244 44.5922 44.167L42.0089 46.6073C41.8579 46.7498 41.62 46.7431 41.4774 46.5921L32.327 36.9054ZM33.1318 36.6623L41.7658 45.8025L43.8026 43.8785L35.1686 34.7384L33.1318 36.6623Z" fill="#45413C"/>
<path d="M9.80811 46.4417L14.5089 33.9731L17.8341 35.2268L13.1333 47.6953L9.80811 46.4417Z" fill="white"/>
<path fill-rule="evenodd" clip-rule="evenodd" d="M9.67553 46.7935C9.48124 46.7203 9.38311 46.5034 9.45636 46.3091L14.1571 33.8405C14.2304 33.6463 14.4473 33.5481 14.6416 33.6214L17.9668 34.875C18.1611 34.9483 18.2592 35.1652 18.186 35.3595L13.4852 47.828C13.4119 48.0223 13.1951 48.1204 13.0008 48.0472L9.67553 46.7935ZM10.2926 46.2226L12.9142 47.2109L17.3497 35.446L14.7281 34.4576L10.2926 46.2226Z" fill="#45413C"/>
<path d="M12.5884 39.0688L15.818 40.5742L17.8347 35.2264L14.5096 33.9729L12.5884 39.0688Z" fill="#E0E0E0"/>
<path d="M32.6006 36.6476L35.1835 34.2075L38.7801 38.0154L36.3099 40.5742L32.6006 36.6476Z" fill="#E0E0E0"/>
<path fill-rule="evenodd" clip-rule="evenodd" d="M32.327 36.9054C32.1844 36.7544 32.1912 36.5165 32.3422 36.3739L34.9255 33.9336C35.0765 33.791 35.3144 33.7978 35.457 33.9487L44.6074 43.6355C44.75 43.7864 44.7432 44.0244 44.5922 44.167L42.0089 46.6073C41.8579 46.7498 41.62 46.7431 41.4774 46.5921L32.327 36.9054ZM33.1318 36.6623L41.7658 45.8025L43.8026 43.8785L35.1686 34.7384L33.1318 36.6623Z" fill="#45413C"/>
<path fill-rule="evenodd" clip-rule="evenodd" d="M9.67553 46.7935C9.48124 46.7203 9.38311 46.5034 9.45636 46.3091L14.1571 33.8405C14.2304 33.6463 14.4473 33.5481 14.6416 33.6214L17.9668 34.875C18.1611 34.9483 18.2592 35.1652 18.186 35.3595L13.4852 47.828C13.4119 48.0223 13.1951 48.1204 13.0008 48.0472L9.67553 46.7935ZM10.2926 46.2226L12.9142 47.2109L17.3497 35.446L14.7281 34.4576L10.2926 46.2226Z" fill="#45413C"/>
<path d="M23.2417 31.5442L23.2467 27.9905L26.8004 27.9955L26.7954 31.5492L23.2417 31.5442Z" fill="#DAEDF7"/>
<path d="M23.2437 29.7676L23.2462 27.9907L26.7999 27.9958L26.7973 29.7726L23.2437 29.7676Z" fill="#C0DCEB"/>
<path fill-rule="evenodd" clip-rule="evenodd" d="M23.2407 31.9202C23.0331 31.9199 22.865 31.7513 22.8653 31.5437L22.8703 27.99C22.8706 27.7824 23.0392 27.6143 23.2468 27.6146L26.8005 27.6196C27.0081 27.6199 27.1762 27.7885 27.1759 27.9961L27.1709 31.5498C27.1706 31.7574 27.0021 31.9255 26.7944 31.9252L23.2407 31.9202ZM23.6178 31.1688L26.4195 31.1728L26.4235 28.371L23.6217 28.367L23.6178 31.1688Z" fill="#45413C"/>
<path d="M17.8926 44.8625L17.9114 31.5373L32.1254 31.5574L32.1066 44.8826L17.8926 44.8625Z" fill="white"/>
<path fill-rule="evenodd" clip-rule="evenodd" d="M17.8921 45.2386C17.6844 45.2383 17.5164 45.0697 17.5166 44.8621L17.5355 31.5368C17.5358 31.3292 17.7043 31.1611 17.912 31.1614L32.126 31.1815C32.3337 31.1818 32.5017 31.3504 32.5015 31.558L32.4826 44.8832C32.4823 45.0909 32.3138 45.259 32.1061 45.2587L17.8921 45.2386ZM18.2691 44.4872L31.7312 44.5062L31.749 31.9329L18.2869 31.9139L18.2691 44.4872Z" fill="#45413C"/>
<path d="M22.335 44.8745H27.661V50.2043H22.335V44.8745Z" fill="#DAEDF7"/>
<path d="M22.3345 47.5339L22.3382 44.869L27.6643 44.8766L27.6605 47.5415L22.3345 47.5339Z" fill="#C0DCEB"/>
<path fill-rule="evenodd" clip-rule="evenodd" d="M22.3301 50.5752C22.1224 50.5749 21.9543 50.4064 21.9546 50.1987L21.9623 44.869C21.9626 44.6613 22.1311 44.4932 22.3388 44.4935L27.6648 44.5011C27.8725 44.5014 28.0405 44.67 28.0402 44.8776L28.0326 50.2074C28.0323 50.4151 27.8637 50.5832 27.6561 50.5829L22.3301 50.5752ZM22.7071 49.8238L27.2812 49.8304L27.2878 45.2525L22.7137 45.246L22.7071 49.8238Z" fill="#45413C"/>
<path d="M28.5627 37.7711C28.5624 38.0044 28.5161 38.2354 28.4266 38.4508C28.337 38.6662 28.2058 38.8619 28.0406 39.0266C27.8754 39.1913 27.6794 39.3219 27.4637 39.4108C27.248 39.4998 27.0169 39.5453 26.7836 39.5449L23.2299 39.5404C22.9966 39.54 22.7656 39.4937 22.5502 39.404C22.3347 39.3144 22.1391 39.1831 21.9744 39.0179C21.8096 38.8526 21.6791 38.6565 21.5902 38.4408C21.5012 38.225 21.4557 37.9939 21.4561 37.7606L21.4651 31.5427L28.5717 31.5525L28.5627 37.7711Z" fill="#00B8F0"/>
<path d="M27.3859 31.551L21.4561 37.459L21.4651 31.5427L27.3859 31.551Z" fill="#4ACFFF"/>
<path fill-rule="evenodd" clip-rule="evenodd" d="M21.0891 31.5422C21.0894 31.3345 21.258 31.1665 21.4656 31.1667L28.5722 31.1765C28.672 31.1767 28.7675 31.2164 28.8379 31.287C28.9084 31.3576 28.9478 31.4533 28.9477 31.553L28.9387 37.7716C28.9387 37.7716 28.9387 37.7715 28.9387 37.7716C28.9383 38.0542 28.8822 38.3341 28.7737 38.5951C28.6652 38.8562 28.5063 39.0932 28.3061 39.2928C28.1059 39.4924 27.8683 39.6506 27.607 39.7584C27.3457 39.8661 27.0657 39.9214 26.7831 39.9209C26.7831 39.9209 26.7832 39.9209 26.7831 39.9209L23.2294 39.9164C22.9467 39.9159 22.6667 39.8598 22.4057 39.7511C22.1447 39.6425 21.9076 39.4835 21.7081 39.2833C21.5085 39.083 21.3503 38.8454 21.2426 38.5841C21.1348 38.3227 21.0796 38.0427 21.0801 37.76L21.0891 31.5422ZM21.8405 31.9192L21.832 37.7611C21.8317 37.9451 21.8676 38.1274 21.9378 38.2975C22.0079 38.4676 22.1108 38.6222 22.2407 38.7525C22.3705 38.8828 22.5248 38.9862 22.6946 39.0569C22.8645 39.1276 23.0466 39.1641 23.2305 39.1644L26.7841 39.169C26.968 39.1693 27.1503 39.1333 27.3203 39.0632C27.4904 38.9931 27.6449 38.8902 27.7752 38.7603C27.9054 38.6305 28.0088 38.4762 28.0794 38.3064C28.15 38.1366 28.1865 37.9545 28.1867 37.7706L28.1952 31.928L21.8405 31.9192Z" fill="#45413C"/>
<path d="M30.0778 50.2098C30.3621 50.2102 30.6422 50.2788 30.8946 50.4099C31.1469 50.541 31.364 50.7308 31.5278 50.9632C31.6916 51.1956 31.7972 51.464 31.8357 51.7457C31.8743 52.0274 31.8447 52.3143 31.7494 52.5822C31.2567 53.9669 30.347 55.1649 29.1455 56.0114C27.944 56.8579 26.5097 57.3112 25.04 57.3091C23.5703 57.3069 22.1373 56.8494 20.9383 55.9994C19.7392 55.1494 18.8331 53.9488 18.3444 52.5626C18.2506 52.2946 18.2224 52.0079 18.2621 51.7267C18.3018 51.4454 18.4084 51.1778 18.5728 50.9462C18.7372 50.7147 18.9548 50.5259 19.2072 50.3956C19.4596 50.2654 19.7395 50.1975 20.0235 50.1978L30.0778 50.2098Z" fill="white"/>
<path fill-rule="evenodd" clip-rule="evenodd" d="M20.0231 50.5737C19.7992 50.5736 19.5785 50.6271 19.3796 50.7297C19.1805 50.8324 19.009 50.9813 18.8794 51.1639C18.7497 51.3465 18.6657 51.5575 18.6344 51.7793C18.6031 52.0009 18.6253 52.2268 18.6992 52.438C19.162 53.7507 20.0202 54.8877 21.1557 55.6927C22.2913 56.4977 23.6485 56.9311 25.0405 56.9331C26.4326 56.9351 27.791 56.5057 28.929 55.704C30.067 54.9023 30.9285 53.7676 31.3952 52.4562C31.4703 52.245 31.4936 52.0188 31.4632 51.7967C31.4328 51.5746 31.3496 51.363 31.2205 51.1798C31.0913 50.9965 30.9201 50.8469 30.7212 50.7435C30.5223 50.6402 30.3015 50.5861 30.0774 50.5858C30.0773 50.5858 30.0774 50.5858 30.0774 50.5858L20.0231 50.5737ZM19.0348 50.0615C19.3406 49.9037 19.6797 49.8215 20.0238 49.8218L30.0783 49.8338C30.4228 49.8343 30.7622 49.9175 31.0679 50.0763C31.3736 50.2351 31.6367 50.465 31.8352 50.7466C32.0336 51.0283 32.1615 51.3534 32.2082 51.6947C32.255 52.0361 32.2191 52.3836 32.1036 52.7082C31.5849 54.1661 30.6271 55.4275 29.3621 56.3187C28.097 57.21 26.5869 57.6873 25.0395 57.685C23.492 57.6828 21.9833 57.201 20.7208 56.3061C19.4584 55.4112 18.5043 54.1471 17.9899 52.6876L17.9896 52.6868C17.8759 52.3621 17.8417 52.0148 17.8898 51.6741C17.938 51.3334 18.067 51.0091 18.2663 50.7286C18.4655 50.448 18.729 50.2193 19.0348 50.0615Z" fill="#45413C"/>
<path d="M32.1299 37.7763L35.6836 37.7809C36.0335 37.7814 36.3802 37.7129 36.7037 37.5794C37.0272 37.446 37.3212 37.2501 37.5691 37.003C37.8169 36.7559 38.0136 36.4624 38.1479 36.1392C38.2823 35.8161 38.3517 35.4697 38.3522 35.1197V34.2317C38.3532 33.5248 38.0735 32.8465 37.5744 32.3459C37.0754 31.8453 36.3979 31.5635 35.6911 31.5623H33.9143C33.6809 31.5619 33.4497 31.6075 33.234 31.6964C33.0183 31.7854 32.8222 31.9161 32.6569 32.0809C32.4917 32.2457 32.3606 32.4414 32.2711 32.6569C32.1815 32.8724 32.1353 33.1035 32.1351 33.3369L32.1299 37.7763Z" fill="white"/>
<path fill-rule="evenodd" clip-rule="evenodd" d="M33.0907 31.3489C33.352 31.2411 33.632 31.1858 33.9147 31.1863C33.9148 31.1863 33.9146 31.1863 33.9147 31.1863H35.6918C36.4984 31.1876 37.2713 31.5093 37.8408 32.0805C38.4102 32.6517 38.7294 33.4257 38.7283 34.2322M35.6832 38.1568C35.6832 38.1568 35.6832 38.1568 35.6832 38.1568V38.1568ZM31.7593 33.3365C31.7593 33.3365 31.7593 33.3366 31.7593 33.3365V33.3365ZM33.9137 31.9382C33.7297 31.9379 33.5475 31.9739 33.3775 32.044C33.2074 32.1142 33.0528 32.2171 32.9226 32.3471C32.7923 32.477 32.6889 32.6313 32.6184 32.8012C32.5478 32.9711 32.5114 33.1532 32.5112 33.3372L32.5064 37.4008L35.6842 37.4049C35.9847 37.4053 36.2825 37.3465 36.5604 37.2319C36.8383 37.1172 37.0908 36.949 37.3037 36.7367C37.5165 36.5245 37.6855 36.2724 37.8009 35.9949C37.9163 35.7174 37.9759 35.42 37.9764 35.1195C37.9764 35.1194 37.9764 35.1196 37.9764 35.1195L37.9764 34.2311C37.9772 33.624 37.7369 33.0414 37.3082 32.6114C36.8797 32.1815 36.2979 31.9393 35.6909 31.9382L33.9137 31.9382Z" fill="#45413C"/>
<path d="M42.3433 44.6084L49.0228 37.4331L51.6239 39.8545L44.9443 47.0298L42.3433 44.6084Z" fill="white"/>
<path fill-rule="evenodd" clip-rule="evenodd" d="M42.0872 44.8836C41.9352 44.7421 41.9267 44.5042 42.0682 44.3523L48.7478 37.177C48.8892 37.025 49.1271 37.0165 49.2791 37.158L51.8802 39.5794C52.0322 39.7209 52.0407 39.9588 51.8992 40.1107L45.2196 47.286C45.0782 47.438 44.8403 47.4465 44.6883 47.305L42.0872 44.8836ZM42.8747 44.5894L44.9254 46.4985L51.0927 39.8736L49.042 37.9645L42.8747 44.5894Z" fill="#45413C"/>
<path d="M58.6136 32.7742C58.6834 32.763 58.7547 32.7664 58.823 32.7845C58.8913 32.8025 58.955 32.8347 59.0101 32.8789C59.0652 32.9231 59.1103 32.9785 59.1427 33.0412C59.175 33.104 59.1938 33.1729 59.1979 33.2434C59.2542 34.2404 59.0271 35.233 58.5429 36.1063C58.0587 36.9796 57.3372 37.6981 56.4618 38.1785C55.5864 38.6589 54.5928 38.8817 53.5961 38.8211C52.5994 38.7605 51.6402 38.419 50.8294 37.836C50.0187 37.2531 49.3895 36.4525 49.0147 35.527C48.6398 34.6014 48.5347 33.5886 48.7114 32.6058C48.8881 31.623 49.3393 30.7103 50.013 29.9732C50.6867 29.2361 51.5553 28.7048 52.5184 28.4408C52.5865 28.4223 52.6578 28.4182 52.7276 28.429C52.7974 28.4397 52.8641 28.4649 52.9236 28.503C52.983 28.5412 53.0338 28.5913 53.0727 28.6503C53.1115 28.7092 53.1376 28.7757 53.1492 28.8453L53.3951 30.3492C53.4145 30.4678 53.3908 30.5893 53.3283 30.692C53.2659 30.7946 53.1687 30.8714 53.0545 30.9087C52.5682 31.0678 52.1355 31.3585 51.8043 31.7485C51.473 32.1385 51.2563 32.6126 51.178 33.1182C51.0997 33.6239 51.163 34.1413 51.3608 34.6132C51.5586 35.0851 51.8832 35.4931 52.2986 35.7918C52.714 36.0905 53.204 36.2684 53.7143 36.3057C54.2246 36.343 54.7353 36.2383 55.1897 36.0031C55.6442 35.768 56.0246 35.4116 56.2889 34.9735C56.5532 34.5353 56.6911 34.0326 56.6871 33.5209C56.6861 33.4007 56.7282 33.2841 56.8057 33.1923C56.8832 33.1004 56.9911 33.0393 57.1097 33.0201L58.6136 32.7742Z" fill="#656769"/>
<path fill-rule="evenodd" clip-rule="evenodd" d="M52.6705 28.8006C52.6527 28.7978 52.6346 28.7988 52.6172 28.8035C51.7229 29.0489 50.9162 29.5423 50.2906 30.2269C49.6647 30.9115 49.2455 31.7594 49.0814 32.6723C48.9173 33.5853 49.015 34.5261 49.3631 35.3858C49.7113 36.2456 50.2958 36.9892 51.0489 37.5308C51.802 38.0723 52.693 38.3895 53.6189 38.4458C54.5448 38.5021 55.4677 38.2951 56.2809 37.8489C57.0941 37.4026 57.7643 36.7353 58.2141 35.924C58.6638 35.1128 58.8748 34.191 58.8225 33.265C58.8215 33.247 58.8167 33.2294 58.8085 33.2134C58.8002 33.1974 58.7887 33.1833 58.7747 33.1721C58.7606 33.1608 58.7444 33.1526 58.727 33.148C58.7097 33.1434 58.6916 33.1425 58.6739 33.1453C58.6738 33.1454 58.674 33.1453 58.6739 33.1453L57.1699 33.3912C57.1399 33.3961 57.1126 33.4115 57.0931 33.4347C57.0735 33.4579 57.0628 33.4874 57.0631 33.5178C57.0676 34.0988 56.911 34.6701 56.6109 35.1677C56.3107 35.6652 55.8786 36.07 55.3625 36.337C54.8464 36.6041 54.2665 36.723 53.6869 36.6807C53.1073 36.6383 52.5508 36.4363 52.0791 36.097C51.6073 35.7578 51.2386 35.2945 51.014 34.7586C50.7894 34.2226 50.7176 33.635 50.8064 33.0607C50.8953 32.4865 51.1415 31.948 51.5177 31.5051C51.8938 31.0622 52.3853 30.7321 52.9376 30.5513L52.938 30.5512C52.9669 30.5418 52.9914 30.5223 53.0072 30.4964C53.023 30.4705 53.029 30.4398 53.0241 30.4099C53.0241 30.4099 53.0241 30.4099 53.0241 30.4099L52.7784 28.9071C52.7784 28.907 52.7784 28.9073 52.7784 28.9071C52.7754 28.8895 52.7687 28.8722 52.7588 28.8572C52.7488 28.8421 52.7358 28.8293 52.7206 28.8195C52.7054 28.8098 52.6883 28.8033 52.6705 28.8006ZM52.4198 28.0779C52.5387 28.0456 52.6629 28.0386 52.7847 28.0573C52.9064 28.0761 53.0228 28.1201 53.1265 28.1865C53.2302 28.253 53.3188 28.3405 53.3866 28.4433C53.4543 28.5461 53.4998 28.662 53.5201 28.7835L53.5203 28.7846L53.7662 30.2885C53.8 30.4957 53.7586 30.7082 53.6495 30.8875C53.5404 31.0667 53.3708 31.2009 53.1714 31.266M52.4198 28.0779L52.4189 28.0782L52.4198 28.0779ZM52.4189 28.0782C51.3874 28.361 50.4571 28.9301 49.7355 29.7196L52.4189 28.0782ZM49.7355 29.7196C49.0139 30.509 48.5306 31.4866 48.3413 32.5393L49.7355 29.7196ZM53.1714 31.266C52.7512 31.4035 52.377 31.6548 52.0908 31.9919C51.8045 32.3289 51.6172 32.7387 51.5495 33.1758C51.4819 33.6128 51.5366 34.06 51.7075 34.4679C51.8785 34.8758 52.159 35.2284 52.5181 35.4865C52.8771 35.7447 53.3006 35.8985 53.7417 35.9307C54.1828 35.963 54.6242 35.8724 55.0169 35.6692C55.4097 35.466 55.7386 35.1579 55.967 34.7792C56.1954 34.4006 56.3145 33.9662 56.3112 33.5241M58.5536 32.4031C58.6753 32.3834 58.7998 32.3895 58.919 32.421C59.0381 32.4524 59.1494 32.5086 59.2455 32.5858C59.3416 32.663 59.4205 32.7595 59.4769 32.8691C59.5334 32.9786 59.5662 33.0988 59.5732 33.2219C59.6335 34.2898 59.3903 35.3532 58.8717 36.2886C58.3531 37.224 57.5803 37.9935 56.6427 38.5081C55.705 39.0226 54.6409 39.2613 53.5733 39.1964C52.5057 39.1314 51.4783 38.7656 50.6099 38.1413C49.7415 37.5169 49.0676 36.6594 48.6662 35.6681C48.2647 34.6767 48.1521 33.592 48.3413 32.5393M58.5536 32.4031L58.553 32.4032L58.5536 32.4031ZM58.553 32.4032L57.0496 32.649L58.553 32.4032ZM57.0496 32.649C56.8423 32.6826 56.6538 32.7893 56.5184 32.9498C56.383 33.1102 56.3095 33.3141 56.3112 33.5241M57.0496 32.649C57.0496 32.649 57.0496 32.649 57.0496 32.649V32.649Z" fill="#45413C"/>
<path d="M48.7148 37.9093C48.7148 38.6161 48.9956 39.2939 49.4954 39.7937C49.9951 40.2934 50.673 40.5742 51.3797 40.5742C52.0865 40.5742 52.7643 40.2934 53.2641 39.7937C53.7639 39.2939 54.0446 38.6161 54.0446 37.9093C54.0446 37.2025 53.7639 36.5247 53.2641 36.0249C52.7643 35.5251 52.0865 35.2444 51.3797 35.2444C50.673 35.2444 49.9951 35.5251 49.4954 36.0249C48.9956 36.5247 48.7148 37.2025 48.7148 37.9093Z" fill="#F0F0F0"/>
<path fill-rule="evenodd" clip-rule="evenodd" d="M49.2295 35.7591C49.7998 35.1888 50.5732 34.8684 51.3797 34.8684C52.1862 34.8684 52.9597 35.1888 53.53 35.7591C54.1002 36.3293 54.4206 37.1028 54.4206 37.9093C54.4206 38.7158 54.1002 39.4892 53.53 40.0595C52.9597 40.6298 52.1862 40.9501 51.3797 40.9501C50.5732 40.9501 49.7998 40.6298 49.2295 40.0595C48.6592 39.4892 48.3389 38.7158 48.3389 37.9093C48.3389 37.1028 48.6592 36.3293 49.2295 35.7591ZM51.3797 35.6204C50.7727 35.6204 50.1905 35.8615 49.7612 36.2908C49.332 36.72 49.0908 37.3022 49.0908 37.9093C49.0908 38.5163 49.332 39.0985 49.7612 39.5278C50.1905 39.957 50.7727 40.1982 51.3797 40.1982C51.9868 40.1982 52.569 39.957 52.9983 39.5278C53.4275 39.0985 53.6687 38.5163 53.6687 37.9093C53.6687 37.3022 53.4275 36.72 52.9983 36.2908C52.569 35.8615 51.9868 35.6204 51.3797 35.6204Z" fill="#45413C"/>
<path d="M40.4458 46.0423C40.4458 46.7491 40.7266 47.4269 41.2263 47.9267C41.7261 48.4265 42.4039 48.7072 43.1107 48.7072C43.8175 48.7072 44.4953 48.4265 44.9951 47.9267C45.4948 47.4269 45.7756 46.7491 45.7756 46.0423C45.7756 45.3356 45.4948 44.6577 44.9951 44.158C44.4953 43.6582 43.8175 43.3774 43.1107 43.3774C42.4039 43.3774 41.7261 43.6582 41.2263 44.158C40.7266 44.6577 40.4458 45.3356 40.4458 46.0423Z" fill="white"/>
<path fill-rule="evenodd" clip-rule="evenodd" d="M40.9605 43.8921C41.5307 43.3218 42.3042 43.0015 43.1107 43.0015C43.9172 43.0015 44.6906 43.3218 45.2609 43.8921C45.8312 44.4624 46.1516 45.2359 46.1516 46.0423C46.1516 46.8488 45.8312 47.6223 45.2609 48.1926C44.6906 48.7628 43.9172 49.0832 43.1107 49.0832C42.3042 49.0832 41.5307 48.7628 40.9605 48.1926C40.3902 47.6223 40.0698 46.8488 40.0698 46.0423C40.0698 45.2359 40.3902 44.4624 40.9605 43.8921ZM43.1107 43.7534C42.5036 43.7534 41.9214 43.9946 41.4922 44.4238C41.0629 44.8531 40.8218 45.4353 40.8218 46.0423C40.8218 46.6494 41.0629 47.2316 41.4922 47.6608C41.9214 48.0901 42.5036 48.3313 43.1107 48.3313C43.7178 48.3313 44.3 48.0901 44.7292 47.6608C45.1585 47.2316 45.3996 46.6494 45.3996 46.0423C45.3996 45.4353 45.1585 44.8531 44.7292 44.4238C44.3 43.9946 43.7178 43.7534 43.1107 43.7534Z" fill="#45413C"/>
<path d="M10.3017 46.5801L13.8426 46.28L13.1478 54.0664L9.60693 54.3672L10.3017 46.5801Z" fill="white"/>
<path fill-rule="evenodd" clip-rule="evenodd" d="M14.1091 46.0148C14.1875 46.0935 14.227 46.2028 14.2171 46.3134L13.5223 54.0998C13.5061 54.2817 13.3616 54.4256 13.1797 54.4411L9.63875 54.7418C9.52807 54.7512 9.41889 54.7112 9.34051 54.6325C9.26213 54.5538 9.22257 54.4444 9.23245 54.3338L9.92724 46.5466C9.94347 46.3648 10.088 46.2208 10.27 46.2054L13.8109 45.9054C13.9216 45.896 14.0307 45.9361 14.1091 46.0148ZM10.6481 46.928L10.0212 53.9547L12.8014 53.7185L13.4284 46.6924L10.6481 46.928Z" fill="#45413C"/>
<path d="M17.9048 37.7561L14.3518 37.7508C13.645 37.7498 12.9675 37.4681 12.4683 36.9677C11.9691 36.4672 11.6891 35.789 11.6899 35.0822V34.1934C11.6904 33.8434 11.7599 33.497 11.8942 33.1738C12.0286 32.8507 12.2253 32.5572 12.4731 32.3101C12.7209 32.063 13.015 31.8671 13.3385 31.7336C13.662 31.6002 14.0086 31.5317 14.3586 31.5322H16.1354C16.3688 31.5324 16.5999 31.5786 16.8154 31.6681C17.0309 31.7577 17.2266 31.8888 17.3914 32.054C17.5562 32.2193 17.6869 32.4153 17.7759 32.6311C17.8648 32.8468 17.9104 33.078 17.91 33.3113L17.9048 37.7561Z" fill="white"/>
<path fill-rule="evenodd" clip-rule="evenodd" d="M14.3581 31.9082C14.0575 31.9078 13.7598 31.9666 13.4819 32.0812C13.204 32.1958 12.9515 32.3641 12.7386 32.5763C12.5258 32.7886 12.3568 33.0407 12.2414 33.3182C12.126 33.5957 12.0664 33.8931 12.0659 34.1936V35.0822C12.0652 35.6893 12.3057 36.2723 12.7345 36.7022C13.1633 37.132 13.7452 37.374 14.3524 37.3749L17.5292 37.3796L17.5341 33.3109C17.5344 33.1269 17.4984 32.9445 17.4283 32.7744C17.3581 32.6044 17.2552 32.4498 17.1252 32.3195C16.9953 32.1893 16.841 32.0859 16.6711 32.0153C16.5013 31.9448 16.3192 31.9084 16.1353 31.9082L14.3581 31.9082ZM14.3589 31.1563C13.9596 31.1557 13.5642 31.2338 13.1951 31.3861C12.826 31.5384 12.4904 31.7619 12.2076 32.0439C11.9249 32.3258 11.7004 32.6608 11.5471 33.0295C11.3937 33.3982 11.3145 33.7935 11.314 34.1928L11.314 35.0819M14.3589 31.1563H16.1354C16.4182 31.1565 16.6985 31.2125 16.9596 31.3209C17.2207 31.4294 17.4579 31.5883 17.6576 31.7885C17.8573 31.9887 18.0156 32.2263 18.1234 32.4877C18.2312 32.7491 18.2865 33.0291 18.286 33.3118" fill="#45413C"/>
<path d="M9.30811 45.8124C9.30811 46.5191 9.58887 47.197 10.0886 47.6967C10.5884 48.1965 11.2662 48.4773 11.973 48.4773C12.6798 48.4773 13.3576 48.1965 13.8574 47.6967C14.3571 47.197 14.6379 46.5191 14.6379 45.8124C14.6379 45.1056 14.3571 44.4278 13.8574 43.928C13.3576 43.4282 12.6798 43.1475 11.973 43.1475C11.2662 43.1475 10.5884 43.4282 10.0886 43.928C9.58887 44.4278 9.30811 45.1056 9.30811 45.8124Z" fill="white"/>
<path fill-rule="evenodd" clip-rule="evenodd" d="M9.82327 43.6621C10.3935 43.0919 11.167 42.7715 11.9735 42.7715C12.78 42.7715 13.5534 43.0919 14.1237 43.6621C14.694 44.2324 15.0144 45.0059 15.0144 45.8124C15.0144 46.6188 14.694 47.3923 14.1237 47.9626C13.5534 48.5328 12.78 48.8532 11.9735 48.8532C11.167 48.8532 10.3935 48.5328 9.82327 47.9626C9.25299 47.3923 8.93262 46.6188 8.93262 45.8124C8.93262 45.0059 9.25299 44.2324 9.82327 43.6621ZM11.9735 43.5234C11.3664 43.5234 10.7842 43.7646 10.355 44.1938C9.92572 44.6231 9.68456 45.2053 9.68456 45.8124C9.68456 46.4194 9.92572 47.0016 10.355 47.4309C10.7842 47.8601 11.3664 48.1013 11.9735 48.1013C12.5805 48.1013 13.1627 47.8601 13.592 47.4309C14.0213 47.0016 14.2624 46.4194 14.2624 45.8124C14.2624 45.2053 14.0213 44.6231 13.592 44.1938C13.1627 43.7646 12.5805 43.5234 11.9735 43.5234Z" fill="#45413C"/>
<path d="M8.49951 54.9696C8.49951 55.3195 8.56844 55.6661 8.70237 55.9894C8.83629 56.3127 9.03258 56.6065 9.28004 56.8539C9.5275 57.1014 9.82128 57.2977 10.1446 57.4316C10.4679 57.5655 10.8144 57.6345 11.1644 57.6345C11.5144 57.6345 11.8609 57.5655 12.1842 57.4316C12.5075 57.2977 12.8013 57.1014 13.0488 56.8539C13.2962 56.6065 13.4925 56.3127 13.6265 55.9894C13.7604 55.6661 13.8293 55.3195 13.8293 54.9696C13.8293 54.6196 13.7604 54.2731 13.6265 53.9498C13.4925 53.6265 13.2962 53.3327 13.0488 53.0852C12.8013 52.8378 12.5075 52.6415 12.1842 52.5075C11.8609 52.3736 11.5144 52.3047 11.1644 52.3047C10.8144 52.3047 10.4679 52.3736 10.1446 52.5075C9.82128 52.6415 9.5275 52.8378 9.28004 53.0852C9.03258 53.3327 8.83629 53.6265 8.70237 53.9498C8.56844 54.2731 8.49951 54.6196 8.49951 54.9696Z" fill="white"/>
<path fill-rule="evenodd" clip-rule="evenodd" d="M10.0002 52.1602C10.3692 52.0074 10.7646 51.9287 11.1639 51.9287C11.5633 51.9287 11.9587 52.0074 12.3276 52.1602C12.6965 52.313 13.0318 52.537 13.3141 52.8194C13.5965 53.1017 13.8205 53.437 13.9733 53.8059C14.1261 54.1748 14.2048 54.5702 14.2048 54.9696C14.2048 55.3689 14.1261 55.7643 13.9733 56.1333C13.8205 56.5022 13.5965 56.8374 13.3141 57.1198C13.0318 57.4022 12.6965 57.6262 12.3276 57.779C11.9587 57.9318 11.5632 58.0104 11.1639 58.0104C10.7646 58.0104 10.3692 57.9318 10.0002 57.779C9.63129 57.6262 9.29607 57.4022 9.0137 57.1198C8.73133 56.8374 8.50734 56.5022 8.35452 56.1333C8.2017 55.7643 8.12305 55.3689 8.12305 54.9696C8.12305 54.5702 8.2017 54.1748 8.35452 53.8059C8.50734 53.437 8.73133 53.1017 9.0137 52.8194C9.29607 52.537 9.63129 52.313 10.0002 52.1602ZM11.1639 52.6807C10.8633 52.6807 10.5657 52.7399 10.288 52.8549C10.0103 52.9699 9.75795 53.1385 9.5454 53.3511C9.33286 53.5636 9.16426 53.8159 9.04923 54.0937C8.9342 54.3714 8.87499 54.669 8.87499 54.9696C8.87499 55.2702 8.9342 55.5678 9.04923 55.8455C9.16426 56.1232 9.33286 56.3755 9.5454 56.5881C9.75795 56.8006 10.0103 56.9692 10.288 57.0843C10.5657 57.1993 10.8633 57.2585 11.1639 57.2585C11.4645 57.2585 11.7621 57.1993 12.0398 57.0843C12.3176 56.9692 12.5699 56.8006 12.7824 56.5881C12.995 56.3755 13.1636 56.1232 13.2786 55.8455C13.3936 55.5678 13.4528 55.2702 13.4528 54.9696C13.4528 54.669 13.3936 54.3714 13.2786 54.0937C13.1636 53.8159 12.995 53.5636 12.7824 53.3511C12.5699 53.1385 12.3176 52.9699 12.0398 52.8549C11.7621 52.7399 11.4645 52.6807 11.1639 52.6807Z" fill="#45413C"/>
<path d="M12.6841 8.4939H37.5577V28.0377H12.6841V8.4939Z" fill="#00B8F0"/>
<path d="M15.6774 28.037H15.348C14.6412 28.037 13.9634 27.7562 13.4636 27.2565C12.9639 26.7567 12.6831 26.0789 12.6831 25.3721V11.1603C12.6828 10.8102 12.7515 10.4634 12.8853 10.1398C13.0191 9.81623 13.2154 9.52219 13.4628 9.27449C13.7103 9.02679 14.0042 8.8303 14.3277 8.69623C14.6511 8.56217 14.9979 8.49316 15.348 8.49316H34.8933L15.6774 28.037Z" fill="#4ACFFF"/>
<path d="M21.761 20.91C21.4162 20.9092 21.0858 20.7718 20.8421 20.5278C20.5984 20.2838 20.4613 19.9532 20.4609 19.6084C20.4609 18.706 20.0684 18.2774 19.9624 18.2428C19.7984 18.4279 19.6737 18.6444 19.5962 18.8792C19.5186 19.1139 19.4897 19.3621 19.5112 19.6084C19.503 19.9483 19.3623 20.2715 19.119 20.509C18.8757 20.7465 18.5492 20.8795 18.2092 20.8795C17.8692 20.8795 17.5427 20.7465 17.2994 20.509C17.0562 20.2715 16.9154 19.9483 16.9072 19.6084C16.9072 17.3841 18.2607 15.6411 19.9902 15.6411C21.7197 15.6411 23.0687 17.3841 23.0687 19.6084C23.0685 19.7798 23.0345 19.9494 22.9686 20.1076C22.9028 20.2659 22.8063 20.4095 22.6849 20.5305C22.5634 20.6514 22.4193 20.7471 22.2608 20.8122C22.1022 20.8774 21.9324 20.9106 21.761 20.91Z" fill="white"/>
<path fill-rule="evenodd" clip-rule="evenodd" d="M17.2837 19.6036C17.2906 19.8438 17.3905 20.072 17.5626 20.24C17.7356 20.4089 17.9679 20.5035 18.2097 20.5035C18.4515 20.5035 18.6838 20.4089 18.8569 20.24C19.0256 20.0753 19.125 19.8526 19.1352 19.6175C19.1131 19.3281 19.1486 19.037 19.2397 18.7612C19.3333 18.4779 19.4836 18.2167 19.6815 17.9934C19.7809 17.8814 19.9372 17.839 20.0795 17.8854C20.156 17.9104 20.2153 17.9533 20.2504 17.9815C20.2916 18.0146 20.3313 18.0538 20.3685 18.0965C20.4435 18.1822 20.52 18.2947 20.5886 18.433C20.7269 18.7114 20.8373 19.1015 20.8374 19.6079C20.8377 19.8533 20.9352 20.0885 21.1086 20.2621C21.2819 20.4357 21.5171 20.5335 21.7624 20.534L21.7615 20.9098L21.7628 20.534C21.8848 20.5344 22.0056 20.5108 22.1184 20.4645C22.2312 20.4181 22.3337 20.35 22.4201 20.264C22.5065 20.178 22.5751 20.0757 22.622 19.9632C22.6689 19.8506 22.693 19.7299 22.6932 19.6079C22.693 17.497 21.429 16.0171 19.9907 16.0171C18.5527 16.0171 17.2856 17.4957 17.2837 19.6036ZM21.7605 21.286C21.9813 21.2867 22.2 21.2439 22.4041 21.16C22.6084 21.0761 22.7941 20.9527 22.9506 20.7969C23.1071 20.6411 23.2313 20.456 23.3162 20.2521C23.4011 20.0482 23.4449 19.8296 23.4451 19.6088V19.6084C23.4451 17.2711 22.0112 15.2651 19.9907 15.2651C17.9708 15.2651 16.5317 17.2703 16.5317 19.6084L16.5318 19.6174C16.5424 20.0554 16.7238 20.472 17.0373 20.778C17.3508 21.0841 17.7716 21.2554 18.2097 21.2554C18.6478 21.2554 19.0686 21.0841 19.3821 20.778C19.6956 20.472 19.877 20.0554 19.8876 19.6174C19.8879 19.6035 19.8875 19.5895 19.8862 19.5757C19.8692 19.3802 19.8921 19.1834 19.9537 18.9971C19.9619 18.9722 19.9708 18.9476 19.9803 18.9232C20.0387 19.0901 20.0854 19.3164 20.0854 19.6084L20.0854 19.6088C20.0859 20.0531 20.2625 20.4791 20.5765 20.7935C20.8905 21.1078 21.3163 21.2849 21.7605 21.286Z" fill="#009FD9"/>
<path d="M28.4805 20.91C28.6516 20.9102 28.8211 20.8767 28.9793 20.8114C29.1375 20.7461 29.2813 20.6503 29.4024 20.5294C29.5235 20.4085 29.6197 20.265 29.6854 20.1069C29.751 19.9489 29.7849 19.7795 29.7851 19.6084C29.7851 18.706 30.1777 18.2774 30.2837 18.2428C30.4477 18.4279 30.5723 18.6444 30.6499 18.8792C30.7275 19.1139 30.7564 19.3621 30.7348 19.6084C30.743 19.9483 30.8838 20.2715 31.1271 20.509C31.3703 20.7465 31.6969 20.8795 32.0368 20.8795C32.3768 20.8795 32.7033 20.7465 32.9466 20.509C33.1899 20.2715 33.3307 19.9483 33.3388 19.6084C33.3388 17.3841 31.9853 15.6411 30.2596 15.6411C28.5339 15.6411 27.1812 17.3841 27.1812 19.6084C27.1815 19.9531 27.3185 20.2836 27.562 20.5275C27.8056 20.7715 28.1358 20.909 28.4805 20.91Z" fill="white"/>
<path fill-rule="evenodd" clip-rule="evenodd" d="M26.8052 19.6084C26.8052 17.2708 28.2431 15.2651 30.2596 15.2651C32.276 15.2651 33.7148 17.2706 33.7148 19.6084L33.7147 19.6174C33.7042 20.0554 33.5228 20.472 33.2093 20.778C32.8958 21.0841 32.475 21.2554 32.0368 21.2554C31.5987 21.2554 31.1779 21.0841 30.8644 20.778C30.5509 20.472 30.3695 20.0554 30.359 19.6174C30.3586 19.6035 30.3591 19.5895 30.3603 19.5757C30.3774 19.3802 30.3544 19.1834 30.2929 18.9971C30.2847 18.9722 30.2758 18.9476 30.2662 18.9232C30.2078 19.0901 30.1611 19.3164 30.1611 19.6084L30.1611 19.6088C30.1609 19.8293 30.1172 20.0476 30.0326 20.2512C29.9479 20.4548 29.824 20.6398 29.6679 20.7955C29.5118 20.9513 29.3266 21.0748 29.1228 21.1589C28.919 21.243 28.7006 21.2862 28.4801 21.286L28.4794 21.286C28.0353 21.2847 27.6097 21.1075 27.2959 20.7931C26.9822 20.4788 26.8057 20.053 26.8052 19.6088L26.8052 19.6084ZM27.5571 19.6081C27.5575 19.8533 27.6549 20.0884 27.8281 20.2619C28.0013 20.4354 28.2361 20.5332 28.4813 20.534C28.6029 20.5341 28.7234 20.5103 28.8358 20.4639C28.9484 20.4174 29.0507 20.3492 29.1369 20.2632C29.223 20.1772 29.2915 20.0751 29.3382 19.9627C29.3849 19.8503 29.409 19.7298 29.4092 19.6082M32.9629 19.6036C32.9609 17.4954 31.6936 16.0171 30.2596 16.0171C28.8247 16.0171 27.5572 17.4974 27.5571 19.6081" fill="#009FD9"/>
<path fill-rule="evenodd" clip-rule="evenodd" d="M12.3081 8.49389C12.3081 8.28625 12.4764 8.11792 12.6841 8.11792H37.5577C37.7653 8.11792 37.9337 8.28625 37.9337 8.49389V28.0377C37.9337 28.2454 37.7653 28.4137 37.5577 28.4137H12.6841C12.4764 28.4137 12.3081 28.2454 12.3081 28.0377V8.49389ZM13.0601 8.86987V27.6617H37.1817V8.86987H13.0601Z" fill="#45413C"/>
<path d="M18.1946 57.4005C18.2499 57.3717 18.2984 57.3317 18.3372 57.283C18.3759 57.2342 18.4039 57.1779 18.4195 57.1176C18.435 57.0573 18.4377 56.9944 18.4273 56.9331C18.4169 56.8717 18.3938 56.8131 18.3593 56.7613C17.8726 56.0281 17.1883 55.4476 16.3856 55.087C15.5828 54.7263 14.6944 54.6002 13.823 54.7233C12.9516 54.8464 12.1329 55.2136 11.4614 55.7825C10.79 56.3513 10.2932 57.0986 10.0287 57.938C9.76409 58.7773 9.74248 59.6744 9.96634 60.5255C10.1902 61.3766 10.6504 62.1469 11.2937 62.7475C11.937 63.348 12.7371 63.7542 13.6016 63.9191C14.466 64.084 15.3595 64.0008 16.1787 63.6792C16.2364 63.6561 16.2887 63.6212 16.3322 63.5768C16.3757 63.5323 16.4095 63.4792 16.4313 63.421C16.4531 63.3627 16.4625 63.3006 16.4589 63.2385C16.4552 63.1764 16.4387 63.1157 16.4103 63.0604L15.7899 61.8685C15.7411 61.7746 15.6603 61.7012 15.5621 61.6616C15.4639 61.6221 15.3548 61.6189 15.2545 61.6527C14.827 61.7974 14.3678 61.8207 13.9278 61.7203C13.4878 61.6199 13.0843 61.3995 12.7619 61.0837C12.4395 60.7678 12.2109 60.3689 12.1014 59.931C11.992 59.4932 12.0059 59.0336 12.1418 58.6032C12.2776 58.1728 12.53 57.7885 12.8709 57.4928C13.2119 57.1971 13.6281 57.0017 14.0734 56.9281C14.5186 56.8545 14.9756 56.9058 15.3935 57.0761C15.8115 57.2464 16.1741 57.5291 16.4411 57.893C16.5038 57.9785 16.5951 58.0388 16.6985 58.0628C16.8018 58.0868 16.9103 58.0729 17.0043 58.0238L18.1946 57.4005Z" fill="#656769"/>
<path fill-rule="evenodd" clip-rule="evenodd" d="M13.7704 54.351C14.7121 54.218 15.6722 54.3543 16.5397 54.744C17.4072 55.1337 18.1466 55.761 18.6726 56.5534C18.6726 56.5534 18.6725 56.5533 18.6726 56.5534C18.7361 56.6491 18.7789 56.7571 18.798 56.8705C18.8172 56.9839 18.8122 57.1 18.7835 57.2114C18.7548 57.3228 18.703 57.4268 18.6315 57.5169C18.56 57.6068 18.4705 57.6807 18.3687 57.7337L18.1946 57.4004L18.3682 57.734L17.1787 58.3569C17.005 58.4476 16.8043 58.4733 16.6134 58.429C16.4225 58.3846 16.2538 58.2733 16.1379 58.1153C16.1379 58.1153 16.1379 58.1154 16.1379 58.1153C15.912 57.8075 15.6052 57.5683 15.2516 57.4242C14.898 57.2801 14.5114 57.2368 14.1346 57.299C13.7579 57.3613 13.4057 57.5267 13.1173 57.7768C12.8288 58.027 12.6152 58.3522 12.5003 58.7164C12.3854 59.0805 12.3736 59.4694 12.4662 59.8398C12.5588 60.2103 12.7522 60.5479 13.025 60.8151C13.2978 61.0823 13.6392 61.2688 14.0115 61.3537C14.3838 61.4387 14.7723 61.4189 15.134 61.2966C15.3194 61.2341 15.5213 61.2398 15.7027 61.3129C15.8841 61.386 16.0333 61.5216 16.1235 61.6951L16.7447 62.8886C16.797 62.9905 16.8275 63.1022 16.8342 63.2166C16.8409 63.3309 16.8236 63.4454 16.7834 63.5527C16.7432 63.66 16.6811 63.7578 16.601 63.8397C16.5209 63.9216 16.4245 63.9858 16.3182 64.0283L16.3161 64.0292C15.4308 64.3767 14.4653 64.4665 13.5311 64.2884C12.5969 64.1102 11.7323 63.6712 11.0371 63.0223C10.3419 62.3733 9.84465 61.5408 9.60273 60.6211C9.36082 59.7014 9.38417 58.732 9.67008 57.8249C9.95598 56.9179 10.4928 56.1104 11.2184 55.4956C11.944 54.8809 12.8288 54.484 13.7704 54.351ZM16.2315 55.4299C15.4935 55.0983 14.6767 54.9824 13.8756 55.0956C13.0745 55.2087 12.3218 55.5463 11.7045 56.0693C11.0871 56.5923 10.6305 57.2794 10.3872 58.051C10.144 58.8226 10.1241 59.6474 10.3299 60.4298C10.5358 61.2123 10.9588 61.9205 11.5502 62.4726C12.1417 63.0247 12.8773 63.3981 13.672 63.5497C14.4667 63.7013 15.2882 63.6249 16.0413 63.3292L16.1787 63.6792L16.0392 63.33C16.0483 63.3264 16.0566 63.3209 16.0635 63.3138C16.0704 63.3068 16.0757 63.2984 16.0792 63.2892C16.0826 63.28 16.0841 63.2701 16.0835 63.2603C16.083 63.2507 16.0804 63.2413 16.0761 63.2327C16.076 63.2325 16.0759 63.2323 16.0758 63.2321L15.4564 62.0421C15.449 62.0278 15.4365 62.0164 15.4216 62.0103C15.4066 62.0043 15.3901 62.0038 15.3748 62.0089C14.8816 62.1757 14.3518 62.2027 13.8441 62.0868C13.3364 61.9709 12.8708 61.7167 12.4988 61.3522C12.1268 60.9878 11.863 60.5274 11.7367 60.0222C11.6104 59.517 11.6265 58.9867 11.7832 58.4901C11.9399 57.9934 12.2312 57.5499 12.6246 57.2087C13.018 56.8676 13.4983 56.642 14.0121 56.5571C14.5259 56.4723 15.0532 56.5314 15.5354 56.7279C16.0177 56.9244 16.4361 57.2507 16.7442 57.6705C16.7538 57.6836 16.7678 57.6929 16.7835 57.6965C16.7993 57.7002 16.8157 57.6981 16.83 57.6907C16.8301 57.6906 16.83 57.6907 16.83 57.6907L18.0202 57.0674L18.0211 57.0669C18.0295 57.0625 18.0369 57.0564 18.0428 57.049C18.0487 57.0416 18.053 57.033 18.0554 57.0238C18.0577 57.0146 18.0582 57.005 18.0566 56.9956C18.055 56.9863 18.0515 56.9773 18.0462 56.9694C17.5988 56.2953 16.9695 55.7615 16.2315 55.4299Z" fill="#45413C"/>
<path d="M62.8135 14.3193C62.6891 15.7299 62.1466 17.0711 61.2553 18.1715C60.3641 19.2718 59.1648 20.0811 57.8108 20.4958L55.3512 48.4426C55.2892 49.1467 54.95 49.7973 54.4083 50.2513C53.8666 50.7053 53.1667 50.9256 52.4626 50.8635C51.7585 50.8015 51.1079 50.4623 50.6539 49.9206C50.1999 49.3789 49.9797 48.679 50.0417 47.9749L52.5014 20.0289C51.3609 19.4461 50.3991 18.5661 49.7175 17.4818C49.0359 16.3976 48.6598 15.1493 48.629 13.869C48.5982 12.5887 48.9138 11.3238 49.5425 10.208C50.1711 9.09224 51.0895 8.16698 52.2006 7.53002C52.3414 7.44908 52.5016 7.4083 52.664 7.41211C52.8264 7.41592 52.9846 7.46418 53.1214 7.55163C53.2582 7.63908 53.3685 7.76238 53.4401 7.90812C53.5118 8.05386 53.5421 8.21645 53.5278 8.37821L53.0728 13.5418C53.0542 13.774 53.1268 14.0044 53.2751 14.184L54.8895 16.1097C55.0419 16.2903 55.2596 16.4033 55.495 16.424C55.7304 16.4447 55.9644 16.3715 56.146 16.2203L58.0718 14.6066C58.2488 14.4554 58.3602 14.2413 58.3823 14.0095L58.8335 8.84592C58.8479 8.68428 58.9064 8.52969 59.0025 8.39893C59.0986 8.26818 59.2287 8.16626 59.3787 8.10426C59.5287 8.04225 59.6928 8.02253 59.8532 8.04723C60.0136 8.07193 60.1641 8.14011 60.2885 8.24437C61.1683 8.97809 61.8575 9.91383 62.2972 10.9717C62.7369 12.0296 62.9141 13.1781 62.8135 14.3193Z" fill="white"/>
<path d="M62.8139 14.3193C62.6895 15.7298 62.1469 17.0711 61.2557 18.1714C60.3645 19.2717 59.1651 20.0811 57.8112 20.4957L55.3516 48.4426C55.3213 48.7913 55.2226 49.1307 55.0609 49.4412C54.8993 49.7517 54.678 50.0273 54.4097 50.2521C54.1414 50.477 53.8314 50.6467 53.4974 50.7515C53.1634 50.8563 52.812 50.8943 52.4634 50.8631L55.496 16.424C55.7311 16.4452 55.9652 16.3728 56.1472 16.2224L58.0729 14.6088C58.25 14.4576 58.3613 14.2435 58.3834 14.0117L58.8346 8.8481C58.8491 8.68646 58.9075 8.53186 59.0036 8.40111C59.0998 8.27036 59.2299 8.16844 59.3798 8.10644C59.5298 8.04443 59.6939 8.02471 59.8543 8.04941C60.0147 8.07411 60.1653 8.14229 60.2896 8.24654C61.169 8.98012 61.8578 9.91553 62.2974 10.973C62.7369 12.0304 62.9141 13.1785 62.8139 14.3193Z" fill="#DAEDF7"/>
<path d="M51.8076 48.2088C51.8076 48.4444 51.9012 48.6703 52.0677 48.8368C52.2343 49.0033 52.4601 49.0969 52.6957 49.0969C52.9312 49.0969 53.1571 49.0033 53.3236 48.8368C53.4901 48.6703 53.5837 48.4444 53.5837 48.2088C53.5837 47.9733 53.4901 47.7474 53.3236 47.5809C53.1571 47.4144 52.9312 47.3208 52.6957 47.3208C52.4601 47.3208 52.2343 47.4144 52.0677 47.5809C51.9012 47.7474 51.8076 47.9733 51.8076 48.2088Z" fill="#45413C"/>
<path fill-rule="evenodd" clip-rule="evenodd" d="M52.6552 7.78798C52.5616 7.78578 52.4691 7.80929 52.388 7.85597C51.3356 8.45925 50.4654 9.33579 49.87 10.3926C49.2746 11.4493 48.9757 12.6473 49.0049 13.86C49.0341 15.0726 49.3902 16.2548 50.0358 17.2817C50.6814 18.3086 51.5923 19.1421 52.6724 19.6941C52.8088 19.7638 52.8893 19.9092 52.8759 20.0618L50.4163 48.0079C50.363 48.6127 50.5521 49.2138 50.9421 49.6791C51.332 50.1444 51.8909 50.4357 52.4956 50.489C53.1004 50.5423 53.7015 50.3531 54.1668 49.9632C54.6321 49.5732 54.9234 49.0144 54.9767 48.4096L57.4363 20.4629C57.4497 20.3103 57.5543 20.1812 57.7007 20.1363C58.9831 19.7436 60.119 18.977 60.9632 17.9348C61.8073 16.8927 62.3212 15.6223 62.439 14.2863C62.5342 13.2056 62.3664 12.1178 61.95 11.116C61.5336 10.1142 60.8809 9.22797 60.0477 8.53311L60.047 8.53249C59.9753 8.47238 59.8884 8.43306 59.796 8.41882C59.7035 8.40458 59.6088 8.41595 59.5224 8.4517C59.4359 8.48746 59.3609 8.54623 59.3054 8.62162C59.25 8.69698 59.2163 8.78607 59.208 8.87923C59.208 8.87928 59.208 8.87918 59.208 8.87923L58.7566 14.0452C58.7252 14.3742 58.5672 14.678 58.3159 14.8925L58.3133 14.8948L56.3875 16.5084L56.3866 16.5092C56.1287 16.7239 55.7964 16.828 55.462 16.7985C55.1277 16.7691 54.8186 16.6087 54.6022 16.3522L54.6014 16.3513L52.9852 14.4234C52.7746 14.1684 52.6717 13.8414 52.6981 13.5118L52.6983 13.5088L53.1532 8.34521C53.1615 8.25194 53.144 8.15803 53.1027 8.07399C53.0614 7.98995 52.9978 7.91885 52.9189 7.86843C52.84 7.818 52.7488 7.79017 52.6552 7.78798ZM63.1881 14.3524C63.0571 15.8374 62.4858 17.2496 61.5475 18.4081C60.6627 19.5004 59.4896 20.3204 58.1636 20.7765L55.7257 48.4756C55.655 49.279 55.2679 50.0214 54.6498 50.5395C54.0317 51.0575 53.233 51.3088 52.4296 51.2381C51.6262 51.1673 50.8838 50.7803 50.3658 50.1621C49.8477 49.544 49.5964 48.7454 49.6672 47.942C49.6672 47.942 49.6672 47.942 49.6672 47.942L52.105 20.2437C51.0028 19.6321 50.0715 18.7514 49.3992 17.6819C48.6815 16.5403 48.2856 15.2261 48.2531 13.878C48.2207 12.53 48.553 11.1982 49.2149 10.0235C49.8768 8.84867 50.8438 7.87449 52.0136 7.20384C52.2139 7.08879 52.4419 7.03082 52.6728 7.03624C52.9039 7.04166 53.1291 7.11035 53.3239 7.23482C53.5186 7.3593 53.6755 7.5348 53.7775 7.74224C53.8795 7.94968 53.9226 8.18111 53.9023 8.41136L53.4475 13.5731C53.4475 13.5727 53.4476 13.5722 53.4476 13.5718L53.0729 13.5418L53.4473 13.5748L53.4475 13.5731C53.4371 13.7071 53.479 13.8399 53.5643 13.9437L53.5632 13.9424L53.2751 14.184L53.565 13.9446L55.1769 15.8673L54.8895 16.1097L55.1776 15.8682L55.1772 15.8677C55.2656 15.9721 55.3916 16.0375 55.5279 16.0495C55.6643 16.0615 55.7998 16.0191 55.905 15.9317L55.9046 15.9321L56.146 16.2202L55.9054 15.9313L57.8287 14.3197C57.8284 14.32 57.828 14.3203 57.8276 14.3206L58.0718 14.6066L57.8303 14.3184L57.8287 14.3197C57.9306 14.2322 57.9948 14.1088 58.0079 13.9751L58.0078 13.9768L58.3823 14.0095L58.008 13.9738L58.4589 8.81319L58.459 8.81247C58.4796 8.5824 58.5628 8.36235 58.6996 8.17624C58.8364 7.99012 59.0216 7.84506 59.2351 7.75681C59.4485 7.66855 59.6821 7.64048 59.9104 7.67564C60.1386 7.71077 60.3527 7.80771 60.5297 7.95592C60.5295 7.95582 60.5294 7.95572 60.5293 7.95562L60.2885 8.24436L60.53 7.95623C60.5299 7.95613 60.5298 7.95603 60.5297 7.95592C61.4559 8.72846 62.1815 9.71365 62.6444 10.8274C63.1074 11.9413 63.2939 13.1507 63.1881 14.3524Z" fill="#45413C"/>
<path d="M50.9322 37.9055C50.0986 37.3365 49.4454 36.5407 49.0497 35.6123C48.654 34.6838 48.5324 33.6615 48.6991 32.6661C48.8659 31.6707 49.3142 30.7439 49.9909 29.9952C50.6676 29.2464 51.5445 28.707 52.518 28.4408C52.5862 28.4223 52.6575 28.4182 52.7273 28.429C52.797 28.4397 52.8638 28.4649 52.9233 28.503C52.9827 28.5412 53.0335 28.5913 53.0724 28.6503C53.1112 28.7092 53.1373 28.7757 53.1489 28.8453L53.3948 30.3492C53.4142 30.4678 53.3905 30.5893 53.328 30.692C53.2655 30.7946 53.1684 30.8714 53.0542 30.9087C52.6993 31.0254 52.3717 31.2126 52.0909 31.459C51.8102 31.7054 51.582 32.0059 51.4202 32.3426L50.9322 37.9055Z" fill="#656769"/>
<path fill-rule="evenodd" clip-rule="evenodd" d="M52.6701 28.8006C52.6523 28.7978 52.6342 28.7988 52.6168 28.8035C51.7127 29.0509 50.8983 29.5519 50.2698 30.2473C49.6412 30.9428 49.2249 31.8037 49.0699 32.7282C48.915 33.6528 49.028 34.6024 49.3956 35.4648C49.6752 36.121 50.0934 36.7058 50.6183 37.1808L51.0457 32.3098C51.0496 32.2646 51.0617 32.2206 51.0813 32.1797C51.2651 31.7974 51.5241 31.4562 51.843 31.1764C52.1618 30.8966 52.5338 30.6841 52.9367 30.5515L52.9377 30.5512C52.9666 30.5418 52.9911 30.5223 53.0069 30.4964C53.0227 30.4705 53.0287 30.4398 53.0238 30.4099C53.0238 30.4099 53.0238 30.4099 53.0238 30.4098L52.7781 28.9071C52.778 28.907 52.778 28.9068 52.778 28.9067C52.775 28.889 52.7683 28.8722 52.7585 28.8572C52.7485 28.8421 52.7355 28.8293 52.7203 28.8195C52.7051 28.8098 52.688 28.8033 52.6701 28.8006ZM52.4195 28.0779C52.5383 28.0456 52.6626 28.0386 52.7844 28.0573C52.9061 28.0761 53.0225 28.1201 53.1262 28.1865C53.2299 28.253 53.3185 28.3405 53.3862 28.4433C53.454 28.5461 53.4995 28.662 53.5198 28.7835L53.52 28.7846L53.7659 30.2885L53.7659 30.2886C53.7997 30.4957 53.7583 30.7082 53.6491 30.8875C53.5401 31.0666 53.3706 31.2008 53.1712 31.2659C52.8646 31.3669 52.5816 31.5287 52.3389 31.7416C52.1128 31.94 51.9261 32.1792 51.7885 32.4463L51.3067 37.9384C51.2951 38.0714 51.2137 38.1882 51.0931 38.2453C50.9724 38.3024 50.8305 38.2913 50.7202 38.216C49.8274 37.6065 49.1277 36.7541 48.7038 35.7597C48.28 34.7652 48.1497 33.6702 48.3283 32.604C48.507 31.5378 48.9871 30.5451 49.712 29.7431C50.4368 28.9411 51.3761 28.3633 52.4188 28.0781L52.4195 28.0779Z" fill="#45413C"/>
</g>
<defs>
<clipPath id="clip0">
<rect width="64" height="64" fill="white"/>
</clipPath>
</defs>
</svg>

