<svg viewBox="0 0 64 64" fill="none" xmlns="http://www.w3.org/2000/svg">
<path d="M0 32C0 40.4869 3.37142 48.6263 9.37258 54.6274C15.3737 60.6286 23.5131 64 32 64C40.4869 64 48.6263 60.6286 54.6274 54.6274C60.6286 48.6263 64 40.4869 64 32C64 23.5131 60.6286 15.3737 54.6274 9.37258C48.6263 3.37142 40.4869 0 32 0C23.5131 0 15.3737 3.37142 9.37258 9.37258C3.37142 15.3737 0 23.5131 0 32Z" fill="#C7F0FF"/>
<path d="M40.647 24.7512H37.5766C37.2054 22.8457 36.4547 21.0344 35.3694 19.4248L37.5414 17.2536C37.6455 17.1496 37.7281 17.0261 37.7845 16.8901C37.8409 16.7541 37.8699 16.6084 37.8699 16.4612C37.8699 16.314 37.8409 16.1683 37.7845 16.0323C37.7281 15.8963 37.6455 15.7728 37.5414 15.6688L35.1646 13.2928C35.0606 13.1887 34.9371 13.1061 34.8011 13.0497C34.6651 12.9933 34.5194 12.9643 34.3722 12.9643C34.225 12.9643 34.0793 12.9933 33.9433 13.0497C33.8073 13.1061 33.6838 13.1887 33.5798 13.2928L31.4086 15.464C29.7981 14.3787 27.986 13.6282 26.0798 13.2568V10.1872C26.0798 9.89016 25.9618 9.60528 25.7518 9.39524C25.5417 9.1852 25.2568 9.0672 24.9598 9.0672H21.5998C21.3028 9.0672 21.0179 9.1852 20.8078 9.39524C20.5978 9.60528 20.4798 9.89016 20.4798 10.1872V13.2568C18.5747 13.6283 16.7636 14.3789 15.1542 15.464L12.9822 13.2928C12.8782 13.1888 12.7547 13.1063 12.6188 13.05C12.4829 12.9937 12.3373 12.9647 12.1902 12.9647C12.0431 12.9647 11.8975 12.9937 11.7616 13.05C11.6257 13.1063 11.5022 13.1888 11.3982 13.2928L9.0214 15.6688C8.91727 15.7728 8.83466 15.8963 8.7783 16.0323C8.72193 16.1683 8.69292 16.314 8.69292 16.4612C8.69292 16.6084 8.72193 16.7541 8.7783 16.8901C8.83466 17.0261 8.91727 17.1496 9.0214 17.2536L11.1934 19.4248C10.1081 21.0344 9.35745 22.8457 8.9862 24.7512H5.9198C5.62276 24.7512 5.33789 24.8692 5.12785 25.0792C4.91781 25.2893 4.7998 25.5742 4.7998 25.8712V29.2312C4.7998 29.5282 4.91781 29.8131 5.12785 30.0232C5.33789 30.2332 5.62276 30.3512 5.9198 30.3512H8.99021C9.36017 32.2573 10.1097 34.0695 11.1942 35.68L9.0222 37.852C8.91819 37.956 8.83568 38.0795 8.77939 38.2154C8.7231 38.3513 8.69412 38.4969 8.69412 38.644C8.69412 38.7911 8.7231 38.9367 8.77939 39.0726C8.83568 39.2085 8.91819 39.332 9.0222 39.436L11.399 41.8128C11.503 41.9168 11.6265 41.9993 11.7624 42.0556C11.8983 42.1119 12.0439 42.1409 12.191 42.1409C12.3381 42.1409 12.4837 42.1119 12.6196 42.0556C12.7555 41.9993 12.879 41.9168 12.983 41.8128L15.155 39.6416C16.7643 40.726 18.5751 41.4761 20.4798 41.8472V44.9168C20.4798 45.2138 20.5978 45.4987 20.8078 45.7088C21.0179 45.9188 21.3028 46.0368 21.5998 46.0368H24.9598C25.2568 46.0368 25.5417 45.9188 25.7518 45.7088C25.9618 45.4987 26.0798 45.2138 26.0798 44.9168V41.8472C27.9851 41.4755 29.7964 40.725 31.4062 39.64L33.5774 41.8112C33.6814 41.9153 33.8049 41.9979 33.9409 42.0543C34.0769 42.1107 34.2226 42.1397 34.3698 42.1397C34.517 42.1397 34.6627 42.1107 34.7987 42.0543C34.9347 41.9979 35.0582 41.9153 35.1622 41.8112L37.539 39.4344C37.643 39.3304 37.7255 39.2069 37.7818 39.071C37.8381 38.9351 37.8671 38.7895 37.8671 38.6424C37.8671 38.4953 37.8381 38.3497 37.7818 38.2138C37.7255 38.0779 37.643 37.9544 37.539 37.8504L35.3694 35.68C36.4546 34.0707 37.2053 32.2596 37.5766 30.3544H40.647C40.944 30.3544 41.2289 30.2364 41.439 30.0264C41.649 29.8163 41.767 29.5314 41.767 29.2344V25.8744C41.7674 25.727 41.7388 25.5811 41.6827 25.4448C41.6266 25.3086 41.5441 25.1847 41.4401 25.0804C41.3361 24.976 41.2124 24.8932 41.0764 24.8368C40.9403 24.7803 40.7943 24.7512 40.647 24.7512ZM23.2814 35.9512C21.62 35.9512 19.996 35.4585 18.6146 34.5355C17.2332 33.6125 16.1566 32.3006 15.5208 30.7657C14.885 29.2308 14.7187 27.5419 15.0428 25.9124C15.3669 24.283 16.1669 22.7863 17.3417 21.6115C18.5165 20.4367 20.0132 19.6367 21.6426 19.3126C23.2721 18.9885 24.961 19.1548 26.4959 19.7906C28.0308 20.4264 29.3427 21.503 30.2657 22.8844C31.1888 24.2658 31.6814 25.8898 31.6814 27.5512C31.6818 28.6547 31.4648 29.7475 31.0428 30.7671C30.6207 31.7867 30.0019 32.7132 29.2217 33.4935C28.4414 34.2739 27.5151 34.8929 26.4956 35.3151C25.476 35.7374 24.3833 35.9546 23.2798 35.9544L23.2814 35.9512Z" fill="#ADC4D9"/>
<path d="M11.1946 19.4248C10.2509 20.8247 9.5589 22.3788 9.14984 24.0168C10.568 21.5187 12.623 19.4411 15.1055 17.9958C17.588 16.5505 20.4093 15.789 23.2818 15.789C26.1544 15.789 28.9757 16.5505 31.4582 17.9958C33.9407 19.4411 35.9957 21.5187 37.4138 24.0168C37.0051 22.3788 36.3133 20.8248 35.3698 19.4248L37.5418 17.2536C37.646 17.1496 37.7286 17.0261 37.785 16.8901C37.8413 16.7541 37.8703 16.6084 37.8703 16.4612C37.8703 16.314 37.8413 16.1683 37.785 16.0323C37.7286 15.8963 37.646 15.7728 37.5418 15.6688L35.165 13.2928C35.061 13.1887 34.9375 13.1061 34.8015 13.0497C34.6656 12.9933 34.5198 12.9643 34.3726 12.9643C34.2255 12.9643 34.0797 12.9933 33.9437 13.0497C33.8078 13.1061 33.6843 13.1887 33.5802 13.2928L31.409 15.464C29.7986 14.3787 27.9864 13.6282 26.0802 13.2568V10.1872C26.0802 9.89016 25.9622 9.60528 25.7522 9.39524C25.5422 9.1852 25.2573 9.0672 24.9602 9.0672H21.6002C21.3032 9.0672 21.0183 9.1852 20.8083 9.39524C20.5982 9.60528 20.4802 9.89016 20.4802 10.1872V13.2568C18.5751 13.6283 16.764 14.3789 15.1546 15.464L12.9826 13.2928C12.8786 13.1888 12.7552 13.1063 12.6193 13.05C12.4834 12.9937 12.3377 12.9647 12.1906 12.9647C12.0436 12.9647 11.8979 12.9937 11.762 13.05C11.6261 13.1063 11.5026 13.1888 11.3986 13.2928L9.02184 15.6688C8.91771 15.7728 8.8351 15.8963 8.77873 16.0323C8.72237 16.1683 8.69336 16.314 8.69336 16.4612C8.69336 16.6084 8.72237 16.7541 8.77873 16.8901C8.8351 17.0261 8.91771 17.1496 9.02184 17.2536L11.1946 19.4248Z" fill="#C0DCEB"/>
<path d="M37.5416 39.4344C37.6456 39.3304 37.7281 39.2069 37.7844 39.071C37.8407 38.9351 37.8697 38.7895 37.8697 38.6424C37.8697 38.4953 37.8407 38.3497 37.7844 38.2138C37.7281 38.0779 37.6456 37.9544 37.5416 37.8504L35.3696 35.68C36.3129 34.2802 37.0046 32.7265 37.4136 31.0888C35.9955 33.5869 33.9405 35.6645 31.458 37.1098C28.9755 38.5552 26.1542 39.3166 23.2816 39.3166C20.409 39.3166 17.5878 38.5552 15.1053 37.1098C12.6228 35.6645 10.5678 33.5869 9.14962 31.0888C9.55852 32.7267 10.2505 34.2804 11.1944 35.68L9.02242 37.852C8.9184 37.956 8.83589 38.0795 8.7796 38.2154C8.72331 38.3513 8.69434 38.4969 8.69434 38.644C8.69434 38.7911 8.72331 38.9367 8.7796 39.0726C8.83589 39.2085 8.9184 39.332 9.02242 39.436L11.3992 41.8128C11.5032 41.9168 11.6267 41.9993 11.7626 42.0556C11.8985 42.1119 12.0441 42.1409 12.1912 42.1409C12.3383 42.1409 12.484 42.1119 12.6198 42.0556C12.7557 41.9993 12.8792 41.9168 12.9832 41.8128L15.1552 39.6416C16.7647 40.7257 18.5754 41.4757 20.48 41.8472V44.9168C20.48 45.2139 20.598 45.4987 20.8081 45.7088C21.0181 45.9188 21.303 46.0368 21.6 46.0368H24.96C25.2571 46.0368 25.5419 45.9188 25.752 45.7088C25.962 45.4987 26.08 45.2139 26.08 44.9168V41.8472C27.9853 41.4752 29.7965 40.7246 31.4064 39.64L33.5776 41.8112C33.6816 41.9153 33.8052 41.9979 33.9411 42.0543C34.0771 42.1107 34.2228 42.1397 34.37 42.1397C34.5172 42.1397 34.6629 42.1107 34.7989 42.0543C34.9349 41.9979 35.0584 41.9153 35.1624 41.8112L37.5416 39.4344Z" fill="#8CA4B8"/>
<path d="M23.2799 35.9544C21.6185 35.9544 19.9945 35.4617 18.6131 34.5387C17.2317 33.6157 16.1551 32.3038 15.5193 30.7689C14.8835 29.234 14.7172 27.545 15.0413 25.9156C15.3654 24.2862 16.1654 22.7894 17.3402 21.6147C18.515 20.4399 20.0117 19.6399 21.6411 19.3158C23.2706 18.9917 24.9595 19.158 26.4944 19.7938C28.0293 20.4295 29.3412 21.5062 30.2642 22.8876C31.1872 24.2689 31.6799 25.893 31.6799 27.5544C31.6799 29.7822 30.7949 31.9188 29.2196 33.4941C27.6443 35.0694 25.5077 35.9544 23.2799 35.9544V35.9544Z" stroke="#45413C" stroke-width="1.7888" stroke-miterlimit="10"/>
<path d="M40.647 24.7512H37.5766C37.2054 22.8457 36.4547 21.0344 35.3694 19.4248L37.5414 17.2536C37.6455 17.1496 37.7281 17.0261 37.7845 16.8901C37.8409 16.7541 37.8699 16.6084 37.8699 16.4612C37.8699 16.314 37.8409 16.1683 37.7845 16.0323C37.7281 15.8963 37.6455 15.7728 37.5414 15.6688L35.1646 13.2928C35.0606 13.1887 34.9371 13.1061 34.8011 13.0497C34.6651 12.9933 34.5194 12.9643 34.3722 12.9643C34.225 12.9643 34.0793 12.9933 33.9433 13.0497C33.8073 13.1061 33.6838 13.1887 33.5798 13.2928L31.4086 15.464C29.7981 14.3787 27.986 13.6282 26.0798 13.2568V10.1872C26.0798 9.89016 25.9618 9.60528 25.7518 9.39524C25.5417 9.1852 25.2568 9.0672 24.9598 9.0672H21.5998C21.3028 9.0672 21.0179 9.1852 20.8078 9.39524C20.5978 9.60528 20.4798 9.89016 20.4798 10.1872V13.2568C18.5747 13.6283 16.7636 14.3789 15.1542 15.464L12.9822 13.2928C12.8782 13.1888 12.7547 13.1063 12.6188 13.05C12.4829 12.9937 12.3373 12.9647 12.1902 12.9647C12.0431 12.9647 11.8975 12.9937 11.7616 13.05C11.6257 13.1063 11.5022 13.1888 11.3982 13.2928L9.0214 15.6688C8.91727 15.7728 8.83466 15.8963 8.7783 16.0323C8.72193 16.1683 8.69292 16.314 8.69292 16.4612C8.69292 16.6084 8.72193 16.7541 8.7783 16.8901C8.83466 17.0261 8.91727 17.1496 9.0214 17.2536L11.1934 19.4248C10.1081 21.0344 9.35745 22.8457 8.9862 24.7512H5.9198C5.62276 24.7512 5.33789 24.8692 5.12785 25.0792C4.91781 25.2893 4.7998 25.5742 4.7998 25.8712V29.2312C4.7998 29.5282 4.91781 29.8131 5.12785 30.0232C5.33789 30.2332 5.62276 30.3512 5.9198 30.3512H8.99021C9.36017 32.2573 10.1097 34.0695 11.1942 35.68L9.0222 37.852C8.91819 37.956 8.83568 38.0795 8.77939 38.2154C8.7231 38.3513 8.69412 38.4969 8.69412 38.644C8.69412 38.7911 8.7231 38.9367 8.77939 39.0726C8.83568 39.2085 8.91819 39.332 9.0222 39.436L11.399 41.8128C11.503 41.9168 11.6265 41.9993 11.7624 42.0556C11.8983 42.1119 12.0439 42.1409 12.191 42.1409C12.3381 42.1409 12.4837 42.1119 12.6196 42.0556C12.7555 41.9993 12.879 41.9168 12.983 41.8128L15.155 39.6416C16.7643 40.726 18.5751 41.4761 20.4798 41.8472V44.9168C20.4798 45.2138 20.5978 45.4987 20.8078 45.7088C21.0179 45.9188 21.3028 46.0368 21.5998 46.0368H24.9598C25.2568 46.0368 25.5417 45.9188 25.7518 45.7088C25.9618 45.4987 26.0798 45.2138 26.0798 44.9168V41.8472C27.9851 41.4755 29.7964 40.725 31.4062 39.64L33.5774 41.8112C33.6814 41.9153 33.8049 41.9979 33.9409 42.0543C34.0769 42.1107 34.2226 42.1397 34.3698 42.1397C34.517 42.1397 34.6627 42.1107 34.7987 42.0543C34.9347 41.9979 35.0582 41.9153 35.1622 41.8112L37.539 39.4344C37.643 39.3304 37.7255 39.2069 37.7818 39.071C37.8381 38.9351 37.8671 38.7895 37.8671 38.6424C37.8671 38.4953 37.8381 38.3497 37.7818 38.2138C37.7255 38.0779 37.643 37.9544 37.539 37.8504L35.3694 35.68C36.4546 34.0707 37.2053 32.2596 37.5766 30.3544H40.647C40.944 30.3544 41.2289 30.2364 41.439 30.0264C41.649 29.8163 41.767 29.5314 41.767 29.2344V25.8744C41.7674 25.727 41.7388 25.5811 41.6827 25.4448C41.6266 25.3086 41.5441 25.1847 41.4401 25.0804C41.3361 24.976 41.2124 24.8932 41.0763 24.8368C40.9403 24.7803 40.7944 24.7512 40.647 24.7512ZM23.2814 35.9512C21.62 35.9512 19.996 35.4585 18.6146 34.5355C17.2332 33.6125 16.1566 32.3006 15.5208 30.7657C14.885 29.2308 14.7187 27.5419 15.0428 25.9124C15.3669 24.283 16.1669 22.7863 17.3417 21.6115C18.5165 20.4367 20.0132 19.6367 21.6426 19.3126C23.2721 18.9885 24.961 19.1548 26.4959 19.7906C28.0308 20.4264 29.3427 21.503 30.2657 22.8844C31.1888 24.2658 31.6814 25.8898 31.6814 27.5512C31.6818 28.6547 31.4648 29.7475 31.0428 30.7671C30.6207 31.7867 30.0019 32.7132 29.2217 33.4935C28.4414 34.2739 27.5151 34.8929 26.4956 35.3151C25.476 35.7374 24.3833 35.9546 23.2798 35.9544L23.2814 35.9512Z" stroke="#45413C" stroke-width="1.7888" stroke-linecap="round" stroke-linejoin="round"/>
<path d="M21.5527 54.12C21.5527 54.2822 21.8083 54.4429 22.305 54.5927C22.8016 54.7426 23.5296 54.8787 24.4472 54.9934C25.3649 55.1081 26.4543 55.1991 27.6533 55.2612C28.8523 55.3233 30.1374 55.3552 31.4351 55.3552C32.7329 55.3552 34.018 55.3233 35.217 55.2612C36.416 55.1991 37.5054 55.1081 38.423 54.9934C39.3407 54.8787 40.0686 54.7426 40.5653 54.5927C41.0619 54.4429 41.3175 54.2822 41.3175 54.12C41.3175 53.9578 41.0619 53.7972 40.5653 53.6473C40.0686 53.4975 39.3407 53.3613 38.423 53.2466C37.5054 53.1319 36.416 53.0409 35.217 52.9789C34.018 52.9168 32.7329 52.8848 31.4351 52.8848C30.1374 52.8848 28.8523 52.9168 27.6533 52.9789C26.4543 53.0409 25.3649 53.1319 24.4472 53.2466C23.5296 53.3613 22.8016 53.4975 22.305 53.6473C21.8083 53.7972 21.5527 53.9578 21.5527 54.12Z" fill="#45413C" fill-opacity="0.15"/>
<path d="M58.8222 42.136L58.0838 41.7104C58.5286 40.1448 58.5286 38.4863 58.0838 36.9208L58.8222 36.4944C58.9496 36.4208 59.0613 36.3229 59.1508 36.2061C59.2404 36.0894 59.306 35.9562 59.3441 35.814C59.3821 35.6719 59.3918 35.5237 59.3725 35.3779C59.3532 35.232 59.3054 35.0914 59.2318 34.964L58.1118 33.0232C57.9632 32.7661 57.7186 32.5785 57.4318 32.5017C57.145 32.4249 56.8394 32.4651 56.5822 32.6136L55.8478 33.0376C54.7069 31.878 53.2714 31.0513 51.6958 30.6464V29.7928C51.6958 29.4957 51.5778 29.2109 51.3678 29.0008C51.1577 28.7908 50.8729 28.6728 50.5758 28.6728H48.3358C48.0388 28.6728 47.7539 28.7908 47.5438 29.0008C47.3338 29.2109 47.2158 29.4957 47.2158 29.7928V30.6464C45.6402 31.0513 44.2048 31.878 43.0638 33.0376L42.3294 32.6136C42.0723 32.4654 41.7669 32.4253 41.4803 32.5021C41.1936 32.5789 40.9492 32.7663 40.8006 33.0232L39.6806 34.964C39.607 35.0914 39.5592 35.232 39.5399 35.3779C39.5207 35.5237 39.5303 35.6719 39.5684 35.814C39.6064 35.9562 39.6721 36.0894 39.7616 36.2061C39.8511 36.3229 39.9628 36.4208 40.0902 36.4944L40.8286 36.9208C40.3838 38.4863 40.3838 40.1448 40.8286 41.7104L40.0902 42.136C39.9628 42.2096 39.8511 42.3075 39.7616 42.4242C39.6721 42.541 39.6064 42.6742 39.5684 42.8163C39.5303 42.9585 39.5207 43.1067 39.5399 43.2525C39.5592 43.3984 39.607 43.539 39.6806 43.6664L40.8006 45.6072C40.8742 45.7346 40.9721 45.8463 41.0889 45.9358C41.2056 46.0253 41.3388 46.091 41.481 46.129C41.6231 46.1671 41.7713 46.1767 41.9171 46.1575C42.063 46.1382 42.2036 46.0904 42.331 46.0168L43.0654 45.5928C44.2064 46.7524 45.6418 47.5791 47.2174 47.984V48.8376C47.2174 49.1346 47.3354 49.4195 47.5454 49.6296C47.7555 49.8396 48.0404 49.9576 48.3374 49.9576H50.5774C50.8744 49.9576 51.1593 49.8396 51.3694 49.6296C51.5794 49.4195 51.6974 49.1346 51.6974 48.8376V47.984C53.273 47.5791 54.7085 46.7524 55.8494 45.5928L56.5838 46.0168C56.841 46.1652 57.1466 46.2055 57.4334 46.1287C57.7202 46.0519 57.9648 45.8643 58.1134 45.6072L59.2334 43.6664C59.307 43.5389 59.3547 43.3982 59.3738 43.2523C59.393 43.1064 59.3832 42.9581 59.345 42.816C59.3068 42.6738 59.241 42.5406 59.1513 42.424C59.0616 42.3073 58.9497 42.2094 58.8222 42.136ZM49.455 44.3568C48.4582 44.3568 47.4838 44.0612 46.6549 43.5074C45.8261 42.9536 45.1801 42.1665 44.7987 41.2455C44.4172 40.3246 44.3174 39.3112 44.5118 38.3335C44.7063 37.3559 45.1863 36.4578 45.8912 35.753C46.596 35.0481 47.4941 34.5681 48.4717 34.3736C49.4494 34.1792 50.4628 34.279 51.3837 34.6604C52.3047 35.0419 53.0918 35.6879 53.6456 36.5167C54.1994 37.3455 54.495 38.32 54.495 39.3168C54.495 40.6535 53.964 41.9354 53.0188 42.8806C52.0736 43.8258 50.7917 44.3568 49.455 44.3568Z" fill="#8CA4B8"/>
<path d="M56.5814 32.6136L55.847 33.0376C54.7061 31.878 53.2706 31.0513 51.695 30.6464V29.7928C51.695 29.4957 51.577 29.2109 51.367 29.0008C51.1569 28.7908 50.8721 28.6728 50.575 28.6728H48.335C48.038 28.6728 47.7531 28.7908 47.543 29.0008C47.333 29.2109 47.215 29.4957 47.215 29.7928V30.6464C45.639 31.0517 44.2035 31.8792 43.063 33.04L42.3278 32.616C42.0711 32.4681 41.7663 32.4279 41.4801 32.5042C41.1939 32.5806 40.9496 32.7672 40.8006 33.0232L39.6806 34.964C39.607 35.0914 39.5592 35.232 39.5399 35.3779C39.5207 35.5237 39.5303 35.6719 39.5684 35.814C39.6064 35.9562 39.6721 36.0894 39.7616 36.2061C39.8511 36.3229 39.9628 36.4208 40.0902 36.4944L40.8286 36.92C40.3838 38.4858 40.3838 40.1446 40.8286 41.7104L40.0902 42.136C39.9628 42.2096 39.8511 42.3075 39.7616 42.4242C39.6721 42.541 39.6064 42.6742 39.5684 42.8163C39.5303 42.9585 39.5207 43.1067 39.5399 43.2525C39.5592 43.3984 39.607 43.539 39.6806 43.6664L40.8006 45.6072C40.8742 45.7346 40.9721 45.8463 41.0889 45.9358C41.2056 46.0253 41.3388 46.091 41.481 46.129C41.6231 46.1671 41.7713 46.1767 41.9171 46.1575C42.063 46.1382 42.2036 46.0904 42.331 46.0168L43.0662 45.5928C43.2262 45.7528 43.3899 45.9072 43.5574 46.056L46.3374 43.2752C45.7804 42.8337 45.3231 42.2794 44.9955 41.6486C44.6679 41.0179 44.4774 40.325 44.4366 39.6154C44.3957 38.9058 44.5053 38.1956 44.7584 37.5314C45.0114 36.8672 45.402 36.2641 45.9046 35.7615C46.4072 35.259 47.0104 34.8684 47.6746 34.6155C48.3388 34.3626 49.0491 34.253 49.7586 34.2939C50.4682 34.3349 51.1611 34.5255 51.7918 34.8531C52.4225 35.1808 52.9768 35.6382 53.4182 36.1952L57.1502 32.4632C56.9505 32.4612 56.754 32.5132 56.5814 32.6136Z" fill="#ADC4D9"/>
<path d="M58.8222 42.136L58.0838 41.7104C58.5286 40.1448 58.5286 38.4863 58.0838 36.9208L58.8222 36.4944C58.9496 36.4208 59.0613 36.3229 59.1508 36.2061C59.2404 36.0894 59.306 35.9562 59.3441 35.814C59.3821 35.6719 59.3918 35.5237 59.3725 35.3779C59.3532 35.232 59.3054 35.0914 59.2318 34.964L58.1118 33.0232C57.9632 32.7661 57.7186 32.5785 57.4318 32.5017C57.145 32.4249 56.8394 32.4651 56.5822 32.6136L55.8478 33.0376C54.7069 31.878 53.2714 31.0513 51.6958 30.6464V29.7928C51.6958 29.4957 51.5778 29.2109 51.3678 29.0008C51.1577 28.7908 50.8729 28.6728 50.5758 28.6728H48.3358C48.0388 28.6728 47.7539 28.7908 47.5439 29.0008C47.3338 29.2109 47.2158 29.4957 47.2158 29.7928V30.6464C45.6402 31.0513 44.2048 31.878 43.0638 33.0376L42.3294 32.6136C42.0723 32.4654 41.7669 32.4253 41.4803 32.5021C41.1936 32.5789 40.9492 32.7663 40.8006 33.0232L39.6806 34.964C39.607 35.0914 39.5592 35.232 39.5399 35.3779C39.5207 35.5237 39.5303 35.6719 39.5684 35.814C39.6064 35.9562 39.6721 36.0894 39.7616 36.2061C39.8511 36.3229 39.9628 36.4208 40.0902 36.4944L40.8286 36.9208C40.3838 38.4863 40.3838 40.1448 40.8286 41.7104L40.0902 42.136C39.9628 42.2096 39.8511 42.3075 39.7616 42.4242C39.6721 42.541 39.6064 42.6742 39.5684 42.8163C39.5303 42.9585 39.5207 43.1067 39.5399 43.2525C39.5592 43.3984 39.607 43.539 39.6806 43.6664L40.8006 45.6072C40.8742 45.7346 40.9721 45.8463 41.0889 45.9358C41.2056 46.0253 41.3388 46.091 41.481 46.129C41.6231 46.1671 41.7713 46.1767 41.9171 46.1575C42.063 46.1382 42.2036 46.0904 42.331 46.0168L43.0654 45.5928C44.2064 46.7524 45.6418 47.5791 47.2174 47.984V48.8376C47.2174 49.1346 47.3354 49.4195 47.5454 49.6296C47.7555 49.8396 48.0404 49.9576 48.3374 49.9576H50.5774C50.8744 49.9576 51.1593 49.8396 51.3694 49.6296C51.5794 49.4195 51.6974 49.1346 51.6974 48.8376V47.984C53.273 47.5791 54.7085 46.7524 55.8494 45.5928L56.5838 46.0168C56.841 46.1652 57.1466 46.2055 57.4334 46.1287C57.7202 46.0519 57.9648 45.8643 58.1134 45.6072L59.2334 43.6664C59.307 43.5389 59.3547 43.3982 59.3738 43.2523C59.393 43.1064 59.3832 42.9581 59.345 42.816C59.3068 42.6738 59.241 42.5406 59.1513 42.424C59.0616 42.3073 58.9497 42.2094 58.8222 42.136V42.136ZM49.455 44.3568C48.4582 44.3568 47.4838 44.0612 46.6549 43.5074C45.8261 42.9536 45.1801 42.1665 44.7987 41.2455C44.4172 40.3246 44.3174 39.3112 44.5118 38.3335C44.7063 37.3559 45.1863 36.4578 45.8912 35.753C46.596 35.0481 47.4941 34.5681 48.4717 34.3736C49.4494 34.1792 50.4628 34.279 51.3837 34.6604C52.3047 35.0419 53.0918 35.6879 53.6456 36.5167C54.1994 37.3455 54.495 38.32 54.495 39.3168C54.495 40.6535 53.964 41.9354 53.0188 42.8806C52.0736 43.8258 50.7917 44.3568 49.455 44.3568Z" stroke="#45413C" stroke-width="1.7888" stroke-miterlimit="10"/>
</svg>
