<svg viewBox="-0.5 -0.5 100 100" xmlns="http://www.w3.org/2000/svg" height="100" width="100"><path d="M10.278179999999999 49.5a39.6 39.6 0 1 0 79.2 0 39.6 39.6 0 1 0 -79.2 0Z" fill="#daedf7" stroke="#daedf7" stroke-width="1"></path><path d="M47.95164 72.67392a1.04643 1.04643 0 0 1 -0.84051 1.26027l-17.23095 3.11256a1.09593 1.09593 0 0 1 -1.26819 -0.8801100000000001L19.663379999999997 26.621100000000002a1.09593 1.09593 0 0 1 0.8801100000000001 -1.26819l18.17442 -3.2828399999999998a2.58786 2.58786 0 0 1 1.8978300000000001 0.5227200000000001l1.21572 1.0593000000000001a1.27809 1.27809 0 0 1 0.21879 1.62459l-1.10781 1.66419a1.4652 1.4652 0 0 0 0.13365000000000002 1.71171l1.4048100000000001 1.52559a1.47708 1.47708 0 0 1 0.1386 1.71567l-1.08009 1.63944a1.53648 1.53648 0 0 0 0.11187 1.73844l2.22156 2.574a1.9651500000000002 1.9651500000000002 0 0 1 0.30294 1.83843l-1.8404099999999999 4.54707a4.13028 4.13028 0 0 0 -0.17523 2.079Z" fill="#ffffff" stroke="#45413c" stroke-linecap="round" stroke-linejoin="round" stroke-width="1"></path><path d="m30.66723 47.28141 11.45133 -2.06811" fill="none" stroke="#45413c" stroke-linecap="round" stroke-linejoin="round" stroke-width="1"></path><path d="m31.60674 52.485839999999996 11.4543 -2.06811" fill="none" stroke="#45413c" stroke-linecap="round" stroke-linejoin="round" stroke-width="1"></path><path d="m32.547239999999995 57.69126 11.65032 -2.10375" fill="none" stroke="#45413c" stroke-linecap="round" stroke-linejoin="round" stroke-width="1"></path><path d="m33.99165 70.5672 7.9873199999999995 -1.44243" fill="none" stroke="#adc4d9" stroke-linecap="round" stroke-linejoin="round" stroke-width="1"></path><path d="M69.47226 78.06942000000001a1.08108 1.08108 0 0 1 -1.23651 0.90981l-18.76941 -2.9699999999999998a1.3365 1.3365 0 0 1 -1.089 -1.2622499999999999l-0.18414 -21.5622a2.2869 2.2869 0 0 1 0.891 -1.70577l2.0017799999999997 -1.36422A1.34244 1.34244 0 0 0 51.535439999999994 48.51l-1.54737 -3.366a1.75626 1.75626 0 0 1 0.29205 -1.782l1.683 -1.7938800000000001a1.89585 1.89585 0 0 0 0.35342999999999997 -1.81269l-1.16424 -3.00861a1.45431 1.45431 0 0 1 0.5049 -1.63647l1.0197 -0.7019099999999999a1.72854 1.72854 0 0 0 0.65142 -1.683l-0.66825 -2.871a0.72864 0.72864 0 0 1 0.83754 -0.94743l21.736439999999998 2.30769a1.04346 1.04346 0 0 1 0.92664 1.1959199999999999Z" fill="#ffffff" stroke="#45413c" stroke-linecap="round" stroke-linejoin="round" stroke-width="1"></path><path d="m52.58385 44.81334 16.34787 2.3958" fill="none" stroke="#45413c" stroke-linecap="round" stroke-linejoin="round" stroke-width="1"></path><path d="m51.57801 49.43862 16.65081 2.5641" fill="none" stroke="#45413c" stroke-linecap="round" stroke-linejoin="round" stroke-width="1"></path><path d="m48.18528 53.962920000000004 19.34163 2.83338" fill="none" stroke="#45413c" stroke-linecap="round" stroke-linejoin="round" stroke-width="1"></path><path d="M48.24567 59.18121 66.825 61.58988" fill="none" stroke="#45413c" stroke-linecap="round" stroke-linejoin="round" stroke-width="1"></path><path d="m54.14409 71.70075 10.38807 1.5216299999999998" fill="none" stroke="#adc4d9" stroke-linecap="round" stroke-linejoin="round" stroke-width="1"></path><path d="M82.00367999999999 67.07646 79.1901 60.795899999999996a1.29393 1.29393 0 0 1 0.65934 -1.70478l12.200759999999999 -5.39253a1.287 1.287 0 0 1 1.7037900000000001 0.65934l2.81358 6.28056Z" fill="#009fd9" stroke-width="1"></path><path d="m80.80380000000001 58.62285 9.96039 -4.40253 -0.00792 -0.01881c-3.08088 -15.939000000000002 -7.30125 -27.14283 -26.45379 -30.12273a2.05524 2.05524 0 0 0 -0.63063 4.058999999999999c5.75091 0.891 9.436679999999999 2.1413699999999998 11.98989 6.6557699999999995 3.67884 6.3656999999999995 -0.87714 5.247 -2.6136 3.15414l-3.8887199999999997 -4.3272900000000005a2.05425 2.05425 0 1 0 -3.08979 2.7126c5.77467 9.26343 5.75784 11.43153 9.35451 13.959 2.68686 1.881 3.37392 3.7936799999999997 5.37966 8.33085Z" fill="#ffdb94" stroke="#45413c" stroke-linecap="round" stroke-linejoin="round" stroke-width="1"></path><path d="m62.94024 26.04888 -0.9969299999999999 -0.15345c0 -0.03465 0.00792 -0.06732 0.01386 -0.099a2.05623 2.05623 0 0 1 2.3463000000000003 -1.71468c19.163429999999998 2.98188 23.37489 14.19858 26.4528 30.12273l0.00792 0.01881 -2.58786 1.14345c-2.5413300000000003 -12.979890000000001 -6.39045 -26.4429 -25.23609 -29.31786Z" fill="#ffe9bd" stroke-width="1"></path><path d="m80.80380000000001 58.62285 9.96039 -4.40253 -0.00792 -0.01881c-3.08088 -15.939000000000002 -7.30125 -27.14283 -26.45379 -30.12273a2.05524 2.05524 0 0 0 -0.63063 4.058999999999999c5.75091 0.891 9.436679999999999 2.1413699999999998 11.98989 6.6557699999999995 3.67884 6.3656999999999995 -0.87714 5.247 -2.6136 3.15414l-3.8887199999999997 -4.3272900000000005a2.05425 2.05425 0 1 0 -3.08979 2.7126c5.77467 9.26343 5.75784 11.43153 9.35451 13.959 2.68686 1.881 3.37392 3.7936799999999997 5.37966 8.33085Z" fill="none" stroke="#45413c" stroke-linecap="round" stroke-linejoin="round" stroke-width="1"></path><path d="m92.29176 53.59167 -0.7236899999999999 -1.63746a1.29195 1.29195 0 0 0 -1.7037900000000001 -0.65934l-10.32075 4.56291a1.287 1.287 0 0 0 -0.65934 1.7037900000000001l0.7236899999999999 1.63746Z" fill="#ffffff" stroke="#45413c" stroke-linecap="round" stroke-linejoin="round" stroke-width="1"></path><path d="M94.23117 61.67106 90.783 54.25893l1.26918 -0.56034a1.287 1.287 0 0 1 1.7037900000000001 0.65934l2.81358 6.28056Z" fill="#00b8f0" stroke-width="1"></path><path d="M82.00367999999999 67.07646 79.1901 60.795899999999996a1.29393 1.29393 0 0 1 0.65934 -1.70478l12.200759999999999 -5.39253a1.287 1.287 0 0 1 1.7037900000000001 0.65934l2.81358 6.28056" fill="none" stroke="#45413c" stroke-linecap="round" stroke-linejoin="round" stroke-width="1"></path><path d="m67.122 30.35142 8.10909 0.8632799999999999a1.04346 1.04346 0 0 1 0.92664 1.1959199999999999l-0.85536 5.841" fill="#ffffff" stroke="#45413c" stroke-linecap="round" stroke-linejoin="round" stroke-width="1"></path><path d="m17.75367 62.57988 1.5543 -5.51925a1.29393 1.29393 0 0 0 -0.891 -1.5958800000000002L5.58261 51.83046a1.287 1.287 0 0 0 -1.5958800000000002 0.891l-1.5543 5.520239999999999Z" fill="#009fd9" stroke-width="1"></path><path d="M17.424 55.0638 6.93 52.16706l0 -0.0198c0.8217 -16.21719 3.4353000000000002 -27.89622 21.977999999999998 -33.52437a2.05425 2.05425 0 1 1 1.19295 3.93228c-5.56875 1.6899300000000002 -9.04464 3.4402500000000003 -10.94247 8.26749 -2.7521999999999998 6.81714 1.60281 5.06781 3.0294 2.75715L25.442999999999998 28.749599999999997a2.05425 2.05425 0 0 1 3.43926 2.2492799999999997c-4.42926 9.980189999999999 -4.10553 12.12354 -7.31412 15.12621 -2.39481 2.24136 -2.79081 4.16691 -4.14414 8.93871Z" fill="#ffdb94" stroke="#45413c" stroke-linecap="round" stroke-linejoin="round" stroke-width="1"></path><path d="m30.54051 20.38311 0.96624 -0.29205 -0.02772 -0.099a2.05623 2.05623 0 0 0 -2.56311 -1.3701599999999998C10.35738 24.255 7.75467 35.948879999999996 6.93 52.147259999999996l0 0.0198 2.72151 0.7712100000000001c0.7029 -13.20561 2.63043 -27.07452 20.889000000000003 -32.55516Z" fill="#ffe9bd" stroke-width="1"></path><path d="M17.424 55.0638 6.93 52.16706l0 -0.0198c0.8217 -16.21719 3.4353000000000002 -27.89622 21.977999999999998 -33.52437a2.05425 2.05425 0 1 1 1.19295 3.93228c-5.56875 1.6899300000000002 -9.04464 3.4402500000000003 -10.94247 8.26749 -2.7521999999999998 6.81714 1.60281 5.06781 3.0294 2.75715L25.442999999999998 28.749599999999997a2.05425 2.05425 0 0 1 3.43926 2.2492799999999997c-4.42926 9.980189999999999 -4.10553 12.12354 -7.31412 15.12621 -2.39481 2.24136 -2.79081 4.16691 -4.14414 8.93871Z" fill="none" stroke="#45413c" stroke-linecap="round" stroke-linejoin="round" stroke-width="1"></path><path d="m5.32818 51.75819 0.48708 -1.7226a1.29294 1.29294 0 0 1 1.59489 -0.891l10.858319999999999 3.07494a1.29393 1.29393 0 0 1 0.891 1.5958800000000002L18.6714 55.539Z" fill="#ffffff" stroke="#45413c" stroke-linecap="round" stroke-linejoin="round" stroke-width="1"></path><path d="m4.8906 58.937670000000004 2.02653 -6.732 -1.3345200000000002 -0.37818a1.287 1.287 0 0 0 -1.5958800000000002 0.891l-1.5543 5.52321Z" fill="#00b8f0" stroke-width="1"></path><path d="m17.75367 62.57988 1.5543 -5.51925a1.29393 1.29393 0 0 0 -0.891 -1.5958800000000002L5.58261 51.83046a1.287 1.287 0 0 0 -1.5958800000000002 0.891l-1.5543 5.520239999999999" fill="none" stroke="#45413c" stroke-linecap="round" stroke-linejoin="round" stroke-width="1"></path><path d="m20.74149 32.586839999999995 -1.07811 -5.965739999999999a1.09593 1.09593 0 0 1 0.8801100000000001 -1.26819l9.037709999999999 -1.63251" fill="#ffffff" stroke="#45413c" stroke-linecap="round" stroke-linejoin="round" stroke-width="1"></path><path d="M55.36575 65.08755000000001a2.20176 2.20176 0 1 0 3.57291 1.94634l-0.04653 0.43857a1.7622 1.7622 0 0 0 3.50361 0.37422 1.7602200000000001 1.7602200000000001 0 0 0 1.5642 1.93842l1.31472 0.14057999999999998" fill="none" stroke="#ff6242" stroke-linecap="round" stroke-linejoin="round" stroke-width="1"></path><path d="M32.769 68.33673a1.83546 1.83546 0 0 1 -0.594 -3.62142 1.97406 1.97406 0 0 1 2.20869 2.11563" fill="none" stroke="#009fd9" stroke-linecap="round" stroke-linejoin="round" stroke-width="1"></path><path d="M41.42457 64.43217a1.83348 1.83348 0 0 1 -1.51272 2.10771" fill="none" stroke="#009fd9" stroke-linecap="round" stroke-linejoin="round" stroke-width="1"></path><path d="M34.380720000000004 66.83094a1.83447 1.83447 0 0 1 1.51272 -2.10771" fill="none" stroke="#009fd9" stroke-linecap="round" stroke-linejoin="round" stroke-width="1"></path><path d="M37.39824 66.33494999999999a1.83645 1.83645 0 0 1 1.50876 -2.1096899999999996" fill="none" stroke="#009fd9" stroke-linecap="round" stroke-linejoin="round" stroke-width="1"></path></svg>