<svg width="42" height="42" viewBox="0 0 42 42" fill="none" xmlns="http://www.w3.org/2000/svg">
<g clip-path="url(#clip0_8901_417370)">
<path d="M21 0C32.5992 0 42 9.40078 42 21C42 32.5992 32.5992 42 21 42C9.40078 42 0 32.5992 0 21C0 9.40078 9.40078 0 21 0Z" fill="#0052FF"/>
<path d="M21.0041 28.3828C16.9271 28.3828 13.6213 25.0811 13.6213 21C13.6213 16.9189 16.9271 13.6172 21.0041 13.6172C24.6586 13.6172 27.6938 16.2832 28.2762 19.7695H35.7123C35.0848 12.1898 28.7397 6.23438 21 6.23438C12.8461 6.23438 6.23438 12.8461 6.23438 21C6.23438 29.1539 12.8461 35.7656 21 35.7656C28.7397 35.7656 35.0848 29.8102 35.7123 22.2305H28.2721C27.6855 25.7168 24.6586 28.3828 21.0041 28.3828Z" fill="white"/>
</g>
<defs>
<clipPath id="clip0_8901_417370">
<rect width="42" height="42" fill="white"/>
</clipPath>
</defs>
</svg>

