<svg width="160" height="160" viewBox="0 0 160 160" fill="none" xmlns="http://www.w3.org/2000/svg">
<path d="M144 80.4002C144.001 70.8485 141.864 61.4176 137.746 52.7992C133.628 44.1808 127.633 36.5935 120.201 30.5936C112.769 24.5938 104.088 20.3336 94.7947 18.1256C85.5017 15.9175 75.8323 15.8176 66.4956 17.8331C57.1589 19.8486 48.3917 23.9283 40.8371 29.7733C33.2824 35.6182 27.1319 43.08 22.8365 51.6114C18.541 60.1428 16.2097 69.5275 16.0135 79.0773C15.8173 88.627 17.7611 98.0995 21.7024 106.8H138.298C142.062 98.5085 144.007 89.5065 144 80.4002Z" fill="#C7F0FF"/>
<path d="M21.7026 106.8C26.779 118.006 34.9776 127.512 45.3168 134.179C55.6561 140.846 67.6978 144.392 80.0002 144.392C92.3027 144.392 104.344 140.846 114.684 134.179C125.023 127.512 133.222 118.006 138.298 106.8H21.7026Z" fill="#F2DFC2"/>
<path d="M17.6001 106.8H142.4" stroke="#45413C" stroke-width="1.5" stroke-linecap="round" stroke-linejoin="round"/>
<path d="M10.4001 106.8H14.4001" stroke="#45413C" stroke-width="1.5" stroke-linecap="round" stroke-linejoin="round"/>
<path d="M145.6 106.8H149.6" stroke="#45413C" stroke-width="1.5" stroke-linecap="round" stroke-linejoin="round"/>
<path d="M44.2995 69.4738V62.7202H33.6595V69.4738C28.888 70.6589 24.6501 73.406 21.6202 77.2779C18.5903 81.1497 16.9427 85.9238 16.9395 90.8402V106.8H61.0195V90.8402C61.0165 85.9237 59.369 81.1495 56.3391 77.2776C53.3091 73.4057 49.0711 70.6587 44.2995 69.4738Z" fill="#FFCEBF"/>
<path d="M60.8931 88.573C59.7035 88.6164 58.5783 89.1237 57.7581 89.9862C56.9378 90.8488 56.4878 91.9982 56.5043 93.1884C56.5209 94.3786 57.0026 95.515 57.8464 96.3545C58.6903 97.194 59.8292 97.6698 61.0195 97.6802" stroke="#656769" stroke-width="1.5" stroke-linecap="round" stroke-linejoin="round"/>
<path d="M60.3472 85.453C59.0658 85.2933 57.8867 84.6716 57.031 83.7046C56.1753 82.7375 55.7018 81.4915 55.6992 80.2002C55.7018 81.4915 56.1753 82.7375 57.031 83.7046C57.8867 84.6716 59.0658 85.2933 60.3472 85.453Z" stroke="#656769" stroke-width="1.5" stroke-linecap="round" stroke-linejoin="round"/>
<path d="M33.6594 68.0194C37.1297 69.0605 40.8292 69.0605 44.2994 68.0194V62.7202H33.6594V68.0194Z" fill="#FFB59E"/>
<path d="M44.2995 69.4738V62.7202H33.6595V69.4738C28.888 70.6589 24.6501 73.406 21.6202 77.2779C18.5903 81.1497 16.9427 85.9238 16.9395 90.8402V106.8H61.0195V90.8402C61.0165 85.9237 59.369 81.1495 56.3391 77.2776C53.3091 73.4057 49.0711 70.6587 44.2995 69.4738Z" stroke="#45413C" stroke-width="1.5" stroke-linecap="round" stroke-linejoin="round"/>
<path d="M50.4753 72.0593C49.5062 71.4659 48.4925 70.9486 47.4433 70.5121C47.3057 70.6599 47.2316 70.8558 47.2369 71.0577C47.0129 77.3073 46.4369 84.0001 38.9793 84.0001C31.5217 84.0001 30.9473 77.3073 30.7233 71.0577C30.7158 70.8588 30.6702 70.6633 30.5889 70.4817C29.5143 70.925 28.4764 71.4525 27.4849 72.0593C27.9249 76.8849 27.9057 84.2337 24.5393 88.5601V106.8H53.4193V88.5601C50.0545 84.2337 50.0353 76.8849 50.4753 72.0593Z" fill="white" stroke="#45413C" stroke-width="1.5" stroke-linecap="round" stroke-linejoin="round"/>
<path d="M41.2592 79.4402C40.5514 79.9712 39.9768 80.6596 39.5811 81.4511C39.1853 82.2426 38.9793 83.1153 38.9792 84.0002C38.9793 83.1153 38.7733 82.2425 38.3775 81.451C37.9818 80.6595 37.4072 79.9711 36.6992 79.4402" stroke="#45413C" stroke-width="1.5" stroke-linecap="round" stroke-linejoin="round"/>
<path d="M42.7795 97.6802C41.3704 97.6508 40.0201 97.1106 38.9795 96.1602C37.9389 97.1106 36.5885 97.6508 35.1794 97.6802" stroke="#45413C" stroke-width="1.5" stroke-linecap="round" stroke-linejoin="round"/>
<path d="M127.139 68.2962L127.563 66.0402C127.604 65.8207 127.597 65.5948 127.541 65.3786C127.484 65.1624 127.381 64.9612 127.239 64.7893C127.096 64.6174 126.917 64.4791 126.715 64.3842C126.513 64.2893 126.292 64.2402 126.069 64.2402H114.531C114.308 64.2402 114.087 64.2893 113.885 64.3842C113.683 64.4791 113.504 64.6174 113.361 64.7893C113.219 64.9612 113.116 65.1624 113.06 65.3786C113.003 65.5948 112.996 65.8207 113.037 66.0402L113.459 68.2962C108.623 69.7644 104.388 72.7484 101.377 76.8076C98.3665 80.8669 96.7405 85.7864 96.7393 90.8402V94.6402H105.859V106.8H134.739V94.6402H143.859V90.8402C143.858 85.7863 142.232 80.8667 139.222 76.8074C136.211 72.7481 131.975 69.7642 127.139 68.2962Z" fill="#BF8DF2"/>
<path d="M127.139 68.2962L127.563 66.0402C127.604 65.8207 127.597 65.5948 127.541 65.3786C127.484 65.1624 127.381 64.9612 127.239 64.7893C127.096 64.6174 126.917 64.4791 126.715 64.3842C126.513 64.2893 126.292 64.2402 126.069 64.2402H114.531C114.308 64.2402 114.087 64.2893 113.885 64.3842C113.683 64.4791 113.504 64.6174 113.361 64.7893C113.219 64.9612 113.116 65.1624 113.06 65.3786C113.003 65.5948 112.996 65.8207 113.037 66.0402L113.459 68.2962C108.623 69.7644 104.388 72.7484 101.377 76.8076C98.3665 80.8669 96.7405 85.7864 96.7393 90.8402V94.6402H96.9601C97.6936 88.9682 100.467 83.7573 104.763 79.9814C109.059 76.2055 114.582 74.123 120.302 74.123C126.021 74.123 131.545 76.2055 135.84 79.9814C140.136 83.7573 142.91 88.9682 143.643 94.6402H143.861V90.8402C143.86 85.7861 142.234 80.8663 139.223 76.807C136.212 72.7477 131.976 69.7639 127.139 68.2962Z" fill="#DABFF5"/>
<path d="M127.139 68.2962L127.563 66.0402C127.604 65.8207 127.597 65.5948 127.541 65.3786C127.484 65.1624 127.381 64.9612 127.239 64.7893C127.096 64.6174 126.917 64.4791 126.715 64.3842C126.513 64.2893 126.292 64.2402 126.069 64.2402H114.531C114.308 64.2402 114.087 64.2893 113.885 64.3842C113.683 64.4791 113.504 64.6174 113.361 64.7893C113.219 64.9612 113.116 65.1624 113.06 65.3786C113.003 65.5948 112.996 65.8207 113.037 66.0402L113.459 68.2962C108.623 69.7644 104.388 72.7484 101.377 76.8076C98.3665 80.8669 96.7405 85.7864 96.7393 90.8402V94.6402H105.859V106.8H134.739V94.6402H143.859V90.8402C143.858 85.7863 142.232 80.8667 139.222 76.8074C136.211 72.7481 131.975 69.7642 127.139 68.2962V68.2962Z" stroke="#45413C" stroke-width="1.5" stroke-linecap="round" stroke-linejoin="round"/>
<path d="M105.859 88.5603V106.8" stroke="#45413C" stroke-width="1.5" stroke-linecap="round" stroke-linejoin="round"/>
<path d="M134.739 88.5603V106.8" stroke="#45413C" stroke-width="1.5" stroke-linecap="round" stroke-linejoin="round"/>
<path d="M110.683 69.3601C106.542 71.2233 103.024 74.2398 100.551 78.0489C98.0787 81.8581 96.7552 86.2988 96.7393 90.8401V106.8H114.219V77.1601L110.683 69.3601Z" fill="#B89558"/>
<path d="M113.318 75.1729L110.683 69.3601C106.542 71.2233 103.024 74.2398 100.551 78.0489C98.0787 81.8581 96.7552 86.2988 96.7393 90.8401V97.6801C96.7399 92.6506 98.3493 87.7531 101.332 83.7036C104.315 79.654 108.515 76.6649 113.318 75.1729Z" fill="#DEBB7E"/>
<path d="M110.683 69.3601C106.542 71.2233 103.024 74.2398 100.551 78.0489C98.0787 81.8581 96.7552 86.2988 96.7393 90.8401V106.8H114.219V77.1601L110.683 69.3601Z" stroke="#45413C" stroke-width="1.5" stroke-linecap="round" stroke-linejoin="round"/>
<path d="M109.848 67.5201C109.713 67.2098 109.476 66.9545 109.177 66.7956C108.878 66.6368 108.533 66.5836 108.2 66.6449C107.385 66.8161 106.616 67.1606 105.945 67.655C105.274 68.1494 104.717 68.7821 104.313 69.5104C103.908 70.2386 103.664 71.0454 103.598 71.876C103.532 72.7067 103.645 73.5418 103.93 74.3249L105.991 79.9889C106.067 80.1996 106.189 80.3908 106.348 80.5487C106.507 80.7067 106.699 80.8275 106.911 80.9024C107.122 80.9773 107.347 81.0046 107.57 80.9822C107.793 80.9598 108.008 80.8883 108.2 80.7729L114.22 77.1617L109.848 67.5201Z" fill="white" stroke="#45413C" stroke-width="1.5" stroke-linecap="round" stroke-linejoin="round"/>
<path d="M105.859 88.5603V106.8" stroke="#45413C" stroke-width="1.5" stroke-linecap="round" stroke-linejoin="round"/>
<path d="M129.92 69.3601C134.062 71.2232 137.579 74.2397 140.052 78.0489C142.524 81.8581 143.847 86.2988 143.863 90.8401V106.8H126.379V77.1601L129.92 69.3601Z" fill="#DAEDF7"/>
<path d="M127.282 75.1729L129.92 69.3601C134.062 71.2232 137.579 74.2397 140.052 78.0489C142.524 81.8581 143.847 86.2988 143.863 90.8401V97.6801C143.862 92.6503 142.253 87.7525 139.269 83.703C136.286 79.6534 132.086 76.6643 127.282 75.1729Z" fill="white"/>
<path d="M129.92 69.3601C134.062 71.2232 137.579 74.2397 140.052 78.0489C142.524 81.8581 143.847 86.2988 143.863 90.8401V106.8H126.379V77.1601L129.92 69.3601Z" stroke="#45413C" stroke-width="1.5" stroke-linecap="round" stroke-linejoin="round"/>
<path d="M130.752 67.5201C130.888 67.2098 131.125 66.9545 131.424 66.7956C131.723 66.6368 132.067 66.5836 132.4 66.6449C133.215 66.8169 133.984 67.1618 134.654 67.6563C135.325 68.1509 135.881 68.7835 136.286 69.5116C136.691 70.2396 136.934 71.0461 137.001 71.8765C137.067 72.7068 136.955 73.5418 136.671 74.3249L134.61 79.9889C134.533 80.1996 134.411 80.3908 134.252 80.5487C134.093 80.7067 133.901 80.8275 133.69 80.9024C133.479 80.9773 133.254 81.0046 133.031 80.9822C132.808 80.9598 132.592 80.8883 132.4 80.7729L126.379 77.1617L130.752 67.5201Z" fill="white" stroke="#45413C" stroke-width="1.5" stroke-linecap="round" stroke-linejoin="round"/>
<path d="M134.739 88.5603V106.8" stroke="#45413C" stroke-width="1.5" stroke-linecap="round" stroke-linejoin="round"/>
<path d="M103.579 95.4001C103.579 92.3061 102.97 89.2425 101.786 86.3841C100.602 83.5256 98.8667 80.9284 96.6789 78.7406C94.4912 76.5529 91.8939 74.8175 89.0355 73.6335C86.1771 72.4495 83.1134 71.8401 80.0195 71.8401C76.9255 71.8401 73.8619 72.4495 71.0035 73.6335C68.145 74.8175 65.5478 76.5529 63.36 78.7406C61.1723 80.9284 59.4369 83.5256 58.2529 86.3841C57.0689 89.2425 56.4595 92.3061 56.4595 95.4001V99.2001H65.5795V106.8H94.4595V99.2001H103.579V95.4001Z" fill="#FF6242"/>
<path d="M80.0195 71.8401C73.7711 71.8405 67.7788 74.3229 63.3605 78.7411C58.9422 83.1594 56.4599 89.1517 56.4595 95.4001V99.2001H56.5747C57.1388 93.373 59.8525 87.9648 64.187 84.0297C68.5215 80.0946 74.166 77.9145 80.0203 77.9145C85.8746 77.9145 91.5191 80.0946 95.8535 84.0297C100.188 87.9648 102.902 93.373 103.466 99.2001H103.579V95.4001C103.579 89.1516 101.097 83.159 96.6789 78.7406C92.2606 74.3223 86.268 71.8401 80.0195 71.8401Z" fill="#FF866E"/>
<path d="M103.579 95.4001C103.579 92.3061 102.97 89.2425 101.786 86.3841C100.602 83.5256 98.8667 80.9284 96.6789 78.7406C94.4912 76.5529 91.8939 74.8175 89.0355 73.6335C86.1771 72.4495 83.1134 71.8401 80.0195 71.8401C76.9255 71.8401 73.8619 72.4495 71.0035 73.6335C68.145 74.8175 65.5478 76.5529 63.36 78.7406C61.1723 80.9284 59.4369 83.5256 58.2529 86.3841C57.0689 89.2425 56.4595 92.3061 56.4595 95.4001V99.2001H65.5795V106.8H94.4595V99.2001H103.579V95.4001Z" stroke="#45413C" stroke-width="1.5" stroke-linecap="round" stroke-linejoin="round"/>
<path d="M65.5796 93.1201V106.8" stroke="#45413C" stroke-width="1.5" stroke-linecap="round" stroke-linejoin="round"/>
<path d="M94.4595 93.1201V106.8" stroke="#45413C" stroke-width="1.5" stroke-linecap="round" stroke-linejoin="round"/>
<path d="M74.6992 72.6C74.6992 74.011 75.2597 75.3641 76.2574 76.3618C77.2551 77.3595 78.6083 77.92 80.0192 77.92C81.4302 77.92 82.7833 77.3595 83.781 76.3618C84.7787 75.3641 85.3392 74.011 85.3392 72.6V67.28H74.6992V72.6Z" fill="#D18660"/>
<path d="M74.6992 72.5792C78.1695 73.6203 81.869 73.6203 85.3392 72.5792V67.28H74.6992V72.5792Z" fill="#BD704A"/>
<path d="M74.6992 72.6V67.28H85.3392V72.6C85.3392 74.011 84.7787 75.3641 83.781 76.3618C82.7833 77.3595 81.4302 77.92 80.0192 77.92C78.6083 77.92 77.2551 77.3595 76.2574 76.3618C75.2597 75.3641 74.6992 74.011 74.6992 72.6Z" stroke="#45413C" stroke-width="1.5" stroke-linecap="round" stroke-linejoin="round"/>
<path d="M57.9795 99.2002H65.5811V106.8H57.9795V99.2002Z" fill="#D18660" stroke="#45413C" stroke-width="1.5" stroke-linecap="round" stroke-linejoin="round"/>
<path d="M94.4595 99.2002H102.059V106.8H94.4595V99.2002Z" fill="#D18660" stroke="#45413C" stroke-width="1.5" stroke-linecap="round" stroke-linejoin="round"/>
<path d="M32.1393 55.8801C32.1393 58.3985 30.0993 61.2001 27.5793 61.2001C25.0593 61.2001 23.0193 58.3985 23.0193 55.8801C23.0193 53.3617 25.0609 52.0801 27.5793 52.0801C30.0977 52.0801 32.1393 53.3617 32.1393 55.8801Z" fill="#FFDF3D" stroke="#45413C" stroke-width="1.5" stroke-linecap="round" stroke-linejoin="round"/>
<path d="M32.1393 62.7202C32.1393 65.2386 30.0993 68.0402 27.5793 68.0402C25.0593 68.0402 23.0193 65.2386 23.0193 62.7202C23.0193 60.2018 25.0609 58.9202 27.5793 58.9202C30.0977 58.9202 32.1393 60.2018 32.1393 62.7202Z" fill="#FFDF3D" stroke="#45413C" stroke-width="1.5" stroke-linecap="round" stroke-linejoin="round"/>
<path d="M54.9397 46.76H54.1797V42.96C54.1797 38.9287 52.5783 35.0625 49.7278 32.212C46.8772 29.3614 43.011 27.76 38.9797 27.76C34.9484 27.76 31.0823 29.3614 28.2317 32.212C25.3812 35.0625 23.7797 38.9287 23.7797 42.96V46.76H23.0197C20.9221 46.76 19.2197 48.9712 19.2197 51.7008C19.2197 54.4304 20.9221 56.64 23.0197 56.64C23.6719 56.628 24.3038 56.4114 24.8261 56.0208C25.9225 58.886 27.8625 61.351 30.3899 63.09C32.9172 64.829 35.9127 65.76 38.9805 65.76C42.0483 65.76 45.0439 64.829 47.5712 63.09C50.0985 61.351 52.0386 58.886 53.1349 56.0208C53.6569 56.4111 54.2881 56.6277 54.9397 56.64C57.0389 56.64 58.7397 54.4288 58.7397 51.7008C58.7397 48.9728 57.0389 46.76 54.9397 46.76Z" fill="#FFCEBF" stroke="#45413C" stroke-width="1.5" stroke-linecap="round" stroke-linejoin="round"/>
<path d="M34.4001 57.0913C35.6328 58.2654 37.2698 58.9203 38.9721 58.9203C40.6745 58.9203 42.3115 58.2654 43.5441 57.0913" stroke="#45413C" stroke-width="1.5" stroke-linecap="round" stroke-linejoin="round"/>
<path d="M47.3395 48.28C47.1518 47.8284 46.8345 47.4426 46.4278 47.1712C46.021 46.8997 45.5429 46.7549 45.0539 46.7549C44.5649 46.7549 44.0868 46.8997 43.6801 47.1712C43.2733 47.4426 42.956 47.8284 42.7683 48.28" stroke="#45413C" stroke-width="1.5" stroke-linecap="round" stroke-linejoin="round"/>
<path d="M35.2002 48.2801C35.0122 47.8287 34.6947 47.443 34.2879 47.1717C33.881 46.9004 33.4029 46.7556 32.9138 46.7556C32.4248 46.7556 31.9467 46.9004 31.5398 47.1717C31.1329 47.443 30.8155 47.8287 30.6274 48.2801" stroke="#45413C" stroke-width="1.5" stroke-linecap="round" stroke-linejoin="round"/>
<path d="M28.3391 53.2192C28.3391 53.4688 28.3883 53.7159 28.4838 53.9466C28.5793 54.1772 28.7193 54.3867 28.8958 54.5632C29.0724 54.7397 29.2819 54.8797 29.5125 54.9753C29.7431 55.0708 29.9903 55.12 30.2399 55.12C30.4895 55.12 30.7367 55.0708 30.9673 54.9753C31.1979 54.8797 31.4075 54.7397 31.584 54.5632C31.7605 54.3867 31.9005 54.1772 31.996 53.9466C32.0916 53.7159 32.1407 53.4688 32.1407 53.2192C32.1407 52.9695 32.0916 52.7224 31.996 52.4918C31.9005 52.2611 31.7605 52.0516 31.584 51.8751C31.4075 51.6986 31.1979 51.5586 30.9673 51.463C30.7367 51.3675 30.4895 51.3184 30.2399 51.3184C29.9903 51.3184 29.7431 51.3675 29.5125 51.463C29.2819 51.5586 29.0724 51.6986 28.8958 51.8751C28.7193 52.0516 28.5793 52.2611 28.4838 52.4918C28.3883 52.7224 28.3391 52.9695 28.3391 53.2192Z" fill="#FFB59E"/>
<path d="M45.821 53.2193C45.821 53.4687 45.8702 53.7156 45.9656 53.9461C46.0611 54.1765 46.201 54.3858 46.3773 54.5622C46.5537 54.7386 46.763 54.8785 46.9935 54.9739C47.2239 55.0693 47.4708 55.1185 47.7202 55.1185C47.9697 55.1185 48.2166 55.0693 48.447 54.9739C48.6775 54.8785 48.8868 54.7386 49.0632 54.5622C49.2395 54.3858 49.3794 54.1765 49.4749 53.9461C49.5703 53.7156 49.6194 53.4687 49.6194 53.2193C49.6194 52.9699 49.5703 52.7229 49.4749 52.4925C49.3794 52.2621 49.2395 52.0527 49.0632 51.8763C48.8868 51.7 48.6775 51.5601 48.447 51.4646C48.2166 51.3692 47.9697 51.3201 47.7202 51.3201C47.4708 51.3201 47.2239 51.3692 46.9935 51.4646C46.763 51.5601 46.5537 51.7 46.3773 51.8763C46.201 52.0527 46.0611 52.2621 45.9656 52.4925C45.8702 52.7229 45.821 52.9699 45.821 53.2193Z" fill="#FFB59E"/>
<path d="M23.0209 51.3201C22.7202 51.3198 22.4261 51.4086 22.176 51.5755C21.9258 51.7423 21.7307 51.9796 21.6154 52.2573C21.5001 52.535 21.4698 52.8407 21.5283 53.1356C21.5867 53.4306 21.7314 53.7016 21.9439 53.9143C22.1564 54.127 22.4272 54.272 22.7221 54.3307C23.017 54.3895 23.3227 54.3595 23.6006 54.2445C23.8784 54.1295 24.1159 53.9347 24.283 53.6847C24.4501 53.4347 24.5393 53.1408 24.5393 52.8401C24.5393 52.4372 24.3793 52.0508 24.0946 51.7658C23.8099 51.4808 23.4237 51.3205 23.0209 51.3201Z" fill="#45413C"/>
<path d="M54.9392 51.3201C54.6386 51.3201 54.3447 51.4092 54.0947 51.5762C53.8448 51.7433 53.6499 51.9806 53.5349 52.2584C53.4198 52.5361 53.3897 52.8418 53.4484 53.1366C53.507 53.4315 53.6518 53.7023 53.8644 53.9149C54.077 54.1274 54.3478 54.2722 54.6427 54.3309C54.9375 54.3895 55.2431 54.3594 55.5209 54.2444C55.7986 54.1293 56.036 53.9345 56.203 53.6845C56.37 53.4346 56.4592 53.1407 56.4592 52.8401C56.4594 52.6404 56.4202 52.4427 56.3439 52.2581C56.2676 52.0736 56.1556 51.906 56.0145 51.7648C55.8733 51.6236 55.7056 51.5117 55.5211 51.4353C55.3366 51.359 55.1389 51.3199 54.9392 51.3201Z" fill="#45413C"/>
<path d="M38.9793 25.48C29.3265 25.48 21.4993 32.5968 21.4993 43.72C21.5073 44.8386 21.5917 45.9553 21.7521 47.0624C22.1473 46.8703 22.5799 46.7671 23.0193 46.76C23.1304 46.7679 23.241 46.7823 23.3505 46.8032C23.4921 46.7783 23.6355 46.7638 23.7793 46.76C24.4398 46.808 25.0576 47.104 25.509 47.5886C25.9604 48.0732 26.2118 48.7106 26.2129 49.3728C26.7864 47.3639 26.8958 45.2509 26.5329 43.1936C28.1329 43.728 30.7713 41.4448 30.7713 41.4448V37.792C33.427 38.7154 36.1809 39.3275 38.9777 39.616C41.775 39.3276 44.5295 38.7155 47.1857 37.792V41.44C47.1857 41.44 49.8209 43.7232 51.4241 43.1888C51.0611 45.2461 51.1705 47.3591 51.7441 49.368C51.7451 48.706 51.9963 48.0689 52.4473 47.5843C52.8984 47.0998 53.5159 46.8036 54.1761 46.7552C54.3204 46.7589 54.4643 46.7734 54.6065 46.7984C54.7154 46.7776 54.8255 46.7632 54.9361 46.7552C55.376 46.7621 55.8091 46.8653 56.2049 47.0576C56.3647 45.9505 56.4486 44.8337 56.4561 43.7152C56.4593 32.5968 48.6401 25.48 38.9793 25.48Z" fill="#FFDF3D" stroke="#45413C" stroke-width="1.5" stroke-linecap="round" stroke-linejoin="round"/>
<path d="M51.8996 26.2401C51.8996 33.3761 46.1156 41.4401 38.9796 41.4401C31.8436 41.4401 26.0596 33.3761 26.0596 26.2401C26.0596 19.1041 31.8404 15.6001 38.9796 15.6001C46.1188 15.6001 51.8996 19.1041 51.8996 26.2401Z" fill="#FFDF3D"/>
<path d="M38.9796 22.4401C44.93 22.4401 49.9268 24.8865 51.4292 29.8321C51.7311 28.6583 51.889 27.4521 51.8996 26.2401C51.8996 19.1041 46.1156 15.6001 38.9796 15.6001C31.8436 15.6001 26.0596 19.1041 26.0596 26.2401C26.0733 27.4525 26.2344 28.6587 26.5396 29.8321C28.034 24.8865 33.0308 22.4401 38.9796 22.4401Z" fill="#FFEF9E"/>
<path d="M51.8996 26.2401C51.8996 33.3761 46.1156 41.4401 38.9796 41.4401C31.8436 41.4401 26.0596 33.3761 26.0596 26.2401C26.0596 19.1041 31.8404 15.6001 38.9796 15.6001C46.1188 15.6001 51.8996 19.1041 51.8996 26.2401Z" stroke="#45413C" stroke-width="1.5" stroke-linecap="round" stroke-linejoin="round"/>
<path d="M32.1393 69.56C32.1393 72.0784 30.0993 74.88 27.5793 74.88C25.0593 74.88 23.0193 72.0784 23.0193 69.56C23.0193 67.0416 25.0609 65.76 27.5793 65.76C30.0977 65.76 32.1393 67.04 32.1393 69.56Z" fill="#FFDF3D" stroke="#45413C" stroke-width="1.5" stroke-linecap="round" stroke-linejoin="round"/>
<path d="M32.1393 76.4001C32.1393 78.9185 30.0993 81.7201 27.5793 81.7201C25.0593 81.7201 23.0193 78.9185 23.0193 76.4001C23.0193 73.8817 25.0609 72.6001 27.5793 72.6001C30.0977 72.6001 32.1393 73.8817 32.1393 76.4001Z" fill="#FFDF3D" stroke="#45413C" stroke-width="1.5" stroke-linecap="round" stroke-linejoin="round"/>
<path d="M30.6193 89.32C30.2946 91.5967 29.765 93.8394 29.0369 96.0208C28.9444 96.3355 28.7525 96.6118 28.4899 96.8084C28.2273 97.0049 27.9081 97.1111 27.5801 97.1111C27.2521 97.1111 26.9329 97.0049 26.6703 96.8084C26.4077 96.6118 26.2158 96.3355 26.1233 96.0208C25.3949 93.8394 24.8647 91.5967 24.5393 89.32C24.5393 87.2208 25.4817 86.28 27.5793 86.28C29.6769 86.28 30.6193 87.2208 30.6193 89.32Z" fill="#FFDF3D" stroke="#45413C" stroke-width="1.5" stroke-linecap="round" stroke-linejoin="round"/>
<path d="M27.5796 86.2802C27.1764 86.2802 26.7898 86.1201 26.5048 85.835C26.2197 85.55 26.0596 85.1634 26.0596 84.7602V83.2402C26.0596 82.8371 26.2197 82.4505 26.5048 82.1654C26.7898 81.8804 27.1764 81.7202 27.5796 81.7202C27.9827 81.7202 28.3693 81.8804 28.6544 82.1654C28.9394 82.4505 29.0996 82.8371 29.0996 83.2402V84.7602C29.0996 85.1634 28.9394 85.55 28.6544 85.835C28.3693 86.1201 27.9827 86.2802 27.5796 86.2802Z" fill="#FF6242" stroke="#45413C" stroke-width="1.5" stroke-linecap="round" stroke-linejoin="round"/>
<path opacity="0.15" d="M55.9216 137.298C55.9216 137.662 56.5444 138.024 57.7545 138.361C58.9645 138.698 60.7381 139.004 62.974 139.262C65.2099 139.52 67.8643 139.724 70.7856 139.864C73.7069 140.003 76.838 140.075 80 140.075C83.162 140.075 86.2931 140.003 89.2144 139.864C92.1358 139.724 94.7901 139.52 97.026 139.262C99.2619 139.004 101.036 138.698 102.246 138.361C103.456 138.024 104.078 137.662 104.078 137.298C104.078 136.933 103.456 136.572 102.246 136.235C101.036 135.898 99.2619 135.591 97.026 135.334C94.7901 135.076 92.1358 134.871 89.2144 134.731C86.2931 134.592 83.162 134.52 80 134.52C76.838 134.52 73.7069 134.592 70.7856 134.731C67.8643 134.871 65.2099 135.076 62.974 135.334C60.7381 135.591 58.9645 135.898 57.7545 136.235C56.5444 136.572 55.9216 136.933 55.9216 137.298Z" fill="#45413C"/>
<path d="M42.031 74.3232H117.972V128.037H42.031V74.3232Z" fill="#DAEDF7"/>
<path d="M117.971 77.525V78.021H42.0354V77.525C42.0339 77.1043 42.1157 76.6875 42.276 76.2986C42.4363 75.9097 42.6719 75.5564 42.9694 75.2589C43.2668 74.9615 43.6202 74.7258 44.0091 74.5655C44.398 74.4052 44.8148 74.3235 45.2354 74.325H114.771C115.62 74.325 116.434 74.6621 117.034 75.2622C117.634 75.8623 117.971 76.6763 117.971 77.525Z" fill="white"/>
<path d="M42.0356 124.32H117.972V124.832C117.969 125.68 117.631 126.492 117.032 127.092C116.432 127.692 115.62 128.03 114.772 128.032H45.2356C44.387 128.032 43.573 127.695 42.9729 127.095C42.3728 126.495 42.0356 125.681 42.0356 124.832V124.32Z" fill="#C0DCEB"/>
<path d="M92.9602 133.6C93.0896 133.6 93.2175 133.627 93.3358 133.68C93.4541 133.732 93.5601 133.809 93.647 133.905C93.734 134 93.7999 134.113 93.8406 134.236C93.8813 134.359 93.8959 134.489 93.8834 134.618C93.811 135.354 93.4672 136.037 92.9188 136.534C92.3704 137.03 91.6568 137.305 90.917 137.304H69.0898C68.35 137.305 67.6364 137.03 67.088 136.534C66.5396 136.037 66.1958 135.354 66.1234 134.618C66.1107 134.489 66.1249 134.36 66.1652 134.237C66.2054 134.115 66.2707 134.002 66.357 133.906C66.4433 133.811 66.5487 133.734 66.6663 133.681C66.7839 133.628 66.9113 133.601 67.0402 133.6H92.9602Z" fill="#DAEDF7" stroke="#45413C" stroke-width="1.5" stroke-linecap="round" stroke-linejoin="round"/>
<path d="M42.031 74.3232H117.972V128.037H42.031V74.3232Z" stroke="#45413C" stroke-width="1.5" stroke-linecap="round" stroke-linejoin="round"/>
<path d="M91.1137 137.298H68.8865C71.1825 131.174 72.2145 115.562 72.5025 110.328C72.5291 109.856 72.7359 109.413 73.0801 109.089C73.4243 108.766 73.8796 108.586 74.3521 108.589H85.6481C86.1205 108.586 86.5759 108.766 86.92 109.089C87.2642 109.413 87.471 109.856 87.4977 110.328C87.7857 115.562 88.8177 131.174 91.1137 137.298Z" fill="#DAEDF7" stroke="#45413C" stroke-width="1.5" stroke-linecap="round" stroke-linejoin="round"/>
<path d="M48.5122 119.702V122.48" stroke="#45413C" stroke-width="1.5" stroke-linecap="round" stroke-linejoin="round"/>
<path d="M52.2175 119.702V122.48" stroke="#45413C" stroke-width="1.5" stroke-linecap="round" stroke-linejoin="round"/>
<path d="M55.9216 119.702V122.48" stroke="#45413C" stroke-width="1.5" stroke-linecap="round" stroke-linejoin="round"/>
<path d="M59.626 119.702V122.48" stroke="#45413C" stroke-width="1.5" stroke-linecap="round" stroke-linejoin="round"/>
<path d="M47.5874 78.0273H111.488" stroke="#45413C" stroke-width="1.5" stroke-linecap="round" stroke-linejoin="round"/>
<path d="M95.2271 51.3122V47.509C95.2271 43.4758 93.6249 39.6077 90.773 36.7558C87.9211 33.9039 84.0531 32.3018 80.0199 32.3018C75.9867 32.3018 72.1187 33.9039 69.2668 36.7558C66.4149 39.6077 64.8127 43.4758 64.8127 47.509V51.3122C64.4135 51.3122 64.0182 51.3908 63.6493 51.5436C63.2805 51.6963 62.9454 51.9203 62.6631 52.2025C62.3808 52.4848 62.1569 52.82 62.0041 53.1888C61.8513 53.5576 61.7727 53.9529 61.7727 54.3522C61.7727 54.7514 61.8513 55.1467 62.0041 55.5155C62.1569 55.8843 62.3808 56.2195 62.6631 56.5018C62.9454 56.784 63.2805 57.008 63.6493 57.1607C64.0182 57.3135 64.4135 57.3921 64.8127 57.3921C64.8767 57.3921 64.9359 57.3778 64.9999 57.373C65.536 60.9732 67.3474 64.2611 70.1043 66.6378C72.8611 69.0146 76.38 70.322 80.0199 70.322C83.6598 70.322 87.1787 69.0146 89.9355 66.6378C92.6924 64.2611 94.5038 60.9732 95.0399 57.373C95.1039 57.373 95.1631 57.3921 95.2271 57.3921C95.6263 57.3921 96.0216 57.3135 96.3905 57.1607C96.7593 57.008 97.0944 56.784 97.3767 56.5018C97.659 56.2195 97.8829 55.8843 98.0357 55.5155C98.1885 55.1467 98.2671 54.7514 98.2671 54.3522C98.2671 53.9529 98.1885 53.5576 98.0357 53.1888C97.8829 52.82 97.659 52.4848 97.3767 52.2025C97.0944 51.9203 96.7593 51.6963 96.3905 51.5436C96.0216 51.3908 95.6263 51.3122 95.2271 51.3122Z" fill="#D18660"/>
<path d="M95.2271 51.3122V47.509C95.2271 43.4758 93.6249 39.6077 90.773 36.7558C87.9211 33.9039 84.0531 32.3018 80.0199 32.3018C75.9867 32.3018 72.1187 33.9039 69.2668 36.7558C66.4149 39.6077 64.8127 43.4758 64.8127 47.509V51.3122C64.4135 51.3122 64.0182 51.3908 63.6493 51.5436C63.2805 51.6963 62.9454 51.9203 62.6631 52.2025C62.3808 52.4848 62.1569 52.82 62.0041 53.1888C61.8513 53.5576 61.7727 53.9529 61.7727 54.3522C61.7727 54.7514 61.8513 55.1467 62.0041 55.5155C62.1569 55.8843 62.3808 56.2195 62.6631 56.5018C62.9454 56.784 63.2805 57.008 63.6493 57.1607C64.0182 57.3135 64.4135 57.3921 64.8127 57.3921C64.8767 57.3921 64.9359 57.3778 64.9999 57.373C65.536 60.9732 67.3474 64.2611 70.1043 66.6378C72.8611 69.0146 76.38 70.322 80.0199 70.322C83.6598 70.322 87.1787 69.0146 89.9355 66.6378C92.6924 64.2611 94.5038 60.9732 95.0399 57.373C95.1039 57.373 95.1631 57.3921 95.2271 57.3921C95.6263 57.3921 96.0216 57.3135 96.3905 57.1607C96.7593 57.008 97.0944 56.784 97.3767 56.5018C97.659 56.2195 97.8829 55.8843 98.0357 55.5155C98.1885 55.1467 98.2671 54.7514 98.2671 54.3522C98.2671 53.9529 98.1885 53.5576 98.0357 53.1888C97.8829 52.82 97.659 52.4848 97.3767 52.2025C97.0944 51.9203 96.7593 51.6963 96.3905 51.5436C96.0216 51.3908 95.6263 51.3122 95.2271 51.3122V51.3122Z" stroke="#45413C" stroke-width="1.5" stroke-linecap="round" stroke-linejoin="round"/>
<path d="M69.3745 57.7743C69.3745 58.024 69.4237 58.2711 69.5192 58.5017C69.6147 58.7324 69.7547 58.9419 69.9312 59.1184C70.1078 59.2949 70.3173 59.4349 70.5479 59.5305C70.7785 59.626 71.0257 59.6751 71.2753 59.6751C71.5249 59.6751 71.7721 59.626 72.0027 59.5305C72.2333 59.4349 72.4429 59.2949 72.6194 59.1184C72.7959 58.9419 72.9359 58.7324 73.0314 58.5017C73.127 58.2711 73.1761 58.024 73.1761 57.7743C73.1761 57.5247 73.127 57.2776 73.0314 57.0469C72.9359 56.8163 72.7959 56.6068 72.6194 56.4303C72.4429 56.2538 72.2333 56.1138 72.0027 56.0182C71.7721 55.9227 71.5249 55.8735 71.2753 55.8735C71.0257 55.8735 70.7785 55.9227 70.5479 56.0182C70.3173 56.1138 70.1078 56.2538 69.9312 56.4303C69.7547 56.6068 69.6147 56.8163 69.5192 57.0469C69.4237 57.2776 69.3745 57.5247 69.3745 57.7743Z" fill="#BD704A"/>
<path d="M86.864 57.7743C86.864 58.024 86.9132 58.2711 87.0087 58.5017C87.1042 58.7324 87.2442 58.9419 87.4207 59.1184C87.5973 59.2949 87.8068 59.4349 88.0374 59.5305C88.268 59.626 88.5152 59.6751 88.7648 59.6751C89.0144 59.6751 89.2616 59.626 89.4922 59.5305C89.7228 59.4349 89.9324 59.2949 90.1089 59.1184C90.2854 58.9419 90.4254 58.7324 90.5209 58.5017C90.6165 58.2711 90.6656 58.024 90.6656 57.7743C90.6656 57.5247 90.6165 57.2776 90.5209 57.0469C90.4254 56.8163 90.2854 56.6068 90.1089 56.4303C89.9324 56.2538 89.7228 56.1138 89.4922 56.0182C89.2616 55.9227 89.0144 55.8735 88.7648 55.8735C88.5152 55.8735 88.268 55.9227 88.0374 56.0182C87.8068 56.1138 87.5973 56.2538 87.4207 56.4303C87.2442 56.6068 87.1042 56.8163 87.0087 57.0469C86.9132 57.2776 86.864 57.5247 86.864 57.7743Z" fill="#BD704A"/>
<path d="M75.4451 61.6353C76.6786 62.8102 78.3168 63.4655 80.0203 63.4655C81.7238 63.4655 83.362 62.8102 84.5955 61.6353" stroke="#45413C" stroke-width="1.5" stroke-linecap="round" stroke-linejoin="round"/>
<path d="M88.384 52.8322C88.1956 52.3809 87.878 51.9953 87.471 51.7242C87.064 51.453 86.5858 51.3083 86.0968 51.3083C85.6077 51.3083 85.1296 51.453 84.7226 51.7242C84.3156 51.9953 83.9979 52.3809 83.8096 52.8322" stroke="#45413C" stroke-width="1.5" stroke-linecap="round" stroke-linejoin="round"/>
<path d="M76.2048 52.8322C76.0164 52.3809 75.6988 51.9953 75.2918 51.7242C74.8848 51.453 74.4066 51.3083 73.9176 51.3083C73.4285 51.3083 72.9504 51.453 72.5434 51.7242C72.1364 51.9953 71.8187 52.3809 71.6304 52.8322" stroke="#45413C" stroke-width="1.5" stroke-linecap="round" stroke-linejoin="round"/>
<path d="M96.7492 43.013V49.8098C96.7484 50.2088 96.5895 50.5913 96.3073 50.8735C96.0251 51.1556 95.6427 51.3145 95.2436 51.3154C95.0398 51.3137 94.8384 51.2718 94.6508 51.1921C94.4632 51.1125 94.2932 50.9965 94.1505 50.851C94.0078 50.7055 93.8952 50.5332 93.8192 50.3441C93.7432 50.155 93.7053 49.9528 93.7076 49.749C93.7024 47.8498 93.1486 45.9927 92.1128 44.4008C91.077 42.809 89.6034 41.5503 87.8692 40.7762C86.1261 41.6126 84.2338 42.0934 82.3028 42.1906H82.1956C82.2129 42.7724 82.094 43.3503 81.8484 43.8781C81.6029 44.4059 81.2374 44.869 80.7812 45.2306C80.3362 45.666 79.7991 45.996 79.2095 46.1962C78.62 46.3965 77.993 46.4618 77.3748 46.3874C77.2504 46.3679 77.1329 46.3176 77.0329 46.2411C76.9329 46.1646 76.8536 46.0643 76.8023 45.9493C76.7509 45.8344 76.7291 45.7084 76.7388 45.5829C76.7486 45.4573 76.7895 45.3362 76.858 45.2306C77.0423 44.8821 77.1486 44.4976 77.1696 44.104C77.1906 43.7103 77.1258 43.3167 76.9796 42.9506C76.2196 40.7298 73.178 40.669 73.178 40.669L72.1748 40.7746C70.4407 41.549 68.9671 42.8077 67.9311 44.3994C66.8951 45.9912 66.3408 47.8482 66.3348 49.7474C66.3374 49.9512 66.2996 50.1536 66.2237 50.3428C66.1477 50.532 66.0352 50.7043 65.8924 50.8499C65.7497 50.9954 65.5796 51.1114 65.3919 51.191C65.2042 51.2706 65.0027 51.3123 64.7988 51.3138C64.3999 51.3125 64.0177 51.1535 63.7356 50.8714C63.4535 50.5893 63.2945 50.2071 63.2932 49.8082V43.013C63.2939 41.6037 63.5938 40.2106 64.173 38.9258C64.7523 37.6411 65.5976 36.4939 66.6532 35.5602C66.9329 35.3086 67.1205 34.9707 67.186 34.6002C67.8692 31.1778 73.3588 28.501 80.0196 28.501C86.6804 28.501 92.1556 31.1778 92.8548 34.6002C92.9191 34.9711 93.1068 35.3094 93.3876 35.5602C94.4436 36.4937 95.2893 37.6408 95.8688 38.9256C96.4483 40.2104 96.7484 41.6035 96.7492 43.013Z" fill="#724F3D"/>
<path d="M82.1954 42.1904C82.1506 40.928 81.421 39.9104 80.781 39.9104" stroke="#45413C" stroke-width="1.5" stroke-linecap="round" stroke-linejoin="round"/>
<path d="M93.3809 35.5618C93.1064 35.3077 92.9231 34.9704 92.8593 34.6018C92.1633 31.1698 86.6865 28.4978 80.0193 28.4978C73.3521 28.4978 67.8769 31.1698 67.1809 34.6018C67.1171 34.9704 66.9338 35.3077 66.6593 35.5618C65.602 36.4927 64.7553 37.6384 64.1759 38.9225C63.5965 40.2066 63.2977 41.5995 63.2993 43.0082V46.8098C63.2977 45.4011 63.5965 44.0082 64.1759 42.7241C64.7553 41.44 65.602 40.2943 66.6593 39.3634C66.9338 39.1093 67.1171 38.772 67.1809 38.4034C67.8769 34.973 73.3537 32.2994 80.0193 32.2994C86.6849 32.2994 92.1601 34.9762 92.8593 38.4002C92.9231 38.7688 93.1064 39.1061 93.3809 39.3602C94.4383 40.2911 95.2849 41.4368 95.8643 42.7209C96.4437 44.005 96.7426 45.3979 96.7409 46.8066V43.0082C96.7426 41.5995 96.4437 40.2066 95.8643 38.9225C95.2849 37.6384 94.4383 36.4927 93.3809 35.5618Z" fill="#A86C4D"/>
<path d="M96.7492 43.013V49.8098C96.7484 50.2088 96.5895 50.5913 96.3073 50.8735C96.0251 51.1556 95.6427 51.3145 95.2436 51.3154C95.0398 51.3137 94.8384 51.2718 94.6508 51.1921C94.4632 51.1125 94.2932 50.9965 94.1505 50.851C94.0078 50.7055 93.8952 50.5332 93.8192 50.3441C93.7432 50.155 93.7053 49.9528 93.7076 49.749C93.7024 47.8498 93.1486 45.9927 92.1128 44.4008C91.077 42.809 89.6034 41.5503 87.8692 40.7762C86.1261 41.6126 84.2338 42.0934 82.3028 42.1906H82.1956C82.2129 42.7724 82.094 43.3503 81.8484 43.8781C81.6029 44.4059 81.2374 44.869 80.7812 45.2306C80.3362 45.666 79.7991 45.996 79.2095 46.1962C78.62 46.3965 77.993 46.4618 77.3748 46.3874C77.2504 46.3679 77.1329 46.3176 77.0329 46.2411C76.9329 46.1646 76.8536 46.0643 76.8023 45.9493C76.7509 45.8344 76.7291 45.7084 76.7388 45.5829C76.7486 45.4573 76.7895 45.3362 76.858 45.2306C77.0423 44.8821 77.1486 44.4976 77.1696 44.104C77.1906 43.7103 77.1258 43.3167 76.9796 42.9506C76.2196 40.7298 73.178 40.669 73.178 40.669L72.1748 40.7746C70.4407 41.549 68.9671 42.8077 67.9311 44.3994C66.8951 45.9912 66.3408 47.8482 66.3348 49.7474C66.3374 49.9512 66.2996 50.1536 66.2237 50.3428C66.1477 50.532 66.0352 50.7043 65.8924 50.8499C65.7497 50.9954 65.5796 51.1114 65.3919 51.191C65.2042 51.2706 65.0027 51.3123 64.7988 51.3138C64.3999 51.3125 64.0177 51.1535 63.7356 50.8714C63.4535 50.5893 63.2945 50.2071 63.2932 49.8082V43.013C63.2939 41.6037 63.5938 40.2106 64.173 38.9258C64.7523 37.6411 65.5976 36.4939 66.6532 35.5602C66.9329 35.3086 67.1205 34.9707 67.186 34.6002C67.8692 31.1778 73.3588 28.501 80.0196 28.501C86.6804 28.501 92.1556 31.1778 92.8548 34.6002C92.9191 34.9711 93.1068 35.3094 93.3876 35.5602C94.4436 36.4937 95.2893 37.6408 95.8688 38.9256C96.4483 40.2104 96.7484 41.6035 96.7492 43.013V43.013Z" stroke="#45413C" stroke-width="1.5" stroke-linecap="round" stroke-linejoin="round"/>
<path d="M127.063 25.1873C127.063 28.9665 123.999 57.8833 120.219 57.8833C116.44 57.8833 113.376 28.9601 113.376 25.1873C113.376 21.4145 116.44 17.5825 120.219 17.5825C123.999 17.5825 127.063 21.4081 127.063 25.1873Z" fill="#614B44"/>
<path d="M120.219 22.9057C121.805 23.0266 123.309 23.6605 124.502 24.7115C125.696 25.7626 126.515 27.1736 126.835 28.7313C126.983 27.0529 127.063 25.7937 127.063 25.1873C127.063 21.4081 123.999 17.5825 120.219 17.5825C116.44 17.5825 113.376 21.4081 113.376 25.1873C113.376 25.7937 113.456 27.0529 113.603 28.7313C113.924 27.1736 114.743 25.7626 115.937 24.7115C117.13 23.6605 118.634 23.0266 120.219 22.9057Z" fill="#947063"/>
<path d="M127.063 25.1873C127.063 28.9665 123.999 57.8833 120.219 57.8833C116.44 57.8833 113.376 28.9601 113.376 25.1873C113.376 21.4145 116.44 17.5825 120.219 17.5825C123.999 17.5825 127.063 21.4081 127.063 25.1873Z" stroke="#45413C" stroke-width="1.5" stroke-linejoin="round"/>
<path d="M135.427 46.4466V42.645C135.427 38.6116 133.825 34.7434 130.973 31.8913C128.121 29.0393 124.253 27.437 120.219 27.437C116.186 27.437 112.318 29.0393 109.466 31.8913C106.614 34.7434 105.011 38.6116 105.011 42.645V46.4466C104.205 46.4466 103.432 46.7669 102.862 47.337C102.292 47.9071 101.971 48.6804 101.971 49.4866C101.971 50.2929 102.292 51.0661 102.862 51.6362C103.432 52.2063 104.205 52.5266 105.011 52.5266C105.075 52.5266 105.135 52.5122 105.199 52.5074C105.736 56.1069 107.548 59.3939 110.305 61.7698C113.062 64.1457 116.58 65.4526 120.219 65.4526C123.859 65.4526 127.377 64.1457 130.134 61.7698C132.891 59.3939 134.703 56.1069 135.24 52.5074C135.304 52.5074 135.363 52.5266 135.427 52.5266C136.234 52.5266 137.007 52.2063 137.577 51.6362C138.147 51.0661 138.467 50.2929 138.467 49.4866C138.467 48.6804 138.147 47.9071 137.577 47.337C137.007 46.7669 136.234 46.4466 135.427 46.4466Z" fill="#FFDA8F" stroke="#45413C" stroke-width="1.5" stroke-linecap="round" stroke-linejoin="round"/>
<path d="M109.574 52.9106C109.574 53.4147 109.775 53.8982 110.131 54.2546C110.488 54.6111 110.971 54.8114 111.475 54.8114C111.979 54.8114 112.463 54.6111 112.819 54.2546C113.176 53.8982 113.376 53.4147 113.376 52.9106C113.376 52.4064 113.176 51.923 112.819 51.5665C112.463 51.21 111.979 51.0098 111.475 51.0098C110.971 51.0098 110.488 51.21 110.131 51.5665C109.775 51.923 109.574 52.4064 109.574 52.9106Z" fill="#FFBE3D"/>
<path d="M127.062 52.9106C127.062 53.4147 127.263 53.8982 127.619 54.2546C127.976 54.6111 128.459 54.8114 128.963 54.8114C129.467 54.8114 129.951 54.6111 130.307 54.2546C130.664 53.8982 130.864 53.4147 130.864 52.9106C130.864 52.4064 130.664 51.923 130.307 51.5665C129.951 51.21 129.467 51.0098 128.963 51.0098C128.459 51.0098 127.976 51.21 127.619 51.5665C127.263 51.923 127.062 52.4064 127.062 52.9106Z" fill="#FFBE3D"/>
<path d="M124.782 56.7712C123.558 57.9511 121.923 58.6103 120.222 58.6103C118.522 58.6103 116.887 57.9511 115.662 56.7712" stroke="#45413C" stroke-width="1.5" stroke-linecap="round" stroke-linejoin="round"/>
<path d="M116.418 47.9683C116.23 47.5178 115.914 47.133 115.508 46.8622C115.102 46.5915 114.625 46.447 114.137 46.447C113.649 46.447 113.172 46.5915 112.766 46.8622C112.36 47.133 112.044 47.5178 111.856 47.9683" stroke="#45413C" stroke-width="1.5" stroke-linecap="round" stroke-linejoin="round"/>
<path d="M128.584 47.9682C128.396 47.5178 128.079 47.1331 127.673 46.8625C127.267 46.5919 126.79 46.4475 126.302 46.4475C125.814 46.4475 125.337 46.5919 124.931 46.8625C124.525 47.1331 124.209 47.5178 124.021 47.9682" stroke="#45413C" stroke-width="1.5" stroke-linecap="round" stroke-linejoin="round"/>
<path d="M105.011 46.4464V45.6864C105.011 45.6864 105.011 44.1664 107.293 44.1664H117.938C118.339 44.1747 118.738 44.1018 119.111 43.9519C119.483 43.8021 119.822 43.5784 120.106 43.2945C120.39 43.0105 120.613 42.6721 120.763 42.2995C120.913 41.927 120.986 41.5279 120.978 41.1264C120.978 38.3648 120.978 33.0976 127.235 32.1488C127.491 32.1103 127.752 32.1268 128 32.1971C128.249 32.2673 128.48 32.3898 128.677 32.5564C128.875 32.723 129.035 32.9298 129.146 33.163C129.258 33.3962 129.318 33.6505 129.323 33.9088C129.39 37.8352 130.142 46.4464 135.426 46.4464C136.05 46.4469 136.658 46.6403 137.168 47C137.825 44.4183 137.883 41.7206 137.339 39.1129C136.794 36.5051 135.661 34.0562 134.026 31.953C132.391 29.8498 130.297 28.1479 127.904 26.9773C125.511 25.8066 122.882 25.198 120.218 25.198C117.554 25.198 114.926 25.8066 112.533 26.9773C110.14 28.1479 108.046 29.8498 106.411 31.953C104.776 34.0562 103.642 36.5051 103.098 39.1129C102.553 41.7206 102.612 44.4183 103.269 47C103.778 46.64 104.387 46.4466 105.011 46.4464Z" fill="#614B44"/>
<path d="M120.219 31.2706C122.28 31.2681 124.326 31.6316 126.259 32.3442C126.567 32.2658 126.891 32.2002 127.237 32.1474C127.486 32.1106 127.739 32.1258 127.982 32.192C128.224 32.2582 128.45 32.3739 128.646 32.532C128.841 32.69 129.002 32.8869 129.117 33.1101C129.233 33.3334 129.301 33.5781 129.317 33.829C131.433 35.1236 133.25 36.8529 134.647 38.9023C136.044 40.9517 136.99 43.2745 137.423 45.717C137.881 43.1965 137.78 40.606 137.127 38.1288C136.474 35.6515 135.285 33.3479 133.644 31.381C132.002 29.414 129.949 27.8317 127.628 26.7458C125.308 25.66 122.777 25.0972 120.215 25.0972C117.654 25.0972 115.123 25.66 112.803 26.7458C110.482 27.8317 108.429 29.414 106.787 31.381C105.146 33.3479 103.957 35.6515 103.304 38.1288C102.651 40.606 102.55 43.1965 103.008 45.717C103.721 41.6699 105.837 38.0034 108.985 35.3615C112.132 32.7196 116.11 31.2711 120.219 31.2706Z" fill="#947063"/>
<path d="M105.011 46.4464V45.6864C105.011 45.6864 105.011 44.1664 107.293 44.1664H117.938C118.339 44.1747 118.738 44.1018 119.111 43.9519C119.483 43.8021 119.822 43.5784 120.106 43.2945C120.39 43.0105 120.613 42.6721 120.763 42.2995C120.913 41.927 120.986 41.5279 120.978 41.1264C120.978 38.3648 120.978 33.0976 127.235 32.1488C127.491 32.1103 127.752 32.1268 128 32.1971C128.249 32.2673 128.48 32.3898 128.677 32.5564C128.875 32.723 129.035 32.9298 129.146 33.163C129.258 33.3962 129.318 33.6505 129.323 33.9088C129.39 37.8352 130.142 46.4464 135.426 46.4464C136.05 46.4469 136.658 46.6403 137.168 47C137.825 44.4183 137.883 41.7206 137.339 39.1129C136.794 36.5051 135.661 34.0562 134.026 31.953C132.391 29.8498 130.297 28.1479 127.904 26.9773C125.511 25.8066 122.882 25.198 120.218 25.198C117.554 25.198 114.926 25.8066 112.533 26.9773C110.14 28.1479 108.046 29.8498 106.411 31.953C104.776 34.0562 103.642 36.5051 103.098 39.1129C102.553 41.7206 102.612 44.4183 103.269 47C103.778 46.64 104.387 46.4466 105.011 46.4464V46.4464Z" stroke="#45413C" stroke-width="1.5" stroke-linecap="round" stroke-linejoin="round"/>
<path d="M106.531 56.8512C106.581 60.1472 105.712 62.4512 104.632 62.4512C103.582 62.4512 102.731 59.8912 102.731 56.7472C102.731 53.6032 103.582 51.04 104.64 51.04" stroke="#45413C" stroke-width="1.5" stroke-linecap="round" stroke-linejoin="round"/>
<path d="M133.909 56.8512C133.858 60.1472 134.729 62.4512 135.809 62.4512C136.858 62.4512 137.709 59.8912 137.709 56.7472C137.709 53.6032 136.858 51.04 135.809 51.04" stroke="#45413C" stroke-width="1.5" stroke-linecap="round" stroke-linejoin="round"/>
<g clip-path="url(#clip0_7612_381187)">
<path d="M81.4759 96.3934C81.4759 97.2404 80.7426 97.7698 80.0931 97.7698C79.4436 97.7698 78.6645 97.5066 78.6645 96.3934V95.8521H77.8088V96.3934C77.8088 97.6262 78.834 98.6288 80.0931 98.6288C81.3523 98.6288 82.3774 97.6262 82.3774 96.3934V95.8521H81.4759V96.3934Z" fill="#130B43"/>
<path d="M74.2899 93.7793C74.2899 92.9704 74.9915 92.3126 75.8533 92.3126C76.7146 92.3126 77.4162 92.971 77.4162 93.7793H78.4009C78.4009 92.4604 77.2587 91.3879 75.8533 91.3879C74.448 91.3879 73.3052 92.4604 73.3052 93.7793H74.2899Z" fill="#130B43"/>
<path d="M82.4049 93.7793C82.4049 92.9704 83.1064 92.3126 83.9678 92.3126C84.8296 92.3126 85.5311 92.971 85.5311 93.7793H86.5159C86.5159 92.4604 85.3731 91.3879 83.9678 91.3879C82.5624 91.3879 81.4202 92.4604 81.4202 93.7793H82.4049Z" fill="#130B43"/>
<path fill-rule="evenodd" clip-rule="evenodd" d="M88.1048 90.642V87.4634C88.1048 86.3922 87.9745 85.649 87.7141 85.2337C87.4536 84.8184 86.9114 84.4982 86.0873 84.2731C85.8385 84.2033 85.7141 84.0907 85.7141 83.9355C85.7141 83.7259 85.994 83.6211 86.5538 83.6211H87.4051C88.3302 83.6211 89.0319 83.9083 89.51 84.4827C89.9881 85.0571 90.2272 85.8954 90.2272 86.9977V90.3509C90.2272 91.1271 90.3108 91.7248 90.4779 92.144C90.6451 92.5632 90.9541 92.9551 91.405 93.32C91.5372 93.4286 91.6033 93.5179 91.6033 93.5878C91.6033 93.6576 91.5372 93.7469 91.405 93.8556C90.9463 94.2281 90.6353 94.6221 90.4721 95.0374C90.3088 95.4526 90.2272 96.0484 90.2272 96.8246V100.166C90.2272 101.276 89.9862 102.118 89.5042 102.693C89.0221 103.267 88.3224 103.554 87.4051 103.554H86.5538C86.1884 103.554 85.9571 103.537 85.8599 103.502C85.7627 103.467 85.7141 103.38 85.7141 103.24C85.7141 103.046 85.8424 102.918 86.0989 102.856L86.5654 102.751C87.5916 102.518 88.1048 101.505 88.1048 99.7121V96.5335C88.1048 95.3304 88.3963 94.4804 88.9794 93.9836L89.201 93.7973C89.3098 93.7042 89.3642 93.6343 89.3642 93.5878C89.3642 93.5334 89.3098 93.4636 89.201 93.3782L88.9794 93.1919C88.3963 92.6951 88.1048 91.8452 88.1048 90.642Z" fill="#130B43"/>
<path fill-rule="evenodd" clip-rule="evenodd" d="M71.936 90.6147V87.436C71.936 86.3649 72.0662 85.6216 72.3267 85.2063C72.5871 84.7911 73.1294 84.4709 73.9535 84.2458C74.2023 84.1759 74.3267 84.0634 74.3267 83.9081C74.3267 83.6985 74.0468 83.5938 73.487 83.5938H72.6357C71.7106 83.5938 71.0089 83.8809 70.5308 84.4554C70.0527 85.0298 69.8136 85.8681 69.8136 86.9703V90.3236C69.8136 91.0998 69.73 91.6975 69.5629 92.1166C69.3957 92.5358 69.0867 92.9278 68.6358 93.2926C68.5036 93.4013 68.4375 93.4906 68.4375 93.5604C68.4375 93.6303 68.5036 93.7195 68.6358 93.8282C69.0945 94.2008 69.4054 94.5947 69.5687 95.01C69.732 95.4253 69.8136 96.021 69.8136 96.7973V100.139C69.8136 101.249 70.0546 102.091 70.5366 102.665C71.0186 103.24 71.7183 103.527 72.6357 103.527H73.487C73.8524 103.527 74.0837 103.51 74.1809 103.475C74.2781 103.44 74.3267 103.352 74.3267 103.213C74.3267 103.019 74.1984 102.891 73.9418 102.828L73.4754 102.724C72.4491 102.491 71.936 101.478 71.936 99.6848V96.5062C71.936 95.303 71.6445 94.4531 71.0614 93.9563L70.8398 93.77C70.731 93.6769 70.6766 93.607 70.6766 93.5604C70.6766 93.5061 70.731 93.4362 70.8398 93.3508L71.0614 93.1645C71.6445 92.6678 71.936 91.8178 71.936 90.6147Z" fill="#130B43"/>
</g>
<defs>
<clipPath id="clip0_7612_381187">
<rect width="23.1776" height="20" fill="white" transform="translate(68.4375 83.5938)"/>
</clipPath>
</defs>
</svg>
