<svg viewBox="0 0 70 64" fill="none" xmlns="http://www.w3.org/2000/svg">
<path d="M66.3766 32.3646C66.3772 27.6425 65.3208 22.9802 63.285 18.7195C61.2491 14.4589 58.2854 10.7079 54.6111 7.74184C50.9369 4.77572 46.6453 2.66964 42.0511 1.57806C37.457 0.486469 32.6767 0.437057 28.061 1.43344C23.4452 2.42983 19.1111 4.44675 15.3763 7.33627C11.6415 10.2258 8.60088 13.9147 6.47737 18.1323C4.35387 22.35 3.20135 26.9895 3.10433 31.7105C3.00732 36.4316 3.96828 41.1145 5.91673 45.4158H63.5575C65.4185 41.3167 66.3798 36.8664 66.3766 32.3646Z" fill="#C7F0FF"/>
<path d="M5.91699 45.4158C8.42655 50.9558 12.4797 55.6552 17.5911 58.9511C22.7024 62.2471 28.6555 64 34.7374 64C40.8193 64 46.7723 62.2471 51.8837 58.9511C56.9951 55.6552 61.0482 50.9558 63.5578 45.4158H5.91699Z" fill="#F2DFC2"/>
<path fill-rule="evenodd" clip-rule="evenodd" d="M3.55957 45.4158C3.55957 45.2338 3.70713 45.0862 3.88915 45.0862H65.5861C65.7681 45.0862 65.9157 45.2338 65.9157 45.4158C65.9157 45.5978 65.7681 45.7454 65.5861 45.7454H3.88915C3.70713 45.7454 3.55957 45.5978 3.55957 45.4158Z" fill="#45413C"/>
<path fill-rule="evenodd" clip-rule="evenodd" d="M0 45.4158C0 45.2338 0.147557 45.0862 0.329578 45.0862H2.30704C2.48907 45.0862 2.63662 45.2338 2.63662 45.4158C2.63662 45.5978 2.48907 45.7454 2.30704 45.7454H0.329578C0.147557 45.7454 0 45.5978 0 45.4158Z" fill="#45413C"/>
<path fill-rule="evenodd" clip-rule="evenodd" d="M66.8389 45.4158C66.8389 45.2338 66.9864 45.0862 67.1684 45.0862H69.1459C69.3279 45.0862 69.4755 45.2338 69.4755 45.4158C69.4755 45.5978 69.3279 45.7454 69.1459 45.7454H67.1684C66.9864 45.7454 66.8389 45.5978 66.8389 45.4158Z" fill="#45413C"/>
<path d="M17.0884 26.9629V23.6241H11.8283V26.9629C9.46946 27.5488 7.37437 28.9068 5.8765 30.821C4.37864 32.7351 3.56409 35.0952 3.5625 37.5257V45.4158H25.3542V37.5257C25.3527 35.0952 24.5382 32.735 23.0403 30.8208C21.5425 28.9067 19.4473 27.5486 17.0884 26.9629Z" fill="#FFCEBF"/>
<path fill-rule="evenodd" clip-rule="evenodd" d="M25.6208 36.3929C25.6274 36.5748 25.4853 36.7276 25.3034 36.7343C24.8014 36.7526 24.3266 36.9666 23.9804 37.3307C23.6343 37.6947 23.4444 38.1797 23.4513 38.682C23.4583 39.1843 23.6616 39.6639 24.0177 40.0182C24.3738 40.3724 24.8545 40.5733 25.3568 40.5776C25.5388 40.5792 25.6851 40.7281 25.6835 40.9101C25.6819 41.0921 25.5331 41.2383 25.351 41.2368C24.6765 41.2309 24.0311 40.9612 23.5528 40.4855C23.0746 40.0097 22.8016 39.3657 22.7922 38.6912C22.7829 38.0167 23.0379 37.3653 23.5027 36.8765C23.9676 36.3876 24.6053 36.1001 25.2794 36.0755C25.4613 36.0689 25.6141 36.211 25.6208 36.3929Z" fill="#656769"/>
<path fill-rule="evenodd" clip-rule="evenodd" d="M22.7235 31.9361C22.9055 31.9357 23.0533 32.083 23.0537 32.265C23.0548 32.8232 23.2595 33.3617 23.6293 33.7797C23.9992 34.1977 24.5088 34.4664 25.0627 34.5354C25.2433 34.558 25.3715 34.7226 25.349 34.9033C25.3265 35.0839 25.1618 35.212 24.9812 35.1895C24.2681 35.1007 23.6119 34.7547 23.1357 34.2165C22.6595 33.6783 22.396 32.9849 22.3945 32.2663C22.3942 32.0843 22.5414 31.9365 22.7235 31.9361Z" fill="#656769"/>
<path d="M11.8281 26.2439C13.5437 26.7586 15.3726 26.7586 17.0882 26.2439V23.6241H11.8281V26.2439Z" fill="#FFB59E"/>
<path fill-rule="evenodd" clip-rule="evenodd" d="M11.4982 23.6241C11.4982 23.4421 11.6458 23.2946 11.8278 23.2946H17.0879C17.2699 23.2946 17.4174 23.4421 17.4174 23.6241V26.7082C19.7456 27.3436 21.8093 28.7136 23.2994 30.6177C24.8426 32.5898 25.6818 35.0214 25.6833 37.5255V45.4158C25.6833 45.5978 25.5357 45.7454 25.3537 45.7454H3.562C3.37998 45.7454 3.23242 45.5978 3.23242 45.4158V37.5257C3.23406 35.0217 4.07326 32.5899 5.61645 30.6178C7.10649 28.7137 9.17017 27.3437 11.4982 26.7082V23.6241ZM12.1574 23.9537V26.9629C12.1574 27.1143 12.0542 27.2462 11.9073 27.2827C9.61979 27.8509 7.58809 29.1679 6.13556 31.0241C4.68306 32.8802 3.89317 35.1688 3.89158 37.5257M12.1574 23.9537H16.7583V26.9629C16.7583 27.1143 16.8615 27.2463 17.0084 27.2828C19.296 27.8508 21.3277 29.1677 22.7803 31.0239C24.2329 32.8801 25.0227 35.1689 25.0241 37.5259V45.0862H3.89158V37.5257" fill="#45413C"/>
<path d="M20.1412 28.2412C19.6621 27.9478 19.161 27.6921 18.6423 27.4763C18.5743 27.5494 18.5377 27.6462 18.5403 27.746C18.4295 30.8356 18.1448 34.1443 14.458 34.1443C10.7712 34.1443 10.4872 30.8356 10.3765 27.746C10.3728 27.6477 10.3503 27.551 10.3101 27.4612C9.77882 27.6804 9.26572 27.9412 8.77554 28.2412C8.99306 30.6268 8.98357 34.2598 7.31934 36.3986V45.4158H21.5966V36.3986C19.9332 34.2598 19.9237 30.6268 20.1412 28.2412Z" fill="white"/>
<path fill-rule="evenodd" clip-rule="evenodd" d="M10.1848 27.1566C10.3496 27.0886 10.5385 27.1639 10.6113 27.3266C10.6688 27.4549 10.701 27.5931 10.7063 27.7336L10.7063 27.7342C10.7621 29.2898 10.8624 30.8236 11.3773 31.9686C11.6306 32.5319 11.9788 32.9869 12.4616 33.3034C12.9442 33.6198 13.5871 33.8147 14.4585 33.8147C15.3298 33.8147 15.9727 33.6198 16.4554 33.3034C16.9383 32.9869 17.2866 32.5319 17.5401 31.9685C18.0542 30.8257 18.1553 29.2954 18.2111 27.7428C18.2093 27.5609 18.2774 27.3851 18.4015 27.2517C18.4954 27.1509 18.6422 27.119 18.7694 27.172C19.3038 27.3943 19.8202 27.6578 20.3138 27.9601C20.4208 28.0256 20.4813 28.1462 20.4699 28.2711C20.3624 29.4508 20.312 30.9299 20.4911 32.3718C20.6709 33.8188 21.0778 35.194 21.8573 36.1963C21.9023 36.2541 21.9267 36.3253 21.9267 36.3986V45.4159C21.9267 45.5979 21.7791 45.7454 21.5971 45.7454H7.31981C7.13779 45.7454 6.99023 45.5979 6.99023 45.4159V36.3986C6.99023 36.3253 7.01468 36.2541 7.0597 36.1962C7.83958 35.1939 8.24664 33.8187 8.42651 32.3718C8.60576 30.9299 8.55537 29.4508 8.4478 28.2711C8.43641 28.1461 8.49696 28.0255 8.60399 27.96C9.10897 27.651 9.63756 27.3824 10.1848 27.1566ZM18.8637 27.9325C18.8071 29.4173 18.696 31.0057 18.1412 32.239C17.8488 32.889 17.4277 33.4543 16.8168 33.8547C16.2057 34.2552 15.4305 34.4739 14.4585 34.4739C13.4864 34.4739 12.7113 34.2552 12.1003 33.8547C11.4894 33.4542 11.0685 32.889 10.7761 32.2389C10.2215 31.0056 10.1106 29.4173 10.0541 27.9325C9.73565 28.0788 9.42465 28.2408 9.12224 28.418C9.21946 29.5894 9.25728 31.0321 9.08063 32.4531C8.89904 33.9139 8.48693 35.3843 7.64939 36.5097V45.0863H21.2675V36.5097C20.4304 35.3842 20.0185 33.9139 19.837 32.4531C19.6604 31.0321 19.6983 29.5893 19.7955 28.4179C19.4931 28.2407 19.1821 28.0787 18.8637 27.9325Z" fill="#45413C"/>
<path fill-rule="evenodd" clip-rule="evenodd" d="M13.0669 31.6922C13.1761 31.5466 13.3827 31.5171 13.5283 31.6263C13.9192 31.9194 14.2365 32.2996 14.4551 32.7367C14.456 32.7385 14.4569 32.7403 14.4578 32.7421C14.4587 32.7403 14.4596 32.7385 14.4605 32.7367C14.679 32.2997 14.9963 31.9195 15.3871 31.6263C15.5327 31.5171 15.7393 31.5466 15.8485 31.6922C15.9578 31.8378 15.9283 32.0444 15.7827 32.1536C15.4736 32.3854 15.2228 32.686 15.05 33.0315C14.8773 33.377 14.7873 33.758 14.7873 34.1443C14.7873 34.3263 14.6397 34.4739 14.4577 34.4738C14.2757 34.4738 14.1281 34.3263 14.1282 34.1442C14.1282 33.758 14.0383 33.377 13.8655 33.0314C13.6927 32.6859 13.4419 32.3854 13.1328 32.1536C12.9872 32.0444 12.9577 31.8379 13.0669 31.6922Z" fill="#45413C"/>
<path fill-rule="evenodd" clip-rule="evenodd" d="M14.2359 39.9124C14.3618 39.7974 14.5546 39.7974 14.6804 39.9124C15.1359 40.3284 15.7269 40.5648 16.3436 40.5777C16.5256 40.5815 16.6701 40.7321 16.6663 40.9141C16.6625 41.096 16.5119 41.2405 16.3299 41.2367C15.6503 41.2225 14.9955 40.9927 14.4582 40.5844C13.9209 40.9927 13.266 41.2225 12.5865 41.2367C12.4045 41.2405 12.2539 41.096 12.2501 40.9141C12.2463 40.7321 12.3907 40.5815 12.5727 40.5777C13.1894 40.5648 13.7805 40.3284 14.2359 39.9124Z" fill="#45413C"/>
<path d="M58.0414 26.3807L58.2511 25.2654C58.2714 25.1569 58.2676 25.0452 58.2398 24.9383C58.2121 24.8314 58.1612 24.732 58.0906 24.647C58.0201 24.562 57.9317 24.4937 57.8317 24.4467C57.7318 24.3998 57.6227 24.3755 57.5123 24.3755H51.8085C51.698 24.3755 51.589 24.3998 51.489 24.4467C51.389 24.4937 51.3006 24.562 51.2301 24.647C51.1596 24.732 51.1086 24.8314 51.0809 24.9383C51.0532 25.0452 51.0493 25.1569 51.0697 25.2654L51.2785 26.3807C48.8878 27.1065 46.7938 28.5817 45.3055 30.5884C43.8171 32.5952 43.0133 35.0273 43.0127 37.5257V39.4043H47.5213V45.4158H61.7986V39.4043H66.3073V37.5257C66.3067 35.0272 65.503 32.5951 64.0146 30.5883C62.5263 28.5815 60.4322 27.1064 58.0414 26.3807Z" fill="#BF8DF2"/>
<path d="M58.0414 26.3807L58.2511 25.2654C58.2714 25.1569 58.2676 25.0452 58.2398 24.9383C58.2121 24.8314 58.1612 24.732 58.0906 24.647C58.0201 24.562 57.9317 24.4937 57.8317 24.4467C57.7318 24.3998 57.6227 24.3755 57.5123 24.3755H51.8085C51.698 24.3755 51.589 24.3998 51.489 24.4467C51.389 24.4937 51.3006 24.562 51.2301 24.647C51.1596 24.732 51.1086 24.8314 51.0809 24.9383C51.0532 25.0452 51.0493 25.1569 51.0697 25.2654L51.2785 26.3807C48.8878 27.1065 46.7938 28.5817 45.3055 30.5884C43.8171 32.5952 43.0133 35.0273 43.0127 37.5257V39.4043H43.1218C43.4845 36.6002 44.8558 34.0241 46.9794 32.1575C49.1031 30.2908 51.8337 29.2613 54.6612 29.2613C57.4886 29.2613 60.2193 30.2908 62.3429 32.1575C64.4665 34.0241 65.8378 36.6002 66.2005 39.4043H66.308V37.5257C66.3075 35.0271 65.5036 32.5949 64.0151 30.5881C62.5266 28.5813 60.4323 27.1063 58.0414 26.3807Z" fill="#DABFF5"/>
<path fill-rule="evenodd" clip-rule="evenodd" d="M51.3495 24.1484C51.4932 24.081 51.6501 24.046 51.8089 24.046C51.809 24.046 51.8089 24.046 51.8089 24.046M57.5127 24.046C57.5128 24.046 57.5127 24.046 57.5127 24.046H51.8089H57.5127ZM57.5127 24.046C57.6716 24.046 57.8285 24.081 57.9722 24.1484C58.116 24.2159 58.2432 24.3143 58.3447 24.4365C58.4462 24.5587 58.5194 24.7018 58.5593 24.8556C58.5992 25.0094 58.6047 25.17 58.5755 25.3262L58.4197 26.1548C60.7606 26.929 62.8082 28.4078 64.2798 30.392C65.8103 32.4556 66.6368 34.9565 66.6373 37.5257V39.4043C66.6373 39.5864 66.4898 39.7339 66.3077 39.7339H62.1287V45.4158C62.1287 45.5979 61.9811 45.7454 61.7991 45.7454H47.5218C47.3398 45.7454 47.1922 45.5979 47.1922 45.4158V39.7339H43.0132C42.8312 39.7339 42.6836 39.5864 42.6836 39.4043V37.5257C42.6842 34.9566 43.5108 32.4557 45.0412 30.3922C46.5129 28.4079 48.5604 26.9291 50.9014 26.1548L50.7462 25.3262C50.7462 25.3262 50.7462 25.3262 50.7462 25.3262C50.717 25.1701 50.7225 25.0093 50.7624 24.8556C50.8022 24.7018 50.8755 24.5587 50.977 24.4365C51.0785 24.3143 51.2057 24.2159 51.3495 24.1484M58.0419 26.3807L57.718 26.3199L57.9276 25.2047M58.0419 26.3807L57.9462 26.6961C60.2693 27.4013 62.3042 28.8347 63.7504 30.7847C65.1966 32.7347 65.9776 35.098 65.9782 37.5257C65.9782 37.5257 65.9782 37.5258 65.9782 37.5257V39.0748H61.7991C61.6171 39.0748 61.4695 39.2223 61.4695 39.4043V45.0863H47.8514V39.4043C47.8514 39.2223 47.7038 39.0748 47.5218 39.0748H43.3427V37.5258C43.3427 37.5259 43.3427 37.5258 43.3427 37.5258" fill="#45413C"/>
<path fill-rule="evenodd" clip-rule="evenodd" d="M47.521 36.069C47.703 36.069 47.8506 36.2165 47.8506 36.3985V45.4158C47.8506 45.5978 47.703 45.7454 47.521 45.7454C47.339 45.7454 47.1914 45.5978 47.1914 45.4158V36.3985C47.1914 36.2165 47.339 36.069 47.521 36.069Z" fill="#45413C"/>
<path fill-rule="evenodd" clip-rule="evenodd" d="M61.7993 36.069C61.9813 36.069 62.1289 36.2165 62.1289 36.3985V45.4158C62.1289 45.5978 61.9813 45.7454 61.7993 45.7454C61.6173 45.7454 61.4697 45.5978 61.4697 45.4158V36.3985C61.4697 36.2165 61.6173 36.069 61.7993 36.069Z" fill="#45413C"/>
<path d="M49.9061 26.9067C47.8587 27.8278 46.1198 29.3191 44.8973 31.2022C43.6749 33.0853 43.0206 35.2806 43.0127 37.5257V45.4158H51.6542V30.7628L49.9061 26.9067Z" fill="#B89558"/>
<path d="M51.2089 29.7804L49.9061 26.9067C47.8587 27.8278 46.1198 29.3191 44.8973 31.2022C43.6749 33.0853 43.0206 35.2806 43.0127 37.5257V40.9072C43.013 38.4208 43.8087 35.9996 45.2833 33.9977C46.758 31.9957 48.8344 30.518 51.2089 29.7804Z" fill="#DEBB7E"/>
<path fill-rule="evenodd" clip-rule="evenodd" d="M49.7714 26.6062C49.9371 26.5317 50.1318 26.6052 50.2068 26.7707L51.9549 30.6267C51.9743 30.6695 51.9843 30.7159 51.9843 30.7628V45.4158C51.9843 45.5979 51.8367 45.7454 51.6547 45.7454H43.0132C42.8312 45.7454 42.6836 45.5979 42.6836 45.4158V37.5257L42.6836 37.5246C42.6917 35.2162 43.3645 32.959 44.6214 31.0227C45.8783 29.0865 47.6662 27.5532 49.7714 26.6062ZM49.7441 27.3465C47.8835 28.2491 46.3025 29.6436 45.1742 31.3817C43.9864 33.2115 43.3505 35.3447 43.3427 37.5263V45.0863H51.3251V30.834L49.7441 27.3465Z" fill="#45413C"/>
<path d="M49.4936 25.9971C49.4265 25.8437 49.3094 25.7175 49.1616 25.639C49.0137 25.5604 48.8436 25.5342 48.6789 25.5644C48.2757 25.6491 47.8955 25.8194 47.5639 26.0638C47.2323 26.3082 46.9571 26.621 46.7569 26.981C46.5567 27.341 46.4362 27.7399 46.4036 28.1505C46.3709 28.5612 46.4269 28.974 46.5677 29.3612L47.5865 32.1613C47.6243 32.2654 47.6846 32.3599 47.7633 32.438C47.8419 32.5161 47.9368 32.5758 48.0412 32.6129C48.1457 32.6499 48.257 32.6634 48.3672 32.6523C48.4775 32.6413 48.5839 32.6059 48.6789 32.5488L51.6546 30.7636L49.4936 25.9971Z" fill="white"/>
<path fill-rule="evenodd" clip-rule="evenodd" d="M48.6188 25.2403C48.8566 25.1966 49.1021 25.2345 49.3156 25.3479C49.5285 25.4609 49.697 25.6423 49.7941 25.8628L51.9543 30.6275C52.0234 30.78 51.9672 30.9601 51.8236 31.0462L48.8481 32.8313C48.8481 32.8314 48.848 32.8314 48.8479 32.8315M48.7416 25.8879C48.8321 25.8721 48.9253 25.8869 49.0065 25.93C49.0887 25.9737 49.1538 26.0439 49.1912 26.1292L49.1929 26.1332L51.2326 30.6321L48.5088 32.2662L48.5086 32.2663C48.4554 32.2984 48.3957 32.3182 48.3338 32.3244C48.272 32.3306 48.2095 32.323 48.1509 32.3023C48.0924 32.2815 48.0391 32.248 47.995 32.2042C47.9509 32.1604 47.9171 32.1074 47.8959 32.0489L46.877 29.2485C46.877 29.2485 46.877 29.2485 46.877 29.2485C46.7523 28.9057 46.7027 28.5402 46.7316 28.1766C46.7605 27.8131 46.8672 27.4599 47.0444 27.1412C47.2217 26.8224 47.4653 26.5455 47.7589 26.3291C48.0513 26.1136 48.3863 25.9632 48.7416 25.8879ZM48.6188 25.2403C48.6161 25.2408 48.6134 25.2413 48.6107 25.2419L48.6188 25.2403ZM48.6107 25.2419C48.1613 25.3362 47.7375 25.5261 47.3678 25.7985L48.6107 25.2419ZM47.3678 25.7985C46.9982 26.0709 46.6915 26.4196 46.4683 26.8208L47.3678 25.7985ZM46.4683 26.8208C46.2452 27.2221 46.1109 27.6667 46.0745 28.1244L46.4683 26.8208ZM46.0745 28.1244C46.0382 28.5821 46.1006 29.0423 46.2575 29.4738L46.0745 28.1244ZM46.2575 29.4738L47.2762 32.2736L46.2575 29.4738ZM47.2762 32.2736C47.2762 32.2735 47.2762 32.2736 47.2762 32.2736V32.2736Z" fill="#45413C"/>
<path fill-rule="evenodd" clip-rule="evenodd" d="M47.521 36.069C47.703 36.069 47.8506 36.2165 47.8506 36.3985V45.4158C47.8506 45.5978 47.703 45.7454 47.521 45.7454C47.339 45.7454 47.1914 45.5978 47.1914 45.4158V36.3985C47.1914 36.2165 47.339 36.069 47.521 36.069Z" fill="#45413C"/>
<path d="M59.4165 26.9067C61.4639 27.8278 63.2027 29.319 64.4251 31.2022C65.6474 33.0853 66.3015 35.2807 66.3091 37.5257V45.4158H57.666V30.7628L59.4165 26.9067Z" fill="#DAEDF7"/>
<path d="M58.1123 29.7804L59.4166 26.9067C61.4641 27.8278 63.2029 29.319 64.4252 31.2022C65.6476 33.0853 66.3017 35.2807 66.3093 37.5257V40.9072C66.309 38.4206 65.5133 35.9993 64.0385 33.9974C62.5637 31.9954 60.4871 30.5177 58.1123 29.7804Z" fill="white"/>
<path fill-rule="evenodd" clip-rule="evenodd" d="M59.1159 26.7705C59.1909 26.6052 59.3856 26.5317 59.5512 26.6062C61.6563 27.5532 63.4442 29.0865 64.701 31.0228C65.9578 32.959 66.6303 35.2163 66.6382 37.5246L66.6382 37.5257L66.6382 45.4158C66.6382 45.5979 66.4906 45.7454 66.3086 45.7454H57.6655C57.4835 45.7454 57.3359 45.5979 57.3359 45.4158V30.7628C57.3359 30.7158 57.346 30.6694 57.3654 30.6266L59.1159 26.7705ZM59.5783 27.3464L57.9951 30.8341V45.0863H65.979V37.5264C65.9715 35.3448 65.3359 33.2115 64.1481 31.3816C63.0199 29.6435 61.439 28.249 59.5783 27.3464Z" fill="#45413C"/>
<path d="M59.8278 25.9971C59.8949 25.8437 60.0119 25.7175 60.1598 25.639C60.3077 25.5604 60.4778 25.5342 60.6425 25.5644C61.0454 25.6494 61.4255 25.82 61.7568 26.0644C62.0882 26.3089 62.3633 26.6217 62.5634 26.9816C62.7635 27.3416 62.8841 27.7402 62.9169 28.1507C62.9497 28.5613 62.894 28.974 62.7536 29.3612L61.7348 32.1613C61.6971 32.2654 61.6367 32.3599 61.5581 32.438C61.4795 32.5161 61.3846 32.5758 61.2802 32.6129C61.1757 32.6499 61.0644 32.6634 60.9541 32.6523C60.8439 32.6413 60.7375 32.6059 60.6425 32.5488L57.666 30.7636L59.8278 25.9971Z" fill="white"/>
<path fill-rule="evenodd" clip-rule="evenodd" d="M60.5787 25.8879C60.4883 25.8721 60.3951 25.8869 60.314 25.93C60.2317 25.9737 60.1666 26.0439 60.1292 26.1292L60.1275 26.1332L58.0871 30.6321L60.8118 32.2663C60.8651 32.2984 60.9248 32.3182 60.9866 32.3244C61.0485 32.3306 61.1109 32.323 61.1695 32.3023C61.2281 32.2815 61.2813 32.248 61.3254 32.2042C61.3695 32.1604 61.4034 32.1074 61.4245 32.0489L62.4434 29.2488C62.5677 28.906 62.617 28.5405 62.5879 28.177C62.5589 27.8135 62.4521 27.4605 62.2749 27.1418C62.0977 26.8231 61.8542 26.5461 61.5607 26.3296C61.2686 26.1141 60.9338 25.9635 60.5787 25.8879ZM60.0048 25.3479C60.2183 25.2345 60.4639 25.1966 60.7016 25.2403C60.7045 25.2408 60.7073 25.2413 60.7101 25.2419C61.1592 25.3367 61.5827 25.5267 61.9521 25.7992C62.3214 26.0717 62.6279 26.4203 62.851 26.8215C63.074 27.2226 63.2084 27.6669 63.245 28.1245C63.2816 28.582 63.2195 29.042 63.063 29.4735L62.0442 32.2736C62.0442 32.2736 62.0443 32.2735 62.0442 32.2736C61.9899 32.4234 61.903 32.5595 61.7899 32.6719C61.6768 32.7842 61.5402 32.8701 61.3899 32.9235C61.2396 32.9768 61.0794 32.9962 60.9208 32.9802C60.7621 32.9643 60.609 32.9135 60.4723 32.8313L57.496 31.0462C57.3524 30.9601 57.2962 30.78 57.3654 30.6274L59.5264 25.8628C59.6235 25.6423 59.792 25.4609 60.0048 25.3479Z" fill="#45413C"/>
<path fill-rule="evenodd" clip-rule="evenodd" d="M61.7993 36.069C61.9813 36.069 62.1289 36.2165 62.1289 36.3985V45.4158C62.1289 45.5978 61.9813 45.7454 61.7993 45.7454C61.6173 45.7454 61.4697 45.5978 61.4697 45.4158V36.3985C61.4697 36.2165 61.6173 36.069 61.7993 36.069Z" fill="#45413C"/>
<path d="M46.3942 39.78C46.3942 38.2505 46.0929 36.7359 45.5076 35.3228C44.9222 33.9097 44.0643 32.6257 42.9828 31.5442C41.9012 30.4626 40.6172 29.6047 39.2041 29.0193C37.791 28.434 36.2764 28.1328 34.7469 28.1328C33.2173 28.1328 31.7028 28.434 30.2897 29.0193C28.8766 29.6047 27.5926 30.4626 26.511 31.5442C25.4295 32.6257 24.5715 33.9097 23.9862 35.3228C23.4009 36.7359 23.0996 38.2505 23.0996 39.78V41.6586H27.6082V45.4158H41.8855V41.6586H46.3942V39.78Z" fill="#FF6242"/>
<path d="M34.7469 28.1328C31.6579 28.133 28.6955 29.3601 26.5113 31.5444C24.327 33.7286 23.0998 36.691 23.0996 39.78V41.6586H23.1566C23.4354 38.7779 24.777 36.1043 26.9198 34.1589C29.0627 32.2135 31.8531 31.1358 34.7473 31.1358C37.6415 31.1358 40.4319 32.2135 42.5747 34.1589C44.7175 36.1043 46.0591 38.7779 46.338 41.6586H46.3942V39.78C46.3942 36.691 45.1671 33.7284 42.9828 31.5442C40.7985 29.3599 37.8359 28.1328 34.7469 28.1328Z" fill="#FF866E"/>
<path fill-rule="evenodd" clip-rule="evenodd" d="M30.164 28.7148C31.6171 28.113 33.1745 27.8032 34.7474 27.8032C36.3202 27.8032 37.8776 28.113 39.3307 28.7148C40.7838 29.3167 42.1041 30.1989 43.2163 31.3111C44.3284 32.4233 45.2106 33.7436 45.8125 35.1967C46.4144 36.6498 46.7242 38.2072 46.7242 39.78V41.6586C46.7242 41.8406 46.5767 41.9882 46.3946 41.9882H42.2156V45.4158C42.2156 45.5978 42.068 45.7454 41.886 45.7454H27.6087C27.4267 45.7454 27.2791 45.5978 27.2791 45.4158V41.9882H23.1001C22.9181 41.9882 22.7705 41.8406 22.7705 41.6586V39.78C22.7705 38.2072 23.0803 36.6498 23.6822 35.1967C24.2841 33.7436 25.1663 32.4233 26.2785 31.3111C27.3906 30.1989 28.7109 29.3167 30.164 28.7148ZM34.7474 28.4623C33.2611 28.4623 31.7894 28.7551 30.4163 29.3238C29.0431 29.8926 27.7955 30.7262 26.7445 31.7772C25.6936 32.8281 24.8599 34.0758 24.2912 35.4489C23.7224 36.822 23.4297 38.2938 23.4297 39.78V41.329H27.6087C27.7907 41.329 27.9383 41.4766 27.9383 41.6586V45.0862H41.5564V41.6586C41.5564 41.4766 41.704 41.329 41.886 41.329H46.0651V39.78C46.0651 38.2938 45.7723 36.822 45.2036 35.4489C44.6348 34.0758 43.8011 32.8281 42.7502 31.7772C41.6992 30.7262 40.4516 29.8926 39.0785 29.3238C37.7053 28.7551 36.2336 28.4623 34.7474 28.4623Z" fill="#45413C"/>
<path fill-rule="evenodd" clip-rule="evenodd" d="M27.6079 38.3233C27.7899 38.3233 27.9375 38.4709 27.9375 38.6529V45.4158C27.9375 45.5978 27.7899 45.7454 27.6079 45.7454C27.4259 45.7454 27.2783 45.5978 27.2783 45.4158V38.6529C27.2783 38.4709 27.4259 38.3233 27.6079 38.3233Z" fill="#45413C"/>
<path fill-rule="evenodd" clip-rule="evenodd" d="M41.8852 38.3233C42.0673 38.3233 42.2148 38.4709 42.2148 38.6529V45.4158C42.2148 45.5978 42.0673 45.7454 41.8852 45.7454C41.7032 45.7454 41.5557 45.5978 41.5557 45.4158V38.6529C41.5557 38.4709 41.7032 38.3233 41.8852 38.3233Z" fill="#45413C"/>
<path d="M32.1172 28.5085C32.1172 29.206 32.3943 29.875 32.8875 30.3682C33.3807 30.8614 34.0497 31.1385 34.7472 31.1385C35.4447 31.1385 36.1137 30.8614 36.6069 30.3682C37.1002 29.875 37.3773 29.206 37.3773 28.5085V25.8785H32.1172V28.5085Z" fill="#D18660"/>
<path d="M32.1172 28.4982C33.8328 29.0129 35.6617 29.0129 37.3773 28.4982V25.8785H32.1172V28.4982Z" fill="#BD704A"/>
<path fill-rule="evenodd" clip-rule="evenodd" d="M31.7871 25.8785C31.7871 25.6964 31.9347 25.5489 32.1167 25.5489H37.3768C37.5588 25.5489 37.7063 25.6964 37.7063 25.8785V28.5085C37.7063 29.2934 37.3945 30.0462 36.8395 30.6013C36.2844 31.1563 35.5317 31.4681 34.7467 31.4681C33.9618 31.4681 33.209 31.1563 32.654 30.6013C32.0989 30.0462 31.7871 29.2934 31.7871 28.5085V25.8785ZM32.4463 26.208V28.5085C32.4463 29.1186 32.6886 29.7037 33.1201 30.1352C33.5515 30.5666 34.1366 30.8089 34.7467 30.8089C35.3568 30.8089 35.942 30.5666 36.3734 30.1352C36.8048 29.7037 37.0472 29.1186 37.0472 28.5085V26.208H32.4463Z" fill="#45413C"/>
<path d="M23.8506 41.6586H27.6086V45.4158H23.8506V41.6586Z" fill="#D18660"/>
<path fill-rule="evenodd" clip-rule="evenodd" d="M23.5215 41.6586C23.5215 41.4766 23.669 41.329 23.8511 41.329H27.609C27.7911 41.329 27.9386 41.4766 27.9386 41.6586V45.4158C27.9386 45.5978 27.7911 45.7454 27.609 45.7454H23.8511C23.669 45.7454 23.5215 45.5978 23.5215 45.4158V41.6586ZM24.1806 41.9882V45.0862H27.2795V41.9882H24.1806Z" fill="#45413C"/>
<path d="M41.8857 41.6586H45.6429V45.4158H41.8857V41.6586Z" fill="#D18660"/>
<path fill-rule="evenodd" clip-rule="evenodd" d="M41.5557 41.6586C41.5557 41.4766 41.7032 41.329 41.8852 41.329H45.6424C45.8244 41.329 45.972 41.4766 45.972 41.6586V45.4158C45.972 45.5978 45.8244 45.7454 45.6424 45.7454H41.8852C41.7032 45.7454 41.5557 45.5978 41.5557 45.4158V41.6586ZM42.2148 41.9882V45.0862H45.3128V41.9882H42.2148Z" fill="#45413C"/>
<path d="M11.077 20.2427C11.077 21.4877 10.0685 22.8727 8.82267 22.8727C7.57687 22.8727 6.56836 21.4877 6.56836 20.2427C6.56836 18.9977 7.57766 18.3641 8.82267 18.3641C10.0677 18.3641 11.077 18.9977 11.077 20.2427Z" fill="#FFDF3D"/>
<path fill-rule="evenodd" clip-rule="evenodd" d="M7.42917 19.0976C7.10404 19.3479 6.89744 19.7202 6.89744 20.2427C6.89744 20.7819 7.1185 21.3674 7.48361 21.8167C7.8489 22.2662 8.32641 22.5431 8.82217 22.5431C9.31793 22.5431 9.79544 22.2662 10.1607 21.8167C10.5258 21.3674 10.7469 20.7819 10.7469 20.2427C10.7469 19.7202 10.5403 19.3479 10.2152 19.0976C9.87985 18.8395 9.39347 18.6936 8.82217 18.6936C8.25087 18.6936 7.76449 18.8395 7.42917 19.0976ZM7.0271 18.5753C7.50768 18.2054 8.14846 18.0345 8.82217 18.0345C9.49589 18.0345 10.1367 18.2054 10.6172 18.5753C11.108 18.9531 11.4061 19.5201 11.4061 20.2427C11.4061 20.9484 11.1229 21.6779 10.6723 22.2324C10.2219 22.7867 9.57221 23.2023 8.82217 23.2023C8.07213 23.2023 7.42248 22.7867 6.97207 22.2324C6.52147 21.6779 6.23828 20.9484 6.23828 20.2427C6.23828 19.5201 6.53632 18.9531 7.0271 18.5753Z" fill="#45413C"/>
<path d="M11.077 23.6241C11.077 24.8692 10.0685 26.2542 8.82267 26.2542C7.57687 26.2542 6.56836 24.8692 6.56836 23.6241C6.56836 22.3791 7.57766 21.7455 8.82267 21.7455C10.0677 21.7455 11.077 22.3791 11.077 23.6241Z" fill="#FFDF3D"/>
<path fill-rule="evenodd" clip-rule="evenodd" d="M7.42917 22.4791C7.10404 22.7294 6.89744 23.1016 6.89744 23.6241C6.89744 24.1634 7.1185 24.7489 7.48361 25.1982C7.8489 25.6477 8.32641 25.9246 8.82217 25.9246C9.31793 25.9246 9.79544 25.6477 10.1607 25.1982C10.5258 24.7489 10.7469 24.1634 10.7469 23.6241C10.7469 23.1016 10.5403 22.7294 10.2152 22.4791C9.87985 22.221 9.39347 22.0751 8.82217 22.0751C8.25087 22.0751 7.76449 22.221 7.42917 22.4791ZM7.0271 21.9568C7.50768 21.5869 8.14846 21.416 8.82217 21.416C9.49589 21.416 10.1367 21.5869 10.6172 21.9568C11.108 22.3346 11.4061 22.9016 11.4061 23.6241C11.4061 24.3299 11.1229 25.0594 10.6723 25.6139C10.2219 26.1681 9.57221 26.5837 8.82217 26.5837C8.07213 26.5837 7.42248 26.1681 6.97207 25.6139C6.52147 25.0594 6.23828 24.3299 6.23828 23.6241C6.23828 22.9016 6.53632 22.3346 7.0271 21.9568Z" fill="#45413C"/>
<path d="M22.3482 15.734H21.9725V13.8554C21.9725 11.8625 21.1808 9.95119 19.7716 8.54197C18.3624 7.13276 16.4511 6.34106 14.4581 6.34106C12.4652 6.34106 10.5539 7.13276 9.14467 8.54197C7.73546 9.95119 6.94377 11.8625 6.94377 13.8554V15.734H6.56805C5.53106 15.734 4.68945 16.8272 4.68945 18.1766C4.68945 19.526 5.53106 20.6184 6.56805 20.6184C6.89045 20.6124 7.20283 20.5054 7.46107 20.3123C8.00306 21.7287 8.96217 22.9474 10.2116 23.807C11.461 24.6667 12.9419 25.127 14.4585 25.127C15.9752 25.127 17.4561 24.6667 18.7055 23.807C19.9549 22.9474 20.914 21.7287 21.456 20.3123C21.714 20.5052 22.0261 20.6123 22.3482 20.6184C23.386 20.6184 24.2268 19.5252 24.2268 18.1766C24.2268 16.828 23.386 15.734 22.3482 15.734Z" fill="#FFCEBF"/>
<path fill-rule="evenodd" clip-rule="evenodd" d="M8.91113 8.30891C10.3822 6.83789 12.3773 6.01147 14.4576 6.01147C16.538 6.01147 18.5331 6.83789 20.0041 8.30891C21.4752 9.77994 22.3016 11.7751 22.3016 13.8554V15.4044H22.3477C22.9901 15.4044 23.5493 15.7438 23.9375 16.2487C24.3254 16.7531 24.5559 17.4359 24.5559 18.1766C24.5559 19.6217 23.6427 20.9479 22.3477 20.9479L22.3415 20.9479C22.0901 20.9431 21.8438 20.8877 21.6167 20.7866C21.0326 22.1132 20.0901 23.254 18.8918 24.0785C17.5874 24.976 16.0414 25.4566 14.458 25.4566C12.8747 25.4566 11.3287 24.976 10.0243 24.0785C8.82595 23.254 7.88343 22.1132 7.29935 20.7866C7.07196 20.8879 6.82529 20.9433 6.57361 20.9479L6.56755 20.9479C5.27354 20.9479 4.35938 19.6226 4.35938 18.1766C4.35938 17.4355 4.59013 16.7527 4.97816 16.2483C5.36646 15.7436 5.92562 15.4044 6.56755 15.4044H6.61369V13.8554C6.61369 11.7751 7.4401 9.77994 8.91113 8.30891ZM14.4576 6.67063C12.5521 6.67063 10.7246 7.4276 9.37722 8.77501C8.02981 10.1224 7.27284 11.9499 7.27284 13.8554V15.734C7.27284 15.916 7.12529 16.0636 6.94327 16.0636H6.56755C6.17249 16.0636 5.79235 16.271 5.5006 16.6502C5.20858 17.0298 5.01853 17.5683 5.01853 18.1766C5.01853 19.4278 5.7856 20.2866 6.56452 20.2888C6.81678 20.2835 7.06109 20.1994 7.2632 20.0483C7.34595 19.9864 7.45292 19.9669 7.55217 19.9957C7.65142 20.0244 7.73146 20.098 7.76838 20.1945C8.28653 21.5486 9.20345 22.7136 10.3979 23.5355C11.5924 24.3574 13.0081 24.7974 14.458 24.7974C15.9079 24.7974 17.3237 24.3574 18.5182 23.5355C19.7126 22.7136 20.6295 21.5486 21.1477 20.1945C21.1846 20.098 21.2646 20.0244 21.3639 19.9957C21.4632 19.9669 21.5701 19.9864 21.6529 20.0483C21.8548 20.1993 22.0988 20.2834 22.3508 20.2888C23.1304 20.2865 23.8967 19.4271 23.8967 18.1766C23.8967 17.5686 23.7069 17.0301 23.4149 16.6505C23.1233 16.2712 22.7431 16.0636 22.3477 16.0636H21.972C21.79 16.0636 21.6424 15.916 21.6424 15.734V13.8554C21.6424 11.9499 20.8855 10.1224 19.5381 8.77501C18.1906 7.4276 16.3632 6.67063 14.4576 6.67063Z" fill="#45413C"/>
<path fill-rule="evenodd" clip-rule="evenodd" d="M11.9562 20.6141C12.0817 20.4823 12.2903 20.4772 12.4221 20.6028C12.9702 21.1248 13.6981 21.416 14.4551 21.416C15.212 21.416 15.9399 21.1248 16.488 20.6028C16.6198 20.4772 16.8284 20.4823 16.9539 20.6141C17.0795 20.7459 17.0744 20.9545 16.9426 21.0801C16.272 21.7189 15.3813 22.0752 14.4551 22.0752C13.5289 22.0752 12.6381 21.7189 11.9675 21.0801C11.8357 20.9545 11.8306 20.7459 11.9562 20.6141Z" fill="#45413C"/>
<path fill-rule="evenodd" clip-rule="evenodd" d="M16.5994 15.6631C16.8547 15.4928 17.1547 15.4019 17.4615 15.4019C17.7684 15.4019 18.0684 15.4928 18.3237 15.6631C18.5789 15.8335 18.778 16.0756 18.8958 16.359C18.9657 16.527 18.886 16.7199 18.718 16.7898C18.5499 16.8597 18.357 16.78 18.2871 16.612C18.2193 16.4489 18.1047 16.3095 17.9578 16.2114C17.8109 16.1134 17.6382 16.0611 17.4615 16.0611C17.2849 16.0611 17.1122 16.1134 16.9653 16.2114C16.8183 16.3095 16.7038 16.4489 16.6359 16.612C16.5661 16.78 16.3732 16.8597 16.2051 16.7898C16.037 16.7199 15.9574 16.527 16.0273 16.359C16.1451 16.0756 16.3442 15.8335 16.5994 15.6631Z" fill="#45413C"/>
<path fill-rule="evenodd" clip-rule="evenodd" d="M10.5979 15.6633C10.8532 15.4931 11.1531 15.4022 11.46 15.4022C11.7668 15.4022 12.0668 15.4931 12.3221 15.6633C12.5774 15.8335 12.7766 16.0755 12.8945 16.3587C12.9645 16.5268 12.8851 16.7197 12.717 16.7897C12.549 16.8597 12.356 16.7802 12.2861 16.6122C12.2181 16.4491 12.1034 16.3097 11.9564 16.2117C11.8094 16.1137 11.6367 16.0614 11.46 16.0614C11.2833 16.0614 11.1106 16.1137 10.9636 16.2117C10.8165 16.3097 10.7018 16.4491 10.6339 16.6122C10.5639 16.7802 10.371 16.8597 10.2029 16.7897C10.0349 16.7197 9.95544 16.5268 10.0254 16.3587C10.1434 16.0755 10.3426 15.8335 10.5979 15.6633Z" fill="#45413C"/>
<path d="M9.19824 18.9272C9.19824 19.0506 9.22255 19.1728 9.26977 19.2868C9.317 19.4009 9.38621 19.5044 9.47347 19.5917C9.56073 19.679 9.66432 19.7482 9.77833 19.7954C9.89234 19.8426 10.0145 19.8669 10.1379 19.8669C10.2613 19.8669 10.3835 19.8426 10.4975 19.7954C10.6115 19.7482 10.7151 19.679 10.8024 19.5917C10.8897 19.5044 10.9589 19.4009 11.0061 19.2868C11.0533 19.1728 11.0776 19.0506 11.0776 18.9272C11.0776 18.8038 11.0533 18.6816 11.0061 18.5676C10.9589 18.4536 10.8897 18.35 10.8024 18.2628C10.7151 18.1755 10.6115 18.1063 10.4975 18.0591C10.3835 18.0119 10.2613 17.9875 10.1379 17.9875C10.0145 17.9875 9.89234 18.0119 9.77833 18.0591C9.66432 18.1063 9.56073 18.1755 9.47347 18.2628C9.38621 18.35 9.317 18.4536 9.26977 18.5676C9.22255 18.6816 9.19824 18.8038 9.19824 18.9272Z" fill="#FFB59E"/>
<path d="M17.8408 18.9272C17.8408 19.0505 17.8651 19.1726 17.9123 19.2865C17.9595 19.4005 18.0286 19.504 18.1158 19.5911C18.203 19.6783 18.3065 19.7475 18.4204 19.7947C18.5343 19.8419 18.6564 19.8661 18.7797 19.8661C18.903 19.8661 19.0251 19.8419 19.139 19.7947C19.2529 19.7475 19.3564 19.6783 19.4436 19.5911C19.5308 19.504 19.6 19.4005 19.6472 19.2865C19.6943 19.1726 19.7186 19.0505 19.7186 18.9272C19.7186 18.8039 19.6943 18.6819 19.6472 18.5679C19.6 18.454 19.5308 18.3505 19.4436 18.2633C19.3564 18.1762 19.2529 18.107 19.139 18.0598C19.0251 18.0126 18.903 17.9883 18.7797 17.9883C18.6564 17.9883 18.5343 18.0126 18.4204 18.0598C18.3065 18.107 18.203 18.1762 18.1158 18.2633C18.0286 18.3505 17.9595 18.454 17.9123 18.5679C17.8651 18.6819 17.8408 18.8039 17.8408 18.9272Z" fill="#FFB59E"/>
<path d="M6.56863 17.9883C6.41998 17.9882 6.27462 18.0321 6.15094 18.1146C6.02727 18.1971 5.93083 18.3144 5.87383 18.4517C5.81684 18.589 5.80184 18.7401 5.83075 18.8859C5.85965 19.0317 5.93116 19.1657 6.03622 19.2708C6.14128 19.376 6.27517 19.4477 6.42095 19.4767C6.56674 19.5058 6.71787 19.4909 6.85522 19.4341C6.99258 19.3772 7.10998 19.2809 7.19259 19.1573C7.27519 19.0337 7.31928 18.8884 7.31928 18.7398C7.31928 18.5406 7.24022 18.3496 7.09947 18.2087C6.95872 18.0678 6.76779 17.9886 6.56863 17.9883Z" fill="#45413C"/>
<path d="M22.3481 17.9883C22.1995 17.9883 22.0542 18.0324 21.9306 18.115C21.8071 18.1976 21.7108 18.3149 21.6539 18.4522C21.597 18.5895 21.5821 18.7406 21.6111 18.8864C21.6401 19.0321 21.7117 19.166 21.8168 19.2711C21.9219 19.3762 22.0558 19.4478 22.2015 19.4768C22.3473 19.5058 22.4984 19.4909 22.6357 19.434C22.773 19.3771 22.8903 19.2808 22.9729 19.1573C23.0555 19.0337 23.0996 18.8884 23.0996 18.7398C23.0997 18.6411 23.0803 18.5433 23.0426 18.4521C23.0048 18.3609 22.9495 18.278 22.8797 18.2082C22.8099 18.1384 22.727 18.0831 22.6358 18.0453C22.5446 18.0076 22.4468 17.9882 22.3481 17.9883Z" fill="#45413C"/>
<path d="M14.4579 5.21393C9.68591 5.21393 5.81641 8.73224 5.81641 14.2312C5.82036 14.7842 5.86212 15.3362 5.94138 15.8835C6.13679 15.7886 6.35062 15.7376 6.56784 15.7341C6.62279 15.738 6.67747 15.7451 6.73158 15.7554C6.80162 15.7431 6.87247 15.736 6.94356 15.7341C7.27008 15.7578 7.57555 15.9041 7.79868 16.1437C8.02182 16.3833 8.14612 16.6983 8.14665 17.0257C8.4302 16.0326 8.4843 14.988 8.30485 13.9709C9.09584 14.2351 10.4002 13.1064 10.4002 13.1064V11.3006C11.7131 11.7571 13.0745 12.0597 14.4571 12.2023C15.8401 12.0597 17.2018 11.7571 18.5149 11.3006V13.104C18.5149 13.104 19.8177 14.2328 20.6102 13.9686C20.4308 14.9857 20.4849 16.0302 20.7684 17.0234C20.7689 16.6961 20.8931 16.3811 21.1161 16.1416C21.3391 15.902 21.6443 15.7556 21.9707 15.7317C22.0421 15.7335 22.1132 15.7407 22.1835 15.753C22.2374 15.7428 22.2918 15.7356 22.3464 15.7317C22.5639 15.7351 22.778 15.7861 22.9737 15.8812C23.0527 15.3339 23.0942 14.7818 23.0979 14.2288C23.0995 8.73224 19.2339 5.21393 14.4579 5.21393Z" fill="#FFDF3D"/>
<path fill-rule="evenodd" clip-rule="evenodd" d="M5.4873 14.2312C5.4873 8.55081 9.50376 4.88434 14.4584 4.88434C19.417 4.88434 23.4296 8.55086 23.4279 14.2289L23.4279 14.231C23.4241 14.799 23.3815 15.3661 23.3004 15.9282C23.2853 16.0324 23.2215 16.123 23.1286 16.1723C23.0357 16.2216 22.9248 16.2236 22.8302 16.1776C22.6822 16.1057 22.5206 16.0662 22.3563 16.0615C22.3192 16.0647 22.2823 16.0698 22.2457 16.0768C22.2065 16.0842 22.1663 16.0845 22.1269 16.0776C22.0781 16.069 22.0287 16.0637 21.9791 16.0617C21.7418 16.0831 21.5205 16.1914 21.3578 16.3661C21.1915 16.5448 21.0989 16.7798 21.0985 17.0239C21.0982 17.1881 20.977 17.3271 20.8143 17.3498C20.6516 17.3724 20.4971 17.2718 20.452 17.1138C20.1938 16.2095 20.1171 15.2644 20.2247 14.3329C20.0972 14.322 19.9726 14.2954 19.856 14.2611C19.587 14.182 19.324 14.0516 19.0991 13.9196C18.8724 13.7867 18.6739 13.646 18.5326 13.5392C18.4616 13.4855 18.4044 13.4399 18.3645 13.4073C18.3445 13.391 18.3288 13.3779 18.3178 13.3687C18.3149 13.3661 18.3122 13.3639 18.31 13.362C18.3081 13.3604 18.3064 13.359 18.305 13.3578L18.3013 13.3546L18.3002 13.3537L18.2998 13.3533C18.2998 13.3533 18.2996 13.3531 18.5154 13.104L18.2996 13.3531C18.2273 13.2905 18.1858 13.1996 18.1858 13.104V11.7579C16.9846 12.1419 15.7466 12.4007 14.4914 12.5301C14.4689 12.5324 14.4463 12.5324 14.4238 12.5301C13.1689 12.4007 11.9311 12.1418 10.7302 11.7579V13.1064C10.7302 13.202 10.6887 13.293 10.6163 13.3556L10.4007 13.1064C10.6163 13.3556 10.6164 13.3555 10.6163 13.3556L10.6157 13.3562L10.6145 13.3571L10.6109 13.3603C10.6078 13.3629 10.6035 13.3665 10.598 13.3712C10.5871 13.3804 10.5714 13.3935 10.5514 13.4098C10.5114 13.4424 10.4541 13.488 10.3831 13.5416C10.2417 13.6484 10.043 13.7891 9.81631 13.922C9.59128 14.054 9.32831 14.1844 9.0594 14.2635C8.94297 14.2977 8.81864 14.3243 8.69137 14.3352C8.79896 15.2668 8.72225 16.2118 8.46404 17.1162C8.41894 17.2742 8.26441 17.3748 8.10171 17.3522C7.93901 17.3295 7.81782 17.1905 7.81755 17.0263C7.81715 16.7821 7.72443 16.547 7.55799 16.3683C7.39524 16.1936 7.17378 16.0853 6.93633 16.0641C6.88697 16.0661 6.8378 16.0714 6.78913 16.08C6.74979 16.0869 6.70952 16.0866 6.67028 16.0791C6.63356 16.0721 6.59649 16.067 6.55924 16.0639C6.39507 16.0686 6.23371 16.1081 6.0859 16.18C5.9913 16.2259 5.88045 16.224 5.78753 16.1747C5.6946 16.1255 5.63076 16.0349 5.61568 15.9308C5.53426 15.3686 5.49137 14.8015 5.48731 14.2335L5.4873 14.2312ZM6.94404 15.734L6.96795 15.4053C7.37479 15.4349 7.75556 15.6163 8.0349 15.9133C8.10858 15.2875 8.09089 14.6524 7.98076 14.0282C7.96058 13.9138 8.00212 13.7972 8.09011 13.7213C8.1781 13.6455 8.29954 13.6215 8.40974 13.6583C8.51705 13.6942 8.67114 13.6906 8.87344 13.6311C9.07155 13.5729 9.28298 13.4706 9.48291 13.3534C9.68115 13.2372 9.85799 13.1122 9.98585 13.0156C10.0176 12.9916 10.0462 12.9696 10.0711 12.9499V11.3006C10.0711 11.1939 10.1227 11.0938 10.2097 11.032C10.2966 10.9701 10.4081 10.9542 10.5089 10.9893C11.787 11.4337 13.112 11.7295 14.4576 11.8709C15.8036 11.7296 17.1288 11.4337 18.4071 10.9893C18.5079 10.9542 18.6194 10.9701 18.7064 11.032C18.7933 11.0938 18.845 11.1939 18.845 11.3006V12.9477C18.8698 12.9673 18.8984 12.9894 18.9301 13.0133C19.0578 13.1099 19.2345 13.2349 19.4326 13.3511C19.6324 13.4683 19.8437 13.5705 20.0419 13.6287C20.2442 13.6882 20.3986 13.6918 20.5065 13.6559C20.6167 13.6192 20.7381 13.6431 20.826 13.719C20.9139 13.7949 20.9555 13.9114 20.9353 14.0258C20.8251 14.65 20.8074 15.2851 20.8811 15.9108C21.1602 15.6141 21.5406 15.4328 21.9471 15.403L21.9712 15.7317L21.9798 15.4022C22.0474 15.404 22.1147 15.4096 22.1816 15.419C22.2286 15.4117 22.2758 15.4064 22.3232 15.4029C22.3328 15.4022 22.3425 15.402 22.3521 15.4021C22.4687 15.404 22.5845 15.417 22.698 15.4409C22.7424 15.0381 22.766 14.6332 22.7688 14.2278C22.7699 8.91321 19.0515 5.54349 14.4584 5.54349C9.86936 5.54349 6.14701 8.91314 6.14646 14.23C6.1494 14.6355 6.17323 15.0404 6.21783 15.4433C6.33105 15.4194 6.44661 15.4064 6.56298 15.4045C6.57254 15.4043 6.58211 15.4046 6.59166 15.4053C6.63944 15.4087 6.68706 15.4141 6.73438 15.4214C6.80094 15.412 6.868 15.4064 6.93522 15.4046L6.94404 15.734Z" fill="#45413C"/>
<path d="M20.8457 5.58965C20.8457 9.11745 17.9863 13.104 14.4585 13.104C10.9307 13.104 8.07129 9.11745 8.07129 5.58965C8.07129 2.06185 10.9291 0.32959 14.4585 0.32959C17.9879 0.32959 20.8457 2.06185 20.8457 5.58965Z" fill="#FFDF3D"/>
<path d="M14.4585 3.71106C17.4002 3.71106 19.8704 4.92048 20.6132 7.36542C20.7624 6.78512 20.8405 6.18881 20.8457 5.58965C20.8457 2.06185 17.9863 0.32959 14.4585 0.32959C10.9307 0.32959 8.07129 2.06185 8.07129 5.58965C8.07806 6.18901 8.15774 6.78531 8.30858 7.36542C9.04737 4.92048 11.5176 3.71106 14.4585 3.71106Z" fill="#FFEF9E"/>
<path fill-rule="evenodd" clip-rule="evenodd" d="M10.1397 1.89954C9.06857 2.70967 8.40037 3.92628 8.40037 5.58964C8.40037 7.27063 9.08443 9.07778 10.1983 10.4632C11.3126 11.8492 12.8233 12.7744 14.458 12.7744C16.0927 12.7744 17.6034 11.8492 18.7177 10.4632C19.8316 9.07778 20.5156 7.27063 20.5156 5.58964C20.5156 3.92628 19.8474 2.70967 18.7763 1.89954C17.6939 1.08089 16.174 0.659156 14.458 0.659156C12.7421 0.659156 11.2221 1.08089 10.1397 1.89954ZM9.74207 1.37382C10.9709 0.444399 12.6446 0 14.458 0C16.2714 0 17.9451 0.444399 19.1739 1.37382C20.4141 2.31178 21.1748 3.72519 21.1748 5.58964C21.1748 7.43645 20.4292 9.38649 19.2314 10.8763C18.034 12.3655 16.3511 13.4336 14.458 13.4336C12.5649 13.4336 10.882 12.3655 9.68462 10.8763C8.48685 9.38649 7.74121 7.43645 7.74121 5.58964C7.74121 3.72519 8.50193 2.31178 9.74207 1.37382Z" fill="#45413C"/>
<path d="M11.077 27.0056C11.077 28.2506 10.0685 29.6356 8.82267 29.6356C7.57687 29.6356 6.56836 28.2506 6.56836 27.0056C6.56836 25.7606 7.57766 25.127 8.82267 25.127C10.0677 25.127 11.077 25.7598 11.077 27.0056Z" fill="#FFDF3D"/>
<path fill-rule="evenodd" clip-rule="evenodd" d="M7.42917 25.8606C7.10404 26.1108 6.89744 26.4831 6.89744 27.0056C6.89744 27.5448 7.1185 28.1304 7.48361 28.5796C7.8489 29.0291 8.32641 29.306 8.82217 29.306C9.31793 29.306 9.79544 29.0291 10.1607 28.5796C10.5258 28.1304 10.7469 27.5448 10.7469 27.0056C10.7469 26.4827 10.5403 26.1104 10.2152 25.8603C9.87993 25.6023 9.39356 25.4566 8.82217 25.4566C8.25087 25.4566 7.76449 25.6025 7.42917 25.8606ZM7.0271 25.3383C7.50768 24.9683 8.14846 24.7974 8.82217 24.7974C9.4958 24.7974 10.1366 24.9681 10.6172 25.3379C11.1081 25.7156 11.4061 26.2827 11.4061 27.0056C11.4061 27.7114 11.1229 28.4409 10.6723 28.9953C10.2219 29.5496 9.57221 29.9652 8.82217 29.9652C8.07213 29.9652 7.42248 29.5496 6.97207 28.9953C6.52147 28.4409 6.23828 27.7114 6.23828 27.0056C6.23828 26.2831 6.53632 25.716 7.0271 25.3383Z" fill="#45413C"/>
<path d="M11.077 30.3871C11.077 31.6321 10.0685 33.0171 8.82267 33.0171C7.57687 33.0171 6.56836 31.6321 6.56836 30.3871C6.56836 29.1421 7.57766 28.5085 8.82267 28.5085C10.0677 28.5085 11.077 29.1421 11.077 30.3871Z" fill="#FFDF3D"/>
<path fill-rule="evenodd" clip-rule="evenodd" d="M7.42917 29.2421C7.10404 29.4923 6.89744 29.8646 6.89744 30.3871C6.89744 30.9263 7.1185 31.5118 7.48361 31.9611C7.8489 32.4106 8.32641 32.6875 8.82217 32.6875C9.31793 32.6875 9.79544 32.4106 10.1607 31.9611C10.5258 31.5118 10.7469 30.9263 10.7469 30.3871C10.7469 29.8646 10.5403 29.4923 10.2152 29.2421C9.87985 28.9839 9.39347 28.838 8.82217 28.838C8.25087 28.838 7.76449 28.9839 7.42917 29.2421ZM7.0271 28.7197C7.50768 28.3498 8.14846 28.1789 8.82217 28.1789C9.49589 28.1789 10.1367 28.3498 10.6172 28.7197C11.108 29.0975 11.4061 29.6645 11.4061 30.3871C11.4061 31.0928 11.1229 31.8223 10.6723 32.3768C10.2219 32.9311 9.57221 33.3467 8.82217 33.3467C8.07213 33.3467 7.42248 32.9311 6.97207 32.3768C6.52147 31.8223 6.23828 31.0928 6.23828 30.3871C6.23828 29.6645 6.53632 29.0975 7.0271 28.7197Z" fill="#45413C"/>
<path d="M10.3251 36.7743C10.1646 37.8998 9.90274 39.0085 9.5428 40.087C9.49708 40.2425 9.40221 40.3791 9.27239 40.4763C9.14256 40.5734 8.98476 40.626 8.82261 40.626C8.66045 40.626 8.50265 40.5734 8.37283 40.4763C8.243 40.3791 8.14813 40.2425 8.10241 40.087C7.7423 39.0085 7.48022 37.8998 7.31934 36.7743C7.31934 35.7365 7.78523 35.2714 8.82221 35.2714C9.85919 35.2714 10.3251 35.7365 10.3251 36.7743Z" fill="#FFDF3D"/>
<path fill-rule="evenodd" clip-rule="evenodd" d="M7.64947 36.7513C7.80783 37.8491 8.06419 38.9305 8.4155 39.9826C8.41677 39.9864 8.41797 39.9902 8.4191 39.994C8.44474 40.0813 8.49796 40.1579 8.57078 40.2124C8.64361 40.2669 8.73212 40.2964 8.82308 40.2964C8.91404 40.2964 9.00256 40.2669 9.07538 40.2124C9.14821 40.1579 9.20142 40.0813 9.22707 39.994C9.22819 39.9902 9.22939 39.9864 9.23065 39.9826C9.58179 38.9305 9.8379 37.8491 9.9959 36.7514C9.99249 36.2885 9.8856 36.0223 9.72999 35.8668C9.57182 35.7087 9.29937 35.601 8.82269 35.601C8.346 35.601 8.07356 35.7087 7.91538 35.8668C7.75978 36.0223 7.65289 36.2885 7.64947 36.7513ZM7.44938 35.4006C7.78339 35.0667 8.26239 34.9418 8.82269 34.9418C9.38299 34.9418 9.86198 35.0667 10.196 35.4006C10.53 35.7345 10.6551 36.2135 10.6551 36.7743C10.6551 36.7899 10.654 36.8054 10.6518 36.8208C10.4888 37.9642 10.223 39.0905 9.85763 40.1861C9.79115 40.4074 9.65543 40.6016 9.47034 40.7401C9.28352 40.88 9.05644 40.9555 8.82308 40.9555C8.58973 40.9555 8.36265 40.88 8.17582 40.7401C7.99074 40.6016 7.85503 40.4074 7.78854 40.1861C7.42305 39.0905 7.15698 37.9643 6.99355 36.8209C6.99134 36.8055 6.99023 36.7899 6.99023 36.7743C6.99023 36.2135 7.11534 35.7345 7.44938 35.4006Z" fill="#45413C"/>
<path d="M8.82273 35.2714C8.62343 35.2714 8.4323 35.1922 8.29138 35.0513C8.15046 34.9104 8.07129 34.7193 8.07129 34.52V33.7685C8.07129 33.5692 8.15046 33.3781 8.29138 33.2372C8.4323 33.0963 8.62343 33.0171 8.82273 33.0171C9.02202 33.0171 9.21315 33.0963 9.35407 33.2372C9.49499 33.3781 9.57416 33.5692 9.57416 33.7685V34.52C9.57416 34.7193 9.49499 34.9104 9.35407 35.0513C9.21315 35.1922 9.02202 35.2714 8.82273 35.2714Z" fill="#FF6242"/>
<path fill-rule="evenodd" clip-rule="evenodd" d="M8.82223 33.3467C8.71034 33.3467 8.60304 33.3911 8.52393 33.4702C8.44481 33.5493 8.40037 33.6566 8.40037 33.7685V34.52C8.40037 34.6318 8.44481 34.7391 8.52393 34.8183C8.60304 34.8974 8.71034 34.9418 8.82223 34.9418C8.93411 34.9418 9.04141 34.8974 9.12053 34.8183C9.19964 34.7391 9.24409 34.6318 9.24409 34.52V33.7685C9.24409 33.6566 9.19964 33.5493 9.12053 33.4702C9.04141 33.3911 8.93411 33.3467 8.82223 33.3467ZM8.82223 35.601C8.53552 35.601 8.26056 35.4871 8.05783 35.2843C7.8551 35.0816 7.74121 34.8067 7.74121 34.52V33.7685C7.74121 33.4818 7.8551 33.2069 8.05783 33.0041C8.26056 32.8014 8.53552 32.6875 8.82223 32.6875C9.10893 32.6875 9.38389 32.8014 9.58662 33.0041C9.78935 33.2069 9.90324 33.4818 9.90324 33.7685V34.52C9.90324 34.8067 9.78935 35.0816 9.58662 35.2843C9.38389 35.4871 9.10893 35.601 8.82223 35.601Z" fill="#45413C"/>
<path opacity="0.15" d="M22.834 60.4928C22.834 60.6732 23.1419 60.8517 23.7401 61.0183C24.3383 61.1849 25.2151 61.3363 26.3205 61.4638C27.4258 61.5913 28.738 61.6925 30.1822 61.7615C31.6265 61.8305 33.1743 61.866 34.7375 61.866C36.3007 61.866 37.8486 61.8305 39.2928 61.7615C40.737 61.6925 42.0493 61.5913 43.1546 61.4638C44.26 61.3363 45.1368 61.1849 45.735 61.0183C46.3332 60.8517 46.6411 60.6732 46.6411 60.4928C46.6411 60.3125 46.3332 60.134 45.735 59.9674C45.1368 59.8008 44.26 59.6494 43.1546 59.5219C42.0493 59.3944 40.737 59.2932 39.2928 59.2242C37.8486 59.1552 36.3007 59.1197 34.7375 59.1197C33.1743 59.1197 31.6265 59.1552 30.1822 59.2242C28.738 59.2932 27.4258 59.3944 26.3205 59.5219C25.2151 59.6494 24.3383 59.8008 23.7401 59.9674C23.1419 60.134 22.834 60.3125 22.834 60.4928Z" fill="#45413C"/>
<path d="M15.9668 29.3604H53.5094V55.9146H15.9668V29.3604Z" fill="#DAEDF7"/>
<path d="M53.509 30.9431V31.1883H15.9688V30.9431C15.968 30.7352 16.0084 30.5291 16.0877 30.3369C16.1669 30.1446 16.2834 29.9699 16.4305 29.8229C16.5775 29.6758 16.7522 29.5593 16.9445 29.4801C17.1367 29.4008 17.3428 29.3604 17.5507 29.3612H51.927C52.3466 29.3612 52.749 29.5278 53.0456 29.8245C53.3423 30.1212 53.509 30.5236 53.509 30.9431Z" fill="white"/>
<path d="M15.9688 54.0771H53.509V54.3303C53.5077 54.7494 53.3406 55.1511 53.0442 55.4475C52.7478 55.7439 52.3462 55.911 51.927 55.9122H17.5507C17.1312 55.9122 16.7288 55.7456 16.4321 55.4489C16.1354 55.1522 15.9688 54.7498 15.9688 54.3303V54.0771Z" fill="#C0DCEB"/>
<path d="M41.1444 58.6649C41.2084 58.6649 41.2717 58.6783 41.3301 58.7042C41.3886 58.7301 41.441 58.768 41.484 58.8154C41.527 58.8627 41.5596 58.9186 41.5797 58.9793C41.5998 59.04 41.607 59.1043 41.6008 59.1679C41.5651 59.5319 41.3951 59.8696 41.124 60.1151C40.8529 60.3606 40.5001 60.4964 40.1344 60.496H29.3437C28.978 60.4964 28.6252 60.3606 28.3541 60.1151C28.083 59.8696 27.913 59.5319 27.8772 59.1679C27.871 59.1045 27.878 59.0405 27.8979 58.9799C27.9178 58.9194 27.9501 58.8636 27.9927 58.8163C28.0354 58.7689 28.0875 58.731 28.1456 58.7049C28.2038 58.6789 28.2667 58.6652 28.3305 58.6649H41.1444Z" fill="#DAEDF7"/>
<path fill-rule="evenodd" clip-rule="evenodd" d="M28.3309 58.3353H41.1449C41.2548 58.3353 41.3637 58.3584 41.4642 58.4029C41.5646 58.4474 41.6547 58.5125 41.7286 58.5939C41.8024 58.6753 41.8584 58.7713 41.893 58.8756C41.9276 58.9799 41.94 59.0903 41.9294 59.1997L41.9293 59.2001C41.8855 59.6456 41.6775 60.0589 41.3457 60.3593C41.0139 60.6598 40.5823 60.826 40.1347 60.8256M29.3445 60.8256L29.3442 60.496V60.8256L29.3445 60.8256C28.897 60.826 28.4651 60.6598 28.1333 60.3593C27.8016 60.0589 27.5935 59.6458 27.5497 59.2004L27.8777 59.1679L27.5497 59.2001C27.539 59.0912 27.551 58.9811 27.5852 58.8771C27.6194 58.7729 27.675 58.6771 27.7483 58.5957C27.8217 58.5142 27.9113 58.449 28.0113 58.4042C28.1113 58.3594 28.2195 58.3359 28.3291 58.3353L28.3309 58.3353M28.3321 58.9944C28.3145 58.9946 28.297 58.9984 28.2809 59.0057C28.2646 59.013 28.25 59.0236 28.2381 59.0369C28.2261 59.0502 28.217 59.0658 28.2115 59.0827C28.2059 59.0997 28.2039 59.1177 28.2057 59.1355L28.2057 59.1357C28.2335 59.4182 28.3654 59.6802 28.5758 59.8708C28.7862 60.0613 29.06 60.1667 29.3439 60.1664H40.1352C40.419 60.1667 40.6928 60.0613 40.9032 59.8708C41.1135 59.6803 41.2455 59.4184 41.2733 59.136C41.275 59.1181 41.273 59.1 41.2673 59.083C41.2617 59.0659 41.2525 59.0501 41.2404 59.0368C41.2283 59.0235 41.2135 59.0128 41.197 59.0055C41.1806 58.9982 41.1628 58.9944 41.1448 58.9944H28.3321Z" fill="#45413C"/>
<path fill-rule="evenodd" clip-rule="evenodd" d="M15.6367 29.3603C15.6367 29.1783 15.7843 29.0308 15.9663 29.0308H53.5089C53.6909 29.0308 53.8385 29.1783 53.8385 29.3603V55.9146C53.8385 56.0966 53.6909 56.2441 53.5089 56.2441H15.9663C15.7843 56.2441 15.6367 56.0966 15.6367 55.9146V29.3603ZM16.2959 29.6899V55.585H53.1793V29.6899H16.2959Z" fill="#45413C"/>
<path d="M40.2315 60.4928H29.2432C30.3782 57.4657 30.8884 49.7472 31.0308 47.1599C31.044 46.9267 31.1462 46.7075 31.3163 46.5475C31.4865 46.3875 31.7116 46.2989 31.9452 46.3001H37.5295C37.7631 46.2989 37.9882 46.3875 38.1584 46.5475C38.3285 46.7075 38.4307 46.9267 38.4439 47.1599C38.5863 49.7472 39.0965 57.4657 40.2315 60.4928Z" fill="#DAEDF7"/>
<path fill-rule="evenodd" clip-rule="evenodd" d="M31.944 46.6297C31.7949 46.629 31.6512 46.6855 31.5426 46.7876C31.434 46.8897 31.3688 47.0295 31.3603 47.1783M38.1153 47.1784C38.1069 47.0296 38.0416 46.8897 37.9331 46.7876C37.8245 46.6855 37.6808 46.629 37.5317 46.6297L37.53 46.6297L31.944 46.6297M31.9464 45.9706C31.6287 45.9692 31.3225 46.0898 31.0911 46.3074C30.8594 46.5253 30.7202 46.8238 30.7022 47.1414L30.7022 47.1419C30.6311 48.4329 30.4684 51.0027 30.1821 53.6257C29.8943 56.262 29.4859 58.9081 28.935 60.3771C28.8971 60.4783 28.9112 60.5917 28.9728 60.6806C29.0343 60.7694 29.1355 60.8224 29.2436 60.8224H40.232C40.3401 60.8224 40.4413 60.7694 40.5029 60.6806C40.5645 60.5917 40.5786 60.4783 40.5406 60.3771C39.9898 58.9081 39.5813 56.262 39.2936 53.6257C39.0073 51.0027 38.8445 48.4329 38.7735 47.1419L38.7735 47.1414C38.7555 46.8238 38.6163 46.5253 38.3846 46.3074C38.1531 46.0898 37.847 45.9692 37.5292 45.9706H31.9464Z" fill="#45413C"/>
<path fill-rule="evenodd" clip-rule="evenodd" d="M19.1704 51.4648C19.3524 51.4648 19.5 51.6123 19.5 51.7944V53.1675C19.5 53.3495 19.3524 53.4971 19.1704 53.4971C18.9884 53.4971 18.8408 53.3495 18.8408 53.1675V51.7944C18.8408 51.6123 18.9884 51.4648 19.1704 51.4648Z" fill="#45413C"/>
<path fill-rule="evenodd" clip-rule="evenodd" d="M21.0024 51.4648C21.1845 51.4648 21.332 51.6123 21.332 51.7944V53.1675C21.332 53.3495 21.1845 53.4971 21.0024 53.4971C20.8204 53.4971 20.6729 53.3495 20.6729 53.1675V51.7944C20.6729 51.6123 20.8204 51.4648 21.0024 51.4648Z" fill="#45413C"/>
<path fill-rule="evenodd" clip-rule="evenodd" d="M22.8345 51.4648C23.0165 51.4648 23.164 51.6123 23.164 51.7944V53.1675C23.164 53.3495 23.0165 53.4971 22.8345 53.4971C22.6524 53.4971 22.5049 53.3495 22.5049 53.1675V51.7944C22.5049 51.6123 22.6524 51.4648 22.8345 51.4648Z" fill="#45413C"/>
<path fill-rule="evenodd" clip-rule="evenodd" d="M24.6655 51.4648C24.8475 51.4648 24.9951 51.6123 24.9951 51.7944V53.1675C24.9951 53.3495 24.8475 53.4971 24.6655 53.4971C24.4835 53.4971 24.3359 53.3495 24.3359 53.1675V51.7944C24.3359 51.6123 24.4835 51.4648 24.6655 51.4648Z" fill="#45413C"/>
<path d="M35.7363 39.5696C35.738 39.3974 35.7834 39.2284 35.8684 39.0785C35.9533 38.9286 36.075 38.8029 36.222 38.713C36.1284 38.5803 36.0055 38.471 35.8629 38.3937C35.7202 38.3163 35.5615 38.2729 35.3993 38.2669C35.0489 38.2321 34.7159 38.4733 34.538 38.4733C34.36 38.4733 34.0863 38.2724 33.796 38.2771C33.6052 38.2826 33.4191 38.3376 33.2559 38.4366C33.0927 38.5356 32.958 38.6752 32.865 38.8419C32.7152 39.2126 32.6627 39.6155 32.7127 40.0122C32.7627 40.4089 32.9134 40.7862 33.1506 41.1081C33.3396 41.381 33.565 41.6879 33.8625 41.6768C34.1599 41.6657 34.2579 41.4925 34.5989 41.4925C34.9398 41.4925 35.0394 41.6768 35.3416 41.6713C35.6438 41.6657 35.8423 41.3928 36.0298 41.1176C36.1634 40.9201 36.2684 40.7047 36.3414 40.4777C36.1628 40.402 36.0103 40.2757 35.9028 40.1143C35.7952 39.9529 35.7373 39.7636 35.7363 39.5696Z" fill="#F0F0F0"/>
<path fill-rule="evenodd" clip-rule="evenodd" d="M35.4219 37.9379C35.6314 37.9472 35.8361 38.004 36.0204 38.104C36.2077 38.2055 36.369 38.349 36.4918 38.5231C36.5443 38.5976 36.5636 38.6905 36.5452 38.7797C36.5267 38.869 36.4721 38.9466 36.3944 38.9942C36.2951 39.0549 36.2129 39.1398 36.1555 39.2411C36.0986 39.3416 36.0679 39.4548 36.0664 39.5703C36.0675 39.699 36.1061 39.8245 36.1775 39.9316C36.2493 40.0393 36.3511 40.1237 36.4704 40.1742C36.6275 40.2407 36.7079 40.4162 36.6556 40.5786C36.573 40.8354 36.4543 41.079 36.3031 41.3024L36.3026 41.3031C36.211 41.4377 36.0955 41.6047 35.9539 41.7367C35.8067 41.8738 35.6074 41.9961 35.3481 42.0008C35.128 42.0048 34.9728 41.9377 34.8674 41.8921C34.8631 41.8902 34.8589 41.8884 34.8548 41.8866C34.7586 41.8452 34.6998 41.8221 34.5993 41.8221C34.4956 41.8221 34.4348 41.8448 34.3446 41.8835C34.3379 41.8863 34.3309 41.8894 34.3237 41.8925C34.2249 41.9353 34.0787 41.9986 33.8752 42.0062C33.6012 42.0164 33.3887 41.8774 33.2414 41.7398C33.0962 41.6042 32.9752 41.4329 32.8828 41.2996C32.6139 40.9332 32.443 40.5043 32.3862 40.0534C32.3292 39.6009 32.389 39.1413 32.5599 38.7184C32.5651 38.7057 32.571 38.6933 32.5777 38.6813C32.6985 38.4648 32.8735 38.2834 33.0855 38.1548C33.2974 38.0262 33.5392 37.9549 33.787 37.9477L33.7911 37.9476C34.0072 37.9441 34.2019 38.0166 34.3296 38.0665C34.3513 38.075 34.3706 38.0827 34.3882 38.0896C34.4299 38.1062 34.462 38.119 34.4943 38.1299C34.5155 38.1372 34.5289 38.1407 34.536 38.1423C34.5439 38.1403 34.5603 38.1357 34.5878 38.1258C34.6222 38.1136 34.6485 38.1031 34.6799 38.0907C34.7087 38.0792 34.7416 38.0661 34.7888 38.0484C34.9437 37.9904 35.1709 37.9157 35.4219 37.9379ZM35.7368 39.5696L35.4072 39.5665C35.4094 39.3383 35.4696 39.1145 35.5821 38.916C35.6259 38.8387 35.6771 38.7663 35.7347 38.6997C35.7253 38.694 35.7158 38.6886 35.7062 38.6834C35.6081 38.6302 35.4991 38.6004 35.3876 38.5962C35.3808 38.596 35.374 38.5955 35.3672 38.5948C35.272 38.5854 35.1617 38.6126 35.0201 38.6657C34.9999 38.6732 34.9716 38.6843 34.9413 38.6962C34.8953 38.7142 34.8445 38.7341 34.8098 38.7465C34.746 38.7693 34.6449 38.8029 34.5384 38.8029C34.4385 38.8029 34.3465 38.7759 34.2822 38.7541C34.2328 38.7373 34.1777 38.7153 34.1305 38.6966C34.1159 38.6908 34.1022 38.6853 34.0896 38.6804C33.9645 38.6315 33.8775 38.6059 33.8037 38.6067C33.6708 38.6109 33.5411 38.6494 33.4274 38.7184C33.3185 38.7844 33.2278 38.8762 33.163 38.9856C33.0404 39.2985 32.9981 39.6373 33.0402 39.971C33.0831 40.3118 33.2126 40.636 33.4164 40.9126C33.4183 40.9152 33.4201 40.9178 33.422 40.9204C33.5183 41.0594 33.6035 41.1761 33.6913 41.2581C33.7784 41.3394 33.8272 41.3483 33.8507 41.3475C33.9287 41.3446 33.974 41.3252 34.0809 41.2793L34.085 41.2776C34.2035 41.2268 34.3622 41.1629 34.5993 41.1629C34.8398 41.1629 35.0013 41.232 35.1157 41.2813C35.2209 41.3266 35.2629 41.3431 35.336 41.3418C35.3789 41.341 35.4299 41.324 35.5044 41.2545C35.5844 41.1799 35.6619 41.073 35.7576 40.9325C35.8248 40.8331 35.8836 40.7286 35.9336 40.6198C35.8152 40.5307 35.712 40.4217 35.629 40.2971C35.4857 40.0821 35.4086 39.8298 35.4072 39.5714L35.7368 39.5696Z" fill="#45413C"/>
<path fill-rule="evenodd" clip-rule="evenodd" d="M35.612 36.4525C35.7408 36.581 35.741 36.7897 35.6125 36.9185L35.1996 37.3322C35.071 37.4611 34.8623 37.4613 34.7335 37.3327C34.6046 37.2041 34.6044 36.9954 34.733 36.8666L35.1459 36.4529C35.2745 36.3241 35.4832 36.3239 35.612 36.4525Z" fill="#45413C"/>
<path fill-rule="evenodd" clip-rule="evenodd" d="M18.3838 31.1915C18.3838 31.0095 18.5313 30.8619 18.7134 30.8619H50.3038C50.4858 30.8619 50.6334 31.0095 50.6334 31.1915C50.6334 31.3735 50.4858 31.5211 50.3038 31.5211H18.7134C18.5313 31.5211 18.3838 31.3735 18.3838 31.1915Z" fill="#45413C"/>
<path d="M42.2653 17.9844V16.1042C42.2653 14.1104 41.4732 12.1981 40.0634 10.7883C38.6535 9.37837 36.7413 8.5863 34.7474 8.5863C32.7535 8.5863 30.8413 9.37837 29.4314 10.7883C28.0215 12.1981 27.2294 14.1104 27.2294 16.1042V17.9844C27.0321 17.9844 26.8366 18.0233 26.6543 18.0988C26.472 18.1743 26.3063 18.285 26.1667 18.4246C26.0272 18.5641 25.9165 18.7298 25.841 18.9122C25.7654 19.0945 25.7266 19.2899 25.7266 19.4873C25.7266 19.6846 25.7654 19.8801 25.841 20.0624C25.9165 20.2447 26.0272 20.4104 26.1667 20.55C26.3063 20.6895 26.472 20.8002 26.6543 20.8758C26.8366 20.9513 27.0321 20.9902 27.2294 20.9902C27.2611 20.9902 27.2903 20.983 27.322 20.9807C27.587 22.7605 28.4825 24.3859 29.8454 25.5609C31.2083 26.7359 32.9479 27.3823 34.7474 27.3823C36.5468 27.3823 38.2864 26.7359 39.6493 25.5609C41.0122 24.3859 41.9077 22.7605 42.1728 20.9807C42.2044 20.9807 42.2337 20.9902 42.2653 20.9902C42.4627 20.9902 42.6581 20.9513 42.8404 20.8758C43.0228 20.8002 43.1884 20.6895 43.328 20.55C43.4676 20.4104 43.5783 20.2447 43.6538 20.0624C43.7293 19.8801 43.7682 19.6846 43.7682 19.4873C43.7682 19.2899 43.7293 19.0945 43.6538 18.9122C43.5783 18.7298 43.4676 18.5641 43.328 18.4246C43.1884 18.285 43.0228 18.1743 42.8404 18.0988C42.6581 18.0233 42.4627 17.9844 42.2653 17.9844Z" fill="#D18660"/>
<path fill-rule="evenodd" clip-rule="evenodd" d="M29.1988 10.5552C30.6705 9.0835 32.6666 8.25671 34.7478 8.25671C36.8291 8.25671 38.8252 9.0835 40.2969 10.5552C41.7686 12.0269 42.5954 14.0229 42.5954 16.1042V17.6847C42.7225 17.7079 42.8471 17.7446 42.967 17.7943C43.1893 17.8864 43.3914 18.0214 43.5615 18.1915C43.7317 18.3617 43.8667 18.5637 43.9587 18.786C44.0508 19.0083 44.0982 19.2466 44.0982 19.4873C44.0982 19.7279 44.0508 19.9662 43.9587 20.1885C43.8667 20.4108 43.7317 20.6129 43.5615 20.783C43.3914 20.9532 43.1894 21.0882 42.967 21.1802C42.8023 21.2485 42.6288 21.2922 42.4521 21.3102C42.1266 23.0578 41.2157 24.6461 39.865 25.8105C38.4423 27.0371 36.6263 27.7118 34.7478 27.7118C32.8694 27.7118 31.0534 27.0371 29.6307 25.8105C28.28 24.6461 27.3691 23.0578 27.0436 21.3102C26.8669 21.2922 26.6934 21.2485 26.5287 21.1802C26.3063 21.0882 26.1043 20.9532 25.9342 20.783C25.764 20.6129 25.629 20.4108 25.5369 20.1885C25.4449 19.9662 25.3975 19.7279 25.3975 19.4873C25.3975 19.2466 25.4449 19.0083 25.5369 18.786C25.629 18.5637 25.764 18.3617 25.9342 18.1915C26.1043 18.0214 26.3063 17.8864 26.5287 17.7943C26.6486 17.7446 26.7732 17.7079 26.9003 17.6847V16.1042C26.9003 14.0229 27.7271 12.0269 29.1988 10.5552ZM42.2658 17.9844H41.9362V16.1042C41.9362 14.1978 41.1789 12.3694 39.8308 11.0213C38.4827 9.67321 36.6543 8.91587 34.7478 8.91587C32.8414 8.91587 31.013 9.67321 29.6649 11.0213C28.3168 12.3694 27.5595 14.1978 27.5595 16.1042V17.9844C27.5595 18.0718 27.5248 18.1556 27.463 18.2174C27.4012 18.2793 27.3173 18.314 27.2299 18.314C27.0758 18.314 26.9233 18.3443 26.7809 18.4033C26.6386 18.4623 26.5092 18.5487 26.4003 18.6576C26.2913 18.7666 26.2049 18.8959 26.1459 19.0383C26.087 19.1806 26.0566 19.3332 26.0566 19.4873C26.0566 19.6414 26.087 19.7939 26.1459 19.9363C26.2049 20.0786 26.2913 20.208 26.4003 20.3169C26.5092 20.4259 26.6386 20.5123 26.7809 20.5713C26.9218 20.6296 27.0728 20.66 27.2253 20.6606C27.2266 20.6604 27.2287 20.6601 27.2317 20.6597L27.242 20.6583C27.2461 20.6577 27.2511 20.657 27.2565 20.6563C27.2674 20.6549 27.2816 20.6532 27.2978 20.652C27.47 20.6391 27.623 20.7613 27.6484 20.9321C27.9018 22.6338 28.758 24.1879 30.0611 25.3113C31.3642 26.4347 33.0274 27.0527 34.7478 27.0527C36.4683 27.0527 38.1315 26.4347 39.4346 25.3113C40.7377 24.1879 41.5939 22.6338 41.8472 20.9321C41.8713 20.7706 42.01 20.6511 42.1732 20.6511C42.2157 20.6511 42.2535 20.6571 42.2676 20.6593L42.2702 20.6598C42.2723 20.6601 42.2739 20.6603 42.2753 20.6605C42.4262 20.6593 42.5754 20.629 42.7148 20.5713C42.8571 20.5123 42.9865 20.4259 43.0954 20.3169C43.2044 20.208 43.2908 20.0786 43.3498 19.9363C43.4087 19.7939 43.4391 19.6414 43.4391 19.4873C43.4391 19.3332 43.4087 19.1806 43.3498 19.0383C43.2908 18.8959 43.2044 18.7666 43.0954 18.6576C42.9865 18.5487 42.8571 18.4623 42.7148 18.4033C42.5724 18.3443 42.4199 18.314 42.2658 18.314V17.9844Z" fill="#45413C"/>
<path d="M29.4844 21.1792C29.4844 21.3026 29.5087 21.4248 29.5559 21.5388C29.6031 21.6528 29.6723 21.7564 29.7596 21.8437C29.8469 21.9309 29.9505 22.0001 30.0645 22.0474C30.1785 22.0946 30.3007 22.1189 30.4241 22.1189C30.5475 22.1189 30.6697 22.0946 30.7837 22.0474C30.8977 22.0001 31.0013 21.9309 31.0885 21.8437C31.1758 21.7564 31.245 21.6528 31.2922 21.5388C31.3395 21.4248 31.3638 21.3026 31.3638 21.1792C31.3638 21.0558 31.3395 20.9336 31.2922 20.8196C31.245 20.7056 31.1758 20.602 31.0885 20.5147C31.0013 20.4275 30.8977 20.3583 30.7837 20.311C30.6697 20.2638 30.5475 20.2395 30.4241 20.2395C30.3007 20.2395 30.1785 20.2638 30.0645 20.311C29.9505 20.3583 29.8469 20.4275 29.7596 20.5147C29.6723 20.602 29.6031 20.7056 29.5559 20.8196C29.5087 20.9336 29.4844 21.0558 29.4844 21.1792Z" fill="#BD704A"/>
<path d="M38.1309 21.1792C38.1309 21.3026 38.1552 21.4248 38.2024 21.5388C38.2496 21.6528 38.3188 21.7564 38.4061 21.8437C38.4933 21.9309 38.5969 22.0001 38.7109 22.0474C38.825 22.0946 38.9471 22.1189 39.0706 22.1189C39.194 22.1189 39.3161 22.0946 39.4302 22.0474C39.5442 22.0001 39.6478 21.9309 39.735 21.8437C39.8223 21.7564 39.8915 21.6528 39.9387 21.5388C39.9859 21.4248 40.0102 21.3026 40.0102 21.1792C40.0102 21.0558 39.9859 20.9336 39.9387 20.8196C39.8915 20.7056 39.8223 20.602 39.735 20.5147C39.6478 20.4275 39.5442 20.3583 39.4302 20.311C39.3161 20.2638 39.194 20.2395 39.0706 20.2395C38.9471 20.2395 38.825 20.2638 38.7109 20.311C38.5969 20.3583 38.4933 20.4275 38.4061 20.5147C38.3188 20.602 38.2496 20.7056 38.2024 20.8196C38.1552 20.9336 38.1309 21.0558 38.1309 21.1792Z" fill="#BD704A"/>
<path fill-rule="evenodd" clip-rule="evenodd" d="M32.2472 22.8606C32.3727 22.7288 32.5813 22.7237 32.7131 22.8492C33.2617 23.3717 33.9901 23.6631 34.7477 23.6631C35.5052 23.6631 36.2337 23.3717 36.7822 22.8492C36.914 22.7237 37.1226 22.7288 37.2481 22.8606C37.3737 22.9924 37.3686 23.201 37.2368 23.3265C36.5657 23.9657 35.6744 24.3223 34.7477 24.3223C33.8209 24.3223 32.9296 23.9657 32.2585 23.3265C32.1267 23.201 32.1216 22.9924 32.2472 22.8606Z" fill="#45413C"/>
<path fill-rule="evenodd" clip-rule="evenodd" d="M36.8893 17.9138C37.1446 17.7437 37.4446 17.653 37.7514 17.653C38.0582 17.653 38.3581 17.7437 38.6135 17.9138C38.8688 18.0839 39.0681 18.3258 39.1863 18.6089C39.2564 18.7769 39.177 18.9699 39.009 19.04C38.8411 19.1101 38.6481 19.0308 38.578 18.8628C38.5099 18.6997 38.3951 18.5604 38.248 18.4624C38.1009 18.3644 37.9281 18.3121 37.7514 18.3121C37.5747 18.3121 37.4019 18.3644 37.2548 18.4624C37.1077 18.5604 36.9929 18.6997 36.9248 18.8628C36.8547 19.0308 36.6617 19.1101 36.4937 19.04C36.3258 18.9699 36.2464 18.7769 36.3165 18.6089C36.4347 18.3258 36.634 18.0839 36.8893 17.9138Z" fill="#45413C"/>
<path fill-rule="evenodd" clip-rule="evenodd" d="M30.8688 17.9138C31.1241 17.7437 31.4241 17.653 31.7309 17.653C32.0377 17.653 32.3376 17.7437 32.593 17.9138C32.8483 18.0839 33.0476 18.3258 33.1658 18.6089C33.2359 18.7769 33.1565 18.9699 32.9885 19.04C32.8206 19.1101 32.6276 19.0308 32.5575 18.8628C32.4894 18.6997 32.3746 18.5604 32.2275 18.4624C32.0804 18.3644 31.9076 18.3121 31.7309 18.3121C31.5542 18.3121 31.3814 18.3644 31.2343 18.4624C31.0872 18.5604 30.9724 18.6997 30.9043 18.8628C30.8342 19.0308 30.6412 19.1101 30.4732 19.04C30.3053 18.9699 30.2259 18.7769 30.296 18.6089C30.4142 18.3258 30.6135 18.0839 30.8688 17.9138Z" fill="#45413C"/>
<path d="M43.0171 13.8815V17.2416C43.0167 17.4389 42.9381 17.628 42.7986 17.7675C42.6591 17.907 42.47 17.9855 42.2728 17.986C42.172 17.9851 42.0724 17.9644 41.9797 17.925C41.8869 17.8856 41.8029 17.8283 41.7323 17.7564C41.6618 17.6844 41.6061 17.5993 41.5686 17.5058C41.531 17.4123 41.5123 17.3123 41.5134 17.2116C41.5108 16.2727 41.237 15.3546 40.725 14.5676C40.2129 13.7807 39.4844 13.1584 38.6271 12.7757C37.7653 13.1892 36.8299 13.4269 35.8753 13.475H35.8223C35.8308 13.7626 35.772 14.0483 35.6506 14.3092C35.5292 14.5701 35.3486 14.7991 35.123 14.9778C34.903 15.1931 34.6375 15.3562 34.346 15.4552C34.0546 15.5542 33.7446 15.5865 33.439 15.5497C33.3775 15.5401 33.3194 15.5152 33.27 15.4774C33.2205 15.4396 33.1813 15.39 33.156 15.3332C33.1306 15.2763 33.1198 15.2141 33.1246 15.152C33.1294 15.0899 33.1497 15.0301 33.1835 14.9778C33.2746 14.8055 33.3272 14.6155 33.3376 14.4209C33.348 14.2262 33.3159 14.0317 33.2436 13.8507C32.8679 12.7528 31.3643 12.7227 31.3643 12.7227L30.8683 12.7749C30.011 13.1578 29.2825 13.78 28.7703 14.5669C28.2582 15.3538 27.9842 16.2719 27.9812 17.2108C27.9825 17.3116 27.9638 17.4116 27.9263 17.5051C27.8887 17.5987 27.8331 17.6839 27.7625 17.7558C27.6919 17.8278 27.6079 17.8851 27.5151 17.9245C27.4223 17.9638 27.3226 17.9844 27.2219 17.9852C27.0246 17.9845 26.8357 17.9059 26.6962 17.7665C26.5568 17.627 26.4782 17.4381 26.4775 17.2408V13.8815C26.4779 13.1848 26.6261 12.4961 26.9125 11.861C27.1988 11.2258 27.6168 10.6587 28.1386 10.1971C28.2769 10.0727 28.3696 9.90567 28.402 9.72252C28.7398 8.0306 31.4536 6.70728 34.7465 6.70728C38.0394 6.70728 40.7462 8.0306 41.0918 9.72252C41.1236 9.90589 41.2164 10.0731 41.3552 10.1971C41.8772 10.6586 42.2953 11.2257 42.5818 11.8608C42.8683 12.496 43.0167 13.1847 43.0171 13.8815Z" fill="#724F3D"/>
<path fill-rule="evenodd" clip-rule="evenodd" d="M34.7939 12.3478C34.7939 12.1658 34.9415 12.0182 35.1235 12.0182C35.45 12.0182 35.7058 12.2609 35.8598 12.4977C36.0261 12.7536 36.139 13.0938 36.1521 13.4633C36.1586 13.6452 36.0164 13.7979 35.8344 13.8044C35.6525 13.8108 35.4998 13.6686 35.4934 13.4867C35.4844 13.2321 35.4058 13.0087 35.3072 12.857C35.2124 12.7112 35.1382 12.6835 35.1248 12.6785C35.1226 12.6776 35.122 12.6774 35.1235 12.6774C34.9415 12.6774 34.7939 12.5298 34.7939 12.3478Z" fill="#45413C"/>
<path d="M41.3528 10.198C41.2171 10.0723 41.1265 9.90557 41.0949 9.72336C40.7509 8.0267 38.0433 6.70575 34.7473 6.70575C31.4512 6.70575 28.7445 8.0267 28.4004 9.72336C28.3688 9.90557 28.2782 10.0723 28.1425 10.198C27.6198 10.6582 27.2013 11.2246 26.9148 11.8594C26.6284 12.4942 26.4806 13.1828 26.4814 13.8792V15.7586C26.4806 15.0622 26.6284 14.3736 26.9148 13.7388C27.2013 13.1039 27.6198 12.5375 28.1425 12.0773C28.2782 11.9517 28.3688 11.785 28.4004 11.6027C28.7445 9.90687 31.452 8.58513 34.7473 8.58513C38.0425 8.58513 40.7493 9.90845 41.0949 11.6012C41.1265 11.7834 41.2171 11.9502 41.3528 12.0758C41.8755 12.536 42.2941 13.1024 42.5805 13.7372C42.8669 14.372 43.0147 15.0606 43.0139 15.757V13.8792C43.0147 13.1828 42.8669 12.4942 42.5805 11.8594C42.2941 11.2246 41.8755 10.6582 41.3528 10.198Z" fill="#A86C4D"/>
<path fill-rule="evenodd" clip-rule="evenodd" d="M28.7263 9.784C28.6805 10.038 28.5514 10.2695 28.3595 10.4422L28.3575 10.444C27.8705 10.8747 27.4806 11.4039 27.2134 11.9965C26.9463 12.589 26.8079 13.2316 26.8076 13.8816C26.8076 13.8816 26.8076 13.8816 26.8076 13.8816V17.2403C26.8081 17.3503 26.852 17.4557 26.9298 17.5335C27.0073 17.611 27.1121 17.6548 27.2217 17.6556C27.2785 17.655 27.3346 17.6433 27.3868 17.6211C27.4397 17.5987 27.4875 17.5661 27.5277 17.5251C27.5678 17.4842 27.5995 17.4357 27.6209 17.3825C27.6422 17.3292 27.6528 17.2723 27.6521 17.2149L27.6521 17.2098C27.6553 16.2074 27.9478 15.2273 28.4946 14.3872C29.0414 13.5471 29.8191 12.8828 30.7344 12.474C30.7661 12.4599 30.7998 12.4508 30.8343 12.4472L31.3302 12.395C31.3439 12.3936 31.3576 12.393 31.3713 12.3933L31.3647 12.7228C31.3713 12.3933 31.3714 12.3933 31.3716 12.3933L31.3719 12.3933L31.3725 12.3933L31.3743 12.3933L31.3795 12.3935C31.3819 12.3936 31.3847 12.3937 31.388 12.3938C31.3905 12.3939 31.3932 12.394 31.3962 12.3941C31.4101 12.3947 31.4293 12.3958 31.4534 12.3975C31.5014 12.4009 31.5687 12.407 31.65 12.4181C31.8116 12.44 32.0333 12.4821 32.2703 12.5632C32.7347 12.7222 33.316 13.0532 33.5533 13.7362C33.6411 13.9594 33.6799 14.1989 33.6672 14.4385C33.6542 14.6808 33.5888 14.9174 33.4754 15.1319C33.4708 15.1405 33.4659 15.1489 33.4606 15.1571C33.4566 15.1632 33.4542 15.1703 33.4537 15.1775C33.4531 15.1848 33.4544 15.1921 33.4573 15.1988C33.4603 15.2054 33.4649 15.2113 33.4707 15.2157C33.4757 15.2195 33.4813 15.2221 33.4874 15.2236C33.7412 15.2528 33.9985 15.2254 34.2405 15.1432C34.4853 15.0601 34.7083 14.9231 34.893 14.7423C34.9012 14.7343 34.9098 14.7267 34.9188 14.7196C35.1041 14.5727 35.2525 14.3846 35.3523 14.1702C35.452 13.9558 35.5003 13.7211 35.4933 13.4848C35.4907 13.3957 35.5242 13.3094 35.5863 13.2454C35.6483 13.1815 35.7336 13.1454 35.8227 13.1454H35.8673C36.7754 13.0986 37.6652 12.872 38.485 12.4786C38.5723 12.4368 38.6735 12.4354 38.7619 12.4748C39.6772 12.8834 40.455 13.5478 41.0017 14.3879C41.5484 15.2281 41.8407 16.2083 41.8435 17.2107L41.8434 17.2154C41.8428 17.2728 41.8535 17.3297 41.8749 17.383C41.8963 17.4362 41.928 17.4847 41.9681 17.5257C42.0083 17.5667 42.0562 17.5993 42.109 17.6217C42.1613 17.6439 42.2174 17.6557 42.2742 17.6564C42.3837 17.6557 42.4886 17.612 42.566 17.5345C42.6438 17.4568 42.6876 17.3515 42.688 17.2416C42.688 17.2414 42.688 17.2412 42.688 17.241L42.688 13.8818C42.6876 13.2316 42.5492 12.589 42.2819 11.9964C42.0146 11.4038 41.6245 10.8747 41.1374 10.4441L41.1362 10.443C40.9433 10.2708 40.8139 10.0388 40.7685 9.78437C40.6243 9.08831 39.9734 8.40056 38.8824 7.87768C37.8024 7.36004 36.3526 7.0369 34.747 7.0369C33.1414 7.0369 31.6897 7.36006 30.6089 7.87772C29.5163 8.40104 28.8666 9.08889 28.7263 9.784ZM43.3471 13.8816V17.2424C43.3465 17.5268 43.2333 17.7994 43.0321 18.0006C42.831 18.2017 42.5584 18.315 42.2739 18.3156L42.2705 18.3156C42.1264 18.3144 41.9839 18.2848 41.8513 18.2284C41.7186 18.1721 41.5984 18.0901 41.4975 17.9872C41.3966 17.8843 41.317 17.7625 41.2632 17.6287C41.2098 17.4958 41.183 17.3537 41.1843 17.2104C41.1815 16.3358 40.9262 15.4806 40.4492 14.7474C39.9988 14.0552 39.3688 13.4997 38.6277 13.1394C37.8409 13.4969 36.9986 13.7162 36.1378 13.7878C36.1106 14.0158 36.0474 14.2388 35.9499 14.4483C35.8093 14.7505 35.6012 15.0164 35.3417 15.2254C35.0889 15.4693 34.7852 15.6543 34.4525 15.7673C34.1143 15.8822 33.7547 15.9197 33.4001 15.877C33.3962 15.8765 33.3923 15.876 33.3885 15.8754C33.2727 15.8572 33.1633 15.8104 33.0702 15.7392C32.9771 15.668 32.9033 15.5746 32.8555 15.4676C32.8077 15.3606 32.7874 15.2434 32.7965 15.1265C32.8051 15.0157 32.8399 14.9085 32.8979 14.8138C32.9634 14.6864 33.0013 14.5465 33.0089 14.4034C33.0168 14.2564 32.9926 14.1096 32.938 13.9729C32.936 13.9678 32.9341 13.9626 32.9323 13.9574C32.7921 13.5478 32.4364 13.3168 32.0568 13.1869C31.8709 13.1232 31.6932 13.0892 31.5611 13.0712C31.4956 13.0623 31.4425 13.0575 31.4068 13.055C31.394 13.0541 31.3835 13.0534 31.3755 13.053L30.9563 13.0972C30.1773 13.4557 29.5152 14.0274 29.047 14.7468C28.5699 15.4798 28.3145 16.335 28.3113 17.2096C28.3127 17.3528 28.286 17.495 28.2326 17.6279C28.1789 17.7618 28.0993 17.8837 27.9983 17.9866C27.8973 18.0896 27.777 18.1716 27.6443 18.2279C27.5115 18.2842 27.3689 18.3137 27.2247 18.3148L27.2213 18.3148C26.937 18.3139 26.6647 18.2006 26.4637 17.9996C26.2627 17.7986 26.1493 17.5262 26.1484 17.2419L26.1484 17.2409V13.8816C26.1488 13.1382 26.307 12.4032 26.6125 11.7256C26.9178 11.0484 27.3633 10.4436 27.9196 9.95133C28.0027 9.8762 28.0584 9.77551 28.078 9.66515C28.0784 9.66278 28.0788 9.66041 28.0793 9.65805C28.2781 8.66228 29.1539 7.84377 30.3242 7.28323C31.508 6.71625 33.0597 6.37775 34.747 6.37775C36.4343 6.37775 37.9843 6.71627 39.1673 7.28327C40.3372 7.84398 41.212 8.66215 41.4152 9.6566C41.4159 9.65983 41.4165 9.66308 41.417 9.66633C41.4361 9.77624 41.4916 9.8765 41.5747 9.9509C42.1314 10.4432 42.5772 11.048 42.8827 11.7254C43.1884 12.4031 43.3467 13.1381 43.3471 13.8816Z" fill="#45413C"/>
<path d="M58.0034 5.06919C58.0034 6.9375 56.4887 21.233 54.6204 21.233C52.752 21.233 51.2373 6.93434 51.2373 5.06919C51.2373 3.20404 52.752 1.30963 54.6204 1.30963C56.4887 1.30963 58.0034 3.20088 58.0034 5.06919Z" fill="#614B44"/>
<path d="M54.6204 3.94124C55.4043 4.00103 56.1475 4.3144 56.7376 4.83398C57.3277 5.35357 57.7326 6.05113 57.8911 6.82123C57.9639 5.99148 58.0034 5.36897 58.0034 5.06919C58.0034 3.20088 56.4887 1.30963 54.6204 1.30963C52.752 1.30963 51.2373 3.20088 51.2373 5.06919C51.2373 5.36897 51.2769 5.99148 51.3496 6.82123C51.5081 6.05113 51.913 5.35357 52.5031 4.83398C53.0932 4.3144 53.8364 4.00103 54.6204 3.94124Z" fill="#947063"/>
<path fill-rule="evenodd" clip-rule="evenodd" d="M52.4778 2.70576C51.913 3.35773 51.5674 4.22242 51.5674 5.06918C51.5674 5.97443 51.9425 9.99413 52.5541 13.7982C52.8595 15.698 53.2214 17.5271 53.6201 18.8763C53.8202 19.5533 54.0244 20.0916 54.2269 20.4543C54.3283 20.6362 54.4205 20.7577 54.4987 20.83C54.5765 20.9019 54.6157 20.9034 54.6208 20.9034C54.626 20.9034 54.6652 20.9019 54.743 20.83C54.8211 20.7577 54.9134 20.6362 55.0148 20.4545C55.2172 20.0918 55.4215 19.5536 55.6216 18.8767C56.0203 17.5278 56.3821 15.699 56.6876 13.7994C57.2992 9.99572 57.6743 5.97601 57.6743 5.06918C57.6743 4.22075 57.3286 3.35612 56.7639 2.70464C56.1999 2.05391 55.4394 1.6392 54.6208 1.6392C53.8024 1.6392 53.0419 2.05453 52.4778 2.70576ZM51.9796 2.27418C52.6399 1.51191 53.5709 0.980042 54.6208 0.980042C55.6705 0.980042 56.6016 1.51095 57.262 2.27292C57.9218 3.03415 58.3335 4.0493 58.3335 5.06918C58.3335 6.03066 57.9512 10.0929 57.3384 13.904C57.0316 15.8118 56.6645 17.6737 56.2537 19.0635C56.049 19.756 55.8284 20.3493 55.5904 20.7757C55.4716 20.9885 55.3397 21.176 55.1905 21.314C55.0407 21.4524 54.8492 21.5626 54.6208 21.5626C54.3925 21.5626 54.2009 21.4524 54.0512 21.3139C53.9019 21.1759 53.77 20.9883 53.6513 20.7756C53.4132 20.349 53.1926 19.7557 52.988 19.0631C52.5772 17.673 52.2101 15.8108 51.9033 13.9028C51.2905 10.0913 50.9082 6.02908 50.9082 5.06918C50.9082 4.0508 51.3199 3.0357 51.9796 2.27418Z" fill="#45413C"/>
<path d="M62.1392 15.579V13.6996C62.1392 11.7056 61.347 9.7933 59.9371 8.38334C58.5271 6.97338 56.6148 6.18127 54.6208 6.18127C52.6268 6.18127 50.7145 6.97338 49.3046 8.38334C47.8946 9.7933 47.1025 11.7056 47.1025 13.6996V15.579C46.7039 15.579 46.3216 15.7373 46.0398 16.0192C45.7579 16.301 45.5996 16.6833 45.5996 17.0819C45.5996 17.4804 45.7579 17.8627 46.0398 18.1446C46.3216 18.4264 46.7039 18.5847 47.1025 18.5847C47.1341 18.5847 47.1634 18.5776 47.195 18.5752C47.4606 20.3547 48.3564 21.9797 49.7193 23.1542C51.0822 24.3288 52.8216 24.9749 54.6208 24.9749C56.42 24.9749 58.1594 24.3288 59.5223 23.1542C60.8852 21.9797 61.781 20.3547 62.0466 18.5752C62.0782 18.5752 62.1075 18.5847 62.1392 18.5847C62.5377 18.5847 62.92 18.4264 63.2018 18.1446C63.4837 17.8627 63.642 17.4804 63.642 17.0819C63.642 16.6833 63.4837 16.301 63.2018 16.0192C62.92 15.7373 62.5377 15.579 62.1392 15.579Z" fill="#FFDA8F"/>
<path fill-rule="evenodd" clip-rule="evenodd" d="M49.071 8.15034C50.5428 6.67857 52.5389 5.85175 54.6203 5.85175C56.7017 5.85175 58.6979 6.67858 60.1696 8.15034C61.6414 9.62211 62.4682 11.6183 62.4682 13.6997V15.2793C62.8317 15.3458 63.1695 15.5212 63.4344 15.7862C63.778 16.1298 63.9711 16.5959 63.9711 17.0819C63.9711 17.5679 63.778 18.034 63.4344 18.3776C63.1349 18.6771 62.7425 18.8622 62.3249 18.9049C61.9988 20.6521 61.0876 22.2399 59.737 23.4039C58.3142 24.6301 56.4985 25.3045 54.6203 25.3045C52.7421 25.3045 50.9264 24.6301 49.5037 23.4039C48.153 22.2399 47.2418 20.6521 46.9157 18.9049C46.4982 18.8622 46.1057 18.6771 45.8062 18.3776C45.4626 18.034 45.2695 17.5679 45.2695 17.0819C45.2695 16.5959 45.4626 16.1298 45.8062 15.7862C46.0712 15.5212 46.4089 15.3458 46.7724 15.2793V13.6997C46.7724 11.6183 47.5992 9.62211 49.071 8.15034ZM61.8091 15.579V13.6997C61.8091 11.7931 61.0517 9.96459 59.7035 8.61644C58.3554 7.26828 56.5269 6.5109 54.6203 6.5109C52.7137 6.5109 50.8853 7.26828 49.5371 8.61644C48.1889 9.96459 47.4316 11.7931 47.4316 13.6997V15.579C47.4316 15.7611 47.284 15.9086 47.102 15.9086C46.7908 15.9086 46.4924 16.0322 46.2723 16.2523C46.0523 16.4723 45.9287 16.7707 45.9287 17.0819C45.9287 17.3931 46.0523 17.6915 46.2723 17.9116C46.4913 18.1305 46.7878 18.254 47.0973 18.2552C47.0987 18.255 47.1008 18.2548 47.1037 18.2544L47.1141 18.2529C47.1181 18.2524 47.1232 18.2517 47.1286 18.251C47.1395 18.2495 47.1537 18.2479 47.1699 18.2466C47.3421 18.2337 47.495 18.3559 47.5205 18.5266C47.7744 20.228 48.6309 21.7816 49.934 22.9046C51.2371 24.0276 52.9001 24.6454 54.6203 24.6454C56.3405 24.6454 58.0036 24.0276 59.3066 22.9046C60.6097 21.7816 61.4662 20.228 61.7201 18.5266C61.7442 18.3652 61.8829 18.2457 62.0461 18.2457C62.0885 18.2457 62.1264 18.2517 62.1405 18.254L62.1431 18.2544C62.1451 18.2547 62.1468 18.255 62.1482 18.2552C62.4559 18.2527 62.7505 18.1293 62.9683 17.9116C63.1883 17.6915 63.3119 17.3931 63.3119 17.0819C63.3119 16.7707 63.1883 16.4723 62.9683 16.2523C62.7483 16.0322 62.4498 15.9086 62.1387 15.9086C61.9566 15.9086 61.8091 15.7611 61.8091 15.579Z" fill="#45413C"/>
<path d="M49.3584 18.7746C49.3584 19.0238 49.4574 19.2628 49.6336 19.4391C49.8099 19.6153 50.0489 19.7143 50.2981 19.7143C50.5473 19.7143 50.7863 19.6153 50.9626 19.4391C51.1388 19.2628 51.2378 19.0238 51.2378 18.7746C51.2378 18.5254 51.1388 18.2864 50.9626 18.1101C50.7863 17.9339 50.5473 17.8349 50.2981 17.8349C50.0489 17.8349 49.8099 17.9339 49.6336 18.1101C49.4574 18.2864 49.3584 18.5254 49.3584 18.7746Z" fill="#FFBE3D"/>
<path d="M58.0039 18.7746C58.0039 19.0238 58.1029 19.2628 58.2791 19.4391C58.4554 19.6153 58.6944 19.7143 58.9436 19.7143C59.1928 19.7143 59.4318 19.6153 59.6081 19.4391C59.7843 19.2628 59.8833 19.0238 59.8833 18.7746C59.8833 18.5254 59.7843 18.2864 59.6081 18.1101C59.4318 17.9339 59.1928 17.8349 58.9436 17.8349C58.6944 17.8349 58.4554 17.9339 58.2791 18.1101C58.1029 18.2864 58.0039 18.5254 58.0039 18.7746Z" fill="#FFBE3D"/>
<path fill-rule="evenodd" clip-rule="evenodd" d="M52.1303 20.4546C52.2566 20.3235 52.4652 20.3196 52.5963 20.4459C53.1404 20.97 53.8665 21.2628 54.622 21.2628C55.3775 21.2628 56.1035 20.97 56.6476 20.4459C56.7787 20.3196 56.9874 20.3235 57.1136 20.4546C57.2399 20.5857 57.236 20.7943 57.1049 20.9206C56.438 21.563 55.548 21.922 54.622 21.922C53.6959 21.922 52.8059 21.563 52.139 20.9206C52.0079 20.7943 52.004 20.5857 52.1303 20.4546Z" fill="#45413C"/>
<path fill-rule="evenodd" clip-rule="evenodd" d="M50.7529 15.5102C51.0077 15.3403 51.3072 15.2496 51.6135 15.2496C51.9198 15.2496 52.2192 15.3403 52.474 15.5102C52.7288 15.6802 52.9276 15.9218 53.0453 16.2046C53.1152 16.3726 53.0357 16.5656 52.8676 16.6355C52.6996 16.7054 52.5067 16.6259 52.4367 16.4578C52.3691 16.2952 52.2548 16.1563 52.1083 16.0586C51.9617 15.9609 51.7896 15.9087 51.6135 15.9087C51.4373 15.9087 51.2652 15.9609 51.1187 16.0586C50.9722 16.1563 50.8579 16.2952 50.7902 16.4578C50.7203 16.6259 50.5273 16.7054 50.3593 16.6355C50.1912 16.5656 50.1117 16.3726 50.1816 16.2046C50.2993 15.9218 50.4981 15.6802 50.7529 15.5102Z" fill="#45413C"/>
<path fill-rule="evenodd" clip-rule="evenodd" d="M56.767 15.5104C57.0218 15.3405 57.3213 15.2499 57.6275 15.2499C57.9338 15.2499 58.2332 15.3405 58.4881 15.5104C58.7429 15.6802 58.9418 15.9217 59.0597 16.2044C59.1297 16.3724 59.0503 16.5654 58.8823 16.6354C58.7143 16.7055 58.5213 16.626 58.4513 16.458C58.3835 16.2955 58.2691 16.1566 58.1225 16.0589C57.9759 15.9612 57.8037 15.909 57.6275 15.909C57.4514 15.909 57.2791 15.9612 57.1326 16.0589C56.986 16.1566 56.8716 16.2955 56.8038 16.458C56.7337 16.626 56.5407 16.7055 56.3727 16.6354C56.2047 16.5654 56.1253 16.3724 56.1954 16.2044C56.3133 15.9217 56.5121 15.6802 56.767 15.5104Z" fill="#45413C"/>
<path d="M47.102 15.579V15.2033C47.102 15.2033 47.102 14.4518 48.2299 14.4518H53.4924C53.6908 14.4559 53.8881 14.4198 54.0723 14.3458C54.2565 14.2717 54.4238 14.1611 54.5642 14.0208C54.7045 13.8804 54.8151 13.7131 54.8892 13.5289C54.9632 13.3447 54.9993 13.1474 54.9952 12.949C54.9952 11.5837 54.9952 8.97978 58.0888 8.51073C58.2151 8.49169 58.3441 8.49982 58.467 8.53457C58.59 8.56931 58.7041 8.62987 58.8018 8.71222C58.8995 8.79456 58.9785 8.89678 59.0335 9.01208C59.0886 9.12737 59.1184 9.25308 59.121 9.38081C59.1542 11.3219 59.526 15.579 62.1378 15.579C62.4463 15.5792 62.7472 15.6748 62.9992 15.8527C63.324 14.5763 63.3528 13.2427 63.0837 11.9535C62.8145 10.6643 62.2543 9.45365 61.446 8.41391C60.6377 7.37417 59.6025 6.53282 58.4195 5.95407C57.2365 5.37532 55.9369 5.07446 54.6199 5.07446C53.3029 5.07446 52.0033 5.37532 50.8203 5.95407C49.6373 6.53282 48.6021 7.37417 47.7938 8.41391C46.9855 9.45365 46.4253 10.6643 46.1562 11.9535C45.887 13.2427 45.9159 14.5763 46.2406 15.8527C46.4926 15.6747 46.7935 15.579 47.102 15.579Z" fill="#614B44"/>
<path d="M54.6209 8.07648C55.6398 8.07522 56.6508 8.25493 57.6069 8.60723C57.7588 8.56847 57.9193 8.53604 58.0902 8.50994C58.2131 8.49174 58.3385 8.49924 58.4584 8.53196C58.5782 8.56469 58.69 8.62192 58.7867 8.70005C58.8833 8.77818 58.9627 8.8755 59.0198 8.98587C59.0769 9.09624 59.1105 9.21725 59.1185 9.34126C60.1644 9.98127 61.0626 10.8362 61.7534 11.8493C62.4442 12.8625 62.9119 14.0108 63.1256 15.2183C63.3523 13.9722 63.3024 12.6916 62.9796 11.4669C62.6568 10.2422 62.0688 9.10344 61.2574 8.13104C60.4459 7.15864 59.4307 6.37638 58.2836 5.83958C57.1365 5.30277 55.8854 5.02454 54.6189 5.02454C53.3524 5.02454 52.1014 5.30277 50.9543 5.83958C49.8071 6.37638 48.792 7.15864 47.9805 8.13104C47.169 9.10344 46.5811 10.2422 46.2583 11.4669C45.9354 12.6916 45.8856 13.9722 46.1123 15.2183C46.4647 13.2176 47.5108 11.405 49.0668 10.0989C50.6229 8.79279 52.5894 8.07673 54.6209 8.07648Z" fill="#947063"/>
<path fill-rule="evenodd" clip-rule="evenodd" d="M50.676 5.65807C51.9041 5.05726 53.2532 4.74493 54.6204 4.74493C55.9876 4.74493 57.3367 5.05726 58.5648 5.65807C59.7929 6.25888 60.8675 7.1323 61.7067 8.21167C62.5458 9.29105 63.1273 10.5479 63.4068 11.8862C63.6862 13.2245 63.6562 14.609 63.3191 15.934C63.2924 16.0391 63.2156 16.1244 63.1138 16.1619C63.012 16.1995 62.8983 16.1845 62.8097 16.122C62.6132 15.9833 62.3786 15.9088 62.1381 15.9086C60.6007 15.9085 59.7815 14.6425 59.3494 13.3095C58.9105 11.9552 58.8088 10.3664 58.792 9.387C58.792 9.38683 58.792 9.38667 58.792 9.3865L59.1214 9.38086L58.792 9.38763C58.792 9.38742 58.792 9.38721 58.792 9.387C58.7902 9.30634 58.7713 9.22696 58.7366 9.15414C58.7017 9.08114 58.6517 9.0164 58.5898 8.96426C58.528 8.91212 58.4557 8.87377 58.3779 8.85177C58.3 8.82978 58.2184 8.82463 58.1385 8.83666C58.1385 8.83665 58.1386 8.83664 58.1387 8.83663L58.0893 8.51078L58.1384 8.83668C58.1384 8.83667 58.1384 8.83667 58.1385 8.83666C56.7022 9.05449 56.0249 9.75078 55.6841 10.5264C55.3299 11.3327 55.3253 12.2547 55.3253 12.9458C55.3253 12.9446 55.3252 12.9434 55.3252 12.9422L54.9957 12.949H55.3253C55.3253 12.9479 55.3253 12.9469 55.3253 12.9458C55.3298 13.1875 55.2856 13.4276 55.1954 13.6519C55.1048 13.8773 54.9695 14.0821 54.7977 14.2539C54.6259 14.4257 54.4211 14.5609 54.1957 14.6516C53.9714 14.7418 53.7313 14.786 53.4896 14.7815H53.4928V14.4519L53.486 14.7814C53.4872 14.7814 53.4884 14.7814 53.4896 14.7815H48.2304C47.7468 14.7815 47.573 14.9376 47.507 15.0254C47.4684 15.077 47.4492 15.1283 47.4398 15.1659C47.4351 15.1845 47.4332 15.1987 47.4324 15.2062C47.4322 15.2076 47.4321 15.2087 47.432 15.2095V15.2033H47.1126C47.432 15.2033 47.432 15.2036 47.432 15.2038L47.432 15.2043L47.432 15.2051L47.432 15.2067L47.432 15.2091L47.4319 15.2113C47.4319 15.2115 47.4319 15.2111 47.432 15.2102C47.432 15.21 47.432 15.2098 47.432 15.2095V15.579H47.1025L47.1024 15.2495C46.9913 15.2495 46.881 15.2596 46.7729 15.2796V15.2033H47.0958C46.7729 15.2033 46.7729 15.2031 46.7729 15.2028L46.7729 15.2023L46.7729 15.2012L46.7729 15.1988L46.773 15.1932C46.7731 15.189 46.7733 15.1841 46.7736 15.1784C46.7741 15.1671 46.7751 15.1528 46.777 15.1359C46.7806 15.1023 46.7874 15.0577 46.8004 15.0059C46.8262 14.9026 46.8775 14.7661 46.9798 14.6298C47.1959 14.3419 47.5861 14.1223 48.2304 14.1223H53.4928C53.4951 14.1223 53.4974 14.1223 53.4996 14.1224C53.6537 14.1255 53.8068 14.0975 53.9498 14.04C54.0928 13.9825 54.2226 13.8967 54.3316 13.7878C54.4406 13.6788 54.5264 13.5489 54.5839 13.406C54.6414 13.263 54.6694 13.1099 54.6662 12.9558C54.6662 12.9543 54.6661 12.9527 54.6661 12.9512C54.6661 12.9504 54.6661 12.9497 54.6661 12.949V12.9296C54.6661 12.2549 54.666 11.2051 55.0807 10.2613C55.5133 9.27636 56.3827 8.43618 58.0399 8.18492L58.0402 8.18488C58.2128 8.15886 58.3891 8.16997 58.5571 8.21746C58.7251 8.26495 58.8811 8.34772 59.0147 8.46027C59.1482 8.57281 59.2562 8.71253 59.3314 8.87011C59.4066 9.02769 59.4474 9.19951 59.451 9.3741L59.451 9.37522C59.4675 10.3369 59.5683 11.8469 59.9764 13.1062C60.3915 14.3869 61.064 15.2495 62.1383 15.2495H62.1386C62.3565 15.2496 62.5713 15.2888 62.7732 15.3638C62.7457 15.5003 62.7147 15.6362 62.6803 15.7715L62.9997 15.8527L63.1897 15.5834C63.0602 15.492 62.9201 15.4184 62.7732 15.3638C62.9953 14.2616 62.9919 13.1243 62.7615 12.0209C62.5026 10.7809 61.9638 9.61636 61.1863 8.61624C60.4088 7.61613 59.4131 6.80685 58.2751 6.25016C57.1372 5.69348 55.8872 5.40409 54.6204 5.40409C53.3536 5.40409 52.1035 5.69348 50.9656 6.25016C49.8277 6.80685 48.832 7.61613 48.0545 8.61624C47.277 9.61636 46.7382 10.7809 46.4793 12.0209C46.2489 13.1243 46.2455 14.2616 46.4676 15.3637C46.3206 15.4183 46.1804 15.492 46.0509 15.5835L46.2411 15.8527L46.5605 15.7715C46.526 15.6362 46.4951 15.5002 46.4676 15.3637C46.5666 15.3269 46.6688 15.2987 46.7729 15.2796V15.579H47.1025L47.1025 15.9086C46.8621 15.9087 46.6276 15.9832 46.4312 16.1219C46.3426 16.1845 46.2288 16.1995 46.127 16.1619C46.0252 16.1244 45.9484 16.0391 45.9217 15.934C45.5846 14.609 45.5546 13.2245 45.834 11.8862C46.1135 10.5479 46.6949 9.29105 47.5341 8.21167C48.3732 7.1323 49.4479 6.25888 50.676 5.65807Z" fill="#45413C"/>
<path fill-rule="evenodd" clip-rule="evenodd" d="M46.5635 18.7821C46.4069 19.2513 46.3047 19.9198 46.3047 20.6714C46.3047 21.4229 46.4069 22.0911 46.563 22.56C46.6417 22.7962 46.7281 22.9637 46.8081 23.0654C46.8718 23.1464 46.9093 23.1598 46.9166 23.1616C46.927 23.161 46.9697 23.154 47.0414 23.0716C47.1193 22.982 47.2049 22.831 47.2826 22.6091C47.4371 22.1679 47.536 21.5168 47.5241 20.7277C47.5214 20.5457 47.6667 20.396 47.8487 20.3932C48.0307 20.3905 48.1805 20.5358 48.1832 20.7178C48.1959 21.5582 48.0923 22.2913 47.9047 22.827C47.8113 23.0935 47.691 23.329 47.5389 23.504C47.3862 23.6797 47.1759 23.8208 46.9148 23.8208C46.6404 23.8208 46.4318 23.6533 46.29 23.4729C46.1451 23.2888 46.0291 23.0428 45.9377 22.7683C45.7537 22.2159 45.6455 21.4741 45.6455 20.6714C45.6455 19.8686 45.7537 19.1264 45.9382 18.5734C46.0299 18.2987 46.1464 18.0523 46.292 17.8679C46.4348 17.6871 46.6441 17.5203 46.9187 17.5203C47.1008 17.5203 47.2483 17.6679 47.2483 17.8499C47.2483 18.0314 47.1016 18.1786 46.9203 18.1795C46.9139 18.1808 46.8755 18.1927 46.8094 18.2764C46.729 18.3782 46.6423 18.5458 46.5635 18.7821ZM46.9212 18.1793C46.9212 18.1793 46.921 18.1794 46.9206 18.1794L46.9212 18.1793ZM46.9179 23.1619C46.9179 23.1619 46.9177 23.1618 46.9173 23.1618L46.9179 23.1619Z" fill="#45413C"/>
<path fill-rule="evenodd" clip-rule="evenodd" d="M61.9976 17.8499C61.9976 17.6679 62.1451 17.5203 62.3272 17.5203C62.6017 17.5203 62.8103 17.6882 62.952 17.8686C63.0969 18.0529 63.2129 18.2991 63.3043 18.5737C63.4882 19.1265 63.5964 19.8686 63.5964 20.6714C63.5964 21.4741 63.4882 22.2159 63.3043 22.7683C63.2129 23.0428 63.0968 23.2888 62.9519 23.4729C62.8101 23.6533 62.6015 23.8208 62.3272 23.8208C62.066 23.8208 61.8557 23.6797 61.703 23.5041C61.5508 23.3291 61.4304 23.0936 61.337 22.827C61.1493 22.2913 61.0457 21.5581 61.0587 20.7176C61.0615 20.5357 61.2114 20.3904 61.3934 20.3932C61.5754 20.3961 61.7206 20.5459 61.7178 20.7279C61.7055 21.5169 61.8044 22.1679 61.959 22.609C62.0368 22.8309 62.1224 22.982 62.2003 23.0715C62.2721 23.154 62.3149 23.161 62.3253 23.1616C62.3326 23.1598 62.3702 23.1464 62.4338 23.0654C62.5138 22.9637 62.6002 22.7962 62.6789 22.56C62.835 22.0911 62.9373 21.4229 62.9373 20.6714C62.9373 19.9198 62.8351 19.2512 62.6789 18.7818C62.6002 18.5454 62.5138 18.3777 62.4337 18.2758C62.3694 18.194 62.3318 18.1811 62.325 18.1795C62.144 18.1783 61.9976 18.0312 61.9976 17.8499ZM62.3239 18.1793C62.3239 18.1793 62.3242 18.1793 62.3246 18.1794L62.3239 18.1793ZM62.324 23.1619C62.324 23.1618 62.3242 23.1618 62.3246 23.1618L62.324 23.1619Z" fill="#45413C"/>
</svg>

