<svg width="64" height="64" viewBox="0 0 64 64" fill="none" xmlns="http://www.w3.org/2000/svg">
<g clip-path="url(#clip0_8530_416220)">
<path d="M61.5249 32.2904C61.5255 28.0687 60.581 23.9005 58.7609 20.0913C56.9408 16.2821 54.2911 12.9286 51.0062 10.2768C47.7212 7.62501 43.8844 5.7421 39.7771 4.76618C35.6697 3.79026 31.396 3.74608 27.2694 4.63689C23.1427 5.52769 19.2678 7.33089 15.9288 9.91424C12.5898 12.4976 9.87131 15.7956 7.97282 19.5663C6.07433 23.337 5.04394 27.4849 4.9572 31.7057C4.87047 35.9265 5.7296 40.1132 7.47159 43.9588H59.0046C60.6684 40.294 61.5278 36.3152 61.5249 32.2904Z" fill="#C7F0FF"/>
<path d="M7.47156 43.9588C9.7152 48.9117 13.3388 53.1131 17.9086 56.0598C22.4784 59.0065 27.8006 60.5737 33.238 60.5737C38.6755 60.5737 43.9977 59.0065 48.5675 56.0598C53.1373 53.1131 56.7609 48.9117 59.0045 43.9588H7.47156Z" fill="#FFDA8F"/>
<path d="M5.65839 43.9588H60.8177" stroke="black" stroke-linecap="round" stroke-linejoin="round"/>
<path d="M2.47614 43.9588H4.24406" stroke="black" stroke-linecap="round" stroke-linejoin="round"/>
<path d="M62.2321 43.9588H64" stroke="black" stroke-linecap="round" stroke-linejoin="round"/>
<path d="M21.5698 23.4508H20.1554C19.9679 23.4508 19.788 23.5253 19.6554 23.6579C19.5227 23.7906 19.4482 23.9704 19.4482 24.158V29.4667H22.2769V24.158C22.2769 23.9704 22.2024 23.7906 22.0698 23.6579C21.9372 23.5253 21.7573 23.4508 21.5698 23.4508Z" fill="#6A7784"/>
<path d="M22.2769 25.2187V24.158C22.2769 23.9704 22.2024 23.7906 22.0698 23.6579C21.9372 23.5253 21.7573 23.4508 21.5698 23.4508H20.1554C19.9679 23.4508 19.788 23.5253 19.6554 23.6579C19.5227 23.7906 19.4482 23.9704 19.4482 24.158V25.2187H22.2769Z" fill="#8292A2"/>
<path d="M21.5698 23.4508H20.1554C19.9679 23.4508 19.788 23.5253 19.6554 23.6579C19.5227 23.7906 19.4482 23.9704 19.4482 24.158V29.4667H22.2769V24.158C22.2769 23.9704 22.2024 23.7906 22.0698 23.6579C21.9372 23.5253 21.7573 23.4508 21.5698 23.4508Z" stroke="black" stroke-linecap="round" stroke-linejoin="round"/>
<path opacity="0.15" d="M6.92139 50.3233C6.92139 50.4626 7.04943 50.6005 7.2982 50.7292C7.54697 50.8579 7.9116 50.9749 8.37127 51.0734C8.83093 51.1719 9.37664 51.25 9.97723 51.3033C10.5778 51.3566 11.2215 51.3841 11.8716 51.3841C12.5217 51.3841 13.1654 51.3566 13.7659 51.3033C14.3665 51.25 14.9122 51.1719 15.3719 51.0734C15.8316 50.9749 16.1962 50.8579 16.445 50.7292C16.6937 50.6005 16.8218 50.4626 16.8218 50.3233C16.8218 50.184 16.6937 50.0461 16.445 49.9174C16.1962 49.7887 15.8316 49.6717 15.3719 49.5732C14.9122 49.4747 14.3665 49.3966 13.7659 49.3433C13.1654 49.29 12.5217 49.2625 11.8716 49.2625C11.2215 49.2625 10.5778 49.29 9.97723 49.3433C9.37664 49.3966 8.83093 49.4747 8.37127 49.5732C7.9116 49.6717 7.54697 49.7887 7.2982 49.9174C7.04943 50.0461 6.92139 50.184 6.92139 50.3233Z" fill="black"/>
<path d="M14.6748 46.4339H9.37103C9.20849 46.4338 9.04752 46.4657 8.89733 46.5279C8.74715 46.59 8.61068 46.6812 8.49575 46.7961C8.38081 46.9111 8.28966 47.0475 8.2275 47.1977C8.16534 47.3479 8.13339 47.5089 8.13348 47.6714V48.909C8.13348 49.0965 8.20799 49.2764 8.34061 49.409C8.47323 49.5416 8.6531 49.6161 8.84066 49.6161H15.2052C15.3927 49.6161 15.5726 49.5416 15.7052 49.409C15.8379 49.2764 15.9124 49.0965 15.9124 48.909V47.6714C15.9125 47.5089 15.8805 47.3479 15.8184 47.1977C15.7562 47.0475 15.665 46.9111 15.5501 46.7961C15.4352 46.6812 15.2987 46.59 15.1485 46.5279C14.9983 46.4657 14.8374 46.4338 14.6748 46.4339Z" fill="#6A7784"/>
<path d="M14.6748 46.4339H9.37103C9.20849 46.4338 9.04752 46.4657 8.89733 46.5279C8.74715 46.59 8.61068 46.6812 8.49575 46.7961C8.38081 46.9111 8.28966 47.0475 8.2275 47.1977C8.16534 47.3479 8.13339 47.5089 8.13348 47.6714V48.909C8.13345 48.9347 8.13487 48.9605 8.13773 48.986C8.16278 48.6761 8.30357 48.387 8.53209 48.1762C8.76061 47.9654 9.06011 47.8483 9.37103 47.8482H14.6748C14.9857 47.8483 15.2852 47.9654 15.5138 48.1762C15.7423 48.387 15.8831 48.6761 15.9081 48.986C15.911 48.9605 15.9124 48.9347 15.9124 48.909V47.6714C15.9125 47.5089 15.8805 47.3479 15.8184 47.1977C15.7562 47.0475 15.665 46.9111 15.5501 46.7961C15.4352 46.6812 15.2987 46.59 15.1485 46.5279C14.9983 46.4657 14.8374 46.4338 14.6748 46.4339Z" fill="#8292A2"/>
<path d="M14.6748 46.4339H9.37103C9.20849 46.4338 9.04752 46.4657 8.89733 46.5279C8.74715 46.59 8.61068 46.6812 8.49575 46.7961C8.38081 46.9111 8.28966 47.0475 8.2275 47.1977C8.16534 47.3479 8.13339 47.5089 8.13348 47.6714V48.909C8.13348 49.0965 8.20799 49.2764 8.34061 49.409C8.47323 49.5416 8.6531 49.6161 8.84066 49.6161H15.2052C15.3927 49.6161 15.5726 49.5416 15.7052 49.409C15.8379 49.2764 15.9124 49.0965 15.9124 48.909V47.6714C15.9125 47.5089 15.8805 47.3479 15.8184 47.1977C15.7562 47.0475 15.665 46.9111 15.5501 46.7961C15.4352 46.6812 15.2987 46.59 15.1485 46.5279C14.9983 46.4657 14.8374 46.4338 14.6748 46.4339Z" stroke="black" stroke-linecap="round" stroke-linejoin="round"/>
<path d="M12.0229 37.5419C11.6596 37.5286 11.301 37.4545 10.9622 37.3227V46.4339H13.0837V37.3227C12.7448 37.4545 12.3863 37.5286 12.0229 37.5419Z" fill="#F8F8F8" stroke="black" stroke-linecap="round" stroke-linejoin="round"/>
<path d="M10.255 33.7048V35.8921C10.255 36.3609 10.4413 36.8106 10.7728 37.1422C11.1044 37.4737 11.554 37.66 12.0229 37.66C12.4918 37.66 12.9415 37.4737 13.273 37.1422C13.6046 36.8106 13.7909 36.3609 13.7909 35.8921V33.7048H10.255Z" fill="#F8F8F8" stroke="black" stroke-linecap="round" stroke-linejoin="round"/>
<path d="M4.20825 34.6162L19.1325 31.1682L19.5156 32.8267L4.59142 36.2747L4.20825 34.6162Z" fill="#F8F8F8" stroke="black" stroke-linecap="round" stroke-linejoin="round"/>
<path d="M19.5154 35.4727L19.8272 37.0285C19.8599 37.1883 19.9468 37.332 20.0732 37.4351C20.1996 37.5382 20.3578 37.5944 20.521 37.5942H21.2041C21.3673 37.5944 21.5254 37.5382 21.6519 37.4351C21.7783 37.332 21.8652 37.1883 21.8978 37.0285L22.2097 35.4727H19.5154Z" fill="#8292A2" stroke="black" stroke-linecap="round" stroke-linejoin="round"/>
<path d="M20.6978 37.6006C20.6978 37.6006 19.7941 39.5679 20.719 40.9547C21.5676 42.2276 21.5676 42.2566 21.5676 43.9588" stroke="black" stroke-linecap="round" stroke-linejoin="round"/>
<path d="M18.3875 25.2187H23.3376" stroke="black" stroke-linecap="round" stroke-linejoin="round"/>
<path d="M20.8625 25.2117V29.4667" stroke="black" stroke-linecap="round" stroke-linejoin="round"/>
<path d="M12.3765 36.1092C12.3765 36.1791 12.3557 36.2475 12.3169 36.3056C12.278 36.3638 12.2228 36.4091 12.1582 36.4358C12.0936 36.4626 12.0225 36.4696 11.9539 36.456C11.8853 36.4423 11.8223 36.4086 11.7729 36.3592C11.7234 36.3097 11.6897 36.2467 11.6761 36.1781C11.6625 36.1096 11.6695 36.0385 11.6962 35.9739C11.723 35.9092 11.7683 35.854 11.8265 35.8152C11.8846 35.7763 11.953 35.7556 12.0229 35.7556C12.1167 35.7556 12.2066 35.7928 12.2729 35.8591C12.3392 35.9255 12.3765 36.0154 12.3765 36.1092Z" fill="black"/>
<path d="M6.9822 35.4246C7.00316 35.5151 7.00609 35.6089 6.99082 35.7005C6.97554 35.7921 6.94237 35.8799 6.89318 35.9587C6.84399 36.0375 6.77976 36.1058 6.70415 36.1598C6.62854 36.2138 6.54304 36.2523 6.45253 36.2732L1.55537 37.4047C1.22715 37.4804 0.88231 37.4226 0.596713 37.244C0.311115 37.0654 0.108152 36.7807 0.0324745 36.4525C-0.0432034 36.1243 0.0146029 35.7794 0.193176 35.4938C0.371749 35.2082 0.656462 35.0053 0.98468 34.9296L5.88113 33.7981C5.97163 33.7772 6.06538 33.7742 6.15701 33.7895C6.24864 33.8048 6.33637 33.838 6.41517 33.8871C6.49398 33.9363 6.56232 34.0006 6.6163 34.0762C6.67027 34.1518 6.70882 34.2373 6.72974 34.3278L6.9822 35.4246Z" fill="#F8F8F8"/>
<path d="M0.0618346 36.5335C0.161038 36.4927 0.26346 36.4603 0.36804 36.4366L6.86906 34.9345L6.72763 34.3285C6.70671 34.238 6.66816 34.1525 6.61419 34.0769C6.56021 34.0013 6.49187 33.937 6.41306 33.8878C6.33426 33.8387 6.24653 33.8055 6.1549 33.7902C6.06327 33.7749 5.96952 33.7779 5.87902 33.7988L0.982571 34.9303C0.655787 35.008 0.372957 35.2117 0.195721 35.497C0.018484 35.7824 -0.0387915 36.1262 0.0363766 36.4535C0.0406196 36.4825 0.0533485 36.508 0.0618346 36.5335Z" fill="#F5F5F5"/>
<path d="M6.9822 35.4246C7.00316 35.5151 7.00609 35.6089 6.99082 35.7005C6.97554 35.7921 6.94237 35.8799 6.89318 35.9587C6.84399 36.0375 6.77976 36.1058 6.70415 36.1598C6.62854 36.2138 6.54304 36.2523 6.45253 36.2732L1.55537 37.4047C1.22715 37.4804 0.88231 37.4226 0.596713 37.244C0.311115 37.0654 0.108152 36.7807 0.0324744 36.4525C-0.0432034 36.1243 0.0146029 35.7794 0.193176 35.4938C0.371749 35.2082 0.656462 35.0053 0.98468 34.9296L5.88113 33.7981C5.97163 33.7772 6.06538 33.7742 6.15701 33.7895C6.24864 33.8048 6.33637 33.838 6.41517 33.8871C6.49398 33.9363 6.56232 34.0006 6.6163 34.0762C6.67027 34.1518 6.70882 34.2373 6.72974 34.3278L6.9822 35.4246Z" stroke="black" stroke-linecap="round" stroke-linejoin="round"/>
<path d="M18.741 29.4618H22.9841V35.4727H18.741V29.4618Z" fill="#F5F5F5"/>
<path d="M22.9841 34.7655V33.2727C22.9161 33.4209 22.807 33.5463 22.6697 33.6341C22.5324 33.7219 22.3727 33.7683 22.2097 33.7677H19.5154C19.3524 33.7683 19.1927 33.7219 19.0554 33.6341C18.9181 33.5463 18.8089 33.4209 18.741 33.2727V34.7655C18.741 34.9531 18.8155 35.133 18.9482 35.2656C19.0808 35.3982 19.2606 35.4727 19.4482 35.4727H22.2769C22.4644 35.4727 22.6443 35.3982 22.7769 35.2656C22.9095 35.133 22.9841 34.9531 22.9841 34.7655Z" fill="#F8F8F8"/>
<path d="M18.729 31.2297H22.9841" stroke="black" stroke-linecap="round" stroke-linejoin="round"/>
<path d="M56.5747 46.4339C56.5747 46.809 56.4257 47.1687 56.1605 47.434C55.8952 47.6992 55.5355 47.8482 55.1604 47.8482H50.2102C49.8351 47.8482 49.4753 47.6992 49.2101 47.434C48.9448 47.1687 48.7958 46.809 48.7958 46.4339V42.5444C48.7958 42.3569 48.8703 42.177 49.003 42.0444C49.1356 41.9118 49.3155 41.8372 49.503 41.8372H55.8675C56.0551 41.8372 56.235 41.9118 56.3676 42.0444C56.5002 42.177 56.5747 42.3569 56.5747 42.5444V46.4339Z" fill="white"/>
<path d="M55.1604 46.0803H50.2102C49.8351 46.0803 49.4753 45.9313 49.2101 45.666C48.9448 45.4008 48.7958 45.041 48.7958 44.6659V46.4339C48.7958 46.809 48.9448 47.1687 49.2101 47.434C49.4753 47.6992 49.8351 47.8482 50.2102 47.8482H55.1604C55.5355 47.8482 55.8952 47.6992 56.1605 47.434C56.4257 47.1687 56.5747 46.809 56.5747 46.4339V44.6659C56.5747 45.041 56.4257 45.4008 56.1605 45.666C55.8952 45.9313 55.5355 46.0803 55.1604 46.0803Z" fill="#F5F5F5"/>
<path opacity="0.15" d="M47.9012 49.8148C47.9012 50.0962 48.4228 50.366 49.3511 50.5649C50.2795 50.7638 51.5386 50.8756 52.8514 50.8756C54.1643 50.8756 55.4234 50.7638 56.3518 50.5649C57.2801 50.366 57.8016 50.0962 57.8016 49.8148C57.8016 49.5335 57.2801 49.2637 56.3518 49.0648C55.4234 48.8658 54.1643 48.7541 52.8514 48.7541C51.5386 48.7541 50.2795 48.8658 49.3511 49.0648C48.4228 49.2637 47.9012 49.5335 47.9012 49.8148Z" fill="black"/>
<path d="M57.5746 47.8482H47.7605C47.7043 47.8477 47.6493 47.864 47.6024 47.8949C47.5555 47.9258 47.5189 47.97 47.4972 48.0218C47.4755 48.0736 47.4698 48.1307 47.4806 48.1858C47.4915 48.2409 47.5185 48.2915 47.5583 48.3312C48.3476 49.1308 49.4171 49.5916 50.5404 49.6161H54.7947C55.9178 49.5917 56.9872 49.1309 57.7762 48.3312C57.8159 48.2916 57.8429 48.241 57.8538 48.186C57.8646 48.1309 57.8589 48.0739 57.8373 48.0221C57.8157 47.9704 57.7792 47.9262 57.7324 47.8952C57.6857 47.8643 57.6307 47.8479 57.5746 47.8482Z" fill="#F5F5F5" stroke="black" stroke-linecap="round" stroke-linejoin="round"/>
<path d="M54.0996 41.8372V43.8916" stroke="black" stroke-linecap="round" stroke-linejoin="round"/>
<path d="M54.4921 44.0104C54.3758 43.9329 54.2393 43.8915 54.0996 43.8915C53.9599 43.8915 53.8233 43.9329 53.7071 44.0104L53.3535 44.2459C53.2567 44.3105 53.1773 44.398 53.1224 44.5006C53.0675 44.6032 53.0388 44.7178 53.0388 44.8342V45.7267C53.0388 45.9142 53.1133 46.0941 53.2459 46.2267C53.3786 46.3594 53.5584 46.4339 53.746 46.4339H54.4532C54.6407 46.4339 54.8206 46.3594 54.9532 46.2267C55.0858 46.0941 55.1603 45.9142 55.1603 45.7267V44.8342C55.1603 44.7178 55.1316 44.6032 55.0767 44.5006C55.0218 44.398 54.9425 44.3105 54.8456 44.2459L54.4921 44.0104Z" fill="#FFF48C" stroke="black" stroke-linecap="round" stroke-linejoin="round"/>
<path d="M56.5747 42.5444H57.6058C57.9948 42.558 58.3633 42.7227 58.6329 43.0036C58.9025 43.2844 59.0521 43.6593 59.0498 44.0486C59.0496 44.3425 58.9327 44.6244 58.7248 44.8322C58.5169 45.04 58.2349 45.1567 57.941 45.1567C57.7589 45.1575 57.5798 45.203 57.4194 45.2893C57.2591 45.3757 57.1225 45.5001 57.0216 45.6517L56.5775 46.3179" stroke="black" stroke-linecap="round" stroke-linejoin="round"/>
<path d="M53.7192 34.064C52.8706 34.9126 54.9921 36.1919 54.9921 37.4676C54.9921 38.4195 53.7192 38.7405 53.7192 39.5955" stroke="black" stroke-linecap="round" stroke-linejoin="round"/>
<path d="M50.7405 32.3611C49.8919 33.2098 52.0177 34.4876 52.0177 35.7648C52.0177 36.7159 50.7405 37.0377 50.7405 37.8919" stroke="black" stroke-linecap="round" stroke-linejoin="round"/>
<path d="M56.5747 46.4339C56.5747 46.809 56.4257 47.1687 56.1605 47.434C55.8952 47.6992 55.5355 47.8482 55.1604 47.8482H50.2102C49.8351 47.8482 49.4753 47.6992 49.2101 47.434C48.9448 47.1687 48.7958 46.809 48.7958 46.4339V42.5444C48.7958 42.3569 48.8703 42.177 49.003 42.0444C49.1356 41.9118 49.3155 41.8372 49.503 41.8372H55.8675C56.0551 41.8372 56.235 41.9118 56.3676 42.0444C56.5002 42.177 56.5747 42.3569 56.5747 42.5444V46.4339Z" stroke="black" stroke-linecap="round" stroke-linejoin="round"/>
<path d="M48.2004 38.6005C48.2004 35.6638 47.0338 32.8474 44.9572 30.7708C42.8807 28.6943 40.0642 27.5276 37.1275 27.5276C34.1908 27.5276 31.3744 28.6943 29.2978 30.7708C27.2212 32.8474 26.0546 35.6638 26.0546 38.6005V40.3869H30.3408V43.9588H43.9142V40.3869H48.2004V38.6005Z" fill="#6DD627" stroke="black" stroke-linecap="round" stroke-linejoin="round"/>
<path d="M42.1279 29.5466C42.128 29.1877 42.0574 28.8322 41.9201 28.5006C41.7828 28.1689 41.5814 27.8676 41.3276 27.6137C41.0738 27.3599 40.7724 27.1586 40.4408 27.0213C40.1091 26.884 39.7537 26.8133 39.3947 26.8134H34.8603C34.4211 26.8137 33.9883 26.9197 33.5987 27.1226C33.2091 27.3255 32.8741 27.6193 32.6221 27.979C32.3701 28.3388 32.2084 28.754 32.1508 29.1895C32.0932 29.6249 32.1414 30.0679 32.2912 30.4808L33.5563 33.9573L37.1282 31.8145L40.7002 33.9573L41.9646 30.4808C42.0731 30.1813 42.1284 29.8652 42.1279 29.5466Z" fill="white" stroke="black" stroke-linecap="round" stroke-linejoin="round"/>
<path d="M30.3408 37.5292V43.9588" stroke="black" stroke-linecap="round" stroke-linejoin="round"/>
<path d="M43.9142 37.5292V43.9588" stroke="black" stroke-linecap="round" stroke-linejoin="round"/>
<path d="M26.7689 40.3868H30.3408V43.9588H26.7689V40.3868Z" fill="#FFDA8F" stroke="black" stroke-linecap="round" stroke-linejoin="round"/>
<path d="M43.9142 40.3868H47.4861V43.9588H43.9142V40.3868Z" fill="#FFDA8F" stroke="black" stroke-linecap="round" stroke-linejoin="round"/>
<path d="M37.1275 31.8145V43.9588" stroke="black" stroke-linecap="round" stroke-linejoin="round"/>
<path d="M39.6281 29.314L37.1275 31.8145L34.627 29.314V25.3849H39.6281V29.314Z" fill="#FFDA8F"/>
<path d="M34.627 27.8749C36.2581 28.3642 37.9969 28.3642 39.6281 27.8749V25.3849H34.627V27.8749Z" fill="#FFBE3D"/>
<path d="M39.6281 29.314L37.1275 31.8145L34.627 29.314V25.3849H39.6281V29.314Z" stroke="black" stroke-linecap="round" stroke-linejoin="round"/>
<path d="M44.2763 17.8818V16.0962C44.2763 14.2011 43.5234 12.3836 42.1834 11.0435C40.8433 9.70346 39.0258 8.95062 37.1307 8.95062C35.2355 8.95062 33.418 9.70346 32.0779 11.0435C30.7379 12.3836 29.9851 14.2011 29.9851 16.0962V17.8833C29.6116 17.8916 29.2562 18.0457 28.9951 18.3128C28.7339 18.5799 28.5876 18.9386 28.5876 19.3121C28.5876 19.6856 28.7339 20.0443 28.9951 20.3114C29.2562 20.5784 29.6116 20.7326 29.9851 20.7409C30.0155 20.7409 30.043 20.7339 30.0727 20.7324C30.3251 22.4238 31.1765 23.9683 32.4719 25.0848C33.7673 26.2012 35.4205 26.8153 37.1307 26.8153C38.8408 26.8153 40.494 26.2012 41.7894 25.0848C43.0848 23.9683 43.9362 22.4238 44.1886 20.7324C44.2183 20.7324 44.2466 20.7409 44.2763 20.7409C44.4666 20.7452 44.6558 20.7113 44.8329 20.6414C45.0099 20.5715 45.1713 20.467 45.3073 20.3339C45.4434 20.2008 45.5516 20.0418 45.6254 19.8664C45.6992 19.6909 45.7372 19.5025 45.7372 19.3121C45.7372 19.1217 45.6992 18.9333 45.6254 18.7578C45.5516 18.5824 45.4434 18.4234 45.3073 18.2903C45.1713 18.1572 45.0099 18.0527 44.8329 17.9827C44.6558 17.9128 44.4666 17.879 44.2763 17.8833V17.8818Z" fill="#FFDA8F" stroke="black" stroke-linecap="round" stroke-linejoin="round"/>
<path d="M32.1292 20.5663C32.1292 20.6835 32.1523 20.7997 32.1972 20.908C32.2421 21.0164 32.3079 21.1149 32.3908 21.1978C32.4738 21.2807 32.5722 21.3465 32.6806 21.3914C32.7889 21.4363 32.9051 21.4594 33.0224 21.4594C33.1397 21.4594 33.2558 21.4363 33.3642 21.3914C33.4725 21.3465 33.571 21.2807 33.6539 21.1978C33.7369 21.1149 33.8027 21.0164 33.8475 20.908C33.8924 20.7997 33.9155 20.6835 33.9155 20.5663C33.9155 20.449 33.8924 20.3328 33.8475 20.2245C33.8027 20.1161 33.7369 20.0176 33.6539 19.9347C33.571 19.8518 33.4725 19.786 33.3642 19.7411C33.2558 19.6962 33.1397 19.6731 33.0224 19.6731C32.9051 19.6731 32.7889 19.6962 32.6806 19.7411C32.5722 19.786 32.4738 19.8518 32.3908 19.9347C32.3079 20.0176 32.2421 20.1161 32.1972 20.2245C32.1523 20.3328 32.1292 20.449 32.1292 20.5663Z" fill="#FFBE3D"/>
<path d="M40.3466 20.5663C40.3466 20.8031 40.4407 21.0303 40.6082 21.1978C40.7757 21.3653 41.0028 21.4594 41.2397 21.4594C41.4766 21.4594 41.7038 21.3653 41.8713 21.1978C42.0388 21.0303 42.1329 20.8031 42.1329 20.5663C42.1329 20.3294 42.0388 20.1022 41.8713 19.9347C41.7038 19.7672 41.4766 19.6731 41.2397 19.6731C41.0028 19.6731 40.7757 19.7672 40.6082 19.9347C40.4407 20.1022 40.3466 20.3294 40.3466 20.5663Z" fill="#FFBE3D"/>
<path d="M34.9812 22.3809C35.5609 22.9327 36.3306 23.2405 37.131 23.2405C37.9314 23.2405 38.7011 22.9327 39.2808 22.3809" stroke="black" stroke-linecap="round" stroke-linejoin="round"/>
<path d="M35.3447 18.2439C35.2562 18.0318 35.107 17.8506 34.9157 17.7231C34.7244 17.5957 34.4997 17.5277 34.2698 17.5277C34.04 17.5277 33.8153 17.5957 33.624 17.7231C33.4327 17.8506 33.2835 18.0318 33.1949 18.2439" stroke="black" stroke-linecap="round" stroke-linejoin="round"/>
<path d="M41.0672 18.2439C40.9787 18.0318 40.8294 17.8506 40.6381 17.7231C40.4468 17.5957 40.2221 17.5277 39.9923 17.5277C39.7624 17.5277 39.5377 17.5957 39.3464 17.7231C39.1552 17.8506 39.0059 18.0318 38.9174 18.2439" stroke="black" stroke-linecap="round" stroke-linejoin="round"/>
<path d="M45.1334 15.2865C45.0182 15.247 44.896 15.2328 44.7748 15.2448C44.7614 15.2292 44.7501 15.2123 44.7366 15.1974C44.9047 15.1558 45.0627 15.0806 45.201 14.9763C45.3392 14.8721 45.455 14.7409 45.5412 14.5908C45.6275 14.4406 45.6825 14.2746 45.7028 14.1026C45.7232 13.9306 45.7086 13.7563 45.6599 13.5901C45.6111 13.424 45.5292 13.2694 45.4192 13.1357C45.3091 13.002 45.1731 12.892 45.0194 12.8122C44.8657 12.7325 44.6974 12.6846 44.5248 12.6716C44.3521 12.6586 44.1786 12.6806 44.0146 12.7364L43.9439 12.5307C44.3062 12.2628 44.5481 11.8628 44.6172 11.4176C44.6863 10.9723 44.577 10.5178 44.313 10.1527C44.0489 9.78765 43.6515 9.54147 43.207 9.46767C42.7626 9.39386 42.3069 9.49839 41.9391 9.75855L41.8471 9.66096L41.7948 9.63479C41.8867 9.25988 41.8488 8.86489 41.6872 8.51433C41.5256 8.16376 41.25 7.87833 40.9052 7.70465C40.5605 7.53098 40.1671 7.47931 39.7892 7.55809C39.4113 7.63688 39.0713 7.84146 38.8247 8.13842C38.769 7.72935 38.567 7.35429 38.2562 7.08259C37.9454 6.81089 37.5467 6.66093 37.1338 6.66043C36.7211 6.66122 36.3225 6.81129 36.0118 7.08294C35.701 7.35459 35.499 7.72948 35.443 8.13842C35.2189 7.86521 34.9155 7.66826 34.5747 7.57472C34.234 7.48117 33.8726 7.49564 33.5404 7.61612C33.2082 7.73661 32.9215 7.95718 32.7199 8.24742C32.5184 8.53766 32.4118 8.88329 32.4149 9.23666C32.4162 9.37243 32.434 9.50755 32.4679 9.63904L32.4149 9.66096L32.3208 9.75572C31.9528 9.50006 31.4992 9.39901 31.0574 9.47431C30.6157 9.54961 30.2211 9.79524 29.9586 10.1584C29.696 10.5215 29.5865 10.9732 29.6534 11.4163C29.7204 11.8594 29.9586 12.2585 30.3167 12.5278L30.246 12.7336C30.0822 12.6781 29.9088 12.6563 29.7363 12.6695C29.5639 12.6827 29.3959 12.7307 29.2424 12.8104C29.0889 12.8902 28.9531 13.0002 28.8432 13.1337C28.7333 13.2673 28.6515 13.4217 28.6028 13.5876C28.5541 13.7536 28.5394 13.9277 28.5596 14.0995C28.5798 14.2713 28.6346 14.4372 28.7206 14.5873C28.8065 14.7374 28.922 14.8685 29.0599 14.9729C29.1978 15.0773 29.3555 15.1527 29.5233 15.1946C29.5098 15.2094 29.4985 15.2264 29.4851 15.242C29.364 15.23 29.2417 15.2442 29.1265 15.2837C28.9666 15.3401 28.8269 15.4426 28.7253 15.5784C28.6236 15.7142 28.5646 15.8771 28.5555 16.0465C28.5465 16.2159 28.588 16.3841 28.6746 16.53C28.7613 16.6758 28.8893 16.7926 29.0424 16.8656C29.3253 17.8125 30.6979 17.7941 30.6979 18.9504C30.6979 12.9295 33.5032 11.8207 35.414 12.6976C35.9601 12.9093 36.5435 13.0082 37.1289 12.9882C37.7147 13.0099 38.2988 12.9125 38.8459 12.7018C40.7553 11.8249 43.562 12.9337 43.562 18.9546C43.562 17.7984 44.9382 17.8168 45.2175 16.8699C45.3706 16.7968 45.4986 16.68 45.5853 16.5342C45.6719 16.3884 45.7134 16.2201 45.7044 16.0508C45.6954 15.8814 45.6363 15.7185 45.5346 15.5827C45.433 15.4469 45.2933 15.3443 45.1334 15.2879V15.2865Z" fill="#6D4A31"/>
<path d="M44.6341 13.3086C44.6335 13.574 44.5711 13.8357 44.4516 14.0727C44.3322 14.3098 44.159 14.5157 43.946 14.6741L44.0168 14.8799C44.201 14.816 44.3975 14.7955 44.5909 14.82C44.7844 14.8446 44.9695 14.9134 45.132 15.0213C45.3313 14.8892 45.4898 14.7042 45.5897 14.487C45.6896 14.2697 45.727 14.029 45.6976 13.7917C45.6682 13.5544 45.5733 13.33 45.4234 13.1437C45.2735 12.9574 45.0746 12.8166 44.8491 12.7372C44.7405 12.698 44.627 12.6742 44.5118 12.6664C44.5934 12.8706 44.635 13.0886 44.6341 13.3086Z" fill="#DEA47A"/>
<path d="M29.1322 15.0227C29.2948 14.9148 29.4801 14.8459 29.6736 14.8213C29.8672 14.7968 30.0638 14.8173 30.2482 14.8813L30.3189 14.6755C30.0163 14.451 29.7967 14.1325 29.6943 13.7699C29.592 13.4073 29.6126 13.021 29.7531 12.6714C29.638 12.6791 29.5244 12.7029 29.4158 12.7421C29.1903 12.8216 28.9914 12.9624 28.8416 13.1487C28.6917 13.3349 28.5967 13.5593 28.5673 13.7966C28.5379 14.0339 28.5753 14.2747 28.6752 14.4919C28.7751 14.7091 28.9336 14.8942 29.1329 15.0263L29.1322 15.0227Z" fill="#DEA47A"/>
<path d="M31.3436 11.5937C31.6933 11.5933 32.0346 11.701 32.3209 11.902L32.4149 11.8079L32.468 11.7825C32.4341 11.651 32.4162 11.5159 32.4149 11.3801C32.4134 11.0278 32.5209 10.6836 32.7227 10.3948C32.9245 10.1059 33.2106 9.88657 33.5419 9.76676C33.8733 9.64694 34.2336 9.63253 34.5734 9.72551C34.9132 9.81849 35.216 10.0143 35.4402 10.2861C35.4962 9.87715 35.6982 9.50227 36.009 9.23062C36.3197 8.95897 36.7183 8.8089 37.131 8.80811C37.5438 8.80876 37.9425 8.95877 38.2533 9.23044C38.5641 9.50212 38.766 9.87709 38.8219 10.2861C39.0671 9.98522 39.4076 9.77705 39.7872 9.696C40.1667 9.61495 40.5626 9.66589 40.9093 9.84039C41.256 10.0149 41.5327 10.3025 41.6937 10.6556C41.8548 11.0088 41.8904 11.4063 41.7948 11.7825L41.8472 11.8093L41.9412 11.9034C42.2969 11.655 42.7336 11.5509 43.1631 11.6124C43.5926 11.6738 43.9827 11.8962 44.2544 12.2344C44.4997 11.9322 44.6338 11.555 44.6341 11.1658C44.6346 10.8525 44.5491 10.5451 44.3869 10.277C44.2247 10.0089 43.9921 9.79051 43.7144 9.64552C43.4367 9.50052 43.1245 9.43452 42.8118 9.4547C42.4991 9.47488 42.198 9.58047 41.9412 9.75996L41.8472 9.66096L41.7948 9.63479C41.8867 9.25988 41.8488 8.86489 41.6872 8.51433C41.5256 8.16376 41.25 7.87833 40.9053 7.70465C40.5605 7.53098 40.1671 7.47931 39.7892 7.55809C39.4113 7.63688 39.0713 7.84146 38.8247 8.13842C38.769 7.72935 38.5671 7.35429 38.2562 7.08259C37.9454 6.81089 37.5467 6.66093 37.1339 6.66043C36.7211 6.66122 36.3226 6.81129 36.0118 7.08294C35.701 7.35459 35.499 7.72948 35.443 8.13842C35.2189 7.86521 34.9155 7.66826 34.5748 7.57472C34.234 7.48117 33.8726 7.49564 33.5404 7.61612C33.2082 7.73661 32.9215 7.95717 32.72 8.24742C32.5184 8.53766 32.4118 8.88329 32.4149 9.23665C32.4162 9.37243 32.4341 9.50755 32.468 9.63904L32.4149 9.66096L32.3209 9.75572C31.9833 9.51905 31.5716 9.41227 31.1615 9.45502C30.7514 9.49777 30.3706 9.68719 30.0891 9.98841C29.8076 10.2896 29.6443 10.6824 29.6294 11.0944C29.6144 11.5064 29.7488 11.91 30.0077 12.2308C30.1685 12.0314 30.372 11.8707 30.6032 11.7604C30.8344 11.6502 31.0874 11.5932 31.3436 11.5937Z" fill="#DEA47A"/>
<path d="M45.1334 15.2865C45.0182 15.247 44.896 15.2328 44.7748 15.2448C44.7614 15.2292 44.7501 15.2123 44.7366 15.1974C44.9047 15.1558 45.0627 15.0806 45.201 14.9763C45.3392 14.8721 45.455 14.7409 45.5412 14.5908C45.6275 14.4406 45.6825 14.2746 45.7028 14.1026C45.7232 13.9306 45.7086 13.7563 45.6599 13.5901C45.6111 13.424 45.5292 13.2694 45.4192 13.1357C45.3091 13.002 45.1731 12.892 45.0194 12.8122C44.8657 12.7325 44.6974 12.6846 44.5248 12.6716C44.3521 12.6586 44.1786 12.6806 44.0146 12.7364L43.9439 12.5307C44.3062 12.2628 44.5481 11.8628 44.6172 11.4176C44.6863 10.9723 44.577 10.5178 44.313 10.1527C44.0489 9.78765 43.6515 9.54147 43.207 9.46767C42.7626 9.39386 42.3069 9.49839 41.9391 9.75855L41.8471 9.66096L41.7948 9.63479C41.8867 9.25988 41.8488 8.86489 41.6872 8.51433C41.5256 8.16376 41.25 7.87833 40.9052 7.70465C40.5605 7.53098 40.1671 7.47931 39.7892 7.55809C39.4113 7.63688 39.0713 7.84146 38.8247 8.13842C38.769 7.72935 38.567 7.35429 38.2562 7.08259C37.9454 6.81089 37.5467 6.66093 37.1338 6.66043V6.66043C36.7211 6.66122 36.3225 6.81129 36.0118 7.08294C35.701 7.35459 35.499 7.72948 35.443 8.13842C35.2189 7.86521 34.9155 7.66826 34.5747 7.57472C34.234 7.48117 33.8726 7.49564 33.5404 7.61612C33.2082 7.73661 32.9215 7.95718 32.7199 8.24742C32.5184 8.53766 32.4118 8.88329 32.4149 9.23666C32.4162 9.37243 32.434 9.50755 32.4679 9.63904L32.4149 9.66096L32.3208 9.75572C31.9528 9.50006 31.4992 9.39901 31.0574 9.47431C30.6157 9.54961 30.2211 9.79524 29.9586 10.1584C29.696 10.5215 29.5865 10.9732 29.6534 11.4163C29.7204 11.8594 29.9586 12.2585 30.3167 12.5278L30.246 12.7336C30.0822 12.6781 29.9088 12.6563 29.7363 12.6695C29.5639 12.6827 29.3959 12.7307 29.2424 12.8104C29.0889 12.8902 28.9531 13.0002 28.8432 13.1337C28.7333 13.2673 28.6515 13.4217 28.6028 13.5876C28.5541 13.7536 28.5394 13.9277 28.5596 14.0995C28.5798 14.2713 28.6346 14.4372 28.7206 14.5873C28.8065 14.7374 28.922 14.8685 29.0599 14.9729C29.1978 15.0773 29.3555 15.1527 29.5233 15.1946C29.5098 15.2094 29.4985 15.2264 29.4851 15.242C29.364 15.23 29.2417 15.2442 29.1265 15.2837C28.9666 15.3401 28.8269 15.4426 28.7253 15.5784C28.6236 15.7142 28.5646 15.8771 28.5555 16.0465C28.5465 16.2159 28.588 16.3841 28.6746 16.53C28.7613 16.6758 28.8893 16.7926 29.0424 16.8656C29.3253 17.8125 30.6979 17.7941 30.6979 18.9504C30.6979 12.9295 33.5032 11.8207 35.414 12.6976C35.9601 12.9093 36.5435 13.0082 37.1289 12.9882V12.9882C37.7147 13.0099 38.2988 12.9125 38.8459 12.7018C40.7553 11.8249 43.562 12.9337 43.562 18.9546C43.562 17.7984 44.9382 17.8168 45.2175 16.8699C45.3706 16.7968 45.4986 16.68 45.5853 16.5342C45.6719 16.3884 45.7134 16.2201 45.7044 16.0508C45.6954 15.8814 45.6363 15.7185 45.5346 15.5827C45.433 15.4469 45.2933 15.3443 45.1334 15.2879V15.2865Z" stroke="black" stroke-linecap="round" stroke-linejoin="round"/>
<path d="M37.1275 5.05869C32.4078 5.06364 27.5807 8.39865 27.5807 16.0198H28.995C28.995 9.24231 32.5309 6.82661 37.1275 6.47303C41.7241 6.82661 45.26 9.24231 45.26 16.0198H46.6743C46.6743 8.39865 41.8472 5.06434 37.1275 5.05869Z" fill="#ADC4D9" stroke="black" stroke-linecap="round" stroke-linejoin="round"/>
<path d="M29.3486 23.4444H27.2271V16.0191H29.3486C29.5362 16.0191 29.7161 16.0936 29.8487 16.2263C29.9813 16.3589 30.0558 16.5388 30.0558 16.7263V22.7373C30.0558 22.9248 29.9813 23.1047 29.8487 23.2373C29.7161 23.3699 29.5362 23.4444 29.3486 23.4444Z" fill="#6A7784" stroke="black" stroke-linecap="round" stroke-linejoin="round"/>
<path d="M27.2271 23.4444C25.665 23.4444 24.3984 21.7819 24.3984 19.7318C24.3984 17.6817 25.665 16.0191 27.2271 16.0191V23.4444Z" fill="#F5F5F5"/>
<path d="M24.3984 19.7318C24.3983 19.9685 24.4155 20.2048 24.4501 20.439C24.7018 18.7269 25.8488 17.4335 27.2271 17.4335V16.0191C25.665 16.0191 24.3984 17.681 24.3984 19.7318Z" fill="white"/>
<path d="M27.2271 23.4444C25.665 23.4444 24.3984 21.7819 24.3984 19.7318C24.3984 17.6817 25.665 16.0191 27.2271 16.0191V23.4444Z" stroke="black" stroke-linejoin="round"/>
<path d="M44.9064 23.4444H47.0279V16.0191H44.9064C44.7188 16.0191 44.539 16.0936 44.4063 16.2263C44.2737 16.3589 44.1992 16.5388 44.1992 16.7263V22.7373C44.1992 22.9248 44.2737 23.1047 44.4063 23.2373C44.539 23.3699 44.7188 23.4444 44.9064 23.4444Z" fill="#6A7784" stroke="black" stroke-linecap="round" stroke-linejoin="round"/>
<path d="M47.0279 23.4444C48.59 23.4444 49.8566 21.7819 49.8566 19.7318C49.8566 17.6817 48.59 16.0191 47.0279 16.0191V23.4444Z" fill="#F5F5F5"/>
<path d="M49.8566 19.7318C49.8567 19.9685 49.8395 20.2048 49.805 20.439C49.5532 18.7269 48.4055 17.4335 47.0279 17.4335V16.0191C48.59 16.0191 49.8566 17.681 49.8566 19.7318Z" fill="white"/>
<path d="M47.0279 23.4444C48.59 23.4444 49.8566 21.7819 49.8566 19.7318C49.8566 17.6817 48.59 16.0191 47.0279 16.0191V23.4444Z" stroke="black" stroke-linejoin="round"/>
<path d="M42.0423 5.63857C40.5605 4.73968 38.8606 4.26437 37.1275 4.26437C35.3944 4.26437 33.6944 4.73968 32.2126 5.63857C31.925 5.81675 31.72 6.10188 31.6426 6.43124C31.5652 6.76061 31.6218 7.10722 31.8 7.39483C31.9782 7.68244 32.2633 7.8875 32.5927 7.96488C32.922 8.04227 33.2686 7.98564 33.5563 7.80747C34.6332 7.15494 35.8683 6.80994 37.1275 6.80994C38.3867 6.80994 39.6218 7.15494 40.6987 7.80747C40.9863 7.98564 41.3329 8.04227 41.6623 7.96488C41.9916 7.8875 42.2768 7.68244 42.4549 7.39483C42.6331 7.10722 42.6897 6.76061 42.6124 6.43124C42.535 6.10188 42.3299 5.81675 42.0423 5.63857Z" fill="#6A7784"/>
<path d="M37.1275 5.41157C39.1076 5.41157 41.9907 6.27998 42.502 7.29406C42.6458 7.0104 42.6783 6.68316 42.593 6.37677C42.5076 6.07037 42.3107 5.80702 42.0409 5.63857C40.5591 4.73968 38.8592 4.26437 37.1261 4.26437C35.3929 4.26437 33.693 4.73968 32.2112 5.63857C31.9414 5.80702 31.7445 6.07037 31.6592 6.37677C31.5738 6.68316 31.6063 7.0104 31.7502 7.29406C32.2636 6.2821 35.1389 5.41369 37.1275 5.41157Z" fill="#8292A2"/>
<path d="M42.0423 5.63857C40.5605 4.73968 38.8606 4.26437 37.1275 4.26437C35.3944 4.26437 33.6944 4.73968 32.2126 5.63857C31.925 5.81675 31.72 6.10188 31.6426 6.43124C31.5652 6.76061 31.6218 7.10722 31.8 7.39483C31.9782 7.68244 32.2633 7.8875 32.5927 7.96488C32.922 8.04227 33.2686 7.98564 33.5563 7.80747C34.6332 7.15494 35.8683 6.80994 37.1275 6.80994C38.3867 6.80994 39.6218 7.15494 40.6987 7.80747C40.9863 7.98564 41.3329 8.04227 41.6623 7.96488C41.9916 7.8875 42.2768 7.68244 42.4549 7.39483C42.6331 7.10722 42.6897 6.76061 42.6124 6.43124C42.535 6.10188 42.3299 5.81675 42.0423 5.63857V5.63857Z" stroke="black" stroke-linecap="round" stroke-linejoin="round"/>
<path d="M18.741 29.4618H22.9841V35.4727H18.741V29.4618Z" stroke="black" stroke-linecap="round" stroke-linejoin="round"/>
</g>
<defs>
<clipPath id="clip0_8530_416220">
<rect width="64" height="64" fill="white"/>
</clipPath>
</defs>
</svg>

