<svg width="128" height="128" viewBox="0 0 128 128" fill="none" xmlns="http://www.w3.org/2000/svg">
<g clip-path="url(#clip0_9529_52692)">
<path opacity="0.15" d="M78.7251 117.504C78.7251 118.92 69.2261 120.064 57.5091 120.064C45.7921 120.064 35.2051 118.92 35.2051 117.504C35.2051 116.088 45.7921 114.944 57.5091 114.944C69.2261 114.944 78.7251 116.096 78.7251 117.504Z" fill="#45413C"/>
<path d="M22.2158 86.897L59.3678 113.777C59.5951 113.943 59.8684 114.033 60.1496 114.035C60.4308 114.038 60.7057 113.952 60.9358 113.791C61.1664 113.63 61.3411 113.402 61.4359 113.137C61.5307 112.873 61.5408 112.585 61.4648 112.315L49.0948 68.155L22.2158 86.897Z" fill="#9CEB60"/>
<path d="M44.6084 85.248C41.3092 89.0523 37.358 92.2378 32.9404 94.655L36.0504 96.904C36.9156 96.4004 37.7603 95.8623 38.5824 95.291C41.7456 93.0544 44.6377 90.4572 47.2004 87.552C49.1801 85.3291 50.9625 82.9381 52.5274 80.406L51.2004 75.67C49.4231 79.1322 47.2076 82.3513 44.6084 85.248ZM50.2774 93.379C47.7349 96.2595 44.8379 98.8064 41.6554 100.959L44.6494 103.125C47.6564 100.957 50.4133 98.4617 52.8694 95.685C53.898 94.5237 54.8743 93.3172 55.7954 92.069L54.5854 87.75C53.2892 89.7293 51.8493 91.6106 50.2774 93.379ZM56.1704 102.971C54.6249 104.714 52.9567 106.343 51.1784 107.848L54.0544 109.929C55.7179 108.479 57.2886 106.926 58.7574 105.279C58.9454 105.066 59.1274 104.854 59.3104 104.639L58.1674 100.554C57.5318 101.384 56.8657 102.19 56.1704 102.971Z" fill="#BF8DF2" stroke="#45413C" stroke-width="1.4" stroke-linecap="round" stroke-linejoin="round"/>
<path d="M22.2158 86.897L59.3678 113.777C59.5951 113.943 59.8684 114.033 60.1496 114.035C60.4308 114.038 60.7057 113.952 60.9358 113.791C61.1664 113.63 61.3411 113.402 61.4359 113.137C61.5307 112.873 61.5408 112.585 61.4648 112.315L49.0948 68.155L22.2158 86.897Z" stroke="#45413C" stroke-width="1.4" stroke-linecap="round" stroke-linejoin="round"/>
<path d="M22.2158 86.895C23.4028 88.598 25.9568 89.243 29.3168 88.69C32.6768 88.136 36.5668 86.43 40.1308 83.944C43.6958 81.459 46.6428 78.399 48.3238 75.438C50.0038 72.477 50.2818 69.856 49.0948 68.154C47.9078 66.451 45.3538 65.806 41.9938 66.359C38.6338 66.912 34.7438 68.619 31.1798 71.105C27.6148 73.59 24.6678 76.65 22.9868 79.611C21.3068 82.572 21.0288 85.192 22.2158 86.895Z" fill="#EBCB00"/>
<path d="M49.8236 70.747C46.2576 69.467 39.9806 71.138 34.0796 75.257C28.1796 79.377 24.4376 84.688 24.3996 88.476C23.5251 88.1939 22.7632 87.6405 22.2246 86.896C19.7516 83.351 23.7606 76.281 31.1846 71.106C38.6086 65.931 46.6276 64.61 49.1046 68.162C49.6116 68.926 49.8636 69.831 49.8236 70.747Z" fill="#FFE500"/>
<path d="M22.2158 86.895C23.4028 88.598 25.9568 89.243 29.3168 88.69C32.6768 88.136 36.5668 86.43 40.1308 83.944C43.6958 81.459 46.6428 78.399 48.3238 75.438C50.0038 72.477 50.2818 69.856 49.0948 68.154C47.9078 66.451 45.3538 65.806 41.9938 66.359C38.6338 66.912 34.7438 68.619 31.1798 71.105C27.6148 73.59 24.6678 76.65 22.9868 79.611C21.3068 82.572 21.0288 85.192 22.2158 86.895Z" stroke="#45413C" stroke-width="1.4" stroke-linecap="round" stroke-linejoin="round"/>
<path d="M65.9362 49.14L61.7782 94.804C61.7523 95.0839 61.8142 95.3649 61.9552 95.608C62.0963 95.8511 62.3096 96.0442 62.5655 96.1606C62.8213 96.2769 63.1071 96.3107 63.383 96.2571C63.659 96.2036 63.9114 96.0655 64.1052 95.862L95.7702 62.696L65.9362 49.14Z" fill="#BF8DF2"/>
<path d="M78.7791 67.557C73.8238 66.6605 69.0681 64.8878 64.7351 62.322L64.3891 66.144C65.2471 66.618 66.1341 67.074 67.0691 67.498C70.6054 69.078 74.3137 70.2408 78.1191 70.963C81.0401 71.531 84.0061 71.845 86.9821 71.899L90.3821 68.338C86.497 68.5781 82.5971 68.3149 78.7791 67.557ZM74.6801 76.581C70.9047 75.8646 67.2355 74.6725 63.7601 73.033L63.4251 76.713C66.8234 78.1926 70.3755 79.2903 74.0161 79.986C75.5651 80.288 77.1011 80.498 78.6241 80.658L81.7201 77.414C79.3562 77.3082 77.0033 77.0298 74.6801 76.581ZM69.4351 86.544C67.1485 86.1031 64.8962 85.5002 62.6951 84.74L62.3721 88.275C64.4681 88.9669 66.6057 89.526 68.7721 89.949C69.0511 90.004 69.3261 90.052 69.6041 90.1L72.5321 87.028C71.4942 86.9041 70.4612 86.7427 69.4351 86.544Z" fill="#9CEB60" stroke="#45413C" stroke-width="1.4" stroke-linecap="round" stroke-linejoin="round"/>
<path d="M65.9362 49.14L61.7782 94.804C61.7523 95.0839 61.8142 95.3649 61.9552 95.608C62.0963 95.8511 62.3096 96.0442 62.5655 96.1606C62.8213 96.2769 63.1071 96.3107 63.383 96.2571C63.659 96.2036 63.9114 96.0655 64.1052 95.862L95.7702 62.696L65.9362 49.14Z" stroke="#45413C" stroke-width="1.4" stroke-linecap="round" stroke-linejoin="round"/>
<path d="M77.6153 63.043C81.5713 64.841 85.7053 65.813 89.1103 65.749C92.5153 65.684 94.9103 64.586 95.7683 62.696C96.6273 60.806 95.8783 58.28 93.6883 55.673C91.4983 53.065 88.0463 50.591 84.0903 48.793C80.1333 46.996 75.9983 46.023 72.5943 46.087C69.1893 46.152 66.7943 47.25 65.9363 49.14C65.0773 51.03 65.8263 53.556 68.0163 56.163C70.2063 58.771 73.6583 61.245 77.6153 63.043Z" fill="#EBCB00"/>
<path d="M93.9117 64.64C93.1887 60.922 88.5517 56.374 81.9967 53.395C75.4407 50.417 68.9647 49.92 65.6877 51.82C65.4828 50.9231 65.5693 49.9843 65.9347 49.14C67.7267 45.205 75.8507 45.043 84.0887 48.792C92.3277 52.542 97.5557 58.76 95.7687 62.696C95.3716 63.5246 94.7213 64.2054 93.9117 64.64Z" fill="#FFE500"/>
<path d="M77.6153 63.043C81.5713 64.841 85.7053 65.813 89.1103 65.749C92.5153 65.684 94.9103 64.586 95.7683 62.696C96.6273 60.806 95.8783 58.28 93.6883 55.673C91.4983 53.065 88.0463 50.591 84.0903 48.793C80.1333 46.996 75.9983 46.023 72.5943 46.087C69.1893 46.152 66.7943 47.25 65.9363 49.14C65.0773 51.03 65.8263 53.556 68.0163 56.163C70.2063 58.771 73.6583 61.245 77.6153 63.043Z" stroke="#45413C" stroke-width="1.4" stroke-linecap="round" stroke-linejoin="round"/>
<path d="M104.489 31.786C104.614 32.0058 104.671 32.2577 104.653 32.51C104.635 32.7622 104.542 33.0034 104.387 33.203C103.57 34.2916 102.537 35.2001 101.353 35.8714C100.169 36.5428 98.859 36.9628 97.5052 37.105C97.2544 37.1352 97.0003 37.0906 96.7748 36.9767C96.5494 36.8628 96.3627 36.6848 96.2382 36.465L94.6602 33.68C94.5604 33.5044 94.5036 33.3077 94.4945 33.1059C94.4853 32.9042 94.524 32.7032 94.6073 32.5192C94.6907 32.3353 94.8164 32.1737 94.9742 32.0477C95.132 31.9216 95.3174 31.8347 95.5152 31.794C97.5747 31.3877 99.4475 30.3262 100.854 28.768C100.99 28.6176 101.16 28.5018 101.35 28.4304C101.54 28.3589 101.744 28.3337 101.945 28.357C102.147 28.3797 102.34 28.4499 102.509 28.5619C102.678 28.6738 102.818 28.8243 102.917 29.001L104.489 31.786ZM47.2372 31.786C47.362 32.0058 47.419 32.2577 47.4008 32.5099C47.3827 32.7621 47.2902 33.0033 47.1352 33.203C46.3181 34.2915 45.2853 35.1998 44.1014 35.8712C42.9174 36.5426 41.6078 36.9626 40.2542 37.105C40.0031 37.1356 39.7486 37.0912 39.5227 36.9773C39.2968 36.8634 39.1098 36.6851 38.9852 36.465L37.4072 33.681C37.3074 33.5053 37.2507 33.3085 37.2415 33.1067C37.2324 32.9049 37.2712 32.7038 37.3547 32.5199C37.4382 32.3359 37.564 32.1744 37.7219 32.0484C37.8798 31.9224 38.0653 31.8355 38.2632 31.795C40.3231 31.3889 42.1963 30.3274 43.6032 28.769C43.7396 28.6203 43.9091 28.5061 44.0981 28.4354C44.287 28.3648 44.49 28.3398 44.6905 28.3625C44.8909 28.3852 45.0831 28.455 45.2515 28.5661C45.4198 28.6773 45.5595 28.8266 45.6592 29.002L47.2372 31.786Z" fill="#00F5BC" stroke="#45413C" stroke-width="1.4" stroke-linecap="round" stroke-linejoin="round"/>
<path d="M77.9756 54.026C77.7288 54.0791 77.4718 54.0581 77.2369 53.9656C77.0021 53.8731 76.7998 53.7132 76.6556 53.506C75.8613 52.4006 75.3034 51.1432 75.017 49.8125C74.7305 48.4818 74.7215 47.1063 74.9906 45.772C75.0356 45.5224 75.1537 45.2919 75.33 45.1096C75.5062 44.9272 75.7327 44.8014 75.9806 44.748L79.1106 44.076C79.3073 44.0349 79.511 44.0408 79.7051 44.0931C79.8991 44.1455 80.0782 44.2428 80.2276 44.3771C80.3771 44.5115 80.4928 44.6792 80.5654 44.8666C80.6381 45.0541 80.6655 45.256 80.6456 45.456C80.4193 47.5436 80.8747 49.6485 81.9436 51.456C82.045 51.6306 82.1036 51.8268 82.1147 52.0284C82.1257 52.23 82.0889 52.4314 82.0071 52.6161C81.9254 52.8008 81.8011 52.9634 81.6444 53.0908C81.4877 53.2182 81.303 53.3067 81.1056 53.349L77.9756 54.026ZM22.2906 20.899C22.0437 20.952 21.7866 20.9309 21.5518 20.8381C21.3169 20.7454 21.1147 20.5853 20.9706 20.378C20.1764 19.2725 19.6186 18.0152 19.3321 16.6845C19.0457 15.3538 19.0366 13.9783 19.3056 12.644C19.3506 12.3944 19.4687 12.1639 19.645 11.9816C19.8212 11.7992 20.0477 11.6734 20.2956 11.62L23.4286 10.953C23.6255 10.9117 23.8294 10.9175 24.0237 10.9698C24.218 11.0221 24.3972 11.1194 24.5468 11.2539C24.6964 11.3885 24.8122 11.5564 24.8848 11.744C24.9574 11.9317 24.9847 12.1338 24.9646 12.334C24.7359 14.4208 25.1884 16.5256 26.2546 18.334C26.3558 18.5088 26.4142 18.7051 26.425 18.9067C26.4358 19.1084 26.3987 19.3098 26.3168 19.4945C26.2349 19.6791 26.1104 19.8417 25.9536 19.969C25.7968 20.0963 25.6121 20.1847 25.4146 20.227L22.2906 20.899Z" fill="#FF6196" stroke="#45413C" stroke-width="1.4" stroke-linecap="round" stroke-linejoin="round"/>
<path d="M12.717 27.18C12.5148 27.0281 12.272 26.9395 12.0195 26.9254C11.7669 26.9114 11.5159 26.9725 11.298 27.101C10.1144 27.7731 9.08194 28.682 8.2652 29.771C7.44846 30.8599 6.86493 32.1055 6.55103 33.43C6.48888 33.6749 6.50063 33.9328 6.58481 34.1711C6.66898 34.4094 6.82181 34.6174 7.02403 34.769L9.58403 36.689C9.74563 36.8103 9.93369 36.8917 10.1328 36.9264C10.3319 36.9611 10.5364 36.9482 10.7295 36.8887C10.9227 36.8292 11.099 36.7248 11.244 36.5841C11.3891 36.4433 11.4987 36.2702 11.564 36.079C12.2299 34.0881 13.5218 32.3661 15.247 31.17C15.412 31.0536 15.5471 30.8999 15.6413 30.7213C15.7355 30.5428 15.7861 30.3445 15.789 30.1426C15.7919 29.9408 15.7471 29.7411 15.6581 29.5599C15.5691 29.3787 15.4385 29.2211 15.277 29.1L12.717 27.18Z" fill="#BF8DF2" stroke="#45413C" stroke-width="1.4" stroke-linecap="round" stroke-linejoin="round"/>
<path d="M33.2847 67.981C33.4832 67.8245 33.7236 67.7302 33.9756 67.7101C34.2276 67.69 34.4799 67.7449 34.7007 67.868C35.8997 68.512 36.953 69.3963 37.7949 70.4656C38.6368 71.5349 39.2491 72.7664 39.5937 74.083C39.6617 74.3264 39.6561 74.5845 39.5776 74.8248C39.4991 75.065 39.3513 75.2767 39.1527 75.433L36.6387 77.413C36.4801 77.538 36.2942 77.6237 36.0961 77.6631C35.898 77.7025 35.6934 77.6944 35.4991 77.6396C35.3047 77.5848 35.1261 77.4848 34.9778 77.3477C34.8294 77.2107 34.7157 77.0404 34.6457 76.851C33.9343 74.877 32.6038 73.1859 30.8527 72.03C30.6847 71.9178 30.5457 71.7674 30.4471 71.5911C30.3484 71.4149 30.2929 71.2178 30.2851 71.0159C30.2773 70.8141 30.3174 70.6132 30.4022 70.4299C30.4869 70.2465 30.6139 70.0858 30.7727 69.961L33.2847 67.981ZM69.2697 21.398C69.0627 21.5428 68.9032 21.7455 68.8112 21.9808C68.7192 22.216 68.6988 22.4732 68.7527 22.72C69.0203 24.0542 69.5602 25.3189 70.3386 26.435C71.117 27.5512 72.1172 28.4948 73.2767 29.207C73.49 29.343 73.7388 29.4127 73.9918 29.4074C74.2447 29.402 74.4903 29.3219 74.6977 29.177L77.3167 27.347C77.4826 27.2317 77.6188 27.0788 77.7141 26.9008C77.8095 26.7227 77.8614 26.5247 77.8655 26.3227C77.8696 26.1208 77.8258 25.9207 77.7377 25.739C77.6496 25.5572 77.5197 25.3989 77.3587 25.277C75.6763 24.0216 74.445 22.2557 73.8487 20.243C73.79 20.0496 73.6863 19.8729 73.5461 19.7274C73.4059 19.5818 73.2333 19.4715 73.0423 19.4054C72.8513 19.3394 72.6474 19.3195 72.4472 19.3474C72.247 19.3753 72.0563 19.4502 71.8907 19.566L69.2707 21.398H69.2697Z" fill="#4AEFF7" stroke="#45413C" stroke-width="1.4" stroke-linecap="round" stroke-linejoin="round"/>
<path d="M55.8701 17.113C55.8939 17.3648 55.8426 17.6179 55.7226 17.8406C55.6026 18.0632 55.4194 18.2454 55.1961 18.364C54.0045 19.0217 52.69 19.4266 51.3349 19.5534C49.9797 19.6802 48.613 19.5262 47.3201 19.101C47.0784 19.0262 46.8644 18.8815 46.7049 18.6852C46.5455 18.4889 46.4477 18.2498 46.4241 17.998L46.1261 14.812C46.1066 14.6105 46.1351 14.4073 46.2094 14.2191C46.2837 14.0308 46.4015 13.8628 46.5533 13.729C46.705 13.5951 46.8864 13.4991 47.0824 13.4488C47.2785 13.3986 47.4836 13.3956 47.6811 13.44C49.7262 13.9126 51.8694 13.7116 53.7911 12.867C53.9765 12.787 54.1782 12.7521 54.3798 12.7651C54.5813 12.7781 54.7769 12.8386 54.9505 12.9417C55.1241 13.0448 55.2709 13.1876 55.3788 13.3583C55.4866 13.529 55.5525 13.7229 55.5711 13.924L55.8711 17.114L55.8701 17.113Z" fill="#FF8A14" stroke="#45413C" stroke-width="1.4" stroke-linecap="round" stroke-linejoin="round"/>
<path d="M88.44 16.456C88.2484 16.2916 88.1097 16.0741 88.0414 15.8311C87.973 15.588 87.9781 15.3302 88.056 15.09C88.4517 13.7885 89.1115 12.5826 89.9941 11.5475C90.8768 10.5124 91.9633 9.67037 93.186 9.07399C93.411 8.95963 93.6649 8.91438 93.9156 8.94391C94.1663 8.97345 94.4026 9.07646 94.595 9.23999L97.027 11.315C97.1808 11.4459 97.3014 11.6114 97.3791 11.7979C97.4567 11.9844 97.4891 12.1866 97.4735 12.388C97.458 12.5894 97.3951 12.7843 97.2898 12.9567C97.1846 13.1291 97.04 13.2742 96.868 13.38C95.0724 14.4676 93.6764 16.1064 92.888 18.052C92.8108 18.2386 92.6905 18.4043 92.5371 18.5355C92.3836 18.6668 92.2013 18.7598 92.005 18.8071C91.8087 18.8544 91.6039 18.8546 91.4075 18.8077C91.2112 18.7607 91.0286 18.668 90.875 18.537L88.44 16.456ZM22.5779 53.971C22.3865 53.8066 22.248 53.5894 22.1797 53.3465C22.1113 53.1037 22.1163 52.846 22.194 52.606C22.5895 51.3046 23.2491 50.0987 24.1316 49.0636C25.0141 48.0285 26.1005 47.1864 27.323 46.59C27.5479 46.4758 27.8015 46.4307 28.052 46.4602C28.3025 46.4898 28.5387 46.5927 28.731 46.756L31.163 48.831C31.3166 48.9619 31.4372 49.1272 31.5147 49.3136C31.5923 49.4999 31.6247 49.7019 31.6093 49.9032C31.5939 50.1045 31.5311 50.2992 31.4261 50.4716C31.3211 50.644 31.1768 50.789 31.0049 50.895C29.2089 51.982 27.8127 53.621 27.025 55.567C26.9477 55.7535 26.8275 55.9191 26.674 56.0503C26.5206 56.1816 26.3383 56.2747 26.1421 56.322C25.9458 56.3694 25.7412 56.3697 25.5448 56.323C25.3484 56.2762 25.1658 56.1837 25.012 56.053L22.5779 53.971Z" fill="#FFF48C" stroke="#45413C" stroke-width="1.4" stroke-linecap="round" stroke-linejoin="round"/>
<path d="M4.926 45.445V44.214M7.537 46.528L8.407 45.657M8.618 49.14H9.85M7.537 51.752L8.407 52.622M4.926 52.833V54.065M2.313 51.752L1.443 52.622M1.231 49.14H0M2.313 46.528L1.443 45.657M75.201 2.353V1.12M77.813 3.434L78.683 2.564M78.894 6.045H80.125M77.813 8.658L78.683 9.528M75.201 9.74V10.97M72.59 8.658L71.719 9.528M71.507 6.045H70.276M72.59 3.434L71.719 2.564M106.282 63.779V62.549M108.895 64.862L109.765 63.992M109.977 67.473H111.208M108.895 70.085L109.765 70.955M106.282 71.167V72.398M103.671 70.085L102.801 70.955M102.589 67.473H101.358M103.671 64.862L102.801 63.992" stroke="#4ACFFF" stroke-width="1.4" stroke-linecap="round" stroke-linejoin="round"/>
<path d="M70.5698 44.302L69.1548 43.806C68.951 43.7351 68.7631 43.6246 68.6021 43.4809C68.4411 43.3372 68.31 43.1632 68.2163 42.9688C68.1227 42.7743 68.0683 42.5633 68.0564 42.3478C68.0445 42.1323 68.0752 41.9166 68.1468 41.713L68.5968 40.433C68.7403 40.0219 68.7149 39.5706 68.5261 39.1782C68.3374 38.7859 68.0006 38.4844 67.5898 38.34L66.3098 37.89C66.1062 37.8188 65.9187 37.7083 65.7579 37.5646C65.5972 37.4209 65.4663 37.247 65.3727 37.0527C65.2792 36.8584 65.2249 36.6476 65.2129 36.4323C65.2009 36.217 65.2314 36.0015 65.3028 35.798L65.7528 34.518C65.8244 34.3145 65.8552 34.0988 65.8433 33.8834C65.8314 33.6679 65.7772 33.457 65.6836 33.2625C65.5901 33.0681 65.4591 32.894 65.2982 32.7503C65.1372 32.6066 64.9495 32.4961 64.7458 32.425L63.4658 31.975C63.0552 31.8306 62.7186 31.5293 62.5299 31.1372C62.3411 30.745 62.3155 30.294 62.4588 29.883L62.9088 28.603C62.9801 28.3996 63.0106 28.1841 62.9986 27.9689C62.9866 27.7537 62.9323 27.543 62.8387 27.3488C62.7452 27.1546 62.6143 26.9807 62.4536 26.8371C62.2928 26.6935 62.1053 26.5831 61.9018 26.512L60.6218 26.062M41.9648 66.326L40.9148 65.252C40.7639 65.0981 40.6449 64.9159 40.5646 64.7159C40.4843 64.5158 40.4442 64.3019 40.4467 64.0864C40.4492 63.8709 40.4942 63.658 40.5792 63.4599C40.6642 63.2618 40.7874 63.0824 40.9418 62.932L41.9128 61.98C42.067 61.8293 42.1901 61.6497 42.2749 61.4515C42.3597 61.2532 42.4047 61.0402 42.4072 60.8246C42.4097 60.609 42.3697 60.395 42.2895 60.1948C42.2093 59.9947 42.0905 59.8122 41.9398 59.658L40.9898 58.685C40.6858 58.3739 40.5177 57.9548 40.5224 57.5198C40.5271 57.0849 40.7042 56.6695 41.0148 56.365L41.9878 55.414C42.299 55.1095 42.4767 54.694 42.4818 54.2586C42.4868 53.8232 42.3189 53.4036 42.0148 53.092L41.0638 52.12C40.7597 51.8085 40.5915 51.3891 40.5962 50.9538C40.6009 50.5185 40.778 50.1029 41.0888 49.798L42.0618 48.848C42.216 48.6973 42.3389 48.5176 42.4237 48.3193C42.5084 48.121 42.5533 47.908 42.5557 47.6924C42.5581 47.4768 42.518 47.2628 42.4377 47.0627C42.3575 46.8625 42.2385 46.6802 42.0878 46.526L41.1378 45.554M22.2168 73.233L20.7328 73.45C20.5194 73.4816 20.3018 73.4708 20.0926 73.4182C19.8833 73.3656 19.6865 73.2723 19.5134 73.1436C19.3402 73.0148 19.1942 72.8532 19.0836 72.668C18.973 72.4827 18.9 72.2775 18.8688 72.064L18.6718 70.718C18.6085 70.2872 18.3767 69.8991 18.0273 69.6392C17.6779 69.3793 17.2396 69.2688 16.8088 69.332L15.4628 69.53C15.2495 69.5616 15.0321 69.5508 14.8229 69.4983C14.6138 69.4457 14.4171 69.3525 14.2441 69.2239C14.071 69.0952 13.9251 68.9337 13.8145 68.7486C13.7039 68.5635 13.631 68.3584 13.5998 68.145L13.4028 66.799C13.3715 66.5856 13.2984 66.3804 13.1877 66.1952C13.0771 66.0101 12.9311 65.8485 12.758 65.7198C12.5848 65.5911 12.3881 65.4978 12.1789 65.4451C11.9697 65.3925 11.7522 65.3816 11.5388 65.413L10.1938 65.612C9.76295 65.6749 9.32476 65.5642 8.97558 65.3041C8.6264 65.044 8.39483 64.6558 8.33178 64.225L8.13278 62.88C8.06945 62.4506 7.83861 62.0638 7.49077 61.8043C7.14292 61.5447 6.70642 61.4335 6.27678 61.495L4.92578 61.696M113.669 43.375L113.266 44.822C113.148 45.2408 112.87 45.5961 112.491 45.8098C112.112 46.0235 111.664 46.0782 111.245 45.962L109.934 45.597C109.726 45.5389 109.509 45.5224 109.295 45.5484C109.081 45.5744 108.874 45.6424 108.686 45.7485C108.498 45.8546 108.333 45.9967 108.2 46.1666C108.067 46.3366 107.969 46.5311 107.912 46.739L107.547 48.049C107.429 48.4678 107.151 48.8231 106.772 49.0368C106.393 49.2505 105.945 49.3052 105.526 49.189L104.215 48.824C103.795 48.7079 103.347 48.7629 102.968 48.9769C102.589 49.191 102.31 49.5467 102.193 49.966L101.828 51.276C101.71 51.6948 101.432 52.0501 101.053 52.2638C100.674 52.4775 100.226 52.5322 99.8068 52.416L98.4968 52.051C98.289 51.9931 98.0718 51.9767 97.8576 52.0027C97.6434 52.0287 97.4365 52.0967 97.2486 52.2028C97.0608 52.3088 96.8956 52.4509 96.7627 52.6208C96.6297 52.7907 96.5315 52.9851 96.4738 53.193L96.1088 54.503" stroke="#FFAA54" stroke-width="1.4" stroke-linecap="round" stroke-linejoin="round"/>
</g>
<defs>
<clipPath id="clip0_9529_52692">
<rect width="128" height="128" fill="white"/>
</clipPath>
</defs>
</svg>

