<svg width="64" height="64" viewBox="0 0 64 64" fill="none" xmlns="http://www.w3.org/2000/svg">
<g clip-path="url(#clip0_8530_416218)">
<path d="M4 35.8941C4 43.3482 6.96115 50.4971 12.232 55.768C17.5029 61.0388 24.6517 64 32.1059 64C39.56 64 46.7089 61.0388 51.9798 55.768C57.2506 50.4971 60.2118 43.3482 60.2118 35.8941C60.2118 28.44 57.2506 21.2911 51.9798 16.0202C46.7089 10.7494 39.56 7.78821 32.1059 7.78821C24.6517 7.78821 17.5029 10.7494 12.232 16.0202C6.96115 21.2911 4 28.44 4 35.8941Z" fill="#C7F0FF"/>
<path d="M51.5811 56.9307H20.7061L15.2037 52.0009L23.7113 39.3764C23.7854 39.2661 23.8855 39.1757 24.0027 39.1132C24.12 39.0507 24.2509 39.018 24.3838 39.0181H39.7535C39.8859 39.0182 40.0164 39.0506 40.1334 39.1125C40.2505 39.1745 40.3507 39.2641 40.4252 39.3736L51.917 56.2976C51.9584 56.3586 51.9824 56.4297 51.9864 56.5033C51.9903 56.5769 51.9742 56.6502 51.9397 56.7153C51.9051 56.7804 51.8535 56.8348 51.7903 56.8728C51.7271 56.9107 51.6548 56.9308 51.5811 56.9307Z" fill="white"/>
<path d="M51.5811 56.9307H20.7061L15.2037 52.0009L23.7113 39.3764C23.7854 39.2661 23.8855 39.1757 24.0027 39.1132C24.12 39.0507 24.2509 39.018 24.3838 39.0181H39.7535C39.8859 39.0182 40.0164 39.0506 40.1334 39.1125C40.2505 39.1745 40.3507 39.2641 40.4252 39.3736L51.917 56.2976C51.9584 56.3586 51.9824 56.4297 51.9864 56.5033C51.9903 56.5769 51.9742 56.6502 51.9397 56.7153C51.9051 56.7804 51.8535 56.8348 51.7903 56.8728C51.7272 56.9107 51.6548 56.9308 51.5811 56.9307Z" stroke="black" stroke-linecap="round" stroke-linejoin="round"/>
<path d="M15.2037 52.0009H20.5621C20.6797 52.0011 20.796 52.0268 20.9027 52.0763C21.0095 52.1259 21.1042 52.198 21.1803 52.2878C21.2564 52.3775 21.3121 52.4827 21.3435 52.5961C21.375 52.7095 21.3814 52.8284 21.3624 52.9445L20.7061 56.9278L15.2037 52.0009Z" fill="#F5F5F5" stroke="black" stroke-linecap="round" stroke-linejoin="round"/>
<path d="M22.3292 50.3813H35.3141" stroke="#8292A2" stroke-linecap="round" stroke-linejoin="round"/>
<path d="M23.9524 47.1351H40.1835" stroke="#8292A2" stroke-linecap="round" stroke-linejoin="round"/>
<path d="M24.7639 44.7004H39.372" stroke="#8292A2" stroke-linecap="round" stroke-linejoin="round"/>
<path d="M26.387 42.2657H37.7488" stroke="#8292A2" stroke-linecap="round" stroke-linejoin="round"/>
<path d="M36.4848 38.2445C36.4848 39.4487 36.0064 40.6036 35.1549 41.4551C34.3034 42.3066 33.1485 42.785 31.9443 42.785C30.7401 42.785 29.5852 42.3066 28.7337 41.4551C27.8822 40.6036 27.4038 39.4487 27.4038 38.2445H36.4848Z" fill="#F8F8F8" stroke="black" stroke-linecap="round" stroke-linejoin="round"/>
<path d="M27.4038 35.2175H36.4848V38.2445H27.4038V35.2175Z" fill="#F8F8F8" stroke="black" stroke-linecap="round" stroke-linejoin="round"/>
<path d="M41.7814 21.5994C41.7823 19.9999 41.3932 18.4242 40.6478 17.009C39.9024 15.5938 38.8231 14.3817 37.5034 13.4777C36.1838 12.5738 34.6636 12.0053 33.0747 11.8215C31.4857 11.6377 29.8759 11.8442 28.3848 12.4229C26.8936 13.0017 25.5661 13.9354 24.5172 15.1431C23.4684 16.3508 22.7299 17.796 22.3656 19.3535C22.0014 20.9111 22.0225 22.5339 22.4271 24.0814C22.8316 25.629 23.6075 27.0545 24.6874 28.2345C26.4351 30.1411 27.4044 32.6338 27.4038 35.2203H36.4848C36.4846 32.6328 37.4544 30.1392 39.2026 28.2317C40.8642 26.423 41.7847 24.0555 41.7814 21.5994Z" fill="#FFE500"/>
<path d="M22.2913 23.4966C22.7304 21.2591 23.9332 19.2435 25.6939 17.7947C27.4547 16.3459 29.6641 15.5537 31.9443 15.5537C34.2245 15.5537 36.4339 16.3459 38.1947 17.7947C39.9555 19.2435 41.1582 21.2591 41.5973 23.4966C41.8761 22.0717 41.836 20.6027 41.4799 19.1951C41.1238 17.7875 40.4605 16.4762 39.5376 15.3553C38.6147 14.2344 37.4552 13.3316 36.1422 12.7119C34.8291 12.0921 33.3952 11.7707 31.9433 11.7707C30.4913 11.7707 29.0574 12.0921 27.7444 12.7119C26.4313 13.3316 25.2718 14.2344 24.3489 15.3553C23.4261 16.4762 22.7628 17.7875 22.4067 19.1951C22.0506 20.6027 22.0105 22.0717 22.2892 23.4966" fill="#FFF48C"/>
<path d="M41.7814 21.5994C41.7823 19.9999 41.3933 18.4242 40.6478 17.009C39.9024 15.5938 38.8231 14.3817 37.5034 13.4777C36.1838 12.5738 34.6636 12.0053 33.0747 11.8215C31.4857 11.6377 29.8759 11.8442 28.3848 12.4229C26.8936 13.0017 25.5661 13.9354 24.5172 15.1431C23.4684 16.3508 22.7299 17.796 22.3656 19.3535C22.0014 20.9111 22.0225 22.5339 22.4271 24.0814C22.8316 25.629 23.6075 27.0545 24.6874 28.2345C26.4351 30.1411 27.4044 32.6338 27.4038 35.2203H36.4848C36.4846 32.6328 37.4544 30.1392 39.2026 28.2317C40.8642 26.423 41.7847 24.0555 41.7814 21.5994V21.5994Z" stroke="black" stroke-linecap="round" stroke-linejoin="round"/>
<path d="M31.9442 6.00912C30.9795 6.00912 29.9586 3.33906 29.9586 1.90355C29.9801 1.39146 30.1987 0.907499 30.5687 0.552774C30.9386 0.198049 31.4313 0 31.9439 0C32.4564 0 32.9492 0.198049 33.3191 0.552774C33.6891 0.907499 33.9077 1.39146 33.9292 1.90355C33.9327 3.33906 32.909 6.00912 31.9442 6.00912Z" fill="#FFE500" stroke="#DEA47A" stroke-linecap="round" stroke-linejoin="round"/>
<path d="M19.1533 5.70559C19.0241 5.4884 18.9402 5.24725 18.9069 4.99673C18.8736 4.74621 18.8914 4.49153 18.9593 4.2481C19.0272 4.00467 19.1438 3.77754 19.302 3.58048C19.4603 3.38341 19.6568 3.22049 19.8798 3.10158C20.3351 2.84766 20.8706 2.77848 21.3754 2.90836C21.8803 3.03823 22.3159 3.35722 22.5921 3.79931C23.3776 5.10483 23.8245 7.8578 23.0137 8.30749C22.219 8.74805 19.9789 7.07786 19.1533 5.70559Z" fill="#FFE500" stroke="#DEA47A" stroke-linecap="round" stroke-linejoin="round"/>
<path d="M11.7755 14.1858C11.5521 14.0673 11.3552 13.9046 11.1967 13.7075C11.0381 13.5105 10.9214 13.2833 10.8534 13.0397C10.7854 12.7962 10.7677 12.5413 10.8013 12.2907C10.835 12.0401 10.9192 11.7989 11.0489 11.5818C11.3254 11.1402 11.7609 10.8216 12.2655 10.6919C12.7701 10.5621 13.3053 10.6312 13.7604 10.8848C15.0554 11.6022 16.9533 13.786 16.4713 14.5878C15.9766 15.4106 13.029 14.8815 11.7755 14.1858Z" fill="#FFE500" stroke="#DEA47A" stroke-linecap="round" stroke-linejoin="round"/>
<path d="M9.80176 25.0733C9.54526 25.0832 9.28942 25.0412 9.04954 24.9498C8.80967 24.8585 8.5907 24.7196 8.40575 24.5416C8.22079 24.3637 8.07366 24.1502 7.97316 23.914C7.87266 23.6778 7.82086 23.4237 7.82086 23.1671C7.82086 22.9104 7.87266 22.6563 7.97316 22.4201C8.07366 22.1839 8.22079 21.9705 8.40575 21.7925C8.5907 21.6145 8.80967 21.4757 9.04954 21.3843C9.28942 21.2929 9.54526 21.2509 9.80176 21.2608C11.297 21.2608 14.0774 22.2403 14.0774 23.1671C14.0774 24.0938 11.297 25.0733 9.80176 25.0733Z" fill="#FFE500" stroke="#DEA47A" stroke-linecap="round" stroke-linejoin="round"/>
<path d="M54.0868 25.0733C52.5916 25.0733 49.8105 24.0938 49.8105 23.1671C49.8105 22.2403 52.5916 21.2608 54.0868 21.2608C54.3433 21.2509 54.5991 21.2929 54.839 21.3843C55.0789 21.4757 55.2979 21.6145 55.4828 21.7925C55.6678 21.9705 55.8149 22.1839 55.9154 22.4201C56.0159 22.6563 56.0677 22.9104 56.0677 23.1671C56.0677 23.4237 56.0159 23.6778 55.9154 23.914C55.8149 24.1502 55.6678 24.3637 55.4828 24.5416C55.2979 24.7196 55.0789 24.8585 54.839 24.9498C54.5991 25.0412 54.3433 25.0832 54.0868 25.0733Z" fill="#FFE500" stroke="#DEA47A" stroke-linecap="round" stroke-linejoin="round"/>
<path d="M11.049 34.7516C10.9199 34.5347 10.8361 34.2939 10.8028 34.0437C10.7695 33.7935 10.7874 33.5391 10.8553 33.2961C10.9232 33.053 11.0398 32.8262 11.198 32.6295C11.3562 32.4328 11.5527 32.2703 11.7755 32.1518C13.0178 31.4632 15.9753 30.9243 16.4713 31.7492C16.9534 32.5516 15.0555 34.7354 13.7605 35.4529C13.305 35.7068 12.7693 35.7756 12.2644 35.645C11.7595 35.5144 11.3243 35.1945 11.049 34.7516Z" fill="#FFE500" stroke="#DEA47A" stroke-linecap="round" stroke-linejoin="round"/>
<path d="M47.4173 14.5877C46.9345 13.786 48.8324 11.6022 50.1274 10.8848C50.5825 10.6308 51.1179 10.5615 51.6228 10.6913C52.1276 10.821 52.5633 11.1398 52.8396 11.5818C52.9692 11.7989 53.0534 12.0401 53.0869 12.2907C53.1205 12.5413 53.1028 12.7961 53.0348 13.0396C52.9669 13.2832 52.8501 13.5104 52.6917 13.7074C52.5332 13.9044 52.3363 14.0672 52.113 14.1858C50.8708 14.8744 47.9154 15.4162 47.4173 14.5877Z" fill="#FFE500" stroke="#DEA47A" stroke-linecap="round" stroke-linejoin="round"/>
<path d="M40.8777 8.30748C40.0627 7.85708 40.5124 5.102 41.2958 3.79929C41.5723 3.35747 42.0079 3.03871 42.5126 2.90886C43.0173 2.77901 43.5527 2.848 44.008 3.10156C44.2312 3.22033 44.4279 3.38317 44.5862 3.58022C44.7446 3.77727 44.8613 4.00443 44.9292 4.24791C44.9971 4.4914 45.0149 4.74615 44.9815 4.99672C44.948 5.24728 44.864 5.48844 44.7346 5.70558C43.9104 7.07714 41.6703 8.75085 40.8777 8.30748Z" fill="#FFE500" stroke="#DEA47A" stroke-linecap="round" stroke-linejoin="round"/>
<path d="M37.2262 30.6026L39.3858 27.3606L54.7854 37.6188L52.6258 40.8608L37.2262 30.6026Z" fill="#00B8F0"/>
<path d="M38.3057 28.9814L39.3856 27.3605L54.785 37.619L53.7052 39.24L38.3057 28.9814Z" fill="#4ACFFF"/>
<path d="M37.2262 30.6026L39.3858 27.3606L54.7854 37.6188L52.6258 40.8608L37.2262 30.6026Z" stroke="black" stroke-linecap="round" stroke-linejoin="round"/>
<path d="M52.6253 40.8601L54.7847 37.6179L56.4058 38.6976L54.2464 41.9398L52.6253 40.8601Z" fill="#F5F5F5"/>
<path d="M53.7061 39.2403L54.7858 37.6192L56.4069 38.699L55.3271 40.32L53.7061 39.2403Z" fill="#F5F5F5"/>
<path d="M52.6253 40.8601L54.7847 37.6179L56.4058 38.6976L54.2464 41.9398L52.6253 40.8601Z" stroke="black" stroke-linecap="round" stroke-linejoin="round"/>
<path d="M55.4626 42.7491C55.8926 43.0288 56.4155 43.1276 56.9179 43.0241C57.4202 42.9205 57.8614 42.623 58.1458 42.1961C58.4301 41.7692 58.5345 41.2474 58.4365 40.7439C58.3384 40.2405 58.0456 39.7961 57.6219 39.5071L56.4063 38.697L54.2463 41.9404L55.4626 42.7491Z" fill="#FFA694"/>
<path d="M58.1629 42.2095C58.3047 41.9966 58.4032 41.7579 58.4528 41.507C58.5024 41.256 58.502 40.9978 58.4518 40.7469C58.4015 40.4961 58.3024 40.2577 58.16 40.0452C58.0176 39.8327 57.8347 39.6503 57.6218 39.5085L56.4063 38.6984L55.3263 40.3194L58.1629 42.2095Z" fill="#FFCEBF"/>
<path d="M55.4626 42.7491C55.8926 43.0288 56.4155 43.1276 56.9179 43.0241C57.4202 42.9205 57.8614 42.623 58.1458 42.1961C58.4301 41.7692 58.5345 41.2474 58.4365 40.7439C58.3384 40.2405 58.0456 39.7961 57.6219 39.5071L56.4063 38.697L54.2463 41.9404L55.4626 42.7491Z" stroke="black" stroke-linecap="round" stroke-linejoin="round"/>
<path d="M34.2532 26.2819L33.4431 25.7423" stroke="black" stroke-linecap="round" stroke-linejoin="round"/>
<path d="M39.3853 27.3612L34.2532 26.2819L37.2261 30.6032L39.3853 27.3612Z" fill="#FFDA8F"/>
<path d="M39.3853 27.3612L34.2532 26.2819L38.306 28.9815L39.3853 27.3612Z" fill="#FFFBE5"/>
<path d="M39.3853 27.3612L34.2532 26.2819L37.2261 30.6032L39.3853 27.3612Z" stroke="black" stroke-linecap="round" stroke-linejoin="round"/>
<path d="M31.8199 35.2175V27.9345C31.8196 27.566 31.6943 27.2086 31.4644 26.9206L29.6284 24.6265C29.5328 24.5072 29.4729 24.3634 29.4555 24.2115C29.4381 24.0597 29.464 23.9061 29.53 23.7683C29.5961 23.6305 29.6997 23.5141 29.829 23.4326C29.9583 23.3511 30.1079 23.3078 30.2607 23.3076H33.5484C33.6958 23.3072 33.8405 23.347 33.967 23.4226C34.0935 23.4983 34.197 23.6069 34.2664 23.7369C34.3358 23.8669 34.3685 24.0134 34.361 24.1606C34.3534 24.3077 34.306 24.4501 34.2237 24.5724L33.4409 25.7451" stroke="black" stroke-linecap="round" stroke-linejoin="round"/>
</g>
<defs>
<clipPath id="clip0_8530_416218">
<rect width="64" height="64" fill="white"/>
</clipPath>
</defs>
</svg>

