<svg width="64" height="64" viewBox="0 0 64 64" fill="none" xmlns="http://www.w3.org/2000/svg">
<path d="M0 32C0 40.4869 3.37142 48.6263 9.37258 54.6274C15.3737 60.6286 23.5131 64 32 64C40.4869 64 48.6263 60.6286 54.6274 54.6274C60.6286 48.6263 64 40.4869 64 32C64 23.5131 60.6286 15.3737 54.6274 9.37258C48.6263 3.37142 40.4869 0 32 0C23.5131 0 15.3737 3.37142 9.37258 9.37258C3.37142 15.3737 0 23.5131 0 32Z" fill="#C7F0FF"/>
<path d="M60.16 21.3351C59.9745 21.0914 59.7415 20.8878 59.4752 20.7366C59.2089 20.5854 58.9147 20.4896 58.6104 20.4551L34.6936 19.9199L11.828 12.8887C11.528 12.8257 11.2183 12.8242 10.9176 12.8844C10.617 12.9445 10.3317 13.065 10.079 13.2386C9.82632 13.4122 9.61146 13.6352 9.44744 13.8942C9.28343 14.1533 9.17367 14.4428 9.1248 14.7455L4.4536 44.2655C4.40609 44.5594 4.41696 44.8598 4.48557 45.1495C4.55419 45.4392 4.67921 45.7126 4.8535 45.9539C5.02779 46.1953 5.24793 46.4 5.50134 46.5563C5.75475 46.7125 6.03647 46.8173 6.3304 46.8647L11.6104 46.1679C14.2168 45.8238 16.8621 45.9136 19.4392 46.4335C22.0431 46.9843 24.5187 48.0246 26.7344 49.4991L27.9832 50.3127C28.4656 50.6271 29.007 50.84 29.5743 50.9384C30.1417 51.0367 30.7231 51.0184 31.2832 50.8847L33.5232 50.3503C35.2749 49.9106 37.0776 49.708 38.8832 49.7479C42.2295 49.8611 45.5149 50.6748 48.5272 52.1367L53.3192 54.4615C53.9126 54.5575 54.5199 54.4139 55.0075 54.0622C55.495 53.7106 55.823 53.1797 55.9192 52.5863L60.5904 23.0663C60.6395 22.7636 60.6266 22.4542 60.5526 22.1566C60.4787 21.859 60.3451 21.5796 60.16 21.3351Z" fill="#FF6242"/>
<path fill-rule="evenodd" clip-rule="evenodd" d="M10.8393 12.4922C11.193 12.4215 11.5573 12.4232 11.9103 12.4973C11.9222 12.4998 11.934 12.5029 11.9457 12.5065L34.7582 19.5214L58.6194 20.0553C58.6315 20.0556 58.6436 20.0564 58.6556 20.0578C59.0135 20.0983 59.3596 20.211 59.6728 20.3889C59.9861 20.5668 60.2601 20.8063 60.4784 21.0929L60.1601 21.3352L60.479 21.0938C60.6967 21.3814 60.8539 21.7101 60.9409 22.0602C61.0279 22.41 61.043 22.7737 60.9855 23.1295C60.9854 23.1298 60.9854 23.1301 60.9853 23.1304L56.3141 52.6504C56.2009 53.3485 55.8151 53.9731 55.2415 54.3868C54.668 54.8004 53.9536 54.9694 53.2554 54.8565C53.217 54.8503 53.1797 54.8385 53.1447 54.8215L48.3527 52.4967C45.3914 51.0596 42.1617 50.2594 38.872 50.1479C37.1031 50.109 35.3369 50.3076 33.6207 50.7384L33.6161 50.7395L31.3762 51.2739C31.3762 51.2739 31.3762 51.2739 31.3762 51.2739C30.7633 51.4202 30.127 51.4402 29.5061 51.3326C28.8852 51.225 28.2928 50.992 27.7649 50.6479L26.5162 49.8344L26.5129 49.8322C24.3398 48.386 21.9119 47.3657 19.3581 46.8253C16.825 46.3144 14.2248 46.2263 11.6629 46.5646L6.38283 47.2614C6.3443 47.2665 6.30524 47.2659 6.26687 47.2597C5.92106 47.204 5.58962 47.0807 5.29148 46.8968C4.99335 46.713 4.73435 46.4722 4.52931 46.1882C4.32426 45.9042 4.17717 45.5826 4.09644 45.2418C4.01577 44.9012 4.00295 44.548 4.05871 44.2025C4.05875 44.2023 4.05879 44.202 4.05883 44.2018L8.72982 14.6831L8.73001 14.6819C8.7875 14.3258 8.91663 13.9851 9.1096 13.6803C9.30256 13.3756 9.55534 13.1132 9.85265 12.909C10.15 12.7048 10.4856 12.563 10.8393 12.4922ZM59.8415 21.5771C59.6887 21.3765 59.497 21.209 59.2778 21.0845C59.0634 20.9628 58.8271 20.8847 58.5826 20.8547L34.6848 20.3199C34.6479 20.3191 34.6114 20.3132 34.5761 20.3023L11.7289 13.2768C11.4871 13.2284 11.2381 13.2283 10.9962 13.2767C10.7486 13.3262 10.5137 13.4255 10.3056 13.5684C10.0975 13.7113 9.92055 13.895 9.78548 14.1083C9.65052 14.3215 9.56017 14.5597 9.51988 14.8088C9.51985 14.809 9.51982 14.8092 9.51979 14.8094L4.84879 44.3281L4.84858 44.3294C4.80945 44.5715 4.8184 44.8188 4.8749 45.0574C4.93141 45.296 5.03437 45.5211 5.1779 45.7199C5.32143 45.9187 5.50271 46.0872 5.7114 46.2159C5.90423 46.3348 6.11697 46.4175 6.33916 46.4602L11.5581 45.7715C14.2083 45.4216 16.8981 45.5128 19.5184 46.0415L19.5221 46.0422C22.175 46.6034 24.6972 47.6632 26.9547 49.1652C26.9551 49.1656 26.9556 49.1659 26.9561 49.1662L28.2017 49.9777C28.6385 50.2624 29.1289 50.4553 29.6427 50.5443C30.1566 50.6334 30.6832 50.6169 31.1904 50.4957L33.4259 49.9624C33.4267 49.9623 33.4275 49.9621 33.4282 49.9619C35.2139 49.5139 37.0516 49.3074 38.8921 49.3481L38.8968 49.3482C42.299 49.4632 45.6393 50.2906 48.7019 51.7769C48.7019 51.7769 48.7019 51.7769 48.7019 51.7769L53.4385 54.0748C53.9095 54.1366 54.3872 54.0166 54.7736 53.7379C55.1748 53.4485 55.4448 53.0118 55.5243 52.5236C55.5243 52.5232 55.5244 52.5228 55.5245 52.5224L60.1954 23.0039L60.1957 23.0024C60.236 22.7531 60.2255 22.4983 60.1645 22.2532C60.1037 22.0083 59.9938 21.7783 59.8415 21.5771Z" fill="#45413C"/>
<path d="M55.1135 42.7361L54.3471 47.4753C54.2912 47.8202 54.1563 48.1475 53.953 48.4317C53.7496 48.7159 53.4834 48.9492 53.175 49.1135C52.8667 49.2779 52.5245 49.3687 52.1752 49.379C51.826 49.3893 51.4791 49.3188 51.1615 49.1729C46.8799 47.2057 38.1743 44.2401 30.1711 47.8873L30.8951 43.4121L55.1135 42.7361Z" fill="#DAEDF7"/>
<path fill-rule="evenodd" clip-rule="evenodd" d="M55.4146 42.4724C55.4931 42.5621 55.5275 42.6821 55.5085 42.7998L54.7421 47.539L54.7421 47.5392C54.6762 47.9449 54.5175 48.33 54.2784 48.6643C54.0392 48.9986 53.726 49.2731 53.3633 49.4664C53.0005 49.6597 52.598 49.7666 52.1871 49.7787C51.7763 49.7908 51.3682 49.7078 50.9947 49.5362C46.7325 47.5779 38.1713 44.681 30.3371 48.2511C30.2029 48.3123 30.0459 48.2946 29.9286 48.2051C29.8113 48.1157 29.7528 47.9689 29.7764 47.8233L30.5004 43.3481C30.5311 43.1585 30.6921 43.0175 30.8841 43.0121L55.1025 42.3361C55.2216 42.3328 55.3361 42.3828 55.4146 42.4724ZM31.2373 43.8025L30.6827 47.2304C38.6621 43.9654 47.1462 46.8876 51.3287 48.8093C51.5902 48.9294 51.8759 48.9875 52.1636 48.979C52.4512 48.9706 52.7331 48.8957 52.987 48.7604C53.241 48.625 53.4603 48.4328 53.6277 48.1988C53.7952 47.9647 53.9063 47.6951 53.9524 47.4111L54.6416 43.1493L31.2373 43.8025Z" fill="#45413C"/>
<path d="M30.1711 47.8872C36.5328 45.8962 43.2706 45.4134 49.8511 46.4768L52.1519 46.8488C52.4457 46.8964 52.7461 46.8857 53.0357 46.8172C53.3254 46.7487 53.5987 46.6239 53.8401 46.4497C54.0815 46.2756 54.2862 46.0556 54.4425 45.8023C54.5988 45.549 54.7037 45.2674 54.7511 44.9736L58.7311 20.36C58.8269 19.7665 58.6831 19.1592 58.3313 18.6717C57.9795 18.1841 57.4486 17.8562 56.8551 17.76L54.5543 17.388C47.9738 16.3245 41.236 16.8074 34.8743 18.7984L30.1711 47.8872Z" fill="white"/>
<path fill-rule="evenodd" clip-rule="evenodd" d="M34.755 18.4167C41.1759 16.4072 47.9764 15.9198 54.6183 16.9932L56.9191 17.3652C57.6172 17.4784 58.242 17.8642 58.6558 18.4377C59.0696 19.0112 59.2388 19.7256 59.1261 20.4238L55.1461 45.0374C55.0903 45.3832 54.9669 45.7145 54.783 46.0125C54.5991 46.3105 54.3582 46.5693 54.0742 46.7742C53.7902 46.9791 53.4686 47.126 53.1278 47.2066C52.7871 47.2871 52.4338 47.2997 52.0882 47.2437C52.0881 47.2437 52.0883 47.2437 52.0882 47.2437L49.7874 46.8717C43.2682 45.8182 36.5931 46.2966 30.2907 48.269C30.1584 48.3104 30.0141 48.2804 29.9093 48.1896C29.8046 48.0988 29.7542 47.9603 29.7764 47.8234L34.4796 18.7346C34.5038 18.5851 34.6104 18.462 34.755 18.4167ZM35.2297 19.1072L30.6686 47.3175C36.9072 45.4665 43.4855 45.043 49.9151 46.082L52.2159 46.454C52.4578 46.4932 52.7053 46.4844 52.9438 46.428C53.1823 46.3716 53.4074 46.2688 53.6062 46.1254C53.8049 45.982 53.9735 45.8009 54.1022 45.5923C54.2309 45.3837 54.3173 45.1519 54.3564 44.9099L58.3364 20.2964C58.4152 19.8075 58.2968 19.3074 58.007 18.9058C57.7173 18.5043 57.2801 18.2342 56.7914 18.1549M56.7914 18.1549L54.4906 17.7829C54.4906 17.7829 54.4906 17.7829 54.4906 17.7829C48.0526 16.7425 41.4627 17.1961 35.2297 19.1072" fill="#45413C"/>
<path d="M8.12402 35.1384L7.36002 39.8776C7.30409 40.2226 7.3287 40.5759 7.43195 40.9098C7.5352 41.2438 7.71428 41.5493 7.95519 41.8025C8.1961 42.0557 8.49232 42.2498 8.82068 42.3696C9.14904 42.4893 9.50065 42.5315 9.84802 42.4928C14.5312 41.9752 23.728 41.9032 30.1736 47.8872L30.8976 43.412L8.12402 35.1384Z" fill="#DAEDF7"/>
<path fill-rule="evenodd" clip-rule="evenodd" d="M7.92123 34.7934C8.02403 34.733 8.1484 34.7216 8.26046 34.7623L31.0341 43.0359C31.2146 43.1015 31.323 43.2862 31.2923 43.4758L30.5683 47.951C30.5448 48.0966 30.443 48.2174 30.3035 48.2654C30.164 48.3133 30.0094 48.2806 29.9013 48.1802C23.5919 42.3227 14.5539 42.375 9.89182 42.8903C9.48324 42.9357 9.06969 42.8861 8.68348 42.7452C8.29717 42.6043 7.94867 42.376 7.66524 42.0781C7.38181 41.7801 7.17112 41.4207 7.04965 41.0279C6.9282 40.635 6.89923 40.2195 6.96501 39.8136C6.96502 39.8136 6.965 39.8137 6.96501 39.8136L7.72898 35.0746C7.74795 34.9569 7.81844 34.8538 7.92123 34.7934ZM8.44181 35.6794L7.75478 39.9411C7.70871 40.2253 7.72893 40.5165 7.81395 40.7915C7.89898 41.0665 8.04645 41.3181 8.24484 41.5267C8.44324 41.7352 8.68717 41.895 8.95758 41.9936C9.22799 42.0923 9.51755 42.127 9.80361 42.0951C14.3783 41.5895 23.3516 41.4889 29.8952 47.1027L30.4497 43.6748L8.44181 35.6794Z" fill="#45413C"/>
<path d="M30.1712 47.8871C24.7613 43.9925 18.5189 41.411 11.9384 40.3471L9.63758 39.9751C9.34358 39.9278 9.06177 39.8231 8.80827 39.6669C8.55477 39.5106 8.33454 39.306 8.16017 39.0646C7.9858 38.8232 7.8607 38.5498 7.79204 38.2601C7.72337 37.9703 7.71248 37.6699 7.75998 37.3759L11.74 12.7623C11.7874 12.4685 11.8923 12.1869 12.0486 11.9336C12.205 11.6803 12.4097 11.4603 12.651 11.2862C12.8924 11.112 13.1657 10.9871 13.4554 10.9187C13.7451 10.8502 14.0454 10.8395 14.3392 10.8871L16.64 11.2583C23.2211 12.3228 29.464 14.9048 34.8744 18.7999L30.1712 47.8871Z" fill="#FFFEF2"/>
<path d="M30.1712 47.8871C24.7613 43.9925 18.5189 41.411 11.9384 40.3471L9.63758 39.9751C9.34358 39.9278 9.06177 39.8231 8.80827 39.6669C8.55477 39.5106 8.33454 39.306 8.16017 39.0646C7.9858 38.8232 7.8607 38.5498 7.79204 38.2601C7.72337 37.9703 7.71248 37.6699 7.75998 37.3759L11.74 12.7623C11.7874 12.4685 11.8923 12.1869 12.0486 11.9336C12.205 11.6803 12.4097 11.4603 12.651 11.2862C12.8924 11.112 13.1657 10.9871 13.4554 10.9187C13.7451 10.8502 14.0454 10.8395 14.3392 10.8871L16.64 11.2583C23.2211 12.3228 29.464 14.9048 34.8744 18.7999L30.1712 47.8871Z" fill="white"/>
<path fill-rule="evenodd" clip-rule="evenodd" d="M14.2753 11.2821C14.0333 11.2428 13.786 11.2517 13.5475 11.308C13.309 11.3644 13.0839 11.4673 12.8852 11.6107C12.6864 11.7541 12.5178 11.9352 12.3891 12.1438C12.2604 12.3523 12.174 12.5842 12.135 12.8262L8.15495 37.4398C8.15495 37.4398 8.15495 37.4398 8.15495 37.4398C8.11584 37.6819 8.12481 37.9293 8.18135 38.1679C8.2379 38.4065 8.34091 38.6317 8.48451 38.8305C8.6281 39.0292 8.80947 39.1978 9.01823 39.3264C9.22699 39.4551 9.45906 39.5414 9.70117 39.5803L12.0023 39.9523C18.4318 40.9919 24.5416 43.4667 29.8789 47.1897L34.44 18.981C29.1266 15.2023 23.0149 12.6947 16.5764 11.6533C16.5763 11.6533 16.5764 11.6533 16.5764 11.6533L14.2753 11.2821ZM14.4031 10.4923C14.0575 10.4363 13.7042 10.449 13.3635 10.5295C13.0227 10.6101 12.7011 10.757 12.4171 10.9619C12.1331 11.1668 11.8923 11.4256 11.7083 11.7236C11.5244 12.0216 11.401 12.3529 11.3452 12.6986C11.3452 12.6985 11.3452 12.6986 11.3452 12.6986L7.3652 37.3122C7.30932 37.658 7.32212 38.0115 7.40291 38.3524C7.4837 38.6933 7.63087 39.0149 7.83601 39.2989C8.04116 39.5829 8.30026 39.8237 8.5985 40.0075C8.89664 40.1912 9.22806 40.3144 9.57383 40.3701M9.57383 40.3701L11.8746 40.7421C18.3938 41.7961 24.5781 44.3535 29.9376 48.2118C30.0501 48.2928 30.1965 48.3098 30.3246 48.2567C30.4526 48.2036 30.544 48.0879 30.5661 47.9511L35.2693 18.8639C35.2935 18.7143 35.2311 18.5639 35.1082 18.4754C29.6474 14.544 23.3463 11.9379 16.7039 10.8635L14.4031 10.4923C14.4032 10.4923 14.4031 10.4923 14.4031 10.4923" fill="#45413C"/>
<path fill-rule="evenodd" clip-rule="evenodd" d="M16.0158 19.2008C16.0282 18.9803 16.217 18.8115 16.4376 18.8239C21.5527 19.1111 26.5029 20.7355 30.7937 23.5346C30.9787 23.6553 31.0309 23.9032 30.9102 24.0882C30.7895 24.2732 30.5416 24.3254 30.3566 24.2047C26.183 21.482 21.3681 19.902 16.3927 19.6226C16.1722 19.6102 16.0034 19.4214 16.0158 19.2008Z" fill="#45413C"/>
<path fill-rule="evenodd" clip-rule="evenodd" d="M15.2445 23.8512C15.2569 23.6306 15.4458 23.4619 15.6664 23.4743C20.7815 23.762 25.7316 25.3866 30.0225 28.1858C30.2075 28.3065 30.2596 28.5544 30.1389 28.7394C30.0182 28.9244 29.7704 28.9766 29.5854 28.8559C25.4117 26.1331 20.5968 24.5529 15.6214 24.273C15.4009 24.2606 15.2321 24.0717 15.2445 23.8512Z" fill="#45413C"/>
<path fill-rule="evenodd" clip-rule="evenodd" d="M14.4735 28.5023C14.4859 28.2818 14.6748 28.113 14.8954 28.1254C20.0105 28.4129 24.9607 30.0375 29.2515 32.837C29.4365 32.9577 29.4886 33.2055 29.3679 33.3905C29.2472 33.5756 28.9994 33.6277 28.8143 33.507C24.6408 30.784 19.8259 29.2038 14.8505 28.9241C14.6299 28.9117 14.4611 28.7229 14.4735 28.5023Z" fill="#45413C"/>
<path fill-rule="evenodd" clip-rule="evenodd" d="M13.7023 33.1535C13.7147 32.9329 13.9035 32.7642 14.1241 32.7765C19.2406 33.0633 24.1923 34.688 28.4842 37.4881C28.6693 37.6088 28.7214 37.8566 28.6007 38.0417C28.48 38.2267 28.2321 38.2788 28.0471 38.1581C23.8724 35.4345 19.056 33.8542 14.0793 33.5753C13.8587 33.5629 13.6899 33.3741 13.7023 33.1535Z" fill="#45413C"/>
<path fill-rule="evenodd" clip-rule="evenodd" d="M37.1893 24.5947C42.1553 23.3298 47.3664 23.3907 52.3014 24.7715C52.5142 24.831 52.6384 25.0518 52.5788 25.2645C52.5193 25.4772 52.2986 25.6015 52.0859 25.5419C47.2857 24.1989 42.217 24.1396 37.3868 25.3699C37.1727 25.4245 36.9549 25.2951 36.9004 25.0811C36.8459 24.867 36.9752 24.6492 37.1893 24.5947Z" fill="#45413C"/>
<path fill-rule="evenodd" clip-rule="evenodd" d="M36.4173 29.2461C41.3833 27.9811 46.5944 28.0421 51.5294 29.4229C51.7422 29.4824 51.8664 29.7032 51.8069 29.9159C51.7473 30.1286 51.5266 30.2529 51.3139 30.1933C46.5137 28.8502 41.4451 28.7909 36.6148 30.0213C36.4007 30.0759 36.183 29.9465 36.1284 29.7325C36.0739 29.5184 36.2032 29.3006 36.4173 29.2461Z" fill="#45413C"/>
<path fill-rule="evenodd" clip-rule="evenodd" d="M35.6461 33.8964C40.6122 32.6319 45.8232 32.6932 50.7582 34.074C50.971 34.1336 51.0952 34.3543 51.0356 34.567C50.9761 34.7798 50.7554 34.904 50.5426 34.8445C45.7425 33.5013 40.6739 33.4418 35.8435 34.6717C35.6294 34.7262 35.4117 34.5968 35.3572 34.3827C35.3027 34.1687 35.432 33.9509 35.6461 33.8964Z" fill="#45413C"/>
<path fill-rule="evenodd" clip-rule="evenodd" d="M34.8749 38.5475C39.8409 37.283 45.0518 37.344 49.9869 38.7243C50.1997 38.7838 50.3239 39.0045 50.2644 39.2173C50.2049 39.43 49.9842 39.5543 49.7714 39.4948C44.9712 38.1521 39.9026 38.0928 35.0723 39.3228C34.8582 39.3773 34.6405 39.2479 34.586 39.0338C34.5314 38.8198 34.6608 38.602 34.8749 38.5475Z" fill="#45413C"/>
<path opacity="0.15" d="M17.7144 55.1711C17.7144 55.5819 19.2965 55.9758 22.1127 56.2663C24.9289 56.5567 28.7485 56.7199 32.7312 56.7199C36.7139 56.7199 40.5334 56.5567 43.3496 56.2663C46.1658 55.9758 47.748 55.5819 47.748 55.1711C47.748 54.7603 46.1658 54.3664 43.3496 54.0759C40.5334 53.7855 36.7139 53.6223 32.7312 53.6223C28.7485 53.6223 24.9289 53.7855 22.1127 54.0759C19.2965 54.3664 17.7144 54.7603 17.7144 55.1711Z" fill="#45413C"/>
</svg>

