<svg width="128" height="128" viewBox="0 0 128 128" fill="none" xmlns="http://www.w3.org/2000/svg">
<path d="M8.70166 65.5322C8.70166 79.1113 14.0959 92.1342 23.6978 101.736C33.2997 111.338 46.3226 116.732 59.9017 116.732C73.4808 116.732 86.5037 111.338 96.1055 101.736C105.707 92.1342 111.102 79.1113 111.102 65.5322C111.102 51.9531 105.707 38.9302 96.1055 29.3283C86.5037 19.7264 73.4808 14.3322 59.9017 14.3322C46.3226 14.3322 33.2997 19.7264 23.6978 29.3283C14.0959 38.9302 8.70166 51.9531 8.70166 65.5322Z" fill="#C7F0FF"/>
<path d="M56.1131 35.3395C56.1131 35.3395 48.2066 60.9817 28.6866 63.8617C9.16657 66.7417 8.63281 72.6284 8.63281 72.6284C16.6328 70.7942 19.1672 78.2195 28.2603 77.9417C72.3832 76.5939 84.2245 86.0339 69.3202 35.3408L56.1131 35.3395Z" fill="#FF6242"/>
<path d="M90.5357 118.22L74.1197 85.0342C73.9371 84.5455 73.6095 84.1242 73.1808 83.8268C72.7521 83.5294 72.2427 83.3701 71.721 83.3702H50.473C49.9512 83.3701 49.4419 83.5294 49.0132 83.8268C48.5845 84.1242 48.2569 84.5455 48.0742 85.0342L31.6045 118.22" fill="#6DD627"/>
<path d="M90.5357 118.22L74.1197 85.0342C73.9371 84.5455 73.6095 84.1242 73.1808 83.8268C72.7521 83.5294 72.2427 83.3701 71.721 83.3702H50.473C49.9512 83.3701 49.4419 83.5294 49.0132 83.8268C48.5845 84.1242 48.2569 84.5455 48.0743 85.0342L31.6045 118.22" stroke="#45413C" stroke-linecap="round" stroke-linejoin="round"/>
<path d="M35.9352 69.8214C54.7589 63.9513 59.8955 35.3779 59.9045 35.3395H56.1157C56.1157 35.3395 48.2066 60.9817 28.6866 63.8617C9.16657 66.7417 8.63281 72.6284 8.63281 72.6284C14.1509 71.3638 17.068 74.5024 21.3317 76.4825C23.9736 74.5075 28.4267 72.1625 35.9352 69.8214Z" fill="#FF866E"/>
<path d="M56.1131 35.3395C56.1131 35.3395 48.2066 60.9817 28.6866 63.8617C9.16657 66.7417 8.63281 72.6284 8.63281 72.6284C16.6328 70.7942 19.1672 78.2195 28.2603 77.9417C72.3832 76.5939 84.2245 86.0339 69.3202 35.3408L56.1131 35.3395Z" stroke="#45413C" stroke-linecap="round" stroke-linejoin="round"/>
<path d="M61.2364 58.6329L69.8879 58.624L69.87 44.608C70.0248 44.095 70.2831 43.6192 70.6289 43.2099C70.9748 42.8006 71.4009 42.4666 71.8808 42.2284C72.3561 42.0378 72.8777 41.994 73.3781 42.1029C73.8785 42.2117 74.3347 42.4681 74.6879 42.839C75.392 43.5793 75.942 44.4522 76.3058 45.4069C76.6696 46.3616 76.8401 47.3791 76.8072 48.4003C76.7743 49.4214 76.5388 50.4259 76.1143 51.3552C75.6899 52.2845 75.0849 53.1202 74.3346 53.8137L72.4991 55.5046L75.9692 59.2704L77.8047 57.5795C79.7016 55.8317 81.0269 53.5521 81.6074 51.0389C82.1879 48.5257 81.9965 45.8959 81.0583 43.4932C80.12 41.0906 78.4786 39.0269 76.3486 37.5722C74.2186 36.1174 71.6992 35.3393 69.1199 35.3395H53.349C50.7697 35.3393 48.2503 36.1174 46.1203 37.5722C43.9903 39.0269 42.3489 41.0906 41.4106 43.4932C40.4724 45.8959 40.281 48.5257 40.8615 51.0389C41.442 53.5521 42.7673 55.8317 44.6642 57.5795L46.4997 59.2704L49.9698 55.5046L48.1279 53.8137C47.3772 53.1204 46.772 52.2848 46.3473 51.3554C45.9226 50.4259 45.6871 49.4214 45.6543 48.4001C45.6216 47.3787 45.7923 46.3611 46.1565 45.4064C46.5207 44.4517 47.0712 43.579 47.7759 42.839C48.129 42.4684 48.585 42.2122 49.0852 42.1034C49.5854 41.9946 50.1066 42.0382 50.5818 42.2286C51.0569 42.4191 51.464 42.7476 51.7505 43.1717C52.0371 43.5958 52.1899 44.0961 52.1893 44.608L52.1791 58.624L61.2364 58.6329Z" fill="#00B8F0"/>
<path d="M52.1772 58.624L50.2227 81.664L56.4947 81.6947L58.8319 66.5306C58.8457 65.9601 59.0821 65.4176 59.4904 65.019C59.8988 64.6204 60.4469 64.3972 61.0175 64.3972C61.5882 64.3972 62.1362 64.6204 62.5446 65.019C62.953 65.4176 63.1893 65.9601 63.2031 66.5306L65.4982 81.6883H71.7702L69.8886 58.624H52.1772Z" fill="#656769"/>
<path d="M70.1524 61.8753L69.8862 58.6177H52.1774L51.9009 61.8753H70.1524Z" fill="#525252"/>
<path d="M52.1772 58.624L50.2227 81.664L56.4947 81.6947L58.8319 66.5306C58.8457 65.9601 59.0821 65.4176 59.4904 65.019C59.8988 64.6204 60.4469 64.3972 61.0175 64.3972C61.5882 64.3972 62.1362 64.6204 62.5446 65.019C62.953 65.4176 63.1893 65.9601 63.2031 66.5306L65.4982 81.6883H71.7702L69.8886 58.624H52.1772Z" stroke="#45413C" stroke-linecap="round" stroke-linejoin="round"/>
<path d="M55.691 83.369C55.943 83.3713 56.1914 83.3086 56.4121 83.1868C56.6328 83.0651 56.8184 82.8885 56.9509 82.6742C57.0835 82.4598 57.1585 82.2149 57.1687 81.963C57.179 81.7112 57.1241 81.461 57.0094 81.2365C56.6283 80.5461 56.0689 79.9706 55.3897 79.5699C54.7105 79.1691 53.9363 78.9579 53.1476 78.9581H52.4129C51.6243 78.9579 50.8501 79.1691 50.1708 79.5699C49.4916 79.9706 48.9323 80.5461 48.5512 81.2365C48.4365 81.461 48.3816 81.7112 48.3918 81.963C48.4021 82.2149 48.4771 82.4598 48.6096 82.6742C48.7422 82.8885 48.9278 83.0651 49.1485 83.1868C49.3692 83.3086 49.6175 83.3713 49.8696 83.369H55.691Z" fill="#947746" stroke="#45413C" stroke-linecap="round" stroke-linejoin="round"/>
<path d="M72.1104 83.369C72.3625 83.3713 72.6108 83.3086 72.8315 83.1868C73.0522 83.0651 73.2378 82.8885 73.3704 82.6742C73.5029 82.4598 73.5779 82.2149 73.5882 81.963C73.5984 81.7112 73.5435 81.461 73.4288 81.2365C73.0477 80.5461 72.4884 79.9706 71.8092 79.5699C71.1299 79.1691 70.3557 78.9579 69.5671 78.9581H68.8324C68.0437 78.9579 67.2695 79.1691 66.5903 79.5699C65.9111 79.9706 65.3517 80.5461 64.9706 81.2365C64.8559 81.461 64.801 81.7112 64.8113 81.963C64.8215 82.2149 64.8965 82.4598 65.0291 82.6742C65.1616 82.8885 65.3472 83.0651 65.5679 83.1868C65.7886 83.3086 66.037 83.3713 66.289 83.369H72.1104Z" fill="#947746" stroke="#45413C" stroke-linecap="round" stroke-linejoin="round"/>
<path d="M61.2358 39.73V58.633" stroke="#45413C" stroke-linecap="round" stroke-linejoin="round"/>
<path d="M52.1797 55.5662H69.8872V58.619H52.1797V55.5662Z" fill="#DEBB7E" stroke="#45413C" stroke-linecap="round" stroke-linejoin="round"/>
<path d="M27.7853 32.4109C27.3128 32.4133 26.8449 32.5036 26.4054 32.6772C26.1715 31.1792 25.4099 29.8141 24.258 28.8282C23.1062 27.8424 21.64 27.3005 20.1238 27.3005C18.6077 27.3005 17.1415 27.8424 15.9896 28.8282C14.8378 29.8141 14.0762 31.1792 13.8422 32.6772C13.3178 32.4734 12.7548 32.3877 12.1935 32.4264C11.6322 32.465 11.0863 32.6269 10.5946 32.9005C10.103 33.1742 9.67779 33.5529 9.34922 34.0096C9.02066 34.4664 8.79685 34.99 8.69373 35.5431C8.59061 36.0962 8.61072 36.6653 8.75263 37.2098C8.89453 37.7542 9.15474 38.2607 9.51473 38.6932C9.87471 39.1256 10.3256 39.4733 10.8353 39.7116C11.345 39.9499 11.901 40.0728 12.4637 40.0717H27.7853C28.789 40.0534 29.7455 39.6418 30.4488 38.9254C31.1522 38.2091 31.5463 37.2453 31.5463 36.2413C31.5463 35.2374 31.1522 34.2736 30.4488 33.5572C29.7455 32.8409 28.789 32.4293 27.7853 32.4109Z" fill="white" stroke="#45413C" stroke-linecap="round" stroke-linejoin="round"/>
<path d="M27.7853 32.4109C27.3128 32.4133 26.8449 32.5036 26.4054 32.6772C26.1715 31.1792 25.4099 29.8141 24.258 28.8282C23.1062 27.8424 21.64 27.3005 20.1238 27.3005C18.6077 27.3005 17.1415 27.8424 15.9896 28.8282C14.8378 29.8141 14.0762 31.1792 13.8422 32.6772C13.3178 32.4734 12.7548 32.3877 12.1935 32.4264C11.6322 32.465 11.0863 32.6269 10.5946 32.9005C10.103 33.1742 9.67779 33.5529 9.34922 34.0096C9.02066 34.4664 8.79685 34.99 8.69373 35.5431C8.59061 36.0962 8.61072 36.6653 8.75263 37.2098C8.89453 37.7542 9.15474 38.2607 9.51473 38.6932C9.87471 39.1256 10.3256 39.4733 10.8353 39.7116C11.345 39.9499 11.901 40.0728 12.4637 40.0717H27.7853C28.789 40.0534 29.7455 39.6418 30.4488 38.9254C31.1522 38.2091 31.5463 37.2453 31.5463 36.2413C31.5463 35.2374 31.1522 34.2736 30.4488 33.5572C29.7455 32.8409 28.789 32.4293 27.7853 32.4109Z" fill="white" stroke="#45413C" stroke-linecap="round" stroke-linejoin="round"/>
<path d="M119.368 39.4074C119.372 38.5639 119.169 37.7323 118.777 36.9853C118.385 36.2384 117.816 35.5988 117.12 35.1226C116.424 34.6464 115.621 34.3479 114.783 34.2534C113.945 34.159 113.096 34.2712 112.312 34.5805C111.993 32.553 110.961 30.7059 109.401 29.372C107.841 28.038 105.856 27.3051 103.804 27.3051C101.752 27.3051 99.7668 28.038 98.207 29.372C96.6472 30.7059 95.6151 32.553 95.2966 34.5805C94.5865 34.3051 93.8244 34.1896 93.0645 34.2422C92.3047 34.2948 91.5658 34.5142 90.9004 34.8848C90.235 35.2555 89.6595 35.7682 89.2148 36.3866C88.7701 37.0049 88.4672 37.7137 88.3276 38.4624C88.1879 39.2112 88.2151 39.9815 88.407 40.7186C88.5989 41.4557 88.951 42.1414 89.4381 42.7269C89.9251 43.3125 90.5353 43.7834 91.2251 44.1064C91.9149 44.4293 92.6674 44.5962 93.4291 44.5952H114.177C114.858 44.5958 115.533 44.4619 116.163 44.2014C116.793 43.941 117.365 43.5589 117.847 43.0771C118.33 42.5953 118.712 42.0233 118.973 41.3936C119.234 40.7639 119.368 40.089 119.368 39.4074Z" fill="white" stroke="#45413C" stroke-linecap="round" stroke-linejoin="round"/>
<path d="M119.368 39.4074C119.372 38.5639 119.169 37.7323 118.777 36.9853C118.385 36.2384 117.816 35.5988 117.12 35.1226C116.424 34.6464 115.621 34.3479 114.783 34.2534C113.945 34.159 113.096 34.2712 112.312 34.5805C111.993 32.553 110.961 30.7059 109.401 29.372C107.841 28.038 105.856 27.3051 103.804 27.3051C101.752 27.3051 99.7668 28.038 98.207 29.372C96.6472 30.7059 95.6151 32.553 95.2966 34.5805C94.5865 34.3051 93.8244 34.1896 93.0645 34.2422C92.3047 34.2948 91.5658 34.5142 90.9004 34.8848C90.235 35.2555 89.6595 35.7682 89.2148 36.3866C88.7701 37.0049 88.4672 37.7137 88.3276 38.4624C88.1879 39.2112 88.2151 39.9815 88.407 40.7186C88.5989 41.4557 88.951 42.1414 89.4381 42.7269C89.9251 43.3125 90.5353 43.7834 91.2251 44.1064C91.9149 44.4293 92.6674 44.5962 93.4291 44.5952H114.177C114.858 44.5958 115.533 44.4619 116.163 44.2014C116.793 43.941 117.365 43.5589 117.847 43.0771C118.33 42.5953 118.712 42.0233 118.973 41.3936C119.234 40.7639 119.368 40.089 119.368 39.4074Z" fill="white" stroke="#45413C" stroke-linecap="round" stroke-linejoin="round"/>
<path d="M44.2162 98.025C44.6414 98.4887 45.1593 98.858 45.7363 99.1089C46.3133 99.3598 46.9366 99.4867 47.5657 99.4814C48.1949 99.4761 48.8159 99.3387 49.3886 99.0781C49.9613 98.8175 50.4728 98.4395 50.8902 97.9686L51.3023 97.5014C51.7119 97.0392 52.2172 96.6715 52.7831 96.424C53.349 96.1765 53.9619 96.0551 54.5795 96.0681C55.197 96.0811 55.8042 96.2283 56.3592 96.4995C56.9141 96.7706 57.4034 97.1593 57.7932 97.6384C58.1923 98.1295 58.6958 98.5255 59.2672 98.7974C59.8386 99.0694 60.4634 99.2105 61.0962 99.2105C61.729 99.2105 62.3539 99.0694 62.9253 98.7974C63.4967 98.5255 64.0002 98.1295 64.3993 97.6384C64.789 97.1593 65.2784 96.7706 65.8333 96.4995C66.3882 96.2283 66.9955 96.0811 67.613 96.0681C68.2305 96.0551 68.8435 96.1765 69.4094 96.424C69.9753 96.6715 70.4805 97.0392 70.8902 97.5014L71.4393 98.1222C71.8459 98.5814 72.3423 98.9524 72.8978 99.2124C73.4533 99.4724 74.0561 99.6159 74.6692 99.634C75.2822 99.6521 75.8925 99.5444 76.4624 99.3177C77.0322 99.0909 77.5496 98.7499 77.9827 98.3155L79.4598 96.8333L74.1196 85.0342C73.937 84.5455 73.6094 84.1242 73.1807 83.8268C72.752 83.5294 72.2426 83.3701 71.7209 83.3702H50.4729C49.9513 83.3704 49.4423 83.5298 49.0138 83.8272C48.5854 84.1245 48.258 84.5457 48.0754 85.0342L42.8633 96.5478L44.2162 98.025Z" fill="white"/>
<path d="M44.2162 98.025C44.6414 98.4887 45.1593 98.858 45.7363 99.1089C46.3133 99.3598 46.9366 99.4867 47.5657 99.4814C48.1949 99.4761 48.8159 99.3387 49.3886 99.0781C49.9613 98.8175 50.4728 98.4395 50.8902 97.9686L51.3023 97.5014C51.7119 97.0392 52.2172 96.6715 52.7831 96.424C53.349 96.1765 53.9619 96.0551 54.5795 96.0681C55.197 96.0811 55.8042 96.2283 56.3592 96.4995C56.9141 96.7706 57.4034 97.1593 57.7932 97.6384C58.1923 98.1295 58.6958 98.5255 59.2672 98.7974C59.8386 99.0694 60.4634 99.2105 61.0962 99.2105C61.7291 99.2105 62.3539 99.0694 62.9253 98.7974C63.4967 98.5255 64.0002 98.1295 64.3993 97.6384C64.789 97.1593 65.2784 96.7706 65.8333 96.4995C66.3882 96.2283 66.9955 96.0811 67.613 96.0681C68.2305 96.0551 68.8435 96.1765 69.4094 96.424C69.9753 96.6715 70.4805 97.0392 70.8902 97.5014L71.4393 98.1222C71.8459 98.5814 72.3423 98.9524 72.8978 99.2124C73.4533 99.4724 74.0561 99.6159 74.6692 99.634C75.2822 99.6521 75.8925 99.5444 76.4624 99.3177C77.0322 99.0909 77.5496 98.7499 77.9827 98.3155L79.4598 96.8333L74.1196 85.0342C73.937 84.5455 73.6094 84.1242 73.1807 83.8268C72.752 83.5294 72.2426 83.3701 71.7209 83.3702H50.4729C49.9513 83.3704 49.4423 83.5298 49.0138 83.8272C48.5854 84.1245 48.258 84.5457 48.0754 85.0342L42.8633 96.5478L44.2162 98.025Z" stroke="#45413C" stroke-linecap="round" stroke-linejoin="round"/>
<path d="M40.6292 49.623C40.4198 47.8285 40.5927 46.0099 41.1365 44.287C41.6802 42.5641 42.5826 40.9758 43.7842 39.6266C44.9858 38.2774 46.4593 37.1978 48.108 36.4589C49.7567 35.72 51.5432 35.3385 53.3499 35.3395H69.1207C70.9273 35.3385 72.7136 35.72 74.3622 36.4588C76.0108 37.1977 77.4844 38.2771 78.6859 39.6262C79.8875 40.9752 80.7899 42.5634 81.3337 44.2861C81.8776 46.0089 82.0506 47.8273 81.8414 49.6217C81.5038 46.4864 80.0172 43.5871 77.6682 41.4832C75.3191 39.3793 72.2742 38.2198 69.1207 38.2284H53.3512C50.198 38.2206 47.1535 39.3802 44.8045 41.4836C42.4555 43.5871 40.9682 46.4855 40.6292 49.6204V49.623Z" fill="#4ACFFF"/>
<path d="M61.2351 58.6329L69.8879 58.624L69.8687 44.608C70.024 44.095 70.2826 43.6193 70.6286 43.2101C70.9747 42.8008 71.4008 42.4668 71.8808 42.2284C72.3561 42.0378 72.8777 41.994 73.3781 42.1029C73.8785 42.2117 74.3347 42.4681 74.6879 42.839C75.392 43.5793 75.942 44.4522 76.3058 45.4069C76.6696 46.3616 76.8401 47.3791 76.8072 48.4003C76.7743 49.4214 76.5388 50.4259 76.1143 51.3552C75.6899 52.2845 75.0849 53.1202 74.3346 53.8137L72.4991 55.5046L75.9692 59.2704L77.8047 57.5795C79.7016 55.8317 81.0269 53.5521 81.6074 51.0389C82.1879 48.5257 81.9965 45.8959 81.0583 43.4932C80.12 41.0906 78.4786 39.0269 76.3486 37.5722C74.2186 36.1174 71.6992 35.3393 69.1199 35.3395H53.349C50.7697 35.3393 48.2503 36.1174 46.1203 37.5722C43.9903 39.0269 42.3489 41.0906 41.4106 43.4932C40.4724 45.8959 40.281 48.5257 40.8615 51.0389C41.442 53.5521 42.7673 55.8317 44.6642 57.5795L46.4997 59.2704L49.9698 55.5046L48.1279 53.8137C47.3772 53.1204 46.772 52.2848 46.3473 51.3554C45.9226 50.4259 45.6871 49.4214 45.6543 48.4C45.6216 47.3787 45.7923 46.3611 46.1565 45.4064C46.5207 44.4517 47.0712 43.579 47.7759 42.839C48.129 42.4684 48.585 42.2122 49.0852 42.1034C49.5854 41.9946 50.1066 42.0382 50.5818 42.2286C51.0569 42.4191 51.464 42.7476 51.7505 43.1717C52.0371 43.5958 52.1899 44.0961 52.1893 44.608L52.1778 58.624L61.2351 58.6329Z" stroke="#45413C" stroke-linecap="round" stroke-linejoin="round"/>
<path d="M65.3229 35.3396C64.9835 35.3396 64.6579 35.2047 64.4178 34.9647C64.1778 34.7246 64.0429 34.3991 64.0429 34.0596V31.058H58.1524V34.0621C58.1524 34.4016 58.0175 34.7272 57.7775 34.9672C57.5374 35.2073 57.2119 35.3421 56.8724 35.3421H56.1172L61.2372 39.7325L66.3572 35.3421L65.3229 35.3396Z" fill="#B49556" stroke="#45413C" stroke-linecap="round" stroke-linejoin="round"/>
<path d="M48.3839 60.8883C48.8674 61.3332 49.5077 61.5678 50.1641 61.5406C50.8205 61.5133 51.4392 61.2265 51.8841 60.743C52.329 60.2596 52.5636 59.6193 52.5364 58.9629C52.5091 58.3065 52.2222 57.6878 51.7388 57.2429L49.9199 55.552L46.5625 59.1949L48.3839 60.8883Z" fill="#B49556" stroke="#45413C" stroke-linecap="round" stroke-linejoin="round"/>
<path d="M74.0803 60.8883C73.5969 61.3332 72.9566 61.5678 72.3002 61.5406C71.6438 61.5134 71.0251 61.2265 70.5802 60.7431C70.1353 60.2596 69.9007 59.6193 69.9279 58.9629C69.9552 58.3065 70.242 57.6878 70.7255 57.2429L72.552 55.5623L75.9031 59.1975L74.0803 60.8883Z" fill="#B49556" stroke="#45413C" stroke-linecap="round" stroke-linejoin="round"/>
<path d="M54.7468 33.92C54.8338 33.9033 54.9233 33.9047 55.0097 33.9243C55.096 33.9439 55.1774 33.9813 55.2486 34.0339C56.439 34.912 60.9151 38.9927 60.9151 38.9927L60.2751 40.0512C60.1886 40.1954 60.0488 40.2998 59.8859 40.3417C59.723 40.3836 59.5502 40.3597 59.4047 40.2752L51.5071 35.689C51.3946 35.6235 51.3047 35.5253 51.2494 35.4074C51.1942 35.2895 51.1762 35.1575 51.1979 35.0291C51.2196 34.9007 51.28 34.782 51.3709 34.6888C51.4618 34.5956 51.579 34.5324 51.7068 34.5075L54.7468 33.92Z" fill="#FF6242" stroke="#45413C" stroke-linecap="round" stroke-linejoin="round"/>
<path d="M67.7227 33.92C67.6357 33.9033 67.5462 33.9047 67.4599 33.9243C67.3735 33.9439 67.2921 33.9813 67.2209 34.0339C66.0305 34.912 61.5557 38.9927 61.5557 38.9927L62.1957 40.0512C62.2822 40.1954 62.422 40.2998 62.5849 40.3417C62.7478 40.3836 62.9207 40.3597 63.0661 40.2752L70.9637 35.689C71.0762 35.6235 71.1661 35.5253 71.2214 35.4074C71.2766 35.2895 71.2946 35.1575 71.2729 35.0291C71.2512 34.9007 71.1909 34.782 71.0999 34.6888C71.009 34.5956 70.8918 34.5324 70.764 34.5075L67.7227 33.92Z" fill="#FF6242" stroke="#45413C" stroke-linecap="round" stroke-linejoin="round"/>
<path d="M70.561 25.9494C70.5581 25.5645 70.4218 25.1925 70.1753 24.8967C69.9289 24.601 69.5875 24.3999 69.2094 24.3277V23.2461C69.2094 21.0951 68.3549 19.0323 66.834 17.5114C65.313 15.9904 63.2502 15.136 61.0993 15.136C58.9484 15.136 56.8855 15.9904 55.3646 17.5114C53.8436 19.0323 52.9892 21.0951 52.9892 23.2461V24.3277C52.5955 24.4021 52.2421 24.6167 51.9946 24.9318C51.747 25.2468 51.6221 25.6409 51.6429 26.041C51.6636 26.4412 51.8288 26.8202 52.1076 27.1079C52.3865 27.3956 52.7601 27.5725 53.1594 27.6057C53.5406 29.4295 54.5379 31.0665 55.9838 32.2415C57.4298 33.4165 59.2361 34.0579 61.0993 34.0579C62.9624 34.0579 64.7688 33.4165 66.2147 32.2415C67.6606 31.0665 68.658 29.4295 69.0391 27.6057C69.4531 27.5676 69.8381 27.377 70.1193 27.0709C70.4006 26.7648 70.558 26.3651 70.561 25.9494Z" fill="#B49556" stroke="#45413C" stroke-linecap="round" stroke-linejoin="round"/>
<path d="M55.6929 26.9632C55.6929 27.2321 55.7997 27.4899 55.9898 27.6801C56.1799 27.8702 56.4378 27.977 56.7066 27.977C56.9755 27.977 57.2334 27.8702 57.4235 27.6801C57.6136 27.4899 57.7204 27.2321 57.7204 26.9632C57.7204 26.6944 57.6136 26.4365 57.4235 26.2464C57.2334 26.0563 56.9755 25.9495 56.7066 25.9495C56.4378 25.9495 56.1799 26.0563 55.9898 26.2464C55.7997 26.4365 55.6929 26.6944 55.6929 26.9632Z" fill="#957F53"/>
<path d="M64.479 26.9632C64.479 27.2321 64.5858 27.4899 64.7759 27.6801C64.966 27.8702 65.2239 27.977 65.4928 27.977C65.7616 27.977 66.0195 27.8702 66.2096 27.6801C66.3997 27.4899 66.5065 27.2321 66.5065 26.9632C66.5065 26.6944 66.3997 26.4365 66.2096 26.2464C66.0195 26.0563 65.7616 25.9495 65.4928 25.9495C65.2239 25.9495 64.966 26.0563 64.7759 26.2464C64.5858 26.4365 64.479 26.6944 64.479 26.9632Z" fill="#957F53"/>
<path d="M69.8882 21.2185C69.8882 18.8884 68.9626 16.6536 67.3149 15.006C65.6672 13.3583 63.4325 12.4326 61.1023 12.4326C58.7722 12.4326 56.5374 13.3583 54.8897 15.006C53.2421 16.6536 52.3164 18.8884 52.3164 21.2185V23.9219C53.5383 23.1032 54.4894 21.94 55.0492 20.5798C55.2729 20.0311 55.6736 19.5729 56.1875 19.278C56.7014 18.983 57.2991 18.8681 57.8857 18.9517C60.0178 19.2703 62.1855 19.2703 64.3177 18.9517C64.9043 18.8686 65.5018 18.9836 66.0156 19.2786C66.5294 19.5735 66.9301 20.0314 67.1542 20.5798C67.7135 21.9406 68.6653 23.1041 69.8882 23.9219V21.2185Z" fill="#614B44"/>
<path d="M61.0999 12.4314C58.7696 12.4317 56.5349 13.3577 54.8872 15.0056C53.2396 16.6534 52.314 18.8883 52.314 21.2186V23.922L52.3408 23.9028C52.5175 21.701 53.517 19.6466 55.1401 18.1484C56.7632 16.6503 58.8911 15.8185 61.0999 15.8185C63.3087 15.8185 65.4365 16.6503 67.0597 18.1484C68.6828 19.6466 69.6822 21.701 69.8589 23.9028L69.8858 23.922V21.2186C69.8858 18.8883 68.9602 16.6534 67.3125 15.0056C65.6649 13.3577 63.4302 12.4317 61.0999 12.4314Z" fill="#947063"/>
<path d="M69.8882 21.2185C69.8882 18.8884 68.9626 16.6536 67.3149 15.006C65.6672 13.3583 63.4325 12.4326 61.1023 12.4326C58.7722 12.4326 56.5374 13.3583 54.8897 15.006C53.2421 16.6536 52.3164 18.8884 52.3164 21.2185V23.9219C53.5383 23.1032 54.4894 21.94 55.0492 20.5798C55.2729 20.0311 55.6736 19.5729 56.1875 19.278C56.7014 18.983 57.2991 18.8681 57.8857 18.9517C60.0178 19.2703 62.1855 19.2703 64.3177 18.9517C64.9043 18.8686 65.5018 18.9836 66.0156 19.2786C66.5294 19.5735 66.9301 20.0314 67.1542 20.5798C67.7135 21.9406 68.6653 23.1041 69.8882 23.9219V21.2185Z" stroke="#45413C" stroke-linecap="round" stroke-linejoin="round"/>
<path d="M59.0728 29.3901C59.6731 29.7907 60.3786 30.0044 61.1003 30.0044C61.822 30.0044 62.5275 29.7907 63.1278 29.3901" stroke="#45413C" stroke-linecap="round" stroke-linejoin="round"/>
<path d="M57.0337 24.4224C57.2496 24.2071 57.5422 24.0862 57.8471 24.0862C58.1521 24.0862 58.4446 24.2071 58.6606 24.4224" stroke="#45413C" stroke-linecap="round" stroke-linejoin="round"/>
<path d="M63.5391 24.4224C63.755 24.2071 64.0475 24.0862 64.3525 24.0862C64.6575 24.0862 64.95 24.2071 65.1659 24.4224" stroke="#45413C" stroke-linecap="round" stroke-linejoin="round"/>
</svg>

