<svg width="128" height="128" viewBox="0 0 128 128" fill="none" xmlns="http://www.w3.org/2000/svg">
<path d="M12.7998 68.7911C12.7998 82.3702 18.1941 95.3931 27.7959 104.995C37.3978 114.597 50.4207 119.991 63.9998 119.991C77.5789 119.991 90.6018 114.597 100.204 104.995C109.806 95.3931 115.2 82.3702 115.2 68.7911C115.2 55.212 109.806 42.1891 100.204 32.5872C90.6018 22.9853 77.5789 17.5911 63.9998 17.5911C50.4207 17.5911 37.3978 22.9853 27.7959 32.5872C18.1941 42.1891 12.7998 55.212 12.7998 68.7911V68.7911Z" fill="#C7F0FF"/>
<path d="M22.2402 98.4217C27.0015 105.13 33.3088 110.592 40.6282 114.347C47.9476 118.101 56.0638 120.037 64.2898 119.991C72.5158 119.944 80.6096 117.917 87.8861 114.08C95.1626 110.243 101.408 104.71 106.093 97.9481C104.782 87.7178 99.7734 78.3206 92.0115 71.5286C84.2496 64.7367 74.2709 61.0193 63.957 61.0776C53.6432 61.1358 43.7071 64.9657 36.0224 71.8449C28.3377 78.7241 23.4355 88.1772 22.2402 98.4217V98.4217Z" fill="#00DFEB"/>
<path d="M106.093 97.9481C104.782 87.7178 99.7734 78.3206 92.0115 71.5286C84.2496 64.7367 74.2709 61.0193 63.957 61.0776C53.6432 61.1358 43.7071 64.9657 36.0224 71.8449C28.3377 78.7241 23.4355 88.1772 22.2402 98.4217C23.4275 100.092 24.7136 101.69 26.0918 103.206C29.5249 96.0463 34.9055 89.9982 41.6171 85.7549C48.3288 81.5115 56.1 79.2447 64.0404 79.2139C71.9809 79.1832 79.7694 81.3899 86.5137 85.5811C93.258 89.7724 98.6852 95.7787 102.174 102.912C103.581 101.339 104.89 99.6817 106.093 97.9481V97.9481Z" fill="#4AEFF7"/>
<path d="M87.6709 89.17H97.2325C98.3795 89.1702 99.4988 88.8178 100.439 88.1604C101.379 87.503 102.094 86.5726 102.487 85.4951C99.9646 80.1024 96.3339 75.302 91.8316 71.4069C87.3293 67.5117 82.0565 64.6093 76.357 62.889H70.0761C68.7139 62.8574 67.3841 63.3063 66.3199 64.1571C65.2557 65.0079 64.525 66.2062 64.2559 67.5418C64.1202 68.344 64.1611 69.1662 64.3757 69.951C64.5904 70.7358 64.9736 71.4643 65.4987 72.0858C66.0238 72.7073 66.6781 73.2068 67.4161 73.5494C68.154 73.8921 68.9578 74.0697 69.7714 74.0698C70.4583 74.0683 71.1364 74.2248 71.7531 74.5271C72.3699 74.8295 72.9089 75.2696 73.3284 75.8135C73.748 76.3574 74.0369 76.9905 74.1727 77.6638C74.3085 78.3371 74.2877 79.0327 74.1119 79.6967C73.8335 80.6717 73.2401 81.527 72.4243 82.1291C71.6084 82.7312 70.6162 83.0461 69.6024 83.0247H53.6319C47.5749 83.0247 42.1477 87.5597 41.8316 93.6065C41.75 95.1236 41.9784 96.6414 42.5028 98.0673C43.0272 99.4932 43.8366 100.797 44.8817 101.9C45.9267 103.003 47.1855 103.881 48.5812 104.482C49.9769 105.082 51.4803 105.391 52.9996 105.391H59.5724C60.3502 105.392 61.0961 105.701 61.646 106.251C62.1959 106.801 62.5048 107.547 62.5048 108.325V110.705C62.5018 111.033 62.5638 111.359 62.6872 111.664C62.8106 111.968 62.993 112.245 63.2239 112.479C63.4548 112.713 63.7296 112.899 64.0326 113.026C64.3356 113.153 64.6607 113.219 64.9893 113.22C65.3224 113.216 65.653 113.278 65.962 113.403C66.2709 113.527 66.5521 113.712 66.7891 113.946C67.0261 114.18 67.2144 114.459 67.3429 114.766C67.4714 115.073 67.5377 115.403 67.5378 115.736V118.808C67.5539 119.178 67.4856 119.546 67.3381 119.885C73.3948 119.5 79.3337 118.034 84.8741 115.557V109.861C84.8724 108.748 85.1763 107.656 85.7525 106.704C86.3287 105.752 87.1553 104.977 88.142 104.462C89.4493 103.661 90.5293 102.537 91.2787 101.2C92.0281 99.8617 92.4218 98.354 92.4223 96.8206C92.4223 96.7187 92.3819 96.621 92.3098 96.549C92.2378 96.477 92.1401 96.4366 92.0383 96.4366H87.6709C87.0791 96.4366 86.5113 96.2021 86.092 95.7844C85.6726 95.3667 85.4359 94.7999 85.4335 94.2081V91.4074C85.4335 90.814 85.6692 90.2449 86.0888 89.8253C86.5084 89.4057 87.0775 89.17 87.6709 89.17V89.17Z" fill="#6DD627"/>
<path d="M106.093 97.9481C104.782 87.7178 99.7734 78.3206 92.0115 71.5286C84.2496 64.7367 74.2709 61.0193 63.957 61.0776C53.6432 61.1358 43.7071 64.9657 36.0224 71.8449C28.3377 78.724 23.4355 88.1772 22.2402 98.4217" stroke="#45413C" stroke-width="1.5" stroke-linecap="round" stroke-linejoin="round"/>
<path d="M52.3066 76.1689C52.3066 76.763 53.5541 77.3328 55.7745 77.7529C57.9949 78.1729 61.0065 78.4089 64.1466 78.4089C67.2868 78.4089 70.2984 78.1729 72.5188 77.7529C74.7392 77.3328 75.9866 76.763 75.9866 76.1689C75.9866 75.5749 74.7392 75.0051 72.5188 74.585C70.2984 74.165 67.2868 73.929 64.1466 73.929C61.0065 73.929 57.9949 74.165 55.7745 74.585C53.5541 75.0051 52.3066 75.5749 52.3066 76.1689Z" fill="#00DFEB"/>
<path d="M73.6577 80.2765C80.2134 81.7777 86.3143 84.8273 91.4497 89.1699H97.2315C98.3785 89.1702 99.4978 88.8177 100.438 88.1603C101.378 87.503 102.093 86.5725 102.486 85.4951C99.9637 80.1025 96.3332 75.3022 91.8311 71.4071C87.329 67.5119 82.0564 64.6095 76.3572 62.889H70.0763C68.7141 62.8574 67.3843 63.3063 66.3201 64.1571C65.2559 65.0078 64.5252 66.2061 64.2561 67.5418C64.1204 68.344 64.1613 69.1662 64.376 69.951C64.5906 70.7358 64.9738 71.4643 65.4989 72.0858C66.024 72.7073 66.6783 73.2067 67.4163 73.5494C68.1542 73.8921 68.958 74.0697 69.7716 74.0698C70.4585 74.0683 71.1366 74.2248 71.7533 74.5271C72.3701 74.8295 72.9091 75.2696 73.3287 75.8135C73.7482 76.3574 74.0371 76.9905 74.1729 77.6638C74.3088 78.3371 74.288 79.0327 74.1121 79.6967C74.059 79.9156 73.9875 80.1297 73.8983 80.3367" fill="#9CEB60"/>
<path d="M84.8741 115.556V109.86C84.8724 108.747 85.1763 107.655 85.7525 106.703C86.3287 105.751 87.1553 104.975 88.142 104.461C89.4493 103.659 90.5293 102.536 91.2787 101.198C92.0281 99.8604 92.4218 98.3527 92.4223 96.8193C92.4223 96.7174 92.3819 96.6198 92.3098 96.5477C92.2378 96.4757 92.1401 96.4353 92.0383 96.4353H87.6709C87.0793 96.4353 86.5117 96.201 86.0924 95.7836C85.6731 95.3662 85.4362 94.7997 85.4335 94.2081V91.4074C85.4335 90.814 85.6692 90.2449 86.0888 89.8253C86.5084 89.4057 87.0775 89.17 87.6709 89.17H97.2325C98.3795 89.1702 99.4988 88.8178 100.439 88.1604C101.379 87.503 102.094 86.5726 102.487 85.4951C99.9646 80.1024 96.3339 75.302 91.8316 71.4069C87.3293 67.5117 82.0565 64.6093 76.357 62.889H70.0761C68.7139 62.8574 67.3841 63.3063 66.3199 64.1571C65.2557 65.0079 64.525 66.2062 64.2559 67.5418C64.1202 68.344 64.1611 69.1662 64.3757 69.951C64.5904 70.7358 64.9736 71.4643 65.4987 72.0858C66.0238 72.7073 66.6781 73.2068 67.4161 73.5494C68.154 73.8921 68.9578 74.0697 69.7714 74.0698C70.4583 74.0683 71.1364 74.2248 71.7531 74.5271C72.3699 74.8295 72.9089 75.2696 73.3284 75.8135C73.748 76.3574 74.0369 76.9905 74.1727 77.6638C74.3085 78.3371 74.2877 79.0327 74.1119 79.6967C73.8335 80.6717 73.2401 81.527 72.4243 82.1291C71.6084 82.7312 70.6162 83.0461 69.6024 83.0247H53.6319C47.5749 83.0247 42.1477 87.5597 41.8316 93.6065C41.75 95.1236 41.9784 96.6414 42.5028 98.0673C43.0272 99.4932 43.8366 100.797 44.8817 101.9C45.9267 103.003 47.1855 103.881 48.5812 104.482C49.9769 105.082 51.4803 105.391 52.9996 105.391H59.5724C60.3502 105.392 61.0961 105.701 61.646 106.251C62.1959 106.801 62.5048 107.547 62.5048 108.325V110.705C62.5018 111.033 62.5638 111.359 62.6872 111.664C62.8106 111.968 62.993 112.245 63.2239 112.479C63.4548 112.713 63.7296 112.899 64.0326 113.026C64.3356 113.153 64.6607 113.219 64.9893 113.22C65.3224 113.216 65.653 113.278 65.962 113.403C66.2709 113.527 66.5521 113.712 66.7891 113.946C67.0261 114.18 67.2144 114.459 67.3429 114.766C67.4714 115.073 67.5377 115.403 67.5378 115.736V118.808C67.5539 119.178 67.4856 119.546 67.3381 119.885" stroke="#45413C" stroke-width="1.5" stroke-linecap="round" stroke-linejoin="round"/>
<path d="M64.4655 8.00903C57.4853 8.01175 50.7918 10.7858 45.8561 15.7215C40.9203 20.6573 38.1463 27.3508 38.1436 34.331C38.1436 46.4398 56.4386 67.6033 62.5186 74.3412C62.7669 74.6145 63.0696 74.8329 63.4073 74.9823C63.745 75.1317 64.1102 75.2089 64.4795 75.2089C64.8488 75.2089 65.214 75.1317 65.5517 74.9823C65.8894 74.8329 66.1922 74.6145 66.4405 74.3412C72.5218 67.6033 90.7886 46.4372 90.7886 34.331C90.7896 30.8739 90.1094 27.4506 88.7869 24.2565C87.4644 21.0624 85.5255 18.1603 83.0809 15.7158C80.6364 13.2714 77.7341 11.3326 74.54 10.0102C71.3459 8.68788 67.9225 8.00786 64.4655 8.00903V8.00903Z" fill="white"/>
<path d="M64.4655 8.00903C57.4853 8.01175 50.7918 10.7858 45.8561 15.7215C40.9203 20.6573 38.1463 27.3508 38.1436 34.331C38.1436 46.4398 56.4386 67.6033 62.5186 74.3412C62.7669 74.6145 63.0696 74.8329 63.4073 74.9823C63.745 75.1317 64.1102 75.2089 64.4795 75.2089C64.8488 75.2089 65.214 75.1317 65.5517 74.9823C65.8894 74.8329 66.1922 74.6145 66.4405 74.3412C72.5218 67.6033 90.7886 46.4372 90.7886 34.331C90.7896 30.8739 90.1094 27.4506 88.7869 24.2565C87.4644 21.0624 85.5255 18.1603 83.0809 15.7158C80.6364 13.2714 77.7341 11.3326 74.54 10.0102C71.3459 8.68788 67.9225 8.00786 64.4655 8.00903V8.00903Z" stroke="#45413C" stroke-width="1.5" stroke-linecap="round" stroke-linejoin="round"/>
<g clip-path="url(#clip0)">
<path d="M65.8892 39.3837C65.8892 40.4678 64.9506 41.1453 64.1192 41.1453C63.2879 41.1453 62.2905 40.8085 62.2905 39.3837V38.6907H61.1953V39.3837C61.1953 40.9616 62.5075 42.245 64.1192 42.245C65.7309 42.245 67.0431 40.9616 67.0431 39.3837V38.6907H65.8892V39.3837Z" fill="#130B43"/>
<path d="M56.6912 36.0375C56.6912 35.0021 57.5891 34.1602 58.6923 34.1602C59.7948 34.1602 60.6927 35.0028 60.6927 36.0375H61.9532C61.9532 34.3494 60.4911 32.9766 58.6923 32.9766C56.8935 32.9766 55.4307 34.3494 55.4307 36.0375H56.6912Z" fill="#130B43"/>
<path d="M67.0789 36.0375C67.0789 35.0021 67.9768 34.1602 69.0793 34.1602C70.1825 34.1602 71.0804 35.0028 71.0804 36.0375H72.3409C72.3409 34.3494 70.8781 32.9766 69.0793 32.9766C67.2805 32.9766 65.8184 34.3494 65.8184 36.0375H67.0789Z" fill="#130B43"/>
<path fill-rule="evenodd" clip-rule="evenodd" d="M74.3745 32.0219V27.9533C74.3745 26.5822 74.2078 25.6308 73.8744 25.0993C73.5411 24.5677 72.847 24.1579 71.7921 23.8697C71.4737 23.7803 71.3145 23.6363 71.3145 23.4375C71.3145 23.1693 71.6727 23.0352 72.3892 23.0352H73.4789C74.6631 23.0352 75.5612 23.4028 76.1732 24.138C76.7852 24.8732 77.0912 25.9463 77.0912 27.3572V31.6493C77.0912 32.6429 77.1982 33.4079 77.4121 33.9445C77.6261 34.481 78.0216 34.9827 78.5988 35.4497C78.768 35.5888 78.8526 35.7031 78.8526 35.7925C78.8526 35.8819 78.768 35.9962 78.5988 36.1353C78.0117 36.6122 77.6136 37.1164 77.4047 37.648C77.1957 38.1795 77.0912 38.9421 77.0912 39.9356V44.2129C77.0912 45.6337 76.7827 46.7117 76.1657 47.447C75.5487 48.1822 74.6531 48.5498 73.4789 48.5498H72.3892C71.9215 48.5498 71.6254 48.5275 71.501 48.4828C71.3766 48.438 71.3145 48.3263 71.3145 48.1474C71.3145 47.899 71.4786 47.7351 71.807 47.6556L72.4041 47.5215C73.7177 47.2234 74.3745 45.9268 74.3745 43.6317V39.5631C74.3745 38.023 74.7476 36.9351 75.494 36.2992L75.7776 36.0608C75.9169 35.9415 75.9866 35.8521 75.9866 35.7925C75.9866 35.7229 75.9169 35.6335 75.7776 35.5242L75.494 35.2858C74.7476 34.6499 74.3745 33.562 74.3745 32.0219Z" fill="#130B43"/>
<path fill-rule="evenodd" clip-rule="evenodd" d="M53.6783 31.9868V27.9181C53.6783 26.547 53.8449 25.5957 54.1783 25.0641C54.5117 24.5326 55.2058 24.1227 56.2606 23.8346C56.5791 23.7452 56.7383 23.6011 56.7383 23.4024C56.7383 23.1341 56.38 23 55.6635 23H54.5739C53.3897 23 52.4916 23.3676 51.8796 24.1029C51.2676 24.8381 50.9616 25.9111 50.9616 27.322V31.6142C50.9616 32.6077 50.8546 33.3728 50.6406 33.9093C50.4267 34.4458 50.0311 34.9476 49.4539 35.4146C49.2848 35.5537 49.2002 35.6679 49.2002 35.7573C49.2002 35.8468 49.2848 35.961 49.4539 36.1001C50.0411 36.577 50.4391 37.0813 50.6481 37.6128C50.8571 38.1444 50.9616 38.9069 50.9616 39.9005V44.1778C50.9616 45.5986 51.27 46.6766 51.887 47.4118C52.504 48.1471 53.3996 48.5147 54.5739 48.5147H55.6635C56.1313 48.5147 56.4273 48.4923 56.5517 48.4476C56.6761 48.4029 56.7383 48.2911 56.7383 48.1123C56.7383 47.8639 56.5741 47.6999 56.2457 47.6205L55.6486 47.4863C54.335 47.1883 53.6783 45.8917 53.6783 43.5965V39.5279C53.6783 37.9879 53.3051 36.8999 52.5587 36.2641L52.2751 36.0256C52.1358 35.9064 52.0661 35.8169 52.0661 35.7573C52.0661 35.6878 52.1358 35.5984 52.2751 35.4891L52.5587 35.2506C53.3051 34.6147 53.6783 33.5268 53.6783 31.9868Z" fill="#130B43"/>
</g>
<defs>
<clipPath id="clip0">
<rect width="29.6673" height="25.6" fill="white" transform="translate(49.2002 23)"/>
</clipPath>
</defs>
</svg>

