<svg width="226" height="207" viewBox="0 0 226 207" fill="none" xmlns="http://www.w3.org/2000/svg">
<path d="M96.4355 206.73L96.4798 175.404L127.806 175.448L127.762 206.774L96.4355 206.73Z" fill="#DAEDF7"/>
<path d="M96.4512 191.069L96.4733 175.406L127.799 175.45L127.777 191.113L96.4512 191.069Z" fill="#C0DCEB"/>
<path d="M3.36719 3.54028H222.629V175.82H3.36719V3.54028Z" fill="#00B8F0"/>
<path d="M29.7577 175.814H26.8545C20.6242 175.814 14.6492 173.339 10.2437 168.933C5.83825 164.528 3.36329 158.553 3.36329 152.322V27.0448C3.36068 23.9582 3.96637 20.9014 5.14574 18.049C6.32511 15.1966 8.05505 12.6046 10.2367 10.4211C12.4183 8.23767 15.0088 6.50554 17.8602 5.32375C20.7116 4.14197 23.7679 3.53369 26.8545 3.53369H199.148L29.7577 175.814Z" fill="#4ACFFF"/>
<path fill-rule="evenodd" clip-rule="evenodd" d="M0.0546875 3.5403C0.0546875 1.7099 1.53851 0.226074 3.36891 0.226074H222.631C224.461 0.226074 225.945 1.7099 225.945 3.5403V175.82C225.945 177.651 224.461 179.134 222.631 179.134H3.36891C1.53851 179.134 0.0546875 177.651 0.0546875 175.82V3.5403ZM6.68313 6.85452V172.506H219.317V6.85452H6.68313Z" fill="#45413C"/>
<path d="M93.007 132.179C92.2068 132.179 91.4174 131.995 90.6995 131.642C89.9816 131.288 89.3543 130.775 88.866 130.141C88.3711 129.514 88.0282 128.78 87.8642 127.998C87.7001 127.216 87.7194 126.407 87.9204 125.633C89.3697 120.027 92.6405 115.061 97.219 111.515C101.797 107.97 107.424 106.046 113.215 106.046C119.005 106.046 124.632 107.97 129.211 111.515C133.789 115.061 137.06 120.027 138.509 125.633C138.71 126.407 138.729 127.216 138.565 127.998C138.401 128.78 138.058 129.514 137.564 130.141C137.075 130.775 136.448 131.288 135.73 131.642C135.012 131.995 134.223 132.179 133.423 132.179C126.769 130.757 120.011 129.883 113.215 129.566C106.419 129.883 99.6602 130.757 93.007 132.179Z" fill="#FFA694" stroke="#45413C" stroke-width="1.5" stroke-linecap="round" stroke-linejoin="round"/>
<path d="M163.791 96.367C162.701 96.3698 161.622 96.1565 160.616 95.7392C159.61 95.322 158.696 94.7092 157.929 93.9365L150.893 86.8711L143.828 93.9365C143.058 94.7067 142.144 95.3177 141.138 95.7346C140.133 96.1514 139.055 96.366 137.966 96.366C136.877 96.366 135.799 96.1514 134.793 95.7346C133.787 95.3177 132.873 94.7067 132.104 93.9365C130.553 92.3799 129.682 90.272 129.682 88.0745C129.682 85.8769 130.553 83.769 132.104 82.2125L139.175 75.1531L132.104 68.0817C130.55 66.527 129.677 64.4187 129.678 62.2206C129.678 60.0225 130.552 57.9146 132.107 56.3607C133.661 54.8068 135.77 53.9342 137.968 53.9347C140.166 53.9353 142.274 54.809 143.828 56.3637L150.893 63.3993L157.958 56.3399C159.512 54.7852 161.62 53.9114 163.818 53.9109C166.016 53.9103 168.125 54.783 169.679 56.3369C171.234 57.8908 172.108 59.9987 172.108 62.1968C172.109 64.3949 171.236 66.5032 169.682 68.0579L162.617 75.1292L169.682 82.1886C170.841 83.3484 171.631 84.8256 171.95 86.4338C172.27 88.0419 172.106 89.7087 171.478 91.2236C170.851 92.7384 169.789 94.0333 168.426 94.9445C167.063 95.8558 165.46 96.3425 163.82 96.3432L163.791 96.367Z" fill="white" stroke="#45413C" stroke-width="1.5" stroke-linecap="round" stroke-linejoin="round"/>
<path d="M87.0353 96.367C85.9459 96.3705 84.8666 96.1574 83.8603 95.7401C82.8539 95.3229 81.9406 94.7098 81.1733 93.9364L74.1079 86.8711L67.0426 93.9364C65.4753 95.4291 63.3866 96.2498 61.2224 96.2234C59.0583 96.197 56.9902 95.3256 55.4598 93.7952C53.9294 92.2648 53.058 90.1967 53.0316 88.0326C53.0052 85.8684 53.8259 83.7797 55.3186 82.2125L62.3839 75.1531L55.3186 68.0817C53.7647 66.527 52.892 64.4187 52.8926 62.2206C52.8931 60.0225 53.7669 57.9146 55.3215 56.3607C56.8762 54.8068 58.9846 53.9342 61.1827 53.9347C63.3808 53.9353 65.4887 54.809 67.0426 56.3637L74.1079 63.3993L81.1733 56.3399C82.7272 54.7852 84.835 53.9114 87.0331 53.9109C89.2313 53.9103 91.3396 54.783 92.8942 56.3369C94.4489 57.8908 95.3227 59.9987 95.3232 62.1968C95.3238 64.3949 94.4511 66.5032 92.8972 68.0579L85.8259 75.1292L92.8972 82.1886C94.4484 83.7452 95.3194 85.8531 95.3194 88.0506C95.3194 90.2481 94.4484 92.356 92.8972 93.9126C92.1319 94.6902 91.2194 95.3077 90.213 95.7291C89.2066 96.1505 88.1263 96.3674 87.0353 96.367Z" fill="white" stroke="#45413C" stroke-width="1.5" stroke-linecap="round" stroke-linejoin="round"/>
</svg>

