<svg width="413" height="280" viewBox="0 0 413 280" fill="none" xmlns="http://www.w3.org/2000/svg">
<ellipse opacity="0.15" cx="147.592" cy="260.542" rx="133.356" ry="19.4576" fill="#6A93FF"/>
<g clip-path="url(#clip0)">
<path d="M135.373 152.18L146.101 142.046L184.098 182.271L173.37 192.404L135.373 152.18Z" fill="white"/>
<path fill-rule="evenodd" clip-rule="evenodd" d="M134.238 153.252C133.646 152.625 133.674 151.637 134.301 151.045L145.028 140.911C145.655 140.319 146.643 140.347 147.235 140.974L185.233 181.199C185.825 181.825 185.797 182.813 185.17 183.406L174.442 193.539C173.816 194.131 172.827 194.103 172.235 193.476L134.238 153.252ZM137.58 152.242L173.433 190.197L181.891 182.208L146.038 144.253L137.58 152.242Z" fill="#45413C"/>
<path d="M40.7285 192.851L60.2487 141.075L74.0569 146.281L54.5367 198.057L40.7285 192.851Z" fill="white"/>
<path fill-rule="evenodd" clip-rule="evenodd" d="M40.1777 194.312C39.3709 194.008 38.9634 193.107 39.2676 192.3L58.7877 140.524C59.0919 139.717 59.9926 139.31 60.7994 139.614L74.6075 144.82C75.4143 145.124 75.8218 146.025 75.5176 146.832L55.9974 198.608C55.6933 199.415 54.7926 199.822 53.9858 199.518L40.1777 194.312ZM42.7401 191.941L53.6265 196.045L72.0451 147.191L61.1587 143.087L42.7401 191.941Z" fill="#45413C"/>
<path d="M52.2734 162.235L65.6845 168.486L74.059 146.279L60.2514 141.074L52.2734 162.235Z" fill="#E0E0E0"/>
<path d="M135.375 152.181L146.101 142.048L161.036 157.861L150.778 168.486L135.375 152.181Z" fill="#E0E0E0"/>
<path fill-rule="evenodd" clip-rule="evenodd" d="M134.238 153.252C133.646 152.625 133.674 151.637 134.301 151.045L145.028 140.911C145.655 140.319 146.643 140.347 147.235 140.974L185.233 181.199C185.825 181.825 185.797 182.813 185.17 183.406L174.442 193.539C173.816 194.131 172.827 194.103 172.235 193.476L134.238 153.252ZM137.58 152.242L173.433 190.197L181.891 182.208L146.038 144.253L137.58 152.242Z" fill="#45413C"/>
<path fill-rule="evenodd" clip-rule="evenodd" d="M40.1777 194.312C39.3709 194.008 38.9634 193.107 39.2676 192.3L58.7877 140.524C59.0919 139.717 59.9926 139.31 60.7994 139.614L74.6075 144.82C75.4143 145.124 75.8218 146.025 75.5176 146.832L55.9974 198.608C55.6933 199.415 54.7926 199.822 53.9858 199.518L40.1777 194.312ZM42.7401 191.941L53.6265 196.045L72.0451 147.191L61.1587 143.087L42.7401 191.941Z" fill="#45413C"/>
<path d="M96.5117 130.989L96.5326 116.232L111.289 116.253L111.269 131.01L96.5117 130.989Z" fill="#DAEDF7"/>
<path d="M96.5195 123.612L96.53 116.233L111.287 116.254L111.276 123.632L96.5195 123.612Z" fill="#C0DCEB"/>
<path fill-rule="evenodd" clip-rule="evenodd" d="M96.5085 132.55C95.6463 132.549 94.9483 131.849 94.9495 130.987L94.9703 116.23C94.9716 115.368 95.6715 114.67 96.5338 114.671L111.291 114.692C112.153 114.693 112.851 115.393 112.85 116.255L112.829 131.012C112.828 131.874 112.128 132.572 111.265 132.571L96.5085 132.55ZM98.0742 129.43L109.709 129.446L109.725 117.812L98.0906 117.796L98.0742 129.43Z" fill="#45413C"/>
<path d="M74.3008 186.294L74.379 130.96L133.403 131.044L133.325 186.377L74.3008 186.294Z" fill="white"/>
<path fill-rule="evenodd" clip-rule="evenodd" d="M74.2976 187.855C73.4353 187.854 72.7373 187.154 72.7385 186.292L72.8168 130.958C72.818 130.096 73.518 129.398 74.3802 129.399L133.405 129.483C134.267 129.484 134.965 130.184 134.964 131.046L134.885 186.38C134.884 187.242 134.184 187.94 133.322 187.939L74.2976 187.855ZM75.8632 184.735L131.765 184.814L131.839 132.603L75.937 132.524L75.8632 184.735Z" fill="#45413C"/>
<path d="M92.748 186.344H114.865V208.476H92.748V186.344Z" fill="#DAEDF7"/>
<path d="M92.7441 197.386L92.7598 186.32L114.876 186.351L114.861 197.417L92.7441 197.386Z" fill="#C0DCEB"/>
<path fill-rule="evenodd" clip-rule="evenodd" d="M92.7273 210.016C91.865 210.014 91.167 209.314 91.1683 208.452L91.1999 186.32C91.2012 185.458 91.9012 184.76 92.7634 184.761L114.88 184.793C115.742 184.794 116.44 185.494 116.439 186.356L116.407 208.488C116.406 209.351 115.706 210.049 114.844 210.047L92.7273 210.016ZM94.293 206.895L113.287 206.923L113.314 187.913L94.3202 187.886L94.293 206.895Z" fill="#45413C"/>
<path d="M118.608 156.846C118.607 157.815 118.415 158.774 118.043 159.668C117.671 160.563 117.126 161.375 116.44 162.059C115.754 162.743 114.94 163.285 114.045 163.655C113.149 164.024 112.189 164.213 111.22 164.212L96.4636 164.193C95.4947 164.191 94.5355 163.999 93.641 163.627C92.7464 163.254 91.9339 162.709 91.2499 162.023C90.5659 161.337 90.0238 160.522 89.6545 159.627C89.2852 158.731 89.096 157.771 89.0977 156.802L89.1351 130.982L118.646 131.023L118.608 156.846Z" fill="#00B8F0"/>
<path d="M113.722 131.017L89.0977 155.55L89.1351 130.982L113.722 131.017Z" fill="#4ACFFF"/>
<path fill-rule="evenodd" clip-rule="evenodd" d="M87.5726 130.98C87.5739 130.118 88.2738 129.42 89.136 129.421L118.647 129.461C119.061 129.462 119.458 129.627 119.75 129.92C120.042 130.214 120.206 130.611 120.206 131.025L120.168 156.848C120.168 156.848 120.168 156.848 120.168 156.848C120.167 158.021 119.934 159.184 119.483 160.268C119.033 161.351 118.373 162.336 117.541 163.165C116.71 163.994 115.724 164.651 114.638 165.098C113.553 165.546 112.391 165.775 111.217 165.773C111.217 165.773 111.217 165.773 111.217 165.773L96.4604 165.754C95.2864 165.752 94.1236 165.519 93.0398 165.068C91.9559 164.617 90.9716 163.957 90.1428 163.125C89.3141 162.294 88.6573 161.307 88.2099 160.222C87.7625 159.136 87.5332 157.974 87.5352 156.8L87.5726 130.98ZM90.6928 132.546L90.6577 156.804C90.6564 157.568 90.8055 158.325 91.0967 159.032C91.3878 159.738 91.8152 160.38 92.3545 160.921C92.8938 161.462 93.5343 161.892 94.2396 162.185C94.9449 162.479 95.7011 162.63 96.465 162.632L111.221 162.65C111.985 162.652 112.742 162.503 113.448 162.211C114.154 161.92 114.796 161.493 115.337 160.954C115.878 160.414 116.307 159.774 116.6 159.069C116.893 158.364 117.045 157.607 117.046 156.844L117.081 132.582L90.6928 132.546Z" fill="#45413C"/>
<path d="M124.899 208.498C126.08 208.5 127.243 208.785 128.291 209.329C129.339 209.873 130.241 210.661 130.921 211.627C131.601 212.592 132.039 213.706 132.199 214.876C132.36 216.046 132.237 217.237 131.841 218.349C129.795 224.099 126.017 229.074 121.028 232.589C116.039 236.104 110.083 237.987 103.98 237.978C97.8766 237.969 91.9262 236.069 86.9472 232.54C81.9682 229.01 78.2053 224.024 76.1762 218.268C75.7865 217.155 75.6693 215.965 75.8343 214.797C75.9993 213.629 76.4417 212.518 77.1245 211.556C77.8073 210.594 78.7106 209.81 79.7587 209.27C80.8069 208.729 81.9693 208.447 83.1487 208.448L124.899 208.498Z" fill="white"/>
<path fill-rule="evenodd" clip-rule="evenodd" d="M83.1475 210.009C82.2178 210.009 81.3015 210.231 80.4753 210.657C79.6488 211.083 78.9366 211.702 78.3982 212.46C77.8598 213.218 77.511 214.094 77.3809 215.015C77.2509 215.936 77.3431 216.874 77.6499 217.751C79.5719 223.202 83.1355 227.923 87.8508 231.266C92.5665 234.609 98.2023 236.408 103.983 236.417C109.763 236.425 115.404 234.642 120.13 231.313C124.855 227.984 128.433 223.272 130.371 217.826C130.683 216.949 130.78 216.01 130.653 215.088C130.527 214.165 130.181 213.287 129.645 212.526C129.109 211.765 128.398 211.144 127.572 210.714C126.746 210.285 125.829 210.061 124.898 210.059C124.898 210.059 124.898 210.059 124.898 210.059L83.1475 210.009ZM79.0436 207.882C80.3134 207.227 81.7217 206.886 83.1505 206.887L124.902 206.937C126.333 206.939 127.742 207.284 129.012 207.944C130.281 208.603 131.374 209.558 132.198 210.727C133.022 211.897 133.553 213.247 133.747 214.664C133.941 216.082 133.792 217.525 133.312 218.873C131.158 224.927 127.181 230.165 121.928 233.866C116.675 237.566 110.404 239.549 103.978 239.539C97.5523 239.53 91.2873 237.529 86.045 233.813C80.8027 230.097 76.8408 224.848 74.7045 218.787L74.7033 218.784C74.2313 217.435 74.0892 215.993 74.2891 214.578C74.489 213.164 75.025 211.817 75.8522 210.652C76.6794 209.487 77.7738 208.537 79.0436 207.882Z" fill="#45413C"/>
<path d="M133.42 156.867L148.177 156.886C149.63 156.888 151.069 156.604 152.413 156.05C153.756 155.496 154.977 154.682 156.006 153.656C157.035 152.63 157.852 151.411 158.41 150.069C158.968 148.728 159.256 147.289 159.259 145.836V142.148C159.263 139.213 158.101 136.396 156.029 134.317C153.956 132.239 151.143 131.068 148.208 131.063H140.83C139.861 131.062 138.901 131.251 138.005 131.62C137.109 131.99 136.295 132.532 135.609 133.217C134.922 133.901 134.378 134.714 134.006 135.609C133.634 136.504 133.443 137.463 133.442 138.432L133.42 156.867Z" fill="white"/>
<path fill-rule="evenodd" clip-rule="evenodd" d="M137.41 130.177C138.495 129.73 139.657 129.5 140.831 129.502C140.832 129.502 140.831 129.502 140.831 129.502H148.211C151.56 129.508 154.77 130.843 157.135 133.215C159.499 135.587 160.825 138.801 160.82 142.15M148.175 158.447C148.175 158.447 148.175 158.447 148.175 158.447V158.447ZM131.881 138.431C131.881 138.431 131.881 138.431 131.881 138.431V138.431ZM140.827 132.624C140.063 132.623 139.307 132.772 138.6 133.064C137.894 133.355 137.252 133.783 136.711 134.322C136.171 134.862 135.741 135.502 135.448 136.208C135.155 136.913 135.004 137.67 135.003 138.434L134.983 155.308L148.179 155.325C149.427 155.327 150.664 155.083 151.818 154.607C152.972 154.131 154.02 153.432 154.904 152.551C155.788 151.669 156.49 150.622 156.969 149.47C157.448 148.318 157.696 147.083 157.698 145.835C157.698 145.834 157.698 145.835 157.698 145.835L157.698 142.146C157.701 139.625 156.703 137.205 154.923 135.42C153.143 133.634 150.728 132.629 148.207 132.624L140.827 132.624Z" fill="#45413C"/>
<path d="M175.832 185.238L203.569 155.442L214.37 165.497L186.633 195.293L175.832 185.238Z" fill="white"/>
<path fill-rule="evenodd" clip-rule="evenodd" d="M174.768 186.381C174.137 185.793 174.101 184.805 174.689 184.174L202.426 154.379C203.014 153.747 204.001 153.712 204.633 154.3L215.434 164.355C216.065 164.942 216.1 165.93 215.513 166.561L187.775 196.357C187.188 196.988 186.2 197.023 185.569 196.436L174.768 186.381ZM178.038 185.159L186.554 193.086L212.163 165.576L203.648 157.649L178.038 185.159Z" fill="#45413C"/>
<path d="M243.396 136.097C243.685 136.05 243.981 136.065 244.265 136.139C244.549 136.214 244.813 136.348 245.042 136.532C245.271 136.715 245.458 136.945 245.593 137.206C245.727 137.466 245.805 137.752 245.822 138.045C246.056 142.185 245.113 146.307 243.102 149.933C241.091 153.56 238.095 156.543 234.46 158.538C230.825 160.533 226.699 161.458 222.56 161.207C218.421 160.955 214.438 159.537 211.071 157.116C207.705 154.695 205.092 151.371 203.536 147.528C201.979 143.684 201.543 139.479 202.276 135.398C203.01 131.316 204.884 127.526 207.681 124.465C210.479 121.405 214.086 119.199 218.085 118.102C218.368 118.025 218.664 118.008 218.954 118.053C219.243 118.097 219.521 118.202 219.768 118.361C220.014 118.519 220.225 118.727 220.387 118.972C220.548 119.217 220.656 119.493 220.705 119.782L221.726 126.027C221.806 126.519 221.708 127.024 221.448 127.45C221.189 127.876 220.786 128.195 220.311 128.35C218.292 129.011 216.495 130.218 215.119 131.837C213.744 133.457 212.844 135.426 212.519 137.525C212.194 139.625 212.457 141.774 213.278 143.733C214.099 145.693 215.447 147.387 217.172 148.627C218.897 149.868 220.932 150.607 223.051 150.761C225.17 150.916 227.291 150.481 229.178 149.505C231.065 148.528 232.645 147.049 233.742 145.229C234.84 143.41 235.412 141.322 235.396 139.197C235.392 138.698 235.566 138.214 235.888 137.833C236.21 137.451 236.658 137.198 237.151 137.118L243.396 136.097Z" fill="#656769"/>
<path fill-rule="evenodd" clip-rule="evenodd" d="M218.715 119.596C218.641 119.585 218.566 119.589 218.494 119.608C214.78 120.627 211.431 122.676 208.833 125.519C206.234 128.362 204.493 131.883 203.812 135.674C203.13 139.465 203.536 143.371 204.981 146.942C206.427 150.512 208.854 153.6 211.982 155.848C215.109 158.097 218.809 159.414 222.654 159.648C226.499 159.882 230.331 159.023 233.708 157.169C237.084 155.316 239.868 152.545 241.735 149.176C243.603 145.808 244.479 141.98 244.262 138.135C244.258 138.06 244.238 137.987 244.204 137.921C244.169 137.854 244.121 137.796 244.063 137.749C244.005 137.702 243.937 137.668 243.865 137.649C243.793 137.63 243.718 137.626 243.645 137.638C243.644 137.638 243.645 137.638 243.645 137.638L237.399 138.659C237.275 138.679 237.162 138.743 237.08 138.84C236.999 138.936 236.955 139.058 236.956 139.184C236.974 141.597 236.324 143.969 235.078 146.036C233.831 148.102 232.037 149.783 229.894 150.891C227.751 152 225.343 152.494 222.936 152.318C220.529 152.143 218.219 151.304 216.259 149.895C214.3 148.486 212.77 146.562 211.837 144.337C210.904 142.111 210.606 139.671 210.975 137.287C211.344 134.902 212.366 132.666 213.928 130.827C215.49 128.987 217.531 127.617 219.824 126.866L219.826 126.865C219.946 126.826 220.048 126.746 220.114 126.638C220.179 126.531 220.204 126.403 220.184 126.279C220.184 126.279 220.184 126.279 220.184 126.279L219.163 120.039C219.163 120.038 219.163 120.039 219.163 120.039C219.151 119.965 219.123 119.893 219.082 119.831C219.041 119.769 218.987 119.715 218.924 119.675C218.86 119.634 218.789 119.607 218.715 119.596ZM217.674 116.595C218.168 116.461 218.684 116.432 219.189 116.51C219.695 116.587 220.179 116.77 220.609 117.046C221.039 117.322 221.407 117.685 221.689 118.112C221.97 118.539 222.159 119.021 222.243 119.525L222.244 119.53L223.265 125.775C223.406 126.635 223.234 127.517 222.781 128.262C222.328 129.006 221.623 129.563 220.795 129.834M217.674 116.595L217.671 116.596L217.674 116.595ZM217.671 116.596C213.387 117.771 209.524 120.134 206.528 123.412L217.671 116.596ZM206.528 123.412C203.531 126.69 201.524 130.75 200.738 135.121L206.528 123.412ZM220.795 129.834C219.051 130.405 217.497 131.448 216.308 132.848C215.119 134.248 214.342 135.949 214.061 137.764C213.78 139.579 214.007 141.436 214.717 143.13C215.426 144.824 216.591 146.288 218.082 147.36C219.573 148.432 221.332 149.07 223.164 149.204C224.995 149.338 226.828 148.962 228.459 148.118C230.09 147.274 231.456 145.995 232.404 144.423C233.353 142.851 233.847 141.047 233.833 139.211M243.145 134.556C243.651 134.474 244.167 134.499 244.662 134.63C245.157 134.761 245.619 134.994 246.018 135.314C246.418 135.635 246.745 136.036 246.979 136.491C247.214 136.946 247.35 137.445 247.379 137.956C247.63 142.39 246.62 146.806 244.466 150.69C242.313 154.575 239.104 157.77 235.21 159.907C231.316 162.044 226.897 163.035 222.464 162.765C218.031 162.495 213.765 160.976 210.159 158.384C206.553 155.791 203.754 152.23 202.087 148.114C200.42 143.997 199.953 139.493 200.738 135.121M243.145 134.556L243.143 134.556L243.145 134.556ZM243.143 134.556L236.9 135.577L243.143 134.556ZM236.9 135.577C236.039 135.716 235.256 136.159 234.694 136.826C234.132 137.492 233.826 138.339 233.833 139.211M236.9 135.577C236.9 135.577 236.9 135.577 236.9 135.577V135.577Z" fill="#45413C"/>
<path d="M202.291 157.42C202.291 160.355 203.457 163.17 205.532 165.245C207.607 167.32 210.422 168.486 213.357 168.486C216.292 168.486 219.107 167.32 221.182 165.245C223.257 163.17 224.423 160.355 224.423 157.42C224.423 154.485 223.257 151.67 221.182 149.595C219.107 147.52 216.292 146.354 213.357 146.354C210.422 146.354 207.607 147.52 205.532 149.595C203.457 151.67 202.291 154.485 202.291 157.42Z" fill="#F0F0F0"/>
<path fill-rule="evenodd" clip-rule="evenodd" d="M204.427 148.491C206.795 146.123 210.007 144.793 213.356 144.793C216.705 144.793 219.917 146.123 222.285 148.491C224.653 150.86 225.983 154.071 225.983 157.42C225.983 160.769 224.653 163.981 222.285 166.349C219.917 168.717 216.705 170.048 213.356 170.048C210.007 170.048 206.795 168.717 204.427 166.349C202.059 163.981 200.729 160.769 200.729 157.42C200.729 154.071 202.059 150.86 204.427 148.491ZM213.356 147.915C210.835 147.915 208.417 148.917 206.635 150.699C204.852 152.482 203.851 154.899 203.851 157.42C203.851 159.941 204.852 162.359 206.635 164.141C208.417 165.924 210.835 166.925 213.356 166.925C215.877 166.925 218.294 165.924 220.077 164.141C221.859 162.359 222.861 159.941 222.861 157.42C222.861 154.899 221.859 152.482 220.077 150.699C218.294 148.917 215.877 147.915 213.356 147.915Z" fill="#45413C"/>
<path d="M167.953 191.193C167.953 194.128 169.119 196.943 171.194 199.018C173.27 201.093 176.084 202.259 179.019 202.259C181.954 202.259 184.769 201.093 186.844 199.018C188.919 196.943 190.085 194.128 190.085 191.193C190.085 188.258 188.919 185.443 186.844 183.368C184.769 181.293 181.954 180.127 179.019 180.127C176.084 180.127 173.27 181.293 171.194 183.368C169.119 185.443 167.953 188.258 167.953 191.193Z" fill="white"/>
<path fill-rule="evenodd" clip-rule="evenodd" d="M170.089 182.264C172.457 179.896 175.669 178.566 179.018 178.566C182.367 178.566 185.579 179.896 187.947 182.264C190.315 184.632 191.645 187.844 191.645 191.193C191.645 194.542 190.315 197.754 187.947 200.122C185.579 202.49 182.367 203.82 179.018 203.82C175.669 203.82 172.457 202.49 170.089 200.122C167.721 197.754 166.391 194.542 166.391 191.193C166.391 187.844 167.721 184.632 170.089 182.264ZM179.018 181.688C176.497 181.688 174.08 182.69 172.297 184.472C170.515 186.255 169.513 188.672 169.513 191.193C169.513 193.714 170.515 196.131 172.297 197.914C174.08 199.696 176.497 200.698 179.018 200.698C181.539 200.698 183.956 199.696 185.739 197.914C187.521 196.131 188.523 193.714 188.523 191.193C188.523 188.672 187.521 186.255 185.739 184.472C183.956 182.69 181.539 181.688 179.018 181.688Z" fill="#45413C"/>
<path d="M42.7778 193.426L57.4815 192.18L54.5964 224.513L39.8926 225.762L42.7778 193.426Z" fill="white"/>
<path fill-rule="evenodd" clip-rule="evenodd" d="M58.5887 191.078C58.9141 191.405 59.0783 191.859 59.0373 192.318L56.1521 224.652C56.0848 225.407 55.4846 226.004 54.7292 226.069L40.0254 227.318C39.5658 227.357 39.1125 227.191 38.787 226.864C38.4615 226.537 38.2972 226.083 38.3382 225.623L41.2234 193.287C41.2908 192.532 41.8911 191.934 42.6466 191.87L57.3504 190.624C57.81 190.585 58.2633 190.751 58.5887 191.078ZM44.217 194.87L41.6136 224.049L53.1585 223.068L55.762 193.892L44.217 194.87Z" fill="#45413C"/>
<path d="M74.3503 156.783L59.5966 156.761C56.6614 156.757 53.848 155.588 51.7751 153.509C49.7023 151.431 48.5397 148.615 48.543 145.68V141.989C48.545 140.536 48.8333 139.097 49.3913 137.755C49.9493 136.414 50.7662 135.195 51.7952 134.169C52.8242 133.142 54.0453 132.329 55.3887 131.775C56.7321 131.221 58.1715 130.936 59.6247 130.938H67.0031C67.9722 130.939 68.9316 131.131 69.8265 131.503C70.7214 131.875 71.5343 132.419 72.2186 133.105C72.903 133.791 73.4454 134.606 73.815 135.501C74.1845 136.397 74.3738 137.357 74.3722 138.326L74.3503 156.783Z" fill="white"/>
<path fill-rule="evenodd" clip-rule="evenodd" d="M59.6212 132.5C58.373 132.498 57.1367 132.742 55.9828 133.218C54.829 133.694 53.7802 134.393 52.8963 135.274C52.0125 136.155 51.3109 137.202 50.8316 138.355C50.3524 139.507 50.1049 140.742 50.103 141.99V145.68C50.1001 148.201 51.0987 150.622 52.8792 152.407C54.6597 154.192 57.0763 155.197 59.5975 155.2L72.7897 155.22L72.8097 138.324C72.811 137.56 72.6617 136.803 72.3704 136.097C72.0791 135.391 71.6515 134.749 71.112 134.208C70.5725 133.667 69.9317 133.238 69.2263 132.945C68.521 132.652 67.7649 132.5 67.0012 132.5L59.6212 132.5ZM59.6245 129.377C57.9666 129.375 56.3246 129.699 54.792 130.332C53.2591 130.964 51.8657 131.892 50.6915 133.063C49.5173 134.234 48.5852 135.625 47.9485 137.156C47.3117 138.687 46.9828 140.328 46.9805 141.987L46.9805 145.679M59.6245 129.377H67.0019C68.1761 129.378 69.3399 129.611 70.4242 130.061C71.5086 130.512 72.4935 131.171 73.3227 132.003C74.152 132.834 74.8092 133.821 75.257 134.906C75.7046 135.991 75.9341 137.154 75.9322 138.328" fill="#45413C"/>
<path d="M38.6523 190.237C38.6523 193.172 39.8182 195.987 41.8935 198.062C43.9688 200.138 46.7835 201.304 49.7184 201.304C52.6533 201.304 55.4681 200.138 57.5434 198.062C59.6186 195.987 60.7845 193.172 60.7845 190.237C60.7845 187.303 59.6186 184.488 57.5434 182.413C55.4681 180.337 52.6533 179.171 49.7184 179.171C46.7835 179.171 43.9688 180.337 41.8935 182.413C39.8182 184.488 38.6523 187.303 38.6523 190.237Z" fill="white"/>
<path fill-rule="evenodd" clip-rule="evenodd" d="M40.7903 181.309C43.1583 178.941 46.3702 177.61 49.7191 177.61C53.0681 177.61 56.2799 178.94 58.648 181.309C61.0161 183.677 62.3465 186.888 62.3465 190.237C62.3465 193.586 61.0161 196.798 58.648 199.166C56.2799 201.534 53.0681 202.865 49.7191 202.865C46.3702 202.865 43.1583 201.534 40.7903 199.166C38.4222 196.798 37.0918 193.586 37.0918 190.237C37.0918 186.888 38.4222 183.677 40.7903 181.309ZM49.7191 180.733C47.1983 180.733 44.7807 181.734 42.9982 183.517C41.2157 185.299 40.2143 187.717 40.2143 190.237C40.2143 192.758 41.2157 195.176 42.9982 196.958C44.7807 198.741 47.1983 199.742 49.7191 199.742C52.24 199.742 54.6576 198.741 56.4401 196.958C58.2226 195.176 59.224 192.758 59.224 190.237C59.224 187.717 58.2226 185.299 56.4401 183.517C54.6576 181.734 52.24 180.733 49.7191 180.733Z" fill="#45413C"/>
<path d="M35.293 228.263C35.293 229.717 35.5792 231.156 36.1353 232.498C36.6915 233.841 37.5066 235.061 38.5342 236.088C39.5617 237.116 40.7817 237.931 42.1243 238.487C43.4669 239.043 44.9058 239.329 46.3591 239.329C47.8123 239.329 49.2513 239.043 50.5939 238.487C51.9365 237.931 53.1564 237.116 54.184 236.088C55.2116 235.061 56.0267 233.841 56.5828 232.498C57.1389 231.156 57.4252 229.717 57.4252 228.263C57.4252 226.81 57.1389 225.371 56.5828 224.029C56.0267 222.686 55.2116 221.466 54.184 220.438C53.1564 219.411 51.9365 218.596 50.5939 218.04C49.2513 217.484 47.8123 217.197 46.3591 217.197C44.9058 217.197 43.4669 217.484 42.1243 218.04C40.7817 218.596 39.5617 219.411 38.5342 220.438C37.5066 221.466 36.6915 222.686 36.1353 224.029C35.5792 225.371 35.293 226.81 35.293 228.263Z" fill="white"/>
<path fill-rule="evenodd" clip-rule="evenodd" d="M41.5275 216.597C43.0595 215.962 44.7015 215.636 46.3598 215.636C48.018 215.636 49.66 215.962 51.192 216.597C52.7241 217.232 54.1161 218.162 55.2886 219.334C56.4612 220.507 57.3913 221.899 58.0259 223.431C58.6605 224.963 58.9871 226.605 58.9871 228.263C58.9871 229.921 58.6605 231.563 58.0259 233.095C57.3913 234.627 56.4612 236.019 55.2886 237.192C54.1161 238.365 52.7241 239.295 51.192 239.929C49.66 240.564 48.018 240.89 46.3598 240.89C44.7015 240.89 43.0595 240.564 41.5275 239.929C39.9955 239.295 38.6034 238.365 37.4309 237.192C36.2583 236.019 35.3282 234.627 34.6936 233.095C34.059 231.563 33.7324 229.921 33.7324 228.263C33.7324 226.605 34.059 224.963 34.6936 223.431C35.3282 221.899 36.2583 220.507 37.4309 219.334C38.6034 218.162 39.9955 217.232 41.5275 216.597ZM46.3598 218.758C45.1116 218.758 43.8756 219.004 42.7224 219.482C41.5692 219.959 40.5214 220.66 39.6388 221.542C38.7562 222.425 38.0561 223.473 37.5784 224.626C37.1008 225.779 36.8549 227.015 36.8549 228.263C36.8549 229.511 37.1008 230.747 37.5784 231.9C38.0561 233.054 38.7562 234.101 39.6388 234.984C40.5214 235.867 41.5692 236.567 42.7224 237.044C43.8756 237.522 45.1116 237.768 46.3598 237.768C47.608 237.768 48.8439 237.522 49.9971 237.044C51.1503 236.567 52.1981 235.867 53.0807 234.984C53.9633 234.101 54.6634 233.054 55.1411 231.9C55.6188 230.747 55.8646 229.511 55.8646 228.263C55.8646 227.015 55.6188 225.779 55.1411 224.626C54.6634 223.473 53.9633 222.425 53.0807 221.542C52.1981 220.66 51.1503 219.959 49.9971 219.482C48.8439 219.004 47.608 218.758 46.3598 218.758Z" fill="#45413C"/>
<path d="M52.6699 35.2717H155.959V116.428H52.6699V35.2717Z" fill="#00B8F0"/>
<path d="M65.1017 116.425H63.7341C60.7992 116.425 57.9845 115.259 55.9092 113.184C53.8339 111.109 52.668 108.294 52.668 105.359V46.344C52.6667 44.89 52.9521 43.45 53.5076 42.1063C54.0632 40.7626 54.8781 39.5416 55.9058 38.5131C56.9336 37.4845 58.1539 36.6685 59.4971 36.1118C60.8403 35.5551 62.2801 35.2686 63.7341 35.2686H144.897L65.1017 116.425Z" fill="#4ACFFF"/>
<path d="M90.3646 86.8302C88.9327 86.8269 87.5605 86.2562 86.5486 85.2431C85.5366 84.23 84.9675 82.8571 84.9659 81.4252C84.9659 77.6782 83.3359 75.8984 82.8957 75.7547C82.2145 76.523 81.6971 77.4221 81.375 78.397C81.0529 79.372 80.9328 80.4023 81.0222 81.4252C80.9882 82.8366 80.4037 84.1788 79.3935 85.165C78.3833 86.1513 77.0274 86.7034 75.6156 86.7034C74.2037 86.7034 72.8479 86.1513 71.8377 85.165C70.8274 84.1788 70.2429 82.8366 70.209 81.4252C70.209 72.1889 75.8295 64.9509 83.0112 64.9509C90.1929 64.9509 95.7947 72.1889 95.7947 81.4252C95.7938 82.1368 95.6526 82.8414 95.3792 83.4984C95.1057 84.1554 94.7053 84.7521 94.2009 85.2541C93.6965 85.7562 93.098 86.1538 92.4398 86.4243C91.7815 86.6947 91.0763 86.8327 90.3646 86.8302Z" fill="white"/>
<path fill-rule="evenodd" clip-rule="evenodd" d="M71.7709 81.4051C71.7994 82.4027 72.2145 83.3504 72.929 84.0479C73.6476 84.7494 74.612 85.1421 75.6163 85.1421C76.6205 85.1421 77.585 84.7494 78.3036 84.0479C79.0041 83.3639 79.4169 82.4393 79.4595 81.4631C79.3676 80.2611 79.5149 79.0525 79.8932 77.9072C80.2819 76.7308 80.9062 75.646 81.7281 74.719C82.1405 74.2538 82.7896 74.0776 83.3806 74.2705C83.6983 74.3741 83.9447 74.5523 84.0902 74.6693C84.2614 74.807 84.4261 74.9697 84.581 75.1468C84.8921 75.5027 85.2097 75.97 85.4948 76.5442C86.069 77.7004 86.5275 79.3205 86.5278 81.4233C86.529 82.4421 86.9339 83.4189 87.6539 84.1397C88.3738 84.8605 89.3502 85.2666 90.3689 85.2689L90.3653 86.8294L90.3707 85.2689C90.8771 85.2707 91.3788 85.1725 91.8472 84.9801C92.3155 84.7877 92.7413 84.5048 93.1002 84.1476C93.459 83.7904 93.7439 83.3659 93.9385 82.8984C94.1331 82.4309 94.2335 81.9297 94.2341 81.4234C94.2334 72.6574 88.9847 66.5121 83.0119 66.5121C77.0407 66.5121 71.7789 72.6521 71.7709 81.4051ZM90.3613 88.3914C91.2778 88.3944 92.186 88.2167 93.0338 87.8684C93.8819 87.5199 94.6531 87.0075 95.303 86.3606C95.9529 85.7137 96.4688 84.9449 96.8212 84.0983C97.1736 83.2517 97.3555 82.3439 97.3566 81.4269V81.4251C97.3566 71.7194 91.4021 63.3896 83.0119 63.3896C74.6241 63.3896 68.6484 71.7162 68.6484 81.4251L68.6489 81.4627C68.6926 83.2815 69.4459 85.0112 70.7477 86.2822C72.0496 87.5531 73.7969 88.2646 75.6163 88.2646C77.4357 88.2646 79.1829 87.5531 80.4848 86.2822C81.7867 85.0112 82.5399 83.2815 82.5836 81.4627C82.585 81.4048 82.5832 81.3469 82.5782 81.2893C82.5073 80.4778 82.6025 79.6603 82.8581 78.8868C82.8923 78.7834 82.9292 78.6811 82.9688 78.5799C83.2114 79.273 83.4053 80.2129 83.4053 81.4251L83.4053 81.4269C83.4074 83.272 84.1408 85.041 85.4447 86.3464C86.7484 87.6517 88.5164 88.387 90.3613 88.3914Z" fill="#009FD9"/>
<path d="M118.267 86.8302C118.977 86.831 119.681 86.6919 120.338 86.4207C120.995 86.1495 121.592 85.7516 122.095 85.2497C122.598 84.7478 122.997 84.1517 123.27 83.4955C123.543 82.8393 123.683 82.1358 123.684 81.4252C123.684 77.6782 125.314 75.8984 125.754 75.7547C126.436 76.523 126.953 77.4221 127.275 78.397C127.597 79.372 127.717 80.4023 127.628 81.4252C127.662 82.8366 128.246 84.1788 129.257 85.165C130.267 86.1513 131.623 86.7034 133.035 86.7034C134.446 86.7034 135.802 86.1513 136.812 85.165C137.823 84.1788 138.407 82.8366 138.441 81.4252C138.441 72.1889 132.821 64.9509 125.655 64.9509C118.488 64.9509 112.871 72.1889 112.871 81.4252C112.873 82.8566 113.441 84.229 114.453 85.242C115.464 86.255 116.835 86.8261 118.267 86.8302Z" fill="white"/>
<path fill-rule="evenodd" clip-rule="evenodd" d="M111.311 81.4251C111.311 71.7181 117.282 63.3896 125.655 63.3896C134.028 63.3896 140.003 71.7175 140.003 81.4251L140.003 81.4627C139.959 83.2815 139.206 85.0112 137.904 86.2822C136.602 87.5531 134.855 88.2646 133.035 88.2646C131.216 88.2646 129.469 87.5531 128.167 86.2822C126.865 85.0112 126.112 83.2815 126.068 81.4627C126.066 81.4048 126.068 81.3469 126.073 81.2893C126.144 80.4778 126.049 79.6603 125.793 78.8868C125.759 78.7834 125.722 78.6811 125.683 78.5799C125.44 79.273 125.246 80.2129 125.246 81.4251L125.246 81.4269C125.245 82.3426 125.064 83.2491 124.712 84.0946C124.361 84.9401 123.847 85.7082 123.198 86.3549C122.55 87.0016 121.781 87.5143 120.935 87.8637C120.088 88.2132 119.181 88.3925 118.266 88.3914L118.263 88.3914C116.419 88.3861 114.651 87.6502 113.348 86.345C112.045 85.0397 111.313 83.2713 111.311 81.4269L111.311 81.4251ZM114.433 81.4242C114.434 82.4423 114.839 83.4184 115.558 84.1389C116.277 84.8593 117.253 85.2656 118.271 85.2689C118.776 85.2693 119.276 85.1703 119.743 84.9776C120.21 84.7846 120.635 84.5015 120.993 84.1444C121.351 83.7873 121.635 83.3632 121.829 82.8963C122.023 82.4297 122.123 81.9295 122.124 81.4242M136.881 81.4051C136.873 72.6507 131.61 66.5121 125.655 66.5121C119.697 66.5121 114.433 72.6591 114.433 81.4242" fill="#009FD9"/>
<path fill-rule="evenodd" clip-rule="evenodd" d="M51.1094 35.2717C51.1094 34.4094 51.8084 33.7104 52.6706 33.7104H155.959C156.822 33.7104 157.521 34.4094 157.521 35.2717V116.428C157.521 117.291 156.822 117.99 155.959 117.99H52.6706C51.8084 117.99 51.1094 117.291 51.1094 116.428V35.2717ZM54.2319 36.8329V114.867H154.398V36.8329H54.2319Z" fill="#45413C"/>
<path d="M75.5551 238.358C75.7845 238.239 75.9861 238.073 76.1469 237.87C76.3078 237.668 76.4243 237.434 76.4887 237.184C76.5532 236.933 76.5643 236.672 76.5213 236.417C76.4783 236.162 76.3821 235.919 76.239 235.704C74.218 232.659 71.3765 230.249 68.043 228.751C64.7096 227.254 61.0203 226.73 57.4018 227.241C53.7834 227.752 50.3834 229.277 47.5952 231.64C44.8069 234.002 42.7442 237.105 41.6456 240.59C40.5469 244.076 40.4572 247.801 41.3868 251.335C42.3164 254.869 44.2273 258.068 46.8986 260.562C49.5699 263.056 52.8925 264.742 56.4822 265.427C60.0719 266.112 63.7821 265.766 67.1837 264.431C67.4236 264.335 67.6408 264.19 67.8215 264.006C68.0021 263.821 68.1422 263.601 68.2327 263.359C68.3233 263.117 68.3623 262.859 68.3472 262.601C68.3322 262.343 68.2635 262.091 68.1455 261.861L65.5694 256.912C65.3667 256.522 65.0312 256.217 64.6235 256.053C64.2158 255.889 63.7628 255.876 63.3462 256.016C61.571 256.617 59.6641 256.714 57.837 256.297C56.0099 255.879 54.3341 254.964 52.9954 253.653C51.6567 252.341 50.7074 250.685 50.2529 248.867C49.7983 247.048 49.8563 245.14 50.4203 243.353C50.9844 241.566 52.0324 239.97 53.4483 238.742C54.8641 237.514 56.5924 236.702 58.4414 236.397C60.2904 236.091 62.1879 236.304 63.9234 237.011C65.659 237.719 67.1646 238.893 68.2735 240.403C68.534 240.759 68.9131 241.009 69.3422 241.108C69.7713 241.208 70.2218 241.151 70.6122 240.947L75.5551 238.358Z" fill="#656769"/>
<path fill-rule="evenodd" clip-rule="evenodd" d="M57.1822 225.695C61.0925 225.143 65.0793 225.709 68.6816 227.327C72.2839 228.946 75.3545 231.55 77.5385 234.841C77.5387 234.841 77.5383 234.84 77.5385 234.841C77.8026 235.238 77.9801 235.687 78.0595 236.157C78.139 236.628 78.1185 237.111 77.9994 237.573C77.8802 238.036 77.6651 238.468 77.3679 238.842C77.0712 239.215 76.6993 239.522 76.2766 239.742L75.5539 238.358L76.2746 239.743L71.3353 242.33C70.614 242.707 69.7803 242.813 68.9877 242.629C68.195 242.445 67.4945 241.983 67.0133 241.327C67.0132 241.327 67.0134 241.327 67.0133 241.327C66.0751 240.049 64.8013 239.055 63.333 238.457C61.8646 237.859 60.2591 237.679 58.6946 237.937C57.1301 238.196 55.6678 238.882 54.4699 239.921C53.2719 240.96 52.3852 242.31 51.9079 243.823C51.4307 245.335 51.3816 246.95 51.7662 248.488C52.1508 250.026 52.954 251.428 54.0867 252.538C55.2194 253.647 56.6373 254.422 58.1832 254.774C59.7291 255.127 61.3426 255.045 62.8446 254.537C63.6142 254.278 64.4527 254.301 65.2059 254.605C65.9591 254.909 66.579 255.471 66.9535 256.192L69.533 261.148C69.7504 261.571 69.8769 262.035 69.9046 262.51C69.9323 262.985 69.8604 263.46 69.6937 263.906C69.5269 264.351 69.269 264.757 68.9363 265.097C68.6035 265.438 68.2035 265.704 67.7617 265.881L67.753 265.884C64.077 267.327 60.0676 267.701 56.1884 266.961C52.3093 266.221 48.7187 264.398 45.832 261.703C42.9453 259.008 40.8802 255.551 39.8757 251.732C38.8711 247.913 38.9681 243.887 40.1553 240.121C41.3426 236.355 43.5716 233.001 46.5847 230.448C49.5978 227.895 53.2719 226.248 57.1822 225.695ZM67.402 230.175C64.3374 228.799 60.9456 228.317 57.6189 228.787C54.2923 229.257 51.1665 230.659 48.6031 232.831C46.0397 235.002 44.1434 237.855 43.1333 241.06C42.1233 244.264 42.0408 247.689 42.8954 250.938C43.7501 254.187 45.5069 257.128 47.9628 259.421C50.4186 261.713 53.4733 263.264 56.7735 263.893C60.0737 264.523 63.4846 264.205 66.612 262.978L67.1825 264.431L66.6033 262.981C66.6413 262.966 66.6756 262.943 66.7042 262.914C66.7328 262.885 66.7549 262.85 66.7693 262.812C66.7836 262.773 66.7898 262.732 66.7874 262.692C66.7851 262.652 66.7746 262.612 66.7566 262.577C66.7562 262.576 66.7558 262.575 66.7555 262.575L64.1833 257.633C64.1524 257.573 64.1008 257.526 64.0386 257.501C63.9766 257.476 63.9078 257.474 63.8445 257.495C61.7963 258.188 59.5962 258.3 57.4883 257.819C55.38 257.337 53.4463 256.281 51.9015 254.768C50.3568 253.255 49.2615 251.343 48.737 249.245C48.2125 247.147 48.2794 244.945 48.9302 242.883C49.5811 240.821 50.7904 238.979 52.4241 237.562C54.0579 236.145 56.0521 235.209 58.1857 234.856C60.3193 234.504 62.5088 234.749 64.5114 235.565C66.514 236.382 68.2514 237.736 69.5309 239.48C69.5706 239.534 69.6288 239.572 69.6942 239.588C69.7595 239.603 69.828 239.594 69.8874 239.563C69.8876 239.563 69.8872 239.563 69.8874 239.563L74.8296 236.975L74.8332 236.973C74.8682 236.955 74.899 236.93 74.9235 236.899C74.948 236.868 74.9658 236.832 74.9756 236.794C74.9855 236.756 74.9872 236.716 74.9806 236.677C74.974 236.638 74.9593 236.601 74.9375 236.568C73.0795 233.769 70.4666 231.552 67.402 230.175Z" fill="#45413C"/>
<path d="M260.836 59.4617C260.319 65.3189 258.066 70.8886 254.366 75.4578C250.665 80.0271 245.684 83.3878 240.062 85.1098L229.849 201.16C229.591 204.084 228.183 206.786 225.933 208.671C223.684 210.556 220.777 211.471 217.854 211.213C214.93 210.955 212.228 209.547 210.343 207.297C208.458 205.048 207.543 202.142 207.801 199.218L218.014 83.1707C213.279 80.7507 209.285 77.0964 206.454 72.594C203.624 68.0916 202.062 62.9083 201.934 57.5916C201.806 52.275 203.117 47.0226 205.727 42.3892C208.338 37.7559 212.152 33.9137 216.765 31.2687C217.35 30.9326 218.016 30.7633 218.69 30.7791C219.364 30.7949 220.021 30.9953 220.589 31.3584C221.157 31.7216 221.615 32.2336 221.913 32.8388C222.21 33.444 222.336 34.1191 222.277 34.7909L220.387 56.233C220.31 57.1972 220.612 58.1537 221.227 58.8996L227.931 66.8963C228.564 67.6463 229.468 68.1155 230.446 68.2015C231.423 68.2875 232.395 67.9833 233.149 67.3553L241.146 60.6544C241.881 60.0267 242.344 59.1376 242.435 58.1752L244.309 36.7331C244.369 36.0618 244.612 35.4199 245.011 34.8769C245.41 34.334 245.95 33.9107 246.573 33.6533C247.196 33.3958 247.877 33.3139 248.543 33.4165C249.209 33.519 249.834 33.8022 250.351 34.2351C254.004 37.2819 256.866 41.1676 258.692 45.5605C260.518 49.9533 261.254 54.7228 260.836 59.4617Z" fill="white"/>
<path d="M260.836 59.4616C260.32 65.3188 258.067 70.8886 254.366 75.4578C250.665 80.027 245.685 83.3877 240.063 85.1097L229.849 201.16C229.723 202.608 229.313 204.017 228.642 205.307C227.971 206.596 227.052 207.741 225.938 208.674C224.824 209.608 223.536 210.313 222.149 210.748C220.762 211.183 219.303 211.341 217.855 211.211L230.448 68.2014C231.425 68.2898 232.397 67.9891 233.153 67.3646L241.149 60.6638C241.885 60.036 242.347 59.147 242.439 58.1845L244.312 36.7424C244.372 36.0712 244.615 35.4292 245.014 34.8862C245.413 34.3433 245.954 33.9201 246.576 33.6626C247.199 33.4051 247.881 33.3232 248.547 33.4258C249.213 33.5284 249.838 33.8115 250.354 34.2444C254.006 37.2906 256.866 41.1749 258.692 45.566C260.517 49.9571 261.253 54.7245 260.836 59.4616Z" fill="#DAEDF7"/>
<path d="M215.133 200.189C215.133 201.167 215.521 202.105 216.213 202.796C216.904 203.488 217.842 203.877 218.82 203.877C219.799 203.877 220.736 203.488 221.428 202.796C222.12 202.105 222.508 201.167 222.508 200.189C222.508 199.211 222.12 198.273 221.428 197.581C220.736 196.89 219.799 196.501 218.82 196.501C217.842 196.501 216.904 196.89 216.213 197.581C215.521 198.273 215.133 199.211 215.133 200.189Z" fill="#45413C"/>
<path fill-rule="evenodd" clip-rule="evenodd" d="M218.654 32.3399C218.265 32.3307 217.881 32.4284 217.544 32.6222C213.174 35.1273 209.561 38.7672 207.088 43.1556C204.616 47.5439 203.375 52.5186 203.496 57.554C203.617 62.5895 205.096 67.4987 207.777 71.7631C210.458 76.0274 214.24 79.4884 218.726 81.7804C219.292 82.0699 219.626 82.6739 219.57 83.3075L209.357 199.355C209.135 201.866 209.921 204.362 211.54 206.295C213.159 208.227 215.48 209.437 217.991 209.658C220.503 209.879 222.999 209.094 224.931 207.474C226.863 205.855 228.073 203.534 228.294 201.023L238.508 84.9729C238.563 84.3395 238.998 83.8031 239.606 83.6169C244.931 81.986 249.648 78.8029 253.153 74.4752C256.658 70.1475 258.792 64.8721 259.282 59.3244C259.677 54.8366 258.98 50.3198 257.251 46.1596C255.522 41.9994 252.812 38.3195 249.352 35.4341L249.349 35.4315C249.051 35.1819 248.69 35.0186 248.306 34.9595C247.922 34.9003 247.529 34.9476 247.17 35.096C246.811 35.2445 246.499 35.4885 246.269 35.8016C246.039 36.1145 245.899 36.4845 245.865 36.8714C245.865 36.8715 245.865 36.8712 245.865 36.8714L243.99 58.3235C243.86 59.6893 243.204 60.9509 242.16 61.8418L242.149 61.8511L234.153 68.5519L234.149 68.555C233.078 69.4468 231.698 69.8788 230.309 69.7567C228.921 69.6345 227.638 68.9682 226.739 67.9031L226.736 67.8993L220.024 59.8936C219.15 58.8348 218.722 57.4771 218.832 56.1084L218.833 56.0959L220.722 34.6538C220.756 34.2665 220.684 33.8765 220.512 33.5276C220.341 33.1786 220.077 32.8833 219.749 32.6739C219.421 32.4645 219.043 32.349 218.654 32.3399ZM262.392 59.5988C261.848 65.7656 259.476 71.6298 255.58 76.4405C251.906 80.9764 247.034 84.3812 241.528 86.2751L231.405 201.297C231.111 204.633 229.503 207.716 226.937 209.867C224.37 212.019 221.053 213.062 217.717 212.768C214.381 212.474 211.298 210.867 209.147 208.3C206.996 205.733 205.952 202.417 206.246 199.081C206.246 199.081 206.246 199.081 206.246 199.081L216.369 84.0626C211.792 81.5233 207.925 77.866 205.133 73.4249C202.153 68.6844 200.509 63.2269 200.374 57.6292C200.24 52.0314 201.619 46.5012 204.368 41.6228C207.117 36.7445 211.132 32.6991 215.99 29.9142C216.821 29.4365 217.768 29.1957 218.727 29.2182C219.687 29.2408 220.622 29.526 221.431 30.0429C222.239 30.5598 222.891 31.2886 223.314 32.15C223.738 33.0113 223.917 33.9724 223.832 34.9285L221.944 56.3629C221.944 56.3611 221.944 56.3593 221.944 56.3575L220.388 56.233L221.943 56.37L221.944 56.3629C221.901 56.9192 222.075 57.4706 222.429 57.9017L222.425 57.8966L221.228 58.8996L222.432 57.9056L229.125 65.8894L227.932 66.8963L229.129 65.8932L229.127 65.8911C229.494 66.325 230.017 66.5964 230.583 66.6462C231.149 66.696 231.712 66.5201 232.149 66.1569L232.147 66.1586L233.15 67.3551L232.151 66.1556L240.137 59.4631C240.136 59.4644 240.134 59.4657 240.133 59.467L241.146 60.6544L240.144 59.4578L240.137 59.4631C240.56 59.0999 240.827 58.5873 240.881 58.0323L240.881 58.0393L242.436 58.1751L240.882 58.0268L242.754 36.5971L242.754 36.5941C242.84 35.6388 243.185 34.725 243.753 33.9521C244.322 33.1793 245.091 32.5769 245.977 32.2104C246.864 31.844 247.833 31.7274 248.781 31.8734C249.729 32.0193 250.618 32.4218 251.353 33.0373C251.352 33.0369 251.352 33.0364 251.351 33.036L250.352 34.235L251.355 33.0386C251.354 33.0381 251.353 33.0377 251.353 33.0373C255.199 36.2453 258.212 40.3363 260.134 44.9612C262.057 49.5867 262.832 54.609 262.392 59.5988Z" fill="#45413C"/>
<path d="M211.498 157.405C208.037 155.042 205.325 151.737 203.681 147.882C202.038 144.026 201.533 139.781 202.226 135.648C202.918 131.515 204.78 127.666 207.59 124.557C210.4 121.447 214.041 119.208 218.084 118.102C218.367 118.025 218.663 118.008 218.953 118.053C219.242 118.097 219.52 118.202 219.766 118.361C220.013 118.519 220.224 118.727 220.386 118.972C220.547 119.217 220.655 119.493 220.704 119.782L221.725 126.027C221.805 126.519 221.707 127.024 221.447 127.45C221.188 127.876 220.784 128.195 220.31 128.35C218.837 128.835 217.476 129.612 216.31 130.635C215.144 131.658 214.197 132.906 213.525 134.305L211.498 157.405Z" fill="#656769"/>
<path fill-rule="evenodd" clip-rule="evenodd" d="M218.716 119.596C218.642 119.585 218.567 119.589 218.495 119.608C214.74 120.635 211.359 122.716 208.749 125.603C206.138 128.492 204.409 132.067 203.766 135.906C203.123 139.745 203.592 143.689 205.118 147.27C206.28 149.994 208.016 152.423 210.196 154.395L211.97 134.168C211.987 133.981 212.037 133.798 212.119 133.628C212.882 132.041 213.957 130.624 215.281 129.462C216.605 128.3 218.15 127.417 219.823 126.867L219.827 126.865C219.947 126.826 220.049 126.746 220.114 126.638C220.18 126.531 220.205 126.403 220.185 126.279C220.185 126.279 220.185 126.279 220.184 126.279L219.164 120.039C219.164 120.038 219.164 120.037 219.164 120.037C219.151 119.963 219.124 119.893 219.083 119.831C219.042 119.769 218.988 119.715 218.924 119.675C218.861 119.634 218.79 119.607 218.716 119.596ZM217.675 116.595C218.169 116.461 218.685 116.432 219.19 116.51C219.696 116.587 220.179 116.77 220.61 117.046C221.04 117.322 221.408 117.685 221.69 118.112C221.971 118.539 222.16 119.021 222.244 119.525L222.245 119.53L223.266 125.775L223.266 125.775C223.407 126.635 223.235 127.517 222.781 128.262C222.329 129.006 221.625 129.563 220.797 129.834C219.524 130.253 218.348 130.925 217.341 131.809C216.402 132.633 215.627 133.626 215.055 134.735L213.054 157.541C213.006 158.093 212.668 158.579 212.167 158.816C211.666 159.053 211.077 159.007 210.619 158.694C206.911 156.163 204.006 152.624 202.246 148.494C200.486 144.364 199.945 139.817 200.687 135.39C201.428 130.963 203.422 126.84 206.432 123.51C209.442 120.179 213.343 117.78 217.673 116.596L217.675 116.595Z" fill="#45413C"/>
</g>
<path opacity="0.15" d="M300.486 241.058C300.486 242.576 305.412 244.031 314.18 245.104C322.948 246.177 334.839 246.78 347.239 246.78C359.639 246.78 371.53 246.177 380.298 245.104C389.066 244.031 393.992 242.576 393.992 241.058C393.992 239.541 389.066 238.086 380.298 237.013C371.53 235.94 359.639 235.337 347.239 235.337C334.839 235.337 322.948 235.94 314.18 237.013C305.412 238.086 300.486 239.541 300.486 241.058Z" fill="#6A93FF"/>
<path d="M282.846 94.9153H411.262V209.063H282.846V94.9153Z" fill="#627B8C"/>
<path d="M411.262 106.806H282.846V104.428C282.846 101.905 283.848 99.4854 285.632 97.7014C287.416 95.9175 289.835 94.9153 292.358 94.9153H401.749C404.272 94.9153 406.692 95.9175 408.476 97.7014C410.26 99.4854 411.262 101.905 411.262 104.428V106.806Z" fill="#ADC4D9"/>
<path d="M357.004 100.869C357.004 98.8645 356.916 96.8798 356.74 94.9153H292.358C291.109 94.9149 289.872 95.1607 288.717 95.6386C287.563 96.1165 286.514 96.8172 285.631 97.7006C284.748 98.584 284.047 99.6328 283.569 100.787C283.091 101.941 282.845 103.178 282.846 104.428V166.753C292.152 167.85 301.585 166.965 310.524 164.155C319.463 161.345 327.707 156.675 334.712 150.451C341.717 144.227 347.325 136.59 351.167 128.044C355.009 119.497 356.999 110.234 357.004 100.863V100.869Z" fill="#656769"/>
<path d="M297.117 190.038H325.652" stroke="#45413C" stroke-width="1.6" stroke-linecap="round" stroke-linejoin="round"/>
<path d="M297.117 151.987H325.652" stroke="#45413C" stroke-width="1.6" stroke-linecap="round" stroke-linejoin="round"/>
<path d="M297.117 113.94H325.652" stroke="#45413C" stroke-width="1.6" stroke-linecap="round" stroke-linejoin="round"/>
<path d="M387.484 113.941C387.484 115.833 388.236 117.647 389.574 118.985C390.912 120.323 392.727 121.075 394.619 121.075C396.511 121.075 398.326 120.323 399.664 118.985C401.002 117.647 401.753 115.833 401.753 113.941C401.753 112.048 401.002 110.234 399.664 108.896C398.326 107.558 396.511 106.806 394.619 106.806C392.727 106.806 390.912 107.558 389.574 108.896C388.236 110.234 387.484 112.048 387.484 113.941Z" fill="#00F5BC" stroke="#45413C" stroke-width="1.6" stroke-linecap="round" stroke-linejoin="round"/>
<path d="M363.699 113.941C363.699 115.833 364.451 117.647 365.789 118.985C367.127 120.323 368.941 121.075 370.834 121.075C372.726 121.075 374.54 120.323 375.878 118.985C377.216 117.647 377.968 115.833 377.968 113.941C377.968 112.048 377.216 110.234 375.878 108.896C374.54 107.558 372.726 106.806 370.834 106.806C368.941 106.806 367.127 107.558 365.789 108.896C364.451 110.234 363.699 112.048 363.699 113.941Z" fill="#4ACFFF" stroke="#45413C" stroke-width="1.6" stroke-linecap="round" stroke-linejoin="round"/>
<path d="M387.484 151.988C387.484 153.88 388.236 155.694 389.574 157.032C390.912 158.37 392.727 159.122 394.619 159.122C396.511 159.122 398.326 158.37 399.664 157.032C401.002 155.694 401.753 153.88 401.753 151.988C401.753 150.096 401.002 148.281 399.664 146.943C398.326 145.605 396.511 144.853 394.619 144.853C392.727 144.853 390.912 145.605 389.574 146.943C388.236 148.281 387.484 150.096 387.484 151.988Z" fill="#00F5BC" stroke="#45413C" stroke-width="1.6" stroke-linecap="round" stroke-linejoin="round"/>
<path d="M363.699 151.988C363.699 153.88 364.451 155.694 365.789 157.032C367.127 158.37 368.941 159.122 370.834 159.122C372.726 159.122 374.54 158.37 375.878 157.032C377.216 155.694 377.968 153.88 377.968 151.988C377.968 150.096 377.216 148.281 375.878 146.943C374.54 145.605 372.726 144.853 370.834 144.853C368.941 144.853 367.127 145.605 365.789 146.943C364.451 148.281 363.699 150.096 363.699 151.988Z" fill="#4ACFFF" stroke="#45413C" stroke-width="1.6" stroke-linecap="round" stroke-linejoin="round"/>
<path d="M387.484 190.038C387.484 191.93 388.236 193.745 389.574 195.083C390.912 196.42 392.727 197.172 394.619 197.172C396.511 197.172 398.326 196.42 399.664 195.083C401.002 193.745 401.753 191.93 401.753 190.038C401.753 188.146 401.002 186.331 399.664 184.993C398.326 183.655 396.511 182.903 394.619 182.903C392.727 182.903 390.912 183.655 389.574 184.993C388.236 186.331 387.484 188.146 387.484 190.038Z" fill="#00F5BC" stroke="#45413C" stroke-width="1.6" stroke-linecap="round" stroke-linejoin="round"/>
<path d="M363.699 190.038C363.699 191.93 364.451 193.745 365.789 195.083C367.127 196.42 368.941 197.172 370.834 197.172C372.726 197.172 374.54 196.42 375.878 195.083C377.216 193.745 377.968 191.93 377.968 190.038C377.968 188.146 377.216 186.331 375.878 184.993C374.54 183.655 372.726 182.903 370.834 182.903C368.941 182.903 367.127 183.655 365.789 184.993C364.451 186.331 363.699 188.146 363.699 190.038Z" fill="#4ACFFF" stroke="#45413C" stroke-width="1.6" stroke-linecap="round" stroke-linejoin="round"/>
<path d="M401.749 209.063H292.358C289.835 209.063 287.416 208.06 285.632 206.276C283.848 204.492 282.846 202.073 282.846 199.55V171.012H411.262V199.55C411.262 202.073 410.26 204.492 408.476 206.276C406.692 208.06 404.272 209.063 401.749 209.063Z" stroke="#45413C" stroke-width="1.6" stroke-linecap="round" stroke-linejoin="round"/>
<path d="M282.846 132.965H411.262V171.015H282.846V132.965Z" stroke="#45413C" stroke-width="1.6" stroke-linecap="round" stroke-linejoin="round"/>
<path d="M411.262 132.968H282.846V104.428C282.846 101.905 283.848 99.4854 285.632 97.7014C287.416 95.9175 289.835 94.9153 292.358 94.9153H401.749C404.272 94.9153 406.692 95.9175 408.476 97.7014C410.26 99.4854 411.262 101.905 411.262 104.428V132.968Z" stroke="#45413C" stroke-width="1.6" stroke-linecap="round" stroke-linejoin="round"/>
<defs>
<clipPath id="clip0">
<rect width="265.763" height="265.763" fill="white"/>
</clipPath>
</defs>
</svg>
