<svg viewBox="0 0 100 100" xmlns="http://www.w3.org/2000/svg" id="Toy-Robot--Streamline-Ux" height="100" width="100">
  <desc>
    Toy Robot Streamline Illustration: https://streamlinehq.com
  </desc>
  <path d="M10 55.919a40 40 0 1 0 80 0 40 40 0 1 0 -80 0Z" fill="#daedf7" stroke="#daedf7" stroke-width="1"></path>
  <path d="M72.733 23.444a0.63 0.63 0 0 0 -0.367 -1.177l-9.3 2.274a0.63 0.63 0 0 0 -0.38 1.082l2.485 2.391a0.631 0.631 0 0 1 -0.131 1.006l-4.468 2.48a0.631 0.631 0 0 0 0.441 1.168l10.61 -2.337a0.63 0.63 0 0 0 0.3 -1.07l-2.9 -2.792a0.629 0.629 0 0 1 0.127 -1Z" fill="#ffe500" stroke="#b58b00" stroke-linejoin="round" stroke-width="1"></path>
  <path d="M27.51 23.444a0.63 0.63 0 0 1 0.367 -1.177l9.3 2.274a0.631 0.631 0 0 1 0.38 1.082l-2.485 2.391a0.631 0.631 0 0 0 0.128 1.006l4.471 2.48a0.631 0.631 0 0 1 -0.441 1.168l-10.61 -2.339a0.63 0.63 0 0 1 -0.3 -1.07l2.9 -2.792a0.629 0.629 0 0 0 -0.127 -1Z" fill="#ffe500" stroke="#b58b00" stroke-linejoin="round" stroke-width="1"></path>
  <path d="M47.458 71.335h5.374v5.374h-5.374z" fill="#daedf7" stroke-width="1"></path>
  <path d="M47.458 71.335h5.374v2.687h-5.374z" fill="#adc4d9" stroke-width="1"></path>
  <path d="M47.458 71.335h5.374v5.374h-5.374z" fill="none" stroke="#45413c" stroke-linecap="round" stroke-linejoin="round" stroke-width="1"></path>
  <path d="M56.863 76.709H43.428A4.03 4.03 0 0 0 39.4 80.74v13.247a39.953 39.953 0 0 0 21.495 -0.082V80.74a4.03 4.03 0 0 0 -4.032 -4.031Z" fill="#ffffff" stroke-width="1"></path>
  <path d="M60.893 93.905V80.74a4.03 4.03 0 0 0 -4.03 -4.031H43.428A4.03 4.03 0 0 0 39.4 80.74v13.247" fill="none" stroke="#45413c" stroke-linecap="round" stroke-linejoin="round" stroke-width="1"></path>
  <path d="M44.771 86.114a2.687 2.687 0 0 0 2.687 2.686h5.374a2.687 2.687 0 0 0 2.687 -2.687v-9.404H44.771Z" fill="#00b8f0" stroke-width="1"></path>
  <path d="M44.771 76.709v9.405a2.608 2.608 0 0 0 0.033 0.32l9.724 -9.725Z" fill="#4acfff" stroke-width="1"></path>
  <path d="M44.771 86.114a2.687 2.687 0 0 0 2.687 2.686h5.374a2.687 2.687 0 0 0 2.687 -2.687v-9.404H44.771Z" fill="none" stroke="#45413c" stroke-linecap="round" stroke-linejoin="round" stroke-width="1"></path>
  <path d="M31.508 90.885a39.739 39.739 0 0 0 5.367 2.315l0.025 -12.15 -5.374 -0.019Z" fill="#e0e0e0" stroke-width="1"></path>
  <path d="m36.847 93.195 0.049 -12.145 -5.373 -0.019 -0.033 9.845" fill="none" stroke="#45413c" stroke-linecap="round" stroke-linejoin="round" stroke-width="1"></path>
  <path d="M39.4 86.114h-5.376a4.031 4.031 0 0 1 -4.031 -4.031V80.74a4.031 4.031 0 0 1 4.031 -4.031h2.687A2.687 2.687 0 0 1 39.4 79.4Z" fill="#ffffff" stroke="#45413c" stroke-linecap="round" stroke-linejoin="round" stroke-width="1"></path>
  <path d="m68.768 81.031 -5.374 0.019 0.022 12.056a39.809 39.809 0 0 0 5.367 -2.37Z" fill="#e0e0e0" stroke-width="1"></path>
  <path d="m68.8 90.727 -0.032 -9.696 -5.374 0.019 0.049 12.047" fill="none" stroke="#45413c" stroke-linecap="round" stroke-linejoin="round" stroke-width="1"></path>
  <path d="M60.893 86.114h5.374a4.031 4.031 0 0 0 4.033 -4.031V80.74a4.031 4.031 0 0 0 -4.031 -4.031H63.58a2.687 2.687 0 0 0 -2.687 2.691Z" fill="#ffffff" stroke="#45413c" stroke-linecap="round" stroke-linejoin="round" stroke-width="1"></path>
  <path d="m51.825 43.083 -3.359 0 1.12 -11.196 1.119 0 1.12 11.196z" fill="#daedf7" stroke-width="1"></path>
  <path d="M49.006 37.686a3.362 3.362 0 0 0 2.279 0l-0.58 -5.8h-1.12Z" fill="#adc4d9" stroke-width="1"></path>
  <path d="m51.825 43.083 -3.359 0 1.12 -11.196 1.119 0 1.12 11.196z" fill="none" stroke="#45413c" stroke-linecap="round" stroke-linejoin="round" stroke-width="1"></path>
  <path d="M46.786 31.887a3.359 3.359 0 1 0 6.718 0 3.359 3.359 0 1 0 -6.718 0Z" fill="#ff6242" stroke-width="1"></path>
  <path d="M50.145 31.109a3.36 3.36 0 0 1 3.1 2.068 3.358 3.358 0 1 0 -6.2 0 3.361 3.361 0 0 1 3.1 -2.068Z" fill="#ff6242" stroke-width="1"></path>
  <path d="M46.786 31.887a3.359 3.359 0 1 0 6.718 0 3.359 3.359 0 1 0 -6.718 0Z" fill="none" stroke="#45413c" stroke-linecap="round" stroke-linejoin="round" stroke-width="1"></path>
  <path d="m31.337 42.062 37.618 0 0 29.557 -37.618 0Z" fill="#00b8f0" stroke-width="1"></path>
  <path d="M35.864 71.618h-0.5a4.025 4.025 0 0 1 -4.031 -4.03v-21.5a4.025 4.025 0 0 1 4.03 -4.031h29.561c0.161 0 0.309 0.014 0.47 0.027Z" fill="#4acfff" stroke-width="1"></path>
  <path d="m31.337 42.062 37.618 0 0 29.557 -37.618 0Z" fill="none" stroke="#45413c" stroke-linecap="round" stroke-linejoin="round" stroke-width="1"></path>
  <path d="M40.368 51.2a0.728 0.728 0 0 1 1.3 0.013l1.292 2.679a0.727 0.727 0 0 0 0.544 0.4l2.94 0.455A0.728 0.728 0 0 1 46.841 56l-2.149 2.057a0.726 0.726 0 0 0 -0.215 0.642l0.476 2.937a0.727 0.727 0 0 1 -1.063 0.757l-2.621 -1.408a0.727 0.727 0 0 0 -0.677 -0.006l-2.646 1.36a0.728 0.728 0 0 1 -1.049 -0.777l0.53 -2.928a0.725 0.725 0 0 0 -0.2 -0.645l-2.111 -2.1a0.727 0.727 0 0 1 0.415 -1.237l2.948 -0.4a0.726 0.726 0 0 0 0.551 -0.393Z" fill="#ffe500" stroke-width="1"></path>
  <path d="m36.991 61.036 0.436 -2.405a0.725 0.725 0 0 0 -0.2 -0.645l-2.111 -2.1a0.727 0.727 0 0 1 0.415 -1.237l2.948 -0.4a0.726 0.726 0 0 0 0.551 -0.393l1.338 -2.656a0.728 0.728 0 0 1 1.3 0.013l1.292 2.679a0.727 0.727 0 0 0 0.544 0.4Z" fill="#fff48c" stroke-width="1"></path>
  <path d="M40.368 51.2a0.728 0.728 0 0 1 1.3 0.013l1.292 2.679a0.727 0.727 0 0 0 0.544 0.4l2.94 0.455A0.728 0.728 0 0 1 46.841 56l-2.149 2.057a0.726 0.726 0 0 0 -0.215 0.642l0.476 2.937a0.727 0.727 0 0 1 -1.063 0.757l-2.621 -1.408a0.727 0.727 0 0 0 -0.677 -0.006l-2.646 1.36a0.728 0.728 0 0 1 -1.049 -0.777l0.53 -2.928a0.725 0.725 0 0 0 -0.2 -0.645l-2.111 -2.1a0.727 0.727 0 0 1 0.415 -1.237l2.948 -0.4a0.726 0.726 0 0 0 0.551 -0.393Z" fill="none" stroke="#45413c" stroke-linecap="round" stroke-linejoin="round" stroke-width="1"></path>
  <path d="m60 51.215 1.292 2.679a0.727 0.727 0 0 0 0.544 0.4l2.94 0.455A0.728 0.728 0 0 1 65.169 56l-2.149 2.054a0.73 0.73 0 0 0 -0.216 0.642l0.477 2.937a0.727 0.727 0 0 1 -1.063 0.757L59.6 60.982a0.727 0.727 0 0 0 -0.677 -0.006l-2.646 1.36a0.728 0.728 0 0 1 -1.049 -0.777l0.53 -2.928a0.725 0.725 0 0 0 -0.2 -0.645l-2.111 -2.1a0.727 0.727 0 0 1 0.415 -1.237l2.948 -0.4a0.726 0.726 0 0 0 0.551 -0.393L58.7 51.2a0.728 0.728 0 0 1 1.3 0.015Z" fill="#ffe500" stroke-width="1"></path>
  <path d="m55.319 61.036 0.436 -2.405a0.725 0.725 0 0 0 -0.2 -0.645l-2.111 -2.1a0.727 0.727 0 0 1 0.415 -1.237l2.948 -0.4a0.726 0.726 0 0 0 0.551 -0.393L58.7 51.2a0.728 0.728 0 0 1 1.3 0.015l1.292 2.679a0.727 0.727 0 0 0 0.544 0.4Z" fill="#fff48c" stroke-width="1"></path>
  <path d="m60 51.215 1.292 2.679a0.727 0.727 0 0 0 0.544 0.4l2.94 0.455A0.728 0.728 0 0 1 65.169 56l-2.149 2.054a0.73 0.73 0 0 0 -0.216 0.642l0.477 2.937a0.727 0.727 0 0 1 -1.063 0.757L59.6 60.982a0.727 0.727 0 0 0 -0.677 -0.006l-2.646 1.36a0.728 0.728 0 0 1 -1.049 -0.777l0.53 -2.928a0.725 0.725 0 0 0 -0.2 -0.645l-2.111 -2.1a0.727 0.727 0 0 1 0.415 -1.237l2.948 -0.4a0.726 0.726 0 0 0 0.551 -0.393L58.7 51.2a0.728 0.728 0 0 1 1.3 0.015Z" fill="none" stroke="#45413c" stroke-linecap="round" stroke-linejoin="round" stroke-width="1"></path>
  <path d="M55.81 5.406a1.261 1.261 0 0 0 -1.128 -1.825h-4.47a1.26 1.26 0 0 0 -1.11 0.664l-5 9.28a1.26 1.26 0 0 0 1.11 1.859h5.152l-2.022 8.762a0.631 0.631 0 0 0 1.126 0.511L58 12.844a1.261 1.261 0 0 0 -1.022 -2h-3.887Z" fill="#ffe500" stroke-width="1"></path>
  <path d="M48.236 5.853h5.538a1.26 1.26 0 0 1 1.253 1.119l0.783 -1.566a1.261 1.261 0 0 0 -1.128 -1.825h-4.47a1.261 1.261 0 0 0 -1.11 0.664l-5 9.28Z" fill="#fff48c" stroke-width="1"></path>
  <path d="M58.1 11.531a1.261 1.261 0 0 0 -1.122 -0.687h-3.66l-0.373 0.748a1.053 1.053 0 0 0 0.942 1.524h2.185a1.264 1.264 0 0 1 1.128 0.684c0.016 0.032 0.031 0.064 0.044 0.1L58 12.844a1.262 1.262 0 0 0 0.1 -1.313Z" fill="#fff48c" stroke-width="1"></path>
  <path d="M55.81 5.406a1.261 1.261 0 0 0 -1.128 -1.825h-4.47a1.26 1.26 0 0 0 -1.11 0.664l-5 9.28a1.26 1.26 0 0 0 1.11 1.859h5.152l-2.022 8.762a0.631 0.631 0 0 0 1.126 0.511L58 12.844a1.261 1.261 0 0 0 -1.022 -2h-3.887Z" fill="none" stroke="#b58b00" stroke-linecap="round" stroke-linejoin="round" stroke-width="1"></path>
</svg>