<svg width="66" height="66" viewBox="0 0 66 66" fill="none" xmlns="http://www.w3.org/2000/svg">
<path d="M1 33C1 41.4869 4.37142 49.6263 10.3726 55.6274C16.3737 61.6286 24.5131 65 33 65C41.4869 65 49.6263 61.6286 55.6274 55.6274C61.6286 49.6263 65 41.4869 65 33C65 24.5131 61.6286 16.3737 55.6274 10.3726C49.6263 4.37142 41.4869 1 33 1C24.5131 1 16.3737 4.37142 10.3726 10.3726C4.37142 16.3737 1 24.5131 1 33Z" fill="#C7F0FF"/>
<path d="M1 33C1 41.4869 4.37142 49.6263 10.3726 55.6274C16.3737 61.6286 24.5131 65 33 65C41.4869 65 49.6263 61.6286 55.6274 55.6274C61.6286 49.6263 65 41.4869 65 33C65 24.5131 61.6286 16.3737 55.6274 10.3726C49.6263 4.37142 41.4869 1 33 1C24.5131 1 16.3737 4.37142 10.3726 10.3726C4.37142 16.3737 1 24.5131 1 33V33Z" stroke="#DAEDF7" stroke-width="1.6" stroke-linecap="round" stroke-linejoin="round"/>
<path d="M8.51001 6.57141L12.1378 2.94367L62.9239 53.7298L59.2961 57.3575L8.51001 6.57141Z" fill="#8CA4B8" stroke="#45413C" stroke-width="1.6" stroke-linecap="round" stroke-linejoin="round"/>
<path d="M29.5953 7.07041C29.899 6.76669 30.2595 6.52576 30.6563 6.36137C31.0531 6.19697 31.4784 6.11234 31.9079 6.1123C32.3374 6.11227 32.7626 6.19683 33.1595 6.36115C33.5563 6.52547 33.9168 6.76635 34.2205 7.07001C34.5243 7.37368 34.7652 7.7342 34.9296 8.13098C35.094 8.52777 35.1786 8.95304 35.1787 9.38253C35.1787 9.81202 35.0941 10.2373 34.9298 10.6341C34.7655 11.0309 34.5246 11.3915 34.2209 11.6952L17.2609 28.6552C16.6455 29.2581 15.817 29.5938 14.9555 29.5894C14.094 29.585 13.269 29.2408 12.6598 28.6316C12.0506 28.0224 11.7064 27.1974 11.7019 26.3359C11.6975 25.4743 12.0332 24.6458 12.6361 24.0304L29.5953 7.07041Z" fill="#656769"/>
<path d="M34.2207 7.07046C33.917 6.76669 33.5564 6.52573 33.1596 6.36133C32.7627 6.19692 32.3374 6.1123 31.9079 6.1123C31.4783 6.1123 31.053 6.19692 30.6561 6.36133C30.2593 6.52573 29.8988 6.76669 29.5951 7.07046L25.1519 11.5145C25.4544 11.2057 25.8151 10.9599 26.2132 10.7914C26.6113 10.6229 27.0389 10.535 27.4712 10.5327C27.9035 10.5305 28.332 10.614 28.7318 10.7784C29.1316 10.9429 29.4948 11.1849 29.8005 11.4906C30.1062 11.7963 30.3483 12.1595 30.5127 12.5593C30.6771 12.9592 30.7606 13.3876 30.7584 13.8199C30.7561 14.2522 30.6682 14.6798 30.4997 15.0779C30.3312 15.476 30.0855 15.8367 29.7767 16.1393L34.2207 11.6953C34.8339 11.082 35.1784 10.2502 35.1784 9.38286C35.1784 8.51556 34.8339 7.68377 34.2207 7.07046Z" fill="#87898C"/>
<path d="M29.5953 7.07041C29.899 6.76669 30.2595 6.52576 30.6563 6.36137C31.0531 6.19697 31.4784 6.11234 31.9079 6.1123C32.3374 6.11227 32.7626 6.19683 33.1595 6.36115C33.5563 6.52547 33.9168 6.76635 34.2205 7.07001C34.5243 7.37368 34.7652 7.7342 34.9296 8.13098C35.094 8.52777 35.1786 8.95304 35.1787 9.38253C35.1787 9.81202 35.0941 10.2373 34.9298 10.6341C34.7655 11.0309 34.5246 11.3915 34.2209 11.6952L17.2609 28.6552C16.6455 29.2581 15.817 29.5938 14.9555 29.5894C14.094 29.585 13.269 29.2408 12.6598 28.6316C12.0506 28.0224 11.7064 27.1974 11.7019 26.3359C11.6975 25.4743 12.0332 24.6458 12.6361 24.0304L29.5953 7.07041Z" stroke="#45413C" stroke-width="1.6" stroke-linecap="round" stroke-linejoin="round"/>
<path d="M21.8864 5.52879C22.4997 4.9154 23.3316 4.57075 24.1989 4.57068C25.0663 4.5706 25.8982 4.9151 26.5116 5.52839C27.125 6.14168 27.4697 6.97351 27.4697 7.84091C27.4698 8.7083 27.1253 9.5402 26.512 10.1536L15.72 20.9456C15.1067 21.559 14.2749 21.9036 13.4075 21.9037C12.5401 21.9038 11.7082 21.5593 11.0948 20.946C10.4814 20.3327 10.1368 19.5009 10.1367 18.6335C10.1366 17.7661 10.4811 16.9342 11.0944 16.3208L21.8864 5.52879Z" fill="#656769"/>
<path d="M26.512 5.5288C25.8987 4.91556 25.0669 4.57104 24.1996 4.57104C23.3323 4.57104 22.5005 4.91556 21.8872 5.5288L19.2568 8.1584C19.8737 7.56213 20.7001 7.23212 21.558 7.2395C22.4159 7.24688 23.2365 7.59106 23.843 8.19786C24.4494 8.80465 24.7932 9.62545 24.8001 10.4833C24.8071 11.3412 24.4766 12.1675 23.88 12.784L26.5096 10.1536C27.1232 9.54061 27.4681 8.709 27.4686 7.8417C27.469 6.97439 27.125 6.14243 26.512 5.5288Z" fill="#87898C"/>
<path d="M21.8864 5.52879C22.4997 4.9154 23.3316 4.57075 24.1989 4.57068C25.0663 4.5706 25.8982 4.9151 26.5116 5.52839C27.125 6.14168 27.4697 6.97351 27.4697 7.84091C27.4698 8.7083 27.1253 9.5402 26.512 10.1536L15.72 20.9456C15.1067 21.559 14.2749 21.9036 13.4075 21.9037C12.5401 21.9038 11.7082 21.5593 11.0948 20.946C10.4814 20.3327 10.1368 19.5009 10.1367 18.6335C10.1366 17.7661 10.4811 16.9342 11.0944 16.3208L21.8864 5.52879Z" stroke="#45413C" stroke-width="1.6" stroke-linecap="round" stroke-linejoin="round"/>
<path d="M9.79999 11.4904L12.8616 14.552L20.12 7.29681L17.056 4.23521C16.906 4.08523 16.7025 4.00098 16.4904 4.00098C16.2783 4.00098 16.0748 4.08523 15.9248 4.23521L9.79999 10.36C9.65026 10.51 9.56616 10.7133 9.56616 10.9252C9.56616 11.1371 9.65026 11.3404 9.79999 11.4904Z" fill="#C0DCEB"/>
<path d="M9.79999 11.4904L12.8616 14.552L20.12 7.29681L17.056 4.23521C16.906 4.08523 16.7025 4.00098 16.4904 4.00098C16.2783 4.00098 16.0748 4.08523 15.9248 4.23521L9.79999 10.36C9.65026 10.51 9.56616 10.7133 9.56616 10.9252C9.56616 11.1371 9.65026 11.3404 9.79999 11.4904Z" stroke="#45413C" stroke-width="1.6" stroke-linecap="round" stroke-linejoin="round"/>
<path d="M58.7976 36.2728C59.1013 35.9691 59.3422 35.6085 59.5066 35.2117C59.671 34.8149 59.7556 34.3895 59.7556 33.96C59.7556 33.5305 59.671 33.1052 59.5066 32.7083C59.3422 32.3115 59.1013 31.9509 58.7976 31.6472C58.4939 31.3435 58.1333 31.1026 57.7365 30.9382C57.3396 30.7738 56.9143 30.6892 56.4848 30.6892C56.0553 30.6892 55.6299 30.7738 55.2331 30.9382C54.8363 31.1026 54.4757 31.3435 54.172 31.6472L37.212 48.6072C36.9032 48.9097 36.6574 49.2705 36.4889 49.6686C36.3204 50.0667 36.2325 50.4943 36.2303 50.9266C36.228 51.3589 36.3116 51.7873 36.476 52.1871C36.6404 52.5869 36.8824 52.9502 37.1881 53.2559C37.4938 53.5616 37.857 53.8036 38.2569 53.968C38.6567 54.1324 39.0851 54.2159 39.5174 54.2137C39.9497 54.2115 40.3773 54.1236 40.7754 53.9551C41.1735 53.7866 41.5343 53.5408 41.8368 53.232L58.7976 36.2728Z" fill="#656769"/>
<path d="M58.7976 31.6472C59.4108 32.2605 59.7553 33.0923 59.7553 33.9596C59.7553 34.8269 59.4108 35.6587 58.7976 36.272L54.3536 40.716C54.6624 40.4134 54.9081 40.0527 55.0766 39.6546C55.2451 39.2565 55.3331 38.8289 55.3353 38.3966C55.3375 37.9643 55.254 37.5359 55.0896 37.1361C54.9252 36.7362 54.6831 36.373 54.3774 36.0673C54.0718 35.7616 53.7085 35.5196 53.3087 35.3552C52.9089 35.1908 52.4804 35.1072 52.0481 35.1095C51.6158 35.1117 51.1883 35.1996 50.7901 35.3681C50.392 35.5366 50.0313 35.7824 49.7288 36.0912L54.1728 31.6472C54.4764 31.3434 54.8369 31.1025 55.2336 30.9381C55.6304 30.7737 56.0557 30.6891 56.4852 30.6891C56.9146 30.6891 57.3399 30.7737 57.7367 30.9381C58.1334 31.1025 58.4939 31.3434 58.7976 31.6472Z" fill="#87898C"/>
<path d="M58.7976 36.2728C59.1013 35.9691 59.3422 35.6085 59.5066 35.2117C59.671 34.8149 59.7556 34.3895 59.7556 33.96C59.7556 33.5305 59.671 33.1052 59.5066 32.7083C59.3422 32.3115 59.1013 31.9509 58.7976 31.6472C58.4939 31.3435 58.1333 31.1026 57.7365 30.9382C57.3396 30.7738 56.9143 30.6892 56.4848 30.6892C56.0553 30.6892 55.6299 30.7738 55.2331 30.9382C54.8363 31.1026 54.4757 31.3435 54.172 31.6472L37.212 48.6072C36.9032 48.9097 36.6574 49.2705 36.4889 49.6686C36.3204 50.0667 36.2325 50.4943 36.2303 50.9266C36.228 51.3589 36.3116 51.7873 36.476 52.1871C36.6404 52.5869 36.8824 52.9502 37.1881 53.2559C37.4938 53.5616 37.857 53.8036 38.2569 53.968C38.6567 54.1324 39.0851 54.2159 39.5174 54.2137C39.9497 54.2115 40.3773 54.1236 40.7754 53.9551C41.1735 53.7866 41.5343 53.5408 41.8368 53.232L58.7976 36.2728Z" stroke="#45413C" stroke-width="1.6" stroke-linecap="round" stroke-linejoin="round"/>
<path d="M60.3391 43.9809C60.6427 43.6771 60.8836 43.3166 61.0479 42.9198C61.2123 42.523 61.2968 42.0977 61.2968 41.6682C61.2967 41.2387 61.2121 40.8134 61.0477 40.4166C60.8833 40.0198 60.6424 39.6593 60.3387 39.3557C60.0349 39.052 59.6744 38.8111 59.2776 38.6468C58.8808 38.4825 58.4555 38.3979 58.026 38.3979C57.5965 38.398 57.1712 38.4826 56.7744 38.647C56.3777 38.8114 56.0171 39.0523 55.7135 39.3561L44.9199 50.1481C44.3066 50.7615 43.9621 51.5933 43.9622 52.4607C43.9622 53.3281 44.3069 54.16 44.9203 54.7733C45.5337 55.3865 46.3656 55.731 47.2329 55.731C48.1003 55.7309 48.9322 55.3863 49.5455 54.7729L60.3391 43.9809Z" fill="#656769"/>
<path d="M60.3392 39.356C60.9524 39.9693 61.2969 40.8011 61.2969 41.6684C61.2969 42.5357 60.9524 43.3675 60.3392 43.9808L57.7096 46.6104C58.0133 46.3067 58.2541 45.9461 58.4184 45.5493C58.5828 45.1525 58.6673 44.7272 58.6673 44.2977C58.6673 43.8682 58.5826 43.4429 58.4182 43.0462C58.2538 42.6494 58.0129 42.2888 57.7092 41.9852C57.4055 41.6815 57.0449 41.4406 56.6481 41.2763C56.2513 41.112 55.826 41.0274 55.3965 41.0275C54.967 41.0275 54.5417 41.1121 54.145 41.2765C53.7482 41.4409 53.3877 41.6819 53.084 41.9856L55.7136 39.356C56.0173 39.0522 56.3778 38.8112 56.7747 38.6468C57.1715 38.4824 57.5968 38.3978 58.0264 38.3978C58.4559 38.3978 58.8813 38.4824 59.2781 38.6468C59.6749 38.8112 60.0355 39.0522 60.3392 39.356Z" fill="#87898C"/>
<path d="M60.3391 43.9809C60.6427 43.6771 60.8836 43.3166 61.0479 42.9198C61.2123 42.523 61.2968 42.0977 61.2968 41.6682C61.2967 41.2387 61.2121 40.8134 61.0477 40.4166C60.8833 40.0198 60.6424 39.6593 60.3387 39.3557C60.0349 39.052 59.6744 38.8111 59.2776 38.6468C58.8808 38.4825 58.4555 38.3979 58.026 38.3979C57.5965 38.398 57.1712 38.4826 56.7744 38.647C56.3777 38.8114 56.0171 39.0523 55.7135 39.3561L44.9199 50.1481C44.3066 50.7615 43.9621 51.5933 43.9622 52.4607C43.9622 53.3281 44.3069 54.16 44.9203 54.7733C45.5337 55.3865 46.3656 55.731 47.2329 55.731C48.1003 55.7309 48.9322 55.3863 49.5455 54.7729L60.3391 43.9809Z" stroke="#45413C" stroke-width="1.6" stroke-linecap="round" stroke-linejoin="round"/>
<path d="M54.3776 56.0664L51.3152 53.0048L58.5704 45.7496L61.6328 48.8112C61.7828 48.9613 61.867 49.1647 61.867 49.3768C61.867 49.589 61.7828 49.7924 61.6328 49.9424L55.5088 56.0664C55.3588 56.2164 55.1553 56.3007 54.9432 56.3007C54.7311 56.3007 54.5276 56.2164 54.3776 56.0664Z" fill="#C0DCEB"/>
<path d="M54.3776 56.0664L51.3152 53.0048L58.5704 45.7496L61.6328 48.8112C61.7828 48.9613 61.867 49.1647 61.867 49.3768C61.867 49.589 61.7828 49.7924 61.6328 49.9424L55.5088 56.0664C55.3588 56.2164 55.1553 56.3007 54.9432 56.3007C54.7311 56.3007 54.5276 56.2164 54.3776 56.0664V56.0664Z" stroke="#45413C" stroke-width="1.6" stroke-linecap="round" stroke-linejoin="round"/>
<path d="M28.5454 49.1601L15.9638 61.7393L7.49902 53.2753L20.0814 40.6929C24.3214 36.4529 18.611 33.1793 25.3102 26.4801L26.8638 24.9257L29.5174 27.5793L28.1774 28.9201L29.6702 27.4297L32.4702 24.6297L34.8942 22.2001C35.2847 21.8097 35.8143 21.5904 36.3665 21.5905C36.9187 21.5905 37.4482 21.81 37.8386 22.2005C38.229 22.591 38.4483 23.1206 38.4482 23.6727C38.4482 24.2249 38.2287 24.7545 37.8382 25.1449L37.3782 25.6049C37.7686 25.2145 38.2981 24.9951 38.8502 24.9951C39.4023 24.9951 39.9318 25.2145 40.3222 25.6049C40.7126 25.9953 40.9319 26.5248 40.9319 27.0769C40.9319 27.629 40.7126 28.1585 40.3222 28.5489L39.5862 29.2849C39.7795 29.0916 40.009 28.9382 40.2616 28.8336C40.5141 28.729 40.7849 28.6751 41.0582 28.6751C41.3316 28.6751 41.6023 28.729 41.8549 28.8336C42.1074 28.9382 42.3369 29.0916 42.5302 29.2849C42.7235 29.4782 42.8769 29.7077 42.9815 29.9602C43.0861 30.2128 43.1399 30.4835 43.1399 30.7569C43.1399 31.0302 43.0861 31.3009 42.9815 31.5535C42.8769 31.8061 42.7235 32.0356 42.5302 32.2289L41.7942 32.9649C42.1846 32.5745 42.7141 32.3551 43.2662 32.3551C43.8183 32.3551 44.3478 32.5745 44.7382 32.9649C45.1286 33.3553 45.3479 33.8848 45.3479 34.4369C45.3479 34.989 45.1286 35.5185 44.7382 35.9089L38.6662 41.9809C34.8742 45.7729 32.7382 44.9657 30.5702 47.1337L28.5454 49.1601Z" fill="#D18660"/>
<path d="M35.1704 27.8128L37.3768 25.6064" stroke="#45413C" stroke-width="1.6" stroke-linecap="round" stroke-linejoin="round"/>
<path d="M40.936 33.8232L41.7944 32.9648" stroke="#45413C" stroke-width="1.6" stroke-linecap="round" stroke-linejoin="round"/>
<path d="M37.9919 30.8792L39.5863 29.2848" stroke="#45413C" stroke-width="1.6" stroke-linecap="round" stroke-linejoin="round"/>
<path d="M34.6646 44.8736C31.6819 43.4604 29.0527 41.3985 26.9692 38.8387C24.8857 36.2789 23.4005 33.2859 22.6222 30.0784C20.4774 34.508 23.4862 37.288 20.0814 40.6928L7.49902 53.2752L15.9638 61.7392L28.5454 49.16L30.5702 47.136C31.8342 45.8696 33.0878 45.6168 34.6646 44.8736Z" fill="#BD704A"/>
<path d="M7.49902 53.2753L20.0814 40.6929C24.3214 36.4529 18.611 33.1793 25.3102 26.4801L26.8638 24.9257L29.5174 27.5793L28.1774 28.9201L29.6702 27.4297L32.4702 24.6297L34.8942 22.2001C35.2847 21.8097 35.8143 21.5904 36.3665 21.5905C36.9187 21.5905 37.4482 21.81 37.8386 22.2005C38.229 22.591 38.4483 23.1206 38.4482 23.6727C38.4482 24.2249 38.2287 24.7545 37.8382 25.1449L37.3782 25.6049C37.7686 25.2145 38.2981 24.9951 38.8502 24.9951C39.4023 24.9951 39.9318 25.2145 40.3222 25.6049C40.7126 25.9953 40.9319 26.5248 40.9319 27.0769C40.9319 27.629 40.7126 28.1585 40.3222 28.5489L39.5862 29.2849C39.7795 29.0916 40.009 28.9382 40.2616 28.8336C40.5141 28.729 40.7848 28.6751 41.0582 28.6751C41.3316 28.6751 41.6023 28.729 41.8549 28.8336C42.1074 28.9382 42.3369 29.0916 42.5302 29.2849C42.7235 29.4782 42.8769 29.7077 42.9815 29.9602C43.0861 30.2128 43.1399 30.4835 43.1399 30.7569C43.1399 31.0302 43.0861 31.3009 42.9815 31.5535C42.8769 31.8061 42.7235 32.0356 42.5302 32.2289L41.7942 32.9649C42.1846 32.5745 42.7141 32.3551 43.2662 32.3551C43.8183 32.3551 44.3478 32.5745 44.7382 32.9649C45.1286 33.3553 45.3479 33.8848 45.3479 34.4369C45.3479 34.989 45.1286 35.5185 44.7382 35.9089L38.6662 41.9809C34.8742 45.7729 32.7382 44.9657 30.5702 47.1337L28.5454 49.1601L15.9638 61.7393" stroke="#45413C" stroke-width="1.6" stroke-linecap="round" stroke-linejoin="round"/>
<path d="M17.5701 46.358L22.7223 41.2058L27.8746 46.358L22.7223 51.5103L17.5701 46.358Z" fill="#00B8F0"/>
<path d="M24.9306 41.9417L24.1946 42.6785" stroke="#45413C" stroke-width="1.6" stroke-linecap="round" stroke-linejoin="round"/>
<path d="M19.7641 40.2752C19.5638 40.1249 19.3159 40.0519 19.0661 40.0696C18.8162 40.0874 18.5812 40.1948 18.4041 40.372L16.7361 42.04C16.5589 42.217 16.4516 42.4521 16.4338 42.7019C16.416 42.9518 16.489 43.1997 16.6393 43.4L18.3057 45.6224L21.9857 41.9424L19.7641 40.2752Z" fill="white" stroke="#45413C" stroke-width="1.6" stroke-linecap="round" stroke-linejoin="round"/>
<path d="M28.8048 49.32C28.9552 49.5203 29.0282 49.7682 29.0104 50.018C28.9926 50.2679 28.8852 50.5029 28.708 50.68L27.0408 52.344C26.8638 52.5212 26.6288 52.6285 26.3789 52.6463C26.1291 52.6641 25.8812 52.5911 25.6808 52.4408L23.4592 50.7744L27.1392 47.0944L28.8048 49.32Z" fill="white" stroke="#45413C" stroke-width="1.6" stroke-linecap="round" stroke-linejoin="round"/>
<path d="M22.6912 51.08C22.426 51.0727 22.1737 50.9639 21.9864 50.776L18.3064 47.096C18.2097 46.9994 18.1329 46.8847 18.0806 46.7584C18.0282 46.6321 18.0012 46.4967 18.0012 46.36C18.0012 46.2233 18.0282 46.0879 18.0806 45.9616C18.1329 45.8353 18.2097 45.7206 18.3064 45.624L21.9864 41.944C22.1737 41.7561 22.426 41.6473 22.6912 41.64V51.08Z" fill="#4ACFFF"/>
<path d="M17.5701 46.358L22.7223 41.2058L27.8746 46.358L22.7223 51.5103L17.5701 46.358Z" stroke="#45413C" stroke-width="1.6" stroke-linecap="round" stroke-linejoin="round"/>
</svg>

