<svg
  id="graphic-floating-cash"
  viewBox="0 0 96 96"
  fill="none"
  xmlns="http://www.w3.org/2000/svg"
>
  <path
    d="M9.59961 53.3846C9.59961 63.5689 13.6453 73.3361 20.8467 80.5375C28.0481 87.7389 37.8153 91.7846 47.9996 91.7846C58.1839 91.7846 67.9511 87.7389 75.1525 80.5375C82.3539 73.3361 86.3996 63.5689 86.3996 53.3846C86.3996 43.2003 82.3539 33.4331 75.1525 26.2317C67.9511 19.0303 58.1839 14.9846 47.9996 14.9846C37.8153 14.9846 28.0481 19.0303 20.8467 26.2317C13.6453 33.4331 9.59961 43.2003 9.59961 53.3846Z"
    fill="#C7F0FF"
  />
  <path
    fill-rule="evenodd"
    clip-rule="evenodd"
    d="M20.5078 25.8923C27.7992 18.6009 37.6885 14.5046 48.0001 14.5046C58.3117 14.5046 68.201 18.6009 75.4924 25.8923C82.7838 33.1837 86.8801 43.073 86.8801 53.3846C86.8801 63.6963 82.7838 73.5855 75.4924 80.8769C68.201 88.1684 58.3117 92.2646 48.0001 92.2646C37.6885 92.2646 27.7992 88.1684 20.5078 80.8769C13.2164 73.5855 9.12012 63.6963 9.12012 53.3846C9.12012 43.073 13.2164 33.1837 20.5078 25.8923ZM48.0001 15.4646C37.9431 15.4646 28.298 19.4598 21.1866 26.5711C14.0752 33.6825 10.0801 43.3276 10.0801 53.3846C10.0801 63.4416 14.0752 73.0867 21.1866 80.1981C28.298 87.3095 37.9431 91.3046 48.0001 91.3046C58.0571 91.3046 67.7022 87.3095 74.8136 80.1981C81.925 73.0867 85.9201 63.4416 85.9201 53.3846C85.9201 43.3276 81.925 33.6825 74.8136 26.5711C67.7022 19.4598 58.0571 15.4646 48.0001 15.4646Z"
    fill="#ACE5FA"
  />
  <path
    fill-rule="evenodd"
    clip-rule="evenodd"
    d="M57.6734 35.4519C57.9385 35.4519 58.1534 35.6668 58.1534 35.9319V41.4653C58.1534 41.7304 57.9385 41.9453 57.6734 41.9453C57.4083 41.9453 57.1934 41.7304 57.1934 41.4653V35.9319C57.1934 35.6668 57.4083 35.4519 57.6734 35.4519Z"
    fill="#45413C"
  />
  <path
    d="M57.6731 31.7241L55.8567 34.4246C55.7589 34.5702 55.7025 34.7397 55.6936 34.915C55.6847 35.0902 55.7236 35.2645 55.8062 35.4194C55.8887 35.5742 56.0118 35.7036 56.1622 35.7939C56.3127 35.8842 56.4848 35.9318 56.6603 35.9318H58.6859C58.8614 35.932 59.0336 35.8844 59.1841 35.7941C59.3346 35.7039 59.4577 35.5743 59.5402 35.4194C59.6227 35.2645 59.6614 35.0901 59.6523 34.9148C59.6432 34.7396 59.5865 34.5701 59.4884 34.4246L57.6731 31.7241Z"
    fill="#FFE500"
  />
  <path
    fill-rule="evenodd"
    clip-rule="evenodd"
    d="M57.6726 31.2441C57.8324 31.2442 57.9818 31.3237 58.0709 31.4564L59.8859 34.1563C59.886 34.1564 59.8858 34.1562 59.8859 34.1563C60.0326 34.374 60.1175 34.6277 60.1312 34.8899C60.1448 35.1522 60.0868 35.4132 59.9634 35.6451C59.8399 35.8769 59.6557 36.0707 59.4305 36.2058C59.2053 36.3408 58.9477 36.412 58.6852 36.4118M56.6599 36.4118C56.6598 36.4118 56.6599 36.4118 56.6599 36.4118V36.4118ZM56.2546 34.6924C56.2546 34.6924 56.2546 34.6923 56.2546 34.6924C56.2054 34.7657 56.177 34.8511 56.1725 34.9394C56.168 35.0277 56.1876 35.1155 56.2292 35.1936C56.2708 35.2716 56.3328 35.3368 56.4087 35.3823C56.4845 35.4278 56.5712 35.4518 56.6597 35.4518H58.6854C58.7737 35.4519 58.861 35.428 58.9367 35.3825C59.0125 35.3371 59.0745 35.2719 59.116 35.1939C59.1575 35.1159 59.1771 35.0281 59.1725 34.9398C59.1679 34.8516 59.1393 34.7662 59.0899 34.693L57.6725 32.5844L56.2546 34.6924Z"
    fill="#45413C"
  />
  <path
    d="M71.3673 14.0505C71.3673 23.5545 63.1507 31.9872 57.6729 31.9872C52.1951 31.9872 43.9775 23.5497 43.9775 14.0505C44.0078 10.4383 45.464 6.98429 48.029 4.44067C50.594 1.89705 54.06 0.469849 57.6724 0.469849C61.2848 0.469849 64.7509 1.89705 67.3159 4.44067C69.8809 6.98429 71.3371 10.4383 71.3673 14.0505Z"
    fill="#FFE500"
  />
  <path
    d="M57.8821 26.9021C57.6652 26.9019 57.4505 26.8589 57.2502 26.7756C57.0499 26.6924 56.868 26.5704 56.7148 26.4168C56.5616 26.2632 56.4402 26.0809 56.3575 25.8804C56.2749 25.6799 56.2325 25.465 56.2329 25.2481V24.8727C55.2058 24.5318 54.3116 23.8771 53.6764 23.001C53.0412 22.1248 52.697 21.0714 52.6924 19.9892C52.6924 19.5515 52.8662 19.1318 53.1757 18.8223C53.4852 18.5128 53.905 18.3389 54.3426 18.3389C54.7803 18.3389 55.2 18.5128 55.5095 18.8223C55.819 19.1318 55.9929 19.5515 55.9929 19.9892C55.9977 20.4858 56.1993 20.9602 56.5535 21.3082C56.9077 21.6563 57.3855 21.8497 57.8821 21.8458H58.1423C58.5707 21.8499 58.9833 21.6838 59.2893 21.3839C59.5953 21.084 59.7697 20.6749 59.7743 20.2465C59.7738 19.9481 59.6895 19.6559 59.531 19.4032C59.3725 19.1504 59.1461 18.9473 58.8777 18.817L55.4265 17.1092C54.6056 16.708 53.9141 16.0841 53.4308 15.3086C52.9475 14.5332 52.692 13.6376 52.6933 12.7239C52.702 11.6649 53.0508 10.6366 53.6883 9.7909C54.3257 8.94515 55.2181 8.32666 56.2338 8.02663V7.72519C56.2442 7.29453 56.4226 6.88501 56.7308 6.5841C57.0391 6.28319 57.4528 6.11475 57.8836 6.11475C58.3144 6.11475 58.7281 6.28319 59.0363 6.5841C59.3446 6.88501 59.523 7.29453 59.5333 7.72519V8.10151C60.56 8.44194 61.4539 9.09616 62.0888 9.97186C62.7237 10.8476 63.0675 11.9005 63.0719 12.9821C63.0772 13.2021 63.0385 13.421 62.9579 13.6258C62.8774 13.8306 62.7567 14.0172 62.603 14.1747C62.4493 14.3322 62.2656 14.4573 62.0628 14.5427C61.86 14.6282 61.6422 14.6722 61.4221 14.6722C61.2021 14.6722 60.9842 14.6282 60.7814 14.5427C60.5786 14.4573 60.395 14.3322 60.2413 14.1747C60.0875 14.0172 59.9669 13.8306 59.8863 13.6258C59.8058 13.421 59.7671 13.2021 59.7724 12.9821C59.7673 12.4854 59.5653 12.011 59.2107 11.663C58.8561 11.3151 58.3779 11.1221 57.8812 11.1265H57.6239C57.1953 11.1229 56.7828 11.2895 56.4768 11.5897C56.1709 11.8898 55.9965 12.2991 55.9919 12.7277C55.9924 13.026 56.0768 13.318 56.2353 13.5706C56.3939 13.8232 56.6202 14.0261 56.8885 14.1562L60.3445 15.8641C61.1646 16.266 61.8552 16.8904 62.3374 17.6659C62.8197 18.4415 63.0742 19.337 63.0719 20.2503C63.0633 21.3093 62.7145 22.3374 62.0771 23.183C61.4396 24.0286 60.5471 24.6469 59.5314 24.9466V25.2481C59.5319 25.6861 59.3585 26.1064 59.0492 26.4165C58.7399 26.7267 58.3202 26.9014 57.8821 26.9021Z"
    fill="#FFFCE5"
  />
  <path
    fill-rule="evenodd"
    clip-rule="evenodd"
    d="M57.8841 6.59464C57.5786 6.59464 57.2852 6.71409 57.0666 6.92748C56.8493 7.13963 56.723 7.42792 56.7143 7.73137V8.02652C56.7143 8.23925 56.5743 8.4266 56.3703 8.48686C55.4533 8.75774 54.6476 9.31614 54.0721 10.0797C53.4969 10.8429 53.182 11.7706 53.1738 12.7261C53.1729 13.5493 53.4033 14.3561 53.8387 15.0547C54.2743 15.7537 54.8977 16.3161 55.6377 16.6778L55.6399 16.6789L59.0878 18.3851C59.0884 18.3854 59.089 18.3857 59.0895 18.386C59.4381 18.5556 59.7321 18.8196 59.9381 19.148C60.1445 19.477 60.2542 19.8573 60.2548 20.2456L60.2548 20.2515C60.2489 20.8071 60.0226 21.3377 59.6258 21.7266C59.2295 22.115 58.6955 22.3304 58.1407 22.3257H57.8844C57.2614 22.33 56.662 22.0872 56.2176 21.6505C55.7727 21.2133 55.5194 20.6175 55.5134 19.9937L55.5133 19.9891C55.5133 19.6787 55.3901 19.3811 55.1706 19.1616C54.9512 18.9421 54.6535 18.8188 54.3431 18.8188C54.0328 18.8188 53.7351 18.9421 53.5156 19.1616C53.2964 19.3808 53.1731 19.6781 53.1729 19.9881C53.1773 20.9694 53.4895 21.9246 54.0655 22.7191C54.6417 23.5139 55.4529 24.1078 56.3846 24.417C56.5809 24.4822 56.7134 24.6658 56.7134 24.8726V25.248L56.7134 25.2488C56.7131 25.4027 56.7432 25.5551 56.8018 25.6973C56.8605 25.8396 56.9466 25.9689 57.0552 26.0778C57.1638 26.1868 57.2929 26.2732 57.435 26.3323C57.5768 26.3913 57.7288 26.4218 57.8824 26.422C58.1929 26.4213 58.4905 26.2974 58.7098 26.0775C58.9292 25.8575 59.0523 25.5593 59.0519 25.2485L59.0519 24.9465C59.0519 24.7338 59.192 24.5464 59.3961 24.4862C60.313 24.2156 61.1187 23.6574 61.6943 22.894C62.2695 22.1309 62.5844 21.2032 62.5924 20.2477C62.5942 19.4249 62.3648 18.6181 61.9303 17.9193C61.4956 17.2201 60.8731 16.6573 60.1338 16.295L60.1324 16.2943L56.6779 14.5872C56.3294 14.4178 56.0353 14.1539 55.8293 13.8257C55.6229 13.4969 55.5131 13.1167 55.5124 12.7285L55.5124 12.7225C55.5183 12.1668 55.7445 11.6361 56.1411 11.2469C56.5373 10.8582 57.0713 10.6423 57.6263 10.6464H57.8797C58.5028 10.6415 59.1026 10.8838 59.5474 11.3203C59.9928 11.7573 60.2465 12.3532 60.2529 12.9771C60.2529 12.9826 60.2529 12.9881 60.2527 12.9936C60.249 13.1496 60.2765 13.3048 60.3336 13.45C60.3907 13.5953 60.4762 13.7276 60.5852 13.8393C60.6942 13.951 60.8245 14.0397 60.9683 14.1003C61.1121 14.1609 61.2666 14.1921 61.4226 14.1921C61.5787 14.1921 61.7332 14.1609 61.877 14.1003C62.0208 14.0397 62.151 13.951 62.26 13.8393C62.3691 13.7276 62.4546 13.5953 62.5117 13.45C62.5688 13.3048 62.5963 13.1496 62.5925 12.9936L62.5923 12.984C62.5884 12.0029 62.2765 11.0478 61.7007 10.2535C61.1248 9.45921 60.314 8.8658 59.3828 8.55701C59.1864 8.4919 59.0538 8.30829 59.0538 8.1014V7.73136C59.0452 7.42791 58.9189 7.13963 58.7015 6.92748C58.4829 6.71409 58.1896 6.59464 57.8841 6.59464ZM57.8826 26.902L57.8821 27.382C57.6021 27.3817 57.3249 27.3262 57.0664 27.2188C56.8079 27.1113 56.5731 26.9539 56.3754 26.7556C56.1777 26.5574 56.021 26.3221 55.9143 26.0633C55.8076 25.8046 55.7529 25.5274 55.7534 25.2475C55.7534 25.2474 55.7534 25.2477 55.7534 25.2475L55.8549 25.2473C55.8209 25.2344 55.7871 25.2212 55.7534 25.2076V24.8726H56.2334L56.1089 25.2477L56.0822 25.3282C56.0063 25.303 55.9311 25.2762 55.8566 25.248L55.7534 25.2475V25.2076C54.7691 24.8117 53.9138 24.1454 53.2883 23.2826C52.5941 22.3251 52.2179 21.1738 52.2129 19.9911L52.2129 19.9891C52.2129 19.4241 52.4373 18.8823 52.8368 18.4828C53.2363 18.0833 53.7782 17.8588 54.3431 17.8588C54.9081 17.8588 55.4499 18.0833 55.8494 18.4828C56.2483 18.8817 56.4727 19.4224 56.4734 19.9864C56.4734 19.9858 56.4734 19.9851 56.4733 19.9844L55.9934 19.9891H56.4734C56.4734 19.9882 56.4734 19.9873 56.4734 19.9864C56.4775 20.3552 56.6274 20.7073 56.8905 20.9658C57.154 21.2248 57.5095 21.3686 57.8789 21.3657L57.8826 21.3657L58.1474 21.3657C58.4486 21.3686 58.7387 21.2518 58.9538 21.041C59.1683 20.8308 59.2908 20.5444 59.2948 20.2442C59.2948 20.2452 59.2948 20.2461 59.2948 20.2471L59.7748 20.2464L59.2948 20.2413C59.2948 20.2422 59.2948 20.2432 59.2948 20.2442C59.2939 20.0368 59.2351 19.8338 59.1249 19.6581C59.0141 19.4816 58.856 19.3397 58.6686 19.2487L58.6653 19.2471L55.2162 17.5403L55.427 17.1091L55.2141 17.5393L55.215 17.5398C54.3138 17.099 53.5546 16.4138 53.0239 15.5624C52.4931 14.7106 52.2124 13.7268 52.2139 12.7231L52.2139 12.7199C52.2234 11.5579 52.6061 10.4298 53.3055 9.50188C53.9322 8.67037 54.7835 8.03907 55.7555 7.68C55.7551 7.69116 55.7547 7.70233 55.7545 7.71351L55.7543 7.72508V8.02652H56.2343L56.0983 7.56619C55.9826 7.60039 55.8682 7.63836 55.7555 7.68C55.7772 7.13638 56.0061 6.62114 56.3961 6.24052C56.794 5.85208 57.328 5.63464 57.8841 5.63464C58.4402 5.63464 58.9742 5.85209 59.3721 6.24052C59.77 6.62896 60.0003 7.15759 60.0137 7.71351L60.0138 7.72508V7.76632C60.9977 8.16185 61.8527 8.82768 62.4779 9.69001C63.1709 10.6459 63.5467 11.795 63.5524 12.9755C63.5585 13.2578 63.5085 13.5385 63.4052 13.8013C63.3012 14.0657 63.1454 14.3066 62.947 14.5099C62.7486 14.7132 62.5115 14.8747 62.2497 14.985C61.9879 15.0953 61.7067 15.1521 61.4226 15.1521C61.1386 15.1521 60.8574 15.0953 60.5956 14.985C60.3338 14.8747 60.0967 14.7132 59.8983 14.5099C59.6999 14.3066 59.5441 14.0657 59.4401 13.8013C59.3373 13.5398 59.2873 13.2607 59.2928 12.9798C59.2872 12.6128 59.1372 12.2627 58.875 12.0055C58.6112 11.7467 58.2555 11.6031 57.8859 11.6063L57.8817 11.6064L57.6204 11.6064C57.3189 11.6038 57.0287 11.721 56.8135 11.9322C56.599 12.1426 56.4764 12.4294 56.4724 12.7298C56.4733 12.937 56.5322 13.1398 56.6424 13.3153C56.7531 13.4917 56.9111 13.6334 57.0985 13.7242L57.1017 13.7258L60.5563 15.4329C60.5565 15.4331 60.5568 15.4332 60.557 15.4333C61.4576 15.8748 62.2159 16.5606 62.7456 17.4124C63.2753 18.2644 63.5549 19.2481 63.5524 20.2514L63.5524 20.2541C63.543 21.416 63.1603 22.5441 62.4608 23.4719C61.8342 24.303 60.9832 24.934 60.0115 25.2929C60.0004 25.8417 59.778 26.3658 59.3896 26.7554C58.9905 27.1556 58.4488 27.3811 57.8835 27.382L57.8826 26.902Z"
    fill="#B58B00"
  />
  <path
    d="M71.1936 16.5235C70.6408 13.3386 68.9815 10.4511 66.5081 8.3699C64.0346 6.28873 60.9059 5.14757 57.6734 5.14757C54.4409 5.14757 51.3121 6.28873 48.8387 8.3699C46.3653 10.4511 44.7059 13.3386 44.1532 16.5235C44.0383 15.7042 43.9796 14.8779 43.9775 14.0505C44.0078 10.4383 45.464 6.98429 48.029 4.44067C50.594 1.89705 54.06 0.469849 57.6724 0.469849C61.2848 0.469849 64.7509 1.89705 67.3159 4.44067C69.8809 6.98429 71.3371 10.4383 71.3673 14.0505C71.3657 14.8779 71.307 15.7042 71.1916 16.5235"
    fill="#FFF48C"
  />
  <path
    fill-rule="evenodd"
    clip-rule="evenodd"
    d="M57.6729 0.949868C54.1872 0.949868 50.8426 2.32705 48.3675 4.78152C45.8928 7.23552 44.4878 10.5677 44.458 14.0526C44.4586 18.6661 46.4572 23.0445 49.1408 26.2743C50.4811 27.8876 51.9827 29.2023 53.4725 30.1106C54.9671 31.022 56.421 31.5072 57.6734 31.5072C58.9258 31.5072 60.3797 31.0222 61.8743 30.1112C63.3639 29.2033 64.8653 27.8891 66.2056 26.2761C68.8889 23.0469 70.8873 18.6685 70.8878 14.0524C70.8581 10.5676 69.453 7.23548 66.9784 4.78152C64.5033 2.32705 61.1587 0.949868 57.6729 0.949868ZM71.3677 14.0506L71.8478 14.0465C71.8165 10.3077 70.3093 6.73263 67.6544 4.09986C64.9995 1.46709 61.4119 -0.0101318 57.6729 -0.0101318C53.9339 -0.0101318 50.3464 1.46709 47.6915 4.09986C45.0366 6.73263 43.5294 10.3077 43.4981 14.0465H43.498V14.0506C43.498 18.9355 45.6081 23.5247 48.4024 26.8878C49.8011 28.5713 51.381 29.9597 52.9727 30.9303C54.5594 31.8978 56.1869 32.4672 57.6734 32.4672C59.1598 32.4672 60.7872 31.8981 62.3739 30.931C63.9655 29.9608 65.5453 28.5729 66.9439 26.8897C69.7381 23.527 71.8478 18.9378 71.8478 14.0506H71.3677Z"
    fill="#45413C"
  />
  <path
    d="M55.6315 43.0407C56.604 49.321 52.5029 55.3422 46.3771 56.2887C37.9579 57.6001 33.4872 61.2999 31.3311 71.8023L35.7471 72.8516C35.7471 72.8516 36.5093 66.9294 40.1544 63.6961L42.3365 77.7284L56.1432 75.5886L53.4639 58.3306C55.9711 56.5603 57.9324 54.123 59.1255 51.2951C60.3187 48.4672 60.6959 45.3616 60.2146 42.3303L55.6315 43.0407Z"
    fill="white"
  />
  <path
    d="M45.8008 57.4608L46.2721 69.7488L48.6078 71.714L50.2389 69.1344L46.6629 57.3274L45.8008 57.4608Z"
    fill="#6DD627"
  />
  <path
    fill-rule="evenodd"
    clip-rule="evenodd"
    d="M46.589 56.853C46.8253 56.8164 47.0525 56.9593 47.1218 57.1882L50.6978 68.9952C50.7382 69.1287 50.7186 69.2731 50.6441 69.3909L49.0131 71.9704C48.939 72.0876 48.8179 72.167 48.6809 72.1882C48.5439 72.2095 48.4044 72.1704 48.2983 72.0812L45.9627 70.1161C45.8592 70.029 45.7972 69.9023 45.792 69.7672L45.3207 57.4792C45.3113 57.2356 45.486 57.0237 45.7269 56.9864L46.589 56.853ZM46.2964 57.8697L46.7432 69.5182L48.4956 70.9925L49.7154 69.0634L46.3238 57.8655L46.2964 57.8697Z"
    fill="#45413C"
  />
  <path
    d="M45.1787 58.4813L45.4984 60.5395C45.5164 60.6567 45.5574 60.7692 45.6189 60.8706C45.6805 60.972 45.7614 61.0602 45.857 61.1303C45.9527 61.2004 46.0612 61.2509 46.1765 61.279C46.2917 61.3071 46.4113 61.3122 46.5285 61.2941L47.3301 61.1693C47.4473 61.1512 47.5598 61.1103 47.6612 61.0488C47.7625 60.9872 47.8508 60.9063 47.9209 60.8106C47.9909 60.715 48.0415 60.6064 48.0696 60.4912C48.0977 60.376 48.1028 60.2564 48.0846 60.1392L47.7506 57.984C47.3953 58.08 47.0351 58.1566 46.6715 58.2134C46.1582 58.2922 45.6606 58.3814 45.1787 58.4813Z"
    fill="#6DD627"
  />
  <path
    fill-rule="evenodd"
    clip-rule="evenodd"
    d="M48.0118 57.5816C48.1262 57.656 48.2036 57.7756 48.2245 57.9105L48.5586 60.0657C48.5864 60.2452 48.5785 60.4285 48.5355 60.605C48.4924 60.7815 48.415 60.9478 48.3077 61.0943C48.2003 61.2409 48.0651 61.3648 47.9098 61.4591C47.7547 61.5533 47.5824 61.616 47.403 61.6437C47.4029 61.6437 47.4032 61.6436 47.403 61.6437L46.6019 61.7684C46.4224 61.7962 46.2388 61.7884 46.0623 61.7454C45.8858 61.7023 45.7195 61.6249 45.573 61.5176C45.4264 61.4102 45.3025 61.275 45.2082 61.1197C45.114 60.9645 45.0513 60.7923 45.0236 60.6129C45.0236 60.6128 45.0236 60.613 45.0236 60.6129L44.704 58.555C44.6647 58.3023 44.8305 58.0632 45.0809 58.0113C45.5712 57.9097 46.0768 57.819 46.5976 57.7391C46.9438 57.685 47.2867 57.612 47.6249 57.5206C47.7567 57.485 47.8974 57.5072 48.0118 57.5816ZM47.3558 58.5739C47.1535 58.6177 46.9499 58.6557 46.7453 58.6877L46.7439 58.6879C46.396 58.7413 46.0559 58.7995 45.7233 58.8626L45.9724 60.4666C45.9808 60.5214 46 60.5741 46.0288 60.6215C46.0576 60.669 46.0955 60.7103 46.1403 60.7431C46.1851 60.7759 46.2359 60.7996 46.2898 60.8127C46.3437 60.8259 46.3997 60.8283 46.4546 60.8198C46.4546 60.8198 46.4545 60.8198 46.4546 60.8198L47.2567 60.6949C47.3116 60.6864 47.3642 60.6673 47.4117 60.6385C47.4591 60.6097 47.5004 60.5718 47.5332 60.527C47.566 60.4822 47.5897 60.4314 47.6028 60.3775C47.616 60.3236 47.6184 60.2676 47.6099 60.2128C47.6099 60.2127 47.6099 60.2128 47.6099 60.2128L47.3558 58.5739Z"
    fill="#45413C"
  />
  <path
    d="M41.999 75.6034L55.8089 73.4633L56.1381 75.5874L42.3282 77.7275L41.999 75.6034Z"
    fill="#B89558"
  />
  <path
    fill-rule="evenodd"
    clip-rule="evenodd"
    d="M41.5247 75.677C41.4841 75.415 41.6635 75.1697 41.9255 75.1291L55.7354 72.989C55.9974 72.9484 56.2426 73.1279 56.2832 73.3899L56.6124 75.5139C56.653 75.7759 56.4735 76.0212 56.2116 76.0618L42.4017 78.2019C42.1397 78.2425 41.8944 78.063 41.8538 77.8011L41.5247 75.677ZM42.5469 76.0043L42.729 77.1797L55.5902 75.1866L55.4081 74.0112L42.5469 76.0043Z"
    fill="#45413C"
  />
  <path
    d="M56.138 75.5885L58.7166 92.2282L54.1739 92.9328L50.9684 82.8759C50.909 82.6882 50.7917 82.5242 50.6334 82.4072C50.4751 82.2902 50.2838 82.2263 50.087 82.2246C49.8901 82.2229 49.6978 82.2835 49.5375 82.3977C49.3771 82.5119 49.257 82.6739 49.1943 82.8605C48.5406 84.8362 47.3598 87.1728 45.2958 88.1626C42.8095 89.2895 40.0729 89.7504 37.3547 89.4999L37.1387 85.2471C38.0128 85.2741 38.877 85.0567 39.6343 84.6193C40.3915 84.1819 41.0117 83.5419 41.4251 82.7712C42.2945 81.2432 42.6134 79.4632 42.3284 77.7283L56.138 75.5885Z"
    fill="#00B8F0"
  />
  <path
    d="M42.3454 80.0909L56.4958 77.8973L56.1377 75.5885L42.3281 77.7283C42.4642 78.5095 42.47 79.3078 42.3454 80.0909Z"
    fill="#009FD9"
  />
  <path
    fill-rule="evenodd"
    clip-rule="evenodd"
    d="M56.065 75.1141C56.327 75.0735 56.5723 75.253 56.6129 75.515L59.1914 92.1546C59.232 92.4166 59.0526 92.6618 58.7907 92.7025L54.248 93.4071C54.0142 93.4434 53.7889 93.3039 53.7171 93.0786L50.5114 83.0208C50.4825 82.9297 50.4255 82.85 50.3487 82.7932C50.2718 82.7364 50.1789 82.7054 50.0833 82.7045C49.9877 82.7037 49.8943 82.7331 49.8165 82.7886C49.7389 82.8439 49.6807 82.9223 49.6501 83.0125C48.9893 85.009 47.7559 87.5154 45.5038 88.5954L45.4945 88.5997C42.9324 89.761 40.1123 90.2359 37.3111 89.9778C37.0734 89.9559 36.8879 89.7626 36.8758 89.5242L36.6598 85.2714C36.653 85.1374 36.7025 85.0068 36.7964 84.911C36.8903 84.8152 37.02 84.7631 37.154 84.7673C37.9388 84.7915 38.7148 84.5963 39.3947 84.2036C40.0746 83.8109 40.6315 83.2362 41.0026 82.5443L41.0084 82.5338C41.8235 81.1013 42.1224 79.4325 41.8553 77.8061C41.8345 77.6797 41.8651 77.5503 41.9403 77.4466C42.0154 77.3429 42.1289 77.2736 42.2554 77.254L56.065 75.1141ZM42.8669 78.1307C43.042 79.8176 42.6873 81.5218 41.8457 83.0034C41.3902 83.8504 40.7077 84.5538 39.8749 85.0349C39.1907 85.4301 38.4273 85.6623 37.6437 85.7168L37.8132 89.0543C40.3099 89.2161 42.8104 88.7614 45.0933 87.7275C46.9661 86.8269 48.0929 84.6628 48.7392 82.7097L48.7399 82.7076C48.8348 82.425 49.0167 82.1797 49.2595 82.0067C49.5023 81.8338 49.7935 81.742 50.0916 81.7446C50.3897 81.7472 50.6794 81.8439 50.9191 82.0211C51.1587 82.1981 51.3362 82.4462 51.4263 82.7301M51.4265 82.7309L54.5069 92.3955L58.1693 91.8274L55.7377 76.1363L42.8669 78.1307"
    fill="#45413C"
  />
  <path
    d="M34.6367 91.6406C36.7132 91.655 37.5503 89.6303 37.5628 87.8342L37.5801 85.2796L35.6438 85.2662C35.5168 85.2648 35.3908 85.2886 35.2731 85.3362C35.1554 85.3838 35.0484 85.4543 34.9581 85.5436C34.8678 85.6329 34.7962 85.7392 34.7473 85.8563C34.6984 85.9735 34.6732 86.0992 34.6732 86.2262L34.6367 91.6406Z"
    fill="#915E3A"
  />
  <path
    fill-rule="evenodd"
    clip-rule="evenodd"
    d="M35.6485 84.7862C35.6488 84.7862 35.6492 84.7862 35.6495 84.7862L37.5839 84.7996C37.849 84.8015 38.0624 85.0178 38.0606 85.2829L38.0433 87.8374C38.0366 88.7978 37.811 89.85 37.2776 90.6766C36.7311 91.5233 35.859 92.1291 34.6339 92.1206C34.3688 92.1187 34.1555 91.9024 34.1572 91.6374L34.1937 86.2244C34.1939 86.0346 34.2317 85.8467 34.3048 85.6715C34.3782 85.4957 34.4857 85.3363 34.6211 85.2023C34.7564 85.0684 34.9171 84.9627 35.0936 84.8913C35.2698 84.82 35.4584 84.7843 35.6485 84.7862ZM35.639 85.7462C35.5755 85.7455 35.5125 85.7574 35.4537 85.7812C35.3948 85.805 35.3413 85.8402 35.2962 85.8849C35.251 85.9295 35.2152 85.9827 35.1907 86.0412C35.1663 86.0998 35.1537 86.1627 35.1537 86.2262L35.1537 86.2294L35.1208 91.1169C35.7186 90.998 36.1556 90.6447 36.471 90.1561C36.8783 89.5249 37.0775 88.6667 37.0833 87.8309C37.0833 87.8309 37.0833 87.831 37.0833 87.8309L37.0973 85.7563L35.6409 85.7462L35.639 85.7462Z"
    fill="#45413C"
  />
  <path
    d="M60.9841 94.6896C60.6702 92.6372 58.539 92.1303 56.7601 92.402L54.2344 92.786L54.5224 94.6992C54.541 94.8247 54.5843 94.9452 54.6497 95.0538C54.7152 95.1624 54.8015 95.257 54.9037 95.332C55.0059 95.4071 55.1219 95.4612 55.2452 95.4911C55.3684 95.5211 55.4963 95.5264 55.6216 95.5066L60.9841 94.6896Z"
    fill="#915E3A"
  />
  <path
    fill-rule="evenodd"
    clip-rule="evenodd"
    d="M59.6143 92.2348C60.5371 92.6406 61.273 93.4061 61.4582 94.617C61.4775 94.7429 61.4459 94.8713 61.3705 94.9739C61.2951 95.0765 61.1819 95.1449 61.056 95.1641L55.696 95.9807C55.6955 95.9807 55.6951 95.9808 55.6946 95.9809C55.5071 96.0103 55.3157 96.0023 55.1314 95.9575C54.9465 95.9126 54.7724 95.8315 54.6191 95.7189C54.4658 95.6062 54.3364 95.4644 54.2382 95.3015C54.1401 95.1387 54.0752 94.9581 54.0473 94.7702C54.0472 94.77 54.0473 94.7704 54.0473 94.7702L53.7593 92.8574C53.7199 92.5955 53.9 92.3512 54.1618 92.3114L56.6873 91.9274C57.6381 91.7822 58.7135 91.8387 59.6143 92.2348ZM59.2279 93.1136C58.54 92.8111 57.6602 92.7499 56.8322 92.8764L54.78 93.1884L54.9968 94.6287C55.0061 94.6914 55.0277 94.7517 55.0604 94.806C55.0932 94.8603 55.1363 94.9076 55.1874 94.9451C55.2385 94.9827 55.2965 95.0097 55.3582 95.0247C55.4198 95.0397 55.4838 95.0423 55.5464 95.0324L55.5489 95.032L60.3901 94.2945C60.1781 93.7233 59.7603 93.3477 59.2279 93.1136Z"
    fill="#45413C"
  />
  <path
    d="M31.4799 73.6848C31.4216 73.9272 31.4121 74.1787 31.4518 74.4248C31.4915 74.6708 31.5797 74.9065 31.7112 75.1182C31.8428 75.3299 32.0151 75.5134 32.2182 75.6579C32.4212 75.8025 32.651 75.9052 32.8941 75.9602C33.1372 76.0152 33.3888 76.0214 33.6343 75.9783C33.8798 75.9353 34.1143 75.8439 34.3242 75.7095C34.5341 75.575 34.7152 75.4002 34.8569 75.1952C34.9987 74.9902 35.0983 74.7591 35.15 74.5152L35.534 72.8016L31.8726 71.9319L31.4799 73.6848Z"
    fill="#D18660"
  />
  <path
    fill-rule="evenodd"
    clip-rule="evenodd"
    d="M31.6177 71.5249C31.7266 71.4568 31.8582 71.4352 31.9831 71.4649L35.6445 72.3347C35.9001 72.3954 36.0594 72.6503 36.0019 72.9066L35.6185 74.6177C35.5535 74.9226 35.4286 75.2117 35.2513 75.4682C35.0733 75.7255 34.8461 75.9449 34.5826 76.1137C34.3192 76.2824 34.0249 76.3971 33.7167 76.4511C33.4086 76.5052 33.0928 76.4974 32.7877 76.4284C32.4826 76.3594 32.1942 76.2304 31.9394 76.049C31.6845 75.8676 31.4682 75.6373 31.3031 75.3716C31.1379 75.1059 31.0273 74.8101 30.9774 74.5012C30.9278 74.1937 30.9395 73.8794 31.0119 73.5765L31.4037 71.827C31.4318 71.7017 31.5089 71.5929 31.6177 71.5249ZM32.2342 72.5113L31.9462 73.7972C31.9028 73.9777 31.8956 74.165 31.9252 74.3483C31.9547 74.5316 32.0204 74.7072 32.1184 74.8649C32.2164 75.0226 32.3448 75.1592 32.4961 75.2669C32.6473 75.3746 32.8185 75.4511 32.9996 75.4921C33.1806 75.5331 33.3681 75.5376 33.5509 75.5056C33.7338 75.4735 33.9085 75.4054 34.0648 75.3053C34.2212 75.2051 34.3561 75.0749 34.4617 74.9222C34.5673 74.7695 34.6415 74.5973 34.68 74.4157L34.6811 74.4103L34.9615 73.1591L32.2342 72.5113Z"
    fill="#45413C"
  />
  <path
    d="M59.4744 40.6272C59.4396 40.3793 59.3557 40.1408 59.2276 39.9257C59.0994 39.7106 58.9296 39.5232 58.7281 39.3745C58.5267 39.2259 58.2975 39.119 58.0542 39.06C57.8109 39.001 57.5582 38.9912 57.311 39.0312C57.0639 39.0711 56.8271 39.1599 56.6147 39.2925C56.4023 39.4251 56.2185 39.5988 56.0741 39.8033C55.9297 40.0078 55.8275 40.2391 55.7736 40.4836C55.7197 40.7281 55.7151 40.9809 55.7602 41.2272L56.0424 42.9763L59.7605 42.4003L59.4744 40.6272Z"
    fill="#D18660"
  />
  <path
    fill-rule="evenodd"
    clip-rule="evenodd"
    d="M57.234 38.5573C57.5442 38.5072 57.8614 38.5195 58.1668 38.5935C58.4722 38.6675 58.7598 38.8017 59.0126 38.9883C59.2655 39.1749 59.4786 39.41 59.6395 39.68C59.7994 39.9485 59.9045 40.246 59.9486 40.5554L60.2339 42.3239C60.2543 42.4501 60.2235 42.5792 60.1483 42.6826C60.0731 42.786 59.9599 42.8551 59.8335 42.8747L56.1155 43.4507C55.8546 43.4911 55.6101 43.3134 55.5681 43.0528L55.2866 41.3084C55.2311 41.0009 55.2371 40.6854 55.3044 40.3803C55.3721 40.0734 55.5003 39.7831 55.6815 39.5264C55.8628 39.2697 56.0935 39.0518 56.3601 38.8854C56.6267 38.719 56.9238 38.6074 57.234 38.5573ZM57.9407 39.5265C57.7594 39.4826 57.5712 39.4753 57.3871 39.505C57.203 39.5348 57.0267 39.601 56.8684 39.6997C56.7102 39.7985 56.5733 39.9278 56.4657 40.0802C56.3581 40.2325 56.282 40.4048 56.2419 40.587C56.2017 40.7691 56.1983 40.9574 56.2319 41.1409L56.2336 41.1508L56.4399 42.429L59.2092 42L59.0001 40.7037L58.9986 40.6939C58.9727 40.5092 58.9102 40.3316 58.8147 40.1713C58.7193 40.0111 58.5928 39.8715 58.4427 39.7608C58.2926 39.6501 58.122 39.5704 57.9407 39.5265Z"
    fill="#45413C"
  />
  <path
    d="M51.8596 53.7043L49.5085 59.7773L46.3242 58.4986C46.3425 58.4986 46.3588 56.2906 46.377 56.2906C48.4154 55.9743 50.3191 55.0762 51.8596 53.7043Z"
    fill="white"
  />
  <path
    fill-rule="evenodd"
    clip-rule="evenodd"
    d="M46.4615 56.7632C46.4577 56.7638 46.454 56.7644 46.4502 56.765C46.4258 56.7687 46.4012 56.7706 46.3766 56.7706C46.4066 56.7706 46.4349 56.7679 46.4615 56.7632ZM46.8421 56.697C46.8381 56.8956 46.8341 57.148 46.8301 57.4021L46.8301 57.4034C46.8258 57.6785 46.8215 57.9555 46.8171 58.1638C46.817 58.169 46.8168 58.1742 46.8167 58.1793L49.236 59.1508L50.7998 55.1112C49.5978 55.8862 48.2547 56.4261 46.8421 56.697ZM51.8592 53.7044L51.5399 53.3459C50.0709 54.6543 48.256 55.5114 46.3125 55.8148C46.1844 55.8318 46.0946 55.8967 46.0471 55.9415C45.994 55.9915 45.965 56.042 45.9524 56.0656C45.9265 56.1142 45.9152 56.1562 45.9121 56.1681C45.9038 56.1992 45.9003 56.2249 45.8993 56.2323L45.8992 56.2325C45.8965 56.2527 45.8951 56.2716 45.8944 56.2821C45.8927 56.3064 45.8913 56.3365 45.8902 56.3678C45.8878 56.4322 45.8855 56.5216 45.8833 56.6255C45.8789 56.8338 45.8746 57.1108 45.8703 57.386L45.8703 57.3871C45.8659 57.6636 45.8616 57.9381 45.8573 58.1435C45.8551 58.2466 45.853 58.3297 45.8509 58.3861C45.8502 58.4042 45.8496 58.4177 45.8491 58.4273C45.8161 58.6464 45.9377 58.8609 46.1449 58.9441L49.3292 60.2228C49.4483 60.2706 49.5816 60.2687 49.6994 60.2176C49.8171 60.1665 49.9094 60.0703 49.9557 59.9506L52.3068 53.8777L51.8592 53.7044ZM46.3238 58.0186C46.2606 58.0186 46.1998 58.031 46.1439 58.0535C46.1944 58.033 46.2545 58.0186 46.3238 58.0186Z"
    fill="#45413C"
  />
  <path
    d="M40.1816 58.055L43.989 60.935L46.3237 58.5033L45.8437 56.3827C43.8891 56.6799 41.9841 57.2425 40.1816 58.055Z"
    fill="white"
  />
  <path
    fill-rule="evenodd"
    clip-rule="evenodd"
    d="M45.7721 55.9081C46.021 55.8703 46.2568 56.0311 46.3124 56.2767L46.7924 58.3973C46.828 58.5547 46.7822 58.7194 46.6705 58.8357L44.3358 61.2674C44.1672 61.4429 43.894 61.4646 43.6999 61.3178L39.8926 58.4378L40.1822 58.055L39.9849 57.6174C41.8272 56.7869 43.7742 56.2119 45.7721 55.9081ZM41.1312 58.171L43.9388 60.2947L45.799 58.3572L45.4757 56.9289C43.9872 57.1874 42.5308 57.6038 41.1312 58.171Z"
    fill="#45413C"
  />
  <path
    fill-rule="evenodd"
    clip-rule="evenodd"
    d="M60.1407 41.856C60.4019 41.8155 60.6468 41.9939 60.6882 42.255C61.1837 45.3749 60.7954 48.5711 59.5674 51.4817C58.3782 54.3003 56.4475 56.7419 53.983 58.5481L56.6171 75.5149C56.6367 75.6407 56.6054 75.7691 56.5303 75.8719C56.4551 75.9747 56.3422 76.0434 56.2163 76.0629L42.4096 78.2027C42.1477 78.2433 41.9025 78.064 41.8618 77.8021L39.8233 64.6931C38.4665 66.1642 37.5887 68.0344 37.0375 69.642C36.722 70.5622 36.5176 71.3842 36.3923 71.9753C36.3297 72.2705 36.287 72.5075 36.26 72.6695C36.2466 72.7504 36.2371 72.8126 36.231 72.8539C36.228 72.8745 36.2259 72.8899 36.2245 72.8998L36.223 72.9106L36.2228 72.9128L36.2227 72.9128L36.2227 72.913C36.2053 73.0479 36.1315 73.1691 36.0196 73.2464C35.9076 73.3238 35.7681 73.35 35.6357 73.3186L31.2197 72.2693C30.9674 72.2093 30.8083 71.9598 30.8605 71.7058C31.9482 66.4078 33.6335 62.7522 36.1683 60.2568C38.7073 57.7573 42.0409 56.4782 46.3029 55.8144L46.3034 55.8143C52.1443 54.9118 56.0923 49.1558 55.1568 43.1141C55.1162 42.8522 55.2957 42.607 55.5576 42.5663L60.1407 41.856ZM35.3562 72.2654C35.3818 72.126 35.4138 71.9617 35.4532 71.7762C35.5847 71.1558 35.7987 70.2951 36.1294 69.3306C36.7872 67.412 37.9234 65.033 39.8355 63.337C39.9669 63.2204 40.1514 63.1849 40.3166 63.2444C40.4818 63.3039 40.6013 63.4488 40.6283 63.6223L42.7367 77.1806L55.5949 75.1877L52.9892 58.4042C52.9612 58.2241 53.0377 58.0437 53.1866 57.9385C55.6206 56.2198 57.5246 53.8538 58.6829 51.1085C59.7791 48.5102 60.1659 45.6705 59.808 42.879L56.1699 43.4429C56.9065 49.7891 52.7047 55.7964 46.4503 56.763C42.2932 57.4106 39.182 58.6371 36.8418 60.9409C34.5665 63.1809 32.9659 66.4924 31.8968 71.4434L35.3562 72.2654Z"
    fill="#45413C"
  />
  <path
    d="M48.143 55.8614L46.3238 58.4986L43.8163 56.809L42.9609 53.0496L47.2781 52.0608L48.143 55.8614Z"
    fill="#D18660"
  />
  <path
    fill-rule="evenodd"
    clip-rule="evenodd"
    d="M47.5358 51.6508C47.6446 51.7192 47.7218 51.828 47.7504 51.9534L48.6153 55.754C48.6454 55.8862 48.6187 56.0249 48.5417 56.1365L46.7225 58.7736C46.5718 58.9921 46.2733 59.0486 46.0532 58.9003L43.5457 57.2107C43.4435 57.1418 43.3714 57.0366 43.3441 56.9165L42.4887 53.1571C42.4295 52.8966 42.5924 52.6372 42.8529 52.5776L47.17 51.5888C47.2953 51.5601 47.4269 51.5824 47.5358 51.6508ZM43.5405 53.4138L44.246 56.5146L46.1972 57.8293L47.6236 55.7616L46.9135 52.6412L43.5405 53.4138Z"
    fill="#45413C"
  />
  <path
    d="M43.85 37.6676C41.3396 38.0448 40.682 39.2996 39.5069 40.3383C39.2705 40.319 39.0328 40.3241 38.7975 40.3536C36.3696 40.7184 34.7828 43.5437 35.2522 46.6637C35.7216 49.7837 38.6756 54.4954 45.2679 53.5047C46.3902 53.3864 47.4779 53.0462 48.4675 52.5038C49.4572 51.9614 50.3292 51.2277 51.0329 50.3454C51.7365 49.463 52.2577 48.4496 52.5662 47.364C52.8747 46.2784 52.9643 45.1423 52.8298 44.0218C52.2567 40.2077 49.8144 36.768 43.85 37.6676Z"
    fill="#724F3D"
  />
  <path
    d="M43.8499 37.6676C41.3395 38.0448 40.6819 39.2996 39.5059 40.3383C39.2696 40.319 39.0318 40.3241 38.7965 40.3536C36.3706 40.7184 34.7827 43.5437 35.2522 46.6637C35.3179 47.091 35.4193 47.512 35.5555 47.9223C35.617 45.3303 37.079 43.1799 39.1747 42.865C39.4101 42.8363 39.6478 42.8314 39.8842 42.8506C41.0583 41.8128 41.7168 40.5572 44.2272 40.1799C49.4467 39.3956 51.9687 41.928 52.9018 45.1287L52.9104 45.1364C52.9118 44.7637 52.8848 44.3914 52.8298 44.0228C52.2567 40.2077 49.8144 36.768 43.8499 37.6676Z"
    fill="#A86C4D"
  />
  <path
    fill-rule="evenodd"
    clip-rule="evenodd"
    d="M50.6742 38.7127C52.2183 40.0367 53.0075 41.9737 53.3046 43.9505C53.3053 43.9552 53.3059 43.9599 53.3065 43.9646C53.4485 45.1483 53.3539 46.3484 53.028 47.4952C52.7021 48.642 52.1515 49.7125 51.4082 50.6446C50.665 51.5767 49.7438 52.3518 48.6983 52.9247C47.656 53.4959 46.5108 53.8549 45.3289 53.9809C41.902 54.4932 39.3744 53.5248 37.6448 51.9841C35.9299 50.4566 35.0269 48.392 34.7776 46.7351C34.2865 43.4708 35.9321 40.2988 38.7263 39.879L38.7378 39.8774C38.935 39.8526 39.1337 39.8429 39.3322 39.8482C39.5001 39.6911 39.6634 39.5242 39.8306 39.3533C40.679 38.4864 41.6285 37.5161 43.7785 37.1929M50.6742 38.7127C49.117 37.3775 46.8648 36.7275 43.7787 37.1929L50.6742 38.7127ZM50.0493 39.4415C48.751 38.3282 46.7999 37.7081 43.9216 38.1422L43.9214 38.1422C42.1122 38.4141 41.4037 39.1329 40.5844 39.9641C40.3498 40.2021 40.1062 40.4493 39.8249 40.6979C39.727 40.7844 39.5981 40.8273 39.4679 40.8167C39.2664 40.8002 39.0638 40.8044 38.8631 40.8292C36.8045 41.1427 35.2796 43.6194 35.727 46.5923C35.9471 48.0554 36.7558 49.9067 38.2833 51.2673C39.7943 52.6132 42.0365 53.5049 45.1966 53.03C45.2036 53.029 45.2106 53.0281 45.2177 53.0273C46.2767 52.9157 47.3031 52.5946 48.237 52.0828C49.1709 51.571 49.9937 50.8787 50.6577 50.0461C51.3216 49.2135 51.8134 48.2572 52.1045 47.2328C52.395 46.2107 52.4798 45.1411 52.3542 44.086C52.0773 42.2514 51.359 40.5645 50.0493 39.4415Z"
    fill="#45413C"
  />
  <path
    d="M50.6102 46.2816L50.5142 45.6451L50.5066 45.6547L50.496 45.6C50.0379 45.661 49.5742 45.5402 49.204 45.2636C48.8339 44.9869 48.5867 44.5763 48.5155 44.1197C48.4648 43.9596 48.3825 43.8112 48.2734 43.6835C48.1643 43.5558 48.0307 43.4512 47.8805 43.376C47.7303 43.3008 47.5666 43.2565 47.3989 43.2457C47.2313 43.235 47.0632 43.258 46.9046 43.3133C44.9219 44.0302 42.8166 44.3468 40.7107 44.2445C40.5426 44.2382 40.3749 44.2658 40.2177 44.3256C40.0604 44.3854 39.9168 44.4762 39.7953 44.5926C39.6739 44.709 39.5771 44.8487 39.5107 45.0033C39.4443 45.1579 39.4097 45.3243 39.4089 45.4925C39.475 45.9493 39.3598 46.4139 39.0878 46.7869C38.8159 47.1599 38.4088 47.4116 37.9536 47.4883L38.0563 48.1719C36.264 48.4407 36.8573 51.5616 38.8425 51.2631C39.4274 52.4768 40.3856 53.4713 41.5767 54.1009C42.7677 54.7306 44.1291 54.9623 45.4614 54.7621C46.7938 54.562 48.027 53.9405 48.9804 52.9886C49.9339 52.0368 50.5576 50.8046 50.76 49.4727H50.7658C52.753 49.1693 52.4016 46.0119 50.6102 46.2816Z"
    fill="#D18660"
  />
  <path
    fill-rule="evenodd"
    clip-rule="evenodd"
    d="M46.7469 42.8601C46.9661 42.7836 47.1984 42.7519 47.4302 42.7668C47.6619 42.7816 47.8882 42.8429 48.0959 42.9468C48.3035 43.0507 48.4881 43.1953 48.6389 43.3718C48.7897 43.5484 48.9035 43.7535 48.9736 43.9748C48.9809 43.998 48.9865 44.0217 48.9902 44.0457C49.0421 44.3784 49.2222 44.6775 49.4918 44.8791C49.7615 45.0807 50.0994 45.1687 50.4331 45.1242C50.6622 45.0937 50.8769 45.2305 50.9502 45.4432C50.9691 45.4839 50.9824 45.5277 50.9893 45.5736L51.023 45.7967C51.4184 45.8422 51.7567 46.0224 52.0154 46.2903C52.3611 46.6483 52.5452 47.1393 52.5839 47.624C52.6537 48.4981 52.2427 49.537 51.1775 49.8695C50.9131 51.1779 50.2681 52.3819 49.32 53.3283C48.294 54.3526 46.9669 55.0214 45.5332 55.2368C44.0995 55.4522 42.6345 55.2029 41.3528 54.5253C40.1681 53.899 39.1975 52.9373 38.5603 51.7639C37.4495 51.7576 36.7542 50.8877 36.5647 50.0343C36.4593 49.5599 36.491 49.0366 36.7163 48.5929C36.8849 48.2609 37.1553 47.9893 37.5199 47.8296L37.4794 47.5597C37.4405 47.3008 37.6161 47.0586 37.8743 47.015C38.2058 46.9592 38.5023 46.7758 38.7004 46.5041C38.8985 46.2324 38.9825 45.894 38.9344 45.5613C38.931 45.5378 38.9293 45.514 38.9294 45.4903C38.9305 45.2577 38.9783 45.0277 39.0701 44.814C39.1619 44.6002 39.2957 44.4071 39.4636 44.2461C39.6315 44.0852 39.8301 43.9596 40.0475 43.8769C40.2649 43.7943 40.4967 43.7561 40.7292 43.7649L40.7344 43.7651L40.7344 43.7651C42.7769 43.8643 44.8188 43.5573 46.7419 42.8619L46.7469 42.8601L46.7469 42.8601ZM50.0962 46.0893C49.6723 46.0577 49.2626 45.9063 48.9171 45.648C48.458 45.3049 48.1477 44.7997 48.0488 44.2362C48.0171 44.1482 47.9697 44.0665 47.9088 43.9952C47.8414 43.9163 47.7589 43.8517 47.6661 43.8052C47.5733 43.7588 47.4722 43.7314 47.3686 43.7248C47.2658 43.7182 47.1628 43.7321 47.0655 43.7658C45.0248 44.5032 42.8582 44.8289 40.6909 44.7241C40.5878 44.7205 40.4851 44.7376 40.3887 44.7742C40.2916 44.8112 40.203 44.8672 40.128 44.9391C40.053 45.011 39.9932 45.0973 39.9522 45.1927C39.9151 45.2792 39.8941 45.3716 39.8901 45.4655C39.9614 46.0329 39.8137 46.6068 39.4761 47.0697C39.2246 47.4147 38.8821 47.6781 38.4913 47.8337L38.5314 48.1006C38.5504 48.2265 38.5185 48.3547 38.4428 48.4571C38.3671 48.5596 38.2539 48.6277 38.128 48.6466C37.8373 48.6902 37.6692 48.8368 37.5723 49.0276C37.4667 49.2354 37.4348 49.5241 37.5019 49.8262C37.6378 50.4385 38.1037 50.8889 38.7716 50.7884C38.9798 50.7571 39.184 50.8651 39.2754 51.0547C39.8158 52.176 40.701 53.0948 41.8014 53.6766C42.9019 54.2583 44.1597 54.4724 45.3906 54.2875C46.6215 54.1026 47.7609 53.5283 48.6418 52.6489C49.5227 51.7695 50.0989 50.6312 50.2859 49.4006C50.3192 49.1814 50.4974 49.0157 50.7142 48.9949C51.3701 48.8842 51.6764 48.3198 51.6269 47.7004C51.6023 47.3916 51.4868 47.1249 51.3249 46.9572C51.1762 46.8033 50.9725 46.7126 50.6822 46.7563C50.4201 46.7958 50.1756 46.6153 50.1361 46.3532L50.0962 46.0893Z"
    fill="#45413C"
  />
  <path
    d="M41.5117 47.6899C41.5117 47.9005 41.5954 48.1024 41.7443 48.2513C41.8931 48.4002 42.0951 48.4838 42.3056 48.4838C42.5162 48.4838 42.7181 48.4002 42.867 48.2513C43.0159 48.1024 43.0996 47.9005 43.0996 47.6899C43.0996 47.4794 43.0159 47.2774 42.867 47.1285C42.7181 46.9796 42.5162 46.896 42.3056 46.896C42.0951 46.896 41.8931 46.9796 41.7443 47.1285C41.5954 47.2774 41.5117 47.4794 41.5117 47.6899Z"
    fill="#45413C"
  />
  <path
    d="M45.5918 47.0765C45.5918 47.2871 45.6754 47.489 45.8243 47.6379C45.9732 47.7868 46.1752 47.8704 46.3857 47.8704C46.5963 47.8704 46.7982 47.7868 46.9471 47.6379C47.096 47.489 47.1796 47.2871 47.1796 47.0765C47.1796 46.866 47.096 46.664 46.9471 46.5151C46.7982 46.3662 46.5963 46.2826 46.3857 46.2826C46.1752 46.2826 45.9732 46.3662 45.8243 46.5151C45.6754 46.664 45.5918 46.866 45.5918 47.0765Z"
    fill="#45413C"
  />
  <path
    d="M40.2041 49.6762C40.2041 49.7595 40.2205 49.842 40.2524 49.919C40.2843 49.996 40.331 50.066 40.39 50.1249C40.4489 50.1838 40.5188 50.2306 40.5958 50.2624C40.6728 50.2943 40.7553 50.3108 40.8387 50.3108C40.922 50.3108 41.0045 50.2943 41.0815 50.2624C41.1585 50.2306 41.2284 50.1838 41.2874 50.1249C41.3463 50.066 41.393 49.996 41.4249 49.919C41.4568 49.842 41.4732 49.7595 41.4732 49.6762C41.4732 49.5929 41.4568 49.5103 41.4249 49.4334C41.393 49.3564 41.3463 49.2864 41.2874 49.2275C41.2284 49.1686 41.1585 49.1218 41.0815 49.0899C41.0045 49.058 40.922 49.0416 40.8387 49.0416C40.7553 49.0416 40.6728 49.058 40.5958 49.0899C40.5188 49.1218 40.4489 49.1686 40.39 49.2275C40.331 49.2864 40.2843 49.3564 40.2524 49.4334C40.2205 49.5103 40.2041 49.5929 40.2041 49.6762Z"
    fill="#BD704A"
  />
  <path
    d="M47.7373 48.5444C47.7373 48.7126 47.8042 48.874 47.9232 48.9931C48.0422 49.1121 48.2036 49.1789 48.3719 49.1789C48.5402 49.1789 48.7016 49.1121 48.8206 48.9931C48.9396 48.874 49.0064 48.7126 49.0064 48.5444C49.0064 48.3761 48.9396 48.2147 48.8206 48.0956C48.7016 47.9766 48.5402 47.9098 48.3719 47.9098C48.2036 47.9098 48.0422 47.9766 47.9232 48.0956C47.8042 48.2147 47.7373 48.3761 47.7373 48.5444Z"
    fill="#BD704A"
  />
  <path
    fill-rule="evenodd"
    clip-rule="evenodd"
    d="M46.8232 50.4919C47.0015 50.6881 46.987 50.9917 46.7908 51.17C46.3026 51.6135 45.694 51.9026 45.0418 52.0008C44.3896 52.0989 43.7229 52.0018 43.1258 51.7216C42.8858 51.6089 42.7826 51.3231 42.8952 51.0831C43.0078 50.8431 43.2937 50.7399 43.5337 50.8525C43.9591 51.0522 44.4342 51.1214 44.8989 51.0515C45.3637 50.9815 45.7973 50.7755 46.1452 50.4595C46.3414 50.2812 46.6449 50.2957 46.8232 50.4919Z"
    fill="#45413C"
  />
  <path
    d="M29.3283 48.7815C29.3782 48.5827 29.4043 48.3787 29.406 48.1738C29.408 47.6845 29.2727 47.2045 29.0156 46.7882C28.7585 46.3719 28.3899 46.036 27.9515 45.8186C27.5131 45.6013 27.0226 45.5112 26.5356 45.5586C26.0486 45.606 25.5847 45.789 25.1964 46.0867C24.5003 45.2664 23.5691 44.6795 22.5287 44.4055C21.4882 44.1314 20.3888 44.1834 19.3788 44.5543C18.3689 44.9253 17.4972 45.5974 16.8815 46.4797C16.2658 47.362 15.9359 48.4121 15.9363 49.488V49.5101C15.8268 49.5101 15.7193 49.488 15.606 49.488C14.9089 49.488 14.2403 49.765 13.7474 50.2579C13.2545 50.7508 12.9775 51.4194 12.9775 52.1165C12.9775 52.8136 13.2545 53.4822 13.7474 53.9751C14.2403 54.4681 14.9089 54.745 15.606 54.745H27.4332C28.1305 54.7456 28.8098 54.5242 29.3727 54.1127C29.9356 53.7012 30.3528 53.1211 30.5637 52.4565C30.7747 51.792 30.7685 51.0775 30.546 50.4166C30.3235 49.7558 29.8963 49.1831 29.3263 48.7815H29.3283Z"
    fill="white"
  />
  <path
    fill-rule="evenodd"
    clip-rule="evenodd"
    d="M19.2129 44.1038C20.3151 43.699 21.515 43.6422 22.6505 43.9413C23.6482 44.2041 24.5539 44.7305 25.2744 45.4618C25.647 45.2529 26.0603 45.1226 26.4887 45.0809C27.065 45.0248 27.6455 45.1314 28.1642 45.3886C28.683 45.6458 29.1193 46.0433 29.4236 46.536C29.7278 47.0286 29.8879 47.5967 29.8855 48.1757L29.8855 48.1778C29.8844 48.3138 29.8742 48.4494 29.8551 48.5837C30.3823 49.0266 30.7794 49.6071 31.0004 50.2635C31.2555 51.021 31.2626 51.84 31.0208 52.6018C30.7789 53.3636 30.3007 54.0285 29.6555 54.5002C29.0103 54.9719 28.2316 55.2258 27.4323 55.225H15.6056C14.7811 55.225 13.9905 54.8975 13.4075 54.3146C12.8246 53.7316 12.4971 52.941 12.4971 52.1165C12.4971 51.2921 12.8246 50.5015 13.4075 49.9185C13.9598 49.3663 14.6984 49.0433 15.4755 49.0108C15.4624 49.1691 15.4557 49.3283 15.4558 49.488C15.4558 49.488 15.4558 49.4881 15.4558 49.488V49.5101H15.9358V49.0301C15.9094 49.0301 15.8795 49.0275 15.8203 49.0215L15.8148 49.021C15.7632 49.0157 15.6871 49.008 15.6056 49.008C15.5621 49.008 15.5188 49.009 15.4755 49.0108C15.5592 48.0055 15.9069 47.0369 16.4874 46.205C17.1593 45.2421 18.1107 44.5086 19.2129 44.1038ZM28.8711 48.6278C28.9059 48.478 28.9242 48.3248 28.9256 48.1709C28.927 47.7717 28.8165 47.3801 28.6068 47.0404C28.3968 46.7005 28.0958 46.4262 27.7378 46.2487C27.3799 46.0712 26.9793 45.9977 26.5816 46.0364C26.184 46.0751 25.8051 46.2245 25.4881 46.4676C25.285 46.6234 24.9955 46.5924 24.83 46.3973C24.1974 45.6519 23.3513 45.1187 22.4059 44.8697C21.4606 44.6207 20.4615 44.6679 19.5439 45.0049C18.6262 45.342 17.8341 45.9527 17.2747 46.7544C16.7153 47.5561 16.4155 48.5103 16.4158 49.4879V49.5101C16.4158 49.7752 16.2009 49.9901 15.9358 49.9901C15.8568 49.9901 15.7819 49.9825 15.7315 49.9774L15.7239 49.9767C15.666 49.9708 15.6343 49.968 15.6056 49.968C15.0357 49.968 14.4893 50.1944 14.0863 50.5973C13.6834 51.0002 13.4571 51.5467 13.4571 52.1165C13.4571 52.6863 13.6834 53.2328 14.0863 53.6357C14.4893 54.0387 15.0357 54.265 15.6056 54.265H27.4328C28.028 54.2656 28.6084 54.0765 29.089 53.7252C29.5695 53.3739 29.9257 52.8787 30.1058 52.3113C30.2859 51.744 30.2806 51.134 30.0906 50.5698C29.9007 50.0057 29.536 49.5167 29.0494 49.1739C28.8784 49.0533 28.8051 48.8359 28.8683 48.6365C28.8692 48.6336 28.8702 48.6307 28.8711 48.6278Z"
    fill="#45413C"
  />
  <path
    d="M79.4961 63.1114C79.6148 62.6252 79.5797 62.1142 79.3956 61.6488C79.2115 61.1834 78.8875 60.7866 78.4683 60.5132C78.0491 60.2398 77.5553 60.1033 77.0552 60.1225C76.5551 60.1416 76.0733 60.3155 75.6762 60.6202C75.0328 59.8613 74.1719 59.3182 73.2098 59.0645C72.2477 58.8109 71.2309 58.8588 70.2969 59.2019C69.363 59.545 68.5569 60.1667 67.9878 60.9828C67.4187 61.799 67.114 62.7702 67.1149 63.7652V63.7853C67.0141 63.7853 66.9143 63.7652 66.8096 63.7652C66.1652 63.7652 65.5472 64.0212 65.0915 64.4768C64.6359 64.9325 64.3799 65.5505 64.3799 66.1949C64.3799 66.8394 64.6359 67.4574 65.0915 67.913C65.5472 68.3687 66.1652 68.6247 66.8096 68.6247H77.746C78.3909 68.6259 79.0194 68.4215 79.5402 68.0411C80.061 67.6607 80.4469 67.1243 80.6421 66.5096C80.8372 65.8949 80.8313 65.234 80.6252 64.623C80.4191 64.0119 80.0236 63.4824 79.4961 63.1114Z"
    fill="white"
  />
  <path
    fill-rule="evenodd"
    clip-rule="evenodd"
    d="M70.1309 58.7512C71.1571 58.3743 72.2744 58.3216 73.3316 58.6003C74.2516 58.8429 75.0874 59.3262 75.7548 59.9972C76.1469 59.7822 76.5854 59.66 77.0363 59.6427C77.6357 59.6197 78.2275 59.7834 78.73 60.1111C79.2324 60.4387 79.6208 60.9143 79.8414 61.4721C80.0227 61.9304 80.0834 62.4256 80.0204 62.9108C80.5073 63.3229 80.8744 63.8613 81.0795 64.4695C81.3182 65.1773 81.325 65.9427 81.099 66.6547C80.873 67.3667 80.426 67.9881 79.8227 68.4286C79.2196 68.8691 78.4918 69.1059 77.7449 69.1046M66.6553 63.2891C66.7373 62.3644 67.0594 61.4741 67.5936 60.7082C68.2189 59.8113 69.1046 59.1282 70.1309 58.7512M79.4955 63.1113L79.0292 62.9974C79.1244 62.6078 79.0963 62.1982 78.9487 61.8252C78.8012 61.4523 78.5415 61.1343 78.2055 60.9152C77.8696 60.6961 77.4739 60.5866 77.0731 60.602C76.6723 60.6174 76.2861 60.7567 75.9679 61.0009C75.7648 61.1568 75.4751 61.1258 75.3096 60.9305C74.7298 60.2465 73.9539 59.7572 73.0869 59.5286C72.2199 59.3 71.3036 59.3432 70.4619 59.6524C69.6203 59.9615 68.8939 60.5218 68.381 61.2573C67.8682 61.9927 67.5936 62.868 67.5944 63.7646L67.5944 63.7852C67.5944 64.0503 67.3795 64.2652 67.1144 64.2652C67.0401 64.2652 66.9694 64.2582 66.923 64.2535C66.9205 64.2533 66.918 64.253 66.9157 64.2528C66.8619 64.2474 66.8339 64.2451 66.8091 64.2451C66.292 64.2451 65.7961 64.4505 65.4305 64.8161C65.0648 65.1818 64.8594 65.6777 64.8594 66.1948C64.8594 66.7119 65.0648 67.2079 65.4305 67.5735C65.7961 67.9392 66.292 68.1446 66.8091 68.1446L77.7463 68.1446C78.2892 68.1456 78.8182 67.9735 79.2565 67.6534C79.6949 67.3332 80.0198 66.8817 80.184 66.3643C80.3483 65.8469 80.3433 65.2906 80.1698 64.7762C79.9964 64.2619 79.6634 63.8162 79.2194 63.5039L79.4955 63.1113Z"
    fill="#45413C"
  />
</svg>
