<svg viewBox="0 0 128 128" fill="none" xmlns="http://www.w3.org/2000/svg">
<path d="M0 64C0 80.9739 6.74284 97.2525 18.7452 109.255C30.7475 121.257 47.0261 128 64 128C80.9739 128 97.2525 121.257 109.255 109.255C121.257 97.2525 128 80.9739 128 64C128 47.0261 121.257 30.7475 109.255 18.7452C97.2525 6.74284 80.9739 0 64 0C47.0261 0 30.7475 6.74284 18.7452 18.7452C6.74284 30.7475 0 47.0261 0 64Z" fill="#C7F0FF"/>
<path d="M84.9824 81.0624H79.5312V98.448C79.5313 98.6911 79.6278 98.9243 79.7998 99.0963C79.9717 99.2682 80.2049 99.3648 80.448 99.3648H84.0656C84.3088 99.3648 84.542 99.2682 84.7139 99.0963C84.8859 98.9243 84.9824 98.6911 84.9824 98.448V81.0624Z" fill="#BF8256"/>
<path d="M94.6762 70.3999C94.8342 70.4004 94.989 70.3555 95.1221 70.2706C95.2553 70.1856 95.3613 70.0641 95.4274 69.9207C95.4934 69.7772 95.5169 69.6177 95.4949 69.4613C95.4729 69.3048 95.4065 69.158 95.3034 69.0383L86.9834 59.3263C86.8805 59.2064 86.8142 59.0595 86.7923 58.9031C86.7705 58.7466 86.7939 58.5871 86.86 58.4436C86.926 58.3001 87.0318 58.1785 87.1649 58.0934C87.2979 58.0082 87.4526 57.963 87.6106 57.9631H91.1306C91.2884 57.9633 91.443 57.9182 91.576 57.8331C91.7089 57.748 91.8146 57.6265 91.8805 57.4831C91.9464 57.3397 91.9697 57.1804 91.9477 57.0241C91.9256 56.8678 91.8592 56.7211 91.7562 56.6015L82.881 46.2591C82.8035 46.1688 82.7074 46.0964 82.5993 46.0467C82.4912 45.997 82.3736 45.9713 82.2546 45.9713C82.1356 45.9713 82.018 45.997 81.9099 46.0467C81.8018 46.0964 81.7057 46.1688 81.6282 46.2591L72.7626 56.6031C72.6596 56.7227 72.5932 56.8694 72.5711 57.0257C72.5491 57.182 72.5724 57.3413 72.6383 57.4847C72.7042 57.6281 72.8099 57.7496 72.9429 57.8347C73.0758 57.9198 73.2304 57.9649 73.3882 57.9647H76.9082C77.0662 57.9646 77.2209 58.0098 77.3539 58.095C77.487 58.1801 77.5928 58.3017 77.6588 58.4452C77.7249 58.5887 77.7483 58.7482 77.7265 58.9046C77.7046 59.0611 77.6383 59.208 77.5354 59.3279L69.2154 69.0399C69.1123 69.1596 69.0459 69.3064 69.0239 69.4629C69.0019 69.6193 69.0254 69.7788 69.0914 69.9223C69.1575 70.0657 69.2635 70.1872 69.3967 70.2722C69.5298 70.3571 69.6846 70.402 69.8426 70.4015H75.169C75.3266 70.4002 75.4813 70.4441 75.6147 70.5279C75.7482 70.6117 75.8549 70.732 75.9222 70.8745C75.9895 71.017 76.0146 71.1758 75.9946 71.3322C75.9745 71.4885 75.9101 71.6358 75.809 71.7567L69.1818 79.7087C69.0812 79.8296 69.0172 79.9768 68.9974 80.1329C68.9776 80.2889 69.0029 80.4474 69.0701 80.5896C69.1373 80.7318 69.2438 80.8519 69.377 80.9356C69.5102 81.0194 69.6645 81.0633 69.8218 81.0623H94.7098C94.8671 81.0633 95.0214 81.0194 95.1546 80.9356C95.2878 80.8519 95.3943 80.7318 95.4615 80.5896C95.5287 80.4474 95.554 80.2889 95.5342 80.1329C95.5144 79.9768 95.4504 79.8296 95.3498 79.7087L88.7226 71.7567C88.6215 71.6358 88.5571 71.4885 88.537 71.3322C88.517 71.1758 88.5421 71.017 88.6094 70.8745C88.6767 70.732 88.7834 70.6117 88.9169 70.5279C89.0503 70.4441 89.205 70.4002 89.3626 70.4015L94.6762 70.3999Z" fill="#6DD627"/>
<path d="M79.5312 81.0624H84.9824V84.5312H79.5312V81.0624Z" fill="#915E3A"/>
<path d="M84.9824 81.0624H79.5312V98.448C79.5313 98.6911 79.6278 98.9243 79.7998 99.0963C79.9717 99.2682 80.2049 99.3648 80.448 99.3648H84.0656C84.3088 99.3648 84.542 99.2682 84.7139 99.0963C84.8859 98.9243 84.9824 98.6911 84.9824 98.448V81.0624Z" stroke="#45413C" stroke-width="1.4" stroke-linecap="round" stroke-linejoin="round"/>
<path d="M75.5198 57.9647L81.6366 50.8303C81.7141 50.74 81.8102 50.6676 81.9183 50.6179C82.0264 50.5682 82.144 50.5425 82.263 50.5425C82.382 50.5425 82.4995 50.5682 82.6077 50.6179C82.7158 50.6676 82.8119 50.74 82.8894 50.8303L89.0062 57.9647H91.1294C91.2872 57.9649 91.4418 57.9198 91.5747 57.8347C91.7077 57.7496 91.8134 57.6281 91.8793 57.4847C91.9452 57.3413 91.9685 57.182 91.9465 57.0257C91.9244 56.8694 91.858 56.7227 91.755 56.6031L82.8798 46.2591C82.8023 46.1688 82.7062 46.0964 82.5981 46.0467C82.4899 45.997 82.3724 45.9713 82.2534 45.9713C82.1344 45.9713 82.0168 45.997 81.9087 46.0467C81.8006 46.0964 81.7045 46.1688 81.627 46.2591L72.7614 56.6031C72.6584 56.7227 72.592 56.8694 72.5699 57.0257C72.5479 57.182 72.5712 57.3413 72.6371 57.4847C72.703 57.6281 72.8087 57.7496 72.9416 57.8347C73.0746 57.9198 73.2292 57.9649 73.387 57.9647H75.5198Z" fill="#9CEB60"/>
<path d="M94.6762 70.3999C94.8342 70.4004 94.989 70.3555 95.1221 70.2706C95.2553 70.1856 95.3613 70.0641 95.4274 69.9207C95.4934 69.7772 95.5169 69.6177 95.4949 69.4613C95.4729 69.3048 95.4065 69.158 95.3034 69.0383L86.9834 59.3263C86.8805 59.2064 86.8142 59.0595 86.7923 58.9031C86.7705 58.7466 86.7939 58.5871 86.86 58.4436C86.926 58.3001 87.0318 58.1785 87.1649 58.0934C87.2979 58.0082 87.4526 57.963 87.6106 57.9631H91.1306C91.2884 57.9633 91.443 57.9182 91.576 57.8331C91.7089 57.748 91.8146 57.6265 91.8805 57.4831C91.9464 57.3397 91.9697 57.1804 91.9477 57.0241C91.9256 56.8678 91.8592 56.7211 91.7562 56.6015L82.881 46.2591C82.8035 46.1688 82.7074 46.0964 82.5993 46.0467C82.4912 45.997 82.3736 45.9713 82.2546 45.9713C82.1356 45.9713 82.018 45.997 81.9099 46.0467C81.8018 46.0964 81.7057 46.1688 81.6282 46.2591L72.7626 56.6031C72.6596 56.7227 72.5932 56.8694 72.5711 57.0257C72.5491 57.182 72.5724 57.3413 72.6383 57.4847C72.7042 57.6281 72.8099 57.7496 72.9429 57.8347C73.0758 57.9198 73.2304 57.9649 73.3882 57.9647H76.9082C77.0662 57.9646 77.2209 58.0098 77.3539 58.095C77.487 58.1801 77.5928 58.3017 77.6588 58.4452C77.7249 58.5887 77.7483 58.7482 77.7265 58.9047C77.7046 59.0611 77.6383 59.208 77.5354 59.3279L69.2154 69.0399C69.1123 69.1596 69.0459 69.3064 69.0239 69.4629C69.0019 69.6193 69.0254 69.7788 69.0914 69.9223C69.1575 70.0657 69.2635 70.1872 69.3967 70.2722C69.5298 70.3571 69.6846 70.402 69.8426 70.4015H75.169C75.3266 70.4002 75.4813 70.4441 75.6147 70.5279C75.7482 70.6117 75.8549 70.732 75.9222 70.8745C75.9895 71.017 76.0146 71.1758 75.9946 71.3322C75.9745 71.4885 75.9101 71.6358 75.809 71.7567L69.1818 79.7087C69.0812 79.8296 69.0172 79.9768 68.9974 80.1329C68.9776 80.2889 69.0029 80.4474 69.0701 80.5896C69.1373 80.7318 69.2438 80.8519 69.377 80.9356C69.5102 81.0194 69.6645 81.0633 69.8218 81.0623H94.7098C94.8671 81.0633 95.0214 81.0194 95.1546 80.9356C95.2878 80.8519 95.3943 80.7318 95.4615 80.5896C95.5287 80.4474 95.554 80.2889 95.5342 80.1329C95.5144 79.9768 95.4504 79.8296 95.3498 79.7087L88.7226 71.7567C88.6215 71.6358 88.5571 71.4885 88.537 71.3322C88.517 71.1758 88.5421 71.017 88.6094 70.8745C88.6767 70.732 88.7834 70.6117 88.9169 70.5279C89.0503 70.4441 89.205 70.4002 89.3626 70.4015L94.6762 70.3999Z" stroke="#45413C" stroke-width="1.4" stroke-linecap="round" stroke-linejoin="round"/>
<path d="M114.559 71.2574H109.103V88.6399C109.103 88.883 109.199 89.1162 109.371 89.2881C109.543 89.4601 109.777 89.5566 110.02 89.5566H113.637C113.758 89.5571 113.878 89.5337 113.989 89.4878C114.101 89.4419 114.203 89.3745 114.288 89.2894C114.374 89.2042 114.442 89.103 114.488 88.9916C114.535 88.8801 114.559 88.7606 114.559 88.6399V71.2574Z" fill="#BF8256"/>
<path d="M124.875 59.2336L116.555 49.5216C116.453 49.4017 116.387 49.255 116.365 49.0988C116.344 48.9426 116.367 48.7834 116.433 48.6402C116.499 48.497 116.605 48.3757 116.738 48.2906C116.87 48.2055 117.025 48.1602 117.182 48.16H120.702C120.86 48.1601 121.015 48.1149 121.148 48.0298C121.281 47.9446 121.387 47.823 121.453 47.6795C121.519 47.536 121.543 47.3765 121.521 47.2201C121.499 47.0636 121.432 46.9167 121.33 46.7968L112.464 36.4528C112.387 36.3626 112.29 36.2901 112.182 36.2404C112.074 36.1908 111.957 36.165 111.838 36.165C111.719 36.165 111.601 36.1908 111.493 36.2404C111.385 36.2901 111.289 36.3626 111.211 36.4528L102.346 46.7968C102.243 46.9166 102.177 47.0634 102.155 47.2197C102.133 47.376 102.156 47.5353 102.222 47.6788C102.288 47.8222 102.393 47.9438 102.526 48.0291C102.659 48.1144 102.813 48.1598 102.971 48.16H106.491C106.649 48.1598 106.804 48.2049 106.937 48.29C107.07 48.3751 107.175 48.4966 107.241 48.64C107.307 48.7834 107.33 48.9428 107.308 49.099C107.286 49.2553 107.22 49.402 107.117 49.5216L98.7968 59.2336C98.694 59.3534 98.6277 59.5002 98.6058 59.6565C98.5839 59.8128 98.6072 59.9721 98.673 60.1156C98.7389 60.259 98.8445 60.3806 98.9773 60.4659C99.1101 60.5512 99.2646 60.5966 99.4224 60.5968H104.75C104.908 60.5958 105.062 60.6398 105.195 60.7235C105.328 60.8073 105.435 60.9273 105.502 61.0695C105.569 61.2117 105.595 61.3702 105.575 61.5263C105.555 61.6823 105.491 61.8295 105.39 61.9504L98.7632 69.9024C98.6621 70.0233 98.5977 70.1707 98.5777 70.327C98.5576 70.4833 98.5827 70.6421 98.65 70.7846C98.7173 70.9271 98.824 71.0474 98.9575 71.1312C99.0909 71.215 99.2456 71.2589 99.4032 71.2576H124.282C124.439 71.2589 124.594 71.215 124.727 71.1312C124.861 71.0474 124.968 70.9271 125.035 70.7846C125.102 70.6421 125.127 70.4833 125.107 70.327C125.087 70.1707 125.023 70.0233 124.922 69.9024L118.294 61.9504C118.194 61.8295 118.13 61.6823 118.11 61.5263C118.09 61.3702 118.115 61.2117 118.183 61.0695C118.25 60.9273 118.356 60.8073 118.49 60.7235C118.623 60.6398 118.777 60.5958 118.934 60.5968H124.261C124.418 60.5945 124.571 60.5476 124.702 60.4614C124.833 60.3753 124.937 60.2536 125.001 60.1106C125.066 59.9675 125.088 59.809 125.066 59.6537C125.044 59.4984 124.977 59.3527 124.875 59.2336Z" fill="#6DD627"/>
<path d="M109.103 71.2574H114.554V74.7262H109.103V71.2574Z" fill="#915E3A"/>
<path d="M114.559 71.2574H109.103V88.6399C109.103 88.883 109.199 89.1162 109.371 89.2881C109.543 89.4601 109.777 89.5566 110.02 89.5566H113.637C113.758 89.5571 113.878 89.5337 113.989 89.4878C114.101 89.4419 114.203 89.3745 114.288 89.2894C114.374 89.2042 114.442 89.103 114.488 88.9916C114.535 88.8801 114.559 88.7606 114.559 88.6399V71.2574Z" stroke="#45413C" stroke-width="1.4" stroke-linecap="round" stroke-linejoin="round"/>
<path d="M105.086 48.16L111.2 41.024C111.278 40.9338 111.374 40.8613 111.482 40.8116C111.59 40.762 111.707 40.7362 111.826 40.7362C111.945 40.7362 112.063 40.762 112.171 40.8116C112.279 40.8613 112.375 40.9338 112.453 41.024L118.57 48.16H120.691C120.849 48.1601 121.004 48.1149 121.137 48.0298C121.27 47.9446 121.376 47.823 121.442 47.6795C121.508 47.536 121.531 47.3765 121.509 47.2201C121.488 47.0636 121.421 46.9167 121.318 46.7968L112.453 36.4528C112.375 36.3626 112.279 36.2901 112.171 36.2404C112.063 36.1908 111.945 36.165 111.826 36.165C111.707 36.165 111.59 36.1908 111.482 36.2404C111.374 36.2901 111.278 36.3626 111.2 36.4528L102.334 46.7968C102.232 46.9166 102.165 47.0634 102.143 47.2197C102.121 47.376 102.145 47.5353 102.211 47.6788C102.276 47.8222 102.382 47.9438 102.515 48.0291C102.648 48.1144 102.802 48.1598 102.96 48.16H105.086Z" fill="#9CEB60"/>
<path d="M124.875 59.2336L116.555 49.5216C116.453 49.4017 116.387 49.255 116.365 49.0988C116.344 48.9426 116.367 48.7834 116.433 48.6402C116.499 48.497 116.605 48.3757 116.738 48.2906C116.87 48.2055 117.025 48.1602 117.182 48.16H120.702C120.86 48.1601 121.015 48.1149 121.148 48.0298C121.281 47.9446 121.387 47.823 121.453 47.6795C121.519 47.536 121.543 47.3765 121.521 47.2201C121.499 47.0636 121.432 46.9167 121.33 46.7968L112.464 36.4528C112.387 36.3626 112.29 36.2901 112.182 36.2404C112.074 36.1908 111.957 36.165 111.838 36.165C111.719 36.165 111.601 36.1908 111.493 36.2404C111.385 36.2901 111.289 36.3626 111.211 36.4528L102.346 46.7968C102.243 46.9166 102.177 47.0634 102.155 47.2197C102.133 47.376 102.156 47.5353 102.222 47.6788C102.288 47.8222 102.393 47.9438 102.526 48.0291C102.659 48.1144 102.813 48.1598 102.971 48.16H106.491C106.649 48.1598 106.804 48.2049 106.937 48.29C107.07 48.3751 107.175 48.4966 107.241 48.64C107.307 48.7834 107.33 48.9428 107.308 49.099C107.286 49.2553 107.22 49.402 107.117 49.5216L98.7968 59.2336C98.694 59.3534 98.6277 59.5002 98.6058 59.6565C98.5839 59.8128 98.6072 59.9721 98.673 60.1156C98.7389 60.259 98.8445 60.3806 98.9773 60.4659C99.1101 60.5512 99.2646 60.5966 99.4224 60.5968H104.75C104.908 60.5958 105.062 60.6398 105.195 60.7235C105.328 60.8073 105.435 60.9273 105.502 61.0695C105.569 61.2117 105.595 61.3702 105.575 61.5263C105.555 61.6823 105.491 61.8295 105.39 61.9504L98.7632 69.9024C98.6621 70.0233 98.5977 70.1707 98.5777 70.327C98.5576 70.4833 98.5827 70.6421 98.65 70.7846C98.7173 70.9271 98.824 71.0474 98.9575 71.1312C99.0909 71.215 99.2456 71.2589 99.4032 71.2576H124.282C124.439 71.2589 124.594 71.215 124.727 71.1312C124.861 71.0474 124.968 70.9271 125.035 70.7846C125.102 70.6421 125.127 70.4833 125.107 70.327C125.087 70.1707 125.023 70.0233 124.922 69.9024L118.294 61.9504C118.194 61.8295 118.13 61.6823 118.11 61.5263C118.09 61.3702 118.115 61.2117 118.183 61.0695C118.25 60.9273 118.356 60.8073 118.49 60.7235C118.623 60.6398 118.777 60.5958 118.934 60.5968H124.261C124.418 60.5945 124.571 60.5476 124.702 60.4614C124.833 60.3753 124.937 60.2536 125.001 60.1106C125.066 59.9675 125.088 59.809 125.066 59.6537C125.044 59.4984 124.977 59.3527 124.875 59.2336V59.2336Z" stroke="#45413C" stroke-width="1.4" stroke-linecap="round" stroke-linejoin="round"/>
<path d="M43.8398 70.8593H33.235V90.3537C33.235 90.778 33.4036 91.185 33.7036 91.485C34.0037 91.7851 34.4107 91.9537 34.835 91.9537H42.2398C42.6642 91.9537 43.0711 91.7851 43.3712 91.485C43.6712 91.185 43.8398 90.778 43.8398 90.3537V70.8593Z" fill="#BF8256"/>
<path d="M62.7109 50.1119C63.0191 50.1145 63.3215 50.0279 63.5817 49.8626C63.8418 49.6974 64.0488 49.4605 64.1775 49.1805C64.3063 48.9005 64.3515 48.5892 64.3076 48.2841C64.2637 47.979 64.1326 47.6931 63.9301 47.4607L47.7301 28.5599C47.527 28.3276 47.3955 28.0416 47.3513 27.7362C47.3071 27.4309 47.3522 27.1193 47.481 26.8389C47.6099 26.5586 47.817 26.3215 48.0775 26.1562C48.338 25.9908 48.6407 25.9044 48.9493 25.9071H55.7941C56.1024 25.91 56.405 25.8236 56.6654 25.6585C56.9259 25.4934 57.133 25.2565 57.262 24.9764C57.391 24.6963 57.4363 24.3849 57.3924 24.0797C57.3486 23.7745 57.2175 23.4884 57.0149 23.2559L39.7605 3.12634C39.6103 2.94932 39.4233 2.80711 39.2127 2.70958C39.002 2.61204 38.7726 2.56152 38.5405 2.56152C38.3083 2.56152 38.0789 2.61204 37.8683 2.70958C37.6576 2.80711 37.4707 2.94932 37.3205 3.12634L20.0661 23.2559C19.8635 23.4884 19.7323 23.7745 19.6885 24.0797C19.6446 24.3849 19.6899 24.6963 19.8189 24.9764C19.9479 25.2565 20.1551 25.4934 20.4155 25.6585C20.6759 25.8236 20.9785 25.91 21.2869 25.9071H28.1317C28.4403 25.904 28.7433 25.9903 29.004 26.1555C29.2648 26.3207 29.4721 26.5578 29.6012 26.8382C29.7302 27.1186 29.7754 27.4303 29.7313 27.7358C29.6871 28.0413 29.5556 28.3275 29.3525 28.5599L13.1509 47.4607C12.9483 47.6932 12.8171 47.9793 12.7733 48.2845C12.7294 48.5897 12.7747 48.9011 12.9037 49.1812C13.0327 49.4613 13.2399 49.6982 13.5003 49.8633C13.7607 50.0284 14.0633 50.1148 14.3717 50.1119H24.7381C25.0445 50.1093 25.3453 50.1948 25.6046 50.3582C25.8639 50.5215 26.0709 50.756 26.2008 51.0335C26.3308 51.3111 26.3782 51.6202 26.3376 51.924C26.297 52.2277 26.17 52.5135 25.9717 52.7471L13.0741 68.2239C12.8758 68.4576 12.7487 68.7433 12.7081 69.0471C12.6675 69.3509 12.715 69.66 12.8449 69.9376C12.9749 70.2151 13.1818 70.4496 13.4411 70.6129C13.7004 70.7763 14.0012 70.8618 14.3077 70.8591H62.7733C63.0792 70.8605 63.3791 70.7742 63.6375 70.6103C63.8958 70.4464 64.1018 70.212 64.2309 69.9346C64.3601 69.6573 64.407 69.3487 64.3662 69.0455C64.3253 68.7423 64.1984 68.4572 64.0005 68.2239L51.1029 52.7471C50.9045 52.5134 50.7774 52.2275 50.7369 51.9235C50.6963 51.6196 50.7439 51.3104 50.874 51.0328C51.0042 50.7552 51.2114 50.5208 51.4709 50.3575C51.7305 50.1942 52.0315 50.109 52.3381 50.1119H62.7109Z" fill="#6DD627"/>
<path d="M33.235 70.8593H43.8446V77.6113H33.235V70.8593Z" fill="#915E3A"/>
<path d="M43.8398 70.8593H33.235V90.3537C33.235 90.778 33.4036 91.185 33.7036 91.485C34.0037 91.7851 34.4107 91.9537 34.835 91.9537H42.2398C42.6642 91.9537 43.0711 91.7851 43.3712 91.485C43.6712 91.185 43.8398 90.778 43.8398 90.3537V70.8593Z" stroke="#45413C" stroke-width="1.4" stroke-linecap="round" stroke-linejoin="round"/>
<path d="M25.4177 25.9071L37.3201 12.0207C37.4703 11.8437 37.6572 11.7015 37.8679 11.604C38.0786 11.5064 38.308 11.4559 38.5401 11.4559C38.7723 11.4559 39.0016 11.5064 39.2123 11.604C39.423 11.7015 39.6099 11.8437 39.7601 12.0207L51.6625 25.9071H55.7937C56.1021 25.91 56.4047 25.8236 56.6651 25.6585C56.9255 25.4934 57.1327 25.2565 57.2617 24.9764C57.3906 24.6963 57.4359 24.3849 57.3921 24.0797C57.3482 23.7745 57.2171 23.4884 57.0145 23.2559L39.7601 3.12634C39.6099 2.94932 39.423 2.80711 39.2123 2.70958C39.0016 2.61204 38.7723 2.56152 38.5401 2.56152C38.308 2.56152 38.0786 2.61204 37.8679 2.70958C37.6572 2.80711 37.4703 2.94932 37.3201 3.12634L20.0657 23.2559C19.8631 23.4884 19.732 23.7745 19.6881 24.0797C19.6443 24.3849 19.6896 24.6963 19.8186 24.9764C19.9475 25.2565 20.1547 25.4934 20.4151 25.6585C20.6756 25.8236 20.9782 25.91 21.2865 25.9071H25.4177Z" fill="#9CEB60"/>
<path d="M62.7109 50.1119C63.0191 50.1145 63.3215 50.0279 63.5817 49.8626C63.8418 49.6974 64.0488 49.4605 64.1775 49.1805C64.3063 48.9004 64.3515 48.5892 64.3076 48.2841C64.2637 47.979 64.1326 47.6931 63.9301 47.4607L47.7301 28.5599C47.527 28.3276 47.3955 28.0416 47.3513 27.7362C47.3071 27.4309 47.3522 27.1193 47.481 26.8389C47.6099 26.5586 47.817 26.3215 48.0775 26.1562C48.338 25.9908 48.6407 25.9044 48.9493 25.9071H55.7941C56.1024 25.91 56.405 25.8236 56.6654 25.6585C56.9259 25.4934 57.133 25.2565 57.262 24.9764C57.391 24.6963 57.4363 24.3849 57.3924 24.0797C57.3486 23.7745 57.2175 23.4884 57.0149 23.2559L39.7605 3.12634C39.6103 2.94932 39.4233 2.80711 39.2127 2.70958C39.002 2.61204 38.7726 2.56152 38.5405 2.56152C38.3083 2.56152 38.0789 2.61204 37.8683 2.70958C37.6576 2.80711 37.4707 2.94932 37.3205 3.12634L20.0661 23.2559C19.8635 23.4884 19.7323 23.7745 19.6885 24.0797C19.6446 24.3849 19.6899 24.6963 19.8189 24.9764C19.9479 25.2565 20.1551 25.4934 20.4155 25.6585C20.6759 25.8236 20.9785 25.91 21.2869 25.9071H28.1317C28.4403 25.904 28.7433 25.9903 29.004 26.1555C29.2648 26.3207 29.4721 26.5578 29.6012 26.8382C29.7302 27.1186 29.7754 27.4303 29.7313 27.7358C29.6871 28.0413 29.5556 28.3275 29.3525 28.5599L13.1509 47.4607C12.9483 47.6932 12.8171 47.9793 12.7733 48.2845C12.7294 48.5897 12.7747 48.9011 12.9037 49.1812C13.0327 49.4613 13.2399 49.6982 13.5003 49.8633C13.7607 50.0284 14.0633 50.1148 14.3717 50.1119H24.7381C25.0445 50.1093 25.3453 50.1948 25.6046 50.3582C25.8639 50.5215 26.0709 50.756 26.2008 51.0335C26.3308 51.3111 26.3782 51.6202 26.3376 51.924C26.297 52.2277 26.17 52.5135 25.9717 52.7471L13.0741 68.2239C12.8758 68.4576 12.7487 68.7433 12.7081 69.0471C12.6675 69.3509 12.715 69.66 12.8449 69.9375C12.9749 70.2151 13.1818 70.4496 13.4411 70.6129C13.7004 70.7763 14.0012 70.8618 14.3077 70.8591H62.7733C63.0792 70.8605 63.3791 70.7742 63.6375 70.6103C63.8958 70.4464 64.1018 70.212 64.2309 69.9346C64.3601 69.6573 64.407 69.3487 64.3662 69.0455C64.3253 68.7423 64.1984 68.4572 64.0005 68.2239L51.1029 52.7471C50.9045 52.5134 50.7774 52.2275 50.7369 51.9236C50.6963 51.6196 50.7439 51.3104 50.874 51.0328C51.0042 50.7552 51.2114 50.5208 51.4709 50.3575C51.7305 50.1942 52.0315 50.109 52.3381 50.1119H62.7109Z" stroke="#45413C" stroke-width="1.4" stroke-linecap="round" stroke-linejoin="round"/>
<path d="M46.7201 119.075L87.1409 123.667C96.0932 120.186 104.15 114.739 110.716 107.728C117.282 100.718 122.19 92.3224 125.078 83.1615C108.473 81.3596 91.789 85.767 78.2401 95.5343L46.7201 119.075Z" fill="#6DD627"/>
<path d="M78.2401 95.5345L46.7201 119.075L58.8433 120.47L78.2401 105.8C90.6257 96.8371 105.701 92.372 120.97 93.1441C122.619 89.9391 123.992 86.5996 125.075 83.1617C108.471 81.3607 91.7882 85.768 78.2401 95.5345Z" fill="#9CEB60"/>
<path d="M124.902 83.68C124.958 83.5056 125.024 83.3344 125.078 83.1584C108.473 81.3575 91.7886 85.766 78.2401 95.5344L46.7201 119.075" stroke="#45413C" stroke-width="1.4" stroke-linecap="round" stroke-linejoin="round"/>
<path d="M4.681 88.0303C8.17099 96.645 13.4955 104.396 20.2843 110.745C27.0731 117.093 35.1632 121.887 43.9922 124.792C52.8211 127.698 62.177 128.645 71.4092 127.569C80.6414 126.493 89.5284 123.418 97.4522 118.56L73.4522 100.64C54.145 86.2191 27.985 82.0463 4.681 88.0303Z" fill="#9CEB60"/>
<path d="M73.4586 100.64C54.145 86.216 27.985 82.0432 4.681 88.0272C6.12086 91.5752 7.87729 94.9863 9.929 98.2192C31.849 94.0848 55.5834 98.656 73.4586 112.006L88.4026 123.168C91.537 121.875 94.5631 120.334 97.4522 118.56L73.4586 100.64Z" fill="#C8FFA1"/>
<path d="M97.4527 118.56L73.4527 100.64C54.1391 86.216 27.9791 82.0432 4.67514 88.0272" stroke="#45413C" stroke-width="1.4" stroke-linecap="round" stroke-linejoin="round"/>
</svg>

