<svg width="65" height="64" viewBox="0 0 65 64" fill="none" xmlns="http://www.w3.org/2000/svg">
<path d="M3.2063 32C3.2063 40.4869 6.46149 48.6263 12.2558 54.6274C18.0501 60.6286 25.9088 64 34.1031 64C42.2975 64 50.1562 60.6286 55.9505 54.6274C61.7448 48.6263 65 40.4869 65 32C65 23.5131 61.7448 15.3737 55.9505 9.37258C50.1562 3.37142 42.2975 0 34.1031 0C25.9088 0 18.0501 3.37142 12.2558 9.37258C6.46149 15.3737 3.2063 23.5131 3.2063 32Z" fill="#C7F0FF"/>
<path d="M58.5217 26.996C58.5217 27.446 58.3491 27.8776 58.0419 28.1958C57.7346 28.514 57.3179 28.6928 56.8834 28.6928H24.1196C23.9045 28.6928 23.6914 28.6489 23.4927 28.5636C23.2939 28.4784 23.1133 28.3534 22.9612 28.1958C22.809 28.0382 22.6884 27.8512 22.606 27.6453C22.5237 27.4395 22.4813 27.2188 22.4813 26.996V8.33199C22.4813 8.10917 22.5237 7.88852 22.606 7.68266C22.6884 7.47679 22.809 7.28974 22.9612 7.13217C23.1133 6.97461 23.2939 6.84963 23.4927 6.76435C23.6914 6.67908 23.9045 6.63519 24.1196 6.63519H56.8834C57.3179 6.63519 57.7346 6.81396 58.0419 7.13217C58.3491 7.45038 58.5217 7.88197 58.5217 8.33199V16.816L63.863 23.04C63.9681 23.1622 64.0368 23.3133 64.0608 23.475C64.0849 23.6368 64.0632 23.8023 63.9984 23.9515C63.9337 24.1008 63.8286 24.2275 63.6959 24.3163C63.5632 24.4051 63.4085 24.4522 63.2505 24.452H58.5217V26.996Z" fill="white" stroke="black" stroke-linecap="round" stroke-linejoin="round"/>
<path d="M53.6068 12.5744H41.3207" stroke="black" stroke-linecap="round" stroke-linejoin="round"/>
<path d="M53.6068 16.816H41.3207" stroke="black" stroke-linecap="round" stroke-linejoin="round"/>
<path d="M48.1466 21.0576H41.3207" stroke="black" stroke-linecap="round" stroke-linejoin="round"/>
<path d="M7.2623 56.552C7.26332 57.0598 7.45855 57.5466 7.80526 57.9057C8.15197 58.2647 8.62192 58.4669 9.11225 58.468H46.1112C46.6022 58.468 47.0732 58.2663 47.4207 57.9071C47.7682 57.5479 47.964 57.0605 47.965 56.552V35.4752C47.965 34.966 47.7697 34.4776 47.4221 34.1176C47.0744 33.7575 46.6029 33.5552 46.1112 33.5552H9.11225C8.62125 33.5563 8.15072 33.759 7.8039 34.119C7.45708 34.4789 7.2623 34.9667 7.2623 35.4752V45.0552L1.23123 52.08C1.11342 52.2186 1.0367 52.3894 1.01025 52.572C0.98381 52.7546 1.00877 52.9412 1.08214 53.1095C1.15551 53.2778 1.27418 53.4206 1.42393 53.5208C1.57367 53.621 1.74814 53.6743 1.92641 53.6744H7.26616L7.2623 56.552Z" fill="white" stroke="black" stroke-linecap="round" stroke-linejoin="round"/>
<path d="M43.3375 42.4704H29.4625" stroke="black" stroke-linecap="round" stroke-linejoin="round"/>
<path d="M43.3375 47.26H29.4625" stroke="black" stroke-linecap="round" stroke-linejoin="round"/>
<path d="M37.1712 52.0504H29.4625" stroke="black" stroke-linecap="round" stroke-linejoin="round"/>
<path d="M11 46C11 47.8565 11.7375 49.637 13.0502 50.9497C14.363 52.2625 16.1435 53 18 53C19.8565 53 21.637 52.2625 22.9497 50.9497C24.2625 49.637 25 47.8565 25 46C25 44.1435 24.2625 42.363 22.9497 41.0502C21.637 39.7375 19.8565 39 18 39C16.1435 39 14.363 39.7375 13.0502 41.0502C11.7375 42.363 11 44.1435 11 46Z" fill="#C7F0FF" stroke="black"/>
<path d="M15.7476 45.8379C15.7476 46.4353 15.9849 47.0082 16.4073 47.4306C16.8297 47.853 17.4026 48.0903 18 48.0903C18.5974 48.0903 19.1703 47.853 19.5927 47.4306C20.0151 47.0082 20.2524 46.4353 20.2524 45.8379V44.7117C20.2524 44.1143 20.0151 43.5414 19.5927 43.119C19.1703 42.6966 18.5974 42.4592 18 42.4592C17.4026 42.4592 16.8297 42.6966 16.4073 43.119C15.9849 43.5414 15.7476 44.1143 15.7476 44.7117V45.8379Z" fill="#F5F5F5"/>
<path d="M15.7476 45.8379C15.7476 46.4353 15.9849 47.0082 16.4073 47.4306C16.8297 47.853 17.4026 48.0903 18 48.0903C18.5974 48.0903 19.1703 47.853 19.5927 47.4306C20.0151 47.0082 20.2524 46.4353 20.2524 45.8379V44.7117C20.2524 44.1143 20.0151 43.5414 19.5927 43.119C19.1703 42.6966 18.5974 42.4592 18 42.4592C17.4026 42.4592 16.8297 42.6966 16.4073 43.119C15.9849 43.5414 15.7476 44.1143 15.7476 44.7117V45.8379Z" fill="#C28875" stroke="black"/>
<path d="M13.3228 51.2075C14.6073 52.3616 16.2731 53 17.9999 53C19.7267 53 21.3926 52.3616 22.6771 51.2075C22.2924 50.2841 21.643 49.4951 20.8106 48.9402C19.9783 48.3852 19.0003 48.0891 17.9999 48.0891C16.9996 48.0891 16.0216 48.3852 15.1892 48.9402C14.3569 49.4951 13.7075 50.2841 13.3228 51.2075Z" fill="#42C6FF" stroke="black"/>
<path d="M19.8705 44.4206C19.8113 43.9665 19.615 43.5412 19.3079 43.2014C19.0008 42.8617 18.5975 42.6236 18.1516 42.519C17.7058 42.4143 17.2386 42.4481 16.8124 42.6157C16.3862 42.7834 16.0213 43.077 15.7662 43.4573C16.2991 43.9743 16.9623 44.337 17.6851 44.5066C18.4079 44.6762 19.1632 44.6465 19.8705 44.4206Z" fill="#DE7A86" stroke="black" stroke-linejoin="round"/>
<path d="M26 17.5C26 19.2239 26.6848 20.8772 27.9038 22.0962C29.1228 23.3151 30.7761 24 32.5 24C34.2239 24 35.8772 23.3151 37.0962 22.0962C38.3152 20.8772 39 19.2239 39 17.5C39 15.7761 38.3152 14.1228 37.0962 12.9038C35.8772 11.6848 34.2239 11 32.5 11C30.7761 11 29.1228 11.6848 27.9038 12.9038C26.6848 14.1228 26 15.7761 26 17.5Z" fill="#FFDA8F" stroke="black"/>
<path d="M30.4084 17.3495C30.4084 17.9042 30.6288 18.4362 31.021 18.8284C31.4133 19.2206 31.9453 19.441 32.5 19.441C33.0547 19.441 33.5867 19.2206 33.9789 18.8284C34.3712 18.4362 34.5915 17.9042 34.5915 17.3495V16.3037C34.5915 15.749 34.3712 15.217 33.9789 14.8248C33.5867 14.4325 33.0547 14.2122 32.5 14.2122C31.9453 14.2122 31.4133 14.4325 31.021 14.8248C30.6288 15.217 30.4084 15.749 30.4084 16.3037V17.3495Z" fill="#F5F5F5"/>
<path d="M30.4084 17.3495C30.4084 17.9042 30.6288 18.4362 31.021 18.8284C31.4133 19.2206 31.9453 19.441 32.5 19.441C33.0547 19.441 33.5867 19.2206 33.9789 18.8284C34.3712 18.4362 34.5915 17.9042 34.5915 17.3495V16.3037C34.5915 15.749 34.3712 15.217 33.9789 14.8248C33.5867 14.4325 33.0547 14.2122 32.5 14.2122C31.9453 14.2122 31.4133 14.4325 31.021 14.8248C30.6288 15.217 30.4084 15.749 30.4084 16.3037V17.3495Z" fill="#FFCEBF" stroke="black"/>
<path d="M28.1569 22.3356C29.3497 23.4072 30.8965 24 32.5 24C34.1034 24 35.6503 23.4072 36.843 22.3356C36.4858 21.4781 35.8828 20.7455 35.1099 20.2302C34.337 19.7149 33.4289 19.4399 32.5 19.4399C31.571 19.4399 30.6629 19.7149 29.89 20.2302C29.1172 20.7455 28.5141 21.4781 28.1569 22.3356Z" fill="#FF6242" stroke="black"/>
<path d="M30.4258 16.0334C30.4808 15.6117 30.663 15.2168 30.9481 14.9013C31.2333 14.5858 31.6079 14.3648 32.0219 14.2676C32.4359 14.1704 32.8697 14.2018 33.2654 14.3575C33.6611 14.5131 34 14.7857 34.2369 15.1389C33.7421 15.619 33.1262 15.9557 32.455 16.1133C31.7839 16.2708 31.0825 16.2432 30.4258 16.0334Z" fill="#DEA47A" stroke="black" stroke-linejoin="round"/>
</svg>

