<svg width="37" height="37" viewBox="0 0 37 37" fill="none" xmlns="http://www.w3.org/2000/svg">
<g clip-path="url(#clip0_187_12)">
<g clip-path="url(#clip1_187_12)">
<path fill-rule="evenodd" clip-rule="evenodd" d="M13.283 29.3418C13.283 28.9864 13.2701 28.046 13.2628 26.7973C9.09046 27.7009 8.21013 24.7918 8.21013 24.7918C7.5278 23.0636 6.54434 22.6035 6.54434 22.6035C5.18242 21.6752 6.64747 21.6945 6.64747 21.6945C8.15304 21.8001 8.94496 23.2363 8.94496 23.2363C10.2829 25.5217 12.4552 24.8625 13.3107 24.4796C13.447 23.5128 13.8346 22.8534 14.2628 22.4797C10.9321 22.1022 7.43019 20.8185 7.43019 15.0868C7.43019 13.4541 8.01493 12.119 8.97444 11.0731C8.82065 10.6948 8.30499 9.17417 9.12176 7.11453C9.12176 7.11453 10.3815 6.71234 13.2462 8.64801C14.4424 8.31653 15.726 8.1494 17.0023 8.1439C18.2758 8.1494 19.5585 8.31653 20.7575 8.64801C23.6204 6.71234 24.8782 7.11453 24.8782 7.11453C25.6968 9.17326 25.1821 10.6939 25.0274 11.0731C25.9887 12.119 26.5689 13.4541 26.5689 15.0868C26.5689 20.8333 23.0615 22.0977 19.7197 22.4677C20.2593 22.9296 20.7382 23.8423 20.7382 25.2382C20.7382 27.238 20.7188 28.8515 20.7188 29.3418C20.7188 29.7421 20.9896 30.2067 21.7511 30.0607C27.7061 28.0792 32 22.4759 32 15.8701C32 7.60856 25.2834 0.911743 16.9995 0.911743C8.71659 0.911743 2 7.60856 2 15.8701C2.00092 22.4779 6.29847 28.0847 12.2591 30.0625C13.0086 30.1995 13.283 29.7376 13.283 29.3418Z" fill="black"/>
</g>
<path d="M29.9382 34.538C28.6102 35.2719 27.0838 35.56 25.5816 35.3603C24.0794 35.1606 22.6798 34.4835 21.5868 33.4278L21.486 33.9752C21.4444 34.1996 21.354 34.412 21.2213 34.5972C21.0885 34.7823 20.9167 34.9356 20.7181 35.046C20.3836 35.2323 19.9922 35.2866 19.6201 35.1984C19.248 35.1102 18.9219 34.8857 18.7053 34.5688C18.5901 34.4017 18.5091 34.2132 18.467 34.0143C18.4249 33.8154 18.4226 33.61 18.4602 33.4102L19.2547 29.1062C19.2912 28.906 19.3666 28.715 19.4767 28.5443C19.5869 28.3736 19.7295 28.2264 19.8964 28.1114C19.9371 28.0837 19.9791 28.0582 20.0223 28.0348C20.3349 27.8612 20.6977 27.802 21.0488 27.8673L25.3268 28.6669C25.528 28.7012 25.7204 28.7755 25.8927 28.8853C26.0651 28.9952 26.2141 29.1385 26.3309 29.3068C26.4477 29.4751 26.53 29.6652 26.5732 29.8658C26.6162 30.0664 26.6193 30.2737 26.582 30.4755C26.5447 30.6774 26.4678 30.8697 26.3559 31.0414C26.244 31.213 26.0993 31.3605 25.9302 31.4754C25.761 31.5903 25.5709 31.6701 25.3708 31.7103C25.1706 31.7505 24.9646 31.7503 24.7646 31.7096L24.2145 31.6051C24.8285 32.0367 25.5504 32.2866 26.2984 32.3265C27.0464 32.3664 27.7906 32.1947 28.4465 31.8309C28.8034 31.6319 29.2242 31.5836 29.6164 31.6968C30.0086 31.8099 30.3401 32.0752 30.5379 32.4342C30.7358 32.7931 30.7837 33.2165 30.6713 33.611C30.5588 34.0056 30.2951 34.339 29.9382 34.538Z" fill="#C8FFA1"/>
<path d="M20.1715 28.3055C20.4213 28.1663 20.7116 28.1191 20.9922 28.172L25.2708 28.9714C25.5866 29.0366 25.8643 29.2239 26.0443 29.4929C26.2243 29.762 26.2921 30.0913 26.2332 30.4102C26.1744 30.729 25.9935 31.0119 25.7295 31.198C25.4655 31.3842 25.1394 31.4586 24.8214 31.4055L23.215 31.1051C23.859 31.8714 24.7471 32.3895 25.7282 32.5712C26.7092 32.7529 27.7226 32.587 28.5957 32.1016C28.8812 31.9424 29.2178 31.9038 29.5316 31.9944C29.8454 32.0849 30.1106 32.2971 30.2689 32.5842C30.4271 32.8714 30.4654 33.2101 30.3754 33.5258C30.2855 33.8414 30.0746 34.1082 29.789 34.2674C28.4313 35.022 26.8572 35.2853 25.3297 35.0135C23.8021 34.7417 22.4134 33.9512 21.3953 32.7737L21.1823 33.9195C21.1227 34.2424 20.938 34.5282 20.6689 34.7141C20.3997 34.9 20.0682 34.9708 19.7472 34.9108C19.4262 34.8508 19.1421 34.665 18.9573 34.3943C18.7724 34.1236 18.7021 33.7901 18.7617 33.4672L19.5563 29.1631C19.5859 29.0032 19.6465 28.8506 19.7347 28.7143C19.8229 28.5779 19.9369 28.4603 20.0703 28.3683C20.1024 28.3462 20.136 28.3253 20.1704 28.3061M19.8721 27.7647C19.8183 27.7947 19.7708 27.8247 19.7218 27.8584C19.5215 27.9959 19.3503 28.172 19.218 28.3765C19.0858 28.5809 18.9951 28.8097 18.9513 29.0496L18.1567 33.3537C18.1124 33.5935 18.1155 33.8397 18.1658 34.0783C18.2161 34.3168 18.3126 34.5432 18.4498 34.7442C18.587 34.9453 18.7623 35.1172 18.9656 35.2502C19.1688 35.3831 19.3961 35.4745 19.6345 35.519C19.8729 35.5636 20.1176 35.5605 20.3548 35.5099C20.592 35.4593 20.8169 35.3622 21.0168 35.2242C21.2167 35.0861 21.3876 34.9099 21.5198 34.7053C21.6519 34.5009 21.7427 34.2723 21.787 34.0324L21.7887 34.0252C22.9351 34.9763 24.3389 35.5594 25.8184 35.6991C27.2979 35.8388 28.785 35.5287 30.0874 34.8088C30.5156 34.57 30.8321 34.1699 30.967 33.6964C31.102 33.2229 31.0444 32.7149 30.8071 32.2841C30.5697 31.8533 30.1719 31.535 29.7012 31.3993C29.2306 31.2635 28.7256 31.3214 28.2974 31.5602C27.5021 32.0029 26.5722 32.1344 25.6865 31.9296C26.0654 31.7885 26.3878 31.5262 26.6042 31.183C26.8207 30.8399 26.9194 30.4347 26.8849 30.0298C26.8505 29.6248 26.685 29.2424 26.4138 28.9411C26.1425 28.6399 25.7806 28.4366 25.3833 28.3622L21.1058 27.5623C20.6841 27.4838 20.2484 27.5552 19.8732 27.7641L19.8721 27.7647Z" fill="#46B000"/>
<path d="M33.6232 27.8265C33.3202 28.0165 32.9612 28.0949 32.6072 28.0484L28.2934 27.4751C28.0908 27.4514 27.8948 27.3874 27.7169 27.2867C27.539 27.1861 27.3828 27.0508 27.2575 26.8889C27.1321 26.727 27.0399 26.5416 26.9865 26.3435C26.9329 26.1454 26.9192 25.9385 26.9459 25.735C26.9727 25.5315 27.0394 25.3354 27.1422 25.1581C27.245 24.9808 27.3818 24.8258 27.5448 24.7022C27.7077 24.5786 27.8935 24.4889 28.0912 24.4382C28.2889 24.3875 28.4947 24.3768 28.6966 24.4069L29.2514 24.4823C28.6157 24.0836 27.8817 23.8721 27.1327 23.8715C26.3836 23.8709 25.6493 24.0815 25.013 24.4791C24.6671 24.6967 24.2493 24.767 23.8517 24.6746C23.4541 24.5823 23.1093 24.3349 22.8931 23.9868C22.6769 23.6387 22.607 23.2185 22.6988 22.8185C22.7906 22.4186 23.0365 22.0717 23.3825 21.8543C24.6707 21.0513 26.1801 20.6833 27.6907 20.8037C29.2013 20.9242 30.6343 21.5268 31.7806 22.5238L31.8508 21.9687C31.9043 21.5616 32.1163 21.1926 32.4402 20.9428C32.7641 20.693 33.1734 20.5829 33.578 20.6366C33.9827 20.6904 34.3495 20.9036 34.5978 21.2295C34.8462 21.5553 34.9557 21.967 34.9022 22.3741L34.3324 26.7136C34.3066 26.9156 34.2413 27.1105 34.1401 27.2868C34.0389 27.4632 33.9039 27.6176 33.7428 27.7411C33.7057 27.7747 33.6644 27.8006 33.6232 27.8265Z" fill="#C8FFA1"/>
<path d="M23.5457 22.1168C24.8625 21.2916 26.4208 20.9457 27.9605 21.1368C29.5002 21.328 30.9282 22.0446 32.006 23.167L32.1591 22.0116C32.2018 21.686 32.3714 21.3908 32.6305 21.191C32.8896 20.9912 33.217 20.9031 33.5407 20.9461C33.8644 20.9891 34.1578 21.1597 34.3564 21.4203C34.5551 21.6809 34.6426 22.0103 34.5999 22.3358L34.03 26.6753C34.0088 26.8366 33.9562 26.9921 33.8753 27.1329C33.7943 27.2738 33.6865 27.3972 33.5581 27.4961C33.5271 27.5199 33.4947 27.5425 33.4613 27.5635C33.2193 27.7158 32.932 27.7784 32.649 27.7405L28.3347 27.1676C28.1721 27.1491 28.0148 27.0983 27.8721 27.018C27.7293 26.9376 27.6038 26.8296 27.5031 26.6999C27.4023 26.5702 27.3282 26.4217 27.2852 26.2629C27.2421 26.1042 27.231 25.9384 27.2524 25.7752C27.2738 25.6121 27.3274 25.4548 27.4099 25.3128C27.4924 25.1707 27.6023 25.0466 27.733 24.9476C27.8638 24.8488 28.0129 24.7771 28.1714 24.7368C28.3301 24.6966 28.4951 24.6885 28.6568 24.7132L30.2764 24.928C29.5932 24.1966 28.6791 23.726 27.6897 23.5963C26.7004 23.4666 25.6969 23.6858 24.8501 24.2167C24.5733 24.3908 24.2391 24.447 23.921 24.3732C23.603 24.2993 23.3271 24.1013 23.1542 23.8229C22.9812 23.5444 22.9253 23.2082 22.9987 22.8883C23.0721 22.5683 23.2689 22.2908 23.5457 22.1168ZM23.2196 21.5919C22.8044 21.8528 22.5092 22.2691 22.3991 22.749C22.289 23.2289 22.3729 23.7332 22.6323 24.1509C22.8917 24.5686 23.3055 24.8656 23.7826 24.9763C24.2597 25.0871 24.761 25.0027 25.1762 24.7418C25.9474 24.2578 26.8691 24.0775 27.7643 24.2354C27.3932 24.3961 27.0847 24.675 26.8861 25.0291C26.6877 25.3831 26.6102 25.793 26.6656 26.1957C26.721 26.5984 26.9061 26.9716 27.1927 27.2582C27.4793 27.5449 27.8515 27.729 28.2521 27.7823L32.5659 28.3556C32.9911 28.4117 33.4225 28.3175 33.7864 28.0891C33.8365 28.0579 33.885 28.0239 33.9316 27.9876C34.1245 27.8398 34.2865 27.6551 34.4079 27.4439C34.5293 27.2327 34.6079 26.9994 34.6391 26.7574L35.2086 22.4175C35.2404 22.1757 35.2245 21.93 35.1618 21.6944C35.0993 21.4588 34.9911 21.2378 34.8436 21.0443C34.6961 20.8507 34.5121 20.6882 34.3022 20.5662C34.0923 20.4441 33.8605 20.3649 33.6202 20.3329C33.3799 20.3009 33.1356 20.3169 32.9013 20.3799C32.6671 20.4429 32.4476 20.5517 32.2551 20.7001C32.0627 20.8485 31.9012 21.0335 31.7799 21.2447C31.6585 21.4558 31.5797 21.689 31.548 21.9308L31.5468 21.9381C30.3525 21.0489 28.9205 20.5405 27.4361 20.4788C25.9515 20.417 24.4827 20.8048 23.2196 21.5919Z" fill="#46B000"/>
</g>
<defs>
<clipPath id="clip0_187_12">
<rect width="37" height="37" fill="white"/>
</clipPath>
<clipPath id="clip1_187_12">
<rect width="30" height="31" fill="white" transform="translate(2)"/>
</clipPath>
</defs>
</svg>
