<svg width="96" height="87" viewBox="0 0 96 87" fill="none" xmlns="http://www.w3.org/2000/svg">
<g clip-path="url(#clip0_179_2)">
<path d="M8 45.0852C8 55.6939 12.2143 65.868 19.7157 73.3695C27.2172 80.8709 37.3913 85.0852 48 85.0852C58.6087 85.0852 68.7828 80.8709 76.2843 73.3695C83.7857 65.868 88 55.6939 88 45.0852C88 34.4765 83.7857 24.3024 76.2843 16.8009C68.7828 9.29948 58.6087 5.08521 48 5.08521C37.3913 5.08521 27.2172 9.29948 19.7157 16.8009C12.2143 24.3024 8 34.4765 8 45.0852Z" fill="#DAEDF7" stroke="#DAEDF7"/>
<path d="M63.777 70.633C63.7448 70.9234 63.5991 71.1892 63.3717 71.3726C63.1443 71.556 62.8536 71.6421 62.563 71.612L28.613 67.986C28.3226 67.9541 28.0566 67.8084 27.8731 67.581C27.6897 67.3535 27.6037 67.0627 27.634 66.772L32.679 19.54L57.859 22.229L67.651 34.363L63.777 70.633Z" fill="white" stroke="#45413C" stroke-linecap="round" stroke-linejoin="round"/>
<path d="M43.799 37.5601L62.014 39.5051" stroke="#45413C" stroke-linecap="round" stroke-linejoin="round"/>
<path d="M36.965 41.7522L61.494 44.3722" stroke="#45413C" stroke-linecap="round" stroke-linejoin="round"/>
<path d="M36.445 46.6182L60.974 49.2382" stroke="#45413C" stroke-linecap="round" stroke-linejoin="round"/>
<path d="M35.926 51.4841L60.455 54.1041" stroke="#45413C" stroke-linecap="round" stroke-linejoin="round"/>
<path d="M49.113 58.593C48.8286 58.8228 48.6052 59.1192 48.4627 59.4559C48.3201 59.7926 48.2628 60.1593 48.2957 60.5234C48.3287 60.8876 48.4509 61.238 48.6516 61.5437C48.8523 61.8493 49.1253 62.1008 49.4464 62.2757C49.7674 62.4507 50.1267 62.5439 50.4923 62.5469C50.8579 62.5499 51.2187 62.4627 51.5426 62.2931C51.8665 62.1234 52.1436 61.8765 52.3493 61.5742C52.555 61.2719 52.683 60.9236 52.722 60.56L52.675 61.003C52.6358 61.4666 52.7797 61.9272 53.0759 62.286C53.3721 62.6448 53.797 62.8734 54.2596 62.9228C54.7223 62.9722 55.1859 62.8385 55.5512 62.5504C55.9164 62.2622 56.1544 61.8424 56.214 61.381C56.1894 61.6138 56.2108 61.8491 56.2772 62.0735C56.3436 62.2979 56.4536 62.5071 56.6009 62.6889C56.7483 62.8708 56.93 63.0218 57.1357 63.1334C57.3415 63.2449 57.5672 63.3148 57.8 63.339L59.127 63.481" stroke="#FF6242" stroke-linecap="round" stroke-linejoin="round"/>
<path d="M48.055 64.8091L58.599 65.9351" stroke="#ADC4D9" stroke-linecap="round" stroke-linejoin="round"/>
<path d="M33.858 63.2932L44.402 64.4192" stroke="#ADC4D9" stroke-linecap="round" stroke-linejoin="round"/>
<path d="M35.178 61.576C34.8129 61.5444 34.4654 61.4053 34.1794 61.1762C33.8934 60.9471 33.6817 60.6383 33.5712 60.2889C33.4606 59.9395 33.4562 59.5652 33.5583 59.2133C33.6605 58.8614 33.8648 58.5476 34.1452 58.3118C34.4257 58.0759 34.7698 57.9285 35.134 57.8882C35.4982 57.8479 35.8663 57.9165 36.1915 58.0853C36.5168 58.2541 36.7847 58.5156 36.9613 58.8366C37.138 59.1577 37.2155 59.5239 37.184 59.889" stroke="#009FD9" stroke-linecap="round" stroke-linejoin="round"/>
<path d="M44.624 59.9141C44.603 60.1566 44.5344 60.3926 44.4221 60.6086C44.3099 60.8245 44.1562 61.0163 43.9698 61.1729C43.7834 61.3294 43.568 61.4478 43.3359 61.521C43.1038 61.5943 42.8595 61.6212 42.617 61.6001" stroke="#009FD9" stroke-linecap="round" stroke-linejoin="round"/>
<path d="M37.131 60.5051C37.1734 60.0155 37.4086 59.5627 37.7848 59.2464C38.1609 58.93 38.6473 58.776 39.137 58.8181" stroke="#009FD9" stroke-linecap="round" stroke-linejoin="round"/>
<path d="M40.208 60.7711C40.229 60.5286 40.2976 60.2926 40.4099 60.0766C40.5221 59.8606 40.6758 59.6689 40.8622 59.5123C41.0486 59.3557 41.264 59.2374 41.4961 59.1641C41.7282 59.0908 41.9725 59.064 42.215 59.0851" stroke="#009FD9" stroke-linecap="round" stroke-linejoin="round"/>
<path d="M57.859 22.229L56.805 32.1C56.7747 32.3905 56.8607 32.6812 57.0442 32.9085C57.2277 33.1359 57.4937 33.2813 57.784 33.313L67.651 34.367L57.859 22.229Z" fill="white" stroke="#45413C" stroke-linecap="round" stroke-linejoin="round"/>
<path d="M32.679 19.5401L34.2 28.8871C34.24 29.1608 34.334 29.4239 34.4766 29.6609C34.6192 29.898 34.8075 30.1043 35.0306 30.2679C35.2536 30.4315 35.507 30.549 35.776 30.6138C36.0449 30.6785 36.3241 30.6891 36.5972 30.6449C36.8703 30.6008 37.1318 30.5027 37.3667 30.3565C37.6015 30.2103 37.8049 30.0188 37.965 29.7933C38.1252 29.5677 38.2389 29.3125 38.2995 29.0426C38.3601 28.7727 38.3664 28.4934 38.318 28.2211L37.675 24.2411C37.139 20.9251 40.867 21.1191 39.925 15.2851L39 9.62207L27.659 11.4561C28.23 14.8431 28.135 14.7821 27.424 18.7101C26.8238 22.0303 27.1703 25.4525 28.424 28.5851C28.563 29.1601 31.208 33.3181 31.208 33.3181L32.679 19.5401Z" fill="#FFDB94"/>
<path d="M37.591 14.7701C38.534 20.6031 34.806 20.4101 35.342 23.7261L35.985 27.7061C36.0596 28.1705 35.9752 28.6464 35.7457 29.057C35.5161 29.4675 35.1547 29.7885 34.72 29.9681C35.0239 30.2977 35.4259 30.5207 35.8664 30.604C36.307 30.6872 36.7627 30.6263 37.1659 30.4302C37.5691 30.2342 37.8985 29.9134 38.1051 29.5155C38.3117 29.1176 38.3846 28.6637 38.313 28.2211L37.67 24.2411C37.134 20.9251 40.862 21.1181 39.92 15.2851L39 9.62207L36.813 9.97607L37.591 14.7701Z" fill="#FFE9BD"/>
<path d="M40.07 0L40.883 5.03C40.9073 5.17343 40.9028 5.32025 40.87 5.46195C40.8371 5.60366 40.7765 5.73744 40.6916 5.85555C40.6067 5.97366 40.4992 6.07376 40.3753 6.15005C40.2514 6.22634 40.1137 6.27731 39.97 6.3L26.19 8.524C26.047 8.54755 25.9008 8.54261 25.7597 8.50947C25.6186 8.47634 25.4855 8.41565 25.368 8.33091C25.2504 8.24616 25.1508 8.13902 25.0747 8.01565C24.9987 7.89228 24.9478 7.7551 24.925 7.612L24.112 2.582" fill="#009FD9"/>
<path d="M26.131 8.5342L26.454 10.5342C26.4767 10.6773 26.5275 10.8145 26.6034 10.9379C26.6793 11.0613 26.7788 11.1685 26.8963 11.2533C27.0137 11.3382 27.1468 11.399 27.2878 11.4322C27.4288 11.4655 27.575 11.4706 27.718 11.4472L39.44 9.5472C39.5831 9.52447 39.7203 9.4737 39.8437 9.3978C39.9671 9.3219 40.0743 9.22236 40.1591 9.10491C40.244 8.98746 40.3048 8.85441 40.338 8.7134C40.3713 8.57238 40.3764 8.42619 40.353 8.2832L40.029 6.2832L26.131 8.5342Z" fill="white" stroke="#45413C" stroke-linecap="round" stroke-linejoin="round"/>
<path d="M32.679 19.5401L34.2 28.8871C34.24 29.1608 34.334 29.4239 34.4766 29.6609C34.6192 29.898 34.8075 30.1043 35.0306 30.2679C35.2536 30.4315 35.507 30.549 35.776 30.6138C36.0449 30.6785 36.3241 30.6891 36.5972 30.6449C36.8703 30.6008 37.1318 30.5027 37.3667 30.3565C37.6015 30.2103 37.8049 30.0188 37.965 29.7933C38.1252 29.5677 38.2389 29.3125 38.2995 29.0426C38.3601 28.7727 38.3664 28.4934 38.318 28.2211L37.675 24.2411C37.139 20.9251 40.867 21.1191 39.925 15.2851L39 9.62207L27.659 11.4561C28.23 14.8431 28.135 14.7821 27.424 18.7101C26.8238 22.0303 27.1703 25.4525 28.424 28.5851C28.563 29.1601 31.208 33.3181 31.208 33.3181L32.679 19.5401Z" stroke="#45413C" stroke-linecap="round" stroke-linejoin="round"/>
<path d="M40.07 0L40.883 5.03C40.9072 5.17343 40.9028 5.32025 40.87 5.46195C40.8371 5.60366 40.7765 5.73744 40.6915 5.85555C40.6066 5.97366 40.4991 6.07376 40.3753 6.15005C40.2514 6.22634 40.1137 6.27731 39.97 6.3L38.485 6.54L37.498 0.44L40.07 0Z" fill="#00B8F0"/>
<path d="M40.07 0L40.883 5.03C40.9073 5.17343 40.9028 5.32025 40.87 5.46195C40.8371 5.60366 40.7765 5.73744 40.6916 5.85555C40.6067 5.97366 40.4992 6.07376 40.3753 6.15005C40.2514 6.22634 40.1137 6.27731 39.97 6.3L26.19 8.524C26.047 8.54755 25.9008 8.54261 25.7597 8.50947C25.6186 8.47634 25.4855 8.41565 25.368 8.33091C25.2504 8.24616 25.1508 8.13902 25.0747 8.01565C24.9987 7.89228 24.9478 7.7551 24.925 7.612L24.112 2.582" stroke="#45413C" stroke-linecap="round" stroke-linejoin="round"/>
<path d="M65.4948 57.7746C65.6933 57.6996 65.9047 57.6644 66.1168 57.6712C66.3289 57.6781 66.5376 57.7267 66.7308 57.8143C66.9241 57.902 67.0982 58.0269 67.243 58.182C67.3879 58.3371 67.5007 58.5192 67.575 58.718L69.6349 64.1995C71.0983 68.0928 69.8451 69.3418 70.6806 71.5712C70.7832 71.8443 70.8311 72.1349 70.8215 72.4265C70.8118 72.7181 70.7448 73.0049 70.6242 73.2706C70.5037 73.5363 70.332 73.7756 70.1189 73.9749C69.9059 74.1742 69.6557 74.3296 69.3826 74.4322L64.6699 76.2033C64.2011 76.3794 63.6893 76.4061 63.2047 76.2796C62.7202 76.1531 62.2867 75.8796 61.9639 75.4968C61.2971 74.789 60.4589 74.2654 59.5304 73.9766L59.4996 73.9619C57.7846 73.2786 55.8551 72.5209 54.4022 68.6647C53.4252 66.0645 53.8926 64.7153 55.7605 64.0131L52.1033 54.2836C51.9526 53.8827 51.9673 53.4382 52.1442 53.0481C52.3211 52.658 52.6457 52.3542 53.0467 52.2034C53.4476 52.0527 53.8921 52.0674 54.2822 52.2443C54.6723 52.4212 54.9761 52.7458 55.1269 53.1468L57.9304 60.6082C57.7806 60.2068 57.7965 59.7624 57.9745 59.3727C58.1524 58.983 58.4779 58.6799 58.8793 58.5302C59.2807 58.3804 59.7252 58.3963 60.1149 58.5743C60.5046 58.7522 60.8077 59.0777 60.9574 59.4791L61.2413 60.2354C61.0905 59.8343 61.1052 59.3898 61.2822 58.9997C61.4592 58.6095 61.7839 58.3056 62.185 58.1549C62.586 58.0041 63.0305 58.0188 63.4207 58.1958C63.8109 58.3728 64.1148 58.6975 64.2655 59.0986L64.5494 59.8548C64.4743 59.6562 64.4393 59.4447 64.4463 59.2325C64.4532 59.0203 64.502 58.8116 64.5899 58.6183C64.6777 58.425 64.8029 58.2509 64.9582 58.1062C65.1135 57.9614 65.2959 57.8487 65.4948 57.7746Z" fill="#BDBEC0" stroke="#45413C" stroke-linecap="round" stroke-linejoin="round"/>
<path d="M62.3696 63.226L61.244 60.2305" stroke="#45413C" stroke-linecap="round" stroke-linejoin="round"/>
<path d="M59.5851 64.9992L57.9352 60.6111" stroke="#45413C" stroke-linecap="round" stroke-linejoin="round"/>
<path d="M65.6666 62.8159L64.5522 59.8499" stroke="#45413C" stroke-linecap="round" stroke-linejoin="round"/>
<path d="M65.4948 57.7746C65.6933 57.6996 65.9047 57.6644 66.1168 57.6712C66.3289 57.6781 66.5376 57.7267 66.7308 57.8143C66.9241 57.902 67.0982 58.0269 67.243 58.182C67.3879 58.3371 67.5007 58.5192 67.575 58.718L69.6349 64.1995C71.0983 68.0928 69.8451 69.3418 70.6806 71.5712C70.7832 71.8443 70.8311 72.1349 70.8215 72.4265C70.8118 72.7181 70.7448 73.0049 70.6242 73.2706C70.5037 73.5363 70.332 73.7756 70.1189 73.9749C69.9059 74.1742 69.6557 74.3296 69.3826 74.4322L64.6699 76.2033C64.2011 76.3794 63.6893 76.4061 63.2047 76.2796C62.7202 76.1531 62.2867 75.8796 61.9639 75.4968C61.2971 74.789 60.4589 74.2654 59.5304 73.9766L59.4996 73.9619C57.7846 73.2786 55.8551 72.5209 54.4022 68.6647C53.4252 66.0645 53.8926 64.7153 55.7605 64.0131L52.1033 54.2836C51.9526 53.8827 51.9673 53.4382 52.1442 53.0481C52.3211 52.658 52.6457 52.3542 53.0467 52.2034C53.4476 52.0527 53.8921 52.0674 54.2822 52.2443C54.6723 52.4212 54.9761 52.7458 55.1269 53.1468L57.9304 60.6082C57.7806 60.2068 57.7965 59.7624 57.9745 59.3727C58.1524 58.983 58.4779 58.6799 58.8793 58.5302C59.2807 58.3804 59.7252 58.3963 60.1149 58.5743C60.5046 58.7522 60.8077 59.0777 60.9574 59.4791L61.2413 60.2354C61.0905 59.8343 61.1052 59.3898 61.2822 58.9997C61.4592 58.6095 61.7839 58.3056 62.185 58.1549C62.586 58.0041 63.0305 58.0188 63.4207 58.1958C63.8109 58.3728 64.1148 58.6975 64.2655 59.0986L64.5494 59.8548C64.4743 59.6562 64.4393 59.4447 64.4463 59.2325C64.4532 59.0203 64.502 58.8116 64.5899 58.6183C64.6777 58.425 64.8029 58.2509 64.9582 58.1062C65.1135 57.9614 65.2959 57.8487 65.4948 57.7746Z" stroke="#45413C" stroke-linecap="round" stroke-linejoin="round"/>
<path d="M55.764 64.0156L57.0431 67.4176L59.5031 73.9638" stroke="#45413C" stroke-linecap="round" stroke-linejoin="round"/>
<path d="M55.7296 63.5694C55.7296 63.9949 55.8986 64.4029 56.1995 64.7038C56.5004 65.0046 56.9084 65.1737 57.3339 65.1737C57.7594 65.1737 58.1674 65.0046 58.4683 64.7038C58.7692 64.4029 58.9382 63.9949 58.9382 63.5694C58.9382 63.1439 58.7692 62.7358 58.4683 62.435C58.1674 62.1341 57.7594 61.9651 57.3339 61.9651C56.9084 61.9651 56.5004 62.1341 56.1995 62.435C55.8986 62.7358 55.7296 63.1439 55.7296 63.5694Z" fill="#DAEDF7" stroke="#45413C" stroke-linecap="round" stroke-linejoin="round"/>
<path d="M58.7321 62.4368C58.7321 62.8653 58.9023 63.2762 59.2053 63.5791C59.5083 63.8821 59.9192 64.0523 60.3476 64.0523C60.7761 64.0523 61.187 63.8821 61.49 63.5791C61.7929 63.2762 61.9631 62.8653 61.9631 62.4368C61.9631 62.0083 61.7929 61.5974 61.49 61.2945C61.187 60.9915 60.7761 60.8213 60.3476 60.8213C59.9192 60.8213 59.5083 60.9915 59.2053 61.2945C58.9023 61.5974 58.7321 62.0083 58.7321 62.4368Z" fill="#DAEDF7" stroke="#45413C" stroke-linecap="round" stroke-linejoin="round"/>
<path d="M61.748 61.2781C61.748 61.4903 61.7898 61.7003 61.871 61.8963C61.9521 62.0923 62.0711 62.2704 62.2212 62.4204C62.3712 62.5704 62.5493 62.6894 62.7453 62.7706C62.9413 62.8518 63.1513 62.8936 63.3635 62.8936C63.5756 62.8936 63.7857 62.8518 63.9817 62.7706C64.1777 62.6894 64.3558 62.5704 64.5058 62.4204C64.6558 62.2704 64.7748 62.0923 64.856 61.8963C64.9372 61.7003 64.979 61.4903 64.979 61.2781C64.979 61.066 64.9372 60.8559 64.856 60.6599C64.7748 60.4639 64.6558 60.2858 64.5058 60.1358C64.3558 59.9858 64.1777 59.8668 63.9817 59.7856C63.7857 59.7044 63.5756 59.6626 63.3635 59.6626C63.1513 59.6626 62.9413 59.7044 62.7453 59.7856C62.5493 59.8668 62.3712 59.9858 62.2212 60.1358C62.0711 60.2858 61.9521 60.4639 61.871 60.6599C61.7898 60.8559 61.748 61.066 61.748 61.2781Z" fill="#DAEDF7" stroke="#45413C" stroke-linecap="round" stroke-linejoin="round"/>
<path d="M65.0526 60.8885C65.0526 61.3169 65.2228 61.7278 65.5257 62.0308C65.8287 62.3338 66.2396 62.504 66.6681 62.504C67.0965 62.504 67.5074 62.3338 67.8104 62.0308C68.1134 61.7278 68.2836 61.3169 68.2836 60.8885C68.2836 60.46 68.1134 60.0491 67.8104 59.7461C67.5074 59.4432 67.0965 59.2729 66.6681 59.2729C66.2396 59.2729 65.8287 59.4432 65.5257 59.7461C65.2228 60.0491 65.0526 60.46 65.0526 60.8885Z" fill="#DAEDF7" stroke="#45413C" stroke-linecap="round" stroke-linejoin="round"/>
<path d="M53.0691 56.7849L56.0702 55.6565Z" fill="#F8F8F8"/>
<path d="M53.0691 56.7849L56.0702 55.6565" stroke="#45413C" stroke-linecap="round" stroke-linejoin="round"/>
<path d="M54.2333 59.8828L57.2351 58.7544Z" fill="#F8F8F8"/>
<path d="M54.2333 59.8828L57.2351 58.7544" stroke="#45413C" stroke-linecap="round" stroke-linejoin="round"/>
<path d="M53.9088 66.5823L57.043 67.4177Z" fill="#F8F8F8"/>
<path d="M53.9088 66.5823L57.043 67.4177" stroke="#45413C" stroke-linecap="round" stroke-linejoin="round"/>
<path d="M64.2037 76.3786L69.4954 74.3896L70.3819 76.7482L65.0901 78.7371L64.2037 76.3786Z" fill="#87898C" stroke="#45413C" stroke-linecap="round" stroke-linejoin="round"/>
<path d="M65.5467 86.0342L63.9676 80.7272C63.8599 80.3386 63.9016 79.9238 64.0847 79.5645C64.2678 79.2053 64.5789 78.9277 64.9565 78.7865L70.5109 76.6986C70.8885 76.5552 71.3061 76.5587 71.6812 76.7084C72.0563 76.8582 72.3615 77.1433 72.5364 77.5074L75 82.4836" fill="white"/>
<path d="M65.5467 86.0342L63.9676 80.7272C63.8599 80.3386 63.9016 79.9238 64.0847 79.5645C64.2678 79.2053 64.5789 78.9277 64.9565 78.7865L70.5109 76.6986C70.8885 76.5552 71.3061 76.5587 71.6812 76.7084C72.0563 76.8582 72.3615 77.1433 72.5364 77.5074L75 82.4836" stroke="#45413C" stroke-linecap="round" stroke-linejoin="round"/>
<path d="M69.7554 64.5457C68.7591 63.7085 67.5626 63.1443 66.2829 62.9082C65.0032 62.6721 63.6842 62.7722 62.4548 63.1987C61.2254 63.6252 60.1277 64.3635 59.2692 65.3414C58.4106 66.3193 57.8206 67.5032 57.5568 68.7775L59.5059 73.9639H59.5024L59.5332 73.9786C60.4617 74.2674 61.2999 74.791 61.9666 75.4988C62.2895 75.8817 62.723 76.1551 63.2075 76.2816C63.6921 76.4081 64.2039 76.3815 64.6727 76.2053L69.3853 74.4342C69.6584 74.3316 69.9087 74.1763 70.1217 73.9769C70.3348 73.7776 70.5065 73.5383 70.627 73.2726C70.7476 73.007 70.8146 72.7201 70.8242 72.4286C70.8339 72.137 70.786 71.8463 70.6833 71.5733C69.8703 69.4111 71.0275 68.1705 69.7631 64.5457" fill="white"/>
<path d="M69.5185 72.2054L64.3321 74.1538C63.8164 74.3482 63.2531 74.3779 62.7198 74.2387C62.1866 74.0994 61.7096 73.7982 61.3548 73.3765C60.6214 72.598 59.6994 72.022 58.6782 71.7043L58.6473 71.6895L59.5017 73.9625L59.529 73.9758C60.4575 74.2645 61.2957 74.7882 61.9625 75.496C62.2853 75.8788 62.7188 76.1523 63.2033 76.2788C63.6879 76.4053 64.1997 76.3786 64.6685 76.2024L69.3811 74.4313C69.9326 74.224 70.3792 73.8062 70.6226 73.2697C70.866 72.7331 70.8863 72.1219 70.6792 71.5704C70.6553 71.5073 70.6329 71.4442 70.6126 71.3826C70.3341 71.7559 69.9544 72.0414 69.5185 72.2054Z" fill="#E0E0E0"/>
<path d="M69.7554 64.5457C68.7591 63.7085 67.5626 63.1443 66.2829 62.9082C65.0032 62.6721 63.6842 62.7722 62.4548 63.1987C61.2254 63.6252 60.1277 64.3635 59.2692 65.3414C58.4106 66.3193 57.8206 67.5032 57.5568 68.7775L59.5059 73.9639H59.5024L59.5332 73.9786C60.4617 74.2674 61.2999 74.791 61.9666 75.4988C62.2895 75.8817 62.723 76.1551 63.2075 76.2816C63.6921 76.4081 64.2039 76.3815 64.6727 76.2053L69.3853 74.4342C69.6584 74.3316 69.9087 74.1763 70.1217 73.9769C70.3348 73.7776 70.5065 73.5383 70.627 73.2726C70.7476 73.007 70.8146 72.7201 70.8242 72.4286C70.8339 72.137 70.786 71.8463 70.6833 71.5733C69.8703 69.4111 71.0275 68.1705 69.7631 64.5457" stroke="#45413C" stroke-linecap="round" stroke-linejoin="round"/>
</g>
<defs>
<clipPath id="clip0_179_2">
<rect width="96" height="86.0342" fill="white"/>
</clipPath>
</defs>
</svg>
