<svg width="82" height="82" viewBox="0 0 82 82" fill="none" xmlns="http://www.w3.org/2000/svg">
<path d="M41 81C63.0914 81 81 63.0914 81 41C81 18.9086 63.0914 1 41 1C18.9086 1 1 18.9086 1 41C1 63.0914 18.9086 81 41 81Z" fill="#DAEDF7" stroke="#DAEDF7" stroke-miterlimit="10"/>
<path d="M24.481 61.0944L22.452 65.4444L13.796 59.3954L15.825 55.0454L24.481 61.0944Z" fill="white" stroke="#45413C" stroke-linecap="round" stroke-linejoin="round"/>
<path d="M16.887 61.5554C17.7133 61.2715 18.4082 60.6968 18.842 59.9383C19.2759 59.1799 19.4191 58.2896 19.245 57.4334L15.825 55.0454L13.8 59.4004L16.887 61.5554Z" fill="#E0E0E0"/>
<path d="M24.481 61.0944L22.452 65.4444L13.796 59.3954L15.825 55.0454L24.481 61.0944Z" stroke="#45413C" stroke-linecap="round" stroke-linejoin="round"/>
<path d="M3.41099 53.3703C3.32779 53.383 3.2481 53.413 3.1773 53.4585C3.1064 53.5039 3.04589 53.5638 2.99969 53.6341C2.95349 53.7045 2.9226 53.7838 2.909 53.8668C2.8955 53.9499 2.89949 54.0349 2.92099 54.1163C3.22309 55.2667 3.84469 56.308 4.71389 57.1198C5.58309 57.9317 6.66429 58.4809 7.83259 58.704C9.00089 58.9271 10.2084 58.8149 11.3156 58.3805C12.4227 57.946 13.3843 57.207 14.0891 56.249C14.7939 55.2909 15.213 54.1529 15.2981 52.9666C15.3832 51.7803 15.1308 50.5941 14.57 49.5453C14.0092 48.4964 13.1629 47.6277 12.1291 47.0397C11.0953 46.4517 9.9161 46.1683 8.728 46.2223C8.6439 46.2261 8.56159 46.2476 8.48629 46.2853C8.41109 46.323 8.3446 46.3761 8.2912 46.4412C8.2378 46.5063 8.1987 46.5818 8.1765 46.663C8.1542 46.7442 8.1493 46.8291 8.162 46.9123L8.43499 48.7063C8.45639 48.8479 8.52779 48.9771 8.63619 49.0706C8.74459 49.1641 8.88279 49.2158 9.02599 49.2163C9.63529 49.2184 10.2322 49.389 10.7504 49.7095C11.2687 50.0299 11.6881 50.4876 11.9622 51.0317C12.2363 51.5759 12.3544 52.1854 12.3034 52.7925C12.2524 53.3997 12.0343 53.9809 11.6733 54.4718C11.3122 54.9626 10.8223 55.3439 10.2578 55.5733C9.69339 55.8028 9.07639 55.8715 8.47529 55.7719C7.87419 55.6722 7.31239 55.4081 6.85219 55.0087C6.39199 54.6094 6.05129 54.0904 5.86799 53.5093C5.82479 53.3729 5.7342 53.2563 5.6126 53.1808C5.491 53.1052 5.34649 53.0756 5.20499 53.0973L3.41099 53.3703Z" fill="#87898C" stroke="#45413C" stroke-linecap="round" stroke-linejoin="round"/>
<path d="M14.072 60.0643C16.0602 60.0643 17.672 58.4525 17.672 56.4643C17.672 54.476 16.0602 52.8643 14.072 52.8643C12.0838 52.8643 10.472 54.476 10.472 56.4643C10.472 58.4525 12.0838 60.0643 14.072 60.0643Z" fill="white" stroke="#45413C" stroke-linecap="round" stroke-linejoin="round"/>
<path d="M55.951 61.5463L57.569 66.0653L66.746 60.8403L65.128 56.3213L55.951 61.5463Z" fill="white" stroke="#45413C" stroke-linecap="round" stroke-linejoin="round"/>
<path d="M63.47 62.7063C62.673 62.3478 62.0336 61.7115 61.6711 60.9163C61.3086 60.121 61.2478 59.2211 61.5 58.3843L65.126 56.3213L66.744 60.8403L63.47 62.7063Z" fill="#E0E0E0"/>
<path d="M55.951 61.5463L57.569 66.0653L66.746 60.8403L65.128 56.3213L55.951 61.5463Z" stroke="#45413C" stroke-linecap="round" stroke-linejoin="round"/>
<path d="M77.643 55.8003C77.7245 55.8206 77.8009 55.8578 77.8672 55.9095C77.9335 55.9612 77.9881 56.0263 78.0276 56.1005C78.0671 56.1747 78.0906 56.2564 78.0965 56.3402C78.1024 56.4241 78.0907 56.5083 78.062 56.5873C77.6551 57.705 76.9401 58.6847 75.9998 59.413C75.0594 60.1414 73.932 60.5887 72.7481 60.7031C71.5642 60.8175 70.372 60.5945 69.3096 60.0597C68.2471 59.5249 67.3577 58.7003 66.7443 57.6812C66.1309 56.6621 65.8186 55.4902 65.8433 54.301C65.8681 53.1118 66.2291 51.9539 66.8844 50.9613C67.5398 49.9686 68.4627 49.1818 69.5466 48.6918C70.6304 48.2018 71.8308 48.0286 73.009 48.1923C73.0923 48.2038 73.1723 48.2328 73.2437 48.2772C73.3152 48.3217 73.3765 48.3807 73.4236 48.4504C73.4708 48.5201 73.5027 48.5989 73.5174 48.6817C73.5321 48.7646 73.5293 48.8496 73.509 48.9313L73.071 50.6923C73.0365 50.8311 72.9536 50.953 72.8371 51.036C72.7207 51.1191 72.5784 51.1578 72.436 51.1453C71.829 51.091 71.219 51.2058 70.6733 51.477C70.1276 51.7482 69.6677 52.1651 69.3445 52.6817C69.0213 53.1982 68.8474 53.7942 68.8421 54.4035C68.8368 55.0128 69.0003 55.6117 69.3145 56.1338C69.6287 56.6559 70.0814 57.0808 70.6222 57.3614C71.1631 57.642 71.7711 57.7674 72.3789 57.7236C72.9867 57.6799 73.5705 57.4687 74.0656 57.1135C74.5607 56.7583 74.9478 56.273 75.184 55.7113C75.2396 55.579 75.3409 55.4711 75.4693 55.407C75.5977 55.343 75.7448 55.3271 75.884 55.3623L77.643 55.8003Z" fill="#87898C" stroke="#45413C" stroke-linecap="round" stroke-linejoin="round"/>
<path d="M66.743 61.4964C68.7312 61.4964 70.343 59.8846 70.343 57.8964C70.343 55.9082 68.7312 54.2964 66.743 54.2964C64.7548 54.2964 63.143 55.9082 63.143 57.8964C63.143 59.8846 64.7548 61.4964 66.743 61.4964Z" fill="white" stroke="#45413C" stroke-linecap="round" stroke-linejoin="round"/>
<path d="M53.1626 47.2734L53.1016 65.2733L57.9016 65.2896L57.9625 47.2897L53.1626 47.2734Z" fill="white" stroke="#45413C" stroke-linecap="round" stroke-linejoin="round"/>
<path d="M25.0298 47.2007L21.6014 64.8712L26.3136 65.7854L29.742 48.1149L25.0298 47.2007Z" fill="white" stroke="#45413C" stroke-linecap="round" stroke-linejoin="round"/>
<path d="M53.164 47.2744L57.9639 47.2904V55.6434H53.1349L53.164 47.2744Z" fill="#E0E0E0"/>
<path d="M25.0293 47.2004L23.5684 54.73L28.2805 55.6442L29.7414 48.1146L25.0293 47.2004Z" fill="#E0E0E0"/>
<path d="M53.1626 47.2734L53.1016 65.2733L57.9016 65.2896L57.9625 47.2897L53.1626 47.2734Z" stroke="#45413C" stroke-linecap="round" stroke-linejoin="round"/>
<path d="M25.0298 47.2007L21.6014 64.8712L26.3136 65.7854L29.742 48.1149L25.0298 47.2007Z" stroke="#45413C" stroke-linecap="round" stroke-linejoin="round"/>
<path d="M55.945 67.6311C57.9332 67.6311 59.545 66.0194 59.545 64.0312C59.545 62.0429 57.9332 60.4312 55.945 60.4312C53.9567 60.4312 52.345 62.0429 52.345 64.0312C52.345 66.0194 53.9567 67.6311 55.945 67.6311Z" fill="white" stroke="#45413C" stroke-linecap="round" stroke-linejoin="round"/>
<path d="M43.668 38.1143H38.868V43.4143H43.668V38.1143Z" fill="#DAEDF7"/>
<path d="M43.668 38.1143H38.868V41.0143H43.668V38.1143Z" fill="#ADC4D9"/>
<path d="M43.668 38.1143H38.868V43.4143H43.668V38.1143Z" stroke="#45413C" stroke-linecap="round" stroke-linejoin="round"/>
<path d="M47.268 43.4141H35.268C33.2797 43.4141 31.668 45.0258 31.668 47.0141V57.8141C31.668 59.8023 33.2797 61.4141 35.268 61.4141H47.268C49.2562 61.4141 50.868 59.8023 50.868 57.8141V47.0141C50.868 45.0258 49.2562 43.4141 47.268 43.4141Z" fill="white" stroke="#45413C" stroke-linecap="round" stroke-linejoin="round"/>
<path d="M44.868 61.4141H37.668V68.6141H44.868V61.4141Z" fill="#DAEDF7"/>
<path d="M44.874 61.4141H37.674V65.0141H44.874V61.4141Z" fill="#ADC4D9"/>
<path d="M44.868 61.4141H37.668V68.6141H44.868V61.4141Z" stroke="#45413C" stroke-linecap="round" stroke-linejoin="round"/>
<path d="M46.068 51.8141C46.068 52.4506 45.8151 53.061 45.365 53.5111C44.9149 53.9612 44.3045 54.2141 43.668 54.2141H38.868C38.2314 54.2141 37.621 53.9612 37.1709 53.5111C36.7208 53.061 36.468 52.4506 36.468 51.8141V43.4141H46.068V51.8141Z" fill="#00B8F0"/>
<path d="M44.467 43.4141L36.474 51.4051V43.4141H44.467Z" fill="#4ACFFF"/>
<path d="M46.068 51.8141C46.068 52.4506 45.8151 53.061 45.365 53.5111C44.9149 53.9612 44.3045 54.2141 43.668 54.2141H38.868C38.2314 54.2141 37.621 53.9612 37.1709 53.5111C36.7208 53.061 36.468 52.4506 36.468 51.8141V43.4141H46.068V51.8141Z" stroke="#45413C" stroke-linecap="round" stroke-linejoin="round"/>
<path d="M48.059 68.6143C48.4429 68.6142 48.8213 68.7063 49.1623 68.8828C49.5033 69.0593 49.797 69.315 50.0187 69.6285C50.2404 69.942 50.3837 70.3041 50.4364 70.6845C50.4892 71.0648 50.4499 71.4522 50.322 71.8143C49.6613 73.6877 48.4357 75.31 46.8141 76.4576C45.1926 77.6052 43.255 78.2214 41.2685 78.2214C39.2819 78.2214 37.3443 77.6052 35.7228 76.4576C34.1013 75.31 32.8756 73.6877 32.215 71.8143C32.087 71.4522 32.0477 71.0648 32.1005 70.6845C32.1532 70.3041 32.2965 69.942 32.5182 69.6285C32.7399 69.315 33.0336 69.0593 33.3746 68.8828C33.7156 68.7063 34.094 68.6142 34.478 68.6143H48.059Z" fill="white" stroke="#45413C" stroke-linecap="round" stroke-linejoin="round"/>
<path d="M51.152 49.9073C50.964 50.4032 50.9806 50.9536 51.1984 51.4372C51.4161 51.9209 51.817 52.2982 52.313 52.4863L54.931 53.4793C55.8236 53.8177 56.814 53.7877 57.6845 53.396C58.555 53.0042 59.2343 52.2828 59.573 51.3903L60 50.2683C60.1677 49.8263 60.2467 49.3555 60.2325 48.883C60.2182 48.4104 60.1111 47.9453 59.9171 47.5141C59.7231 47.083 59.4461 46.6943 59.1019 46.3702C58.7577 46.0461 58.353 45.793 57.911 45.6253L55.666 44.7743C55.371 44.6618 55.0567 44.6086 54.7411 44.6177C54.4256 44.6268 54.1149 44.6982 53.8269 44.8276C53.539 44.957 53.2793 45.1419 53.063 45.3718C52.8466 45.6017 52.6777 45.872 52.566 46.1673L51.152 49.9073Z" fill="white" stroke="#45413C" stroke-linecap="round" stroke-linejoin="round"/>
<path d="M30.839 49.9244C30.7103 50.4389 30.3825 50.8812 29.9278 51.1541C29.473 51.4269 28.9285 51.508 28.414 51.3794L25.7 50.7004C25.2413 50.5857 24.8098 50.3818 24.4299 50.1003C24.0501 49.8188 23.7294 49.4653 23.4862 49.0599C23.243 48.6544 23.0821 48.2051 23.0125 47.7375C22.943 47.2698 22.9663 46.7931 23.081 46.3344L23.372 45.1704C23.4867 44.7118 23.6906 44.2802 23.9721 43.9004C24.2536 43.5206 24.6071 43.1999 25.0126 42.9567C25.418 42.7135 25.8673 42.5525 26.335 42.483C26.8026 42.4135 27.2793 42.4367 27.738 42.5514L30.066 43.1334C30.6834 43.2879 31.2141 43.6812 31.5415 44.2269C31.869 44.7726 31.9662 45.426 31.812 46.0434L30.839 49.9244Z" fill="white" stroke="#45413C" stroke-linecap="round" stroke-linejoin="round"/>
<path d="M24.076 66.6463C26.0642 66.6463 27.676 65.0345 27.676 63.0463C27.676 61.0581 26.0642 59.4463 24.076 59.4463C22.0877 59.4463 20.476 61.0581 20.476 63.0463C20.476 65.0345 22.0877 66.6463 24.076 66.6463Z" fill="white" stroke="#45413C" stroke-linecap="round" stroke-linejoin="round"/>
<path d="M52.167 10.6603L25.6719 13.822C23.6769 14.06 22.2526 15.8703 22.4906 17.8654L24.7901 37.1347C25.0281 39.1297 26.8385 40.5541 28.8335 40.316L55.3285 37.1543C57.3236 36.9162 58.7479 35.1059 58.5098 33.1109L56.2104 13.8416C55.9723 11.8465 54.162 10.4222 52.167 10.6603Z" fill="#00B8F0"/>
<path d="M29.2799 40.2622L28.8339 40.3152C28.3595 40.3718 27.8786 40.3345 27.4186 40.2053C26.9586 40.0762 26.5286 39.8576 26.1531 39.5623C25.7776 39.2669 25.4639 38.9004 25.23 38.4838C24.9961 38.0672 24.8466 37.6086 24.7899 37.1342L22.4899 17.8652C22.4332 17.3908 22.4706 16.9098 22.5997 16.4498C22.7289 15.9899 22.9474 15.5598 23.2428 15.1843C23.5382 14.8088 23.9047 14.4951 24.3213 14.2612C24.7379 14.0273 25.1965 13.8778 25.6709 13.8212L52.1659 10.6602L29.2799 40.2622Z" fill="#4ACFFF"/>
<path d="M52.167 10.6603L25.6719 13.822C23.6769 14.06 22.2526 15.8703 22.4906 17.8654L24.7901 37.1347C25.0281 39.1297 26.8385 40.5541 28.8335 40.316L55.3285 37.1543C57.3236 36.9162 58.7479 35.1059 58.5098 33.1109L56.2104 13.8416C55.9723 11.8465 54.162 10.4222 52.167 10.6603Z" stroke="#45413C" stroke-linecap="round" stroke-linejoin="round"/>
<g clip-path="url(#clip0_182_237)">
<path fill-rule="evenodd" clip-rule="evenodd" d="M38.863 18.0813C34.4953 18.6952 31.4747 22.8224 32.106 27.3144C32.6107 30.9051 35.3002 33.6266 38.5898 34.2613C38.9936 34.287 39.1014 34.0112 39.0712 33.7961C39.0447 33.6078 38.941 32.9641 38.8465 32.2916C36.7174 33.0846 36.0557 31.6964 36.0557 31.6964C35.5703 30.8046 35.0131 30.6362 35.0131 30.6362C34.224 30.2396 34.9956 30.1312 34.9956 30.1312C35.8008 30.0729 36.329 30.794 36.329 30.794C37.2089 31.932 38.2975 31.4225 38.725 31.143C38.7166 30.6093 38.8749 30.2168 39.0689 29.9838C37.29 30.0418 35.348 29.6016 34.9095 26.4815C34.7847 25.5939 34.9963 24.8236 35.4139 24.189C35.3072 23.9983 34.9153 23.2029 35.1901 22.0261C35.1901 22.0261 35.8268 21.7171 37.4779 22.5548C38.0968 22.2865 38.748 22.1027 39.4148 22.0082C40.0818 21.9145 40.7749 21.9132 41.4272 21.9998C42.7837 20.7394 43.4809 20.8609 43.4809 20.8609C44.0694 21.9164 43.9118 22.789 43.8617 23.0017C44.4512 23.4948 44.8539 24.1787 44.9787 25.0663C45.4172 28.1865 43.6698 29.1314 41.9327 29.5814C42.2564 29.7964 42.5727 30.2456 42.6805 31.0122C42.8336 32.1015 42.9435 32.9776 42.9813 33.2464C43.0115 33.4617 43.1914 33.6971 43.5722 33.5613C46.5595 32.0441 48.3947 28.6868 47.89 25.0961C47.2716 20.6023 43.2176 17.4693 38.863 18.0813Z" fill="#24292F"/>
</g>
<defs>
<clipPath id="clip0_182_237">
<rect width="16" height="16" fill="white" transform="translate(30.9644 19.1914) rotate(-8)"/>
</clipPath>
</defs>
</svg>
