<svg width="80" height="80" viewBox="0 0 80 80" fill="none" xmlns="http://www.w3.org/2000/svg">
<path d="M40 80C62.0914 80 80 62.0914 80 40C80 17.9086 62.0914 0 40 0C17.9086 0 0 17.9086 0 40C0 62.0914 17.9086 80 40 80Z" fill="#DAEDF7" stroke="#DAEDF7" stroke-miterlimit="10"/>
<path opacity="0.15" d="M40.5 69.027C56.5052 69.027 69.48 67.9458 69.48 66.612C69.48 65.2783 56.5052 64.197 40.5 64.197C24.4948 64.197 11.52 65.2783 11.52 66.612C11.52 67.9458 24.4948 69.027 40.5 69.027Z" fill="#45413C"/>
<path d="M64.047 0.623047H15.746C13.7456 0.623047 12.124 2.24475 12.124 4.24505V62.206C12.124 64.2064 13.7456 65.828 15.746 65.828H64.047C66.0474 65.828 67.669 64.2064 67.669 62.206V4.24505C67.669 2.24475 66.0474 0.623047 64.047 0.623047Z" fill="#DAEDF7"/>
<path d="M64.046 0.623052C64.5219 0.622252 64.9933 0.715352 65.4332 0.897052C65.873 1.07885 66.2727 1.34555 66.6092 1.68205C66.9458 2.01855 67.2127 2.41815 67.3945 2.85795C67.5764 3.29775 67.6697 3.76905 67.669 4.24505V7.86805C67.6697 7.39205 67.5764 6.92065 67.3946 6.48075C67.2127 6.04095 66.9459 5.64125 66.6093 5.30465C66.2728 4.96815 65.8731 4.70125 65.4332 4.51945C64.9934 4.33765 64.522 4.24435 64.046 4.24505H15.746C15.2701 4.24445 14.7988 4.33785 14.3591 4.51975C13.9193 4.70165 13.5198 4.96845 13.1833 5.30505C12.8469 5.64155 12.5801 6.04115 12.3983 6.48095C12.2166 6.92075 12.1233 7.39215 12.124 7.86805V4.24505C12.1233 3.76915 12.2166 3.29785 12.3984 2.85815C12.5802 2.41845 12.8469 2.01885 13.1834 1.68235C13.5199 1.34595 13.9194 1.07915 14.3591 0.897352C14.7989 0.715552 15.2702 0.622352 15.746 0.623052H64.046Z" fill="white"/>
<path d="M64.047 0.623047H15.746C13.7456 0.623047 12.124 2.24475 12.124 4.24505V62.206C12.124 64.2064 13.7456 65.828 15.746 65.828H64.047C66.0474 65.828 67.669 64.2064 67.669 62.206V4.24505C67.669 2.24475 66.0474 0.623047 64.047 0.623047Z" stroke="#45413C" stroke-linecap="round" stroke-linejoin="round"/>
<path d="M60.424 5.45312H19.369C18.0352 5.45312 16.954 6.53442 16.954 7.86812V58.5831C16.954 59.9169 18.0352 60.9981 19.369 60.9981H60.424C61.7578 60.9981 62.839 59.9169 62.839 58.5831V7.86812C62.839 6.53442 61.7578 5.45312 60.424 5.45312Z" fill="#ADC4D9"/>
<path d="M62.839 35.6401H16.954V40.4701H62.839V35.6401Z" fill="#8CA4B8"/>
<path d="M62.839 7.86808V12.7001C62.8371 12.0601 62.5821 11.447 62.1296 10.9945C61.6771 10.542 61.0639 10.2869 60.424 10.2851H19.369C18.729 10.2867 18.1156 10.5416 17.6631 10.9942C17.2105 11.4467 16.9556 12.0601 16.954 12.7001V7.87008C16.9556 7.23008 17.2105 6.61668 17.6631 6.16418C18.1156 5.71158 18.729 5.45668 19.369 5.45508H60.424C61.0636 5.45688 61.6765 5.71168 62.1289 6.16368C62.5814 6.61578 62.8366 7.22848 62.839 7.86808Z" fill="#8CA4B8"/>
<path d="M60.424 5.45312H19.369C18.0352 5.45312 16.954 6.53442 16.954 7.86812V58.5831C16.954 59.9169 18.0352 60.9981 19.369 60.9981H60.424C61.7578 60.9981 62.839 59.9169 62.839 58.5831V7.86812C62.839 6.53442 61.7578 5.45312 60.424 5.45312Z" stroke="#45413C" stroke-linecap="round" stroke-linejoin="round"/>
<path d="M62.839 30.8101H16.954V35.6401H62.839V30.8101Z" fill="#DAEDF7"/>
<path d="M62.839 30.8101H16.954V33.2251H62.839V30.8101Z" fill="white"/>
<path d="M62.839 30.8101H16.954V35.6401H62.839V30.8101Z" stroke="#45413C" stroke-linecap="round" stroke-linejoin="round"/>
<path d="M61.632 10.283H59.216C58.5494 10.283 58.009 10.8234 58.009 11.49V29.604C58.009 30.2706 58.5494 30.811 59.216 30.811H61.632C62.2986 30.811 62.839 30.2706 62.839 29.604V11.49C62.839 10.8234 62.2986 10.283 61.632 10.283Z" fill="#00B8F0"/>
<path d="M62.839 11.49V13.905C62.8374 13.5853 62.7095 13.2793 62.4833 13.0536C62.257 12.8279 61.9506 12.7007 61.631 12.7H59.216C58.8961 12.7008 58.5896 12.8282 58.3634 13.0544C58.1372 13.2805 58.0098 13.5871 58.009 13.907V11.49C58.0098 11.1701 58.1372 10.8635 58.3634 10.6374C58.5896 10.4112 58.8961 10.2838 59.216 10.283H61.631C61.951 10.2837 62.2576 10.4111 62.484 10.6373C62.7103 10.8634 62.8379 11.17 62.839 11.49Z" fill="#009FD9"/>
<path d="M61.632 10.283H59.216C58.5494 10.283 58.009 10.8234 58.009 11.49V29.604C58.009 30.2706 58.5494 30.811 59.216 30.811H61.632C62.2986 30.811 62.839 30.2706 62.839 29.604V11.49C62.839 10.8234 62.2986 10.283 61.632 10.283Z" stroke="#45413C" stroke-miterlimit="10"/>
<path d="M44.726 10.283H42.312C41.6448 10.283 41.104 10.8238 41.104 11.491V29.603C41.104 30.2701 41.6448 30.811 42.312 30.811H44.726C45.3932 30.811 45.934 30.2701 45.934 29.603V11.491C45.934 10.8238 45.3932 10.283 44.726 10.283Z" fill="#FF6242"/>
<path d="M45.934 11.49V13.905C45.9324 13.5853 45.8045 13.2793 45.5783 13.0536C45.352 12.8279 45.0456 12.7007 44.726 12.7H42.311C41.9908 12.6997 41.6835 12.8264 41.4565 13.0522C41.2295 13.2781 41.1013 13.5847 41.1 13.905V11.49C41.1008 11.1701 41.2282 10.8635 41.4544 10.6374C41.6806 10.4112 41.9871 10.2838 42.307 10.283H44.722C45.0427 10.2827 45.3503 10.4096 45.5775 10.6359C45.8048 10.8622 45.9329 11.1693 45.934 11.49Z" fill="#E04122"/>
<path d="M44.726 10.283H42.312C41.6448 10.283 41.104 10.8238 41.104 11.491V29.603C41.104 30.2701 41.6448 30.811 42.312 30.811H44.726C45.3932 30.811 45.934 30.2701 45.934 29.603V11.491C45.934 10.8238 45.3932 10.283 44.726 10.283Z" stroke="#45413C" stroke-miterlimit="10"/>
<path d="M56.801 10.283H53.178C52.5114 10.283 51.971 10.8234 51.971 11.49V29.604C51.971 30.2706 52.5114 30.811 53.178 30.811H56.801C57.4676 30.811 58.008 30.2706 58.008 29.604V11.49C58.008 10.8234 57.4676 10.283 56.801 10.283Z" fill="#00DFEB"/>
<path d="M58.009 11.49V13.905C58.0074 13.5852 57.8794 13.279 57.6529 13.0532C57.4264 12.8275 57.1198 12.7005 56.8 12.7H53.179C52.859 12.7007 52.5524 12.8281 52.326 13.0543C52.0997 13.2804 51.9721 13.587 51.971 13.907V11.49C51.9721 11.17 52.0997 10.8634 52.326 10.6373C52.5524 10.4111 52.859 10.2837 53.179 10.283H56.8C57.1201 10.2835 57.4271 10.4108 57.6536 10.6369C57.8802 10.8631 58.008 11.1698 58.009 11.49Z" fill="#00C9D4"/>
<path d="M56.801 10.283H53.178C52.5114 10.283 51.971 10.8234 51.971 11.49V29.604C51.971 30.2706 52.5114 30.811 53.178 30.811H56.801C57.4676 30.811 58.008 30.2706 58.008 29.604V11.49C58.008 10.8234 57.4676 10.283 56.801 10.283Z" stroke="#45413C" stroke-miterlimit="10"/>
<path d="M50.764 10.283H47.142C46.4748 10.283 45.934 10.8238 45.934 11.491V29.603C45.934 30.2701 46.4748 30.811 47.142 30.811H50.764C51.4312 30.811 51.972 30.2701 51.972 29.603V11.491C51.972 10.8238 51.4312 10.283 50.764 10.283Z" fill="white"/>
<path d="M51.971 11.49V13.905C51.9697 13.5854 51.842 13.2794 51.6159 13.0536C51.3898 12.8279 51.0835 12.7007 50.764 12.7H47.141C46.8211 12.7008 46.5146 12.8282 46.2884 13.0544C46.0622 13.2805 45.9348 13.5871 45.934 13.907V11.49C45.9348 11.1701 46.0622 10.8635 46.2884 10.6374C46.5146 10.4112 46.8211 10.2838 47.141 10.283H50.764C51.0839 10.2838 51.3904 10.4112 51.6166 10.6374C51.8428 10.8635 51.9702 11.1701 51.971 11.49Z" fill="#ADC4D9"/>
<path d="M50.764 10.283H47.142C46.4748 10.283 45.934 10.8238 45.934 11.491V29.603C45.934 30.2701 46.4748 30.811 47.142 30.811H50.764C51.4312 30.811 51.972 30.2701 51.972 29.603V11.491C51.972 10.8238 51.4312 10.283 50.764 10.283Z" stroke="#45413C" stroke-miterlimit="10"/>
<path d="M49.556 40.47H45.934C45.2668 40.47 44.726 41.0108 44.726 41.678V59.79C44.726 60.4571 45.2668 60.998 45.934 60.998H49.556C50.2232 60.998 50.764 60.4571 50.764 59.79V41.678C50.764 41.0108 50.2232 40.47 49.556 40.47Z" fill="#00DBA8"/>
<path d="M50.764 41.678V44.093C50.763 43.7729 50.6353 43.4663 50.409 43.2399C50.1827 43.0136 49.8761 42.886 49.556 42.885H45.934C45.614 42.886 45.3073 43.0136 45.081 43.2399C44.8547 43.4663 44.7271 43.7729 44.726 44.093V41.678C44.7271 41.3579 44.8547 41.0513 45.081 40.825C45.3073 40.5986 45.614 40.471 45.934 40.47H49.556C49.8761 40.471 50.1827 40.5986 50.409 40.825C50.6353 41.0513 50.763 41.3579 50.764 41.678Z" fill="#00DBA8"/>
<path d="M49.556 40.47H45.934C45.2668 40.47 44.726 41.0108 44.726 41.678V59.79C44.726 60.4571 45.2668 60.998 45.934 60.998H49.556C50.2232 60.998 50.764 60.4571 50.764 59.79V41.678C50.764 41.0108 50.2232 40.47 49.556 40.47Z" stroke="#45413C" stroke-miterlimit="10"/>
<path d="M55.1125 40.1848L51.6371 41.2067C50.9978 41.3947 50.632 42.0654 50.82 42.7046L55.9278 60.075C56.1158 60.7143 56.7864 61.0801 57.4257 60.8921L60.9011 59.8702C61.5404 59.6822 61.9062 59.0116 61.7183 58.3723L56.6104 41.0019C56.4224 40.3626 55.7518 39.9968 55.1125 40.1848Z" fill="#E4FFD1"/>
<path d="M39.9 40.47H43.523C43.8434 40.47 44.1506 40.5972 44.3772 40.8238C44.6037 41.0503 44.731 41.3576 44.731 41.678V59.79C44.7313 59.9491 44.7001 60.1067 44.6392 60.2538C44.5784 60.4008 44.4891 60.5344 44.3765 60.6469C44.2639 60.7593 44.1301 60.8484 43.983 60.909C43.8358 60.9696 43.6782 61.0005 43.519 61H39.9C39.5799 61 39.2729 60.8728 39.0465 60.6464C38.8202 60.4201 38.693 60.1131 38.693 59.793V41.678C38.6929 41.5194 38.724 41.3623 38.7846 41.2158C38.8452 41.0692 38.9341 40.936 39.0462 40.8238C39.1583 40.7117 39.2914 40.6227 39.4379 40.5619C39.5844 40.5012 39.7414 40.47 39.9 40.47Z" fill="#4ACFFF"/>
<path d="M44.726 41.678V44.093C44.7252 43.773 44.5978 43.4664 44.3717 43.24C44.1455 43.0137 43.839 42.886 43.519 42.885H39.9C39.58 42.886 39.2735 43.0137 39.0473 43.24C38.8212 43.4664 38.6938 43.773 38.693 44.093V41.678C38.6938 41.358 38.8212 41.0514 39.0473 40.825C39.2735 40.5987 39.58 40.471 39.9 40.47H43.523C43.8423 40.4721 44.1478 40.6002 44.3731 40.8264C44.5984 41.0526 44.7252 41.3587 44.726 41.678Z" fill="#00B8F0"/>
<path d="M39.9 40.47H43.523C43.8434 40.47 44.1506 40.5972 44.3772 40.8238C44.6037 41.0503 44.731 41.3576 44.731 41.678V59.79C44.7313 59.9491 44.7001 60.1067 44.6392 60.2538C44.5784 60.4008 44.4891 60.5344 44.3765 60.6469C44.2639 60.7593 44.1301 60.8484 43.983 60.909C43.8358 60.9696 43.6782 61.0005 43.519 61H39.9C39.5799 61 39.2729 60.8728 39.0465 60.6464C38.8202 60.4201 38.693 60.1131 38.693 59.793V41.678C38.6929 41.5194 38.724 41.3623 38.7846 41.2158C38.8452 41.0692 38.9341 40.936 39.0462 40.8238C39.1583 40.7117 39.2914 40.6227 39.4379 40.5619C39.5844 40.5012 39.7414 40.47 39.9 40.47Z" stroke="#45413C" stroke-miterlimit="10"/>
<path d="M32.651 36.8481H33.858C34.1781 36.8481 34.4851 36.9753 34.7115 37.2017C34.9378 37.428 35.065 37.735 35.065 38.0551V59.7901C35.0654 59.9488 35.0345 60.106 34.9741 60.2527C34.9137 60.3995 34.8249 60.5328 34.7129 60.6452C34.6009 60.7576 34.4678 60.8468 34.3213 60.9077C34.1748 60.9686 34.0177 61 33.859 61.0001H32.651C32.3306 61.0001 32.0234 60.8729 31.7968 60.6463C31.5703 60.4198 31.443 60.1125 31.443 59.7921V38.0551C31.443 37.735 31.5702 37.428 31.7965 37.2017C32.0229 36.9753 32.3309 36.8481 32.651 36.8481Z" fill="white"/>
<path d="M35.066 38.0551V41.6781C35.0652 41.3582 34.9378 41.0515 34.7117 40.8252C34.4855 40.5988 34.179 40.4712 33.859 40.4701H32.651C32.331 40.4712 32.0245 40.5988 31.7983 40.8252C31.5722 41.0515 31.4448 41.3582 31.444 41.6781V38.0551C31.4448 37.7353 31.5722 37.4287 31.7984 37.2025C32.0246 36.9764 32.3311 36.8489 32.651 36.8481H33.859C34.1789 36.8489 34.4854 36.9764 34.7116 37.2025C34.9378 37.4287 35.0652 37.7353 35.066 38.0551Z" fill="#ADC4D9"/>
<path d="M32.651 36.8481H33.858C34.1781 36.8481 34.4851 36.9753 34.7115 37.2017C34.9378 37.428 35.065 37.735 35.065 38.0551V59.7901C35.0654 59.9488 35.0345 60.106 34.9741 60.2527C34.9137 60.3995 34.8249 60.5328 34.7129 60.6452C34.6009 60.7576 34.4678 60.8468 34.3213 60.9077C34.1748 60.9686 34.0177 61 33.859 61.0001H32.651C32.3306 61.0001 32.0234 60.8729 31.7968 60.6463C31.5703 60.4198 31.443 60.1125 31.443 59.7921V38.0551C31.443 37.735 31.5702 37.428 31.7965 37.2017C32.0229 36.9753 32.3309 36.8481 32.651 36.8481Z" stroke="#45413C" stroke-miterlimit="10"/>
<path d="M36.274 36.8481H37.481C37.8014 36.8481 38.1086 36.9754 38.3352 37.202C38.5617 37.4285 38.689 37.7358 38.689 38.0561V59.7901C38.6894 59.949 38.6584 60.1063 38.5979 60.2532C38.5373 60.4 38.4484 60.5335 38.3362 60.6459C38.224 60.7583 38.0907 60.8475 37.9439 60.9083C37.7971 60.9691 37.6398 61.0003 37.481 61.0001H36.274C35.9539 61.0001 35.6469 60.873 35.4205 60.6466C35.1942 60.4203 35.067 60.1133 35.067 59.7931V38.0551C35.067 37.735 35.1942 37.428 35.4205 37.2017C35.6469 36.9753 35.9539 36.8481 36.274 36.8481Z" fill="white"/>
<path d="M38.689 38.0551V41.6781C38.688 41.3581 38.5603 41.0514 38.334 40.8251C38.1077 40.5988 37.8011 40.4712 37.481 40.4701H36.274C35.9539 40.4712 35.6473 40.5988 35.421 40.8251C35.1947 41.0514 35.0671 41.3581 35.066 41.6781V38.0551C35.0671 37.7352 35.1947 37.4286 35.4211 37.2025C35.6474 36.9763 35.954 36.8489 36.274 36.8481H37.481C37.801 36.8489 38.1076 36.9763 38.334 37.2025C38.5603 37.4286 38.688 37.7352 38.689 38.0551Z" fill="#ADC4D9"/>
<path d="M36.274 36.8481H37.481C37.8014 36.8481 38.1086 36.9754 38.3352 37.202C38.5617 37.4285 38.689 37.7358 38.689 38.0561V59.7901C38.6894 59.949 38.6584 60.1063 38.5979 60.2532C38.5373 60.4 38.4484 60.5335 38.3362 60.6459C38.224 60.7583 38.0907 60.8475 37.9439 60.9083C37.7971 60.9691 37.6398 61.0003 37.481 61.0001H36.274C35.9539 61.0001 35.6469 60.873 35.4205 60.6466C35.1942 60.4203 35.067 60.1133 35.067 59.7931V38.0551C35.067 37.735 35.1942 37.428 35.4205 37.2017C35.6469 36.9753 35.9539 36.8481 36.274 36.8481Z" stroke="#45413C" stroke-miterlimit="10"/>
<path d="M45.934 23.5649H41.104V25.9799H45.934V23.5649Z" fill="#FFE500" stroke="#45413C" stroke-miterlimit="10"/>
<path d="M58.008 23.5649H51.971V25.9799H58.008V23.5649Z" fill="#FFE500" stroke="#45413C" stroke-miterlimit="10"/>
<path d="M62.839 23.5649H58.009V25.9799H62.839V23.5649Z" fill="#FFE500" stroke="#45413C" stroke-miterlimit="10"/>
<path d="M22.992 7.86816H18.161C17.4944 7.86816 16.954 8.40856 16.954 9.07516V29.6042C16.954 30.2708 17.4944 30.8112 18.161 30.8112H22.992C23.6586 30.8112 24.199 30.2708 24.199 29.6042V9.07516C24.199 8.40856 23.6586 7.86816 22.992 7.86816Z" fill="#87898C"/>
<path d="M24.2 9.07516V11.4902C24.199 11.1702 24.0713 10.8637 23.845 10.6375C23.6186 10.4113 23.312 10.284 22.992 10.2832H18.162C17.8421 10.284 17.5356 10.4114 17.3094 10.6376C17.0832 10.8637 16.9558 11.1703 16.955 11.4902V9.07516C16.9558 8.75526 17.0832 8.44866 17.3094 8.22256C17.5356 7.99636 17.8421 7.86896 18.162 7.86816H22.992C23.312 7.86896 23.6186 7.99626 23.845 8.22246C24.0713 8.44866 24.199 8.75516 24.2 9.07516Z" fill="#87898C"/>
<path d="M22.992 7.86816H18.161C17.4944 7.86816 16.954 8.40856 16.954 9.07516V29.6042C16.954 30.2708 17.4944 30.8112 18.161 30.8112H22.992C23.6586 30.8112 24.199 30.2708 24.199 29.6042V9.07516C24.199 8.40856 23.6586 7.86816 22.992 7.86816Z" stroke="#45413C" stroke-miterlimit="10"/>
<path d="M20.577 12.6982C19.9104 12.6982 19.369 13.2386 19.369 13.9052V19.9442C19.369 20.6109 19.9094 21.1512 20.576 21.1512C21.2426 21.1512 21.784 20.6109 21.784 19.9442V13.9052C21.784 13.2386 21.2436 12.6982 20.577 12.6982Z" fill="#DAEDF7" stroke="#45413C" stroke-miterlimit="10"/>
<path d="M20.576 25.9802C21.2426 25.9802 21.783 25.4398 21.783 24.7732C21.783 24.1066 21.2426 23.5662 20.576 23.5662C19.9094 23.5662 19.369 24.1066 19.369 24.7732C19.369 25.4398 19.9094 25.9802 20.576 25.9802Z" fill="#DAEDF7" stroke="#45413C" stroke-miterlimit="10"/>
<path d="M30.236 7.86816H25.407C24.7398 7.86816 24.199 8.40896 24.199 9.07616V29.6032C24.199 30.2703 24.7398 30.8112 25.407 30.8112H30.236C30.9032 30.8112 31.444 30.2703 31.444 29.6032V9.07616C31.444 8.40896 30.9032 7.86816 30.236 7.86816Z" fill="#87898C"/>
<path d="M31.444 9.07516V11.4902C31.443 11.1702 31.3153 10.8637 31.089 10.6375C30.8626 10.4113 30.556 10.284 30.236 10.2832H25.406C25.0863 10.2842 24.78 10.4118 24.5541 10.6379C24.3281 10.8641 24.2008 11.1705 24.2 11.4902V9.07516C24.2008 8.75526 24.3282 8.44866 24.5544 8.22256C24.7806 7.99636 25.0871 7.86896 25.407 7.86816H30.237C30.5568 7.86916 30.8632 7.99666 31.0893 8.22286C31.3155 8.44896 31.443 8.75536 31.444 9.07516Z" fill="#87898C"/>
<path d="M30.236 7.86816H25.407C24.7398 7.86816 24.199 8.40896 24.199 9.07616V29.6032C24.199 30.2703 24.7398 30.8112 25.407 30.8112H30.236C30.9032 30.8112 31.444 30.2703 31.444 29.6032V9.07616C31.444 8.40896 30.9032 7.86816 30.236 7.86816Z" stroke="#45413C" stroke-miterlimit="10"/>
<path d="M27.822 12.6982C27.1554 12.6982 26.614 13.2386 26.614 13.9052V19.9442C26.614 20.6109 27.1544 21.1512 27.821 21.1512C28.4876 21.1512 29.029 20.6109 29.029 19.9442V13.9052C29.029 13.2386 28.4886 12.6982 27.822 12.6982Z" fill="#DAEDF7" stroke="#45413C" stroke-miterlimit="10"/>
<path d="M27.821 25.9802C28.4876 25.9802 29.028 25.4398 29.028 24.7732C29.028 24.1066 28.4876 23.5662 27.821 23.5662C27.1544 23.5662 26.614 24.1066 26.614 24.7732C26.614 25.4398 27.1544 25.9802 27.821 25.9802Z" fill="#DAEDF7" stroke="#45413C" stroke-miterlimit="10"/>
<path d="M44.727 53.7529H38.689V56.1679H44.727V53.7529Z" fill="#FFE500" stroke="#45413C" stroke-miterlimit="10"/>
<path d="M50.764 54.96H44.726V57.375H50.764V54.96Z" fill="#FFE500" stroke="#45413C" stroke-miterlimit="10"/>
<path d="M50.764 52.5452H44.726V54.9602H50.764V52.5452Z" fill="#FFE500" stroke="#45413C" stroke-miterlimit="10"/>
<path d="M50.851 42.7159C50.7608 42.4085 50.7963 42.0779 50.9497 41.7967C51.103 41.5155 51.3618 41.3066 51.669 41.2159L55.144 40.1939C55.4514 40.1037 55.782 40.1392 56.0632 40.2926C56.3445 40.446 56.5534 40.7047 56.644 41.0119L57.195 42.8869L50.851 42.7159Z" fill="#C8FFA1"/>
<path d="M55.1125 40.1848L51.6371 41.2067C50.9978 41.3947 50.632 42.0654 50.82 42.7046L55.9278 60.075C56.1158 60.7143 56.7864 61.0801 57.4257 60.8921L60.9011 59.8702C61.5404 59.6822 61.9062 59.0116 61.7183 58.3723L56.6104 41.0019C56.4224 40.3626 55.7518 39.9968 55.1125 40.1848Z" stroke="#45413C" stroke-miterlimit="10"/>
</svg>
