<svg width="90" height="90" viewBox="0 0 90 90" fill="none" xmlns="http://www.w3.org/2000/svg">
<path d="M1.44897 45C1.44897 55.6087 5.66325 65.7828 13.1647 73.2843C20.6662 80.7857 30.8403 85 41.449 85C52.0576 85 62.2318 80.7857 69.7332 73.2843C77.2347 65.7828 81.449 55.6087 81.449 45C81.449 34.3913 77.2347 24.2172 69.7332 16.7157C62.2318 9.21427 52.0576 5 41.449 5C30.8403 5 20.6662 9.21427 13.1647 16.7157C5.66325 24.2172 1.44897 34.3913 1.44897 45Z" fill="#DAEDF7" stroke="#DAEDF7"/>
<path d="M32.9781 38.725L42.1399 11.4666L74.4469 22.3252L65.285 49.5837L32.9781 38.725Z" fill="white" stroke="#45413C" stroke-linecap="round" stroke-linejoin="round"/>
<path d="M38.7206 31.6662L44.1498 15.5132L70.3988 24.3357L64.9696 40.4887L38.7206 31.6662Z" fill="#B8ECFF" stroke="#45413C" stroke-linecap="round" stroke-linejoin="round"/>
<path d="M51.473 23.1429C51.3232 23.0934 51.1655 23.0724 51.008 23.0809C51.0936 22.5822 50.9982 22.0692 50.7388 21.6347C50.4794 21.2002 50.0733 20.8727 49.5936 20.7115C49.114 20.5502 48.5925 20.5657 48.1233 20.7552C47.6541 20.9447 47.2681 21.2957 47.035 21.7449C46.876 21.6108 46.6866 21.5177 46.4833 21.4738C46.28 21.43 46.0691 21.4367 45.869 21.4933C45.6689 21.55 45.4857 21.6549 45.3356 21.7988C45.1855 21.9428 45.073 22.1213 45.008 22.3189C44.8997 22.6395 44.9231 22.9901 45.0731 23.2935C45.2231 23.5968 45.4874 23.8283 45.808 23.9369L50.653 25.5659C50.8121 25.6194 50.9802 25.6411 51.1476 25.6296C51.3151 25.6182 51.4787 25.5739 51.629 25.4992C51.7793 25.4245 51.9135 25.321 52.0238 25.1945C52.1341 25.068 52.2185 24.921 52.272 24.7619C52.3255 24.6028 52.3471 24.4347 52.3357 24.2673C52.3243 24.0998 52.2799 23.9362 52.2053 23.7859C52.1306 23.6355 52.0271 23.5014 51.9006 23.3911C51.7741 23.2807 51.6271 23.1964 51.468 23.1429H51.473Z" fill="white" stroke="#45413C" stroke-linecap="round" stroke-linejoin="round"/>
<path d="M51.473 23.1429C51.3232 23.0934 51.1655 23.0724 51.008 23.0809C51.0936 22.5822 50.9982 22.0692 50.7388 21.6347C50.4794 21.2002 50.0733 20.8727 49.5936 20.7115C49.114 20.5502 48.5925 20.5657 48.1233 20.7552C47.6541 20.9447 47.2681 21.2957 47.035 21.7449C46.876 21.6108 46.6866 21.5177 46.4833 21.4738C46.28 21.43 46.0691 21.4367 45.869 21.4933C45.6689 21.55 45.4857 21.6549 45.3356 21.7988C45.1855 21.9428 45.073 22.1213 45.008 22.3189C44.8997 22.6395 44.9231 22.9901 45.0731 23.2935C45.2231 23.5968 45.4874 23.8283 45.808 23.9369L50.653 25.5659C50.8121 25.6194 50.9802 25.6411 51.1476 25.6296C51.3151 25.6182 51.4787 25.5739 51.629 25.4992C51.7793 25.4245 51.9135 25.321 52.0238 25.1945C52.1341 25.068 52.2185 24.921 52.272 24.7619C52.3255 24.6028 52.3471 24.4347 52.3357 24.2673C52.3243 24.0998 52.2799 23.9362 52.2053 23.7859C52.1306 23.6355 52.0271 23.5014 51.9006 23.3911C51.7741 23.2807 51.6271 23.1964 51.468 23.1429H51.473Z" fill="white" stroke="#45413C" stroke-linecap="round" stroke-linejoin="round"/>
<path d="M57.585 26.095C57.585 26.7589 57.8487 27.3955 58.3181 27.8649C58.7875 28.3343 59.4242 28.598 60.088 28.598C60.7519 28.598 61.3885 28.3343 61.8579 27.8649C62.3273 27.3955 62.591 26.7589 62.591 26.095C62.591 25.4312 62.3273 24.7946 61.8579 24.3252C61.3885 23.8557 60.7519 23.592 60.088 23.592C59.4242 23.592 58.7875 23.8557 58.3181 24.3252C57.8487 24.7946 57.585 25.4312 57.585 26.095Z" fill="#FFE500" stroke="#45413C" stroke-linecap="round" stroke-linejoin="round"/>
<path d="M39.731 32.0061L47.975 29.4911C48.1358 29.4421 48.3059 29.4318 48.4713 29.4612C48.6368 29.4906 48.793 29.5587 48.927 29.6601L53.872 33.3881L60.683 30.7431C60.9376 30.644 61.2205 30.6466 61.4733 30.7503C61.726 30.854 61.9293 31.0508 62.041 31.3001L65.477 38.9721L65.318 39.4461C65.225 39.7225 65.026 39.9508 64.7648 40.0805C64.5036 40.2103 64.2015 40.231 63.925 40.1381L39.763 32.0171" fill="#6DD627"/>
<path d="M39.731 32.0061L47.975 29.4911C48.1358 29.4421 48.3059 29.4318 48.4713 29.4612C48.6368 29.4906 48.793 29.5587 48.927 29.6601L53.872 33.3881L60.683 30.7431C60.9376 30.644 61.2205 30.6466 61.4733 30.7503C61.726 30.854 61.9293 31.0508 62.041 31.3001L65.477 38.9721L65.318 39.4461C65.225 39.7225 65.026 39.9508 64.7648 40.0805C64.5036 40.2103 64.2015 40.231 63.925 40.1381L39.763 32.0171" stroke="#45413C" stroke-linecap="round" stroke-linejoin="round"/>
<path d="M1.86987 21.5337L27.8679 9.52368L44.2448 44.9747L18.2468 56.9847L1.86987 21.5337Z" fill="#DAEDF7" stroke="#45413C" stroke-linecap="round" stroke-linejoin="round"/>
<path d="M7.05298 23.4421L11.78 21.2581" stroke="#45413C" stroke-linecap="round" stroke-linejoin="round"/>
<path d="M8.69098 26.987L19.326 22.074" stroke="#45413C" stroke-linecap="round" stroke-linejoin="round"/>
<path d="M10.329 30.5321L17.419 27.2571" stroke="#45413C" stroke-linecap="round" stroke-linejoin="round"/>
<path d="M11.966 34.0771L20.238 30.2561" stroke="#45413C" stroke-linecap="round" stroke-linejoin="round"/>
<path d="M13.604 37.6221L17.149 35.9851" stroke="#45413C" stroke-linecap="round" stroke-linejoin="round"/>
<path d="M15.242 41.1671L28.241 35.1621" stroke="#45413C" stroke-linecap="round" stroke-linejoin="round"/>
<path d="M16.88 44.7131L25.151 40.8911" stroke="#45413C" stroke-linecap="round" stroke-linejoin="round"/>
<path d="M18.517 48.2579L33.88 41.1609" stroke="#45413C" stroke-linecap="round" stroke-linejoin="round"/>
<path d="M20.155 51.8031L27.245 48.5271" stroke="#45413C" stroke-linecap="round" stroke-linejoin="round"/>
<path d="M14.143 20.166L20.052 17.437" stroke="#45413C" stroke-linecap="round" stroke-linejoin="round"/>
<path d="M19.513 34.8931L25.421 32.1631" stroke="#45413C" stroke-linecap="round" stroke-linejoin="round"/>
<path d="M29.609 47.4361L35.517 44.7061" stroke="#45413C" stroke-linecap="round" stroke-linejoin="round"/>
<path d="M7.56311 14.7522L35.9688 11.1118L40.9328 49.846L12.5271 53.4864L7.56311 14.7522Z" fill="white" stroke="#45413C" stroke-linecap="round" stroke-linejoin="round"/>
<path d="M15.508 25.544L33.584 23.228" stroke="#45413C" stroke-linecap="round" stroke-linejoin="round"/>
<path d="M13.423 29.7489L33.862 27.1289" stroke="#45413C" stroke-linecap="round" stroke-linejoin="round"/>
<path d="M13.945 33.8219L34.384 31.2029" stroke="#45413C" stroke-linecap="round" stroke-linejoin="round"/>
<path d="M14.504 38.1869L34.943 35.5669" stroke="#45413C" stroke-linecap="round" stroke-linejoin="round"/>
<path d="M15.063 42.5509L35.502 39.9309" stroke="#45413C" stroke-linecap="round" stroke-linejoin="round"/>
<path d="M63.513 51.4631C63.4299 51.4005 63.3664 51.3155 63.3297 51.2181C63.2931 51.1207 63.2848 51.015 63.306 50.9131C63.4336 50.3474 63.4964 49.769 63.493 49.1891C63.493 46.8196 62.5517 44.5473 60.8763 42.8718C59.2008 41.1964 56.9284 40.2551 54.559 40.2551C52.9246 40.2573 51.3234 40.7162 49.936 41.5801C49.7205 41.7126 49.4658 41.7668 49.215 41.7334C48.9641 41.7001 48.7325 41.5813 48.559 41.3971C46.8929 39.6246 44.8812 38.2123 42.648 37.2476C40.4149 36.2829 38.0076 35.7862 35.575 35.7881C21.5 35.7881 18.226 48.1241 17.775 52.6661C17.7477 52.9412 17.6178 53.1958 17.4112 53.3795C17.2045 53.5631 16.9364 53.6622 16.66 53.6571H16.59C15.4168 53.6571 14.255 53.8882 13.1711 54.3372C12.0872 54.7861 11.1023 55.4442 10.2727 56.2738C9.44312 57.1034 8.78504 58.0883 8.33607 59.1722C7.88709 60.2561 7.65601 61.4179 7.65601 62.5911C7.65601 63.7643 7.88709 64.9261 8.33607 66.01C8.78504 67.0939 9.44312 68.0788 10.2727 68.9084C11.1023 69.738 12.0872 70.3961 13.1711 70.845C14.255 71.294 15.4168 71.5251 16.59 71.5251H56.79C59.1302 71.5282 61.412 70.7951 63.3123 69.4295C65.2127 68.0639 66.6353 66.135 67.3786 63.916C68.1219 61.697 68.1483 59.3005 67.4539 57.0657C66.7596 54.8309 65.3799 52.8712 63.51 51.4641L63.513 51.4631Z" fill="white"/>
<path d="M8.13898 59.6841C8.73919 61.4493 9.87684 62.9825 11.3924 64.0686C12.908 65.1546 14.7254 65.7391 16.59 65.7401H56.79C59.2498 65.7385 61.6403 64.9244 63.5899 63.4244C65.5395 61.9243 66.939 59.8224 67.571 57.4451C68.0179 59.1003 68.0777 60.8362 67.7457 62.5182C67.4138 64.2003 66.699 65.7833 65.6569 67.1447C64.6147 68.5061 63.273 69.6092 61.7359 70.3687C60.1988 71.1281 58.5075 71.5235 56.793 71.5241H16.59C15.1675 71.523 13.7657 71.1825 12.5012 70.5308C11.2368 69.8792 10.146 68.9353 9.31957 67.7774C8.49315 66.6196 7.95491 65.2813 7.74958 63.8737C7.54425 62.466 7.67774 61.0297 8.13898 59.6841Z" fill="#DAEDF7"/>
<path d="M63.761 51.6561C63.6063 51.5333 63.4875 51.371 63.4171 51.1865C63.3467 51.0019 63.3273 50.8017 63.361 50.6071C63.4564 50.1407 63.4996 49.6651 63.49 49.1891C63.49 46.8196 62.5487 44.5473 60.8733 42.8718C59.1978 41.1964 56.9255 40.2551 54.556 40.2551C52.9216 40.2573 51.3204 40.7162 49.933 41.5801C49.7175 41.7126 49.4628 41.7668 49.212 41.7334C48.9611 41.7001 48.7295 41.5813 48.556 41.3971C46.8899 39.6246 44.8782 38.2123 42.645 37.2476C40.4119 36.2829 38.0046 35.7862 35.572 35.7881C21.497 35.7881 18.223 48.1241 17.772 52.6661C17.7447 52.9412 17.6148 53.1958 17.4082 53.3795C17.2015 53.5631 16.9334 53.6622 16.657 53.6571H16.59C14.2206 53.6571 11.9482 54.5984 10.2727 56.2738C8.59726 57.9493 7.65601 60.2217 7.65601 62.5911C7.65601 64.9605 8.59726 67.2329 10.2727 68.9084C11.9482 70.5838 14.2206 71.5251 16.59 71.5251H56.79C59.1034 71.5286 61.3607 70.8124 63.2489 69.4758C65.1372 68.1391 66.5629 66.2483 67.3285 64.0652C68.0941 61.8821 68.1618 59.515 67.522 57.2917C66.8823 55.0685 65.5669 53.0993 63.758 51.6571L63.761 51.6561Z" stroke="#45413C" stroke-linecap="round" stroke-linejoin="round"/>
<path d="M57.751 63.1581C57.751 67.2424 59.3735 71.1594 62.2615 74.0475C65.1496 76.9356 69.0666 78.5581 73.151 78.5581C77.2353 78.5581 81.1524 76.9356 84.0404 74.0475C86.9285 71.1594 88.551 67.2424 88.551 63.1581C88.551 61.1357 88.1526 59.1331 87.3787 57.2647C86.6048 55.3963 85.4704 53.6986 84.0404 52.2686C82.6104 50.8386 80.9127 49.7042 79.0443 48.9303C77.1759 48.1564 75.1733 47.7581 73.151 47.7581C71.1286 47.7581 69.1261 48.1564 67.2577 48.9303C65.3892 49.7042 63.6916 50.8386 62.2615 52.2686C60.8315 53.6986 59.6972 55.3963 58.9232 57.2647C58.1493 59.1331 57.751 61.1357 57.751 63.1581Z" fill="#FF6242"/>
<path d="M88.214 66.378C87.48 62.9273 85.5835 59.8333 82.8416 57.6133C80.0998 55.3933 76.6789 54.1821 73.151 54.1821C69.6231 54.1821 66.2022 55.3933 63.4603 57.6133C60.7185 59.8333 58.822 62.9273 58.088 66.378C57.6106 64.1339 57.6407 61.8115 58.1761 59.5805C58.7114 57.3496 59.7385 55.2664 61.1822 53.4833C62.6259 51.7002 64.4498 50.2622 66.5206 49.2744C68.5914 48.2866 70.8567 47.7739 73.151 47.7739C75.4453 47.7739 77.7106 48.2866 79.7814 49.2744C81.8521 50.2622 83.676 51.7002 85.1197 53.4833C86.5635 55.2664 87.5905 57.3496 88.1259 59.5805C88.6612 61.8115 88.6913 64.1339 88.214 66.378Z" fill="#FF6242"/>
<path d="M57.751 63.1581C57.751 67.2424 59.3735 71.1594 62.2615 74.0475C65.1496 76.9356 69.0666 78.5581 73.151 78.5581C77.2353 78.5581 81.1524 76.9356 84.0404 74.0475C86.9285 71.1594 88.551 67.2424 88.551 63.1581C88.551 61.1357 88.1526 59.1331 87.3787 57.2647C86.6048 55.3963 85.4704 53.6986 84.0404 52.2686C82.6104 50.8386 80.9127 49.7042 79.0443 48.9303C77.1759 48.1564 75.1733 47.7581 73.151 47.7581C71.1286 47.7581 69.1261 48.1564 67.2577 48.9303C65.3892 49.7042 63.6916 50.8386 62.2615 52.2686C60.8315 53.6986 59.6972 55.3963 58.9232 57.2647C58.1493 59.1331 57.751 61.1357 57.751 63.1581Z" stroke="#45413C" stroke-linecap="round" stroke-linejoin="round"/>
<path d="M73.15 64.0339C72.7422 64.0341 72.3461 63.8983 72.0242 63.648C71.7023 63.3977 71.4732 63.0471 71.373 62.6519L70.361 58.6649C70.101 57.8179 69.8927 56.956 69.737 56.0839C69.7063 55.6172 69.7716 55.1492 69.9289 54.7088C70.0861 54.2684 70.332 53.8648 70.6514 53.5232C70.9707 53.1815 71.3567 52.909 71.7856 52.7224C72.2144 52.5358 72.6769 52.4391 73.1446 52.4382C73.6123 52.4374 74.0751 52.5325 74.5046 52.7176C74.9341 52.9027 75.3211 53.1739 75.6416 53.5144C75.9622 53.855 76.2095 54.2576 76.3683 54.6975C76.5271 55.1373 76.5941 55.6051 76.565 56.0719C76.4153 56.9356 76.2099 57.7887 75.95 58.6259L74.928 62.6519C74.828 63.0474 74.5987 63.3982 74.2766 63.6485C73.9545 63.8989 73.558 64.0345 73.15 64.0339Z" fill="white" stroke="#E04122" stroke-linecap="round" stroke-linejoin="round"/>
<path d="M73.15 74.066C72.473 74.0662 71.8111 73.8656 71.2481 73.4897C70.6851 73.1137 70.2462 72.5792 69.987 71.9538C69.7277 71.3284 69.6597 70.6402 69.7916 69.9762C69.9235 69.3121 70.2493 68.7021 70.7279 68.2233C71.2065 67.7444 71.8163 67.4182 72.4802 67.2859C73.1442 67.1537 73.8325 67.2213 74.458 67.4802C75.0836 67.739 75.6183 68.1776 75.9946 68.7404C76.3709 69.3032 76.5718 69.965 76.572 70.642C76.5712 71.5495 76.2105 72.4196 75.569 73.0615C74.9275 73.7034 74.0575 74.0647 73.15 74.066Z" fill="white" stroke="#E04122" stroke-linecap="round" stroke-linejoin="round"/>
<path d="M30.145 48.83C30.145 49.0593 30.1902 49.2863 30.2779 49.4981C30.3657 49.71 30.4943 49.9025 30.6564 50.0646C30.8185 50.2267 31.011 50.3553 31.2229 50.4431C31.4347 50.5308 31.6617 50.576 31.891 50.576C32.1203 50.576 32.3474 50.5308 32.5592 50.4431C32.771 50.3553 32.9635 50.2267 33.1256 50.0646C33.2878 49.9025 33.4164 49.71 33.5041 49.4981C33.5919 49.2863 33.637 49.0593 33.637 48.83C33.637 48.6007 33.5919 48.3737 33.5041 48.1618C33.4164 47.95 33.2878 47.7575 33.1256 47.5954C32.9635 47.4332 32.771 47.3046 32.5592 47.2169C32.3474 47.1291 32.1203 47.084 31.891 47.084C31.6617 47.084 31.4347 47.1291 31.2229 47.2169C31.011 47.3046 30.8185 47.4332 30.6564 47.5954C30.4943 47.7575 30.3657 47.95 30.2779 48.1618C30.1902 48.3737 30.145 48.6007 30.145 48.83Z" fill="#45413C"/>
<path d="M43.112 48.83C43.112 49.2931 43.296 49.7372 43.6234 50.0646C43.9508 50.392 44.3949 50.576 44.858 50.576C45.3211 50.576 45.7652 50.392 46.0926 50.0646C46.42 49.7372 46.604 49.2931 46.604 48.83C46.604 48.3669 46.42 47.9228 46.0926 47.5954C45.7652 47.2679 45.3211 47.084 44.858 47.084C44.3949 47.084 43.9508 47.2679 43.6234 47.5954C43.296 47.9228 43.112 48.3669 43.112 48.83Z" fill="#45413C"/>
<path d="M38.317 57.3909C36.1723 57.3452 34.0834 58.0767 32.4359 59.4506C30.7883 60.8245 29.6933 62.7479 29.353 64.8659C29.3366 64.9934 29.3516 65.123 29.3965 65.2434C29.4415 65.3638 29.5151 65.4714 29.611 65.5569C29.7101 65.646 29.828 65.7116 29.9559 65.749C30.0838 65.7864 30.2185 65.7946 30.35 65.7729C35.6281 64.9279 41.0069 64.9279 46.285 65.7729C46.4165 65.7944 46.5511 65.7862 46.679 65.7488C46.8069 65.7114 46.9248 65.6459 47.024 65.5569C47.1197 65.4712 47.1932 65.3636 47.2381 65.2432C47.283 65.1229 47.2981 64.9934 47.282 64.8659C46.9414 62.7478 45.8462 60.8244 44.1985 59.4505C42.5508 58.0767 40.4618 57.3452 38.317 57.3909Z" fill="#FFB0CA" stroke="#45413C" stroke-linecap="round" stroke-linejoin="round"/>
<path d="M38.317 57.3909C36.1723 57.3452 34.0834 58.0767 32.4359 59.4506C30.7883 60.8245 29.6933 62.7479 29.353 64.8659C29.3366 64.9934 29.3516 65.123 29.3965 65.2434C29.4415 65.3638 29.5151 65.4714 29.611 65.5569C29.7101 65.646 29.828 65.7116 29.9559 65.749C30.0838 65.7864 30.2185 65.7946 30.35 65.7729C35.6281 64.9279 41.0069 64.9279 46.285 65.7729C46.4165 65.7944 46.5511 65.7862 46.679 65.7488C46.8069 65.7114 46.9248 65.6459 47.024 65.5569C47.1197 65.4712 47.1932 65.3636 47.2381 65.2432C47.283 65.1229 47.2981 64.9934 47.282 64.8659C46.9414 62.7478 45.8462 60.8244 44.1985 59.4505C42.5508 58.0767 40.4618 57.3452 38.317 57.3909Z" fill="#FFB0CA" stroke="#45413C" stroke-linecap="round" stroke-linejoin="round"/>
<path d="M32.731 65.45C33.2963 64.4511 34.1047 63.6111 35.0812 63.008C36.0577 62.4049 37.1707 62.0581 38.317 62C39.4629 62.0587 40.5754 62.4057 41.5514 63.009C42.5274 63.6123 43.3352 64.4522 43.9 65.451C40.1886 65.0355 36.4425 65.0351 32.731 65.45Z" fill="#FF87AF" stroke="#45413C" stroke-linecap="round" stroke-linejoin="round"/>
</svg>
