<svg xmlns="http://www.w3.org/2000/svg" xmlns:xlink="http://www.w3.org/1999/xlink" width="600.409" height="530.695" viewBox="0 0 562.883 497.526" style="enable-background:new"><g style="display:inline"><path style="fill:#525f98;fill-opacity:1;fill-rule:evenodd;stroke:none;stroke-width:1px;stroke-linecap:butt;stroke-linejoin:miter;stroke-opacity:1" d="M260.244 535.877c-20.685 5.134-3.94 36.638-23.782 45.533-18.224 8.17-29.877 27.298-48.215 37.53-24.314 13.57-47.254 17.932-70.944 35.72-11.54 8.665-48.037 3.47-49.132 17.97 56.227-8.731 86.27 15.95 120.883 20.57 30.546 4.076 53.64 2.397 79.484-7.505 89.72-34.375 52.161-111.747 51.812-135.284-17.696-3.29-42.987-18.783-60.106-14.534z" transform="translate(-43.133 -266.48)"/></g><g style="display:inline;opacity:1"><g style="display:inline;opacity:1"><path style="color:#000;clip-rule:nonzero;display:inline;overflow:visible;opacity:1;isolation:auto;mix-blend-mode:normal;color-interpolation:sRGB;color-interpolation-filters:linearRGB;solid-color:#000;solid-opacity:1;fill:#e1d6b9;fill-opacity:1;fill-rule:nonzero;stroke:none;stroke-width:10;stroke-linecap:butt;stroke-linejoin:miter;stroke-miterlimit:4;stroke-dasharray:none;stroke-dashoffset:0;stroke-opacity:1;color-rendering:auto;image-rendering:auto;shape-rendering:auto;text-rendering:auto;enable-background:accumulate" d="M419.84 584.573c-1.11 4.235-3.115 7.142-5.85 9.023-2.733 1.88-6.191 2.76-10.137 3.24-3.945.478-8.373.597-13.053.66-4.68.064-9.607.027-14.585-.15-4.979-.175-9.678-.662-13.95-1.444-4.27-.782-8.122-1.835-11.288-3.158-3.165-1.323-5.635-2.923-7.074-4.89-1.439-1.968-1.838-4.3-.941-7.08.896-2.779 2.647-4.652 5.058-5.712 2.412-1.06 5.478-1.298 8.97-1.047 3.493.251 7.402.982 11.607 1.607 4.205.625 8.715 1.101 13.557.957 4.842-.143 9.822-1.206 14.6-2.186 4.777-.98 9.356-1.805 13.205-1.762 3.849.043 6.938.923 8.725 2.848 1.787 1.925.05 13.33 1.156 9.094z" transform="matrix(-.34824 -.28094 -.33019 .52325 813.203 143.144)"/><path style="color:#000;clip-rule:nonzero;display:inline;overflow:visible;opacity:1;isolation:auto;mix-blend-mode:normal;color-interpolation:sRGB;color-interpolation-filters:linearRGB;solid-color:#000;solid-opacity:1;fill:#394655;fill-opacity:1;fill-rule:nonzero;stroke:none;stroke-width:10;stroke-linecap:butt;stroke-linejoin:miter;stroke-miterlimit:4;stroke-dasharray:none;stroke-dashoffset:0;stroke-opacity:1;color-rendering:auto;image-rendering:auto;shape-rendering:auto;text-rendering:auto;enable-background:accumulate" d="M411.667 570.505c-3.645-.32-7.912.035-12.443.673-5.179.73-10.69 1.783-16.256 1.964-5.566.18-10.757-.278-15.64-.874-4.885-.596-9.469-1.263-13.594-1.35-4.126-.089-7.779.412-10.667 1.77-2.888 1.357-5.006 3.55-6.114 6.605-1.107 3.054-.683 5.795.966 8.195 1.65 2.4 4.516 4.463 8.197 6.211 3.681 1.749 8.163 3.194 13.122 4.283 4.958 1.09 10.401 1.796 16.157 2.057 5.756.262 11.242.3 16.338.22 5.097-.08 9.799-.251 13.94-.875a34.26 34.26 0 0 0 4.471-.962c2.833-.826 3.606-5.67 1.067-4.353-2.352 1.219-5.13 1.888-8.234 2.279-3.784.476-8.035.605-12.53.676-4.496.071-9.23.04-14.014-.121-4.784-.162-9.297-.62-13.4-1.363-4.101-.743-7.798-1.746-10.836-3.01-3.037-1.264-5.405-2.797-6.784-4.68-1.378-1.883-1.759-4.116-.894-6.78.865-2.665 2.549-4.465 4.863-5.49 2.315-1.023 5.253-1.264 8.6-1.039 3.349.226 7.097.91 11.134 1.495 4.037.586 8.371 1.037 13.029.899 4.657-.138 9.454-1.15 14.045-2.094 4.592-.944 8.982-1.753 12.668-1.736.46.002.911.016 1.348.044 1.122.07 2.17.205 3.1.477 1.074.314 2.955-2.604-.117-2.943-.499-.055-1.55.198-1.522-.178z" transform="matrix(-.34824 -.28094 -.33019 .52325 813.203 143.144)"/></g><g style="display:inline;opacity:1"><path style="color:#000;clip-rule:nonzero;display:inline;overflow:visible;opacity:1;isolation:auto;mix-blend-mode:normal;color-interpolation:sRGB;color-interpolation-filters:linearRGB;solid-color:#000;solid-opacity:1;fill:#394655;fill-opacity:1;fill-rule:nonzero;stroke:none;stroke-width:10;stroke-linecap:butt;stroke-linejoin:miter;stroke-miterlimit:4;stroke-dasharray:none;stroke-dashoffset:0;stroke-opacity:1;color-rendering:auto;image-rendering:auto;shape-rendering:auto;text-rendering:auto;enable-background:accumulate" d="M767.3 387.327c11.123 7.965 31.777 11.3 44.73 15.545 12.954 4.245 18.15 9.36 22.13 13.373 3.98 4.013 5.944 7.144 4.718 9.527-1.226 2.382-5.543 3.994-14 4.811-8.459.818-15.91.121-23.024-1.725-7.114-1.847-13.807-4.867-21.706-8.603-7.899-3.737-17.327-8.05-25.811-14.185-8.484-6.133-17.623-13.9-23.143-24.133-5.519-10.234-5.782-21.344-5.371-30.883.41-9.538 1.51-17.554 2.716-23.75 1.204-6.195 2.715-10.673 4.77-13.669 2.057-2.995 4.652-4.526 7.72-4.526 3.067 0 5.703 1.83 7.625 5.499 1.922 3.668 3.048 9.244 3.287 16.76.238 7.516-.672 17.08.34 27.198 1.011 10.118 3.895 20.795 15.018 28.76z" transform="matrix(-.20409 .3611 .80609 .48598 242.96 -40.237)"/><path style="color:#000;clip-rule:nonzero;display:inline;overflow:visible;opacity:1;isolation:auto;mix-blend-mode:normal;color-interpolation:sRGB;color-interpolation-filters:linearRGB;solid-color:#000;solid-opacity:1;fill:#e1d6b9;fill-opacity:1;fill-rule:nonzero;stroke:none;stroke-width:10;stroke-linecap:butt;stroke-linejoin:miter;stroke-miterlimit:4;stroke-dasharray:none;stroke-dashoffset:0;stroke-opacity:1;color-rendering:auto;image-rendering:auto;shape-rendering:auto;text-rendering:auto;enable-background:accumulate" d="M760.817 387.615c8.354 7.229 23.405 11.344 36.929 14.854 13.524 3.51 21.763 7.51 26.414 11.295 4.65 3.785 7.043 6.961 6.893 9.28-.151 2.32-3.073 3.852-9.995 4.538-6.922.685-13.124-.18-19.188-2.159-6.064-1.978-12.013-5.066-19.623-8.647-7.61-3.582-16.945-7.618-24.99-13.216-8.045-5.597-15.823-12.654-20.902-21.246-5.08-8.591-6.013-17.8-5.992-25.918.022-8.118.935-15.149 1.866-20.67.932-5.52 2.018-9.597 3.383-12.305 1.366-2.707 3.035-4.069 5.02-4.013 1.985.055 3.577 1.847 4.614 5.275 1.038 3.428 1.448 8.544 1.474 15.152.026 6.609-.436 14.761.913 23.275 1.35 8.514 4.83 17.275 13.184 24.505z" transform="matrix(-.20409 .3611 .80609 .48598 242.96 -40.237)"/></g><g style="display:inline;opacity:1"><path d="M767.3 387.327c11.123 7.965 31.777 11.3 44.73 15.545 12.954 4.245 18.15 9.36 22.13 13.373 3.98 4.013 5.944 7.144 4.718 9.527-1.226 2.382-5.543 3.994-14 4.811-8.459.818-15.91.121-23.024-1.725-7.114-1.847-13.807-4.867-21.706-8.603-7.899-3.737-17.327-8.05-25.811-14.185-8.484-6.133-17.623-13.9-23.143-24.133-5.519-10.234-5.782-21.344-5.371-30.883.41-9.538 1.51-17.554 2.716-23.75 1.204-6.195 2.715-10.673 4.77-13.669 2.057-2.995 4.652-4.526 7.72-4.526 3.067 0 5.703 1.83 7.625 5.499 1.922 3.668 3.048 9.244 3.287 16.76.238 7.516-.672 17.08.34 27.198 1.011 10.118 3.895 20.795 15.018 28.76z" style="color:#000;clip-rule:nonzero;display:inline;overflow:visible;opacity:1;isolation:auto;mix-blend-mode:normal;color-interpolation:sRGB;color-interpolation-filters:linearRGB;solid-color:#000;solid-opacity:1;fill:#394655;fill-opacity:1;fill-rule:nonzero;stroke:none;stroke-width:10;stroke-linecap:butt;stroke-linejoin:miter;stroke-miterlimit:4;stroke-dasharray:none;stroke-dashoffset:0;stroke-opacity:1;color-rendering:auto;image-rendering:auto;shape-rendering:auto;text-rendering:auto;enable-background:accumulate" transform="matrix(-.13664 -.29657 -.88137 .09664 684.427 524.04)"/><path d="M760.817 387.615c8.354 7.229 23.405 11.344 36.929 14.854 13.524 3.51 21.763 7.51 26.414 11.295 4.65 3.785 7.043 6.961 6.893 9.28-.151 2.32-3.073 3.852-9.995 4.538-6.922.685-13.124-.18-19.188-2.159-6.064-1.978-12.013-5.066-19.623-8.647-7.61-3.582-16.945-7.618-24.99-13.216-8.045-5.597-15.823-12.654-20.902-21.246-5.08-8.591-6.013-17.8-5.992-25.918.022-8.118.935-15.149 1.866-20.67.932-5.52 2.018-9.597 3.383-12.305 1.366-2.707 3.035-4.069 5.02-4.013 1.985.055 3.577 1.847 4.614 5.275 1.038 3.428 1.448 8.544 1.474 15.152.026 6.609-.436 14.761.913 23.275 1.35 8.514 4.83 17.275 13.184 24.505z" style="color:#000;clip-rule:nonzero;display:inline;overflow:visible;opacity:1;isolation:auto;mix-blend-mode:normal;color-interpolation:sRGB;color-interpolation-filters:linearRGB;solid-color:#000;solid-opacity:1;fill:#e1d6b9;fill-opacity:1;fill-rule:nonzero;stroke:none;stroke-width:10;stroke-linecap:butt;stroke-linejoin:miter;stroke-miterlimit:4;stroke-dasharray:none;stroke-dashoffset:0;stroke-opacity:1;color-rendering:auto;image-rendering:auto;shape-rendering:auto;text-rendering:auto;enable-background:accumulate" transform="matrix(-.13664 -.29657 -.88137 .09664 684.427 524.04)"/></g><g style="opacity:1"><path d="M-626.547 402.353c2.228 10.863.345 21.826-3.867 31.425-4.213 9.6-10.552 17.861-17.721 24.3-7.17 6.439-15.255 11.106-24.572 13.614-9.317 2.507-20.95 4.469-31.639 1.984-10.69-2.486-18.069-9.229-24.094-15.893-6.025-6.665-12.359-14.476-22.965-22.068-10.606-7.593-20.865-15.599-25.161-23.378-4.297-7.78-7.008-15.67-7.816-23.39-.807-7.722.36-14.56 3.123-20.545 2.764-5.986 7.126-11.121 12.786-15.41 5.66-4.288 12.617-7.736 20.642-10.242 8.024-2.507 17.112-4.076 27.14-4.415 10.026-.34 20.065.594 29.76 2.875 9.696 2.281 19.056 5.92 27.478 11.023s15.893 11.692 21.605 19.629c5.711 7.936 13.074 19.628 15.301 30.49z" style="color:#000;clip-rule:nonzero;display:inline;overflow:visible;opacity:1;isolation:auto;mix-blend-mode:normal;color-interpolation:sRGB;color-interpolation-filters:linearRGB;solid-color:#000;solid-opacity:1;fill:#96d6ff;fill-opacity:1;fill-rule:nonzero;stroke:none;stroke-width:10;stroke-linecap:butt;stroke-linejoin:miter;stroke-miterlimit:4;stroke-dasharray:none;stroke-dashoffset:0;stroke-opacity:1;color-rendering:auto;image-rendering:auto;shape-rendering:auto;text-rendering:auto;enable-background:accumulate" transform="matrix(-.3288 .17362 .20143 .28339 100 53.115)"/><path d="M-784.214 457.34a7.986 7.986 0 0 0-1.556.335 5.558 5.558 0 0 0-1.635.827c-.451.342-.802.747-1.028 1.22a3.081 3.081 0 0 0-.274 1.62c.052.609.252 1.233.58 1.849.326.616.989 1.252 1.835 1.841.845.59 1.356 1.206 1.825 1.729.467.521 1.135.854 2.024.927.103.008.124-.305.035-.329-.781-.203-1.259-.72-1.719-1.11-.425-.467-.872-1.015-1.621-1.547s-1.473-1.093-1.777-1.639c-.304-.546-.497-1.1-.555-1.642a2.697 2.697 0 0 1 .22-1.443c.194-.421.502-.784.901-1.087.4-.302.89-.545 1.458-.723a6.76 6.76 0 0 1 .907-.215 7.992 7.992 0 0 1 3.112.097c.684.16 1.345.415 1.939.773.593.359 1.119.82 1.52 1.377.403.557.922 1.375 1.08 2.137.13.625.073 1.258-.133 1.834-.038.107.498.294.628-.012.243-.57.234-1.24.103-1.874-.179-.856-.69-1.769-1.137-2.4a5.663 5.663 0 0 0-1.689-1.553 7.14 7.14 0 0 0-2.143-.85 8.595 8.595 0 0 0-2.9-.143z" style="color:#000;clip-rule:nonzero;display:inline;overflow:visible;opacity:1;isolation:auto;mix-blend-mode:normal;color-interpolation:sRGB;color-interpolation-filters:linearRGB;solid-color:#000;solid-opacity:1;fill:#394655;fill-opacity:1;fill-rule:nonzero;stroke:none;stroke-width:10;stroke-linecap:butt;stroke-linejoin:miter;stroke-miterlimit:4;stroke-dasharray:none;stroke-dashoffset:0;stroke-opacity:1;color-rendering:auto;image-rendering:auto;shape-rendering:auto;text-rendering:auto;enable-background:accumulate" transform="matrix(-4.55414 2.40477 2.79007 3.92523 -4440.648 111.619)"/><path style="color:#000;clip-rule:nonzero;display:inline;overflow:visible;opacity:1;isolation:auto;mix-blend-mode:normal;color-interpolation:sRGB;color-interpolation-filters:linearRGB;solid-color:#000;solid-opacity:1;fill:#394655;fill-opacity:1;fill-rule:nonzero;stroke:none;stroke-width:10;stroke-linecap:butt;stroke-linejoin:miter;stroke-miterlimit:4;stroke-dasharray:none;stroke-dashoffset:0;stroke-opacity:1;color-rendering:auto;image-rendering:auto;shape-rendering:auto;text-rendering:auto;enable-background:accumulate" d="M-753.772 413.022c-.136-2.619 2.18-4.948 7.22-6.2 7.654-1.903 20.038 1.845 27.938 5.67 4.333 2.1 8.89 3.892 12.666 7.195 1.282 1.121 2.518 2.283 3.368 4.409-1.658.577-4.104-.922-5.872-2.13-6.968-4.766-14.695-8.09-22.677-9.127-6.716-.872-8.87-3.11-14.756-2.562-3.726.347-4.906 2.139-7.887 2.745z" transform="matrix(-.3288 .17362 .20143 .28339 100 53.115)"/><path style="color:#000;clip-rule:nonzero;display:inline;overflow:visible;opacity:1;isolation:auto;mix-blend-mode:normal;color-interpolation:sRGB;color-interpolation-filters:linearRGB;solid-color:#000;solid-opacity:1;fill:#394655;fill-opacity:1;fill-rule:nonzero;stroke:none;stroke-width:10;stroke-linecap:butt;stroke-linejoin:miter;stroke-miterlimit:4;stroke-dasharray:none;stroke-dashoffset:0;stroke-opacity:1;color-rendering:auto;image-rendering:auto;shape-rendering:auto;text-rendering:auto;enable-background:accumulate" d="M-720.17 411.684c.285-2.325.87 3.903-.319 5.46-4.46 5.84-8.203 12.32-12.42 18.365-1.374 1.968-3.295.041-2.428-2.1.881-2.173 2.06-3.998 3.35-5.814 1.207-1.702 2.813-3.058 3.888-4.86 2.066-3.463 2.395-6.629 4.254-10.24.637-1.237 3.522.426 3.674-.808z" transform="matrix(-.3288 .17362 .20143 .28339 100 53.115)"/></g><g style="display:inline;opacity:1"><path style="color:#000;clip-rule:nonzero;display:inline;overflow:visible;opacity:1;isolation:auto;mix-blend-mode:normal;color-interpolation:sRGB;color-interpolation-filters:linearRGB;solid-color:#000;solid-opacity:1;fill:#394655;fill-opacity:1;fill-rule:nonzero;stroke:none;stroke-width:2;stroke-linecap:butt;stroke-linejoin:miter;stroke-miterlimit:4;stroke-dasharray:none;stroke-dashoffset:0;stroke-opacity:1;color-rendering:auto;image-rendering:auto;shape-rendering:auto;text-rendering:auto;enable-background:accumulate" d="M-140.717 398.664c-9.314 71.697-25.761 141.32-83.877 188.864-73.317 59.98-208.092 67.906-303.428 10.996-27.57-16.458-49.524-62.176-53.041-91.74-7.352-61.799 19.827-103.65 13.479-160.679-5.053-45.392-29.638-82.955-27.308-137.001 1.563-36.267 11.065-78.465 40.507-100.884 38.57-29.37 83.605-46.189 134.68-45.031 72.738 1.649 151.18 6.327 212.188 49.94 43.544 31.127 68.503 82.536 72.904 135.3 4.52 54.197-.16 104.485-6.104 150.235z" transform="matrix(.69027 0 0 .73815 599.056 -6.828)"/><path style="color:#000;clip-rule:nonzero;display:inline;overflow:visible;opacity:1;isolation:auto;mix-blend-mode:normal;color-interpolation:sRGB;color-interpolation-filters:linearRGB;solid-color:#000;solid-opacity:1;fill:#96d6ff;fill-opacity:1;fill-rule:nonzero;stroke:none;stroke-width:2;stroke-linecap:butt;stroke-linejoin:miter;stroke-miterlimit:4;stroke-dasharray:none;stroke-dashoffset:0;stroke-opacity:1;color-rendering:auto;image-rendering:auto;shape-rendering:auto;text-rendering:auto;enable-background:accumulate" d="M-158.937 464.93c-15.561 65.936-58.423 127.392-134.422 151.72-70.615 22.605-163.492 17.3-232.185-25.547-26.146-16.309-46.091-61.462-48.959-89.476-6.035-58.964 19.048-102.174 13.303-156.595-4.795-45.426-28.021-78.346-27.296-132.223.474-35.21 8.99-76.957 37.821-98.8 36.525-27.67 78.353-45.238 126.457-45.012 76.22.358 162.162 5.533 222.843 56.659 55.48 46.742 63.384 129.048 60.81 193.305-2.122 52.998-7.672 100.63-18.372 145.969z" transform="matrix(.69027 0 0 .73815 599.056 -6.828)"/></g><g style="opacity:1"><path style="color:#000;clip-rule:nonzero;display:inline;overflow:visible;opacity:1;isolation:auto;mix-blend-mode:normal;color-interpolation:sRGB;color-interpolation-filters:linearRGB;solid-color:#000;solid-opacity:1;fill:#96d6ff;fill-opacity:1;fill-rule:nonzero;stroke:none;stroke-width:10;stroke-linecap:butt;stroke-linejoin:miter;stroke-miterlimit:4;stroke-dasharray:none;stroke-dashoffset:0;stroke-opacity:1;color-rendering:auto;image-rendering:auto;shape-rendering:auto;text-rendering:auto;enable-background:accumulate" d="M-626.573 401.696c2.247 11.35.367 22.39-3.843 32.038-4.21 9.649-10.55 17.905-17.72 24.344-7.169 6.439-15.254 11.11-24.57 13.61-9.318 2.501-20.95 4.473-31.646 1.829-10.696-2.644-18.092-9.812-24.148-17.25-6.056-7.44-12.443-16.568-23.097-25.36-10.654-8.793-20.952-17.788-25.3-26.873-4.35-9.086-7.116-18.361-7.98-27.522-.865-9.16.246-17.364 2.961-24.584 2.715-7.22 7.032-13.455 12.66-18.537 5.629-5.082 12.567-9.01 20.593-11.49 8.026-2.478 17.135-3.505 27.21-2.666 10.073.838 20.18 3.472 29.951 7.653 9.772 4.18 19.215 9.908 27.712 16.897 8.497 6.989 16.035 15.24 21.796 24.415 5.76 9.176 13.174 22.145 15.421 33.496z" transform="rotate(-18.86 -339.36 -1379.493) scale(.42416)"/><path style="color:#000;clip-rule:nonzero;display:inline;overflow:visible;opacity:1;isolation:auto;mix-blend-mode:normal;color-interpolation:sRGB;color-interpolation-filters:linearRGB;solid-color:#000;solid-opacity:1;fill:#394655;fill-opacity:1;fill-rule:nonzero;stroke:none;stroke-width:10;stroke-linecap:butt;stroke-linejoin:miter;stroke-miterlimit:4;stroke-dasharray:none;stroke-dashoffset:0;stroke-opacity:1;color-rendering:auto;image-rendering:auto;shape-rendering:auto;text-rendering:auto;enable-background:accumulate" d="M-784.271 455.904a5.458 5.458 0 0 0-1.56.262 4.469 4.469 0 0 0-1.63.935 3.888 3.888 0 0 0-1.018 1.475 4.353 4.353 0 0 0-.261 1.937 6.3 6.3 0 0 0 .592 2.157c.33.71.996 1.419 1.845 2.083.848.664 1.363 1.37 1.833 1.94.47.567 1.137.91 2.027.989.103.009.123-.313.034-.34-.781-.217-1.26-.775-1.723-1.214-.428-.524-.878-1.166-1.63-1.785-.753-.619-1.48-1.252-1.787-1.892a5.764 5.764 0 0 1-.567-1.938 3.825 3.825 0 0 1 .208-1.73c.191-.508.495-.949.893-1.307a3.85 3.85 0 0 1 1.454-.81c.284-.087.588-.15.908-.182.321-.033.66-.037 1.016-.008a6.826 6.826 0 0 1 2.114.538 8.11 8.11 0 0 1 1.955 1.19 7.227 7.227 0 0 1 1.535 1.719c.406.646.928 1.559 1.088 2.358a3.53 3.53 0 0 1-.131 1.88c-.039.108.498.304.628-.002.243-.57.234-1.244.102-1.897-.18-.883-.695-1.871-1.144-2.587a7.898 7.898 0 0 0-1.703-1.899 8.777 8.777 0 0 0-2.16-1.296 7.372 7.372 0 0 0-2.34-.564 6.357 6.357 0 0 0-.578-.012z" transform="rotate(-18.859 -10152.422 -13046.65) scale(5.87505)"/><path style="color:#000;clip-rule:nonzero;display:inline;overflow:visible;opacity:1;isolation:auto;mix-blend-mode:normal;color-interpolation:sRGB;color-interpolation-filters:linearRGB;solid-color:#000;solid-opacity:1;fill:#394655;fill-opacity:1;fill-rule:nonzero;stroke:none;stroke-width:10;stroke-linecap:butt;stroke-linejoin:miter;stroke-miterlimit:4;stroke-dasharray:none;stroke-dashoffset:0;stroke-opacity:1;color-rendering:auto;image-rendering:auto;shape-rendering:auto;text-rendering:auto;enable-background:accumulate" d="M-730.273 382.913c1.807-2.764 6.313-3.63 13.246-1.617 10.53 3.057 22.434 14.977 28.948 24.047 3.574 4.975 7.643 9.782 9.648 15.624.68 1.983 1.276 3.978.69 6.704-2.407-.494-4.188-3.623-5.38-6.013-4.7-9.42-11.386-17.865-20.096-24.139-7.328-5.278-8.205-8.972-15.615-12.257-4.69-2.08-7.441-1.02-11.44-2.35z" transform="rotate(-18.86 -339.36 -1379.493) scale(.42416)"/><path style="color:#000;clip-rule:nonzero;display:inline;overflow:visible;opacity:1;isolation:auto;mix-blend-mode:normal;color-interpolation:sRGB;color-interpolation-filters:linearRGB;solid-color:#000;solid-opacity:1;fill:#394655;fill-opacity:1;fill-rule:nonzero;stroke:none;stroke-width:10;stroke-linecap:butt;stroke-linejoin:miter;stroke-miterlimit:4;stroke-dasharray:none;stroke-dashoffset:0;stroke-opacity:1;color-rendering:auto;image-rendering:auto;shape-rendering:auto;text-rendering:auto;enable-background:accumulate" d="M-689.32 403.5c2.089-2.189-1.901 4.556-4.484 5.369-9.695 3.051-19.018 7.226-28.579 10.645-3.113 1.112-3.947-2.11-1.307-3.73 2.683-1.645 5.457-2.739 8.355-3.752 2.716-.95 5.644-1.286 8.277-2.424 5.061-2.187 7.834-5.206 12.759-7.68 1.689-.848 3.868 2.736 4.976 1.574z" transform="rotate(-18.86 -339.36 -1379.493) scale(.42416)"/></g><g style="display:inline;opacity:1"><path d="M423.503 581.835c-.004 4.4-1.198 7.589-3.375 9.829s-5.331 3.551-9.146 4.443c-3.815.89-8.283 1.395-13.057 1.838-4.774.443-9.851.79-14.95 1.1-5.098.308-9.945.347-14.402.085-4.457-.26-8.524-.799-11.993-1.712-3.469-.912-6.337-2.213-8.356-4.092-2.019-1.88-3.187-4.345-3.255-7.511-.067-3.166.999-5.486 2.926-7.084 1.927-1.598 4.712-2.464 8.1-2.847 3.387-.383 7.372-.283 11.77-.16 4.398.122 9.21.234 14.332-.122 5.12-.357 10.271-1.474 15.16-2.541 4.888-1.068 9.504-2.052 13.438-2.272 3.934-.22 7.178.324 9.398 2.046 2.221 1.723 3.415 4.6 3.41 9z" style="color:#000;clip-rule:nonzero;display:inline;overflow:visible;opacity:1;isolation:auto;mix-blend-mode:normal;color-interpolation:sRGB;color-interpolation-filters:linearRGB;solid-color:#000;solid-opacity:1;fill:#e1d6b9;fill-opacity:1;fill-rule:nonzero;stroke:none;stroke-width:10;stroke-linecap:butt;stroke-linejoin:miter;stroke-miterlimit:4;stroke-dasharray:none;stroke-dashoffset:0;stroke-opacity:1;color-rendering:auto;image-rendering:auto;shape-rendering:auto;text-rendering:auto;enable-background:accumulate" transform="matrix(.13059 -.42795 -.6087 -.11093 589.022 689.74)"/><path d="M411.914 568.549c-3.75-.027-8.087.54-12.762 1.287-5.342.854-11.107 1.92-17.01 2.326-5.902.406-11.41.383-16.447.414-5.036.031-9.604.16-13.508.86-3.903.698-7.135 1.967-9.408 3.968-2.273 2.002-3.585 4.717-3.652 8.176-.067 3.46 1.218 6.307 3.543 8.58 2.325 2.273 5.688 3.98 9.762 5.25 4.073 1.27 8.852 2.12 14.056 2.598 5.205.479 10.834.561 16.703.222 5.87-.338 11.472-.786 16.606-1.35 5.134-.562 9.793-1.223 13.707-2.343a27.622 27.622 0 0 0 4.127-1.52c2.545-1.193 2.05-6.172-.1-4.54-1.991 1.511-4.143 1.681-7.157 2.35-3.673.815-8.181.991-12.55 1.343-4.369.352-8.78 1.784-13.313 2.077-4.535.293-8.868.328-12.932.07-4.064-.257-7.857-.78-11.125-1.642-3.268-.863-5.997-2.08-7.885-3.814-1.887-1.734-2.925-3.988-2.978-6.801-.054-2.814.901-4.82 2.669-6.106 1.767-1.286 5.617-.585 8.691-.714 3.075-.13 6.907-.545 10.788-.417 3.882.127 6.546-.481 11.049-1.214 4.502-.733 9.152-2.344 13.887-3.721 4.735-1.378 9.225-2.343 13.009-2.554.473-.026.937-.042 1.388-.045 1.16-.007 2.25.044 3.25.236 1.153.222 2.316-2.861-.838-2.927-.511-.011-1.034-.045-1.57-.05z" style="color:#000;clip-rule:nonzero;display:inline;overflow:visible;opacity:1;isolation:auto;mix-blend-mode:normal;color-interpolation:sRGB;color-interpolation-filters:linearRGB;solid-color:#000;solid-opacity:1;fill:#394655;fill-opacity:1;fill-rule:nonzero;stroke:none;stroke-width:10;stroke-linecap:butt;stroke-linejoin:miter;stroke-miterlimit:4;stroke-dasharray:none;stroke-dashoffset:0;stroke-opacity:1;color-rendering:auto;image-rendering:auto;shape-rendering:auto;text-rendering:auto;enable-background:accumulate" transform="matrix(.13059 -.42795 -.6087 -.11093 589.022 689.74)"/></g></g><g style="display:inline;opacity:.06000001" transform="translate(-43.133 -266.48)"><ellipse style="color:#000;clip-rule:nonzero;display:inline;overflow:visible;opacity:1;isolation:auto;mix-blend-mode:normal;color-interpolation:sRGB;color-interpolation-filters:linearRGB;solid-color:#000;solid-opacity:1;fill:#000;fill-opacity:1;fill-rule:nonzero;stroke:none;stroke-width:2;stroke-linecap:round;stroke-linejoin:miter;stroke-miterlimit:4;stroke-dasharray:none;stroke-dashoffset:0;stroke-opacity:1;color-rendering:auto;image-rendering:auto;shape-rendering:auto;text-rendering:auto;enable-background:accumulate" cx="-467.525" cy="482.665" rx="22.451" ry="20.683" transform="scale(-1 1)"/><path style="color:#000;clip-rule:nonzero;display:inline;overflow:visible;opacity:1;isolation:auto;mix-blend-mode:normal;color-interpolation:sRGB;color-interpolation-filters:linearRGB;solid-color:#000;solid-opacity:1;fill:#000;fill-opacity:1;fill-rule:nonzero;stroke:none;stroke-width:4;stroke-linecap:round;stroke-linejoin:miter;stroke-miterlimit:4;stroke-dasharray:none;stroke-dashoffset:0;stroke-opacity:1;color-rendering:auto;image-rendering:auto;shape-rendering:auto;text-rendering:auto;enable-background:accumulate" d="M234.605 309.98c-6.621-.07-10.742.835-15.61 3.268-5.039 2.517-10.045 7.917-11.554 12.459-2.27 6.834-.422 14.926 5.018 21.977 3.196 4.142 6.85 6.56 14.61 9.67 3.208 1.285 7.69 3.5 9.958 4.923 5.621 3.525 9.836 5.32 13.541 5.766 2.422.292 3.116.637 3.116 1.555 0 .891-.707 1.285-2.891 1.613-1.59.239-3.771.24-4.85.004-1.95-.428-1.97-.405-3.656 4.685-3.877 11.705-5.826 25.857-5.808 42.157.02 18.319 1.825 28.89 9.58 56.047 5.561 19.476 7.156 26.402 8.58 37.261 2.053 15.664 1.314 26.605-3.907 57.791-4.864 29.056-5.158 31.697-5.183 46.543-.024 14.28.635 19.85 3.525 29.813 5.446 18.77 13.728 34.118 23.908 44.3 8.004 8.006 22.628 16.263 41.235 23.284 5.474 2.065 5.836 2.12 6.467.994 1.722-3.078 3.208-3.777 9.332-3.799-38.681-33.76-34.483-82.294-25.523-108.934 7.334-21.807 31.77-53.234 31.77-53.234l-22.41-1.982s-7.26-42.638-13.157-59.907c-22.586-66.14-29.824-120.359 4.37-158.199 5.843-6.466 12.6-11.213 19.61-14.697-9.027 1.899-18.302 4.806-26.416 8.328-6.653 2.888-19.014 9.91-18.994 10.79.009.39.307 1.974.664 3.52.798 3.462-.081 5.56-2.201 5.258-1.188-.169-1.498-.76-1.83-3.486-.632-5.17-3.201-9.398-9.069-14.918-9.254-8.705-17.297-12.218-29.225-12.762a86.182 86.182 0 0 0-3-.087zm1.381 24.102c1.884.064 3.994.417 5.885 1.045 3.992 1.326 12.357 6.69 14.315 9.18 3.005 3.82 1.049 4.01-3.405.33-1.745-1.442-3.37-2.621-3.61-2.621-.239 0-2.787 1.916-5.663 4.257-2.876 2.342-5.598 4.258-6.049 4.26-1.888.007-.565-2.082 3.11-4.91 4.642-3.573 5.889-5.388 4.128-6.01-.646-.228-2.923-1.134-5.06-2.013-3.013-1.24-4.522-1.504-6.719-1.174-3.067.46-3.822-.391-1.465-1.653.99-.53 2.65-.755 4.533-.691zm103.785 383.736-.011.041-.701 2.29 5.656 1.015c.09.016.205.033.297.049a121.04 121.04 0 0 1-5.24-3.395z"/><path style="fill:#000;fill-opacity:1;fill-rule:evenodd;stroke:none;stroke-width:1px;stroke-linecap:butt;stroke-linejoin:miter;stroke-opacity:1" d="m328.42 548.26-4.476 14.88c2.61.025 9.842-6.42 16.756-6.818 76.947-4.431 125.049-.406 187.263-5.405 1.455-.117 3.766-.11 5.207.208 5.215 1.147 8.09 14.373 9.363 13.605.605-14.129-2.324-19.142-5.818-22.698z"/></g><g style="display:inline"><g transform="matrix(-.6561 0 0 .6561 612.568 -56.058)"><path d="M547.428 318.165c-.44 14.771-4.13 29.026-10.39 42.252-6.261 13.226-15.092 25.427-25.805 35.997-10.712 10.57-23.304 19.508-37.118 26.09-13.814 6.582-28.851 10.803-44.502 11.862-15.65 1.059-30.44-1.159-43.818-6.168-13.377-5.009-25.34-12.807-35.3-22.804-9.961-9.997-17.917-22.19-23.266-35.908-5.35-13.718-8.092-28.96-7.642-44.981.45-16.022 4.044-31.294 10.142-45.079s14.696-26.082 25.17-36.257c10.473-10.176 22.822-18.23 36.461-23.662 13.64-5.43 28.572-8.243 44.23-8.025a121.374 121.374 0 0 1 44.11 8.941c13.548 5.515 25.74 13.338 35.925 22.915 10.185 9.578 18.362 20.914 23.877 33.533 5.515 12.62 8.366 26.522 7.926 41.294z" style="color:#000;clip-rule:nonzero;display:inline;overflow:visible;opacity:1;isolation:auto;mix-blend-mode:normal;color-interpolation:sRGB;color-interpolation-filters:linearRGB;solid-color:#000;solid-opacity:1;fill:#394655;fill-opacity:1;fill-rule:nonzero;stroke:none;stroke-width:2;stroke-linecap:butt;stroke-linejoin:miter;stroke-miterlimit:4;stroke-dasharray:none;stroke-dashoffset:0;stroke-opacity:1;color-rendering:auto;image-rendering:auto;shape-rendering:auto;text-rendering:auto;enable-background:accumulate"/><path d="M539.722 314.79c.001 13.9-3.015 27.538-8.513 40.353-5.498 12.814-13.48 24.805-23.377 35.252-9.896 10.448-21.705 19.342-34.785 25.879-13.08 6.537-27.425 10.712-42.377 11.767-14.952 1.054-29.091-1.113-41.86-5.931-12.767-4.819-24.168-12.288-33.665-21.791-9.496-9.504-17.09-21.043-22.232-33.955-5.143-12.912-7.833-27.195-7.523-42.136.31-14.94 3.59-29.108 9.23-41.858a105.846 105.846 0 0 1 23.396-33.471c9.759-9.39 21.278-16.839 34.003-21.942 12.726-5.104 26.66-7.868 41.286-7.943 14.624-.075 28.559 2.532 41.26 7.244 12.702 4.712 24.168 11.534 33.816 20.036 9.648 8.503 17.479 18.69 22.901 30.213 5.422 11.523 8.439 24.383 8.44 38.283z" style="color:#000;clip-rule:nonzero;display:inline;overflow:visible;opacity:1;isolation:auto;mix-blend-mode:normal;color-interpolation:sRGB;color-interpolation-filters:linearRGB;solid-color:#000;solid-opacity:1;fill:#fff;fill-opacity:1;fill-rule:nonzero;stroke:none;stroke-width:2;stroke-linecap:butt;stroke-linejoin:miter;stroke-miterlimit:4;stroke-dasharray:none;stroke-dashoffset:0;stroke-opacity:1;color-rendering:auto;image-rendering:auto;shape-rendering:auto;text-rendering:auto;enable-background:accumulate"/><circle style="color:#000;clip-rule:nonzero;display:inline;overflow:visible;opacity:1;isolation:auto;mix-blend-mode:normal;color-interpolation:sRGB;color-interpolation-filters:linearRGB;solid-color:#000;solid-opacity:1;fill:#394455;fill-opacity:1;fill-rule:nonzero;stroke:none;stroke-width:2;stroke-linecap:butt;stroke-linejoin:miter;stroke-miterlimit:4;stroke-dasharray:none;stroke-dashoffset:0;stroke-opacity:1;color-rendering:auto;image-rendering:auto;shape-rendering:auto;text-rendering:auto;enable-background:accumulate" cx="458.074" cy="316.134" r="30.81"/><circle r="15.152" cy="301.992" cx="444.437" style="color:#000;clip-rule:nonzero;display:inline;overflow:visible;opacity:1;isolation:auto;mix-blend-mode:normal;color-interpolation:sRGB;color-interpolation-filters:linearRGB;solid-color:#000;solid-opacity:1;fill:#fff;fill-opacity:1;fill-rule:nonzero;stroke:none;stroke-width:2;stroke-linecap:butt;stroke-linejoin:miter;stroke-miterlimit:4;stroke-dasharray:none;stroke-dashoffset:0;stroke-opacity:1;color-rendering:auto;image-rendering:auto;shape-rendering:auto;text-rendering:auto;enable-background:accumulate"/></g><g transform="matrix(-.49822 -.256 -.256 .49822 797.926 93.112)"><path style="color:#000;clip-rule:nonzero;display:inline;overflow:visible;opacity:1;isolation:auto;mix-blend-mode:normal;color-interpolation:sRGB;color-interpolation-filters:linearRGB;solid-color:#000;solid-opacity:1;fill:#394655;fill-opacity:1;fill-rule:nonzero;stroke:none;stroke-width:2;stroke-linecap:butt;stroke-linejoin:miter;stroke-miterlimit:4;stroke-dasharray:none;stroke-dashoffset:0;stroke-opacity:1;color-rendering:auto;image-rendering:auto;shape-rendering:auto;text-rendering:auto;enable-background:accumulate" d="M544.26 323.966c-5.953 12.338-15.2 24.223-25.898 35.92-10.698 11.696-22.743 23.281-34.524 34.218-11.781 10.937-23.276 21.155-34.237 29.303-10.961 8.147-21.473 14.18-32.043 16.952-10.57 2.77-20.297 2.025-29.304-1.678-9.007-3.702-20.58-7.765-27.665-16.717-7.085-8.952-12.84-20.183-16.504-33.034-3.663-12.851-5.229-27.33-3.924-42.729 1.305-15.399 5.367-30.25 11.818-43.754 6.451-13.505 15.29-25.659 26.008-35.783 10.718-10.125 28.443-20.293 42.249-25.867 13.806-5.574 28.833-8.628 44.21-8.804 15.376-.176 29.627 2.526 41.943 7.375 12.316 4.849 22.698 11.85 30.36 20.347 7.662 8.497 12.601 18.483 14.065 29.349 1.463 10.866-.6 22.565-6.553 34.902z"/><path style="color:#000;clip-rule:nonzero;display:inline;overflow:visible;opacity:1;isolation:auto;mix-blend-mode:normal;color-interpolation:sRGB;color-interpolation-filters:linearRGB;solid-color:#000;solid-opacity:1;fill:#fff;fill-opacity:1;fill-rule:nonzero;stroke:none;stroke-width:2;stroke-linecap:butt;stroke-linejoin:miter;stroke-miterlimit:4;stroke-dasharray:none;stroke-dashoffset:0;stroke-opacity:1;color-rendering:auto;image-rendering:auto;shape-rendering:auto;text-rendering:auto;enable-background:accumulate" d="M538.18 322.659c-5.177 11.632-13.277 23.1-22.969 34.404-9.691 11.303-20.938 22.465-32.344 32.775-11.405 10.31-22.908 19.719-33.859 27.134-10.95 7.415-21.396 12.82-31.595 15.287-10.2 2.467-19.302 1.763-27.568-1.63-8.267-3.393-19.134-6.95-25.392-15.161-6.257-8.211-11.243-18.535-14.304-30.376-3.06-11.84-4.19-25.202-2.686-39.425 1.503-14.224 5.508-27.949 11.68-40.439 6.17-12.49 14.507-23.74 24.547-33.139 10.04-9.398 26.99-19.062 39.836-24.293a115.374 115.374 0 0 1 41-8.458c14.218-.3 27.344 2.037 38.644 6.33 11.3 4.294 20.77 10.545 27.74 18.17 6.971 7.624 11.438 16.612 12.814 26.511 1.375 9.9-.366 20.678-5.544 32.31z"/><circle style="color:#000;clip-rule:nonzero;display:inline;overflow:visible;opacity:1;isolation:auto;mix-blend-mode:normal;color-interpolation:sRGB;color-interpolation-filters:linearRGB;solid-color:#000;solid-opacity:1;fill:#394455;fill-opacity:1;fill-rule:nonzero;stroke:none;stroke-width:2;stroke-linecap:butt;stroke-linejoin:miter;stroke-miterlimit:4;stroke-dasharray:none;stroke-dashoffset:0;stroke-opacity:1;color-rendering:auto;image-rendering:auto;shape-rendering:auto;text-rendering:auto;enable-background:accumulate" cx="438.7" cy="219.308" r="27.721" transform="rotate(9.459)"/><circle r="13.633" cy="205.956" cx="431.241" style="color:#000;clip-rule:nonzero;display:inline;overflow:visible;opacity:1;isolation:auto;mix-blend-mode:normal;color-interpolation:sRGB;color-interpolation-filters:linearRGB;solid-color:#000;solid-opacity:1;fill:#fff;fill-opacity:1;fill-rule:nonzero;stroke:none;stroke-width:2;stroke-linecap:butt;stroke-linejoin:miter;stroke-miterlimit:4;stroke-dasharray:none;stroke-dashoffset:0;stroke-opacity:1;color-rendering:auto;image-rendering:auto;shape-rendering:auto;text-rendering:auto;enable-background:accumulate" transform="rotate(9.459)"/></g></g><g style="display:inline"><path style="color:#000;clip-rule:nonzero;display:inline;overflow:visible;opacity:1;isolation:auto;mix-blend-mode:normal;color-interpolation:sRGB;color-interpolation-filters:linearRGB;solid-color:#000;solid-opacity:1;fill:#2e3436;fill-opacity:1;fill-rule:nonzero;stroke:none;stroke-width:10;stroke-linecap:butt;stroke-linejoin:miter;stroke-miterlimit:4;stroke-dasharray:none;stroke-dashoffset:0;stroke-opacity:1;color-rendering:auto;image-rendering:auto;shape-rendering:auto;text-rendering:auto;enable-background:accumulate" d="m477.593 477.723-6.367.083-3.712-.082c-1.183-.026-2.238.536-3.006 1.364-.769.828-1.147 1.975-1.326 3.227l-1.013 7.085-1.407 7.111c-.253 1.281.084 2.41.705 3.232.621.821 1.574 1.29 2.697 1.316l3.745.09 7.406-.173a5.875 5.875 0 0 0 3.708-1.433c.968-.848 1.54-2.001 1.656-3.26l.647-7.056.525-7.045c.094-1.254-.466-2.377-1.253-3.181a4.169 4.169 0 0 0-3.005-1.278z" transform="translate(-43.133 -266.48)"/><path style="color:#000;clip-rule:nonzero;display:inline;overflow:visible;opacity:1;isolation:auto;mix-blend-mode:normal;color-interpolation:sRGB;color-interpolation-filters:linearRGB;solid-color:#000;solid-opacity:1;fill:#fff;fill-opacity:1;fill-rule:nonzero;stroke:none;stroke-width:10;stroke-linecap:butt;stroke-linejoin:miter;stroke-miterlimit:4;stroke-dasharray:none;stroke-dashoffset:0;stroke-opacity:1;color-rendering:auto;image-rendering:auto;shape-rendering:auto;text-rendering:auto;enable-background:accumulate" d="m476.43 479.868-5.196.07-2.475-.101c-.94-.039-1.808.436-2.461 1.114-.653.677-1.035 1.617-1.212 2.643l-1.003 5.793-1.255 5.808c-.224 1.037.002 1.971.49 2.642.488.671 1.266 1.034 2.199 1.071l2.542.101 5.885-.127a4.747 4.747 0 0 0 2.973-1.165 4.228 4.228 0 0 0 1.44-2.665l.73-5.77.63-5.763c.113-1.026-.286-1.947-.892-2.606a3.181 3.181 0 0 0-2.394-1.045z" transform="translate(-43.133 -266.48)"/><path style="color:#000;clip-rule:nonzero;display:inline;overflow:visible;opacity:1;isolation:auto;mix-blend-mode:normal;color-interpolation:sRGB;color-interpolation-filters:linearRGB;solid-color:#000;solid-opacity:1;fill:#394655;fill-opacity:1;fill-rule:nonzero;stroke:none;stroke-width:10;stroke-linecap:butt;stroke-linejoin:miter;stroke-miterlimit:4;stroke-dasharray:none;stroke-dashoffset:0;stroke-opacity:1;color-rendering:auto;image-rendering:auto;shape-rendering:auto;text-rendering:auto;enable-background:accumulate" d="M447.452 471.715c.177 2.272 1.576 4.327 3.565 6.177 1.989 1.85 4.736 3.49 7.917 4.834a44.173 44.173 0 0 0 10.405 2.93c3.635.551 7.318.612 10.937.176a40.873 40.873 0 0 0 9.676-2.378c2.814-1.074 5.178-2.347 7.04-3.76 1.863-1.412 3.24-2.977 4.11-4.723.868-1.747 1.229-3.68.914-5.763-.316-2.083-1.292-4.115-2.8-5.981-1.507-1.867-3.535-3.566-5.916-4.98-2.382-1.414-5.113-2.542-8.129-3.282-3.015-.74-6.317-1.09-9.93-.972-3.614.12-7.22.695-10.642 1.646-3.424.95-6.65 2.283-9.34 3.91-2.688 1.628-4.898 3.503-6.188 5.62-1.321 2.168-1.77 4.611-1.62 6.546z" transform="translate(-43.133 -266.48)"/><path style="color:#000;clip-rule:nonzero;display:inline;overflow:visible;opacity:1;isolation:auto;mix-blend-mode:normal;color-interpolation:sRGB;color-interpolation-filters:linearRGB;solid-color:#000;solid-opacity:1;fill:#e1d0cb;fill-opacity:1;fill-rule:nonzero;stroke:none;stroke-width:10;stroke-linecap:butt;stroke-linejoin:miter;stroke-miterlimit:4;stroke-dasharray:none;stroke-dashoffset:0;stroke-opacity:1;color-rendering:auto;image-rendering:auto;shape-rendering:auto;text-rendering:auto;enable-background:accumulate" d="M455.101 471.205c.31 1.805 1.366 3.49 2.987 5 1.62 1.51 3.805 2.847 6.287 3.914a32.662 32.662 0 0 0 8.07 2.27c2.823.415 5.702.453 8.533.108 2.83-.346 5.359-1.03 7.553-1.905s4.044-1.938 5.497-3.125c1.452-1.187 2.509-2.502 3.132-3.934a7.67 7.67 0 0 0 .49-4.63c-.325-1.646-1.14-3.226-2.342-4.668-1.202-1.442-2.79-2.744-4.659-3.82-1.87-1.078-4.02-1.93-6.39-2.482-2.37-.551-4.961-.802-7.767-.685a34.803 34.803 0 0 0-8.187 1.341c-2.614.755-5.071 1.798-7.146 3.062-2.075 1.264-3.76 2.75-4.833 4.373-1.073 1.622-1.535 3.377-1.225 5.181z" transform="translate(-43.133 -266.48)"/><path style="color:#000;clip-rule:nonzero;display:inline;overflow:visible;opacity:1;isolation:auto;mix-blend-mode:normal;color-interpolation:sRGB;color-interpolation-filters:linearRGB;solid-color:#000;solid-opacity:1;fill:#394655;fill-opacity:1;fill-rule:nonzero;stroke:none;stroke-width:10;stroke-linecap:butt;stroke-linejoin:miter;stroke-miterlimit:4;stroke-dasharray:none;stroke-dashoffset:0;stroke-opacity:1;color-rendering:auto;image-rendering:auto;shape-rendering:auto;text-rendering:auto;enable-background:accumulate" d="M465.14 460.194c.452 1.293 1.435 2.441 2.796 3.41 1.36.97 3.093 1.76 4.973 2.368 1.88.607 3.9 1.032 5.876 1.257 1.976.226 3.908.253 5.72.052 1.81-.2 3.339-.607 4.633-1.174 1.293-.567 2.352-1.293 3.186-2.149.834-.855 1.445-1.84 1.8-2.931a7.114 7.114 0 0 0 .211-3.558c-.24-1.267-.8-2.481-1.65-3.579-.847-1.098-1.982-2.077-3.354-2.872-1.372-.795-2.98-1.405-4.767-1.767-1.787-.362-3.752-.476-5.824-.29a22.157 22.157 0 0 0-5.845 1.33c-1.792.678-3.395 1.568-4.692 2.601-1.297 1.033-2.289 2.21-2.844 3.453-.556 1.244-.672 2.556-.22 3.849z" transform="translate(-43.133 -266.48)"/></g><g style="display:inline"><path d="M423.503 581.835c-.004 4.4-1.198 7.589-3.375 9.829s-5.331 3.551-9.146 4.443c-3.815.89-8.283 1.395-13.057 1.838-4.774.443-9.851.79-14.95 1.1-5.098.308-9.945.347-14.402.085-4.457-.26-8.524-.799-11.993-1.712-3.469-.912-6.337-2.213-8.356-4.092-2.019-1.88-3.187-4.345-3.255-7.511-.067-3.166.999-5.486 2.926-7.084 1.927-1.598 4.712-2.464 8.1-2.847 3.387-.383 7.372-.283 11.77-.16 4.398.122 9.21.234 14.332-.122 5.12-.357 10.271-1.474 15.16-2.541 4.888-1.068 9.504-2.052 13.438-2.272 3.934-.22 7.178.324 9.398 2.046 2.221 1.723 3.415 4.6 3.41 9z" style="color:#000;clip-rule:nonzero;display:inline;overflow:visible;opacity:1;isolation:auto;mix-blend-mode:normal;color-interpolation:sRGB;color-interpolation-filters:linearRGB;solid-color:#000;solid-opacity:1;fill:#e1d6b9;fill-opacity:1;fill-rule:nonzero;stroke:none;stroke-width:10;stroke-linecap:butt;stroke-linejoin:miter;stroke-miterlimit:4;stroke-dasharray:none;stroke-dashoffset:0;stroke-opacity:1;color-rendering:auto;image-rendering:auto;shape-rendering:auto;text-rendering:auto;enable-background:accumulate" transform="matrix(-.2849 -.345 -.42832 .4465 672.865 207.989)"/><path d="M411.914 568.549c-3.75-.027-8.087.54-12.762 1.287-5.342.854-11.107 1.92-17.01 2.326-5.902.406-11.41.383-16.447.414-5.036.031-9.604.16-13.508.86-3.903.698-7.135 1.967-9.408 3.968-2.273 2.002-3.585 4.717-3.652 8.176-.067 3.46 1.218 6.307 3.543 8.58 2.325 2.273 5.688 3.98 9.762 5.25 4.073 1.27 8.852 2.12 14.056 2.598 5.205.479 10.834.561 16.703.222 5.87-.338 11.472-.786 16.606-1.35 5.134-.562 9.793-1.223 13.707-2.343a27.622 27.622 0 0 0 4.127-1.52c2.545-1.193 2.05-6.172-.1-4.54-1.991 1.511-4.56 2.503-7.57 3.207-3.669.857-7.967 1.341-12.559 1.767-4.592.426-9.475.76-14.379 1.057-4.903.297-9.565.335-13.851.084-4.287-.251-8.199-.769-11.535-1.647-3.337-.878-6.096-2.13-8.037-3.937-1.942-1.808-3.066-4.178-3.131-7.223-.065-3.045.96-5.277 2.814-6.814s4.531-2.37 7.79-2.739c3.257-.368 7.092-.272 11.322-.154 4.23.118 8.857.226 13.783-.117 4.925-.343 9.88-1.417 14.582-2.443 4.702-1.027 9.14-1.973 12.924-2.184.473-.026.937-.042 1.388-.045 1.16-.007 2.25.044 3.25.236 1.153.222 2.316-2.861-.838-2.927-.511-.011-1.034-.045-1.57-.05z" style="color:#000;clip-rule:nonzero;display:inline;overflow:visible;opacity:1;isolation:auto;mix-blend-mode:normal;color-interpolation:sRGB;color-interpolation-filters:linearRGB;solid-color:#000;solid-opacity:1;fill:#394655;fill-opacity:1;fill-rule:nonzero;stroke:none;stroke-width:10;stroke-linecap:butt;stroke-linejoin:miter;stroke-miterlimit:4;stroke-dasharray:none;stroke-dashoffset:0;stroke-opacity:1;color-rendering:auto;image-rendering:auto;shape-rendering:auto;text-rendering:auto;enable-background:accumulate" transform="matrix(-.2849 -.345 -.42832 .4465 672.865 207.989)"/></g><g style="display:inline"><path d="M250.628 531.915c-9.097 21.358-15.297 29.072-30.272 44.838-11.503 12.109-28.851 24.466-43.811 39.616-13.553 13.726-26.124 21.005-64.223 32.011-11.974 3.46-44.031 6.55-51.473 37.303 46.369-30.892 122.327-23.36 167.555-49.585 37.939-21.998 89.42-83.466 127.541-88.371-71.449-.668-92.602-5.228-105.317-15.812Z" style="display:inline;fill:#5869b6;fill-opacity:1;fill-rule:evenodd;stroke:none;stroke-width:1px;stroke-linecap:butt;stroke-linejoin:miter;stroke-opacity:1" transform="translate(-43.133 -266.48)"/><path style="fill:#5869b6;fill-opacity:1;fill-rule:evenodd;stroke:none;stroke-width:1px;stroke-linecap:butt;stroke-linejoin:miter;stroke-opacity:1" d="m473.293 543.999 73.775-5.101s2.292 1.045 2.686 2.114c7.365 19.981-12.721 60.844-12.721 60.844 0-2.972 13.531-43.944-5.915-53.465-16.446-8.052-38.162-2.068-57.825-4.392z" transform="translate(-43.133 -266.48)"/><path style="display:inline;fill:#525f98;fill-opacity:1;fill-rule:evenodd;stroke:none;stroke-width:1px;stroke-linecap:butt;stroke-linejoin:miter;stroke-opacity:1" d="M249.906 533.572c-8.708 20.085-14.978 27.839-29.55 43.18-11.503 12.11-28.85 24.466-43.811 39.617-13.553 13.725-26.124 21.005-64.223 32.012-10.631 3.071-37.078 5.87-48.088 27.976 2.732-3.487 7.207-4.876 9.882-8.7 4.507-6.444 60.824-11.615 75.673-21.067 9.772-6.22 32.612-17.7 44.084-25.403 11.472-7.702 50.169-39.82 59.98-41.626 30.992-5.703 56.05-31.957 56.05-31.957l-7.305-1.698c-26.466-1.974-39.573-5.582-48.3-11.281-1.779-.423-3.786-.898-4.392-1.053z" transform="translate(-43.133 -266.48)"/><path style="fill:#5869b6;fill-opacity:1;fill-rule:evenodd;stroke:none;stroke-width:1px;stroke-linecap:butt;stroke-linejoin:miter;stroke-opacity:1" d="M250.885 527.299c4.929 1.234 7.577 5.24 12.4 6.837 14.831 4.913 28.22 8.14 43.803 9.27 19.187 1.393 40.099 1.502 59.332 1.16 36.632-.654 73.495-1.925 110.089-3.709 19.95-.973 40.583-2.29 60.49-3.94 3.869-.32 7.976-6.056 11.588-4.635 2.395.942 2.01 3.3 2.64 5.794 2.442 4.931.146 6.644-5.653 7.648-19.439 3.053-39.208 3.559-58.868 4.404-48.011 2.064-96.104 2.116-144.158 1.622-17.003-.175-34.119.523-50.988-1.622-13.275-1.688-26.904-3.452-39.168-8.807-4.124-1.801-7.994-2.729-8.973-7.121-.307-1.381 1.194-2.177 1.882-3.3.574-.937.213-2.26 1.239-2.848 1.34-.768 2.847-1.128 4.345-.753z" transform="translate(-43.133 -266.48)"/><path style="fill:#525f98;fill-opacity:1;fill-rule:evenodd;stroke:none;stroke-width:1px;stroke-linecap:butt;stroke-linejoin:miter;stroke-opacity:1" d="M245.904 528.828c-.247.639-.216 1.44-.603 2.072-.688 1.123-2.189 1.918-1.881 3.3.978 4.392 4.849 5.32 8.973 7.12 12.263 5.356 25.892 7.119 39.168 8.807 16.868 2.145 33.984 1.448 50.988 1.623 48.053.494 96.147.44 144.158-1.623 19.66-.845 39.428-1.35 58.867-4.402 5.799-1.004 8.095-2.717 5.655-7.649-.056-.22-.097-.437-.14-.654.487 4.65-6.665 4.904-11.874 5.922-33.642 6.575-68.482 3.543-102.756 4.095-42.878.691-93.348 6.52-135.57-.982-17.79-3.161-43.904-10.172-54.985-17.629z" transform="translate(-43.133 -266.48)"/></g><g transform="translate(-43.133 -266.48)"><g id="a"><path style="color:#000;clip-rule:nonzero;display:inline;overflow:visible;opacity:1;isolation:auto;mix-blend-mode:normal;color-interpolation:sRGB;color-interpolation-filters:linearRGB;solid-color:#000;solid-opacity:1;fill:#525f98;fill-opacity:1;fill-rule:nonzero;stroke:none;stroke-width:20;stroke-linecap:round;stroke-linejoin:round;stroke-miterlimit:4;stroke-dasharray:none;stroke-dashoffset:0;stroke-opacity:1;color-rendering:auto;image-rendering:auto;shape-rendering:auto;text-rendering:auto;enable-background:accumulate" d="m-580.799 542.033-9.775 4.457-5.793 8.162 6.754 13.776-4.096 28.517 66.662 51.796 66.664-51.796-4.096-28.517 6.754-13.776-5.793-8.162-9.775-4.457-15.91 10.406-37.844-6.293-37.842 6.293z"/><g aria-label="Go" style="font-style:normal;font-weight:400;line-height:0%;font-family:sans-serif;letter-spacing:0;word-spacing:0;fill:#000;fill-opacity:1;stroke:none;stroke-width:1px;stroke-linecap:butt;stroke-linejoin:miter;stroke-opacity:1"><path d="M-543.448 629.639c6.474-3.237 14.052-6.947 14.052-19.736v-23.761h-9.236v7.183c0 7.5-5.684 12-10.578 12-7.5 0-10.42-8.131-10.42-20.052 0-11.13 3.078-20.13 12.077-20.13 4.105 0 8.368 1.658 11.052 4.342l4.58-6c-2.685-2.842-7.5-5.605-14.526-5.605-15.947 0-23.367 11.763-23.367 28.183 0 15.946 5.605 26.603 18.788 26.603 6.079 0 10.973-2.447 13.341-6.868v1.106c0 5.13.08 11.84-9.394 16.498zM-504.65 571.774c-12.078 0-17.999 9.079-17.999 20.999 0 12.473 5.21 20.051 17.289 20.051 12.078 0 17.999-9.078 17.999-20.92 0-12.551-5.21-20.13-17.289-20.13zm-.79 6.631c6.79 0 8.369 6.395 8.369 14.289 0 7.578-1.421 13.5-7.5 13.5-6.789 0-8.368-6.395-8.368-14.21 0-7.658 1.421-13.579 7.5-13.579z" style="font-style:normal;font-variant:normal;font-weight:400;font-stretch:normal;font-size:78.94237518px;line-height:125%;font-family:Amaranth;-inkscape-font-specification:'Amaranth, Normal';text-align:start;writing-mode:lr-tb;text-anchor:start;fill:#fff;fill-opacity:1"/></g></g><use xlink:href="#a" transform="matrix(.45464 -.07431 -.02175 .44764 706.669 309.945)" width="100%" height="100%"/></g><g style="display:inline"><path style="color:#000;clip-rule:nonzero;display:inline;overflow:visible;opacity:1;isolation:auto;mix-blend-mode:normal;color-interpolation:sRGB;color-interpolation-filters:linearRGB;solid-color:#000;solid-opacity:1;fill:#394655;fill-opacity:1;fill-rule:nonzero;stroke:#000;stroke-width:9.21052647;stroke-linecap:butt;stroke-linejoin:miter;stroke-miterlimit:4;stroke-dasharray:none;stroke-dashoffset:0;stroke-opacity:1;color-rendering:auto;image-rendering:auto;shape-rendering:auto;text-rendering:auto;enable-background:accumulate" d="M779.605 21.967h40.789v40.789h-40.789z" transform="translate(-43.133 -266.48)"/><path style="color:#000;clip-rule:nonzero;display:inline;overflow:visible;opacity:1;isolation:auto;mix-blend-mode:normal;color-interpolation:sRGB;color-interpolation-filters:linearRGB;solid-color:#000;solid-opacity:1;fill:#fff;fill-opacity:1;fill-rule:nonzero;stroke:#000;stroke-width:9.21052742;stroke-linecap:butt;stroke-linejoin:miter;stroke-miterlimit:4;stroke-dasharray:none;stroke-dashoffset:0;stroke-opacity:1;color-rendering:auto;image-rendering:auto;shape-rendering:auto;text-rendering:auto;enable-background:accumulate" d="M824.605 21.967h40.789v40.789h-40.789z" transform="translate(-43.133 -266.48)"/><path style="color:#000;clip-rule:nonzero;display:inline;overflow:visible;opacity:1;isolation:auto;mix-blend-mode:normal;color-interpolation:sRGB;color-interpolation-filters:linearRGB;solid-color:#000;solid-opacity:1;fill:#bce8ff;fill-opacity:1;fill-rule:nonzero;stroke:#000;stroke-width:9.21052647;stroke-linecap:butt;stroke-linejoin:miter;stroke-miterlimit:4;stroke-dasharray:none;stroke-dashoffset:0;stroke-opacity:1;color-rendering:auto;image-rendering:auto;shape-rendering:auto;text-rendering:auto;enable-background:accumulate" d="M779.605 86.967h40.789v40.789h-40.789z" transform="translate(-43.133 -266.48)"/><path style="color:#000;clip-rule:nonzero;display:inline;overflow:visible;opacity:1;isolation:auto;mix-blend-mode:normal;color-interpolation:sRGB;color-interpolation-filters:linearRGB;solid-color:#000;solid-opacity:1;fill:#abccd9;fill-opacity:1;fill-rule:nonzero;stroke:#000;stroke-width:9.21052647;stroke-linecap:butt;stroke-linejoin:miter;stroke-miterlimit:4;stroke-dasharray:none;stroke-dashoffset:0;stroke-opacity:1;color-rendering:auto;image-rendering:auto;shape-rendering:auto;text-rendering:auto;enable-background:accumulate" transform="matrix(1 0 0 -1 -43.133 -266.48)" d="M824.605-127.757h40.789v40.789h-40.789z"/><path style="color:#000;clip-rule:nonzero;display:inline;overflow:visible;opacity:1;isolation:auto;mix-blend-mode:normal;color-interpolation:sRGB;color-interpolation-filters:linearRGB;solid-color:#000;solid-opacity:1;fill:#c3b0cb;fill-opacity:1;fill-rule:nonzero;stroke:#000;stroke-width:9.21052647;stroke-linecap:butt;stroke-linejoin:miter;stroke-miterlimit:4;stroke-dasharray:none;stroke-dashoffset:0;stroke-opacity:1;color-rendering:auto;image-rendering:auto;shape-rendering:auto;text-rendering:auto;enable-background:accumulate" d="M779.605 131.967h40.789v40.789h-40.789z" transform="translate(-43.133 -266.48)"/><path style="color:#000;clip-rule:nonzero;display:inline;overflow:visible;opacity:1;isolation:auto;mix-blend-mode:normal;color-interpolation:sRGB;color-interpolation-filters:linearRGB;solid-color:#000;solid-opacity:1;fill:#e1d0cb;fill-opacity:1;fill-rule:nonzero;stroke:#000;stroke-width:9.21052647;stroke-linecap:butt;stroke-linejoin:miter;stroke-miterlimit:4;stroke-dasharray:none;stroke-dashoffset:0;stroke-opacity:1;color-rendering:auto;image-rendering:auto;shape-rendering:auto;text-rendering:auto;enable-background:accumulate" d="M824.605 131.967h40.789v40.789h-40.789z" transform="translate(-43.133 -266.48)"/><path style="color:#000;clip-rule:nonzero;display:inline;overflow:visible;opacity:1;isolation:auto;mix-blend-mode:normal;color-interpolation:sRGB;color-interpolation-filters:linearRGB;solid-color:#000;solid-opacity:1;fill:#f5c3d2;fill-opacity:1;fill-rule:nonzero;stroke:#000;stroke-width:9.21052647;stroke-linecap:butt;stroke-linejoin:miter;stroke-miterlimit:4;stroke-dasharray:none;stroke-dashoffset:0;stroke-opacity:1;color-rendering:auto;image-rendering:auto;shape-rendering:auto;text-rendering:auto;enable-background:accumulate" d="M869.605 131.967h40.789v40.789h-40.789z" transform="translate(-43.133 -266.48)"/><path style="color:#000;clip-rule:nonzero;display:inline;overflow:visible;opacity:1;isolation:auto;mix-blend-mode:normal;color-interpolation:sRGB;color-interpolation-filters:linearRGB;solid-color:#000;solid-opacity:1;fill:#cec4ad;fill-opacity:1;fill-rule:nonzero;stroke:#000;stroke-width:9.21052647;stroke-linecap:butt;stroke-linejoin:miter;stroke-miterlimit:4;stroke-dasharray:none;stroke-dashoffset:0;stroke-opacity:1;color-rendering:auto;image-rendering:auto;shape-rendering:auto;text-rendering:auto;enable-background:accumulate" d="M779.605 176.967h40.789v40.789h-40.789z" transform="translate(-43.133 -266.48)"/><path transform="matrix(1 0 0 -1 -43.133 -266.48)" style="color:#000;clip-rule:nonzero;display:inline;overflow:visible;opacity:1;isolation:auto;mix-blend-mode:normal;color-interpolation:sRGB;color-interpolation-filters:linearRGB;solid-color:#000;solid-opacity:1;fill:#96d6ff;fill-opacity:1;fill-rule:nonzero;stroke:#000;stroke-width:9.21052647;stroke-linecap:butt;stroke-linejoin:miter;stroke-miterlimit:4;stroke-dasharray:none;stroke-dashoffset:0;stroke-opacity:1;color-rendering:auto;image-rendering:auto;shape-rendering:auto;text-rendering:auto;enable-background:accumulate" d="M869.605-127.757h40.789v40.789h-40.789z"/><path style="color:#000;clip-rule:nonzero;display:inline;overflow:visible;opacity:1;isolation:auto;mix-blend-mode:normal;color-interpolation:sRGB;color-interpolation-filters:linearRGB;solid-color:#000;solid-opacity:1;fill:#f2f2ce;fill-opacity:1;fill-rule:nonzero;stroke:#000;stroke-width:9.21052647;stroke-linecap:butt;stroke-linejoin:miter;stroke-miterlimit:4;stroke-dasharray:none;stroke-dashoffset:0;stroke-opacity:1;color-rendering:auto;image-rendering:auto;shape-rendering:auto;text-rendering:auto;enable-background:accumulate" d="M824.605 176.967h40.789v40.789h-40.789z" transform="translate(-43.133 -266.48)"/><path style="color:#000;clip-rule:nonzero;display:inline;overflow:visible;opacity:1;isolation:auto;mix-blend-mode:normal;color-interpolation:sRGB;color-interpolation-filters:linearRGB;solid-color:#000;solid-opacity:1;fill:#24b8eb;fill-opacity:1;fill-rule:nonzero;stroke:#000;stroke-width:9.21052647;stroke-linecap:butt;stroke-linejoin:miter;stroke-miterlimit:4;stroke-dasharray:none;stroke-dashoffset:0;stroke-opacity:1;color-rendering:auto;image-rendering:auto;shape-rendering:auto;text-rendering:auto;enable-background:accumulate" transform="matrix(1 0 0 -1 -43.133 -266.48)" d="M779.605-327.757h40.789v40.789h-40.789z"/><path style="color:#000;clip-rule:nonzero;display:inline;overflow:visible;opacity:1;isolation:auto;mix-blend-mode:normal;color-interpolation:sRGB;color-interpolation-filters:linearRGB;solid-color:#000;solid-opacity:1;fill:#8aa9ff;fill-opacity:1;fill-rule:nonzero;stroke:#000;stroke-width:9.21052647;stroke-linecap:butt;stroke-linejoin:miter;stroke-miterlimit:4;stroke-dasharray:none;stroke-dashoffset:0;stroke-opacity:1;color-rendering:auto;image-rendering:auto;shape-rendering:auto;text-rendering:auto;enable-background:accumulate" d="M824.605 286.967h40.789v40.789h-40.789z" transform="translate(-43.133 -266.48)"/><path style="color:#000;clip-rule:nonzero;display:inline;overflow:visible;opacity:1;isolation:auto;mix-blend-mode:normal;color-interpolation:sRGB;color-interpolation-filters:linearRGB;solid-color:#000;solid-opacity:1;fill:#d4edf1;fill-opacity:1;fill-rule:nonzero;stroke:#000;stroke-width:9.21052647;stroke-linecap:butt;stroke-linejoin:miter;stroke-miterlimit:4;stroke-dasharray:none;stroke-dashoffset:0;stroke-opacity:1;color-rendering:auto;image-rendering:auto;shape-rendering:auto;text-rendering:auto;enable-background:accumulate" d="M779.605 331.967h40.789v40.789h-40.789z" transform="translate(-43.133 -266.48)"/><path style="color:#000;clip-rule:nonzero;display:inline;overflow:visible;opacity:1;isolation:auto;mix-blend-mode:normal;color-interpolation:sRGB;color-interpolation-filters:linearRGB;solid-color:#000;solid-opacity:1;fill:#394d54;fill-opacity:1;fill-rule:nonzero;stroke:#000;stroke-width:9.21052647;stroke-linecap:butt;stroke-linejoin:miter;stroke-miterlimit:4;stroke-dasharray:none;stroke-dashoffset:0;stroke-opacity:1;color-rendering:auto;image-rendering:auto;shape-rendering:auto;text-rendering:auto;enable-background:accumulate" d="M779.605 241.967h40.789v40.789h-40.789z" transform="translate(-43.133 -266.48)"/><path style="color:#000;clip-rule:nonzero;display:inline;overflow:visible;opacity:1;isolation:auto;mix-blend-mode:normal;color-interpolation:sRGB;color-interpolation-filters:linearRGB;solid-color:#000;solid-opacity:1;fill:#d6e2ff;fill-opacity:1;fill-rule:nonzero;stroke:#000;stroke-width:9.21052647;stroke-linecap:butt;stroke-linejoin:miter;stroke-miterlimit:4;stroke-dasharray:none;stroke-dashoffset:0;stroke-opacity:1;color-rendering:auto;image-rendering:auto;shape-rendering:auto;text-rendering:auto;enable-background:accumulate" d="M824.605 331.967h40.789v40.789h-40.789z" transform="translate(-43.133 -266.48)"/></g></svg>
