<svg xmlns="http://www.w3.org/2000/svg" fill="none" viewBox="-5.95 -5.95 1190 1190" id="User-Secure--Streamline-Ux" height="1190" width="1190"><desc>User Secure Streamline Illustration: https://streamlinehq.com</desc><path fill="#daedf7" stroke="#daedf7" stroke-miterlimit="10" d="M589.0500000000001 1060.29c260.2587834 0 471.24 -210.9812166 471.24 -471.24S849.3087833999999 117.81 589.0500000000001 117.81 117.81 328.79121660000004 117.81 589.0500000000001s210.9812166 471.24 471.24 471.24Z" stroke-width="11.9"></path><path fill="#9ceb60" d="M588.6730080000001 923.9708709c4.4367246 2.5234902000000003 9.4731021 3.7981944000000003 14.575453200000002 3.6909873000000006 5.1023511 -0.1083852 10.079823600000001 -1.5951473999999999 14.405806800000002 -4.3035993 61.2612 -38.087973000000005 297.89436600000005 -198.380259 293.653206 -398.940003l-3.9937590000000003 -188.861211c-0.1425501 -5.817457800000001 -2.0699217 -11.4499539 -5.521754700000001 -16.1352576 -3.451833 -4.684125600000001 -8.260837200000001 -8.1948636 -13.775523300000001 -10.053905400000001 -113.0976 -38.05263 -210.8799 -69.896673 -292.07455200000004 -135.823149 -2.4598728000000003 -1.9957014 -5.548851 -3.0536352 -8.7167619 -2.9841273000000004 -3.1667328 0.0683298 -6.207408900000001 1.260567 -8.5777461 3.3611193000000004 -78.378993 69.295842 -174.724011 105.28679699999999 -286.054461 148.051827 -5.436931500000001 2.0805246000000004 -10.0986732 5.7880053 -13.350229200000001 10.615859100000002 -3.2515560000000003 4.8290319 -4.9338828 10.5428169 -4.816072800000001 16.362630900000003l3.9937590000000003 188.861211c4.24116 200.55974400000002 247.459905 350.69680800000003 310.252635 386.157618Z" stroke-width="11.9"></path><path fill="#c8ffa1" d="M595.9418850000001 173.5447329c-2.4598728000000003 -1.9957014 -5.548851 -3.0536352 -8.7167619 -2.9841273000000004 -3.1667328 0.0683298 -6.207408900000001 1.260567 -8.5777461 3.3611193000000004 -78.378993 69.295842 -174.724011 105.28679699999999 -286.054461 148.051827 -5.436931500000001 2.0805246000000004 -10.0986732 5.7880053 -13.350229200000001 10.615859100000002 -3.2515560000000003 4.8290319 -4.9338828 10.5428169 -4.816072800000001 16.362630900000003l3.9937590000000003 188.861211c1.6139970000000001 76.140603 37.699200000000005 144.98876700000002 85.23553500000001 203.080878l440.986392 -460.04805c-78.402555 -27.956313000000005 -148.157856 -58.186359 -208.70041500000002 -107.30134800000002Z" stroke-width="11.9"></path><path fill="#6dd627" d="M590.2281 835.2022140000001c3.392928 1.9261935000000001 7.2441369 2.8993041 11.144826 2.8168371000000003 3.9006891 -0.08364510000000001 7.707130200000001 -1.2193335 11.015235 -3.2880771 46.817694 -29.110851000000004 227.75029200000003 -151.668594 224.498736 -305.01009000000005l-3.051279 -144.399717c-0.10367280000000001 -4.4485056 -1.5751197000000003 -8.7579954 -4.2140637000000005 -12.341775600000002 -2.6389440000000004 -3.5826021 -6.3181503 -6.266313900000001 -10.5357483 -7.6859244 -85.518279 -28.780983000000003 -159.59720700000003 -52.920252000000005 -221.31786600000004 -102.24729900000001 -2.4480918000000003 -1.9556460000000002 -5.5064394 -2.9888396999999998 -8.6390073 -2.9205099000000003 -3.1325679000000006 0.0695079 -6.1426134 1.2358269 -8.502347700000001 3.2975019 -59.564736 51.836400000000005 -132.571593 79.132977 -216.7704 111.507165 -4.165761600000001 1.5880788000000001 -7.7424732 4.4214093000000005 -10.2400452 8.1147528 -2.497572 3.6933435 -3.7970162999999997 8.0676288 -3.7204398000000003 12.5255592l3.06306 144.387936c3.2868990000000005 153.341496 189.238203 268.13556000000005 237.26934000000003 295.243641Z" stroke-width="11.9"></path><path stroke="#45413c" stroke-linecap="round" stroke-linejoin="round" d="M588.6730080000001 923.9708709c4.4367246 2.5234902000000003 9.4731021 3.7981944000000003 14.575453200000002 3.6909873000000006 5.1023511 -0.1083852 10.079823600000001 -1.5951473999999999 14.405806800000002 -4.3035993 61.2612 -38.087973000000005 297.89436600000005 -198.380259 293.653206 -398.940003l-3.9937590000000003 -188.861211c-0.1425501 -5.817457800000001 -2.0699217 -11.4499539 -5.521754700000001 -16.1352576 -3.451833 -4.684125600000001 -8.260837200000001 -8.1948636 -13.775523300000001 -10.053905400000001 -113.0976 -38.05263 -210.8799 -69.896673 -292.07455200000004 -135.823149 -2.4598728000000003 -1.9957014 -5.548851 -3.0536352 -8.7167619 -2.9841273000000004 -3.1667328 0.0683298 -6.207408900000001 1.260567 -8.5777461 3.3611193000000004 -78.378993 69.295842 -174.724011 105.28679699999999 -286.054461 148.051827 -5.436931500000001 2.0805246000000004 -10.0986732 5.7880053 -13.350229200000001 10.615859100000002 -3.2515560000000003 4.8290319 -4.9338828 10.5428169 -4.816072800000001 16.362630900000003l3.9937590000000003 188.861211c4.24116 200.55974400000002 247.459905 350.69680800000003 310.252635 386.157618Z" stroke-width="11.9"></path><path fill="#9ceb60" d="M747.351297 340.624053c-53.8144299 -17.4146742 -104.37259140000002 -43.625043 -149.6187 -77.566104 -2.4480918000000003 -1.9556460000000002 -5.5064394 -2.9900178000000004 -8.6390073 -2.9205099000000003 -3.1325679000000006 0.0683298 -6.1414353 1.2358269 -8.502347700000001 3.2975019 -59.564736 51.836400000000005 -132.571593 79.132977 -216.7704 111.507165 -4.1575149 1.5927912 -7.7248016999999995 4.4272998 -10.2153051 8.118287100000002 -2.4916815 3.6898092 -3.7864134000000003 8.058204000000002 -3.7098369000000004 12.5102439l3.06306 144.387936c1.1781000000000001 55.570977 26.342316000000004 106.08790500000002 60.248034000000004 149.194584l334.144503 -348.529104Z" stroke-width="11.9"></path><path fill="#45413c" d="M604.1391048 969.8178105c81.5080266 -1.7247384000000001 147.3826662 -12.560902200000001 147.1364433 -24.205242600000002 -0.2462229 -11.6443404 -66.5214165 -19.686051000000003 -148.028265 -17.9613126 -81.5080266 1.7247384000000001 -147.38384430000002 12.562080300000002 -147.1376214 24.205242600000002 0.2462229 11.6443404 66.5214165 19.686051000000003 148.0294431 17.9613126Z" opacity=".15" stroke-width="11.9"></path><path stroke="#45413c" stroke-linecap="round" stroke-linejoin="round" d="M590.2281 835.2022140000001c3.392928 1.9261935000000001 7.2441369 2.8993041 11.144826 2.8168371000000003 3.9006891 -0.08364510000000001 7.707130200000001 -1.2193335 11.015235 -3.2880771 46.817694 -29.110851000000004 227.75029200000003 -151.668594 224.498736 -305.01009000000005l-3.051279 -144.399717c-0.10367280000000001 -4.4485056 -1.5751197000000003 -8.7579954 -4.2140637000000005 -12.341775600000002 -2.6389440000000004 -3.5826021 -6.3181503 -6.266313900000001 -10.5357483 -7.6859244 -85.518279 -28.780983000000003 -159.59720700000003 -52.920252000000005 -221.31786600000004 -102.24729900000001 -2.4480918000000003 -1.9556460000000002 -5.5064394 -2.9888396999999998 -8.6390073 -2.9205099000000003 -3.1325679000000006 0.0695079 -6.1426134 1.2358269 -8.502347700000001 3.2975019 -59.564736 51.836400000000005 -132.571593 79.132977 -216.7704 111.507165 -4.165761600000001 1.5880788000000001 -7.7424732 4.4214093000000005 -10.2400452 8.1147528 -2.497572 3.6933435 -3.7970162999999997 8.0676288 -3.7204398000000003 12.5255592l3.06306 144.387936c3.2868990000000005 153.341496 189.238203 268.13556000000005 237.26934000000003 295.243641Z" stroke-width="11.9"></path><path fill="#ffffff" stroke="#388c00" stroke-linejoin="round" d="M558.513648 651.25368c-4.4296560000000005 0.09071370000000001 -8.833393800000001 -0.695079 -12.957921900000002 -2.3126103000000002 -4.1245281 -1.6175313000000002 -7.8885576 -4.0338144 -11.0753181 -7.112189700000001l-68.80104 -65.9736c-3.2503778999999997 -3.0477447 -5.864581800000001 -6.7092795 -7.690636800000001 -10.7749026 -1.8248769000000002 -4.064445 -2.8262619 -8.451689400000001 -2.94525 -12.9060855 -0.1189881 -4.4543961 0.6467769 -8.8875864 2.2537053 -13.0439232 1.6057503000000002 -4.1563368 4.0208553 -7.953353100000001 7.1051211 -11.170744200000001 3.0830877 -3.216213 6.774075 -5.789183400000001 10.8585477 -7.5704706 4.0856508 -1.7801091000000002 8.48232 -2.7331920000000003 12.9378942 -2.8026999000000004 4.4555742 -0.0695079 8.880517800000002 0.7457372999999999 13.019183100000001 2.3974335 4.1386653 1.6528743000000001 7.9085853 4.1092128 11.090633400000002 7.227643500000001l44.485056 42.635439000000005 134.3034 -140.07609000000002c6.185025 -6.4500975 14.679126 -10.179962100000001 23.6138364 -10.367280000000001 8.9347104 -0.1873179 17.578430100000002 3.1808700000000005 24.028527600000004 9.365895 6.4500975 6.185025 10.179962100000001 14.679126 10.367280000000001 23.6138364 0.18849600000000002 8.9347104 -3.1808700000000005 17.578430100000002 -9.365895 24.028527600000004L582.122772 640.8864c-3.0583476000000003 3.1985415000000006 -6.718704300000001 5.7597309 -10.7701902 7.538661900000001 -4.0514859 1.778931 -8.415168300000001 2.7402606 -12.838933800000001 2.8286181000000004Z" stroke-width="11.9"></path><path fill="#b8ecff" stroke="#45413c" stroke-linecap="round" stroke-linejoin="round" d="M834.247953 939.6867249000001c103.1862447 0 186.834879 -83.6486343 186.834879 -186.834879 0 -103.1862447 -83.6486343 -186.834879 -186.834879 -186.834879 -103.1862447 0 -186.834879 83.6486343 -186.834879 186.834879 0 103.1862447 83.6486343 186.834879 186.834879 186.834879Z" stroke-width="11.9"></path><path fill="#e5f8ff" stroke="#45413c" stroke-linecap="round" stroke-linejoin="round" d="M774.0117 749.8005669c0.33693660000000003 15.934980600000001 6.9908454 31.0829904 18.4973481 42.112362600000004 5.6972916 5.461671600000001 12.414817800000002 9.746421300000002 19.768518 12.611560500000001 7.3537002000000005 2.8651392 15.199846200000001 4.2541191 23.089581900000002 4.0868289 7.8897357 -0.16729020000000003 15.6699081 -1.8861381 22.896373500000003 -5.0599395000000005 7.2252873 -3.1738014 13.7554956 -7.740117000000001 19.2159891 -13.437408600000001 5.461671600000001 -5.6972916 9.746421300000002 -12.414817800000002 12.611560500000001 -19.768518 2.8651392 -7.3537002000000005 4.2541191 -15.1986681 4.0868289 -23.089581900000002l-0.636174 -30.053331000000004c-0.33693660000000003 -15.934980600000001 -6.9908454 -31.0829904 -18.4973481 -42.112362600000004 -11.5065027 -11.029372200000001 -26.9231193 -17.035326 -42.858099900000006 -16.6983894 -15.934980600000001 0.3381147 -31.0829904 6.9908454 -42.112362600000004 18.4973481 -11.029372200000001 11.5065027 -17.035326 26.9231193 -16.6983894 42.858099900000006l0.636174 30.053331000000004Z" stroke-width="11.9"></path><path fill="#00b8f0" d="M962.0600220000001 889.1344539000002c-33.6265083 31.5389151 -77.7275037 49.532036399999996 -123.8206662 50.51692800000001 -46.0919844 0.9848916 -90.9210456 -15.1067763 -125.8658478 -45.180135 9.7393527 -24.8390604 26.6085666 -46.2427812 48.48352740000001 -61.518025800000004 21.8761389 -15.2752446 47.7802017 -23.738715000000003 74.4547419 -24.3254088 26.674540200000003 -0.5866938 52.9261425 6.729307200000001 75.4525926 21.0267288 22.5264501 14.2985997 40.3204725 34.9400898 51.1424991 59.326759800000005" stroke-width="11.9"></path><path stroke="#45413c" stroke-linecap="round" stroke-linejoin="round" d="M962.0600220000001 889.1344539000002c-33.6265083 31.5389151 -77.7275037 49.532036399999996 -123.8206662 50.51692800000001 -46.0919844 0.9848916 -90.9210456 -15.1067763 -125.8658478 -45.180135 9.7393527 -24.8390604 26.6085666 -46.2427812 48.48352740000001 -61.518025800000004 21.8761389 -15.2752446 47.7802017 -23.738715000000003 74.4547419 -24.3254088 26.674540200000003 -0.5866938 52.9261425 6.729307200000001 75.4525926 21.0267288 22.5264501 14.2985997 40.3204725 34.9400898 51.1424991 59.326759800000005" stroke-width="11.9"></path><path fill="#4acfff" stroke="#45413c" stroke-linecap="round" stroke-linejoin="round" d="M773.752518 711.9823788000001c1.3076910000000002 -12.160348200000001 6.2945883 -23.6338641 14.296243500000001 -32.8843053 8.0028333 -9.2516193 18.636363900000003 -15.839554500000002 30.4833375 -18.884943 11.845795500000001 -3.0453885 24.339546 -2.403324 35.8107057 1.8413703000000001 11.471159700000001 4.2458724000000005 21.3742683 11.890563300000002 28.3839633 21.912660000000002 -13.933388700000002 14.0877198 -31.4258175 24.132200400000002 -50.6158884 29.0649051 -19.190070900000002 4.9338828 -39.357964800000005 4.571028 -58.3583616 -1.0496871v0Z" stroke-width="11.9"></path></svg>