<svg
  id="graphic-hacker-boy"
  viewBox="0 0 96 96"
  fill="none"
  xmlns="http://www.w3.org/2000/svg"
>
  <path
    d="M86.3996 48C86.4003 42.2689 85.1183 36.6104 82.6474 31.4394C80.1765 26.2683 76.5795 21.7159 72.1202 18.116C67.6608 14.5161 62.4523 11.96 56.8764 10.6352C51.3006 9.31036 45.499 9.25039 39.897 10.4597C34.2949 11.669 29.0347 14.1168 24.5019 17.6238C19.9691 21.1307 16.2787 25.6078 13.7015 30.7267C11.1242 35.8455 9.72545 41.4764 9.60771 47.2062C9.48997 52.936 10.6563 58.6196 13.021 63.84H82.9782C85.2369 58.8649 86.4035 53.4637 86.3996 48Z"
    fill="#C7F0FF"
  />
  <path
    d="M13.0215 63.84C16.0673 70.5637 20.9864 76.2672 27.19 80.2674C33.3935 84.2676 40.6186 86.3951 48 86.3951C55.3815 86.3951 62.6065 84.2676 68.8101 80.2674C75.0137 76.2672 79.9328 70.5637 82.9786 63.84H13.0215Z"
    fill="#DAEDF7"
  />
  <path
    fill-rule="evenodd"
    clip-rule="evenodd"
    d="M10.0801 63.84C10.0801 63.5749 10.295 63.36 10.5601 63.36H85.4401C85.7052 63.36 85.9201 63.5749 85.9201 63.84C85.9201 64.1051 85.7052 64.32 85.4401 64.32H10.5601C10.295 64.32 10.0801 64.1051 10.0801 63.84Z"
    fill="#45413C"
  />
  <path
    fill-rule="evenodd"
    clip-rule="evenodd"
    d="M5.75977 63.84C5.75977 63.5749 5.97467 63.36 6.23977 63.36H8.63977C8.90486 63.36 9.11977 63.5749 9.11977 63.84C9.11977 64.1051 8.90486 64.32 8.63977 64.32H6.23977C5.97467 64.32 5.75977 64.1051 5.75977 63.84Z"
    fill="#45413C"
  />
  <path
    fill-rule="evenodd"
    clip-rule="evenodd"
    d="M86.8799 63.84C86.8799 63.5749 87.0948 63.36 87.3599 63.36H89.7599C90.025 63.36 90.2399 63.5749 90.2399 63.84C90.2399 64.1051 90.025 64.32 89.7599 64.32H87.3599C87.0948 64.32 86.8799 64.1051 86.8799 63.84Z"
    fill="#45413C"
  />
  <path
    d="M77.7669 57.9273C77.7669 53.5763 76.0385 49.4035 72.9619 46.3269C69.8853 43.2503 65.7125 41.5219 61.3615 41.5219C57.0105 41.5219 52.8377 43.2503 49.7611 46.3269C46.6845 49.4035 44.9561 53.5763 44.9561 57.9273V65.8655H77.7669V57.9273Z"
    fill="#656769"
  />
  <path
    d="M61.3615 41.5219C57.0105 41.5219 52.8377 43.2503 49.7611 46.3269C46.6845 49.4035 44.9561 53.5763 44.9561 57.9273V62.6879C44.9561 58.3369 46.6845 54.1642 49.7611 51.0875C52.8377 48.0109 57.0105 46.2825 61.3615 46.2825C65.7125 46.2825 69.8853 48.0109 72.9619 51.0875C76.0385 54.1642 77.7669 58.3369 77.7669 62.6879V57.9273C77.7669 53.5763 76.0385 49.4035 72.9619 46.3269C69.8853 43.2503 65.7125 41.5219 61.3615 41.5219Z"
    fill="#87898C"
  />
  <path
    fill-rule="evenodd"
    clip-rule="evenodd"
    d="M49.4222 45.9875C52.5888 42.8209 56.8837 41.0419 61.362 41.0419C65.8403 41.0419 70.1352 42.8209 73.3018 45.9875C76.4684 49.1541 78.2474 53.449 78.2474 57.9273V65.8656C78.2474 66.1307 78.0325 66.3456 77.7674 66.3456H44.9566C44.6915 66.3456 44.4766 66.1307 44.4766 65.8656V57.9273C44.4766 53.449 46.2556 49.1541 49.4222 45.9875ZM61.362 42.0019C57.1383 42.0019 53.0876 43.6797 50.101 46.6663C47.1144 49.6529 45.4366 53.7036 45.4366 57.9273V65.3856H77.2874V57.9273C77.2874 53.7036 75.6096 49.6529 72.623 46.6663C69.6364 43.6797 65.5857 42.0019 61.362 42.0019Z"
    fill="#45413C"
  />
  <path
    fill-rule="evenodd"
    clip-rule="evenodd"
    d="M51.3071 55.8595C51.5722 55.8595 51.7871 56.0744 51.7871 56.3395V65.8656C51.7871 66.1307 51.5722 66.3456 51.3071 66.3456C51.0421 66.3456 50.8271 66.1307 50.8271 65.8656V56.3395C50.8271 56.0744 51.0421 55.8595 51.3071 55.8595Z"
    fill="#45413C"
  />
  <path
    fill-rule="evenodd"
    clip-rule="evenodd"
    d="M71.4175 55.8595C71.6826 55.8595 71.8975 56.0744 71.8975 56.3395V65.8656C71.8975 66.1307 71.6826 66.3456 71.4175 66.3456C71.1524 66.3456 70.9375 66.1307 70.9375 65.8656V56.3395C70.9375 56.0744 71.1524 55.8595 71.4175 55.8595Z"
    fill="#45413C"
  />
  <path
    opacity="0.15"
    d="M13.2041 71.1572C13.2041 71.5783 14.4865 71.9822 16.7692 72.2799C19.0518 72.5777 22.1478 72.745 25.3759 72.745C28.6041 72.745 31.7001 72.5777 33.9827 72.2799C36.2654 71.9822 37.5478 71.5783 37.5478 71.1572C37.5478 70.7361 36.2654 70.3322 33.9827 70.0344C31.7001 69.7366 28.6041 69.5693 25.3759 69.5693C22.1478 69.5693 19.0518 69.7366 16.7692 70.0344C14.4865 70.3322 13.2041 70.7361 13.2041 71.1572Z"
    fill="#45413C"
  />
  <path
    d="M34.1395 45.6959L36.7824 40.4102C36.8648 40.2487 36.9042 40.0688 36.8969 39.8877C36.8897 39.7066 36.8359 39.5304 36.7408 39.3761C36.6457 39.2218 36.5125 39.0946 36.354 39.0067C36.1955 38.9188 36.0171 38.8731 35.8358 38.8742H32.352C32.1617 38.8739 31.9749 38.9251 31.8114 39.0223C31.6478 39.1194 31.5135 39.259 31.4227 39.4262L29.0938 43.6962C30.9324 43.8663 32.6836 44.5603 34.1395 45.6959Z"
    fill="#00B8F0"
  />
  <path
    d="M40.4161 52.5619L36.8843 39.7132C36.8152 39.3907 36.7364 39.3782 36.7364 39.3782C36.8311 39.5318 36.885 39.707 36.8931 39.8872C36.9011 40.0675 36.8631 40.2468 36.7825 40.4083L34.1396 45.6959C34.3723 45.9047 34.5599 46.1587 34.6909 46.4425C34.822 46.7262 34.8938 47.0337 34.9019 47.3462V47.8751L37.2251 53.4508C37.3167 53.6716 37.4805 53.8549 37.6898 53.9705C37.8991 54.0861 38.1414 54.1273 38.3771 54.0873L39.5665 53.8895C39.7129 53.8655 39.8526 53.811 39.9765 53.7294C40.1004 53.6479 40.2057 53.5411 40.2856 53.4161C40.3655 53.2911 40.4181 53.1507 40.4401 53.004C40.4621 52.8573 40.453 52.7077 40.4132 52.5647L40.4161 52.5619Z"
    fill="#00B8F0"
  />
  <path
    d="M36.8843 39.7132C36.8152 39.3907 36.7364 39.3782 36.7364 39.3782C36.8311 39.5318 36.885 39.707 36.8931 39.8872C36.9011 40.0675 36.8631 40.2468 36.7825 40.4083L34.1396 45.6959C34.3723 45.9047 34.5599 46.1587 34.6909 46.4425C34.822 46.7262 34.8938 47.0337 34.9019 47.3462V47.8751L35.0382 48.2025L37.7339 42.8111L36.8843 39.7132Z"
    fill="#009FD9"
  />
  <path
    d="M30.5746 41.0151C30.7003 40.8393 30.8672 40.6972 31.0607 40.6011C31.2542 40.505 31.4684 40.458 31.6843 40.464H35.844C36.1251 40.4641 36.3999 40.548 36.6331 40.705L36.7819 40.4083C36.8643 40.2468 36.9038 40.0668 36.8965 39.8856C36.8891 39.7045 36.8353 39.5282 36.7401 39.3739C36.6449 39.2196 36.5115 39.0924 36.3529 39.0045C36.1943 38.9167 36.0157 38.8711 35.8344 38.8723H32.3515C32.1613 38.8721 31.9745 38.9233 31.8109 39.0204C31.6473 39.1176 31.513 39.2571 31.4222 39.4243L30.4814 41.1523L30.5746 41.0151Z"
    fill="#4ACFFF"
  />
  <path
    fill-rule="evenodd"
    clip-rule="evenodd"
    d="M35.8341 38.3942C36.0972 38.393 36.3563 38.4593 36.5864 38.587C36.8169 38.7148 37.0107 38.8999 37.149 39.1243C37.2873 39.3488 37.3655 39.605 37.3761 39.8684C37.3866 40.1311 37.3296 40.3921 37.2105 40.6264L34.5684 45.9106L34.139 45.6959L33.8438 46.0744C32.4603 44.9953 30.7962 44.3358 29.0491 44.1742C28.8882 44.1593 28.7456 44.0646 28.6697 43.922C28.5937 43.7794 28.5945 43.6082 28.6719 43.4664L31.0004 39.1971C31.0005 39.197 31.0004 39.1972 31.0004 39.1971C31.1325 38.9541 31.328 38.7508 31.5658 38.6096C31.8036 38.4683 32.0752 38.3939 32.3518 38.3942C32.3519 38.3942 32.3517 38.3942 32.3518 38.3942H35.8341ZM35.8341 38.3942C35.8336 38.3942 35.8331 38.3942 35.8326 38.3942L35.8354 38.8742V38.3942H35.8341ZM33.9643 44.9722L36.3544 40.192C36.3993 40.1039 36.4208 40.0058 36.4169 39.907C36.4129 39.8082 36.3836 39.7121 36.3317 39.628C36.2798 39.5438 36.2072 39.4744 36.1207 39.4265C36.0343 39.3785 35.9369 39.3536 35.8381 39.3542L35.8354 39.3542H32.3515C32.2477 39.3541 32.1453 39.382 32.056 39.435C31.9668 39.488 31.8936 39.5641 31.844 39.6553L31.8436 39.656L29.8508 43.3099C31.3273 43.5531 32.7324 44.1206 33.9643 44.9722Z"
    fill="#45413C"
  />
  <path
    fill-rule="evenodd"
    clip-rule="evenodd"
    d="M36.8111 38.9041L36.736 39.3782C36.8111 38.9041 36.812 38.9043 36.8129 38.9044L36.8147 38.9047L36.8183 38.9053L36.8255 38.9066C36.8303 38.9075 36.8352 38.9085 36.84 38.9096C36.8497 38.9118 36.8594 38.9142 36.8692 38.917C36.8887 38.9226 36.9081 38.9295 36.9271 38.9375C36.9654 38.9538 37.0009 38.9744 37.0334 38.9982C37.0979 39.0456 37.1476 39.1035 37.1861 39.1626C37.258 39.2729 37.3101 39.4164 37.3501 39.5986L40.8785 52.4347C40.8846 52.4568 40.889 52.4791 40.8919 52.5015C40.9353 52.6894 40.943 52.8841 40.9144 53.0752C40.8824 53.2886 40.8058 53.4929 40.6896 53.6747C40.5734 53.8565 40.4202 54.0117 40.24 54.1304C40.06 54.2489 39.857 54.3282 39.6444 54.3631C39.6441 54.3632 39.6439 54.3632 39.6437 54.3633L38.4569 54.5606C38.4566 54.5606 38.4563 54.5607 38.456 54.5607C38.1134 54.6186 37.7613 54.5587 37.4572 54.3906C37.153 54.2226 36.9148 53.9563 36.7815 53.6353C36.7814 53.6351 36.7815 53.6354 36.7815 53.6353L34.4584 48.0598C34.434 48.0013 34.4214 47.9385 34.4214 47.8752V47.3528C34.4143 47.1076 34.3576 46.8665 34.2547 46.6438C34.151 46.4193 34.0027 46.2184 33.8186 46.0532C33.6577 45.9088 33.6132 45.6747 33.7098 45.4814L36.3526 40.194C36.3526 40.1939 36.3526 40.194 36.3526 40.194C36.3966 40.1056 36.4175 40.0074 36.4131 39.9087C36.4087 39.81 36.3792 39.7141 36.3273 39.63C36.229 39.4704 36.2326 39.268 36.3366 39.112C36.4406 38.956 36.6259 38.8748 36.8111 38.9041ZM36.8402 41.3656L34.7205 45.6065C34.8836 45.7982 35.0202 46.0117 35.1262 46.2412C35.2847 46.5843 35.3715 46.956 35.3813 47.3338L35.3814 47.3462V47.7792L37.668 53.2669C37.718 53.3874 37.8073 53.4873 37.9215 53.5504C38.0356 53.6134 38.1678 53.6359 38.2964 53.6141L38.2979 53.6138L39.4874 53.4161L39.4885 53.4159C39.5683 53.4028 39.6445 53.373 39.7121 53.3286C39.7797 53.2841 39.8371 53.2258 39.8807 53.1577C39.9243 53.0895 39.953 53.0129 39.965 52.9329C39.977 52.8529 39.972 52.7712 39.9503 52.6933C39.9449 52.6739 39.9408 52.6544 39.9379 52.6349L36.8402 41.3656Z"
    fill="#45413C"
  />
  <path
    d="M16.0844 45.696L13.4396 40.4083C13.3572 40.2469 13.3178 40.067 13.3251 39.8859C13.3324 39.7048 13.3861 39.5286 13.4812 39.3743C13.5763 39.22 13.7095 39.0928 13.868 39.0049C14.0265 38.9169 14.2049 38.8713 14.3862 38.8723H17.8662C18.0564 38.8721 18.2432 38.9233 18.4068 39.0204C18.5704 39.1176 18.7047 39.2571 18.7955 39.4243L21.1244 43.6944C19.2876 43.8659 17.5384 44.5605 16.0844 45.696Z"
    fill="#00B8F0"
  />
  <path
    d="M15.3214 47.3433C15.3305 47.0194 15.4078 46.7011 15.5482 46.4092C15.6887 46.1172 15.8891 45.8581 16.1364 45.6489C16.1201 45.6643 16.1 45.6777 16.0846 45.694L13.4398 40.4083C13.3588 40.2469 13.3205 40.0675 13.3286 39.8872C13.3366 39.7069 13.3908 39.5316 13.4859 39.3782C13.4859 39.3782 13.4072 39.3907 13.338 39.7132L9.811 52.5618C9.77129 52.7048 9.76214 52.8545 9.78414 53.0011C9.80613 53.1478 9.85879 53.2882 9.93867 53.4132C10.0186 53.5382 10.1239 53.645 10.2478 53.7265C10.3717 53.8081 10.5113 53.8627 10.6577 53.8867L11.8472 54.0844C12.0829 54.1244 12.3252 54.0832 12.5344 53.9676C12.7437 53.852 12.9075 53.6688 12.9992 53.4479L15.3224 47.8723L15.3214 47.3433Z"
    fill="#00B8F0"
  />
  <path
    d="M15.3212 47.3433C15.3303 47.0194 15.4076 46.7011 15.548 46.4092C15.6885 46.1172 15.8889 45.8581 16.1363 45.6489C16.1199 45.6643 16.0998 45.6777 16.0844 45.694L13.4396 40.4083C13.3586 40.2469 13.3203 40.0675 13.3284 39.8872C13.3365 39.7069 13.3906 39.5316 13.4857 39.3782C13.4857 39.3782 13.407 39.3907 13.3379 39.7132L12.4873 42.8083L15.183 48.1996L15.3193 47.8723L15.3212 47.3433Z"
    fill="#009FD9"
  />
  <path
    d="M19.6479 41.015C19.5223 40.8393 19.3554 40.6971 19.1618 40.601C18.9683 40.5049 18.7542 40.4579 18.5382 40.464H14.3795C14.098 40.464 13.8229 40.5479 13.5894 40.705L13.4396 40.4083C13.3572 40.2469 13.3178 40.067 13.3251 39.8859C13.3324 39.7048 13.3861 39.5286 13.4812 39.3743C13.5763 39.22 13.7095 39.0928 13.868 39.0049C14.0265 38.9169 14.2049 38.8713 14.3862 38.8723H17.8662C18.0564 38.8721 18.2432 38.9233 18.4068 39.0204C18.5704 39.1176 18.7047 39.2571 18.7955 39.4243L19.7372 41.1523L19.6479 41.015Z"
    fill="#4ACFFF"
  />
  <path
    fill-rule="evenodd"
    clip-rule="evenodd"
    d="M14.384 39.3523C14.2851 39.3518 14.1878 39.3767 14.1013 39.4246C14.0149 39.4726 13.9422 39.542 13.8904 39.6261C13.8385 39.7103 13.8092 39.8064 13.8052 39.9052C13.8012 40.004 13.8227 40.1021 13.8677 40.1902L13.8694 40.1936L16.2595 44.972C17.4896 44.1207 18.8929 43.5528 20.3678 43.3086L18.3746 39.6542L18.3742 39.6534C18.3246 39.5622 18.2514 39.4861 18.1622 39.4331C18.0729 39.3801 17.9711 39.3522 17.8673 39.3524L14.384 39.3523ZM16.0849 45.696L15.6556 45.9108L13.0116 40.6246C12.8924 40.3903 12.8354 40.1293 12.846 39.8666C12.8566 39.6032 12.9348 39.3469 13.0731 39.1225C13.2114 38.8981 13.4051 38.713 13.6357 38.5851C13.8658 38.4575 14.1248 38.3911 14.3879 38.3924C14.3884 38.3924 14.3889 38.3924 14.3894 38.3924L14.3867 38.8724V38.3924H14.3879H17.8664C17.8665 38.3924 17.8663 38.3924 17.8664 38.3924M19.2178 39.1953L21.5463 43.4646C21.6236 43.6063 21.6245 43.7775 21.5486 43.92C21.4728 44.0625 21.3303 44.1573 21.1695 44.1724C19.4241 44.3353 17.762 44.9954 16.3804 46.0743L16.0849 45.696M19.2178 39.1953C19.2179 39.1954 19.2177 39.1951 19.2178 39.1953V39.1953Z"
    fill="#45413C"
  />
  <path
    fill-rule="evenodd"
    clip-rule="evenodd"
    d="M13.4095 38.9044C13.4103 38.9043 13.4112 38.9041 13.4864 39.3782L13.8944 39.631C13.8425 39.7147 13.813 39.8103 13.8086 39.9087C13.8042 40.0071 13.8251 40.1049 13.8693 40.1929L16.5144 45.4793L16.1492 45.662L16.4659 45.9985C16.4518 46.0118 16.4391 46.0225 16.4308 46.0294L16.4268 46.0327C16.2402 46.1953 16.0886 46.3941 15.9813 46.6173C15.8711 46.8464 15.81 47.096 15.8019 47.35L15.8029 47.8714C15.803 47.9351 15.7904 47.9981 15.7659 48.0569L13.443 53.6319C13.443 53.6321 13.4431 53.6317 13.443 53.6319C13.3097 53.9529 13.0713 54.2197 12.7671 54.3878C12.463 54.5558 12.1109 54.6157 11.7683 54.5578C11.768 54.5578 11.7677 54.5577 11.7674 54.5577L10.5806 54.3604C10.5804 54.3603 10.5808 54.3604 10.5806 54.3604C10.368 54.3254 10.1643 54.246 9.98432 54.1275C9.80411 54.0088 9.65092 53.8536 9.53473 53.6718C9.41854 53.49 9.34195 53.2857 9.30995 53.0724C9.278 52.8593 9.29124 52.6418 9.34882 52.4341C9.34889 52.4339 9.34896 52.4336 9.34903 52.4334L12.8722 39.5987C12.9123 39.4165 12.9644 39.2729 13.0363 39.1626C13.0748 39.1035 13.1245 39.0456 13.189 38.9983C13.2215 38.9744 13.257 38.9538 13.2953 38.9376C13.3143 38.9295 13.3337 38.9226 13.3532 38.917C13.3629 38.9142 13.3727 38.9118 13.3824 38.9096C13.3872 38.9085 13.392 38.9076 13.3969 38.9066L13.4041 38.9053L13.4077 38.9047L13.4095 38.9044ZM13.3827 41.3658L10.2744 52.689L10.274 52.6904C10.2523 52.7683 10.2473 52.85 10.2593 52.93C10.2713 53.01 10.3001 53.0866 10.3436 53.1548C10.3872 53.223 10.4446 53.2812 10.5122 53.3257C10.5798 53.3702 10.656 53.3999 10.7358 53.413L10.737 53.4132L11.9264 53.611L11.9279 53.6112C12.0565 53.633 12.1887 53.6106 12.3028 53.5475C12.417 53.4844 12.5063 53.3845 12.5563 53.264L14.8427 47.7767L14.8419 47.3442C14.8419 47.3394 14.842 47.3347 14.8421 47.3299C14.8531 46.9385 14.9465 46.5539 15.1162 46.2011C15.2196 45.9861 15.35 45.7858 15.5038 45.6049L13.3827 41.3658Z"
    fill="#45413C"
  />
  <path
    d="M12.1999 54.0835C12.0833 54.1032 11.9642 54.1032 11.8476 54.0835L10.6562 53.8867C10.4235 53.8409 10.2133 53.7173 10.0601 53.5363C10.0408 53.6145 10.0311 53.6947 10.0313 53.7753C10.0543 54.0806 10.662 61.1308 15.3199 62.5651V60.2812C13.0821 59.0447 12.3842 55.3919 12.1999 54.0835Z"
    fill="#00B8F0"
  />
  <path
    fill-rule="evenodd"
    clip-rule="evenodd"
    d="M9.94992 53.069C10.1255 53.0278 10.3094 53.0885 10.426 53.2262C10.5075 53.3225 10.6189 53.3888 10.7423 53.4145L11.9272 53.6102C11.9908 53.621 12.0557 53.621 12.1193 53.6102C12.2471 53.5886 12.3782 53.6196 12.4828 53.6961C12.5874 53.7726 12.6567 53.8882 12.6747 54.0165C12.7645 54.6539 12.9786 55.8534 13.4369 57.0359C13.9009 58.2329 14.5817 59.3252 15.5516 59.8611C15.7045 59.9456 15.7994 60.1065 15.7994 60.2812V62.5651C15.7994 62.7174 15.7271 62.8607 15.6046 62.9512C15.482 63.0417 15.3238 63.0687 15.1782 63.0238C12.6316 62.2397 11.2408 59.9387 10.4872 57.9143C9.72756 55.8736 9.56516 53.9839 9.55214 53.8115C9.55126 53.7997 9.5508 53.7879 9.55078 53.7761C9.5506 53.6566 9.56494 53.5376 9.5935 53.4216C9.63661 53.2464 9.7743 53.1102 9.94992 53.069ZM10.5817 54.361C10.6825 55.0713 10.9091 56.296 11.3869 57.5794C12.0336 59.3169 13.1006 61.059 14.8394 61.8676V60.5524C13.7155 59.8204 12.9996 58.5639 12.5418 57.3828C12.1333 56.3289 11.9073 55.2744 11.7874 54.5601C11.7809 54.5591 11.7745 54.558 11.768 54.5569L10.5817 54.361Z"
    fill="#45413C"
  />
  <path
    d="M23.7886 43.4294V42.3158C23.7886 41.9649 23.928 41.6284 24.1761 41.3804C24.4241 41.1323 24.7606 40.9929 25.1115 40.9929C25.4623 40.9929 25.7988 41.1323 26.0469 41.3804C26.295 41.6284 26.4344 41.9649 26.4344 42.3158V43.4265C27.1553 43.4601 27.8657 43.5225 28.5464 43.6185V42.3158C28.5464 41.4035 28.184 40.5286 27.5389 39.8836C26.8938 39.2385 26.0189 38.8761 25.1067 38.8761C24.1944 38.8761 23.3195 39.2385 22.6745 39.8836C22.0294 40.5286 21.667 41.4035 21.667 42.3158V43.6233C22.3572 43.5292 23.0676 43.4659 23.7886 43.4294Z"
    fill="#00B8F0"
  />
  <path
    fill-rule="evenodd"
    clip-rule="evenodd"
    d="M22.3346 39.5442C23.0697 38.8091 24.0666 38.3961 25.1062 38.3961C26.1458 38.3961 27.1428 38.8091 27.8778 39.5442C28.6129 40.2793 29.0259 41.2762 29.0259 42.3158V43.6185C29.0259 43.7575 28.9656 43.8897 28.8607 43.9809C28.7558 44.072 28.6165 44.1132 28.4788 44.0938C27.8151 44.0002 27.1198 43.939 26.4115 43.906C26.1554 43.8941 25.9539 43.6829 25.9539 43.4265V42.3158C25.9539 42.0923 25.8651 41.8779 25.707 41.7198C25.5489 41.5617 25.3345 41.4729 25.111 41.4729C24.8875 41.4729 24.6731 41.5617 24.515 41.7198C24.3569 41.8779 24.2681 42.0923 24.2681 42.3158V43.4294C24.2681 43.6851 24.0677 43.8959 23.8124 43.9088C23.1034 43.9447 22.4066 44.0069 21.7313 44.0989C21.594 44.1176 21.4553 44.0761 21.3509 43.9849C21.2464 43.8938 21.1865 43.7619 21.1865 43.6233V42.3158C21.1865 41.2762 21.5995 40.2793 22.3346 39.5442ZM25.1062 39.3561C24.3212 39.3561 23.5684 39.6679 23.0134 40.223C22.4583 40.778 22.1465 41.5308 22.1465 42.3158V43.0801C22.5295 43.0371 22.9173 43.0028 23.3081 42.9767V42.3158C23.3081 41.8376 23.4981 41.3791 23.8362 41.041C24.1743 40.7029 24.6329 40.5129 25.111 40.5129C25.5892 40.5129 26.0477 40.7029 26.3858 41.041C26.7239 41.3791 26.9139 41.8376 26.9139 42.3158V42.9723C27.3024 42.9972 27.6874 43.0307 28.0659 43.0737V42.3158C28.0659 41.5308 27.7541 40.778 27.199 40.223C26.644 39.6679 25.8912 39.3561 25.1062 39.3561Z"
    fill="#45413C"
  />
  <path
    d="M34.9014 66.3945C34.9014 71.639 15.3174 71.688 15.3174 66.3945V47.3433C15.3174 42.0989 34.9014 42.0499 34.9014 47.3433V66.3945Z"
    fill="#00B8F0"
  />
  <path
    fill-rule="evenodd"
    clip-rule="evenodd"
    d="M16.4845 45.9737C16.0206 46.4006 15.7979 46.8549 15.7979 47.3434V66.3946C15.7979 66.8906 16.0219 67.3487 16.4852 67.777C16.9558 68.212 17.6552 68.5964 18.5398 68.9134C20.3069 69.5465 22.6956 69.8693 25.1093 69.8663C27.5229 69.8633 29.912 69.5346 31.6796 68.8997C32.5646 68.5819 33.2644 68.1977 33.7353 67.7643C34.1992 67.3373 34.4219 66.8831 34.4219 66.3946V47.3434C34.4219 46.8473 34.1978 46.3892 33.7346 45.9609C33.264 45.5259 32.5646 45.1415 31.68 44.8246C29.9129 44.1914 27.5242 43.8686 25.1105 43.8716C22.6968 43.8747 20.3078 44.2034 18.5401 44.8382C17.6552 45.156 16.9554 45.5402 16.4845 45.9737ZM34.3862 45.256C34.9939 45.8178 35.3819 46.516 35.3819 47.3434V66.3946C35.3819 67.2172 34.9926 67.9117 34.3855 68.4706C33.7854 69.023 32.9552 69.4617 32.0041 69.8032C30.0998 70.4871 27.5928 70.8232 25.1105 70.8263C22.6282 70.8294 20.1209 70.4996 18.216 69.8171C17.2646 69.4762 16.434 69.037 15.8336 68.4819C15.2258 67.9202 14.8379 67.2219 14.8379 66.3946V47.3434C14.8379 46.5207 15.2272 45.8262 15.8343 45.2673C16.4344 44.715 17.2646 44.2763 18.2156 43.9347C20.12 43.2508 22.6269 42.9147 25.1093 42.9116C27.5916 42.9085 30.0989 43.2383 32.0038 43.9208C32.9552 44.2617 33.7858 44.701 34.3862 45.256Z"
    fill="#45413C"
  />
  <path
    d="M39.565 53.8867L38.3756 54.0844C38.2593 54.1041 38.1405 54.1041 38.0242 54.0844C37.8418 55.3881 37.141 59.0457 34.9014 60.2822V62.566C39.5602 61.1318 40.167 54.0815 40.191 53.7763C40.1908 53.6957 40.1808 53.6154 40.1612 53.5372C40.0082 53.7183 39.7978 53.8416 39.565 53.8867Z"
    fill="#00B8F0"
  />
  <path
    fill-rule="evenodd"
    clip-rule="evenodd"
    d="M40.2703 53.0697C40.4457 53.1104 40.5836 53.246 40.6273 53.4207C40.6564 53.5366 40.6712 53.6556 40.6715 53.7751C40.6715 53.7881 40.671 53.801 40.67 53.8139C40.6566 53.9846 40.4943 55.8744 39.7346 57.9153C38.981 59.9397 37.5901 62.2407 35.0431 63.0248C34.8975 63.0696 34.7393 63.0427 34.6167 62.9522C34.4942 62.8617 34.4219 62.7184 34.4219 62.5661V60.2822C34.4219 60.1074 34.5169 59.9465 34.6699 59.862C35.6407 59.3261 36.3226 58.2326 36.7873 57.0349C37.2463 55.8518 37.4606 54.6523 37.5494 54.018C37.5673 53.8896 37.6365 53.7739 37.7411 53.6973C37.8456 53.6206 37.9768 53.5896 38.1046 53.6112C38.168 53.6219 38.2328 53.6219 38.2963 53.6112L38.2974 53.611L39.4796 53.4144C39.6028 53.3894 39.7139 53.3235 39.7951 53.2275C39.9113 53.0899 40.0948 53.029 40.2703 53.0697ZM39.5656 53.8867L39.6422 54.3478C39.644 54.3351 39.6458 54.3226 39.6475 54.3102L39.5656 53.8867ZM39.6404 54.3609L38.456 54.5578C38.4557 54.5578 38.4555 54.5579 38.4553 54.5579C38.4492 54.5589 38.4431 54.5599 38.437 54.5609C38.3175 55.2741 38.0912 56.3283 37.6823 57.3822C37.2239 58.5637 36.5068 59.8214 35.3819 60.5535V61.8686C37.1211 61.06 38.1881 59.3179 38.8349 57.5804C39.3128 56.2966 39.5395 55.0716 39.6404 54.3609Z"
    fill="#45413C"
  />
  <path
    fill-rule="evenodd"
    clip-rule="evenodd"
    d="M33.9794 44.9248C34.207 45.0607 34.2813 45.3554 34.1454 45.583L32.5767 48.2096C32.4408 48.4372 32.1461 48.5115 31.9185 48.3755C31.6909 48.2396 31.6166 47.9449 31.7525 47.7173L33.3212 45.0908C33.4571 44.8632 33.7518 44.7889 33.9794 44.9248Z"
    fill="#45413C"
  />
  <path
    fill-rule="evenodd"
    clip-rule="evenodd"
    d="M16.2519 44.9323C16.4796 44.7965 16.7742 44.8711 16.91 45.0988L18.4709 47.7177C18.6067 47.9454 18.5321 48.24 18.3044 48.3758C18.0767 48.5115 17.782 48.4369 17.6463 48.2092L16.0853 45.5903C15.9496 45.3626 16.0242 45.068 16.2519 44.9323Z"
    fill="#45413C"
  />
  <path
    fill-rule="evenodd"
    clip-rule="evenodd"
    d="M31.9189 65.3621C32.1466 65.2263 32.4412 65.3009 32.577 65.5286L34.1379 68.1475C34.2736 68.3752 34.1991 68.6699 33.9714 68.8056C33.7436 68.9413 33.449 68.8667 33.3133 68.639L31.7523 66.0201C31.6166 65.7924 31.6912 65.4978 31.9189 65.3621Z"
    fill="#45413C"
  />
  <path
    fill-rule="evenodd"
    clip-rule="evenodd"
    d="M18.3045 65.3622C18.5321 65.4981 18.6065 65.7928 18.4707 66.0204L16.903 68.6469C16.7671 68.8746 16.4724 68.949 16.2448 68.8131C16.0172 68.6772 15.9428 68.3826 16.0786 68.1549L17.6463 65.5284C17.7822 65.3007 18.0769 65.2264 18.3045 65.3622Z"
    fill="#45413C"
  />
  <path
    d="M17.4385 64.2778C17.4385 64.5555 17.4933 64.8305 17.5997 65.0871C17.7061 65.3436 17.8621 65.5767 18.0588 65.7729C18.2554 65.969 18.4888 66.1245 18.7456 66.2304C19.0024 66.3362 19.2775 66.3904 19.5553 66.3898H30.6682C30.946 66.3904 31.2211 66.3362 31.4779 66.2304C31.7347 66.1245 31.9681 65.969 32.1647 65.7729C32.3614 65.5767 32.5174 65.3436 32.6238 65.0871C32.7302 64.8305 32.785 64.5555 32.785 64.2778V53.1648H17.4385V64.2778Z"
    fill="#00B8F0"
  />
  <path
    fill-rule="evenodd"
    clip-rule="evenodd"
    d="M16.958 53.1648C16.958 52.8997 17.1729 52.6848 17.438 52.6848H32.7846C33.0497 52.6848 33.2646 52.8997 33.2646 53.1648V64.2778C33.2646 64.6187 33.1973 64.9562 33.0667 65.271C32.9361 65.5859 32.7446 65.8719 32.5033 66.1127C32.262 66.3534 31.9756 66.5442 31.6604 66.6742C31.3454 66.804 31.008 66.8705 30.6673 66.8698H30.6678V66.3898L30.6667 66.8698M19.5559 66.8698L19.5548 66.3898V66.8698H19.5553C19.2146 66.8705 18.8771 66.804 18.5622 66.6742C18.247 66.5442 17.9606 66.3534 17.7193 66.1127C17.478 65.8719 17.2865 65.5859 17.1559 65.271C17.0252 64.9562 16.958 64.6187 16.958 64.2778V53.1648M17.918 53.6448V64.2778C17.918 64.4924 17.9603 64.7049 18.0426 64.9032C18.1248 65.1014 18.2454 65.2815 18.3973 65.4331C18.5493 65.5847 18.7296 65.7048 18.928 65.7866C19.1265 65.8684 19.3391 65.9103 19.5537 65.9098L19.5548 65.9098L30.6678 65.9098L30.6689 65.9098C30.8835 65.9103 31.0961 65.8684 31.2945 65.7866C31.493 65.7048 31.6733 65.5847 31.8253 65.4331C31.9772 65.2815 32.0977 65.1014 32.18 64.9032C32.2622 64.7049 32.3046 64.4924 32.3046 64.2778V53.6448H17.918Z"
    fill="#45413C"
  />
  <path
    d="M30.6682 47.3433H19.5553C19.2775 47.3426 19.0024 47.3968 18.7456 47.5027C18.4888 47.6085 18.2554 47.764 18.0588 47.9602C17.8621 48.1563 17.7061 48.3894 17.5997 48.6459C17.4933 48.9025 17.4385 49.1775 17.4385 49.4553V53.1647H32.785V49.4601C32.7857 49.1819 32.7313 48.9064 32.6252 48.6493C32.519 48.3921 32.3631 48.1585 32.1665 47.9618C31.9698 47.7652 31.7362 47.6093 31.479 47.5031C31.2219 47.397 30.9464 47.3426 30.6682 47.3433Z"
    fill="#4ACFFF"
  />
  <path
    fill-rule="evenodd"
    clip-rule="evenodd"
    d="M18.5626 47.0589C18.8776 46.9291 19.2151 46.8626 19.5558 46.8633C19.556 46.8633 19.5556 46.8633 19.5558 46.8633H30.6677C30.6679 46.8633 30.6675 46.8633 30.6677 46.8633L30.6682 47.3433V47.8233H19.5542C19.3396 47.8228 19.1269 47.8647 18.9285 47.9464C18.7301 48.0282 18.5497 48.1484 18.3978 48.3C18.2458 48.4516 18.1253 48.6316 18.0431 48.8299C17.9608 49.0281 17.9185 49.2407 17.9185 49.4553V52.6847H17.4385V53.1647H17.9185V52.6847H32.305V53.1647H32.785V52.6847H32.305V49.4601L32.305 49.459C32.3055 49.2441 32.2635 49.0311 32.1815 48.8325C32.0995 48.6338 31.979 48.4533 31.827 48.3013C31.675 48.1493 31.4945 48.0288 31.2959 47.9468C31.0972 47.8648 30.8843 47.8228 30.6693 47.8233L30.6682 47.3433L30.6677 46.8633C31.0089 46.8626 31.3469 46.9292 31.6622 47.0595C31.9778 47.1897 32.2645 47.3811 32.5059 47.6225C32.7473 47.8638 32.9386 48.1505 33.0689 48.4661C33.1991 48.7814 33.2657 49.1194 33.265 49.4606"
    fill="#45413C"
  />
  <path d="M17.4385 53.1648H32.785V55.2816H17.4385V53.1648Z" fill="#80DDFF" />
  <path
    fill-rule="evenodd"
    clip-rule="evenodd"
    d="M16.958 53.1648C16.958 52.8997 17.1729 52.6848 17.438 52.6848H32.7846C33.0497 52.6848 33.2646 52.8997 33.2646 53.1648V55.2816C33.2646 55.5467 33.0497 55.7616 32.7846 55.7616H17.438C17.1729 55.7616 16.958 55.5467 16.958 55.2816V53.1648ZM17.918 53.6448V54.8016H32.3046V53.6448H17.918Z"
    fill="#45413C"
  />
  <path
    fill-rule="evenodd"
    clip-rule="evenodd"
    d="M25.4233 43.0276C25.6245 43.2002 25.6478 43.5032 25.4752 43.7044L23.8874 45.5563C23.7148 45.7575 23.4118 45.7808 23.2105 45.6082C23.0093 45.4357 22.986 45.1326 23.1586 44.9314L24.7464 43.0796C24.919 42.8783 25.222 42.855 25.4233 43.0276Z"
    fill="#45413C"
  />
  <path
    fill-rule="evenodd"
    clip-rule="evenodd"
    d="M24.7984 43.0276C24.9997 42.855 25.3027 42.8783 25.4753 43.0796L27.0631 44.9314C27.2357 45.1326 27.2124 45.4357 27.0111 45.6082C26.8099 45.7808 26.5069 45.7575 26.3343 45.5563L24.7465 43.7044C24.5739 43.5032 24.5972 43.2002 24.7984 43.0276Z"
    fill="#45413C"
  />
  <path d="M20.6143 53.1648H22.7311V55.2816H20.6143V53.1648Z" fill="#009FD9" />
  <path
    fill-rule="evenodd"
    clip-rule="evenodd"
    d="M20.1338 53.1648C20.1338 52.8997 20.3487 52.6848 20.6138 52.6848H22.7306C22.9957 52.6848 23.2106 52.8997 23.2106 53.1648V55.2816C23.2106 55.5467 22.9957 55.7616 22.7306 55.7616H20.6138C20.3487 55.7616 20.1338 55.5467 20.1338 55.2816V53.1648ZM21.0938 53.6448V54.8016H22.2506V53.6448H21.0938Z"
    fill="#45413C"
  />
  <path
    fill-rule="evenodd"
    clip-rule="evenodd"
    d="M21.6714 54.8015C21.9365 54.8015 22.1514 55.0164 22.1514 55.2815V57.3983C22.1514 57.6634 21.9365 57.8783 21.6714 57.8783C21.4063 57.8783 21.1914 57.6634 21.1914 57.3983V55.2815C21.1914 55.0164 21.4063 54.8015 21.6714 54.8015Z"
    fill="#45413C"
  />
  <path
    fill-rule="evenodd"
    clip-rule="evenodd"
    d="M26.4844 63.7488C26.4844 63.4837 26.6993 63.2688 26.9644 63.2688H29.6101C29.8752 63.2688 30.0901 63.4837 30.0901 63.7488C30.0901 64.0139 29.8752 64.2288 29.6101 64.2288H26.9644C26.6993 64.2288 26.4844 64.0139 26.4844 63.7488Z"
    fill="#45413C"
  />
  <path
    d="M69.8507 43.8931C69.4277 45.3037 68.7946 46.6425 67.9729 47.8646C66.9733 49.3904 65.7669 50.7703 64.3883 51.9648C63.1403 53.0448 61.3624 54.9993 61.3624 57.3984C61.3624 55.0137 59.6075 53.0678 58.3576 51.984C56.9576 50.767 55.7335 49.3616 54.7201 47.808C53.9275 46.6241 53.3129 45.3303 52.8961 43.968C52.8856 43.9468 52.8856 43.9152 52.875 43.894C55.4346 42.3429 58.3704 41.5228 61.3633 41.5228C64.3563 41.5228 67.292 42.3429 69.8516 43.894L69.8507 43.8931Z"
    fill="#FF6242"
  />
  <path
    fill-rule="evenodd"
    clip-rule="evenodd"
    d="M53.4458 44.1143C53.8452 45.3267 54.4079 46.4795 55.1186 47.5409L55.1218 47.5457L55.1218 47.5458C56.1108 49.0621 57.3055 50.4338 58.6719 51.6215C59.5421 52.3762 60.7146 53.5908 61.3621 55.1246C62.0156 53.5776 63.2032 52.3553 64.0736 51.602C65.4187 50.4366 66.5957 49.0903 67.571 47.6016L67.5742 47.5968L67.5742 47.5968C68.2992 46.5185 68.8723 45.3463 69.278 44.1132C66.8712 42.7315 64.1425 42.0028 61.3629 42.0028C58.5826 42.0028 55.8531 42.7319 53.4458 44.1143ZM70.0833 43.4735C67.4526 41.8834 64.4371 41.0428 61.3629 41.0428C58.2823 41.0428 55.2605 41.887 52.6258 43.4836C52.4328 43.6005 52.35 43.8336 52.418 44.0424C52.4199 44.0509 52.4223 44.0616 52.4253 44.0726C52.4288 44.0861 52.4343 44.1054 52.4428 44.1283C52.873 45.5274 53.5051 46.8562 54.3193 48.0726C55.3566 49.6626 56.6095 51.1008 58.0423 52.3462L58.0427 52.3466C59.2771 53.417 60.882 55.2388 60.882 57.3984C60.882 57.6635 61.0969 57.8784 61.362 57.8784C61.6271 57.8784 61.842 57.6635 61.842 57.3984C61.842 55.2255 63.4683 53.3954 64.702 52.3277L64.7022 52.3276C66.1137 51.1047 67.3488 49.6921 68.3724 48.1301C69.2135 46.8787 69.8631 45.5088 70.2996 44.0657C70.3658 43.8928 70.3276 43.6916 70.1907 43.5547L70.1897 43.5537C70.1577 43.5217 70.1218 43.4948 70.0833 43.4735Z"
    fill="#45413C"
  />
  <path
    d="M50.9479 44.8771C50.9987 44.9606 51.0611 45.0441 51.1159 45.1276C54.0209 42.7939 57.6356 41.5218 61.3619 41.5218C65.0883 41.5218 68.703 42.7939 71.608 45.1276C71.6627 45.0441 71.7251 44.9606 71.776 44.8771C71.7971 44.8454 71.8183 44.8032 71.8394 44.7715C73.2892 42.3732 74.0579 39.6251 74.0627 36.8227V24.0547C74.0627 20.6862 72.7246 17.4557 70.3428 15.0739C67.9609 12.692 64.7304 11.3539 61.3619 11.3539C57.9935 11.3539 54.763 12.692 52.3811 15.0739C49.9992 17.4557 48.6611 20.6862 48.6611 24.0547V36.8227C48.665 39.6246 49.4319 42.3726 50.8797 44.7715C50.9047 44.8032 50.9258 44.8454 50.9479 44.8771Z"
    fill="#656769"
  />
  <path
    d="M65.0665 44.1676C64.5801 44.6543 64.0026 45.0404 63.3669 45.3038C62.7313 45.5672 62.0499 45.7027 61.3619 45.7027C60.6738 45.7027 59.9925 45.5672 59.3568 45.3038C58.7212 45.0404 58.1436 44.6543 57.6572 44.1676V38.3472H65.0665V44.1676Z"
    fill="#FFCEBF"
  />
  <path
    d="M57.6572 42.0364C60.0737 42.7622 62.6501 42.7622 65.0665 42.0364V38.3472H57.6572V42.0364Z"
    fill="#FFB59E"
  />
  <path
    fill-rule="evenodd"
    clip-rule="evenodd"
    d="M57.1777 38.3472C57.1777 38.0821 57.3926 37.8672 57.6577 37.8672H65.067C65.3321 37.8672 65.547 38.0821 65.547 38.3472V44.1677C65.547 44.2949 65.4965 44.417 65.4065 44.507C64.8755 45.0383 64.2451 45.4597 63.5512 45.7472C62.8573 46.0348 62.1135 46.1828 61.3624 46.1828C60.6112 46.1828 59.8675 46.0348 59.1736 45.7472C58.4797 45.4597 57.8492 45.0383 57.3182 44.507C57.2283 44.417 57.1777 44.2949 57.1777 44.1677V38.3472ZM58.1377 38.8272V43.9633C58.5488 44.3421 59.0237 44.646 59.5411 44.8603C60.1185 45.0996 60.7374 45.2228 61.3624 45.2228C61.9874 45.2228 62.6063 45.0996 63.1837 44.8603C63.701 44.646 64.176 44.3421 64.587 43.9633V38.8272H58.1377Z"
    fill="#45413C"
  />
  <path
    d="M71.9459 27.2333V24.5875C71.9459 21.7805 70.8308 19.0884 68.8459 17.1035C66.8611 15.1186 64.169 14.0035 61.3619 14.0035C58.5549 14.0035 55.8628 15.1186 53.8779 17.1035C51.893 19.0884 50.7779 21.7805 50.7779 24.5875V27.2333C50.2165 27.2333 49.6781 27.4563 49.2811 27.8533C48.8842 28.2503 48.6611 28.7887 48.6611 29.3501C48.6611 29.9115 48.8842 30.4499 49.2811 30.8469C49.6781 31.2439 50.2165 31.4669 50.7779 31.4669C50.8221 31.4669 50.8634 31.4573 50.9075 31.4544C51.282 33.9593 52.5433 36.2464 54.462 37.8996C56.3807 39.5529 58.8292 40.4622 61.3619 40.4622C63.8946 40.4622 66.3431 39.5529 68.2618 37.8996C70.1805 36.2464 71.4419 33.9593 71.8163 31.4544C71.8595 31.4544 71.9008 31.4669 71.9459 31.4669C72.5073 31.4669 73.0458 31.2439 73.4427 30.8469C73.8397 30.4499 74.0627 29.9115 74.0627 29.3501C74.0627 28.7887 73.8397 28.2503 73.4427 27.8533C73.0458 27.4563 72.5073 27.2333 71.9459 27.2333Z"
    fill="#FFCEBF"
  />
  <path
    fill-rule="evenodd"
    clip-rule="evenodd"
    d="M53.539 16.7641C55.6139 14.6892 58.4281 13.5236 61.3624 13.5236C64.2968 13.5236 67.111 14.6892 69.1859 16.7641C71.2608 18.839 72.4264 21.6532 72.4264 24.5876V26.7981C72.9366 26.894 73.4103 27.1416 73.7827 27.5139C74.2696 28.0009 74.5432 28.6614 74.5432 29.3501C74.5432 30.0388 74.2696 30.6993 73.7827 31.1863C73.3613 31.6077 72.81 31.8693 72.223 31.9322C71.7611 34.391 70.4771 36.6249 68.5757 38.2633C66.5698 39.9916 64.0101 40.9422 61.3624 40.9422C58.7147 40.9422 56.155 39.9916 54.1492 38.2633C52.2477 36.6249 50.9638 34.391 50.5019 31.9322C49.9149 31.8693 49.3636 31.6077 48.9422 31.1863C48.4552 30.6993 48.1816 30.0388 48.1816 29.3501C48.1816 28.6614 48.4552 28.0009 48.9422 27.5139C49.3145 27.1416 49.7882 26.894 50.2984 26.7981V24.5876C50.2984 21.6532 51.4641 18.839 53.539 16.7641ZM71.9464 27.2333H71.4664V24.5876C71.4664 21.9078 70.4019 19.3378 68.507 17.443C66.6122 15.5481 64.0422 14.4836 61.3624 14.4836C58.6827 14.4836 56.1127 15.5481 54.2178 17.443C52.323 19.3378 51.2584 21.9078 51.2584 24.5876V27.2333C51.2584 27.4984 51.0435 27.7133 50.7784 27.7133C50.3443 27.7133 49.928 27.8858 49.6211 28.1927C49.3141 28.4997 49.1416 28.916 49.1416 29.3501C49.1416 29.7842 49.3141 30.2006 49.6211 30.5075C49.9265 30.8129 50.3402 30.9852 50.772 30.9869C50.774 30.9867 50.7771 30.9863 50.7817 30.9857C50.7868 30.9851 50.8047 30.9827 50.8176 30.9811C50.8332 30.9792 50.8536 30.977 50.8768 30.9755C51.1259 30.9592 51.3459 31.1366 51.3828 31.3835C51.7402 33.7746 52.9443 35.9579 54.7759 37.536C56.6074 39.1142 58.9448 39.9822 61.3624 39.9822C63.7801 39.9822 66.1174 39.1142 67.949 37.536C69.7806 35.9579 70.9847 33.7746 71.3421 31.3835C71.3772 31.1484 71.5791 30.9744 71.8168 30.9744C71.8504 30.9744 71.8795 30.9769 71.9014 30.9793C71.9221 30.9815 71.9414 30.9844 71.9503 30.9857C71.9536 30.9862 71.9563 30.9866 71.9584 30.9869C72.3882 30.9837 72.7997 30.8116 73.1038 30.5075C73.4108 30.2006 73.5832 29.7842 73.5832 29.3501C73.5832 28.916 73.4108 28.4997 73.1038 28.1927C72.7969 27.8858 72.3805 27.7133 71.9464 27.7133V27.2333Z"
    fill="#45413C"
  />
  <path
    d="M53.9531 31.7318C53.9531 32.0827 54.0925 32.4191 54.3406 32.6672C54.5887 32.9153 54.9252 33.0547 55.276 33.0547C55.6269 33.0547 55.9633 32.9153 56.2114 32.6672C56.4595 32.4191 56.5989 32.0827 56.5989 31.7318C56.5989 31.381 56.4595 31.0445 56.2114 30.7964C55.9633 30.5483 55.6269 30.4089 55.276 30.4089C54.9252 30.4089 54.5887 30.5483 54.3406 30.7964C54.0925 31.0445 53.9531 31.381 53.9531 31.7318Z"
    fill="#FFB59E"
  />
  <path
    d="M66.124 31.7318C66.124 32.0827 66.2634 32.4191 66.5115 32.6672C66.7596 32.9153 67.0961 33.0547 67.4469 33.0547C67.7978 33.0547 68.1342 32.9153 68.3823 32.6672C68.6304 32.4191 68.7698 32.0827 68.7698 31.7318C68.7698 31.381 68.6304 31.0445 68.3823 30.7964C68.1342 30.5483 67.7978 30.4089 67.4469 30.4089C67.0961 30.4089 66.7596 30.5483 66.5115 30.7964C66.2634 31.0445 66.124 31.381 66.124 31.7318Z"
    fill="#FFB59E"
  />
  <path
    fill-rule="evenodd"
    clip-rule="evenodd"
    d="M57.8277 34.0888C58.0105 33.8968 58.3143 33.8894 58.5063 34.0722C59.2757 34.8048 60.2973 35.2134 61.3596 35.2134C62.422 35.2134 63.4436 34.8048 64.2129 34.0722C64.4049 33.8894 64.7087 33.8968 64.8916 34.0888C65.0744 34.2808 65.0669 34.5846 64.875 34.7674C63.9271 35.67 62.6685 36.1734 61.3596 36.1734C60.0508 36.1734 58.7921 35.67 57.8443 34.7674C57.6523 34.5846 57.6449 34.2808 57.8277 34.0888Z"
    fill="#45413C"
  />
  <path
    fill-rule="evenodd"
    clip-rule="evenodd"
    d="M64.3701 27.1239C64.7319 26.8838 65.1566 26.7557 65.5908 26.7557C66.0251 26.7557 66.4497 26.8838 66.8116 27.1239C67.1735 27.364 67.4565 27.7055 67.6253 28.1056C67.7283 28.3499 67.6138 28.6314 67.3696 28.7344C67.1253 28.8375 66.8438 28.723 66.7407 28.4787C66.6453 28.2525 66.4854 28.0595 66.2808 27.9238C66.0763 27.7881 65.8363 27.7157 65.5908 27.7157C65.3454 27.7157 65.1054 27.7881 64.9008 27.9238C64.6963 28.0595 64.5363 28.2525 64.4409 28.4787C64.3379 28.723 64.0564 28.8375 63.8121 28.7344C63.5679 28.6314 63.4534 28.3499 63.5564 28.1056C63.7252 27.7055 64.0082 27.364 64.3701 27.1239Z"
    fill="#45413C"
  />
  <path
    fill-rule="evenodd"
    clip-rule="evenodd"
    d="M55.8947 27.1246C56.2564 26.8847 56.6808 26.7568 57.1148 26.7568C57.5488 26.7568 57.9732 26.8847 58.3349 27.1246C58.6966 27.3644 58.9796 27.7055 59.1486 28.1053C59.2518 28.3494 59.1375 28.6311 58.8933 28.7343C58.6491 28.8375 58.3675 28.7232 58.2643 28.479C58.1688 28.253 58.0088 28.0602 57.8044 27.9247C57.5999 27.7891 57.3601 27.7168 57.1148 27.7168C56.8695 27.7168 56.6296 27.7891 56.4251 27.9247C56.2207 28.0602 56.0607 28.253 55.9652 28.479C55.862 28.7232 55.5804 28.8375 55.3362 28.7343C55.092 28.6311 54.9778 28.3494 55.081 28.1053C55.2499 27.7055 55.5329 27.3644 55.8947 27.1246Z"
    fill="#45413C"
  />
  <path
    d="M70.666 16.271C70.471 16.0969 70.3405 15.8622 70.2954 15.6048C70.2258 15.2784 70.1015 14.9661 69.9277 14.6812C67.7017 12.6431 64.8207 11.4675 61.8042 11.3664C61.6583 11.3664 61.5104 11.3606 61.3626 11.3606C61.2148 11.3606 61.0602 11.3606 60.9104 11.3664C57.8948 11.4703 55.0154 12.6483 52.7917 14.688C52.6197 14.9717 52.4973 15.2827 52.4298 15.6076C52.384 15.8648 52.2536 16.0993 52.0592 16.2739C51.3246 16.9232 50.7362 17.7211 50.3329 18.6147C49.9296 19.5084 49.7206 20.4774 49.7197 21.4579V26.1888C49.7205 26.4665 49.8312 26.7326 50.0277 26.9288C50.2241 27.1251 50.4903 27.2356 50.768 27.2361C50.9101 27.2354 51.0505 27.2065 51.1814 27.1513C51.3122 27.096 51.4308 27.0155 51.5304 26.9142C51.63 26.8129 51.7085 26.693 51.7616 26.5612C51.8146 26.4295 51.8411 26.2885 51.8394 26.1465C51.8442 24.8255 52.2303 23.5339 52.9513 22.427C53.6723 21.32 54.6977 20.4448 55.904 19.9065L56.602 19.8326C56.602 19.8326 58.714 19.8748 59.2487 21.4204C59.3496 21.6755 59.3942 21.9492 59.3797 22.2231C59.3651 22.497 59.2916 22.7644 59.1642 23.0073C59.1175 23.0804 59.0896 23.164 59.083 23.2505C59.0765 23.337 59.0915 23.4238 59.1267 23.5031C59.1618 23.5824 59.2161 23.6517 59.2847 23.7049C59.3532 23.7581 59.4339 23.7935 59.5194 23.808C59.9497 23.86 60.3861 23.8147 60.7965 23.6755C61.207 23.5363 61.5809 23.3066 61.8906 23.0035C62.2073 22.752 62.4612 22.4302 62.632 22.0636C62.8027 21.6971 62.8858 21.2957 62.8746 20.8915H62.9485C64.2925 20.8236 65.6096 20.4891 66.8231 19.9075C68.0292 20.446 69.0543 21.3213 69.7751 22.4282C70.496 23.5351 70.882 24.8266 70.8868 26.1475C70.8851 26.2893 70.9115 26.4301 70.9644 26.5617C71.0173 26.6934 71.0957 26.8132 71.1951 26.9145C71.2945 27.0157 71.4129 27.0963 71.5435 27.1517C71.6741 27.2071 71.8144 27.2361 71.9562 27.2371C72.2338 27.2363 72.4997 27.1257 72.696 26.9295C72.8922 26.7332 73.0028 26.4673 73.0036 26.1897V21.4579C73.0032 20.4771 72.7946 19.5076 72.3916 18.6135C71.9887 17.7193 71.4005 16.9209 70.666 16.271Z"
    fill="#FFDF3D"
  />
  <path
    fill-rule="evenodd"
    clip-rule="evenodd"
    d="M61.416 19.2988C61.416 19.0338 61.6309 18.8188 61.896 18.8188C62.3637 18.8188 62.7278 19.1666 62.9453 19.5013C63.1809 19.8639 63.3409 20.3456 63.3597 20.8684C63.3693 21.1333 63.1622 21.3559 62.8973 21.3654C62.6324 21.375 62.4099 21.1679 62.4003 20.903C62.3875 20.5474 62.2777 20.2357 62.1404 20.0245C62.0149 19.8315 61.9177 19.79 61.897 19.7812C61.8921 19.7791 61.8915 19.7788 61.896 19.7788C61.6309 19.7788 61.416 19.5639 61.416 19.2988Z"
    fill="#45413C"
  />
  <path
    fill-rule="evenodd"
    clip-rule="evenodd"
    d="M61.3589 10.8806H61.3631C61.442 10.8806 61.52 10.8821 61.5926 10.8836L61.594 10.8836C61.6685 10.885 61.7372 10.8864 61.8047 10.8864C61.8101 10.8864 61.8154 10.8865 61.8208 10.8866C64.9516 10.9916 67.9419 12.2118 70.2524 14.3272C70.2857 14.3577 70.3145 14.3927 70.338 14.4313C70.54 14.7624 70.6845 15.1253 70.7654 15.5047C70.7663 15.5092 70.7672 15.5136 70.768 15.5181C70.7683 15.5194 70.7685 15.5207 70.7687 15.522C70.7951 15.6727 70.8714 15.8102 70.9854 15.9122C70.9856 15.9125 70.9859 15.9127 70.9862 15.913L70.6665 16.2709L70.3484 16.6305C71.032 17.2354 71.5795 17.9785 71.9545 18.8107C72.3296 19.6429 72.5237 20.5451 72.5241 21.4579C72.5241 21.4578 72.5241 21.458 72.5241 21.4579L72.5241 26.1884C72.5241 26.1887 72.5241 26.1889 72.5241 26.1892C72.5235 26.3396 72.4634 26.4837 72.3571 26.5901C72.2511 26.6961 72.1076 26.756 71.9578 26.7571C71.8799 26.7562 71.803 26.7402 71.7313 26.7098C71.6589 26.6791 71.5933 26.6344 71.5382 26.5783C71.4831 26.5221 71.4396 26.4557 71.4103 26.3827C71.381 26.3098 71.3663 26.2317 71.3672 26.1531L71.3673 26.1457C71.3621 24.7324 70.9491 23.3506 70.1779 22.1663C69.4066 20.982 68.3098 20.0454 67.0193 19.4692C66.8906 19.4117 66.7432 19.4137 66.6161 19.4746C65.4636 20.027 64.213 20.3454 62.9368 20.4115H62.8751C62.7455 20.4115 62.6214 20.4639 62.531 20.5568C62.4407 20.6497 62.3917 20.7752 62.3953 20.9048C62.4045 21.2346 62.3367 21.5619 62.1974 21.861C62.058 22.16 61.851 22.4224 61.5927 22.6276C61.5797 22.6379 61.5672 22.6488 61.5554 22.6604C61.297 22.9133 60.9852 23.1048 60.6428 23.221C60.3058 23.3353 59.9478 23.3737 59.5944 23.3334C59.589 23.3318 59.584 23.3293 59.5795 23.3258C59.5736 23.3212 59.5689 23.3153 59.5659 23.3085C59.5629 23.3016 59.5616 23.2942 59.5622 23.2867C59.5627 23.2793 59.5651 23.2721 59.5692 23.2659C59.5765 23.2543 59.5834 23.2424 59.5898 23.2303C59.7492 22.9263 59.8412 22.5914 59.8595 22.2486C59.8776 21.9093 59.8229 21.5701 59.6994 21.2537C59.3601 20.286 58.5367 19.8175 57.8809 19.5928C57.5462 19.4782 57.2336 19.4188 57.0056 19.3878C56.891 19.3721 56.796 19.3635 56.7283 19.3587C56.6943 19.3562 56.6671 19.3548 56.6474 19.3539L56.6237 19.353L56.6164 19.3528L56.6138 19.3527L56.6129 19.3527C56.6127 19.3527 56.6121 19.3527 56.6025 19.8326L56.6121 19.3527C56.592 19.3523 56.5719 19.3532 56.5519 19.3553L55.854 19.4292C55.8039 19.4345 55.755 19.4477 55.709 19.4682C54.4182 20.0442 53.3211 20.9806 52.5496 22.165C51.7781 23.3494 51.365 24.7313 51.3599 26.1448L51.3599 26.1521C51.3609 26.2308 51.3462 26.309 51.3168 26.382C51.2874 26.455 51.2438 26.5215 51.1886 26.5777C51.1334 26.6338 51.0677 26.6785 50.9952 26.7091C50.9232 26.7395 50.8459 26.7555 50.7678 26.7561C50.6176 26.7554 50.4737 26.6955 50.3674 26.5893C50.2609 26.4829 50.2008 26.3386 50.2002 26.188V21.4581C50.2011 20.5457 50.3956 19.6438 50.771 18.8122C51.1463 17.9804 51.6939 17.2379 52.3776 16.6335L52.3806 16.6309C52.6525 16.3866 52.8357 16.059 52.9015 15.6995C52.9536 15.4517 53.044 15.2137 53.1692 14.9938C55.3013 13.061 58.0499 11.9453 60.9275 11.8461L60.9294 11.846C61.0684 11.8407 61.2136 11.8406 61.3631 11.8406C61.4316 11.8406 61.5008 11.8419 61.5753 11.8434L61.5781 11.8435C61.6475 11.8448 61.7218 11.8463 61.7964 11.8464C64.6722 11.9446 67.4195 13.0579 69.552 14.9878C69.6788 15.2088 69.7709 15.4481 69.8249 15.6974C69.8901 16.0573 70.0738 16.3853 70.3468 16.6291L70.6665 16.2709M56.6182 20.3136L56.0321 20.3757C54.9396 20.8786 54.011 21.6804 53.354 22.689C52.684 23.7176 52.325 24.9176 52.3199 26.1451C52.3217 26.349 52.2835 26.5513 52.2074 26.7405C52.1307 26.9309 52.0171 27.1044 51.8732 27.2507C51.7292 27.3971 51.5577 27.5136 51.3686 27.5935C51.1795 27.6734 50.9764 27.715 50.7711 27.7161L50.7677 27.7161C50.363 27.7154 49.9752 27.5544 49.6889 27.2684C49.4027 26.9824 49.2413 26.5947 49.2402 26.1901L49.2402 26.1888V21.4579C49.2412 20.4095 49.4647 19.3729 49.8959 18.4173C50.3269 17.4624 50.9555 16.6098 51.7402 15.9157C51.8542 15.8128 51.9308 15.6747 51.9578 15.5234L51.9604 15.51C52.039 15.1317 52.1815 14.7696 52.3817 14.4392C52.4053 14.4003 52.4343 14.365 52.4678 14.3342C54.7756 12.2174 57.7638 10.9948 60.8935 10.8867C61.0522 10.8806 61.2141 10.8806 61.3589 10.8806M56.6182 20.3136C56.6291 20.3142 56.6433 20.315 56.6603 20.3162C56.7101 20.3198 56.7843 20.3265 56.876 20.339C57.0608 20.3641 57.3095 20.4119 57.5698 20.501C58.1014 20.6831 58.5979 21.0061 58.7956 21.5774C58.7979 21.584 58.8003 21.5905 58.8028 21.597C58.8783 21.7878 58.9118 21.9927 58.9008 22.1976C58.8902 22.3973 58.8377 22.5924 58.7469 22.7703C58.6655 22.905 58.6168 23.0571 58.6049 23.2142C58.5924 23.3798 58.6211 23.546 58.6884 23.6978C58.7558 23.8496 58.8597 23.9823 58.9908 24.0841C59.122 24.186 59.2764 24.2537 59.4402 24.2813C59.4475 24.2825 59.4549 24.2836 59.4623 24.2845C59.9639 24.3452 60.4728 24.2924 60.9513 24.1301C61.4219 23.9704 61.8514 23.7087 62.2091 23.3638C62.5751 23.0683 62.8688 22.693 63.0676 22.2664C63.2035 21.9746 63.2925 21.6642 63.3323 21.3466C64.539 21.2446 65.7198 20.9371 66.8235 20.4371C67.8605 20.9429 68.7423 21.7211 69.3734 22.6902C70.0432 23.7187 70.4022 24.9186 70.4073 26.146"
    fill="#45413C"
  />
  <path
    d="M61.3619 11.3655C59.6945 11.3648 58.0433 11.6927 56.5026 12.3303C54.9619 12.9678 53.5618 13.9026 52.3824 15.0813C51.203 16.26 50.2673 17.6595 49.6288 19.1998C48.9903 20.7402 48.6615 22.3912 48.6611 24.0586V36.8266C48.6656 39.6272 49.4326 42.3738 50.8797 44.7716C50.9008 44.8032 50.9219 44.8455 50.944 44.8772C52.49 47.2606 54.5687 49.2521 57.016 50.6948C56.1625 49.806 55.3937 48.8396 54.7197 47.808C53.927 46.6242 53.3125 45.3304 52.8957 43.968C51.7514 40.8605 52.72 32.7744 52.8957 27.7642C53.0128 24.4215 53.9517 17.7092 61.3629 17.7092C68.7741 17.7092 69.7149 24.4215 69.8301 27.7642C70.0048 32.7744 70.9744 40.8605 69.8301 43.968C69.4129 45.3303 68.7984 46.624 68.0061 47.808C67.3293 48.8393 66.5579 49.8054 65.7021 50.6938C68.1494 49.2512 70.2281 47.2596 71.7741 44.8762C71.7952 44.8445 71.8163 44.8023 71.8375 44.7706C73.2873 42.3724 74.056 39.6242 74.0608 36.8218V24.0538C74.0588 20.6874 72.7199 17.4597 70.3385 15.0803C67.9571 12.7009 64.7283 11.3647 61.3619 11.3655Z"
    fill="#656769"
  />
  <path
    d="M61.3619 11.3655C59.6945 11.3648 58.0433 11.6927 56.5026 12.3303C54.9619 12.9678 53.5618 13.9026 52.3824 15.0813C51.203 16.26 50.2673 17.6595 49.6288 19.1998C48.9903 20.7402 48.6615 22.3912 48.6611 24.0586V26.712C48.6611 23.3436 49.9992 20.1131 52.3811 17.7312C54.763 15.3494 57.9935 14.0112 61.3619 14.0112C64.7304 14.0112 67.9609 15.3494 70.3428 17.7312C72.7246 20.1131 74.0627 23.3436 74.0627 26.712V24.0586C74.0624 22.3912 73.7335 20.7402 73.095 19.1998C72.4565 17.6595 71.5208 16.26 70.3414 15.0813C69.162 13.9026 67.762 12.9678 66.2213 12.3303C64.6806 11.6927 63.0294 11.3648 61.3619 11.3655Z"
    fill="#87898C"
  />
  <path
    fill-rule="evenodd"
    clip-rule="evenodd"
    d="M61.3623 10.8854C59.632 10.8848 57.9184 11.225 56.3195 11.8866L61.3623 10.8854ZM61.3623 11.8454C59.7579 11.8448 58.1691 12.1602 56.6866 12.7737C55.2042 13.3871 53.8571 14.2866 52.7222 15.4207C51.5874 16.5549 50.6871 17.9014 50.0728 19.3835C49.4584 20.8656 49.142 22.4542 49.1416 24.0585C49.1416 24.0585 49.1416 24.0585 49.1416 24.0585V36.8261C49.1461 39.5366 49.8876 42.1947 51.2867 44.5161C51.2954 44.5295 51.3028 44.5418 51.3087 44.5516C51.3149 44.5621 51.3211 44.5729 51.3256 44.5806L51.3276 44.5841C51.3364 44.5994 51.3393 44.604 51.3393 44.604C51.3393 44.604 51.3389 44.6035 51.3383 44.6026C51.3414 44.607 51.3443 44.6114 51.3472 44.6158C52.2028 45.9348 53.2259 47.1306 54.3872 48.175C54.3646 48.141 54.3422 48.1069 54.3199 48.0728C53.5042 46.8542 52.8713 45.5228 52.4411 44.121C52.1325 43.2759 51.9771 42.1343 51.9094 40.855C51.8409 39.5601 51.8608 38.0846 51.9216 36.5604C51.9824 35.0354 52.0846 33.4518 52.1822 31.9417L52.1829 31.9304C52.2804 30.4213 52.373 28.9882 52.4165 27.7473C52.4757 26.0567 52.7422 23.4474 53.9759 21.2482C54.5969 20.1413 55.467 19.1307 56.6827 18.3989C57.8994 17.6664 59.4357 17.2291 61.3634 17.2291C63.2911 17.2291 64.8275 17.6664 66.0443 18.3988C67.2602 19.1307 68.1305 20.1412 68.7516 21.2482C69.9855 23.4473 70.252 26.0565 70.3103 27.7474C70.3537 28.9908 70.4464 30.4273 70.5441 31.9398L70.5442 31.9417C70.6418 33.4518 70.744 35.0354 70.8049 36.5604C70.8657 38.0846 70.8857 39.5601 70.8173 40.855C70.7497 42.1343 70.5943 43.2759 70.2857 44.121C69.8551 45.5228 69.2221 46.8542 68.4067 48.0731C68.3885 48.1008 68.3703 48.1285 68.3519 48.1561C69.505 47.1159 70.5212 45.9263 71.3719 44.6149L71.3752 44.6098C71.3749 44.6102 71.3757 44.609 71.3796 44.6024C71.3818 44.5986 71.385 44.5931 71.3895 44.5851C71.3971 44.5719 71.413 44.5438 71.4315 44.515C72.8334 42.1931 73.5766 39.5333 73.5813 36.8209V24.054C73.5794 20.8149 72.2911 17.7092 69.9997 15.4198C67.7084 13.1303 64.6013 11.8446 61.3623 11.8454ZM61.3623 10.8854C64.8559 10.8847 68.207 12.2714 70.6783 14.7407C73.1497 17.21 74.5392 20.5598 74.5413 24.0534V36.8225C74.5363 39.7122 73.7437 42.5459 72.2487 45.0188C72.2451 45.0249 72.2413 45.0309 72.2373 45.0367C72.2375 45.0365 72.2372 45.0369 72.2359 45.0391C72.2341 45.0422 72.2303 45.0486 72.223 45.0615L72.2212 45.0646C72.2124 45.0801 72.1956 45.1095 72.1766 45.1384C70.5902 47.5837 68.4574 49.627 65.9464 51.1072C65.7396 51.2291 65.4746 51.1795 65.3259 50.9911C65.1771 50.8028 65.1904 50.5335 65.3569 50.3607C66.1921 49.4937 66.9448 48.551 67.6053 47.5446L67.6077 47.541C68.3739 46.3959 68.9682 45.1448 69.3716 43.8274C69.3742 43.8189 69.3771 43.8104 69.3802 43.8021C69.6407 43.0947 69.792 42.0653 69.8586 40.8043C69.9247 39.5525 69.906 38.1107 69.8456 36.5987C69.7853 35.0875 69.6839 33.5158 69.5862 32.0036L69.5855 31.9916C69.4883 30.4867 69.3948 29.0386 69.3509 27.7808C69.294 26.129 69.0324 23.7105 67.9144 21.7179C67.3595 20.729 66.5978 19.8525 65.5493 19.2213C64.5017 18.5908 63.1413 18.1891 61.3634 18.1891C59.5855 18.1891 58.2253 18.5908 57.1778 19.2213C56.1294 19.8525 55.3679 20.7289 54.8131 21.7179C53.6953 23.7105 53.4338 26.1288 53.3759 27.7809C53.3319 29.036 53.2386 30.4807 53.1415 31.9822L53.1402 32.0036C53.0425 33.5158 52.9411 35.0875 52.8808 36.5987C52.8205 38.1107 52.8018 39.5525 52.8681 40.8043C52.9348 42.0652 53.0861 43.0947 53.3466 43.8021C53.3497 43.8105 53.3526 43.819 53.3552 43.8275C53.7582 45.145 54.3525 46.3961 55.119 47.5409L55.122 47.5453C55.7798 48.5519 56.5299 49.4949 57.3627 50.3622C57.5289 50.5352 57.5418 50.8043 57.393 50.9924C57.2442 51.1805 56.9794 51.23 56.7728 51.1082C54.2631 49.6288 52.1313 47.5869 50.5452 45.1434C50.5241 45.1124 50.5066 45.0821 50.4976 45.0664L50.4964 45.0644L50.4834 45.0421C50.4812 45.0384 50.4803 45.0369 50.4803 45.0369L50.4808 45.0377C50.4783 45.034 50.4759 45.0302 50.4735 45.0264C50.4721 45.0241 50.4706 45.0218 50.4692 45.0195C48.9771 42.5471 48.1863 39.715 48.1816 36.8273L48.1816 24.0585C48.182 22.328 48.5233 20.6145 49.1859 19.0159C49.8486 17.4174 50.8196 15.965 52.0436 14.7417C53.2676 13.5185 54.7206 12.5483 56.3195 11.8866"
    fill="#45413C"
  />
  <path
    opacity="0.15"
    d="M83.6498 74.7744C83.6498 75.8937 73.8118 76.8 60.0108 76.8C46.2098 76.8 39.0713 75.8937 39.0713 74.7744C39.0713 73.655 46.207 72.7478 60.0089 72.7478C73.8108 72.7478 83.6498 73.655 83.6498 74.7744Z"
    fill="#45413C"
  />
  <path
    d="M79.0289 73.4237H43.6798C43.1705 73.4237 42.6822 73.2214 42.3221 72.8613C41.962 72.5012 41.7598 72.0129 41.7598 71.5037V70.0464H80.9489V71.5037C80.9489 72.0129 80.7466 72.5012 80.3865 72.8613C80.0265 73.2214 79.5381 73.4237 79.0289 73.4237Z"
    fill="#8CA4B8"
  />
  <path
    fill-rule="evenodd"
    clip-rule="evenodd"
    d="M41.2803 70.0464C41.2803 69.7813 41.4952 69.5664 41.7603 69.5664H80.9494C81.2145 69.5664 81.4294 69.7813 81.4294 70.0464V71.5037C81.4294 72.1402 81.1765 72.7507 80.7264 73.2007C80.2764 73.6508 79.6659 73.9037 79.0294 73.9037H43.6803C43.0438 73.9037 42.4333 73.6508 41.9832 73.2007C41.5331 72.7507 41.2803 72.1402 41.2803 71.5037V70.0464ZM42.2403 70.5264V71.5037C42.2403 71.8856 42.392 72.2519 42.662 72.5219C42.9321 72.792 43.2984 72.9437 43.6803 72.9437H79.0294C79.4113 72.9437 79.7776 72.792 80.0476 72.5219C80.3177 72.2519 80.4694 71.8856 80.4694 71.5037V70.5264H42.2403Z"
    fill="#45413C"
  />
  <path
    d="M80.9489 70.0464H41.7598L39.7726 52.1356C39.7266 51.7562 39.7615 51.3714 39.8753 51.0065C39.989 50.6416 40.1788 50.305 40.4322 50.0189C40.6856 49.7328 40.9969 49.5038 41.3454 49.3469C41.6939 49.19 42.0717 49.1088 42.4539 49.1088H80.2779C80.6601 49.1089 81.038 49.19 81.3865 49.3469C81.735 49.5038 82.0463 49.7328 82.2998 50.0189C82.5533 50.305 82.7432 50.6416 82.8571 51.0064C82.9709 51.3713 83.006 51.7562 82.9601 52.1356L80.9489 70.0464Z"
    fill="#ADC4D9"
  />
  <path
    d="M39.9991 54.7622C40.2021 54.2819 40.5437 53.873 40.9803 53.5878C41.4169 53.3025 41.9285 53.1539 42.45 53.1609H80.274C80.7945 53.1544 81.3053 53.3028 81.7414 53.5872C82.1774 53.8716 82.5191 54.2793 82.7229 54.7584L82.9552 52.1356C83.0011 51.7562 82.966 51.3713 82.8522 51.0064C82.7384 50.6416 82.5484 50.305 82.295 50.0189C82.0415 49.7328 81.7302 49.5038 81.3816 49.3469C81.0331 49.19 80.6552 49.1089 80.273 49.1088H42.449C42.0668 49.1088 41.689 49.19 41.3405 49.3469C40.992 49.5038 40.6808 49.7328 40.4273 50.0189C40.1739 50.305 39.9841 50.6416 39.8704 51.0065C39.7567 51.3714 39.7217 51.7562 39.7677 52.1356L39.9991 54.7622Z"
    fill="#C0DCEB"
  />
  <path
    fill-rule="evenodd"
    clip-rule="evenodd"
    d="M42.4544 49.5888C42.1401 49.5889 41.8295 49.6556 41.5429 49.7846C41.2564 49.9136 41.0004 50.102 40.792 50.3372C40.5836 50.5725 40.4275 50.8493 40.334 51.1493C40.2405 51.4494 40.2118 51.7658 40.2496 52.0778L40.2502 52.0827L42.19 69.5664H80.5203L82.4836 52.0821L82.4841 52.078C82.5219 51.766 82.493 51.4495 82.3994 51.1494C82.3058 50.8493 82.1496 50.5725 81.9411 50.3373C81.7326 50.102 81.4766 49.9136 81.19 49.7846C80.9034 49.6556 80.5927 49.5889 80.2784 49.5888M42.4544 49.5888C42.4544 49.5888 42.4544 49.5888 42.4544 49.5888V49.5888ZM41.1488 48.9092C41.5593 48.7245 42.0042 48.6289 42.4543 48.6288H80.2784C80.7285 48.6289 81.1736 48.7245 81.584 48.9092C81.9945 49.094 82.3611 49.3637 82.6596 49.7006C82.9581 50.0375 83.1818 50.4338 83.3158 50.8635C83.4496 51.2926 83.4911 51.7451 83.4374 52.1913C83.4373 52.192 83.4372 52.1926 83.4372 52.1933L81.4264 70.0999C81.3992 70.3428 81.1938 70.5264 80.9494 70.5264H41.7603C41.5157 70.5264 41.3102 70.3424 41.2832 70.0993L39.2963 52.1909C39.2425 51.745 39.2838 51.2926 39.4175 50.8637C39.5514 50.434 39.775 50.0376 40.0734 49.7007C40.3719 49.3638 40.7384 49.094 41.1488 48.9092ZM80.2784 49.5888H42.4544H80.2784Z"
    fill="#45413C"
  />
  <path
    d="M63.5322 59.7284C63.5358 59.3764 63.6288 59.0312 63.8024 58.7251C63.9761 58.4189 64.2247 58.162 64.5249 57.9783C64.334 57.707 64.0829 57.4836 63.7913 57.3256C63.4997 57.1675 63.1754 57.0791 62.8439 57.0672C62.1287 56.9952 61.4481 57.4887 61.0842 57.4887C60.7204 57.4887 60.1617 57.0778 59.5684 57.0884C59.1788 57.0994 58.7988 57.2114 58.4654 57.4133C58.1321 57.6152 57.8569 57.9002 57.6666 58.2404C56.8564 59.6458 57.4602 61.7299 58.2494 62.8704C58.6334 63.4291 59.0961 64.056 59.6999 64.033C60.2826 64.0099 60.5015 63.6567 61.2052 63.6567C61.9089 63.6567 62.1066 64.033 62.723 64.0215C63.3393 64.01 63.7434 63.456 64.1274 62.8935C64.4013 62.4903 64.6159 62.05 64.7649 61.586C64.4004 61.4306 64.0894 61.1719 63.8703 60.8418C63.6513 60.5116 63.5337 60.1246 63.5322 59.7284Z"
    fill="#F0F0F0"
  />
  <path
    fill-rule="evenodd"
    clip-rule="evenodd"
    d="M62.8766 56.5881C63.2769 56.6047 63.6681 56.7126 64.0204 56.9035C64.3772 57.0969 64.6843 57.3702 64.9178 57.702C64.9942 57.8105 65.0222 57.9457 64.9953 58.0756C64.9684 58.2055 64.889 58.3185 64.7758 58.3877C64.545 58.5289 64.3539 58.7265 64.2204 58.9618C64.0874 59.1962 64.016 59.4604 64.0127 59.7299C64.0145 60.0311 64.1041 60.3253 64.2707 60.5764C64.4379 60.8283 64.6753 61.0258 64.9535 61.1444C65.1816 61.2416 65.2981 61.4965 65.2223 61.7326C65.0594 62.2403 64.8245 62.722 64.5249 63.1631L64.5243 63.1641C64.3354 63.4409 64.1106 63.7636 63.8396 64.0156C63.5604 64.2753 63.1974 64.4927 62.7324 64.5014C62.326 64.509 62.0431 64.3864 61.8314 64.2946C61.8231 64.291 61.815 64.2875 61.8069 64.284C61.6071 64.1977 61.456 64.1366 61.2056 64.1366C60.9489 64.1366 60.7882 64.1963 60.5947 64.2782C60.5787 64.285 60.5621 64.2921 60.5451 64.2994C60.3479 64.384 60.0813 64.4983 59.7193 64.5126L59.7186 64.5126C59.2335 64.5311 58.8474 64.2848 58.5647 64.0204C58.2828 63.7567 58.0448 63.4195 57.8546 63.1429C57.4206 62.5154 57.0462 61.6447 56.886 60.7383C56.7266 59.8363 56.7696 58.8381 57.2497 58.0033C57.4804 57.5919 57.8137 57.2471 58.2172 57.0027C58.6216 56.7578 59.0826 56.6219 59.5552 56.6085L59.5603 56.6084L59.5603 56.6084C59.9606 56.6013 60.327 56.7356 60.5876 56.8375C60.6291 56.8537 60.667 56.8688 60.7024 56.8829C60.7899 56.9176 60.8616 56.9461 60.9323 56.9702C61.0278 57.0027 61.0709 57.0082 61.0833 57.0086C61.0851 57.0084 61.0969 57.0073 61.1218 57.0012C61.1538 56.9934 61.1956 56.9805 61.2508 56.9607C61.321 56.9356 61.3802 56.9121 61.4483 56.8851C61.5088 56.8612 61.5762 56.8345 61.6642 56.8015C61.9771 56.6842 62.4083 56.545 62.8766 56.5881ZM61.5742 57.8646C61.4451 57.9108 61.2659 57.9686 61.0847 57.9686C60.9129 57.9686 60.7492 57.9219 60.6232 57.8791C60.5277 57.8466 60.4223 57.8047 60.3268 57.7667C60.2959 57.7544 60.2661 57.7426 60.238 57.7316C59.981 57.6311 59.7721 57.5654 59.5798 57.5682C59.2742 57.5774 58.9761 57.6654 58.7146 57.8238C58.4523 57.9827 58.2357 58.207 58.086 58.4746L58.0829 58.4801L58.0829 58.4801C57.7542 59.0502 57.6943 59.7956 57.8313 60.5712C57.9677 61.343 58.2896 62.0844 58.6445 62.5973L58.6454 62.5985C58.8392 62.8805 59.0243 63.1358 59.2205 63.3193C59.4161 63.5022 59.5632 63.5578 59.6819 63.5533C59.862 63.5461 59.9796 63.4963 60.1885 63.4077C60.1989 63.4033 60.2096 63.3987 60.2206 63.3941C60.4581 63.2936 60.7587 63.1766 61.2056 63.1766C61.6589 63.1766 61.9586 63.3038 62.1876 63.4027C62.4022 63.4955 62.5203 63.5452 62.7144 63.5415C62.8656 63.5387 63.013 63.4734 63.1859 63.3126C63.367 63.1442 63.5362 62.9088 63.7312 62.6232C63.9052 62.367 64.0528 62.0941 64.172 61.8089C63.8951 61.6249 63.6563 61.3867 63.4708 61.1071C63.1999 60.6989 63.0545 60.2201 63.0527 59.7301L63.0526 59.7234L63.0527 59.7234C63.0571 59.2902 63.1716 58.8651 63.3853 58.4882C63.5041 58.2788 63.6514 58.0881 63.8222 57.9212C63.7416 57.8555 63.6549 57.7974 63.563 57.7475C63.3365 57.6248 63.0846 57.5561 62.8272 57.5469C62.8169 57.5465 62.8065 57.5458 62.7963 57.5448C62.5554 57.5205 62.295 57.5903 62.0012 57.7004C61.9527 57.7186 61.8919 57.7424 61.8288 57.7672C61.739 57.8024 61.6447 57.8394 61.5742 57.8646Z"
    fill="#45413C"
  />
  <path
    fill-rule="evenodd"
    clip-rule="evenodd"
    d="M63.142 53.4976C63.3293 53.6852 63.3291 53.9891 63.1416 54.1764L62.2977 55.0193C62.1102 55.2066 61.8063 55.2065 61.6189 55.0189C61.4316 54.8314 61.4317 54.5274 61.6193 54.3401L62.4631 53.4972C62.6507 53.3099 62.9546 53.31 63.142 53.4976Z"
    fill="#45413C"
  />
</svg>
