<svg  viewBox="0 0 80 80" fill="none" xmlns="http://www.w3.org/2000/svg">
<path d="M0 40C0 50.6087 4.21427 60.7828 11.7157 68.2843C19.2172 75.7857 29.3913 80 40 80C50.6087 80 60.7828 75.7857 68.2843 68.2843C75.7857 60.7828 80 50.6087 80 40C80 29.3913 75.7857 19.2172 68.2843 11.7157C60.7828 4.21427 50.6087 0 40 0C29.3913 0 19.2172 4.21427 11.7157 11.7157C4.21427 19.2172 0 29.3913 0 40Z" fill="#C7F0FF"/>
<path d="M29.444 11.518C29.0571 11.5202 28.6739 11.5941 28.314 11.736C28.1222 10.5089 27.4981 9.39062 26.5545 8.583C25.6108 7.77538 24.4096 7.33154 23.1675 7.33154C21.9254 7.33154 20.7242 7.77538 19.7805 8.583C18.8369 9.39062 18.2128 10.5089 18.021 11.736C17.5915 11.5695 17.1305 11.4997 16.671 11.5315C16.2114 11.5634 15.7645 11.6961 15.3621 11.9203C14.9596 12.1445 14.6115 12.4547 14.3426 12.8286C14.0736 13.2026 13.8904 13.6313 13.8059 14.0842C13.7214 14.537 13.7378 15.003 13.8538 15.4488C13.9699 15.8946 14.1828 16.3094 14.4773 16.6636C14.7719 17.0178 15.1409 17.3027 15.558 17.4981C15.9752 17.6935 16.4303 17.7945 16.891 17.794H29.444C29.8561 17.794 30.2641 17.7129 30.6449 17.5552C31.0256 17.3975 31.3715 17.1663 31.6629 16.8749C31.9543 16.5836 32.1854 16.2376 32.3431 15.8569C32.5008 15.4762 32.582 15.0681 32.582 14.656C32.582 14.244 32.5008 13.8359 32.3431 13.4552C32.1854 13.0745 31.9543 12.7285 31.6629 12.4371C31.3715 12.1458 31.0256 11.9146 30.6449 11.7569C30.2641 11.5992 29.8561 11.518 29.444 11.518Z" fill="white" stroke="#45413C" stroke-width="1.6" stroke-linejoin="round"/>
<path d="M74.949 19.1C74.5624 19.102 74.1796 19.1759 73.82 19.318C73.6275 18.0912 73.0031 16.9736 72.0594 16.1664C71.1157 15.3593 69.9148 14.9158 68.673 14.9158C67.4312 14.9158 66.2303 15.3593 65.2866 16.1664C64.3429 16.9736 63.7185 18.0912 63.526 19.318C63.0965 19.1519 62.6358 19.0825 62.1765 19.1147C61.7171 19.1468 61.2705 19.2797 60.8684 19.504C60.4663 19.7282 60.1184 20.0383 59.8497 20.4122C59.581 20.7861 59.3979 21.2146 59.3135 21.6672C59.229 22.1199 59.2454 22.5856 59.3613 23.0312C59.4772 23.4768 59.6898 23.8914 59.9841 24.2456C60.2784 24.5997 60.647 24.8847 61.0639 25.0802C61.4807 25.2758 61.9356 25.3771 62.396 25.377H74.949C75.3659 25.3844 75.78 25.3088 76.1673 25.1544C76.5546 25 76.9073 24.77 77.2047 24.4778C77.5022 24.1857 77.7384 23.8372 77.8997 23.4527C78.061 23.0682 78.144 22.6554 78.144 22.2385C78.144 21.8216 78.061 21.4088 77.8997 21.0243C77.7384 20.6398 77.5022 20.2913 77.2047 19.9992C76.9073 19.707 76.5546 19.477 76.1673 19.3226C75.78 19.1682 75.3659 19.0926 74.949 19.1Z" fill="white" stroke="#45413C" stroke-width="1.6" stroke-linejoin="round"/>
<path d="M36.438 46.5622L50.289 27.6082C50.4104 27.442 50.5693 27.3069 50.7528 27.2137C50.9363 27.1206 51.1392 27.072 51.345 27.072C51.5508 27.072 51.7537 27.1206 51.9372 27.2137C52.1206 27.3069 52.2796 27.442 52.401 27.6082L66.252 46.5622H36.438Z" fill="#BF8256"/>
<path d="M50.371 32.2002C50.4831 32.0471 50.6297 31.9225 50.7989 31.8367C50.9681 31.7508 51.1552 31.7061 51.345 31.7061C51.5348 31.7061 51.7218 31.7508 51.8911 31.8367C52.0603 31.9225 52.2069 32.0471 52.319 32.2002L62.812 46.5622H66.252L52.4 27.6082C52.2786 27.442 52.1196 27.3069 51.9362 27.2137C51.7527 27.1206 51.5498 27.072 51.344 27.072C51.1382 27.072 50.9353 27.1206 50.7518 27.2137C50.5683 27.3069 50.4094 27.442 50.288 27.6082L36.438 46.5622H39.878L50.371 32.2002Z" fill="#DEA47A"/>
<path d="M36.438 46.5622L50.289 27.6082C50.4104 27.442 50.5693 27.3069 50.7528 27.2137C50.9363 27.1206 51.1392 27.072 51.345 27.072C51.5508 27.072 51.7537 27.1206 51.9372 27.2137C52.1206 27.3069 52.2796 27.442 52.401 27.6082L66.252 46.5622H36.438Z" stroke="#45413C" stroke-width="1.6" stroke-linecap="round" stroke-linejoin="round"/>
<path d="M28.986 46.5618L41.328 32.0428C41.4506 31.8982 41.6032 31.7821 41.7752 31.7024C41.9472 31.6228 42.1345 31.5815 42.324 31.5815C42.5136 31.5815 42.7008 31.6228 42.8728 31.7024C43.0448 31.7821 43.1974 31.8982 43.32 32.0428L55.662 46.5618H28.986Z" fill="#BF8256"/>
<path d="M41.405 36.6593C41.5182 36.526 41.659 36.419 41.8177 36.3456C41.9764 36.2722 42.1492 36.2342 42.324 36.2342C42.4988 36.2342 42.6716 36.2722 42.8303 36.3456C42.989 36.419 43.1298 36.526 43.243 36.6593L51.661 46.5593H55.661L43.321 32.0433C43.1982 31.8988 43.0455 31.7828 42.8734 31.7033C42.7014 31.6237 42.5141 31.5825 42.3245 31.5825C42.1349 31.5825 41.9476 31.6237 41.7756 31.7033C41.6035 31.7828 41.4508 31.8988 41.328 32.0433L28.987 46.5623H32.987L41.405 36.6593Z" fill="#DEA47A"/>
<path d="M28.987 46.5623L41.328 32.0433C41.4508 31.8988 41.6035 31.7828 41.7756 31.7033C41.9476 31.6237 42.1349 31.5825 42.3245 31.5825C42.5141 31.5825 42.7014 31.6237 42.8734 31.7033C43.0455 31.7828 43.1982 31.8988 43.321 32.0433L55.662 46.5623H28.987Z" stroke="#45413C" stroke-width="1.6" stroke-linecap="round" stroke-linejoin="round"/>
<path d="M18.918 46.5622V40.2852" stroke="#45413C" stroke-width="1.6" stroke-linecap="round" stroke-linejoin="round"/>
<path d="M25.194 35.578L20.487 30.086H23.625L18.918 24.594L14.21 30.086H17.349L12.641 35.578H16.564L12.641 40.285H18.918H25.194L21.271 35.578H25.194Z" fill="#6DD627" stroke="#45413C" stroke-width="1.6" stroke-linecap="round" stroke-linejoin="round"/>
<path d="M13.952 46.562C13.786 46.5628 13.622 46.5977 13.4701 46.6646C13.3182 46.7315 13.1817 46.829 13.0692 46.951C12.9566 47.0729 12.8703 47.2167 12.8158 47.3735C12.7612 47.5302 12.7395 47.6965 12.752 47.862C13.2701 54.7619 16.3767 61.2112 21.4493 65.9171C26.5219 70.6231 33.1856 73.2382 40.105 73.2382C47.0243 73.2382 53.688 70.6231 58.7606 65.9171C63.8332 61.2112 66.9399 54.7619 67.458 47.862C67.4708 47.6964 67.4493 47.53 67.3948 47.3732C67.3403 47.2163 67.2541 47.0723 67.1415 46.9503C67.0288 46.8283 66.8922 46.7308 66.7402 46.664C66.5882 46.5972 66.424 46.5625 66.258 46.562H13.952Z" fill="#00B8F0"/>
<path d="M66.6 46.615C65.0395 52.451 61.5962 57.6085 56.8046 61.2873C52.0129 64.966 46.1409 66.9602 40.1 66.9602C34.059 66.9602 28.187 64.966 23.3954 61.2873C18.6038 57.6085 15.1605 52.451 13.6 46.615C13.3379 46.6947 13.1106 46.8611 12.9556 47.087C12.8006 47.3129 12.727 47.5848 12.747 47.858C13.2651 54.758 16.3717 61.2072 21.4443 65.9132C26.5169 70.6192 33.1806 73.2342 40.1 73.2342C47.0193 73.2342 53.6831 70.6192 58.7557 65.9132C63.8283 61.2072 66.9349 54.758 67.453 47.858C67.4737 47.5846 67.4006 47.3122 67.2457 47.0859C67.0908 46.8595 66.8634 46.6928 66.601 46.613L66.6 46.615Z" fill="#009FD9"/>
<path d="M13.952 46.562C13.786 46.5628 13.622 46.5977 13.4701 46.6646C13.3182 46.7315 13.1817 46.829 13.0692 46.951C12.9566 47.0729 12.8703 47.2167 12.8158 47.3735C12.7612 47.5302 12.7395 47.6965 12.752 47.862C13.2701 54.7619 16.3767 61.2112 21.4493 65.9171C26.5219 70.6231 33.1856 73.2382 40.105 73.2382C47.0243 73.2382 53.688 70.6231 58.7606 65.9171C63.8332 61.2112 66.9399 54.7619 67.458 47.862C67.4708 47.6964 67.4493 47.53 67.3948 47.3732C67.3403 47.2163 67.2541 47.0723 67.1415 46.9503C67.0288 46.8283 66.8922 46.7308 66.7402 46.664C66.5882 46.5972 66.424 46.5625 66.258 46.562H13.952Z" stroke="#45413C" stroke-width="1.6" stroke-linecap="round" stroke-linejoin="round"/>
<path d="M24.41 46.562C23.9931 46.5546 23.579 46.6303 23.1917 46.7846C22.8044 46.939 22.4517 47.169 22.1543 47.4612C21.8568 47.7534 21.6206 48.1019 21.4593 48.4864C21.298 48.8708 21.215 49.2836 21.215 49.7005C21.215 50.1175 21.298 50.5302 21.4593 50.9147C21.6206 51.2992 21.8568 51.6477 22.1543 51.9399C22.4517 52.232 22.8044 52.462 23.1917 52.6164C23.579 52.7708 23.9931 52.8465 24.41 52.839C25.0923 52.8387 25.7568 53.0565 26.3066 53.4605C26.8563 53.8646 27.2626 54.4338 27.466 55.085L30.092 63.485C30.2869 64.1022 30.696 64.6293 31.2455 64.9712C31.795 65.3132 32.4486 65.4475 33.0884 65.3498C33.7282 65.2522 34.3119 64.929 34.7344 64.4387C35.1568 63.9484 35.39 63.3232 35.392 62.676V60.471C35.3919 59.295 35.6235 58.1305 36.0735 57.0441C36.5236 55.9576 37.1833 54.9704 38.015 54.139C38.6355 53.5182 39.058 52.7273 39.2291 51.8663C39.4003 51.0054 39.3123 50.113 38.9763 49.3021C38.6403 48.4911 38.0715 47.798 37.3417 47.3103C36.6118 46.8225 35.7538 46.5622 34.876 46.562H24.41Z" fill="#6DD627" stroke="#45413C" stroke-width="1.6" stroke-linecap="round" stroke-linejoin="round"/>
<path d="M61.285 63.2V58.091C61.2851 57.5043 61.1696 56.9232 60.9451 56.3811C60.7206 55.8389 60.3915 55.3463 59.9766 54.9314C59.5617 54.5165 59.0691 54.1874 58.527 53.9629C57.9848 53.7384 57.4038 53.6229 56.817 53.623C55.9213 53.6233 55.0624 53.9792 54.429 54.6124C53.7956 55.2456 53.4395 56.1044 53.439 57C53.4388 57.807 53.1499 58.5873 52.6244 59.1997C52.0989 59.8122 51.3716 60.2163 50.574 60.339L49.742 60.466C47.8729 60.7538 46.1496 61.6465 44.8364 63.0073C43.5231 64.368 42.6922 66.1219 42.471 68L41.871 73.147C45.6166 72.9112 49.2735 71.9062 52.6136 70.1949C55.9538 68.4835 58.9056 66.1024 61.285 63.2Z" fill="#6DD627"/>
<path d="M61.285 58.0901C61.2851 57.7535 61.2468 57.418 61.171 57.0901C56.5429 62.6573 49.897 66.1633 42.689 66.8401C42.5903 67.2214 42.5174 67.609 42.471 68.0001L41.871 73.1471C45.6166 72.9112 49.2735 71.9063 52.6136 70.1949C55.9538 68.4835 58.9056 66.1024 61.285 63.2001V58.0901Z" fill="#46B000"/>
<path d="M61.285 63.2V58.091C61.2851 57.5043 61.1696 56.9232 60.9451 56.3811C60.7206 55.8389 60.3915 55.3463 59.9766 54.9314C59.5617 54.5165 59.0691 54.1874 58.527 53.9629C57.9848 53.7384 57.4038 53.6229 56.817 53.623C55.9213 53.6233 55.0624 53.9792 54.429 54.6124C53.7956 55.2456 53.4395 56.1044 53.439 57C53.4388 57.807 53.1499 58.5873 52.6244 59.1997C52.0989 59.8122 51.3716 60.2163 50.574 60.339L49.742 60.466C47.8729 60.7538 46.1496 61.6465 44.8364 63.0073C43.5231 64.368 42.6922 66.1219 42.471 68L41.871 73.147C45.6166 72.9112 49.2735 71.9062 52.6136 70.1949C55.9538 68.4835 58.9056 66.1024 61.285 63.2Z" stroke="#45413C" stroke-width="1.6" stroke-linecap="round" stroke-linejoin="round"/>
<path d="M33.04 46.562V41.855" stroke="#45413C" stroke-width="1.6" stroke-linecap="round" stroke-linejoin="round"/>
<path d="M39.317 37.1468L34.609 31.6548H37.748L33.04 26.1628L28.333 31.6548H31.471L26.764 37.1468H30.686L26.764 41.8548H33.04H39.317L35.394 37.1468H39.317Z" fill="#6DD627" stroke="#45413C" stroke-width="1.6" stroke-linecap="round" stroke-linejoin="round"/>
</svg>

