<svg width="128" height="128" viewBox="0 0 128 128" fill="none" xmlns="http://www.w3.org/2000/svg">
<path d="M12.8 69.1392C12.8 82.7183 18.1943 95.7412 27.7962 105.343C37.398 114.945 50.421 120.339 64 120.339C77.5791 120.339 90.6021 114.945 100.204 105.343C109.806 95.7412 115.2 82.7183 115.2 69.1392C115.2 55.5601 109.806 42.5372 100.204 32.9353C90.6021 23.3335 77.5791 17.9392 64 17.9392C50.421 17.9392 37.398 23.3335 27.7962 32.9353C18.1943 42.5372 12.8 55.5601 12.8 69.1392Z" fill="#C7F0FF" stroke="#C7F0FF" stroke-width="1.6" stroke-miterlimit="10"/>
<path d="M64.4545 4.42751C56.1064 4.20351 48.6837 11.4931 44.9666 20.8704L46.683 19.2435L51.5842 24.4198C51.777 24.6226 52.0424 24.7407 52.3222 24.7481C52.602 24.7556 52.8733 24.6518 53.0766 24.4595L57.4862 20.2803C57.5868 20.1848 57.7052 20.1101 57.8346 20.0603C57.9641 20.0106 58.1021 19.987 58.2407 19.9906C58.3793 19.9943 58.5159 20.0253 58.6425 20.0818C58.7691 20.1383 58.8834 20.2193 58.9787 20.32L63.1579 24.7296C63.3504 24.9329 63.6158 25.0514 63.8957 25.0591C64.1755 25.0667 64.447 24.963 64.6504 24.7706L69.0613 20.5901C69.2646 20.3977 69.5361 20.2939 69.816 20.3016C70.0959 20.3092 70.3612 20.4277 70.5537 20.631L74.7329 25.0406C74.8283 25.1414 74.9425 25.2223 75.0692 25.2788C75.1958 25.3353 75.3323 25.3663 75.471 25.37C75.6096 25.3737 75.7476 25.35 75.877 25.3003C76.0065 25.2506 76.1249 25.1758 76.2254 25.0803L81.4081 20.1754L83.0338 21.888C79.8248 12.329 72.8027 4.65151 64.4545 4.42751Z" fill="white" stroke="#45413C" stroke-width="1.6" stroke-linecap="round" stroke-linejoin="round"/>
<path d="M77.5552 42.3321C77.5552 34.4051 72.2457 28.9356 64.3187 28.9356C62.5183 28.8613 60.7221 29.1613 59.0435 29.8165C57.3649 30.4717 55.8405 31.468 54.5666 32.7424C53.2927 34.0168 52.297 35.5416 51.6424 37.2204C50.9877 38.8993 50.6885 40.6956 50.7635 42.496C50.7635 49.4617 58.5779 56.8486 58.5779 62.4294H69.7408C69.7408 58.4384 77.5552 49.8176 77.5552 42.3321Z" fill="#FFE500"/>
<path d="M77.152 45.4707C75.7939 39.5161 70.9914 35.6339 64.3187 35.6339C61.3234 35.5046 58.3765 36.4222 55.984 38.2291C53.5915 40.036 51.9028 42.6195 51.2077 45.536C50.9238 44.5454 50.7744 43.5212 50.7635 42.4908C50.6892 40.6909 50.989 38.8951 51.644 37.2169C52.2989 35.5387 53.2947 34.0145 54.5686 32.7407C55.8424 31.4669 57.3666 30.471 59.0448 29.8161C60.723 29.1612 62.5188 28.8614 64.3187 28.9356C72.2458 28.9356 77.5552 34.4051 77.5552 42.3321C77.5447 43.3905 77.4094 44.444 77.152 45.4707Z" fill="#FFF48C"/>
<path d="M72.1332 64.6579C72.1332 65.25 71.898 65.8178 71.4794 66.2364C71.0607 66.6551 70.4929 66.8903 69.9009 66.8903H58.738C58.4403 66.8974 58.1441 66.8449 57.867 66.7359C57.5898 66.6269 57.3372 66.4635 57.1242 66.2555C56.9111 66.0474 56.7417 65.7989 56.6261 65.5244C56.5105 65.2499 56.4509 64.9551 56.4509 64.6573C56.4509 64.3595 56.5105 64.0647 56.6261 63.7902C56.7417 63.5157 56.9111 63.2672 57.1242 63.0591C57.3372 62.8511 57.5898 62.6877 57.867 62.5787C58.1441 62.4697 58.4403 62.4172 58.738 62.4243H69.9009C70.1941 62.4243 70.4845 62.4821 70.7554 62.5944C71.0264 62.7067 71.2725 62.8712 71.4798 63.0786C71.6871 63.2861 71.8515 63.5323 71.9636 63.8033C72.0757 64.0743 72.1334 64.3647 72.1332 64.6579Z" fill="#C0DCEB" stroke="#45413C" stroke-width="1.6" stroke-linecap="round" stroke-linejoin="round"/>
<path d="M72.1331 69.12C72.1331 69.7121 71.8979 70.2799 71.4793 70.6985C71.0607 71.1171 70.4929 71.3523 69.9008 71.3523H58.7379C58.1459 71.3523 57.5781 71.1171 57.1594 70.6985C56.7408 70.2799 56.5056 69.7121 56.5056 69.12C56.5056 68.528 56.7408 67.9602 57.1594 67.5415C57.5781 67.1229 58.1459 66.8877 58.7379 66.8877H69.9008C70.4929 66.8877 71.0607 67.1229 71.4793 67.5415C71.8979 67.9602 72.1331 68.528 72.1331 69.12Z" fill="#C0DCEB" stroke="#45413C" stroke-width="1.6" stroke-linecap="round" stroke-linejoin="round"/>
<path d="M69.9008 71.3549C69.912 72.0949 69.7759 72.8299 69.5005 73.5169C69.225 74.2038 68.8157 74.8292 68.2963 75.3565C67.7769 75.8838 67.1578 76.3026 66.4751 76.5884C65.7923 76.8743 65.0595 77.0215 64.3194 77.0215C63.5792 77.0215 62.8465 76.8743 62.1637 76.5884C61.481 76.3026 60.8619 75.8838 60.3425 75.3565C59.8231 74.8292 59.4138 74.2038 59.1383 73.5169C58.8628 72.8299 58.7267 72.0949 58.7379 71.3549H69.9008Z" fill="#8CA4B8" stroke="#45413C" stroke-width="1.6" stroke-linecap="round" stroke-linejoin="round"/>
<path d="M77.5552 42.3321C77.5552 34.4051 72.2457 28.9356 64.3187 28.9356C62.5183 28.8613 60.7221 29.1613 59.0435 29.8165C57.3649 30.4717 55.8405 31.468 54.5666 32.7424C53.2927 34.0168 52.297 35.5416 51.6424 37.2204C50.9877 38.8993 50.6885 40.6956 50.7635 42.496C50.7635 49.4617 58.5779 56.8486 58.5779 62.4294H69.7408C69.7408 58.4384 77.5552 49.8176 77.5552 42.3321Z" stroke="#45413C" stroke-width="1.6" stroke-linecap="round" stroke-linejoin="round"/>
<path d="M63.0427 62.4243L58.0763 47.5226C57.8974 46.9799 57.9065 46.3928 58.1024 45.856C58.2982 45.3193 58.6693 44.8642 59.1556 44.5642C59.642 44.2643 60.2152 44.1371 60.7828 44.2031C61.3504 44.2691 61.8791 44.5245 62.2837 44.928C62.7812 45.4254 63.456 45.7048 64.1595 45.7048C64.863 45.7048 65.5378 45.4254 66.0353 44.928C66.4403 44.5235 66.97 44.2675 67.5385 44.2014C68.1071 44.1354 68.6814 44.2632 69.1683 44.5641C69.6552 44.865 70.0263 45.3215 70.2215 45.8595C70.4168 46.3976 70.4247 46.9858 70.244 47.529L65.2801 62.4243" stroke="#45413C" stroke-width="1.6" stroke-linecap="round" stroke-linejoin="round"/>
<path opacity="0.15" d="M40.96 120.378C40.96 121.226 43.3874 122.04 47.7082 122.64C52.0291 123.24 57.8894 123.578 64 123.578C70.1105 123.578 75.9709 123.24 80.2917 122.64C84.6125 122.04 87.04 121.226 87.04 120.378C87.04 119.529 84.6125 118.715 80.2917 118.115C75.9709 117.515 70.1105 117.178 64 117.178C57.8894 117.178 52.0291 117.515 47.7082 118.115C43.3874 118.715 40.96 119.529 40.96 120.378Z" fill="#45413C"/>
<path d="M100.648 96.3392C100.648 104.787 92.9177 119.635 64 119.635C35.0822 119.635 27.3523 104.787 27.3523 96.3392C27.3523 87.8912 43.7593 82.3232 64 82.3232C84.2406 82.3232 100.648 87.8912 100.648 96.3392Z" fill="#DEBB7E"/>
<path d="M64 85.7895C83.1206 85.7895 98.816 90.7597 100.499 98.4308C100.597 97.7378 100.646 97.039 100.648 96.3392C100.648 87.8912 84.2406 82.3232 64 82.3232C43.7593 82.3232 27.3523 87.8912 27.3523 96.3392C27.3538 97.039 27.4034 97.7378 27.5008 98.4308C29.184 90.7597 44.8793 85.7895 64 85.7895Z" fill="#F0D5A8"/>
<path d="M100.648 96.3392C100.648 104.787 92.9177 119.635 64 119.635C35.0822 119.635 27.3523 104.787 27.3523 96.3392C27.3523 87.8912 43.7593 82.3232 64 82.3232C84.2406 82.3232 100.648 87.8912 100.648 96.3392Z" stroke="#45413C" stroke-width="1.6" stroke-linecap="round" stroke-linejoin="round"/>
<path d="M76.3252 70.3692C76.2273 70.4673 76.1109 70.5451 75.9829 70.5982C75.8549 70.6512 75.7176 70.6786 75.579 70.6786C75.4404 70.6786 75.3031 70.6512 75.1751 70.5982C75.047 70.5451 74.9307 70.4673 74.8328 70.3692L70.5358 66.0735C70.4378 65.9754 70.3215 65.8976 70.1935 65.8446C70.0654 65.7915 69.9282 65.7642 69.7895 65.7642C69.6509 65.7642 69.5137 65.7915 69.3856 65.8446C69.2576 65.8976 69.1413 65.9754 69.0433 66.0735L64.7463 70.3692C64.6484 70.4673 64.5321 70.5451 64.404 70.5982C64.276 70.6512 64.1387 70.6786 64.0001 70.6786C63.8615 70.6786 63.7242 70.6512 63.5962 70.5982C63.4682 70.5451 63.3518 70.4673 63.2539 70.3692L58.9569 66.0735C58.859 65.9754 58.7426 65.8976 58.6146 65.8446C58.4865 65.7915 58.3493 65.7642 58.2107 65.7642C58.0721 65.7642 57.9348 65.7915 57.8068 65.8446C57.6787 65.8976 57.5624 65.9754 57.4644 66.0735L53.1675 70.3692C53.0695 70.4673 52.9532 70.5451 52.8251 70.5982C52.6971 70.6512 52.5598 70.6786 52.4212 70.6786C52.2826 70.6786 52.1454 70.6512 52.0173 70.5982C51.8893 70.5451 51.7729 70.4673 51.675 70.3692L47.3793 66.0735C47.1811 65.8757 46.9125 65.7646 46.6324 65.7646C46.3524 65.7646 46.0838 65.8757 45.8855 66.0735L44.9601 66.999C43.535 70.8686 42.7956 74.9572 42.7751 79.0809C42.7751 93.3708 52.2779 101.788 64.0001 101.788C75.7224 101.788 85.2251 93.3708 85.2251 79.0809C85.2047 74.9572 84.4653 70.8686 83.0401 66.999L82.1147 66.0735C81.9165 65.8757 81.6478 65.7646 81.3678 65.7646C81.0877 65.7646 80.8191 65.8757 80.6209 66.0735L76.3252 70.3692Z" fill="white"/>
<path d="M64.0001 95.0477C59.6704 95.1707 55.395 94.0609 51.6719 91.8475C47.9487 89.6341 44.9312 86.4083 42.9709 82.5459C44.3815 94.72 53.2596 101.788 64.0001 101.788C74.7405 101.788 83.6186 94.72 85.0292 82.5459C83.0689 86.4083 80.0514 89.6341 76.3283 91.8475C72.6051 94.0609 68.3297 95.1707 64.0001 95.0477Z" fill="#E0E0E0"/>
<path d="M76.3252 70.3692C76.2273 70.4673 76.1109 70.5451 75.9829 70.5982C75.8549 70.6512 75.7176 70.6786 75.579 70.6786C75.4404 70.6786 75.3031 70.6512 75.1751 70.5982C75.047 70.5451 74.9307 70.4673 74.8328 70.3692L70.5358 66.0735C70.4378 65.9754 70.3215 65.8976 70.1935 65.8446C70.0654 65.7915 69.9282 65.7642 69.7895 65.7642C69.6509 65.7642 69.5137 65.7915 69.3856 65.8446C69.2576 65.8976 69.1413 65.9754 69.0433 66.0735L64.7463 70.3692C64.6484 70.4673 64.5321 70.5451 64.404 70.5982C64.276 70.6512 64.1387 70.6786 64.0001 70.6786C63.8615 70.6786 63.7242 70.6512 63.5962 70.5982C63.4682 70.5451 63.3518 70.4673 63.2539 70.3692L58.9569 66.0735C58.859 65.9754 58.7426 65.8976 58.6146 65.8446C58.4865 65.7915 58.3493 65.7642 58.2107 65.7642C58.0721 65.7642 57.9348 65.7915 57.8068 65.8446C57.6787 65.8976 57.5624 65.9754 57.4644 66.0735L53.1675 70.3692C53.0695 70.4673 52.9532 70.5451 52.8251 70.5982C52.6971 70.6512 52.5598 70.6786 52.4212 70.6786C52.2826 70.6786 52.1454 70.6512 52.0173 70.5982C51.8893 70.5451 51.7729 70.4673 51.675 70.3692L47.3793 66.0735C47.1811 65.8757 46.9125 65.7646 46.6324 65.7646C46.3524 65.7646 46.0838 65.8757 45.8855 66.0735L44.9601 66.999C43.535 70.8686 42.7956 74.9572 42.7751 79.0809C42.7751 93.3708 52.2779 101.788 64.0001 101.788C75.7223 101.788 85.2251 93.3708 85.2251 79.0809C85.2047 74.9572 84.4653 70.8686 83.0401 66.999L82.1147 66.0735C81.9165 65.8757 81.6478 65.7646 81.3678 65.7646C81.0877 65.7646 80.8191 65.8757 80.6209 66.0735L76.3252 70.3692Z" stroke="#45413C" stroke-width="1.6" stroke-linecap="round" stroke-linejoin="round"/>
<path d="M64 100.508C50.7853 100.508 40.073 96.5504 40.073 91.6698C40.073 100.508 48.521 106.013 64 106.013C79.4791 106.013 87.9271 100.509 87.9271 91.6698C87.9271 96.5504 77.2148 100.508 64 100.508Z" fill="#F0D5A8"/>
<path d="M40.073 91.6698C40.073 96.5517 50.7853 100.508 64 100.508C77.2148 100.508 87.9271 96.5517 87.9271 91.6698" stroke="#45413C" stroke-width="1.6" stroke-linecap="round" stroke-linejoin="round"/>
<path d="M35.7697 44.8282C35.7697 45.9712 31.9898 47.4765 29.7601 47.4765C29.0676 47.4613 28.4086 47.1755 27.9243 46.6804C27.4399 46.1853 27.1687 45.5202 27.1687 44.8275C27.1687 44.1349 27.4399 43.4698 27.9243 42.9747C28.4086 42.4796 29.0676 42.1938 29.7601 42.1786C31.9898 42.1786 35.7697 43.6839 35.7697 44.8282Z" fill="#FFF48C" stroke="#B58B00" stroke-width="1.6" stroke-linecap="round" stroke-linejoin="round"/>
<path d="M35.8464 63.4304C35.2573 63.813 34.5403 63.9459 33.8531 63.7998C33.166 63.6537 32.565 63.2407 32.1824 62.6515C31.7998 62.0623 31.667 61.3453 31.813 60.6582C31.9591 59.9711 32.3721 59.3701 32.9613 58.9875C34.8314 57.7741 38.8211 56.9779 39.4445 57.9366C40.1011 58.9568 37.6013 62.2912 35.8464 63.4304Z" fill="#FFF48C" stroke="#B58B00" stroke-width="1.6" stroke-linecap="round" stroke-linejoin="round"/>
<path d="M39.1565 32.8959C38.5715 33.911 34.4883 33.2595 32.6285 32.1855C32.0202 31.8342 31.5763 31.2555 31.3946 30.5769C31.2129 29.8983 31.3082 29.1753 31.6595 28.567C32.0109 27.9586 32.5895 27.5148 33.2681 27.3331C33.9468 27.1514 34.6698 27.2467 35.2781 27.598C36.992 28.5836 39.7671 31.8361 39.1565 32.8959Z" fill="#FFF48C" stroke="#B58B00" stroke-width="1.6" stroke-linecap="round" stroke-linejoin="round"/>
<path d="M92.2305 44.8282C92.2305 45.9712 96.0103 47.4765 98.2401 47.4765C98.9325 47.4613 99.5915 47.1755 100.076 46.6804C100.56 46.1853 100.831 45.5202 100.831 44.8275C100.831 44.1349 100.56 43.4698 100.076 42.9747C99.5915 42.4796 98.9325 42.1938 98.2401 42.1786C96.0103 42.1786 92.2305 43.6839 92.2305 44.8282Z" fill="#FFF48C" stroke="#B58B00" stroke-width="1.6" stroke-linecap="round" stroke-linejoin="round"/>
<path d="M92.16 63.4304C92.4517 63.6198 92.7779 63.75 93.1199 63.8133C93.4619 63.8767 93.813 63.8721 94.1533 63.7998C94.4935 63.7275 94.8162 63.5888 95.1028 63.3918C95.3895 63.1948 95.6345 62.9432 95.824 62.6515C96.0134 62.3598 96.1435 62.0336 96.2069 61.6916C96.2703 61.3496 96.2657 60.9984 96.1934 60.6582C96.121 60.318 95.9824 59.9953 95.7854 59.7087C95.5884 59.422 95.3368 59.177 95.0451 58.9875C93.175 57.7741 89.1852 56.9779 88.5619 57.9366C87.8988 58.9568 90.3987 62.2912 92.16 63.4304Z" fill="#FFF48C" stroke="#B58B00" stroke-width="1.6" stroke-linecap="round" stroke-linejoin="round"/>
<path d="M88.8435 32.8959C89.4285 33.911 93.5117 33.2595 95.3715 32.1855C95.9798 31.8342 96.4237 31.2555 96.6054 30.5769C96.7871 29.8983 96.6918 29.1753 96.3405 28.567C95.9891 27.9586 95.4105 27.5148 94.7319 27.3331C94.0532 27.1514 93.3302 27.2467 92.7219 27.598C91.008 28.5836 88.2329 31.8361 88.8435 32.8959Z" fill="#FFF48C" stroke="#B58B00" stroke-width="1.6" stroke-linecap="round" stroke-linejoin="round"/>
</svg>

