<svg width="50" height="50" viewBox="0 0 50 50" fill="none" xmlns="http://www.w3.org/2000/svg">
<path d="M1 25C1 31.3652 3.41975 37.4697 7.72693 41.9706C12.0341 46.4714 17.8759 49 23.9672 49C30.0584 49 35.9002 46.4714 40.2074 41.9706C44.5146 37.4697 46.9343 31.3652 46.9343 25C46.9343 18.6348 44.5146 12.5303 40.2074 8.02944C35.9002 3.52856 30.0584 1 23.9672 1C17.8759 1 12.0341 3.52856 7.72693 8.02944C3.41975 12.5303 1 18.6348 1 25Z" fill="#E1EBFF" stroke="#E1EBFF" stroke-width="1.4" stroke-miterlimit="10"/>
<path d="M32.8474 30.0723H37.57C38.6716 30.0417 39.7353 29.645 40.6064 28.9396C41.4775 28.2343 42.1108 27.2572 42.4144 26.1502C42.7183 25.1369 42.8732 24.0812 42.8737 23.0194C42.8737 18.4594 40.0889 14.7448 36.6255 14.5935C36.0685 12.3135 34.4534 10.648 32.527 10.648C31.7725 10.6588 31.0399 10.9146 30.4307 11.38C28.5261 8.51675 25.7304 6.69995 22.6011 6.69995C19.1256 6.69995 16.063 8.94635 14.1917 12.3682C13.9772 12.3446 13.7615 12.3329 13.5458 12.3334C10.4056 12.3334 7.82121 15.4756 7.54273 19.5022C5.76277 20.3872 4.49097 22.633 4.49097 25.2747C4.49097 27.9165 6.37313 30.07 8.70142 30.07H32.8474V30.0723Z" fill="#FFB0CA"/>
<path d="M10.916 17.9637C11.1744 17.9636 11.4325 17.9776 11.6895 18.0057C13.9288 13.9131 17.5909 11.2258 21.7479 11.2258C25.4916 11.2258 28.8356 13.3977 31.1139 16.8225C31.8416 16.2659 32.7168 15.9594 33.6185 15.9454C35.9233 15.9454 37.8554 17.9362 38.5214 20.665C40.1496 20.7592 41.691 21.4619 42.8645 22.645C42.7164 18.256 39.9936 14.7418 36.6232 14.5948C36.0662 12.3148 34.4511 10.6492 32.5241 10.6492C31.7707 10.6603 31.0392 10.9157 30.4307 11.38C28.5261 8.51675 25.7304 6.69995 22.6012 6.69995C19.1262 6.69995 16.063 8.94635 14.1917 12.3682C13.9772 12.3446 13.7615 12.3329 13.5458 12.3334C10.5302 12.3334 8.02849 15.2302 7.58752 19.0258C8.57361 18.3389 9.73097 17.9696 10.916 17.9637Z" fill="#FFCCDD"/>
<path d="M25.8821 30.0724C24.7911 27.7492 24.4845 25.4326 20.881 24.1498" stroke="#45413C" stroke-width="1.4" stroke-linecap="round" stroke-linejoin="round"/>
<path d="M32.8474 30.0724C32.2967 29.5186 31.8627 28.8508 31.5731 28.1117C31.2835 27.3726 31.1447 26.5784 31.1656 25.78" stroke="#45413C" stroke-width="1.4" stroke-linecap="round" stroke-linejoin="round"/>
<path d="M33.3831 24.7125C32.5593 25.4891 31.4753 25.8943 30.367 25.8399C28.5704 25.8399 27.3491 23.8233 26.4867 21.3399C26.0228 19.9362 25.1087 18.7432 23.8994 17.9631" stroke="#45413C" stroke-width="1.4" stroke-linecap="round" stroke-linejoin="round"/>
<path d="M14.1918 12.3706C14.1918 12.3706 18.0526 12.5596 20.6938 16.9216" stroke="#45413C" stroke-width="1.4" stroke-linecap="round" stroke-linejoin="round"/>
<path d="M17.9704 30.0724C18.4324 29.0105 18.5867 27.8306 18.4144 26.6781C18.242 25.5256 17.7506 24.451 17.0006 23.587" stroke="#45413C" stroke-width="1.4" stroke-linecap="round" stroke-linejoin="round"/>
<path d="M7.54504 19.5045C8.48819 18.9407 9.57855 18.7052 10.6583 18.8321C11.7381 18.9589 12.7512 19.4416 13.551 20.2101" stroke="#45413C" stroke-width="1.4" stroke-linecap="round" stroke-linejoin="round"/>
<path d="M17.4319 19.0846C17.7371 19.8099 17.8578 20.6054 17.7823 21.3938C17.7067 22.1822 17.4375 22.9369 17.0007 23.5846C16.5929 24.3573 15.9341 24.9522 15.1433 25.2618C14.3526 25.5714 13.4819 25.5754 12.6886 25.273C10.1375 24.2884 9.2395 25.273 9.2395 25.273" stroke="#45413C" stroke-width="1.4" stroke-linecap="round" stroke-linejoin="round"/>
<path d="M36.6232 14.5937C35.6547 14.3916 34.6488 14.5892 33.8167 15.1451" stroke="#45413C" stroke-width="1.4" stroke-linecap="round" stroke-linejoin="round"/>
<path d="M30.4306 11.38C28.0001 12.82 27.8876 17.1136 29.9357 19.0834C32.945 21.9778 35.4335 18.0982 37.6969 21.8974" stroke="#45413C" stroke-width="1.4" stroke-linecap="round" stroke-linejoin="round"/>
<path d="M20.8809 20.7731C20.408 19.3138 20.408 17.7324 20.8809 16.2731C21.1388 15.3294 21.7225 14.5193 22.519 13.9994C23.3156 13.4796 24.2684 13.2871 25.193 13.4591" stroke="#45413C" stroke-width="1.4" stroke-linecap="round" stroke-linejoin="round"/>
<path d="M32.8474 30.0723H37.57C38.6716 30.0417 39.7353 29.645 40.6064 28.9396C41.4775 28.2343 42.1108 27.2572 42.4144 26.1501C42.7183 25.1369 42.8732 24.0812 42.8737 23.0194C42.8737 18.4594 40.0889 14.7447 36.6255 14.5935C36.0685 12.3135 34.4534 10.648 32.527 10.648C31.7725 10.6588 31.0399 10.9146 30.4307 11.38C28.5261 8.51675 25.7304 6.69995 22.6011 6.69995C19.1256 6.69995 16.063 8.94635 14.1917 12.3682C13.9772 12.3446 13.7615 12.3329 13.5458 12.3334C10.4056 12.3334 7.82121 15.4756 7.54273 19.5022C5.76277 20.3872 4.49097 22.633 4.49097 25.2748C4.49097 27.9165 6.37313 30.07 8.70142 30.07H32.8474V30.0723Z" stroke="#45413C" stroke-width="1.4" stroke-linecap="round" stroke-linejoin="round"/>
<path d="M22.8963 34.0573C24.2677 36.3991 26.4731 38.0757 29.0274 38.7183C31.5818 39.3609 34.2758 38.9168 36.5168 37.4838C38.7578 36.0508 40.3623 33.7461 40.9772 31.0769C41.5922 28.4077 41.1672 25.5926 39.7959 23.2508C38.4245 20.909 36.2191 19.2324 33.6647 18.5898C31.1104 17.9472 28.4164 18.3913 26.1754 19.8243C23.9343 21.2573 22.3299 23.5619 21.7149 26.2311C21.1 28.9003 21.5249 31.7155 22.8963 34.0573Z" fill="white" stroke="#45413C" stroke-width="1.4" stroke-linecap="round" stroke-linejoin="round"/>
<path d="M23.4205 28.654C23.4205 30.8505 24.2555 32.957 25.7418 34.5101C27.2281 36.0633 29.244 36.9358 31.3459 36.9358C33.4479 36.9358 35.4637 36.0633 36.95 34.5101C38.4363 32.957 39.2713 30.8505 39.2713 28.654C39.2713 26.4575 38.4363 24.351 36.95 22.7979C35.4637 21.2447 33.4479 20.3722 31.3459 20.3722C29.244 20.3722 27.2281 21.2447 25.7418 22.7979C24.2555 24.351 23.4205 26.4575 23.4205 28.654Z" fill="#3D3B45"/>
<path d="M36.9499 22.7986C38.0577 23.9567 38.8121 25.4321 39.1176 27.0382C39.423 28.6442 39.266 30.3089 38.6661 31.8217C38.0663 33.3345 37.0507 34.6274 35.7477 35.5371C34.4448 36.4468 32.9129 36.9323 31.3459 36.9323C29.7789 36.9323 28.2471 36.4468 26.9441 35.5371C25.6411 34.6274 24.6255 33.3345 24.0257 31.8217C23.4259 30.3089 23.2688 28.6442 23.5743 27.0382C23.8798 25.4321 24.6341 23.9567 25.7419 22.7986C26.4777 22.0294 27.3514 21.4192 28.3129 21.0029C29.2745 20.5866 30.3051 20.3723 31.3459 20.3723C32.3867 20.3723 33.4173 20.5866 34.3789 21.0029C35.3404 21.4192 36.2141 22.0294 36.9499 22.7986V22.7986Z" stroke="#45413C" stroke-width="1.4" stroke-linecap="round" stroke-linejoin="round"/>
<path d="M48.4364 45.9334L48.3474 46.0264C47.9866 46.4005 47.4989 46.6105 46.9906 46.6105C46.4823 46.6105 45.9946 46.4005 45.6338 46.0264L39.7358 39.8632C39.6167 39.7375 39.5498 39.5677 39.5498 39.3907C39.5498 39.2138 39.6167 39.044 39.7358 38.9182L41.6341 36.9346C41.7544 36.8101 41.9169 36.7402 42.0862 36.7402C42.2556 36.7402 42.4181 36.8101 42.5384 36.9346L48.4364 43.0978C48.615 43.2838 48.7568 43.5047 48.8535 43.748C48.9502 43.9913 49 44.2522 49 44.5156C49 44.7791 48.9502 45.04 48.8535 45.2833C48.7568 45.5266 48.615 45.7475 48.4364 45.9334Z" fill="#BF8256"/>
<path d="M48.4364 45.9334L48.3922 45.9802L40.6913 37.9198L41.6341 36.9346C41.7544 36.8101 41.9169 36.7402 42.0863 36.7402C42.2556 36.7402 42.4181 36.8101 42.5384 36.9346L48.4364 43.0978C48.615 43.2838 48.7568 43.5047 48.8535 43.748C48.9502 43.9913 49 44.2522 49 44.5156C49 44.7791 48.9502 45.04 48.8535 45.2833C48.7568 45.5266 48.615 45.7475 48.4364 45.9334Z" fill="#DEA47A"/>
<path d="M41.6197 36.9496L39.4218 34.6528C39.1004 35.1231 38.7423 35.5646 38.3509 35.9728C38.1144 36.22 37.8694 36.452 37.616 36.6688L39.7519 38.9008L41.6197 36.9496Z" fill="#F0F0F0" stroke="#45413C" stroke-width="1.4" stroke-linecap="round" stroke-linejoin="round"/>
<path d="M48.4364 45.9334L48.3474 46.0264C47.9866 46.4005 47.4989 46.6105 46.9906 46.6105C46.4823 46.6105 45.9946 46.4005 45.6338 46.0264L39.7358 39.8632C39.6167 39.7375 39.5498 39.5677 39.5498 39.3907C39.5498 39.2138 39.6167 39.044 39.7358 38.9182L41.6341 36.9346C41.7544 36.8101 41.9169 36.7402 42.0862 36.7402C42.2556 36.7402 42.4181 36.8101 42.5384 36.9346L48.4364 43.0978C48.615 43.2838 48.7568 43.5047 48.8535 43.748C48.9502 43.9913 49 44.2522 49 44.5156C49 44.7791 48.9502 45.04 48.8535 45.2833C48.7568 45.5266 48.615 45.7475 48.4364 45.9334V45.9334Z" stroke="#45413C" stroke-width="1.4" stroke-linecap="round" stroke-linejoin="round"/>
<path d="M23.5394 27.22C23.4607 27.6933 23.4211 28.1729 23.4212 28.6534C23.4188 29.821 23.6537 30.9758 24.1102 32.0416H26.1376C25.332 30.3196 24.9089 28.6 23.5394 27.22Z" fill="#FF87AF" stroke="#45413C" stroke-width="1.4" stroke-linecap="round" stroke-linejoin="round"/>
<path d="M34.4782 21.0448C33.5107 20.6099 32.4698 20.3816 31.4166 20.3734C32.3311 20.9631 33.414 21.2006 34.4782 21.0448Z" fill="#FFCCDD" stroke="#45413C" stroke-width="1.4" stroke-linecap="round" stroke-linejoin="round"/>
<path d="M34.4781 21.0448C33.4139 21.2006 32.3311 20.9632 31.4166 20.3734H31.346C29.6749 20.3712 28.0464 20.9236 26.6951 21.9508C26.7376 22.0588 26.7789 22.1686 26.818 22.282C27.7815 25.0588 29.1469 27.3124 31.1536 27.3124C32.3927 27.3738 33.6048 26.9209 34.5258 26.0524C33.6048 26.9209 32.3927 27.3738 31.1536 27.3124C29.144 27.3124 27.7815 25.0588 26.818 22.282C26.7789 22.1686 26.7376 22.0588 26.6951 21.9508C25.0283 23.2123 23.8966 25.102 23.5394 27.22C24.9088 28.6 25.332 30.319 26.1399 32.0416H33.9217C33.306 31.4223 32.8209 30.6755 32.4973 29.8489C32.1738 29.0224 32.0191 28.1343 32.043 27.2416C32.0191 28.1343 32.1738 29.0224 32.4973 29.8489C32.8209 30.6755 33.306 31.4223 33.9217 32.0416H38.5801C39.0091 31.0392 39.2433 29.9576 39.269 28.8598C39.2948 27.762 39.1115 26.6698 38.7298 25.6466C38.3482 24.6234 37.7758 23.6896 37.0459 22.8996C36.316 22.1095 35.4432 21.4788 34.4781 21.0442V21.0448Z" fill="#FF87AF" stroke="#45413C" stroke-width="1.4" stroke-linecap="round" stroke-linejoin="round"/>
</svg>
