<svg width="128" height="128" viewBox="0 0 128 128" fill="none" xmlns="http://www.w3.org/2000/svg">
<path d="M115.2 65.6845C115.201 58.0431 113.492 50.4984 110.197 43.6037C106.903 36.709 102.107 30.6391 96.1608 25.8393C90.215 21.0394 83.2702 17.6313 75.8358 15.8648C68.4014 14.0984 60.6658 14.0184 53.1965 15.6308C45.7271 17.2432 38.7134 20.507 32.6697 25.183C26.626 29.8589 21.7055 35.8283 18.2692 42.6535C14.8329 49.4786 12.9678 56.9864 12.8108 64.6262C12.6538 72.2659 14.2089 79.844 17.3619 86.8045H110.638C113.65 80.1712 115.205 72.9696 115.2 65.6845Z" fill="#C7F0FF"/>
<path d="M17.3619 86.8044C21.423 95.7695 27.9819 103.374 36.2533 108.708C44.5247 114.041 54.1581 116.878 64 116.878C73.842 116.878 83.4753 114.041 91.7468 108.708C100.018 103.374 106.577 95.7695 110.638 86.8044H17.3619Z" fill="#DAEDF7"/>
<path d="M14.08 86.8044H113.92" stroke="#45413C" stroke-width="1.5" stroke-linecap="round" stroke-linejoin="round"/>
<path d="M8.32001 86.8044H11.52" stroke="#45413C" stroke-width="1.5" stroke-linecap="round" stroke-linejoin="round"/>
<path d="M116.48 86.8044H119.68" stroke="#45413C" stroke-width="1.5" stroke-linecap="round" stroke-linejoin="round"/>
<path opacity="0.15" d="M45.3978 108.2C45.3978 108.922 48.5123 109.614 54.0562 110.125C59.6 110.635 67.1191 110.922 74.9594 110.922C82.7996 110.922 90.3187 110.635 95.8626 110.125C101.406 109.614 104.521 108.922 104.521 108.2C104.521 107.478 101.406 106.785 95.8626 106.274C90.3187 105.764 82.7996 105.477 74.9594 105.477C67.1191 105.477 59.6 105.764 54.0562 106.274C48.5123 106.785 45.3978 107.478 45.3978 108.2Z" fill="#45413C"/>
<path d="M98.304 80.5836C98.2576 74.2181 95.6964 68.1291 91.1789 63.6444C86.6613 59.1596 80.5538 56.6428 74.1882 56.6428C67.8225 56.6428 61.715 59.1596 57.1975 63.6444C52.6799 68.1291 50.1187 74.2181 50.0723 80.5836V84.4799H59.4074V92.2585H88.96V84.4799H98.304V80.5836Z" fill="#656769"/>
<path d="M74.1824 56.4685C71.0154 56.4683 67.8795 57.092 64.9535 58.3038C62.0276 59.5156 59.369 61.2919 57.1296 63.5312C54.8901 65.7705 53.1137 68.429 51.9017 71.3549C50.6897 74.2808 50.0659 77.4167 50.0659 80.5837V84.48H50.144C50.5305 78.3674 53.2312 72.6316 57.6967 68.4395C62.1621 64.2475 68.0569 61.9141 74.1818 61.9141C80.3066 61.9141 86.2014 64.2475 90.6669 68.4395C95.1323 72.6316 97.833 78.3674 98.2195 84.48H98.304V80.5837C98.304 77.4163 97.68 74.2799 96.4677 71.3537C95.2554 68.4275 93.4785 65.7688 91.2386 63.5294C88.9986 61.29 86.3394 59.5139 83.4129 58.3023C80.4863 57.0908 77.3498 56.4677 74.1824 56.4685Z" fill="#87898C"/>
<path d="M98.304 80.5836C98.2576 74.2181 95.6964 68.1291 91.1789 63.6444C86.6613 59.1596 80.5538 56.6428 74.1882 56.6428C67.8225 56.6428 61.715 59.1596 57.1975 63.6444C52.6799 68.1291 50.1187 74.2181 50.0723 80.5836V84.4799H59.4074V92.2585H88.96V84.4799H98.304V80.5836Z" stroke="#45413C" stroke-width="1.5" stroke-linecap="round" stroke-linejoin="round"/>
<path d="M68.736 57.2467C68.7579 58.6765 69.3413 60.0404 70.3602 61.0438C71.3791 62.0472 72.7518 62.6096 74.1818 62.6096C75.6118 62.6096 76.9844 62.0472 78.0033 61.0438C79.0222 60.0404 79.6056 58.6765 79.6275 57.2467V51.8003H68.736V57.2467Z" fill="#D18660"/>
<path d="M68.736 57.2249C72.2884 58.2899 76.0751 58.2899 79.6275 57.2249V51.8003H68.736V57.2249Z" fill="#BD704A"/>
<path d="M74.1824 62.6918C72.7382 62.6918 71.353 62.1182 70.3317 61.097C69.3103 60.0759 68.7364 58.6909 68.736 57.2467V51.8003H79.6275V57.2467C79.6272 58.6907 79.0534 60.0755 78.0323 61.0966C77.0112 62.1177 75.6265 62.6915 74.1824 62.6918V62.6918Z" stroke="#45413C" stroke-width="1.5" stroke-linecap="round" stroke-linejoin="round"/>
<path d="M100.096 103.144H48.2662L48.9152 105.448C49.0276 105.901 49.2884 106.303 49.6562 106.59C50.0239 106.878 50.4773 107.034 50.944 107.033H97.4221C97.8881 107.034 98.3407 106.878 98.7079 106.591C99.0751 106.304 99.3357 105.902 99.4483 105.45L100.096 103.144Z" fill="#BDBEC0" stroke="#45413C" stroke-width="1.5" stroke-linejoin="round"/>
<path d="M102.188 101.752C102.187 102.121 102.04 102.475 101.779 102.736C101.518 102.997 101.164 103.144 100.795 103.144H47.5686C47.1996 103.144 46.8457 102.997 46.5848 102.736C46.3239 102.475 46.1773 102.121 46.1773 101.752V69.9186C46.1773 69.2397 46.447 68.5885 46.9271 68.1084C47.4072 67.6284 48.0583 67.3586 48.7373 67.3586H99.6275C100.306 67.3586 100.958 67.6284 101.438 68.1084C101.918 68.5885 102.188 69.2397 102.188 69.9186V101.752Z" fill="#F0F0F0"/>
<path d="M102.188 69.9186C102.188 69.2397 101.918 68.5885 101.438 68.1084C100.958 67.6284 100.306 67.3586 99.6275 67.3586H48.7373C48.0583 67.3586 47.4072 67.6284 46.9271 68.1084C46.447 68.5885 46.1773 69.2397 46.1773 69.9186V78.0134C46.1773 76.8921 47.0861 74.3602 48.2074 74.3602H100.157C101.279 74.3602 102.188 76.8921 102.188 78.0134V69.9186Z" fill="white"/>
<path d="M102.188 101.752C102.187 102.121 102.04 102.475 101.779 102.736C101.518 102.997 101.164 103.144 100.795 103.144H47.5686C47.1996 103.144 46.8457 102.997 46.5848 102.736C46.3239 102.475 46.1773 102.121 46.1773 101.752V69.9186C46.1773 69.2397 46.447 68.5885 46.9271 68.1084C47.4072 67.6284 48.0583 67.3586 48.7373 67.3586H99.6275C100.306 67.3586 100.958 67.6284 101.438 68.1084C101.918 68.5885 102.188 69.2397 102.188 69.9186V101.752Z" stroke="#45413C" stroke-width="1.5" stroke-linejoin="round"/>
<path d="M77.9341 88.2689C77.9285 87.8013 78.0209 87.3377 78.2055 86.908C78.39 86.4783 78.6625 86.0921 79.0054 85.7742C78.8551 85.4017 78.6136 85.0729 78.3032 84.818C77.9928 84.5631 77.6234 84.3901 77.2288 84.315C76.7021 84.3124 76.1859 84.4625 75.7427 84.7471C75.2995 85.0317 74.9482 85.4387 74.7315 85.9188C74.5148 85.4387 74.1636 85.0317 73.7204 84.7471C73.2772 84.4625 72.761 84.3124 72.2342 84.315C70.6982 84.498 69.6973 86.5947 69.9853 88.9972C70.2733 91.3998 71.7453 93.2007 73.2749 93.0177C73.5685 92.9727 73.8496 92.8672 74.1004 92.7079C74.3511 92.5486 74.566 92.339 74.7315 92.0923C74.8971 92.3392 75.1122 92.5489 75.3632 92.7082C75.6142 92.8676 75.8955 92.9729 76.1894 93.0177C77.3082 93.1521 78.3936 92.2164 79.0054 90.7662C78.6621 90.4481 78.3893 90.0614 78.2047 89.6312C78.0202 89.2011 77.928 88.7369 77.9341 88.2689Z" fill="white" stroke="#45413C" stroke-width="1.5" stroke-linejoin="round"/>
<path d="M76.672 79.433C76.3077 79.738 76.0167 80.1211 75.8206 80.5538C75.6245 80.9866 75.5283 81.4579 75.5392 81.9329C76.0044 82.0304 76.4855 82.0213 76.9467 81.9065C77.4078 81.7916 77.837 81.5739 78.2021 81.2697C78.5671 80.9654 78.8586 80.5825 79.0547 80.1496C79.2508 79.7167 79.3465 79.2451 79.3344 78.77C78.8693 78.6738 78.3885 78.6834 77.9277 78.7982C77.4668 78.913 77.0377 79.1299 76.672 79.433Z" fill="white" stroke="#45413C" stroke-width="1.5" stroke-linejoin="round"/>
<path d="M102.17 87.5866L105.965 87.5252C106.271 87.5203 106.576 87.5758 106.861 87.6885C107.146 87.8013 107.406 87.9691 107.626 88.1823C107.846 88.3956 108.022 88.6501 108.144 88.9313C108.265 89.2126 108.331 89.5151 108.335 89.8215L108.411 94.4884C108.416 94.795 108.36 95.0996 108.247 95.3846C108.134 95.6697 107.966 95.9297 107.752 96.1499C107.539 96.37 107.284 96.5459 107.003 96.6676C106.721 96.7893 106.419 96.8543 106.112 96.859L102.316 96.9204C101.575 96.9406 100.853 96.6927 100.281 96.2223C99.7085 95.7519 99.3257 95.0907 99.2026 94.3604C99.0038 92.9968 98.9814 91.6133 99.136 90.2439C99.2361 89.5096 99.5982 88.8361 100.156 88.3478C100.713 87.8595 101.428 87.5891 102.17 87.5866Z" fill="#D18660"/>
<path d="M102.126 90.5626L106.033 90.4999C106.556 90.4877 107.068 90.6476 107.491 90.9553C107.914 91.2629 108.224 91.7011 108.374 92.2023L108.335 89.8215C108.331 89.5151 108.265 89.2126 108.144 88.9313C108.022 88.6501 107.846 88.3956 107.626 88.1823C107.406 87.9691 107.146 87.8013 106.861 87.6885C106.576 87.5758 106.271 87.5203 105.965 87.5252L102.17 87.5866C101.429 87.5896 100.715 87.8597 100.158 88.3472C99.6016 88.8347 99.2394 89.5069 99.1386 90.2401C99.0481 91.1122 99.0301 91.9903 99.0848 92.8654C99.2715 92.2025 99.6696 91.6188 100.219 91.2031C100.768 90.7874 101.437 90.5625 102.126 90.5626Z" fill="#E09F7E"/>
<path d="M102.17 87.5866L105.965 87.5252C106.271 87.5203 106.576 87.5758 106.861 87.6885C107.146 87.8013 107.406 87.9691 107.626 88.1823C107.846 88.3956 108.022 88.6501 108.144 88.9313C108.265 89.2126 108.331 89.5151 108.335 89.8215L108.411 94.4884C108.416 94.795 108.36 95.0996 108.247 95.3846C108.134 95.6697 107.966 95.9297 107.752 96.1499C107.539 96.37 107.284 96.5459 107.003 96.6676C106.721 96.7893 106.419 96.8543 106.112 96.859L102.316 96.9204C101.575 96.9406 100.853 96.6927 100.281 96.2223C99.7085 95.7519 99.3257 95.0907 99.2026 94.3604C99.0038 92.9968 98.9814 91.6133 99.136 90.2439C99.2361 89.5096 99.5982 88.8361 100.156 88.3478C100.713 87.8595 101.428 87.5891 102.17 87.5866V87.5866Z" stroke="#45413C" stroke-width="1.5" stroke-linecap="round" stroke-linejoin="round"/>
<path d="M48.3341 81.3068L44.5402 81.1788C44.2338 81.1684 43.9326 81.0977 43.6536 80.9708C43.3746 80.8439 43.1234 80.6632 42.9143 80.4391C42.7052 80.2151 42.5423 79.952 42.4349 79.6649C42.3276 79.3778 42.2779 79.0724 42.2886 78.766L42.4499 74.1017C42.4602 73.7951 42.5308 73.4934 42.6577 73.2141C42.7846 72.9347 42.9653 72.6831 43.1895 72.4737C43.4137 72.2642 43.677 72.101 43.9643 71.9933C44.2516 71.8857 44.5574 71.8358 44.864 71.8464L48.6579 71.9744C49.3983 71.9915 50.1075 72.2756 50.655 72.7742C51.2026 73.2728 51.5516 73.9524 51.6378 74.688C51.7668 76.0602 51.7186 77.4433 51.4944 78.8032C51.3581 79.5314 50.9632 80.1859 50.3825 80.646C49.8017 81.1061 49.0742 81.3408 48.3341 81.3068Z" fill="#D18660"/>
<path d="M48.5274 78.336L44.6221 78.208C44.0979 78.1943 43.5928 78.008 43.1852 77.678C42.7777 77.348 42.4904 76.8927 42.368 76.3827L42.2848 78.7622C42.2741 79.0692 42.324 79.3753 42.4318 79.663C42.5396 79.9506 42.7032 80.2142 42.9131 80.4385C43.123 80.6627 43.3751 80.8434 43.655 80.97C43.9349 81.0966 44.237 81.1667 44.544 81.1763L48.3379 81.3043C49.0775 81.3384 49.8045 81.1043 50.3852 80.6449C50.9659 80.1856 51.3612 79.5321 51.4983 78.8045C51.6331 77.9378 51.6956 77.0614 51.6851 76.1843C51.4662 76.8387 51.0389 77.4034 50.4687 77.792C49.8984 78.1806 49.2165 78.3717 48.5274 78.336Z" fill="#BD704A"/>
<path d="M48.3341 81.3068L44.5402 81.1788C44.2338 81.1684 43.9326 81.0977 43.6536 80.9708C43.3746 80.8439 43.1234 80.6632 42.9143 80.4391C42.7052 80.2151 42.5423 79.952 42.4349 79.6649C42.3276 79.3778 42.2779 79.0724 42.2886 78.766L42.4499 74.1017C42.4602 73.7951 42.5308 73.4934 42.6577 73.2141C42.7846 72.9347 42.9653 72.6831 43.1895 72.4737C43.4137 72.2642 43.677 72.101 43.9643 71.9933C44.2516 71.8857 44.5574 71.8358 44.864 71.8464L48.6579 71.9744C49.3983 71.9915 50.1075 72.2756 50.655 72.7742C51.2026 73.2728 51.5516 73.9524 51.6378 74.688C51.7668 76.0602 51.7186 77.4433 51.4944 78.8032C51.3581 79.5314 50.9632 80.1859 50.3825 80.646C49.8017 81.1061 49.0742 81.3408 48.3341 81.3068V81.3068Z" stroke="#45413C" stroke-width="1.5" stroke-linecap="round" stroke-linejoin="round"/>
<path d="M63.488 93.2237L60.279 98.048C60.201 98.1652 60.1562 98.3014 60.1495 98.4421C60.1427 98.5828 60.1743 98.7226 60.2407 98.8468C60.3072 98.9709 60.4061 99.0747 60.5269 99.147C60.6477 99.2194 60.7859 99.2576 60.9267 99.2576H67.3549C67.4957 99.2576 67.6339 99.2194 67.7547 99.147C67.8755 99.0747 67.9744 98.9709 68.0409 98.8468C68.1074 98.7226 68.1389 98.5828 68.1322 98.4421C68.1254 98.3014 68.0806 98.1652 68.0026 98.048L64.7885 93.2276C64.718 93.1196 64.6217 93.0309 64.5084 92.9693C64.3951 92.9078 64.2682 92.8754 64.1393 92.875C64.0103 92.8746 63.8833 92.9063 63.7696 92.9672C63.656 93.028 63.5592 93.1162 63.488 93.2237Z" fill="#FF6242" stroke="#45413C" stroke-width="1.5" stroke-linecap="round" stroke-linejoin="round"/>
<path d="M57.9174 87.5853L61.9699 89.9009C61.4609 90.7912 60.6728 91.4891 59.7274 91.8866C58.7821 92.2841 57.7321 92.3592 56.7398 92.1002C55.7474 91.8412 54.8681 91.2625 54.2376 90.4537C53.6071 89.6448 53.2606 88.6508 53.2517 87.6252C53.2428 86.5997 53.5719 85.5998 54.1882 84.7801C54.8045 83.9604 55.6736 83.3665 56.6613 83.0902C57.6489 82.814 58.7001 82.8707 59.6522 83.2518C60.6044 83.6328 61.4045 84.3168 61.929 85.1981L57.9174 87.5853Z" fill="#FFE500" stroke="#45413C" stroke-width="1.5" stroke-linecap="round" stroke-linejoin="round"/>
<path d="M63.36 87.7235C63.3327 87.7235 63.3059 87.7154 63.2832 87.7002C63.2605 87.685 63.2428 87.6634 63.2323 87.6382C63.2218 87.6129 63.2191 87.5851 63.2244 87.5583C63.2298 87.5315 63.2429 87.5068 63.2623 87.4875C63.2816 87.4682 63.3062 87.455 63.333 87.4497C63.3599 87.4443 63.3877 87.4471 63.4129 87.4575C63.4382 87.468 63.4598 87.4857 63.475 87.5085C63.4901 87.5312 63.4983 87.5579 63.4983 87.5853C63.4984 87.6035 63.495 87.6215 63.4881 87.6384C63.4812 87.6552 63.471 87.6705 63.4581 87.6834C63.4453 87.6963 63.43 87.7064 63.4131 87.7133C63.3963 87.7202 63.3782 87.7237 63.36 87.7235Z" fill="#FFE500"/>
<path d="M63.36 86.8071C63.2061 86.8071 63.0556 86.8528 62.9276 86.9383C62.7996 87.0238 62.6999 87.1453 62.641 87.2875C62.5821 87.4298 62.5667 87.5862 62.5967 87.7372C62.6267 87.8882 62.7009 88.0268 62.8097 88.1357C62.9185 88.2445 63.0572 88.3186 63.2082 88.3487C63.3591 88.3787 63.5156 88.3633 63.6578 88.3044C63.8 88.2455 63.9216 88.1457 64.0071 88.0177C64.0926 87.8898 64.1382 87.7393 64.1382 87.5854C64.1382 87.379 64.0562 87.181 63.9103 87.0351C63.7643 86.8891 63.5664 86.8071 63.36 86.8071Z" fill="#45413C"/>
<path d="M66.4755 87.7235C66.4574 87.7235 66.4394 87.7199 66.4226 87.713C66.4058 87.706 66.3906 87.6958 66.3778 87.683C66.3649 87.6702 66.3548 87.6549 66.3478 87.6382C66.3409 87.6214 66.3373 87.6034 66.3373 87.5853C66.3373 87.5671 66.3409 87.5491 66.3478 87.5324C66.3548 87.5156 66.3649 87.5003 66.3778 87.4875C66.3906 87.4747 66.4058 87.4645 66.4226 87.4575C66.4394 87.4506 66.4574 87.447 66.4755 87.447C66.5122 87.447 66.5473 87.4616 66.5733 87.4875C66.5992 87.5134 66.6138 87.5486 66.6138 87.5853C66.6138 87.6219 66.5992 87.6571 66.5733 87.683C66.5473 87.7089 66.5122 87.7235 66.4755 87.7235Z" fill="#FFE500"/>
<path d="M66.4743 86.8071C66.3203 86.8071 66.1699 86.8528 66.0419 86.9383C65.9139 87.0238 65.8142 87.1453 65.7553 87.2875C65.6964 87.4298 65.6809 87.5862 65.711 87.7372C65.741 87.8882 65.8151 88.0268 65.924 88.1357C66.0328 88.2445 66.1715 88.3186 66.3224 88.3487C66.4734 88.3787 66.6299 88.3633 66.7721 88.3044C66.9143 88.2455 67.0358 88.1457 67.1213 88.0177C67.2069 87.8898 67.2525 87.7393 67.2525 87.5854C67.2525 87.379 67.1705 87.181 67.0246 87.0351C66.8786 86.8891 66.6807 86.8071 66.4743 86.8071Z" fill="#45413C"/>
<path d="M92.5133 95.5675L89.3632 97.458C89.2422 97.5308 89.1037 97.5693 88.9626 97.5693C88.8214 97.5693 88.6829 97.5308 88.5619 97.458L85.4118 95.5675C85.307 95.5043 85.2185 95.4174 85.1533 95.3138C85.0882 95.2102 85.0483 95.0928 85.0368 94.971L84.3725 87.6558C84.3627 87.5481 84.3755 87.4396 84.4099 87.3372C84.4444 87.2348 84.4998 87.1406 84.5727 87.0608C84.6455 86.981 84.7342 86.9172 84.8331 86.8735C84.9319 86.8298 85.0388 86.8072 85.1469 86.8071H92.7782C92.8858 86.8081 92.992 86.8314 93.0901 86.8754C93.1882 86.9195 93.2761 86.9834 93.3482 87.0631C93.4204 87.1429 93.4752 87.2367 93.5093 87.3387C93.5434 87.4407 93.556 87.5487 93.5462 87.6558L92.8883 94.9761C92.8761 95.097 92.8358 95.2134 92.7707 95.3161C92.7056 95.4187 92.6175 95.5048 92.5133 95.5675Z" fill="#FF8A14" stroke="#45413C" stroke-width="1.5" stroke-linecap="round" stroke-linejoin="round"/>
<path d="M76.5863 70.6559C76.5979 70.5703 76.6277 70.4883 76.6738 70.4152C76.7198 70.3421 76.781 70.2797 76.8531 70.2323C76.9253 70.1849 77.0068 70.1535 77.0922 70.1402C77.1775 70.127 77.2647 70.1321 77.3479 70.1554C77.5439 70.2187 77.7072 70.3567 77.8023 70.5394L79.616 74.6137H79.6314L80.3392 71.511C80.3565 71.429 80.39 71.3513 80.4376 71.2824C80.4853 71.2136 80.5462 71.1548 80.6168 71.1097C80.6873 71.0646 80.7662 71.034 80.8487 71.0197C80.9312 71.0054 81.0158 71.0076 81.0974 71.0263C81.1791 71.045 81.2562 71.0797 81.3243 71.1285C81.3924 71.1773 81.45 71.2392 81.494 71.3105C81.5379 71.3819 81.5672 71.4612 81.5801 71.544C81.593 71.6267 81.5894 71.7112 81.5693 71.7926L80.5069 76.453C80.4956 76.5394 80.4658 76.6224 80.4194 76.6961C80.373 76.7699 80.3112 76.8327 80.2382 76.8803C80.1652 76.9278 80.0828 76.959 79.9966 76.9717C79.9104 76.9843 79.8225 76.9781 79.7389 76.9535C79.5437 76.8887 79.381 76.7512 79.2845 76.5695L77.4643 72.5452H77.4477L76.7501 75.607C76.7357 75.6919 76.704 75.773 76.6571 75.8452C76.6102 75.9175 76.549 75.9794 76.4773 76.0272C76.4056 76.0749 76.3249 76.1075 76.2401 76.123C76.1554 76.1384 76.0684 76.1364 75.9844 76.117C75.9005 76.0976 75.8214 76.0613 75.752 76.0102C75.6826 75.9592 75.6244 75.8945 75.5809 75.8201C75.5374 75.7457 75.5096 75.6632 75.4991 75.5777C75.4886 75.4922 75.4958 75.4055 75.52 75.3228L76.5863 70.6559Z" fill="#45413C"/>
<path d="M91.0323 73.9928C91.0475 73.9079 91.0803 73.8272 91.1285 73.7557C91.1768 73.6842 91.2394 73.6237 91.3125 73.5779C91.3855 73.5321 91.4674 73.502 91.5527 73.4897C91.638 73.4774 91.725 73.4831 91.808 73.5064L93.1699 73.8162C93.5722 73.8799 93.9557 74.0309 94.2934 74.2585C94.6312 74.4861 94.9151 74.7849 95.1252 75.1338C95.3353 75.4827 95.4666 75.8733 95.5098 76.2783C95.553 76.6833 95.5071 77.0929 95.3754 77.4782C95.3168 77.8618 95.1768 78.2284 94.9649 78.5535C94.753 78.8786 94.4741 79.1546 94.1469 79.3631C93.8196 79.5716 93.4515 79.7077 93.0674 79.7623C92.6832 79.817 92.2918 79.7888 91.9194 79.6798L90.496 79.3598C90.4096 79.3479 90.3267 79.3177 90.2529 79.2714C90.179 79.225 90.1157 79.1635 90.0674 79.091C90.019 79.0184 89.9865 78.9364 89.9722 78.8503C89.9578 78.7643 89.9618 78.6762 89.984 78.5918L91.0323 73.9928ZM91.3331 78.3538L92.1626 78.5419C92.3844 78.596 92.6153 78.6013 92.8394 78.5573C93.0634 78.5134 93.2753 78.4213 93.4602 78.2873C93.6451 78.1534 93.7987 77.9809 93.9104 77.7818C94.0221 77.5826 94.0891 77.3616 94.1069 77.1339C94.1963 76.912 94.235 76.6729 94.2203 76.4341C94.2055 76.1954 94.1376 75.9629 94.0216 75.7537C93.9056 75.5444 93.7443 75.3637 93.5496 75.2247C93.3549 75.0857 93.1316 74.992 92.896 74.9502L92.1485 74.78L91.3331 78.3538Z" fill="#45413C"/>
<path d="M96.4813 75.3215C96.4886 75.2283 96.5162 75.1378 96.5623 75.0564C96.6083 74.975 96.6716 74.9047 96.7478 74.8504C96.8239 74.7961 96.911 74.7591 97.003 74.7421C97.0949 74.7251 97.1895 74.7285 97.28 74.7519L99.3152 75.2153C99.3929 75.2277 99.4672 75.2563 99.5332 75.2992C99.5992 75.342 99.6555 75.3983 99.6985 75.4642C99.7414 75.5302 99.77 75.6045 99.7825 75.6822C99.795 75.7599 99.791 75.8394 99.7709 75.9155C99.755 75.9921 99.7236 76.0646 99.6784 76.1285C99.6333 76.1925 99.5755 76.2464 99.5086 76.287C99.4417 76.3276 99.3672 76.354 99.2896 76.3645C99.2121 76.375 99.1332 76.3694 99.0579 76.3481L97.6141 76.0191L97.3415 77.2172L98.6867 77.5244C98.7656 77.5358 98.8413 77.5636 98.9087 77.6061C98.9762 77.6486 99.0339 77.7048 99.0782 77.7711C99.1225 77.8374 99.1524 77.9122 99.1659 77.9908C99.1794 78.0694 99.1762 78.1499 99.1565 78.2271C99.1394 78.3044 99.1065 78.3774 99.06 78.4415C99.0135 78.5056 98.9544 78.5595 98.8862 78.5998C98.8181 78.6401 98.7424 78.666 98.6638 78.6759C98.5852 78.6858 98.5055 78.6794 98.4295 78.6572L97.0829 78.35L96.7987 79.598L98.3168 79.9436C98.3945 79.956 98.4688 79.9846 98.5347 80.0275C98.6007 80.0704 98.6569 80.1266 98.6997 80.1926C98.7426 80.2586 98.7711 80.3329 98.7834 80.4106C98.7957 80.4883 98.7916 80.5678 98.7712 80.6438C98.7553 80.7203 98.7239 80.7927 98.6789 80.8566C98.6338 80.9204 98.5762 80.9744 98.5095 81.0151C98.4428 81.0557 98.3684 81.0823 98.291 81.0931C98.2136 81.1038 98.1348 81.0986 98.0595 81.0777L95.9411 80.5951C95.8573 80.5807 95.7774 80.549 95.7064 80.5021C95.6355 80.4552 95.575 80.3941 95.5288 80.3227C95.4826 80.2512 95.4517 80.171 95.4381 80.087C95.4245 80.0031 95.4284 79.9172 95.4496 79.8348L96.4813 75.3215Z" fill="#45413C"/>
<path d="M76.5863 70.6559C76.5979 70.5703 76.6277 70.4883 76.6738 70.4152C76.7198 70.3421 76.781 70.2797 76.8531 70.2323C76.9253 70.1849 77.0068 70.1535 77.0922 70.1402C77.1775 70.127 77.2647 70.1321 77.3479 70.1554C77.5439 70.2187 77.7072 70.3567 77.8023 70.5394L79.616 74.6137H79.6314L80.3392 71.511C80.3565 71.429 80.39 71.3513 80.4376 71.2824C80.4853 71.2136 80.5462 71.1548 80.6168 71.1097C80.6873 71.0646 80.7662 71.034 80.8487 71.0197C80.9312 71.0054 81.0158 71.0076 81.0974 71.0263C81.1791 71.045 81.2562 71.0797 81.3243 71.1285C81.3924 71.1773 81.45 71.2392 81.494 71.3105C81.5379 71.3819 81.5672 71.4612 81.5801 71.544C81.593 71.6267 81.5894 71.7112 81.5693 71.7926L80.5069 76.453C80.4956 76.5394 80.4658 76.6224 80.4194 76.6961C80.373 76.7699 80.3112 76.8327 80.2382 76.8803C80.1652 76.9278 80.0828 76.959 79.9966 76.9717C79.9104 76.9843 79.8225 76.9781 79.7389 76.9535C79.5437 76.8887 79.381 76.7512 79.2845 76.5695L77.4643 72.5452H77.4477L76.7501 75.607C76.7357 75.6919 76.704 75.773 76.6571 75.8452C76.6102 75.9175 76.549 75.9794 76.4773 76.0272C76.4056 76.0749 76.3249 76.1075 76.2401 76.123C76.1554 76.1384 76.0684 76.1364 75.9844 76.117C75.9005 76.0976 75.8214 76.0613 75.752 76.0102C75.6826 75.9592 75.6244 75.8945 75.5809 75.8201C75.5374 75.7457 75.5096 75.6632 75.4991 75.5777C75.4886 75.4922 75.4958 75.4055 75.52 75.3228L76.5863 70.6559Z" stroke="#45413C"/>
<path d="M91.0323 73.9928C91.0475 73.9079 91.0803 73.8272 91.1285 73.7557C91.1768 73.6842 91.2394 73.6237 91.3125 73.5779C91.3855 73.5321 91.4674 73.502 91.5527 73.4897C91.638 73.4774 91.725 73.4831 91.808 73.5064L93.1699 73.8162C93.5722 73.8799 93.9557 74.0309 94.2934 74.2585C94.6312 74.4861 94.9151 74.7849 95.1252 75.1338C95.3353 75.4827 95.4666 75.8733 95.5098 76.2783C95.553 76.6833 95.5071 77.0929 95.3754 77.4782C95.3168 77.8618 95.1768 78.2284 94.9649 78.5535C94.753 78.8786 94.4741 79.1546 94.1469 79.3631C93.8196 79.5716 93.4515 79.7077 93.0674 79.7623C92.6832 79.817 92.2918 79.7888 91.9194 79.6798L90.496 79.3598C90.4096 79.3479 90.3267 79.3177 90.2529 79.2714C90.179 79.225 90.1157 79.1635 90.0674 79.091C90.019 79.0184 89.9865 78.9364 89.9722 78.8503C89.9578 78.7643 89.9618 78.6762 89.984 78.5918L91.0323 73.9928ZM91.3331 78.3538L92.1626 78.5419C92.3844 78.596 92.6153 78.6013 92.8394 78.5573C93.0634 78.5134 93.2753 78.4213 93.4602 78.2873C93.6451 78.1534 93.7987 77.9809 93.9104 77.7818C94.0221 77.5826 94.0891 77.3616 94.1069 77.1339C94.1963 76.912 94.235 76.6729 94.2203 76.4342C94.2055 76.1954 94.1376 75.9629 94.0216 75.7537C93.9056 75.5444 93.7443 75.3637 93.5496 75.2247C93.3549 75.0857 93.1316 74.992 92.896 74.9502L92.1485 74.78L91.3331 78.3538Z" stroke="#45413C"/>
<path d="M96.4813 75.3215C96.4886 75.2283 96.5162 75.1378 96.5623 75.0564C96.6083 74.975 96.6716 74.9047 96.7478 74.8504C96.8239 74.7961 96.911 74.7591 97.003 74.7421C97.0949 74.7251 97.1895 74.7285 97.28 74.7519L99.3152 75.2153C99.3929 75.2277 99.4672 75.2563 99.5332 75.2992C99.5992 75.342 99.6555 75.3983 99.6985 75.4642C99.7414 75.5302 99.77 75.6045 99.7825 75.6822C99.795 75.7599 99.791 75.8394 99.7709 75.9155C99.755 75.9921 99.7236 76.0646 99.6784 76.1285C99.6333 76.1925 99.5755 76.2464 99.5086 76.287C99.4417 76.3276 99.3672 76.354 99.2896 76.3645C99.2121 76.375 99.1332 76.3694 99.0579 76.3481L97.6141 76.0191L97.3415 77.2172L98.6867 77.5244C98.7656 77.5358 98.8413 77.5636 98.9087 77.6061C98.9762 77.6486 99.0339 77.7048 99.0782 77.7711C99.1225 77.8374 99.1524 77.9122 99.1659 77.9908C99.1794 78.0694 99.1762 78.1499 99.1565 78.2271C99.1394 78.3044 99.1065 78.3774 99.06 78.4415C99.0135 78.5056 98.9544 78.5595 98.8862 78.5998C98.8181 78.6401 98.7424 78.666 98.6638 78.6759C98.5852 78.6858 98.5055 78.6794 98.4295 78.6572L97.0829 78.35L96.7987 79.598L98.3168 79.9436C98.3945 79.956 98.4688 79.9846 98.5347 80.0275C98.6007 80.0704 98.6569 80.1266 98.6997 80.1926C98.7426 80.2586 98.7711 80.3329 98.7834 80.4106C98.7957 80.4883 98.7916 80.5678 98.7712 80.6438C98.7553 80.7203 98.7239 80.7927 98.6789 80.8566C98.6338 80.9204 98.5762 80.9744 98.5095 81.0151C98.4428 81.0557 98.3684 81.0823 98.291 81.0931C98.2136 81.1038 98.1348 81.0986 98.0595 81.0777L95.9411 80.5951C95.8573 80.5807 95.7774 80.549 95.7064 80.5021C95.6355 80.4552 95.575 80.3941 95.5288 80.3227C95.4826 80.2512 95.4517 80.171 95.4381 80.087C95.4245 80.0031 95.4284 79.9172 95.4496 79.8348L96.4813 75.3215Z" stroke="#45413C"/>
<path d="M82.8941 72.8525L86.2746 72.0269L88.9626 74.2349L88.0986 78.0275L84.7194 78.8531L82.0314 76.6451L82.8941 72.8525Z" fill="#9CEB60" stroke="#45413C" stroke-linecap="round" stroke-linejoin="round"/>
<path d="M55.584 75.9169C55.584 76.3255 55.8053 76.7301 56.2354 77.1076C56.6654 77.4852 57.2957 77.8282 58.0902 78.1171C58.8848 78.4061 59.8281 78.6353 60.8663 78.7917C61.9044 78.948 63.0171 79.0285 64.1408 79.0285C65.2645 79.0285 66.3772 78.948 67.4154 78.7917C68.4535 78.6353 69.3968 78.4061 70.1914 78.1171C70.986 77.8282 71.6163 77.4852 72.0463 77.1076C72.4763 76.7301 72.6976 76.3255 72.6976 75.9169C72.6976 75.5082 72.4763 75.1036 72.0463 74.7261C71.6163 74.3485 70.986 74.0055 70.1914 73.7166C69.3968 73.4276 68.4535 73.1984 67.4154 73.042C66.3772 72.8857 65.2645 72.8052 64.1408 72.8052C63.0171 72.8052 61.9044 72.8857 60.8663 73.042C59.8281 73.1984 58.8848 73.4276 58.0902 73.7166C57.2957 74.0055 56.6654 74.3485 56.2354 74.7261C55.8053 75.1036 55.584 75.5082 55.584 75.9169Z" fill="#00B8F0" stroke="#45413C" stroke-width="1.5" stroke-linecap="round" stroke-linejoin="round"/>
<path d="M32.9395 58.6841C31.0669 60.5567 35.7478 63.3599 35.7478 66.1759C35.7478 68.2687 32.9395 68.9842 32.9395 70.8569" stroke="#45413C" stroke-width="1.5" stroke-linecap="round" stroke-linejoin="round"/>
<path d="M26.3859 54.9402C24.5133 56.8128 29.1942 59.6211 29.1942 62.4295C29.1942 64.5223 26.3859 65.2378 26.3859 67.1091" stroke="#45413C" stroke-width="1.5" stroke-linecap="round" stroke-linejoin="round"/>
<path opacity="0.15" d="M19.7274 101.976C19.7274 102.698 20.6289 103.391 22.2336 103.901C23.8383 104.412 26.0148 104.699 28.2842 104.699C30.5536 104.699 32.73 104.412 34.3347 103.901C35.9394 103.391 36.841 102.698 36.841 101.976C36.841 101.254 35.9394 100.562 34.3347 100.051C32.73 99.5405 30.5536 99.2537 28.2842 99.2537C26.0148 99.2537 23.8383 99.5405 22.2336 100.051C20.6289 100.562 19.7274 101.254 19.7274 101.976Z" fill="#45413C"/>
<path d="M32.3495 100.81H24.2189C23.8384 100.81 23.4712 100.67 23.1865 100.418C22.9019 100.165 22.7196 99.817 22.6739 99.4393L20.5056 81.3618H36.064L33.888 99.4393C33.8428 99.816 33.6614 100.163 33.3781 100.416C33.0948 100.668 32.7289 100.808 32.3495 100.81Z" fill="#FFFCE5"/>
<path d="M20.7847 83.6953H35.7837L36.064 81.3618H20.5056L20.7847 83.6953Z" fill="#F7E5C6"/>
<path d="M32.3495 100.81H24.2189C23.8384 100.81 23.4712 100.67 23.1865 100.418C22.9019 100.165 22.7196 99.817 22.6739 99.4393L20.5056 81.3618H36.064L33.888 99.4393C33.8428 99.816 33.6614 100.163 33.3781 100.416C33.0948 100.668 32.7289 100.808 32.3495 100.81V100.81Z" stroke="#45413C" stroke-width="1.5" stroke-linejoin="round"/>
<path d="M36.064 81.3619H20.5056C20.3007 81.3628 20.0977 81.3231 19.9082 81.2453C19.7187 81.1674 19.5464 81.0529 19.4013 80.9082C19.2562 80.7636 19.1411 80.5917 19.0626 80.4025C18.9841 80.2132 18.9438 80.0103 18.944 79.8054C18.944 79.6011 18.9843 79.3988 19.0625 79.21C19.1407 79.0212 19.2554 78.8497 19.4 78.7053C19.5445 78.5609 19.7161 78.4463 19.9049 78.3683C20.0938 78.2902 20.2961 78.2501 20.5005 78.2502H36.064C36.2682 78.2502 36.4705 78.2905 36.6592 78.3686C36.8478 78.4468 37.0193 78.5613 37.1637 78.7058C37.3081 78.8502 37.4227 79.0216 37.5008 79.2103C37.579 79.399 37.6192 79.6012 37.6192 79.8054C37.6194 80.0098 37.5793 80.2122 37.5012 80.401C37.4231 80.5898 37.3086 80.7614 37.1641 80.906C37.0197 81.0505 36.8482 81.1652 36.6594 81.2434C36.4707 81.3217 36.2683 81.3619 36.064 81.3619Z" fill="#FFFCE5" stroke="#45413C" stroke-width="1.5" stroke-linejoin="round"/>
<path d="M36.064 78.2503H20.5056L21.1546 75.552C21.2362 75.2123 21.4299 74.91 21.7044 74.6938C21.9789 74.4776 22.3181 74.3602 22.6675 74.3604H33.9021C34.2514 74.3606 34.5904 74.4782 34.8648 74.6944C35.1392 74.9105 35.333 75.2125 35.4151 75.552L36.064 78.2503Z" fill="#FFFCE5" stroke="#45413C" stroke-width="1.5" stroke-linejoin="round"/>
<path d="M31.8259 89.5769C31.8259 90.2776 31.6181 90.9625 31.2288 91.545C30.8394 92.1275 30.286 92.5815 29.6386 92.8494C28.9913 93.1174 28.2789 93.1873 27.5918 93.0503C26.9046 92.9134 26.2736 92.5757 25.7784 92.08C25.2832 91.5843 24.9462 90.9528 24.81 90.2655C24.6738 89.5782 24.7445 88.866 25.0131 88.2189C25.2818 87.5718 25.7363 87.0189 26.3193 86.6302C26.9022 86.2415 27.5873 86.0344 28.288 86.0352C29.2267 86.0362 30.1265 86.4098 30.7899 87.0739C31.4533 87.738 31.8259 88.6383 31.8259 89.5769Z" fill="#00DBA8" stroke="#45413C" stroke-width="1.5" stroke-linecap="round" stroke-linejoin="round"/>
<path d="M89.728 35.4879V31.6018C89.6908 27.5048 88.0372 23.5883 85.127 20.7043C82.2167 17.8204 78.2853 16.2024 74.1882 16.2024C70.091 16.2024 66.1596 17.8204 63.2494 20.7043C60.3391 23.5883 58.6855 27.5048 58.6483 31.6018V35.4879C57.8241 35.4879 57.0336 35.8153 56.4508 36.3982C55.8679 36.981 55.5405 37.7715 55.5405 38.5958C55.5405 39.42 55.8679 40.2105 56.4508 40.7933C57.0336 41.3762 57.8241 41.7036 58.6483 41.7036C58.7136 41.7036 58.7763 41.6882 58.8391 41.6844C59.3874 45.3631 61.2388 48.7225 64.056 51.1509C66.8732 53.5793 70.4688 54.9151 74.1882 54.9151C77.9075 54.9151 81.5032 53.5793 84.3204 51.1509C87.1376 48.7225 88.9889 45.3631 89.5373 41.6844C89.6026 41.6844 89.6653 41.7036 89.728 41.7036C90.5523 41.7036 91.3428 41.3762 91.9256 40.7933C92.5084 40.2105 92.8359 39.42 92.8359 38.5958C92.8359 37.7715 92.5084 36.981 91.9256 36.3982C91.3428 35.8153 90.5523 35.4879 89.728 35.4879Z" fill="#D18660" stroke="#45413C" stroke-width="1.5" stroke-linecap="round" stroke-linejoin="round"/>
<path d="M63.3037 42.0915C63.3037 42.3466 63.3539 42.5993 63.4516 42.835C63.5492 43.0708 63.6924 43.285 63.8728 43.4654C64.0532 43.6458 64.2674 43.789 64.5031 43.8866C64.7389 43.9843 64.9916 44.0345 65.2467 44.0345C65.5019 44.0345 65.7545 43.9843 65.9903 43.8866C66.226 43.789 66.4402 43.6458 66.6207 43.4654C66.8011 43.285 66.9442 43.0708 67.0418 42.835C67.1395 42.5993 67.1898 42.3466 67.1898 42.0915C67.1898 41.8363 67.1395 41.5836 67.0418 41.3479C66.9442 41.1122 66.8011 40.898 66.6207 40.7175C66.4402 40.5371 66.226 40.394 65.9903 40.2963C65.7545 40.1987 65.5019 40.1484 65.2467 40.1484C64.9916 40.1484 64.7389 40.1987 64.5031 40.2963C64.2674 40.394 64.0532 40.5371 63.8728 40.7175C63.6924 40.898 63.5492 41.1122 63.4516 41.3479C63.3539 41.5836 63.3037 41.8363 63.3037 42.0915Z" fill="#BD704A"/>
<path d="M81.175 42.0915C81.175 42.3466 81.2253 42.5993 81.323 42.835C81.4206 43.0708 81.5637 43.285 81.7442 43.4654C81.9246 43.6458 82.1388 43.789 82.3745 43.8866C82.6103 43.9843 82.8629 44.0345 83.1181 44.0345C83.3733 44.0345 83.6259 43.9843 83.8617 43.8866C84.0974 43.789 84.3116 43.6458 84.492 43.4654C84.6725 43.285 84.8156 43.0708 84.9132 42.835C85.0109 42.5993 85.0611 42.3466 85.0611 42.0915C85.0611 41.8363 85.0109 41.5836 84.9132 41.3479C84.8156 41.1122 84.6725 40.898 84.492 40.7175C84.3116 40.5371 84.0974 40.394 83.8617 40.2963C83.6259 40.1987 83.3733 40.1484 83.1181 40.1484C82.8629 40.1484 82.6103 40.1987 82.3745 40.2963C82.1388 40.394 81.9246 40.5371 81.7442 40.7175C81.5637 40.898 81.4206 41.1122 81.323 41.3479C81.2253 41.5836 81.175 41.8363 81.175 42.0915Z" fill="#BD704A"/>
<path d="M71.0746 46.8262C71.9606 47.5341 73.0611 47.9197 74.1952 47.9197C75.3293 47.9197 76.4298 47.5341 77.3158 46.8262" stroke="#45413C" stroke-width="1.5" stroke-linecap="round" stroke-linejoin="round"/>
<path d="M82.729 37.0419C82.5368 36.5804 82.2123 36.1861 81.7963 35.9088C81.3804 35.6314 80.8916 35.4834 80.3917 35.4834C79.8918 35.4834 79.403 35.6314 78.9871 35.9088C78.5711 36.1861 78.2466 36.5804 78.0544 37.0419" stroke="#45413C" stroke-width="1.5" stroke-linecap="round" stroke-linejoin="round"/>
<path d="M70.2835 37.0419C70.0913 36.5804 69.7668 36.1861 69.3509 35.9088C68.9349 35.6314 68.4462 35.4834 67.9463 35.4834C67.4463 35.4834 66.9576 35.6314 66.5416 35.9088C66.1257 36.1861 65.8012 36.5804 65.609 37.0419" stroke="#45413C" stroke-width="1.5" stroke-linecap="round" stroke-linejoin="round"/>
<path d="M88.6093 20.8832C88.5463 20.7834 88.5077 20.6703 88.4966 20.5529C88.4855 20.4355 88.5022 20.3171 88.5453 20.2073C88.8099 19.5031 88.9452 18.7568 88.9447 18.0044C88.9383 17.0565 88.7217 16.1217 88.3105 15.2675C87.8992 14.4133 87.3035 13.6611 86.5664 13.0649C86.4183 12.954 86.2357 12.8992 86.0511 12.9103C85.8664 12.9213 85.6916 12.9974 85.5578 13.1251C85.0019 13.595 84.3854 13.988 83.7248 14.2937C83.7274 13.3744 83.5427 12.4642 83.1821 11.6185C83.1412 11.5095 83.0761 11.4113 82.9917 11.3311C82.9073 11.251 82.8058 11.1911 82.6948 11.156C82.5839 11.1208 82.4664 11.1114 82.3512 11.1283C82.236 11.1452 82.1262 11.1881 82.0301 11.2537C81.1069 11.9178 79.9833 12.2441 78.848 12.1779C76.3226 12.0499 75.6109 11.4009 69.5232 11.4009C64.9792 11.4009 61.8611 14.1952 62.656 16.864C62.6967 17.0019 62.6985 17.1484 62.6613 17.2873C62.624 17.4262 62.5491 17.5521 62.4448 17.6512C60.7535 19.2428 59.4058 21.1637 58.4846 23.2957C57.5634 25.4276 57.0881 27.7255 57.088 30.048V34.7097C57.088 35.1219 57.2517 35.5171 57.5431 35.8085C57.8346 36.0999 58.2298 36.2636 58.6419 36.2636C59.0541 36.2636 59.4493 36.0999 59.7407 35.8085C60.0321 35.5171 60.1959 35.1219 60.1959 34.7097C60.1947 32.464 60.7353 30.2511 61.7717 28.2588C62.808 26.2665 64.3097 24.5535 66.1491 23.2653C66.4427 23.06 66.7981 22.9624 67.1553 22.9887C67.5126 23.0151 67.8498 23.1638 68.1101 23.4099C69.0385 24.2143 70.2344 24.6422 71.4624 24.6092C72.2203 24.614 72.9708 24.4597 73.6653 24.1561C73.8408 24.0765 74.0402 24.0675 74.2221 24.1312C74.404 24.1948 74.5544 24.3262 74.6419 24.4979C75.2824 25.537 76.1909 26.3843 77.2721 26.9508C78.3532 27.5173 79.5671 27.782 80.7859 27.7171C82.1613 27.7289 83.5162 27.3836 84.7181 26.7148C84.8875 26.6083 85.0909 26.5698 85.2875 26.6071C85.4841 26.6444 85.6593 26.7547 85.7779 26.9158C87.3362 29.2163 88.1686 31.9312 88.1677 34.7097C88.1677 34.9138 88.2079 35.1159 88.286 35.3044C88.3641 35.4929 88.4785 35.6642 88.6228 35.8085C88.7671 35.9528 88.9384 36.0673 89.127 36.1454C89.3155 36.2235 89.5176 36.2636 89.7216 36.2636C89.9257 36.2636 90.1277 36.2235 90.3163 36.1454C90.5048 36.0673 90.6761 35.9528 90.8204 35.8085C90.9647 35.6642 91.0792 35.4929 91.1572 35.3044C91.2353 35.1159 91.2755 34.9138 91.2755 34.7097V30.048C91.28 26.8011 90.3548 23.6209 88.6093 20.8832Z" fill="#724F3D"/>
<path d="M62.441 20.6285C62.5453 20.5298 62.6202 20.4041 62.6575 20.2654C62.6948 20.1267 62.6929 19.9803 62.6522 19.8426C61.8573 17.1738 64.9754 14.3783 69.5194 14.3783C75.6071 14.3783 76.3187 15.026 78.8442 15.1552C79.9794 15.2225 81.1032 14.8966 82.0263 14.2324C82.1224 14.1668 82.2322 14.1239 82.3474 14.1069C82.4625 14.09 82.58 14.0994 82.691 14.1346C82.8019 14.1697 82.9035 14.2296 82.9879 14.3098C83.0723 14.3899 83.1374 14.4882 83.1783 14.5972C83.4256 15.2062 83.5976 15.8433 83.6903 16.4941C83.7009 16.5795 83.7326 16.6608 83.7825 16.7309C83.8324 16.801 83.8988 16.8576 83.976 16.8957C84.0531 16.9338 84.1385 16.9521 84.2245 16.949C84.3104 16.9459 84.3943 16.9216 84.4685 16.8781C84.8529 16.655 85.2166 16.398 85.5552 16.1101C85.6891 15.9824 85.8638 15.9063 86.0485 15.8953C86.2332 15.8843 86.4158 15.9391 86.5639 16.05C87.6479 16.9367 88.4183 18.1482 88.7616 19.506C88.8816 19.0175 88.9422 18.5164 88.9421 18.0135C88.9358 17.0655 88.7192 16.1307 88.3079 15.2765C87.8967 14.4224 87.301 13.6701 86.5639 13.074C86.4158 12.9631 86.2332 12.9083 86.0485 12.9193C85.8638 12.9303 85.6891 13.0064 85.5552 13.1341C84.9993 13.604 84.3828 13.997 83.7223 14.3028C83.7248 13.3834 83.5401 12.4732 83.1795 11.6276C83.1387 11.5186 83.0736 11.4203 82.9892 11.3402C82.9048 11.26 82.8032 11.2001 82.6923 11.165C82.5813 11.1298 82.4638 11.1204 82.3486 11.1373C82.2335 11.1543 82.1237 11.1972 82.0275 11.2628C81.1043 11.9269 79.9808 12.2532 78.8455 12.1869C76.32 12.0589 75.6083 11.41 69.5207 11.41C64.9767 11.41 61.8586 14.2042 62.6535 16.873C62.6942 17.0109 62.696 17.1574 62.6587 17.2963C62.6215 17.4353 62.5465 17.5612 62.4423 17.6602C60.7525 19.2511 59.4059 21.1706 58.4852 23.3009C57.5644 25.4312 57.089 27.7273 57.088 30.048V33.024C57.0878 30.7021 57.5625 28.4046 58.4831 26.2729C59.4036 24.1412 60.7506 22.2204 62.441 20.6285Z" fill="#A86C4D"/>
<path d="M88.6093 20.8832C88.5463 20.7834 88.5077 20.6703 88.4966 20.5529C88.4855 20.4355 88.5022 20.3171 88.5453 20.2073C88.8099 19.5031 88.9452 18.7568 88.9447 18.0044C88.9383 17.0565 88.7217 16.1217 88.3105 15.2675C87.8992 14.4133 87.3035 13.6611 86.5664 13.0649C86.4183 12.954 86.2357 12.8992 86.0511 12.9103C85.8664 12.9213 85.6916 12.9974 85.5578 13.1251C85.0019 13.595 84.3854 13.988 83.7248 14.2937C83.7274 13.3744 83.5427 12.4642 83.1821 11.6185C83.1412 11.5095 83.0761 11.4113 82.9917 11.3311C82.9073 11.251 82.8058 11.1911 82.6948 11.156C82.5839 11.1208 82.4664 11.1114 82.3512 11.1283C82.236 11.1452 82.1262 11.1881 82.0301 11.2537C81.1069 11.9178 79.9833 12.2441 78.848 12.1779C76.3226 12.0499 75.6109 11.4009 69.5232 11.4009C64.9792 11.4009 61.8611 14.1952 62.656 16.864C62.6967 17.0019 62.6985 17.1484 62.6613 17.2873C62.624 17.4262 62.5491 17.5521 62.4448 17.6512C60.7535 19.2428 59.4058 21.1637 58.4846 23.2957C57.5634 25.4276 57.0881 27.7255 57.088 30.048V34.7097C57.088 35.1219 57.2517 35.5171 57.5431 35.8085C57.8346 36.0999 58.2298 36.2636 58.6419 36.2636C59.0541 36.2636 59.4493 36.0999 59.7407 35.8085C60.0321 35.5171 60.1959 35.1219 60.1959 34.7097C60.1947 32.464 60.7353 30.2511 61.7717 28.2588C62.808 26.2665 64.3097 24.5535 66.1491 23.2652C66.4427 23.06 66.7981 22.9624 67.1553 22.9887C67.5126 23.0151 67.8498 23.1638 68.1101 23.4099C69.0385 24.2143 70.2344 24.6422 71.4624 24.6092C72.2203 24.614 72.9708 24.4597 73.6653 24.1561C73.8408 24.0765 74.0402 24.0675 74.2221 24.1312C74.404 24.1948 74.5544 24.3262 74.6419 24.4979C75.2824 25.537 76.1909 26.3843 77.2721 26.9508C78.3532 27.5173 79.5671 27.782 80.7859 27.7171C82.1613 27.7289 83.5162 27.3836 84.7181 26.7148C84.8875 26.6083 85.0909 26.5698 85.2875 26.6071C85.4841 26.6444 85.6593 26.7547 85.7779 26.9158C87.3362 29.2163 88.1686 31.9312 88.1677 34.7097C88.1677 34.9138 88.2079 35.1159 88.286 35.3044C88.3641 35.4929 88.4785 35.6642 88.6228 35.8085C88.7671 35.9528 88.9384 36.0673 89.127 36.1454C89.3155 36.2235 89.5176 36.2636 89.7216 36.2636C89.9257 36.2636 90.1277 36.2235 90.3163 36.1454C90.5048 36.0673 90.6761 35.9528 90.8204 35.8085C90.9647 35.6642 91.0792 35.4929 91.1573 35.3044C91.2353 35.1159 91.2755 34.9138 91.2755 34.7097V30.048C91.28 26.8011 90.3548 23.6209 88.6093 20.8832V20.8832Z" stroke="#45413C" stroke-width="1.5" stroke-linecap="round" stroke-linejoin="round"/>
<path d="M83.7235 14.2937C81.4336 15.7388 76.5133 15.2857 76.5133 15.2857" stroke="#45413C" stroke-width="1.5" stroke-linecap="round" stroke-linejoin="round"/>
</svg>

