<svg width="128" height="128" viewBox="0 0 128 128" fill="none" xmlns="http://www.w3.org/2000/svg">
<path d="M12.8 70.5601C12.8 84.1392 18.1943 97.1621 27.7961 106.764C37.398 116.366 50.4209 121.76 64 121.76C77.5791 121.76 90.602 116.366 100.204 106.764C109.806 97.1621 115.2 84.1392 115.2 70.5601C115.2 56.981 109.806 43.9581 100.204 34.3562C90.602 24.7544 77.5791 19.3601 64 19.3601C50.4209 19.3601 37.398 24.7544 27.7961 34.3562C18.1943 43.9581 12.8 56.981 12.8 70.5601Z" fill="#C7F0FF"/>
<path opacity="0.15" d="M28.5862 108.212C28.5862 108.722 29.3954 109.21 30.8357 109.57C32.2759 109.93 34.2294 110.132 36.2662 110.132C38.3031 110.132 40.2565 109.93 41.6968 109.57C43.1371 109.21 43.9462 108.722 43.9462 108.212C43.9462 107.703 43.1371 107.215 41.6968 106.855C40.2565 106.495 38.3031 106.292 36.2662 106.292C34.2294 106.292 32.2759 106.495 30.8357 106.855C29.3954 107.215 28.5862 107.703 28.5862 108.212Z" fill="#45413C"/>
<path opacity="0.15" d="M84.48 108.212C84.48 108.722 85.2891 109.21 86.7294 109.57C88.1697 109.93 90.1231 110.132 92.16 110.132C94.1968 110.132 96.1503 109.93 97.5906 109.57C99.0308 109.21 99.84 108.722 99.84 108.212C99.84 107.703 99.0308 107.215 97.5906 106.855C96.1503 106.495 94.1968 106.292 92.16 106.292C90.1231 106.292 88.1697 106.495 86.7294 106.855C85.2891 107.215 84.48 107.703 84.48 108.212Z" fill="#45413C"/>
<path opacity="0.15" d="M55.04 116.426C55.04 116.936 55.984 117.424 57.6643 117.784C59.3446 118.144 61.6236 118.346 64 118.346C66.3763 118.346 68.6553 118.144 70.3357 117.784C72.016 117.424 72.96 116.936 72.96 116.426C72.96 115.917 72.016 115.429 70.3357 115.069C68.6553 114.709 66.3763 114.506 64 114.506C61.6236 114.506 59.3446 114.709 57.6643 115.069C55.984 115.429 55.04 115.917 55.04 116.426Z" fill="#45413C"/>
<path d="M58.5766 61.4771C58.5766 62.1893 58.7169 62.8945 58.9895 63.5525C59.262 64.2105 59.6615 64.8084 60.1651 65.312C60.6687 65.8156 61.2666 66.2151 61.9246 66.4876C62.5826 66.7602 63.2878 66.9005 64 66.9005C64.7122 66.9005 65.4174 66.7602 66.0754 66.4876C66.7334 66.2151 67.3313 65.8156 67.8349 65.312C68.3385 64.8084 68.738 64.2105 69.0105 63.5525C69.2831 62.8945 69.4234 62.1893 69.4234 61.4771V57.856C69.4234 56.4176 68.852 55.0382 67.8349 54.0211C66.8178 53.004 65.4384 52.4326 64 52.4326C62.5616 52.4326 61.1822 53.004 60.1651 54.0211C59.148 55.0382 58.5766 56.4176 58.5766 57.856V61.4771Z" fill="#DAEDF7"/>
<path d="M64 52.4377C62.5625 52.4377 61.1838 53.0084 60.1669 54.0244C59.15 55.0404 58.578 56.4185 58.5766 57.856V61.472C58.5766 61.5757 58.6009 61.6717 58.6061 61.7741C58.6767 60.3913 59.2758 59.0886 60.2795 58.1349C61.2832 57.1812 62.6148 56.6494 63.9994 56.6494C65.3839 56.6494 66.7155 57.1812 67.7192 58.1349C68.7229 59.0886 69.322 60.3913 69.3926 61.7741C69.399 61.6717 69.4234 61.5757 69.4234 61.472V57.856C69.422 56.4185 68.85 55.0404 67.8331 54.0244C66.8161 53.0084 65.4375 52.4377 64 52.4377Z" fill="white"/>
<path d="M58.5766 61.4771C58.5766 62.1893 58.7169 62.8945 58.9895 63.5525C59.262 64.2105 59.6615 64.8084 60.1651 65.312C60.6687 65.8156 61.2666 66.2151 61.9246 66.4876C62.5826 66.7602 63.2878 66.9005 64 66.9005C64.7122 66.9005 65.4174 66.7602 66.0754 66.4876C66.7334 66.2151 67.3313 65.8156 67.8349 65.312C68.3385 64.8084 68.738 64.2105 69.0105 63.5525C69.2831 62.8945 69.4234 62.1893 69.4234 61.4771V57.856C69.4234 56.4176 68.852 55.0382 67.8349 54.0211C66.8178 53.004 65.4384 52.4326 64 52.4326C62.5616 52.4326 61.1822 53.004 60.1651 54.0211C59.148 55.0382 58.5766 56.4176 58.5766 57.856V61.4771Z" stroke="#45413C" stroke-width="1.5" stroke-linecap="round" stroke-linejoin="round"/>
<path d="M70.0262 92.8155C70.0261 93.2378 70.1147 93.6555 70.2864 94.0413C70.4581 94.4272 70.7089 94.7727 71.0227 95.0554C71.3365 95.338 71.7063 95.5516 72.1079 95.6821C72.5096 95.8127 72.9342 95.8574 73.3542 95.8132C74.115 95.7082 74.8107 95.3274 75.3091 94.7431C75.8076 94.1588 76.0739 93.4118 76.0576 92.6439V81.778C76.0976 78.6675 74.9602 75.6568 72.8736 73.3496C70.787 71.0425 67.9053 69.6094 64.8064 69.3377C63.1592 69.228 61.5069 69.4577 59.9521 70.0128C58.3973 70.5678 56.9731 71.4363 55.7678 72.5644C54.5624 73.6925 53.6016 75.0561 52.9449 76.5707C52.2882 78.0854 51.9496 79.7188 51.9501 81.3697V92.6478C51.9345 93.4154 52.2016 94.162 52.7005 94.7456C53.1993 95.3292 53.8953 95.7092 54.656 95.8132C55.076 95.8574 55.5006 95.8127 55.9023 95.6821C56.304 95.5516 56.6737 95.338 56.9875 95.0554C57.3013 94.7727 57.5522 94.4272 57.7239 94.0413C57.8955 93.6555 57.9842 93.2378 57.984 92.8155L59.008 112.888C59.0553 113.814 59.4563 114.687 60.1283 115.325C60.8002 115.964 61.6918 116.32 62.6189 116.32H65.3914C66.3166 116.317 67.2056 115.96 67.8754 115.322C68.5452 114.683 68.9448 113.812 68.992 112.888L70.0262 92.8155Z" fill="#E8F4FA"/>
<path d="M64.8025 69.3377C63.1553 69.228 61.5031 69.4577 59.9483 70.0128C58.3935 70.5678 56.9693 71.4363 55.7639 72.5644C54.5586 73.6925 53.5977 75.0561 52.941 76.5707C52.2843 78.0854 51.9457 79.7188 51.9462 81.3697V84.9857C51.9462 81.7888 53.2162 78.7229 55.4767 76.4624C57.7372 74.2019 60.8031 72.9319 64 72.9319C67.1968 72.9319 70.2628 74.2019 72.5233 76.4624C74.7838 78.7229 76.0537 81.7888 76.0537 84.9857V81.7857C76.0957 78.6738 74.9592 75.6613 72.8724 73.3525C70.7856 71.0436 67.9028 69.6095 64.8025 69.3377Z" fill="white"/>
<path d="M57.9738 81.3657V92.8153" stroke="#45413C" stroke-width="1.5" stroke-linecap="round" stroke-linejoin="round"/>
<path d="M70.0262 81.3657V92.8153" stroke="#45413C" stroke-width="1.5" stroke-linecap="round" stroke-linejoin="round"/>
<path d="M70.0262 92.8155C70.0261 93.2378 70.1147 93.6555 70.2864 94.0413C70.4581 94.4272 70.7089 94.7727 71.0227 95.0554C71.3365 95.338 71.7063 95.5516 72.1079 95.6821C72.5096 95.8127 72.9342 95.8574 73.3542 95.8132C74.115 95.7082 74.8107 95.3274 75.3091 94.7431C75.8076 94.1588 76.0739 93.4118 76.0576 92.6439V81.778C76.0976 78.6675 74.9602 75.6568 72.8736 73.3496C70.787 71.0425 67.9053 69.6094 64.8064 69.3377C63.1592 69.228 61.5069 69.4577 59.9521 70.0128C58.3973 70.5678 56.9731 71.4363 55.7678 72.5644C54.5624 73.6925 53.6016 75.0561 52.9449 76.5707C52.2882 78.0854 51.9496 79.7188 51.9501 81.3697V92.6478C51.9345 93.4154 52.2016 94.162 52.7005 94.7456C53.1993 95.3292 53.8953 95.7092 54.656 95.8132C55.076 95.8574 55.5006 95.8127 55.9023 95.6821C56.304 95.5516 56.6737 95.338 56.9875 95.0554C57.3013 94.7727 57.5522 94.4272 57.7239 94.0413C57.8955 93.6555 57.9842 93.2378 57.984 92.8155L59.008 112.888C59.0553 113.814 59.4563 114.687 60.1283 115.325C60.8002 115.964 61.6918 116.32 62.6189 116.32H65.3914C66.3166 116.317 67.2056 115.96 67.8754 115.322C68.5452 114.683 68.9448 113.812 68.992 112.888L70.0262 92.8155Z" stroke="#45413C" stroke-width="1.5" stroke-linecap="round" stroke-linejoin="round"/>
<path d="M86.2989 53.0406C86.2989 54.4789 86.8702 55.8584 87.8873 56.8755C88.9044 57.8926 90.2839 58.4639 91.7222 58.4639C93.1606 58.4639 94.54 57.8926 95.5571 56.8755C96.5742 55.8584 97.1456 54.4789 97.1456 53.0406V49.4246C97.1456 47.9862 96.5742 46.6068 95.5571 45.5897C94.54 44.5726 93.1606 44.0012 91.7222 44.0012C90.2839 44.0012 88.9044 44.5726 87.8873 45.5897C86.8702 46.6068 86.2989 47.9862 86.2989 49.4246V53.0406Z" fill="#DAEDF7"/>
<path d="M91.7222 44C90.2837 44.0003 88.9043 44.572 87.8872 45.5893C86.8702 46.6066 86.2989 47.9862 86.2989 49.4246V53.0406C86.2989 53.1443 86.3232 53.2403 86.3283 53.3414C86.399 51.9587 86.998 50.6559 88.0017 49.7022C89.0054 48.7485 90.3371 48.2168 91.7216 48.2168C93.1061 48.2168 94.4378 48.7485 95.4414 49.7022C96.4451 50.6559 97.0442 51.9587 97.1149 53.3414C97.1213 53.2403 97.1456 53.1443 97.1456 53.0406V49.4246C97.1456 47.9862 96.5742 46.6066 95.5572 45.5893C94.5402 44.572 93.1607 44.0003 91.7222 44Z" fill="white"/>
<path d="M86.2989 53.0406C86.2989 54.4789 86.8702 55.8584 87.8873 56.8755C88.9044 57.8926 90.2839 58.4639 91.7222 58.4639C93.1606 58.4639 94.54 57.8926 95.5571 56.8755C96.5742 55.8584 97.1456 54.4789 97.1456 53.0406V49.4246C97.1456 47.9862 96.5742 46.6068 95.5571 45.5897C94.54 44.5726 93.1606 44.0012 91.7222 44.0012C90.2839 44.0012 88.9044 44.5726 87.8873 45.5897C86.8702 46.6068 86.2989 47.9862 86.2989 49.4246V53.0406Z" stroke="#45413C" stroke-width="1.5" stroke-linecap="round" stroke-linejoin="round"/>
<path d="M97.7485 84.3789C97.7485 84.8012 97.8373 85.2187 98.009 85.6045C98.1807 85.9903 98.4316 86.3357 98.7454 86.6184C99.0591 86.901 99.4288 87.1145 99.8304 87.2452C100.232 87.3758 100.656 87.4206 101.076 87.3767C101.837 87.2714 102.532 86.8905 103.031 86.3062C103.529 85.7219 103.795 84.975 103.779 84.2074V73.344C103.819 70.2335 102.682 67.2227 100.596 64.9154C98.5092 62.6082 95.6275 61.1751 92.5286 60.9037C90.8813 60.7938 89.229 61.0234 87.6742 61.5784C86.1193 62.1334 84.695 63.0018 83.4896 64.1299C82.2842 65.2581 81.3234 66.6218 80.6667 68.1365C80.0101 69.6513 79.6716 71.2847 79.6723 72.9357V84.2151C79.656 84.9829 79.9224 85.7299 80.4208 86.3142C80.9192 86.8985 81.6149 87.2794 82.3757 87.3843C82.7957 87.4283 83.2202 87.3835 83.6218 87.2528C84.0233 87.1222 84.393 86.9087 84.7067 86.626C85.0205 86.3434 85.2714 85.998 85.4431 85.6122C85.6149 85.2264 85.7036 84.8089 85.7037 84.3866L86.7277 104.46C86.7749 105.385 87.176 106.257 87.848 106.896C88.52 107.534 89.4116 107.89 90.3386 107.89H93.111C94.0379 107.89 94.9295 107.534 95.6016 106.896C96.2736 106.257 96.6746 105.385 96.7219 104.46L97.7485 84.3789Z" fill="#E8F4FA"/>
<path d="M92.5248 60.901C90.8775 60.7911 89.2252 61.0207 87.6703 61.5757C86.1154 62.1307 84.6911 62.9991 83.4857 64.1273C82.2803 65.2554 81.3195 66.6191 80.6629 68.1338C80.0062 69.6486 79.6678 71.2821 79.6685 72.933V76.5439C79.7012 73.3687 80.9855 70.3347 83.2423 68.101C85.4992 65.8673 88.5462 64.6144 91.7216 64.6144C94.8969 64.6144 97.944 65.8673 100.201 68.101C102.458 70.3347 103.742 73.3687 103.775 76.5439V73.3439C103.816 70.233 102.679 67.2217 100.592 64.914C98.5059 62.6062 95.624 61.1727 92.5248 60.901Z" fill="white"/>
<path d="M85.696 72.928V84.3789" stroke="#45413C" stroke-width="1.5" stroke-linecap="round" stroke-linejoin="round"/>
<path d="M97.7485 72.928V84.3789" stroke="#45413C" stroke-width="1.5" stroke-linecap="round" stroke-linejoin="round"/>
<path d="M97.7485 84.3789C97.7485 84.8012 97.8373 85.2187 98.009 85.6045C98.1807 85.9903 98.4316 86.3357 98.7454 86.6184C99.0591 86.901 99.4288 87.1145 99.8304 87.2452C100.232 87.3758 100.656 87.4206 101.076 87.3767C101.837 87.2714 102.532 86.8905 103.031 86.3062C103.529 85.7219 103.795 84.975 103.779 84.2074V73.344C103.819 70.2335 102.682 67.2227 100.596 64.9154C98.5092 62.6082 95.6275 61.1751 92.5286 60.9037C90.8813 60.7938 89.229 61.0234 87.6742 61.5784C86.1193 62.1334 84.695 63.0018 83.4896 64.1299C82.2842 65.2581 81.3234 66.6218 80.6667 68.1365C80.0101 69.6513 79.6716 71.2847 79.6723 72.9357V84.2151C79.656 84.9829 79.9224 85.7299 80.4208 86.3142C80.9192 86.8985 81.6149 87.2794 82.3757 87.3843C82.7957 87.4283 83.2202 87.3835 83.6218 87.2528C84.0233 87.1222 84.393 86.9087 84.7067 86.626C85.0205 86.3434 85.2714 85.998 85.4431 85.6122C85.6149 85.2264 85.7036 84.8089 85.7037 84.3866L86.7277 104.46C86.7749 105.385 87.176 106.257 87.848 106.896C88.52 107.534 89.4116 107.89 90.3386 107.89H93.111C94.0379 107.89 94.9295 107.534 95.6015 106.896C96.2736 106.257 96.6746 105.385 96.7219 104.46L97.7485 84.3789Z" stroke="#45413C" stroke-width="1.5" stroke-linecap="round" stroke-linejoin="round"/>
<path d="M41.7011 53.0406C41.7011 54.4789 41.1297 55.8584 40.1127 56.8755C39.0956 57.8926 37.7161 58.4639 36.2778 58.4639C34.8394 58.4639 33.4599 57.8926 32.4429 56.8755C31.4258 55.8584 30.8544 54.4789 30.8544 53.0406V49.4246C30.8544 47.9862 31.4258 46.6068 32.4429 45.5897C33.4599 44.5726 34.8394 44.0012 36.2778 44.0012C37.7161 44.0012 39.0956 44.5726 40.1127 45.5897C41.1297 46.6068 41.7011 47.9862 41.7011 49.4246V53.0406Z" fill="#DAEDF7"/>
<path d="M36.2778 44C37.7162 44.0003 39.0957 44.572 40.1127 45.5893C41.1298 46.6066 41.7011 47.9862 41.7011 49.4246V53.0406C41.7011 53.1443 41.6768 53.2403 41.6717 53.3414C41.601 51.9587 41.002 50.6559 39.9983 49.7022C38.9946 48.7485 37.6629 48.2168 36.2784 48.2168C34.8939 48.2168 33.5622 48.7485 32.5585 49.7022C31.5548 50.6559 30.9558 51.9587 30.8851 53.3414C30.8787 53.2403 30.8544 53.1443 30.8544 53.0406V49.4246C30.8544 47.9862 31.4257 46.6066 32.4428 45.5893C33.4598 44.572 34.8393 44.0003 36.2778 44Z" fill="white"/>
<path d="M41.7011 53.0406C41.7011 54.4789 41.1297 55.8584 40.1127 56.8755C39.0956 57.8926 37.7161 58.4639 36.2778 58.4639C34.8394 58.4639 33.4599 57.8926 32.4429 56.8755C31.4258 55.8584 30.8544 54.4789 30.8544 53.0406V49.4246C30.8544 47.9862 31.4258 46.6068 32.4429 45.5897C33.4599 44.5726 34.8394 44.0012 36.2778 44.0012C37.7161 44.0012 39.0956 44.5726 40.1127 45.5897C41.1297 46.6068 41.7011 47.9862 41.7011 49.4246V53.0406Z" stroke="#45413C" stroke-width="1.5" stroke-linecap="round" stroke-linejoin="round"/>
<path d="M30.2515 84.3789C30.2515 84.8012 30.1627 85.2187 29.991 85.6045C29.8192 85.9903 29.5683 86.3357 29.2546 86.6184C28.9408 86.901 28.5712 87.1145 28.1696 87.2452C27.768 87.3758 27.3435 87.4206 26.9235 87.3767C26.1629 87.2714 25.4675 86.8905 24.9694 86.3062C24.4713 85.7219 24.2051 84.975 24.2214 84.2074V73.344C24.1808 70.2335 25.3178 67.2227 27.4043 64.9154C29.4907 62.6082 32.3724 61.1751 35.4713 60.9037C37.1186 60.7938 38.7709 61.0234 40.3258 61.5784C41.8807 62.1334 43.305 63.0018 44.5104 64.1299C45.7158 65.2581 46.6766 66.6218 47.3332 68.1365C47.9899 69.6513 48.3283 71.2847 48.3277 72.9357V84.2151C48.344 84.9829 48.0776 85.7299 47.5792 86.3142C47.0808 86.8985 46.3851 87.2794 45.6243 87.3843C45.2043 87.4283 44.7798 87.3835 44.3782 87.2528C43.9766 87.1222 43.607 86.9087 43.2932 86.626C42.9795 86.3434 42.7286 85.998 42.5568 85.6122C42.3851 85.2264 42.2963 84.8089 42.2963 84.3866L41.2723 104.46C41.225 105.385 40.824 106.257 40.1519 106.896C39.4799 107.534 38.5883 107.89 37.6614 107.89H34.8915C33.9646 107.89 33.073 107.534 32.401 106.896C31.729 106.257 31.3279 105.385 31.2806 104.46L30.2515 84.3789Z" fill="#E8F4FA"/>
<path d="M35.4752 60.901C37.1225 60.7911 38.7748 61.0207 40.3297 61.5757C41.8845 62.1307 43.3088 62.9991 44.5142 64.1273C45.7196 65.2554 46.6805 66.6191 47.3371 68.1338C47.9937 69.6486 48.3322 71.2821 48.3315 72.933V76.5439C48.2988 73.3687 47.0145 70.3347 44.7577 68.101C42.5008 65.8673 39.4537 64.6144 36.2784 64.6144C33.1031 64.6144 30.056 65.8673 27.7991 68.101C25.5423 70.3347 24.258 73.3687 24.2253 76.5439V73.3439C24.1843 70.233 25.3211 67.2217 27.4076 64.914C29.4941 62.6062 32.376 61.1727 35.4752 60.901Z" fill="white"/>
<path d="M42.304 72.928V84.3789" stroke="#45413C" stroke-width="1.5" stroke-linecap="round" stroke-linejoin="round"/>
<path d="M30.2515 72.928V84.3789" stroke="#45413C" stroke-width="1.5" stroke-linecap="round" stroke-linejoin="round"/>
<path d="M30.2515 84.3789C30.2515 84.8012 30.1627 85.2187 29.991 85.6045C29.8192 85.9903 29.5683 86.3357 29.2546 86.6184C28.9408 86.901 28.5712 87.1145 28.1696 87.2452C27.768 87.3758 27.3435 87.4206 26.9235 87.3767C26.1629 87.2714 25.4675 86.8905 24.9694 86.3062C24.4713 85.7219 24.2051 84.975 24.2214 84.2074V73.344C24.1808 70.2335 25.3178 67.2227 27.4043 64.9154C29.4907 62.6082 32.3724 61.1751 35.4713 60.9037C37.1186 60.7938 38.7709 61.0234 40.3258 61.5784C41.8807 62.1334 43.305 63.0018 44.5104 64.1299C45.7158 65.2581 46.6766 66.6218 47.3332 68.1365C47.9899 69.6513 48.3283 71.2847 48.3277 72.9357V84.2151C48.344 84.9829 48.0776 85.7299 47.5792 86.3142C47.0808 86.8985 46.3851 87.2794 45.6243 87.3843C45.2043 87.4283 44.7798 87.3835 44.3782 87.2528C43.9766 87.1222 43.607 86.9087 43.2932 86.626C42.9795 86.3434 42.7286 85.998 42.5568 85.6122C42.3851 85.2264 42.2963 84.8089 42.2963 84.3866L41.2723 104.46C41.225 105.385 40.824 106.257 40.1519 106.896C39.4799 107.534 38.5883 107.89 37.6614 107.89H34.8915C33.9646 107.89 33.073 107.534 32.401 106.896C31.729 106.257 31.3279 105.385 31.2806 104.46L30.2515 84.3789Z" stroke="#45413C" stroke-width="1.5" stroke-linecap="round" stroke-linejoin="round"/>
<path d="M83.9808 6.23999C84.7979 6.23999 85.5816 6.56459 86.1594 7.14238C86.7371 7.72017 87.0617 8.50383 87.0617 9.32095V35.1603C87.0614 35.9772 86.7367 36.7605 86.1589 37.3381C85.5812 37.9156 84.7977 38.24 83.9808 38.24H80.64V42.848C80.6399 43.1011 80.5648 43.3485 80.4242 43.559C80.2835 43.7694 80.0836 43.9334 79.8498 44.0303C79.6159 44.1272 79.3586 44.1525 79.1104 44.1031C78.8621 44.0538 78.634 43.9319 78.455 43.7529L72.9382 38.2361H68.48L65.193 46.6842C65.0995 46.9245 64.9356 47.1311 64.7227 47.2767C64.5098 47.4223 64.2579 47.5002 64 47.5002C63.7421 47.5002 63.4902 47.4223 63.2773 47.2767C63.0644 47.1311 62.9005 46.9245 62.807 46.6842L59.52 38.2361H55.0618L49.545 43.7529C49.3662 43.9317 49.1385 44.0535 48.8906 44.103C48.6427 44.1524 48.3857 44.1274 48.152 44.031C47.9183 43.9347 47.7183 43.7712 47.5774 43.5614C47.4365 43.3515 47.3608 43.1046 47.36 42.8518V38.2438H44.041C43.6361 38.244 43.2352 38.1643 42.8611 38.0094C42.4871 37.8545 42.1473 37.6273 41.8611 37.3409C41.5749 37.0545 41.3481 36.7145 41.1934 36.3403C41.0388 35.9662 40.9595 35.5652 40.96 35.1603V9.32095C40.96 8.50383 41.2846 7.72017 41.8624 7.14238C42.4402 6.56459 43.2238 6.23999 44.041 6.23999H83.9808Z" fill="white" stroke="#45413C" stroke-width="1.5" stroke-linecap="round" stroke-linejoin="round"/>
<path d="M70.656 20.3431C70.6585 19.2713 70.4022 18.2148 69.9088 17.2634C69.4155 16.312 68.6997 15.4938 67.8223 14.8783C66.9449 14.2629 65.9319 13.8684 64.8693 13.7284C63.8068 13.5884 62.7261 13.7071 61.7193 14.0743C60.7124 14.4416 59.8091 15.0465 59.0862 15.8377C58.3633 16.6289 57.8421 17.583 57.567 18.6188C57.2919 19.6546 57.271 20.7415 57.506 21.7872C57.7411 22.8328 58.2252 23.8062 58.9171 24.6247C59.8158 25.6901 60.309 27.0388 60.3097 28.4327V29.952H67.7005V28.4327C67.7004 27.0387 68.1938 25.6897 69.0931 24.6247C70.1048 23.4277 70.6587 21.9103 70.656 20.3431Z" fill="#FFE500"/>
<path d="M64 16.6488C65.5032 16.6501 66.9615 17.1612 68.1366 18.0987C69.3116 19.0361 70.1339 20.3444 70.4691 21.8098C70.7061 20.8308 70.7178 19.8107 70.5034 18.8265C70.2889 17.8423 69.8539 16.9196 69.231 16.1279C68.6081 15.3363 67.8137 14.6963 66.9076 14.2563C66.0015 13.8163 65.0073 13.5876 64 13.5876C62.9927 13.5876 61.9985 13.8163 61.0924 14.2563C60.1863 14.6963 59.3919 15.3363 58.769 16.1279C58.1461 16.9196 57.7111 17.8423 57.4966 18.8265C57.2821 19.8107 57.2939 20.8308 57.5309 21.8098C57.866 20.3444 58.6884 19.0361 59.8634 18.0987C61.0385 17.1612 62.4968 16.6501 64 16.6488Z" fill="#FFF48C"/>
<path d="M70.656 20.3431C70.6585 19.2713 70.4022 18.2148 69.9088 17.2634C69.4155 16.312 68.6997 15.4938 67.8223 14.8783C66.9449 14.2629 65.9319 13.8684 64.8693 13.7284C63.8068 13.5884 62.7261 13.7071 61.7193 14.0743C60.7124 14.4416 59.8091 15.0465 59.0862 15.8377C58.3633 16.6289 57.8421 17.583 57.567 18.6188C57.2919 19.6546 57.271 20.7415 57.506 21.7872C57.7411 22.8328 58.2252 23.8062 58.9171 24.6247C59.8158 25.6901 60.309 27.0388 60.3097 28.4327V29.952H67.7005V28.4327C67.7004 27.0387 68.1938 25.6897 69.0931 24.6247C70.1048 23.4277 70.6587 21.9103 70.656 20.3431V20.3431Z" stroke="#45413C" stroke-width="1.5" stroke-linejoin="round"/>
<path d="M66.2169 32.9074H61.783C61.3909 32.9074 61.0149 32.7517 60.7376 32.4744C60.4604 32.1972 60.3046 31.8211 60.3046 31.429V29.9519H67.6953V31.4303C67.695 31.8222 67.5391 32.1979 67.2619 32.4749C66.9847 32.7518 66.6088 32.9074 66.2169 32.9074Z" fill="#8CA4B8" stroke="#45413C" stroke-width="1.5" stroke-linejoin="round"/>
<path d="M66.2169 33.646C66.2169 34.234 65.9834 34.7979 65.5676 35.2137C65.1518 35.6294 64.588 35.863 64 35.863C63.412 35.863 62.8481 35.6294 62.4324 35.2137C62.0166 34.7979 61.783 34.234 61.783 33.646V32.9075H66.2169V33.646Z" fill="#8CA4B8" stroke="#45413C" stroke-width="1.5" stroke-linejoin="round"/>
<path d="M64 10.7367V9.2583" stroke="#45413C" stroke-width="1.5" stroke-linecap="round" stroke-linejoin="round"/>
<path d="M70.7929 13.5501L71.8387 12.5056" stroke="#45413C" stroke-width="1.5" stroke-linecap="round" stroke-linejoin="round"/>
<path d="M73.6077 20.343H75.0848" stroke="#45413C" stroke-width="1.5" stroke-linecap="round" stroke-linejoin="round"/>
<path d="M57.207 13.5501L56.1613 12.5056" stroke="#45413C" stroke-width="1.5" stroke-linecap="round" stroke-linejoin="round"/>
<path d="M54.3923 20.343H52.9152" stroke="#45413C" stroke-width="1.5" stroke-linecap="round" stroke-linejoin="round"/>
</svg>

