<svg width="128" height="128" viewBox="0 0 128 128" fill="none" xmlns="http://www.w3.org/2000/svg">
<path d="M64 116.673C72.9817 116.673 81.8047 114.306 89.5812 109.812C97.3577 105.318 103.813 98.855 108.298 91.0732H19.7018C24.1868 98.855 30.6423 105.318 38.4188 109.812C46.1953 114.306 55.0184 116.673 64 116.673Z" fill="#F2DFC2"/>
<path d="M17.3619 86.5933C18.0608 88.1293 18.8595 89.6179 19.7018 91.0733H108.298C109.14 89.6179 109.939 88.1293 110.638 86.5933H17.3619Z" fill="#F2DFC2"/>
<path d="M115.2 65.4732C115.201 57.8318 113.492 50.2871 110.197 43.3924C106.903 36.4977 102.107 30.4278 96.1608 25.628C90.215 20.8281 83.2702 17.42 75.8358 15.6535C68.4014 13.8871 60.6658 13.8071 53.1965 15.4195C45.7271 17.0319 38.7134 20.2957 32.6697 24.9717C26.626 29.6476 21.7055 35.617 18.2692 42.4422C14.8329 49.2673 12.9678 56.7751 12.8108 64.4149C12.6538 72.0546 14.2089 79.6327 17.3619 86.5932H110.638C113.65 79.9599 115.205 72.7583 115.2 65.4732Z" fill="#C7F0FF"/>
<path d="M14.08 86.5933H113.92" stroke="#45413C" stroke-width="1.5" stroke-linecap="round" stroke-linejoin="round"/>
<path d="M8.32001 86.5933H11.52" stroke="#45413C" stroke-width="1.5" stroke-linecap="round" stroke-linejoin="round"/>
<path d="M116.48 86.5933H119.68" stroke="#45413C" stroke-width="1.5" stroke-linecap="round" stroke-linejoin="round"/>
<path d="M77.2007 75.392C77.223 72.4419 76.6612 69.5166 75.5477 66.7847C74.4343 64.0528 72.7911 61.5682 70.7129 59.4743C68.6348 57.3804 66.1628 55.7185 63.4393 54.5843C60.7159 53.4502 57.795 52.8663 54.8448 52.8663C51.8947 52.8663 48.9737 53.4502 46.2503 54.5843C43.5269 55.7185 41.0549 57.3804 38.9767 59.4743C36.8986 61.5682 35.2554 64.0528 34.1419 66.7847C33.0284 69.5166 32.4667 72.4419 32.489 75.392V78.9977H41.1431V86.5958H68.5466V78.9952H77.2007V75.392Z" fill="#F0F0F0"/>
<path d="M54.8442 53.033C51.9081 53.033 49.0008 53.6113 46.2883 54.735C43.5758 55.8587 41.1112 57.5057 39.0353 59.582C36.9594 61.6583 35.3128 64.1232 34.1895 66.8359C33.0663 69.5486 32.4884 72.4559 32.489 75.392V78.9978H32.5926C33.1318 73.4701 35.709 68.341 39.8224 64.6093C43.9358 60.8776 49.2909 58.8104 54.8448 58.8104C60.3987 58.8104 65.7538 60.8776 69.8672 64.6093C73.9806 68.341 76.5578 73.4701 77.097 78.9978H77.2006V75.392C77.201 72.4559 76.6229 69.5485 75.4996 66.8358C74.3762 64.1231 72.7295 61.6582 70.6535 59.5819C68.5774 57.5057 66.1128 55.8587 63.4002 54.735C60.6876 53.6113 57.7803 53.033 54.8442 53.033Z" fill="white"/>
<path d="M41.143 83.3217H68.5466" stroke="#656769" stroke-width="1.5" stroke-linecap="round" stroke-linejoin="round"/>
<path d="M32.489 78.9952H77.2006" stroke="#656769" stroke-width="1.5" stroke-linecap="round" stroke-linejoin="round"/>
<path d="M32.489 74.6675H77.2006" stroke="#FF6242" stroke-width="1.5" stroke-linecap="round" stroke-linejoin="round"/>
<path d="M33.0624 70.3411H76.6272" stroke="#FF6242" stroke-width="1.5" stroke-linecap="round" stroke-linejoin="round"/>
<path d="M34.5434 66.0134H75.145" stroke="#FF6242" stroke-width="1.5" stroke-linecap="round" stroke-linejoin="round"/>
<path d="M37.1789 61.687H72.5107" stroke="#FF6242" stroke-width="1.5" stroke-linecap="round" stroke-linejoin="round"/>
<path d="M41.6282 57.3606H68.0615" stroke="#FF6242" stroke-width="1.5" stroke-linecap="round" stroke-linejoin="round"/>
<path d="M77.2007 75.392C77.223 72.4419 76.6612 69.5166 75.5477 66.7847C74.4343 64.0528 72.7911 61.5682 70.7129 59.4743C68.6348 57.3804 66.1628 55.7185 63.4393 54.5843C60.7159 53.4502 57.795 52.8663 54.8448 52.8663C51.8947 52.8663 48.9737 53.4502 46.2503 54.5843C43.5269 55.7185 41.0549 57.3804 38.9767 59.4743C36.8986 61.5682 35.2554 64.0528 34.1419 66.7847C33.0284 69.5166 32.4667 72.4419 32.489 75.392V78.9977H41.1431V86.5958H68.5466V78.9952H77.2007V75.392Z" stroke="#45413C" stroke-width="1.5" stroke-linecap="round" stroke-linejoin="round"/>
<path d="M41.143 73.225V78.9952" stroke="#45413C" stroke-width="1.5" stroke-linecap="round" stroke-linejoin="round"/>
<path d="M68.5466 73.225V78.9952" stroke="#45413C" stroke-width="1.5" stroke-linecap="round" stroke-linejoin="round"/>
<path d="M49.792 53.76C49.8131 55.0848 50.3542 56.3482 51.2985 57.2776C52.2429 58.207 53.5147 58.7279 54.8397 58.7279C56.1647 58.7279 57.4365 58.207 58.3809 57.2776C59.3252 56.3482 59.8663 55.0848 59.8874 53.76V48.7065H49.792V53.76Z" fill="#FFCEBF"/>
<path d="M49.792 53.7344C53.0846 54.7225 56.5948 54.7225 59.8874 53.7344V48.7065H49.792V53.7344Z" fill="#FFB59E"/>
<path d="M49.792 53.76V48.7065H59.8874V53.76C59.8663 55.0848 59.3252 56.3482 58.3809 57.2776C57.4365 58.207 56.1647 58.7279 54.8397 58.7279C53.5147 58.7279 52.2429 58.207 51.2985 57.2776C50.3542 56.3482 49.8131 55.0848 49.792 53.76Z" stroke="#45413C" stroke-width="1.5" stroke-linecap="round" stroke-linejoin="round"/>
<path d="M68.5466 78.9952H75.7555V86.5946H68.5466V78.9952Z" fill="#FFCEBF" stroke="#45413C" stroke-width="1.5" stroke-linecap="round" stroke-linejoin="round"/>
<path d="M33.9328 78.9952H41.1418V86.5946H33.9328V78.9952Z" fill="#FFCEBF" stroke="#45413C" stroke-width="1.5" stroke-linecap="round" stroke-linejoin="round"/>
<path d="M82.3629 104.552H72.4851C72.1117 104.552 71.7536 104.403 71.4895 104.139C71.2255 103.875 71.0771 103.517 71.0771 103.144V101.736H83.7786V103.144C83.7786 103.329 83.7419 103.513 83.6707 103.684C83.5994 103.856 83.495 104.011 83.3635 104.142C83.2319 104.273 83.0758 104.376 82.9041 104.447C82.7323 104.517 82.5484 104.553 82.3629 104.552Z" fill="#E8F4FA" stroke="#45413C" stroke-width="1.5" stroke-linecap="round" stroke-linejoin="round"/>
<path d="M83.7747 101.729H71.0733L73.5744 94.2272C73.6676 93.9459 73.8472 93.7012 74.0876 93.5279C74.328 93.3546 74.617 93.2616 74.9133 93.2621H79.9347C80.2311 93.2616 80.52 93.3546 80.7604 93.5279C81.0008 93.7012 81.1804 93.9459 81.2736 94.2272L83.7747 101.729Z" fill="#00B8F0"/>
<path d="M79.9347 93.2621H74.9133C74.617 93.2616 74.328 93.3546 74.0876 93.5279C73.8472 93.7012 73.6676 93.9459 73.5744 94.2272L71.0733 101.729H71.936L81.2403 94.1466C81.1358 93.8857 80.9557 93.662 80.723 93.5044C80.4903 93.3468 80.2158 93.2624 79.9347 93.2621Z" fill="#4ACFFF"/>
<path d="M83.7747 101.729H71.0733L73.5744 94.2272C73.6676 93.9459 73.8472 93.7012 74.0876 93.5279C74.328 93.3546 74.617 93.2616 74.9133 93.2621H79.9347C80.2311 93.2616 80.52 93.3546 80.7604 93.5279C81.0008 93.7012 81.1804 93.9459 81.2736 94.2272L83.7747 101.729Z" stroke="#45413C" stroke-width="1.5" stroke-linecap="round" stroke-linejoin="round"/>
<path d="M76.7181 95.2064H78.1299" stroke="#45413C" stroke-width="1.5" stroke-linecap="round" stroke-linejoin="round"/>
<path d="M78.1299 101.729H80.9523V104.552H78.1299V101.729Z" fill="#BDBEC0" stroke="#45413C" stroke-width="1.5" stroke-linecap="round" stroke-linejoin="round"/>
<path opacity="0.15" d="M70.1363 105.792C70.1363 107.146 58.2387 108.243 41.5475 108.243C24.8563 108.243 16.2266 107.146 16.2266 105.792C16.2266 104.438 24.8563 103.342 41.5475 103.342C58.2387 103.342 70.1363 104.439 70.1363 105.792Z" fill="#45413C"/>
<path d="M63.9053 104.159H22.4333C21.6474 104.159 20.8937 103.847 20.338 103.291C19.7823 102.735 19.4701 101.981 19.4701 101.195V100.074H66.8685V101.195C66.8687 101.585 66.7921 101.97 66.6433 102.33C66.4944 102.689 66.2762 103.016 66.001 103.291C65.7258 103.566 65.399 103.785 65.0395 103.933C64.6799 104.082 64.2945 104.159 63.9053 104.159Z" fill="#8CA4B8" stroke="#45413C" stroke-width="1.5" stroke-linejoin="round"/>
<path d="M66.8685 100.074H19.4701L17.0662 78.4141C17.0109 77.9552 17.0534 77.4898 17.1911 77.0486C17.3288 76.6074 17.5584 76.2004 17.865 75.8545C18.1715 75.5085 18.5478 75.2315 18.9693 75.0417C19.3907 74.8519 19.8476 74.7536 20.3098 74.7533H66.048C66.5103 74.7532 66.9674 74.8512 67.389 75.0409C67.8106 75.2306 68.1872 75.5076 68.4938 75.8536C68.8004 76.1996 69.03 76.6068 69.1675 77.0482C69.3051 77.4896 69.3473 77.9552 69.2915 78.4141L66.8685 100.074Z" fill="#ADC4D9"/>
<path d="M17.4195 81.591C17.5218 81.2901 17.6722 81.0078 17.865 80.7551C18.1713 80.4091 18.5477 80.132 18.9692 79.9422C19.3906 79.7525 19.8476 79.6543 20.3098 79.6543H66.048C66.5102 79.6542 66.9672 79.7522 67.3887 79.942C67.8102 80.1318 68.1865 80.409 68.4928 80.7551C68.6835 81.0069 68.833 81.2873 68.9357 81.5859L69.2915 78.414C69.3471 77.9551 69.3047 77.4895 69.1671 77.0482C69.0295 76.6068 68.7999 76.1996 68.4933 75.8535C68.1868 75.5075 67.8104 75.2303 67.3888 75.0404C66.9673 74.8505 66.5103 74.7522 66.048 74.752H20.3098C19.8476 74.7522 19.3907 74.8505 18.9693 75.0403C18.5478 75.2302 18.1715 75.5072 17.865 75.8531C17.5584 76.1991 17.3288 76.6061 17.1911 77.0473C17.0534 77.4885 17.0109 77.9539 17.0662 78.4127L17.4195 81.591Z" fill="#C0DCEB"/>
<path d="M66.8685 100.074H19.4701L17.0662 78.4141C17.0109 77.9552 17.0534 77.4898 17.1911 77.0486C17.3288 76.6074 17.5584 76.2004 17.865 75.8545C18.1715 75.5085 18.5478 75.2315 18.9693 75.0417C19.3907 74.8519 19.8476 74.7536 20.3098 74.7533H66.048C66.5103 74.7532 66.9674 74.8512 67.389 75.0409C67.8106 75.2306 68.1872 75.5076 68.4938 75.8536C68.8004 76.1996 69.03 76.6068 69.1675 77.0482C69.3051 77.4896 69.3473 77.9552 69.2915 78.4141L66.8685 100.074Z" stroke="#45413C" stroke-width="1.5" stroke-linejoin="round"/>
<path d="M45.8061 87.5955C45.8108 87.17 45.9234 86.7527 46.1334 86.3827C46.3434 86.0126 46.6439 85.7019 47.0067 85.4797C46.7759 85.1517 46.4723 84.8816 46.1196 84.6907C45.767 84.4997 45.3749 84.393 44.9741 84.3789C44.1088 84.2905 43.2858 84.8909 42.8455 84.8909C42.4051 84.8909 41.7306 84.3942 41.0125 84.4058C40.5406 84.4185 40.0801 84.5537 39.6762 84.7981C39.2723 85.0424 38.9388 85.3876 38.7085 85.7997C37.7293 87.5008 38.4525 90.0237 39.4138 91.4009C39.8797 92.0755 40.4378 92.8333 41.1674 92.809C41.8727 92.7821 42.1376 92.3545 42.9888 92.3545C43.84 92.3545 44.0781 92.809 44.8231 92.7962C45.568 92.7834 46.0608 92.1075 46.5242 91.4304C46.8553 90.9434 47.114 90.4109 47.2922 89.8496C46.8514 89.6601 46.4758 89.3456 46.2117 88.945C45.9476 88.5445 45.8066 88.0753 45.8061 87.5955Z" fill="#F0F0F0" stroke="#45413C" stroke-width="1.5" stroke-linejoin="round"/>
<path d="M43.904 81.4912L44.9242 80.4711" stroke="#45413C" stroke-width="1.5" stroke-linecap="round" stroke-linejoin="round"/>
<path d="M79.9834 64.3328H106.479C106.819 64.3328 107.144 64.198 107.384 63.9579C107.625 63.7179 107.759 63.3923 107.759 63.0528V31.616C107.759 30.9371 107.49 30.2859 107.01 29.8058C106.529 29.3257 105.878 29.056 105.199 29.056H79.9834C79.3044 29.056 78.6533 29.3257 78.1732 29.8058C77.6931 30.2859 77.4234 30.9371 77.4234 31.616V61.7728C77.4234 62.109 77.4896 62.4419 77.6182 62.7525C77.7469 63.0631 77.9355 63.3453 78.1732 63.583C78.4109 63.8207 78.6931 64.0093 79.0037 64.138C79.3143 64.2666 79.6472 64.3328 79.9834 64.3328Z" fill="#ADC4D9"/>
<path d="M101.414 57.2761V63.6275H80.2458C79.4984 63.6254 78.7824 63.3272 78.2545 62.7982C77.7267 62.2691 77.4301 61.5524 77.4298 60.8051V31.872C77.4301 31.1246 77.7267 30.4079 78.2545 29.8789C78.7824 29.3498 79.4984 29.0516 80.2458 29.0496H104.237C104.984 29.0513 105.7 29.3494 106.228 29.8785C106.756 30.4076 107.053 31.1245 107.053 31.872V57.2761H101.414Z" fill="#C8FFA1" stroke="#45413C" stroke-width="1.5" stroke-linejoin="round"/>
<path d="M107.059 57.2761C106.121 60.8047 104.239 62.9218 101.414 63.6275V57.2761H107.059Z" fill="white" stroke="#45413C" stroke-width="1.5" stroke-linejoin="round"/>
<path d="M80.247 29.0522C80.247 29.4263 80.3957 29.785 80.6602 30.0496C80.9247 30.3141 81.2835 30.4627 81.6576 30.4627C82.0317 30.4627 82.3905 30.3141 82.655 30.0496C82.9196 29.785 83.0682 29.4263 83.0682 29.0522C83.0682 28.6781 82.9196 28.3193 82.655 28.0547C82.3905 27.7902 82.0317 27.6416 81.6576 27.6416C81.2835 27.6416 80.9247 27.7902 80.6602 28.0547C80.3957 28.3193 80.247 28.6781 80.247 29.0522Z" fill="#FFE500" stroke="#45413C" stroke-width="1.5" stroke-linejoin="round"/>
<path d="M102.121 29.0522C102.121 29.4263 102.27 29.785 102.534 30.0496C102.799 30.3141 103.157 30.4627 103.532 30.4627C103.906 30.4627 104.264 30.3141 104.529 30.0496C104.793 29.785 104.942 29.4263 104.942 29.0522C104.942 28.6781 104.793 28.3193 104.529 28.0547C104.264 27.7902 103.906 27.6416 103.532 27.6416C103.157 27.6416 102.799 27.7902 102.534 28.0547C102.27 28.3193 102.121 28.6781 102.121 29.0522Z" fill="#FFE500" stroke="#45413C" stroke-width="1.5" stroke-linejoin="round"/>
<path d="M90.1248 34.697C90.1248 35.2585 90.3479 35.7969 90.7449 36.194C91.1419 36.591 91.6804 36.8141 92.2419 36.8141C92.8034 36.8141 93.3419 36.591 93.739 36.194C94.136 35.7969 94.3591 35.2585 94.3591 34.697C94.3591 34.1355 94.136 33.597 93.739 33.1999C93.3419 32.8029 92.8034 32.5798 92.2419 32.5798C91.6804 32.5798 91.1419 32.8029 90.7449 33.1999C90.3479 33.597 90.1248 34.1355 90.1248 34.697Z" fill="white" stroke="#45413C" stroke-width="1.5" stroke-linejoin="round"/>
<path d="M90.1248 57.2762C90.1248 57.8377 90.3479 58.3762 90.7449 58.7732C91.1419 59.1702 91.6804 59.3933 92.2419 59.3933C92.8034 59.3933 93.3419 59.1702 93.739 58.7732C94.136 58.3762 94.3591 57.8377 94.3591 57.2762C94.3591 56.7147 94.136 56.1762 93.739 55.7792C93.3419 55.3821 92.8034 55.1591 92.2419 55.1591C91.6804 55.1591 91.1419 55.3821 90.7449 55.7792C90.3479 56.1762 90.1248 56.7147 90.1248 57.2762Z" fill="white" stroke="#45413C" stroke-width="1.5" stroke-linejoin="round"/>
<path d="M92.2419 36.8141V55.1603" stroke="#45413C" stroke-width="1.5" stroke-linejoin="round"/>
<path d="M83.0682 41.7535H101.413V50.926H83.0682V41.7535Z" stroke="#45413C" stroke-width="1.5" stroke-linejoin="round"/>
<path d="M98.592 44.576H104.237V47.3984H98.592V44.576Z" fill="white" stroke="#45413C" stroke-width="1.5" stroke-linejoin="round"/>
<path d="M80.2458 44.576H85.8906V47.3984H80.2458V44.576Z" fill="white" stroke="#45413C" stroke-width="1.5" stroke-linejoin="round"/>
<path d="M89.4195 49.5155H95.0643V52.3379H89.4195V49.5155Z" fill="white" stroke="#45413C" stroke-width="1.5" stroke-linejoin="round"/>
<path d="M92.2419 39.6365L87.3024 41.7536L92.2419 43.8707L97.1802 41.7536L92.2419 39.6365Z" fill="white" stroke="#45413C" stroke-width="1.5" stroke-linejoin="round"/>
<path d="M68.9498 33.248V29.7126C68.9498 25.9614 67.4596 22.3638 64.8071 19.7113C62.1546 17.0588 58.557 15.5686 54.8058 15.5686C51.0545 15.5686 47.457 17.0588 44.8044 19.7113C42.1519 22.3638 40.6618 25.9614 40.6618 29.7126V33.248C40.2853 33.24 39.911 33.3072 39.5609 33.4457C39.2108 33.5842 38.8918 33.7913 38.6227 34.0547C38.3536 34.3181 38.1399 34.6326 37.9939 34.9797C37.848 35.3268 37.7728 35.6996 37.7728 36.0761C37.7728 36.4527 37.848 36.8254 37.9939 37.1725C38.1399 37.5197 38.3536 37.8341 38.6227 38.0975C38.8918 38.361 39.2108 38.568 39.5609 38.7065C39.911 38.8451 40.2853 38.9123 40.6618 38.9043C40.7206 38.9043 40.7757 38.8915 40.8346 38.8876C41.3335 42.2358 43.0183 45.2933 45.5823 47.5036C48.1462 49.7138 51.4187 50.9296 54.8038 50.9296C58.1889 50.9296 61.4614 49.7138 64.0254 47.5036C66.5894 45.2933 68.2742 42.2358 68.7731 38.8876C68.832 38.8876 68.887 38.9043 68.9459 38.9043C69.3224 38.9123 69.6967 38.8451 70.0468 38.7065C70.3969 38.568 70.7159 38.361 70.985 38.0975C71.254 37.8341 71.4678 37.5197 71.6138 37.1725C71.7597 36.8254 71.8349 36.4527 71.8349 36.0761C71.8349 35.6996 71.7597 35.3268 71.6138 34.9797C71.4678 34.6326 71.254 34.3181 70.985 34.0547C70.7159 33.7913 70.3969 33.5842 70.0468 33.4457C69.6967 33.3072 69.3224 33.24 68.9459 33.248H68.9498Z" fill="#FFCEBF" stroke="#45413C" stroke-width="1.5" stroke-linecap="round" stroke-linejoin="round"/>
<path d="M50.5536 42.153C51.7004 43.2456 53.2237 43.8551 54.8077 43.8551C56.3917 43.8551 57.915 43.2456 59.0618 42.153" stroke="#45413C" stroke-width="1.5" stroke-linecap="round" stroke-linejoin="round"/>
<path d="M39.7734 33.6845C38.2641 31.5873 37.3628 29.1144 37.1685 26.5379C36.9742 23.9614 37.4947 21.3813 38.6725 19.0815C39.8503 16.7818 41.6398 14.8516 43.844 13.5035C46.0482 12.1554 48.5816 11.4415 51.1654 11.4406C54.9952 11.4406 62.6534 10.5165 65.2058 13.92C76.4019 16.4083 72.5018 35.552 71.3613 34.4128C70.9549 34.0183 70.4347 33.7617 69.8743 33.6795C69.314 33.5972 68.7419 33.6935 68.2394 33.9546C65.687 29.792 63.5034 25.833 63.945 20.3866C63.945 24.2176 56.9357 26.1811 49.8534 26.1811C47.2182 25.9832 44.6111 25.5092 42.0749 24.7667C42.3657 28.2965 42.3657 31.8443 42.0749 35.3741C42.1127 35.0849 42.0723 34.7908 41.9577 34.5225C41.8431 34.2543 41.6586 34.0217 41.4235 33.8491C41.1884 33.6765 40.9112 33.5701 40.621 33.5412C40.3307 33.5122 40.038 33.5617 39.7734 33.6845Z" fill="#614B44"/>
<path d="M51.1693 16.3917C54.9991 16.3917 62.6573 15.4662 65.2109 18.8698C70.4358 20.032 72.3725 24.823 72.8371 29.4861C73.3581 23.9334 72.3776 15.5136 65.2109 13.92C62.6573 10.5165 54.9991 11.4406 51.1693 11.4406C47.4457 11.441 43.8747 12.9203 41.2417 15.5533C38.6087 18.1863 37.1293 21.7573 37.129 25.481C37.129 26.3122 37.2018 27.1418 37.3466 27.9603C37.9272 24.7167 39.6299 21.7805 42.1569 19.6656C44.6839 17.5507 47.8741 16.3918 51.1693 16.3917Z" fill="#947063"/>
<path d="M39.7734 33.6845C38.2641 31.5873 37.3628 29.1144 37.1685 26.5379C36.9742 23.9614 37.4947 21.3813 38.6725 19.0815C39.8503 16.7818 41.6398 14.8516 43.844 13.5035C46.0482 12.1554 48.5816 11.4415 51.1654 11.4406C54.9952 11.4406 62.6534 10.5165 65.2058 13.92C76.4019 16.4083 72.5018 35.552 71.3613 34.4128C70.9549 34.0183 70.4347 33.7617 69.8743 33.6795C69.314 33.5972 68.7419 33.6935 68.2394 33.9546C65.687 29.792 63.5034 25.833 63.945 20.3866C63.945 24.2176 56.9357 26.1811 49.8534 26.1811C47.2182 25.9832 44.6111 25.5092 42.0749 24.7667C42.3657 28.2965 42.3657 31.8443 42.0749 35.3741C42.1127 35.0849 42.0723 34.7908 41.9577 34.5225C41.8431 34.2543 41.6586 34.0217 41.4235 33.8491C41.1884 33.6765 40.9112 33.5701 40.621 33.5412C40.3307 33.5122 40.038 33.5617 39.7734 33.6845V33.6845Z" stroke="#45413C" stroke-width="1.5" stroke-linecap="round" stroke-linejoin="round"/>
<path d="M66.1222 39.3242C66.1225 39.6609 66.0229 39.9902 65.836 40.2703C65.649 40.5504 65.3833 40.7688 65.0722 40.8979C64.7612 41.0269 64.4188 41.0608 64.0885 40.9953C63.7582 40.9297 63.4547 40.7677 63.2165 40.5297C62.9783 40.2916 62.816 39.9883 62.7502 39.658C62.6845 39.3278 62.7181 38.9854 62.8469 38.6743C62.9757 38.3631 63.1939 38.0972 63.4739 37.91C63.7539 37.7229 64.0831 37.623 64.4198 37.623C64.8711 37.623 65.3039 37.8022 65.6232 38.1212C65.9424 38.4402 66.1219 38.8729 66.1222 39.3242Z" fill="#FFB59E"/>
<path d="M46.8967 39.3242C46.8969 39.661 46.7972 39.9903 46.6103 40.2705C46.4233 40.5506 46.1575 40.769 45.8463 40.898C45.5352 41.027 45.1928 41.0608 44.8624 40.9952C44.5321 40.9296 44.2286 40.7674 43.9905 40.5292C43.7523 40.2911 43.5901 39.9876 43.5245 39.6573C43.4589 39.3269 43.4927 38.9845 43.6217 38.6734C43.7507 38.3623 43.9691 38.0964 44.2492 37.9094C44.5294 37.7225 44.8587 37.6228 45.1955 37.623C45.4189 37.623 45.6401 37.667 45.8465 37.7525C46.0529 37.838 46.2404 37.9633 46.3984 38.1213C46.5564 38.2793 46.6817 38.4668 46.7672 38.6732C46.8527 38.8796 46.8967 39.1008 46.8967 39.3242Z" fill="#FFB59E"/>
<path d="M64.7194 34.4755C64.5446 34.0553 64.2493 33.6962 63.8707 33.4437C63.4921 33.1911 63.0472 33.0563 62.592 33.0563C62.1369 33.0563 61.692 33.1911 61.3134 33.4437C60.9347 33.6962 60.6394 34.0553 60.4647 34.4755" stroke="#45413C" stroke-width="1.5" stroke-linecap="round" stroke-linejoin="round"/>
<path d="M49.152 34.4755C48.9772 34.0553 48.6819 33.6962 48.3033 33.4437C47.9247 33.1911 47.4798 33.0563 47.0246 33.0563C46.5695 33.0563 46.1246 33.1911 45.746 33.4437C45.3674 33.6962 45.072 34.0553 44.8973 34.4755" stroke="#45413C" stroke-width="1.5" stroke-linecap="round" stroke-linejoin="round"/>
<path d="M66.5037 28.5696C63.8005 28.2115 61.0622 28.2068 58.3578 28.5556C57.7148 28.638 57.1196 28.9386 56.6716 29.4071C56.2236 29.8756 55.95 30.4836 55.8963 31.1296H53.7203C53.6667 30.4836 53.393 29.8756 52.945 29.4071C52.497 28.9386 51.9018 28.638 51.2589 28.5556C48.5545 28.2068 45.8162 28.2115 43.113 28.5696C42.4337 28.664 41.8117 29.0013 41.3619 29.519C40.9122 30.0367 40.6653 30.6999 40.6669 31.3856V36.576C40.663 37.2557 40.9037 37.9142 41.345 38.4311C41.7864 38.9481 42.3988 39.2892 43.0707 39.392C45.5651 39.7236 48.0942 39.6951 50.5805 39.3076C51.185 39.2124 51.7431 38.9262 52.1732 38.4909C52.6032 38.0556 52.8825 37.494 52.9702 36.8884L53.3952 33.961H56.2227L56.6477 36.8884C56.7354 37.494 57.0147 38.0556 57.4448 38.4909C57.8748 38.9262 58.433 39.2124 59.0374 39.3076C61.5237 39.6951 64.0528 39.7236 66.5472 39.392C67.2191 39.2892 67.8316 38.9481 68.2729 38.4311C68.7142 37.9142 68.9549 37.2557 68.951 36.576V31.3844C68.9523 30.6986 68.705 30.0356 68.2551 29.5182C67.8051 29.0007 67.183 28.6637 66.5037 28.5696ZM51.2717 32.5876L50.8058 35.7876C50.7505 36.1671 50.575 36.5189 50.305 36.7912C50.0349 37.0635 49.6846 37.2421 49.3056 37.3005C47.6425 37.5464 45.9537 37.5658 44.2854 37.3581C43.8679 37.2918 43.4877 37.0788 43.213 36.7574C42.9383 36.436 42.7871 36.0273 42.7866 35.6045V32.3456C42.7863 31.9182 42.9408 31.5051 43.2215 31.1827C43.5022 30.8603 43.8902 30.6505 44.3136 30.592C46.1168 30.369 47.9403 30.3643 49.7446 30.578C50.2128 30.6438 50.636 30.8919 50.922 31.2683C51.208 31.6447 51.3337 32.1189 51.2717 32.5876ZM66.8288 35.5994C66.8283 36.0222 66.6771 36.4309 66.4024 36.7523C66.1277 37.0737 65.7475 37.2866 65.3299 37.353C63.6616 37.5607 61.9729 37.5413 60.3098 37.2954C59.9307 37.2369 59.5805 37.0584 59.3104 36.7861C59.0404 36.5137 58.8648 36.162 58.8096 35.7824L58.3437 32.5824C58.2817 32.1138 58.4074 31.6396 58.6934 31.2632C58.9794 30.8868 59.4026 30.6386 59.8707 30.5728C61.6751 30.3592 63.4986 30.3639 65.3018 30.5869C65.7252 30.6454 66.1132 30.8552 66.3939 31.1776C66.6746 31.4999 66.8291 31.913 66.8288 32.3405V35.5994Z" fill="#87898C" stroke="#45413C" stroke-width="1.5" stroke-linecap="round" stroke-linejoin="round"/>
</svg>

