<svg width="300" height="69" viewBox="0 0 300 69" fill="none" xmlns="http://www.w3.org/2000/svg">
<path d="M28.4393 23.8494C29.5814 21.3324 32.0613 19.735 34.9353 19.665L285.807 13.5534C290.224 13.4458 294.206 16.9177 294.702 21.3081L298.339 53.5155C298.841 57.9559 295.585 61.6245 291.11 61.662L23.7462 63.8974C17.6571 63.9483 13.1678 57.5043 15.5835 52.1807L28.4393 23.8494Z" fill="#FAE54E"/>
<path d="M6.7319 7.78615C7.32211 3.47305 11.2601 0.114347 15.6031 0.220044L279.205 6.63548C283.622 6.74298 286.801 10.3893 286.305 14.7797L282.646 47.2088C282.154 51.5628 278.231 55.0209 273.845 54.9655L9.04569 51.6155C4.51178 51.5581 1.25942 47.7779 1.87481 43.2807L6.7319 7.78615Z" fill="#FAE54E"/>
</svg>

