<svg  viewBox="0 0 130 129" fill="none" xmlns="http://www.w3.org/2000/svg">
<path d="M65 129C75.3238 128.999 85.4651 126.148 94.4036 120.734C103.342 115.319 110.762 107.533 115.918 98.1575H14.0825C19.2379 107.533 26.6582 115.319 35.5966 120.733C44.535 126.148 54.6763 128.999 65 129Z" fill="#F2DFC2"/>
<path d="M11.3931 92.76C12.1964 94.6106 13.1144 96.4041 14.0825 98.1575H115.918C116.886 96.4041 117.804 94.6106 118.607 92.76H11.3931Z" fill="#F2DFC2"/>
<path d="M123.851 67.3147C123.852 58.1084 121.887 49.0186 118.1 40.7119C114.313 32.4052 108.801 25.0923 101.966 19.3095C95.1321 13.5267 87.1496 9.42058 78.6043 7.29239C70.059 5.1642 61.1676 5.06786 52.5821 7.01045C43.9967 8.95303 35.9349 12.8853 28.9881 18.5188C22.0413 24.1523 16.3856 31.3442 12.4358 39.5671C8.48601 47.7899 6.34228 56.8352 6.16184 66.0396C5.98139 75.2439 7.76881 84.3739 11.393 92.7599H118.607C122.069 84.768 123.857 76.0916 123.851 67.3147Z" fill="#C7F0FF"/>
<path d="M7.62073 92.7627H122.379" stroke="#45413C" stroke-width="1.4" stroke-linecap="round" stroke-linejoin="round"/>
<path d="M1 92.7627H4.67816" stroke="#45413C" stroke-width="1.4" stroke-linecap="round" stroke-linejoin="round"/>
<path d="M125.322 92.7627H129" stroke="#45413C" stroke-width="1.4" stroke-linecap="round" stroke-linejoin="round"/>
<path opacity="0.15" d="M39.2529 103.555C39.2529 104.832 34.7066 105.868 28.3302 105.868C21.9537 105.868 18.6552 104.835 18.6552 103.555C18.6552 102.275 21.9523 101.242 28.3302 101.242C34.7081 101.242 39.2529 102.28 39.2529 103.555Z" fill="#45413C"/>
<path d="M64.3203 53.1873C57.6524 53.1873 51.2575 55.9636 46.5425 60.9055C41.8274 65.8474 39.1783 72.5501 39.1779 79.5392V88.3078C39.1613 88.6858 39.0519 89.0529 38.8602 89.3735C38.6686 89.6942 38.4011 89.9576 38.0839 90.1381C37.7666 90.3187 37.4102 90.4103 37.0493 90.4041C36.6883 90.3979 36.335 90.2941 36.0235 90.1028L32.7867 88.0641C32.2373 87.7182 31.6283 87.4891 30.9945 87.3899C30.3606 87.2907 29.7143 87.3233 29.0925 87.486C27.8367 87.8143 26.7567 88.6522 26.0903 89.8152C25.7603 90.391 25.5417 91.0294 25.4471 91.6938C25.3524 92.3582 25.3836 93.0356 25.5387 93.6873C25.852 95.0037 26.6513 96.1356 27.7609 96.8342C31.0624 98.913 33.1795 100.632 37.0578 100.632C39.4931 100.604 41.8607 99.7881 43.837 98.2962C45.8133 96.8043 47.302 94.7093 48.0996 92.2972H89.4628V79.5392C89.4624 72.5501 86.8133 65.8474 82.0982 60.9055C77.3831 55.9636 70.9883 53.1873 64.3203 53.1873Z" fill="#FF6242"/>
<path d="M64.3203 53.1873C57.6524 53.1873 51.2575 55.9636 46.5424 60.9055C41.8273 65.8474 39.1782 72.5501 39.1779 79.5392V86.34C39.1779 79.3506 41.8268 72.6475 46.5419 67.7053C51.257 62.763 57.6521 59.9865 64.3203 59.9865C70.9885 59.9865 77.3835 62.763 82.0987 67.7053C86.8138 72.6475 89.4627 79.3506 89.4627 86.34V79.5392C89.4623 72.5501 86.8132 65.8474 82.0982 60.9055C77.3831 55.9636 70.9882 53.1873 64.3203 53.1873Z" fill="#FF866E"/>
<path d="M64.3203 53.1873C57.6524 53.1873 51.2575 55.9636 46.5425 60.9055C41.8274 65.8474 39.1783 72.5501 39.1779 79.5392V88.3077C39.1613 88.6858 39.0519 89.0529 38.8602 89.3735C38.6686 89.6942 38.4011 89.9576 38.0839 90.1381C37.7666 90.3187 37.4102 90.4103 37.0493 90.4041C36.6883 90.3979 36.335 90.2941 36.0235 90.1028L32.7867 88.0641C32.2373 87.7182 31.6283 87.4891 30.9945 87.3899C30.3606 87.2907 29.7143 87.3233 29.0925 87.486C27.8367 87.8143 26.7567 88.6522 26.0903 89.8152C25.7603 90.391 25.5417 91.0294 25.4471 91.6938C25.3524 92.3582 25.3836 93.0356 25.5387 93.6873C25.852 95.0037 26.6513 96.1356 27.7609 96.8342C31.0624 98.913 33.1795 100.632 37.0578 100.632C39.4931 100.604 41.8607 99.7881 43.837 98.2962C45.8133 96.8043 47.302 94.7093 48.0996 92.2972H89.4628V79.5392C89.4624 72.5501 86.8133 65.8474 82.0982 60.9055C77.3831 55.9636 70.9883 53.1873 64.3203 53.1873Z" stroke="#45413C" stroke-width="1.4" stroke-linecap="round" stroke-linejoin="round"/>
<path d="M66.3477 49.7867H62.2929C61.3792 49.7727 60.4719 49.9492 59.6238 50.3061C58.7757 50.6629 58.0038 51.1929 57.3529 51.8653C56.702 52.5376 56.1851 53.3389 55.8323 54.2225C55.4795 55.1061 55.2979 56.0544 55.2979 57.0123C55.2979 57.9702 55.4795 58.9185 55.8323 59.8021C56.1851 60.6857 56.702 61.487 57.3529 62.1594C58.0038 62.8317 58.7757 63.3617 59.6238 63.7186C60.4719 64.0754 61.3792 64.252 62.2929 64.238H66.3477C67.2615 64.252 68.1688 64.0754 69.0168 63.7186C69.8649 63.3617 70.6368 62.8317 71.2877 62.1594C71.9386 61.487 72.4555 60.6857 72.8083 59.8021C73.1611 58.9185 73.3428 57.9702 73.3428 57.0123C73.3428 56.0544 73.1611 55.1061 72.8083 54.2225C72.4555 53.3389 71.9386 52.5376 71.2877 51.8653C70.6368 51.1929 69.8649 50.6629 69.0168 50.3061C68.1688 49.9492 67.2615 49.7727 66.3477 49.7867Z" fill="#FFAA54" stroke="#45413C" stroke-width="1.4" stroke-linejoin="round"/>
<path d="M48.0995 92.291V76.99" stroke="#45413C" stroke-width="1.4" stroke-linecap="round" stroke-linejoin="round"/>
<path d="M80.5409 92.291V76.99" stroke="#45413C" stroke-width="1.4" stroke-linecap="round" stroke-linejoin="round"/>
<path d="M58.6427 47.2363V56.7467C58.6427 56.7467 58.5795 60.787 64.3203 60.8379C70.0583 60.787 69.9979 56.7467 69.9979 56.7467V47.2363H58.6427Z" fill="#D18660"/>
<path d="M58.6427 52.5104C58.6427 52.7464 58.7589 56.54 64.3203 56.5894C69.8817 56.54 69.9964 52.7464 69.9979 52.5104V47.2363H58.6427V52.5104Z" fill="#BD704A"/>
<path d="M58.6427 47.2363V56.7467C58.6427 56.7467 58.5795 60.787 64.3203 60.8379C70.0583 60.787 69.9979 56.7467 69.9979 56.7467V47.2363H58.6427Z" stroke="#45413C" stroke-width="1.4" stroke-linecap="round" stroke-linejoin="round"/>
<path d="M30.4915 87.1912H28.4023C27.7872 87.1982 27.1793 87.3322 26.6135 87.5855C26.0478 87.8388 25.5351 88.2064 25.1049 88.6674C24.6747 89.1284 24.3353 89.6736 24.1061 90.2721C23.877 90.8706 23.7625 91.5105 23.7693 92.1553V96.885C23.7742 97.3265 23.9152 97.7545 24.1714 98.1051C24.4276 98.4556 24.7851 98.7098 25.1906 98.8296C27.9713 99.668 30.9211 99.668 33.7018 98.8296C34.1076 98.7104 34.4656 98.4564 34.7219 98.1058C34.9782 97.7551 35.119 97.3267 35.1231 96.885V92.1553C35.1301 91.5105 35.0158 90.8707 34.7868 90.2722C34.5578 89.6738 34.2186 89.1285 33.7885 88.6675C33.3584 88.2065 32.8458 87.8388 32.2801 87.5855C31.7144 87.3322 31.1067 87.1982 30.4915 87.1912Z" fill="#D18660" stroke="#45413C" stroke-width="1.4" stroke-linecap="round" stroke-linejoin="round"/>
<path d="M35.3966 102.492H23.7736C23.5396 102.493 23.3081 102.44 23.0953 102.338C22.8824 102.236 22.6933 102.087 22.5408 101.901C22.3884 101.714 22.2763 101.496 22.2122 101.26C22.1482 101.024 22.1338 100.776 22.17 100.534L22.5804 97.7423C22.8377 95.9878 23.6859 94.3877 24.9713 93.2319C26.2567 92.0761 27.8945 91.4408 29.5881 91.4412C31.2816 91.4411 32.9192 92.0765 34.2045 93.2323C35.4899 94.388 36.3381 95.9879 36.5957 97.7423L37.0047 100.534C37.041 100.776 37.0264 101.025 36.9622 101.261C36.8979 101.497 36.7854 101.716 36.6324 101.902C36.4795 102.089 36.2898 102.238 36.0764 102.34C35.863 102.441 35.6311 102.493 35.3966 102.492Z" fill="white"/>
<path d="M29.5837 94.8418C27.8901 94.8415 26.2524 95.4767 24.967 96.6325C23.6815 97.7883 22.8334 99.3884 22.5761 101.143L22.4805 101.789C22.6267 102.005 22.8199 102.181 23.044 102.304C23.2681 102.426 23.5167 102.491 23.7693 102.492H35.3923C35.6449 102.491 35.8935 102.426 36.1176 102.304C36.3417 102.181 36.5349 102.005 36.6811 101.789L36.587 101.143C36.3295 99.3893 35.4819 97.7901 34.1975 96.6344C32.913 95.4787 31.2765 94.8429 29.5837 94.8418Z" fill="#E8F4FA"/>
<path d="M35.3966 102.492H23.7736C23.5396 102.493 23.3081 102.44 23.0953 102.338C22.8824 102.236 22.6933 102.087 22.5408 101.901C22.3884 101.714 22.2763 101.496 22.2122 101.26C22.1482 101.024 22.1338 100.776 22.17 100.534L22.5804 97.7423C22.8377 95.9878 23.6859 94.3877 24.9713 93.2319C26.2567 92.0761 27.8945 91.4408 29.5881 91.4412V91.4412C31.2816 91.4411 32.9192 92.0765 34.2045 93.2323C35.4899 94.388 36.3381 95.9879 36.5957 97.7423L37.0047 100.534C37.041 100.776 37.0264 101.025 36.9622 101.261C36.8979 101.497 36.7854 101.716 36.6324 101.902C36.4795 102.089 36.2898 102.238 36.0764 102.34C35.863 102.441 35.6311 102.493 35.3966 102.492V102.492Z" stroke="#45413C" stroke-width="1.4" stroke-linecap="round" stroke-linejoin="round"/>
<path d="M28.6348 95.5682C28.6348 95.7936 28.7202 96.0097 28.8722 96.1691C29.0242 96.3284 29.2304 96.4179 29.4454 96.4179C29.6604 96.4179 29.8666 96.3284 30.0187 96.1691C30.1707 96.0097 30.2561 95.7936 30.2561 95.5682C30.2561 95.3429 30.1707 95.1267 30.0187 94.9674C29.8666 94.808 29.6604 94.7185 29.4454 94.7185C29.2304 94.7185 29.0242 94.808 28.8722 94.9674C28.7202 95.1267 28.6348 95.3429 28.6348 95.5682Z" fill="#45413C" stroke="#45413C" stroke-width="1.4" stroke-linecap="round" stroke-linejoin="round"/>
<path d="M80.541 29.3783V25.1329C80.541 20.6236 78.832 16.2991 75.7901 13.1106C72.7481 9.92214 68.6223 8.13086 64.3203 8.13086C60.0183 8.13086 55.8925 9.92214 52.8505 13.1106C49.8086 16.2991 48.0996 20.6236 48.0996 25.1329V29.3783C47.2392 29.3783 46.4141 29.7366 45.8057 30.3743C45.1973 31.012 44.8555 31.8769 44.8555 32.7787C44.8555 33.6806 45.1973 34.5455 45.8057 35.1832C46.4141 35.8209 47.2392 36.1791 48.0996 36.1791C48.1673 36.1791 48.232 36.1622 48.2982 36.1576C48.8721 40.1813 50.8052 43.8554 53.7457 46.5111C56.6863 49.1668 60.4388 50.6275 64.3203 50.6275C68.2018 50.6275 71.9543 49.1668 74.8949 46.5111C77.8354 43.8554 79.7685 40.1813 80.3424 36.1576C80.41 36.1576 80.4733 36.1791 80.541 36.1791C81.4014 36.1791 82.2265 35.8209 82.8349 35.1832C83.4433 34.5455 83.7851 33.6806 83.7851 32.7787C83.7851 31.8769 83.4433 31.012 82.8349 30.3743C82.2265 29.7366 81.4014 29.3783 80.541 29.3783Z" fill="#D18660" stroke="#45413C" stroke-width="1.4" stroke-linecap="round" stroke-linejoin="round"/>
<path d="M73.2391 31.084C73.0366 30.581 72.6972 30.1517 72.2632 29.8498C71.8291 29.548 71.3198 29.387 70.799 29.387C70.2781 29.387 69.7688 29.548 69.3348 29.8498C68.9008 30.1517 68.5613 30.581 68.3589 31.084" stroke="#45413C" stroke-width="1.4" stroke-linecap="round" stroke-linejoin="round"/>
<path d="M60.2787 31.084C60.0763 30.581 59.7369 30.1517 59.3028 29.8498C58.8688 29.548 58.3595 29.387 57.8387 29.387C57.3178 29.387 56.8085 29.548 56.3745 29.8498C55.9404 30.1517 55.601 30.581 55.3986 31.084" stroke="#45413C" stroke-width="1.4" stroke-linecap="round" stroke-linejoin="round"/>
<path d="M52.9664 36.6094C52.9664 37.173 53.18 37.7135 53.5602 38.1121C53.9405 38.5106 54.4561 38.7345 54.9938 38.7345C55.5315 38.7345 56.0472 38.5106 56.4274 38.1121C56.8076 37.7135 57.0212 37.173 57.0212 36.6094C57.0212 36.0458 56.8076 35.5053 56.4274 35.1068C56.0472 34.7083 55.5315 34.4844 54.9938 34.4844C54.4561 34.4844 53.9405 34.7083 53.5602 35.1068C53.18 35.5053 52.9664 36.0458 52.9664 36.6094Z" fill="#BD704A"/>
<path d="M71.6207 36.6094C71.6207 37.173 71.8343 37.7135 72.2145 38.1121C72.5948 38.5106 73.1104 38.7345 73.6481 38.7345C74.1858 38.7345 74.7015 38.5106 75.0817 38.1121C75.4619 37.7135 75.6755 37.173 75.6755 36.6094C75.6755 36.0458 75.4619 35.5053 75.0817 35.1068C74.7015 34.7083 74.1858 34.4844 73.6481 34.4844C73.1104 34.4844 72.5948 34.7083 72.2145 35.1068C71.8343 35.5053 71.6207 36.0458 71.6207 36.6094Z" fill="#BD704A"/>
<path d="M48.0996 26.22C46.6181 31.3538 44.8555 57.4451 64.3203 57.4451C83.7851 57.4451 82.0226 31.3538 80.541 26.22V25.1328C80.541 9.83179 68.6002 2.55601 62.5577 1C63.851 3.97169 62.4474 8.13082 61.8868 8.13082C61.8868 8.13082 59.5328 5.2424 57.8394 5.24703C59.218 11.5143 48.0996 8.02286 48.0996 25.1328V26.22ZM74.0527 42.1348C70.7541 42.7116 68.3751 38.7421 64.3203 38.7421C60.2655 38.7421 57.8865 42.7193 54.5879 42.1348C51.5144 41.5982 50.5331 31.0839 51.0392 25.3903C52.7503 25.9872 55.5619 23.4334 55.5619 23.4334V19.3544C58.3962 20.3873 61.3354 21.072 64.3203 21.3947C67.3057 21.0721 70.2454 20.3875 73.0802 19.3544V23.4349C73.0802 23.4349 75.8874 25.9856 77.6014 25.3903C78.1075 31.0839 77.1262 41.5982 74.0527 42.1348Z" fill="#724F3D"/>
<path d="M58.6132 9.87068C60.698 10.0897 63.2712 13.7445 63.2712 13.7445C63.9598 13.8185 66.1593 9.19059 64.9029 5.58201C70.534 7.77384 75.4653 11.5781 79.1359 16.562C77.7113 12.7997 75.4722 9.43592 72.5952 6.73586C69.7182 4.03581 66.282 2.07339 62.5577 1.00342C63.8509 3.97511 62.4473 8.13423 61.8868 8.13423C61.8868 8.13423 59.5328 5.24582 57.8393 5.25045C59.0384 10.7003 50.7876 8.77422 48.6145 19.4273C53.1151 13.9573 59.2988 15.0276 58.6132 9.87068Z" fill="#A86C4D"/>
<path d="M48.0996 26.22C46.6181 31.3538 44.8555 57.4451 64.3203 57.4451C83.7851 57.4451 82.0226 31.3538 80.541 26.22V25.1328C80.541 9.83179 68.6002 2.55601 62.5577 1C63.851 3.97169 62.4474 8.13082 61.8868 8.13082C61.8868 8.13082 59.5328 5.2424 57.8394 5.24703C59.218 11.5143 48.0996 8.02286 48.0996 25.1328V26.22ZM74.0527 42.1348C70.7541 42.7116 68.3751 38.7421 64.3203 38.7421C60.2655 38.7421 57.8865 42.7193 54.5879 42.1348C51.5144 41.5982 50.5331 31.0839 51.0392 25.3903C52.7503 25.9872 55.5619 23.4334 55.5619 23.4334V19.3544C58.3962 20.3873 61.3354 21.072 64.3203 21.3947C67.3057 21.0721 70.2454 20.3875 73.0802 19.3544V23.4349C73.0802 23.4349 75.8874 25.9856 77.6014 25.3903C78.1075 31.0839 77.1262 41.5982 74.0527 42.1348Z" stroke="#45413C" stroke-width="1.4" stroke-linecap="round" stroke-linejoin="round"/>
<path d="M64.3202 48.1803C61.8867 48.1803 60.2654 49.8766 59.4547 48.1803C58.1468 45.4399 61.0731 42.2307 64.3202 42.2307C67.5673 42.2307 70.4995 45.4399 69.1872 48.1803C68.375 49.8889 66.7537 48.1803 64.3202 48.1803Z" fill="#D18660" stroke="#45413C" stroke-width="1.4" stroke-linecap="round" stroke-linejoin="round"/>
<path opacity="0.15" d="M111.354 114.953C111.354 116.58 97.712 117.898 78.5753 117.898C59.4386 117.898 49.5428 116.58 49.5428 114.953C49.5428 113.326 59.4371 112.009 78.5753 112.009C97.7135 112.009 111.354 113.328 111.354 114.953Z" fill="#45413C"/>
<path d="M104.665 112.99H56.2047C55.4243 112.99 54.6759 112.665 54.1241 112.086C53.5722 111.508 53.2622 110.723 53.2622 109.905V108.083H107.608V109.905C107.608 110.723 107.298 111.508 106.746 112.086C106.194 112.665 105.446 112.99 104.665 112.99Z" fill="#8CA4B8" stroke="#45413C" stroke-width="1.4" stroke-linejoin="round"/>
<path d="M107.608 108.083H53.2622L50.5065 82.05C50.4419 81.4981 50.4899 80.9382 50.6473 80.4072C50.8047 79.8762 51.068 79.3864 51.4197 78.9701C51.7713 78.5538 52.2034 78.2206 52.6871 77.9926C53.1709 77.7645 53.6954 77.6468 54.2259 77.6472H106.671C107.201 77.6469 107.725 77.7645 108.208 77.9923C108.692 78.2201 109.123 78.5528 109.475 78.9686C109.827 79.3843 110.09 79.8736 110.248 80.404C110.405 80.9344 110.454 81.4939 110.39 82.0454L107.608 108.083Z" fill="#ADC4D9"/>
<path d="M50.9112 85.8683C51.0294 85.5069 51.2018 85.1675 51.4217 84.8629C51.7734 84.4472 52.2052 84.1145 52.6886 83.8867C53.172 83.6589 53.6959 83.5411 54.2259 83.5412H106.671C107.201 83.5411 107.725 83.6589 108.208 83.8867C108.691 84.1145 109.123 84.4472 109.475 84.8629C109.693 85.1662 109.864 85.5034 109.982 85.8622L110.39 82.05C110.455 81.4981 110.407 80.9382 110.249 80.4072C110.092 79.8762 109.829 79.3864 109.477 78.9701C109.125 78.5538 108.693 78.2206 108.209 77.9926C107.726 77.7645 107.201 77.6468 106.671 77.6472H54.2259C53.6959 77.6469 53.1718 77.7645 52.6884 77.9923C52.205 78.2201 51.7732 78.5528 51.4216 78.9686C51.07 79.3843 50.8066 79.8736 50.6489 80.404C50.4912 80.9344 50.4427 81.4939 50.5066 82.0454L50.9112 85.8683Z" fill="#C0DCEB"/>
<path d="M107.608 108.083H53.2622L50.5065 82.05C50.4419 81.4981 50.4899 80.9382 50.6473 80.4072C50.8047 79.8762 51.068 79.3864 51.4197 78.9701C51.7713 78.5538 52.2034 78.2206 52.6871 77.9926C53.1709 77.7645 53.6954 77.6468 54.2259 77.6472H106.671C107.201 77.6469 107.725 77.7645 108.208 77.9923C108.692 78.2201 109.123 78.5528 109.475 78.9686C109.827 79.3843 110.09 79.8736 110.248 80.404C110.405 80.9344 110.454 81.4939 110.39 82.0454L107.608 108.083Z" stroke="#45413C" stroke-width="1.4" stroke-linejoin="round"/>
<path d="M83.4585 93.0851C83.4638 92.5735 83.5929 92.0716 83.8338 91.6266C84.0747 91.1815 84.4194 90.8079 84.8356 90.5406C84.5715 90.1462 84.224 89.8212 83.8203 89.5908C83.4165 89.3605 82.9674 89.2311 82.5081 89.2128C81.5164 89.1079 80.5719 89.8297 80.0687 89.8297C79.5655 89.8297 78.7887 89.2329 77.9663 89.2483C77.4261 89.2642 76.8991 89.427 76.4369 89.7206C75.9748 90.0141 75.5933 90.4285 75.3298 90.923C74.2057 92.9679 75.0355 95.9951 76.1375 97.6544C76.673 98.4641 77.3145 99.377 78.1487 99.3431C78.9564 99.3091 79.261 98.7956 80.2364 98.7956C81.2119 98.7956 81.4855 99.3431 82.3403 99.3261C83.1951 99.3091 83.7586 98.4995 84.2898 97.6853C84.6699 97.0999 84.9672 96.46 85.1725 95.7854C84.6662 95.5603 84.2339 95.1846 83.9292 94.7046C83.6246 94.2247 83.4609 93.6616 83.4585 93.0851Z" fill="#F0F0F0" stroke="#45413C" stroke-width="1.4" stroke-linejoin="round"/>
<path d="M81.2766 85.748L82.4463 84.522" stroke="#45413C" stroke-width="1.4" stroke-linecap="round" stroke-linejoin="round"/>
<path d="M48.8926 123.035H36.9753C36.5239 123.035 36.0909 122.847 35.7716 122.513C35.4524 122.178 35.2731 121.724 35.2731 121.251V119.465H50.5948V121.251C50.5948 121.724 50.4155 122.178 50.0962 122.513C49.777 122.847 49.344 123.035 48.8926 123.035Z" fill="#E8F4FA" stroke="#45413C" stroke-width="1.4" stroke-linecap="round" stroke-linejoin="round"/>
<path d="M50.5948 119.465H35.2672L38.2848 109.975C38.3979 109.619 38.6152 109.309 38.9057 109.09C39.1962 108.871 39.5452 108.753 39.9032 108.753H45.9648C46.3228 108.753 46.6718 108.871 46.9623 109.09C47.2528 109.309 47.47 109.619 47.5832 109.975L50.5948 119.465Z" fill="#00B8F0"/>
<path d="M45.9618 108.753H39.9002C39.5423 108.753 39.1933 108.871 38.9027 109.09C38.6122 109.309 38.395 109.619 38.2818 109.975L35.2643 119.465H36.3089L47.5376 109.873C47.4111 109.543 47.1935 109.26 46.9128 109.061C46.6321 108.862 46.301 108.754 45.9618 108.753Z" fill="#4ACFFF"/>
<path d="M50.5948 119.465H35.2672L38.2848 109.975C38.3979 109.619 38.6152 109.309 38.9057 109.09C39.1962 108.871 39.5452 108.753 39.9032 108.753H45.9648C46.3228 108.753 46.6718 108.871 46.9623 109.09C47.2528 109.309 47.47 109.619 47.5832 109.975L50.5948 119.465Z" stroke="#45413C" stroke-width="1.4" stroke-linecap="round" stroke-linejoin="round"/>
<path d="M42.0792 111.213H43.7829" stroke="#45413C" stroke-width="1.4" stroke-linecap="round" stroke-linejoin="round"/>
<path d="M43.7828 119.465H47.1888V123.035H43.7828V119.465Z" fill="#BDBEC0" stroke="#45413C" stroke-width="1.4" stroke-linecap="round" stroke-linejoin="round"/>
</svg>

