<svg width="282" height="253" viewBox="0 0 282 253" fill="none" xmlns="http://www.w3.org/2000/svg">
<path d="M15.4824 193.761H266.52" stroke="#45413C" stroke-width="2" stroke-linecap="round" stroke-linejoin="round"/>
<path d="M1 193.761H9.04607" stroke="#45413C" stroke-width="2" stroke-linecap="round" stroke-linejoin="round"/>
<path d="M272.954 193.761H281" stroke="#45413C" stroke-width="2" stroke-linecap="round" stroke-linejoin="round"/>
<path d="M159.024 69.215C159.372 69.7505 159.569 70.3703 159.594 71.0087C159.619 71.6472 159.47 72.2804 159.164 72.8412C158.858 73.402 158.405 73.8694 157.855 74.1939C157.304 74.5185 156.676 74.688 156.037 74.6845H122.91C122.271 74.688 121.642 74.5185 121.092 74.1939C120.541 73.8694 120.089 73.402 119.783 72.8412C119.477 72.2804 119.328 71.6472 119.353 71.0087C119.377 70.3703 119.574 69.7505 119.923 69.215L131.345 51.4778C131.666 50.9781 132.107 50.567 132.629 50.2825C133.15 49.998 133.735 49.8492 134.329 49.8499H144.65C145.244 49.8492 145.829 49.998 146.35 50.2825C146.872 50.567 147.313 50.9781 147.634 51.4778L159.024 69.215Z" fill="#FFFACF"/>
<path d="M139.475 60.4928C145.042 60.4152 150.555 61.5861 155.609 63.9192L147.618 51.4906C147.297 50.9909 146.856 50.5798 146.335 50.2953C145.813 50.0108 145.229 49.862 144.635 49.8627H134.313C133.719 49.862 133.135 50.0108 132.613 50.2953C132.092 50.5798 131.65 50.9909 131.33 51.4906L123.338 63.9192C128.394 61.5858 133.908 60.415 139.475 60.4928Z" fill="#FFFEF2"/>
<path d="M243.387 240.831C243.693 241.905 244.405 242.819 245.371 243.379C246.338 243.939 247.485 244.102 248.57 243.834C249.654 243.566 250.593 242.887 251.187 241.941C251.781 240.995 251.984 239.855 251.755 238.762L245.173 204.658L233.291 207.599L243.387 240.831Z" fill="#C0DCEB"/>
<path d="M248.403 221.443L245.166 204.665L233.283 207.605L237.49 221.443H248.403Z" fill="#ADC4D9"/>
<path d="M243.387 240.831C243.693 241.905 244.405 242.819 245.371 243.379C246.338 243.939 247.485 244.102 248.57 243.834C249.654 243.566 250.593 242.887 251.187 241.941C251.781 240.995 251.984 239.855 251.755 238.762L245.173 204.658L233.291 207.599L243.387 240.831Z" stroke="#45413C" stroke-width="2" stroke-linecap="round" stroke-linejoin="round"/>
<path d="M207.213 240.831C206.907 241.905 206.196 242.819 205.229 243.379C204.262 243.939 203.115 244.102 202.031 243.834C200.946 243.566 200.008 242.887 199.414 241.941C198.819 240.995 198.616 239.855 198.846 238.762L205.424 204.658L217.306 207.599L207.213 240.831Z" fill="#C0DCEB"/>
<path d="M213.106 221.443L217.312 207.605L205.43 204.665L202.192 221.443H213.106Z" fill="#ADC4D9"/>
<path d="M207.213 240.831C206.907 241.905 206.196 242.819 205.229 243.379C204.262 243.939 203.115 244.102 202.031 243.834C200.946 243.566 200.008 242.887 199.414 241.941C198.819 240.995 198.616 239.855 198.846 238.762L205.424 204.658L217.306 207.599L207.213 240.831Z" stroke="#45413C" stroke-width="2" stroke-linecap="round" stroke-linejoin="round"/>
<path d="M200.815 209.205H248.818C250.696 209.205 252.497 208.459 253.825 207.132C255.153 205.804 255.899 204.004 255.899 202.127V135.692C255.899 133.828 255.532 131.983 254.819 130.262C254.106 128.54 253.061 126.976 251.742 125.658C250.424 124.341 248.86 123.295 247.137 122.583C245.415 121.87 243.569 121.503 241.705 121.503H215.025C211.26 121.503 207.65 122.998 204.988 125.659C202.327 128.32 200.831 131.929 200.831 135.692L200.815 209.205Z" fill="#FF8A14"/>
<path d="M241.71 121.509H215.026C211.261 121.509 207.651 123.004 204.99 125.665C202.328 128.326 200.832 131.935 200.832 135.698V148.361C200.832 146.498 201.199 144.652 201.912 142.93C202.625 141.208 203.67 139.644 204.988 138.325C206.306 137.007 207.871 135.962 209.593 135.248C211.315 134.534 213.161 134.167 215.026 134.166H241.739C245.503 134.166 249.113 135.661 251.775 138.322C254.437 140.983 255.932 144.592 255.932 148.355V135.692C255.932 133.826 255.563 131.979 254.848 130.257C254.133 128.534 253.084 126.969 251.763 125.652C250.442 124.334 248.874 123.291 247.149 122.58C245.424 121.869 243.576 121.505 241.71 121.509Z" fill="#FFAA54"/>
<path d="M200.815 209.205H248.818C250.696 209.205 252.497 208.459 253.825 207.132C255.153 205.804 255.899 204.004 255.899 202.127V135.692C255.899 133.828 255.532 131.983 254.819 130.262C254.106 128.54 253.061 126.976 251.742 125.658C250.424 124.341 248.86 123.295 247.137 122.583C245.415 121.87 243.569 121.503 241.705 121.503H215.025C211.26 121.503 207.65 122.998 204.988 125.659C202.327 128.32 200.831 131.929 200.831 135.692L200.815 209.205Z" stroke="#45413C" stroke-width="2" stroke-linecap="round" stroke-linejoin="round"/>
<path d="M178.376 209.204H248.821C250.699 209.204 252.5 208.459 253.828 207.131C255.155 205.804 255.901 204.003 255.901 202.126V199.021H178.376V209.204Z" fill="#FF8A14" stroke="#45413C" stroke-width="2" stroke-linecap="round" stroke-linejoin="round"/>
<path d="M192.658 149.037C192.653 153.633 190.823 158.04 187.572 161.29C184.32 164.54 179.912 166.368 175.313 166.372C170.811 166.381 166.444 164.834 162.951 161.994C159.458 159.154 157.053 155.195 156.145 150.787L150.087 125.952C149.757 124.113 150.162 122.217 151.214 120.673C152.267 119.128 153.883 118.057 155.717 117.691C157.55 117.325 159.454 117.691 161.02 118.713C162.585 119.734 163.688 121.328 164.091 123.153L170.148 147.991C170.382 149.146 171.007 150.184 171.918 150.931C172.83 151.678 173.971 152.088 175.149 152.09C175.563 152.104 175.975 152.036 176.361 151.889C176.748 151.742 177.101 151.52 177.401 151.235C177.7 150.95 177.94 150.609 178.106 150.23C178.272 149.852 178.361 149.444 178.368 149.03C178.368 147.137 179.12 145.321 180.46 143.982C181.799 142.643 183.615 141.891 185.509 141.891C187.404 141.891 189.22 142.643 190.559 143.982C191.899 145.321 192.651 147.137 192.651 149.03L192.658 149.037Z" fill="#FFCEBF" stroke="#45413C" stroke-width="2" stroke-linecap="round" stroke-linejoin="round"/>
<path d="M174.294 231.639L179.073 193.41C179.441 190.451 180.877 187.729 183.112 185.754C185.348 183.78 188.227 182.69 191.21 182.69H219.169V199.002H196.736L188.577 231.642L174.294 231.639Z" fill="#656769" stroke="#45413C" stroke-width="2" stroke-linecap="round" stroke-linejoin="round"/>
<path d="M233.463 158.345C240.543 156.369 246.336 150.359 246.336 136.789C246.336 122.156 228.654 111.294 213.054 111.294C208.499 111.295 203.989 112.193 199.781 113.937C195.573 115.68 191.749 118.235 188.529 121.456C185.309 124.676 182.755 128.5 181.013 132.707C179.271 136.914 178.375 141.424 178.376 145.977V150.057L188.575 160.256V182.69H233.463V158.345Z" fill="#4ACFFF"/>
<path d="M213.061 121.51C227.164 121.51 242.921 130.399 245.824 142.914C246.165 140.894 246.338 138.85 246.343 136.802C246.343 122.169 228.661 111.307 213.061 111.307C203.862 111.307 195.041 114.96 188.536 121.462C182.031 127.964 178.377 136.782 178.376 145.977V150.057L178.872 150.552C180.202 142.446 184.369 135.075 190.632 129.755C196.894 124.436 204.843 121.513 213.061 121.51Z" fill="#80DDFF"/>
<path d="M233.463 158.345C240.543 156.369 246.336 150.359 246.336 136.789C246.336 122.156 228.654 111.294 213.054 111.294C208.499 111.295 203.989 112.193 199.781 113.937C195.573 115.68 191.749 118.235 188.529 121.456C185.309 124.676 182.755 128.5 181.013 132.707C179.271 136.914 178.375 141.424 178.376 145.977V150.057L188.575 160.256V182.69H233.463V158.345Z" stroke="#45413C" stroke-width="2" stroke-linecap="round" stroke-linejoin="round"/>
<path d="M233.461 139.848C233.461 142.3 229.651 144.253 227.346 144.742V159.12C229.45 159.137 231.546 158.862 233.574 158.303" stroke="#45413C" stroke-width="2" stroke-linecap="round" stroke-linejoin="round"/>
<path opacity="0.15" d="M151.852 245.918C151.852 246.721 153.224 247.517 155.89 248.259C158.556 249.002 162.463 249.676 167.389 250.245C172.315 250.813 178.163 251.264 184.599 251.571C191.034 251.879 197.932 252.037 204.898 252.037C211.865 252.037 218.762 251.879 225.198 251.571C231.634 251.264 237.482 250.813 242.408 250.245C247.334 249.676 251.241 249.002 253.907 248.259C256.572 247.517 257.945 246.721 257.945 245.918C257.945 245.114 256.572 244.318 253.907 243.576C251.241 242.833 247.334 242.159 242.408 241.591C237.482 241.022 231.634 240.572 225.198 240.264C218.762 239.957 211.865 239.798 204.898 239.798C197.932 239.798 191.034 239.957 184.599 240.264C178.163 240.572 172.315 241.022 167.389 241.591C162.463 242.159 158.556 242.833 155.89 243.576C153.224 244.318 151.852 245.114 151.852 245.918Z" fill="#45413C"/>
<path d="M160.011 243.878C160.011 240.635 161.3 237.525 163.593 235.233C165.887 232.94 168.998 231.652 172.241 231.652H188.562V243.878H160.011Z" fill="#BF8256" stroke="#45413C" stroke-width="2" stroke-linecap="round" stroke-linejoin="round"/>
<path d="M174.294 243.878C174.294 240.635 175.583 237.525 177.876 235.233C180.17 232.94 183.28 231.652 186.524 231.652H202.845V239.811C202.845 240.347 202.739 240.877 202.534 241.372C202.329 241.867 202.028 242.317 201.649 242.696C201.27 243.074 200.821 243.375 200.325 243.58C199.83 243.785 199.3 243.891 198.764 243.891L174.294 243.878Z" fill="#BF8256" stroke="#45413C" stroke-width="2" stroke-linecap="round" stroke-linejoin="round"/>
<path d="M221.242 112.279C220.466 112.094 219.775 111.653 219.282 111.026C218.788 110.399 218.521 109.624 218.523 108.827V92.8592H203.576V110.069C203.577 110.799 203.352 111.512 202.931 112.109C202.51 112.707 201.915 113.159 201.227 113.405C199.396 114.06 197.624 114.872 195.933 115.831L206.956 125.583L223.37 112.858C222.664 112.644 221.955 112.451 221.242 112.279Z" fill="#FFCEBF" stroke="#45413C" stroke-width="2" stroke-linecap="round" stroke-linejoin="round"/>
<path d="M235.018 118.192L213.058 131.699L206.937 125.583L223.348 112.858" stroke="#45413C" stroke-width="2" stroke-linecap="round" stroke-linejoin="round"/>
<path d="M195.942 115.815L206.955 125.573L203.322 129.199C202.626 129.893 201.704 130.313 200.724 130.383C199.744 130.453 198.772 130.167 197.986 129.579L187.954 122.054C190.297 119.595 192.989 117.494 195.942 115.815Z" fill="#80DDFF" stroke="#45413C" stroke-width="2" stroke-linecap="round" stroke-linejoin="round"/>
<path d="M188.572 160.256V139.858" stroke="#45413C" stroke-width="2" stroke-linecap="round" stroke-linejoin="round"/>
<path d="M206.937 125.583V182.69" stroke="#45413C" stroke-width="2" stroke-linecap="round" stroke-linejoin="round"/>
<path d="M209.066 48.8783C215.553 48.8783 221.775 51.4545 226.362 56.04C230.949 60.6256 233.526 66.845 233.526 73.33V78.2204C240.51 78.2204 240.031 90.4463 232.303 90.4463H232.284C230.545 96.0179 226.864 100.781 221.911 103.871C216.958 106.961 211.06 108.172 205.289 107.284C199.519 106.397 194.258 103.47 190.463 99.0345C186.667 94.5994 184.589 88.9505 184.606 83.114V73.3333C184.606 70.1219 185.238 66.942 186.467 63.975C187.696 61.008 189.498 58.3121 191.769 56.0412C194.04 53.7703 196.737 51.9689 199.705 50.7399C202.673 49.5109 205.854 48.8783 209.066 48.8783Z" fill="#FFCEBF" stroke="#45413C" stroke-width="2" stroke-linecap="round" stroke-linejoin="round"/>
<path d="M210.29 78.8315C210.29 79.6421 210.612 80.4196 211.185 80.9928C211.758 81.566 212.536 81.888 213.347 81.888C214.158 81.888 214.936 81.566 215.509 80.9928C216.082 80.4196 216.405 79.6421 216.405 78.8315C216.405 78.0209 216.082 77.2434 215.509 76.6702C214.936 76.097 214.158 75.775 213.347 75.775C212.536 75.775 211.758 76.097 211.185 76.6702C210.612 77.2434 210.29 78.0209 210.29 78.8315Z" fill="#45413C"/>
<path d="M191.944 78.8315C191.944 79.436 192.124 80.027 192.46 80.5296C192.796 81.0322 193.273 81.424 193.832 81.6553C194.391 81.8866 195.005 81.9472 195.598 81.8292C196.192 81.7113 196.736 81.4202 197.164 80.9927C197.592 80.5653 197.883 80.0207 198.001 79.4278C198.119 78.8349 198.058 78.2203 197.827 77.6618C197.595 77.1033 197.203 76.626 196.701 76.2901C196.198 75.9543 195.607 75.775 195.002 75.775C194.191 75.775 193.413 76.097 192.84 76.6702C192.267 77.2434 191.944 78.0209 191.944 78.8315Z" fill="#45413C"/>
<path d="M216.404 88.612C216.404 89.0956 216.547 89.5684 216.816 89.9705C217.085 90.3726 217.467 90.686 217.914 90.8711C218.361 91.0561 218.852 91.1046 219.327 91.0102C219.801 90.9159 220.237 90.683 220.579 90.341C220.921 89.9991 221.154 89.5634 221.249 89.0891C221.343 88.6147 221.295 88.1231 221.11 87.6763C220.924 87.2295 220.611 86.8476 220.209 86.579C219.806 86.3103 219.334 86.1669 218.85 86.1669C218.201 86.1669 217.579 86.4245 217.12 86.883C216.661 87.3416 216.404 87.9635 216.404 88.612Z" fill="#FFB59E"/>
<path d="M210.289 92.66C208.596 94.1409 206.423 94.9572 204.174 94.9572C201.924 94.9572 199.751 94.1409 198.059 92.66" stroke="#45413C" stroke-width="2" stroke-linecap="round" stroke-linejoin="round"/>
<path d="M226.218 80.6656C226.218 79.3811 225.965 78.1093 225.473 76.9227C224.982 75.736 224.261 74.6578 223.352 73.7496C222.444 72.8414 221.365 72.1209 220.178 71.6294C218.991 71.1379 217.719 70.8849 216.434 70.8849H184.572C183.968 70.8896 183.372 70.7597 182.825 70.5048C182.279 70.2498 181.796 69.8762 181.412 69.411C181.028 68.9459 180.753 68.4011 180.606 67.8162C180.46 67.2312 180.445 66.621 180.565 66.0299C182.046 58.6069 186.239 52.0014 192.327 47.501C198.416 43.0005 205.962 40.9276 213.496 41.6864C221.029 42.4452 228.01 45.9812 233.078 51.6052C238.146 57.2293 240.937 64.5383 240.907 72.1075V107.952C240.902 108.573 240.756 109.185 240.48 109.742C240.205 110.298 239.807 110.785 239.316 111.166C238.825 111.547 238.254 111.812 237.646 111.94C237.038 112.069 236.409 112.058 235.806 111.909C233.129 111.319 230.73 109.846 228.993 107.727C227.256 105.608 226.283 102.966 226.231 100.227L226.218 80.6656Z" fill="#FFC44D" stroke="#45413C" stroke-width="2" stroke-linecap="round" stroke-linejoin="round"/>
<path d="M211.545 51.3234C205.682 51.3424 199.892 52.6205 194.565 55.0712C189.239 57.5219 184.502 61.0879 180.674 65.5279C182.082 59.0105 185.592 53.1359 190.666 48.8075C195.739 44.479 202.094 41.9365 208.754 41.571C215.414 41.2054 222.009 43.0371 227.526 46.7842C233.043 50.5313 237.175 55.9865 239.288 62.3106C231.764 55.2713 221.851 51.3451 211.545 51.3234Z" fill="#FFDB94"/>
<path d="M226.218 80.6656C226.218 79.3811 225.965 78.1093 225.473 76.9227C224.982 75.736 224.261 74.6578 223.352 73.7496C222.444 72.8414 221.365 72.1209 220.178 71.6294C218.991 71.1379 217.719 70.8849 216.434 70.8849H184.572C183.968 70.8896 183.372 70.7597 182.825 70.5048C182.279 70.2498 181.796 69.8762 181.412 69.411C181.028 68.9459 180.753 68.4011 180.606 67.8162C180.46 67.2312 180.445 66.621 180.565 66.0299C182.046 58.6069 186.239 52.0014 192.327 47.501C198.416 43.0005 205.962 40.9276 213.496 41.6864C221.029 42.4452 228.01 45.9812 233.078 51.6052C238.146 57.2293 240.937 64.5383 240.907 72.1075V107.952C240.902 108.573 240.756 109.185 240.48 109.742C240.205 110.298 239.807 110.785 239.316 111.166C238.825 111.547 238.254 111.812 237.646 111.94C237.038 112.069 236.409 112.058 235.806 111.909C233.129 111.319 230.73 109.846 228.993 107.727C227.256 105.608 226.283 102.966 226.231 100.227L226.218 80.6656Z" stroke="#45413C" stroke-width="2" stroke-linejoin="round"/>
<path d="M209.097 70.8846V61.1039" stroke="#45413C" stroke-width="2" stroke-linecap="round" stroke-linejoin="round"/>
<path d="M218.904 71.2224L218.882 61.1039" stroke="#45413C" stroke-width="2" stroke-linecap="round" stroke-linejoin="round"/>
<path d="M199.31 70.8846V61.1039" stroke="#45413C" stroke-width="2" stroke-linecap="round" stroke-linejoin="round"/>
<path d="M189.528 70.8846V61.1039" stroke="#45413C" stroke-width="2" stroke-linecap="round" stroke-linejoin="round"/>
<path d="M200.816 99.0654C200.816 104.699 198.776 111.291 190.614 111.291C183.533 111.291 181.055 106.308 180.527 101.318C180.498 101.033 180.529 100.745 180.618 100.474C180.707 100.202 180.852 99.9516 181.043 99.7393C181.235 99.527 181.469 99.3573 181.731 99.2412C181.992 99.1251 182.275 99.0652 182.561 99.0654H200.816Z" fill="#DAEDF7" stroke="#45413C" stroke-width="2" stroke-linecap="round" stroke-linejoin="round"/>
<path d="M206.938 105.185C206.938 103.564 206.293 102.009 205.147 100.862C204 99.7159 202.444 99.0719 200.823 99.0719" stroke="#45413C" stroke-width="2" stroke-linecap="round" stroke-linejoin="round"/>
<path d="M226.317 144.958C225.647 144.957 224.983 144.824 224.364 144.567C223.745 144.309 223.183 143.933 222.709 143.458C222.236 142.984 221.861 142.421 221.605 141.802C221.349 141.182 221.218 140.518 221.219 139.848V122.851C221.217 119.338 220.261 115.891 218.454 112.877L214.08 105.587C213.451 104.527 212.556 103.65 211.483 103.042C210.411 102.435 209.198 102.117 207.965 102.122C206.702 102.123 205.461 102.459 204.37 103.097C203.278 103.734 202.376 104.649 201.754 105.749C201.132 106.848 200.814 108.093 200.831 109.357C200.848 110.62 201.199 111.856 201.85 112.939L206.211 120.223C206.686 121.014 206.936 121.919 206.935 122.842V139.848C206.941 144.985 208.985 149.91 212.618 153.543C216.252 157.176 221.178 159.22 226.317 159.226C226.668 159.226 226.993 159.14 227.337 159.12V144.752C227.005 144.857 226.663 144.926 226.317 144.958Z" fill="#FFCEBF" stroke="#45413C" stroke-width="2" stroke-linecap="round" stroke-linejoin="round"/>
<path d="M188.572 231.639L193.355 193.41C193.722 190.45 195.16 187.726 197.397 185.751C199.634 183.777 202.517 182.688 205.501 182.69H233.459V190.846C233.459 191.918 233.248 192.978 232.838 193.968C232.428 194.958 231.827 195.857 231.069 196.614C230.311 197.372 229.411 197.973 228.421 198.382C227.43 198.792 226.369 199.003 225.298 199.002H217.39C215.57 199.002 213.802 199.61 212.367 200.73C210.932 201.85 209.913 203.417 209.473 205.183L202.855 231.639H188.572Z" fill="#656769" stroke="#45413C" stroke-width="2" stroke-linecap="round" stroke-linejoin="round"/>
<path d="M31.7491 240.831C31.4427 241.905 30.7312 242.819 29.7644 243.379C28.7976 243.939 27.6511 244.102 26.5663 243.834C25.4816 243.566 24.5433 242.887 23.9492 241.941C23.355 240.995 23.1514 239.855 23.3812 238.762L29.9629 204.658L41.8453 207.599L31.7491 240.831Z" fill="#C0DCEB"/>
<path d="M37.644 221.443L41.8505 207.605L29.9681 204.665L26.7303 221.443H37.644Z" fill="#ADC4D9"/>
<path d="M31.7491 240.831C31.4427 241.905 30.7312 242.819 29.7644 243.379C28.7976 243.939 27.6511 244.102 26.5663 243.834C25.4816 243.566 24.5433 242.887 23.9492 241.941C23.355 240.995 23.1514 239.855 23.3812 238.762L29.9629 204.658L41.8453 207.599L31.7491 240.831Z" stroke="#45413C" stroke-width="2" stroke-linecap="round" stroke-linejoin="round"/>
<path d="M67.9191 240.831C68.2255 241.905 68.937 242.819 69.9038 243.379C70.8706 243.939 72.0171 244.102 73.1019 243.834C74.1866 243.566 75.1249 242.887 75.7191 241.941C76.3132 240.995 76.5168 239.855 76.287 238.762L69.7086 204.658L57.8261 207.599L67.9191 240.831Z" fill="#C0DCEB"/>
<path d="M72.9413 221.443L69.7036 204.665L57.8212 207.605L62.0276 221.443H72.9413Z" fill="#ADC4D9"/>
<path d="M67.9191 240.831C68.2255 241.905 68.937 242.819 69.9038 243.379C70.8706 243.939 72.0171 244.102 73.1019 243.834C74.1866 243.566 75.1249 242.887 75.7191 241.941C76.3132 240.995 76.5168 239.855 76.287 238.762L69.7086 204.658L57.8261 207.599L67.9191 240.831Z" stroke="#45413C" stroke-width="2" stroke-linecap="round" stroke-linejoin="round"/>
<path d="M74.3195 209.205H26.3296C24.4517 209.205 22.6507 208.459 21.3229 207.132C19.995 205.804 19.249 204.004 19.249 202.127V135.692C19.2486 133.828 19.6154 131.983 20.3286 130.262C21.0417 128.54 22.0871 126.976 23.4052 125.658C24.7232 124.341 26.2881 123.295 28.0103 122.583C29.7325 121.87 31.5783 121.503 33.4423 121.503H60.1552C62.0192 121.503 63.8651 121.87 65.5873 122.583C67.3095 123.295 68.8743 124.341 70.1923 125.658C71.5104 126.976 72.5558 128.54 73.269 130.262C73.9821 131.983 74.3489 133.828 74.3485 135.692L74.3195 209.205Z" fill="#FF8A14"/>
<path d="M60.1256 121.51H33.4127C31.5487 121.509 29.7029 121.876 27.9807 122.589C26.2585 123.302 24.6936 124.347 23.3756 125.664C22.0575 126.982 21.0121 128.546 20.299 130.268C19.5858 131.989 19.219 133.835 19.2194 135.698V148.361C19.2194 144.598 20.7148 140.99 23.3765 138.329C26.0383 135.668 29.6484 134.173 33.4127 134.173H60.1256C63.8899 134.173 67.5 135.668 70.1618 138.329C72.8236 140.99 74.3189 144.598 74.3189 148.361V135.692C74.3185 133.829 73.951 131.984 73.2375 130.263C72.524 128.543 71.4784 126.979 70.1605 125.662C68.8425 124.345 67.278 123.301 65.5562 122.588C63.8344 121.876 61.9891 121.509 60.1256 121.51Z" fill="#FFAA54"/>
<path d="M74.3195 209.205H26.3296C24.4517 209.205 22.6507 208.459 21.3229 207.132C19.995 205.804 19.249 204.004 19.249 202.127V135.692C19.2486 133.828 19.6154 131.983 20.3286 130.262C21.0417 128.54 22.0871 126.976 23.4052 125.658C24.7232 124.341 26.2881 123.295 28.0103 122.583C29.7325 121.87 31.5783 121.503 33.4423 121.503H60.1552C62.0192 121.503 63.8651 121.87 65.5873 122.583C67.3095 123.295 68.8743 124.341 70.1923 125.658C71.5104 126.976 72.5558 128.54 73.269 130.262C73.9821 131.983 74.3489 133.828 74.3485 135.692L74.3195 209.205Z" stroke="#45413C" stroke-width="2" stroke-linecap="round" stroke-linejoin="round"/>
<path d="M96.7617 209.204H26.3296C24.4517 209.204 22.6507 208.459 21.3229 207.131C19.995 205.804 19.249 204.003 19.249 202.126V199.021H96.7617V209.204Z" fill="#FF8A14" stroke="#45413C" stroke-width="2" stroke-linecap="round" stroke-linejoin="round"/>
<path d="M125.324 160.256H107.983C107.172 160.254 106.394 159.931 105.821 159.358C105.247 158.784 104.924 158.007 104.922 157.196C104.913 156.854 104.878 156.513 104.819 156.176H90.745C90.6834 156.513 90.6479 156.854 90.6388 157.196C90.6439 161.793 92.473 166.199 95.7246 169.449C98.9763 172.699 103.385 174.527 107.983 174.531H125.324C126.274 174.551 127.219 174.382 128.103 174.032C128.987 173.682 129.792 173.16 130.471 172.495C131.151 171.83 131.69 171.037 132.059 170.161C132.427 169.284 132.617 168.344 132.617 167.393C132.617 166.443 132.427 165.502 132.059 164.626C131.69 163.75 131.151 162.957 130.471 162.292C129.792 161.627 128.987 161.105 128.103 160.755C127.219 160.405 126.274 160.236 125.324 160.256Z" fill="#D18660" stroke="#45413C" stroke-width="2" stroke-linecap="round" stroke-linejoin="round"/>
<path d="M164.093 166.372H109.006L115.121 129.659C115.121 129.123 115.227 128.593 115.432 128.098C115.637 127.604 115.938 127.154 116.317 126.775C116.696 126.397 117.146 126.097 117.641 125.892C118.136 125.687 118.666 125.582 119.202 125.583H170.214C171.296 125.583 172.333 126.012 173.099 126.776C173.864 127.541 174.294 128.578 174.295 129.659L168.18 162.293C168.18 162.829 168.074 163.36 167.869 163.855C167.663 164.351 167.362 164.801 166.983 165.179C166.603 165.558 166.152 165.859 165.656 166.063C165.161 166.268 164.629 166.373 164.093 166.372Z" fill="#C0DCEB"/>
<path d="M171.614 131.699C172.376 131.711 173.125 131.893 173.809 132.23L174.292 129.656C174.291 128.574 173.86 127.538 173.095 126.773C172.33 126.009 171.292 125.579 170.211 125.579H119.205C118.669 125.579 118.139 125.684 117.643 125.889C117.148 126.093 116.698 126.394 116.319 126.772C115.94 127.151 115.64 127.6 115.435 128.095C115.23 128.59 115.124 129.12 115.124 129.656L114.783 131.696L171.614 131.699Z" fill="#DAEDF7"/>
<path d="M164.093 166.372H109.006L115.121 129.659C115.121 129.123 115.227 128.593 115.432 128.098C115.637 127.604 115.938 127.154 116.317 126.775C116.696 126.397 117.146 126.097 117.641 125.892C118.136 125.687 118.666 125.582 119.202 125.583H170.214C171.296 125.583 172.333 126.012 173.099 126.776C173.864 127.541 174.294 128.578 174.295 129.659L168.18 162.293C168.18 162.829 168.074 163.36 167.869 163.855C167.663 164.351 167.362 164.801 166.983 165.179C166.603 165.558 166.152 165.859 165.656 166.063C165.161 166.268 164.629 166.373 164.093 166.372V166.372Z" stroke="#45413C" stroke-width="2" stroke-linecap="round" stroke-linejoin="round"/>
<path d="M115.124 231.639H96.7592L91.8865 205.662C91.536 203.792 90.5425 202.103 89.0779 200.887C87.6133 199.671 85.7698 199.006 83.8662 199.005H66.1648V182.69H96.5854C99.4838 182.688 102.289 183.714 104.5 185.587C106.712 187.46 108.187 190.057 108.661 192.915L115.124 231.639Z" fill="#00B8F0" stroke="#45413C" stroke-width="2" stroke-linecap="round" stroke-linejoin="round"/>
<path d="M27.3882 150.057C27.3882 144.968 28.3909 139.929 30.339 135.227C32.2872 130.525 35.1427 126.253 38.7424 122.655C42.3422 119.056 46.6157 116.202 51.319 114.254C56.0223 112.307 61.0633 111.304 66.1541 111.304C71.2449 111.304 76.2859 112.307 80.9892 114.254C85.6925 116.202 89.966 119.056 93.5658 122.655C97.1655 126.253 100.021 130.525 101.969 135.227C103.917 139.929 104.92 144.968 104.92 150.057V156.17H94.7177V182.684H41.6715L41.6554 156.17H27.3882V150.057Z" fill="#E8F4FA"/>
<path d="M66.1541 111.304C55.8727 111.304 46.0125 115.387 38.7424 122.655C31.4724 129.922 27.3882 139.779 27.3882 150.057V156.17H27.607C28.6154 146.653 33.1113 137.846 40.2284 131.445C47.3456 125.044 56.5805 121.502 66.1541 121.502C75.7277 121.502 84.9627 125.044 92.0798 131.445C99.197 137.846 103.693 146.653 104.701 156.17H104.92V150.057C104.92 139.779 100.836 129.922 93.5658 122.655C86.2958 115.387 76.4355 111.304 66.1541 111.304Z" fill="white"/>
<path d="M27.3882 150.057C27.3882 144.968 28.3909 139.929 30.339 135.227C32.2872 130.525 35.1427 126.253 38.7424 122.655C42.3422 119.056 46.6157 116.202 51.319 114.254C56.0223 112.307 61.0633 111.304 66.1541 111.304C71.2449 111.304 76.2859 112.307 80.9892 114.254C85.6925 116.202 89.966 119.056 93.5658 122.655C97.1655 126.253 100.021 130.525 101.969 135.227C103.917 139.929 104.92 144.968 104.92 150.057V156.17H94.7177V182.684H41.6715L41.6554 156.17H27.3882V150.057Z" stroke="#45413C" stroke-width="2" stroke-linecap="round" stroke-linejoin="round"/>
<path opacity="0.15" d="M21.2714 245.918C21.2714 247.541 26.8602 249.097 36.8083 250.245C46.7564 251.392 60.2488 252.037 74.3176 252.037C88.3863 252.037 101.879 251.392 111.827 250.245C121.775 249.097 127.364 247.541 127.364 245.918C127.364 244.295 121.775 242.738 111.827 241.591C101.879 240.443 88.3863 239.798 74.3176 239.798C60.2488 239.798 46.7564 240.443 36.8083 241.591C26.8602 242.738 21.2714 244.295 21.2714 245.918Z" fill="#45413C"/>
<path d="M41.676 156.176V143.938" stroke="#45413C" stroke-width="2" stroke-linecap="round" stroke-linejoin="round"/>
<path d="M94.7207 156.176V143.938" stroke="#45413C" stroke-width="2" stroke-linecap="round" stroke-linejoin="round"/>
<path d="M125.324 243.878C125.324 240.635 124.035 237.525 121.742 235.233C119.448 232.94 116.338 231.652 113.094 231.652H96.7604V243.878H125.324Z" fill="#947746" stroke="#45413C" stroke-width="2" stroke-linecap="round" stroke-linejoin="round"/>
<path d="M100.843 243.878C100.843 240.635 99.554 237.525 97.2604 235.233C94.9669 232.94 91.8561 231.652 88.6125 231.652H72.279V239.811C72.279 240.893 72.709 241.931 73.4743 242.696C74.2396 243.461 75.2776 243.891 76.36 243.891L100.843 243.878Z" fill="#947746" stroke="#45413C" stroke-width="2" stroke-linecap="round" stroke-linejoin="round"/>
<path d="M164.093 174.531H113.087C112.005 174.531 110.967 174.101 110.201 173.336C109.436 172.571 109.006 171.534 109.006 170.452V166.372H168.174V170.452C168.174 171.534 167.744 172.571 166.978 173.336C166.213 174.101 165.175 174.531 164.093 174.531Z" fill="#C0DCEB" stroke="#45413C" stroke-width="2" stroke-linecap="round" stroke-linejoin="round"/>
<path d="M135.525 148.017C135.525 149.64 136.17 151.197 137.318 152.344C138.466 153.492 140.023 154.136 141.646 154.136C143.27 154.136 144.827 153.492 145.975 152.344C147.123 151.197 147.768 149.64 147.768 148.017C147.768 146.394 147.123 144.838 145.975 143.69C144.827 142.542 143.27 141.898 141.646 141.898C140.023 141.898 138.466 142.542 137.318 143.69C136.17 144.838 135.525 146.394 135.525 148.017Z" fill="#FFE500" stroke="#45413C" stroke-width="2" stroke-linecap="round" stroke-linejoin="round"/>
<path d="M141.649 137.818L145.73 133.739" stroke="#45413C" stroke-width="2" stroke-linecap="round" stroke-linejoin="round"/>
<path d="M90.6411 231.639H72.2961L67.4234 205.662C67.0728 203.792 66.0793 202.103 64.6148 200.887C63.1502 199.671 61.3066 199.006 59.4031 199.005H49.8379C48.7662 199.006 47.7049 198.795 46.7147 198.385C45.7245 197.976 44.8247 197.375 44.0667 196.618C43.3088 195.86 42.7075 194.961 42.2973 193.971C41.8871 192.982 41.676 191.921 41.676 190.849V182.69H72.1287C75.0265 182.689 77.8308 183.715 80.0418 185.588C82.2527 187.461 83.7267 190.057 84.2011 192.915L90.6411 231.639Z" fill="#00B8F0" stroke="#45413C" stroke-width="2" stroke-linecap="round" stroke-linejoin="round"/>
<path d="M204.895 179.631C204.895 180.983 204.357 182.28 203.401 183.237C202.444 184.193 201.146 184.73 199.793 184.73H59.0129C57.66 184.73 56.3625 184.193 55.4059 183.237C54.4492 182.28 53.9117 180.983 53.9117 179.631C53.9117 178.278 54.4492 176.981 55.4059 176.025C56.3625 175.069 57.66 174.531 59.0129 174.531H199.793C201.146 174.531 202.444 175.069 203.401 176.025C204.357 176.981 204.895 178.278 204.895 179.631Z" fill="#B89558" stroke="#45413C" stroke-width="2" stroke-linecap="round" stroke-linejoin="round"/>
<path d="M80.4403 166.372C80.4399 167.444 80.6507 168.505 81.0607 169.495C81.4708 170.485 82.0719 171.385 82.8299 172.142C83.5879 172.9 84.4879 173.501 85.4783 173.911C86.4687 174.321 87.5303 174.532 88.6022 174.531H109.004V166.372H80.4403Z" fill="#C0DCEB" stroke="#45413C" stroke-width="2" stroke-linecap="round" stroke-linejoin="round"/>
<path d="M77.3768 160.256H44.7323C43.921 160.254 43.1435 159.931 42.5699 159.358C41.9963 158.784 41.6732 158.007 41.6715 157.196V156.176H27.3882V157.196C27.3933 161.793 29.2223 166.199 32.474 169.449C35.7256 172.699 40.1342 174.527 44.7323 174.531H77.3768C78.3272 174.551 79.2721 174.382 80.156 174.032C81.0399 173.682 81.8451 173.16 82.5244 172.495C83.2037 171.83 83.7434 171.037 84.1118 170.161C84.4803 169.284 84.6701 168.344 84.6701 167.393C84.6701 166.443 84.4803 165.502 84.1118 164.626C83.7434 163.75 83.2037 162.957 82.5244 162.292C81.8451 161.627 81.0399 161.105 80.156 160.755C79.2721 160.405 78.3272 160.236 77.3768 160.256Z" fill="#D18660" stroke="#45413C" stroke-width="2" stroke-linecap="round" stroke-linejoin="round"/>
<path d="M139.476 1.96301V40.9828" stroke="#45413C" stroke-width="2" stroke-linecap="round" stroke-linejoin="round"/>
<path d="M159.024 69.215C159.372 69.7505 159.569 70.3703 159.594 71.0087C159.619 71.6472 159.47 72.2804 159.164 72.8412C158.858 73.402 158.405 73.8694 157.855 74.1939C157.304 74.5185 156.676 74.688 156.037 74.6845H122.91C122.271 74.688 121.642 74.5185 121.092 74.1939C120.541 73.8694 120.089 73.402 119.783 72.8412C119.477 72.2804 119.328 71.6472 119.353 71.0087C119.377 70.3703 119.574 69.7505 119.923 69.215L131.345 51.4778C131.666 50.9781 132.107 50.567 132.629 50.2825C133.15 49.998 133.735 49.8492 134.329 49.8499H144.65C145.244 49.8492 145.829 49.998 146.35 50.2825C146.872 50.567 147.313 50.9781 147.634 51.4778L159.024 69.215Z" stroke="#45413C" stroke-width="2" stroke-linecap="round" stroke-linejoin="round"/>
<path d="M144.798 49.85H134.154V46.3109C134.137 45.6013 134.262 44.8953 134.521 44.2346C134.781 43.5739 135.17 42.9718 135.666 42.4638C136.162 41.9557 136.754 41.5519 137.409 41.2763C138.063 41.0006 138.766 40.8586 139.476 40.8586C140.186 40.8586 140.889 41.0006 141.543 41.2763C142.198 41.5519 142.79 41.9557 143.286 42.4638C143.782 42.9718 144.171 43.5739 144.431 44.2346C144.69 44.8953 144.815 45.6013 144.798 46.3109V49.85Z" fill="#87898C" stroke="#45413C" stroke-width="2" stroke-linecap="round" stroke-linejoin="round"/>
<path d="M123.282 184.73H135.524V243.877H123.282V184.73Z" fill="#87898C"/>
<path d="M123.282 184.73H135.524V192.889H123.282V184.73Z" fill="#656769"/>
<path d="M123.282 184.73H135.524V243.877H123.282V184.73Z" stroke="#45413C" stroke-width="2" stroke-linecap="round" stroke-linejoin="round"/>
<path d="M79.3286 113.659C78.6324 113.417 78.0291 112.964 77.6027 112.363C77.1763 111.762 76.9482 111.043 76.9502 110.307V97.9907H59.3389V109.071C59.34 109.862 59.0758 110.631 58.5887 111.254C58.1016 111.878 57.4196 112.32 56.6516 112.511C55.7955 112.723 54.949 112.964 54.1187 113.238C54.5562 116.524 56.1288 119.553 58.5645 121.803C61.0001 124.052 64.1456 125.38 67.4569 125.556C70.7682 125.732 74.037 124.746 76.6979 122.768C79.3588 120.79 81.2445 117.945 82.0289 114.724C81.1374 114.328 80.2426 113.978 79.3286 113.659Z" fill="#D18660" stroke="#45413C" stroke-width="2" stroke-linecap="round" stroke-linejoin="round"/>
<path d="M68.197 50.3423C61.6688 50.3423 55.408 52.9347 50.7919 57.5493C46.1758 62.1638 43.5825 68.4225 43.5825 74.9485V78.2301C42.3842 78.4521 41.3075 79.1018 40.5528 80.0584C39.7982 81.0149 39.4171 82.213 39.4805 83.4296C39.5439 84.6462 40.0474 85.7983 40.8974 86.6713C41.7474 87.5443 42.8858 88.0787 44.1006 88.1749C45.3439 94.1359 48.754 99.4244 53.6715 103.018C58.5891 106.611 64.6648 108.254 70.7239 107.629C76.7829 107.004 82.3949 104.155 86.4747 99.6334C90.5545 95.1118 92.8123 89.2386 92.8115 83.1495V74.9485C92.8115 68.4225 90.2182 62.1638 85.6021 57.5493C80.986 52.9347 74.7252 50.3423 68.197 50.3423Z" fill="#D18660" stroke="#45413C" stroke-width="2" stroke-linecap="round" stroke-linejoin="round"/>
<path d="M62.0435 78.0238C62.0435 78.8396 62.3677 79.6219 62.9447 80.1987C63.5217 80.7756 64.3043 81.0996 65.1203 81.0996C65.9364 81.0996 66.719 80.7756 67.296 80.1987C67.873 79.6219 68.1972 78.8396 68.1972 78.0238C68.1972 77.2081 67.873 76.4258 67.296 75.8489C66.719 75.2721 65.9364 74.9481 65.1203 74.9481C64.3043 74.9481 63.5217 75.2721 62.9447 75.8489C62.3677 76.4258 62.0435 77.2081 62.0435 78.0238Z" fill="#45413C"/>
<path d="M78.4548 78.0238C78.4548 78.8396 78.7789 79.6219 79.356 80.1987C79.933 80.7756 80.7156 81.0996 81.5316 81.0996C82.3476 81.0996 83.1302 80.7756 83.7072 80.1987C84.2843 79.6219 84.6084 78.8396 84.6084 78.0238C84.6084 77.2081 84.2843 76.4258 83.7072 75.8489C83.1302 75.2721 82.3476 74.9481 81.5316 74.9481C80.7156 74.9481 79.933 75.2721 79.356 75.8489C78.7789 76.4258 78.4548 77.2081 78.4548 78.0238Z" fill="#45413C"/>
<path d="M53.8428 86.2248C53.8428 87.0406 54.167 87.8229 54.744 88.3997C55.321 88.9765 56.1036 89.3006 56.9196 89.3006C57.7357 89.3006 58.5183 88.9765 59.0953 88.3997C59.6723 87.8229 59.9965 87.0406 59.9965 86.2248C59.9965 85.4091 59.6723 84.6267 59.0953 84.0499C58.5183 83.4731 57.7357 83.149 56.9196 83.149C56.1036 83.149 55.321 83.4731 54.744 84.0499C54.167 84.6267 53.8428 85.4091 53.8428 86.2248Z" fill="#BD704A"/>
<path d="M66.1475 93.5897C67.9697 94.8045 70.1109 95.4528 72.3012 95.4528C74.4914 95.4528 76.6326 94.8045 78.4548 93.5897" stroke="#45413C" stroke-width="2" stroke-linecap="round" stroke-linejoin="round"/>
<path d="M55.8894 46.2399H74.3503C75.438 46.2399 76.4813 45.8082 77.2507 45.0396C78.0202 44.271 78.4529 43.2284 78.4538 42.141H84.6074C87.7588 42.134 90.7927 43.336 93.0837 45.4992C95.3747 47.6624 96.748 50.6219 96.9205 53.7675C97.093 56.9131 96.0516 60.0049 94.0109 62.4056C91.9703 64.8062 89.086 66.3326 85.9527 66.67C85.3718 68.8463 84.1514 70.7984 82.4491 72.2741C80.7468 73.7498 78.641 74.6813 76.4036 74.9482H68.1966C70.2564 74.694 72.1666 73.741 73.6082 72.2484C75.0497 70.7558 75.9354 68.814 76.1172 66.7472H55.8894L43.5821 79.0406H39.4786V62.6322C39.4829 58.2838 41.2136 54.1149 44.2907 51.0413C47.3678 47.9677 51.5395 46.2408 55.8894 46.2399Z" fill="#724F3D"/>
<path d="M72.3011 55.1263C61.235 55.011 50.2224 56.6764 39.6855 60.0585C40.3045 56.2074 42.2754 52.7028 45.245 50.1729C48.2146 47.6429 51.9886 46.2532 55.8903 46.2529H74.3512C75.439 46.2529 76.4822 45.8211 77.2517 45.0525C78.0212 44.2839 78.4539 43.2414 78.4547 42.154H84.6084C87.8691 42.1557 90.9959 43.4509 93.3022 45.7552C95.6085 48.0595 96.9058 51.1846 96.9092 54.4442C96.9083 55.5407 96.7622 56.6323 96.4747 57.6905C88.5352 55.9527 80.4286 55.0928 72.3011 55.1263Z" fill="#A86C4D"/>
<path d="M55.8894 46.2399H74.3503C75.438 46.2399 76.4813 45.8082 77.2507 45.0396C78.0202 44.271 78.4529 43.2284 78.4538 42.141H84.6074C87.7588 42.134 90.7927 43.336 93.0837 45.4992C95.3747 47.6624 96.748 50.6219 96.9205 53.7675C97.093 56.9131 96.0516 60.0049 94.0109 62.4056C91.9703 64.8062 89.086 66.3326 85.9527 66.67C85.3718 68.8463 84.1514 70.7984 82.4491 72.2741C80.7468 73.7498 78.641 74.6813 76.4036 74.9482H68.1966C70.2564 74.694 72.1666 73.741 73.6082 72.2484C75.0497 70.7558 75.9354 68.814 76.1172 66.7472H55.8894L43.5821 79.0406H39.4786V62.6322C39.4829 58.2838 41.2136 54.1149 44.2907 51.0413C47.3678 47.9677 51.5395 46.2408 55.8894 46.2399V46.2399Z" stroke="#45413C" stroke-width="2" stroke-linecap="round" stroke-linejoin="round"/>
</svg>

