<svg width="195" height="196" viewBox="0 0 195 196" fill="none" xmlns="http://www.w3.org/2000/svg">
<path d="M181.711 111.269C181.714 95.5726 177.316 80.1898 169.017 66.8676C160.717 53.5454 148.847 42.8175 134.756 35.9024C120.665 28.9874 104.918 26.1622 89.3018 27.7477C73.6859 29.3333 58.8275 35.266 46.4141 44.8722C31.4745 56.4307 20.8704 72.6906 16.3166 91.0224C11.7628 109.354 13.5255 128.686 21.3197 145.892H174.232C179.169 135.017 181.719 123.212 181.711 111.269Z" fill="#B8ECFF"/>
<path d="M21.3213 145.892C27.9788 160.589 38.7311 173.055 52.2908 181.799C65.8506 190.543 81.6431 195.193 97.7775 195.193C113.912 195.193 129.704 190.543 143.264 181.799C156.824 173.055 167.576 160.589 174.234 145.892H21.3213Z" fill="#DAEDF7"/>
<path d="M15.9395 145.892H179.612" stroke="#45413C" stroke-linecap="round" stroke-linejoin="round"/>
<path d="M6.49707 145.892H11.743" stroke="#45413C" stroke-linecap="round" stroke-linejoin="round"/>
<path d="M183.81 145.892H189.056" stroke="#45413C" stroke-linecap="round" stroke-linejoin="round"/>
<path opacity="0.15" d="M122.555 168.703C157.336 168.703 185.529 166.42 185.529 163.604C185.529 160.788 157.336 158.505 122.555 158.505C87.7747 158.505 59.5811 160.788 59.5811 163.604C59.5811 166.42 87.7747 168.703 122.555 168.703Z" fill="#45413C"/>
<path d="M61.1315 145.961H91.9167C94.587 143.479 96.6166 140.388 97.832 136.951C98.1335 136.099 98.2262 135.187 98.1022 134.291C97.9781 133.396 97.6411 132.544 97.1193 131.806C96.5975 131.068 95.9063 130.466 95.1036 130.05C94.3009 129.634 93.4102 129.418 92.5064 129.418H60.5419C59.6382 129.418 58.7478 129.635 57.9454 130.051C57.1429 130.467 56.4519 131.069 55.9302 131.807C55.4085 132.544 55.0714 133.397 54.9472 134.292C54.823 135.187 54.9152 136.099 55.2162 136.951C56.4314 140.388 58.461 143.48 61.1315 145.961Z" fill="white" stroke="#45413C" stroke-linecap="round" stroke-linejoin="round"/>
<path d="M103.007 77.9062L91.1328 118.573L101.977 121.741L113.852 81.0748L103.007 77.9062Z" fill="white" stroke="#45413C" stroke-linecap="round" stroke-linejoin="round"/>
<path d="M98.9316 92.4437H110.229C112.477 92.4437 114.632 91.551 116.221 89.9619C117.81 88.3729 118.702 86.2177 118.702 83.9705V81.1461C118.702 78.8988 117.81 76.7436 116.221 75.1546C114.632 73.5656 112.477 72.6729 110.229 72.6729H104.58C103.082 72.6729 101.646 73.268 100.586 74.3273C99.5268 75.3867 98.9316 76.8235 98.9316 78.3217V92.4437Z" fill="white" stroke="#45413C" stroke-linecap="round" stroke-linejoin="round"/>
<path d="M127.654 111.451L97.1582 117.885L99.4895 128.939L129.985 122.507L127.654 111.451Z" fill="white" stroke="#45413C" stroke-linecap="round" stroke-linejoin="round"/>
<path d="M135.056 141.405C134.986 141.59 134.877 141.758 134.738 141.899C134.598 142.039 134.431 142.149 134.247 142.221C134.062 142.292 133.865 142.325 133.667 142.315C133.469 142.306 133.276 142.256 133.099 142.167C130.599 140.907 128.508 138.966 127.066 136.567C125.624 134.169 124.89 131.411 124.95 128.613C125.009 125.815 125.859 123.091 127.402 120.756C128.945 118.421 131.117 116.571 133.668 115.418C136.218 114.266 139.043 113.859 141.815 114.245C144.586 114.631 147.193 115.793 149.332 117.598C151.471 119.403 153.055 121.776 153.902 124.444C154.748 127.111 154.823 129.964 154.116 132.672C154.065 132.863 153.975 133.042 153.852 133.196C153.728 133.351 153.573 133.477 153.397 133.568C153.222 133.659 153.029 133.712 152.831 133.724C152.634 133.736 152.436 133.706 152.25 133.637L148.264 132.126C147.949 132.007 147.687 131.78 147.525 131.485C147.363 131.19 147.311 130.846 147.38 130.517C147.671 129.114 147.567 127.659 147.082 126.311C146.597 124.964 145.748 123.777 144.63 122.881C143.512 121.986 142.168 121.418 140.747 121.239C139.326 121.06 137.883 121.278 136.578 121.868C135.273 122.458 134.157 123.398 133.352 124.584C132.548 125.769 132.088 127.153 132.022 128.584C131.956 130.015 132.287 131.436 132.978 132.69C133.67 133.945 134.695 134.983 135.94 135.691C136.234 135.857 136.459 136.122 136.574 136.438C136.689 136.755 136.688 137.103 136.569 137.418L135.056 141.405Z" fill="#87898C"/>
<path d="M135.056 141.405C134.986 141.59 134.877 141.758 134.738 141.899C134.598 142.039 134.431 142.149 134.247 142.221C134.062 142.292 133.865 142.325 133.667 142.315C133.469 142.306 133.276 142.256 133.099 142.167C130.599 140.907 128.508 138.966 127.066 136.567C125.624 134.169 124.89 131.411 124.95 128.613C125.009 125.815 125.859 123.091 127.402 120.756C128.945 118.421 131.117 116.571 133.668 115.418C136.218 114.266 139.043 113.859 141.815 114.245C144.586 114.631 147.193 115.793 149.332 117.598C151.471 119.403 153.055 121.776 153.902 124.444C154.748 127.111 154.823 129.964 154.116 132.672C154.065 132.863 153.975 133.042 153.852 133.196C153.728 133.351 153.573 133.477 153.397 133.568C153.222 133.659 153.029 133.712 152.831 133.724C152.634 133.736 152.436 133.706 152.25 133.637L148.264 132.126C147.949 132.007 147.687 131.78 147.525 131.485C147.363 131.19 147.311 130.846 147.38 130.517C147.671 129.114 147.567 127.659 147.082 126.311C146.597 124.964 145.748 123.777 144.63 122.881C143.512 121.986 142.168 121.418 140.747 121.239C139.326 121.06 137.883 121.278 136.578 121.868C135.273 122.458 134.157 123.398 133.352 124.584C132.548 125.769 132.088 127.153 132.022 128.584C131.956 130.015 132.287 131.436 132.978 132.69C133.67 133.945 134.695 134.983 135.94 135.691C136.234 135.857 136.459 136.122 136.574 136.438C136.689 136.755 136.688 137.103 136.569 137.418L135.056 141.405Z" fill="#ADC4D9" stroke="#45413C" stroke-linecap="round" stroke-linejoin="round"/>
<path d="M132.911 125.479C135.158 125.479 137.313 124.586 138.902 122.997C140.491 121.408 141.384 119.253 141.384 117.006C141.384 114.759 140.491 112.603 138.902 111.014C137.313 109.425 135.158 108.533 132.911 108.533C130.663 108.533 128.508 109.425 126.919 111.014C125.33 112.603 124.438 114.759 124.438 117.006C124.438 119.253 125.33 121.408 126.919 122.997C128.508 124.586 130.663 125.479 132.911 125.479Z" fill="white" stroke="#45413C" stroke-linecap="round" stroke-linejoin="round"/>
<path d="M97.7056 131.356C99.9529 131.356 102.108 130.464 103.697 128.875C105.286 127.286 106.179 125.13 106.179 122.883C106.179 120.636 105.286 118.481 103.697 116.892C102.108 115.303 99.9529 114.41 97.7056 114.41C95.4584 114.41 93.3032 115.303 91.7142 116.892C90.1251 118.481 89.2324 120.636 89.2324 122.883C89.2324 125.13 90.1251 127.286 91.7142 128.875C93.3032 130.464 95.4584 131.356 97.7056 131.356Z" fill="white" stroke="#45413C" stroke-linecap="round" stroke-linejoin="round"/>
<path d="M81.9861 63.3315H70.6885V72.6735H81.9861V63.3315Z" fill="#DAEDF7"/>
<path d="M81.9861 63.3315H70.6885V67.0247H81.9861V63.3315Z" fill="#ADC4D9"/>
<path d="M81.9861 63.3315H70.6885V72.6735H81.9861V63.3315Z" stroke="#45413C" stroke-linecap="round" stroke-linejoin="round"/>
<path d="M90.4574 72.6729H62.2154C59.9682 72.6729 57.813 73.5656 56.2239 75.1546C54.6349 76.7436 53.7422 78.8988 53.7422 81.1461V106.564C53.7422 108.811 54.6349 110.966 56.2239 112.555C57.813 114.144 59.9682 115.037 62.2154 115.037H90.4574C92.7046 115.037 94.8598 114.144 96.4488 112.555C98.0379 110.966 98.9306 108.811 98.9306 106.564V81.1461C98.9306 78.8988 98.0379 76.7436 96.4488 75.1546C94.8598 73.5656 92.7046 72.6729 90.4574 72.6729Z" fill="white" stroke="#45413C" stroke-linecap="round" stroke-linejoin="round"/>
<path d="M84.8117 115.039H67.8652V129.424H84.8117V115.039Z" fill="#DAEDF7"/>
<path d="M84.8117 115.039H67.8652V120.95H84.8117V115.039Z" fill="#ADC4D9"/>
<path d="M84.8117 115.039H67.8652V129.424H84.8117V115.039Z" stroke="#45413C" stroke-linecap="round" stroke-linejoin="round"/>
<path d="M87.633 92.4437C87.633 93.9415 87.0382 95.378 85.9793 96.4373C84.9204 97.4966 83.4841 98.0919 81.9863 98.0925H70.6887C69.1909 98.0919 67.7547 97.4966 66.6958 96.4373C65.6368 95.378 65.042 93.9415 65.042 92.4437V72.6729H87.633V92.4437Z" fill="#DAEDF7"/>
<path d="M87.633 92.4437C87.633 93.9415 87.0382 95.378 85.9793 96.4373C84.9204 97.4966 83.4841 98.0919 81.9863 98.0925H70.6887C69.1909 98.0919 67.7547 97.4966 66.6958 96.4373C65.6368 95.378 65.042 93.9415 65.042 92.4437V72.6729H87.633V92.4437Z" stroke="#45413C" stroke-linecap="round" stroke-linejoin="round"/>
<path d="M39.6611 75.707L32.1553 117.402L43.2745 119.403L50.7804 77.7089L39.6611 75.707Z" fill="white" stroke="#45413C" stroke-linecap="round" stroke-linejoin="round"/>
<path d="M53.7435 92.4437H42.4459C40.1986 92.4437 38.0434 91.551 36.4544 89.9619C34.8654 88.3729 33.9727 86.2177 33.9727 83.9705V81.1461C33.9727 78.8988 34.8654 76.7436 36.4544 75.1546C38.0434 73.5656 40.1986 72.6729 42.4459 72.6729H48.0947C49.5928 72.6729 51.0296 73.268 52.089 74.3273C53.1484 75.3867 53.7435 76.8235 53.7435 78.3217V92.4437Z" fill="white" stroke="#45413C" stroke-linecap="round" stroke-linejoin="round"/>
<path d="M70.4841 114.255L39.3652 115.969L39.9864 127.25L71.1052 125.534L70.4841 114.255Z" fill="white" stroke="#45413C" stroke-linecap="round" stroke-linejoin="round"/>
<path d="M80.199 140.637C80.161 140.832 80.0823 141.016 79.9681 141.178C79.8539 141.339 79.7068 141.475 79.5364 141.576C79.366 141.677 79.1762 141.741 78.9794 141.764C78.7826 141.786 78.5832 141.767 78.3944 141.707C75.722 140.874 73.3403 139.3 71.5247 137.169C69.709 135.039 68.5338 132.437 68.1348 129.666C67.7358 126.896 68.1294 124.068 69.27 121.512C70.4106 118.955 72.2517 116.774 74.5803 115.22C76.9089 113.666 79.6298 112.803 82.4283 112.731C85.2268 112.659 87.9886 113.38 90.3941 114.812C92.7997 116.244 94.7507 118.328 96.0216 120.822C97.2925 123.316 97.8313 126.12 97.5756 128.907C97.5569 129.104 97.4974 129.295 97.4007 129.467C97.3041 129.639 97.1726 129.789 97.0146 129.908C96.8565 130.026 96.6755 130.111 96.483 130.155C96.2906 130.2 96.0909 130.203 95.8969 130.166L91.7002 129.327C91.3703 129.261 91.0746 129.08 90.8665 128.816C90.6584 128.551 90.5515 128.221 90.5649 127.885C90.6246 126.453 90.2867 125.033 89.5886 123.781C88.8905 122.529 87.8595 121.495 86.6098 120.793C85.3601 120.091 83.9405 119.749 82.5082 119.804C81.0759 119.859 79.6869 120.31 78.495 121.106C77.3032 121.902 76.355 123.013 75.7555 124.315C75.156 125.617 74.9286 127.059 75.0985 128.482C75.2684 129.906 75.829 131.254 76.7181 132.378C77.6073 133.503 78.7903 134.359 80.1361 134.852C80.4529 134.967 80.7179 135.193 80.8827 135.487C81.0475 135.781 81.1012 136.125 81.0342 136.455L80.199 140.637Z" fill="#ADC4D9" stroke="#45413C" stroke-linecap="round" stroke-linejoin="round"/>
<path d="M76.3379 131.389C78.8973 131.389 81.352 130.372 83.1618 128.563C84.9716 126.753 85.9883 124.298 85.9883 121.739C85.9883 119.179 84.9716 116.725 83.1618 114.915C81.352 113.105 78.8973 112.088 76.3379 112.088C73.7785 112.088 71.3238 113.105 69.514 114.915C67.7042 116.725 66.6875 119.179 66.6875 121.739C66.6875 124.298 67.7042 126.753 69.514 128.563C71.3238 130.372 73.7785 131.389 76.3379 131.389Z" fill="white" stroke="#45413C" stroke-linecap="round" stroke-linejoin="round"/>
<path d="M39.147 129.465C41.3943 129.465 43.5495 128.573 45.1385 126.984C46.7275 125.395 47.6203 123.239 47.6203 120.992C47.6203 118.745 46.7275 116.59 45.1385 115.001C43.5495 113.412 41.3943 112.519 39.147 112.519C36.8998 112.519 34.7446 113.412 33.1556 115.001C31.5665 116.59 30.6738 118.745 30.6738 120.992C30.6738 123.239 31.5665 125.395 33.1556 126.984C34.7446 128.573 36.8998 129.465 39.147 129.465Z" fill="white" stroke="#45413C" stroke-linecap="round" stroke-linejoin="round"/>
<path d="M61.2374 63.3315H46.5761C44.35 63.3315 42.2151 62.4472 40.641 60.8731C39.0669 59.299 38.1826 57.1641 38.1826 54.938V9.87346C38.1826 7.64737 39.0669 5.51246 40.641 3.93837C42.2151 2.36429 44.35 1.47998 46.5761 1.47998H61.2374V63.3315Z" fill="#DAEDF7" stroke="#45413C" stroke-linecap="round" stroke-linejoin="round"/>
<path d="M108.457 1.47998H58.6945C56.1345 1.47998 53.6793 2.49694 51.8691 4.30713C50.0589 6.11733 49.042 8.57248 49.042 11.1325V53.679C49.042 56.239 50.0589 58.6942 51.8691 60.5044C53.6793 62.3146 56.1345 63.3315 58.6945 63.3315H108.457C111.017 63.3315 113.472 62.3146 115.283 60.5044C117.093 58.6942 118.11 56.239 118.11 53.679V11.1325C118.11 8.57248 117.093 6.11733 115.283 4.30713C113.472 2.49694 111.017 1.47998 108.457 1.47998Z" fill="#00C798"/>
<path d="M108.457 1.47998H58.6945C56.1345 1.47998 53.6793 2.49694 51.8691 4.30713C50.0589 6.11733 49.042 8.57248 49.042 11.1325V53.679C49.042 56.239 50.0589 58.6942 51.8691 60.5044C53.6793 62.3146 56.1345 63.3315 58.6945 63.3315H108.457C111.017 63.3315 113.472 62.3146 115.283 60.5044C117.093 58.6942 118.11 56.239 118.11 53.679V11.1325C118.11 8.57248 117.093 6.11733 115.283 4.30713C113.472 2.49694 111.017 1.47998 108.457 1.47998Z" fill="#009FD9"/>
<path d="M115.741 4.79751C114.835 3.75494 113.716 2.91916 112.46 2.34678C111.203 1.7744 109.838 1.47879 108.457 1.47998H58.6964C56.1364 1.47998 53.6813 2.49694 51.8711 4.30714C50.0609 6.11733 49.0439 8.57248 49.0439 11.1325V53.6769C49.0436 55.9969 49.8788 58.2394 51.3967 59.9938C52.9145 61.7483 55.0135 62.8974 57.3094 63.2308L115.741 4.79751Z" fill="#00B8F0"/>
<path d="M108.457 1.47998H58.6945C56.1345 1.47998 53.6793 2.49694 51.8691 4.30713C50.0589 6.11733 49.042 8.57248 49.042 11.1325V53.679C49.042 56.239 50.0589 58.6942 51.8691 60.5044C53.6793 62.3146 56.1345 63.3315 58.6945 63.3315H108.457C111.017 63.3315 113.472 62.3146 115.283 60.5044C117.093 58.6942 118.11 56.239 118.11 53.679V11.1325C118.11 8.57248 117.093 6.11733 115.283 4.30713C113.472 2.49694 111.017 1.47998 108.457 1.47998Z" stroke="#45413C" stroke-linecap="round" stroke-linejoin="round"/>
<path d="M58.6949 57.2967C57.7352 57.2955 56.8152 56.9138 56.1366 56.2352C55.458 55.5567 55.0763 54.6366 55.0752 53.677V11.1304C55.0763 10.1708 55.458 9.25073 56.1366 8.57215C56.8152 7.89357 57.7352 7.51185 58.6949 7.51074H108.458C109.418 7.51185 110.338 7.89386 111.017 8.57289C111.695 9.25193 112.077 10.1725 112.077 11.1325V53.6791C112.076 54.6387 111.695 55.5588 111.016 56.2373C110.337 56.9159 109.417 57.2976 108.458 57.2988L58.6949 57.2967Z" stroke="#4ACFFF" stroke-linecap="round" stroke-linejoin="round"/>
<path d="M180.046 158.121C180.125 158.474 180.123 158.84 180.042 159.192C179.96 159.544 179.8 159.874 179.574 160.156C179.347 160.438 179.061 160.666 178.734 160.822C178.408 160.978 178.051 161.059 177.689 161.058H93.4566L92.25 150.052H176.334C176.883 150.052 177.416 150.239 177.844 150.583C178.272 150.926 178.571 151.405 178.69 151.941L180.046 158.121Z" fill="#F8F8F8" stroke="#45413C" stroke-linecap="round" stroke-linejoin="round"/>
<path d="M93.4565 161.05H69.193C68.8314 161.051 68.4742 160.97 68.148 160.814C67.8218 160.657 67.5349 160.43 67.3086 160.148C67.0823 159.866 66.9224 159.536 66.8407 159.184C66.759 158.832 66.7575 158.465 66.8366 158.112L68.1921 151.933C68.3114 151.397 68.61 150.918 69.0384 150.574C69.4668 150.231 69.9995 150.044 70.5486 150.044H92.2499L93.4565 161.05Z" fill="#BDBEC0" stroke="#45413C" stroke-linecap="round" stroke-linejoin="round"/>
<path d="M172.708 145.764C172.612 145.203 172.32 144.694 171.885 144.326C171.449 143.959 170.898 143.758 170.329 143.758H165.49C164.92 143.758 164.369 143.959 163.934 144.326C163.498 144.694 163.207 145.203 163.11 145.764L162.378 150.045H173.441L172.708 145.764Z" fill="white" stroke="#45413C" stroke-linecap="round" stroke-linejoin="round"/>
<path d="M156.321 145.764C156.225 145.203 155.933 144.694 155.498 144.326C155.063 143.959 154.511 143.758 153.942 143.758H149.103C148.534 143.758 147.982 143.959 147.547 144.326C147.111 144.693 146.82 145.202 146.724 145.764L145.991 150.045H157.054L156.321 145.764Z" fill="white" stroke="#45413C" stroke-linecap="round" stroke-linejoin="round"/>
<path d="M139.936 145.764C139.839 145.203 139.548 144.694 139.112 144.326C138.677 143.959 138.126 143.758 137.556 143.758H132.715C132.146 143.758 131.595 143.959 131.16 144.326C130.725 144.693 130.433 145.203 130.338 145.764L129.605 150.045H140.668L139.936 145.764Z" fill="white" stroke="#45413C" stroke-linecap="round" stroke-linejoin="round"/>
<path d="M123.549 145.764C123.453 145.203 123.161 144.694 122.725 144.326C122.29 143.959 121.739 143.758 121.169 143.758H116.329C115.759 143.758 115.208 143.959 114.773 144.326C114.338 144.693 114.047 145.203 113.951 145.764L113.219 150.045H124.281L123.549 145.764Z" fill="white" stroke="#45413C" stroke-linecap="round" stroke-linejoin="round"/>
<path d="M107.161 145.764C107.066 145.203 106.774 144.693 106.339 144.326C105.904 143.959 105.353 143.758 104.784 143.758H99.9428C99.3739 143.759 98.8236 143.96 98.389 144.327C97.9544 144.694 97.6634 145.203 97.5674 145.764L96.833 150.045H107.896L107.161 145.764Z" fill="white" stroke="#45413C" stroke-linecap="round" stroke-linejoin="round"/>
<path d="M87.6076 145.764C87.512 145.203 87.2208 144.693 86.7857 144.326C86.3505 143.959 85.7995 143.758 85.2302 143.758H80.3892C79.8199 143.758 79.2688 143.959 78.8337 144.326C78.3986 144.693 78.1074 145.203 78.0118 145.764L77.2773 150.045H88.3357L87.6076 145.764Z" fill="white" stroke="#45413C" stroke-linecap="round" stroke-linejoin="round"/>
<path d="M43.85 46.1182C51.4251 125.479 -0.599787 161.05 87.6262 155.548" stroke="#45413C" stroke-linecap="round" stroke-linejoin="round"/>
<path d="M59.4893 22.6774V22.0668H60.1773V18.7558H59.4893V18.1452H60.8094L60.9599 19.2073C61.1319 18.8318 61.3426 18.5437 61.592 18.343C61.8442 18.1395 62.171 18.0377 62.5724 18.0377C62.7042 18.0377 62.8203 18.0478 62.9207 18.0678C63.0239 18.0879 63.1285 18.1137 63.2346 18.1452L62.9895 18.8676C62.8949 18.839 62.8089 18.8189 62.7315 18.8074C62.6541 18.796 62.5652 18.7902 62.4649 18.7902C62.1237 18.7902 61.8313 18.9135 61.5877 19.16C61.344 19.4066 61.1491 19.7692 61.0029 20.2479V22.0668H61.9231V22.6774H59.4893ZM62.4692 19.7362V18.6956L62.5638 18.1452H63.2346L63.1056 19.7362H62.4692Z" fill="white"/>
<path d="M65.2694 20.6908C65.2866 21.0234 65.354 21.2957 65.4715 21.5078C65.589 21.7171 65.7424 21.8719 65.9316 21.9722C66.1208 22.0697 66.3301 22.1184 66.5594 22.1184C66.7859 22.1184 66.9937 22.084 67.1829 22.0152C67.3721 21.9464 67.5642 21.8461 67.7591 21.7142L68.1332 22.2345C67.9211 22.4037 67.676 22.5384 67.3979 22.6387C67.1198 22.7362 66.8317 22.7849 66.5336 22.7849C66.0807 22.7849 65.6951 22.686 65.3769 22.4882C65.0616 22.2876 64.8208 22.0095 64.6545 21.654C64.4911 21.2986 64.4094 20.8858 64.4094 20.4156C64.4094 19.9598 64.4911 19.5528 64.6545 19.1944C64.8208 18.8361 65.0544 18.5537 65.3554 18.3473C65.6564 18.1409 66.0147 18.0377 66.4304 18.0377C66.8203 18.0377 67.1557 18.128 67.4366 18.3086C67.7204 18.4892 67.9383 18.7472 68.0902 19.0826C68.2421 19.4152 68.3181 19.8136 68.3181 20.278C68.3181 20.3554 68.3167 20.43 68.3138 20.5016C68.3109 20.5733 68.3066 20.6364 68.3009 20.6908H65.2694ZM66.439 18.6827C66.1179 18.6827 65.8499 18.7974 65.6349 19.0267C65.4228 19.2561 65.3009 19.6101 65.2694 20.0888H67.5226C67.514 19.6302 67.4137 19.2819 67.2216 19.0439C67.0324 18.8031 66.7715 18.6827 66.439 18.6827Z" fill="white"/>
<path d="M73.4403 22.4452C73.2798 22.5484 73.0863 22.6301 72.8598 22.6903C72.6334 22.7534 72.4069 22.7849 72.1804 22.7849C71.6759 22.7849 71.2889 22.6531 71.0194 22.3893C70.7528 22.1256 70.6195 21.783 70.6195 21.3616V18.7644H69.5918V18.1452H70.6195V17.1218L71.4451 17.0229V18.1452H72.9931L72.8985 18.7644H71.4451V21.353C71.4451 21.6024 71.5082 21.7902 71.6343 21.9163C71.7633 22.0425 71.9769 22.1055 72.275 22.1055C72.4442 22.1055 72.599 22.0855 72.7394 22.0453C72.8799 22.0052 73.0103 21.9536 73.1307 21.8905L73.4403 22.4452Z" fill="white"/>
<path d="M75.7418 18.1452V21.3358C75.7418 21.6225 75.8005 21.8289 75.9181 21.955C76.0356 22.0783 76.2148 22.1399 76.4556 22.1399C76.6878 22.1399 76.9085 22.0726 77.1178 21.9378C77.327 21.8031 77.4904 21.6426 77.608 21.4562V18.1452H78.4336V22.6774H77.7241L77.6639 22.0797C77.4919 22.3062 77.2754 22.4811 77.0146 22.6043C76.7537 22.7247 76.49 22.7849 76.2234 22.7849C75.7848 22.7849 75.4565 22.666 75.2387 22.428C75.0237 22.1901 74.9162 21.8604 74.9162 21.439V18.1452H75.7418Z" fill="white"/>
<path d="M80.1158 22.6774V22.0668H80.8038V18.7558H80.1158V18.1452H81.4359L81.5864 19.2073C81.7584 18.8318 81.9691 18.5437 82.2185 18.343C82.4708 18.1395 82.7976 18.0377 83.1989 18.0377C83.3308 18.0377 83.4469 18.0478 83.5472 18.0678C83.6504 18.0879 83.7551 18.1137 83.8611 18.1452L83.616 18.8676C83.5214 18.839 83.4354 18.8189 83.358 18.8074C83.2806 18.796 83.1918 18.7902 83.0914 18.7902C82.7503 18.7902 82.4579 18.9135 82.2142 19.16C81.9706 19.4066 81.7756 19.7692 81.6294 20.2479V22.0668H82.5496V22.6774H80.1158ZM83.0957 19.7362V18.6956L83.1903 18.1452H83.8611L83.7321 19.7362H83.0957Z" fill="white"/>
<path d="M85.2295 22.6774V18.1452H85.939L85.9992 18.7558C86.1855 18.5236 86.412 18.3459 86.6786 18.2226C86.948 18.0994 87.2161 18.0377 87.4827 18.0377C87.9184 18.0377 88.2395 18.1567 88.4459 18.3946C88.6523 18.6297 88.7555 18.9579 88.7555 19.3793V22.6774H87.9299V19.8867C87.9299 19.6001 87.9127 19.3679 87.8783 19.1901C87.8467 19.0095 87.7794 18.8791 87.6762 18.7988C87.573 18.7186 87.4167 18.6784 87.2075 18.6784C87.0441 18.6784 86.8893 18.7143 86.7431 18.7859C86.5969 18.8576 86.465 18.9479 86.3475 19.0568C86.2328 19.1658 86.1353 19.279 86.0551 19.3965V22.6774H85.2295Z" fill="white"/>
<path d="M60.1257 29.5838L59.9838 27.322H60.9513L60.8137 29.5838H60.1257ZM61.5963 29.5838L61.4587 27.322H62.4262L62.2843 29.5838H61.5963Z" fill="white"/>
<path d="M67.4151 33.6775V30.9168H65.3081V33.6775H64.4567V27.752H65.3081V30.2159H67.4151V27.752H68.2665V33.6775H67.4151Z" fill="white"/>
<path d="M70.426 31.6908C70.4432 32.0234 70.5106 32.2957 70.6281 32.5078C70.7457 32.7171 70.899 32.8719 71.0882 32.9722C71.2774 33.0697 71.4867 33.1185 71.716 33.1185C71.9425 33.1185 72.1503 33.084 72.3395 33.0152C72.5287 32.9464 72.7208 32.8461 72.9157 32.7142L73.2898 33.2346C73.0777 33.4037 72.8326 33.5384 72.5545 33.6388C72.2765 33.7362 71.9884 33.785 71.6902 33.785C71.2373 33.785 70.8517 33.686 70.5335 33.4882C70.2182 33.2876 69.9774 33.0095 69.8111 32.654C69.6477 32.2986 69.566 31.8858 69.566 31.4156C69.566 30.9598 69.6477 30.5528 69.8111 30.1944C69.9774 29.8361 70.211 29.5537 70.512 29.3473C70.813 29.1409 71.1714 29.0377 71.587 29.0377C71.9769 29.0377 72.3123 29.128 72.5932 29.3086C72.877 29.4892 73.0949 29.7472 73.2468 30.0826C73.3988 30.4152 73.4747 30.8136 73.4747 31.278C73.4747 31.3554 73.4733 31.43 73.4704 31.5016C73.4676 31.5733 73.4633 31.6364 73.4575 31.6908H70.426ZM71.5956 29.6827C71.2746 29.6827 71.0065 29.7974 70.7915 30.0267C70.5794 30.2561 70.4576 30.6101 70.426 31.0888H72.6792C72.6706 30.6302 72.5703 30.2819 72.3782 30.0439C72.189 29.8031 71.9282 29.6827 71.5956 29.6827Z" fill="white"/>
<path d="M76.7781 27.322V32.5078C76.7781 32.7257 76.8454 32.8805 76.9802 32.9722C77.1149 33.0611 77.2883 33.1055 77.5005 33.1055C77.6352 33.1055 77.7628 33.0912 77.8832 33.0625C78.0036 33.0339 78.124 32.9966 78.2444 32.9507L78.4594 33.5399C78.3332 33.6029 78.1756 33.6588 77.9864 33.7076C77.7972 33.7592 77.5836 33.785 77.3457 33.785C76.9214 33.785 76.5831 33.666 76.3309 33.428C76.0786 33.1901 75.9525 32.8633 75.9525 32.4476V27.9498H74.5722V27.322H76.7781Z" fill="white"/>
<path d="M81.9347 27.322V32.5078C81.9347 32.7257 82.0021 32.8805 82.1368 32.9722C82.2716 33.0611 82.445 33.1055 82.6571 33.1055C82.7919 33.1055 82.9194 33.0912 83.0398 33.0625C83.1602 33.0339 83.2806 32.9966 83.401 32.9507L83.616 33.5399C83.4899 33.6029 83.3322 33.6588 83.143 33.7076C82.9538 33.7592 82.7403 33.785 82.5023 33.785C82.0781 33.785 81.7398 33.666 81.4875 33.428C81.2353 33.1901 81.1091 32.8633 81.1091 32.4476V27.9498H79.7288V27.322H81.9347Z" fill="white"/>
<path d="M86.9968 29.0377C87.4296 29.0377 87.7923 29.1352 88.0847 29.3301C88.3799 29.5251 88.6021 29.8003 88.7512 30.1557C88.9031 30.5083 88.9791 30.9254 88.9791 31.407C88.9791 31.8743 88.9017 32.2871 88.7469 32.6454C88.5949 33.0009 88.3713 33.2804 88.0761 33.4839C87.7808 33.6846 87.4182 33.785 86.9882 33.785C86.5582 33.785 86.1941 33.6875 85.896 33.4925C85.6007 33.2976 85.3771 33.0224 85.2252 32.6669C85.0732 32.3115 84.9973 31.8944 84.9973 31.4156C84.9973 30.9455 85.0732 30.5327 85.2252 30.1772C85.38 29.8189 85.6064 29.5394 85.9046 29.3387C86.2027 29.1381 86.5668 29.0377 86.9968 29.0377ZM86.9968 29.6956C86.6241 29.6956 86.3432 29.8361 86.154 30.117C85.9648 30.3951 85.8702 30.828 85.8702 31.4156C85.8702 31.9976 85.9633 32.429 86.1497 32.7099C86.336 32.988 86.6155 33.1271 86.9882 33.1271C87.3608 33.1271 87.6403 32.988 87.8267 32.7099C88.013 32.429 88.1062 31.9947 88.1062 31.407C88.1062 30.8222 88.013 30.3908 87.8267 30.1127C87.6432 29.8347 87.3666 29.6956 86.9968 29.6956Z" fill="white"/>
<path d="M92.1448 32.2069C92.3541 32.2069 92.5289 32.2771 92.6694 32.4175C92.8099 32.558 92.8801 32.73 92.8801 32.9335C92.8801 33.0482 92.8643 33.1643 92.8328 33.2818C92.8041 33.3965 92.7525 33.5327 92.678 33.6903L91.9943 35.2556H91.302L91.7191 33.5355C91.6274 33.4696 91.5543 33.3836 91.4998 33.2775C91.4453 33.1686 91.4181 33.0525 91.4181 32.9292C91.4181 32.7286 91.4869 32.558 91.6245 32.4175C91.765 32.2771 91.9384 32.2069 92.1448 32.2069Z" fill="white"/>
<path d="M60.5127 39.4228V41.3277H62.6885V42.0028H60.5127V44.011H63.1744V44.6775H59.657V38.752H63.1099L63.011 39.4228H60.5127Z" fill="white"/>
<path d="M65.1404 44.6775H64.2116L65.8671 42.2866L64.4094 40.1453H65.3726L66.3702 41.7922L67.3764 40.1453H68.3009L66.8561 42.2522L68.5116 44.6775H67.5183L66.3358 42.7725L65.1404 44.6775Z" fill="white"/>
<path d="M70.426 42.6908C70.4432 43.0234 70.5106 43.2957 70.6281 43.5078C70.7457 43.7171 70.899 43.8719 71.0882 43.9722C71.2774 44.0697 71.4867 44.1185 71.716 44.1185C71.9425 44.1185 72.1503 44.084 72.3395 44.0152C72.5287 43.9464 72.7208 43.8461 72.9157 43.7143L73.2898 44.2346C73.0777 44.4037 72.8326 44.5384 72.5545 44.6388C72.2765 44.7362 71.9884 44.785 71.6902 44.785C71.2373 44.785 70.8517 44.686 70.5335 44.4882C70.2182 44.2876 69.9774 44.0095 69.8111 43.654C69.6477 43.2986 69.566 42.8858 69.566 42.4156C69.566 41.9598 69.6477 41.5528 69.8111 41.1944C69.9774 40.8361 70.211 40.5537 70.512 40.3473C70.813 40.1409 71.1714 40.0378 71.587 40.0378C71.9769 40.0378 72.3123 40.128 72.5932 40.3086C72.877 40.4892 73.0949 40.7472 73.2468 41.0826C73.3988 41.4152 73.4747 41.8136 73.4747 42.278C73.4747 42.3554 73.4733 42.43 73.4704 42.5016C73.4676 42.5733 73.4633 42.6364 73.4575 42.6908H70.426ZM71.5956 40.6827C71.2746 40.6827 71.0065 40.7974 70.7915 41.0267C70.5794 41.2561 70.4576 41.6101 70.426 42.0889H72.6792C72.6706 41.6302 72.5703 41.2819 72.3782 41.0439C72.189 40.8031 71.9282 40.6827 71.5956 40.6827Z" fill="white"/>
<path d="M74.9592 44.6775V44.0668H75.6472V40.7558H74.9592V40.1453H76.2793L76.4298 41.2073C76.6018 40.8318 76.8125 40.5437 77.0619 40.3431C77.3141 40.1395 77.6409 40.0378 78.0423 40.0378C78.1741 40.0378 78.2902 40.0478 78.3906 40.0679C78.4938 40.0879 78.5984 40.1137 78.7045 40.1453L78.4594 40.8676C78.3648 40.839 78.2788 40.8189 78.2014 40.8074C78.124 40.796 78.0351 40.7902 77.9348 40.7902C77.5936 40.7902 77.3012 40.9135 77.0576 41.16C76.8139 41.4066 76.619 41.7692 76.4728 42.2479V44.0668H77.393V44.6775H74.9592ZM77.9391 41.7362V40.6957L78.0337 40.1453H78.7045L78.5755 41.7362H77.9391Z" fill="white"/>
<path d="M82.1798 44.0884C82.4006 44.0884 82.6055 44.0511 82.7947 43.9765C82.9868 43.902 83.166 43.8074 83.3322 43.6927L83.7278 44.2302C83.53 44.3994 83.2907 44.5341 83.0097 44.6344C82.7288 44.7348 82.4479 44.785 82.1669 44.785C81.7111 44.785 81.3213 44.6875 80.9973 44.4925C80.6763 44.2976 80.4312 44.0238 80.262 43.6712C80.0929 43.3186 80.0083 42.9058 80.0083 42.4328C80.0083 41.9742 80.0929 41.5642 80.262 41.203C80.434 40.8418 80.682 40.5581 81.0059 40.3517C81.3299 40.1424 81.7212 40.0378 82.1798 40.0378C82.478 40.0378 82.7546 40.0836 83.0097 40.1754C83.2677 40.2642 83.5042 40.3961 83.7192 40.5709L83.3279 41.1084C83.1416 40.9794 82.9538 40.882 82.7646 40.816C82.5754 40.7472 82.3819 40.7128 82.1841 40.7128C81.8057 40.7128 81.4961 40.8533 81.2553 41.1342C81.0145 41.4152 80.8941 41.848 80.8941 42.4328C80.8941 42.8227 80.9486 43.1395 81.0575 43.3832C81.1693 43.6268 81.3227 43.806 81.5176 43.9207C81.7126 44.0325 81.9333 44.0884 82.1798 44.0884Z" fill="white"/>
<path d="M87.6031 40.1453V44.0497H88.863V44.6775H85.3972V44.0497H86.7775V40.773H85.4402V40.1453H87.6031ZM86.9882 37.978C87.1602 37.978 87.2978 38.0311 87.401 38.1371C87.507 38.2432 87.5601 38.3722 87.5601 38.5241C87.5601 38.6818 87.507 38.8151 87.401 38.924C87.2978 39.0301 87.1602 39.0831 86.9882 39.0831C86.819 39.0831 86.6814 39.0301 86.5754 38.924C86.4722 38.8151 86.4206 38.6818 86.4206 38.5241C86.4206 38.3722 86.4722 38.2432 86.5754 38.1371C86.6814 38.0311 86.819 37.978 86.9882 37.978Z" fill="white"/>
<path d="M91.9728 44.1271C92.3025 44.1271 92.5619 44.0668 92.7511 43.9464C92.9432 43.826 93.0392 43.6626 93.0392 43.4562C93.0392 43.3244 93.0134 43.2112 92.9618 43.1166C92.9131 43.022 92.8099 42.9359 92.6522 42.8585C92.4974 42.7811 92.2623 42.7023 91.947 42.622C91.6403 42.5446 91.3722 42.4544 91.1429 42.3512C90.9136 42.248 90.7358 42.1132 90.6097 41.9469C90.4864 41.7807 90.4248 41.5657 90.4248 41.3019C90.4248 41.0439 90.4965 40.8203 90.6398 40.6311C90.786 40.4419 90.991 40.2957 91.2547 40.1925C91.5213 40.0893 91.8309 40.0378 92.1835 40.0378C92.5562 40.0378 92.8801 40.0879 93.1553 40.1882C93.4334 40.2857 93.6684 40.4061 93.8605 40.5494L93.5079 41.087C93.333 40.9694 93.141 40.8734 92.9317 40.7988C92.7253 40.7243 92.4816 40.687 92.2007 40.687C91.8653 40.687 91.6259 40.7387 91.4826 40.8419C91.3421 40.9422 91.2719 41.0755 91.2719 41.2417C91.2719 41.365 91.3063 41.4682 91.3751 41.5513C91.4468 41.6316 91.5686 41.7061 91.7406 41.775C91.9126 41.8438 92.1505 41.9197 92.4544 42.0028C92.7497 42.0831 93.0077 42.1777 93.2284 42.2866C93.4491 42.3956 93.6197 42.5389 93.7401 42.7167C93.8634 42.8915 93.925 43.1223 93.925 43.4089C93.925 43.7329 93.8318 43.9966 93.6455 44.2001C93.4592 44.4008 93.2169 44.5484 92.9188 44.643C92.6235 44.7376 92.3082 44.785 91.9728 44.785C91.56 44.785 91.2045 44.7247 90.9064 44.6043C90.6111 44.4839 90.3632 44.3363 90.1625 44.1614L90.6183 43.6369C90.796 43.7831 90.9996 43.902 91.2289 43.9937C91.4582 44.0826 91.7062 44.1271 91.9728 44.1271Z" fill="white"/>
<path d="M98.5914 40.0378C98.7491 40.0378 98.8953 40.0721 99.03 40.1409C99.1648 40.2097 99.2737 40.3359 99.3568 40.5194C99.44 40.7 99.4815 40.9622 99.4815 41.3062V44.6775H98.729V41.4266C98.729 41.1629 98.7118 40.9737 98.6774 40.859C98.6459 40.7415 98.5542 40.6827 98.4022 40.6827C98.2761 40.6827 98.1514 40.7214 98.0281 40.7988C97.9049 40.8762 97.783 41.0053 97.6626 41.1859V44.6775H96.9402V41.4266C96.9402 41.1629 96.923 40.9737 96.8886 40.859C96.8571 40.7415 96.7654 40.6827 96.6134 40.6827C96.4844 40.6827 96.3583 40.7214 96.235 40.7988C96.1146 40.8762 95.9942 41.0053 95.8738 41.1859V44.6775H95.1213V40.1453H95.7577L95.8093 40.6526C95.9355 40.4749 96.0745 40.3287 96.2264 40.214C96.3812 40.0965 96.569 40.0378 96.7897 40.0378C96.9617 40.0378 97.1208 40.0793 97.267 40.1624C97.4161 40.2456 97.525 40.4004 97.5938 40.6269C97.7171 40.452 97.8576 40.3101 98.0152 40.2011C98.1729 40.0922 98.365 40.0378 98.5914 40.0378Z" fill="white"/>
<path d="M102.897 38.752L102.806 42.6866H102.084L101.985 38.752H102.897ZM102.449 43.5681C102.624 43.5681 102.771 43.6268 102.888 43.7444C103.006 43.8619 103.064 44.0038 103.064 44.17C103.064 44.3392 103.006 44.4839 102.888 44.6043C102.771 44.7247 102.624 44.785 102.449 44.785C102.28 44.785 102.137 44.7247 102.019 44.6043C101.905 44.4839 101.847 44.3392 101.847 44.17C101.847 44.0038 101.905 43.8619 102.019 43.7444C102.137 43.6268 102.28 43.5681 102.449 43.5681Z" fill="white"/>
<path d="M106.535 40.5838L106.394 38.3221H107.361L107.223 40.5838H106.535ZM108.006 40.5838L107.868 38.3221H108.836L108.694 40.5838H108.006Z" fill="white"/>
</svg>

