<svg width="26" height="31" viewBox="0 0 26 31" fill="none" xmlns="http://www.w3.org/2000/svg">
<g clip-path="url(#clip0_8901_417365)">
<path d="M7.26597 29.154L7.78897 25.832L6.62397 25.805H1.06097L4.92697 1.29199C4.93897 1.21799 4.97797 1.14899 5.03497 1.09999C5.09197 1.05099 5.16497 1.02399 5.24097 1.02399H14.621C17.735 1.02399 19.884 1.67199 21.006 2.95099C21.532 3.55099 21.867 4.17799 22.029 4.86799C22.199 5.59199 22.202 6.45699 22.036 7.51199L22.024 7.58899V8.26499L22.55 8.56299C22.993 8.79799 23.345 9.06699 23.615 9.37499C24.065 9.88799 24.356 10.54 24.479 11.313C24.606 12.108 24.564 13.054 24.356 14.125C24.116 15.357 23.728 16.43 23.204 17.308C22.722 18.117 22.108 18.788 21.379 19.308C20.683 19.802 19.856 20.177 18.921 20.417C18.015 20.653 16.982 20.772 15.849 20.772H15.119C14.597 20.772 14.09 20.96 13.692 21.297C13.293 21.641 13.029 22.111 12.948 22.625L12.893 22.924L11.969 28.779L11.927 28.994C11.916 29.062 11.897 29.096 11.869 29.119C11.844 29.14 11.808 29.154 11.773 29.154H7.26597Z" fill="#253B80"/>
<path d="M23.048 7.66699C23.02 7.84599 22.988 8.02899 22.952 8.21699C21.715 14.568 17.483 16.762 12.078 16.762H9.32599C8.66499 16.762 8.10799 17.242 8.00499 17.894L6.59599 26.83L6.19699 29.363C6.12999 29.791 6.45999 30.177 6.89199 30.177H11.773C12.351 30.177 12.842 29.757 12.933 29.187L12.981 28.939L13.9 23.107L13.959 22.787C14.049 22.215 14.541 21.795 15.119 21.795H15.849C20.578 21.795 24.28 19.875 25.362 14.319C25.814 11.998 25.58 10.06 24.384 8.69699C24.022 8.28599 23.573 7.94499 23.048 7.66699Z" fill="#179BD7"/>
<path d="M21.754 7.15097C21.565 7.09597 21.37 7.04597 21.17 7.00097C20.969 6.95697 20.763 6.91797 20.551 6.88397C19.809 6.76397 18.996 6.70697 18.125 6.70697H10.773C10.592 6.70697 10.42 6.74797 10.266 6.82197C9.92697 6.98497 9.67497 7.30597 9.61397 7.69897L8.04997 17.605L8.00497 17.894C8.10797 17.242 8.66497 16.762 9.32597 16.762H12.078C17.483 16.762 21.715 14.567 22.952 8.21697C22.989 8.02897 23.02 7.84597 23.048 7.66697C22.735 7.50097 22.396 7.35897 22.031 7.23797C21.941 7.20797 21.848 7.17897 21.754 7.15097Z" fill="#222D65"/>
<path d="M9.61399 7.699C9.67499 7.306 9.92699 6.985 10.266 6.823C10.421 6.749 10.592 6.708 10.773 6.708H18.125C18.996 6.708 19.809 6.765 20.551 6.885C20.763 6.919 20.969 6.958 21.17 7.002C21.37 7.047 21.565 7.097 21.754 7.152C21.848 7.18 21.941 7.209 22.032 7.238C22.397 7.359 22.736 7.502 23.049 7.667C23.417 5.32 23.046 3.722 21.777 2.275C20.378 0.682 17.853 0 14.622 0H5.24199C4.58199 0 4.01899 0.48 3.91699 1.133L0.00998882 25.898C-0.0670112 26.388 0.310989 26.83 0.804989 26.83H6.59599L8.04999 17.605L9.61399 7.699Z" fill="#253B80"/>
</g>
<defs>
<clipPath id="clip0_8901_417365">
<rect width="25.5764" height="30.177" fill="white"/>
</clipPath>
</defs>
</svg>

