<svg width="96" height="98" viewBox="0 0 96 98" fill="none" xmlns="http://www.w3.org/2000/svg">
<path d="M5.42383 52.57C5.42383 64.3536 10.1048 75.6545 18.4371 83.9868C26.7693 92.319 38.0703 97 49.8538 97C61.6374 97 72.9383 92.319 81.2706 83.9868C89.6028 75.6545 94.2838 64.3536 94.2838 52.57C94.2838 40.7864 89.6028 29.4855 81.2706 21.1533C72.9383 12.821 61.6374 8.14001 49.8538 8.14001C38.0703 8.14001 26.7693 12.821 18.4371 21.1533C10.1048 29.4855 5.42383 40.7864 5.42383 52.57Z" fill="#E1EBFF"/>
<path d="M5.42383 52.57C5.42383 64.3536 10.1048 75.6545 18.4371 83.9868C26.7693 92.319 38.0703 97 49.8538 97C61.6374 97 72.9383 92.319 81.2706 83.9868C89.6028 75.6545 94.2838 64.3536 94.2838 52.57C94.2838 40.7864 89.6028 29.4855 81.2706 21.1533C72.9383 12.821 61.6374 8.14001 49.8538 8.14001C38.0703 8.14001 26.7693 12.821 18.4371 21.1533C10.1048 29.4855 5.42383 40.7864 5.42383 52.57V52.57Z" stroke="#DAEDF7" stroke-width="1.6" stroke-linecap="round" stroke-linejoin="round"/>
<path d="M43.2906 96.7038L42.8574 91.9453L48.3334 91.4377L50.5283 91.2378L51.0248 96.7038H43.2906Z" fill="#FFCEBF"/>
<path d="M43.2906 96.7038L42.8574 91.9453L48.3334 91.4377L50.5283 91.2378L50.7771 93.9713" stroke="#45413C" stroke-width="1.6" stroke-linecap="round" stroke-linejoin="round"/>
<path d="M76.834 88.832L77.5416 96.7039H48.8187L48.3344 91.4378L42.8584 91.9454L42.5585 88.6543C42.2955 85.9143 42.5764 83.1495 43.3849 80.5184C44.1933 77.8873 45.5136 75.4418 47.2697 73.3223C49.0259 71.2028 51.1834 69.4511 53.6184 68.1677C56.0534 66.8843 58.7179 66.0945 61.4589 65.8436C64.2 65.5927 66.9636 65.8857 69.5911 66.7058C72.2186 67.5259 74.6582 68.8569 76.77 70.6224C78.8817 72.3879 80.6239 74.5531 81.8966 76.9937C83.1692 79.4343 83.9473 82.1023 84.1861 84.8444L84.4926 88.1367L76.834 88.832Z" fill="#FF6242"/>
<path d="M62.1075 70.5487C67.1363 70.091 72.1607 71.4702 76.2511 74.4311C80.3415 77.3921 83.2211 81.7344 84.3569 86.6546L84.1914 84.8463C83.965 82.0944 83.1957 79.4145 81.9278 76.9615C80.6599 74.5086 78.9187 72.3311 76.8045 70.5549C74.6904 68.7787 72.2453 67.4389 69.6105 66.6129C66.9757 65.7869 64.2033 65.4912 61.4535 65.7426C58.7038 65.9941 56.0311 66.7879 53.5898 68.0781C51.1485 69.3683 48.987 71.1294 47.2301 73.2597C45.4733 75.3899 44.1559 77.8471 43.354 80.4894C42.5521 83.1316 42.2817 85.9066 42.5583 88.654L42.8593 91.9418L43.1414 91.9162C42.9974 86.6118 44.8776 81.4515 48.4001 77.4829C51.9226 73.5144 56.8235 71.0352 62.1075 70.5487Z" fill="#FF866E"/>
<path d="M48.8187 96.7039L48.3344 91.4378L42.8584 91.9454L42.5585 88.6543C42.2955 85.9144 42.5764 83.1495 43.3849 80.5184C44.1933 77.8873 45.5136 75.4418 47.2697 73.3223C49.0259 71.2028 51.1834 69.4511 53.6184 68.1677C56.0534 66.8843 58.7179 66.0945 61.4589 65.8436C64.2 65.5927 66.9636 65.8857 69.5911 66.7058C72.2186 67.5259 74.6582 68.8569 76.77 70.6224C78.8817 72.3879 80.6239 74.5531 81.8966 76.9937C83.1692 79.4343 83.9473 82.1023 84.1861 84.8444L84.4926 88.1367L76.8285 88.8331L77.536 96.705" stroke="#45413C" stroke-width="1.6" stroke-linecap="round" stroke-linejoin="round"/>
<path d="M65.6527 65.9685C65.454 65.9467 65.2687 65.8578 65.1273 65.7164C64.9859 65.575 64.897 65.3897 64.8752 65.191L64.4131 60.6091L54.9373 61.5821L55.4449 66.6083C55.4677 66.8323 55.4182 67.0577 55.3037 67.2515C55.1891 67.4454 55.0156 67.5975 54.8085 67.6857C54.7218 67.7224 54.6352 67.7601 54.5508 67.7968C54.9519 68.7652 55.6077 69.607 56.4486 70.2328C57.2895 70.8586 58.2842 71.2451 59.327 71.3512H59.357C60.1268 71.428 60.9043 71.3481 61.6424 71.1163C62.3805 70.8845 63.0641 70.5057 63.6518 70.0026C64.2396 69.4995 64.7194 68.8826 65.0623 68.1891C65.4053 67.4956 65.6042 66.7399 65.6472 65.9674L65.6527 65.9685Z" fill="#FFCEBF" stroke="#45413C" stroke-width="1.6144" stroke-linecap="round" stroke-linejoin="round"/>
<path d="M77.5409 96.7039L76.8223 88.8321H76.8334L84.4942 88.1356L85.2751 96.7039H77.5409Z" fill="#FFCEBF"/>
<path d="M77.5409 96.7039L76.8223 88.8321H76.8334L84.4942 88.1356L85.2751 96.7039" stroke="#45413C" stroke-width="1.6" stroke-linecap="round" stroke-linejoin="round"/>
<path d="M48.3366 91.4427L47.7656 85.2036" stroke="#45413C" stroke-width="1.6" stroke-linecap="round" stroke-linejoin="round"/>
<path d="M76.8317 88.8352L76.2285 82.2462" stroke="#45413C" stroke-width="1.6" stroke-linecap="round" stroke-linejoin="round"/>
<path d="M57.7441 77.0737C57.7441 77.4525 57.8946 77.8159 58.1625 78.0837C58.4304 78.3516 58.7937 78.5021 59.1726 78.5021C59.5514 78.5021 59.9147 78.3516 60.1826 78.0837C60.4505 77.8159 60.601 77.4525 60.601 77.0737C60.601 76.6948 60.4505 76.3315 60.1826 76.0636C59.9147 75.7958 59.5514 75.6453 59.1726 75.6453C58.7937 75.6453 58.4304 75.7958 58.1625 76.0636C57.8946 76.3315 57.7441 76.6948 57.7441 77.0737Z" fill="white" stroke="#45413C" stroke-width="1.6" stroke-linecap="round" stroke-linejoin="round"/>
<path d="M58.3145 83.2902C58.3145 83.6691 58.4649 84.0324 58.7328 84.3003C59.0007 84.5682 59.364 84.7187 59.7429 84.7187C60.1217 84.7187 60.485 84.5682 60.7529 84.3003C61.0208 84.0324 61.1713 83.6691 61.1713 83.2902C61.1713 82.9114 61.0208 82.5481 60.7529 82.2802C60.485 82.0123 60.1217 81.8618 59.7429 81.8618C59.364 81.8618 59.0007 82.0123 58.7328 82.2802C58.4649 82.5481 58.3145 82.9114 58.3145 83.2902Z" fill="white" stroke="#45413C" stroke-width="1.6" stroke-linecap="round" stroke-linejoin="round"/>
<path d="M65.6546 65.9679C67.8979 66.2132 70.0862 66.8225 72.1336 67.7718C69.6477 71.0629 66.8375 73.7976 63.0376 74.8395C62.8411 74.8934 62.6332 74.8893 62.4389 74.8279C62.2446 74.7664 62.0722 74.6501 61.9424 74.4929L59.3633 71.3595C60.1331 71.4362 60.9105 71.3563 61.6487 71.1246C62.3868 70.8928 63.0703 70.5139 63.6581 70.0109C64.2459 69.5078 64.7257 68.8909 65.0686 68.1974C65.4115 67.5039 65.6105 66.7481 65.6535 65.9757" fill="#BF8DF2"/>
<path d="M65.6546 65.9679C67.8979 66.2132 70.0862 66.8225 72.1336 67.7718C69.6477 71.0629 66.8375 73.7976 63.0376 74.8395C62.8411 74.8934 62.6332 74.8893 62.4389 74.8279C62.2446 74.7664 62.0722 74.6501 61.9424 74.4929L59.3633 71.3595C60.1331 71.4362 60.9105 71.3563 61.6487 71.1246C62.3868 70.8928 63.0703 70.5139 63.6581 70.0109C64.2459 69.5078 64.7257 68.8909 65.0686 68.1974C65.4115 67.5039 65.6105 66.7481 65.6535 65.9757" stroke="#45413C" stroke-width="1.6" stroke-linecap="round" stroke-linejoin="round"/>
<path d="M54.5561 67.7942C54.957 68.7628 55.6128 69.6047 56.4537 70.2305C57.2947 70.8563 58.2894 71.2427 59.3323 71.3486L59.3401 71.3564L56.5421 74.2443C56.3872 74.4044 56.1854 74.5114 55.9659 74.5497C55.7464 74.588 55.5204 74.5557 55.3203 74.4576C53.3429 73.5589 51.7518 71.9831 50.834 70.0146C51.9943 69.1473 53.2417 68.4032 54.5561 67.7942Z" fill="#BF8DF2" stroke="#45413C" stroke-width="1.6" stroke-linecap="round" stroke-linejoin="round"/>
<path d="M78.1873 49.2228C75.2749 34.401 69.0925 31.6163 61.5261 30.3401C59.6728 30.0286 57.7764 30.0853 55.9451 30.5071C54.1138 30.9288 52.3836 31.7073 50.8533 32.7981C49.323 33.8888 48.0227 35.2704 47.0266 36.864C46.0305 38.4575 45.3582 40.2317 45.0481 42.0852C44.6727 45.4974 42.9699 47.4079 39.802 48.7308C38.4171 49.3036 37.2317 50.2719 36.394 51.5146C35.5563 52.7574 35.1034 54.2195 35.092 55.7182C35.0806 57.2169 35.5112 58.6857 36.3299 59.941C37.1486 61.1964 38.3192 62.1826 39.6953 62.7764C41.0714 63.3702 42.592 63.5452 44.067 63.2797C45.542 63.0141 46.906 62.3197 47.9886 61.2832C49.0711 60.2467 49.8242 58.9142 50.1537 57.4521C50.4831 55.99 50.3744 54.4633 49.841 53.0627L53.2754 44.3722C57.5462 45.1675 61.987 45.2141 66.0291 43.3792C67.9295 52.0008 67.4186 53.6103 65.6781 59.9293C65.4686 60.6536 65.3741 61.4062 65.3981 62.1597C65.4768 63.7179 66.1167 65.1949 67.1995 66.318C68.2824 67.4411 69.7352 68.1344 71.2894 68.2698C72.8436 68.4052 74.3944 67.9735 75.6551 67.0546C76.9159 66.1357 77.8015 64.7915 78.1484 63.2705C79.7457 62.9176 81.1751 62.0312 82.2012 60.7573C83.2272 59.4834 83.7888 57.898 83.7933 56.2622C83.7979 54.6265 83.2451 53.038 82.2261 51.7584C81.207 50.4789 79.7826 49.5845 78.1873 49.2228Z" fill="#FFDF3D"/>
<path d="M78.1873 49.2228C75.2749 34.401 69.0925 31.6163 61.5261 30.3401C59.6728 30.0286 57.7764 30.0853 55.9451 30.5071C54.1138 30.9288 52.3836 31.7073 50.8533 32.7981C49.323 33.8888 48.0227 35.2704 47.0266 36.864C46.0305 38.4575 45.3582 40.2317 45.0481 42.0852C44.6727 45.4974 42.9699 47.4079 39.802 48.7308C38.4171 49.3036 37.2317 50.2719 36.394 51.5146C35.5563 52.7574 35.1034 54.2195 35.092 55.7182C35.0806 57.2169 35.5112 58.6857 36.3299 59.941C37.1486 61.1964 38.3192 62.1826 39.6953 62.7764C41.0714 63.3702 42.592 63.5452 44.067 63.2797C45.542 63.0141 46.906 62.3197 47.9886 61.2832C49.0711 60.2467 49.8242 58.9142 50.1537 57.4521C50.4831 55.99 50.3744 54.4633 49.841 53.0627L53.2754 44.3722C57.5463 45.1675 61.987 45.2141 66.0291 43.3792C67.9295 52.0008 67.4186 53.6103 65.6781 59.9294C65.4686 60.6536 65.3741 61.4062 65.3981 62.1597C65.4768 63.7179 66.1167 65.1949 67.1995 66.318C68.2824 67.4411 69.7352 68.1344 71.2894 68.2698C72.8436 68.4052 74.3944 67.9735 75.6551 67.0546C76.9159 66.1357 77.8015 64.7915 78.1484 63.2705C79.7457 62.9176 81.1751 62.0312 82.2012 60.7573C83.2272 59.4834 83.7888 57.898 83.7933 56.2622C83.7979 54.6265 83.2451 53.038 82.2261 51.7584C81.207 50.4789 79.7826 49.5845 78.1873 49.2228V49.2228Z" stroke="#45413C" stroke-width="1.6" stroke-linecap="round" stroke-linejoin="round"/>
<path d="M60.7941 34.688C64.2474 35.268 67.3289 37.196 69.3607 40.0479C71.3925 42.8998 72.2082 46.442 71.6284 49.8953L71.3363 51.6325C71.9543 51.8534 72.4704 52.2923 72.7878 52.8668C73.1051 53.4413 73.2019 54.1118 73.06 54.7526C72.9181 55.3934 72.5472 55.9603 72.0169 56.3471C71.4867 56.7338 70.8335 56.9137 70.18 56.853C68.9953 59.9009 66.7218 62.4007 63.7997 63.8684C60.8776 65.3361 57.5149 65.6673 54.3626 64.7978C51.2103 63.9283 48.4929 61.92 46.7364 59.1618C44.98 56.4036 44.3095 53.0917 44.8549 49.8675L45.5835 45.5278C45.8701 43.8171 46.4909 42.1796 47.4104 40.7089C48.33 39.2382 49.5304 37.9631 50.9429 36.9564C52.3555 35.9498 53.9525 35.2313 55.6429 34.8421C57.3332 34.4529 59.0836 34.4005 60.7941 34.688Z" fill="#FFCEBF" stroke="#45413C" stroke-width="1.6" stroke-linecap="round" stroke-linejoin="round"/>
<path d="M61.9238 54.6787C61.9238 55.1164 62.0977 55.5362 62.4073 55.8458C62.7168 56.1553 63.1366 56.3292 63.5744 56.3292C64.0122 56.3292 64.432 56.1553 64.7415 55.8458C65.0511 55.5362 65.225 55.1164 65.225 54.6787C65.225 54.2409 65.0511 53.8211 64.7415 53.5115C64.432 53.202 64.0122 53.0281 63.5744 53.0281C63.1366 53.0281 62.7168 53.202 62.4073 53.5115C62.0977 53.8211 61.9238 54.2409 61.9238 54.6787Z" fill="#FFB59E"/>
<path d="M83.6743 57.43C83.978 55.6202 83.579 53.7627 82.5589 52.2372C81.5388 50.7117 79.9747 49.6334 78.1861 49.2227C75.2737 34.4008 69.0913 31.6162 61.5248 30.3399C59.6716 30.0286 57.7752 30.0854 55.944 30.5072C54.1128 30.9291 52.3826 31.7076 50.8523 32.7983C49.3221 33.889 48.0217 35.2706 47.0256 36.864C46.0295 38.4575 45.3571 40.2316 45.0469 42.085C51.3781 44.2643 59.2645 46.4491 66.0278 43.3768C67.9283 51.9984 67.4174 53.6079 65.6768 59.927C65.4674 60.6512 65.3729 61.4038 65.3969 62.1573C65.4756 63.7155 66.1154 65.1925 67.1983 66.3156C68.2812 67.4387 69.7339 68.132 71.2882 68.2674C72.8424 68.4028 74.3931 67.9712 75.6539 67.0522C76.9147 66.1333 77.8003 64.7892 78.1472 63.2681C79.5445 62.9547 80.8167 62.2319 81.8012 61.192C82.7857 60.1521 83.4378 58.8423 83.6743 57.43Z" fill="#FFDF3D"/>
<path d="M68.564 41.5718C67.8642 42.3548 66.9982 42.9715 66.0293 43.3767L68.564 41.5718Z" fill="#FFC44D"/>
<path d="M68.564 41.5718C67.8642 42.3548 66.9982 42.9715 66.0293 43.3767" stroke="#45413C" stroke-width="1.6" stroke-linecap="round" stroke-linejoin="round"/>
<path d="M62.9789 48.244C60.6975 47.9619 58.9258 48.405 57.8262 49.809C59.4139 49.942 60.9158 50.5858 62.107 51.644" stroke="#45413C" stroke-width="1.6" stroke-linecap="round" stroke-linejoin="round"/>
<path d="M47.5809 45.6583C49.8291 46.1371 51.3575 47.1345 51.9395 48.8206C50.3947 48.4261 48.7637 48.543 47.291 49.1539" stroke="#45413C" stroke-width="1.6" stroke-linecap="round" stroke-linejoin="round"/>
<path d="M80.4103 62.3295C81.0418 61.3613 81.4295 60.2547 81.5403 59.1041C81.651 57.9535 81.4816 56.7932 81.0464 55.7223C80.6113 54.6515 79.9233 53.7019 79.0413 52.9548C78.1593 52.2076 77.1096 51.6851 75.9818 51.4319C73.0694 36.6101 66.8869 33.8254 59.3205 32.5547C57.3197 32.2174 55.27 32.311 53.3084 32.8294C51.3467 33.3477 49.5183 34.2788 47.9453 35.5604C49.5346 33.5553 51.6327 32.0132 54.0209 31.0949C56.4091 30.1767 58.9999 29.916 61.5231 30.3399C69.0929 31.6117 75.2753 34.3963 78.1844 49.2226C79.5716 49.5397 80.8336 50.2611 81.8108 51.2955C82.788 52.3299 83.4365 53.6308 83.6743 55.0338C83.9121 56.4368 83.7285 57.8788 83.1467 59.1774C82.5649 60.476 81.6111 61.573 80.4059 62.3295H80.4103Z" fill="#FFEF9E"/>
<path d="M83.6743 57.43C83.978 55.6202 83.579 53.7627 82.5589 52.2372C81.5388 50.7117 79.9747 49.6334 78.1861 49.2227C75.2737 34.4008 69.0913 31.6162 61.5248 30.3399C59.6716 30.0286 57.7752 30.0854 55.944 30.5072C54.1128 30.9291 52.3826 31.7076 50.8523 32.7983C49.3221 33.889 48.0217 35.2706 47.0256 36.864C46.0295 38.4575 45.3571 40.2316 45.0469 42.085C51.3781 44.2643 59.2645 46.4491 66.0278 43.3768C67.9283 51.9984 67.4174 53.6079 65.6768 59.927C65.4674 60.6512 65.3729 61.4038 65.3969 62.1573C65.4756 63.7155 66.1154 65.1925 67.1983 66.3156C68.2812 67.4387 69.7339 68.132 71.2882 68.2674C72.8424 68.4028 74.3931 67.9712 75.6539 67.0522C76.9147 66.1333 77.8003 64.7892 78.1472 63.2681C79.5445 62.9547 80.8167 62.2319 81.8012 61.192C82.7857 60.1521 83.4378 58.8423 83.6743 57.43V57.43Z" stroke="#45413C" stroke-width="1.6" stroke-linecap="round" stroke-linejoin="round"/>
<path d="M74.1999 36.3755C74.4194 36.3112 74.6056 36.1646 74.7198 35.9664C74.834 35.7682 74.8674 35.5336 74.813 35.3114L67.3876 4.60474L50.3698 31.2283C50.2463 31.4203 50.2014 31.6524 50.2444 31.8766C50.2875 32.1007 50.4151 32.2997 50.6009 32.4324C53.9428 34.9081 57.824 36.5562 61.9262 37.2417C66.0284 37.9271 70.2346 37.6303 74.1999 36.3755Z" fill="#4AEFF7"/>
<path d="M74.1999 36.3755C74.4194 36.3112 74.6056 36.1646 74.7198 35.9664C74.834 35.7682 74.8674 35.5336 74.813 35.3114L67.3876 4.60474L50.3698 31.2283C50.2463 31.4203 50.2014 31.6524 50.2444 31.8766C50.2875 32.1007 50.4151 32.2997 50.6009 32.4324C53.9428 34.9081 57.824 36.5562 61.9262 37.2417C66.0284 37.9271 70.2346 37.6303 74.1999 36.3755V36.3755Z" stroke="#45413C" stroke-width="1.6" stroke-linecap="round" stroke-linejoin="round"/>
<path d="M60.0625 36.8286C64.7654 34.3935 69.1095 31.3207 72.9716 27.6971L73.8369 31.276C71.1752 33.6087 68.3199 35.7108 65.3019 37.5595C64.2977 37.5285 63.2963 37.4376 62.3029 37.2874C61.5531 37.1518 60.8045 37.0041 60.0625 36.8286Z" fill="#FFE500" stroke="#45413C" stroke-width="1.6" stroke-linecap="round" stroke-linejoin="round"/>
<path d="M51.7981 33.2273C51.3971 32.9696 50.9973 32.7042 50.5996 32.4265C50.4155 32.2938 50.2891 32.0958 50.2464 31.873C50.2036 31.6501 50.2478 31.4193 50.3697 31.228L51.1761 29.9651C58.3697 27.6373 65.0636 23.9828 70.9119 19.1908L71.8205 22.9485C65.8065 27.5315 59.0274 31.0117 51.7981 33.2273Z" fill="#FFE500" stroke="#45413C" stroke-width="1.6" stroke-linecap="round" stroke-linejoin="round"/>
<path d="M69.6454 13.9395C65.5395 17.1276 61.0642 19.8091 56.3164 21.9257L56.6008 21.4814L60.0574 16.0743C63.1017 14.3527 66.0073 12.3967 68.7479 10.224L69.6454 13.9395Z" fill="#FFE500" stroke="#45413C" stroke-width="1.6" stroke-linecap="round" stroke-linejoin="round"/>
<path d="M63.0476 4.31487C63.6908 4.23612 64.3379 4.1931 64.9858 4.18602C64.697 3.92166 64.4005 3.66619 64.0972 3.42627C63.1831 2.71539 64.1439 1.16922 65.068 1.8901C65.7394 2.40774 66.3686 2.97786 66.9496 3.5951C67.4444 2.7777 68.0105 2.00568 68.6413 1.28807C69.4066 0.407248 70.6407 1.74681 69.8754 2.62097C69.4844 3.06707 69.1216 3.53709 68.789 4.02829C69.5634 3.86072 70.3489 3.74936 71.1394 3.69507C72.3068 3.61065 72.2501 5.42895 71.0916 5.51225C70.8251 5.53114 70.5563 5.56002 70.2897 5.59445C70.7782 5.93256 71.2229 6.3299 71.6137 6.7774C72.3823 7.656 71.0583 8.8956 70.2808 8.01255C69.9216 7.60191 69.5039 7.24636 69.0412 6.95734C69.3365 7.8296 69.4499 8.75311 69.3744 9.6709C69.2778 10.8327 67.4595 10.7894 67.5572 9.62314C67.6382 8.58356 67.4188 7.54261 66.9252 6.62411C66.0229 7.11362 65.2774 7.84833 64.7748 8.74342C64.2072 9.76532 62.6721 8.79341 63.2386 7.77152C63.6087 7.09983 64.0911 6.49648 64.6648 5.98765C64.2661 6.00321 63.8662 6.03542 63.4686 6.08318C62.3189 6.22202 61.888 4.45926 63.0476 4.31487Z" fill="white" stroke="#45413C" stroke-width="1.6" stroke-linecap="round" stroke-linejoin="round"/>
<path d="M76.326 36.7142C76.4152 37.0509 76.423 37.4039 76.3488 37.7442C76.2746 38.0845 76.1205 38.4023 75.8992 38.6713C75.678 38.9403 75.3959 39.1528 75.0763 39.2913C74.7567 39.4298 74.4088 39.4902 74.0612 39.4677C65.5491 39.0996 57.1654 37.2581 49.2826 34.025C48.9574 33.9001 48.6666 33.6995 48.4343 33.4399C48.202 33.1804 48.0348 32.8692 47.9466 32.5322C47.8583 32.1952 47.8516 31.842 47.9269 31.5019C48.0022 31.1618 48.1573 30.8444 48.3795 30.5762C48.6996 30.2108 49.1259 29.9548 49.5988 29.844C50.0718 29.7332 50.5675 29.7733 51.0165 29.9586C58.4152 32.8963 66.2412 34.615 74.19 35.048C74.6752 35.0689 75.1418 35.2406 75.5247 35.5393C75.9076 35.8379 76.1877 36.2487 76.326 36.7142Z" fill="white" stroke="#45413C" stroke-width="1.6" stroke-linecap="round" stroke-linejoin="round"/>
<path d="M16.109 20.4306C16.2135 20.6149 16.26 20.8265 16.2426 21.0377C16.2252 21.2489 16.1445 21.4499 16.0112 21.6146C14.9463 22.9705 13.3898 23.8521 11.6793 24.0683C11.4695 24.0978 11.2557 24.0636 11.0656 23.9701C10.8754 23.8766 10.7178 23.7282 10.613 23.544L9.76661 22.05C9.68603 21.9081 9.63943 21.7494 9.63049 21.5864C9.62155 21.4234 9.6505 21.2606 9.71507 21.1107C9.77965 20.9608 9.87808 20.8279 10.0027 20.7224C10.1272 20.6169 10.2746 20.5417 10.4331 20.5028C11.6312 20.2211 12.7236 19.602 13.5809 18.7189C13.6957 18.6036 13.8356 18.5164 13.9897 18.4641C14.1437 18.4118 14.3078 18.3957 14.469 18.4172C14.6303 18.4387 14.7844 18.4972 14.9194 18.5881C15.0543 18.6789 15.1665 18.7997 15.247 18.9411L16.109 20.4306Z" fill="#00F5BC" stroke="#45413C" stroke-width="1.6" stroke-linecap="round" stroke-linejoin="round"/>
<path d="M24.9995 24.3683C25.2082 24.3945 25.4044 24.4826 25.5627 24.6211C25.7211 24.7597 25.8344 24.9424 25.8881 25.1458C26.342 26.8076 26.1233 28.5813 25.2794 30.0831C25.1782 30.2692 25.0233 30.4205 24.8349 30.5174C24.6465 30.6143 24.4333 30.6522 24.2231 30.6262L22.5181 30.4163C22.3558 30.3963 22.2004 30.3389 22.0642 30.2486C21.9279 30.1583 21.8144 30.0376 21.7328 29.896C21.6512 29.7543 21.6035 29.5957 21.5937 29.4325C21.5839 29.2693 21.6121 29.1061 21.6761 28.9557C22.1642 27.8257 22.3184 26.5795 22.1204 25.3646C22.0947 25.2031 22.1069 25.0378 22.1561 24.8818C22.2052 24.7258 22.29 24.5833 22.4036 24.4657C22.5173 24.3481 22.6567 24.2585 22.8109 24.204C22.9652 24.1495 23.1299 24.1316 23.2923 24.1517L24.9995 24.3683Z" fill="#FF6242" stroke="#45413C" stroke-width="1.6" stroke-linecap="round" stroke-linejoin="round"/>
<path d="M3.96273 52.3856C3.75602 52.4302 3.54066 52.4118 3.34458 52.3325C3.1485 52.2533 2.98075 52.117 2.86309 51.9413C1.88918 50.5207 1.5137 48.7737 1.81787 47.0784C1.8522 46.8692 1.94877 46.6751 2.09499 46.5216C2.24121 46.368 2.4303 46.2621 2.6376 46.2176L4.31706 45.8566C4.47689 45.8223 4.6425 45.8256 4.80084 45.8663C4.95917 45.907 5.10589 45.9838 5.22942 46.0909C5.35296 46.198 5.44993 46.3323 5.51269 46.4832C5.57546 46.6341 5.60229 46.7976 5.59109 46.9607C5.50151 48.1884 5.76555 49.4161 6.35195 50.4984C6.42906 50.6426 6.47161 50.8027 6.47624 50.9662C6.48087 51.1296 6.44745 51.2919 6.37862 51.4402C6.30979 51.5886 6.20744 51.7188 6.07964 51.8208C5.95183 51.9228 5.80207 51.9937 5.64218 52.0279L3.96273 52.3856Z" fill="#FF6196" stroke="#45413C" stroke-width="1.6" stroke-linecap="round" stroke-linejoin="round"/>
<path d="M29.7658 6.18661C29.5965 6.05939 29.3927 5.98616 29.1811 5.97645C28.9695 5.96674 28.7599 6.02101 28.5796 6.13218C27.1004 7.01529 26.0279 8.44482 25.5939 10.112C25.5382 10.3161 25.5451 10.5323 25.6136 10.7325C25.6821 10.9327 25.8091 11.1077 25.9782 11.235L27.3522 12.2657C27.483 12.3636 27.6348 12.4298 27.7955 12.4591C27.9563 12.4884 28.1217 12.48 28.2786 12.4346C28.4356 12.3892 28.5799 12.3079 28.7001 12.1973C28.8204 12.0867 28.9133 11.9496 28.9717 11.797C29.4044 10.6444 30.1584 9.63984 31.1443 8.90239C31.2745 8.80379 31.3801 8.67636 31.4529 8.53009C31.5256 8.38382 31.5634 8.22269 31.5634 8.05933C31.5634 7.89598 31.5256 7.73485 31.4529 7.58858C31.3801 7.44231 31.2745 7.31488 31.1443 7.21628L29.7658 6.18661Z" fill="#BF8DF2" stroke="#45413C" stroke-width="1.6" stroke-linecap="round" stroke-linejoin="round"/>
<path d="M15.4852 56.1722C15.3156 56.0451 15.1116 55.9719 14.8999 55.9622C14.6881 55.9525 14.4783 56.0067 14.2978 56.1178C12.8186 57.0009 11.7462 58.4305 11.3121 60.0976C11.2569 60.3015 11.2641 60.5171 11.3326 60.7169C11.4011 60.9166 11.5278 61.0913 11.6964 61.2184L13.0704 62.2492C13.2013 62.347 13.353 62.4132 13.5138 62.4425C13.6745 62.4718 13.8399 62.4634 13.9969 62.418C14.1538 62.3726 14.2981 62.2913 14.4184 62.1807C14.5386 62.0701 14.6316 61.9331 14.6899 61.7804C15.1226 60.6278 15.8766 59.6232 16.8625 58.8858C16.9928 58.7872 17.0984 58.6598 17.1711 58.5135C17.2438 58.3672 17.2817 58.2061 17.2817 58.0427C17.2817 57.8794 17.2438 57.7183 17.1711 57.572C17.0984 57.4257 16.9928 57.2983 16.8625 57.1997L15.4852 56.1722Z" fill="#BF8DF2" stroke="#45413C" stroke-width="1.6" stroke-linecap="round" stroke-linejoin="round"/>
<path d="M38.1504 16.5043C38.317 16.3726 38.5195 16.2943 38.7314 16.2796C38.9433 16.2649 39.1547 16.3146 39.3378 16.4221C40.837 17.2701 41.9425 18.6737 42.4157 20.3298C42.4764 20.5327 42.4748 20.7492 42.411 20.9512C42.3473 21.1532 42.2243 21.3314 42.058 21.4627L40.7085 22.5257C40.58 22.6268 40.4298 22.6966 40.2698 22.7298C40.1097 22.763 39.9442 22.7586 39.7861 22.7169C39.6281 22.6752 39.4819 22.5975 39.359 22.4897C39.2361 22.3819 39.1399 22.2471 39.0779 22.0959C38.6188 20.9536 37.8421 19.9669 36.8397 19.2523C36.7069 19.157 36.5981 19.0321 36.5219 18.8874C36.4457 18.7428 36.4042 18.5824 36.4006 18.419C36.3971 18.2555 36.4316 18.0935 36.5014 17.9457C36.5713 17.7979 36.6746 17.6684 36.8031 17.5673L38.1504 16.5043Z" fill="#4AEFF7" stroke="#45413C" stroke-width="1.6" stroke-linecap="round" stroke-linejoin="round"/>
<path d="M8.28767 34.3986C8.11393 34.52 7.98069 34.6908 7.90523 34.8889C7.82977 35.087 7.81557 35.3031 7.86447 35.5094C8.24069 37.1901 9.26283 38.6555 10.7102 39.5891C10.8868 39.7063 11.0946 39.7676 11.3065 39.7653C11.5184 39.7629 11.7248 39.6969 11.8987 39.5758L13.3071 38.5928C13.4411 38.4993 13.5516 38.376 13.6298 38.2326C13.708 38.0892 13.7518 37.9296 13.7579 37.7663C13.7639 37.6031 13.7319 37.4407 13.6645 37.2919C13.5971 37.1431 13.4961 37.012 13.3693 36.9089C12.4096 36.1374 11.6911 35.1071 11.2989 33.9399C11.2458 33.7853 11.1575 33.6452 11.041 33.5306C10.9246 33.416 10.7831 33.3299 10.6278 33.2792C10.4724 33.2285 10.3074 33.2145 10.1458 33.2384C9.9841 33.2622 9.83017 33.3233 9.6961 33.4167L8.28767 34.3986Z" fill="#4AEFF7" stroke="#45413C" stroke-width="1.6" stroke-linecap="round" stroke-linejoin="round"/>
<path d="M37.5818 35.338C37.6014 35.5489 37.5571 35.7608 37.4547 35.9462C37.3523 36.1316 37.1965 36.2819 37.0076 36.3776C35.4818 37.1773 33.7025 37.3441 32.0547 36.8419C31.8512 36.7831 31.67 36.6643 31.5349 36.501C31.3998 36.3378 31.317 36.1377 31.2972 35.9267L31.1373 34.2161C31.1223 34.0534 31.1452 33.8895 31.2043 33.7372C31.2634 33.5848 31.357 33.4483 31.4778 33.3383C31.5986 33.2283 31.7433 33.1478 31.9004 33.1031C32.0576 33.0585 32.2229 33.0509 32.3835 33.0809C33.5918 33.3164 34.8422 33.2008 35.9868 32.7477C36.1393 32.6883 36.3036 32.6652 36.4666 32.6802C36.6296 32.6952 36.7869 32.7478 36.926 32.834C37.0652 32.9202 37.1824 33.0375 37.2685 33.1767C37.3545 33.316 37.407 33.4733 37.4219 33.6363L37.5818 35.338Z" fill="#FF8A14" stroke="#45413C" stroke-width="1.6" stroke-linecap="round" stroke-linejoin="round"/>
<path d="M48.0038 11.0517C47.8426 10.9141 47.7265 10.7312 47.6705 10.5269C47.6145 10.3225 47.621 10.106 47.6894 9.90544C48.2241 8.26919 49.3812 6.90903 50.9106 6.1189C51.0976 6.01913 51.3104 5.97796 51.5212 6.00075C51.7319 6.02353 51.931 6.1092 52.0924 6.24663L53.3998 7.35738C53.5242 7.46337 53.6223 7.59682 53.6864 7.74721C53.7504 7.8976 53.7787 8.06082 53.7689 8.22398C53.7591 8.38715 53.7115 8.54581 53.6299 8.68745C53.5483 8.82909 53.4349 8.94984 53.2987 9.04017C52.2696 9.71544 51.4556 10.6714 50.9528 11.7948C50.885 11.9436 50.7837 12.0746 50.6567 12.1776C50.5297 12.2805 50.3806 12.3526 50.221 12.3882C50.0615 12.4237 49.8958 12.4217 49.7372 12.3823C49.5785 12.343 49.4311 12.2674 49.3067 12.1614L48.0038 11.0517Z" fill="#FFF48C" stroke="#45413C" stroke-width="1.6" stroke-linecap="round" stroke-linejoin="round"/>
<path d="M43.7507 59.7889C40.7409 59.769 37.741 59.4438 34.7969 58.8181C34.4415 58.7437 34.0749 58.6715 33.7017 58.5959C29.703 57.8017 24.7135 56.8121 22.1499 52.9489C22.0099 52.7401 21.8811 52.5235 21.7611 52.3013C21.482 51.7845 21.2675 51.2354 21.1225 50.6663C20.8387 49.5587 20.8196 48.3999 21.0666 47.2836C21.3136 46.1672 21.8198 45.1247 22.5443 44.2401C23.2688 43.3556 24.1912 42.654 25.237 42.1919C26.2828 41.7299 27.4227 41.5204 28.5645 41.5803C29.3828 41.6121 30.1855 41.8142 30.9213 42.1737C31.657 42.5333 32.3097 43.0424 32.8375 43.6686C33.459 44.4929 33.8254 45.4812 33.8913 46.5115C33.9573 47.5417 33.7199 48.5687 33.2085 49.4656C32.8514 50.0708 32.3644 50.5891 31.7825 50.9831C31.2007 51.3771 30.5386 51.6369 29.8441 51.7437C29.2025 51.8435 28.5467 51.7973 27.9255 51.6084C27.3043 51.4195 26.7338 51.093 26.2563 50.653C26.1169 50.5241 26.0042 50.369 25.9247 50.1966C25.8452 50.0242 25.8004 49.8377 25.7929 49.648C25.7854 49.4583 25.8154 49.2689 25.8811 49.0908C25.9468 48.9126 26.0469 48.7492 26.1758 48.6097C26.3047 48.4703 26.4598 48.3576 26.6322 48.2781C26.8046 48.1986 26.991 48.1538 27.1807 48.1463C27.3705 48.1388 27.5598 48.1688 27.738 48.2345C27.9161 48.3002 28.0796 48.4003 28.219 48.5292C28.3783 48.6761 28.5693 48.7844 28.7771 48.8456C28.9849 48.9069 29.2041 48.9195 29.4175 48.8824C29.6847 48.8414 29.9394 48.7414 30.1632 48.5899C30.387 48.4383 30.5743 48.2389 30.7116 48.006C30.9274 47.6153 31.03 47.172 31.0076 46.7262C30.9852 46.2803 30.8388 45.8496 30.5849 45.4824C30.3145 45.1734 29.9828 44.9239 29.6109 44.7498C29.239 44.5756 28.8351 44.4805 28.4245 44.4705C27.7342 44.4327 27.0447 44.5581 26.412 44.8367C25.7792 45.1154 25.2212 45.5393 24.783 46.0741C24.3449 46.6088 24.039 47.2394 23.8903 47.9146C23.7416 48.5897 23.7542 49.2905 23.9271 49.9598C24.0128 50.2989 24.14 50.6261 24.3059 50.934C24.3814 51.075 24.4647 51.2139 24.5547 51.3494C26.4585 54.2107 30.6071 55.0349 34.2671 55.7613C34.6481 55.8368 35.0213 55.9112 35.3834 55.9834C40.5158 57.1937 45.8583 57.2032 50.995 56.0112C51.1787 55.9628 51.3701 55.951 51.5584 55.9766C51.7467 56.0021 51.9281 56.0645 52.0922 56.1602C52.2564 56.2559 52.4001 56.3829 52.5151 56.5341C52.6302 56.6853 52.7143 56.8577 52.7627 57.0414C52.8111 57.2251 52.8229 57.4166 52.7974 57.6049C52.7718 57.7931 52.7094 57.9745 52.6137 58.1387C52.5181 58.3028 52.391 58.4465 52.2398 58.5616C52.0886 58.6766 51.9162 58.7608 51.7325 58.8092C49.125 59.4774 46.4423 59.8066 43.7507 59.7889Z" fill="#FFB0CA"/>
<path d="M43.7507 59.7889C40.7409 59.769 37.741 59.4438 34.7969 58.8181C34.4415 58.7437 34.0749 58.6715 33.7017 58.5959C29.703 57.8017 24.7135 56.8121 22.1499 52.9489C22.0099 52.7401 21.8811 52.5235 21.7611 52.3013C21.482 51.7845 21.2675 51.2354 21.1225 50.6663C20.8387 49.5587 20.8196 48.3999 21.0666 47.2836C21.3136 46.1672 21.8198 45.1247 22.5443 44.2401C23.2688 43.3556 24.1912 42.654 25.237 42.1919C26.2828 41.7299 27.4227 41.5204 28.5645 41.5803C29.3828 41.6121 30.1855 41.8142 30.9213 42.1737C31.657 42.5333 32.3097 43.0424 32.8375 43.6686C33.459 44.4929 33.8254 45.4812 33.8913 46.5115C33.9573 47.5417 33.7199 48.5687 33.2085 49.4656C32.8514 50.0708 32.3644 50.5891 31.7825 50.9831C31.2007 51.3771 30.5386 51.6369 29.8441 51.7437C29.2025 51.8435 28.5467 51.7973 27.9255 51.6084C27.3043 51.4195 26.7338 51.093 26.2563 50.653C26.1169 50.5241 26.0042 50.369 25.9247 50.1966C25.8452 50.0242 25.8004 49.8377 25.7929 49.648C25.7854 49.4583 25.8154 49.2689 25.8811 49.0908C25.9468 48.9126 26.0469 48.7492 26.1758 48.6097C26.3047 48.4703 26.4598 48.3576 26.6322 48.2781C26.8046 48.1986 26.991 48.1538 27.1807 48.1463C27.3705 48.1388 27.5598 48.1688 27.738 48.2345C27.9161 48.3002 28.0796 48.4003 28.219 48.5292C28.3783 48.6761 28.5693 48.7844 28.7771 48.8456C28.9849 48.9069 29.2041 48.9195 29.4175 48.8824C29.6847 48.8414 29.9394 48.7414 30.1632 48.5899C30.387 48.4383 30.5743 48.2389 30.7116 48.006C30.9274 47.6153 31.03 47.172 31.0076 46.7262C30.9852 46.2803 30.8388 45.8496 30.5849 45.4824C30.3145 45.1734 29.9828 44.9239 29.6109 44.7498C29.239 44.5756 28.8351 44.4805 28.4245 44.4705C27.7342 44.4327 27.0447 44.5581 26.412 44.8367C25.7792 45.1154 25.2212 45.5393 24.783 46.0741C24.3449 46.6088 24.039 47.2394 23.8903 47.9146C23.7416 48.5897 23.7542 49.2905 23.9271 49.9598C24.0128 50.2989 24.14 50.6261 24.3059 50.934C24.3814 51.075 24.4647 51.2139 24.5547 51.3494C26.4585 54.2107 30.6071 55.0349 34.2671 55.7613C34.6481 55.8368 35.0213 55.9112 35.3834 55.9834C40.5158 57.1937 45.8583 57.2032 50.995 56.0112C51.1787 55.9628 51.3701 55.951 51.5584 55.9766C51.7467 56.0021 51.9281 56.0645 52.0922 56.1602C52.2564 56.2559 52.4001 56.3829 52.5151 56.5341C52.6302 56.6853 52.7143 56.8577 52.7627 57.0414C52.8111 57.2251 52.8229 57.4166 52.7974 57.6049C52.7718 57.7931 52.7094 57.9745 52.6137 58.1387C52.5181 58.3028 52.391 58.4465 52.2398 58.5616C52.0886 58.6766 51.9162 58.7608 51.7325 58.8092C49.125 59.4774 46.4423 59.8066 43.7507 59.7889V59.7889Z" stroke="#45413C" stroke-width="1.6" stroke-linecap="round" stroke-linejoin="round"/>
<path d="M49.4543 56.3608L50.3596 59.1377C49.3119 59.3563 48.2534 59.5187 47.1884 59.6242L46.2676 56.804C47.3377 56.7206 48.402 56.5756 49.4554 56.3697" fill="#9CEB60"/>
<path d="M49.4543 56.3608L50.3596 59.1377C49.3119 59.3563 48.2534 59.5187 47.1884 59.6242L46.2676 56.804C47.3377 56.7206 48.402 56.5756 49.4554 56.3697" stroke="#45413C" stroke-width="1.6" stroke-linecap="round" stroke-linejoin="round"/>
<path d="M39.9785 56.7002L40.685 59.667C41.8024 59.7551 42.8965 59.7955 43.9672 59.7881L43.2774 56.8935C42.2067 56.8794 41.107 56.815 39.9785 56.7002Z" fill="#9CEB60" stroke="#45413C" stroke-width="1.6" stroke-linecap="round" stroke-linejoin="round"/>
<path d="M33.3301 55.5714L33.6089 58.5793L33.7011 58.5971C34.0743 58.6715 34.4408 58.7437 34.7963 58.8192C35.4872 58.9614 36.1703 59.088 36.8456 59.1991L36.569 56.2201C36.1758 56.146 35.7797 56.0694 35.3805 55.9902C35.0184 55.9157 34.6452 55.8413 34.2642 55.768L33.3301 55.5814" fill="#9CEB60"/>
<path d="M33.3301 55.5714L33.6089 58.5793L33.7011 58.5971C34.0743 58.6715 34.4408 58.7437 34.7963 58.8192C35.4872 58.9614 36.1703 59.088 36.8456 59.1991L36.569 56.2201C36.1758 56.146 35.7797 56.0694 35.3805 55.9902C35.0184 55.9157 34.6452 55.8413 34.2642 55.768L33.3301 55.5814" stroke="#45413C" stroke-width="1.6" stroke-linecap="round" stroke-linejoin="round"/>
<path d="M29.1489 57.5374C28.0805 57.2255 27.0428 56.8165 26.0488 56.3156L26.2377 53.0566C27.187 53.705 28.2262 54.2105 29.3222 54.5573L29.15 57.533" fill="#9CEB60"/>
<path d="M29.1489 57.5374C28.0805 57.2255 27.0428 56.8165 26.0488 56.3156L26.2377 53.0566C27.187 53.705 28.2262 54.2105 29.3222 54.5573L29.15 57.533" stroke="#45413C" stroke-width="1.6" stroke-linecap="round" stroke-linejoin="round"/>
<path d="M23.8057 49.2649L20.9355 49.6437C20.9737 49.9881 21.0353 50.3295 21.1199 50.6655C21.2638 51.2353 21.4772 51.7852 21.7553 52.3028C21.8275 52.4372 21.903 52.5694 21.9774 52.6982L25.2919 52.2617C25.0151 51.9816 24.7656 51.6759 24.5466 51.3487C24.4566 51.2131 24.3733 51.0743 24.2978 50.9332C24.1319 50.6254 24.0047 50.2982 23.919 49.9591C23.8634 49.731 23.8256 49.4989 23.8057 49.2649Z" fill="#9CEB60" stroke="#45413C" stroke-width="1.6" stroke-linecap="round" stroke-linejoin="round"/>
<path d="M25.4869 45.3817L23.4353 43.3235C22.6175 44.0291 21.9643 44.9053 21.5215 45.8904L23.8341 48.2097C24.0041 47.0913 24.5954 46.0803 25.4869 45.3839V45.3817Z" fill="#9CEB60" stroke="#45413C" stroke-width="1.6" stroke-linecap="round" stroke-linejoin="round"/>
<path d="M26.8262 44.6749L27.446 41.6081C27.815 41.5714 28.1863 41.5618 28.5567 41.5792C29.2526 41.612 29.938 41.7622 30.5838 42.0235L29.9929 44.9559C29.5196 44.6571 28.9761 44.4878 28.4168 44.465C27.8783 44.4389 27.3395 44.51 26.8262 44.6749Z" fill="#9CEB60" stroke="#45413C" stroke-width="1.6" stroke-linecap="round" stroke-linejoin="round"/>
<path d="M29.3633 48.889L32.6044 50.2774C32.8337 50.0302 33.0352 49.7587 33.2054 49.4677C33.5742 48.8292 33.8015 48.119 33.8718 47.385L30.9839 46.4786C31.0616 47.0046 30.9657 47.5416 30.7106 48.0081C30.5733 48.241 30.386 48.4404 30.1622 48.592C29.9384 48.7435 29.6838 48.8435 29.4166 48.8845" fill="#9CEB60"/>
<path d="M29.3633 48.889L32.6044 50.2774C32.8337 50.0302 33.0352 49.7587 33.2054 49.4677C33.5742 48.8292 33.8015 48.119 33.8718 47.385L30.9839 46.4786C31.0616 47.0046 30.9657 47.5416 30.7106 48.0081C30.5733 48.241 30.386 48.4404 30.1622 48.592C29.9384 48.7435 29.6838 48.8435 29.4166 48.8845" stroke="#45413C" stroke-width="1.6" stroke-linecap="round" stroke-linejoin="round"/>
<path d="M52.4533 58.9254C52.2734 58.8951 52.1013 58.8297 51.9467 58.7329C51.7921 58.6361 51.6581 58.5098 51.5523 58.3613C51.4466 58.2127 51.3711 58.0447 51.3302 57.867C51.2894 57.6892 51.2839 57.5052 51.3142 57.3253C51.3444 57.1455 51.4098 56.9734 51.5066 56.8188C51.6034 56.6642 51.7297 56.5302 51.8783 56.4244C52.0269 56.3187 52.1948 56.2432 52.3726 56.2023C52.5503 56.1615 52.7344 56.156 52.9142 56.1863C52.7341 56.1561 52.5618 56.0907 52.407 55.9939C52.2522 55.8971 52.1179 55.7707 52.012 55.6221C51.906 55.4734 51.8303 55.3053 51.7893 55.1274C51.7483 54.9494 51.7427 54.7652 51.7729 54.5851C51.8031 54.4051 51.8685 54.2327 51.9653 54.0779C52.0621 53.9231 52.1884 53.7888 52.3371 53.6829C52.4858 53.5769 52.6539 53.5012 52.8318 53.4602C53.0097 53.4192 53.194 53.4136 53.3741 53.4438" fill="#FFCEBF"/>
<path d="M52.4533 58.9254C52.2734 58.8951 52.1013 58.8297 51.9467 58.7329C51.7921 58.6361 51.6581 58.5098 51.5523 58.3613C51.4466 58.2127 51.3711 58.0447 51.3302 57.867C51.2894 57.6892 51.2839 57.5052 51.3142 57.3253C51.3444 57.1455 51.4098 56.9734 51.5066 56.8188C51.6034 56.6642 51.7297 56.5302 51.8783 56.4244C52.0269 56.3187 52.1948 56.2432 52.3726 56.2023C52.5503 56.1615 52.7344 56.156 52.9142 56.1863C52.7341 56.1561 52.5618 56.0907 52.407 55.9939C52.2522 55.8971 52.1179 55.7707 52.012 55.6221C51.906 55.4734 51.8303 55.3053 51.7893 55.1274C51.7483 54.9494 51.7427 54.7652 51.7729 54.5851C51.8031 54.4051 51.8685 54.2327 51.9653 54.0779C52.0621 53.9231 52.1884 53.7888 52.3371 53.6829C52.4858 53.5769 52.6539 53.5012 52.8318 53.4602C53.0097 53.4192 53.194 53.4136 53.3741 53.4438" stroke="#45413C" stroke-width="1.6" stroke-linecap="round" stroke-linejoin="round"/>
</svg>

