<svg width="97" height="96" viewBox="0 0 97 96" fill="none" xmlns="http://www.w3.org/2000/svg">
<path d="M48.0907 35.9124C51.1026 34.1559 54.7538 34.3141 58.3754 36.3618C58.8185 36.6118 58.9746 37.1751 58.7246 37.6193C58.4735 38.0623 57.9091 38.2185 57.466 37.9685C53.587 35.7773 50.7344 36.5095 49.0222 37.5074C46.7235 38.8472 45.4797 41.262 45.4597 42.875C46.1602 46.6 50.0793 49.6541 54.5027 49.6541C59.3301 49.6541 63.4085 46.0114 63.4085 41.6998V33.8246C63.4085 29.7346 59.3544 26.4062 54.3729 26.4062C49.3915 26.4062 45.3384 29.7346 45.3384 33.8246V38.3683C46.0462 37.4325 46.9641 36.5696 48.0907 35.9124Z" fill="#FFD38F"/>
<path d="M17.6398 60.1107C18.1082 59.8987 18.6515 60.1107 18.8593 60.576L24.3651 72.9315C24.8208 73.4663 27.5732 76.5573 32.7529 79.1082C32.7698 79.1156 36.6794 80.8678 40.2979 79.5059C42.1609 78.8065 43.6484 77.3812 44.7371 75.2798C35.0074 72.5918 33.6845 65.9182 33.5515 65.0436L28.3485 46.925C28.2082 46.4344 28.491 45.9228 28.9805 45.7825C29.4763 45.6411 29.9827 45.9238 30.123 46.4144L35.3439 64.5953C35.3587 64.6449 35.3671 64.6945 35.3734 64.743C35.4103 65.0257 36.3957 71.7636 46.9019 73.9041C50.5351 74.6458 53.125 74.8662 54.9616 74.8494C56.2075 74.6943 57.0831 74.6574 57.3806 74.6479C58.6466 74.4158 59.0612 74.0634 59.0675 74.055L59.0696 74.0539C59.8091 72.9789 61.6584 69.8046 61.3377 68.027C61.1099 66.7833 56.0324 63.6237 51.4297 61.4547C51.1997 61.3461 51.0225 61.1456 50.9444 60.9019L47.0464 48.7616C44.8869 46.9471 43.4891 44.4142 43.4891 41.6998V33.8247C43.4891 33.6749 43.5081 33.5303 43.5165 33.3826C42.4975 32.6579 38.9412 30.4647 34.7151 31.6958C29.8118 33.1273 28.895 39.2133 28.8866 39.2745C28.8169 39.764 28.3633 40.1195 27.8844 40.0657C27.8401 40.0657 23.2542 39.687 18.5112 42.7041C13.996 45.5767 15.4339 53.4846 15.4497 53.5627C15.5025 53.8444 15.4223 54.1313 15.2335 54.3444C15.0457 54.5596 14.7851 54.6651 14.4834 54.6567C14.4517 54.6503 11.2753 54.4773 8.80252 56.1262C7.17263 57.2128 8.33518 61.9358 9.15171 64.0562L14.0129 76.3221C14.0287 76.359 15.8105 80.602 21.1085 82.5083C26.9233 84.6002 30.7454 84.2289 33.4207 81.2982C32.5694 81.0503 32.0198 80.8035 31.9565 80.775C25.8673 77.7747 22.9673 74.1447 22.847 73.9917C22.7995 73.9305 22.7594 73.8651 22.7288 73.7955L17.1725 61.3281C16.9646 60.864 17.1746 60.3185 17.6398 60.1107ZM40.3179 65.1755L44.0081 62.6268C44.428 62.3388 45.003 62.4422 45.2941 62.8631C45.5832 63.2819 45.4777 63.8558 45.0589 64.148L41.3687 66.6957C41.2083 66.8065 41.0258 66.8592 40.8444 66.8592C40.5511 66.8592 40.2631 66.72 40.0827 66.4604C39.7936 66.0406 39.8991 65.4656 40.3179 65.1755ZM28.838 71.7257L32.408 70.0219C32.87 69.7993 33.4197 69.9987 33.6391 70.4566C33.8585 70.9186 33.6634 71.4683 33.2023 71.6887L29.6314 73.3904C29.5037 73.4526 29.3676 73.4811 29.2347 73.4811C28.8897 73.4811 28.5585 73.2859 28.4002 72.9568C28.1829 72.4937 28.3781 71.943 28.838 71.7257ZM20.3858 76.9635L21.1855 76.7156C21.6739 76.5636 22.1898 76.8379 22.3417 77.3232C22.4936 77.8116 22.2214 78.3286 21.733 78.4815L20.9354 78.7284C20.8437 78.7548 20.7508 78.7695 20.6601 78.7695C20.2666 78.7695 19.9027 78.5153 19.7782 78.1207C19.6273 77.6334 19.9005 77.1154 20.3858 76.9635Z" fill="#FFD38F"/>
<path d="M49.1458 87.3114L48.5445 87.3726C46.5116 87.5719 43.9819 87.822 42.6801 89.4582C42.0271 90.2779 41.7433 91.4489 41.7929 92.9121C43.6907 92.5903 47.0982 92.2812 50.6565 92.0207C50.8021 90.6925 50.7367 88.3526 49.9444 87.5572C49.8062 87.4169 49.59 87.2629 49.1458 87.3114Z" fill="white"/>
<path d="M79.8868 61.2711C79.8372 61.2237 79.795 61.1699 79.7571 61.1118L65.2547 37.9822V41.6998C65.2547 47.0136 60.3313 51.5013 54.5038 51.5013C52.7251 51.5013 51.0182 51.0762 49.497 50.344L52.5859 59.9567C54.7749 61.0074 59.7659 63.5498 62.0255 65.8876C62.0414 64.7155 61.8652 63.6047 61.4643 62.7649C61.2438 62.3039 61.4401 61.7533 61.8979 61.5338C62.36 61.3123 62.9096 61.5085 63.1301 61.9663C64.2684 64.3474 64.0837 68.2106 62.7123 71.0072C62.0055 73.0074 60.7955 74.8071 60.5919 75.1036C60.5919 75.1046 60.5919 75.1046 60.5919 75.1046C60.3524 75.4464 59.232 76.6227 55.1684 76.6966C51.8886 77.1143 45.8511 78.3876 41.5575 82.2202C37.2807 86.037 37.9527 90.242 38.9054 91.931C39.2092 92.469 39.5731 92.852 39.936 93.044C39.8569 91.0881 40.2873 89.4951 41.2368 88.3052C43.0239 86.0571 46.1106 85.7533 48.3651 85.5317L48.9506 85.4726C49.862 85.3787 50.6564 85.6467 51.2598 86.2565C52.6956 87.706 52.6123 90.7516 52.5258 91.8856C57.4756 91.547 62.2524 91.3075 63.2124 91.2611C63.9466 90.9415 69.6296 88.0773 79.7655 72.4546C84.1572 65.6871 79.9301 61.3155 79.8868 61.2711Z" fill="#FFD38F"/>
<path d="M45.6191 77.4307C46.7311 76.918 47.8482 76.4971 48.9274 76.1553C48.1911 76.035 47.4094 75.8915 46.577 75.7249C46.2848 76.3357 45.9694 76.9106 45.6191 77.4307Z" fill="#FFD38F"/>
<path d="M54.8404 52.4265C48.4833 52.4265 42.9058 47.4144 42.9058 41.7009V33.8257C42.9058 28.2071 48.2026 23.636 54.7106 23.636C61.2207 23.636 66.5154 28.2071 66.5154 33.8257V41.7009C66.5154 47.5147 61.1679 52.4265 54.8404 52.4265ZM54.7106 27.3304C50.2376 27.3304 46.6002 30.2452 46.6002 33.8257V41.7009C46.6002 45.3805 50.5277 48.7321 54.8404 48.7321C59.0918 48.7321 62.82 45.447 62.82 41.7009V33.8257C62.82 30.2442 59.1825 27.3304 54.7106 27.3304Z" fill="#130B43"/>
<path d="M27.8147 86.6268C25.208 86.6268 22.6349 85.8831 20.5071 85.1172C14.0108 82.7794 11.864 77.569 11.7764 77.3486L6.90994 65.0722C6.35187 63.6279 3.78414 56.3668 7.60409 53.8233C9.37746 52.6407 11.3608 52.1712 12.8282 51.9898C12.6404 48.8925 12.96 43.1705 17.3623 40.3706C21.1338 37.9706 24.7986 37.4073 26.8389 37.3018C27.5309 34.887 29.4351 30.452 34.2773 29.0384C40.7135 27.1606 45.733 31.3129 45.944 31.4912C46.7236 32.1494 46.8227 33.3141 46.1644 34.0937C45.5062 34.8733 44.3404 34.9725 43.5619 34.3152C43.4174 34.196 39.8095 31.2749 35.3122 32.5851C30.9542 33.8574 30.1483 39.3473 30.1409 39.4022C30.0058 40.3833 29.1271 41.0869 28.1365 40.9888C28.1017 40.9846 23.7975 40.6544 19.3467 43.4869C15.379 46.0114 16.684 53.3254 16.6977 53.3992C16.8022 53.9594 16.6408 54.5396 16.262 54.9637C15.8833 55.3899 15.3295 55.6283 14.7598 55.5819C14.7366 55.5808 11.8513 55.4321 9.65385 56.8963C8.87319 57.4164 9.21921 60.7975 10.3522 63.7239L15.2102 75.9824C15.2704 76.1259 16.8834 79.8868 21.7604 81.6422C27.4634 83.6972 30.9363 83.309 33.3711 80.352C34.0199 79.5661 35.1835 79.4521 35.9705 80.0999C36.7586 80.7486 36.8714 81.9133 36.2226 82.7003C33.7773 85.6689 30.7738 86.6268 27.8147 86.6268Z" fill="#130B43"/>
<path d="M37.6214 82.7974C34.5146 82.7974 32.0503 81.6823 31.9068 81.6169C25.6109 78.5143 22.5842 74.7228 22.4587 74.5614C22.3638 74.4443 22.2857 74.3135 22.2234 74.1732L16.666 61.7059C16.2503 60.7744 16.6692 59.6814 17.6017 59.2658C18.5343 58.8533 19.6251 59.27 20.0408 60.2026L25.4917 72.4325C26.0845 73.1119 28.7209 75.9276 33.4987 78.2833C33.5008 78.2833 37.0813 79.8636 40.321 78.6388C42.1281 77.9552 43.5523 76.4804 44.5545 74.2523C44.9733 73.3208 46.0673 72.9073 46.9967 73.325C47.9261 73.7449 48.3418 74.8378 47.923 75.7693C46.4967 78.9373 44.3667 81.0694 41.5912 82.1085C40.2377 82.6159 38.8768 82.7974 37.6214 82.7974Z" fill="#130B43"/>
<path d="M55.1378 77.6292C53.0343 77.6292 50.283 77.3539 46.6867 76.6197C35.0042 74.2397 33.2108 66.5703 32.9871 65.2516L27.7979 47.1825C27.5162 46.2014 28.0827 45.1791 29.0638 44.8964C30.0449 44.6168 31.0682 45.1823 31.3488 46.1623L36.5697 64.3443C36.5972 64.4403 36.6172 64.5384 36.6288 64.6376C36.6626 64.8781 37.6352 71.0063 47.423 73.0022C56.1369 74.7777 58.5305 73.5076 58.8016 73.3335C59.4125 72.6604 60.4431 72.5254 61.2132 73.0571C62.0551 73.6352 62.2661 74.7851 61.689 75.6259C61.1879 76.3559 59.6614 77.6292 55.1378 77.6292Z" fill="#130B43"/>
<path d="M40.7704 95.9629C39.2587 95.9629 37.787 94.9935 36.8281 93.2939C34.9735 90.0067 35.1898 84.4915 40.0478 80.1546C46.9651 73.979 57.3647 73.7321 57.8036 73.7237C57.8141 73.7237 57.8257 73.7237 57.8363 73.7237C58.8406 73.7237 59.6645 74.5286 59.6824 75.5392C59.6993 76.5583 58.8859 77.3991 57.8669 77.417C57.7751 77.4181 48.3861 77.6628 42.5079 82.9112C38.803 86.2184 39.3927 89.5816 39.6606 90.5342C40.0045 91.7506 40.6122 92.2379 40.7831 92.2696C43.7506 91.3444 60.2299 90.5004 63.3346 90.3496C64.2577 89.8907 69.7508 86.7121 79.3266 71.9535C83.3164 65.8042 79.6061 61.9631 79.5681 61.9241C79.469 61.827 79.3825 61.7194 79.3107 61.6023L63.6691 36.6571C63.1279 35.7931 63.3906 34.6538 64.2535 34.1105C65.1186 33.5682 66.2568 33.8299 66.8012 34.6939L82.3427 59.4798C84.3587 61.6551 86.7924 67.2368 82.427 73.9631C71.0927 91.4341 64.9508 93.737 64.2883 93.9438C64.1396 93.9892 63.9877 94.0166 63.8305 94.024C56.3994 94.3784 43.853 95.177 41.8222 95.8026C41.4741 95.9102 41.1217 95.9629 40.7704 95.9629Z" fill="#130B43"/>
<path d="M60.1667 76.4265C59.8059 76.4265 59.4409 76.3199 59.1212 76.0984C58.2804 75.5192 58.0694 74.3704 58.6486 73.5296C59.6329 72.0959 60.9874 69.409 60.768 68.1926C60.3239 67.239 55.9226 64.4349 51.3758 62.2892C50.9127 62.0708 50.5625 61.6699 50.4053 61.1836L46.4345 48.8164C46.1222 47.8448 46.6581 46.8057 47.6286 46.4924C48.6066 46.1812 49.6404 46.7161 49.9516 47.6866L53.6788 59.2931C58.4566 61.6013 63.9043 64.7925 64.4023 67.5312C64.9709 70.6707 62.2407 74.824 61.6879 75.6258C61.3292 76.1469 60.7532 76.4265 60.1667 76.4265Z" fill="#130B43"/>
<path d="M41.2758 95.8859C40.3601 95.8859 39.5668 95.2065 39.4465 94.275C39.0942 91.5448 39.5668 89.3442 40.8496 87.7312C42.8814 85.1782 46.329 84.8396 48.6108 84.6149L49.1889 84.5558C50.3536 84.4366 51.4528 84.8016 52.2504 85.6086C54.1957 87.5719 53.8328 91.6091 53.741 92.3972C53.6207 93.411 52.7124 94.1326 51.6913 94.0176C50.6785 93.8984 49.9548 92.9827 50.0719 91.971C50.2608 90.3031 49.9822 88.5044 49.6204 88.2038L48.9716 88.2924C47.1128 88.4749 44.7982 88.7038 43.7412 90.0331C43.104 90.8327 42.892 92.1029 43.1114 93.8024C43.2411 94.8151 42.527 95.7403 41.5153 95.8711C41.4351 95.8806 41.3549 95.8859 41.2758 95.8859Z" fill="#130B43"/>
<path d="M62.1764 72.5412C61.8958 72.5412 61.612 72.4768 61.3451 72.3439C60.4347 71.8819 60.0697 70.7721 60.5297 69.8606C61.5614 67.8203 61.7576 64.8169 60.9675 63.1638C60.5276 62.2449 60.9168 61.1404 61.8378 60.7005C62.7567 60.2606 63.8622 60.6488 64.3001 61.5708C65.5839 64.2567 65.3856 68.4438 63.8274 71.5274C63.5004 72.172 62.8516 72.5412 62.1764 72.5412Z" fill="#130B43"/>
<path d="M29.5744 74.4063C28.8845 74.4063 28.2231 74.017 27.9055 73.3535C27.4667 72.4335 27.857 71.3301 28.778 70.8912L32.3479 69.1864C33.2689 68.7497 34.3713 69.139 34.8112 70.0578C35.25 70.9798 34.8597 72.0812 33.9387 72.5211L30.3688 74.2248C30.1125 74.3483 29.8413 74.4063 29.5744 74.4063Z" fill="#130B43"/>
<path d="M41.1818 67.7833C40.5953 67.7833 40.0182 67.5038 39.6606 66.9858C39.0814 66.145 39.2914 64.9951 40.1322 64.4138L43.8213 61.8661C44.66 61.287 45.812 61.4979 46.3911 62.3377C46.9703 63.1774 46.7593 64.3284 45.9206 64.9086L42.2304 67.4552C41.9097 67.6768 41.5437 67.7833 41.1818 67.7833Z" fill="#130B43"/>
<path d="M20.9976 79.6937C20.2106 79.6937 19.4806 79.1873 19.2358 78.3961C18.932 77.4203 19.4763 76.3864 20.4501 76.0826L21.2487 75.8347C22.2234 75.5309 23.2573 76.0752 23.5611 77.05C23.8649 78.0237 23.3195 79.0596 22.3458 79.3614L21.5483 79.6103C21.3647 79.6673 21.1801 79.6937 20.9976 79.6937Z" fill="#130B43"/>
<path d="M39.3527 22.465C38.8716 22.465 38.3906 22.2773 38.0287 21.9049L29.049 12.6688C28.338 11.9377 28.3538 10.7678 29.086 10.0568C29.816 9.34681 30.9859 9.36263 31.698 10.0937L40.6777 19.3297C41.3887 20.0608 41.3729 21.2297 40.6408 21.9418C40.281 22.291 39.8169 22.465 39.3527 22.465Z" fill="#130B43"/>
<path d="M56.0577 17.8466C55.0376 17.8466 54.2095 17.0195 54.2095 16.0005V2.14482C54.2095 1.12468 55.0376 0.297607 56.0577 0.297607C57.0779 0.297607 57.9049 1.12468 57.9049 2.14482V15.9994C57.9049 17.0195 57.0779 17.8466 56.0577 17.8466Z" fill="#130B43"/>
<path d="M71.4566 22.465C70.9818 22.465 70.5071 22.2825 70.1453 21.9175C69.4268 21.1927 69.4321 20.0238 70.1569 19.3054L79.9373 9.60731C80.662 8.88994 81.8309 8.89311 82.5504 9.61786C83.2698 10.3426 83.2646 11.5125 82.5388 12.231L72.7584 21.928C72.3965 22.2856 71.9271 22.465 71.4566 22.465Z" fill="#130B43"/>
<path d="M90.4341 37.2576H75.7366C74.7175 37.2576 73.8894 36.4305 73.8894 35.4104C73.8894 34.3902 74.7175 33.5642 75.7366 33.5642H90.4341C91.4532 33.5642 92.2813 34.3902 92.2813 35.4104C92.2813 36.4305 91.4532 37.2576 90.4341 37.2576Z" fill="#130B43"/>
<path d="M44.8709 44.7635C43.8508 44.7635 43.0237 43.9354 43.0237 42.9153C43.0237 40.0194 45.0555 36.8113 47.9629 35.1139C49.8777 33.9967 53.8801 32.5673 59.1675 35.556C60.0568 36.0581 60.3691 37.1848 59.8669 38.0731C59.3648 38.9603 58.237 39.2746 57.3498 38.7725C54.5827 37.2091 51.9812 37.0487 49.826 38.3051C47.8796 39.4403 46.7181 41.5407 46.7181 42.9153C46.7181 43.9354 45.891 44.7635 44.8709 44.7635Z" fill="#130B43"/>
</svg>

