<svg width="96" height="96" viewBox="0 0 96 96" fill="none" xmlns="http://www.w3.org/2000/svg">
<path d="M86.4001 50.4069C86.4008 44.6759 85.1188 39.0174 82.6479 33.8463C80.177 28.6753 76.58 24.1229 72.1207 20.523C67.6613 16.9231 62.4528 14.367 56.8769 13.0422C51.3011 11.7173 45.4995 11.6574 39.8975 12.8667C34.2954 14.076 29.0351 16.5238 24.5024 20.0308C19.9696 23.5377 16.2792 28.0148 13.702 33.1336C11.1247 38.2525 9.72594 43.8833 9.6082 49.6132C9.49046 55.343 10.6568 61.0265 13.0215 66.247H82.9787C85.2378 61.2721 86.4045 55.8708 86.4001 50.4069Z" fill="#C7F0FF"/>
<path d="M13.0215 66.2468C16.0673 72.9706 20.9864 78.674 27.19 82.6742C33.3935 86.6745 40.6186 88.8019 48 88.8019C55.3815 88.8019 62.6065 86.6745 68.8101 82.6742C75.0136 78.674 79.9328 72.9706 82.9786 66.2468H13.0215Z" fill="#CCF7AD"/>
<path fill-rule="evenodd" clip-rule="evenodd" d="M9.76001 66.2465C9.76001 65.8047 10.1182 65.4465 10.56 65.4465H85.44C85.8818 65.4465 86.24 65.8047 86.24 66.2465C86.24 66.6884 85.8818 67.0465 85.44 67.0465H10.56C10.1182 67.0465 9.76001 66.6884 9.76001 66.2465Z" fill="#45413C"/>
<path fill-rule="evenodd" clip-rule="evenodd" d="M5.44006 66.2465C5.44006 65.8047 5.79824 65.4465 6.24006 65.4465H8.64006C9.08189 65.4465 9.44006 65.8047 9.44006 66.2465C9.44006 66.6884 9.08189 67.0465 8.64006 67.0465H6.24006C5.79824 67.0465 5.44006 66.6884 5.44006 66.2465Z" fill="#45413C"/>
<path fill-rule="evenodd" clip-rule="evenodd" d="M86.5601 66.2465C86.5601 65.8047 86.9182 65.4465 87.3601 65.4465H89.76C90.2019 65.4465 90.56 65.8047 90.56 66.2465C90.56 66.6884 90.2019 67.0465 89.76 67.0465H87.3601C86.9182 67.0465 86.5601 66.6884 86.5601 66.2465Z" fill="#45413C"/>
<path d="M37.5686 66.2506H29.9011L33.7354 52.4478H41.4029L37.5686 66.2506Z" fill="#DEA47A"/>
<path d="M33.7355 52.4478H41.403L38.4558 63.0586C36.0714 62.1708 33.8302 60.9378 31.804 59.3991L33.7355 52.4478Z" fill="#BF8256"/>
<path d="M57.506 66.2506H65.1745L61.3402 52.4478H53.6718L57.506 66.2506Z" fill="#DEA47A"/>
<path d="M61.3441 52.4478H53.6718L56.619 63.0586C59.0034 62.171 61.2446 60.938 63.2708 59.3991L61.3441 52.4478Z" fill="#BF8256"/>
<path fill-rule="evenodd" clip-rule="evenodd" d="M32.9646 52.2336C33.0608 51.8873 33.3761 51.6477 33.7354 51.6477H41.403C41.653 51.6477 41.8886 51.7646 42.0399 51.9636C42.1911 52.1626 42.2407 52.4209 42.1738 52.6618L38.3395 66.4647C38.2434 66.811 37.9281 67.0506 37.5687 67.0506H29.9012C29.6512 67.0506 29.4156 66.9337 29.2643 66.7347C29.113 66.5357 29.0635 66.2773 29.1304 66.0365L32.9646 52.2336ZM34.3435 53.2477L30.9537 65.4506H36.9607L40.3504 53.2477H34.3435Z" fill="#45413C"/>
<path fill-rule="evenodd" clip-rule="evenodd" d="M53.0348 51.9636C53.1861 51.7646 53.4217 51.6477 53.6717 51.6477H61.3402C61.6996 51.6477 62.0148 51.8873 62.111 52.2336L65.9452 66.0365C66.0122 66.2773 65.9626 66.5357 65.8113 66.7347C65.6601 66.9337 65.4244 67.0506 65.1744 67.0506H57.506C57.1466 67.0506 56.8313 66.811 56.7351 66.4647L52.9009 52.6618C52.834 52.4209 52.8835 52.1626 53.0348 51.9636ZM54.7242 53.2477L58.114 65.4506H64.1219L60.7321 53.2477H54.7242Z" fill="#45413C"/>
<path d="M24.5328 38.6446C24.5328 41.6656 25.1279 44.657 26.2839 47.448C27.44 50.2391 29.1345 52.7751 31.2707 54.9112C33.4069 57.0474 35.9429 58.7419 38.7339 59.898C41.5249 61.0541 44.5163 61.6491 47.5373 61.6491C50.5583 61.6491 53.5497 61.0541 56.3408 59.898C59.1318 58.7419 61.6678 57.0474 63.8039 54.9112C65.9401 52.7751 67.6346 50.2391 68.7907 47.448C69.9468 44.657 70.5418 41.6656 70.5418 38.6446C70.5418 35.6236 69.9468 32.6322 68.7907 29.8412C67.6346 27.0501 65.9401 24.5142 63.8039 22.378C61.6678 20.2418 59.1318 18.5473 56.3408 17.3912C53.5497 16.2352 50.5583 15.6401 47.5373 15.6401C44.5163 15.6401 41.5249 16.2352 38.7339 17.3912C35.9429 18.5473 33.4069 20.2418 31.2707 22.378C29.1345 24.5142 27.44 27.0501 26.2839 29.8412C25.1279 32.6322 24.5328 35.6236 24.5328 38.6446Z" fill="#656769"/>
<path fill-rule="evenodd" clip-rule="evenodd" d="M38.4278 16.6523C41.3159 15.4561 44.4113 14.8403 47.5374 14.8403C50.6634 14.8403 53.7589 15.4561 56.647 16.6523C59.5351 17.8486 62.1592 19.6021 64.3697 21.8125C66.5801 24.023 68.3336 26.6471 69.5299 29.5352C70.7261 32.4233 71.3419 35.5188 71.3419 38.6448C71.3419 41.7709 70.7261 44.8663 69.5299 47.7544C68.3336 50.6425 66.5801 53.2667 64.3697 55.4771C62.1592 57.6876 59.5351 59.441 56.647 60.6373C53.7589 61.8336 50.6634 62.4493 47.5374 62.4493C44.4113 62.4493 41.3159 61.8336 38.4278 60.6373C35.5397 59.441 32.9155 57.6876 30.7051 55.4771C28.4946 53.2667 26.7412 50.6425 25.5449 47.7544C24.3486 44.8663 23.7329 41.7709 23.7329 38.6448C23.7329 35.5188 24.3486 32.4233 25.5449 29.5352C26.7412 26.6471 28.4946 24.023 30.7051 21.8125C32.9155 19.6021 35.5397 17.8486 38.4278 16.6523ZM47.5374 16.4403C44.6215 16.4403 41.7341 17.0147 39.0401 18.1305C36.3461 19.2464 33.8983 20.882 31.8365 22.9439C29.7746 25.0058 28.139 27.4536 27.0231 30.1475C25.9072 32.8415 25.3329 35.7289 25.3329 38.6448C25.3329 41.5608 25.9072 44.4481 27.0231 47.1421C28.139 49.8361 29.7746 52.2839 31.8365 54.3458C33.8983 56.4076 36.3461 58.0432 39.0401 59.1591C41.7341 60.275 44.6215 60.8493 47.5374 60.8493C50.4533 60.8493 53.3407 60.275 56.0347 59.1591C58.7286 58.0432 61.1764 56.4076 63.2383 54.3458C65.3002 52.2839 66.9358 49.8361 68.0517 47.1421C69.1675 44.4481 69.7419 41.5608 69.7419 38.6448C69.7419 35.7289 69.1675 32.8415 68.0517 30.1475C66.9358 27.4536 65.3002 25.0058 63.2383 22.9439C61.1764 20.882 58.7286 19.2464 56.0347 18.1305C53.3407 17.0147 50.4533 16.4403 47.5374 16.4403Z" fill="#45413C"/>
<path d="M29.134 38.645C29.134 43.5258 31.0729 48.2068 34.5242 51.658C37.9755 55.1093 42.6564 57.0482 47.5372 57.0482C52.4181 57.0482 57.099 55.1093 60.5503 51.658C64.0015 48.2068 65.9404 43.5258 65.9404 38.645C65.9404 33.7642 64.0015 29.0833 60.5503 25.632C57.099 22.1807 52.4181 20.2418 47.5372 20.2418C42.6564 20.2418 37.9755 22.1807 34.5242 25.632C31.0729 29.0833 29.134 33.7642 29.134 38.645Z" fill="white"/>
<path fill-rule="evenodd" clip-rule="evenodd" d="M33.9586 25.0661C37.5599 21.4648 42.4443 19.4417 47.5373 19.4417C52.6303 19.4417 57.5147 21.4648 61.116 25.0661C64.7173 28.6674 66.7405 33.5518 66.7405 38.6449C66.7405 43.7379 64.7173 48.6223 61.116 52.2236C57.5147 55.8249 52.6303 57.8481 47.5373 57.8481C42.4443 57.8481 37.5599 55.8249 33.9586 52.2236C30.3573 48.6223 28.3341 43.7379 28.3341 38.6449C28.3341 33.5518 30.3573 28.6674 33.9586 25.0661ZM47.5373 21.0417C42.8686 21.0417 38.3912 22.8963 35.09 26.1975C31.7887 29.4987 29.9341 33.9762 29.9341 38.6449C29.9341 43.3135 31.7887 47.791 35.09 51.0922C38.3912 54.3934 42.8686 56.2481 47.5373 56.2481C52.206 56.2481 56.6834 54.3934 59.9846 51.0922C63.2859 47.791 65.1405 43.3135 65.1405 38.6449C65.1405 33.9762 63.2859 29.4987 59.9846 26.1975C56.6834 22.8963 52.206 21.0417 47.5373 21.0417Z" fill="#45413C"/>
<path d="M33.7345 38.6447C33.7345 42.3054 35.1887 45.8162 37.7773 48.4048C40.3658 50.9933 43.8766 52.4476 47.5374 52.4476C51.1981 52.4476 54.7089 50.9933 57.2975 48.4048C59.886 45.8162 61.3403 42.3054 61.3403 38.6447C61.3403 34.9839 59.886 31.4731 57.2975 28.8846C54.7089 26.296 51.1981 24.8418 47.5374 24.8418C43.8766 24.8418 40.3658 26.296 37.7773 28.8846C35.1887 31.4731 33.7345 34.9839 33.7345 38.6447Z" fill="#00B8F0"/>
<path fill-rule="evenodd" clip-rule="evenodd" d="M37.2115 28.319C39.9501 25.5804 43.6644 24.0419 47.5373 24.0419C51.4103 24.0419 55.1246 25.5804 57.8631 28.319C60.6017 31.0575 62.1402 34.7718 62.1402 38.6448C62.1402 42.5177 60.6017 46.232 57.8631 48.9705C55.1246 51.7091 51.4103 53.2476 47.5373 53.2476C43.6644 53.2476 39.9501 51.7091 37.2115 48.9705C34.473 46.232 32.9344 42.5177 32.9344 38.6448C32.9344 34.7718 34.473 31.0575 37.2115 28.319ZM47.5373 25.6419C44.0888 25.6419 40.7814 27.0118 38.3429 29.4503C35.9044 31.8888 34.5344 35.1962 34.5344 38.6448C34.5344 42.0933 35.9044 45.4007 38.3429 47.8392C40.7814 50.2777 44.0888 51.6476 47.5373 51.6476C50.9859 51.6476 54.2933 50.2777 56.7318 47.8392C59.1703 45.4007 60.5402 42.0933 60.5402 38.6448C60.5402 35.1962 59.1703 31.8888 56.7318 29.4503C54.2933 27.0118 50.9859 25.6419 47.5373 25.6419Z" fill="#45413C"/>
<path d="M38.3357 38.645C38.3357 41.0854 39.3051 43.4258 41.0308 45.1515C42.7564 46.8771 45.0969 47.8466 47.5373 47.8466C49.9777 47.8466 52.3182 46.8771 54.0438 45.1515C55.7695 43.4258 56.7389 41.0854 56.7389 38.645C56.7389 36.2045 55.7695 33.8641 54.0438 32.1384C52.3182 30.4128 49.9777 29.4434 47.5373 29.4434C45.0969 29.4434 42.7564 30.4128 41.0308 32.1384C39.3051 33.8641 38.3357 36.2045 38.3357 38.645Z" fill="#FFE500"/>
<path fill-rule="evenodd" clip-rule="evenodd" d="M40.4652 31.5728C42.3408 29.6972 44.8848 28.6434 47.5374 28.6434C50.19 28.6434 52.7339 29.6972 54.6096 31.5728C56.4852 33.4485 57.539 35.9924 57.539 38.645C57.539 41.2976 56.4852 43.8416 54.6096 45.7172C52.7339 47.5929 50.19 48.6466 47.5374 48.6466C44.8848 48.6466 42.3408 47.5929 40.4652 45.7172C38.5895 43.8416 37.5358 41.2976 37.5358 38.645C37.5358 35.9924 38.5895 33.4485 40.4652 31.5728ZM47.5374 30.2434C45.3091 30.2434 43.1721 31.1286 41.5965 32.7042C40.0209 34.2798 39.1358 36.4168 39.1358 38.645C39.1358 40.8733 40.0209 43.0103 41.5965 44.5859C43.1721 46.1615 45.3091 47.0466 47.5374 47.0466C49.7656 47.0466 51.9026 46.1615 53.4782 44.5859C55.0538 43.0103 55.939 40.8733 55.939 38.645C55.939 36.4168 55.0538 34.2798 53.4782 32.7042C51.9026 31.1286 49.7656 30.2434 47.5374 30.2434Z" fill="#45413C"/>
<path d="M42.936 38.6447C42.936 39.8651 43.4208 41.0354 44.2837 41.8983C45.1466 42.7612 46.317 43.246 47.5373 43.246C48.7577 43.246 49.928 42.7612 50.7909 41.8983C51.6538 41.0354 52.1386 39.8651 52.1386 38.6447C52.1386 37.4244 51.6538 36.254 50.7909 35.3911C49.928 34.5282 48.7577 34.0435 47.5373 34.0435C46.317 34.0435 45.1466 34.5282 44.2837 35.3911C43.4208 36.254 42.936 37.4244 42.936 38.6447Z" fill="#FF6242"/>
<path fill-rule="evenodd" clip-rule="evenodd" d="M43.718 34.8256C44.7309 33.8127 46.1048 33.2437 47.5373 33.2437C48.9698 33.2437 50.3436 33.8127 51.3565 34.8256C52.3695 35.8386 52.9385 37.2124 52.9385 38.6449C52.9385 40.0774 52.3695 41.4513 51.3565 42.4642C50.3436 43.4771 48.9698 44.0462 47.5373 44.0462C46.1048 44.0462 44.7309 43.4771 43.718 42.4642C42.7051 41.4513 42.136 40.0774 42.136 38.6449C42.136 37.2124 42.7051 35.8386 43.718 34.8256ZM47.5373 34.8437C46.5291 34.8437 45.5622 35.2441 44.8494 35.957C44.1365 36.6699 43.736 37.6368 43.736 38.6449C43.736 39.6531 44.1365 40.62 44.8494 41.3328C45.5622 42.0457 46.5291 42.4462 47.5373 42.4462C48.5454 42.4462 49.5123 42.0457 50.2252 41.3328C50.9381 40.62 51.3385 39.6531 51.3385 38.6449C51.3385 37.6368 50.9381 36.6699 50.2252 35.957C49.5123 35.2441 48.5454 34.8437 47.5373 34.8437Z" fill="#45413C"/>
<path d="M71.5508 9.44648C70.3486 10.648 69.3982 12.0774 68.7553 13.6508C68.1125 15.2242 67.79 16.9101 67.8068 18.6097C71.2507 18.5743 74.5471 17.2067 77.0045 14.7937L79.2778 12.5607L75.4666 10.9729L73.8029 7.19336L71.5508 9.44648Z" fill="#FF6242"/>
<path fill-rule="evenodd" clip-rule="evenodd" d="M73.9503 6.40701C74.2098 6.45566 74.4287 6.62929 74.5351 6.87102L76.0698 10.3575L79.5854 11.8222C79.833 11.9253 80.0124 12.1456 80.0633 12.4089C80.1141 12.6722 80.0297 12.9435 79.8384 13.1314L77.5651 15.3644C74.9601 17.9223 71.4656 19.3721 67.8149 19.4096C67.6027 19.4118 67.3983 19.3295 67.2468 19.181C67.0952 19.0324 67.0089 18.8298 67.0068 18.6175C66.9889 16.8115 67.3316 15.0201 68.0147 13.3481C68.6978 11.6763 69.7076 10.1576 70.9849 8.88088C70.985 8.88079 70.9848 8.88097 70.9849 8.88088L73.2371 6.62776C73.4238 6.44097 73.6907 6.35836 73.9503 6.40701ZM73.5419 8.58606L72.1165 10.012C70.9896 11.1383 70.0985 12.4784 69.4959 13.9533C68.9978 15.1722 68.7049 16.4631 68.6271 17.7737C71.5608 17.549 74.332 16.2966 76.444 14.2228L77.8566 12.8352L75.1589 11.7113C74.9692 11.6323 74.8172 11.4833 74.7344 11.2951L73.5419 8.58606Z" fill="#45413C"/>
<path d="M75.4685 10.9729L73.8029 7.19336L71.5508 9.44648C70.3486 10.648 69.3982 12.0774 68.7553 13.6508C68.1125 15.2242 67.79 16.9101 67.8068 18.6097L75.4685 10.9729Z" fill="#FF866E"/>
<path fill-rule="evenodd" clip-rule="evenodd" d="M73.9503 6.40701C74.2098 6.45566 74.4287 6.62929 74.5351 6.87102L76.0698 10.3575L79.5854 11.8222C79.833 11.9253 80.0124 12.1456 80.0633 12.4089C80.1141 12.6722 80.0297 12.9435 79.8384 13.1314L77.5651 15.3644C74.9601 17.9223 71.4656 19.3721 67.8149 19.4096C67.6027 19.4118 67.3983 19.3295 67.2468 19.181C67.0952 19.0324 67.0089 18.8298 67.0068 18.6175C66.9889 16.8115 67.3316 15.0201 68.0147 13.3481C68.6978 11.6763 69.7076 10.1576 70.9849 8.88088C70.985 8.88079 70.9848 8.88097 70.9849 8.88088L73.2371 6.62776C73.4238 6.44097 73.6907 6.35836 73.9503 6.40701ZM73.5419 8.58606L72.1165 10.012C70.9896 11.1383 70.0985 12.4784 69.4959 13.9533C68.9978 15.1722 68.7049 16.4631 68.6271 17.7737C71.5608 17.549 74.332 16.2966 76.444 14.2228L77.8566 12.8352L75.1589 11.7113C74.9692 11.6323 74.8172 11.4833 74.7344 11.2951L73.5419 8.58606Z" fill="#45413C"/>
<path fill-rule="evenodd" clip-rule="evenodd" d="M76.0352 10.408C76.3471 10.7209 76.3464 11.2274 76.0335 11.5394L48.2789 39.2114C47.966 39.5233 47.4595 39.5226 47.1475 39.2097C46.8356 38.8968 46.8363 38.3903 47.1492 38.0783L74.9038 10.4063C75.2167 10.0944 75.7232 10.0951 76.0352 10.408Z" fill="#45413C"/>
<path d="M80.6027 20.86C79.0336 21.5126 77.6105 22.4717 76.4167 23.6811C75.2229 24.8906 74.2824 26.3261 73.6504 27.9036C76.8468 29.1849 80.4154 29.1777 83.6065 27.8834L86.5604 26.6882L83.6421 23.7669L83.5461 19.6389L80.6027 20.86Z" fill="#FF6242"/>
<path d="M83.642 23.7648L83.546 19.6368L80.6045 20.8608C79.0354 21.5134 77.6123 22.4725 76.4185 23.6819C75.2247 24.8914 74.2843 26.3269 73.6522 27.9044L83.642 23.7648Z" fill="#FF866E"/>
<path fill-rule="evenodd" clip-rule="evenodd" d="M83.9825 18.9684C84.2037 19.1125 84.3396 19.3564 84.3458 19.6203L84.4343 23.4281L87.1263 26.1227C87.316 26.3125 87.3978 26.5847 87.3443 26.8476C87.2908 27.1105 87.1091 27.3291 86.8604 27.4297L83.9071 28.6247C80.5242 29.9968 76.7411 30.0044 73.3526 28.6461C72.9426 28.4817 72.7434 28.016 72.9077 27.606C73.5793 25.9297 74.5787 24.4043 75.8473 23.1191C77.1158 21.8339 78.6281 20.8147 80.2954 20.1213L83.2394 18.8999C83.4832 18.7988 83.7613 18.8244 83.9825 18.9684ZM80.9094 21.5988C80.9093 21.5989 80.9095 21.5988 80.9094 21.5988C79.4387 22.2105 78.1049 23.1095 76.986 24.2431C76.0611 25.1801 75.2985 26.2618 74.7272 27.4438C77.5242 28.3553 80.5633 28.2543 83.3058 27.142L85.1411 26.3994L83.076 24.3323C82.9307 24.1868 82.847 23.991 82.8422 23.7855L82.7734 20.8255L80.9094 21.5988Z" fill="#45413C"/>
<path fill-rule="evenodd" clip-rule="evenodd" d="M84.3811 23.4587C84.5501 23.8669 84.3563 24.3348 83.9481 24.5039L48.023 39.3839C47.6148 39.553 47.1468 39.3591 46.9777 38.9509C46.8087 38.5427 47.0025 38.0748 47.4107 37.9057L83.3358 23.0257C83.744 22.8566 84.212 23.0505 84.3811 23.4587Z" fill="#45413C"/>
</svg>
