<svg viewBox="0 0 135 128" fill="none" xmlns="http://www.w3.org/2000/svg">
<path d="M0.39209 64C0.39209 80.9739 7.13493 97.2525 19.1373 109.255C31.1396 121.257 47.4182 128 64.3921 128C81.3659 128 97.6446 121.257 109.647 109.255C121.649 97.2525 128.392 80.9739 128.392 64C128.392 47.0261 121.649 30.7475 109.647 18.7452C97.6446 6.74284 81.3659 0 64.3921 0C47.4182 0 31.1396 6.74284 19.1373 18.7452C7.13493 30.7475 0.39209 47.0261 0.39209 64Z" fill="#C7F0FF"/>
<path d="M32.3454 49.8033H26.2654V32.1185C26.2406 29.2 26.794 26.3055 27.8937 23.6021C28.9933 20.8986 30.6175 18.4397 32.6724 16.3672C34.7274 14.2947 37.1724 12.6496 39.8664 11.527C42.5604 10.4044 45.4501 9.82642 48.3686 9.82642C51.2872 9.82642 54.1769 10.4044 56.8709 11.527C59.5649 12.6496 62.0099 14.2947 64.0649 16.3672C66.1198 18.4397 67.744 20.8986 68.8436 23.6021C69.9433 26.3055 70.4967 29.2 70.4718 32.1185V35.2001H64.3918V32.1185C64.3918 30.015 63.9775 27.9321 63.1726 25.9888C62.3676 24.0455 61.1878 22.2797 59.7004 20.7923C58.213 19.3049 56.4473 18.1251 54.5039 17.3201C52.5606 16.5152 50.4777 16.1009 48.3743 16.1009C46.2708 16.1009 44.1879 16.5152 42.2446 17.3201C40.3012 18.1251 38.5355 19.3049 37.0481 20.7923C35.5607 22.2797 34.3809 24.0455 33.5759 25.9888C32.771 27.9321 32.3566 30.015 32.3566 32.1185L32.3454 49.8033Z" fill="#FF6242"/>
<path d="M64.381 32.1184V35.2H70.461V32.1184C70.461 31.4784 70.4194 30.8384 70.365 30.2144H64.2578C64.3369 30.846 64.378 31.4818 64.381 32.1184Z" fill="#E04122"/>
<path d="M26.2607 44.3728H32.3471V49.8032H26.2607V44.3728Z" fill="#E04122"/>
<path d="M32.3454 49.8033H26.2654V32.1185C26.2406 29.2 26.794 26.3055 27.8937 23.6021C28.9933 20.8986 30.6175 18.4397 32.6724 16.3672C34.7274 14.2947 37.1724 12.6496 39.8664 11.527C42.5604 10.4044 45.4501 9.82642 48.3686 9.82642C51.2872 9.82642 54.1769 10.4044 56.8709 11.527C59.5649 12.6496 62.0099 14.2947 64.0649 16.3672C66.1198 18.4397 67.744 20.8986 68.8436 23.6021C69.9433 26.3055 70.4967 29.2 70.4718 32.1185V35.2001H64.3918V32.1185C64.3918 30.015 63.9775 27.9321 63.1726 25.9888C62.3676 24.0455 61.1878 22.2797 59.7004 20.7923C58.213 19.3049 56.4473 18.1251 54.5039 17.3201C52.5606 16.5152 50.4777 16.1009 48.3742 16.1009C46.2708 16.1009 44.1879 16.5152 42.2446 17.3201C40.3012 18.1251 38.5355 19.3049 37.0481 20.7923C35.5607 22.2797 34.3809 24.0455 33.5759 25.9888C32.771 27.9321 32.3566 30.015 32.3566 32.1185L32.3454 49.8033Z" stroke="#45413C" stroke-width="1.6" stroke-miterlimit="10"/>
<path d="M113.067 77.7185H94.0495C88.6333 77.6707 83.4553 75.4856 79.6422 71.6388C75.8292 67.792 73.6899 62.5949 73.6899 57.1785C73.6899 51.7621 75.8292 46.565 79.6422 42.7182C83.4553 38.8714 88.6333 36.6863 94.0495 36.6385H113.067C115.78 36.6146 118.47 37.1282 120.983 38.1497C123.496 39.1712 125.782 40.6803 127.709 42.59C129.635 44.4997 131.165 46.7721 132.208 49.276C133.252 51.7799 133.789 54.4658 133.789 57.1785C133.789 59.8912 133.252 62.5771 132.208 65.081C131.165 67.5849 129.635 69.8573 127.709 71.767C125.782 73.6767 123.496 75.1858 120.983 76.2073C118.47 77.2288 115.78 77.7424 113.067 77.7185ZM94.0495 42.7201C90.2425 42.7602 86.605 44.3006 83.9271 47.0068C81.2492 49.713 79.7471 53.3665 79.7471 57.1737C79.7471 60.9809 81.2492 64.6344 83.9271 67.3406C86.605 70.0468 90.2425 71.5872 94.0495 71.6273H113.067C114.978 71.6474 116.874 71.2884 118.645 70.5711C120.416 69.8537 122.028 68.7923 123.386 67.4481C124.744 66.104 125.823 64.5038 126.559 62.7403C127.295 60.9767 127.674 59.0847 127.674 57.1737C127.674 55.2627 127.295 53.3707 126.559 51.6071C125.823 49.8436 124.744 48.2434 123.386 46.8993C122.028 45.5551 120.416 44.4937 118.645 43.7763C116.874 43.059 114.978 42.7 113.067 42.7201H94.0495Z" fill="#FF6242" stroke="#45413C" stroke-width="1.6" stroke-miterlimit="10"/>
<path opacity="0.15" d="M38.6064 109.864C38.6064 110.225 39.2272 110.582 40.4333 110.915C41.6394 111.248 43.4073 111.55 45.6359 111.805C47.8645 112.06 50.5102 112.263 53.422 112.401C56.3339 112.539 59.4547 112.61 62.6064 112.61C65.7582 112.61 68.879 112.539 71.7908 112.401C74.7027 112.263 77.3484 112.06 79.577 111.805C81.8056 111.55 83.5734 111.248 84.7796 110.915C85.9857 110.582 86.6064 110.225 86.6064 109.864C86.6064 109.503 85.9857 109.146 84.7796 108.813C83.5734 108.48 81.8056 108.178 79.577 107.923C77.3484 107.668 74.7027 107.465 71.7908 107.327C68.879 107.189 65.7582 107.118 62.6064 107.118C59.4547 107.118 56.3339 107.189 53.422 107.327C50.5102 107.465 47.8645 107.668 45.6359 107.923C43.4073 108.178 41.6394 108.48 40.4333 108.813C39.2272 109.146 38.6064 109.503 38.6064 109.864Z" fill="#45413C"/>
<path d="M19.397 49.8032H104.599V100.923H19.397V49.8032Z" fill="white"/>
<path d="M24.2658 100.925H99.7298C100.369 100.925 101.003 100.799 101.593 100.555C102.184 100.31 102.721 99.9515 103.174 99.4994C103.626 99.0473 103.985 98.5105 104.229 97.9196C104.474 97.3288 104.6 96.6956 104.6 96.0561V88.7537C104.6 89.393 104.474 90.026 104.23 90.6166C103.985 91.2072 103.626 91.7439 103.174 92.1959C102.722 92.6478 102.185 93.0063 101.594 93.2508C101.004 93.4953 100.371 93.6211 99.7314 93.6209H24.2658C22.9748 93.6209 21.7366 93.1081 20.8236 92.1954C19.9105 91.2827 19.3974 90.0447 19.397 88.7537V96.0561C19.3974 97.3472 19.9105 98.5854 20.8235 99.4984C21.7365 100.411 22.9746 100.924 24.2658 100.925Z" fill="#E8F4FA"/>
<path d="M19.397 49.8032H104.599V100.923H19.397V49.8032Z" stroke="#45413C" stroke-width="1.6" stroke-linejoin="round"/>
<path d="M26.7007 57.1072H53.4783V93.6224H26.7007V57.1072Z" fill="#4ACFFF" stroke="#45413C" stroke-width="1.6" stroke-linecap="round" stroke-linejoin="round"/>
<path d="M80.2559 61.9761H99.7311V76.5825H80.2559V61.9761Z" fill="#FFE500" stroke="#45413C" stroke-width="1.6" stroke-linejoin="round"/>
<path d="M86.3408 61.9761H93.6432V76.5825H86.3408V61.9761Z" fill="#FFE500" stroke="#45413C" stroke-width="1.6" stroke-linejoin="round"/>
<path d="M93.645 68.0608H99.7298" stroke="#45413C" stroke-width="1.6" stroke-linejoin="round"/>
<path d="M80.2559 70.4961H86.3407" stroke="#45413C" stroke-width="1.6" stroke-linejoin="round"/>
<path d="M75.6498 45.0304L74.9522 39.1104C74.7311 38.0072 74.1345 37.0147 73.264 36.3017C72.3936 35.5888 71.303 35.1994 70.1778 35.2H53.8178C52.6923 35.1999 51.6015 35.5898 50.7311 36.3033C49.8606 37.0168 49.2643 38.0099 49.0434 39.1136L48.3474 42.5968C47.7922 45.3728 45.3538 49.8047 42.5234 49.8047H81.4722C80.0994 49.8047 78.769 49.329 77.7075 48.4585C76.6459 47.588 75.9188 46.3766 75.6498 45.0304ZM65.6498 44.9344H58.3474C58.0279 44.9344 57.7114 44.8714 57.4161 44.7491C57.1209 44.6268 56.8526 44.4475 56.6266 44.2216C56.4006 43.9956 56.2214 43.7273 56.0991 43.4321C55.9768 43.1368 55.9138 42.8203 55.9138 42.5008C55.9138 42.1812 55.9768 41.8647 56.0991 41.5695C56.2214 41.2742 56.4006 41.0059 56.6266 40.7799C56.8526 40.554 57.1209 40.3747 57.4161 40.2524C57.7114 40.1301 58.0279 40.0672 58.3474 40.0672H65.6498C66.2953 40.0672 66.9143 40.3235 67.3707 40.7799C67.827 41.2363 68.0834 41.8553 68.0834 42.5008C68.0834 43.1462 67.827 43.7652 67.3707 44.2216C66.9143 44.678 66.2953 44.9344 65.6498 44.9344Z" fill="#DAEDF7" stroke="#45413C" stroke-width="1.6" stroke-linejoin="round"/>
<path d="M58.3472 59.5408H70.16" stroke="#45413C" stroke-width="1.6" stroke-linecap="round" stroke-linejoin="round"/>
<path d="M58.3472 64.4097H70.16" stroke="#45413C" stroke-width="1.6" stroke-linecap="round" stroke-linejoin="round"/>
<path d="M58.3472 88.7537H70.16" stroke="#45413C" stroke-width="1.6" stroke-linecap="round" stroke-linejoin="round"/>
<path d="M58.3472 93.6208H70.16" stroke="#45413C" stroke-width="1.6" stroke-linecap="round" stroke-linejoin="round"/>
<path d="M82.6895 88.7537H96.0783" stroke="#45413C" stroke-width="1.6" stroke-linecap="round" stroke-linejoin="round"/>
<path d="M82.6895 93.6208H96.0783" stroke="#45413C" stroke-width="1.6" stroke-linecap="round" stroke-linejoin="round"/>
<path d="M58.3472 71.7119H74.1696" stroke="#45413C" stroke-width="1.6" stroke-linecap="round" stroke-linejoin="round"/>
<path d="M58.3472 76.5808H74.1696" stroke="#45413C" stroke-width="1.6" stroke-linecap="round" stroke-linejoin="round"/>
<path d="M32.7871 71.7121C32.7871 73.6488 33.5565 75.5062 34.9259 76.8756C36.2954 78.2451 38.1528 79.0145 40.0895 79.0145C42.0262 79.0145 43.8836 78.2451 45.2531 76.8756C46.6225 75.5062 47.3919 73.6488 47.3919 71.7121C47.3919 69.7754 46.6225 67.918 45.2531 66.5485C43.8836 65.179 42.0262 64.4097 40.0895 64.4097C38.1528 64.4097 36.2954 65.179 34.9259 66.5485C33.5565 67.918 32.7871 69.7754 32.7871 71.7121Z" fill="#B8ECFF" stroke="#45413C" stroke-width="1.6" stroke-linejoin="round"/>
<path d="M53.4449 91.7553C53.2811 88.3233 51.8025 85.086 49.3157 82.7151C46.8289 80.3441 43.5248 79.0215 40.0889 79.0215C36.653 79.0215 33.3489 80.3441 30.8621 82.7151C28.3754 85.086 26.8967 88.3233 26.7329 91.7553C26.7699 92.2605 26.9961 92.7331 27.3662 93.0789C27.7363 93.4247 28.2232 93.6182 28.7297 93.6209H51.4497C51.9561 93.6182 52.4427 93.4246 52.8126 93.0788C53.1825 92.7329 53.4083 92.2603 53.4449 91.7553Z" fill="#B8ECFF" stroke="#45413C" stroke-width="1.6" stroke-linejoin="round"/>
<path d="M43.6738 49.8031H37.5938V38.9951C37.5938 35.3411 39.0453 31.8367 41.6291 29.2529C44.2129 26.6691 47.7173 25.2175 51.3713 25.2175C55.0254 25.2175 58.5298 26.6691 61.1136 29.2529C63.6974 31.8367 65.1489 35.3411 65.1489 38.9951C65.1489 39.7827 64.8361 40.538 64.2792 41.095C63.7223 41.6519 62.9669 41.9647 62.1793 41.9647H62.0322C61.2446 41.9647 60.4892 41.6519 59.9323 41.095C59.3754 40.538 59.0626 39.7827 59.0626 38.9951C59.0626 36.9553 58.2522 34.999 56.8098 33.5566C55.3675 32.1143 53.4112 31.3039 51.3713 31.3039C49.3315 31.3039 47.3752 32.1143 45.9329 33.5566C44.4905 34.999 43.6801 36.9553 43.6801 38.9951L43.6738 49.8031Z" fill="#FF6242" stroke="#45413C" stroke-width="1.6" stroke-miterlimit="10"/>
</svg>
