<svg viewBox="0 0 48 48" fill="none" xmlns="http://www.w3.org/2000/svg">
<path d="M36 42C39.3137 42 42 39.3137 42 36C42 32.6863 39.3137 30 36 30C32.6863 30 30 32.6863 30 36C30 39.3137 32.6863 42 36 42Z" stroke="#76709F" stroke-width="2.5" stroke-linecap="round" stroke-linejoin="round"/>
<path d="M12 18C15.3137 18 18 15.3137 18 12C18 8.68629 15.3137 6 12 6C8.68629 6 6 8.68629 6 12C6 15.3137 8.68629 18 12 18Z" stroke="#76709F" stroke-width="2.5" stroke-linecap="round" stroke-linejoin="round"/>
<path d="M25.9999 12H31.9999C33.0607 12 34.0782 12.4214 34.8283 13.1716C35.5785 13.9217 35.9999 14.9391 35.9999 16V30" stroke="#76709F" stroke-width="2.5" stroke-linecap="round" stroke-linejoin="round"/>
<path d="M12 18V42" stroke="#76709F" stroke-width="2.5" stroke-linecap="round" stroke-linejoin="round"/>
<rect x="24" width="24" height="24" rx="12" fill="#76709F"/>
<path d="M40.5466 17.0134C38.9866 16.2667 37.88 14.9334 37.32 13.4C37.0933 12.84 36.96 12.2 36.9066 11.6534V10.68H39.9066C40.1333 10.68 40.2933 10.4267 40.1333 10.1734L36.1866 5.45336C36.0533 5.28003 35.7466 5.28003 35.6266 5.45336L31.8 10.1734C31.6666 10.3467 31.8 10.68 32.0266 10.68H35.0533V11.6534C34.9733 12.24 34.8266 12.88 34.64 13.4C34.08 14.9334 32.9733 16.2667 31.4133 17.0134C31.1866 17.0934 31.1066 17.3734 31.1866 17.5734L31.5466 18.44C31.6533 18.6667 31.9066 18.7467 32.1333 18.6134C33.8 17.8134 35.1333 16.5334 35.9333 15C36.7733 16.5334 38.0666 17.8 39.7733 18.6134C40 18.72 40.28 18.6934 40.36 18.44L40.72 17.5734C40.88 17.3734 40.7733 17.12 40.5466 17.0134Z" fill="white"/>
</svg>

