<svg width="240" height="240" viewBox="0 0 240 240" fill="none" xmlns="http://www.w3.org/2000/svg">
<path d="M216 129.146C216.002 114.818 212.797 100.672 206.619 87.7444C200.442 74.8168 191.45 63.4358 180.301 54.4361C169.153 45.4364 156.132 39.0461 142.192 35.734C128.253 32.422 113.748 32.272 99.7434 35.2953C85.7383 38.3185 72.5876 44.4382 61.2556 53.2055C49.9236 61.9729 40.6978 73.1656 34.2547 85.9627C27.8116 98.7599 24.3146 112.837 24.0203 127.162C23.7259 141.486 26.6416 155.695 32.5536 168.746H207.446C213.093 156.308 216.01 142.805 216 129.146Z" fill="#C7F0FF"/>
<path d="M32.5547 168.746C40.1692 185.556 52.4671 199.814 67.976 209.815C83.4848 219.815 101.547 225.134 120.001 225.134C138.455 225.134 156.517 219.815 172.026 209.815C187.535 199.814 199.833 185.556 207.447 168.746H32.5547Z" fill="#DAEDF7"/>
<path d="M26.4014 168.746H213.601" stroke="#45413C" stroke-linecap="round" stroke-linejoin="round"/>
<path d="M15.6006 168.746H21.6006" stroke="#45413C" stroke-linecap="round" stroke-linejoin="round"/>
<path d="M218.398 168.746H224.398" stroke="#45413C" stroke-linecap="round" stroke-linejoin="round"/>
<path opacity="0.15" d="M85.1221 208.865C85.1221 210.218 90.9618 211.517 101.357 212.474C111.751 213.432 125.85 213.969 140.55 213.969C155.251 213.969 169.349 213.432 179.744 212.474C190.138 211.517 195.978 210.218 195.978 208.865C195.978 207.511 190.138 206.212 179.744 205.255C169.349 204.298 155.251 203.76 140.55 203.76C125.85 203.76 111.751 204.298 101.357 205.255C90.9618 206.212 85.1221 207.511 85.1221 208.865Z" fill="#45413C"/>
<path d="M184.321 157.082C184.234 145.147 179.432 133.73 170.961 125.321C162.491 116.912 151.04 112.193 139.104 112.193C127.168 112.193 115.717 116.912 107.246 125.321C98.7759 133.73 93.9737 145.147 93.8867 157.082V164.376H111.39V178.963H166.801V164.376H184.321V157.082Z" fill="#9F5AE5"/>
<path d="M139.091 111.866C133.153 111.866 127.273 113.035 121.787 115.308C116.301 117.58 111.316 120.91 107.117 125.109C102.918 129.308 99.5876 134.292 97.3151 139.778C95.0427 145.265 93.873 151.144 93.873 157.082V164.376H94.0194C94.7441 152.915 99.8079 142.16 108.181 134.3C116.553 126.44 127.606 122.065 139.09 122.065C150.574 122.065 161.627 126.44 170 134.3C178.373 142.16 183.436 152.915 184.161 164.376H184.319V157.082C184.319 151.144 183.15 145.263 180.876 139.776C178.603 134.29 175.272 129.305 171.072 125.106C166.872 120.907 161.886 117.576 156.399 115.305C150.911 113.033 145.03 111.865 139.091 111.866Z" fill="#BF8DF2"/>
<path d="M184.321 157.082C184.234 145.147 179.432 133.73 170.961 125.321C162.491 116.912 151.04 112.193 139.104 112.193C127.168 112.193 115.717 116.912 107.246 125.321C98.7759 133.73 93.9737 145.147 93.8867 157.082V164.376H111.39V178.963H166.801V164.376H184.321V157.082Z" stroke="#45413C" stroke-linecap="round" stroke-linejoin="round"/>
<path d="M128.881 113.326C128.922 116.007 130.016 118.564 131.926 120.446C133.837 122.327 136.41 123.381 139.092 123.381C141.773 123.381 144.347 122.327 146.257 120.446C148.168 118.564 149.261 116.007 149.302 113.326V103.114H128.881V113.326Z" fill="#D18660"/>
<path d="M128.881 113.28C135.542 115.277 142.642 115.277 149.302 113.28V103.114H128.881V113.28Z" fill="#BD704A"/>
<path d="M139.093 123.536C136.385 123.536 133.788 122.46 131.873 120.545C129.958 118.631 128.881 116.034 128.881 113.326V103.114H149.302V113.326C149.302 116.034 148.226 118.63 146.311 120.545C144.397 122.459 141.8 123.535 139.093 123.536V123.536Z" stroke="#45413C" stroke-linecap="round" stroke-linejoin="round"/>
<path d="M187.679 199.382H90.498L91.7148 203.702C91.9256 204.552 92.4147 205.306 93.1042 205.845C93.7936 206.384 94.6437 206.676 95.5188 206.676H182.665C183.539 206.676 184.388 206.384 185.076 205.846C185.765 205.308 186.253 204.555 186.464 203.707L187.679 199.382Z" fill="#BDBEC0" stroke="#45413C" stroke-linejoin="round"/>
<path d="M191.602 196.773C191.602 197.466 191.326 198.129 190.837 198.618C190.347 199.107 189.683 199.382 188.991 199.382H89.1918C88.8492 199.382 88.51 199.315 88.1935 199.184C87.877 199.053 87.5894 198.86 87.3471 198.618C87.1049 198.376 86.9127 198.088 86.7816 197.772C86.6505 197.455 86.583 197.116 86.583 196.773V137.088C86.583 135.815 87.0887 134.594 87.9889 133.694C88.8891 132.794 90.11 132.288 91.383 132.288H186.802C188.075 132.288 189.296 132.794 190.196 133.694C191.096 134.594 191.602 135.815 191.602 137.088V196.773Z" fill="#F0F0F0"/>
<path d="M191.602 137.088C191.602 135.815 191.096 134.594 190.196 133.694C189.296 132.794 188.075 132.288 186.802 132.288H91.383C90.11 132.288 88.8891 132.794 87.9889 133.694C87.0887 134.594 86.583 135.815 86.583 137.088V152.263C86.583 150.161 88.287 145.413 90.3894 145.413H187.796C189.898 145.413 191.602 150.161 191.602 152.263V137.088Z" fill="white"/>
<path d="M191.602 196.773C191.602 197.466 191.326 198.129 190.837 198.618C190.347 199.107 189.683 199.382 188.991 199.382H89.1918C88.8492 199.382 88.51 199.315 88.1935 199.184C87.877 199.053 87.5894 198.86 87.3471 198.618C87.1049 198.376 86.9127 198.088 86.7816 197.772C86.6505 197.455 86.583 197.116 86.583 196.773V137.088C86.583 135.815 87.0887 134.594 87.9889 133.694C88.8891 132.794 90.11 132.288 91.383 132.288H186.802C188.075 132.288 189.296 132.794 190.196 133.694C191.096 134.594 191.602 135.815 191.602 137.088V196.773Z" stroke="#45413C" stroke-linejoin="round"/>
<path d="M146.129 171.492C146.119 170.615 146.292 169.746 146.638 168.94C146.984 168.135 147.495 167.411 148.138 166.814C147.856 166.116 147.404 165.5 146.822 165.022C146.24 164.544 145.547 164.219 144.807 164.078C143.819 164.074 142.851 164.355 142.02 164.889C141.189 165.422 140.531 166.185 140.125 167.086C139.718 166.185 139.06 165.422 138.229 164.889C137.398 164.355 136.43 164.074 135.442 164.078C132.562 164.422 130.685 168.353 131.225 172.86C131.765 177.367 134.525 180.739 137.393 180.396C137.944 180.312 138.471 180.114 138.941 179.815C139.411 179.517 139.814 179.123 140.125 178.661C140.435 179.124 140.838 179.517 141.309 179.816C141.78 180.115 142.307 180.312 142.858 180.396C144.956 180.636 146.991 178.896 148.138 176.174C147.494 175.578 146.983 174.853 146.637 174.046C146.291 173.24 146.118 172.37 146.129 171.492Z" fill="white" stroke="#45413C" stroke-linejoin="round"/>
<path d="M143.76 154.925C143.077 155.496 142.532 156.215 142.164 157.026C141.796 157.837 141.616 158.721 141.636 159.612C142.508 159.795 143.411 159.778 144.275 159.562C145.14 159.347 145.945 158.939 146.629 158.368C147.314 157.798 147.86 157.08 148.228 156.268C148.596 155.457 148.775 154.572 148.752 153.681C147.88 153.501 146.979 153.519 146.115 153.734C145.251 153.95 144.446 154.356 143.76 154.925Z" fill="white" stroke="#45413C" stroke-linejoin="round"/>
<path d="M191.568 170.213L198.684 170.1C199.259 170.09 199.829 170.194 200.364 170.405C200.898 170.616 201.385 170.931 201.798 171.33C202.211 171.73 202.541 172.207 202.769 172.734C202.998 173.261 203.12 173.828 203.129 174.403L203.271 183.153C203.279 183.728 203.175 184.299 202.963 184.834C202.751 185.368 202.436 185.856 202.036 186.269C201.636 186.681 201.158 187.011 200.63 187.239C200.103 187.467 199.535 187.589 198.96 187.598L191.842 187.713C190.454 187.751 189.099 187.286 188.026 186.404C186.954 185.522 186.236 184.283 186.005 182.913C185.635 180.358 185.594 177.765 185.885 175.2C186.071 173.823 186.749 172.56 187.794 171.643C188.838 170.727 190.179 170.218 191.568 170.213Z" fill="#D18660"/>
<path d="M191.487 175.793L198.812 175.675C199.792 175.652 200.753 175.952 201.546 176.529C202.339 177.106 202.921 177.927 203.201 178.867L203.129 174.403C203.12 173.828 202.998 173.261 202.77 172.734C202.541 172.207 202.211 171.73 201.799 171.33C201.386 170.931 200.898 170.616 200.364 170.405C199.83 170.194 199.259 170.09 198.684 170.1L191.568 170.213C190.179 170.218 188.838 170.727 187.794 171.643C186.75 172.56 186.072 173.823 185.885 175.2C185.716 176.835 185.682 178.481 185.784 180.122C186.132 178.877 186.878 177.78 187.907 176.998C188.937 176.216 190.194 175.793 191.487 175.793Z" fill="#E09F7E"/>
<path d="M191.568 170.213L198.684 170.1C199.259 170.09 199.829 170.194 200.364 170.405C200.898 170.616 201.385 170.931 201.798 171.33C202.211 171.73 202.541 172.207 202.769 172.734C202.998 173.261 203.12 173.828 203.129 174.403L203.271 183.153C203.279 183.728 203.175 184.299 202.963 184.834C202.751 185.368 202.436 185.856 202.036 186.269C201.636 186.681 201.158 187.011 200.63 187.239C200.103 187.467 199.535 187.589 198.96 187.598L191.842 187.713C190.454 187.751 189.099 187.286 188.026 186.404C186.954 185.522 186.236 184.283 186.005 182.913C185.635 180.358 185.594 177.765 185.885 175.2C186.071 173.823 186.749 172.56 187.794 171.643C188.838 170.727 190.179 170.218 191.568 170.213V170.213Z" stroke="#45413C" stroke-linecap="round" stroke-linejoin="round"/>
<path d="M90.626 158.441L83.5124 158.201C82.9379 158.181 82.373 158.048 81.8499 157.81C81.3268 157.571 80.8558 157.232 80.4637 156.812C80.0717 156.392 79.7663 155.898 79.565 155.36C79.3638 154.821 79.2706 154.249 79.2908 153.674L79.5932 144.929C79.6339 143.769 80.1335 142.672 80.9823 141.881C81.8311 141.089 82.9596 140.667 84.1196 140.707L91.2332 140.947C92.6214 140.979 93.9512 141.512 94.9778 142.447C96.0044 143.382 96.6588 144.656 96.8204 146.035C97.0624 148.608 96.972 151.201 96.5516 153.751C96.295 155.116 95.5541 156.342 94.4653 157.203C93.3765 158.065 92.0131 158.504 90.626 158.441Z" fill="#D18660"/>
<path d="M90.9897 152.88L83.6673 152.625C82.6847 152.6 81.7379 152.251 80.9738 151.632C80.2097 151.014 79.6709 150.161 79.4409 149.205L79.2849 153.667C79.2647 154.242 79.3584 154.816 79.5606 155.356C79.7627 155.895 80.0694 156.389 80.4629 156.81C80.8565 157.23 81.3292 157.569 81.854 157.806C82.3787 158.044 82.9452 158.175 83.5209 158.193L90.6345 158.433C92.0216 158.497 93.385 158.058 94.4738 157.196C95.5627 156.334 96.3035 155.108 96.5601 153.744C96.8128 152.119 96.93 150.477 96.9105 148.833C96.5018 150.062 95.7014 151.124 94.6321 151.854C93.5627 152.585 92.2833 152.945 90.9897 152.88Z" fill="#BD704A"/>
<path d="M90.626 158.441L83.5124 158.201C82.9379 158.181 82.373 158.048 81.8499 157.81C81.3268 157.571 80.8558 157.232 80.4637 156.812C80.0717 156.392 79.7663 155.898 79.565 155.36C79.3638 154.821 79.2706 154.249 79.2908 153.674L79.5932 144.929C79.6339 143.769 80.1335 142.672 80.9823 141.881C81.8311 141.089 82.9596 140.667 84.1196 140.707L91.2332 140.947C92.6214 140.979 93.9512 141.512 94.9778 142.447C96.0044 143.382 96.6588 144.656 96.8204 146.035C97.0624 148.608 96.972 151.201 96.5516 153.751C96.295 155.116 95.5541 156.342 94.4653 157.203C93.3765 158.065 92.0131 158.504 90.626 158.441V158.441Z" stroke="#45413C" stroke-linecap="round" stroke-linejoin="round"/>
<path d="M119.041 180.782L113.014 189.82C112.868 190.04 112.784 190.296 112.771 190.559C112.759 190.823 112.818 191.085 112.942 191.318C113.067 191.551 113.252 191.745 113.479 191.881C113.705 192.017 113.965 192.088 114.229 192.088H126.281C126.545 192.088 126.805 192.017 127.031 191.881C127.258 191.745 127.443 191.551 127.568 191.318C127.692 191.085 127.751 190.823 127.739 190.559C127.726 190.296 127.642 190.04 127.496 189.82L121.469 180.782C121.336 180.582 121.156 180.418 120.944 180.305C120.732 180.191 120.495 180.132 120.255 180.132C120.015 180.132 119.778 180.191 119.566 180.305C119.354 180.418 119.174 180.582 119.041 180.782Z" fill="#FF6242" stroke="#45413C" stroke-linecap="round" stroke-linejoin="round"/>
<path d="M108.596 170.21L116.194 174.552C115.24 176.221 113.763 177.528 111.991 178.273C110.219 179.018 108.25 179.159 106.391 178.673C104.531 178.188 102.882 177.103 101.701 175.587C100.519 174.071 99.8696 172.207 99.8529 170.285C99.8361 168.363 100.453 166.489 101.608 164.952C102.763 163.416 104.392 162.302 106.243 161.784C108.095 161.267 110.065 161.373 111.85 162.087C113.634 162.801 115.134 164.083 116.118 165.734L108.596 170.21Z" fill="#FFE500" stroke="#45413C" stroke-linecap="round" stroke-linejoin="round"/>
<path d="M118.8 170.47C118.749 170.47 118.699 170.454 118.656 170.426C118.614 170.397 118.58 170.357 118.561 170.31C118.541 170.262 118.536 170.21 118.546 170.16C118.556 170.11 118.581 170.063 118.617 170.027C118.653 169.991 118.699 169.966 118.75 169.956C118.8 169.946 118.852 169.951 118.899 169.971C118.947 169.991 118.987 170.024 119.016 170.066C119.044 170.109 119.059 170.159 119.059 170.21C119.06 170.244 119.053 170.278 119.04 170.31C119.027 170.342 119.008 170.37 118.984 170.394C118.96 170.418 118.931 170.438 118.9 170.45C118.868 170.463 118.834 170.47 118.8 170.47Z" fill="#FFE500"/>
<path d="M118.802 168.751C118.513 168.751 118.231 168.837 117.991 168.997C117.751 169.157 117.564 169.385 117.454 169.652C117.343 169.919 117.315 170.212 117.371 170.495C117.427 170.778 117.566 171.038 117.77 171.242C117.974 171.446 118.234 171.585 118.517 171.642C118.8 171.698 119.094 171.669 119.36 171.559C119.627 171.448 119.855 171.261 120.015 171.021C120.176 170.781 120.261 170.499 120.261 170.21C120.261 169.823 120.107 169.452 119.834 169.179C119.56 168.905 119.189 168.751 118.802 168.751Z" fill="#45413C"/>
<path d="M124.641 170.47C124.59 170.47 124.54 170.455 124.497 170.427C124.454 170.399 124.42 170.359 124.4 170.311C124.38 170.264 124.375 170.212 124.385 170.161C124.394 170.111 124.419 170.064 124.455 170.028C124.491 169.991 124.537 169.967 124.588 169.956C124.638 169.946 124.69 169.951 124.738 169.971C124.785 169.99 124.826 170.023 124.854 170.066C124.883 170.109 124.898 170.159 124.898 170.21C124.898 170.278 124.87 170.344 124.823 170.392C124.775 170.441 124.71 170.468 124.641 170.47Z" fill="#FFE500"/>
<path d="M124.638 168.751C124.349 168.751 124.067 168.837 123.827 168.997C123.587 169.157 123.4 169.385 123.29 169.652C123.179 169.919 123.15 170.212 123.207 170.495C123.263 170.778 123.402 171.038 123.606 171.242C123.81 171.446 124.07 171.585 124.353 171.642C124.636 171.698 124.93 171.669 125.196 171.559C125.463 171.448 125.691 171.261 125.851 171.021C126.012 170.781 126.097 170.499 126.097 170.21C126.097 169.823 125.943 169.452 125.67 169.179C125.396 168.905 125.025 168.751 124.638 168.751Z" fill="#45413C"/>
<path d="M173.463 185.177L167.557 188.722C167.33 188.858 167.07 188.93 166.806 188.93C166.541 188.93 166.281 188.858 166.055 188.722L160.148 185.177C159.951 185.059 159.785 184.896 159.662 184.702C159.54 184.508 159.466 184.287 159.445 184.058L158.199 170.342C158.181 170.141 158.205 169.937 158.27 169.745C158.334 169.553 158.438 169.377 158.575 169.227C158.711 169.077 158.878 168.958 159.063 168.876C159.248 168.794 159.449 168.751 159.651 168.751H173.96C174.162 168.753 174.361 168.797 174.545 168.879C174.729 168.962 174.894 169.082 175.029 169.231C175.164 169.381 175.267 169.557 175.331 169.748C175.395 169.939 175.418 170.142 175.4 170.342L174.155 184.058C174.135 184.286 174.062 184.506 173.942 184.7C173.822 184.894 173.658 185.058 173.463 185.177Z" fill="#FF8A14" stroke="#45413C" stroke-linecap="round" stroke-linejoin="round"/>
<path d="M143.598 138.48C143.62 138.32 143.675 138.166 143.762 138.029C143.848 137.892 143.963 137.775 144.098 137.686C144.234 137.597 144.387 137.539 144.547 137.514C144.707 137.49 144.87 137.5 145.026 137.544C145.394 137.662 145.702 137.921 145.88 138.264L149.279 145.891H149.307L150.635 140.076C150.666 139.921 150.727 139.774 150.816 139.643C150.905 139.512 151.019 139.4 151.152 139.314C151.284 139.229 151.433 139.17 151.588 139.142C151.744 139.115 151.904 139.119 152.058 139.154C152.212 139.189 152.357 139.255 152.486 139.347C152.614 139.439 152.723 139.556 152.805 139.691C152.887 139.826 152.942 139.976 152.965 140.133C152.989 140.289 152.98 140.448 152.941 140.602L150.949 149.34C150.928 149.502 150.872 149.658 150.786 149.796C150.699 149.935 150.583 150.053 150.446 150.143C150.309 150.232 150.154 150.291 149.993 150.315C149.831 150.338 149.666 150.327 149.509 150.281C149.143 150.16 148.839 149.902 148.659 149.561L145.244 142.015H145.213L143.905 147.756C143.876 147.914 143.816 148.065 143.727 148.199C143.639 148.333 143.524 148.447 143.39 148.536C143.255 148.624 143.104 148.684 142.946 148.712C142.788 148.74 142.626 148.736 142.469 148.7C142.313 148.663 142.165 148.595 142.036 148.5C141.906 148.405 141.798 148.284 141.716 148.146C141.635 148.007 141.582 147.854 141.562 147.694C141.542 147.535 141.554 147.373 141.599 147.218L143.598 138.48Z" fill="#45413C"/>
<path d="M170.685 144.72C170.713 144.561 170.775 144.41 170.865 144.275C170.955 144.141 171.073 144.028 171.21 143.942C171.347 143.856 171.5 143.799 171.66 143.776C171.82 143.752 171.983 143.763 172.139 143.806L174.693 144.387C175.447 144.506 176.166 144.789 176.799 145.216C177.432 145.643 177.965 146.203 178.359 146.857C178.753 147.511 178.999 148.244 179.08 149.003C179.161 149.763 179.075 150.53 178.828 151.253C178.718 151.972 178.456 152.66 178.058 153.269C177.661 153.879 177.138 154.396 176.524 154.787C175.911 155.178 175.221 155.433 174.5 155.536C173.78 155.638 173.046 155.585 172.348 155.381L169.679 154.779C169.517 154.756 169.362 154.699 169.224 154.612C169.085 154.525 168.967 154.41 168.876 154.274C168.786 154.138 168.725 153.984 168.698 153.823C168.671 153.662 168.678 153.497 168.719 153.339L170.685 144.72ZM171.251 152.895L172.804 153.247C173.22 153.349 173.653 153.359 174.073 153.276C174.493 153.194 174.89 153.021 175.237 152.77C175.584 152.519 175.872 152.196 176.081 151.822C176.29 151.449 176.416 151.034 176.449 150.607C176.617 150.191 176.689 149.743 176.661 149.296C176.633 148.849 176.506 148.413 176.289 148.021C176.072 147.629 175.77 147.29 175.405 147.029C175.041 146.768 174.623 146.592 174.181 146.513L172.78 146.194L171.251 152.895Z" fill="#45413C"/>
<path d="M180.905 147.219C180.92 147.045 180.973 146.876 181.06 146.725C181.147 146.573 181.266 146.443 181.408 146.342C181.551 146.241 181.714 146.173 181.886 146.141C182.057 146.11 182.234 146.117 182.403 146.16L186.219 147.032C186.365 147.054 186.504 147.107 186.628 147.187C186.752 147.267 186.858 147.373 186.938 147.496C187.019 147.62 187.073 147.759 187.096 147.905C187.119 148.051 187.111 148.2 187.073 148.342C187.044 148.486 186.985 148.622 186.9 148.742C186.815 148.861 186.707 148.963 186.582 149.039C186.456 149.115 186.316 149.164 186.171 149.184C186.026 149.204 185.878 149.193 185.737 149.153L183.029 148.539L182.518 150.785L185.043 151.359C185.191 151.38 185.332 151.433 185.458 151.513C185.585 151.592 185.693 151.698 185.775 151.822C185.858 151.946 185.914 152.087 185.939 152.234C185.964 152.381 185.958 152.532 185.921 152.676C185.89 152.822 185.828 152.959 185.741 153.079C185.654 153.199 185.543 153.301 185.415 153.376C185.287 153.452 185.145 153.5 184.998 153.519C184.85 153.537 184.701 153.525 184.558 153.483L182.033 152.907L181.501 155.247L184.349 155.895C184.495 155.918 184.634 155.972 184.757 156.053C184.881 156.133 184.986 156.239 185.066 156.363C185.146 156.486 185.199 156.625 185.222 156.771C185.245 156.917 185.237 157.065 185.199 157.208C185.169 157.351 185.111 157.487 185.026 157.607C184.942 157.727 184.834 157.828 184.709 157.905C184.584 157.981 184.444 158.031 184.299 158.051C184.153 158.071 184.006 158.061 183.865 158.021L179.893 157.116C179.735 157.09 179.585 157.031 179.452 156.943C179.319 156.855 179.205 156.74 179.119 156.606C179.033 156.472 178.975 156.321 178.95 156.164C178.925 156.006 178.933 155.845 178.973 155.691L180.905 147.219Z" fill="#45413C"/>
<path d="M143.598 138.48C143.62 138.32 143.675 138.166 143.762 138.029C143.848 137.892 143.963 137.775 144.098 137.686C144.234 137.597 144.387 137.539 144.547 137.514C144.707 137.49 144.87 137.5 145.026 137.544C145.394 137.662 145.702 137.921 145.88 138.264L149.279 145.891H149.307L150.635 140.076C150.666 139.921 150.727 139.774 150.816 139.643C150.905 139.512 151.019 139.4 151.152 139.314C151.284 139.229 151.433 139.17 151.588 139.142C151.744 139.115 151.904 139.119 152.058 139.154C152.212 139.189 152.357 139.255 152.486 139.347C152.614 139.439 152.723 139.556 152.805 139.691C152.887 139.826 152.942 139.976 152.965 140.133C152.989 140.289 152.98 140.448 152.941 140.602L150.949 149.34C150.928 149.502 150.872 149.658 150.786 149.796C150.699 149.935 150.583 150.053 150.446 150.143C150.309 150.232 150.154 150.291 149.993 150.315C149.831 150.338 149.666 150.327 149.509 150.281C149.143 150.16 148.839 149.902 148.659 149.561L145.244 142.015H145.213L143.905 147.756C143.876 147.914 143.816 148.065 143.727 148.199C143.639 148.333 143.524 148.447 143.39 148.536C143.255 148.624 143.104 148.684 142.946 148.712C142.788 148.74 142.626 148.736 142.469 148.7C142.313 148.663 142.165 148.595 142.036 148.5C141.906 148.405 141.798 148.284 141.716 148.146C141.635 148.007 141.582 147.854 141.562 147.694C141.542 147.535 141.554 147.373 141.599 147.218L143.598 138.48Z" stroke="#45413C"/>
<path d="M170.685 144.72C170.713 144.561 170.775 144.41 170.865 144.275C170.955 144.141 171.073 144.028 171.21 143.942C171.347 143.856 171.5 143.799 171.66 143.776C171.82 143.752 171.983 143.763 172.139 143.806L174.693 144.387C175.447 144.506 176.166 144.789 176.799 145.216C177.432 145.643 177.965 146.203 178.359 146.857C178.753 147.511 178.999 148.244 179.08 149.003C179.161 149.763 179.075 150.53 178.828 151.253C178.718 151.972 178.456 152.66 178.058 153.269C177.661 153.879 177.138 154.396 176.524 154.787C175.911 155.178 175.221 155.433 174.5 155.536C173.78 155.638 173.046 155.585 172.348 155.381L169.679 154.779C169.517 154.756 169.362 154.699 169.224 154.612C169.085 154.525 168.967 154.41 168.876 154.274C168.786 154.138 168.725 153.984 168.698 153.823C168.671 153.662 168.678 153.497 168.719 153.339L170.685 144.72ZM171.251 152.895L172.804 153.247C173.22 153.349 173.653 153.359 174.073 153.276C174.493 153.194 174.89 153.021 175.237 152.77C175.584 152.519 175.872 152.196 176.081 151.822C176.29 151.449 176.416 151.034 176.449 150.607C176.617 150.191 176.689 149.743 176.661 149.296C176.633 148.849 176.506 148.413 176.289 148.021C176.072 147.629 175.77 147.29 175.405 147.029C175.041 146.768 174.623 146.592 174.181 146.513L172.78 146.194L171.251 152.895Z" stroke="#45413C"/>
<path d="M180.905 147.219C180.92 147.045 180.973 146.876 181.06 146.725C181.147 146.573 181.266 146.443 181.408 146.342C181.551 146.241 181.714 146.173 181.886 146.141C182.057 146.11 182.234 146.117 182.403 146.16L186.219 147.032C186.365 147.054 186.504 147.107 186.628 147.187C186.752 147.267 186.858 147.373 186.938 147.496C187.019 147.62 187.073 147.759 187.096 147.905C187.119 148.051 187.111 148.2 187.073 148.342C187.044 148.486 186.985 148.622 186.9 148.742C186.815 148.861 186.707 148.963 186.582 149.039C186.456 149.115 186.316 149.164 186.171 149.184C186.026 149.204 185.878 149.193 185.737 149.153L183.029 148.539L182.518 150.785L185.043 151.359C185.191 151.38 185.332 151.433 185.458 151.513C185.585 151.592 185.693 151.698 185.775 151.822C185.858 151.946 185.914 152.087 185.939 152.234C185.964 152.381 185.958 152.532 185.921 152.676C185.89 152.822 185.828 152.959 185.741 153.079C185.654 153.199 185.543 153.301 185.415 153.376C185.287 153.452 185.145 153.5 184.998 153.519C184.85 153.537 184.701 153.525 184.558 153.483L182.033 152.907L181.501 155.247L184.349 155.895C184.495 155.918 184.634 155.972 184.757 156.053C184.881 156.133 184.986 156.239 185.066 156.363C185.146 156.486 185.199 156.625 185.222 156.771C185.245 156.917 185.237 157.065 185.199 157.208C185.169 157.351 185.111 157.487 185.026 157.607C184.942 157.727 184.834 157.828 184.709 157.905C184.584 157.981 184.444 158.031 184.299 158.051C184.153 158.071 184.006 158.061 183.865 158.021L179.893 157.116C179.735 157.09 179.585 157.031 179.452 156.943C179.319 156.855 179.205 156.74 179.119 156.606C179.033 156.472 178.975 156.321 178.95 156.164C178.925 156.006 178.933 155.845 178.973 155.691L180.905 147.219Z" stroke="#45413C"/>
<path d="M155.426 142.587L161.765 141.039L166.805 145.179L165.185 152.29L158.849 153.838L153.809 149.698L155.426 142.587Z" fill="#9CEB60" stroke="#45413C" stroke-linecap="round" stroke-linejoin="round"/>
<path d="M104.22 148.332C104.22 149.098 104.635 149.857 105.441 150.565C106.247 151.273 107.429 151.916 108.919 152.458C110.409 152.999 112.177 153.429 114.124 153.722C116.071 154.015 118.157 154.166 120.264 154.166C122.371 154.166 124.457 154.015 126.404 153.722C128.35 153.429 130.119 152.999 131.609 152.458C133.098 151.916 134.28 151.273 135.086 150.565C135.893 149.857 136.308 149.098 136.308 148.332C136.308 147.566 135.893 146.807 135.086 146.099C134.28 145.391 133.098 144.748 131.609 144.206C130.119 143.665 128.35 143.235 126.404 142.942C124.457 142.648 122.371 142.498 120.264 142.498C118.157 142.498 116.071 142.648 114.124 142.942C112.177 143.235 110.409 143.665 108.919 144.206C107.429 144.748 106.247 145.391 105.441 146.099C104.635 146.807 104.22 147.566 104.22 148.332Z" fill="#00B8F0" stroke="#45413C" stroke-linecap="round" stroke-linejoin="round"/>
<path d="M61.7617 116.023C58.2505 119.532 67.0273 124.797 67.0273 130.063C67.0273 133.989 61.7617 135.329 61.7617 138.84" stroke="#45413C" stroke-linecap="round" stroke-linejoin="round"/>
<path d="M49.4766 109C45.9654 112.512 54.7422 117.777 54.7422 123.043C54.7422 126.967 49.4766 128.308 49.4766 131.82" stroke="#45413C" stroke-linecap="round" stroke-linejoin="round"/>
<path opacity="0.15" d="M36.9873 197.196C36.9873 198.55 38.6777 199.848 41.6865 200.805C44.6953 201.763 48.7762 202.301 53.0313 202.301C57.2864 202.301 61.3673 201.763 64.3761 200.805C67.385 199.848 69.0753 198.55 69.0753 197.196C69.0753 195.842 67.385 194.544 64.3761 193.586C61.3673 192.629 57.2864 192.091 53.0313 192.091C48.7762 192.091 44.6953 192.629 41.6865 193.586C38.6777 194.544 36.9873 195.842 36.9873 197.196Z" fill="#45413C"/>
<path d="M60.6554 195.007H45.4106C44.6972 195.006 44.0086 194.745 43.475 194.271C42.9413 193.798 42.5994 193.145 42.5138 192.437L38.4482 158.542H67.6202L63.5402 192.437C63.4554 193.143 63.1154 193.794 62.5841 194.268C62.0529 194.741 61.367 195.004 60.6554 195.007Z" fill="#FFFCE5"/>
<path d="M38.9714 162.917H67.0946L67.6202 158.542H38.4482L38.9714 162.917Z" fill="#F7E5C6"/>
<path d="M60.6554 195.007H45.4106C44.6972 195.006 44.0086 194.745 43.475 194.271C42.9413 193.798 42.5994 193.145 42.5138 192.437L38.4482 158.542H67.6202L63.5402 192.437C63.4554 193.143 63.1154 193.794 62.5841 194.268C62.0529 194.741 61.367 195.004 60.6554 195.007V195.007Z" stroke="#45413C" stroke-linejoin="round"/>
<path d="M67.6225 158.542H38.4505C38.0665 158.543 37.686 158.469 37.3309 158.323C36.9757 158.177 36.6528 157.963 36.3808 157.692C36.1087 157.421 35.8929 157.099 35.7456 156.744C35.5983 156.39 35.5225 156.01 35.5225 155.626C35.5221 155.242 35.5974 154.863 35.744 154.508C35.8905 154.154 36.1055 153.832 36.3765 153.561C36.6476 153.29 36.9694 153.075 37.3237 152.929C37.6779 152.782 38.0575 152.707 38.4409 152.707H67.6225C68.0056 152.707 68.385 152.783 68.7389 152.929C69.0929 153.076 69.4144 153.291 69.6852 153.562C69.956 153.833 70.1708 154.155 70.3172 154.509C70.4636 154.863 70.5388 155.243 70.5385 155.626C70.5385 156.399 70.2312 157.141 69.6844 157.688C69.1375 158.234 68.3958 158.542 67.6225 158.542Z" fill="#FFFCE5" stroke="#45413C" stroke-linejoin="round"/>
<path d="M67.6202 152.707H38.4482L39.665 147.648C39.8182 147.011 40.1813 146.444 40.696 146.039C41.2106 145.633 41.8467 145.413 42.5018 145.414H63.5666C64.2215 145.414 64.8572 145.635 65.3717 146.04C65.8862 146.445 66.2495 147.011 66.4034 147.648L67.6202 152.707Z" fill="#FFFCE5" stroke="#45413C" stroke-linejoin="round"/>
<path d="M59.6732 173.945C59.6737 175.258 59.2844 176.543 58.5547 177.635C57.825 178.728 56.7875 179.579 55.5737 180.082C54.3599 180.585 53.0242 180.716 51.7357 180.46C50.4471 180.203 49.2636 179.57 48.335 178.641C47.4063 177.712 46.7741 176.528 46.5185 175.239C46.2629 173.95 46.3953 172.615 46.8989 171.401C47.4026 170.188 48.2549 169.151 49.348 168.422C50.441 167.693 51.7258 167.305 53.0396 167.306C54.7994 167.307 56.4867 168.007 57.7306 169.252C58.9745 170.497 59.6732 172.185 59.6732 173.945Z" fill="#00DBA8" stroke="#45413C" stroke-linecap="round" stroke-linejoin="round"/>
<path d="M151.922 29.1095C151.922 36.1967 146.176 90.4151 139.092 90.4151C132.007 90.4151 126.259 36.1967 126.259 29.1095C126.259 22.0223 132.002 14.8535 139.094 14.8535C146.186 14.8535 151.922 22.0223 151.922 29.1095Z" fill="#724F3D"/>
<path d="M139.093 24.8327C145.059 24.8327 150.061 29.9207 151.496 35.7575C151.774 32.6087 151.923 30.2375 151.923 29.1095C151.923 22.0223 146.177 14.8535 139.093 14.8535C132.008 14.8535 126.26 22.0223 126.26 29.1095C126.26 30.2471 126.411 32.6087 126.687 35.7575C128.125 29.9207 133.124 24.8327 139.093 24.8327Z" fill="#A86C4D"/>
<path d="M151.922 29.1095C151.922 36.1967 146.176 90.4151 139.092 90.4151C132.007 90.4151 126.259 36.1967 126.259 29.1095C126.259 22.0223 132.002 14.8535 139.094 14.8535C146.186 14.8535 151.922 22.0223 151.922 29.1095Z" stroke="#45413C"/>
<path d="M106.304 64.7519C106.304 69.0581 107.152 73.3221 108.8 77.3005C110.448 81.2789 112.863 84.8938 115.908 87.9388C118.953 90.9837 122.568 93.3991 126.546 95.047C130.525 96.6949 134.789 97.5431 139.095 97.5431C143.401 97.5431 147.665 96.6949 151.644 95.047C155.622 93.3991 159.237 90.9837 162.282 87.9388C165.327 84.8938 167.742 81.2789 169.39 77.3005C171.038 73.3221 171.886 69.0581 171.886 64.7519C171.886 60.4457 171.038 56.1817 169.39 52.2032C167.742 48.2248 165.327 44.61 162.282 41.565C159.237 38.5201 155.622 36.1047 151.644 34.4568C147.665 32.8089 143.401 31.9607 139.095 31.9607C134.789 31.9607 130.525 32.8089 126.546 34.4568C122.568 36.1047 118.953 38.5201 115.908 41.565C112.863 44.61 110.448 48.2248 108.8 52.2032C107.152 56.1817 106.304 60.4457 106.304 64.7519Z" fill="#724F3D"/>
<path d="M139.094 43.3649C146.799 43.3676 154.256 46.0844 160.157 51.0381C166.058 55.9919 170.025 62.8661 171.362 70.4537C172.22 65.7285 172.03 60.8724 170.805 56.2287C169.58 51.585 167.35 47.267 164.273 43.5801C161.195 39.8932 157.345 36.9272 152.995 34.8919C148.645 32.8567 143.901 31.8018 139.099 31.8018C134.296 31.8018 129.552 32.8567 125.202 34.8919C120.852 36.9272 117.003 39.8932 113.925 43.5801C110.847 47.267 108.617 51.585 107.392 56.2287C106.167 60.8724 105.977 65.7285 106.836 70.4537C108.172 62.8675 112.138 55.9943 118.037 51.0406C123.936 46.087 131.391 43.3694 139.094 43.3649Z" fill="#A86C4D"/>
<path d="M106.304 64.7519C106.304 69.0581 107.152 73.3221 108.8 77.3005C110.448 81.2789 112.863 84.8938 115.908 87.9388C118.953 90.9837 122.568 93.3991 126.546 95.047C130.525 96.6949 134.789 97.5431 139.095 97.5431C143.401 97.5431 147.665 96.6949 151.644 95.047C155.622 93.3991 159.237 90.9837 162.282 87.9388C165.327 84.8938 167.742 81.2789 169.39 77.3005C171.038 73.3221 171.886 69.0581 171.886 64.7519C171.886 60.4457 171.038 56.1817 169.39 52.2032C167.742 48.2248 165.327 44.61 162.282 41.565C159.237 38.5201 155.622 36.1047 151.644 34.4568C147.665 32.8089 143.401 31.9607 139.095 31.9607C134.789 31.9607 130.525 32.8089 126.546 34.4568C122.568 36.1047 118.953 38.5201 115.908 41.565C112.863 44.61 110.448 48.2248 108.8 52.2032C107.152 56.1817 106.304 60.4457 106.304 64.7519V64.7519Z" stroke="#45413C" stroke-linecap="round" stroke-linejoin="round"/>
<path d="M168.178 73.0199C169.538 73.0243 170.841 73.5666 171.803 74.5283C172.765 75.4901 173.307 76.7933 173.312 78.1535V79.8647C173.307 81.2248 172.765 82.528 171.803 83.4898C170.841 84.4515 169.538 84.9938 168.178 84.9983C168.017 84.9917 167.856 84.9725 167.698 84.9407C166.513 91.6653 162.997 97.7574 157.767 102.147C152.536 106.536 145.927 108.942 139.098 108.942C132.27 108.942 125.66 106.536 120.43 102.147C115.2 97.7574 111.683 91.6653 110.499 84.9407C110.341 84.9726 110.18 84.9918 110.019 84.9983C108.658 84.9951 107.354 84.4533 106.391 83.4913C105.429 82.5293 104.887 81.2254 104.883 79.8647V78.1535C104.887 76.7935 105.428 75.4903 106.39 74.5285C107.351 73.5666 108.654 73.0243 110.014 73.0199V67.6031H113.436C114.947 67.5986 116.395 66.9964 117.464 65.928C118.532 64.8595 119.134 63.4117 119.139 61.9007C119.15 60.3918 119.755 58.9479 120.821 57.8809C121.888 56.814 123.332 56.2096 124.841 56.1983C126.35 56.1869 127.793 55.5824 128.859 54.5153C129.925 53.4482 130.529 52.0043 130.539 50.4959V44.7935C130.539 44.7935 133.39 61.9007 161.904 61.9007C161.907 63.7708 162.522 65.5887 163.655 67.0768C164.788 68.5648 166.376 69.6415 168.178 70.1423V73.0199Z" fill="#D18660" stroke="#45413C" stroke-linecap="round" stroke-linejoin="round"/>
<path d="M160.179 85.0389C160.179 85.7157 159.978 86.3774 159.602 86.9402C159.226 87.503 158.691 87.9417 158.066 88.2007C157.441 88.4598 156.753 88.5275 156.089 88.3955C155.425 88.2634 154.815 87.9375 154.336 87.4589C153.858 86.9802 153.532 86.3704 153.4 85.7065C153.268 85.0426 153.335 84.3545 153.594 83.7292C153.854 83.1038 154.292 82.5693 154.855 82.1932C155.418 81.8172 156.079 81.6165 156.756 81.6165C157.664 81.6165 158.535 81.977 159.176 82.6189C159.818 83.2607 160.179 84.1312 160.179 85.0389Z" fill="#BD704A"/>
<path d="M125.962 85.0389C125.962 85.7157 125.761 86.3774 125.385 86.9402C125.009 87.503 124.475 87.9417 123.849 88.2007C123.224 88.4598 122.536 88.5275 121.872 88.3955C121.208 88.2634 120.598 87.9375 120.12 87.4589C119.641 86.9802 119.315 86.3704 119.183 85.7065C119.051 85.0426 119.119 84.3545 119.378 83.7292C119.637 83.1038 120.075 82.5693 120.638 82.1932C121.201 81.8172 121.863 81.6165 122.54 81.6165C123.447 81.6165 124.318 81.977 124.96 82.6189C125.601 83.2607 125.962 84.1312 125.962 85.0389Z" fill="#BD704A"/>
<path d="M131.094 91.8813C133.4 94.0778 136.463 95.3028 139.649 95.3028C142.834 95.3028 145.897 94.0778 148.203 91.8813" stroke="#45413C" stroke-linecap="round" stroke-linejoin="round"/>
<path d="M155.04 75.9147C154.689 75.07 154.094 74.3485 153.333 73.8409C152.572 73.3333 151.677 73.0625 150.762 73.0625C149.847 73.0625 148.953 73.3333 148.192 73.8409C147.43 74.3485 146.836 75.07 146.484 75.9147" stroke="#45413C" stroke-linecap="round" stroke-linejoin="round"/>
<path d="M132.806 75.9142C132.453 75.0703 131.859 74.3495 131.098 73.8425C130.337 73.3355 129.443 73.0649 128.529 73.0649C127.614 73.0649 126.72 73.3355 125.959 73.8425C125.198 74.3495 124.604 75.0703 124.252 75.9142" stroke="#45413C" stroke-linecap="round" stroke-linejoin="round"/>
</svg>

