<svg
  id="graphic-reputation"
  viewBox="0 0 66 66"
  fill="none"
  xmlns="http://www.w3.org/2000/svg"
>
  <path
    d="M1 33C1 41.4869 4.37142 49.6263 10.3726 55.6274C16.3737 61.6286 24.5131 65 33 65C41.4869 65 49.6263 61.6286 55.6274 55.6274C61.6286 49.6263 65 41.4869 65 33C65 24.5131 61.6286 16.3737 55.6274 10.3726C49.6263 4.37142 41.4869 1 33 1C24.5131 1 16.3737 4.37142 10.3726 10.3726C4.37142 16.3737 1 24.5131 1 33Z"
    fill="#E8F4FA"
    stroke="#DAEDF7"
    stroke-width="1.4"
    stroke-miterlimit="10"
  />
  <path
    d="M43.865 23.0384L33.0002 30.94L22.1354 23.0384C21.8628 22.8404 21.641 22.5806 21.4881 22.2804C21.3351 21.9802 21.2554 21.6481 21.2554 21.3112V7.98481C21.2554 7.70441 21.3106 7.42676 21.4179 7.1677C21.5252 6.90865 21.6825 6.67327 21.8808 6.475C22.079 6.27672 22.3144 6.11945 22.5735 6.01214C22.8325 5.90484 23.1102 5.84961 23.3906 5.84961H42.6098C43.1761 5.84961 43.7192 6.07457 44.1196 6.475C44.52 6.87542 44.745 7.41852 44.745 7.98481V21.3112C44.745 21.6481 44.6652 21.9802 44.5123 22.2804C44.3593 22.5806 44.1375 22.8404 43.865 23.0384Z"
    fill="#FF6242"
  />
  <path
    d="M42.6098 5.84961H23.3906C23.1102 5.84961 22.8325 5.90484 22.5735 6.01214C22.3144 6.11945 22.079 6.27672 21.8808 6.475C21.6825 6.67327 21.5252 6.90865 21.4179 7.1677C21.3106 7.42676 21.2554 7.70441 21.2554 7.98481V12.256C21.2554 11.6896 21.4803 11.1465 21.8807 10.7459C22.2811 10.3454 22.8242 10.1202 23.3906 10.12H42.6098C43.1761 10.1202 43.7192 10.3454 44.1196 10.7459C44.52 11.1465 44.745 11.6896 44.745 12.256V7.98481C44.745 7.41852 44.52 6.87542 44.1196 6.475C43.7192 6.07457 43.1761 5.84961 42.6098 5.84961Z"
    fill="#FFA694"
  />
  <path
    d="M43.865 23.0384L33.0002 30.94L22.1354 23.0384C21.8628 22.8404 21.641 22.5806 21.4881 22.2804C21.3351 21.9802 21.2554 21.6481 21.2554 21.3112V7.98481C21.2554 7.70441 21.3106 7.42676 21.4179 7.1677C21.5252 6.90865 21.6825 6.67327 21.8808 6.475C22.079 6.27672 22.3144 6.11945 22.5735 6.01214C22.8325 5.90484 23.1102 5.84961 23.3906 5.84961H42.6098C43.1761 5.84961 43.7192 6.07457 44.1196 6.475C44.52 6.87542 44.745 7.41852 44.745 7.98481V21.3112C44.745 21.6481 44.6652 21.9802 44.5123 22.2804C44.3593 22.5806 44.1375 22.8404 43.865 23.0384Z"
    stroke="#45413C"
    stroke-width="1.4"
    stroke-linecap="round"
    stroke-linejoin="round"
  />
  <path
    d="M27.6616 27.0576L33 30.94L38.3384 27.0576V5.84961H27.6616V27.0576Z"
    fill="#6DD627"
  />
  <path d="M27.6616 5.84961H38.3384V10.12H27.6616V5.84961Z" fill="#9CEB60" />
  <path
    d="M27.6616 27.0576L33 30.94L38.3384 27.0576V5.84961H27.6616V27.0576Z"
    stroke="#45413C"
    stroke-width="1.4"
    stroke-linecap="round"
    stroke-linejoin="round"
  />
  <path
    d="M28.2603 40.46L31.8355 34.736C31.9588 34.5383 32.1305 34.3752 32.3343 34.2621C32.538 34.1491 32.7673 34.0897 33.0003 34.0897C33.2334 34.0897 33.4626 34.1491 33.6664 34.2621C33.8701 34.3752 34.0418 34.5383 34.1651 34.736L37.7403 40.46L44.4851 40.6944C44.718 40.7026 44.9449 40.7698 45.1446 40.8898C45.3443 41.0098 45.5102 41.1786 45.6267 41.3804C45.7432 41.5822 45.8064 41.8103 45.8105 42.0432C45.8145 42.2761 45.7593 42.5063 45.6499 42.712L42.4803 48.6696L45.6499 54.628C45.7593 54.8337 45.8145 55.0639 45.8105 55.2968C45.8064 55.5298 45.7432 55.7579 45.6267 55.9596C45.5102 56.1614 45.3443 56.3302 45.1446 56.4502C44.9449 56.5702 44.718 56.6375 44.4851 56.6456L37.7403 56.8792L34.1651 62.604C34.0416 62.8016 33.8699 62.9645 33.6662 63.0774C33.4624 63.1903 33.2333 63.2496 33.0003 63.2496C32.7673 63.2496 32.5382 63.1903 32.3344 63.0774C32.1307 62.9645 31.959 62.8016 31.8355 62.604L28.2603 56.8792L21.5155 56.6456C21.2827 56.6375 21.0557 56.5702 20.856 56.4502C20.6563 56.3302 20.4904 56.1614 20.374 55.9596C20.2575 55.7579 20.1942 55.5298 20.1902 55.2968C20.1861 55.0639 20.2413 54.8337 20.3507 54.628L23.5203 48.6696L20.3507 42.712C20.2413 42.5063 20.1861 42.2761 20.1902 42.0432C20.1942 41.8103 20.2575 41.5822 20.374 41.3804C20.4904 41.1786 20.6563 41.0098 20.856 40.8898C21.0557 40.7698 21.2827 40.7026 21.5155 40.6944L28.2603 40.46Z"
    fill="#FFE500"
  />
  <path
    d="M26.5419 56.82L21.5155 56.6456C21.2827 56.6375 21.0557 56.5702 20.856 56.4502C20.6563 56.3302 20.4904 56.1614 20.374 55.9596C20.2575 55.7579 20.1942 55.5298 20.1902 55.2968C20.1861 55.0639 20.2413 54.8337 20.3507 54.628L23.5203 48.6696L20.3507 42.712C20.2413 42.5063 20.1861 42.2761 20.1902 42.0432C20.1942 41.8103 20.2575 41.5822 20.374 41.3804C20.4904 41.1786 20.6563 41.0098 20.856 40.8898C21.0557 40.7698 21.2827 40.7026 21.5155 40.6944L28.2603 40.46L31.8355 34.736C31.9588 34.5383 32.1305 34.3752 32.3343 34.2621C32.538 34.1491 32.7673 34.0897 33.0003 34.0897C33.2334 34.0897 33.4626 34.1491 33.6664 34.2621C33.8701 34.3752 34.0418 34.5383 34.1651 34.736L37.7403 40.46L42.7283 40.6336L26.5419 56.82Z"
    fill="#FFF48C"
  />
  <path
    d="M28.2603 40.46L31.8355 34.736C31.9588 34.5383 32.1305 34.3752 32.3343 34.2621C32.538 34.1491 32.7673 34.0897 33.0003 34.0897C33.2334 34.0897 33.4626 34.1491 33.6664 34.2621C33.8701 34.3752 34.0418 34.5383 34.1651 34.736L37.7403 40.46L44.4851 40.6944C44.718 40.7026 44.9449 40.7698 45.1446 40.8898C45.3443 41.0098 45.5102 41.1786 45.6267 41.3804C45.7432 41.5822 45.8064 41.8103 45.8105 42.0432C45.8145 42.2761 45.7593 42.5063 45.6499 42.712L42.4803 48.6696L45.6499 54.628C45.7593 54.8337 45.8145 55.0639 45.8105 55.2968C45.8064 55.5298 45.7432 55.7579 45.6267 55.9596C45.5102 56.1614 45.3443 56.3302 45.1446 56.4502C44.9449 56.5702 44.718 56.6375 44.4851 56.6456L37.7403 56.8792L34.1651 62.604C34.0416 62.8016 33.8699 62.9645 33.6662 63.0774C33.4624 63.1903 33.2333 63.2496 33.0003 63.2496C32.7673 63.2496 32.5382 63.1903 32.3344 63.0774C32.1307 62.9645 31.959 62.8016 31.8355 62.604L28.2603 56.8792L21.5155 56.6456C21.2827 56.6375 21.0557 56.5702 20.856 56.4502C20.6563 56.3302 20.4904 56.1614 20.374 55.9596C20.2575 55.7579 20.1942 55.5298 20.1902 55.2968C20.1861 55.0639 20.2413 54.8337 20.3507 54.628L23.5203 48.6696L20.3507 42.712C20.2413 42.5063 20.1861 42.2761 20.1902 42.0432C20.1942 41.8103 20.2575 41.5822 20.374 41.3804C20.4904 41.1786 20.6563 41.0098 20.856 40.8898C21.0557 40.7698 21.2827 40.7026 21.5155 40.6944L28.2603 40.46Z"
    stroke="#45413C"
    stroke-width="1.4"
    stroke-linecap="round"
    stroke-linejoin="round"
  />
  <path
    d="M31.1016 28.568C31.1016 28.0645 31.3016 27.5816 31.6576 27.2256C32.0136 26.8696 32.4965 26.6696 33 26.6696C33.5035 26.6696 33.9863 26.8696 34.3423 27.2256C34.6984 27.5816 34.8984 28.0645 34.8984 28.568V33.3128C34.8984 33.8162 34.6984 34.2991 34.3423 34.6551C33.9863 35.0111 33.5035 35.2112 33 35.2112C32.4965 35.2112 32.0136 35.0111 31.6576 34.6551C31.3016 34.2991 31.1016 33.8162 31.1016 33.3128V28.568Z"
    fill="#FFE500"
  />
  <path
    d="M33 26.6696C32.4965 26.6696 32.0136 26.8696 31.6576 27.2256C31.3016 27.5816 31.1016 28.0645 31.1016 28.568V31.768C31.1016 31.2645 31.3016 30.7816 31.6576 30.4256C32.0136 30.0696 32.4965 29.8696 33 29.8696C33.5035 29.8696 33.9863 30.0696 34.3423 30.4256C34.6984 30.7816 34.8984 31.2645 34.8984 31.768V28.568C34.8985 28.3186 34.8494 28.0717 34.7541 27.8413C34.6587 27.611 34.5189 27.4017 34.3426 27.2253C34.1663 27.049 33.9569 26.9092 33.7266 26.8138C33.4962 26.7185 33.2493 26.6695 33 26.6696Z"
    fill="#FFF48C"
  />
  <path
    d="M31.1016 28.568C31.1016 28.0645 31.3016 27.5816 31.6576 27.2256C32.0136 26.8696 32.4965 26.6696 33 26.6696C33.5035 26.6696 33.9863 26.8696 34.3423 27.2256C34.6984 27.5816 34.8984 28.0645 34.8984 28.568V33.3128C34.8984 33.8162 34.6984 34.2991 34.3423 34.6551C33.9863 35.0111 33.5035 35.2112 33 35.2112C32.4965 35.2112 32.0136 35.0111 31.6576 34.6551C31.3016 34.2991 31.1016 33.8162 31.1016 33.3128V28.568Z"
    stroke="#45413C"
    stroke-width="1.4"
    stroke-linecap="round"
    stroke-linejoin="round"
  />
</svg>
