<svg viewBox="0 0 112 106" fill="none" xmlns="http://www.w3.org/2000/svg">
<path d="M0 53C0 67.0565 5.69482 80.5372 15.8317 90.4767C25.9685 100.416 39.7171 106 54.0527 106C68.3884 106 82.1369 100.416 92.2738 90.4767C102.411 80.5372 108.105 67.0565 108.105 53C108.105 38.9435 102.411 25.4628 92.2738 15.5233C82.1369 5.58391 68.3884 0 54.0527 0C39.7171 0 25.9685 5.58391 15.8317 15.5233C5.69482 25.4628 0 38.9435 0 53Z" fill="#E1EBFF"/>
<path opacity="0.15" d="M32.2505 96.2362C32.2505 96.7896 34.1938 97.3204 37.653 97.7118C41.1122 98.1032 45.8039 98.323 50.696 98.323C55.588 98.323 60.2797 98.1032 63.7389 97.7118C67.1981 97.3204 69.1415 96.7896 69.1415 96.2362C69.1415 95.6827 67.1981 95.1519 63.7389 94.7605C60.2797 94.3692 55.588 94.1493 50.696 94.1493C45.8039 94.1493 41.1122 94.3692 37.653 94.7605C34.1938 95.1519 32.2505 95.6827 32.2505 96.2362Z" fill="#45413C"/>
<path d="M77.4035 72.4179L29.7615 85.342C29.0707 85.5294 28.3322 85.4402 27.7086 85.0938C27.0849 84.7474 26.6271 84.1723 26.4359 83.4949L9.74441 24.3416C9.55322 23.6643 9.64427 22.9402 9.99754 22.3287C10.3508 21.7172 10.9374 21.2683 11.6281 21.0808L56.6649 8.86164C57.3557 8.67418 58.0941 8.76346 58.7178 9.10984C59.3415 9.45623 59.7993 10.0314 59.9905 10.7087L77.4035 72.4179Z" fill="white" stroke="#45413C" stroke-width="1.6" stroke-linecap="round" stroke-linejoin="round"/>
<path d="M27.1575 19.3728H79.2913V86.0495H27.1575V19.3728Z" fill="white"/>
<path d="M27.1575 80.4924H79.2954V83.3995C79.2954 84.1023 79.0106 84.7763 78.5038 85.2733C77.997 85.7703 77.3095 86.0495 76.5928 86.0495H29.8601C29.1433 86.0495 28.4559 85.7703 27.9491 85.2733C27.4422 84.7763 27.1575 84.1023 27.1575 83.3995V80.4924Z" fill="#E8F4FA"/>
<path d="M27.1575 19.3728H79.2913V86.0495H27.1575V19.3728Z" stroke="#45413C" stroke-width="1.6" stroke-linecap="round" stroke-linejoin="round"/>
<path d="M44.157 32.7078L38.491 38.2648L44.157 43.8205" stroke="#009FD9" stroke-width="1.6" stroke-linecap="round" stroke-linejoin="round"/>
<path d="M56.6243 32.7078L62.2903 38.2648L56.6243 43.8205" stroke="#009FD9" stroke-width="1.6" stroke-linecap="round" stroke-linejoin="round"/>
<path d="M52.0906 32.7078L47.5569 43.8205" stroke="#009FD9" stroke-width="1.6" stroke-linecap="round" stroke-linejoin="round"/>
<path d="M36.2234 52.7112H65.6916" stroke="#009FD9" stroke-width="1.6" stroke-linecap="round" stroke-linejoin="round"/>
<path d="M36.2234 59.3787H57.758" stroke="#009FD9" stroke-width="1.6" stroke-linecap="round" stroke-linejoin="round"/>
<path d="M36.2234 66.0459H52.0906" stroke="#009FD9" stroke-width="1.6" stroke-linecap="round" stroke-linejoin="round"/>
<path d="M67.2217 66.0366L97.6754 36.1781L104.087 42.4651L73.633 72.3236L67.2217 66.0366Z" fill="#FF8A14"/>
<path d="M67.2227 66.0366L97.6753 36.1771L100.796 39.2371L70.3434 69.0966L67.2227 66.0366Z" fill="#FFAA54"/>
<path d="M67.2228 66.0366C67.0728 66.0856 64.4337 72.2641 63.131 75.3447C63.0727 75.4817 63.0576 75.6327 63.0874 75.7782C63.1173 75.9237 63.1908 76.0572 63.2986 76.1614C63.4064 76.2656 63.5434 76.3359 63.6922 76.3632C63.841 76.3905 63.9947 76.3736 64.1337 76.3146L73.6348 72.3224L67.2228 66.0366Z" fill="#F7E5C6" stroke="#45413C" stroke-width="1.6" stroke-linecap="round" stroke-linejoin="round"/>
<path d="M67.2217 66.0366L97.6754 36.1781L104.087 42.4651L73.633 72.3236L67.2217 66.0366Z" stroke="#45413C" stroke-width="1.6" stroke-linecap="round" stroke-linejoin="round"/>
<path d="M97.676 36.1765L100.882 33.0332L107.293 39.3199L104.088 42.4632L97.676 36.1765Z" fill="#FFE500" stroke="#45413C" stroke-width="1.6" stroke-linecap="round" stroke-linejoin="round"/>
<path d="M109.7 36.9676C110.538 36.1314 111.005 35.0046 110.999 33.8324C110.994 32.6603 110.516 31.5377 109.671 30.7089C108.826 29.8802 107.681 29.4123 106.485 29.4073C105.29 29.4022 104.141 29.8603 103.288 30.6818L100.884 33.039L107.296 39.3248L109.7 36.9676Z" fill="#FF87AF" stroke="#45413C" stroke-width="1.6" stroke-linecap="round" stroke-linejoin="round"/>
<path d="M69.1457 74.2079L65.2499 70.3879C64.4985 72.125 63.6904 74.0237 63.131 75.3448C63.0727 75.4818 63.0576 75.6327 63.0874 75.7782C63.1173 75.9237 63.1908 76.0572 63.2986 76.1614C63.4064 76.2657 63.5434 76.3359 63.6922 76.3632C63.841 76.3905 63.9947 76.3736 64.1337 76.3147L69.1457 74.2079Z" fill="#87898C" stroke="#45413C" stroke-width="1.6" stroke-linecap="round" stroke-linejoin="round"/>
</svg>

