<svg width="39" height="42" viewBox="0 0 39 42" fill="none" xmlns="http://www.w3.org/2000/svg">
<path d="M24.2746 31.5615C22.1165 32.747 19.6361 33.2123 17.1951 32.8897C14.754 32.5671 12.4797 31.4734 10.7036 29.768L10.5398 30.6523C10.4722 31.0148 10.3253 31.3579 10.1096 31.657C9.89385 31.956 9.61464 32.2037 9.29194 32.3821C8.74842 32.683 8.11234 32.7707 7.50767 32.6282C6.903 32.4857 6.37305 32.1231 6.0211 31.6112C5.83387 31.3413 5.70223 31.0368 5.63385 30.7155C5.56547 30.3941 5.56171 30.0624 5.6228 29.7396L6.91396 22.787C6.97315 22.4636 7.09576 22.1551 7.27471 21.8793C7.45365 21.6035 7.68541 21.3658 7.95661 21.18C8.02273 21.1353 8.09103 21.094 8.16128 21.0562C8.66923 20.7758 9.25869 20.6802 9.82924 20.7857L16.7811 22.0773C17.108 22.1328 17.4206 22.2528 17.7007 22.4302C17.9808 22.6077 18.2229 22.8391 18.4127 23.111C18.6025 23.3829 18.7363 23.6899 18.8064 24.014C18.8764 24.3381 18.8813 24.6729 18.8207 24.9989C18.7601 25.325 18.6352 25.6357 18.4534 25.913C18.2715 26.1903 18.0364 26.4286 17.7615 26.6141C17.4867 26.7997 17.1777 26.9287 16.8525 26.9936C16.5273 27.0586 16.1925 27.0582 15.8674 26.9925L14.9735 26.8237C15.9713 27.5209 17.1444 27.9245 18.3599 27.989C19.5754 28.0534 20.7847 27.7761 21.8506 27.1884C22.4305 26.8669 23.1143 26.789 23.7517 26.9718C24.389 27.1545 24.9277 27.583 25.2491 28.1629C25.5706 28.7428 25.6485 29.4267 25.4658 30.064C25.283 30.7014 24.8545 31.24 24.2746 31.5615Z" fill="#C8FFA1"/>
<path d="M8.4037 21.4936C8.80963 21.2687 9.28128 21.1925 9.73739 21.278L16.6901 22.5692C17.2032 22.6746 17.6545 22.9771 17.947 23.4117C18.2395 23.8464 18.3497 24.3784 18.254 24.8935C18.1584 25.4085 17.8645 25.8655 17.4354 26.1661C17.0064 26.4668 16.4766 26.5871 15.9598 26.5012L13.3493 26.016C14.3958 27.2539 15.839 28.0908 17.4333 28.3844C19.0275 28.6779 20.6742 28.4098 22.093 27.6258C22.5569 27.3686 23.104 27.3063 23.6139 27.4525C24.1238 27.5987 24.5547 27.9415 24.8119 28.4054C25.069 28.8693 25.1313 29.4164 24.9851 29.9263C24.8389 30.4362 24.4962 30.8671 24.0322 31.1243C21.8258 32.3433 19.268 32.7687 16.7857 32.3296C14.3034 31.8905 12.0467 30.6135 10.3923 28.7115L10.0462 30.5623C9.94935 31.0839 9.64923 31.5457 9.21189 31.846C8.77455 32.1463 8.23581 32.2606 7.71421 32.1637C7.19261 32.0668 6.73086 31.7667 6.43055 31.3293C6.13023 30.892 6.01595 30.3533 6.11284 29.8317L7.40399 22.879C7.45203 22.6206 7.55052 22.3742 7.69385 22.1539C7.83717 21.9336 8.0225 21.7437 8.23926 21.5951C8.29145 21.5593 8.34598 21.5256 8.40195 21.4946M7.91714 20.62C7.82968 20.6685 7.75251 20.7169 7.67291 20.7714C7.34742 20.9935 7.06918 21.2779 6.85427 21.6082C6.63936 21.9385 6.49205 22.3081 6.42084 22.6956L5.12969 29.6483C5.05769 30.0357 5.0627 30.4334 5.14441 30.8188C5.22613 31.2042 5.38296 31.5698 5.60595 31.8946C5.82894 32.2194 6.11372 32.4971 6.44403 32.7119C6.77434 32.9266 7.14372 33.0742 7.53107 33.1462C7.91841 33.2182 8.31615 33.2132 8.70157 33.1315C9.08698 33.0497 9.45253 32.8929 9.77733 32.6699C10.1021 32.4469 10.3798 32.1622 10.5946 31.8318C10.8093 31.5015 10.9569 31.1322 11.0289 30.7448L11.0316 30.7331C12.8945 32.2695 15.1757 33.2115 17.5799 33.4371C19.9841 33.6628 22.4007 33.1618 24.517 31.9989C25.2129 31.6131 25.7271 30.9668 25.9464 30.2019C26.1657 29.4371 26.0722 28.6165 25.6865 27.9206C25.3007 27.2247 24.6544 26.7105 23.8895 26.4912C23.1247 26.2719 22.3041 26.3654 21.6082 26.7512C20.3159 27.4663 18.8049 27.6788 17.3655 27.3479C17.9812 27.1199 18.5052 26.6963 18.8569 26.1419C19.2087 25.5876 19.369 24.9331 19.313 24.279C19.2571 23.6248 18.9882 23.007 18.5474 22.5204C18.1066 22.0338 17.5184 21.7053 16.8729 21.5851L9.922 20.293C9.23669 20.1663 8.52864 20.2815 7.91889 20.619L7.91714 20.62Z" fill="#46B000"/>
<path d="M30.2627 20.7197C29.7704 21.0266 29.1869 21.1532 28.6117 21.0781L21.6018 20.152C21.2725 20.1137 20.954 20.0103 20.665 19.8477C20.3759 19.6852 20.1221 19.4667 19.9184 19.2051C19.7146 18.9435 19.5649 18.644 19.478 18.324C19.391 18.004 19.3687 17.6699 19.4121 17.3411C19.4556 17.0124 19.564 16.6956 19.7311 16.4092C19.8981 16.1227 20.1205 15.8724 20.3853 15.6727C20.65 15.4731 20.9519 15.3281 21.2732 15.2462C21.5945 15.1643 21.9289 15.1471 22.257 15.1957L23.1585 15.3175C22.1255 14.6735 20.9328 14.3318 19.7156 14.3308C18.4983 14.3299 17.3052 14.67 16.2712 15.3124C15.709 15.6638 15.0301 15.7774 14.3841 15.6282C13.738 15.4791 13.1777 15.0794 12.8263 14.5171C12.475 13.9548 12.3614 13.276 12.5105 12.6299C12.6597 11.9839 13.0594 11.4235 13.6216 11.0722C15.7149 9.77519 18.1676 9.18065 20.6224 9.37521C23.0772 9.56978 25.4057 10.5433 27.2685 12.1538L27.3826 11.2571C27.4695 10.5995 27.814 10.0034 28.3403 9.59987C28.8667 9.19633 29.5318 9.01842 30.1893 9.10526C30.8469 9.19211 31.443 9.5366 31.8465 10.063C32.2501 10.5893 32.428 11.2544 32.3411 11.912L31.4151 18.9219C31.3733 19.2482 31.2671 19.563 31.1026 19.8479C30.9382 20.1328 30.7188 20.3823 30.4571 20.5817C30.3967 20.636 30.3297 20.6779 30.2627 20.7197Z" fill="#C8FFA1"/>
<path d="M13.8868 11.4963C16.0266 10.1633 18.5588 9.60451 21.0608 9.91325C23.5629 10.222 25.8833 11.3796 27.6348 13.1928L27.8836 11.3263C27.953 10.8004 28.2286 10.3236 28.6496 10.0008C29.0706 9.67798 29.6026 9.53566 30.1286 9.60512C30.6546 9.67458 31.1314 9.95013 31.4542 10.3712C31.777 10.7922 31.9193 11.3242 31.8498 11.8501L30.9238 18.86C30.8893 19.1206 30.8039 19.3718 30.6723 19.5993C30.5407 19.8268 30.3655 20.0261 30.1569 20.1859C30.1066 20.2244 30.0539 20.2609 29.9996 20.2948C29.6063 20.5408 29.1395 20.642 28.6796 20.5807L21.6689 19.6552C21.4047 19.6254 21.1491 19.5433 20.9171 19.4136C20.6851 19.2838 20.4812 19.1092 20.3175 18.8998C20.1537 18.6903 20.0334 18.4504 19.9634 18.1939C19.8935 17.9374 19.8754 17.6696 19.9102 17.406C19.945 17.1425 20.032 16.8885 20.1661 16.659C20.3002 16.4295 20.4787 16.229 20.6912 16.0692C20.9037 15.9095 21.1459 15.7937 21.4036 15.7286C21.6614 15.6636 21.9295 15.6506 22.1923 15.6904L24.8242 16.0374C23.7139 14.8559 22.2285 14.0957 20.6208 13.8862C19.0131 13.6767 17.3824 14.0309 16.0065 14.8885C15.5567 15.1696 15.0136 15.2605 14.4967 15.1412C13.9799 15.0218 13.5316 14.7021 13.2506 14.2523C12.9695 13.8024 12.8786 13.2594 12.9979 12.7425C13.1172 12.2257 13.437 11.7774 13.8868 11.4963ZM13.3569 10.6483C12.6821 11.0699 12.2025 11.7423 12.0235 12.5176C11.8446 13.2928 11.9809 14.1074 12.4025 14.7822C12.8241 15.4569 13.4965 15.9366 14.2718 16.1155C15.0471 16.2945 15.8617 16.1582 16.5364 15.7366C17.7895 14.9548 19.2873 14.6635 20.742 14.9186C20.1389 15.1783 19.6376 15.6287 19.315 16.2007C18.9925 16.7727 18.8666 17.4348 18.9566 18.0853C19.0466 18.7358 19.3475 19.3387 19.8132 19.8017C20.2789 20.2647 20.8837 20.5621 21.5347 20.6482L28.5446 21.5743C29.2356 21.665 29.9366 21.5128 30.5279 21.1439C30.6093 21.0934 30.6881 21.0386 30.7638 20.9799C31.0774 20.7412 31.3405 20.4427 31.5379 20.1016C31.7352 19.7604 31.8629 19.3836 31.9135 18.9927L32.839 11.982C32.8906 11.5914 32.8648 11.1945 32.763 10.8139C32.6613 10.4333 32.4855 10.0764 32.2458 9.76373C32.0061 9.45104 31.7072 9.18862 31.3661 8.99146C31.025 8.79429 30.6484 8.66624 30.2578 8.61462C29.8673 8.56299 29.4703 8.58881 29.0897 8.69058C28.7091 8.79236 28.3523 8.9681 28.0396 9.20779C27.7269 9.44747 27.4645 9.74639 27.2673 10.0875C27.0701 10.4286 26.9421 10.8052 26.8905 11.1958L26.8885 11.2076C24.9479 9.77116 22.6209 8.94995 20.2086 8.85023C17.7962 8.75051 15.4094 9.37686 13.3569 10.6483Z" fill="#46B000"/>
</svg>
