<svg width="48" height="48" viewBox="0 0 48 48" fill="none" xmlns="http://www.w3.org/2000/svg">
<path d="M46.0556 25.5097C46.056 22.3749 45.3287 19.2797 43.9271 16.4512C42.5254 13.6226 40.4849 11.1325 37.9553 9.16335C35.4256 7.19422 32.4709 5.79605 29.3079 5.07137C26.1449 4.3467 22.8538 4.31389 19.6759 4.97537C16.498 5.63684 13.514 6.97582 10.9427 8.89411C8.37133 10.8124 6.2779 13.2613 4.8159 16.0613C3.3539 18.8613 2.5604 21.9413 2.49361 25.0755C2.42682 28.2097 3.08843 31.3186 4.42991 34.1742H44.1147C45.3963 31.4529 46.0581 28.4984 46.0556 25.5097Z" fill="#C7F0FF"/>
<path d="M4.42993 34.1743C6.15773 37.8522 8.94824 40.9719 12.4674 43.16C15.9865 45.3481 20.085 46.5119 24.2723 46.5119C28.4596 46.5119 32.5582 45.3481 36.0773 43.16C39.5965 40.9719 42.387 37.8522 44.1147 34.1743H4.42993Z" fill="#CCF7AD"/>
<path fill-rule="evenodd" clip-rule="evenodd" d="M2.45056 34.1743C2.45056 34.0016 2.58966 33.8616 2.76124 33.8616H45.2387C45.4103 33.8616 45.5494 34.0016 45.5494 34.1743C45.5494 34.347 45.4103 34.487 45.2387 34.487H2.76124C2.58966 34.487 2.45056 34.347 2.45056 34.1743Z" fill="#45413C"/>
<path fill-rule="evenodd" clip-rule="evenodd" d="M0 34.1743C0 34.0016 0.139096 33.8616 0.31068 33.8616H1.67214C1.84372 33.8616 1.98282 34.0016 1.98282 34.1743C1.98282 34.347 1.84372 34.487 1.67214 34.487H0.31068C0.139096 34.487 0 34.347 0 34.1743Z" fill="#45413C"/>
<path fill-rule="evenodd" clip-rule="evenodd" d="M46.0171 34.1743C46.0171 34.0016 46.1562 33.8616 46.3278 33.8616H47.6892C47.8608 33.8616 47.9999 34.0016 47.9999 34.1743C47.9999 34.347 47.8608 34.487 47.6892 34.487H46.3278C46.1562 34.487 46.0171 34.347 46.0171 34.1743Z" fill="#45413C"/>
<path d="M10.5657 30.6423C12.0252 29.235 13.0675 23.8063 13.0675 23.8063C13.2761 25.0141 15.5726 26.6209 15.5726 26.6209C14.0434 25.6159 15.1555 21.7957 15.1555 21.7957C15.7812 22.4657 16.8235 21.7957 16.8235 21.7957C14.9469 20.7234 15.571 14.5575 15.571 14.5575C15.5572 13.2864 15.0239 12.0718 14.0869 11.1777C13.1499 10.2835 11.8848 9.78198 10.5666 9.78198C9.24826 9.78198 7.98321 10.2835 7.04619 11.1777C6.10917 12.0718 5.57586 13.2864 5.56211 14.5575C5.56211 14.5575 6.18784 20.7234 4.30957 21.7957C4.30957 21.7957 5.35245 22.4657 5.97763 21.7957C5.97763 21.7957 7.08966 25.6159 5.56048 26.6209C5.56048 26.6209 7.85426 25.0125 8.06556 23.8063C8.06338 23.8063 9.10571 29.235 10.5657 30.6423Z" fill="#E0E0E0"/>
<path fill-rule="evenodd" clip-rule="evenodd" d="M6.83233 10.9507C7.8284 10.0002 9.17047 9.46924 10.5664 9.46924C11.9624 9.46924 13.3045 10.0002 14.3006 10.9507C15.2971 11.9016 15.8669 13.1962 15.8815 14.554C15.8817 14.5657 15.8811 14.5774 15.88 14.5891C15.88 14.5891 15.88 14.5891 15.88 14.5891L15.5709 14.5574L15.2602 14.5608C15.2602 14.5552 15.2601 14.5496 15.26 14.5441C15.2427 13.3658 14.7464 12.238 13.873 11.4046C12.9951 10.5668 11.8071 10.0946 10.5664 10.0946C9.32583 10.0946 8.1378 10.5668 7.25983 11.4046C6.38645 12.238 5.89018 13.3657 5.87287 14.544L5.87297 14.545C5.87415 14.5572 5.87584 14.5752 5.87796 14.5985C5.88219 14.6451 5.8881 14.7131 5.89493 14.7997C5.90857 14.9731 5.92589 15.2212 5.94072 15.5221C5.97034 16.1232 5.99021 16.9381 5.95042 17.7891C5.91075 18.6373 5.81126 19.5356 5.59644 20.2976C5.44394 20.8386 5.22247 21.3504 4.89118 21.7175C4.92104 21.7268 4.95176 21.7354 4.98314 21.7432C5.27543 21.8154 5.55089 21.7961 5.75105 21.5815C5.82734 21.4998 5.94131 21.4654 6.0497 21.4915C6.1581 21.5175 6.24433 21.6 6.27566 21.7077L5.97752 21.7956C6.27566 21.7077 6.27564 21.7076 6.27566 21.7077L6.27602 21.7089L6.27677 21.7115L6.27942 21.7208C6.28168 21.7288 6.28493 21.7404 6.28903 21.7552C6.29723 21.785 6.30887 21.8282 6.32304 21.8832C6.35137 21.9932 6.38984 22.1505 6.43103 22.3421C6.51322 22.7244 6.60717 23.2477 6.65205 23.8061C6.69262 24.3108 6.6943 24.8578 6.60402 25.3606C6.86945 25.1106 7.12988 24.8375 7.33859 24.5643C7.57276 24.2578 7.71965 23.9794 7.75948 23.752L7.78828 23.7571C7.83183 23.6761 7.92106 23.5532 8.06544 23.4936C8.15728 23.4936 8.24441 23.5345 8.30344 23.6053C8.33967 23.6487 8.36304 23.7007 8.372 23.7555L8.37347 23.7634C8.37526 23.7728 8.37807 23.7874 8.38191 23.807C8.38958 23.8461 8.40119 23.9041 8.41657 23.9788C8.44735 24.1282 8.49316 24.3437 8.55277 24.607C8.67208 25.1339 8.8463 25.8502 9.06554 26.6092C9.28508 27.3693 9.54806 28.1662 9.84398 28.8565C10.0762 29.3983 10.3199 29.8528 10.5656 30.1725C10.8112 29.8528 11.0548 29.3983 11.287 28.8565C11.5829 28.1662 11.8459 27.3693 12.0655 26.6092C12.2849 25.8502 12.4593 25.1338 12.5789 24.6068C12.6387 24.3435 12.6847 24.1279 12.7157 23.9784C12.7312 23.9037 12.7429 23.8454 12.7508 23.8061L12.7596 23.7615L12.7617 23.7504L12.7623 23.7477L12.7624 23.7471C12.7908 23.5989 12.9204 23.4922 13.0704 23.4936C13.2203 23.495 13.3478 23.604 13.3735 23.7527C13.4128 23.9802 13.5592 24.2585 13.7932 24.5651C14.0021 24.8388 14.2632 25.1123 14.5292 25.3626C14.4386 24.8592 14.4402 24.3115 14.4808 23.8061C14.5257 23.2477 14.6197 22.7244 14.7018 22.3421C14.743 22.1505 14.7815 21.9932 14.8098 21.8832C14.824 21.8282 14.8357 21.785 14.8439 21.7552C14.848 21.7404 14.8512 21.7288 14.8535 21.7208L14.8561 21.7115L14.8569 21.7089L14.8571 21.7081C14.8571 21.708 14.8572 21.7077 15.1554 21.7956L14.8572 21.7077C14.8885 21.6001 14.9747 21.5176 15.0831 21.4915C15.1915 21.4654 15.3054 21.4997 15.3817 21.5814C15.5822 21.7961 15.8578 21.8154 16.1499 21.7432C16.1813 21.7354 16.2121 21.7268 16.242 21.7175C15.9109 21.3503 15.6896 20.8385 15.5371 20.2976C15.3224 19.5356 15.2228 18.6373 15.1831 17.7891C15.1432 16.9381 15.1629 16.1232 15.1924 15.5222C15.2072 15.2213 15.2244 14.9731 15.238 14.7998C15.2448 14.7131 15.2507 14.6451 15.2549 14.5985C15.2561 14.5856 15.2572 14.5743 15.258 14.5647C15.2588 14.557 15.2594 14.5505 15.2599 14.545L15.26 14.5441M16.8234 21.7956C16.9906 22.0591 16.9905 22.0592 16.9904 22.0593L16.9897 22.0598L16.9884 22.0606L16.9846 22.063L16.9724 22.0705C16.9624 22.0766 16.9485 22.0849 16.931 22.0949C16.8961 22.1149 16.8468 22.1417 16.7861 22.1713C16.6656 22.23 16.4948 22.3019 16.2981 22.3506C16.0303 22.4168 15.6789 22.4463 15.3468 22.3054C15.3713 22.1989 15.3935 22.1092 15.4113 22.0402C15.4246 21.9888 15.4353 21.9489 15.4426 21.9223C15.4463 21.9089 15.4491 21.8989 15.451 21.8924L15.453 21.8853L15.4535 21.8837M15.6698 26.3066C15.4228 26.1106 15.2582 25.7931 15.1654 25.3748C15.0642 24.9185 15.058 24.3817 15.1002 23.8566C15.1421 23.3343 15.2306 22.8397 15.3092 22.4743C15.3221 22.4143 15.3347 22.3578 15.3468 22.3054M15.2942 26.8049C15.293 26.8041 15.2918 26.8032 15.2906 26.8023C15.2254 26.7546 15.1326 26.6854 15.0208 26.5986C14.7976 26.4255 14.4968 26.1812 14.1885 25.8972C13.8811 25.6142 13.5602 25.2864 13.3005 24.9461C13.2583 24.8909 13.2172 24.8346 13.1776 24.7773C13.0564 25.3091 12.8815 26.0247 12.6622 26.7838C12.4388 27.5568 12.1676 28.3809 11.8575 29.1043C11.5514 29.8184 11.1927 30.4706 10.7805 30.868C10.6604 30.9839 10.4709 30.9839 10.3507 30.8681C9.93844 30.4707 9.57958 29.8184 9.27345 29.1043C8.96337 28.3809 8.69215 27.5568 8.46888 26.7838C8.24959 26.0246 8.07492 25.309 7.954 24.777C7.9144 24.8342 7.87328 24.8904 7.83118 24.9455C7.57136 25.2857 7.25063 25.6134 6.94348 25.8965C6.63534 26.1805 6.3349 26.425 6.11191 26.5983C6.00023 26.685 5.90751 26.7543 5.84239 26.8021C5.84213 26.8023 5.84187 26.8025 5.84162 26.8027C5.80596 26.8306 5.76885 26.8573 5.73023 26.8827C5.58809 26.9761 5.39776 26.9374 5.30281 26.7958C5.20788 26.6541 5.24347 26.462 5.38272 26.3644M5.38272 26.3644L5.38381 26.3636L5.3881 26.3606L5.406 26.3478C5.41994 26.3378 5.43987 26.3234 5.46508 26.305C5.71099 26.1089 5.87492 25.792 5.96746 25.3748C6.06867 24.9185 6.07493 24.3817 6.03272 23.8566C5.99074 23.3343 5.90226 22.8397 5.82372 22.4743C5.81081 22.4143 5.79819 22.3578 5.78613 22.3054C5.45406 22.4463 5.10273 22.4167 4.83495 22.3506C4.6383 22.302 4.46739 22.23 4.34691 22.1713C4.28614 22.1418 4.23684 22.1149 4.20197 22.0949C4.1845 22.085 4.17056 22.0766 4.16051 22.0705L4.14837 22.063L4.14456 22.0606L4.14323 22.0598L4.14271 22.0595C4.14261 22.0594 4.14229 22.0592 4.30946 21.7956L4.14229 22.0592C4.05046 22.0002 3.99604 21.8971 3.99889 21.7875C4.00173 21.6778 4.06141 21.5777 4.15618 21.5236C4.51424 21.3192 4.79831 20.8377 4.99868 20.1269C5.19481 19.4312 5.29105 18.587 5.32974 17.7597C5.3683 16.9352 5.34913 16.1416 5.32012 15.5531C5.30564 15.2592 5.28874 15.0172 5.27551 14.8492C5.26889 14.7651 5.2632 14.6996 5.25918 14.6554C5.25717 14.6333 5.25558 14.6165 5.25451 14.6053L5.25329 14.5929C5.25199 14.5812 5.25132 14.5694 5.25132 14.5574H5.56198L5.25134 14.554C5.26603 13.1962 5.83582 11.9016 6.83233 10.9507M15.2942 26.8049C15.3289 26.8321 15.3651 26.858 15.4026 26.8827C15.5448 26.9762 15.7353 26.9374 15.8302 26.7956C15.925 26.6539 15.8893 26.4618 15.7499 26.3642M15.7499 26.3642L15.7488 26.3634L15.7445 26.3604L15.7266 26.3476C15.7131 26.338 15.6939 26.3242 15.6698 26.3066M15.88 14.5891L15.8796 14.5928L15.8784 14.6052C15.8773 14.6164 15.8757 14.6332 15.8737 14.6553C15.8697 14.6996 15.864 14.7651 15.8574 14.8491C15.8442 15.0172 15.8274 15.2591 15.813 15.553C15.7841 16.1416 15.7651 16.9352 15.8037 17.7597C15.8425 18.587 15.9388 19.4312 16.1349 20.1269C16.3352 20.8378 16.6191 21.3193 16.9768 21.5237C17.0715 21.5778 17.1312 21.6779 17.134 21.7875C17.1368 21.8971 17.0822 22.0003 16.9904 22.0593L16.8234 21.7956" fill="#45413C"/>
<path opacity="0.15" d="M4.03247 46.9948C4.03247 47.2614 4.76475 47.517 6.06823 47.7055C7.3717 47.894 9.13959 47.9999 10.983 47.9999C12.8264 47.9999 14.5943 47.894 15.8977 47.7055C17.2012 47.517 17.9335 47.2614 17.9335 46.9948C17.9335 46.7283 17.2012 46.4726 15.8977 46.2841C14.5943 46.0956 12.8264 45.9897 10.983 45.9897C9.13959 45.9897 7.3717 46.0956 6.06823 46.2841C4.76475 46.4726 4.03247 46.7283 4.03247 46.9948Z" fill="#45413C"/>
<path d="M13.6531 44.3142C14.1676 44.3094 14.6779 44.4053 15.1529 44.5962V33.0547H5.97827V44.3142H7.8146C8.35087 44.3086 8.88222 44.4133 9.3732 44.6214L9.69559 37.4772C9.69559 37.2544 9.78739 37.0407 9.9508 36.8831C10.1142 36.7255 10.3358 36.637 10.5669 36.637C10.798 36.637 11.0196 36.7255 11.183 36.8831C11.3465 37.0407 11.4383 37.2544 11.4383 37.4772L11.8195 44.3142H13.6531Z" fill="#915E3A"/>
<path fill-rule="evenodd" clip-rule="evenodd" d="M5.66748 33.0546C5.66748 32.8819 5.80658 32.7419 5.97816 32.7419H15.1527C15.3243 32.7419 15.4634 32.8819 15.4634 33.0546V44.5962C15.4634 44.6999 15.4123 44.7969 15.327 44.855C15.2417 44.9132 15.1333 44.925 15.0376 44.8866C14.6003 44.7109 14.1302 44.6224 13.6558 44.6269L13.653 44.6269V44.6269H11.8194C11.6545 44.6269 11.5184 44.4973 11.5092 44.3317L11.128 37.4947C11.1276 37.4889 11.1275 37.483 11.1275 37.4772C11.1275 37.3417 11.0718 37.2089 10.968 37.1089C10.8638 37.0084 10.7197 36.9497 10.5668 36.9497C10.4139 36.9497 10.2698 37.0084 10.1656 37.1089C10.0618 37.2089 10.0062 37.3417 10.0062 37.4772C10.0062 37.4819 10.0061 37.4866 10.0058 37.4914L9.68345 44.6356C9.67884 44.7377 9.62491 44.8311 9.53903 44.8857C9.45314 44.9403 9.34616 44.9492 9.25253 44.9096C8.80099 44.7182 8.31179 44.6217 7.81771 44.6269L7.81449 44.6269V44.6269H5.97816C5.80658 44.6269 5.66748 44.4869 5.66748 44.3142V33.0546ZM6.28884 33.3674V44.0015H7.81295C8.24394 43.9971 8.67217 44.0589 9.08184 44.1837L9.38483 37.4695C9.38692 37.1621 9.51456 36.8706 9.73577 36.6573C9.95836 36.4426 10.2575 36.3243 10.5668 36.3243C10.8761 36.3243 11.1753 36.4426 11.3979 36.6573C11.6186 36.8701 11.7462 37.161 11.7488 37.4677L12.1131 44.0015H13.6515C14.055 43.9978 14.4561 44.0516 14.8421 44.1606V33.3674H6.28884Z" fill="#45413C"/>
<path d="M16.4037 46.3249C16.4037 44.885 14.9442 44.3142 13.653 44.3142H11.8167V45.6543C11.8165 45.8317 11.8894 46.002 12.0192 46.1277C12.1491 46.2534 12.3253 46.3243 12.5094 46.3249H16.4037Z" fill="#915E3A"/>
<path fill-rule="evenodd" clip-rule="evenodd" d="M11.506 44.3142C11.506 44.1415 11.6451 44.0015 11.8167 44.0015H13.653C14.3368 44.0015 15.0853 44.1515 15.6742 44.5125C16.2757 44.8813 16.7144 45.4768 16.7144 46.3248C16.7144 46.4975 16.5753 46.6375 16.4037 46.6375H12.5084C12.2463 46.6367 11.9927 46.5359 11.8039 46.353C11.6146 46.1698 11.5058 45.9188 11.506 45.6543M12.1273 44.6269V45.6543C12.1273 45.7445 12.1642 45.8341 12.2346 45.9023C12.3054 45.9708 12.4041 46.0117 12.5099 46.0121H16.0634C15.9788 45.5846 15.7178 45.2715 15.3509 45.0466C14.8872 44.7623 14.2604 44.6269 13.653 44.6269H12.1273ZM11.506 45.6543V44.3142V45.6543Z" fill="#45413C"/>
<path d="M10.5658 46.3249C10.5658 44.885 9.10581 44.3142 7.8146 44.3142H5.97827V45.6543C5.97827 45.8321 6.05146 46.0025 6.18177 46.1283C6.31207 46.254 6.48881 46.3247 6.67316 46.3249H10.5658Z" fill="#915E3A"/>
<path fill-rule="evenodd" clip-rule="evenodd" d="M5.66748 44.3142C5.66748 44.1415 5.80658 44.0015 5.97816 44.0015H7.81449C8.49834 44.0015 9.24696 44.1515 9.83591 44.5125C10.4375 44.8813 10.8764 45.4768 10.8764 46.3248C10.8764 46.4975 10.7373 46.6375 10.5657 46.6375H6.67305C6.41054 46.6373 6.15608 46.5368 5.96664 46.354C5.77675 46.1707 5.66748 45.9193 5.66748 45.6543V44.3142ZM6.28884 44.6269V45.6543C6.28884 45.7447 6.32595 45.8343 6.39667 45.9025C6.46783 45.9712 6.5671 46.0121 6.67328 46.0121H10.2255C10.1408 45.5847 9.87968 45.2716 9.51271 45.0466C9.04885 44.7623 8.42185 44.6269 7.81449 44.6269H6.28884Z" fill="#45413C"/>
<path d="M18.906 30.2399C18.5738 30.2399 18.2552 30.1127 18.0203 29.8862C17.7854 29.6597 17.6535 29.3525 17.6535 29.0322V28.2293C17.6535 26.4163 16.9066 24.6775 15.5771 23.3955C14.2475 22.1135 12.4443 21.3933 10.5641 21.3933C8.68389 21.3933 6.88068 22.1135 5.55116 23.3955C4.22165 24.6775 3.47473 26.4163 3.47473 28.2293V33.5907C3.47466 33.6787 3.49258 33.7659 3.52747 33.8473C3.56236 33.9286 3.61353 34.0026 3.67807 34.0648C3.7426 34.1271 3.81923 34.1765 3.90357 34.2102C3.98791 34.2439 4.07832 34.2613 4.16962 34.2613H5.50766L4.79262 42.2457C4.78424 42.3381 4.79589 42.4313 4.82684 42.5192C4.85779 42.6071 4.90736 42.6878 4.9724 42.7563C5.03744 42.8247 5.11652 42.8794 5.20464 42.9167C5.29275 42.9541 5.38797 42.9734 5.48424 42.9735H15.6462C15.7425 42.9736 15.8378 42.9544 15.9261 42.9171C16.0143 42.8797 16.0936 42.8251 16.1587 42.7566C16.2239 42.6882 16.2735 42.6074 16.3046 42.5194C16.3356 42.4315 16.3472 42.3382 16.3389 42.2457L15.2704 30.3402C15.4626 31.3509 15.9284 32.2946 16.6205 33.0759C17.3125 33.8572 18.2064 34.4484 19.2115 34.7895C19.3168 34.8288 19.4304 34.8427 19.5425 34.8301C19.6546 34.8175 19.7618 34.7787 19.8549 34.7172C19.948 34.6557 20.0242 34.5732 20.0768 34.4769C20.1294 34.3807 20.1569 34.2735 20.1569 34.1646V30.2399H18.906Z" fill="#00B8F0"/>
<path d="M10.5892 23.8062C13.9166 23.8062 16.7294 25.5606 17.6497 27.9714C17.5806 26.192 16.7941 24.5089 15.4575 23.2801C14.121 22.0513 12.34 21.374 10.4934 21.3922C8.6468 21.4104 6.88048 22.1227 5.57028 23.3776C4.26007 24.6324 3.50941 26.3307 3.47803 28.1111C4.34065 25.6284 7.19807 23.8062 10.5892 23.8062Z" fill="#4ACFFF"/>
<path d="M10.6495 31.9125C10.7181 32.048 10.8247 32.1622 10.9573 32.2421C11.0899 32.322 11.2431 32.3643 11.3994 32.3643C11.5558 32.3643 11.709 32.322 11.8416 32.2421C11.9741 32.1622 12.0808 32.048 12.1493 31.9125L12.5245 31.1705C13.7723 28.7249 14.8688 26.2103 15.8084 23.6398C14.6731 22.4284 13.1247 21.6502 11.4447 21.4466C9.76474 21.2429 8.06476 21.6275 6.65393 22.5302C7.42833 25.4483 9.7379 30.1066 10.2749 31.1705L10.6495 31.9125Z" fill="#009FD9"/>
<path d="M20.1569 30.24H21.8255C22.1472 30.2545 22.4508 30.3879 22.6732 30.6126C22.8955 30.8372 23.0196 31.1359 23.0196 31.4464C23.0196 31.757 22.8955 32.0557 22.6732 32.2803C22.4508 32.505 22.1472 32.6384 21.8255 32.6529H20.1569V30.24Z" fill="#FFCEBF"/>
<path fill-rule="evenodd" clip-rule="evenodd" d="M19.8462 30.2399C19.8462 30.0672 19.9853 29.9272 20.1569 29.9272H21.8255C21.8301 29.9272 21.8347 29.9274 21.8393 29.9276C22.2369 29.9454 22.6147 30.1103 22.8933 30.3918C23.1723 30.6737 23.3303 31.0512 23.3303 31.4464C23.3303 31.8416 23.1723 32.2191 22.8933 32.501C22.6147 32.7825 22.2369 32.9474 21.8393 32.9652C21.8347 32.9655 21.8301 32.9656 21.8255 32.9656H20.1569C19.9853 32.9656 19.8462 32.8256 19.8462 32.6529V30.2399ZM20.4676 30.5527V32.3402H21.8181C22.0615 32.3276 22.2884 32.226 22.4531 32.0596C22.6188 31.8921 22.7089 31.6723 22.7089 31.4464C22.7089 31.2205 22.6188 31.0007 22.4531 30.8332C22.2884 30.6668 22.0615 30.5652 21.8181 30.5527H20.4676Z" fill="#45413C"/>
<path fill-rule="evenodd" clip-rule="evenodd" d="M5.33625 23.1699C6.72495 21.8309 8.6057 21.0808 10.5641 21.0808C12.5225 21.0808 14.4033 21.8309 15.792 23.1699C17.1811 24.5094 17.9642 26.3291 17.9642 28.2295V29.0324C17.9642 29.2653 18.06 29.4916 18.2353 29.6606C18.411 29.83 18.652 29.9274 18.906 29.9274H20.1569C20.3285 29.9274 20.4676 30.0674 20.4676 30.2401V34.1648C20.4676 34.3269 20.4266 34.4859 20.349 34.6279C20.2715 34.7697 20.16 34.8899 20.0255 34.9788C19.891 35.0677 19.737 35.1231 19.577 35.1411C19.4186 35.1589 19.2579 35.1396 19.1083 35.0847C18.0547 34.7264 17.1163 34.1058 16.3886 33.2842C16.1592 33.0253 15.9533 32.7492 15.7725 32.4592L16.6483 42.2174C16.6483 42.2175 16.6483 42.2174 16.6483 42.2174C16.6607 42.3551 16.6433 42.4939 16.5974 42.6242C16.5514 42.7545 16.4782 42.8733 16.3831 42.9732C16.288 43.073 16.1732 43.1519 16.0465 43.2055C15.9197 43.2592 15.7833 43.2866 15.6457 43.2864L15.6462 42.9739V43.2864H15.6457H5.48425C5.34683 43.2864 5.21052 43.2588 5.08395 43.2051C4.95736 43.1514 4.84277 43.0724 4.74789 42.9726C4.65298 42.8727 4.57987 42.7541 4.53402 42.6238C4.48816 42.4936 4.47077 42.3552 4.48322 42.2176C4.48323 42.2175 4.48322 42.2176 4.48322 42.2176L5.16772 34.5742H4.16963C4.03931 34.5742 3.90999 34.5494 3.78893 34.501C3.66786 34.4527 3.55702 34.3814 3.46307 34.2908C3.36909 34.2001 3.29382 34.0917 3.24224 33.9714C3.19068 33.8512 3.16399 33.7218 3.16406 33.5909M10.5641 21.7062C8.7621 21.7062 7.03643 22.3966 5.7661 23.6215C4.49622 24.846 3.78542 26.5038 3.78542 28.2295V33.5909C3.78539 33.6359 3.79454 33.6811 3.81272 33.7236C3.83092 33.766 3.858 33.8055 3.89309 33.8393C3.9282 33.8732 3.97061 33.9008 4.01823 33.9198C4.06586 33.9388 4.11735 33.9488 4.16963 33.9488H5.50767C5.59492 33.9488 5.67814 33.9857 5.737 34.0505C5.79586 34.1153 5.82493 34.2021 5.81709 34.2895L5.10206 42.2739C5.09777 42.3212 5.10366 42.3694 5.11969 42.4149C5.13573 42.4605 5.16176 42.5033 5.19693 42.5403C5.23213 42.5774 5.27571 42.6077 5.32535 42.6288C5.37499 42.6499 5.42915 42.6609 5.48425 42.661C5.48426 42.661 5.48424 42.661 5.48425 42.661H15.6462L15.6466 42.661C15.7018 42.661 15.756 42.65 15.8057 42.629C15.8555 42.608 15.8991 42.5776 15.9344 42.5405C15.9696 42.5035 15.9957 42.4607 16.0118 42.4151C16.0278 42.3695 16.0338 42.3216 16.0295 42.2743L14.961 30.3686C14.9461 30.2026 15.0632 30.054 15.2272 30.0308C15.3912 30.0076 15.5444 30.1179 15.5755 30.2816C15.757 31.2358 16.197 32.1281 16.8524 32.868C17.5078 33.608 18.3557 34.1692 19.3108 34.4934C19.3137 34.4944 19.3166 34.4954 19.3194 34.4965C19.379 34.5187 19.4438 34.5267 19.508 34.5195C19.5722 34.5123 19.6327 34.4902 19.6844 34.456C19.736 34.4219 19.7769 34.3771 19.8046 34.3264C19.8322 34.2758 19.8462 34.2204 19.8463 34.1648C19.8463 34.1648 19.8463 34.1649 19.8463 34.1648V30.5528H18.906C18.4956 30.5528 18.0995 30.3958 17.8054 30.1122C17.5109 29.8282 17.3428 29.4401 17.3428 29.0324V28.2295C17.3428 26.5038 16.632 24.846 15.3621 23.6215C14.0918 22.3966 12.3661 21.7062 10.5641 21.7062ZM5.33625 23.1699C3.94709 24.5094 3.16406 26.3291 3.16406 28.2295L5.33625 23.1699ZM3.16406 28.2295V33.5909V28.2295Z" fill="#45413C"/>
<path fill-rule="evenodd" clip-rule="evenodd" d="M6.81251 26.7063C6.98409 26.7063 7.12319 26.8463 7.12319 27.019V34.2572C7.12319 34.4299 6.98409 34.5699 6.81251 34.5699C6.64093 34.5699 6.50183 34.4299 6.50183 34.2572V27.019C6.50183 26.8463 6.64093 26.7063 6.81251 26.7063Z" fill="#45413C"/>
<path d="M4.31006 35.8655C4.31006 36.1858 4.44202 36.493 4.67692 36.7195C4.91182 36.946 5.2304 37.0733 5.5626 37.0733C5.89479 37.0733 6.21338 36.946 6.44828 36.7195C6.68317 36.493 6.81514 36.1858 6.81514 35.8655V34.2571H4.31006V35.8655Z" fill="#FFCEBF"/>
<path fill-rule="evenodd" clip-rule="evenodd" d="M3.99939 34.257C3.99939 34.0843 4.13849 33.9443 4.31007 33.9443H6.81515C6.98673 33.9443 7.12583 34.0843 7.12583 34.257V35.8655C7.12583 36.2732 6.95775 36.6613 6.66321 36.9453C6.36913 37.2289 5.973 37.3859 5.56261 37.3859C5.15222 37.3859 4.75609 37.2289 4.46201 36.9453C4.16747 36.6613 3.99939 36.2732 3.99939 35.8655V34.257ZM4.62075 34.5697V35.8655C4.62075 36.0984 4.7166 36.3247 4.89185 36.4937C5.06756 36.6631 5.30861 36.7605 5.56261 36.7605C5.8166 36.7605 6.05766 36.6631 6.23337 36.4937C6.40862 36.3247 6.50447 36.0984 6.50447 35.8655V34.5697H4.62075Z" fill="#45413C"/>
<path fill-rule="evenodd" clip-rule="evenodd" d="M15.1528 26.7063C15.3244 26.7063 15.4635 26.8463 15.4635 27.019V29.0354C15.4615 29.4535 15.4991 29.871 15.5758 30.2827C15.6074 30.4524 15.4964 30.6159 15.3277 30.6477C15.1591 30.6795 14.9967 30.5678 14.9651 30.398C14.8811 29.9477 14.84 29.4908 14.8421 29.0331V27.019C14.8421 26.8463 14.9812 26.7063 15.1528 26.7063Z" fill="#45413C"/>
<path d="M40.521 35.6029C40.3604 35.6028 40.2049 35.549 40.0808 35.4508C39.9567 35.3526 39.8717 35.216 39.8402 35.0642L38.4499 28.3611C38.4226 28.2289 38.4371 28.0919 38.4916 27.9678C38.5461 27.8437 38.638 27.7383 38.7554 27.6653L42.9297 25.078L40.0069 21.9799C39.9017 21.8674 39.839 21.724 39.8292 21.5729C39.8193 21.4217 39.8627 21.2718 39.9524 21.1476L42.3252 17.843H39.4792C39.3696 17.843 39.2615 17.8179 39.1638 17.7699C39.0661 17.7219 38.9816 17.6523 38.9172 17.5668L37.028 15.063L35.9857 19.337C35.9463 19.5016 35.8437 19.6457 35.6984 19.7401C35.5532 19.8346 35.3761 19.8723 35.2031 19.8458L31.6552 19.3207L32.5162 23.7521C32.533 23.8386 32.5319 23.9274 32.5132 24.0134C32.4944 24.0995 32.4582 24.1811 32.4067 24.2537C32.3552 24.3263 32.2894 24.3884 32.213 24.4364C32.1366 24.4845 32.0511 24.5176 31.9615 24.5338C31.8719 24.55 31.7798 24.549 31.6905 24.5309C31.6013 24.5128 31.5166 24.4779 31.4413 24.4282C31.366 24.3786 31.3017 24.3151 31.2518 24.2414C31.202 24.1678 31.1677 24.0854 31.1509 23.9989L30.108 18.6375C30.0872 18.5321 30.0929 18.4233 30.1247 18.3205C30.1565 18.2176 30.2135 18.1236 30.2908 18.0464C30.3681 17.9692 30.4636 17.9111 30.5691 17.8769C30.6746 17.8426 30.7871 17.8334 30.8971 17.8498L34.7794 18.4275L36.0222 13.3338C36.0527 13.209 36.1198 13.0952 36.2153 13.0059C36.3109 12.9167 36.4311 12.8558 36.5615 12.8304C36.6919 12.805 36.8272 12.8162 36.9512 12.8628C37.0752 12.9093 37.1827 12.9891 37.2611 13.0928L39.8326 16.5029H43.6491C43.7756 16.5032 43.8997 16.5367 44.008 16.6C44.1162 16.6632 44.2045 16.7537 44.2634 16.8618C44.3222 16.9698 44.3493 17.0913 44.3418 17.2132C44.3344 17.335 44.2925 17.4525 44.2209 17.5531L41.4076 21.471L44.5117 24.763C44.5796 24.8351 44.6304 24.9207 44.6605 25.0136C44.6907 25.1066 44.6995 25.2048 44.6863 25.3014C44.6732 25.398 44.6383 25.4907 44.5843 25.573C44.5303 25.6553 44.4583 25.7252 44.3734 25.778L39.9078 28.5464L41.2028 34.7995C41.2389 34.9736 41.2018 35.1544 41.0996 35.3021C40.9975 35.4498 40.8387 35.5523 40.6582 35.5872C40.6131 35.5968 40.5671 35.6021 40.521 35.6029Z" fill="#FFF48C"/>
<path d="M36.5026 12.5236C36.6888 12.4873 36.882 12.5033 37.0597 12.5699C37.2375 12.6366 37.3936 12.7518 37.5084 12.9037L39.9869 16.1904H43.6497C43.8302 16.1908 44.0079 16.2386 44.1639 16.3297C44.32 16.4209 44.4491 16.5525 44.5358 16.7117C44.6226 16.8711 44.6631 17.0513 44.6519 17.2327C44.6408 17.414 44.5785 17.5879 44.4734 17.7355L44.4727 17.7365L41.8103 21.4441L44.737 24.5479C44.8361 24.6531 44.9112 24.779 44.9559 24.9168C45.0006 25.0546 45.0137 25.2005 44.9941 25.3441C44.9746 25.4877 44.9229 25.6247 44.8435 25.7456C44.7641 25.8664 44.6592 25.9681 44.5366 26.0443L40.2564 28.6978L41.5069 34.7359C41.5607 34.9953 41.5049 35.2636 41.3547 35.4809C41.2053 35.6968 40.9762 35.8436 40.7197 35.8939C40.6563 35.9072 40.5917 35.9145 40.5269 35.9158L40.5207 35.9158C40.2919 35.9156 40.0685 35.8391 39.8888 35.6968C39.7087 35.5543 39.5829 35.354 39.5361 35.1282L38.1458 28.4252C38.1052 28.2288 38.1269 28.0251 38.2074 27.8416C38.2879 27.6583 38.4227 27.5049 38.5921 27.3995L42.4407 25.0141L39.7816 22.1954L39.7807 22.1945C39.6271 22.0303 39.5339 21.8187 39.5192 21.5936C39.5044 21.3686 39.5693 21.1467 39.7008 20.9643L39.7011 20.964L41.7173 18.1559H39.4792C39.3228 18.1559 39.168 18.1202 39.0275 18.0511C38.887 17.9821 38.7642 17.8814 38.6698 17.7561L37.1745 15.7744L36.2878 19.4103L36.2876 19.4111C36.2289 19.6558 36.077 19.8664 35.867 20.003C35.6574 20.1392 35.404 20.1929 35.1573 20.1553L35.1563 20.1551L32.0443 19.6945L32.8211 23.6923C32.846 23.8208 32.8445 23.9528 32.8166 24.0807C32.7887 24.2086 32.7351 24.3291 32.6595 24.4357C32.584 24.5422 32.488 24.6324 32.3777 24.7018C32.2673 24.7712 32.1446 24.8186 32.0164 24.8417C31.8883 24.8649 31.7568 24.8635 31.6291 24.8376C31.5015 24.8117 31.3798 24.7617 31.271 24.69C31.1622 24.6182 31.0682 24.5258 30.995 24.4176C30.9218 24.3094 30.871 24.1877 30.846 24.0592L29.8033 18.6988L29.8032 18.6982C29.7723 18.5417 29.7809 18.3802 29.8281 18.2277C29.8752 18.0752 29.9593 17.9371 30.072 17.8246C30.1847 17.7121 30.3227 17.6284 30.4739 17.5794C30.6249 17.5304 30.7855 17.5172 30.9426 17.5407L34.5452 18.0767L35.7205 13.2595C35.7658 13.074 35.865 12.9067 36.0041 12.7768C36.1431 12.6471 36.3163 12.5598 36.5026 12.5236Z" fill="#45413C"/>
<path d="M43.9965 36.9428L46.3573 35.3496C46.4206 35.3069 46.4674 35.2451 46.4903 35.1739C46.5131 35.1027 46.5107 35.0263 46.4834 34.9565C46.4561 34.8868 46.4054 34.8279 46.3395 34.7891C46.2736 34.7502 46.1961 34.7337 46.1193 34.742L44.8412 34.8791C44.7855 34.885 44.7291 34.8778 44.6769 34.8582C44.6246 34.8386 44.5781 34.8071 44.5412 34.7664C44.5043 34.7257 44.4782 34.6771 44.465 34.6246C44.4518 34.572 44.4519 34.5172 44.4654 34.4648L44.7747 33.2712C44.7926 33.2022 44.7872 33.1296 44.7594 33.0638C44.7317 32.998 44.6829 32.9425 44.6203 32.9051C44.5576 32.8678 44.4842 32.8506 44.4108 32.8561C44.3373 32.8616 44.2676 32.8894 44.2116 32.9356L42.9259 33.9979C42.8871 34.0301 42.8413 34.0536 42.792 34.0668C42.7426 34.0799 42.6909 34.0823 42.6404 34.0739C42.59 34.0655 42.5421 34.0464 42.5002 34.018C42.4583 33.9896 42.4235 33.9526 42.3982 33.9097L41.5181 32.4252C41.4877 32.3739 41.4438 32.3313 41.3908 32.3016C41.3379 32.272 41.2777 32.2563 41.2164 32.2563C41.1552 32.2563 41.095 32.272 41.042 32.3016C40.989 32.3313 40.9451 32.3739 40.9147 32.4252L40.0352 33.9097C40.0099 33.9526 39.975 33.9896 39.933 34.018C39.8911 34.0464 39.8432 34.0655 39.7927 34.0739C39.7422 34.0823 39.6904 34.0799 39.641 34.0668C39.5916 34.0536 39.5458 34.0301 39.507 33.9979L38.2218 32.9356C38.1658 32.8892 38.096 32.8611 38.0225 32.8555C37.9489 32.8499 37.8754 32.8671 37.8126 32.9045C37.7498 32.9418 37.701 32.9975 37.6732 33.0635C37.6454 33.1294 37.6401 33.2022 37.6581 33.2712L37.9675 34.4648C37.9811 34.5172 37.9813 34.572 37.9682 34.6245C37.9551 34.6771 37.929 34.7257 37.8921 34.7664C37.8552 34.8071 37.8087 34.8386 37.7565 34.8583C37.7043 34.8779 37.6479 34.885 37.5922 34.8791L36.3136 34.742C36.2368 34.7338 36.1594 34.7505 36.0936 34.7894C36.0278 34.8283 35.9773 34.8872 35.9501 34.9569C35.9228 35.0265 35.9204 35.1029 35.9433 35.1741C35.9661 35.2452 36.0128 35.3069 36.0761 35.3496L38.4363 36.9428H43.9965Z" fill="#FFAA54"/>
<path fill-rule="evenodd" clip-rule="evenodd" d="M40.891 32.028C40.9907 31.9723 41.1029 31.9434 41.2164 31.9434C41.33 31.9434 41.4422 31.9723 41.5418 32.028C41.6416 32.0839 41.7259 32.165 41.7849 32.2647C41.785 32.2647 41.7849 32.2647 41.7849 32.2647L42.6653 33.7498C42.6667 33.7521 42.6693 33.7553 42.6737 33.7583C42.6783 33.7614 42.6842 33.7639 42.6914 33.7651C42.6985 33.7663 42.7058 33.766 42.7126 33.7642C42.7193 33.7624 42.7246 33.7594 42.7283 33.7563L42.7288 33.7559L44.0145 32.6936C44.1209 32.6058 44.2518 32.5541 44.3878 32.5439C44.5238 32.5338 44.6606 32.5654 44.7786 32.6357C44.8967 32.7061 44.991 32.8124 45.0454 32.9413C45.0999 33.0704 45.1106 33.2137 45.0754 33.3497L44.7662 34.5428C44.7658 34.5445 44.7658 34.546 44.7662 34.5476C44.7666 34.5493 44.7677 34.552 44.7707 34.5553C44.7737 34.5587 44.7786 34.5623 44.7855 34.5649C44.7924 34.5675 44.8004 34.5687 44.8086 34.5678C44.8086 34.5678 44.8085 34.5678 44.8086 34.5678L46.0859 34.4309C46.086 34.4308 46.0858 34.4309 46.0859 34.4309C46.228 34.4154 46.3725 34.4458 46.4965 34.5189C46.6208 34.5921 46.7189 34.7049 46.7724 34.8416C46.826 34.9785 46.8309 35.1295 46.7859 35.2697C46.7411 35.4096 46.65 35.5283 46.5303 35.609L44.1696 37.2022C44.1184 37.2368 44.0582 37.2552 43.9965 37.2552H38.4363C38.3747 37.2552 38.3145 37.2367 38.2633 37.2022L35.9033 35.6091C35.9032 35.6091 35.9033 35.6092 35.9033 35.6091C35.7836 35.5284 35.6925 35.4097 35.6476 35.2699C35.6027 35.1298 35.6075 34.979 35.6609 34.8421C35.7143 34.7055 35.8122 34.5927 35.9363 34.5194C36.0602 34.4462 36.2043 34.4156 36.3465 34.4308L37.625 34.5678C37.625 34.5678 37.6249 34.5678 37.625 34.5678C37.633 34.5687 37.641 34.5676 37.6479 34.565C37.6547 34.5624 37.6595 34.5588 37.6625 34.5555C37.6654 34.5523 37.6665 34.5496 37.6669 34.548C37.6673 34.5465 37.6673 34.545 37.6669 34.5435L37.3576 33.3502C37.3576 33.3501 37.3576 33.3503 37.3576 33.3502C37.3222 33.2141 37.3327 33.0704 37.3872 32.9411C37.4415 32.812 37.536 32.7055 37.6544 32.635C37.7726 32.5646 37.9097 32.5331 38.0459 32.5434C38.182 32.5538 38.3129 32.6057 38.4191 32.6938C38.4192 32.6939 38.4193 32.694 38.4194 32.6941L39.7042 33.756C39.708 33.7591 39.7136 33.7623 39.7204 33.7642C39.7272 33.766 39.7346 33.7663 39.7418 33.7651C39.749 33.7639 39.7551 33.7613 39.7596 33.7582C39.7642 33.7552 39.7668 33.752 39.7682 33.7495L40.6479 32.2648C40.7069 32.1651 40.7913 32.0839 40.891 32.028ZM41.2164 32.5688C41.2074 32.5688 41.1993 32.5711 41.193 32.5746C41.1868 32.5781 41.1833 32.5822 41.1816 32.5851L40.3022 34.0693C40.2529 34.1527 40.1858 34.2235 40.1064 34.2772C40.0271 34.3309 39.9373 34.3664 39.8435 34.3821C39.7498 34.3978 39.6536 34.3933 39.5617 34.3688C39.4698 34.3444 39.3837 34.3004 39.3098 34.2393L38.0241 33.1766C38.0186 33.172 38.0099 33.1679 37.999 33.1671C37.9881 33.1662 37.9781 33.1689 37.9707 33.1733C37.9635 33.1776 37.9604 33.1825 37.9592 33.1852C37.9586 33.1866 37.9584 33.1878 37.9584 33.1886C37.9583 33.1895 37.9584 33.1905 37.9587 33.1916L37.9588 33.192L38.2681 34.3855C38.2949 34.4887 38.2954 34.5969 38.2695 34.7005C38.2437 34.804 38.1925 34.8986 38.1217 34.9768C38.051 35.0549 37.9627 35.1143 37.8651 35.1509C37.7676 35.1876 37.6628 35.2008 37.5595 35.1898L36.2807 35.0527C36.2807 35.0527 36.2807 35.0527 36.2807 35.0527C36.2693 35.0515 36.2587 35.0541 36.2509 35.0587C36.2434 35.0632 36.2402 35.0683 36.2392 35.071C36.2386 35.0724 36.2385 35.0736 36.2384 35.0745C36.2384 35.0753 36.2385 35.0764 36.2389 35.0776C36.2397 35.08 36.2421 35.0849 36.249 35.0895L38.5309 36.6298H43.902L46.1843 35.0896C46.1911 35.085 46.1938 35.0799 46.1946 35.0776C46.195 35.0763 46.1951 35.0753 46.1951 35.0744C46.1951 35.0738 46.195 35.0731 46.1948 35.0724C46.1947 35.0719 46.1945 35.0715 46.1943 35.071C46.1933 35.0682 46.1901 35.0631 46.1825 35.0586C46.1748 35.054 46.1641 35.0514 46.1528 35.0526L44.8737 35.1898C44.7704 35.2007 44.6658 35.1875 44.5683 35.1509C44.4707 35.1143 44.3825 35.055 44.3118 34.977C44.2409 34.8989 44.1898 34.8043 44.1638 34.7009C44.1378 34.5975 44.1381 34.4894 44.1647 34.3861L44.1648 34.3856L44.4741 33.1921C44.4741 33.1921 44.4741 33.1921 44.4741 33.1921C44.4744 33.191 44.4744 33.1901 44.4744 33.1892C44.4743 33.1883 44.4741 33.1872 44.4735 33.1858C44.4723 33.1831 44.4692 33.1782 44.462 33.1739C44.4546 33.1695 44.4447 33.1668 44.4338 33.1676C44.4229 33.1684 44.4143 33.1725 44.4087 33.1771L43.1234 34.239C43.1234 34.239 43.1235 34.239 43.1234 34.239C43.0496 34.3002 42.9633 34.3443 42.8714 34.3688C42.7795 34.3932 42.6833 34.3978 42.5895 34.3821C42.4958 34.3664 42.406 34.3308 42.3267 34.2771C42.2475 34.2234 42.1805 34.1527 42.1312 34.0694C42.1312 34.0693 42.1313 34.0695 42.1312 34.0694L41.2513 32.5852C41.2496 32.5823 41.2461 32.5781 41.2399 32.5746C41.2336 32.5711 41.2254 32.5688 41.2164 32.5688Z" fill="#45413C"/>
<path d="M31.0638 31.4579L32.2433 32.8857C32.294 32.947 32.3622 32.9927 32.4394 33.0172C32.5167 33.0417 32.5997 33.0438 32.6782 33.0234C32.7567 33.003 32.8274 32.9609 32.8814 32.9023C32.9354 32.8437 32.9705 32.7711 32.9823 32.6935L33.2688 30.8183C33.2824 30.7286 33.3271 30.6459 33.3957 30.5838C33.4642 30.5216 33.5524 30.4836 33.6462 30.4759L35.5419 30.3184C35.6069 30.313 35.6697 30.293 35.7253 30.2599C35.7808 30.2269 35.8276 30.1818 35.8618 30.1282C35.896 30.0746 35.9167 30.014 35.9222 29.9512C35.9278 29.8885 35.918 29.8254 35.8937 29.767L35.3491 28.4668C35.3258 28.4111 35.3158 28.3511 35.3198 28.2911C35.3237 28.2312 35.3416 28.1729 35.372 28.1204C35.4024 28.068 35.4446 28.0228 35.4955 27.9882C35.5463 27.9535 35.6046 27.9303 35.666 27.9202L38.4276 27.4686C38.5124 27.4546 38.5906 27.4156 38.6516 27.3571C38.7125 27.2985 38.7532 27.2233 38.768 27.1416C38.7829 27.0599 38.7712 26.9757 38.7345 26.9007C38.6978 26.8257 38.638 26.7634 38.5632 26.7224L36.1028 25.3792C36.0278 25.3381 35.9678 25.2757 35.931 25.2005C35.8943 25.1253 35.8825 25.041 35.8975 24.9591L36.484 21.6739C36.4961 21.606 36.49 21.5362 36.4661 21.4712C36.4422 21.4063 36.4014 21.3483 36.3476 21.3029C36.2938 21.2575 36.2288 21.2262 36.1588 21.212C36.0889 21.1978 36.0163 21.2012 35.9481 21.2218L33.73 21.8976C33.6767 21.9138 33.6205 21.9195 33.5648 21.9143C33.5091 21.9091 33.4551 21.8931 33.4059 21.8673C33.3568 21.8416 33.3135 21.8065 33.2787 21.7643C33.2439 21.722 33.2183 21.6734 33.2034 21.6214L32.7084 19.898C32.6886 19.829 32.65 19.7663 32.5966 19.7165C32.5432 19.6667 32.4769 19.6316 32.4047 19.6147C32.3325 19.5979 32.2569 19.6 32.1859 19.6208C32.1148 19.6417 32.0508 19.6804 32.0004 19.7331L30.7016 21.0937C30.6329 21.1657 30.5393 21.2111 30.4383 21.2214C30.3374 21.2316 30.236 21.206 30.1532 21.1494L28.3654 19.9253C28.3098 19.8873 28.2454 19.8629 28.1779 19.8544C28.1103 19.8459 28.0416 19.8535 27.9778 19.8765C27.9139 19.8995 27.8569 19.9372 27.8117 19.9864C27.7665 20.0355 27.7344 20.0946 27.7184 20.1585L27.1128 22.5777C27.09 22.668 27.0355 22.7479 26.9586 22.8039C26.8817 22.8598 26.7871 22.8885 26.6908 22.8849L24.806 22.8129C24.7313 22.8107 24.6573 22.8279 24.5919 22.8628C24.5265 22.8976 24.472 22.9488 24.4341 23.0109C24.3962 23.073 24.3764 23.1438 24.3767 23.2159C24.3769 23.2879 24.3973 23.3586 24.4356 23.4205L25.5793 25.2269C25.6316 25.3095 25.6513 25.4076 25.6347 25.5031C25.6181 25.5986 25.5663 25.6851 25.4889 25.7467L24.2178 26.7613C24.1557 26.8108 24.1098 26.8767 24.0856 26.9509C24.0615 27.0251 24.0602 27.1044 24.0819 27.1793C24.1035 27.2542 24.1472 27.3214 24.2077 27.3729C24.2682 27.4243 24.3428 27.4577 24.4226 27.4691L26.1473 27.7143C26.2125 27.7237 26.2744 27.7477 26.3281 27.7846C26.3818 27.8215 26.4256 27.8701 26.4561 27.9264C26.4865 27.9828 26.5027 28.0453 26.5033 28.1088C26.5038 28.1724 26.4888 28.2351 26.4593 28.292L25.4104 30.3095C25.3733 30.3809 25.3591 30.4613 25.3695 30.5406C25.38 30.6198 25.4147 30.6942 25.4692 30.7544C25.5237 30.8146 25.5955 30.8577 25.6756 30.8783C25.7556 30.899 25.8402 30.8962 25.9185 30.8703L28.1165 30.1446C28.1745 30.1254 28.2362 30.1189 28.2971 30.1253C28.358 30.1318 28.4168 30.1511 28.4691 30.182C28.5214 30.2128 28.566 30.2544 28.5997 30.3037C28.6335 30.3531 28.6555 30.409 28.6643 30.4675L28.9137 32.1321C28.9252 32.2088 28.9595 32.2807 29.0123 32.3391C29.0652 32.3975 29.1344 32.4399 29.2116 32.4612C29.2889 32.4826 29.3709 32.482 29.4478 32.4595C29.5247 32.4369 29.5932 32.3935 29.6451 32.3343L30.419 31.4495C30.4587 31.404 30.5085 31.3677 30.5646 31.343C30.6207 31.3183 30.6818 31.3059 30.7434 31.3067C30.8051 31.3075 30.8658 31.3215 30.9212 31.3476C30.9766 31.3738 31.0253 31.4114 31.0638 31.4579Z" fill="#FFFCE5"/>
<path fill-rule="evenodd" clip-rule="evenodd" d="M28.5401 19.6667L30.3279 20.8907C30.3279 20.8907 30.3279 20.8907 30.3279 20.8907C30.3494 20.9054 30.3778 20.9132 30.4071 20.9102C30.4365 20.9072 30.4612 20.8942 30.4776 20.877L31.7764 19.5164C31.8652 19.4235 31.9769 19.3563 32.0991 19.3205M31.0638 31.4579L31.3027 31.2579L32.4822 32.6857C32.4939 32.6998 32.511 32.712 32.5327 32.7189C32.5544 32.7258 32.5782 32.7264 32.6005 32.7206C32.6228 32.7148 32.6409 32.7034 32.6536 32.6896C32.6662 32.6759 32.673 32.6606 32.6752 32.6461L32.9617 30.7709C32.9865 30.6082 33.0673 30.4607 33.1877 30.3514C33.3078 30.2425 33.4605 30.1774 33.6206 30.1642" fill="#45413C"/>
<path d="M29.0553 27.0311C29.0134 26.8219 28.8871 26.6372 28.7042 26.5176C28.5212 26.398 28.2966 26.3532 28.0794 26.3931L24.9601 26.9708C24.844 26.9925 24.7341 27.0378 24.6376 27.1036C24.5411 27.1695 24.4602 27.2543 24.4003 27.3526C24.3404 27.4509 24.3029 27.5603 24.2902 27.6737C24.2775 27.787 24.29 27.9016 24.3267 28.01L25.0042 30.0054L17.8582 32.0513C17.6682 32.1056 17.5045 32.2234 17.3965 32.3835C17.2884 32.5436 17.243 32.7356 17.2684 32.925L17.5499 34.9898L15.7528 35.7166L15.9037 37.4001L18.7823 36.2359C18.9512 36.168 19.0921 36.0483 19.1833 35.8954C19.2746 35.7425 19.3111 35.5648 19.2871 35.3899L19.0149 33.3945L26.2981 31.3129C26.405 31.2825 26.5045 31.2316 26.5906 31.1634C26.6768 31.0952 26.7479 31.011 26.7997 30.9158C26.8515 30.8206 26.8829 30.7163 26.8922 30.6092C26.9015 30.5021 26.8883 30.3943 26.8536 30.2921L26.2039 28.3775L28.3931 27.9727C28.6104 27.9325 28.8022 27.8107 28.9264 27.6341C29.0506 27.4576 29.097 27.2407 29.0553 27.0311Z" fill="#915E3A"/>
<path fill-rule="evenodd" clip-rule="evenodd" d="M28.0237 26.0855C28.3178 26.0314 28.6231 26.0917 28.8734 26.2553C29.1241 26.4193 29.3009 26.675 29.3599 26.9693L29.36 26.9697C29.4186 27.2648 29.3529 27.569 29.18 27.8148C29.0076 28.06 28.7438 28.2257 28.4493 28.2802L26.6143 28.6195L27.1475 30.1908C27.1475 30.1908 27.1475 30.1908 27.1475 30.1908M26.3828 31.6138C26.3828 31.6138 26.3828 31.6138 26.3828 31.6138L19.3594 33.6211L19.3227 33.3519L19.0149 33.3945L19.0997 33.6953L19.3594 33.6211L19.5949 35.3472C19.6286 35.5936 19.577 35.843 19.4497 36.0563C19.3226 36.2693 19.128 36.4334 18.8981 36.526L18.7823 36.2358L18.8977 36.5262L16.0195 37.6902C15.9283 37.7271 15.8252 37.7184 15.7414 37.6667C15.6577 37.6151 15.6031 37.5266 15.5943 37.4281L15.4434 35.7446C15.4311 35.6071 15.5098 35.4778 15.637 35.4264L17.2092 34.7906L17.2422 35.0323L17.5499 34.9898L17.4341 34.6996L17.2092 34.7906L16.9606 32.9675L16.9605 32.9668C16.9247 32.6999 16.989 32.4307 17.1395 32.2077C17.2897 31.9851 17.5152 31.8243 17.7732 31.7504L24.6044 29.7947L24.7102 30.1065L25.0042 30.0054L24.9192 29.7046L24.6044 29.7947L24.0327 28.111C23.9812 27.9592 23.9636 27.798 23.9815 27.6386C23.9993 27.4792 24.0521 27.326 24.1355 27.1891C24.2189 27.0522 24.3309 26.9351 24.4633 26.8447C24.5957 26.7544 24.7457 26.6928 24.9032 26.6633L24.9039 26.6632L28.0237 26.0855M28.1352 26.7007C28.1352 26.7007 28.1353 26.7007 28.1352 26.7007L25.017 27.2781C25.0169 27.2781 25.017 27.2781 25.017 27.2781C24.9425 27.2921 24.8725 27.3211 24.8119 27.3624C24.7513 27.4038 24.7015 27.4564 24.6652 27.5161C24.6288 27.5757 24.6065 27.6414 24.5989 27.7086C24.5914 27.7759 24.5987 27.844 24.6207 27.9088C24.6207 27.9088 24.6207 27.9088 24.6207 27.9088L25.2982 29.9042C25.3257 29.9854 25.319 30.0744 25.2795 30.1504C25.2399 30.2263 25.1712 30.2827 25.0892 30.3061L17.9432 32.352C17.8214 32.3868 17.7194 32.4615 17.6535 32.5591C17.5879 32.6563 17.5613 32.7709 17.5763 32.8829C17.5763 32.883 17.5762 32.8828 17.5763 32.8829L17.8577 34.9472C17.8771 35.0893 17.798 35.2264 17.6658 35.2799L16.083 35.92L16.1756 36.9531L18.6665 35.9457L18.667 35.9455C18.7746 35.9022 18.8617 35.827 18.917 35.7343C18.9722 35.6419 18.9935 35.536 18.9794 35.4325L18.7071 33.437C18.686 33.2826 18.7811 33.1362 18.93 33.0936L26.2133 31.0121C26.2817 30.9926 26.3447 30.9602 26.3986 30.9176C26.4524 30.875 26.4959 30.8231 26.5272 30.7655C26.5585 30.708 26.5772 30.6456 26.5827 30.5821C26.5882 30.5185 26.5804 30.4544 26.5597 30.3933L25.9099 28.4786C25.8807 28.3925 25.8902 28.2979 25.9359 28.2194C25.9815 28.1409 26.0589 28.0864 26.1478 28.0699L28.337 27.6651C28.477 27.6392 28.597 27.5614 28.6729 27.4534C28.7484 27.3461 28.7753 27.2166 28.7507 27.0926C28.7258 26.9685 28.65 26.855 28.5349 26.7798C28.4194 26.7043 28.2753 26.675 28.1352 26.7007Z" fill="#45413C"/>
<path d="M32.4368 28.8243C31.9585 29.136 31.395 29.304 30.8178 29.3069C30.2405 29.3099 29.6752 29.1477 29.1935 28.8409C28.7118 28.5341 28.3353 28.0965 28.1115 27.5834C27.8877 27.0702 27.8268 26.5046 27.9364 25.9581C28.046 25.4115 28.3211 24.9086 28.7272 24.5129C29.1332 24.1171 29.6517 23.8464 30.2173 23.7348C30.7829 23.6233 31.3701 23.6759 31.9046 23.8862C32.4392 24.0964 32.8971 24.4547 33.2204 24.9159C33.4351 25.2221 33.5852 25.5662 33.662 25.9283C33.7388 26.2905 33.7409 26.6637 33.6682 27.0266C33.5954 27.3896 33.4492 27.7351 33.2379 28.0436C33.0266 28.352 32.7544 28.6173 32.4368 28.8243Z" fill="#E04122"/>
<path d="M33.2203 24.9158C32.9485 24.5249 32.579 24.2064 32.146 23.9893C31.7129 23.7723 31.2302 23.6639 30.7423 23.674C30.2544 23.6841 29.7769 23.8124 29.3539 24.0471C28.9309 24.2818 28.576 24.6154 28.3218 25.0171C28.8789 24.6798 29.538 24.5344 30.1918 24.6047C30.8455 24.6749 31.4553 24.9566 31.9217 25.4039C32.3881 25.8512 32.6836 26.4377 32.76 27.0677C32.8364 27.6977 32.6892 28.3341 32.3424 28.873C32.3729 28.8547 32.4061 28.8442 32.4366 28.8242C32.7543 28.6172 33.0265 28.3519 33.2378 28.0435C33.4491 27.735 33.5953 27.3895 33.668 27.0265C33.7408 26.6636 33.7387 26.2904 33.6619 25.9282C33.5851 25.566 33.435 25.222 33.2203 24.9158Z" fill="#FF6242"/>
<path fill-rule="evenodd" clip-rule="evenodd" d="M31.7915 24.1774C31.3121 23.9889 30.7849 23.9415 30.277 24.0417C29.7691 24.1418 29.3051 24.3847 28.9432 24.7375C28.5813 25.0901 28.3377 25.5367 28.2408 26.0199C28.1439 26.503 28.1977 27.0031 28.3959 27.4576C28.5942 27.9123 28.9288 28.3023 29.3595 28.5766C29.7904 28.8511 30.2973 28.9969 30.8161 28.9942C31.3348 28.9915 31.84 28.8406 32.2678 28.5618C32.5518 28.3767 32.7943 28.1401 32.982 27.866C33.1697 27.592 33.2992 27.2857 33.3635 26.9647C33.4279 26.6438 33.426 26.3139 33.3581 25.9936C33.2901 25.6733 33.1573 25.3683 32.9665 25.0962C32.6791 24.6863 32.2707 24.3659 31.7915 24.1774ZM30.1575 23.4279C30.7807 23.305 31.4278 23.3629 32.0176 23.5949C32.6074 23.8268 33.1148 24.2231 33.4741 24.7355C33.7128 25.0759 33.88 25.459 33.9657 25.863C34.0514 26.267 34.0538 26.6835 33.9726 27.0884C33.8914 27.4934 33.7284 27.8782 33.4936 28.221C33.2587 28.5639 32.9568 28.8578 32.6055 29.0868C32.0767 29.4314 31.4551 29.6163 30.8192 29.6196C30.1834 29.6228 29.5598 29.4443 29.0273 29.1051C28.4946 28.7659 28.0762 28.2806 27.8269 27.709C27.5776 27.1372 27.5094 26.5062 27.6317 25.8962C27.754 25.2863 28.0607 24.727 28.5109 24.2882C28.9609 23.8495 29.5342 23.5509 30.1575 23.4279Z" fill="#45413C"/>
<path d="M24.1634 31.0544C24.106 30.8467 24.0033 30.6533 23.8621 30.487C23.7209 30.3207 23.5445 30.1854 23.3447 30.0902C23.1449 29.995 22.9263 29.9421 22.7036 29.9349C22.4808 29.9278 22.2591 29.9666 22.0532 30.0488C21.6959 30.2076 21.4098 30.4851 21.2473 30.8306C21.0848 31.1761 21.0567 31.5665 21.1682 31.9303L21.2733 32.3078C21.3438 32.5613 21.5143 32.7781 21.7483 32.9121C21.9823 33.0462 22.2613 33.0867 22.5258 33.0251L23.5393 32.7867C23.6744 32.7552 23.8016 32.6979 23.9133 32.6183C24.0251 32.5386 24.1193 32.4383 24.1903 32.3231C24.2614 32.2079 24.3078 32.0802 24.3269 31.9474C24.3461 31.8147 24.3375 31.6796 24.3017 31.5501L24.1634 31.0544Z" fill="#FFCEBF"/>
<path fill-rule="evenodd" clip-rule="evenodd" d="M21.9385 29.7583C22.1842 29.6602 22.4484 29.6141 22.7134 29.6226C22.9784 29.6311 23.2389 29.6941 23.4776 29.8078C23.7163 29.9215 23.928 30.0836 24.0982 30.284C24.2683 30.4844 24.3928 30.7183 24.4625 30.9704C24.4625 30.9705 24.4626 30.9707 24.4626 30.9708L24.601 31.4666C24.6482 31.6378 24.6596 31.8167 24.6343 31.9925C24.6089 32.1683 24.5475 32.3368 24.4542 32.4882C24.3609 32.6395 24.2378 32.7704 24.0927 32.8737C23.9477 32.977 23.7835 33.0508 23.6098 33.0915C23.6097 33.0915 23.6099 33.0914 23.6098 33.0915L22.5964 33.3298L22.5957 33.33C22.2559 33.4091 21.897 33.3573 21.5945 33.1841C21.2917 33.0107 21.0674 32.7278 20.974 32.3924C20.974 32.3924 20.974 32.3924 20.974 32.3924L20.87 32.0186C20.7369 31.5809 20.7714 31.1116 20.9664 30.697C21.1618 30.2816 21.5041 29.9511 21.9275 29.7629C21.9312 29.7613 21.9348 29.7598 21.9385 29.7583ZM22.1731 30.3375C21.8845 30.4673 21.6568 30.6908 21.528 30.9646C21.3986 31.2398 21.3765 31.5495 21.465 31.8383L21.4673 31.8461L21.5724 32.2237C21.6201 32.3952 21.7366 32.546 21.9018 32.6406C22.0673 32.7353 22.2662 32.7647 22.4554 32.7208C22.4555 32.7207 22.4553 32.7208 22.4554 32.7208L23.4689 32.4823C23.5653 32.4598 23.6553 32.4191 23.7338 32.3632C23.8123 32.3073 23.8775 32.2375 23.9262 32.1584C23.975 32.0794 24.0064 31.9924 24.0194 31.9027C24.0323 31.8132 24.0265 31.7221 24.0024 31.6344C24.0024 31.6343 24.0023 31.6342 24.0023 31.634L23.8642 31.1391L23.864 31.1384C23.8189 30.9753 23.738 30.8225 23.6258 30.6904C23.5136 30.5582 23.3726 30.4497 23.2117 30.3731C23.0507 30.2964 22.8741 30.2535 22.6936 30.2477C22.5151 30.2419 22.3377 30.2727 22.1731 30.3375Z" fill="#45413C"/>
<path d="M14.7356 14.5575C14.7419 14.0256 14.6387 13.4978 14.4319 13.0046C14.2252 12.5114 13.919 12.0626 13.5312 11.6843C13.1433 11.3061 12.6815 11.0057 12.1724 10.8008C11.6633 10.5958 11.1171 10.4902 10.5654 10.4902C10.0138 10.4902 9.46756 10.5958 8.95848 10.8008C8.44941 11.0057 7.98756 11.3061 7.5997 11.6843C7.21184 12.0626 6.90568 12.5114 6.69894 13.0046C6.49219 13.4978 6.38899 14.0256 6.39529 14.5575V16.166C6.38899 16.6979 6.49219 17.2257 6.69894 17.7189C6.90568 18.2121 7.21184 18.6608 7.5997 19.0391C7.98756 19.4174 8.44941 19.7177 8.95848 19.9227C9.46756 20.1277 10.0138 20.2332 10.5654 20.2332C11.1171 20.2332 11.6633 20.1277 12.1724 19.9227C12.6815 19.7177 13.1433 19.4174 13.5312 19.0391C13.919 18.6608 14.2252 18.2121 14.4319 17.7189C14.6387 17.2257 14.7419 16.6979 14.7356 16.166V14.5575Z" fill="#FFCEBF"/>
<path fill-rule="evenodd" clip-rule="evenodd" d="M8.8431 10.5104C9.38911 10.2905 9.97449 10.1775 10.5654 10.1775C11.1564 10.1775 11.7418 10.2905 12.2878 10.5104C12.8338 10.7302 13.33 11.0527 13.7474 11.4597C14.1647 11.8668 14.495 12.3504 14.7182 12.883C14.9412 13.4149 15.0528 13.9847 15.0463 14.5593V16.1641C15.0528 16.7387 14.9412 17.3084 14.7182 17.8404C14.495 18.373 14.1647 18.8566 13.7474 19.2636C13.33 19.6707 12.8338 19.9932 12.2878 20.213C11.7418 20.4329 11.1564 20.5459 10.5654 20.5459C9.97449 20.5459 9.38911 20.4329 8.8431 20.213C8.29708 19.9932 7.80085 19.6707 7.38351 19.2636C6.96614 18.8566 6.63593 18.373 6.4127 17.8404C6.1897 17.3084 6.07807 16.7386 6.08462 16.1641V14.5593C6.07807 13.9847 6.1897 13.4149 6.4127 12.883C6.63593 12.3504 6.96614 11.8668 7.38351 11.4597C7.80085 11.0527 8.29708 10.7302 8.8431 10.5104ZM10.5654 10.8029C10.053 10.8029 9.54603 10.9009 9.07389 11.091C8.60176 11.2811 8.17429 11.5593 7.81592 11.9089C7.45757 12.2584 7.17544 12.6722 6.98519 13.1261C6.79496 13.5799 6.70017 14.0651 6.70596 14.5538L6.706 14.5575L6.70598 16.1696C6.70019 16.6583 6.79496 17.1435 6.98519 17.5973C7.17544 18.0512 7.45757 18.465 7.81592 18.8145C8.17429 19.1641 8.60176 19.4423 9.07389 19.6323C9.54603 19.8224 10.053 19.9205 10.5654 19.9205C11.0778 19.9205 11.5849 19.8224 12.057 19.6323C12.5291 19.4423 12.9566 19.1641 13.315 18.8145C13.6733 18.465 13.9554 18.0512 14.1457 17.5973C14.3359 17.1435 14.4307 16.6583 14.4249 16.1696L14.4249 16.1659L14.4249 14.5538C14.4307 14.0651 14.3359 13.5799 14.1457 13.1261C13.9554 12.6722 13.6733 12.2584 13.315 11.9089C12.9566 11.5593 12.5291 11.2811 12.057 11.091C11.5849 10.9009 11.0778 10.8029 10.5654 10.8029Z" fill="#45413C"/>
<path d="M9.83586 14.9597C9.73279 14.9597 9.63202 14.9892 9.54632 15.0444C9.46061 15.0996 9.39381 15.1781 9.35437 15.2699C9.31492 15.3618 9.3046 15.4628 9.32471 15.5603C9.34482 15.6578 9.39446 15.7473 9.46734 15.8176C9.54023 15.8879 9.63309 15.9357 9.73419 15.9551C9.83528 15.9745 9.94007 15.9646 10.0353 15.9265C10.1305 15.8885 10.2119 15.8241 10.2692 15.7414C10.3265 15.6588 10.357 15.5616 10.357 15.4623C10.357 15.3963 10.3435 15.3309 10.3174 15.2699C10.2912 15.209 10.2528 15.1536 10.2044 15.1069C10.156 15.0602 10.0985 15.0232 10.0353 14.998C9.97207 14.9727 9.9043 14.9597 9.83586 14.9597Z" fill="#45413C"/>
<path d="M12.9635 14.9597C12.8605 14.9597 12.7597 14.9892 12.674 15.0444C12.5883 15.0996 12.5215 15.1781 12.4821 15.2699C12.4426 15.3618 12.4323 15.4628 12.4524 15.5603C12.4725 15.6578 12.5221 15.7473 12.595 15.8176C12.6679 15.8879 12.7608 15.9357 12.8619 15.9551C12.963 15.9745 13.0678 15.9646 13.163 15.9265C13.2582 15.8885 13.3396 15.8241 13.3969 15.7414C13.4541 15.6588 13.4847 15.5616 13.4847 15.4623C13.4848 15.3962 13.4714 15.3309 13.4452 15.2699C13.419 15.2089 13.3806 15.1534 13.3322 15.1068C13.2838 15.0601 13.2263 15.0231 13.1631 14.9978C13.0998 14.9726 13.032 14.9596 12.9635 14.9597Z" fill="#45413C"/>
<path d="M8.48047 16.9704C8.48047 17.077 8.52442 17.1793 8.60265 17.2548C8.68088 17.3302 8.78698 17.3726 8.89762 17.3726C9.00825 17.3726 9.11436 17.3302 9.19259 17.2548C9.27082 17.1793 9.31477 17.077 9.31477 16.9704C9.31477 16.8637 9.27082 16.7614 9.19259 16.6859C9.11436 16.6105 9.00825 16.5681 8.89762 16.5681C8.78698 16.5681 8.68088 16.6105 8.60265 16.6859C8.52442 16.7614 8.48047 16.8637 8.48047 16.9704Z" fill="#FFB59E"/>
<path d="M15.1528 20.9912C15.1528 23.2124 11.3995 30.6423 11.3995 30.6423C11.3995 30.6423 7.64624 23.2103 7.64624 20.9912C7.64624 18.772 9.09646 17.3721 11.3995 17.3721C13.7025 17.3721 15.1528 18.7705 15.1528 20.9912Z" fill="#E0E0E0"/>
<path fill-rule="evenodd" clip-rule="evenodd" d="M8.87408 18.5752C8.29455 19.1342 7.95681 19.9522 7.95681 20.9911C7.95681 21.486 8.17277 22.3198 8.52572 23.3317C8.87373 24.3295 9.33924 25.4581 9.80689 26.5224C10.2742 27.5858 10.7417 28.5807 11.0926 29.31C11.2092 29.5526 11.313 29.7656 11.3994 29.9419C11.4859 29.7657 11.5896 29.5527 11.7062 29.3103C12.0571 28.5811 12.5246 27.5864 12.9919 26.5231C13.4595 25.459 13.9251 24.3305 14.2731 23.3326C14.626 22.3207 14.842 21.4865 14.842 20.9911C14.842 19.9513 14.5042 19.1334 13.9247 18.5746C13.3438 18.0144 12.4886 17.6847 11.3994 17.6847C10.3103 17.6847 9.45506 18.0148 8.87408 18.5752ZM11.3994 30.6422C11.1224 30.7839 11.1224 30.7839 11.1224 30.7838L11.1114 30.762L11.0797 30.6988C11.052 30.6434 11.0115 30.5621 10.96 30.4579C10.8569 30.2495 10.7098 29.9494 10.5333 29.5826C10.1804 28.8491 9.70967 27.8473 9.23863 26.7753C8.76796 25.7042 8.29516 24.5588 7.93944 23.5389C7.58864 22.5332 7.33545 21.6059 7.33545 20.9911C7.33545 19.8109 7.72282 18.8194 8.44416 18.1236C9.16405 17.4293 10.1854 17.0593 11.3994 17.0593C12.6132 17.0593 13.6347 17.4288 14.3546 18.123C15.076 18.8186 15.4633 19.8102 15.4633 20.9911C15.4633 21.6064 15.2102 22.5339 14.8594 23.5398C14.5036 24.5597 14.0308 25.7051 13.5601 26.7761C13.0891 27.848 12.6183 28.8496 12.2655 29.5829C12.089 29.9497 11.9418 30.2496 11.8388 30.458C11.7873 30.5622 11.7467 30.6435 11.719 30.6989L11.6874 30.762L11.6765 30.7835C11.6765 30.7836 11.6763 30.784 11.3994 30.6422ZM11.3994 30.6422L11.6763 30.784C11.6233 30.8889 11.5163 30.9549 11.3994 30.9549C11.2824 30.9549 11.1754 30.8887 11.1224 30.7838L11.3994 30.6422Z" fill="#45413C"/>
<path d="M14.3658 20.5895C14.3658 20.5895 13.5315 19.1816 12.6977 18.9805C12.2506 18.8729 11.8634 18.6208 11.8634 18.1765C11.8634 17.9632 11.9513 17.7586 12.1078 17.6077C12.2642 17.4568 12.4764 17.3721 12.6977 17.3721C14.851 17.3721 14.3658 20.5895 14.3658 20.5895Z" fill="#E0E0E0"/>
<path fill-rule="evenodd" clip-rule="evenodd" d="M12.6977 17.6847C12.5546 17.6847 12.42 17.7397 12.3227 17.8335C12.2259 17.9268 12.1741 18.0505 12.1741 18.1765C12.1741 18.2941 12.2206 18.3856 12.3153 18.4675C12.4179 18.5562 12.5752 18.6294 12.77 18.6763C13.0423 18.742 13.2931 18.8995 13.5063 19.0743C13.7223 19.2514 13.9189 19.4623 14.0829 19.6599C14.0884 19.6666 14.0938 19.6732 14.0992 19.6797C14.0928 19.4765 14.0739 19.2561 14.0337 19.0376C13.9648 18.6627 13.8383 18.3214 13.6311 18.0785C13.4342 17.8478 13.1477 17.6847 12.6977 17.6847ZM14.3658 20.5894C14.6729 20.6363 14.6729 20.6362 14.673 20.6361L14.6731 20.635L14.6735 20.6324L14.6747 20.6238C14.6757 20.6166 14.6771 20.6064 14.6788 20.5934C14.6821 20.5674 14.6866 20.5302 14.6914 20.4834C14.7011 20.3899 14.7122 20.2575 14.7184 20.099C14.7307 19.7841 14.7243 19.3568 14.6447 18.9238C14.5658 18.4944 14.4099 18.0314 14.1025 17.671C13.7847 17.2985 13.3243 17.0593 12.6977 17.0593C12.3982 17.0593 12.1085 17.1739 11.8929 17.3819C11.6767 17.5902 11.5527 17.8758 11.5527 18.1765C11.5527 18.5032 11.6998 18.7598 11.9105 18.9419C12.1132 19.1172 12.3731 19.2238 12.6254 19.2846C12.77 19.3195 12.9362 19.4134 13.1139 19.5591C13.2888 19.7025 13.4571 19.8813 13.6059 20.0608C13.754 20.2393 13.8782 20.4129 13.9654 20.5421C14.0089 20.6065 14.0429 20.6594 14.0657 20.6957C14.0772 20.7139 14.0858 20.7279 14.0914 20.7371L14.0975 20.7472L14.0988 20.7494C14.166 20.8627 14.2969 20.9217 14.4255 20.8963C14.5542 20.8709 14.6533 20.7666 14.673 20.6361L14.3658 20.5894Z" fill="#45413C"/>
<path d="M9.36161 20.5895C9.36161 20.5895 10.1954 19.1816 11.0297 18.9805C11.4762 18.8729 11.8634 18.6208 11.8634 18.1765C11.8635 18.0709 11.842 17.9663 11.8001 17.8687C11.7582 17.7711 11.6968 17.6824 11.6194 17.6077C11.542 17.533 11.45 17.4738 11.3489 17.4333C11.2477 17.3929 11.1392 17.3721 11.0297 17.3721C8.87475 17.3721 9.36161 20.5895 9.36161 20.5895Z" fill="#E0E0E0"/>
<path fill-rule="evenodd" clip-rule="evenodd" d="M9.62438 17.671C9.94233 17.2984 10.4029 17.0593 11.0298 17.0593C11.1783 17.0593 11.3257 17.0875 11.4636 17.1426C11.6016 17.1978 11.7277 17.2789 11.8345 17.382C11.9414 17.4851 12.0269 17.6082 12.0855 17.7447C12.1441 17.8813 12.1743 18.0281 12.1742 18.1767C12.1742 18.1768 12.1742 18.1766 12.1742 18.1767C12.1742 18.5033 12.0271 18.7598 11.8166 18.9419C11.6139 19.1172 11.3542 19.2238 11.1022 19.2846C10.9574 19.3194 10.7911 19.4134 10.6134 19.5592C10.4385 19.7025 10.2702 19.8813 10.1214 20.0607C9.97335 20.2393 9.84925 20.4128 9.76205 20.542C9.71858 20.6064 9.68463 20.6593 9.6618 20.6956C9.65039 20.7138 9.64179 20.7278 9.63618 20.737L9.63006 20.7471L9.62874 20.7493L9.36175 20.5894C9.66888 20.5423 9.6689 20.5424 9.66891 20.5425L9.66878 20.5416L9.66803 20.5364C9.66734 20.5314 9.66626 20.5236 9.6649 20.513C9.66217 20.4919 9.65831 20.4599 9.65404 20.4188C9.64551 20.3363 9.63546 20.2174 9.62978 20.0742C9.62507 19.9556 9.62343 19.822 9.62788 19.68C9.63335 19.6733 9.63886 19.6667 9.6444 19.66C9.80834 19.4623 10.0049 19.2514 10.221 19.0743C10.4342 18.8994 10.685 18.742 10.9574 18.6764C11.152 18.6295 11.3091 18.5562 11.4117 18.4675C11.5064 18.3856 11.5529 18.2941 11.5529 18.1765C11.5529 18.1139 11.5402 18.0513 11.515 17.9926C11.4898 17.9339 11.4525 17.8797 11.4046 17.8334C11.3565 17.7871 11.2988 17.7497 11.2344 17.7239C11.1699 17.6981 11.1003 17.6847 11.0298 17.6847C10.5793 17.6847 10.2926 17.8478 10.0957 18.0785C9.88847 18.3214 9.762 18.6627 9.69319 19.0375C9.65307 19.2561 9.63424 19.4767 9.62788 19.68C9.47061 19.8713 9.34007 20.0543 9.24807 20.1906C9.20033 20.2613 9.16263 20.32 9.1366 20.3614C9.12358 20.3821 9.11346 20.3986 9.10644 20.4101L9.09827 20.4236L9.09596 20.4275L9.09527 20.4286L9.09504 20.429C9.095 20.4291 9.09488 20.4293 9.36175 20.5894C9.05461 20.6365 9.05459 20.6364 9.05457 20.6363L9.0544 20.6351L9.05402 20.6325L9.0528 20.624C9.05178 20.6168 9.05039 20.6065 9.04871 20.5935C9.04536 20.5676 9.04087 20.5304 9.03603 20.4836C9.02635 20.3901 9.0152 20.2577 9.00891 20.0992C8.99641 19.7842 9.00268 19.3569 9.08217 18.9239C9.16101 18.4944 9.31687 18.0314 9.62438 17.671ZM9.62874 20.7493C9.62873 20.7493 9.62876 20.7493 9.62874 20.7493V20.7493ZM9.62874 20.7493C9.56158 20.8626 9.43077 20.9216 9.3021 20.8963C9.17339 20.871 9.07432 20.7668 9.05457 20.6363L9.36175 20.5894" fill="#45413C"/>
<path d="M5.97825 21.7957C5.97825 21.7957 6.1035 22.2252 6.21187 22.8343C6.68921 22.4759 7.21207 22.1777 7.76775 21.9469C6.24292 21.092 6.81255 16.9699 6.81255 16.9699C6.9399 17.1904 7.11998 17.3784 7.33783 17.5183C7.55567 17.6582 7.805 17.746 8.06509 17.7743C7.6414 17.3658 7.91097 13.1318 8.174 10.3203C7.38399 10.7351 6.72459 11.3477 6.26524 12.0934C5.80588 12.8392 5.56357 13.6906 5.56382 14.558C5.56382 14.558 6.18955 20.7239 4.31128 21.7962C4.31019 21.7957 5.35307 22.4657 5.97825 21.7957Z" fill="#E0E0E0"/>
<path fill-rule="evenodd" clip-rule="evenodd" d="M8.34724 10.0608C8.44171 10.1247 8.49387 10.2355 8.4832 10.3496C8.35199 11.7521 8.21945 13.5065 8.17243 14.9586C8.14888 15.6857 8.14704 16.3297 8.17636 16.8136C8.19108 17.0564 8.21314 17.2497 8.24157 17.3892C8.2558 17.4591 8.27012 17.5079 8.28246 17.5393C8.28663 17.55 8.28988 17.5568 8.29186 17.5607C8.37809 17.6534 8.40035 17.7902 8.3466 17.9063C8.29044 18.0277 8.16376 18.0996 8.03153 18.0852C7.72446 18.0517 7.42929 17.948 7.17059 17.7819C7.13048 17.7561 7.09141 17.7289 7.05347 17.7005C7.02623 18.087 7.00618 18.5948 7.02862 19.1244C7.05216 19.6799 7.12192 20.2442 7.271 20.7133C7.42202 21.1885 7.63834 21.5164 7.91881 21.6737C8.02298 21.7321 8.08475 21.8453 8.07778 21.9651C8.07082 22.0849 7.99634 22.1902 7.88612 22.2359C7.35415 22.4568 6.85394 22.7422 6.39754 23.0849C6.31124 23.1498 6.19774 23.165 6.09759 23.1251C5.99744 23.0853 5.92492 22.9961 5.90594 22.8894C5.86609 22.6654 5.82388 22.4663 5.78683 22.3054C5.45476 22.4463 5.10343 22.4168 4.83573 22.3506C4.63914 22.3021 4.46833 22.2302 4.34799 22.1716C4.28728 22.142 4.23806 22.1152 4.20325 22.0953C4.18582 22.0853 4.17189 22.077 4.16183 22.0709L4.14954 22.0633L4.14526 22.0605L4.14287 22.059L4.13998 22.0571L4.13388 22.0529C4.12636 22.0475 4.08265 21.8125 4.22696 21.6467L4.15789 21.5242C4.51594 21.3197 4.80002 20.8382 5.00039 20.1275C5.19651 19.4318 5.29276 18.5876 5.33145 17.7602C5.37 16.9357 5.35083 16.1422 5.32183 15.5536C5.30734 15.2597 5.29045 15.0178 5.27722 14.8497C5.2706 14.7657 5.2649 14.7002 5.26088 14.6559C5.25887 14.6338 5.25729 14.617 5.25621 14.6058L5.255 14.5934L5.25476 14.591C5.25362 14.5802 5.25303 14.5691 5.25303 14.558C5.25276 13.6317 5.5116 12.7233 6.00107 11.9286C6.49047 11.1341 7.19191 10.4832 8.03019 10.043C8.13112 9.99003 8.25277 9.99684 8.34724 10.0608ZM5.87441 14.5428L5.87467 14.5455C5.87585 14.5578 5.87755 14.5757 5.87966 14.599C5.8839 14.6456 5.88981 14.7136 5.89663 14.8003C5.91028 14.9736 5.9276 15.2217 5.94243 15.5226C5.97205 16.1237 5.99192 16.9386 5.95212 17.7896C5.91246 18.6378 5.81296 19.5362 5.59815 20.2982C5.44566 20.8391 5.22423 21.3508 4.893 21.7179C4.92251 21.7271 4.95287 21.7356 4.98386 21.7433C5.27603 21.8155 5.5515 21.7961 5.75166 21.5816C5.82794 21.4998 5.94187 21.4654 6.05025 21.4915C6.15863 21.5175 6.24486 21.6 6.27624 21.7076L5.97813 21.7956C6.27624 21.7076 6.27623 21.7075 6.27624 21.7076L6.27681 21.7095L6.27808 21.714L6.28267 21.7301C6.28659 21.7441 6.2922 21.7643 6.29921 21.7903C6.31324 21.8423 6.33292 21.9174 6.35599 22.0118C6.37638 22.0953 6.39947 22.1939 6.42368 22.3049C6.66922 22.1445 6.92444 21.9986 7.18796 21.8677C6.9533 21.5989 6.79172 21.2579 6.67918 20.9038C6.50621 20.3596 6.43248 19.733 6.40782 19.1511C6.38305 18.5664 6.40729 18.0115 6.43743 17.604C6.45253 17.3999 6.4692 17.2317 6.48215 17.1142C6.48862 17.0553 6.49418 17.0091 6.49816 16.9773C6.50015 16.9614 6.50174 16.949 6.50286 16.9405L6.50418 16.9307L6.50455 16.928L6.50466 16.9272C6.50467 16.9271 6.50472 16.9267 6.81243 16.9698L6.50472 16.9267C6.52297 16.7946 6.62246 16.6887 6.75248 16.663C6.8825 16.6372 7.01443 16.6973 7.08103 16.8127C7.18297 16.9892 7.3279 17.141 7.50484 17.2546C7.53538 17.2743 7.5667 17.2926 7.59873 17.3097C7.5801 17.1724 7.56625 17.0182 7.55616 16.8516C7.52508 16.3388 7.52763 15.6721 7.5514 14.9382C7.59228 13.6757 7.69673 12.1929 7.80892 10.9069C7.29204 11.2679 6.85609 11.7274 6.52918 12.2582C6.10261 12.9507 5.87697 13.7396 5.87441 14.5428Z" fill="#45413C"/>
<path d="M15.1529 12.9491L11.0195 0.630395C10.9883 0.538055 10.9276 0.457593 10.8462 0.400534C10.7647 0.343475 10.6665 0.312744 10.5658 0.312744C10.4651 0.312744 10.367 0.343475 10.2855 0.400534C10.204 0.457593 10.1434 0.538055 10.1122 0.630395L5.97827 12.9491H15.1529Z" fill="#00B8F0"/>
<path d="M11.6022 2.3659L11.0195 0.630395C10.9883 0.538055 10.9276 0.457593 10.8462 0.400534C10.7647 0.343475 10.6665 0.312744 10.5658 0.312744C10.4651 0.312744 10.367 0.343475 10.2855 0.400534C10.204 0.457593 10.1434 0.538055 10.1122 0.630395L5.97827 12.9491H8.0515L11.6022 2.3659Z" fill="#4ACFFF"/>
<path fill-rule="evenodd" clip-rule="evenodd" d="M10.108 0.143799C10.2423 0.0497148 10.4026 0 10.5657 0C10.7289 0 10.8891 0.0497144 11.0235 0.143799C11.158 0.238005 11.2605 0.372536 11.3135 0.529775L11.3137 0.530299L15.4471 12.849C15.4791 12.9444 15.4635 13.0495 15.4051 13.1314C15.3468 13.2132 15.2528 13.2617 15.1527 13.2617H5.97816C5.87808 13.2617 5.78412 13.2132 5.72576 13.1314C5.66741 13.0495 5.65179 12.9444 5.68382 12.849L9.81792 0.529775C9.87099 0.372534 9.97345 0.238004 10.108 0.143799ZM10.5657 0.625407C10.5275 0.625407 10.4914 0.637153 10.4628 0.657188C10.4345 0.67704 10.4156 0.703332 10.4063 0.73068C10.4063 0.730764 10.4064 0.730595 10.4063 0.73068L6.41102 12.6363H14.7199L10.7252 0.730933C10.7252 0.73087 10.7252 0.730996 10.7252 0.730933C10.7159 0.70356 10.697 0.677055 10.6686 0.657188C10.64 0.637153 10.604 0.625407 10.5657 0.625407Z" fill="#45413C"/>
<path d="M18.3097 12.4193C18.2133 12.3288 18.0955 12.2624 17.9664 12.2258C17.8373 12.1891 17.701 12.1835 17.5691 12.2092C15.2578 12.6045 12.913 12.7891 10.5658 12.7606C8.21842 12.7896 5.87345 12.6055 3.56189 12.2108C3.43003 12.1851 3.29366 12.1908 3.1646 12.2274C3.03555 12.264 2.91769 12.3304 2.82126 12.4208C2.76901 12.4627 2.72618 12.5145 2.69537 12.5729C2.66457 12.6313 2.64644 12.6952 2.64209 12.7606C2.64209 13.6491 6.1895 14.369 10.5658 14.369C14.942 14.369 18.4889 13.648 18.4889 12.7606C18.4846 12.6949 18.4666 12.6308 18.4358 12.5721C18.405 12.5134 18.3621 12.4614 18.3097 12.4193Z" fill="#00B8F0"/>
<path fill-rule="evenodd" clip-rule="evenodd" d="M17.5138 11.9014C17.692 11.8673 17.8761 11.8752 18.0507 11.9247C18.2229 11.9736 18.3817 12.0617 18.5133 12.1828C18.5941 12.25 18.6613 12.3324 18.7105 12.426C18.7615 12.5233 18.7918 12.6302 18.7989 12.7402C18.7994 12.747 18.7996 12.7538 18.7996 12.7605C18.7996 12.9843 18.6864 13.1679 18.546 13.3072C18.4062 13.4459 18.2165 13.5647 18 13.6685C17.5657 13.877 16.957 14.0564 16.2299 14.2041C14.7705 14.5005 12.7681 14.6817 10.5658 14.6817C8.36345 14.6817 6.36098 14.5007 4.90142 14.2045C4.1742 14.0569 3.56547 13.8775 3.13104 13.6689C2.91458 13.5651 2.72484 13.4462 2.58498 13.3074C2.44448 13.1681 2.33142 12.9843 2.33142 12.7605C2.33142 12.7536 2.33165 12.7466 2.33211 12.7397C2.33941 12.6299 2.36982 12.5232 2.42096 12.4263C2.47012 12.333 2.53727 12.251 2.61793 12.1842C2.74956 12.0632 2.90824 11.9752 3.08036 11.9264C3.2549 11.8769 3.43897 11.8689 3.61714 11.903C5.9092 12.2942 8.23439 12.4767 10.562 12.4479L10.5695 12.4479C12.897 12.4761 15.222 12.2932 17.5138 11.9014ZM18.3097 12.4192L18.0979 12.6479C18.0383 12.592 17.9644 12.55 17.8822 12.5267C17.7999 12.5034 17.7126 12.4997 17.6283 12.5162L17.6211 12.5175C15.2926 12.9157 12.9304 13.1018 10.5658 13.0733C8.20107 13.1023 5.8387 12.9167 3.50993 12.519L3.50284 12.5177C3.41849 12.5013 3.3312 12.505 3.24887 12.5283C3.16658 12.5517 3.09266 12.5937 3.03306 12.6496C3.02722 12.6551 3.02116 12.6603 3.01491 12.6653C2.9954 12.681 2.98029 12.6996 2.9698 12.7195C2.9617 12.7348 2.95637 12.7509 2.95372 12.7671C2.95468 12.771 2.95661 12.7766 2.9605 12.7844C2.96899 12.8014 2.98657 12.8277 3.02117 12.8621C3.09241 12.9327 3.214 13.0159 3.39849 13.1044C3.76595 13.2808 4.31759 13.448 5.02426 13.5914C6.43247 13.8772 8.39183 14.0563 10.5658 14.0563C12.7397 14.0563 14.6989 13.877 16.107 13.591C16.8136 13.4475 17.3652 13.2803 17.7326 13.104C17.9171 13.0155 18.0387 12.9323 18.1099 12.8617C18.1445 12.8274 18.1621 12.8011 18.1706 12.7841C18.1745 12.7763 18.1764 12.7707 18.1773 12.7669C18.1747 12.7503 18.1693 12.7339 18.1611 12.7182C18.1505 12.698 18.1353 12.6792 18.1156 12.6633L18.3097 12.4192Z" fill="#45413C"/>
</svg>

