<svg width="111" height="87" viewBox="0 0 111 87" fill="none" xmlns="http://www.w3.org/2000/svg">
<path d="M30.4004 62.7045C30.777 61.5193 37.8793 25.0494 37.8793 25.0494L55.5812 3.33978L74.1978 0.0537109L68.7096 27.7967L80.493 62.8122L30.4004 62.7045Z" fill="#5A4975"/>
<path d="M111 87H0L28.7319 69.9771H82.2681L111 87Z" fill="#5A4975"/>
<path d="M82.2676 62.7583H28.7314V69.9769H82.2676V62.7583Z" fill="#D4145A"/>
<path d="M58.701 73.6403H52.2982C50.0384 73.6403 48.209 71.8087 48.209 69.5461V63.1356C48.209 60.8731 50.0384 59.0415 52.2982 59.0415H58.701C60.9608 59.0415 62.7902 60.8731 62.7902 63.1356V69.5461C62.7902 71.8087 60.9608 73.6403 58.701 73.6403ZM52.2982 62.5431C51.9215 62.5431 51.6525 62.8124 51.6525 63.1895V69.6C51.6525 69.9771 51.9215 70.2465 52.2982 70.2465H58.701C59.0776 70.2465 59.3467 69.9771 59.3467 69.6V63.1895C59.3467 62.8124 59.0776 62.5431 58.701 62.5431H52.2982Z" fill="#FBB03B"/>
<path d="M74.1437 0L90.0163 19.2316L96.0424 37.8706L82.2683 26.9889L69.5703 23.218L74.1437 0Z" fill="#5A4975"/>
<path d="M74.1437 0L72.8524 24.1876L69.5703 23.218L74.1437 0Z" fill="#493B63"/>
</svg>
