<svg width="128" height="128" viewBox="0 0 128 128" fill="none" xmlns="http://www.w3.org/2000/svg">
<path d="M122.815 69.7401C122.816 61.307 120.876 52.9807 117.139 45.3717C113.401 37.7628 107.96 31.0641 101.214 25.767C94.4681 20.4699 86.589 16.7087 78.1543 14.7593C69.7196 12.8098 60.9433 12.7216 52.469 14.501C43.9947 16.2804 36.0373 19.8824 29.1804 25.0427C22.3235 30.203 16.741 36.7909 12.8423 44.3231C8.94368 51.8553 6.8277 60.1408 6.64959 68.572C6.47148 77.0033 8.23576 85.3663 11.813 93.048H117.639C121.057 85.7276 122.821 77.7798 122.815 69.7401Z" fill="#C7F0FF"/>
<path d="M11.813 93.048C16.4205 102.942 23.8619 111.334 33.2461 117.22C42.6304 123.106 53.56 126.237 64.7261 126.237C75.8922 126.237 86.8217 123.106 96.206 117.22C105.59 111.334 113.032 102.942 117.639 93.048H11.813Z" fill="#CCF7AD"/>
<path fill-rule="evenodd" clip-rule="evenodd" d="M6.53497 93.048C6.53497 92.5875 6.9059 92.2141 7.36345 92.2141H120.637C121.094 92.2141 121.465 92.5875 121.465 93.048C121.465 93.5086 121.094 93.8819 120.637 93.8819H7.36345C6.9059 93.8819 6.53497 93.5086 6.53497 93.048Z" fill="#45413C"/>
<path fill-rule="evenodd" clip-rule="evenodd" d="M0 93.048C0 92.5875 0.370923 92.2141 0.828479 92.2141H4.45903C4.91658 92.2141 5.28751 92.5875 5.28751 93.048C5.28751 93.5086 4.91658 93.8819 4.45903 93.8819H0.828479C0.370923 93.8819 0 93.5086 0 93.048Z" fill="#45413C"/>
<path fill-rule="evenodd" clip-rule="evenodd" d="M122.713 93.048C122.713 92.5875 123.083 92.2141 123.541 92.2141H127.172C127.629 92.2141 128 92.5875 128 93.048C128 93.5086 127.629 93.8819 127.172 93.8819H123.541C123.083 93.8819 122.713 93.5086 122.713 93.048Z" fill="#45413C"/>
<path opacity="0.15" d="M19.7886 125.296C19.7886 126.013 21.7414 126.701 25.2173 127.208C28.6932 127.715 33.4076 128 38.3233 128C43.239 128 47.9534 127.715 51.4293 127.208C54.9052 126.701 56.858 126.013 56.858 125.296C56.858 124.579 54.9052 123.892 51.4293 123.384C47.9534 122.877 43.239 122.593 38.3233 122.593C33.4076 122.593 28.6932 122.877 25.2173 123.384C21.7414 123.892 19.7886 124.579 19.7886 125.296Z" fill="#45413C"/>
<path d="M97.08 52.2803H94.299C92.5799 52.2773 90.9321 51.6114 89.7169 50.4286C88.5017 49.2457 87.8183 47.6424 87.8163 45.9702V44.1677H91.5195V45.9702C91.5203 46.6872 91.8133 47.3746 92.3344 47.8817C92.8554 48.3888 93.562 48.6742 94.299 48.6753H97.08V52.2803Z" fill="#87898C"/>
<path fill-rule="evenodd" clip-rule="evenodd" d="M86.9879 44.1677C86.9879 43.7072 87.3588 43.3338 87.8164 43.3338H91.5195C91.9771 43.3338 92.348 43.7072 92.348 44.1677L92.348 45.9693C92.348 45.9695 92.348 45.9692 92.348 45.9693C92.3487 46.456 92.5474 46.929 92.9103 47.2822C93.2742 47.6363 93.7733 47.8405 94.2997 47.8414H97.0801C97.5376 47.8414 97.9086 48.2148 97.9086 48.6753V52.2803C97.9086 52.7409 97.5376 53.1142 97.0801 53.1142L94.2977 53.1142C92.3682 53.1108 90.5133 52.3637 89.1411 51.028C87.7679 49.6914 86.9901 47.8735 86.9879 45.9712L86.9879 44.1677ZM88.6449 45.0016V45.9697C88.6467 47.4117 89.2358 48.8002 90.2929 49.8291C91.351 50.859 92.7914 51.4436 94.3 51.4464H96.2516V49.5092L94.2978 49.5092C93.3503 49.5078 92.4367 49.1412 91.7585 48.4812C91.0795 47.8203 90.6921 46.9182 90.6911 45.9711L90.6911 45.0016H88.6449Z" fill="#45413C"/>
<path d="M89.6665 37.8576L86.8855 44.1677H92.446L89.6665 37.8576Z" fill="#BDBEC0"/>
<path fill-rule="evenodd" clip-rule="evenodd" d="M89.6666 37.0237C89.9942 37.0238 90.2911 37.2182 90.4239 37.5196L93.2034 43.8297C93.317 44.0877 93.2933 44.3859 93.1405 44.6225C92.9876 44.859 92.7263 45.0016 92.446 45.0016H86.8855C86.6051 45.0016 86.3438 44.8589 86.191 44.6224C86.0381 44.3858 86.0145 44.0875 86.1282 43.8296L88.9092 37.5195C89.042 37.218 89.3389 37.0237 89.6666 37.0237ZM88.1593 43.3338H91.1724L89.6663 39.9146L88.1593 43.3338Z" fill="#45413C"/>
<path d="M110.981 56.7879H92.446L90.593 98.2534H112.834L110.981 56.7879Z" fill="#BDBEC0"/>
<path d="M112.834 56.7893C112.834 56.7893 101.713 43.0419 101.713 34.2527C101.713 43.0419 90.593 56.7893 90.593 56.7893H112.834Z" fill="#FF6242"/>
<path fill-rule="evenodd" clip-rule="evenodd" d="M101.713 33.4188C102.17 33.4188 102.541 33.7921 102.541 34.2527C102.541 36.291 103.191 38.6804 104.215 41.1619C105.235 43.632 106.602 46.1334 107.978 48.3791C109.353 50.6225 110.73 52.5963 111.763 54.0097C112.28 54.716 112.71 55.2813 113.01 55.6691C113.16 55.863 113.277 56.0124 113.357 56.1129C113.396 56.1632 113.427 56.2012 113.447 56.2263L113.469 56.2544L113.475 56.2611L113.476 56.2625C113.476 56.2626 113.476 56.2625 113.476 56.2625M101.713 39.116C101.986 40.0091 102.317 40.909 102.685 41.802C103.751 44.3816 105.164 46.965 106.568 49.2548C107.973 51.5469 109.377 53.5593 110.429 54.9982C110.689 55.3534 110.927 55.674 111.139 55.9554H92.2877C92.4997 55.6739 92.7381 55.3534 92.9978 54.9981C94.0496 53.5592 95.4531 51.5469 96.858 49.2548C98.2615 46.9649 99.6752 44.3815 100.74 41.802C101.109 40.909 101.439 40.0091 101.713 39.116ZM100.884 34.2527C100.884 36.2911 100.235 38.6804 99.2102 41.1619C98.1903 43.632 96.8242 46.1334 95.4478 48.3791C94.0727 50.6225 92.6963 52.5963 91.6632 54.0098C91.1469 54.716 90.7171 55.2813 90.4171 55.6691C90.2671 55.863 90.1497 56.0125 90.0701 56.113C90.0303 56.1632 90 56.2012 89.9798 56.2264L89.9573 56.2544L89.9507 56.2626M101.713 33.4188C101.255 33.4188 100.884 33.7921 100.884 34.2527L101.713 33.4188Z" fill="#45413C"/>
<path d="M105.42 91.0421C105.401 90.0982 105.002 89.1992 104.309 88.5383C103.616 87.8773 102.684 87.5071 101.713 87.5071C100.743 87.5071 99.8109 87.8773 99.1178 88.5383C98.4248 89.1992 98.0258 90.0982 98.0066 91.0421V98.2534H105.42V91.0421Z" fill="#915E3A"/>
<path fill-rule="evenodd" clip-rule="evenodd" d="M98.548 87.9329C99.3978 87.1226 100.535 86.6732 101.713 86.6732C102.892 86.6732 104.029 87.1226 104.879 87.9329C105.729 88.7442 106.225 89.8537 106.248 91.025L106.249 91.0421V98.2535C106.249 98.714 105.878 99.0873 105.42 99.0873H98.0066C97.549 99.0873 97.1781 98.714 97.1781 98.2535V91.0421L97.1783 91.025C97.2021 89.8537 97.6973 88.7442 98.548 87.9329ZM101.713 88.341C100.951 88.341 100.224 88.6321 99.6876 89.1436C99.1542 89.6524 98.8517 90.3376 98.8351 91.0512V97.4196H104.592V91.0512C104.575 90.3376 104.273 89.6524 103.739 89.1436C103.203 88.6321 102.476 88.341 101.713 88.341Z" fill="#45413C"/>
<path d="M98.0051 69.4081C98.0051 70.3646 98.3957 71.2819 99.091 71.9582C99.7863 72.6345 100.729 73.0145 101.713 73.0145C102.696 73.0145 103.639 72.6345 104.334 71.9582C105.03 71.2819 105.42 70.3646 105.42 69.4081C105.42 68.4516 105.03 67.5343 104.334 66.858C103.639 66.1817 102.696 65.8017 101.713 65.8017C100.729 65.8017 99.7863 66.1817 99.091 66.858C98.3957 67.5343 98.0051 68.4516 98.0051 69.4081Z" fill="#00B8F0"/>
<path d="M99.0929 71.9579C98.3977 71.2818 98.007 70.3648 98.0069 69.4086C98.0068 68.4524 98.3971 67.5353 99.0921 66.8591C99.7871 66.1828 100.73 65.8029 101.713 65.8027C102.696 65.8026 103.639 66.1823 104.334 66.8584L99.0929 71.9579Z" fill="#4ACFFF"/>
<path fill-rule="evenodd" clip-rule="evenodd" d="M98.5153 66.2584C99.368 65.429 100.519 64.9678 101.713 64.9678C102.907 64.9678 104.057 65.429 104.91 66.2584C105.764 67.0887 106.249 68.2211 106.249 69.4081C106.249 70.5951 105.764 71.7275 104.91 72.5578C104.057 73.3873 102.907 73.8484 101.713 73.8484C100.519 73.8484 99.368 73.3873 98.5153 72.5578C97.6617 71.7275 97.1766 70.5951 97.1766 69.4081C97.1766 68.2211 97.6617 67.0887 98.5153 66.2584ZM101.713 66.6356C100.94 66.6356 100.205 66.9344 99.6667 67.4577C99.1298 67.98 98.8336 68.6822 98.8336 69.4081C98.8336 70.134 99.1298 70.8362 99.6667 71.3586C100.205 71.8818 100.94 72.1806 101.713 72.1806C102.485 72.1806 103.221 71.8818 103.759 71.3586C104.295 70.8362 104.592 70.134 104.592 69.4081C104.592 68.6822 104.295 67.98 103.759 67.4577C103.221 66.9344 102.485 66.6356 101.713 66.6356Z" fill="#45413C"/>
<path d="M111.181 61.2955L110.981 56.7879H92.4461L92.2442 61.2955H111.181Z" fill="#87898C"/>
<path fill-rule="evenodd" clip-rule="evenodd" d="M91.6184 56.7504C91.6383 56.3048 92.003 55.9539 92.446 55.9539H110.981C111.424 55.9539 111.788 56.3048 111.808 56.7504L113.661 98.2159C113.672 98.4433 113.589 98.6651 113.433 98.8296C113.276 98.9942 113.06 99.0873 112.834 99.0873H90.593C90.3668 99.0873 90.1505 98.9942 89.9942 98.8296C89.8379 98.6651 89.7552 98.4433 89.7654 98.2159L91.6184 56.7504ZM93.2381 57.6217L91.4596 97.4195H111.967L110.189 57.6217H93.2381Z" fill="#45413C"/>
<path d="M81.3249 30.6463C82.0176 30.6419 82.6975 30.8273 83.2869 31.1813C83.8763 31.5353 84.3512 32.0435 84.6575 32.6478C84.9637 33.2522 85.0889 33.9282 85.0185 34.5985C84.9482 35.2688 84.6853 35.9062 84.2599 36.438C84.4953 36.5992 84.6881 36.8125 84.8224 37.0602C84.9567 37.308 85.0287 37.5832 85.0325 37.8633C85.0189 38.3328 84.8177 38.7786 84.4715 39.1061C84.1254 39.4335 83.6616 39.6167 83.1787 39.6167C82.6958 39.6167 82.232 39.4335 81.8859 39.1061C81.5397 38.7786 81.3384 38.3328 81.3249 37.8633C80.3545 37.8446 79.4304 37.4565 78.7509 36.7823C78.0714 36.1082 77.6908 35.2017 77.6908 34.2576C77.6908 33.3135 78.0714 32.407 78.7509 31.7329C79.4304 31.0587 80.3545 30.6706 81.3249 30.6519V30.6463Z" fill="white"/>
<path fill-rule="evenodd" clip-rule="evenodd" d="M81.4157 31.4809C81.3911 31.4836 81.3661 31.4852 81.3408 31.4857C80.5784 31.5004 79.858 31.8054 79.3325 32.3268C78.8079 32.8472 78.5193 33.541 78.5193 34.2576C78.5193 34.9742 78.8079 35.668 79.3325 36.1885C79.858 36.7098 80.5784 37.0149 81.3408 37.0295C81.7828 37.038 82.1403 37.3943 82.1531 37.8391C82.1601 38.0825 82.2643 38.3198 82.4532 38.4984C82.6429 38.6779 82.9028 38.7828 83.1787 38.7828C83.4546 38.7828 83.7144 38.6779 83.9042 38.4984C84.0884 38.3241 84.1922 38.094 84.2036 37.8569C84.199 37.7196 84.1625 37.5839 84.0951 37.4596C84.0248 37.3299 83.9223 37.2154 83.7938 37.1274C83.6026 36.9964 83.4744 36.791 83.4404 36.5607C83.4064 36.3304 83.4695 36.0962 83.6146 35.9149C83.9415 35.5064 84.1413 35.0196 84.1946 34.5109C84.248 34.0023 84.1533 33.4883 83.9195 33.0268C83.6854 32.565 83.3203 32.1725 82.8623 31.8974C82.4282 31.6367 81.9287 31.4924 81.4157 31.4809ZM81.3197 29.8124C82.1621 29.8071 82.9909 30.0324 83.7114 30.4652C84.4321 30.8981 85.017 31.5221 85.3955 32.269C85.7741 33.0161 85.9297 33.8541 85.8424 34.686C85.782 35.2624 85.6068 35.8179 85.3307 36.3225C85.412 36.4291 85.4853 36.5421 85.5497 36.6608C85.748 37.0268 85.8553 37.4351 85.8608 37.852C85.861 37.8638 85.8609 37.8756 85.8606 37.8874C85.8406 38.583 85.5424 39.2375 85.0389 39.7138C84.5363 40.1891 83.8685 40.4506 83.1787 40.4506C82.4889 40.4506 81.8211 40.1891 81.3185 39.7138C81.0007 39.4132 80.7647 39.0416 80.6288 38.6335C79.7029 38.4775 78.8406 38.0423 78.1693 37.3762C77.3349 36.5484 76.8623 35.4292 76.8623 34.2576C76.8623 33.086 77.3349 31.9668 78.1693 31.139C78.9775 30.3371 80.0626 29.8697 81.2022 29.8215C81.2406 29.8158 81.2798 29.8127 81.3197 29.8124Z" fill="#45413C"/>
<path d="M38.3233 81.3065C42.2152 77.5207 44.9962 62.9172 44.9962 62.9172C45.551 66.1662 51.6677 70.4888 51.6677 70.4888C47.5899 67.785 50.5553 57.5084 50.5553 57.5084C52.2239 59.3108 55.0035 57.5084 55.0035 57.5084C50.0006 54.6238 51.6634 38.037 51.6634 38.037C51.6634 34.5944 50.2574 31.2928 47.7549 28.8585C45.2523 26.4242 41.8581 25.0566 38.3189 25.0566C34.7798 25.0566 31.3856 26.4242 28.883 28.8585C26.3804 31.2928 24.9745 34.5944 24.9745 38.037C24.9745 38.037 26.6416 54.6238 21.6344 57.5084C21.6344 57.5084 24.4154 59.3108 26.084 57.5084C26.084 57.5084 29.0494 67.785 24.9716 70.4888C24.9716 70.4888 31.0869 66.1619 31.6431 62.9172C31.6504 62.9172 34.4314 77.5207 38.3233 81.3065Z" fill="#E0E0E0"/>
<path fill-rule="evenodd" clip-rule="evenodd" d="M28.3073 28.2588C30.9672 25.6714 34.569 24.2227 38.3189 24.2227C42.0689 24.2227 45.6707 25.6714 48.3306 28.2588C50.9915 30.8471 52.4918 34.3638 52.4918 38.037C52.4918 38.0649 52.4905 38.0928 52.4877 38.1206C52.4877 38.1207 52.4877 38.1206 52.4877 38.1206L51.6634 38.037H50.8349C50.8349 38.0237 50.8349 38.0104 50.8348 37.9971C50.824 34.7994 49.5137 31.7289 47.1791 29.4581C44.8339 27.1769 41.6473 25.8905 38.3189 25.8905C34.9905 25.8905 31.8039 27.1769 29.4587 29.4581C27.1242 31.7289 25.8139 34.7993 25.803 37.997L25.8038 38.005C25.807 38.0379 25.8115 38.0861 25.8171 38.1488C25.8284 38.2741 25.8441 38.457 25.8623 38.6901C25.8986 39.1562 25.9447 39.8236 25.9842 40.6328C26.0631 42.2495 26.1159 44.4412 26.0097 46.7298C25.9039 49.011 25.6386 51.4264 25.0662 53.4748C24.6584 54.9342 24.0656 56.3147 23.1772 57.3024C23.26 57.3286 23.3454 57.353 23.4326 57.3748C24.2102 57.5686 24.9433 57.5173 25.4779 56.9398C25.6811 56.7203 25.9858 56.6276 26.2759 56.6971C26.5659 56.7666 26.7964 56.9875 26.8796 57.2757L26.084 57.5083C26.8796 57.2757 26.8795 57.2754 26.8796 57.2757L26.8805 57.279L26.8825 57.2859L26.8896 57.3109C26.8956 57.3324 26.9042 57.3634 26.9152 57.4035C26.937 57.4835 26.9681 57.5997 27.0058 57.7475C27.0813 58.0431 27.1839 58.4661 27.2937 58.9814C27.5128 60.0095 27.7632 61.4166 27.8828 62.9179C27.9911 64.2773 27.9954 65.7502 27.7536 67.103C28.4596 66.4314 29.1519 65.698 29.7067 64.9641C30.3299 64.1396 30.7214 63.3895 30.8267 62.7754C30.8952 62.3754 31.2399 62.0832 31.6431 62.0832C32.0937 62.2174 32.417 62.6195 32.4323 62.6633C32.4371 62.6791 32.4438 62.7029 32.4459 62.7111C32.4492 62.7241 32.4516 62.7346 32.4522 62.7373L32.4564 62.757L32.4638 62.7933L32.4885 62.9165C32.51 63.0233 32.5418 63.1803 32.5836 63.3816C32.6671 63.7844 32.7905 64.3647 32.9505 65.0732C33.2707 66.4912 33.7368 68.4186 34.3224 70.4608C34.9089 72.506 35.6108 74.6503 36.4003 76.508C37.0192 77.9642 37.6686 79.1866 38.3233 80.0472C38.978 79.1866 39.6273 77.9642 40.2461 76.508C41.0355 74.6504 41.7372 72.506 42.3232 70.461C42.9084 68.4189 43.3737 66.4915 43.6929 65.0738C43.8524 64.3654 43.9751 63.7853 44.0579 63.383C44.0992 63.1819 44.1306 63.0253 44.1515 62.9194L44.175 62.7994L44.1808 62.7694L44.1825 62.7605C44.2579 62.3647 44.6038 62.0794 45.0042 62.0833C45.4046 62.0871 45.7449 62.3787 45.8127 62.7759C45.9178 63.391 46.3091 64.1415 46.9321 64.966C47.487 65.7004 48.1798 66.434 48.8862 67.1056C48.6439 65.7521 48.6481 64.2782 48.7565 62.9179C48.8761 61.4166 49.1266 60.0095 49.3456 58.9814C49.4554 58.4661 49.558 58.0431 49.6335 57.7475C49.6712 57.5997 49.7023 57.4835 49.7241 57.4035C49.7351 57.3634 49.7437 57.3324 49.7497 57.3109L49.7568 57.2859L49.7588 57.279L49.7594 57.2769C49.7595 57.2766 49.7597 57.2757 50.5553 57.5083L49.7597 57.2757C49.8429 56.9875 50.0734 56.7666 50.3635 56.6971C50.6535 56.6276 50.9582 56.7203 51.1615 56.9398C51.6961 57.5173 52.4288 57.5686 53.2059 57.3748C53.2932 57.353 53.3786 57.3286 53.4614 57.3024C52.5735 56.3146 51.9811 54.9341 51.5734 53.4747C51.0013 51.4264 50.7359 49.0111 50.6298 46.7299C50.5233 44.4413 50.5757 42.2496 50.6542 40.633C50.6935 39.8238 50.7395 39.1564 50.7757 38.6903C50.7939 38.4572 50.8096 38.2743 50.8208 38.149C50.8244 38.109 50.8275 38.0748 50.8301 38.0468C50.8316 38.031 50.8329 38.0171 50.834 38.0052L50.8348 37.9971M55.0035 57.5083C55.4522 58.2093 55.4519 58.2095 55.4516 58.2096L55.4497 58.2109L55.4461 58.2132L55.4359 58.2197L55.4036 58.2398C55.3768 58.2563 55.3396 58.2787 55.293 58.3056C55.2 58.3593 55.0685 58.4315 54.9065 58.5112C54.5852 58.669 54.1292 58.8627 53.6044 58.9936C52.8896 59.1719 51.9524 59.2511 51.0668 58.8733C51.1319 58.588 51.191 58.3478 51.2383 58.1628C51.2736 58.0243 51.3023 57.9171 51.3219 57.8453C51.3317 57.8094 51.3392 57.7824 51.3442 57.7648L51.3496 57.7456L51.3508 57.7414M51.9267 69.6485C51.2691 69.1206 50.8301 68.2657 50.5825 67.1397C50.3122 65.9102 50.2955 64.4648 50.4082 63.0513C50.5202 61.6454 50.7562 60.3144 50.9657 59.3311C51.0005 59.1682 51.0344 59.0152 51.0668 58.8733M50.9181 70.9722C50.9164 70.971 50.9148 70.9697 50.9131 70.9685C50.7395 70.84 50.4922 70.6539 50.1945 70.4206C49.5999 69.9548 48.799 69.2975 47.9778 68.5337C47.1592 67.7724 46.3048 66.8908 45.6133 65.9757C45.5024 65.8289 45.3941 65.6792 45.2898 65.5272C44.9665 66.9576 44.5002 68.8819 43.9153 70.9232C43.3195 73.0022 42.5962 75.2186 41.7696 77.1639C40.9535 79.0843 39.9973 80.8377 38.899 81.906C38.5779 82.2184 38.0687 82.2184 37.7476 81.906C36.6493 80.8377 35.6931 79.0843 34.8769 77.1639C34.0502 75.2187 33.3266 73.0023 32.7304 70.9234C32.1441 68.8787 31.6766 66.9516 31.3523 65.5206C31.2469 65.6744 31.1375 65.8257 31.0254 65.974C30.3339 66.8888 29.4796 67.7705 28.6612 68.532C27.8401 69.296 27.0393 69.9537 26.4449 70.4198C26.1472 70.6532 25.9001 70.8395 25.7264 70.9681C25.7261 70.9683 25.7258 70.9686 25.7255 70.9688C25.6301 71.0444 25.5307 71.1165 25.4273 71.1851C25.0493 71.4357 24.5414 71.3346 24.2867 70.9579M24.4954 69.8063L24.4979 69.8045L24.5093 69.7964L24.5571 69.762C24.5944 69.735 24.6479 69.6961 24.7155 69.6462C25.3715 69.1181 25.8096 68.2641 26.0568 67.1397C26.3272 65.9102 26.3438 64.4648 26.2311 63.0513C26.1191 61.6454 25.8831 60.3144 25.6736 59.3311C25.6388 59.1682 25.6049 59.0152 25.5725 58.8733C24.6867 59.2512 23.7493 59.1719 23.0343 58.9937C22.5093 58.8628 22.0532 58.669 21.7318 58.5112C21.5696 58.4316 21.4381 58.3593 21.3451 58.3056C21.2985 58.2787 21.2613 58.2564 21.2345 58.2399L21.2021 58.2198L21.1919 58.2133L21.1884 58.211L21.187 58.2101C21.1867 58.21 21.1859 58.2094 21.6344 57.5083L21.1859 58.2094C20.9426 58.0517 20.7986 57.7777 20.8062 57.4865C20.8138 57.1953 20.9717 56.9292 21.2229 56.7845C22.1778 56.2344 22.9363 54.9373 23.4712 53.0232C23.9945 51.1503 24.2513 48.8781 24.3546 46.652C24.4575 44.4334 24.4065 42.2982 24.3293 40.7146C24.2907 39.9238 24.2457 39.2728 24.2104 38.8206C24.1928 38.5945 24.1776 38.4182 24.1669 38.2991C24.1615 38.2396 24.1573 38.1944 24.1544 38.1643L24.1512 38.1309L24.1504 38.1229L24.1502 38.1212L24.9745 38.037H24.146C24.146 34.3638 25.6464 30.8471 28.3073 28.2588M50.9181 70.9722C51.0122 71.0465 51.1101 71.1175 51.212 71.1851C51.5901 71.4358 52.0981 71.3345 52.3528 70.9577C52.6074 70.5809 52.5144 70.0682 52.1439 69.8063M52.1439 69.8063L52.141 69.8042L52.1296 69.7961L52.0819 69.7618C52.0451 69.7353 51.9928 69.6972 51.9267 69.6485M52.4877 38.1206L52.4875 38.1227L52.4867 38.1306L52.4835 38.1641C52.4818 38.1811 52.4798 38.2029 52.4774 38.2294C52.4755 38.2498 52.4734 38.273 52.471 38.2989C52.4604 38.418 52.4452 38.5943 52.4276 38.8204C52.3925 39.2726 52.3476 39.9236 52.3092 40.7145C52.2323 42.298 52.1817 44.4333 52.2849 46.6519C52.3885 48.878 52.6454 51.1503 53.1685 53.0233C53.7032 54.9375 54.4613 56.2347 55.4153 56.7847C55.6663 56.9294 55.8241 57.1955 55.8317 57.4866C55.8392 57.7776 55.6948 58.0519 55.4516 58.2096L55.0035 57.5083" fill="#45413C"/>
<path d="M39.4357 87.7973H26.097V122.406H34.9933L36.0099 99.6886C36.0099 99.0892 36.2547 98.5143 36.6904 98.0904C37.1262 97.6666 37.7172 97.4285 38.3334 97.4285C38.9497 97.4285 39.5407 97.6666 39.9764 98.0904C40.4122 98.5143 40.657 99.0892 40.657 99.6886L41.6735 122.406H50.5698V87.7973H39.4357Z" fill="#915E3A"/>
<path fill-rule="evenodd" clip-rule="evenodd" d="M25.2686 87.7973C25.2686 87.3368 25.6395 86.9634 26.0971 86.9634H50.5699C51.0274 86.9634 51.3984 87.3368 51.3984 87.7973V122.406C51.3984 122.867 51.0274 123.24 50.5699 123.24H41.6736C41.2305 123.24 40.8659 122.889 40.846 122.444L39.8294 99.7261C39.8288 99.7136 39.8286 99.7011 39.8286 99.6886C39.8286 99.3197 39.6782 98.9599 39.4008 98.6901C39.1224 98.4193 38.739 98.2624 38.3335 98.2624C37.928 98.2624 37.5446 98.4193 37.2662 98.6901C36.9888 98.9599 36.8384 99.3197 36.8384 99.6886C36.8384 99.7011 36.8381 99.7136 36.8376 99.7261L35.821 122.444C35.8011 122.889 35.4364 123.24 34.9934 123.24H26.0971C25.6395 123.24 25.2686 122.867 25.2686 122.406V87.7973ZM26.9256 88.6312V121.572H34.2014L35.1815 99.6684C35.187 98.8458 35.5255 98.064 36.1148 97.4908C36.7079 96.9139 37.5065 96.5946 38.3335 96.5946C39.1605 96.5946 39.9591 96.9139 40.5522 97.4908C41.1415 98.064 41.48 98.8458 41.4855 99.6684L42.4656 121.572H49.7414V88.6312H26.9256Z" fill="#45413C"/>
<path d="M60.5641 80.2243C59.6782 80.2243 58.8287 79.882 58.2023 79.2727C57.5759 78.6634 57.224 77.837 57.224 76.9753V74.8155C57.224 69.9383 55.2322 65.261 51.6868 61.8123C48.1415 58.3636 43.3329 56.4262 38.319 56.4262C33.3051 56.4262 28.4965 58.3636 24.9511 61.8123C21.4058 65.261 19.414 69.9383 19.414 74.8155V91.042H24.8351L22.924 112.514C22.9008 112.764 22.9314 113.015 23.014 113.253C23.0965 113.491 23.2292 113.709 23.4034 113.894C23.5777 114.08 23.7897 114.227 24.026 114.328C24.2623 114.429 24.5176 114.481 24.7756 114.48H51.8711C52.1281 114.48 52.3822 114.428 52.6174 114.327C52.8526 114.227 53.0638 114.079 53.2375 113.895C53.4112 113.711 53.5436 113.494 53.6264 113.257C53.7091 113.02 53.7404 112.77 53.7183 112.521L50.8691 80.4941C51.3827 83.2137 52.6259 85.753 54.4727 87.855C56.3195 89.957 58.7044 91.5472 61.386 92.4645C61.667 92.57 61.9701 92.6074 62.2692 92.5734C62.5683 92.5395 62.8544 92.4351 63.1028 92.2695C63.3511 92.1038 63.5543 91.8818 63.6947 91.6227C63.8351 91.3635 63.9085 91.075 63.9085 90.7821V80.2243H60.5641Z" fill="#00B8F0"/>
<path d="M38.3233 63.9936C42.2546 63.9949 46.1073 65.0641 49.4475 67.0807C52.7876 69.0973 55.4824 71.9812 57.2283 75.4074V74.8099C57.2283 69.9327 55.2365 65.2554 51.6912 61.8067C48.1458 58.3581 43.3372 56.4206 38.3233 56.4206C33.3094 56.4206 28.5008 58.3581 24.9555 61.8067C21.4101 65.2554 19.4183 69.9327 19.4183 74.8099L19.6739 74.8932C21.473 71.6013 24.1592 68.8476 27.4446 66.9275C30.7299 65.0074 34.4905 63.9932 38.3233 63.9936Z" fill="#4ACFFF"/>
<path d="M36.3237 84.725C36.5064 85.0895 36.7908 85.3967 37.1443 85.6116C37.4979 85.8266 37.9064 85.9405 38.3234 85.9405C38.7403 85.9405 39.1488 85.8266 39.5024 85.6116C39.856 85.3967 40.1403 85.0895 40.3231 84.725L41.3222 82.7276C44.9285 75.6495 48.0263 68.3368 50.5932 60.8421C47.1761 57.9919 42.8233 56.4251 38.3219 56.4251C33.8205 56.4251 29.4677 57.9919 26.0507 60.8421C28.6182 68.3366 31.7159 75.6492 35.3216 82.7276L36.3237 84.725Z" fill="#009FD9"/>
<path fill-rule="evenodd" clip-rule="evenodd" d="M24.3754 61.2127C28.0781 57.611 33.0943 55.5923 38.319 55.5923C43.5436 55.5923 48.5598 57.611 52.2625 61.2127C55.9662 64.8154 58.0524 69.7078 58.0524 74.8155V76.9754C58.0524 77.6065 58.3099 78.2178 58.778 78.6731C59.247 79.1293 59.889 79.3905 60.5641 79.3905H63.9085C64.3661 79.3905 64.737 79.7638 64.737 80.2243V90.7821C64.7369 91.2156 64.6282 91.6414 64.422 92.0219C64.216 92.4023 63.9194 92.7252 63.5604 92.9647C63.2015 93.204 62.7901 93.3535 62.3621 93.4021C61.9384 93.4502 61.5087 93.3985 61.1087 93.2504C58.2972 92.2866 55.7935 90.6172 53.852 88.4075C53.2395 87.7103 52.6898 86.9671 52.2073 86.1864L54.5435 112.446C54.5762 112.815 54.5298 113.185 54.4078 113.534C54.2858 113.883 54.0913 114.201 53.8384 114.469C53.5856 114.738 53.2798 114.95 52.9415 115.095C52.6033 115.239 52.2389 115.314 51.8712 115.314L24.7776 115.314C24.7769 115.314 24.7762 115.314 24.7756 115.314C24.4071 115.314 24.0418 115.24 23.7027 115.096C23.3629 114.951 23.0558 114.738 22.8021 114.468C22.5483 114.199 22.3535 113.879 22.2319 113.528C22.1104 113.178 22.0649 112.807 22.099 112.438C22.099 112.437 22.0991 112.437 22.0991 112.436L23.9291 91.876H19.414C18.9564 91.876 18.5855 91.5026 18.5855 91.0421V74.8155C18.5855 69.7078 20.6717 64.8154 24.3754 61.2127ZM38.319 57.2601C33.5158 57.2601 28.9149 59.1164 25.5269 62.412C22.1398 65.7066 20.2425 70.1689 20.2425 74.8155V90.2082H24.8351C25.0677 90.2082 25.2896 90.3066 25.4465 90.4793C25.6035 90.6521 25.681 90.8833 25.6603 91.1165L23.7492 112.588L23.7489 112.591C23.7368 112.722 23.7526 112.853 23.7961 112.978C23.8395 113.103 23.91 113.22 24.0047 113.321C24.0995 113.422 24.2166 113.504 24.3493 113.56C24.4822 113.617 24.6267 113.646 24.7736 113.646L24.7756 113.646H51.8709C51.871 113.646 51.8709 113.646 51.8709 113.646C52.0171 113.646 52.1611 113.616 52.2933 113.56C52.4254 113.503 52.542 113.422 52.6365 113.321C52.7309 113.221 52.8013 113.105 52.8449 112.98C52.8884 112.856 52.9046 112.725 52.8931 112.595L50.0439 80.5685C50.0045 80.1257 50.3171 79.7297 50.7546 79.6683C51.192 79.6068 51.6005 79.9017 51.6829 80.3384C52.1684 82.9086 53.3437 85.3113 55.0933 87.3026C56.843 89.2942 59.1052 90.8036 61.6526 91.675C61.6603 91.6777 61.668 91.6804 61.6757 91.6833C61.834 91.7428 62.0061 91.7642 62.1762 91.7448C62.3464 91.7255 62.5073 91.6663 62.6451 91.5744C62.7828 91.4825 62.8926 91.3614 62.9673 91.2235C63.0419 91.0858 63.08 90.9345 63.08 90.7821C63.08 90.7821 63.08 90.7822 63.08 90.7821V81.0582H60.5641C59.4674 81.0582 58.4103 80.6348 57.6265 79.8724C56.8418 79.1091 56.3955 78.0676 56.3955 76.9754V74.8155C56.3955 70.1689 54.4981 65.7066 51.1111 62.412C47.7231 59.1164 43.1221 57.2601 38.319 57.2601Z" fill="#45413C"/>
<path fill-rule="evenodd" clip-rule="evenodd" d="M50.5553 70.7369C51.0129 70.7369 51.3838 71.1102 51.3838 71.5708V76.9826C51.3798 78.109 51.4802 79.2336 51.6837 80.3427C51.7668 80.7956 51.4694 81.2306 51.0195 81.3142C50.5695 81.3979 50.1374 81.0985 50.0543 80.6456C49.8322 79.4353 49.7226 78.2078 49.7269 76.9782V71.5708C49.7269 71.1102 50.0978 70.7369 50.5553 70.7369Z" fill="#45413C"/>
<path d="M24.6986 120.7C24.5147 120.971 24.4097 121.286 24.3948 121.611C24.3799 121.936 24.4555 122.258 24.6137 122.545C24.7719 122.831 25.0068 123.07 25.2935 123.237C25.5802 123.405 25.9081 123.493 26.2423 123.494H33.8374C34.1561 123.494 34.4696 123.415 34.7474 123.263C35.0253 123.111 35.2582 122.892 35.4236 122.627C35.5891 122.362 35.6814 122.06 35.6918 121.75C35.7021 121.44 35.6301 121.133 35.4828 120.858C33.4569 117.083 27.0091 117.292 24.6986 120.7Z" fill="#915E3A"/>
<path fill-rule="evenodd" clip-rule="evenodd" d="M30.195 117.252C32.5454 117.245 35.0084 118.22 36.2117 120.461C36.4282 120.865 36.5351 121.319 36.5198 121.778C36.5045 122.237 36.3677 122.682 36.1252 123.07C35.8827 123.459 35.5435 123.776 35.1428 123.995C34.7424 124.214 34.2927 124.328 33.8368 124.328M25.3831 121.169C25.2847 121.315 25.2302 121.48 25.2224 121.649C25.2146 121.818 25.2538 121.987 25.3378 122.139C25.422 122.292 25.5491 122.423 25.7087 122.516C25.8684 122.609 26.0531 122.659 26.2432 122.66H33.8374C34.0189 122.66 34.1969 122.615 34.3521 122.53C34.5072 122.445 34.6337 122.325 34.7221 122.183C34.8104 122.042 34.8584 121.883 34.8638 121.722C34.8691 121.561 34.8319 121.4 34.7537 121.254C33.931 119.722 32.1573 118.914 30.1999 118.919C28.2388 118.925 26.3443 119.752 25.3831 121.169Z" fill="#45413C"/>
<path d="M51.9466 120.7C52.1307 120.972 52.2357 121.287 52.2504 121.612C52.2651 121.937 52.189 122.261 52.0301 122.547C51.8711 122.834 51.6354 123.073 51.3479 123.24C51.0603 123.406 50.7318 123.494 50.397 123.494H42.8092C42.4905 123.494 42.177 123.415 41.8992 123.263C41.6213 123.111 41.3884 122.892 41.223 122.627C41.0575 122.362 40.9652 122.06 40.9548 121.75C40.9445 121.44 41.0165 121.133 41.1638 120.858C43.1897 117.083 49.6375 117.292 51.9466 120.7Z" fill="#915E3A"/>
<path fill-rule="evenodd" clip-rule="evenodd" d="M41.8929 121.254C42.7156 119.721 44.4893 118.914 46.4466 118.919L41.8929 121.254ZM46.4466 118.919C48.4075 118.925 50.3016 119.752 51.262 121.169L46.4466 118.919ZM51.262 121.169C51.3605 121.315 51.4151 121.481 51.4228 121.65C51.4304 121.819 51.391 121.988 51.3066 122.141C51.2221 122.293 51.0945 122.424 50.9344 122.517C50.774 122.61 50.5886 122.66 50.398 122.66L42.8092 122.66C42.6277 122.66 42.4497 122.615 42.2945 122.53C42.1394 122.445 42.0129 122.325 41.9245 122.183C41.8362 122.042 41.7882 121.883 41.7828 121.722C41.7775 121.561 41.8148 121.4 41.8929 121.254M46.4514 117.252C48.7981 117.259 51.2823 118.24 52.631 120.23C52.9007 120.628 53.0563 121.093 53.078 121.574C53.0998 122.056 52.9869 122.533 52.7535 122.953C52.5202 123.374 52.1763 123.722 51.7614 123.962C51.3468 124.203 50.8753 124.328 50.3966 124.328M42.8102 124.328C42.3543 124.328 41.9042 124.214 41.5038 123.995C41.1031 123.776 40.7639 123.459 40.5214 123.07C40.2789 122.682 40.1421 122.237 40.1268 121.778C40.1115 121.319 40.2182 120.866 40.4347 120.462C41.638 118.22 44.1012 117.245 46.4514 117.252" fill="#45413C"/>
<path d="M19.4169 95.3689C19.4169 96.2306 19.7688 97.057 20.3952 97.6663C21.0216 98.2756 21.8711 98.6179 22.757 98.6179C23.6428 98.6179 24.4924 98.2756 25.1188 97.6663C25.7452 97.057 26.0971 96.2306 26.0971 95.3689V91.0421H19.4169V95.3689Z" fill="#FFCEBF"/>
<path fill-rule="evenodd" clip-rule="evenodd" d="M18.5884 91.042C18.5884 90.5815 18.9593 90.2081 19.4169 90.2081H26.0971C26.5546 90.2081 26.9255 90.5815 26.9255 91.042V95.3688C26.9255 96.4611 26.4792 97.5025 25.6945 98.2659C24.9107 99.0282 23.8536 99.4517 22.757 99.4517C21.6604 99.4517 20.6032 99.0282 19.8194 98.2659C19.0347 97.5025 18.5884 96.4611 18.5884 95.3688V91.042ZM20.2453 91.8759V95.3688C20.2453 96 20.5028 96.6113 20.9709 97.0666C21.4399 97.5228 22.0819 97.7839 22.757 97.7839C23.4321 97.7839 24.074 97.5228 24.543 97.0666C25.0111 96.6113 25.2686 96 25.2686 95.3688V91.8759H20.2453Z" fill="#45413C"/>
<path d="M63.9012 80.2244H68.3567C69.2146 80.2633 70.0242 80.6222 70.6172 81.2266C71.2102 81.831 71.5411 82.6344 71.5411 83.4698C71.5411 84.3053 71.2102 85.1086 70.6172 85.713C70.0242 86.3174 69.2146 86.6763 68.3567 86.7153H63.9012V80.2244Z" fill="#FFCEBF"/>
<path fill-rule="evenodd" clip-rule="evenodd" d="M63.0728 80.2244C63.0728 79.7638 63.4437 79.3905 63.9012 79.3905H68.3566C68.3691 79.3905 68.3815 79.3908 68.394 79.3913C69.4562 79.4395 70.4642 79.884 71.2066 80.6407C71.9499 81.3982 72.3695 82.4109 72.3695 83.4698C72.3695 84.5287 71.9499 85.5415 71.2066 86.299C70.4642 87.0557 69.4562 87.5001 68.394 87.5483C68.3815 87.5489 68.3691 87.5492 68.3566 87.5492H63.9012C63.4437 87.5492 63.0728 87.1758 63.0728 86.7153V80.2244ZM64.7297 81.0583V85.8814H68.3367C68.9838 85.8477 69.5881 85.5751 70.0277 85.1271C70.4704 84.6758 70.7126 84.0819 70.7126 83.4698C70.7126 82.8578 70.4704 82.2638 70.0277 81.8126C69.5881 81.3645 68.9838 81.092 68.3367 81.0583H64.7297Z" fill="#45413C"/>
<path d="M26.0913 71.5708V91.0421H24.8395" fill="#009FD9"/>
<path fill-rule="evenodd" clip-rule="evenodd" d="M26.0913 70.7369C26.5488 70.7369 26.9198 71.1102 26.9198 71.5708V91.0421C26.9198 91.5026 26.5488 91.876 26.0913 91.876H24.8395C24.3819 91.876 24.011 91.5026 24.011 91.0421C24.011 90.5815 24.3819 90.2082 24.8395 90.2082H25.2628V71.5708C25.2628 71.1102 25.6337 70.7369 26.0913 70.7369Z" fill="#45413C"/>
<path d="M49.4589 40.2011V38.037C49.4404 37.6723 49.4026 37.3088 49.3456 36.9479C47.8493 36.9265 46.4039 36.4157 45.2423 35.4978C44.0808 34.5799 43.2708 33.3083 42.9428 31.888C41.7047 33.0568 40.0472 33.7105 38.3219 33.7105C36.5965 33.7105 34.939 33.0568 33.7009 31.888C33.3737 33.3027 32.5681 34.5698 31.4132 35.4866C30.2582 36.4034 28.8205 36.9169 27.33 36.9451C27.2719 37.3068 27.2336 37.6713 27.2153 38.037V40.2011C24.0422 40.2011 24.2557 45.61 27.7715 45.61H27.7817C28.478 47.8041 29.8787 49.7235 31.7782 51.0869C33.6778 52.4502 35.9764 53.1858 38.3371 53.1858C40.6978 53.1858 42.9964 52.4502 44.896 51.0869C46.7956 49.7235 48.1962 47.8041 48.8926 45.61H48.9013C52.4185 45.61 52.632 40.2011 49.4589 40.2011Z" fill="#FFCEBF"/>
<path fill-rule="evenodd" clip-rule="evenodd" d="M43.1833 31.0899C43.4668 31.1765 43.6827 31.4088 43.7498 31.6991C44.0342 32.9306 44.7377 34.0388 45.754 34.8418C46.7707 35.6453 48.0399 36.0952 49.3574 36.1141C49.7603 36.1198 50.1007 36.4165 50.1639 36.8171C50.2254 37.2072 50.2663 37.6001 50.2863 37.9944C50.287 38.0086 50.2874 38.0228 50.2874 38.037V39.4707C50.9539 39.6456 51.4914 40.0317 51.872 40.5515C52.3811 41.2468 52.5749 42.1294 52.5153 42.9652C52.4071 44.4841 51.41 46.1192 49.4962 46.4013C48.6959 48.5452 47.2631 50.4121 45.377 51.7658C43.3352 53.2312 40.868 54.0197 38.3371 54.0197C35.8062 54.0197 33.339 53.2312 31.2972 51.7658C29.4112 50.4121 27.9784 48.5453 27.1781 46.4015C25.2638 46.1199 24.2668 44.4841 24.1587 42.9651C24.0992 42.1293 24.2931 41.2468 24.8022 40.5515C25.1828 40.0317 25.7203 39.6456 26.3868 39.4707V38.037C26.3868 38.023 26.3872 38.009 26.3879 37.9951C26.4077 37.5988 26.4492 37.2038 26.5122 36.8119C26.5762 36.4138 26.9139 36.1189 27.3145 36.1113C28.6268 36.0865 29.8892 35.6342 30.9001 34.8317C31.9106 34.0297 32.6103 32.9254 32.894 31.6988C32.9612 31.4085 33.1771 31.1764 33.4605 31.0899C33.7439 31.0034 34.0516 31.0758 34.2676 31.2797C35.3494 32.3009 36.8032 32.8765 38.3219 32.8765C39.8405 32.8765 41.2943 32.3009 42.3761 31.2797C42.5921 31.0757 42.8999 31.0034 43.1833 31.0899ZM34.1163 33.2774C33.6418 34.3901 32.8909 35.3755 31.9262 36.1413C30.8154 37.023 29.4751 37.5711 28.0667 37.7311C28.0571 37.8401 28.0495 37.9492 28.0438 38.0584V40.2011C28.0438 40.6616 27.6728 41.035 27.2153 41.035C26.685 41.035 26.351 41.2474 26.1361 41.5409C25.9026 41.8598 25.7747 42.3295 25.8114 42.846C25.8851 43.8815 26.558 44.7761 27.7715 44.7761H27.7817C28.1421 44.7761 28.4612 45.0106 28.5708 45.3562C29.2116 47.3752 30.5022 49.1468 32.2592 50.4079C34.0166 51.6692 36.1467 52.3519 38.3371 52.3519C40.5275 52.3519 42.6576 51.6692 44.415 50.4079C46.172 49.1468 47.4626 47.3752 48.1034 45.3562C48.2131 45.0106 48.5321 44.7761 48.8926 44.7761H48.9013C50.1158 44.7761 50.7888 43.8811 50.8626 42.8458C50.8994 42.3294 50.7715 41.8598 50.5381 41.5409C50.3232 41.2474 49.9893 41.035 49.4589 41.035C49.0014 41.035 48.6304 40.6616 48.6304 40.2011V38.0587C48.6247 37.9513 48.6172 37.844 48.6079 37.7368C47.1941 37.5819 45.8473 37.036 44.7307 36.1536C43.7593 35.386 43.0036 34.3961 42.5271 33.2776C41.2939 34.0988 39.8294 34.5443 38.3219 34.5443C36.8142 34.5443 35.3496 34.0987 34.1163 33.2774Z" fill="#45413C"/>
<path d="M34.7204 39.1191C34.4451 39.1188 34.1759 39.198 33.9469 39.3466C33.7179 39.4952 33.5394 39.7065 33.4339 39.9539C33.3284 40.2012 33.3007 40.4734 33.3544 40.736C33.408 40.9987 33.5405 41.2399 33.7352 41.4293C33.9298 41.6186 34.1779 41.7476 34.4479 41.7997C34.7179 41.8519 34.9977 41.825 35.252 41.7224C35.5063 41.6198 35.7235 41.4461 35.8763 41.2233C36.029 41.0006 36.1104 40.7387 36.1101 40.471C36.1098 40.1126 35.9632 39.7689 35.7027 39.5155C35.4421 39.262 35.0888 39.1195 34.7204 39.1191Z" fill="#45413C"/>
<path d="M41.948 39.1191C41.6728 39.1188 41.4036 39.198 41.1746 39.3466C40.9456 39.4952 40.767 39.7065 40.6615 39.9539C40.5561 40.2012 40.5284 40.4734 40.582 40.736C40.6357 40.9987 40.7682 41.2399 40.9628 41.4293C41.1575 41.6186 41.4055 41.7476 41.6755 41.7997C41.9455 41.8519 42.2254 41.825 42.4797 41.7224C42.7339 41.6198 42.9512 41.4461 43.104 41.2233C43.2567 41.0006 43.3381 40.7387 43.3378 40.471C43.3374 40.1126 43.1909 39.7689 42.9303 39.5155C42.6698 39.262 42.3165 39.1195 41.948 39.1191Z" fill="#45413C"/>
<path d="M32.7773 43.4459C32.7773 43.6599 32.712 43.8691 32.5898 44.047C32.4676 44.225 32.2939 44.3636 32.0906 44.4455C31.8873 44.5274 31.6637 44.5489 31.4479 44.5071C31.2321 44.4654 31.0339 44.3623 30.8783 44.211C30.7227 44.0597 30.6168 43.8668 30.5739 43.657C30.5309 43.4471 30.553 43.2295 30.6372 43.0318C30.7214 42.834 30.8639 42.6651 31.0469 42.5462C31.2298 42.4273 31.4449 42.3638 31.6649 42.3638C31.9599 42.3638 32.2429 42.4778 32.4515 42.6807C32.6601 42.8837 32.7773 43.1589 32.7773 43.4459Z" fill="#FFB59E"/>
<path d="M46.1188 43.4459C46.1188 43.6599 46.0536 43.8691 45.9314 44.047C45.8091 44.225 45.6354 44.3636 45.4321 44.4455C45.2289 44.5274 45.0052 44.5489 44.7894 44.5071C44.5736 44.4654 44.3754 44.3623 44.2199 44.211C44.0643 44.0597 43.9583 43.8668 43.9154 43.657C43.8725 43.4471 43.8945 43.2295 43.9787 43.0318C44.0629 42.834 44.2055 42.6651 44.3884 42.5462C44.5714 42.4273 44.7864 42.3638 45.0064 42.3638C45.3015 42.3638 45.5844 42.4778 45.793 42.6807C46.0016 42.8837 46.1188 43.1589 46.1188 43.4459Z" fill="#FFB59E"/>
<path d="M48.332 55.3457C48.332 61.3196 38.3233 81.3065 38.3233 81.3065C38.3233 81.3065 28.3146 61.3196 28.3146 55.3457C28.3146 49.3718 32.1819 45.61 38.3233 45.61C44.4648 45.61 48.332 49.3704 48.332 55.3457Z" fill="#E0E0E0"/>
<path fill-rule="evenodd" clip-rule="evenodd" d="M31.5917 48.8372C30.0453 50.3414 29.1431 52.5446 29.1431 55.3456C29.1431 56.6806 29.7199 58.9263 30.6609 61.6481C31.5891 64.3327 32.8306 67.3687 34.0777 70.2313C35.3238 73.0917 36.5707 75.7676 37.5063 77.7292C37.8169 78.3803 38.093 78.9523 38.3233 79.426C38.5536 78.9523 38.8298 78.3803 39.1403 77.7292C40.076 75.7676 41.3228 73.0917 42.5689 70.2313C43.816 67.3687 45.0575 64.3327 45.9857 61.6481C46.9268 58.9263 47.5035 56.6806 47.5035 55.3456C47.5035 52.5439 46.6013 50.3407 45.055 48.8367C43.5056 47.3297 41.2259 46.4439 38.3233 46.4439C35.4208 46.4439 33.1411 47.33 31.5917 48.8372ZM38.3233 81.3064C37.5835 81.6817 37.5834 81.6816 37.5833 81.6814L37.5541 81.6228L37.4696 81.4529C37.3958 81.304 37.2877 81.0852 37.1503 80.805C36.8755 80.2445 36.4832 79.4377 36.0126 78.451C35.0716 76.4784 33.8163 73.7842 32.5602 70.9011C31.3052 68.0202 30.0445 64.9395 29.096 62.1963C28.1605 59.4904 27.4861 56.9976 27.4861 55.3456C27.4861 52.1727 28.5176 49.5081 30.4402 47.6379C32.3597 45.7708 35.0844 44.7761 38.3233 44.7761C41.5622 44.7761 44.2868 45.7704 46.2064 47.6374C48.1291 49.5074 49.1605 52.1721 49.1605 55.3456C49.1605 56.9976 48.4862 59.4904 47.5506 62.1963C46.6021 64.9395 45.3415 68.0202 44.0864 70.9011C42.8304 73.7842 41.575 76.4784 40.634 78.451C40.1634 79.4377 39.7711 80.2445 39.4963 80.805C39.3589 81.0852 39.2508 81.304 39.177 81.4529L39.0926 81.6228L39.0637 81.6807C39.0636 81.6809 39.0631 81.6817 38.3233 81.3064ZM38.3233 81.3064L39.0631 81.6817C38.9223 81.9629 38.6362 82.1403 38.3233 82.1403C38.0105 82.1403 37.7242 81.9626 37.5833 81.6814L38.3233 81.3064Z" fill="#45413C"/>
<path d="M44.9962 54.2636C44.9962 54.2636 42.7715 50.4778 40.5481 49.9368C39.3558 49.6472 38.3233 48.9678 38.3233 47.7727C38.3233 47.4886 38.3809 47.2072 38.4927 46.9448C38.6045 46.6823 38.7684 46.4438 38.975 46.243C39.1816 46.0421 39.4269 45.8828 39.6968 45.7742C39.9667 45.6656 40.256 45.6098 40.5481 45.61C46.2931 45.61 44.9962 54.2636 44.9962 54.2636Z" fill="#E0E0E0"/>
<path fill-rule="evenodd" clip-rule="evenodd" d="M40.5476 46.4439C40.3605 46.4437 40.1758 46.4795 40.0043 46.5485C39.8329 46.6175 39.679 46.7179 39.5505 46.8427C39.4222 46.9675 39.3219 47.1141 39.2541 47.2733C39.1863 47.4325 39.1518 47.6021 39.1518 47.7727C39.1518 48.0943 39.2784 48.3434 39.5314 48.5643C39.8052 48.8033 40.2241 49.0002 40.7424 49.1261C41.4696 49.3031 42.1388 49.7269 42.707 50.1967C43.283 50.673 43.807 51.2399 44.2441 51.7712C44.2582 51.7885 44.2724 51.8057 44.2864 51.8229C44.2695 51.274 44.2192 50.6779 44.1116 50.0871C43.9278 49.0773 43.5898 48.1574 43.036 47.5027C42.5102 46.8812 41.7459 46.4439 40.5476 46.4439ZM44.2828 54.6875L44.2793 54.6815L44.2629 54.6543C44.2479 54.6295 44.2249 54.5919 44.1945 54.543C44.1335 54.4452 44.0429 54.3029 43.9269 54.1296C43.6941 53.782 43.3629 53.3152 42.9678 52.8348C42.5707 52.3521 42.1217 51.8712 41.6552 51.4854C41.1811 51.0934 40.7382 50.841 40.3538 50.7474C39.6798 50.5837 38.9864 50.2961 38.4458 49.8242C37.8844 49.3342 37.4948 48.646 37.4948 47.7727C37.4948 47.3749 37.5754 46.9818 37.7312 46.6161C37.887 46.2504 38.1146 45.92 38.3995 45.6431C38.6843 45.3662 39.0209 45.1481 39.3893 44.9999C39.7575 44.8517 40.1512 44.7759 40.5481 44.7761M44.9962 54.2636C45.8154 54.3879 45.8155 54.3876 45.8155 54.3873L45.816 54.3842L45.817 54.3774L45.8203 54.3544C45.8229 54.335 45.8267 54.3076 45.8311 54.2727C45.84 54.2029 45.852 54.103 45.8649 53.9773C45.8906 53.726 45.9202 53.3702 45.9369 52.9443C45.9701 52.0978 45.9533 50.9497 45.7414 49.7864C45.5314 48.6328 45.1164 47.3894 44.2976 46.4215C43.4508 45.4205 42.222 44.7762 40.5481 44.7761M44.2828 54.6875C44.2828 54.6874 44.2828 54.6876 44.2828 54.6875V54.6875ZM44.9962 54.2636L45.8155 54.3873C45.7633 54.7361 45.4985 55.0147 45.1545 55.0821C44.8106 55.1495 44.4618 54.9918 44.2833 54.6884L44.2828 54.6875" fill="#45413C"/>
<path d="M31.6504 54.2636C31.6504 54.2636 33.8752 50.4778 36.0985 49.9368C37.2908 49.6472 38.3233 48.9678 38.3233 47.7727C38.3233 47.4886 38.2658 47.2072 38.1539 46.9448C38.0421 46.6823 37.8782 46.4438 37.6716 46.243C37.465 46.0421 37.2197 45.8828 36.9498 45.7742C36.6799 45.6656 36.3906 45.6098 36.0985 45.61C30.3535 45.61 31.6504 54.2636 31.6504 54.2636Z" fill="#E0E0E0"/>
<path fill-rule="evenodd" clip-rule="evenodd" d="M36.0985 44.7761C36.4954 44.7759 36.8891 44.8517 37.2573 44.9999C37.6257 45.1481 37.9623 45.3662 38.2471 45.6431C38.532 45.92 38.7596 46.2504 38.9154 46.6161C39.0712 46.9818 39.1518 47.3749 39.1518 47.7727C39.1518 48.646 38.7622 49.3342 38.2008 49.8242C37.6602 50.2961 36.9668 50.5837 36.2928 50.7474C35.9084 50.841 35.4655 51.0934 34.9914 51.4854C34.5249 51.8712 34.0759 52.3521 33.6788 52.8348C33.2837 53.3152 32.9525 53.782 32.7197 54.1296C32.6037 54.3029 32.5131 54.4452 32.4521 54.543C32.4217 54.5919 32.3987 54.6295 32.3837 54.6543L32.3673 54.6815L32.3638 54.6875C32.3638 54.6876 32.3638 54.6874 32.3638 54.6875C32.3639 54.6874 32.3634 54.6881 31.6504 54.2636C30.9373 53.839 30.9374 53.8389 30.9375 53.8387L30.9383 53.8373L30.9402 53.8341L30.9463 53.8238L30.9681 53.7875C30.9868 53.7566 31.0138 53.7124 31.0485 53.6567C31.1179 53.5453 31.2184 53.3876 31.3457 53.1975C31.5914 52.8306 31.9401 52.338 32.3602 51.8229C32.3742 51.8057 32.3883 51.7885 32.4025 51.7712C32.8396 51.2399 33.3636 50.673 33.9396 50.1967C34.5078 49.7269 35.1767 49.3032 35.9038 49.1262C36.4221 49.0003 36.8414 48.8033 37.1152 48.5643C37.3682 48.3434 37.4948 48.0943 37.4948 47.7727C37.4948 47.6021 37.4603 47.4325 37.3925 47.2733C37.3247 47.1141 37.2244 46.9675 37.0961 46.8427C36.9676 46.7179 36.8137 46.6175 36.6423 46.5485C36.4708 46.4795 36.2861 46.4437 36.099 46.4439C34.9007 46.4439 34.1364 46.8812 33.6106 47.5027C33.0568 48.1574 32.7188 49.0773 32.535 50.0871C32.4274 50.6779 32.3771 51.274 32.3602 51.8229M36.0985 44.7761C34.4246 44.7762 33.1958 45.4205 32.349 46.4215C31.5302 47.3894 31.1152 48.6328 30.9052 49.7864C30.6933 50.9497 30.6765 52.0978 30.7097 52.9443C30.7264 53.3702 30.756 53.726 30.7817 53.9773C30.7946 54.103 30.8066 54.2029 30.8155 54.2727C30.8199 54.3076 30.8237 54.335 30.8263 54.3544L30.8296 54.3774L30.8306 54.3842L30.8309 54.3865C30.831 54.3868 30.8311 54.3879 31.6504 54.2636L30.8311 54.3879C30.8834 54.7367 31.1481 55.0147 31.4921 55.0821C31.836 55.1495 32.1853 54.991 32.3638 54.6875" fill="#45413C"/>
<path d="M73.8649 122.286C73.538 122.324 73.2065 122.291 72.8943 122.189C72.5821 122.088 72.297 121.92 72.0595 121.698C71.8221 121.476 71.6383 121.205 71.5213 120.906C71.4043 120.607 71.3571 120.286 71.3831 119.967L73.0415 99.6251L67.6218 97.7279C67.1241 97.5532 66.7067 97.2116 66.4445 96.7645C66.1824 96.3174 66.0926 95.794 66.1914 95.2884L69.8989 76.2988L64.1626 75.3975C63.8507 75.3489 63.553 75.2361 63.2895 75.0668C63.0259 74.8974 62.8025 74.6753 62.6341 74.4153C62.4658 74.1553 62.3563 73.8633 62.3132 73.5589C62.27 73.2545 62.294 72.9447 62.3837 72.65L64.7784 64.7479C64.9452 64.1978 65.3298 63.7346 65.8476 63.4602C66.3655 63.1859 66.9742 63.1229 67.5398 63.2852C68.1054 63.4474 68.5816 63.8215 68.8636 64.3253C69.1456 64.829 69.2103 65.4211 69.0436 65.9712L67.3633 71.5185L72.8629 72.3816C73.1567 72.4275 73.4381 72.5303 73.6903 72.684C73.9425 72.8376 74.1605 73.039 74.3311 73.2762C74.5018 73.5133 74.6217 73.7814 74.6838 74.0646C74.746 74.3477 74.749 74.64 74.6927 74.9243L70.9169 94.284L76.1449 96.1204C76.6032 96.2802 76.995 96.582 77.2599 96.9793C77.5249 97.3766 77.6485 97.8476 77.6116 98.3198L75.8182 120.314C75.7762 120.811 75.5589 121.279 75.203 121.639C74.847 121.998 74.3743 122.227 73.8649 122.286Z" fill="#915E3A"/>
<path fill-rule="evenodd" clip-rule="evenodd" d="M67.3127 64.0871C66.9509 63.9834 66.5618 64.0243 66.2335 64.1982C65.906 64.3716 65.6713 64.6596 65.5708 64.9912C65.5708 64.9912 65.5708 64.9912 65.5708 64.9912L63.1761 72.8933C63.122 73.0711 63.1074 73.2582 63.1333 73.441C63.1592 73.6239 63.2252 73.8009 63.3282 73.96C63.4313 74.1192 63.5695 74.2574 63.7353 74.3639C63.9011 74.4704 64.0899 74.5424 64.2894 74.5734L70.878 75.6086L67.0043 95.4492C66.945 95.7526 66.9982 96.0682 67.158 96.3407C67.3182 96.6139 67.5773 96.8291 67.8945 96.9405C67.8945 96.9405 67.8944 96.9405 67.8945 96.9405L73.9197 99.0496L72.2088 120.035C72.2088 120.035 72.2088 120.035 72.2088 120.035C72.1932 120.226 72.2214 120.42 72.2923 120.601C72.3632 120.782 72.4755 120.949 72.6232 121.087C72.7711 121.225 72.9505 121.331 73.1494 121.396C73.3484 121.461 73.5605 121.482 73.7699 121.458C74.0966 121.42 74.395 121.273 74.6162 121.05C74.8366 120.827 74.9671 120.542 74.9925 120.245C74.9926 120.244 74.9926 120.244 74.9926 120.244L76.7857 98.2546C76.7857 98.2542 76.7858 98.2538 76.7858 98.2534C76.8075 97.9709 76.7339 97.6868 76.572 97.444C76.4096 97.2004 76.1656 97.0102 75.8737 96.9084L69.9655 94.833L73.8797 74.7637L73.8802 74.7613C73.914 74.5904 73.9122 74.4147 73.8748 74.2444C73.8375 74.0739 73.7649 73.911 73.6602 73.7654C73.5553 73.6197 73.4201 73.4941 73.2613 73.3974C73.1024 73.3006 72.9238 73.235 72.7359 73.2057L66.2925 72.1944L68.2511 65.728C68.3513 65.3973 68.3132 65.0408 68.1418 64.7346C67.9697 64.4273 67.6741 64.1908 67.3127 64.0871ZM73.8649 122.286L73.9599 123.114C73.5155 123.166 73.0645 123.121 72.6391 122.983C72.2136 122.844 71.8228 122.614 71.4958 122.309C71.1687 122.003 70.9134 121.629 70.7503 121.211C70.5872 120.794 70.521 120.345 70.5573 119.898L72.1633 100.201L67.3497 98.5156C66.6714 98.2775 66.0951 97.8093 65.731 97.1884C65.3665 96.5667 65.2402 95.8354 65.3784 95.1276C65.3785 95.1275 65.3784 95.1276 65.3784 95.1276L68.9198 76.9889L64.0359 76.2216C64.0357 76.2216 64.036 76.2216 64.0359 76.2216C63.6116 76.1554 63.2049 76.0018 62.8436 75.7696C62.4822 75.5374 62.1736 75.2314 61.94 74.8706C61.7063 74.5097 61.5534 74.1027 61.493 73.6768C61.4326 73.2509 61.4663 72.8176 61.5914 72.4061C61.5914 72.406 61.5914 72.4063 61.5914 72.4061L63.9859 64.5046C64.219 63.7359 64.7535 63.0975 65.4618 62.7223C66.1692 62.3476 66.9975 62.2625 67.7668 62.4832C68.5367 62.704 69.1934 63.2158 69.5853 63.9159C69.9779 64.6171 70.0692 65.445 69.836 66.2146L68.4342 70.8426L72.9898 71.5576C72.9898 71.5576 72.9898 71.5576 72.9898 71.5576M76.4169 95.3327C77.0413 95.5506 77.5805 95.9638 77.9478 96.5145C78.3156 97.0661 78.4892 97.7235 78.4376 98.3851L78.4373 98.388L76.6438 120.382L76.6437 120.385C76.585 121.081 76.2808 121.732 75.7897 122.228C75.299 122.723 74.652 123.034 73.9599 123.114L73.8649 122.286" fill="#45413C"/>
<path d="M76.0795 57.6962C76.2609 59.1832 75.9849 60.6892 75.2865 62.0237C74.588 63.3581 73.4984 64.4612 72.1555 65.1933C70.8126 65.9254 69.2766 66.2537 67.7419 66.1368C66.2071 66.0198 64.7425 65.4628 63.5332 64.5362C62.3238 63.6095 61.4242 62.3549 60.9479 60.9309C60.4716 59.5069 60.4401 57.9775 60.8574 56.5361C61.2746 55.0947 62.122 53.806 63.2921 52.833C64.4623 51.86 65.9029 51.2464 67.4316 51.0697C68.4467 50.9524 69.4757 51.0307 70.4597 51.3003C71.4437 51.5698 72.3635 52.0252 73.1666 52.6406C73.9696 53.2559 74.6402 54.0191 75.14 54.8866C75.6398 55.754 75.9591 56.7087 76.0795 57.6962Z" fill="#FFE500"/>
<path d="M60.9329 60.8858C61.4355 59.3562 62.4248 58.0216 63.758 57.0746C65.0912 56.1276 66.6993 55.6173 68.3502 55.6173C70.001 55.6173 71.6091 56.1276 72.9423 57.0746C74.2755 58.0216 75.2648 59.3562 75.7674 60.8858C76.1405 59.7502 76.2327 58.5449 76.0366 57.368C75.8405 56.1912 75.3616 55.076 74.6387 54.1131C73.9159 53.1503 72.9697 52.367 71.8769 51.827C70.7842 51.2871 69.5758 51.0056 68.3502 51.0056C67.1245 51.0056 65.9161 51.2871 64.8234 51.827C63.7306 52.367 62.7844 53.1503 62.0616 54.1131C61.3387 55.076 60.8598 56.1912 60.6637 57.368C60.4676 58.5449 60.5598 59.7502 60.9329 60.8858Z" fill="#FFF48C"/>
<path fill-rule="evenodd" clip-rule="evenodd" d="M70.2422 52.1049C69.3599 51.8632 68.4369 51.7929 67.5261 51.8982C66.1542 52.0567 64.8647 52.6071 63.8198 53.4759C62.7752 54.3444 62.0227 55.4914 61.6528 56.7694C61.2829 58.047 61.3107 59.4022 61.733 60.6648C62.1555 61.9278 62.9549 63.045 64.035 63.8726C65.1153 64.7005 66.427 65.2003 67.8044 65.3053C69.1819 65.4102 70.559 65.1153 71.7609 64.46C72.9626 63.8049 73.933 62.8205 74.5535 61.635C75.1738 60.4499 75.4179 59.1149 75.2572 57.7978C75.1505 56.9229 74.8675 56.0758 74.4233 55.3049C73.9791 54.5339 73.382 53.8537 72.6647 53.3041C71.9474 52.7545 71.1244 52.3466 70.2422 52.1049ZM67.3371 50.2412C68.4566 50.1119 69.5915 50.1982 70.6772 50.4956C71.7631 50.793 72.7796 51.296 73.6684 51.9771C74.5573 52.6582 75.3013 53.5043 75.8567 54.4682C76.4121 55.4322 76.7676 56.4945 76.9018 57.5946C77.104 59.2516 76.7961 60.9285 76.0194 62.4124C75.243 63.8958 74.0342 65.1174 72.5501 65.9265C71.0661 66.7355 69.3713 67.0973 67.6793 66.9683C65.9872 66.8393 64.3696 66.2251 63.0313 65.1997C61.6927 64.174 60.6928 62.782 60.1627 61.1969C59.6324 59.6116 59.5973 57.9079 60.062 56.3028C60.5265 54.698 61.4687 53.2675 62.7645 52.1901C64.06 51.1129 65.6515 50.436 67.3371 50.2412Z" fill="#45413C"/>
<path d="M71.447 79.521C70.8664 79.3975 70.2654 79.3959 69.6842 79.5165C69.103 79.637 68.555 79.8769 68.0767 80.22C67.5984 80.5632 67.201 81.0017 66.9109 81.5062C66.6209 82.0107 66.4449 82.5697 66.3947 83.1457C66.3473 84.1658 66.6793 85.1685 67.3297 85.97C67.9801 86.7716 68.9056 87.3185 69.9367 87.5106L70.9924 87.7338C71.703 87.8851 72.4462 87.7595 73.0627 87.384C73.6793 87.0085 74.12 86.413 74.2904 85.7251L74.9425 83.0948C75.0297 82.7445 75.0442 82.3807 74.9849 82.0249C74.9256 81.6691 74.7938 81.3284 74.5972 81.0228C74.4006 80.7172 74.1432 80.4529 73.8402 80.2455C73.5371 80.038 73.1945 79.8916 72.8324 79.8148L71.447 79.521Z" fill="#FFCEBF"/>
<path fill-rule="evenodd" clip-rule="evenodd" d="M71.6183 78.7051C71.6183 78.7051 71.6182 78.7051 71.6183 78.7051L73.0032 78.9988C73.4698 79.0978 73.9129 79.2868 74.306 79.5559C74.6993 79.8251 75.0351 80.1693 75.2926 80.5696C75.5501 80.9699 75.7237 81.4177 75.8019 81.887C75.8801 82.3562 75.8611 82.836 75.7461 83.2977L75.0943 85.9269C74.8695 86.8339 74.2905 87.6108 73.4916 88.0974C72.6937 88.5834 71.7357 88.7443 70.8212 88.5497C70.8211 88.5497 70.8212 88.5497 70.8212 88.5497L69.7757 88.3287C68.56 88.0997 67.463 87.4526 66.688 86.4975C65.9103 85.539 65.5101 84.3354 65.5671 83.1068C65.5676 83.0955 65.5684 83.0842 65.5694 83.0729C65.6302 82.3743 65.8436 81.6978 66.1938 81.0885C66.544 80.4794 67.0226 79.9522 67.5958 79.541C68.169 79.1298 68.8241 78.8435 69.517 78.6997C70.2099 78.556 70.9262 78.5579 71.6183 78.7051ZM71.2757 80.3368C70.8067 80.2371 70.321 80.2358 69.8514 80.3332C69.3819 80.4306 68.9409 80.624 68.5575 80.8991C68.1743 81.1741 67.8579 81.5239 67.628 81.9238C67.401 82.3187 67.2629 82.7541 67.2215 83.2016C67.1883 84.0075 67.4519 84.8024 67.9713 85.4425C68.4951 86.0879 69.2451 86.5337 70.0875 86.6907L70.107 86.6945L71.1638 86.918C71.6705 87.0258 72.1988 86.9355 72.6338 86.6705C73.068 86.4061 73.3704 85.992 73.4866 85.5233L74.1386 82.8929C74.1982 82.6539 74.2082 82.4052 74.1678 82.1629C74.1274 81.9204 74.0374 81.6869 73.9017 81.476C73.7661 81.2651 73.5872 81.0808 73.3743 80.935C73.1613 80.7893 72.9191 80.6854 72.6616 80.6308C72.6616 80.6307 72.6616 80.6308 72.6616 80.6308L71.2757 80.3368Z" fill="#45413C"/>
<path d="M25.7282 33.7107L36.5647 2.06842C36.6873 1.70903 36.9232 1.39635 37.2389 1.17475C37.5546 0.953155 37.934 0.833893 38.3233 0.833893C38.7126 0.833893 39.092 0.953155 39.4077 1.17475C39.7234 1.39635 39.9593 1.70903 40.0819 2.06842L50.9184 33.7107H25.7282Z" fill="#00B8F0"/>
<path d="M40.6193 3.61895L40.0877 2.06509C39.9651 1.7057 39.7292 1.39303 39.4135 1.17143C39.0978 0.949828 38.7184 0.830566 38.3291 0.830566C37.9398 0.830566 37.5604 0.949828 37.2447 1.17143C36.929 1.39303 36.6931 1.7057 36.5705 2.06509L25.734 33.7074H30.3085L40.6193 3.61895Z" fill="#4ACFFF"/>
<path fill-rule="evenodd" clip-rule="evenodd" d="M38.3233 1.6678C38.1014 1.6678 37.8878 1.73593 37.7128 1.85874C37.5383 1.9813 37.4126 2.15067 37.3482 2.33937L26.8901 32.8768H49.7565L39.2987 2.34018C39.2343 2.15149 39.1083 1.98129 38.9338 1.85874C38.7588 1.73593 38.5452 1.6678 38.3233 1.6678ZM36.765 0.490774C37.2214 0.170391 37.7666 0 38.3233 0C38.88 0 39.4252 0.170391 39.8816 0.490774C40.3383 0.811379 40.6844 1.26728 40.8654 1.79727C40.8654 1.79734 40.8654 1.7972 40.8654 1.79727L51.7016 33.4389C51.7889 33.6938 51.7484 33.9754 51.5929 34.1948C51.4375 34.4143 51.1862 34.5446 50.9184 34.5446H25.7282C25.4604 34.5446 25.2091 34.4143 25.0536 34.1948C24.8982 33.9754 24.8577 33.6938 24.945 33.4389L35.7811 1.79748C35.7812 1.79742 35.7811 1.79754 35.7811 1.79748C35.9621 1.26748 36.3083 0.811381 36.765 0.490774Z" fill="#45413C"/>
<path d="M58.9739 32.2863C58.7171 32.0425 58.4028 31.8636 58.0585 31.7651C57.7143 31.6666 57.3505 31.6515 56.9989 31.7213C50.8351 32.7828 44.5824 33.2776 38.3233 33.1989C32.0643 33.2776 25.8115 32.7828 19.6478 31.7213C19.2959 31.652 18.932 31.6673 18.5876 31.7658C18.2432 31.8642 17.9287 32.0429 17.6713 32.2863C17.532 32.3994 17.4177 32.5388 17.3356 32.6962C17.2534 32.8536 17.2051 33.0256 17.1935 33.2017C17.1935 35.5904 26.6533 37.5285 38.3233 37.5285C49.9934 37.5285 59.4531 35.5904 59.4531 33.2017C59.4417 33.0254 59.3933 32.8532 59.3109 32.6958C59.2285 32.5383 59.1138 32.399 58.9739 32.2863Z" fill="#00B8F0"/>
<path fill-rule="evenodd" clip-rule="evenodd" d="M56.8497 30.9009C57.3261 30.8082 57.8184 30.8294 58.285 30.9629C58.745 31.0945 59.1683 31.3319 59.5187 31.6575C59.7341 31.8369 59.913 32.0572 60.0438 32.307C60.1801 32.5673 60.2608 32.8534 60.2798 33.1474C60.281 33.1655 60.2816 33.1836 60.2816 33.2016C60.2816 33.7983 59.9825 34.29 59.6079 34.6648C59.2352 35.0377 58.7293 35.3573 58.1518 35.6369C56.9929 36.1979 55.3692 36.6807 53.4297 37.078C49.537 37.8752 44.1965 38.3623 38.3233 38.3623C32.4501 38.3623 27.1097 37.8752 23.217 37.078C21.2774 36.6807 19.6537 36.1979 18.4949 35.6369C17.9173 35.3573 17.4114 35.0377 17.0387 34.6648C16.6641 34.29 16.3651 33.7983 16.3651 33.2016C16.3651 33.1833 16.3657 33.165 16.3669 33.1467C16.3861 32.8534 16.4665 32.5681 16.6021 32.3083C16.7326 32.0583 16.9111 31.8377 17.1261 31.6578C17.4772 31.3324 17.9009 31.0951 18.3613 30.9635C18.8279 30.8302 19.32 30.8088 19.7964 30.9008C25.9076 31.9528 32.1071 32.443 38.313 32.365H38.3337C44.5393 32.443 50.7387 31.9528 56.8497 30.9009ZM58.9739 32.2863L58.4054 32.8929C58.2467 32.7423 58.0502 32.6296 57.832 32.5671C57.6138 32.5047 57.3825 32.4951 57.159 32.5394L57.1386 32.5432C50.9286 33.6127 44.6291 34.1114 38.3233 34.0328C32.0175 34.1114 25.718 33.6127 19.5081 32.5432L19.4888 32.5396C19.2647 32.4955 19.0328 32.5053 18.814 32.5679C18.5952 32.6304 18.3981 32.7432 18.2386 32.894C18.2233 32.9085 18.2075 32.9224 18.1911 32.9356C18.1388 32.9781 18.0977 33.0289 18.069 33.084C18.0464 33.1272 18.0316 33.1728 18.0244 33.219C18.0321 33.2536 18.0654 33.3404 18.2069 33.482C18.3971 33.6723 18.7214 33.8959 19.2131 34.1339C20.1926 34.6081 21.6632 35.0578 23.5473 35.4437C27.302 36.2126 32.5265 36.6945 38.3233 36.6945C44.1201 36.6945 49.3446 36.2126 53.0993 35.4437C54.9834 35.0578 56.454 34.6081 57.4336 34.1339C57.9252 33.8959 58.2495 33.6723 58.4398 33.482C58.5816 33.3401 58.6146 33.2532 58.6223 33.2187C58.6152 33.1728 58.6004 33.1275 58.5779 33.0845C58.5493 33.0298 58.5084 32.9794 58.4562 32.9374L58.9739 32.2863Z" fill="#45413C"/>
</svg>
