<svg viewBox="0 0 100 100" xmlns="http://www.w3.org/2000/svg" id="Graduation-2--Streamline-Ux" height="100" width="100">
  <desc>
    Graduation 2 Streamline Illustration: https://streamlinehq.com
  </desc>
  <path d="M10 50a40 40 0 1 0 80 0 40 40 0 1 0 -80 0Z" fill="#daedf7" stroke="#daedf7" stroke-linecap="round" stroke-linejoin="round" stroke-width="1"></path>
  <path d="M23.085 51.181a26.819 26.819 0 1 0 53.638 0 26.819 26.819 0 1 0 -53.638 0Z" fill="#4aeff7" stroke-width="1"></path>
  <path d="M34.47 29.246a1.9 1.9 0 0 0 -0.061 0.479c0 2.963 6.937 5.364 15.5 5.364s15.5 -2.4 15.5 -5.364a1.9 1.9 0 0 0 -0.062 -0.479 26.824 26.824 0 0 0 -30.868 0Z" fill="#00dfeb" stroke-width="1"></path>
  <path d="M49.9 69.656a26.825 26.825 0 0 1 -26.5 -22.647 26.819 26.819 0 1 0 52.992 0A26.825 26.825 0 0 1 49.9 69.656Z" fill="#00dfeb" stroke-width="1"></path>
  <path d="M49.9 78a26.837 26.837 0 0 0 26.48 -31.095 102.27 102.27 0 0 1 -15.77 13.716c-9.155 6.161 -20.721 10.229 -20.836 10.27l-0.3 0.106 -0.269 0.181a4.3 4.3 0 0 0 -1.813 3.73A26.706 26.706 0 0 0 49.9 78Z" fill="#00dfeb" stroke-width="1"></path>
  <path d="M39.914 47.81v-3.622a3.22 3.22 0 0 1 4.021 -3.122l4.371 1.075a3.273 3.273 0 0 1 2.223 1.947l3.3 8.267a3.218 3.218 0 0 1 -1.477 4.045l-10.739 5.8a3.253 3.253 0 0 1 -4.446 -1.4l-1.4 -2.822a3.217 3.217 0 0 1 0.2 -3.247l3.4 -5.119a3.253 3.253 0 0 0 0.547 -1.802Z" fill="#9ceb60" stroke="#45413c" stroke-linecap="round" stroke-linejoin="round" stroke-width="1"></path>
  <path d="M76.723 51.181a26.827 26.827 0 0 0 -21.63 -26.317l-6.662 6.662a2.33 2.33 0 0 0 0.6 3.721l8.869 4.421a2.446 2.446 0 0 1 1.1 1.149l4.12 9.316a2.344 2.344 0 0 1 -0.174 2.222l-3.547 5.294A2.329 2.329 0 0 0 59.245 60l3.5 6.968a2.317 2.317 0 0 0 2.822 1.174l6.794 -2.285a26.692 26.692 0 0 0 4.362 -14.676Z" fill="#9ceb60" stroke-width="1"></path>
  <path d="M76.724 51.181a27.038 27.038 0 0 0 -0.34 -4.277 102.217 102.217 0 0 1 -15.77 13.717q-0.395 0.265 -0.793 0.525l2.92 5.819a2.317 2.317 0 0 0 2.822 1.174l6.794 -2.285a26.693 26.693 0 0 0 4.367 -14.673Z" fill="#6dd627" stroke-width="1"></path>
  <path d="M48.431 31.526a2.332 2.332 0 0 0 0.309 3.548c0.384 0.01 0.773 0.015 1.164 0.015 8.558 0 15.5 -2.4 15.5 -5.364a1.9 1.9 0 0 0 -0.062 -0.479 26.677 26.677 0 0 0 -10.245 -4.382Z" fill="#6dd627" stroke-width="1"></path>
  <path d="M76.723 51.181a26.827 26.827 0 0 0 -21.63 -26.317l-6.662 6.662a2.33 2.33 0 0 0 0.6 3.721l8.869 4.421a2.446 2.446 0 0 1 1.1 1.149l4.12 9.316a2.344 2.344 0 0 1 -0.174 2.222l-3.547 5.294A2.329 2.329 0 0 0 59.245 60l3.5 6.968a2.317 2.317 0 0 0 2.822 1.174l6.794 -2.285a26.692 26.692 0 0 0 4.362 -14.676Z" fill="none" stroke="#45413c" stroke-linecap="round" stroke-linejoin="round" stroke-width="1"></path>
  <path d="M23.085 51.181a26.819 26.819 0 1 0 53.638 0 26.819 26.819 0 1 0 -53.638 0Z" fill="none" stroke="#45413c" stroke-linecap="round" stroke-linejoin="round" stroke-width="1"></path>
  <path d="M89.13 60.625a107.76 107.76 0 0 0 -21.409 10.556 107.8 107.8 0 0 0 -17.839 15.86c-1.465 0.986 -4.73 -1.3 -7.293 -5.11s-3.453 -7.694 -1.988 -8.68A107.823 107.823 0 0 0 62.01 62.7a107.8 107.8 0 0 0 17.839 -15.86Z" fill="#ffffff" stroke-width="1"></path>
  <path d="M62.01 62.7A107.823 107.823 0 0 1 40.6 73.251c-1.3 0.878 -0.741 4.059 1.21 7.435l3.073 -1.07a107.766 107.766 0 0 0 21.41 -10.557A107.779 107.779 0 0 0 84.133 53.2l-4.284 -6.364A107.8 107.8 0 0 1 62.01 62.7Z" fill="#daedf7" stroke-width="1"></path>
  <path d="M62.01 62.7A107.823 107.823 0 0 1 40.6 73.251c-1.01 0.68 -0.9 2.739 0.106 5.2l2.749 -0.958a107.8 107.8 0 0 0 21.41 -10.555 107.829 107.829 0 0 0 17.84 -15.86l-2.856 -4.243A107.8 107.8 0 0 1 62.01 62.7Z" fill="#ffffff" stroke="#45413c" stroke-linecap="round" stroke-linejoin="round" stroke-width="1"></path>
  <path d="M89.13 60.625a107.76 107.76 0 0 0 -21.409 10.556 107.8 107.8 0 0 0 -17.839 15.86c-1.465 0.986 -4.73 -1.3 -7.293 -5.11s-3.453 -7.694 -1.988 -8.68A107.823 107.823 0 0 0 62.01 62.7a107.8 107.8 0 0 0 17.839 -15.86Z" fill="none" stroke="#45413c" stroke-linecap="round" stroke-linejoin="round" stroke-width="1"></path>
  <path d="M81.8382474307 55.514657875a8.311 3.197 56.057 1 0 5.3044206368 -3.5702041549 8.311 3.197 56.057 1 0 -5.3044206368 3.5702041549Z" fill="#adc4d9" stroke="#45413c" stroke-linecap="round" stroke-linejoin="round" stroke-width="1"></path>
  <path d="M66.457 65.867a11.235 11.235 0 0 1 -1.974 -4.92c-0.812 0.6 -1.638 1.186 -2.473 1.748 -0.754 0.507 -1.523 1 -2.3 1.479a12.669 12.669 0 0 0 5.775 8.58q1.1 -0.808 2.235 -1.573c0.836 -0.562 1.689 -1.107 2.551 -1.633a11.227 11.227 0 0 1 -3.814 -3.681Z" fill="#ff6242" stroke-width="1"></path>
  <path d="m60.448 66.829 4.773 -3.213a9.727 9.727 0 0 1 -0.738 -2.669c-0.812 0.6 -1.638 1.186 -2.473 1.748 -0.754 0.507 -1.523 1 -2.3 1.479a9.744 9.744 0 0 0 0.738 2.655Z" fill="#ffa694" stroke-width="1"></path>
  <path d="M66.457 65.867a11.235 11.235 0 0 1 -1.974 -4.92c-0.812 0.6 -1.638 1.186 -2.473 1.748 -0.754 0.507 -1.523 1 -2.3 1.479a12.669 12.669 0 0 0 5.775 8.58q1.1 -0.808 2.235 -1.573c0.836 -0.562 1.689 -1.107 2.551 -1.633a11.227 11.227 0 0 1 -3.814 -3.681Z" fill="none" stroke="#45413c" stroke-linecap="round" stroke-linejoin="round" stroke-width="1"></path>
  <path d="m61.824 18.4 0.552 10.176a1.193 1.193 0 0 1 -0.724 1.161A31.11 31.11 0 0 1 49.9 32.109a31.1 31.1 0 0 1 -11.747 -2.37 1.189 1.189 0 0 1 -0.724 -1.161l0.555 -10.178Z" fill="#87898c" stroke-width="1"></path>
  <path d="m62.037 22.336 -0.213 -3.936h-23.84l-0.213 3.934 10.773 3.2a4.749 4.749 0 0 0 2.714 0Z" fill="#45413c" stroke-width="1"></path>
  <path d="m61.824 18.4 0.552 10.176a1.193 1.193 0 0 1 -0.724 1.161A31.11 31.11 0 0 1 49.9 32.109a31.1 31.1 0 0 1 -11.747 -2.37 1.189 1.189 0 0 1 -0.724 -1.161l0.555 -10.178Z" fill="none" stroke="#45413c" stroke-linecap="round" stroke-linejoin="round" stroke-width="1"></path>
  <path d="M29.774 17.694a0.6 0.6 0 0 1 0 -1.143l18.769 -5.58a4.766 4.766 0 0 1 2.714 0l18.776 5.582a0.6 0.6 0 0 1 0 1.143l-18.775 5.58a4.749 4.749 0 0 1 -2.714 0Z" fill="#87898c" stroke="#45413c" stroke-linecap="round" stroke-linejoin="round" stroke-width="1"></path>
  <path d="m49.904 17.122 8.94 3.898 0 8.412" fill="none" stroke="#45413c" stroke-linecap="round" stroke-linejoin="round" stroke-width="1"></path>
  <path d="M60.27 30.6a1.454 1.454 0 0 0 -2.852 0l-0.761 3.806a1 1 0 0 0 0.845 1.187 9.815 9.815 0 0 0 2.685 0 1 1 0 0 0 0.844 -1.188Z" fill="#fff48c" stroke="#45413c" stroke-linecap="round" stroke-linejoin="round" stroke-width="1"></path>
  <path d="M48.116 17.122a1.788 1.192 0 1 0 3.576 0 1.788 1.192 0 1 0 -3.576 0Z" fill="#bdbec0" stroke="#45413c" stroke-linecap="round" stroke-linejoin="round" stroke-width="1"></path>
</svg>