<svg width="152" height="33" viewBox="0 0 152 33" fill="none" xmlns="http://www.w3.org/2000/svg">
<path d="M151.325 28.4536C150.997 28.5459 150.721 28.5963 150.444 28.5963C149.462 28.5963 149 28.1766 149 26.968V17.8448C149 13.0523 145.181 10.719 140.666 10.719C137.216 10.719 135.361 11.1387 131.677 12.6243L130.854 17.4587L135.647 17.9707L136.326 15.6038C137.308 15.0918 138.282 14.9995 139.541 14.9995C142.94 14.9995 142.991 17.5594 142.991 19.6996V20.3963C141.916 20.2536 140.708 20.2116 139.541 20.2116C134.749 20.2116 129.763 21.4202 129.763 26.5903C129.763 30.9631 133.204 32.5998 136.234 32.5998C139.633 32.5998 141.774 30.5519 142.982 28.4116C143.259 30.9715 144.795 32.5998 147.59 32.5998C148.891 32.5998 150.242 32.2305 151.358 31.6178L151.325 28.4536ZM138.433 28.3193C136.62 28.3193 135.965 27.245 135.965 25.8937C135.965 23.6108 137.829 23.0065 139.969 23.0065C140.943 23.0065 142.017 23.1492 142.999 23.2835C142.856 26.7834 140.573 28.3193 138.433 28.3193ZM130.367 0.101807L121.286 32.1382H115.369L124.45 0.101807H130.367ZM118.172 0.101807L109.091 32.1382H103.182L112.263 0.101807H118.172ZM92.9594 11.1387H99.2458V18.6757H92.9594V11.1387ZM92.9594 24.5928H99.2458V32.1382H92.9594V24.5928ZM83.8109 24.3158L88.5614 24.7774L87.2605 32.1382H68.9132L68.3089 28.974L79.8578 15.7045H73.2944L72.3628 18.961L68.0319 18.491L68.7789 11.1303H87.2185L87.6885 14.2945L76.0389 27.5723H82.8373L83.8109 24.3158ZM53.7218 10.719C46.1764 10.719 42.4499 15.7969 42.4499 21.9406C42.4499 28.6467 46.9234 32.5998 53.3944 32.5998C60.1005 32.5998 64.9433 28.3613 64.9433 21.6552C64.9433 15.7885 61.2587 10.719 53.7218 10.719ZM53.5791 27.992C50.3226 27.992 48.6439 25.1971 48.6439 21.5629C48.6439 17.6014 50.5492 15.3268 53.6294 15.3268C56.4663 15.3268 58.7492 17.2321 58.7492 21.4706C58.7492 25.4741 56.7013 27.992 53.5791 27.992ZM37.0447 27.5723H39.8396V32.1382H31.0353V20.3123C31.0353 16.6781 29.8267 15.2849 27.4514 15.2849C24.5642 15.2849 23.3976 17.3328 23.3976 20.2704V27.5723H26.1925V32.1382H17.3965V20.3123C17.3965 16.6781 16.1879 15.2849 13.8127 15.2849C10.9255 15.2849 9.75883 17.3328 9.75883 20.2704V27.5723H13.7623V32.1382H0.962891V27.5723H3.75778V15.6961H0.962891V11.1303H9.75883V14.2945C11.0178 12.0619 13.2084 10.7107 16.1376 10.7107C19.1675 10.7107 21.954 12.1543 22.9863 15.2261C24.153 12.4312 26.5282 10.7107 29.8351 10.7107C33.6036 10.7107 37.0531 12.9936 37.0531 17.9707V27.5723H37.0447Z" fill="black"/>
</svg>

