<svg width="128" height="128" viewBox="0 0 128 128" fill="none" xmlns="http://www.w3.org/2000/svg">
<path d="M10.2881 70.269C10.2881 76.9926 11.6124 83.6505 14.1855 89.8624C16.7585 96.0742 20.5299 101.718 25.2842 106.473C30.0386 111.227 35.6828 114.999 41.8947 117.572C48.1066 120.145 54.7644 121.469 61.4881 121.469C68.2118 121.469 74.8696 120.145 81.0815 117.572C87.2934 114.999 92.9376 111.227 97.6919 106.473C102.446 101.718 106.218 96.0742 108.791 89.8624C111.364 83.6505 112.688 76.9926 112.688 70.269C112.688 63.5453 111.364 56.8874 108.791 50.6756C106.218 44.4637 102.446 38.8195 97.6919 34.0651C92.9376 29.3107 87.2934 25.5394 81.0815 22.9663C74.8696 20.3933 68.2118 19.069 61.4881 19.069C54.7644 19.069 48.1066 20.3933 41.8947 22.9663C35.6828 25.5394 30.0386 29.3107 25.2842 34.0651C20.5299 38.8195 16.7585 44.4637 14.1855 50.6756C11.6124 56.8874 10.2881 63.5453 10.2881 70.269Z" fill="#C7F0FF" stroke="#C7F0FF" stroke-width="1.6" stroke-miterlimit="10"/>
<path d="M50.021 90.5275V116.459C50.0348 116.651 50.0084 116.843 49.9434 117.024C49.8785 117.205 49.7766 117.371 49.644 117.51C49.5115 117.65 49.3514 117.76 49.1738 117.834C48.9963 117.908 48.8053 117.944 48.613 117.94H44.8626C44.4776 117.94 44.1076 117.79 43.8309 117.523C43.5543 117.255 43.3927 116.89 43.3804 116.505L42.8441 99.5975C42.8411 98.9766 42.5957 98.3814 42.1602 97.9388C41.7246 97.4962 41.1334 97.2414 40.5126 97.2285C39.8918 97.2156 39.2905 97.4458 38.837 97.87C38.3835 98.2941 38.1137 98.8787 38.085 99.499L37.5449 116.505C37.5326 116.89 37.3712 117.254 37.0948 117.522C36.8184 117.79 36.4487 117.94 36.0639 117.94H32.3135C31.9161 117.932 31.5359 117.776 31.248 117.502C30.9602 117.228 30.7854 116.856 30.7583 116.459V90.5275H50.021Z" fill="#F7E5C6"/>
<path d="M30.7583 90.5275H50.021V94.9729H30.7583V90.5275Z" fill="#F0D5A8"/>
<path d="M50.021 90.5275V116.459C50.0348 116.651 50.0084 116.843 49.9434 117.024C49.8785 117.205 49.7766 117.371 49.644 117.51C49.5115 117.65 49.3514 117.76 49.1738 117.834C48.9963 117.908 48.8053 117.944 48.613 117.94H44.8626C44.4776 117.94 44.1076 117.79 43.8309 117.523C43.5543 117.255 43.3927 116.89 43.3804 116.505L42.8441 99.5975C42.8411 98.9766 42.5957 98.3814 42.1602 97.9388C41.7246 97.4962 41.1334 97.2414 40.5126 97.2285C39.8918 97.2156 39.2905 97.4458 38.837 97.87C38.3835 98.2941 38.1137 98.8787 38.085 99.499L37.5449 116.505C37.5326 116.89 37.3712 117.254 37.0948 117.522C36.8184 117.79 36.4487 117.94 36.0639 117.94H32.3135C31.9161 117.932 31.5359 117.776 31.248 117.502C30.9602 117.228 30.7854 116.856 30.7583 116.459V90.5275H50.021Z" stroke="#45413C" stroke-width="1.6" stroke-linecap="round" stroke-linejoin="round"/>
<path d="M24.8315 78.6734V91.2686C24.8471 91.472 24.9396 91.6618 25.0901 91.7994C25.2406 91.9371 25.4378 92.0123 25.6418 92.0097H30.7618V90.5275H50.0207V73.1336C50.0477 72.0605 50.4521 71.0313 51.1629 70.2269C51.8736 69.4225 52.8452 68.8944 53.9067 68.7355C67.0101 66.4968 66.3855 52.7432 66.3855 52.7432H60.4578C60.4578 63.8561 50.0898 63.1112 50.0898 63.1112H40.4591C36.3247 63.1081 32.3579 64.7446 29.4284 67.6619C26.4989 70.5792 24.8458 74.5391 24.8315 78.6734Z" fill="#C8FFA1"/>
<path d="M41.2655 66.0603L50.8232 66.0756C52.012 66.0847 53.1894 65.844 54.2792 65.3691C56.756 64.3188 58.8671 62.56 60.3474 60.3136C61.8277 58.0672 62.6111 55.4334 62.5992 52.7432H60.4578C60.4578 63.8561 50.0898 63.1112 50.0898 63.1112H40.4591C36.3247 63.1081 32.3579 64.7446 29.4284 67.6619C26.4989 70.5792 24.8458 74.5391 24.8315 78.6734V82.0603C24.9437 77.7771 26.7246 73.7071 29.7946 70.7182C32.8646 67.7292 36.9808 66.0578 41.2655 66.0603Z" fill="#E4FFD1"/>
<path d="M24.8315 78.6734V91.2686C24.8471 91.472 24.9396 91.6618 25.0901 91.7994C25.2406 91.9371 25.4378 92.0123 25.6418 92.0097H30.7618V90.5275H50.0207V73.1336C50.0477 72.0605 50.4521 71.0313 51.1629 70.2269C51.8736 69.4225 52.8452 68.8944 53.9067 68.7355C67.0101 66.4968 66.3855 52.7432 66.3855 52.7432H60.4578C60.4578 63.8561 50.0898 63.1112 50.0898 63.1112H40.4591C36.3247 63.1081 32.3579 64.7446 29.4284 67.6619C26.4989 70.5792 24.8458 74.5391 24.8315 78.6734V78.6734Z" stroke="#45413C" stroke-width="1.6" stroke-linecap="round" stroke-linejoin="round"/>
<path d="M30.7583 74.9691V90.5275" stroke="#45413C" stroke-width="1.6" stroke-linecap="round" stroke-linejoin="round"/>
<path d="M25.5713 94.603C25.5722 95.016 25.6713 95.4229 25.8606 95.79C26.0499 96.1571 26.3238 96.4739 26.6597 96.7142C26.9957 96.9544 27.384 97.1113 27.7926 97.1717C28.2011 97.2322 28.6182 97.1945 29.0094 97.0619C29.5336 96.8715 29.9847 96.5209 30.2985 96.0598C30.6124 95.5987 30.7731 95.0505 30.7579 94.4929V92.011H25.5713V94.603Z" fill="#FFDA8F" stroke="#45413C" stroke-width="1.6" stroke-linecap="round" stroke-linejoin="round"/>
<path d="M65.6483 50.155C65.656 49.8097 65.5946 49.4664 65.4678 49.1451C65.3409 48.8238 65.1512 48.5311 64.9097 48.2842C64.6682 48.0372 64.3798 47.841 64.0614 47.7071C63.743 47.5731 63.4011 47.5042 63.0557 47.5042C62.7103 47.5042 62.3684 47.5731 62.05 47.7071C61.7316 47.841 61.4432 48.0372 61.2017 48.2842C60.9602 48.5311 60.7704 48.8238 60.6436 49.1451C60.5168 49.4664 60.4554 49.8097 60.463 50.155V52.7483H65.6483V50.155Z" fill="#FFDA8F" stroke="#45413C" stroke-width="1.6" stroke-linecap="round" stroke-linejoin="round"/>
<path d="M40.459 67.563L43.339 70.443C43.511 70.6153 43.7228 70.7425 43.9557 70.8134C44.1886 70.8843 44.4354 70.8967 44.6742 70.8495C44.913 70.8023 45.1365 70.6969 45.3249 70.5427C45.5133 70.3886 45.6608 70.1903 45.7543 69.9656L48.6087 63.1176H45.6443L40.459 67.563Z" fill="#C8FFA1" stroke="#45413C" stroke-width="1.6" stroke-linecap="round" stroke-linejoin="round"/>
<path d="M40.4591 67.563L37.7071 79.9457C37.5696 80.565 37.6347 81.212 37.8927 81.7915L39.782 86.0436C39.8402 86.1746 39.9352 86.2858 40.0554 86.3639C40.1755 86.4419 40.3158 86.4835 40.4591 86.4835C40.6024 86.4835 40.7426 86.4419 40.8628 86.3639C40.983 86.2858 41.0779 86.1746 41.1362 86.0436L43.0255 81.7915C43.283 81.2118 43.3477 80.5648 43.2098 79.9457L40.4591 67.563Z" fill="white" stroke="#45413C" stroke-width="1.6" stroke-linecap="round" stroke-linejoin="round"/>
<path d="M44.8879 63.115C44.5484 63.115 44.2228 62.9801 43.9828 62.7401C43.7427 62.5 43.6079 62.1745 43.6079 61.835V57.5342H37.2245V62.4609C37.2242 62.7417 37.1316 63.0146 36.9609 63.2376C36.7902 63.4606 36.5509 63.6213 36.2799 63.6948C36.0879 63.7473 35.8959 63.8023 35.709 63.8638L40.4591 67.563L45.6456 63.1175L44.8879 63.115Z" fill="#FFDA8F" stroke="#45413C" stroke-width="1.6" stroke-linecap="round" stroke-linejoin="round"/>
<path d="M40.4591 67.5631L37.7928 70.7631C37.6611 70.9213 37.4977 71.0504 37.3132 71.1419C37.1288 71.2335 36.9272 71.2856 36.7215 71.2949C36.5157 71.3041 36.3103 71.2704 36.1184 71.1958C35.9264 71.1212 35.7521 71.0074 35.6066 70.8616L31.0498 66.3048C32.4487 65.2249 34.0236 64.3947 35.7052 63.8511L37.9567 65.6136L40.4591 67.5631Z" fill="#C8FFA1" stroke="#45413C" stroke-width="1.6" stroke-linecap="round" stroke-linejoin="round"/>
<path opacity="0.15" d="M21.1963 118.681C21.1963 118.973 21.6945 119.262 22.6626 119.531C23.6306 119.801 25.0495 120.046 26.8382 120.252C28.6269 120.459 30.7504 120.622 33.0875 120.734C35.4245 120.846 37.9294 120.903 40.459 120.903C42.9886 120.903 45.4935 120.846 47.8305 120.734C50.1676 120.622 52.2911 120.459 54.0798 120.252C55.8685 120.046 57.2874 119.801 58.2554 119.531C59.2235 119.262 59.7217 118.973 59.7217 118.681C59.7217 118.389 59.2235 118.1 58.2554 117.831C57.2874 117.561 55.8685 117.316 54.0798 117.11C52.2911 116.903 50.1676 116.74 47.8305 116.628C45.4935 116.516 42.9886 116.459 40.459 116.459C37.9294 116.459 35.4245 116.516 33.0875 116.628C30.7504 116.74 28.6269 116.903 26.8382 117.11C25.0495 117.316 23.6306 117.561 22.6626 117.831C21.6945 118.1 21.1963 118.389 21.1963 118.681Z" fill="#45413C"/>
<path d="M30.487 117.94C30.233 117.942 29.9827 117.879 29.7603 117.756C29.5379 117.634 29.3509 117.456 29.2173 117.24C29.0837 117.024 29.0081 116.777 28.9978 116.523C28.9875 116.269 29.0428 116.017 29.1583 115.791C29.5427 115.095 30.1065 114.515 30.7911 114.111C31.4757 113.707 32.256 113.494 33.0508 113.495H33.7855C34.5803 113.494 35.3607 113.707 36.0452 114.111C36.7298 114.515 37.2936 115.095 37.678 115.791C37.7936 116.017 37.8489 116.269 37.8385 116.523C37.8282 116.777 37.7526 117.024 37.619 117.24C37.4855 117.456 37.2985 117.634 37.076 117.756C36.8536 117.879 36.6034 117.942 36.3494 117.94H30.487Z" fill="#656769" stroke="#45413C" stroke-width="1.6" stroke-linecap="round" stroke-linejoin="round"/>
<path d="M44.5639 117.94C44.3098 117.942 44.0594 117.879 43.8368 117.757C43.6142 117.634 43.427 117.456 43.2933 117.24C43.1596 117.024 43.0839 116.777 43.0735 116.523C43.0631 116.269 43.1184 116.017 43.234 115.791C43.6184 115.095 44.1822 114.515 44.8668 114.111C45.5514 113.707 46.3317 113.494 47.1265 113.495H47.8651C48.6599 113.494 49.4402 113.707 50.1248 114.111C50.8093 114.515 51.3732 115.095 51.7575 115.791C51.8733 116.017 51.9285 116.27 51.918 116.524C51.9075 116.778 51.8316 117.025 51.6976 117.241C51.5636 117.457 51.376 117.635 51.1531 117.758C50.9301 117.88 50.6794 117.943 50.4251 117.94H44.5639Z" fill="#656769" stroke="#45413C" stroke-width="1.6" stroke-linecap="round" stroke-linejoin="round"/>
<path d="M50.7224 44.7048C49.4974 42.0833 46.8171 40.0251 45.3144 40.7368C44.3045 38.8769 42.6725 38.2804 40.4594 38.1371C34.597 38.3931 31.9422 40.9748 30.1963 44.7112C28.9688 47.3326 29.3285 50.0872 30.9963 50.8692C31.6594 51.1803 32.892 51.9112 33.7611 52.4411C34.4146 52.8403 35.1614 53.061 35.9269 53.0811C38.9093 53.163 39.7003 53.2091 40.4594 53.2091C41.2184 53.2091 42.0082 53.1668 44.9918 53.0811C45.7573 53.0608 46.5041 52.8402 47.1576 52.4411C48.0254 51.9112 49.2581 51.1803 49.9224 50.8692C51.5902 50.0833 51.9486 47.3262 50.7224 44.7048Z" fill="#614B44"/>
<path d="M30.2011 47.4798C31.9471 43.7435 34.6018 41.1617 40.4642 40.9057C42.6773 41.0491 44.3042 41.6468 45.3192 43.5067C46.8219 42.8001 49.5022 44.8584 50.7272 47.4747C50.971 47.9932 51.1581 48.5365 51.2853 49.0952C51.6151 47.6096 51.4178 46.0556 50.7272 44.6996C49.5022 42.0782 46.8219 40.02 45.3192 40.7316C44.3093 38.8718 42.6773 38.2753 40.4642 38.132C34.6018 38.388 31.9471 40.9697 30.2011 44.706C29.5108 46.0621 29.3131 47.6158 29.6418 49.1016C29.7699 48.5426 29.9574 47.9989 30.2011 47.4798Z" fill="#947063"/>
<path d="M50.7224 44.7048C49.4974 42.0833 46.8171 40.0251 45.3144 40.7368C44.3045 38.8769 42.6725 38.2804 40.4594 38.1371C34.597 38.3931 31.9422 40.9748 30.1963 44.7112C28.9688 47.3326 29.3285 50.0872 30.9963 50.8692C31.6594 51.1803 32.892 51.9112 33.7611 52.4411C34.4146 52.8403 35.1614 53.061 35.9269 53.0811C38.9093 53.163 39.7003 53.2091 40.4594 53.2091C41.2184 53.2091 42.0082 53.1668 44.9918 53.0811C45.7573 53.0608 46.5041 52.8402 47.1576 52.4411C48.0254 51.9112 49.2581 51.1803 49.9224 50.8692C51.5902 50.0833 51.9486 47.3262 50.7224 44.7048Z" stroke="#45413C" stroke-width="1.6" stroke-linecap="round" stroke-linejoin="round"/>
<path d="M31.6656 51.284V51.275L32.4105 51.6449C32.5135 51.6961 32.6264 51.724 32.7414 51.7267C32.8563 51.7293 32.9704 51.7066 33.0756 51.6602C33.1808 51.6138 33.2745 51.5447 33.35 51.458C33.4255 51.3714 33.4811 51.2691 33.5126 51.1585L34.6211 47.2801C34.7491 46.8209 35.0479 46.428 35.4564 46.1822C35.8648 45.9363 36.3518 45.856 36.8176 45.9579C38.0129 46.2331 39.2329 46.3874 40.4592 46.4187C41.6854 46.3874 42.9054 46.233 44.1008 45.9579C44.5665 45.8564 45.0534 45.9367 45.4617 46.1826C45.8701 46.4284 46.169 46.8211 46.2973 47.2801L47.4045 51.1585C47.436 51.2691 47.4915 51.3714 47.567 51.458C47.6426 51.5447 47.7362 51.6138 47.8414 51.6602C47.9466 51.7066 48.0607 51.7293 48.1757 51.7267C48.2906 51.724 48.4036 51.6961 48.5065 51.6449L49.2528 51.275V51.284C49.6843 51.3591 50.0734 51.5897 50.3465 51.9323C50.6196 52.2748 50.7577 52.7054 50.7349 53.1429C50.712 53.5803 50.5297 53.9943 50.2225 54.3064C49.9152 54.6186 49.5042 54.8075 49.0672 54.8373C48.6549 56.8154 47.5739 58.5913 46.0061 59.8661C44.4383 61.1408 42.4792 61.8368 40.4585 61.8368C38.4378 61.8368 36.4788 61.1408 34.911 59.8661C33.3431 58.5913 32.2622 56.8154 31.8499 54.8373C31.4129 54.8072 31.0021 54.6182 30.695 54.3059C30.3879 53.9937 30.2058 53.5797 30.1831 53.1423C30.1604 52.7049 30.2987 52.2743 30.5718 51.9319C30.845 51.5895 31.2341 51.359 31.6656 51.284Z" fill="#FFDA8F" stroke="#45413C" stroke-width="1.6" stroke-linecap="round" stroke-linejoin="round"/>
<path d="M44.1226 54.1409C44.1226 54.2853 44.151 54.4283 44.2063 54.5617C44.2615 54.6951 44.3425 54.8163 44.4446 54.9184C44.5467 55.0205 44.6679 55.1015 44.8013 55.1567C44.9347 55.212 45.0777 55.2404 45.2221 55.2404C45.3665 55.2404 45.5094 55.212 45.6428 55.1567C45.7762 55.1015 45.8975 55.0205 45.9996 54.9184C46.1017 54.8163 46.1826 54.6951 46.2379 54.5617C46.2932 54.4283 46.3216 54.2853 46.3216 54.1409C46.3216 53.9965 46.2932 53.8535 46.2379 53.7201C46.1826 53.5867 46.1017 53.4655 45.9996 53.3634C45.8975 53.2613 45.7762 53.1803 45.6428 53.1251C45.5094 53.0698 45.3665 53.0414 45.2221 53.0414C45.0777 53.0414 44.9347 53.0698 44.8013 53.1251C44.6679 53.1803 44.5467 53.2613 44.4446 53.3634C44.3425 53.4655 44.2615 53.5867 44.2063 53.7201C44.151 53.8535 44.1226 53.9965 44.1226 54.1409Z" fill="#FFBE3D"/>
<path d="M34.5967 54.1409C34.5967 54.4325 34.7125 54.7122 34.9187 54.9184C35.1249 55.1246 35.4046 55.2404 35.6962 55.2404C35.9878 55.2404 36.2675 55.1246 36.4737 54.9184C36.6799 54.7122 36.7957 54.4325 36.7957 54.1409C36.7957 53.8493 36.6799 53.5696 36.4737 53.3634C36.2675 53.1572 35.9878 53.0414 35.6962 53.0414C35.4046 53.0414 35.1249 53.1572 34.9187 53.3634C34.7125 53.5696 34.5967 53.8493 34.5967 54.1409Z" fill="#FFBE3D"/>
<path d="M36.4961 51.5758C36.7301 51.3421 37.0473 51.2108 37.378 51.2108C37.7087 51.2108 38.0259 51.3421 38.2599 51.5758" stroke="#45413C" stroke-width="1.6" stroke-linecap="round" stroke-linejoin="round"/>
<path d="M44.4206 51.5758C44.1866 51.3421 43.8694 51.2108 43.5387 51.2108C43.2079 51.2108 42.8907 51.3421 42.6567 51.5758" stroke="#45413C" stroke-width="1.6" stroke-linecap="round" stroke-linejoin="round"/>
<path d="M38.2651 56.7061C38.8996 57.1812 39.6709 57.4381 40.4635 57.4381C41.2562 57.4381 42.0275 57.1812 42.6619 56.7061" stroke="#45413C" stroke-width="1.6" stroke-linecap="round" stroke-linejoin="round"/>
<path d="M94.4164 69.1809L93.8801 54.6862C93.7707 54.7172 93.659 54.7391 93.546 54.7514C93.1281 56.7506 92.0347 58.545 90.4496 59.833C88.8645 61.1209 86.8844 61.824 84.842 61.824C82.7996 61.824 80.8195 61.1209 79.2344 59.833C77.6493 58.545 76.5559 56.7506 76.138 54.7514C76.0254 54.7389 75.9141 54.7171 75.8052 54.6862L75.2676 69.1809C75.2604 69.3799 75.2933 69.5783 75.3645 69.7643C75.4356 69.9503 75.5436 70.1201 75.6818 70.2634C75.82 70.4068 75.9857 70.5208 76.169 70.5988C76.3523 70.6767 76.5494 70.7168 76.7485 70.7169H92.9367C93.1358 70.7168 93.3328 70.6767 93.5161 70.5987C93.6993 70.5208 93.8649 70.4068 94.003 70.2634C94.1411 70.12 94.2489 69.9502 94.32 69.7642C94.391 69.5782 94.4238 69.3798 94.4164 69.1809Z" fill="#724F3D" stroke="#45413C" stroke-width="1.6" stroke-linecap="round" stroke-linejoin="round"/>
<path d="M78.9155 105.345L79.6566 117.94H90.0285L90.7696 105.345H78.9155Z" fill="#D18660"/>
<path d="M90.5085 109.79L90.7696 105.345H78.9155L79.1766 109.79H90.5085Z" fill="#BD704A"/>
<path d="M78.9155 105.345L79.6566 117.94H90.0285L90.7696 105.345H78.9155Z" stroke="#45413C" stroke-width="1.6" stroke-linecap="round" stroke-linejoin="round"/>
<path d="M84.8418 105.345V117.94" stroke="#45413C" stroke-width="1.6" stroke-linecap="round" stroke-linejoin="round"/>
<path opacity="0.15" d="M65.5791 118.681C65.5791 119.27 67.6086 119.836 71.221 120.252C74.8335 120.669 79.733 120.903 84.8418 120.903C89.9506 120.903 94.8502 120.669 98.4626 120.252C102.075 119.836 104.105 119.27 104.105 118.681C104.105 118.092 102.075 117.527 98.4626 117.11C94.8502 116.693 89.9506 116.459 84.8418 116.459C79.733 116.459 74.8335 116.693 71.221 117.11C67.6086 117.527 65.5791 118.092 65.5791 118.681Z" fill="#45413C"/>
<path d="M92.5909 117.94C92.845 117.942 93.0955 117.879 93.318 117.757C93.5406 117.634 93.7278 117.456 93.8615 117.24C93.9952 117.024 94.071 116.777 94.0813 116.523C94.0917 116.269 94.0365 116.017 93.9208 115.791C93.5365 115.095 92.9727 114.515 92.2881 114.111C91.6035 113.707 90.8232 113.494 90.0284 113.495H89.2872C88.1082 113.495 86.9775 113.963 86.1438 114.797C85.3102 115.63 84.8418 116.761 84.8418 117.94H92.5909Z" fill="#525252" stroke="#45413C" stroke-width="1.6" stroke-linecap="round" stroke-linejoin="round"/>
<path d="M84.8418 117.94C84.842 117.356 84.7271 116.778 84.5038 116.239C84.2804 115.699 83.953 115.209 83.5401 114.796C83.1273 114.383 82.6372 114.056 82.0978 113.833C81.5583 113.609 80.9802 113.494 80.3964 113.495H79.6565C78.8626 113.495 78.0833 113.709 77.3997 114.113C76.7161 114.516 76.1531 115.096 75.7692 115.791C75.6536 116.017 75.5983 116.269 75.6086 116.523C75.619 116.777 75.6946 117.024 75.8281 117.24C75.9617 117.456 76.1487 117.634 76.3711 117.756C76.5935 117.879 76.8438 117.942 77.0978 117.94H84.8418Z" fill="#525252" stroke="#45413C" stroke-width="1.6" stroke-linecap="round" stroke-linejoin="round"/>
<path d="M90.7878 105.345C91.1669 105.345 91.5315 105.199 91.8067 104.939C92.0819 104.678 92.2468 104.322 92.2674 103.943L92.9919 90.5275H76.6924L77.4181 103.943C77.4388 104.322 77.6036 104.678 77.8789 104.939C78.1541 105.199 78.5187 105.345 78.8978 105.345H90.7878Z" fill="#9CEB60"/>
<path d="M92.7935 94.2318L92.9932 90.5275H76.6924L76.8933 94.2318L79.6901 96.0059C79.9059 96.143 80.1534 96.2219 80.4087 96.2349C80.664 96.2479 80.9183 96.1946 81.1468 96.0801L84.1804 94.5633C84.386 94.4604 84.6128 94.4068 84.8428 94.4068C85.0728 94.4068 85.2995 94.4604 85.5052 94.5633L88.5388 96.0801C88.7673 96.1946 89.0216 96.2479 89.2769 96.2349C89.5322 96.2219 89.7797 96.143 89.9954 96.0059L92.7935 94.2318Z" fill="#6DD627"/>
<path d="M90.7878 105.345C91.1669 105.345 91.5315 105.199 91.8067 104.939C92.0819 104.678 92.2468 104.322 92.2674 103.943L92.9919 90.5275H76.6924L77.4181 103.943C77.4388 104.322 77.6036 104.678 77.8789 104.939C78.1541 105.199 78.5187 105.345 78.8978 105.345H90.7878Z" stroke="#45413C" stroke-width="1.6" stroke-linecap="round" stroke-linejoin="round"/>
<path d="M84.9125 63.115C86.7593 63.1106 88.5887 63.4722 90.2949 64.1792C92.0011 64.8861 93.5502 65.9242 94.8527 67.2335C96.1553 68.5428 97.1853 70.0973 97.8833 71.8071C98.5814 73.517 98.9336 75.3482 98.9195 77.195V91.275C98.9334 91.3696 98.9262 91.4662 98.8984 91.5577C98.8705 91.6492 98.8228 91.7334 98.7585 91.8043C98.6943 91.8751 98.6151 91.9309 98.5268 91.9675C98.4384 92.0041 98.3431 92.0207 98.2475 92.0161H92.9918V90.5275L90.1336 92.8148C89.8882 93.0115 89.5865 93.1248 89.2724 93.1383C88.9582 93.1519 88.6479 93.0651 88.3864 92.8904L84.8421 90.5275L81.299 92.8904C81.0373 93.065 80.7268 93.1518 80.4125 93.1382C80.0981 93.1246 79.7963 93.0114 79.5506 92.8148L76.6923 90.5275V73.1336C76.7079 72.0698 76.3358 71.0368 75.6454 70.2275C74.955 69.4181 73.9935 68.8877 72.9406 68.7355C59.8373 66.4968 61.2043 52.7432 61.2043 52.7432H67.1307C67.1307 63.8561 76.7627 63.1112 76.7627 63.1112L84.9125 63.115Z" fill="#9CEB60"/>
<path d="M76.7628 65.689H84.9125C88.4026 65.6896 91.7681 66.9864 94.3562 69.3278C96.9443 71.6692 98.5706 74.8884 98.9196 78.361V77.1873C98.9336 75.3405 98.5814 73.5092 97.8834 71.7994C97.1854 70.0895 96.1553 68.535 94.8528 67.2257C93.5503 65.9164 92.0011 64.8783 90.295 64.1714C88.5888 63.4645 86.7594 63.1028 84.9125 63.1073H76.7628C76.7628 63.1073 67.1308 63.8484 67.1308 52.7393H64.9087C64.9087 65.337 76.7628 65.689 76.7628 65.689Z" fill="#C8FFA1"/>
<path d="M84.9125 63.115C86.7593 63.1106 88.5887 63.4722 90.2949 64.1792C92.0011 64.8861 93.5502 65.9242 94.8527 67.2335C96.1553 68.5428 97.1853 70.0973 97.8833 71.8071C98.5814 73.517 98.9336 75.3482 98.9195 77.195V91.275C98.9334 91.3696 98.9262 91.4662 98.8984 91.5577C98.8705 91.6492 98.8228 91.7334 98.7585 91.8043C98.6943 91.8751 98.6151 91.9309 98.5268 91.9675C98.4384 92.0041 98.3431 92.0207 98.2475 92.0161H92.9918V90.5275L90.1336 92.8148C89.8882 93.0115 89.5865 93.1248 89.2724 93.1383C88.9582 93.1519 88.6479 93.0651 88.3864 92.8904L84.8421 90.5275L81.299 92.8904C81.0373 93.065 80.7268 93.1518 80.4125 93.1382C80.0981 93.1246 79.7963 93.0114 79.5506 92.8148L76.6923 90.5275V73.1336C76.7079 72.0698 76.3358 71.0368 75.6454 70.2275C74.955 69.4181 73.9935 68.8877 72.9406 68.7355C59.8373 66.4968 61.2043 52.7432 61.2043 52.7432H67.1307C67.1307 63.8561 76.7627 63.1112 76.7627 63.1112L84.9125 63.115Z" stroke="#45413C" stroke-width="1.6" stroke-linecap="round" stroke-linejoin="round"/>
<path d="M92.9917 74.9691V90.5275" stroke="#45413C" stroke-width="1.6" stroke-linecap="round" stroke-linejoin="round"/>
<path d="M98.1783 94.603C98.1783 95.2908 97.905 95.9504 97.4187 96.4367C96.9324 96.923 96.2728 97.1963 95.585 97.1963C94.8972 97.1963 94.2376 96.923 93.7513 96.4367C93.2649 95.9504 92.9917 95.2908 92.9917 94.603V92.011H98.1783V94.603Z" fill="#D18660" stroke="#45413C" stroke-width="1.6" stroke-linecap="round" stroke-linejoin="round"/>
<path d="M84.8418 69.7825V90.5274" stroke="#45413C" stroke-width="1.6" stroke-linecap="round" stroke-linejoin="round"/>
<path d="M88.5054 63.5809C88.2314 63.5089 87.989 63.3481 87.8162 63.1237C87.6434 62.8992 87.55 62.6238 87.5505 62.3406V57.7825H82.1233V61.8362C82.1233 62.1757 81.9884 62.5013 81.7484 62.7413C81.5083 62.9814 81.1828 63.1162 80.8433 63.1162H79.6567L84.842 69.785L89.9044 64.025C89.4464 63.8521 88.9793 63.7038 88.5054 63.5809Z" fill="#D18660" stroke="#45413C" stroke-width="1.6" stroke-linecap="round" stroke-linejoin="round"/>
<path d="M89.5035 71.0484L94.0564 66.4967C92.8259 65.4392 91.4209 64.6037 89.9041 64.0276L85.2808 69.2845L87.5067 71.1393C87.7909 71.376 88.1532 71.4979 88.5227 71.4811C88.8922 71.4642 89.242 71.3099 89.5035 71.0484Z" fill="#6DD627" stroke="#45413C" stroke-width="1.6" stroke-linecap="round" stroke-linejoin="round"/>
<path d="M76.6948 63.1189L79.699 70.3291C79.7835 70.532 79.9121 70.7136 80.0754 70.8606C80.2388 71.0077 80.4328 71.1166 80.6434 71.1795C80.854 71.2423 81.0759 71.2575 81.2931 71.224C81.5104 71.1905 81.7174 71.1092 81.8993 70.9858L84.4388 69.2642L79.6567 63.1202H76.7627L76.6948 63.1189Z" fill="#6DD627" stroke="#45413C" stroke-width="1.6" stroke-linecap="round" stroke-linejoin="round"/>
<path d="M95.2153 52.9364C95.2118 52.5144 95.0623 52.1066 94.792 51.7825C94.5218 51.4583 94.1475 51.2378 93.733 51.1585V49.9719C93.705 47.6326 92.7559 45.3986 91.0918 43.7542C89.4276 42.1099 87.1823 41.1877 84.8428 41.1877C82.5033 41.1877 80.258 42.1099 78.5938 43.7542C76.9296 45.3986 75.9806 47.6326 75.9525 49.9719V51.1585C75.5205 51.2394 75.1326 51.4744 74.8607 51.8197C74.5888 52.165 74.4514 52.5972 74.4741 53.0362C74.4968 53.4751 74.6779 53.8909 74.984 54.2063C75.29 54.5218 75.7001 54.7155 76.1381 54.7515C76.5561 56.7506 77.6495 58.545 79.2345 59.833C80.8196 61.121 82.7998 61.824 84.8421 61.824C86.8845 61.824 88.8647 61.121 90.4498 59.833C92.0348 58.545 93.1282 56.7506 93.5461 54.7515C94.0001 54.7102 94.4224 54.5015 94.7309 54.166C95.0394 53.8305 95.2121 53.3922 95.2153 52.9364Z" fill="#D18660" stroke="#45413C" stroke-width="1.6" stroke-linecap="round" stroke-linejoin="round"/>
<path d="M80.3979 51.0843C80.3979 51.2302 80.4267 51.3747 80.4825 51.5095C80.5384 51.6443 80.6202 51.7668 80.7234 51.8699C80.8265 51.9731 80.949 52.0549 81.0838 52.1108C81.2186 52.1666 81.3631 52.1953 81.509 52.1953C81.6549 52.1953 81.7994 52.1666 81.9342 52.1108C82.069 52.0549 82.1915 51.9731 82.2946 51.8699C82.3978 51.7668 82.4796 51.6443 82.5355 51.5095C82.5913 51.3747 82.62 51.2302 82.62 51.0843C82.62 50.9384 82.5913 50.7939 82.5355 50.6591C82.4796 50.5243 82.3978 50.4019 82.2946 50.2987C82.1915 50.1955 82.069 50.1137 81.9342 50.0578C81.7994 50.002 81.6549 49.9733 81.509 49.9733C81.3631 49.9733 81.2186 50.002 81.0838 50.0578C80.949 50.1137 80.8265 50.1955 80.7234 50.2987C80.6202 50.4019 80.5384 50.5243 80.4825 50.6591C80.4267 50.7939 80.3979 50.9384 80.3979 51.0843Z" fill="#45413C"/>
<path d="M87.0654 51.0843C87.0654 51.379 87.1825 51.6616 87.3909 51.8699C87.5992 52.0783 87.8818 52.1953 88.1765 52.1953C88.4711 52.1953 88.7537 52.0783 88.9621 51.8699C89.1705 51.6616 89.2875 51.379 89.2875 51.0843C89.2875 50.7896 89.1705 50.507 88.9621 50.2987C88.7537 50.0903 88.4711 49.9733 88.1765 49.9733C87.8818 49.9733 87.5992 50.0903 87.3909 50.2987C87.1825 50.507 87.0654 50.7896 87.0654 51.0843Z" fill="#45413C"/>
<path d="M78.9155 54.0474C78.9155 54.3421 79.0326 54.6247 79.2409 54.8331C79.4493 55.0414 79.7319 55.1585 80.0266 55.1585C80.3212 55.1585 80.6038 55.0414 80.8122 54.8331C81.0206 54.6247 81.1376 54.3421 81.1376 54.0474C81.1376 53.7528 81.0206 53.4702 80.8122 53.2618C80.6038 53.0535 80.3212 52.9364 80.0266 52.9364C79.7319 52.9364 79.4493 53.0535 79.2409 53.2618C79.0326 53.4702 78.9155 53.7528 78.9155 54.0474Z" fill="#BD704A"/>
<path d="M88.5474 54.0474C88.5474 54.3421 88.6644 54.6247 88.8728 54.8331C89.0811 55.0414 89.3637 55.1585 89.6584 55.1585C89.9531 55.1585 90.2357 55.0414 90.444 54.8331C90.6524 54.6247 90.7694 54.3421 90.7694 54.0474C90.7694 53.7528 90.6524 53.4702 90.444 53.2618C90.2357 53.0535 89.9531 52.9364 89.6584 52.9364C89.3637 52.9364 89.0811 53.0535 88.8728 53.2618C88.6644 53.4702 88.5474 53.7528 88.5474 54.0474Z" fill="#BD704A"/>
<path d="M82.6196 56.7086C83.2779 57.1474 84.0513 57.3815 84.8424 57.3815C85.6334 57.3815 86.4068 57.1474 87.0651 56.7086" stroke="#45413C" stroke-width="1.6" stroke-linecap="round" stroke-linejoin="round"/>
<path d="M89.1758 39.6014C88.9058 39.6128 88.6448 39.7017 88.424 39.8574C88.2031 40.0131 88.0318 40.229 87.9303 40.4795C88.2978 41.0077 88.5089 41.6287 88.5396 42.2715C88.5968 43.3774 88.3427 44.4771 87.8062 45.4459C87.8062 46.5211 91.0497 49.8657 92.9121 51.2571C93.0166 51.3341 93.1397 51.3819 93.2689 51.3957C93.398 51.4094 93.5284 51.3886 93.6468 51.3353C93.7652 51.2821 93.8674 51.1982 93.9427 51.0925C94.018 50.9867 94.0639 50.8629 94.0756 50.7335L94.594 45.4958C94.6734 44.7426 94.5915 43.9812 94.3539 43.2621C94.1162 42.543 93.7283 41.8828 93.2158 41.3252C92.7032 40.7677 92.0779 40.3256 91.3813 40.0284C90.6848 39.7311 89.9329 39.5856 89.1758 39.6014Z" fill="#724F3D"/>
<path d="M89.1761 39.6014C88.9061 39.6128 88.6452 39.7017 88.4243 39.8574C88.2035 40.0131 88.0321 40.229 87.9307 40.4795C88.2983 41.0076 88.5095 41.6287 88.5399 42.2715C88.5476 42.4391 88.5476 42.603 88.5399 42.7655C88.7657 42.6339 89.0223 42.5645 89.2836 42.5646C90.4908 42.5672 91.661 42.9807 92.6019 43.7371C93.5427 44.4934 94.198 45.5475 94.4599 46.7259L94.5879 45.4958C94.6672 44.7432 94.5855 43.9823 94.3483 43.2637C94.111 42.545 93.7236 41.8851 93.2118 41.3277C92.7 40.7702 92.0755 40.328 91.3797 40.0304C90.6839 39.7327 89.9327 39.5865 89.1761 39.6014Z" fill="#A86C4D"/>
<path d="M89.1758 39.6014C88.9058 39.6128 88.6448 39.7017 88.424 39.8574C88.2031 40.0131 88.0318 40.229 87.9303 40.4795C88.2978 41.0077 88.5089 41.6287 88.5396 42.2715C88.5968 43.3774 88.3427 44.4771 87.8062 45.4459C87.8062 46.5211 91.0497 49.8657 92.9121 51.2571C93.0166 51.3341 93.1397 51.3819 93.2689 51.3957C93.398 51.4094 93.5284 51.3886 93.6468 51.3353C93.7652 51.282 93.8674 51.1982 93.9427 51.0925C94.018 50.9867 94.0639 50.8629 94.0756 50.7335L94.594 45.4958C94.6734 44.7426 94.5915 43.9812 94.3539 43.2621C94.1162 42.543 93.7283 41.8828 93.2158 41.3252C92.7032 40.7677 92.0779 40.3256 91.3813 40.0284C90.6848 39.7311 89.9329 39.5856 89.1758 39.6014V39.6014Z" stroke="#45413C" stroke-width="1.6" stroke-linecap="round" stroke-linejoin="round"/>
<path d="M84.8408 38.859C85.775 38.8525 86.6768 39.2012 87.3636 39.8346C88.0504 40.4679 88.4709 41.3385 88.54 42.2702C88.8907 49.9131 75.5006 52.2337 73.9992 49.2321C73.34 47.9124 73.8853 45.9118 75.6785 46.1409C75.743 46.1464 75.8079 46.1376 75.8686 46.115C75.9292 46.0923 75.9841 46.0565 76.0292 46.0101C76.0743 45.9637 76.1084 45.9078 76.1293 45.8465C76.1501 45.7852 76.157 45.7201 76.1496 45.6558C75.8731 41.5534 79.8974 38.8603 84.8408 38.859Z" fill="#724F3D"/>
<path d="M84.4734 40.9044C85.4076 40.898 86.3094 41.2467 86.9962 41.88C87.683 42.5133 88.1035 43.3839 88.1726 44.3156C88.1726 44.4244 88.179 44.5319 88.1726 44.6382C88.4544 43.882 88.5786 43.0761 88.5374 42.2702C88.4683 41.3385 88.0478 40.4679 87.361 39.8346C86.6742 39.2012 85.7724 38.8525 84.8382 38.859C80.0267 38.859 76.0869 41.41 76.1342 45.3294C77.2222 42.5915 80.5592 40.9044 84.4734 40.9044Z" fill="#A86C4D"/>
<path d="M84.8408 38.859C85.775 38.8525 86.6768 39.2012 87.3636 39.8346C88.0504 40.4679 88.4709 41.3385 88.54 42.2702C88.8907 49.9131 75.5006 52.2337 73.9992 49.2321C73.34 47.9124 73.8853 45.9118 75.6785 46.1409C75.743 46.1464 75.8079 46.1376 75.8686 46.115C75.9292 46.0923 75.9841 46.0565 76.0292 46.0101C76.0743 45.9637 76.1084 45.9078 76.1293 45.8465C76.1501 45.7852 76.157 45.7201 76.1496 45.6558C75.8731 41.5534 79.8974 38.8603 84.8408 38.859Z" stroke="#45413C" stroke-width="1.6" stroke-linecap="round" stroke-linejoin="round"/>
<path d="M68.3929 63.0075C68.4597 63.194 68.4884 63.3919 68.4774 63.5897C68.4665 63.7874 68.416 63.981 68.3289 64.1589C68.2419 64.3368 68.12 64.4955 67.9706 64.6255C67.8213 64.7556 67.6473 64.8543 67.4591 64.916C67.2709 64.9777 67.0722 65.001 66.8748 64.9846C66.6774 64.9683 66.4853 64.9125 66.3099 64.8206C66.1344 64.7287 65.9792 64.6026 65.8533 64.4497C65.7273 64.2968 65.6334 64.1202 65.5769 63.9304L48.9561 13.2424L51.7721 12.3182L68.3929 63.0075Z" fill="#ADC4D9" stroke="#45413C" stroke-width="1.6" stroke-linecap="round" stroke-linejoin="round"/>
<path d="M70.4226 31.1534C70.3013 30.7834 70.1082 30.4409 69.8545 30.1456C69.6008 29.8502 69.2914 29.6078 68.9439 29.4321C68.5964 29.2564 68.2178 29.1509 67.8295 29.1216C67.4412 29.0924 67.051 29.1399 66.6811 29.2615L55.4171 32.9543L48.9531 13.2423L60.2171 9.54826C60.5869 9.42687 60.977 9.37955 61.3651 9.40901C61.7532 9.43847 62.1317 9.54412 62.4789 9.71994C62.8261 9.89576 63.1353 10.1383 63.3888 10.4337C63.6422 10.729 63.835 11.0715 63.956 11.4414L70.4226 31.1534Z" fill="#FF6242"/>
<path d="M63.9585 11.4427C64.0798 11.8133 64.273 12.1563 64.527 12.4521C64.7811 12.7478 65.091 12.9905 65.4391 13.1663C65.7872 13.342 66.1665 13.4474 66.5553 13.4762C66.9441 13.5051 67.3349 13.457 67.7051 13.3346L77.5611 10.1026C77.746 10.042 77.941 10.0184 78.135 10.0332C78.329 10.0481 78.5182 10.101 78.6917 10.1889C78.8653 10.2769 79.0198 10.3982 79.1465 10.5459C79.2731 10.6936 79.3694 10.8648 79.4299 11.0498L84.971 27.9458C85.0934 28.3192 85.0626 28.7259 84.8852 29.0766C84.7078 29.4273 84.3984 29.6932 84.0251 29.8158L74.1691 33.0478C73.422 33.2927 72.6084 33.2308 71.907 32.8758C71.2056 32.5208 70.6739 31.9017 70.4289 31.1547L63.9585 11.4427Z" fill="#FF6242"/>
<path d="M60.2201 9.54961L48.9561 13.2437L50.1081 16.7624L61.3721 13.0696C62.1187 12.8251 62.932 12.887 63.633 13.2417C64.3341 13.5965 64.8657 14.215 65.1109 14.9614L63.9589 11.4427C63.8379 11.0728 63.6452 10.7304 63.3917 10.435C63.1383 10.1396 62.8291 9.8971 62.4818 9.72128C62.1346 9.54547 61.7561 9.43981 61.368 9.41035C60.9799 9.38089 60.5898 9.42821 60.2201 9.54961Z" fill="#FF866E"/>
<path d="M77.5615 10.1026L67.7055 13.3346C66.9586 13.5795 66.1451 13.5177 65.4437 13.163C64.7424 12.8082 64.2106 12.1894 63.9653 11.4427L65.1173 14.9614C65.2385 15.3314 65.4314 15.6739 65.6849 15.9692C65.9385 16.2646 66.2478 16.5072 66.5952 16.683C66.9425 16.8588 67.3211 16.9644 67.7092 16.9939C68.0974 17.0233 68.4876 16.976 68.8575 16.8546L78.7135 13.6226C78.8984 13.562 79.0934 13.5384 79.2874 13.5532C79.4814 13.5681 79.6706 13.621 79.8442 13.7089C80.0177 13.7969 80.1722 13.9182 80.2989 14.0659C80.4255 14.2136 80.5218 14.3848 80.5823 14.5698L79.4303 11.0498C79.3698 10.8648 79.2735 10.6936 79.1469 10.5459C79.0202 10.3982 78.8657 10.2769 78.6922 10.1889C78.5186 10.101 78.3294 10.0481 78.1354 10.0332C77.9414 10.0184 77.7464 10.042 77.5615 10.1026Z" fill="#FF866E"/>
<path d="M70.4226 31.1534C70.3013 30.7834 70.1082 30.4409 69.8545 30.1456C69.6008 29.8502 69.2914 29.6078 68.9439 29.4321C68.5964 29.2564 68.2178 29.1509 67.8295 29.1216C67.4412 29.0924 67.051 29.1399 66.6811 29.2615L55.4171 32.9543L48.9531 13.2423L60.2171 9.54826C60.5869 9.42687 60.977 9.37955 61.3651 9.40901C61.7532 9.43847 62.1317 9.54412 62.4789 9.71994C62.8261 9.89576 63.1353 10.1383 63.3888 10.4337C63.6422 10.729 63.835 11.0715 63.956 11.4414L70.4226 31.1534Z" stroke="#45413C" stroke-width="1.6" stroke-linecap="round" stroke-linejoin="round"/>
<path d="M63.9585 11.4427C64.0798 11.8133 64.273 12.1563 64.527 12.4521C64.7811 12.7478 65.091 12.9905 65.4391 13.1663C65.7872 13.342 66.1665 13.4474 66.5553 13.4762C66.9441 13.5051 67.3349 13.457 67.7051 13.3346L77.5611 10.1026C77.746 10.042 77.941 10.0184 78.135 10.0332C78.329 10.0481 78.5182 10.101 78.6917 10.1889C78.8653 10.2769 79.0198 10.3982 79.1465 10.5459C79.2731 10.6936 79.3694 10.8648 79.4299 11.0498L84.971 27.9458C85.0934 28.3192 85.0626 28.7259 84.8852 29.0766C84.7078 29.4273 84.3984 29.6932 84.0251 29.8158L74.1691 33.0478C73.422 33.2927 72.6084 33.2308 71.907 32.8758C71.2056 32.5208 70.6739 31.9017 70.4289 31.1547L63.9585 11.4427Z" stroke="#45413C" stroke-width="1.6" stroke-linecap="round" stroke-linejoin="round"/>
<path d="M52.2571 9.0414C52.4393 9.59832 52.4522 10.1967 52.2943 10.761C52.1364 11.3253 51.8148 11.8301 51.3701 12.2116C50.9253 12.5931 50.3775 12.8342 49.7958 12.9044C49.214 12.9746 48.6245 12.8707 48.1018 12.606C47.5791 12.3412 47.1466 11.9274 46.859 11.4169C46.5714 10.9064 46.4416 10.3221 46.4861 9.73783C46.5305 9.15357 46.7472 8.5956 47.1086 8.13445C47.4701 7.6733 47.9602 7.32967 48.517 7.147C49.2642 6.90257 50.0778 6.9648 50.7792 7.32002C51.4805 7.67525 52.0121 8.2944 52.2571 9.0414Z" fill="#ADC4D9"/>
<path d="M46.6749 11.0306C46.89 10.4717 47.2694 9.99111 47.7631 9.65215C48.2568 9.31318 48.8416 9.13174 49.4404 9.13174C50.0392 9.13174 50.624 9.31318 51.1177 9.65215C51.6113 9.99111 51.9907 10.4717 52.2058 11.0306C52.3765 10.5876 52.4382 10.1102 52.3859 9.63842C52.3335 9.16664 52.1686 8.71435 51.905 8.31962C51.6413 7.92488 51.2868 7.59925 50.871 7.37013C50.4553 7.14101 49.9907 7.01512 49.5162 7.00304C49.0416 6.99095 48.5712 7.09305 48.1443 7.30071C47.7175 7.50838 47.3468 7.81555 47.0635 8.19636C46.7801 8.57717 46.5924 9.02048 46.5161 9.48898C46.4398 9.95747 46.4771 10.4374 46.625 10.8885C46.6404 10.9371 46.657 10.9845 46.6749 11.0306Z" fill="#C0DCEB"/>
<path d="M52.2571 9.0414C52.4393 9.59832 52.4522 10.1967 52.2943 10.761C52.1364 11.3253 51.8148 11.8301 51.3701 12.2116C50.9253 12.5931 50.3775 12.8342 49.7958 12.9044C49.214 12.9746 48.6245 12.8707 48.1018 12.606C47.5791 12.3412 47.1466 11.9274 46.859 11.4169C46.5714 10.9064 46.4416 10.3221 46.4861 9.73783C46.5305 9.15357 46.7472 8.5956 47.1086 8.13445C47.4701 7.6733 47.9602 7.32967 48.517 7.147C49.2642 6.90257 50.0778 6.9648 50.7792 7.32002C51.4805 7.67525 52.0121 8.2944 52.2571 9.0414V9.0414Z" stroke="#45413C" stroke-width="1.6" stroke-linecap="round" stroke-linejoin="round"/>
<path d="M61.9455 46.9396C61.4909 47.109 61.0777 47.3737 60.7336 47.7157C60.3896 48.0578 60.1226 48.4694 59.9505 48.923C59.7784 49.3766 59.7052 49.8618 59.7358 50.346C59.7664 50.8302 59.9001 51.3023 60.1279 51.7306C60.5594 52.4709 61.2431 53.0311 62.0538 53.3085C62.8646 53.5858 63.7481 53.5619 64.5426 53.241L65.3682 52.9326C65.9245 52.7248 66.3773 52.3073 66.6295 51.7697C66.8817 51.232 66.9132 50.617 66.7173 50.0564L65.9685 47.9137C65.8691 47.6275 65.7133 47.3641 65.5104 47.139C65.3076 46.914 65.0617 46.7318 64.7874 46.6032C64.513 46.4746 64.2157 46.4022 63.913 46.3903C63.6102 46.3784 63.3081 46.4272 63.0245 46.5338L61.9455 46.9396Z" fill="#FFDA8F" stroke="#45413C" stroke-width="1.6" stroke-linecap="round" stroke-linejoin="round"/>
<path d="M64.1214 49.9323C64.6031 49.9894 65.067 50.1488 65.4821 50.3997C65.8972 50.6506 66.2539 50.9873 66.5284 51.3872C66.8029 51.7871 66.9888 52.241 67.0736 52.7185C67.1585 53.1961 67.1404 53.6863 67.0206 54.1563C66.7766 54.976 66.2462 55.6808 65.5261 56.1422C64.806 56.6037 63.9441 56.791 63.0974 56.6702L62.2219 56.5652C61.6323 56.4947 61.0938 56.1962 60.7218 55.7334C60.3497 55.2707 60.1737 54.6806 60.2315 54.0897L60.4516 51.8305C60.4809 51.5295 60.5699 51.2374 60.7136 50.9713C60.8572 50.7052 61.0526 50.4705 61.2882 50.2809C61.5238 50.0913 61.7949 49.9507 62.0856 49.8673C62.3762 49.7839 62.6806 49.7595 62.9809 49.7953L64.1214 49.9323Z" fill="#D18660" stroke="#45413C" stroke-width="1.6" stroke-linecap="round" stroke-linejoin="round"/>
<path d="M98.3177 21.259C97.4897 22.5643 96.3533 23.6458 95.0086 24.4081C93.6639 25.1704 92.1522 25.5901 90.607 25.6302L87.8755 20.811C89.4206 20.7713 90.9322 20.3517 92.2767 19.5893C93.6213 18.827 94.7575 17.7453 95.5849 16.4398L98.3177 21.259Z" fill="#00F5BC" stroke="#45413C" stroke-width="1.6" stroke-linecap="round" stroke-linejoin="round"/>
<path d="M67.046 82.3151C67.6016 83.7582 67.7933 85.316 67.6039 86.8508C67.4146 88.3856 66.8502 89.8502 65.9605 91.1151L60.4565 90.438C61.3459 89.174 61.9107 87.7106 62.1011 86.1769C62.2915 84.6432 62.1017 83.0861 61.5484 81.6431L67.046 82.3151Z" fill="#FF6242" stroke="#45413C" stroke-width="1.6" stroke-linecap="round" stroke-linejoin="round"/>
<path d="M34.5237 29.9733C33.5261 28.7926 32.8344 27.3845 32.5096 25.8732C32.1848 24.362 32.2369 22.794 32.6613 21.3077L38.077 20.1442C37.6526 21.6305 37.6005 23.1985 37.9253 24.7097C38.2501 26.221 38.9418 27.629 39.9394 28.8098L34.5237 29.9733Z" fill="#FF6196" stroke="#45413C" stroke-width="1.6" stroke-linecap="round" stroke-linejoin="round"/>
<path d="M115.057 102.379C114.06 101.198 113.368 99.7902 113.043 98.2789C112.719 96.7676 112.771 95.1997 113.196 93.7134L118.612 92.5499C118.187 94.0362 118.135 95.6043 118.459 97.1156C118.784 98.627 119.476 100.035 120.474 101.216L115.057 102.379Z" fill="#FF6196" stroke="#45413C" stroke-width="1.6" stroke-linecap="round" stroke-linejoin="round"/>
<path d="M11.4314 86.8231C12.8319 87.4775 14.0498 88.4666 14.9775 89.7031C15.9053 90.9395 16.5144 92.3854 16.751 93.913L12.3197 97.241C12.0829 95.7135 11.4738 94.2676 10.546 93.0312C9.61828 91.7947 8.40045 90.8056 7 90.1511L11.4314 86.8231Z" fill="#BF8DF2" stroke="#45413C" stroke-width="1.6" stroke-linecap="round" stroke-linejoin="round"/>
<path d="M111.715 74.228C110.315 74.8827 109.098 75.8718 108.17 77.1083C107.243 78.3448 106.634 79.7905 106.397 81.318L110.828 84.646C111.064 83.1169 111.672 81.6694 112.6 80.4313C113.527 79.1932 114.745 78.2026 116.147 77.5471L111.715 74.228Z" fill="#BF8DF2" stroke="#45413C" stroke-width="1.6" stroke-linecap="round" stroke-linejoin="round"/>
<path d="M20.9061 44.9224C19.6161 45.7738 18.1363 46.2946 16.5973 46.4389C15.0584 46.5831 13.5076 46.3462 12.0818 45.7493L11.5698 40.2337C12.9956 40.8307 14.5464 41.0675 16.0853 40.9233C17.6243 40.7791 19.1041 40.2583 20.3941 39.4069L20.9061 44.9224Z" fill="#FF8A14" stroke="#45413C" stroke-width="1.6" stroke-linecap="round" stroke-linejoin="round"/>
<path d="M118.702 60.4807C117.411 61.3322 115.932 61.853 114.393 61.9972C112.854 62.1414 111.303 61.9046 109.877 61.3076L109.365 55.7921C110.791 56.3891 112.342 56.6259 113.881 56.4817C115.421 56.3375 116.901 55.8167 118.191 54.9652L118.702 60.4807Z" fill="#FF8A14" stroke="#45413C" stroke-width="1.6" stroke-linecap="round" stroke-linejoin="round"/>
<path d="M114.989 40.043C113.463 40.2934 111.9 40.1644 110.436 39.6675C108.972 39.1706 107.653 38.321 106.596 37.1937L108.376 31.9457C109.434 33.073 110.753 33.9226 112.216 34.4195C113.68 34.9164 115.244 35.0454 116.769 34.795L114.989 40.043Z" fill="#FFF48C" stroke="#45413C" stroke-width="1.6" stroke-linecap="round" stroke-linejoin="round"/>
<path d="M7.11914 68.4129C7.44993 66.903 8.14723 65.4978 9.14952 64.3212C10.1518 63.1445 11.4283 62.2327 12.8663 61.666L17.0903 65.2577C15.6521 65.8245 14.3756 66.7365 13.3733 67.9134C12.371 69.0903 11.6737 70.4958 11.3431 72.0059L7.11914 68.4129Z" fill="#FFF48C" stroke="#45413C" stroke-width="1.6" stroke-linecap="round" stroke-linejoin="round"/>
</svg>

