<svg width="128" height="128" viewBox="0 0 128 128" fill="none" xmlns="http://www.w3.org/2000/svg">
<path d="M65.5048 115.982C93.7818 115.982 116.705 93.0591 116.705 64.7821C116.705 36.5051 93.7818 13.5821 65.5048 13.5821C37.2278 13.5821 14.3048 36.5051 14.3048 64.7821C14.3048 93.0591 37.2278 115.982 65.5048 115.982Z" fill="#C7F0FF"/>
<path d="M102.794 61.5053L94.2026 35.2934M64.0637 108.333L86.2128 99.9552L64.0637 108.333ZM14.9258 49.5642L33.6816 98.0595L14.9258 49.5642ZM63.1869 15.6506L39.1639 28.9126L63.1869 15.6506ZM14.9258 49.5642L39.1639 28.9126L14.9258 49.5642ZM83.2983 23.4586L63.1869 15.6506L83.2983 23.4586ZM94.2026 35.2934L83.2983 23.4586L94.2026 35.2934ZM109.365 40.4992L94.2026 35.2934L109.365 40.4992ZM102.794 61.5053L86.2128 99.9552L102.794 61.5053ZM110.062 89.207L86.2128 99.9552L110.062 89.207ZM39.1639 28.9126L83.2983 23.4586L39.1639 28.9126ZM38.9091 77.8726L33.6816 98.0595L38.9091 77.8726ZM14.9258 49.5642L38.9091 77.8726L14.9258 49.5642ZM64.0637 108.333L38.9091 77.8726L64.0637 108.333ZM39.4275 51.6365L64.0637 46.8019L39.4275 51.6365ZM83.2983 23.4586L68.9354 71.5584L83.2983 23.4586Z" stroke="#45413C" stroke-width="0.48" stroke-linecap="round" stroke-linejoin="round"/>
<path d="M110.062 89.207L68.9355 71.5584L110.062 89.207Z" fill="#FFE500"/>
<path d="M110.062 89.207L68.9355 71.5584" stroke="#45413C" stroke-width="0.48" stroke-linecap="round" stroke-linejoin="round"/>
<path d="M68.9347 71.5584L64.063 46.8019L83.2976 23.4586" stroke="#45413C" stroke-width="0.48" stroke-linecap="round" stroke-linejoin="round"/>
<path d="M64.063 46.8019L102.793 61.5053L64.063 46.8019ZM110.061 89.207L102.793 61.5053L110.061 89.207Z" fill="#FFE500"/>
<path d="M110.061 89.207L102.793 61.5053M64.063 46.8019L102.793 61.5053L64.063 46.8019Z" stroke="#45413C" stroke-width="0.48" stroke-linecap="round" stroke-linejoin="round"/>
<path d="M68.9034 71.3511L64.0637 108.333L33.6816 98.0595M86.2128 99.9552L68.9354 71.5584L86.2128 99.9552Z" stroke="#45413C" stroke-width="0.48" stroke-linecap="round" stroke-linejoin="round"/>
<path d="M68.9034 71.351L38.9092 77.8726L68.9034 71.351ZM109.365 40.4992L102.794 61.5053L109.365 40.4992Z" fill="#FFE500"/>
<path d="M109.365 40.4992L102.794 61.5053M68.9034 71.351L38.9092 77.8726L68.9034 71.351Z" stroke="#45413C" stroke-width="0.48" stroke-linecap="round" stroke-linejoin="round"/>
<path d="M64.0629 50.4346C66.0692 50.4346 67.6956 48.8082 67.6956 46.8019C67.6956 44.7957 66.0692 43.1693 64.0629 43.1693C62.0567 43.1693 60.4303 44.7957 60.4303 46.8019C60.4303 48.8082 62.0567 50.4346 64.0629 50.4346Z" fill="#FF6242" stroke="#45413C" stroke-width="0.48" stroke-linecap="round" stroke-linejoin="round"/>
<path d="M68.9355 71.5584L94.2028 35.2934L68.9355 71.5584Z" fill="white"/>
<path d="M68.9355 71.5584L94.2028 35.2934" stroke="#45413C" stroke-width="0.48" stroke-linecap="round" stroke-linejoin="round"/>
<path d="M39.4275 51.6365L68.9354 71.5584L39.4275 51.6365ZM39.4275 51.6365L39.1639 28.9126L39.4275 51.6365ZM39.4275 51.6365L63.1869 15.6506L39.4275 51.6365ZM39.4275 51.6365L14.9258 49.5642L39.4275 51.6365ZM39.4275 51.6365L38.9091 77.8726L39.4275 51.6365Z" fill="#FFE500"/>
<path d="M39.4275 51.6365L38.9091 77.8726M39.4275 51.6365L68.9354 71.5584L39.4275 51.6365ZM39.4275 51.6365L39.1639 28.9126L39.4275 51.6365ZM39.4275 51.6365L63.1869 15.6506L39.4275 51.6365ZM39.4275 51.6365L14.9258 49.5642L39.4275 51.6365Z" stroke="#45413C" stroke-width="0.48" stroke-linecap="round" stroke-linejoin="round"/>
<path d="M94.2028 38.9261C96.2091 38.9261 97.8355 37.2997 97.8355 35.2934C97.8355 33.2872 96.2091 31.6608 94.2028 31.6608C92.1966 31.6608 90.5702 33.2872 90.5702 35.2934C90.5702 37.2997 92.1966 38.9261 94.2028 38.9261Z" fill="#FFE500" stroke="#45413C" stroke-width="0.48" stroke-linecap="round" stroke-linejoin="round"/>
<path d="M109.365 44.1318C111.372 44.1318 112.998 42.5054 112.998 40.4992C112.998 38.4929 111.372 36.8666 109.365 36.8666C107.359 36.8666 105.733 38.4929 105.733 40.4992C105.733 42.5054 107.359 44.1318 109.365 44.1318Z" fill="#FF6242" stroke="#45413C" stroke-width="0.48" stroke-linecap="round" stroke-linejoin="round"/>
<path d="M110.062 92.8397C112.068 92.8397 113.695 91.2133 113.695 89.207C113.695 87.2008 112.068 85.5744 110.062 85.5744C108.056 85.5744 106.43 87.2008 106.43 89.207C106.43 91.2133 108.056 92.8397 110.062 92.8397Z" fill="#4ACFFF" stroke="#45413C" stroke-width="0.48" stroke-linecap="round" stroke-linejoin="round"/>
<path d="M83.2985 27.0912C85.3048 27.0912 86.9312 25.4648 86.9312 23.4585C86.9312 21.4523 85.3048 19.8259 83.2985 19.8259C81.2923 19.8259 79.6659 21.4523 79.6659 23.4585C79.6659 25.4648 81.2923 27.0912 83.2985 27.0912Z" fill="#4ACFFF" stroke="#45413C" stroke-width="0.48" stroke-linecap="round" stroke-linejoin="round"/>
<path d="M39.1501 32.5453C41.1563 32.5453 42.7827 30.9189 42.7827 28.9126C42.7827 26.9064 41.1563 25.28 39.1501 25.28C37.1438 25.28 35.5175 26.9064 35.5175 28.9126C35.5175 30.9189 37.1438 32.5453 39.1501 32.5453Z" fill="#4ACFFF" stroke="#45413C" stroke-width="0.48" stroke-linecap="round" stroke-linejoin="round"/>
<path d="M14.9257 53.3478C16.932 53.3478 18.5584 51.7214 18.5584 49.7152C18.5584 47.7089 16.932 46.0826 14.9257 46.0826C12.9195 46.0826 11.2931 47.7089 11.2931 49.7152C11.2931 51.7214 12.9195 53.3478 14.9257 53.3478Z" fill="#FFE500" stroke="#45413C" stroke-width="0.48" stroke-linecap="round" stroke-linejoin="round"/>
<path d="M63.1872 19.2832C65.1935 19.2832 66.8198 17.6568 66.8198 15.6506C66.8198 13.6443 65.1935 12.0179 63.1872 12.0179C61.181 12.0179 59.5546 13.6443 59.5546 15.6506C59.5546 17.6568 61.181 19.2832 63.1872 19.2832Z" fill="#FFE500" stroke="#45413C" stroke-width="0.48" stroke-linecap="round" stroke-linejoin="round"/>
<path d="M64.0629 111.804C66.0692 111.804 67.6956 110.178 67.6956 108.172C67.6956 106.165 66.0692 104.539 64.0629 104.539C62.0567 104.539 60.4303 106.165 60.4303 108.172C60.4303 110.178 62.0567 111.804 64.0629 111.804Z" fill="#FFE500" stroke="#45413C" stroke-width="0.48" stroke-linecap="round" stroke-linejoin="round"/>
<path d="M33.6815 101.692C35.6877 101.692 37.3141 100.066 37.3141 98.0595C37.3141 96.0533 35.6877 94.4269 33.6815 94.4269C31.6752 94.4269 30.0488 96.0533 30.0488 98.0595C30.0488 100.066 31.6752 101.692 33.6815 101.692Z" fill="#FF6242" stroke="#45413C" stroke-width="0.48" stroke-linecap="round" stroke-linejoin="round"/>
<path d="M38.909 81.5053C40.9153 81.5053 42.5416 79.8789 42.5416 77.8726C42.5416 75.8664 40.9153 74.24 38.909 74.24C36.9028 74.24 35.2764 75.8664 35.2764 77.8726C35.2764 79.8789 36.9028 81.5053 38.909 81.5053Z" fill="#4ACFFF" stroke="#45413C" stroke-width="0.48" stroke-linecap="round" stroke-linejoin="round"/>
<path d="M36.4668 49.0061C36.4586 49.4001 36.5292 49.7919 36.6743 50.1583C36.8194 50.5248 37.0363 50.8586 37.3121 51.1402C37.5878 51.4218 37.9171 51.6455 38.2804 51.7982C38.6438 51.9509 39.034 52.0296 39.4281 52.0296C39.8223 52.0296 40.2124 51.9509 40.5758 51.7982C40.9391 51.6455 41.2684 51.4218 41.5442 51.1402C41.8199 50.8586 42.0368 50.5248 42.1819 50.1583C42.327 49.7919 42.3976 49.4001 42.3894 49.0061V47.5251C42.3976 47.1311 42.327 46.7393 42.1819 46.3729C42.0368 46.0064 41.8199 45.6726 41.5442 45.391C41.2684 45.1095 40.9391 44.8857 40.5758 44.733C40.2124 44.5803 39.8223 44.5016 39.4281 44.5016C39.034 44.5016 38.6438 44.5803 38.2804 44.733C37.9171 44.8857 37.5878 45.1095 37.3121 45.391C37.0363 45.6726 36.8194 46.0064 36.6743 46.3729C36.5292 46.7393 36.4586 47.1311 36.4668 47.5251V49.0061Z" fill="#E8F4FA"/>
<path d="M39.4277 58.4243C44.5112 58.4243 48.6322 54.3033 48.6322 49.2198C48.6322 44.1363 44.5112 40.0154 39.4277 40.0154C34.3443 40.0154 30.2233 44.1363 30.2233 49.2198C30.2233 54.3033 34.3443 58.4243 39.4277 58.4243Z" fill="white" stroke="#45413C" stroke-width="0.48" stroke-linecap="round" stroke-linejoin="round"/>
<path d="M36.4665 49.0061C36.4583 49.4001 36.5288 49.7919 36.6739 50.1583C36.8191 50.5248 37.0359 50.8586 37.3117 51.1402C37.5875 51.4218 37.9167 51.6455 38.2801 51.7982C38.6434 51.9509 39.0336 52.0296 39.4277 52.0296C39.8219 52.0296 40.2121 51.9509 40.5754 51.7982C40.9388 51.6455 41.268 51.4218 41.5438 51.1402C41.8196 50.8586 42.0364 50.5248 42.1815 50.1583C42.3267 49.7919 42.3972 49.4001 42.389 49.0061V47.5251C42.3972 47.1311 42.3267 46.7393 42.1815 46.3729C42.0364 46.0064 41.8196 45.6726 41.5438 45.391C41.268 45.1095 40.9388 44.8857 40.5754 44.733C40.2121 44.5803 39.8219 44.5016 39.4277 44.5016C39.0336 44.5016 38.6434 44.5803 38.2801 44.733C37.9167 44.8857 37.5875 45.1095 37.3117 45.391C37.0359 45.6726 36.8191 46.0064 36.6739 46.3729C36.5288 46.7393 36.4583 47.1311 36.4665 47.5251V49.0061Z" fill="#FFCEBF" stroke="#45413C" stroke-width="0.48" stroke-linecap="round" stroke-linejoin="round"/>
<path d="M45.5819 56.064C43.8924 57.5813 41.7017 58.4206 39.4308 58.4206C37.16 58.4206 34.9693 57.5813 33.2798 56.064C33.7879 54.8539 34.6421 53.8208 35.7351 53.0943C36.8281 52.3678 38.1113 51.9802 39.4238 51.9802C40.7362 51.9802 42.0195 52.3678 43.1125 53.0943C44.2055 53.8208 45.0597 54.8539 45.5678 56.064" fill="#9CEB60"/>
<path d="M45.5819 56.064C43.8924 57.5813 41.7017 58.4206 39.4308 58.4206C37.16 58.4206 34.9693 57.5813 33.2798 56.064C33.7879 54.8539 34.6421 53.8208 35.7351 53.0943C36.8281 52.3678 38.1113 51.9802 39.4238 51.9802C40.7362 51.9802 42.0195 52.3678 43.1125 53.0943C44.2055 53.8208 45.0597 54.8539 45.5678 56.064" stroke="#45413C" stroke-width="0.48" stroke-linecap="round" stroke-linejoin="round"/>
<path d="M36.4916 47.1424C36.5691 46.545 36.8269 45.9855 37.2307 45.5385C37.6345 45.0915 38.165 44.7784 38.7515 44.6408C39.3379 44.5032 39.9524 44.5478 40.5128 44.7686C41.0733 44.9894 41.553 45.3759 41.8881 45.8765C41.1874 46.5562 40.3153 47.0329 39.3649 47.2559C38.4145 47.4788 37.4214 47.4396 36.4916 47.1424Z" fill="#A86C4D" stroke="#45413C" stroke-width="0.48" stroke-linecap="round" stroke-linejoin="round"/>
<path d="M68.9366 85.0842C76.4067 85.0842 82.4624 79.0285 82.4624 71.5584C82.4624 64.0883 76.4067 58.0327 68.9366 58.0327C61.4666 58.0327 55.4109 64.0883 55.4109 71.5584C55.4109 79.0285 61.4666 85.0842 68.9366 85.0842Z" fill="white" stroke="#45413C" stroke-width="0.48" stroke-linecap="round" stroke-linejoin="round"/>
<path d="M64.5846 71.2448C64.5846 72.399 65.0431 73.506 65.8593 74.3221C66.6754 75.1383 67.7824 75.5968 68.9366 75.5968C70.0908 75.5968 71.1978 75.1383 72.0139 74.3221C72.8301 73.506 73.2886 72.399 73.2886 71.2448V69.0688C73.2886 67.9146 72.8301 66.8076 72.0139 65.9915C71.1978 65.1753 70.0908 64.7168 68.9366 64.7168C67.7824 64.7168 66.6754 65.1753 65.8593 65.9915C65.0431 66.8076 64.5846 67.9146 64.5846 69.0688V71.2448Z" fill="#FFCEBF" stroke="#45413C" stroke-width="0.48" stroke-linecap="round" stroke-linejoin="round"/>
<path d="M77.9772 81.6179C75.4946 83.8483 72.2751 85.0821 68.9378 85.0821C65.6005 85.0821 62.381 83.8483 59.8984 81.6179C60.6414 79.8351 61.895 78.3118 63.5017 77.2398C65.1083 76.1677 66.9961 75.5948 68.9276 75.5932C70.859 75.5916 72.7478 76.1612 74.3563 77.2305C75.9647 78.2998 77.221 79.821 77.9669 81.6026" fill="#FF6242"/>
<path d="M77.9772 81.6179C75.4946 83.8483 72.2751 85.0821 68.9378 85.0821C65.6005 85.0821 62.381 83.8483 59.8984 81.6179C60.6414 79.8351 61.895 78.3118 63.5017 77.2398C65.1083 76.1677 66.9961 75.5948 68.9276 75.5932C70.859 75.5916 72.7478 76.1612 74.3563 77.2305C75.9647 78.2998 77.221 79.821 77.9669 81.6026" stroke="#45413C" stroke-width="0.48" stroke-linecap="round" stroke-linejoin="round"/>
<path d="M64.6201 68.5069C64.7334 67.628 65.1123 66.8046 65.7062 66.1468C66.3001 65.489 67.0806 65.0282 67.9434 64.826C68.8062 64.6238 69.7102 64.6898 70.5345 65.0152C71.3588 65.3406 72.0641 65.91 72.5561 66.6471C71.5257 67.6466 70.2432 68.3476 68.8455 68.6751C67.4478 69.0027 65.9874 68.9445 64.6201 68.5069Z" fill="#A86C4D" stroke="#45413C" stroke-width="0.48" stroke-linecap="round" stroke-linejoin="round"/>
<path d="M102.794 70.0467C107.877 70.0467 111.998 65.9257 111.998 60.8422C111.998 55.7587 107.877 51.6377 102.794 51.6377C97.7103 51.6377 93.5894 55.7587 93.5894 60.8422C93.5894 65.9257 97.7103 70.0467 102.794 70.0467Z" fill="white" stroke="#45413C" stroke-width="0.48" stroke-linecap="round" stroke-linejoin="round"/>
<path d="M99.8317 60.6285C99.8317 61.414 100.144 62.1674 100.699 62.7229C101.255 63.2783 102.008 63.5904 102.794 63.5904C103.579 63.5904 104.333 63.2783 104.888 62.7229C105.443 62.1674 105.756 61.414 105.756 60.6285V59.1475C105.756 58.362 105.443 57.6086 104.888 57.0531C104.333 56.4976 103.579 56.1856 102.794 56.1856C102.008 56.1856 101.255 56.4976 100.699 57.0531C100.144 57.6086 99.8317 58.362 99.8317 59.1475V60.6285Z" fill="#FFCEBF" stroke="#45413C" stroke-width="0.48" stroke-linecap="round" stroke-linejoin="round"/>
<path d="M108.947 67.6877C107.258 69.2056 105.067 70.0453 102.795 70.0453C100.524 70.0453 98.3333 69.2056 96.6438 67.6877C97.1496 66.4745 98.0028 65.4379 99.0963 64.7084C100.19 63.979 101.474 63.5892 102.789 63.5881C104.103 63.587 105.389 63.9746 106.483 64.7023C107.578 65.4299 108.433 66.4651 108.941 67.6774" fill="#FFAA54"/>
<path d="M108.947 67.6877C107.258 69.2056 105.067 70.0453 102.795 70.0453C100.524 70.0453 98.3333 69.2056 96.6438 67.6877C97.1496 66.4745 98.0028 65.4379 99.0963 64.7084C100.19 63.979 101.474 63.5892 102.789 63.5881C104.103 63.587 105.389 63.9746 106.483 64.7023C107.578 65.4299 108.433 66.4651 108.941 67.6774" stroke="#45413C" stroke-width="0.48" stroke-linecap="round" stroke-linejoin="round"/>
<path d="M99.8555 58.7648C99.9333 58.1675 100.191 57.6081 100.595 57.1613C100.999 56.7144 101.53 56.4014 102.116 56.2638C102.703 56.1263 103.317 56.1708 103.878 56.3915C104.438 56.6122 104.918 56.9984 105.253 57.4989C104.552 58.1783 103.68 58.6549 102.729 58.8778C101.779 59.1007 100.786 59.0617 99.8555 58.7648Z" fill="#A86C4D" stroke="#45413C" stroke-width="0.48" stroke-linecap="round" stroke-linejoin="round"/>
<path d="M86.2125 109.128C91.296 109.128 95.417 105.007 95.417 99.9232C95.417 94.8397 91.296 90.7187 86.2125 90.7187C81.129 90.7187 77.0081 94.8397 77.0081 99.9232C77.0081 105.007 81.129 109.128 86.2125 109.128Z" fill="white" stroke="#45413C" stroke-width="0.48" stroke-linecap="round" stroke-linejoin="round"/>
<path d="M83.2504 99.712C83.2504 100.498 83.5624 101.251 84.1179 101.806C84.6734 102.362 85.4267 102.674 86.2123 102.674C86.9978 102.674 87.7512 102.362 88.3067 101.806C88.8621 101.251 89.1742 100.498 89.1742 99.712V98.2297C89.1742 97.4442 88.8621 96.6908 88.3067 96.1354C87.7512 95.5799 86.9978 95.2678 86.2123 95.2678C85.4267 95.2678 84.6734 95.5799 84.1179 96.1354C83.5624 96.6908 83.2504 97.4442 83.2504 98.2297V99.712Z" fill="#FFCEBF" stroke="#45413C" stroke-width="0.48" stroke-linecap="round" stroke-linejoin="round"/>
<path d="M92.3659 106.77C90.676 108.287 88.4851 109.126 86.2142 109.126C83.9432 109.126 81.7523 108.287 80.0625 106.77C80.5681 105.557 81.4213 104.52 82.5147 103.79C83.608 103.061 84.8927 102.671 86.2071 102.67C87.5216 102.668 88.807 103.056 89.9017 103.783C90.9964 104.511 91.8515 105.546 92.3595 106.758" fill="#00B8F0"/>
<path d="M92.3659 106.77C90.676 108.287 88.4851 109.126 86.2142 109.126C83.9432 109.126 81.7523 108.287 80.0625 106.77C80.5681 105.557 81.4213 104.52 82.5147 103.79C83.608 103.061 84.8927 102.671 86.2071 102.67C87.5216 102.668 88.807 103.056 89.9017 103.783C90.9964 104.511 91.8515 105.546 92.3595 106.758" stroke="#45413C" stroke-width="0.48" stroke-linecap="round" stroke-linejoin="round"/>
<path d="M83.2742 97.847C83.352 97.2497 83.6101 96.6904 84.014 96.2435C84.418 95.7967 84.9485 95.4836 85.535 95.3461C86.1214 95.2085 86.7358 95.2531 87.2963 95.4737C87.8568 95.6944 88.3367 96.0807 88.6719 96.5811C87.9708 97.2605 87.0985 97.7371 86.148 97.96C85.1975 98.1829 84.2043 98.1439 83.2742 97.847Z" fill="#A86C4D" stroke="#45413C" stroke-width="0.48" stroke-linecap="round" stroke-linejoin="round"/>
</svg>

