<svg width="64" height="64" viewBox="0 0 64 64" fill="none" xmlns="http://www.w3.org/2000/svg">
<path d="M0 32C0 40.4869 3.37142 48.6263 9.37258 54.6274C15.3737 60.6286 23.5131 64 32 64C40.4869 64 48.6263 60.6286 54.6274 54.6274C60.6286 48.6263 64 40.4869 64 32C64 23.5131 60.6286 15.3737 54.6274 9.37258C48.6263 3.37142 40.4869 0 32 0C23.5131 0 15.3737 3.37142 9.37258 9.37258C3.37142 15.3737 0 23.5131 0 32Z" fill="#C7F0FF"/>
<path d="M16.6846 44.1925L26.1487 15.2763L54.8885 24.6827L45.4244 53.5989L16.6846 44.1925Z" fill="#E0E0E0"/>
<path fill-rule="evenodd" clip-rule="evenodd" d="M16.5608 44.5727C16.3509 44.5039 16.2364 44.278 16.3051 44.0681L25.7692 15.1519C25.8379 14.9419 26.0638 14.8274 26.2738 14.8961L55.0136 24.3025C55.2236 24.3712 55.3381 24.5972 55.2693 24.8071L45.8052 53.7233C45.7365 53.9333 45.5106 54.0478 45.3006 53.9791L16.5608 44.5727ZM17.1898 43.9368L45.1693 53.0943L54.3846 24.9384L26.4051 15.7809L17.1898 43.9368Z" fill="#45413C"/>
<path d="M10.9365 42.3109L20.4006 13.3947L49.1405 22.8011L39.6764 51.7173L10.9365 42.3109Z" fill="white"/>
<path d="M11.9824 39.1171L20.4014 13.3942L49.1412 22.8006L40.7222 48.5235L11.9824 39.1171Z" fill="#F0F0F0"/>
<path fill-rule="evenodd" clip-rule="evenodd" d="M10.8128 42.6911C10.6028 42.6224 10.4883 42.3964 10.557 42.1865L20.0212 13.2703C20.0899 13.0603 20.3158 12.9458 20.5257 13.0145L49.2656 22.4209C49.4755 22.4897 49.59 22.7156 49.5213 22.9255L40.0572 51.8417C39.9885 52.0517 39.7626 52.1662 39.5526 52.0975L10.8128 42.6911ZM11.4418 42.0552L39.4213 51.2127L48.6366 23.0568L20.6571 13.8993L11.4418 42.0552Z" fill="#45413C"/>
<path d="M45.3208 34.4736C44.3228 37.5224 42.1546 40.05 39.2932 41.5003C36.4317 42.9506 33.1114 43.2049 30.0624 42.2072L1.32324 32.8C4.37207 33.7979 7.69242 33.5438 10.5539 32.0937C13.4154 30.6435 15.5836 28.116 16.5816 25.0672L20.1528 14.1544C20.1855 14.0546 20.2376 13.9621 20.306 13.8824C20.3745 13.8026 20.458 13.7371 20.5517 13.6897C20.6455 13.6422 20.7477 13.6137 20.8525 13.6057C20.9573 13.5977 21.0626 13.6105 21.1624 13.6432L48.3816 22.552C48.4815 22.5847 48.574 22.6368 48.6537 22.7052C48.7335 22.7737 48.7989 22.8572 48.8464 22.9509C48.8939 23.0447 48.9224 23.1469 48.9304 23.2517C48.9383 23.3565 48.9256 23.4618 48.8928 23.5616L45.3208 34.4736Z" fill="white"/>
<path fill-rule="evenodd" clip-rule="evenodd" d="M21.0375 14.0233C20.9876 14.0069 20.9349 14.0005 20.8825 14.0045C20.8301 14.0085 20.779 14.0228 20.7321 14.0465C20.6853 14.0702 20.6435 14.103 20.6093 14.1429C20.5751 14.1827 20.5491 14.2289 20.5327 14.2789L16.9615 25.1916L16.9615 25.1917C15.9305 28.3413 13.6906 30.9523 10.7345 32.4504C9.13161 33.2627 7.3894 33.7118 5.62811 33.7883L30.1866 41.827C30.1866 41.8271 30.1866 41.8271 30.1866 41.8271C33.1347 42.7917 36.3452 42.5458 39.1121 41.1435C41.8789 39.7411 43.9754 37.2972 44.9404 34.3492L48.5124 23.4372L48.5125 23.437C48.5289 23.387 48.5352 23.3344 48.5312 23.282C48.5273 23.2296 48.513 23.1785 48.4893 23.1316C48.4655 23.0847 48.4328 23.043 48.3929 23.0088C48.3531 22.9745 48.3068 22.9485 48.2569 22.9322C48.2569 22.9322 48.2569 22.9322 48.2569 22.9321L21.0377 14.0234L21.0375 14.0233ZM1.19853 33.1802C0.988574 33.1114 0.874085 32.8855 0.942806 32.6756C1.01153 32.4656 1.23743 32.3511 1.44739 32.4199C4.39539 33.3847 7.60595 33.1391 10.3728 31.7368C13.1397 30.3346 15.2362 27.8907 16.2012 24.9428L19.7724 14.03L19.7724 14.0299C19.8215 13.8801 19.8996 13.7415 20.0022 13.6218C20.1049 13.5022 20.2301 13.404 20.3708 13.3328C20.5114 13.2616 20.6647 13.2188 20.8219 13.2068C20.979 13.1949 21.137 13.214 21.2868 13.2631L48.5058 22.1719L48.5058 22.1719C48.6556 22.2209 48.7943 22.299 48.9139 22.4017C49.0336 22.5043 49.1318 22.6296 49.203 22.7702C49.2742 22.9109 49.317 23.0641 49.3289 23.2213C49.3409 23.3785 49.3218 23.5365 49.2726 23.6863L45.7007 34.5981C44.6697 37.7477 42.4298 40.3588 39.4737 41.857C36.5177 43.3553 33.0875 43.618 29.9378 42.5874L29.9377 42.5874L1.19853 33.1802Z" fill="#45413C"/>
<path d="M30.6668 8.6848C29.3145 8.40872 27.909 8.58183 26.6641 9.17778C25.4192 9.77373 24.403 10.7599 23.77 11.9864C23.3085 12.8856 23.0715 13.8832 23.0793 14.8939C23.0871 15.9046 23.3394 16.8984 23.8148 17.7904C23.8655 17.8893 23.9354 17.9772 24.0204 18.0488C24.1054 18.1205 24.2038 18.1745 24.3099 18.2077C24.416 18.2409 24.5277 18.2527 24.6384 18.2423C24.7491 18.2319 24.8566 18.1996 24.9547 18.1473C25.0527 18.0949 25.1394 18.0236 25.2096 17.9374C25.2798 17.8512 25.3322 17.7519 25.3636 17.6452C25.3951 17.5386 25.405 17.4267 25.3927 17.3162C25.3805 17.2057 25.3464 17.0988 25.2924 17.0016C24.9369 16.3265 24.754 15.574 24.7602 14.811C24.7663 14.0481 24.9613 13.2986 25.3277 12.6293C25.6941 11.9601 26.2204 11.392 26.8599 10.9758C27.4993 10.5595 28.2318 10.3081 28.992 10.2439C29.7523 10.1797 30.5166 10.3048 31.2168 10.6079C31.9169 10.911 32.5311 11.3828 33.0045 11.9812C33.4779 12.5795 33.7958 13.2857 33.9298 14.0368C34.0638 14.7879 34.0097 15.5605 33.7724 16.2856C33.6256 16.7424 33.4045 17.1719 33.118 17.5568L34.7788 18.1C35.026 17.6945 35.2242 17.261 35.3692 16.8088C35.6443 15.9668 35.7388 15.0763 35.6464 14.1953C35.5541 13.3143 35.277 12.4627 34.8332 11.6961C34.3895 10.9295 33.789 10.265 33.0711 9.74615C32.3532 9.22727 31.5339 8.86562 30.6668 8.6848Z" fill="#FFF48C"/>
<path fill-rule="evenodd" clip-rule="evenodd" d="M26.491 8.81696C27.8145 8.18338 29.3087 7.99935 30.7464 8.29286L30.6664 8.68477L30.7481 8.2932C31.6703 8.4855 32.5415 8.87011 33.305 9.42193C34.0685 9.97376 34.7071 10.6804 35.179 11.4957C35.6509 12.311 35.9456 13.2167 36.0438 14.1536C36.142 15.0901 36.0417 16.0368 35.7494 16.932C35.5947 17.414 35.3834 17.8759 35.1199 18.3082L34.9551 18.5786L32.4647 17.7641L32.7967 17.318C33.0569 16.9683 33.2578 16.5781 33.3912 16.1632L33.3918 16.1612C33.6086 15.4988 33.658 14.7931 33.5356 14.107C33.4132 13.4209 33.1229 12.7758 32.6904 12.2293C32.258 11.6828 31.697 11.2518 31.0574 10.9749C30.4179 10.698 29.7197 10.5838 29.0253 10.6425C28.3309 10.7011 27.6618 10.9308 27.0777 11.311C26.4936 11.6912 26.0128 12.2101 25.6781 12.8214C25.3435 13.4327 25.1654 14.1173 25.1598 14.8142C25.1541 15.5098 25.3205 16.196 25.6441 16.8117C25.7225 16.9541 25.772 17.1106 25.7899 17.2722C25.808 17.4355 25.7934 17.6007 25.7469 17.7583C25.7005 17.9159 25.6231 18.0626 25.5194 18.19C25.4156 18.3173 25.2876 18.4228 25.1426 18.5001C24.9977 18.5775 24.8389 18.6252 24.6753 18.6406C24.5118 18.6559 24.3468 18.6385 24.19 18.5894C24.0333 18.5403 23.8878 18.4605 23.7622 18.3547C23.6375 18.2495 23.5348 18.1208 23.46 17.9759C22.9552 17.0276 22.6872 15.9713 22.6789 14.897C22.6706 13.8217 22.9227 12.7604 23.4137 11.8037L23.4142 11.8029C24.0871 10.499 25.1675 9.45054 26.491 8.81696ZM30.5856 9.07652C29.3189 8.81812 28.0025 8.98034 26.8365 9.53854C25.6703 10.0968 24.7183 11.0206 24.1253 12.1694C23.6934 13.0111 23.4716 13.9448 23.4789 14.8908C23.4862 15.8369 23.7224 16.7672 24.1674 17.6023L24.1704 17.6079C24.1969 17.6596 24.2334 17.7055 24.2778 17.743C24.3222 17.7804 24.3736 17.8086 24.4291 17.826C24.4845 17.8433 24.5428 17.8495 24.6007 17.844C24.6585 17.8386 24.7147 17.8217 24.7659 17.7944C24.8171 17.767 24.8624 17.7298 24.8991 17.6847C24.9358 17.6397 24.9631 17.5878 24.9796 17.5321C24.996 17.4764 25.0011 17.4179 24.9948 17.3602C24.9884 17.3025 24.9706 17.2466 24.9423 17.1958L24.9402 17.1919L24.9381 17.188C24.5518 16.4545 24.3531 15.6368 24.3598 14.8078C24.3665 13.9788 24.5783 13.1644 24.9764 12.4372C25.3745 11.7101 25.9465 11.0928 26.6412 10.6405C27.336 10.1882 28.1319 9.91504 28.958 9.84529C29.7841 9.77554 30.6145 9.91142 31.3753 10.2408C32.1361 10.5702 32.8034 11.0828 33.3178 11.7329C33.8322 12.383 34.1776 13.1504 34.3232 13.9665C34.4687 14.7823 34.4101 15.6214 34.1525 16.409C34.0481 16.7335 33.9094 17.0452 33.7391 17.3392L34.5931 17.6185C34.7524 17.3206 34.8846 17.0088 34.9879 16.6866L34.9886 16.6845C35.2462 15.896 35.3347 15.062 35.2482 14.237C35.1617 13.4119 34.9022 12.6144 34.4866 11.8965C34.0711 11.1785 33.5088 10.5562 32.8364 10.0703C32.1643 9.58455 31.3974 9.24592 30.5856 9.07652Z" fill="#45413C"/>
<path d="M39.448 11.5584C38.0957 11.2827 36.6902 11.456 35.4454 12.0521C34.2005 12.6482 33.1843 13.6344 32.5512 14.8608C32.0897 15.76 31.8527 16.7576 31.8605 17.7683C31.8683 18.779 32.1207 19.7728 32.596 20.6648C32.6468 20.7638 32.7166 20.8516 32.8017 20.9233C32.8867 20.9949 32.9851 21.0489 33.0912 21.0821C33.1973 21.1153 33.3089 21.1271 33.4196 21.1167C33.5303 21.1064 33.6378 21.0741 33.7359 21.0217C33.834 20.9693 33.9207 20.898 33.9909 20.8118C34.0611 20.7256 34.1134 20.6263 34.1449 20.5196C34.1763 20.413 34.1862 20.3012 34.174 20.1907C34.1617 20.0802 34.1276 19.9732 34.0736 19.876C33.7181 19.201 33.5353 18.4484 33.5414 17.6854C33.5476 16.9225 33.7425 16.173 34.1089 15.5038C34.4753 14.8345 35.0017 14.2664 35.6411 13.8502C36.2805 13.4339 37.013 13.1825 37.7733 13.1183C38.5335 13.0541 39.2979 13.1792 39.998 13.4823C40.6982 13.7855 41.3124 14.2572 41.7858 14.8556C42.2592 15.4539 42.5771 16.1601 42.711 16.9112C42.845 17.6623 42.791 18.4349 42.5536 19.16C42.4068 19.6168 42.1857 20.0463 41.8992 20.4312L43.56 20.9744C43.8074 20.5687 44.0056 20.135 44.1504 19.6824C44.4254 18.8404 44.5198 17.9499 44.4274 17.069C44.335 16.1881 44.0578 15.3365 43.6141 14.5699C43.1704 13.8033 42.57 13.1389 41.8522 12.62C41.1343 12.1011 40.3151 11.7394 39.448 11.5584Z" fill="#FFF48C"/>
<path fill-rule="evenodd" clip-rule="evenodd" d="M35.2722 11.6913C36.5957 11.0576 38.0898 10.8733 39.5276 11.1665L39.4477 11.5584L39.5294 11.1668C40.4515 11.3592 41.3227 11.7439 42.0861 12.2958C42.8495 12.8476 43.488 13.5542 43.9599 14.3695C44.4318 15.1848 44.7265 16.0904 44.8248 17.0272C44.923 17.9637 44.8228 18.9103 44.5307 19.8054C44.3762 20.2878 44.1649 20.7501 43.9012 21.1826L43.7363 21.453L41.246 20.6385L41.578 20.1924C41.8382 19.8427 42.039 19.4525 42.1725 19.0376L42.1731 19.0356C42.3899 18.3732 42.4393 17.6675 42.3169 16.9814C42.1945 16.2954 41.9041 15.6503 41.4717 15.1037C41.0393 14.5572 40.4782 14.1263 39.8387 13.8494C39.1992 13.5725 38.501 13.4582 37.8066 13.5169C37.1121 13.5755 36.443 13.8052 35.8589 14.1854C35.2749 14.5656 34.7941 15.0845 34.4594 15.6958C34.1247 16.3071 33.9466 16.9918 33.941 17.6886C33.9354 18.3842 34.1018 19.0704 34.4253 19.6861C34.5037 19.8285 34.5533 19.985 34.5712 20.1466C34.5892 20.3099 34.5746 20.4751 34.5282 20.6327C34.4817 20.7903 34.4044 20.937 34.3006 21.0644C34.1969 21.1917 34.0688 21.2972 33.9239 21.3745C33.779 21.4519 33.6201 21.4996 33.4566 21.515C33.293 21.5303 33.128 21.5129 32.9713 21.4638C32.8145 21.4148 32.6691 21.335 32.5435 21.2291C32.4188 21.124 32.3161 20.9952 32.2413 20.8503C31.7364 19.902 31.4685 18.8457 31.4602 17.7714C31.4519 16.6961 31.704 15.6348 32.195 14.6781L32.1954 14.6773C32.8685 13.3735 33.9488 12.325 35.2722 11.6913ZM39.3668 11.9501C38.1001 11.6921 36.7837 11.8545 35.6177 12.4128C34.4516 12.9712 33.4997 13.895 32.9065 15.0438C32.4746 15.8855 32.2528 16.8192 32.2601 17.7652C32.2674 18.7114 32.5037 19.6417 32.9487 20.4767L32.9517 20.4823C32.9782 20.534 33.0146 20.5799 33.059 20.6174C33.1035 20.6548 33.1549 20.683 33.2103 20.7004C33.2657 20.7177 33.3241 20.7239 33.3819 20.7185C33.4397 20.713 33.4959 20.6962 33.5471 20.6688C33.5984 20.6415 33.6437 20.6042 33.6803 20.5591C33.717 20.5141 33.7444 20.4622 33.7608 20.4065C33.7772 20.3508 33.7824 20.2924 33.776 20.2346C33.7696 20.1769 33.7518 20.121 33.7236 20.0703L33.7214 20.0663L33.7193 20.0624C33.333 19.3289 33.1343 18.5112 33.141 17.6822C33.1477 16.8532 33.3596 16.0388 33.7577 15.3116C34.1558 14.5845 34.7277 13.9672 35.4225 13.5149C36.1172 13.0627 36.9132 12.7895 37.7392 12.7197C38.5653 12.65 39.3958 12.7858 40.1565 13.1152C40.9173 13.4446 41.5847 13.9572 42.0991 14.6073C42.6134 15.2575 42.9588 16.0248 43.1044 16.8409C43.25 17.6567 43.1913 18.4959 42.9337 19.2835C42.8294 19.6079 42.6907 19.9196 42.5204 20.2136L43.3743 20.4929C43.5338 20.1949 43.6659 19.8828 43.7691 19.5605L43.7698 19.5582C44.0273 18.7697 44.1157 17.9357 44.0292 17.1107C43.9426 16.2857 43.6831 15.4882 43.2675 14.7703C42.852 14.0523 42.2897 13.4301 41.6174 12.9441C40.9454 12.4583 40.1785 12.1197 39.3668 11.9501Z" fill="#45413C"/>
<path d="M48.2293 14.4328C46.8769 14.1571 45.4715 14.3304 44.2266 14.9265C42.9818 15.5226 41.9656 16.5088 41.3325 17.7352C40.871 18.6344 40.634 19.632 40.6418 20.6427C40.6496 21.6534 40.9019 22.6472 41.3773 23.5392C41.4264 23.641 41.4955 23.7319 41.5806 23.8063C41.6657 23.8807 41.765 23.9372 41.8724 23.9723C41.9799 24.0073 42.0934 24.0203 42.206 24.0104C42.3186 24.0005 42.428 23.968 42.5277 23.9147C42.6274 23.8614 42.7153 23.7885 42.7861 23.7004C42.8569 23.6123 42.9092 23.5107 42.9397 23.4019C42.9703 23.2931 42.9786 23.1792 42.964 23.0671C42.9494 22.955 42.9123 22.847 42.8549 22.7496C42.4994 22.0745 42.3166 21.3219 42.3228 20.559C42.329 19.796 42.5241 19.0465 42.8905 18.3773C43.257 17.7081 43.7834 17.14 44.4229 16.7239C45.0623 16.3077 45.7949 16.0563 46.5551 15.9922C47.3154 15.9281 48.0797 16.0532 48.7798 16.3564C49.48 16.6596 50.0941 17.1315 50.5675 17.7298C51.0408 18.3282 51.3586 19.0345 51.4925 19.7856C51.6265 20.5367 51.5723 21.3093 51.3349 22.0344C51.1882 22.491 50.9671 22.9203 50.6805 23.3048L52.3413 23.8488C52.5885 23.443 52.7867 23.0093 52.9317 22.5568C53.2067 21.7148 53.301 20.8243 53.2086 19.9434C53.1162 19.0624 52.8391 18.2109 52.3954 17.4443C51.9516 16.6777 51.3513 16.0133 50.6334 15.4944C49.9156 14.9755 49.0964 14.6137 48.2293 14.4328Z" fill="#FFF48C"/>
<path fill-rule="evenodd" clip-rule="evenodd" d="M44.0545 14.5657C45.3779 13.932 46.872 13.7477 48.3098 14.0408L48.2299 14.4328L48.3116 14.0412C49.2337 14.2336 50.1049 14.6183 50.8683 15.1702C51.6318 15.722 52.2703 16.4286 52.7422 17.2439C53.214 18.0592 53.5087 18.9648 53.607 19.9016C53.7053 20.838 53.605 21.7847 53.3129 22.6798C53.1583 23.1621 52.947 23.6244 52.6835 24.0569L52.5186 24.3276L50.0279 23.5117L50.3604 23.0657C50.6207 22.7165 50.8215 22.3267 50.9546 21.9121L50.9553 21.9099C51.1722 21.2476 51.2217 20.5419 51.0993 19.8558C50.977 19.1697 50.6867 18.5246 50.2543 17.978C49.822 17.4314 49.261 17.0004 48.6215 16.7234C47.9819 16.4465 47.2838 16.3322 46.5893 16.3907C45.8949 16.4493 45.2257 16.6789 44.6416 17.0591C44.0575 17.4392 43.5767 17.9581 43.242 18.5694C42.9072 19.1807 42.7291 19.8653 42.7234 20.5622C42.7177 21.2563 42.8834 21.941 43.2055 22.5558C43.2872 22.6972 43.3401 22.8534 43.3612 23.0155C43.3828 23.1811 43.3706 23.3493 43.3254 23.51C43.2803 23.6708 43.2031 23.8208 43.0985 23.9509C42.9939 24.0811 42.8641 24.1887 42.7168 24.2674C42.5696 24.3461 42.4079 24.3942 42.2416 24.4089C42.0752 24.4235 41.9076 24.4043 41.7489 24.3525C41.5902 24.3007 41.4436 24.2173 41.3179 24.1074C41.1944 23.9994 41.0936 23.8679 41.0214 23.7207C40.5179 22.7734 40.2507 21.7186 40.2424 20.6458C40.2341 19.5705 40.4862 18.5092 40.9772 17.5525L40.9776 17.5517C41.6507 16.2478 42.731 15.1994 44.0545 14.5657ZM48.1491 14.8245C46.8823 14.5665 45.566 14.7289 44.4 15.2872C43.2339 15.8456 42.2819 16.7694 41.6887 17.9182C41.2568 18.7599 41.0351 19.6936 41.0424 20.6396C41.0497 21.5857 41.2859 22.5161 41.7309 23.3511L41.7347 23.3582L41.7382 23.3655C41.7639 23.4188 41.8001 23.4663 41.8445 23.5052C41.889 23.5441 41.9409 23.5736 41.9971 23.592C42.0533 23.6103 42.1126 23.6171 42.1715 23.6119C42.2304 23.6068 42.2876 23.5897 42.3398 23.5619C42.3919 23.534 42.4379 23.4959 42.4749 23.4498C42.5119 23.4037 42.5392 23.3507 42.5552 23.2937C42.5712 23.2368 42.5755 23.1773 42.5679 23.1187C42.5603 23.06 42.5409 23.0036 42.5109 22.9526L42.506 22.9444L42.5016 22.936C42.1153 22.2024 41.9167 21.3847 41.9234 20.5557C41.9302 19.7267 42.1421 18.9123 42.5403 18.1852C42.9384 17.458 43.5104 16.8408 44.2053 16.3886C44.9001 15.9364 45.696 15.6632 46.5221 15.5936C47.3482 15.5239 48.1787 15.6599 48.9394 15.9893C49.7001 16.3188 50.3674 16.8315 50.8818 17.4816C51.3961 18.1318 51.7414 18.8992 51.8869 19.7154C52.0324 20.5311 51.9736 21.3702 51.716 22.1578C51.6117 22.4821 51.4731 22.7937 51.3027 23.0875L52.1566 23.3672C52.3159 23.0691 52.4481 22.757 52.5514 22.4347L52.552 22.4326C52.8096 21.6441 52.8979 20.8101 52.8114 19.9851C52.7248 19.1601 52.4653 18.3626 52.0498 17.6447C51.6342 16.9267 51.0719 16.3045 50.3997 15.8185C49.7276 15.3327 48.9608 14.994 48.1491 14.8245Z" fill="#45413C"/>
<path opacity="0.15" d="M17.71 57.5792C17.71 57.7998 18.0685 58.0182 18.765 58.2221C19.4615 58.4259 20.4824 58.6111 21.7695 58.7671C23.0565 58.9231 24.5844 59.0469 26.266 59.1313C27.9475 59.2157 29.7498 59.2592 31.57 59.2592C33.3901 59.2592 35.1924 59.2157 36.874 59.1313C38.5555 59.0469 40.0834 58.9231 41.3705 58.7671C42.6575 58.6111 43.6784 58.4259 44.3749 58.2221C45.0715 58.0182 45.43 57.7998 45.43 57.5792C45.43 57.3585 45.0715 57.1401 44.3749 56.9363C43.6784 56.7324 42.6575 56.5472 41.3705 56.3912C40.0834 56.2352 38.5555 56.1115 36.874 56.0271C35.1924 55.9426 33.3901 55.8992 31.57 55.8992C29.7498 55.8992 27.9475 55.9426 26.266 56.0271C24.5844 56.1115 23.0565 56.2352 21.7695 56.3912C20.4824 56.5472 19.4615 56.7324 18.765 56.9363C18.0685 57.1401 17.71 57.3585 17.71 57.5792Z" fill="#45413C"/>
<path fill-rule="evenodd" clip-rule="evenodd" d="M28.755 25.8307C28.9528 25.7323 29.1929 25.8128 29.2914 26.0105L29.745 26.9217C29.7935 27.0192 29.8607 27.1063 29.9428 27.1778C30.025 27.2493 30.1203 27.304 30.2236 27.3386C30.3268 27.3732 30.4358 27.3872 30.5444 27.3796C30.6531 27.3721 30.7591 27.3433 30.8566 27.2947L31.7679 26.8418C31.768 26.8418 31.7679 26.8419 31.7679 26.8418C32.1547 26.6495 32.6021 26.6184 33.0117 26.7556C33.4213 26.8927 33.7598 27.1868 33.9528 27.5733L34.4066 28.4849C34.4551 28.5824 34.5223 28.6695 34.6044 28.741C34.6866 28.8125 34.7819 28.8672 34.8852 28.9018C34.9884 28.9364 35.0974 28.9504 35.206 28.9428C35.3147 28.9353 35.4207 28.9065 35.5182 28.8579L36.4291 28.4045C36.4291 28.4045 36.429 28.4045 36.4291 28.4045C36.6206 28.3089 36.8291 28.252 37.0426 28.2371C37.2561 28.2221 37.4705 28.2494 37.6735 28.3173C37.8765 28.3853 38.0641 28.4926 38.2255 28.6331C38.387 28.7736 38.5192 28.9445 38.6146 29.1362L39.0682 30.0473C39.1666 30.2451 39.0861 30.4852 38.8883 30.5837C38.6906 30.6821 38.4505 30.6016 38.352 30.4038L37.8984 29.4926C37.8499 29.3951 37.7826 29.3081 37.7004 29.2366C37.6183 29.1651 37.5228 29.1105 37.4195 29.0759C37.3162 29.0414 37.2071 29.0275 37.0985 29.0351C36.9898 29.0427 36.8838 29.0717 36.7863 29.1203L35.8748 29.574C35.6833 29.6694 35.4748 29.7261 35.2614 29.7409C35.0479 29.7557 34.8336 29.7283 34.6308 29.6603C34.4279 29.5922 34.2404 29.4849 34.0791 29.3443C33.9177 29.2039 33.7857 29.033 33.6904 28.8414C33.6904 28.8414 33.6904 28.8415 33.6904 28.8414L33.237 27.9307C33.237 27.9306 33.2371 27.9307 33.237 27.9307C33.1387 27.7339 32.9663 27.584 32.7577 27.5142C32.5491 27.4443 32.3212 27.4601 32.1242 27.5581L31.2132 28.0108C31.2132 28.0109 31.2132 28.0108 31.2132 28.0108C31.0217 28.1062 30.8132 28.1629 30.5998 28.1777C30.3863 28.1925 30.172 28.1651 29.9692 28.0971C29.7663 28.029 29.5788 27.9217 29.4175 27.7811C29.2561 27.6407 29.1241 27.4698 29.0288 27.2782L28.5752 26.367C28.4768 26.1693 28.5573 25.9291 28.755 25.8307Z" fill="#45413C"/>
<path fill-rule="evenodd" clip-rule="evenodd" d="M27.8602 22.9956C28.0354 23.2769 27.9494 23.647 27.6681 23.8221L23.6337 26.3349C23.4927 26.4227 23.3217 26.4482 23.1612 26.4052C23.0008 26.3622 22.8654 26.2547 22.7872 26.1082L22.0464 24.7202C21.8904 24.4278 22.0009 24.0644 22.2932 23.9083C22.5855 23.7523 22.949 23.8628 23.105 24.1551L23.5438 24.9772L27.0337 22.8036C27.315 22.6284 27.685 22.7144 27.8602 22.9956Z" fill="#FF6242"/>
<path fill-rule="evenodd" clip-rule="evenodd" d="M24.6842 33.0882C24.8847 32.9955 25.1225 33.0828 25.2153 33.2832L25.6436 34.2088C25.6891 34.3077 25.7537 34.3967 25.8336 34.4706C25.9135 34.5446 26.0072 34.6021 26.1093 34.6398C26.2114 34.6775 26.32 34.6948 26.4287 34.6905C26.5375 34.6863 26.6444 34.6607 26.7433 34.6151L27.6682 34.1895C28.0609 34.0091 28.5093 33.9918 28.9146 34.1417C29.3199 34.2916 29.6491 34.5962 29.8299 34.9887L30.2549 35.9129C30.2549 35.9129 30.2548 35.9129 30.2549 35.9129C30.3004 36.0119 30.365 36.101 30.4449 36.175C30.5249 36.249 30.6186 36.3066 30.7208 36.3444C30.823 36.3822 30.9317 36.3995 31.0406 36.3953C31.1494 36.3911 31.2563 36.3655 31.3553 36.3199C31.3553 36.3199 31.3553 36.3199 31.3553 36.3199L32.2793 35.8943C32.6719 35.7135 33.1202 35.6961 33.5256 35.8458C33.931 35.9955 34.2603 36.3002 34.4412 36.6927L34.8668 37.6176C34.9592 37.8183 34.8714 38.0559 34.6707 38.1482C34.47 38.2406 34.2324 38.1528 34.1401 37.9521L33.7145 37.0274C33.6225 36.8276 33.4548 36.6725 33.2484 36.5963C33.042 36.52 32.8138 36.5289 32.614 36.621L31.69 37.0466C31.4956 37.136 31.2853 37.1864 31.0714 37.1947C30.8575 37.2029 30.6441 37.1689 30.4434 37.0947C30.2426 37.0205 30.0584 36.9074 29.9014 36.762C29.7443 36.6166 29.6175 36.4416 29.528 36.2472L29.1033 35.3234C29.1033 35.3233 29.1034 35.3235 29.1033 35.3234C29.0112 35.1236 28.8435 34.9683 28.6371 34.892C28.4307 34.8157 28.2025 34.8244 28.0025 34.9163C28.0025 34.9163 28.0025 34.9163 28.0025 34.9163L27.078 35.3418C27.078 35.3418 27.078 35.3417 27.078 35.3418C26.8837 35.4312 26.6736 35.4816 26.4598 35.4899C26.246 35.4982 26.0327 35.4644 25.832 35.3902C25.6313 35.3161 25.4472 35.2031 25.2902 35.0578C25.1333 34.9126 25.0065 34.7379 24.9171 34.5437C24.917 34.5435 24.9171 34.5438 24.9171 34.5437L24.4892 33.6192C24.3965 33.4188 24.4838 33.181 24.6842 33.0882Z" fill="#45413C"/>
<path fill-rule="evenodd" clip-rule="evenodd" d="M23.8763 30.2265C24.0428 30.513 23.9455 30.8802 23.659 31.0467L19.5502 33.4347C19.4066 33.5182 19.2349 33.5384 19.0759 33.4905C18.9168 33.4427 18.7847 33.331 18.711 33.1822L18.0126 31.7718C17.8656 31.4749 17.9871 31.1149 18.2841 30.9679C18.581 30.8208 18.941 30.9423 19.088 31.2393L19.5018 32.0749L23.056 30.0092C23.3425 29.8427 23.7098 29.94 23.8763 30.2265Z" fill="#FF6242"/>
</svg>
