<svg width="65" height="64" viewBox="0 0 65 64" fill="none" xmlns="http://www.w3.org/2000/svg">
<path d="M6.8999 34.0301C6.8999 40.8196 9.59704 47.3311 14.398 52.132C19.1989 56.9329 25.7104 59.6301 32.4999 59.6301C39.2894 59.6301 45.8009 56.9329 50.6018 52.132C55.4028 47.3311 58.0999 40.8196 58.0999 34.0301C58.0999 27.2405 55.4028 20.7291 50.6018 15.9281C45.8009 11.1272 39.2894 8.43005 32.4999 8.43005C25.7104 8.43005 19.1989 11.1272 14.398 15.9281C9.59704 20.7291 6.8999 27.2405 6.8999 34.0301Z" fill="#C7F0FF"/>
<path d="M19.5081 31.7587C19.5078 34.0375 20.1081 36.2761 21.2485 38.249C22.389 40.2219 24.0292 41.8594 26.0041 42.9965C26.5679 43.323 27.0361 43.7918 27.3618 44.3561C27.6875 44.9204 27.8593 45.5603 27.8601 46.2118V47.5347C27.8601 47.7785 27.9081 48.0198 28.0013 48.245C28.0946 48.4702 28.2313 48.6748 28.4037 48.8471C28.576 49.0195 28.7806 49.1562 29.0058 49.2494C29.231 49.3427 29.4723 49.3907 29.7161 49.3907H35.2841C35.5278 49.3907 35.7691 49.3427 35.9943 49.2494C36.2195 49.1562 36.4241 49.0195 36.5964 48.8471C36.7688 48.6748 36.9055 48.4702 36.9988 48.245C37.0921 48.0198 37.1401 47.7785 37.1401 47.5347V46.2118C37.1404 45.5602 37.312 44.9202 37.6378 44.3558C37.9636 43.7915 38.432 43.3227 38.9961 42.9965C40.9709 41.8594 42.6111 40.2219 43.7516 38.249C44.892 36.2761 45.4923 34.0375 45.4921 31.7587H19.5081Z" fill="#FFE500" stroke="#45413C" stroke-width="1.5" stroke-linecap="round" stroke-linejoin="round"/>
<path opacity="0.15" d="M25.8772 57.6602C25.8772 57.9019 26.5749 58.1337 27.8169 58.3046C29.0589 58.4755 30.7435 58.5715 32.4999 58.5715C34.2564 58.5715 35.9409 58.4755 37.1829 58.3046C38.4249 58.1337 39.1226 57.9019 39.1226 57.6602C39.1226 57.4185 38.4249 57.1867 37.1829 57.0157C35.9409 56.8448 34.2564 56.7488 32.4999 56.7488C30.7435 56.7488 29.0589 56.8448 27.8169 57.0157C26.5749 57.1867 25.8772 57.4185 25.8772 57.6602Z" fill="#45413C"/>
<path d="M35.3081 53.824H29.6921V54.7603C29.7033 55.4977 30.004 56.2011 30.5294 56.7186C31.0548 57.2362 31.7627 57.5263 32.5001 57.5263C33.2376 57.5263 33.9455 57.2362 34.4709 56.7186C34.9963 56.2011 35.297 55.4977 35.3081 54.7603V53.824Z" fill="#C0DCEB" stroke="#45413C" stroke-width="1.5" stroke-linecap="round" stroke-linejoin="round"/>
<path d="M27.8203 51.0874V51.9533C27.8204 52.199 27.8689 52.4424 27.963 52.6694C28.0571 52.8964 28.195 53.1026 28.3689 53.2764C28.5427 53.4501 28.749 53.5878 28.9761 53.6818C29.2032 53.7758 29.4466 53.8241 29.6923 53.824H35.3083C35.8046 53.824 36.2806 53.6269 36.6316 53.2759C36.9825 52.925 37.1797 52.449 37.1797 51.9527V51.0874H27.8203Z" fill="#DAEDF7" stroke="#45413C" stroke-width="1.5" stroke-linecap="round" stroke-linejoin="round"/>
<path d="M27.8203 49.5187H37.1803V51.0873H27.8203V49.5187Z" fill="#DAEDF7" stroke="#45413C" stroke-width="1.5" stroke-linecap="round" stroke-linejoin="round"/>
<path d="M27.8203 47.9501H37.1803V49.5187H27.8203V47.9501Z" fill="#DAEDF7" stroke="#45413C" stroke-width="1.5" stroke-linecap="round" stroke-linejoin="round"/>
<path d="M40.0916 33.2582H44.0026C44.9149 33.2337 45.7957 32.9192 46.5172 32.3603C47.2386 31.8013 47.7632 31.027 48.0148 30.1498C48.2657 29.3466 48.3932 28.5099 48.393 27.6685C48.393 24.0525 46.089 21.1098 43.2186 20.9901C42.7572 19.1821 41.4196 17.863 39.8266 17.863C39.2022 17.8723 38.5961 18.0753 38.0922 18.4442C36.5153 16.1754 34.1997 14.736 31.6077 14.736C28.7277 14.736 26.1933 16.5165 24.6433 19.2282C24.4647 19.2092 24.2852 19.1998 24.1057 19.2C21.5047 19.2 19.3645 21.6909 19.1341 24.8819C17.6583 25.5859 16.6068 27.3632 16.6068 29.4573C16.5675 30.423 16.9123 31.3649 17.5657 32.0771C18.2191 32.7893 19.128 33.2137 20.0935 33.2576H40.0916V33.2582Z" fill="#FFF48C"/>
<path d="M34.3227 33.2582C33.4203 31.417 33.1656 29.5808 30.1807 28.5645" stroke="#45413C" stroke-width="1.5" stroke-linecap="round" stroke-linejoin="round"/>
<path d="M40.0915 33.2582C39.6352 32.8191 39.2755 32.2894 39.0356 31.7032C38.7956 31.1171 38.6808 30.4872 38.6983 29.8541" stroke="#45413C" stroke-width="1.5" stroke-linecap="round" stroke-linejoin="round"/>
<path d="M40.5371 29.0106C39.8539 29.6256 38.9554 29.946 38.0372 29.9021C36.5492 29.9021 35.5374 28.3021 34.8231 26.3341C34.4391 25.2214 33.682 24.2758 32.6804 23.6576" stroke="#45413C" stroke-width="1.5" stroke-linecap="round" stroke-linejoin="round"/>
<path d="M24.6406 19.2282C24.6406 19.2282 27.8406 19.3786 30.0256 22.8352" stroke="#45413C" stroke-width="1.5" stroke-linecap="round" stroke-linejoin="round"/>
<path d="M27.7702 33.2582C28.1526 32.4166 28.2803 31.4815 28.1375 30.5681C27.9948 29.6548 27.5879 28.8032 26.967 28.1184" stroke="#45413C" stroke-width="1.5" stroke-linecap="round" stroke-linejoin="round"/>
<path d="M19.1343 24.8825C19.9156 24.4353 20.819 24.2484 21.7137 24.3489C22.6084 24.4495 23.4478 24.8323 24.1103 25.4419" stroke="#45413C" stroke-width="1.5" stroke-linecap="round" stroke-linejoin="round"/>
<path d="M27.3241 24.5498C27.5769 25.125 27.6769 25.7558 27.6144 26.381C27.5518 27.0062 27.3288 27.6047 26.967 28.1184C26.6291 28.7307 26.0835 29.2021 25.4286 29.4474C24.7737 29.6927 24.0527 29.6957 23.3958 29.456C21.2838 28.6759 20.5388 29.456 20.5388 29.456" stroke="#45413C" stroke-width="1.5" stroke-linecap="round" stroke-linejoin="round"/>
<path d="M43.2185 20.992C42.4163 20.8319 41.5833 20.9885 40.894 21.4291" stroke="#45413C" stroke-width="1.5" stroke-linecap="round" stroke-linejoin="round"/>
<path d="M38.0898 18.4442C36.077 19.5872 35.9835 22.9882 37.6802 24.5498C40.1724 26.8435 42.2332 23.769 44.1077 26.7802" stroke="#45413C" stroke-width="1.5" stroke-linecap="round" stroke-linejoin="round"/>
<path d="M30.1805 25.888C29.7885 24.7308 29.7885 23.4766 30.1805 22.3194C30.3942 21.5716 30.8776 20.9296 31.5373 20.5176C32.1969 20.1056 32.9859 19.9529 33.7517 20.089" stroke="#45413C" stroke-width="1.5" stroke-linecap="round" stroke-linejoin="round"/>
<path d="M40.0916 33.2582H44.0026C44.9149 33.2337 45.7957 32.9192 46.5172 32.3603C47.2386 31.8013 47.7632 31.027 48.0148 30.1498C48.2657 29.3466 48.3932 28.5099 48.393 27.6685C48.393 24.0525 46.089 21.1098 43.2186 20.9901C42.7572 19.1821 41.4196 17.863 39.8266 17.863C39.2022 17.8723 38.5961 18.0753 38.0922 18.4442C36.5153 16.1754 34.1997 14.736 31.6077 14.736C28.7277 14.736 26.1933 16.5165 24.6433 19.2282C24.4647 19.2092 24.2852 19.1998 24.1057 19.2C21.5047 19.2 19.3645 21.6909 19.1341 24.8819C17.6583 25.5859 16.6068 27.3632 16.6068 29.4573C16.5675 30.423 16.9123 31.3649 17.5657 32.0771C18.2191 32.7893 19.128 33.2137 20.0935 33.2576H40.0916V33.2582Z" stroke="#45413C" stroke-width="1.5" stroke-linecap="round" stroke-linejoin="round"/>
<path d="M32.7149 10.6534C31.8829 10.6534 30.7949 7.90976 30.7949 6.29184C30.7949 5.78203 30.9974 5.2931 31.3579 4.93261C31.7184 4.57212 32.2074 4.3696 32.7172 4.3696C33.227 4.3696 33.7159 4.57212 34.0764 4.93261C34.4369 5.2931 34.6394 5.78203 34.6394 6.29184C34.6375 7.90976 33.545 10.6534 32.7149 10.6534Z" fill="#FFF48C" stroke="#B58B00" stroke-width="1.5" stroke-linecap="round" stroke-linejoin="round"/>
<path d="M22.9166 13.3894C21.9259 13.3894 19.9585 11.8534 19.2142 10.7091C18.9365 10.2816 18.8401 9.76118 18.9461 9.26248C19.052 8.76379 19.3518 8.32762 19.7793 8.04992C20.2069 7.77223 20.7273 7.67576 21.226 7.78175C21.7247 7.88773 22.1609 8.18747 22.4385 8.61504C23.3198 9.97184 23.8977 12.8678 23.2021 13.3197C23.1155 13.3696 23.0165 13.3938 22.9166 13.3894Z" fill="#FFF48C" stroke="#B58B00" stroke-width="1.5" stroke-linecap="round" stroke-linejoin="round"/>
<path d="M14.8551 21.2589C13.8486 21.2648 12.85 21.0818 11.911 20.7194C11.6804 20.6167 11.4723 20.4696 11.2985 20.2865C11.1247 20.1034 10.9887 19.8879 10.8982 19.6522C10.8077 19.4165 10.7646 19.1654 10.7712 18.913C10.7778 18.6606 10.834 18.4121 10.9367 18.1814C11.0393 17.9508 11.1864 17.7427 11.3695 17.5689C11.5526 17.3951 11.7681 17.2591 12.0038 17.1686C12.4798 16.9859 13.0088 16.9997 13.4746 17.207C14.3368 17.6416 15.1122 18.2303 15.7626 18.944C16.4762 19.712 16.8256 20.3981 16.6746 20.736C16.5319 21.056 15.8349 21.2589 14.8551 21.2589Z" fill="#FFF48C" stroke="#B58B00" stroke-width="1.5" stroke-linecap="round" stroke-linejoin="round"/>
<path d="M10.9319 33.1175C10.4425 33.1267 9.96809 32.9487 9.60557 32.6199C9.24305 32.291 9.01981 31.8361 8.98149 31.3481C8.94316 30.8602 9.09264 30.376 9.39937 29.9946C9.7061 29.6132 10.1469 29.3633 10.6317 29.296C10.886 29.2587 11.1427 29.2409 11.3997 29.2429C13.0375 29.2429 15.129 29.8291 15.2397 30.5126C15.3677 31.3318 12.8308 32.8403 11.2327 33.0931C11.1333 33.1094 11.0327 33.1175 10.9319 33.1175Z" fill="#FFF48C" stroke="#B58B00" stroke-width="1.5" stroke-linecap="round" stroke-linejoin="round"/>
<path d="M54.0678 32.496C54.0003 32.4959 53.9328 32.4922 53.8656 32.4851C52.9107 32.3382 51.9907 32.0176 51.1513 31.5392C50.2349 31.0272 49.6902 30.4851 49.7293 30.1171C49.8073 29.3702 52.1363 28.64 53.8169 28.64C53.9666 28.6395 54.1161 28.6468 54.2649 28.6618C54.7673 28.6966 55.2358 28.9273 55.5696 29.3042C55.9034 29.6812 56.0758 30.1742 56.0496 30.677C56.0235 31.1799 55.8008 31.6523 55.4296 31.9925C55.0584 32.3328 54.5685 32.5136 54.0653 32.496H54.0678Z" fill="#FFF48C" stroke="#B58B00" stroke-width="1.5" stroke-linecap="round" stroke-linejoin="round"/>
<path d="M49.5655 20.8128C48.7687 20.8128 48.21 20.6496 48.0711 20.377C47.6942 19.6378 49.643 17.4189 51.0843 16.6842C51.3092 16.5695 51.5545 16.5003 51.8062 16.4805C52.0579 16.4607 52.3111 16.4906 52.5512 16.5686C52.7913 16.6466 53.0137 16.7711 53.2057 16.9351C53.3977 17.099 53.5555 17.2992 53.6702 17.5242C53.7848 17.7491 53.854 17.9944 53.8739 18.2461C53.8937 18.4978 53.8637 18.751 53.7857 18.9911C53.7077 19.2312 53.5832 19.4536 53.4192 19.6456C53.2553 19.8376 53.0551 19.9954 52.8302 20.1101C51.8021 20.5671 50.6906 20.8063 49.5655 20.8128Z" fill="#FFF48C" stroke="#B58B00" stroke-width="1.5" stroke-linecap="round" stroke-linejoin="round"/>
<path d="M41.6211 13.1674C41.5361 13.1705 41.4517 13.1511 41.3767 13.111C41.0567 12.9261 40.9357 12.1651 41.0618 11.127C41.1687 10.1666 41.4507 9.23386 41.8938 8.37505C42.149 7.93442 42.5685 7.61292 43.0603 7.48096C43.5522 7.34901 44.0763 7.41736 44.5178 7.67105C44.9585 7.92618 45.2802 8.34566 45.4121 8.83754C45.5441 9.32942 45.4756 9.85356 45.2218 10.295C44.5319 11.497 42.5856 13.1674 41.6211 13.1674Z" fill="#FFF48C" stroke="#B58B00" stroke-width="1.5" stroke-linecap="round" stroke-linejoin="round"/>
</svg>

