<svg
  viewBox="0 0 122 121"
  fill="none"
  xmlns="http://www.w3.org/2000/svg"
>
  <path
    d="M116.173 66.1467C116.174 57.959 114.332 49.8749 110.782 42.4873C107.232 35.0997 102.064 28.5959 95.6565 23.4528C89.2494 18.3098 81.7658 14.6581 73.7546 12.7653C65.7434 10.8726 57.4077 10.7869 49.3588 12.5146C41.3099 14.2422 33.752 17.7394 27.2394 22.7496C20.7268 27.7598 15.4246 34.156 11.7216 41.4691C8.01868 48.7822 6.00894 56.8267 5.83977 65.0127C5.6706 73.1986 7.34631 81.3184 10.744 88.7766H111.257C114.503 81.6692 116.179 73.9526 116.173 66.1467Z"
    fill="#C7F0FF"
  />
  <path
    d="M10.7422 88.7765C15.1183 98.3825 22.1861 106.531 31.0992 112.246C40.0124 117.961 50.3932 121 60.9987 121C71.6043 121 81.9851 117.961 90.8982 112.246C99.8114 106.531 106.879 98.3825 111.255 88.7765H10.7422Z"
    fill="#F0D3A8"
  />
  <path
    d="M7.20703 88.7765H114.793"
    stroke="#45413C"
    stroke-width="1.4"
    stroke-linecap="round"
    stroke-linejoin="round"
  />
  <path
    d="M1 88.7765H4.44828"
    stroke="#45413C"
    stroke-width="1.4"
    stroke-linecap="round"
    stroke-linejoin="round"
  />
  <path
    d="M117.553 88.7765H121.001"
    stroke="#45413C"
    stroke-width="1.4"
    stroke-linecap="round"
    stroke-linejoin="round"
  />
  <path
    d="M73.4139 16.7723C73.415 15.2307 73.0428 13.7114 72.3287 12.343C71.6146 10.9746 70.5796 9.79737 69.3112 8.91079C68.0428 8.02422 66.5783 7.45442 65.0417 7.24957C63.505 7.04471 61.9413 7.21084 60.4828 7.7339C59.0244 8.25696 57.7141 9.12156 56.6627 10.2546C55.6113 11.3876 54.8498 12.7557 54.4425 14.2433C54.0353 15.7308 53.9943 17.2939 54.323 18.8005C54.6518 20.3071 55.3405 21.7129 56.3311 22.8988C57.5669 24.376 58.2428 26.2371 58.2414 28.1586V31.8616C58.2414 32.5891 58.5321 33.2868 59.0494 33.8012C59.5668 34.3157 60.2684 34.6047 61.0001 34.6047H66.5173C67.2489 34.6047 67.9506 34.3157 68.4679 33.8012C68.9853 33.2868 69.2759 32.5891 69.2759 31.8616V28.1586C69.2757 26.2373 69.9515 24.3766 71.1863 22.8988C72.6284 21.1796 73.4169 19.0111 73.4139 16.7723Z"
    fill="#FFE500"
  />
  <path
    d="M63.7587 11.2864C65.9578 11.2873 68.0907 12.0347 69.8045 13.4049C71.5183 14.7751 72.7104 16.686 73.1835 18.8214C73.4975 17.4179 73.4904 15.9622 73.1628 14.5618C72.8352 13.1613 72.1954 11.852 71.2907 10.7303C70.3861 9.60866 69.2396 8.70338 67.9359 8.08133C66.6322 7.45927 65.2047 7.13632 63.7587 7.13632C62.3127 7.13632 60.8852 7.45927 59.5815 8.08133C58.2778 8.70338 57.1313 9.60866 56.2266 10.7303C55.3219 11.852 54.6822 13.1613 54.3546 14.5618C54.027 15.9622 54.0199 17.4179 54.3339 18.8214C54.807 16.686 55.9991 14.7751 57.7129 13.4049C59.4267 12.0347 61.5596 11.2873 63.7587 11.2864Z"
    fill="#FFF48C"
  />
  <path
    d="M73.4139 16.7723C73.415 15.2307 73.0428 13.7114 72.3287 12.343C71.6146 10.9746 70.5796 9.79737 69.3112 8.91079C68.0428 8.02422 66.5783 7.45442 65.0417 7.24957C63.505 7.04471 61.9413 7.21084 60.4828 7.7339C59.0244 8.25696 57.7141 9.12156 56.6627 10.2546C55.6113 11.3876 54.8498 12.7557 54.4425 14.2433C54.0353 15.7308 53.9943 17.2939 54.323 18.8005C54.6518 20.3071 55.3405 21.7129 56.3311 22.8988C57.5669 24.376 58.2428 26.2371 58.2414 28.1586V31.8616C58.2414 32.5891 58.5321 33.2868 59.0494 33.8012C59.5668 34.3157 60.2684 34.6047 61.0001 34.6047H66.5173C67.2489 34.6047 67.9506 34.3157 68.4679 33.8012C68.9853 33.2868 69.2759 32.5891 69.2759 31.8616V28.1586C69.2757 26.2373 69.9515 24.3766 71.1863 22.8988C72.6284 21.1796 73.4169 19.0111 73.4139 16.7723V16.7723Z"
    stroke="#45413C"
    stroke-width="1.4"
    stroke-linejoin="round"
  />
  <path
    d="M58.2402 30.4874V31.8589C58.2402 32.5864 58.5309 33.2841 59.0482 33.7985C59.5656 34.313 60.2672 34.602 60.9989 34.602H66.5161C67.2477 34.602 67.9494 34.313 68.4667 33.7985C68.9841 33.2841 69.2747 32.5864 69.2747 31.8589V30.4874H58.2402Z"
    fill="#8CA4B8"
    stroke="#45413C"
    stroke-width="1.4"
    stroke-linejoin="round"
  />
  <path
    d="M66.5172 35.2878C66.5172 36.0153 66.2266 36.713 65.7093 37.2274C65.1919 37.7418 64.4903 38.0308 63.7586 38.0308C63.027 38.0308 62.3253 37.7418 61.808 37.2274C61.2906 36.713 61 36.0153 61 35.2878V34.602H66.5172V35.2878Z"
    fill="#8CA4B8"
    stroke="#45413C"
    stroke-width="1.4"
    stroke-linejoin="round"
  />
  <path
    d="M63.7578 3.74302V1"
    stroke="#45413C"
    stroke-width="1.4"
    stroke-linecap="round"
    stroke-linejoin="round"
  />
  <path
    d="M73.0234 7.55995L74.9752 5.61926"
    stroke="#45413C"
    stroke-width="1.4"
    stroke-linecap="round"
    stroke-linejoin="round"
  />
  <path
    d="M76.8613 16.7723H79.6199"
    stroke="#45413C"
    stroke-width="1.4"
    stroke-linecap="round"
    stroke-linejoin="round"
  />
  <path
    d="M54.4914 7.55995L52.541 5.61926"
    stroke="#45413C"
    stroke-width="1.4"
    stroke-linecap="round"
    stroke-linejoin="round"
  />
  <path
    d="M50.6551 16.7723H47.8965"
    stroke="#45413C"
    stroke-width="1.4"
    stroke-linecap="round"
    stroke-linejoin="round"
  />
  <path
    d="M49.9657 78.4903C49.9657 72.8522 47.7132 67.445 43.7038 63.4583C39.6944 59.4716 34.2565 57.2319 28.5863 57.2319C22.9162 57.2319 17.4783 59.4716 13.4689 63.4583C9.45949 67.445 7.20703 72.8522 7.20703 78.4903V88.7766H49.9657V78.4903Z"
    fill="#F0F0F0"
  />
  <path
    d="M28.5863 57.2319C22.9162 57.2319 17.4783 59.4716 13.4689 63.4583C9.45949 67.445 7.20703 72.8522 7.20703 78.4903V84.662C7.20703 79.024 9.45949 73.6168 13.4689 69.6301C17.4783 65.6434 22.9162 63.4037 28.5863 63.4037C34.2565 63.4037 39.6944 65.6434 43.7038 69.6301C47.7132 73.6168 49.9657 79.024 49.9657 84.662V78.4903C49.9657 72.8522 47.7132 67.445 43.7038 63.4583C39.6944 59.4716 34.2565 57.2319 28.5863 57.2319Z"
    fill="white"
  />
  <path
    d="M49.9657 78.4903C49.9657 72.8522 47.7132 67.445 43.7038 63.4583C39.6944 59.4716 34.2565 57.2319 28.5863 57.2319C22.9162 57.2319 17.4783 59.4716 13.4689 63.4583C9.45949 67.445 7.20703 72.8522 7.20703 78.4903V88.7766H49.9657V78.4903Z"
    stroke="#45413C"
    stroke-width="1.4"
    stroke-linecap="round"
    stroke-linejoin="round"
  />
  <path
    d="M41.6895 73.0042V88.7766"
    stroke="#45413C"
    stroke-width="1.4"
    stroke-linecap="round"
    stroke-linejoin="round"
  />
  <path
    d="M33.4134 95.6341C33.4134 96.5434 33.0501 97.4156 32.4034 98.0586C31.7567 98.7016 30.8797 99.0628 29.9651 99.0628H22.3789V92.2053H29.9651C30.8797 92.2053 31.7567 92.5665 32.4034 93.2096C33.0501 93.8526 33.4134 94.7247 33.4134 95.6341Z"
    fill="#D18660"
    stroke="#45413C"
    stroke-width="1.4"
    stroke-linecap="round"
    stroke-linejoin="round"
  />
  <path
    d="M15.4829 87.5188C15.4829 88.0442 15.587 88.5644 15.7892 89.0498C15.9914 89.5352 16.2877 89.9762 16.6613 90.3477C17.0349 90.7192 17.4785 91.0139 17.9666 91.215C18.4548 91.416 18.978 91.5195 19.5063 91.5195H25.1381C25.5039 91.5195 25.8547 91.664 26.1134 91.9212C26.3721 92.1784 26.5174 92.5273 26.5174 92.891V98.3771C26.5174 98.7408 26.3721 99.0897 26.1134 99.3469C25.8547 99.6041 25.5039 99.7486 25.1381 99.7486H19.5063C16.2444 99.7486 13.116 98.4601 10.8094 96.1666C8.50285 93.873 7.20703 90.7624 7.20703 87.5188H15.4829Z"
    fill="#F0F0F0"
  />
  <path
    d="M15.4829 73.0042V87.5189C15.4829 88.0443 15.587 88.5645 15.7892 89.0499C15.9914 89.5353 16.2877 89.9763 16.6613 90.3478C17.0349 90.7193 17.4785 91.014 17.9666 91.215C18.4548 91.4161 18.978 91.5196 19.5063 91.5196H25.1381C25.5039 91.5196 25.8547 91.6641 26.1134 91.9213C26.3721 92.1785 26.5174 92.5273 26.5174 92.8911V98.3771C26.5174 98.7409 26.3721 99.0897 26.1134 99.3469C25.8547 99.6041 25.5039 99.7486 25.1381 99.7486H19.5063C16.2444 99.7486 13.116 98.4601 10.8094 96.1666C8.50285 93.8731 7.20703 90.7624 7.20703 87.5189"
    stroke="#45413C"
    stroke-width="1.4"
    stroke-linecap="round"
    stroke-linejoin="round"
  />
  <path
    d="M38.93 77.8045H34.4473"
    stroke="#45413C"
    stroke-width="1.4"
    stroke-linecap="round"
    stroke-linejoin="round"
  />
  <path
    d="M25.1387 65.461H32.0352L30.9166 69.9088C30.8419 70.2053 30.6696 70.4686 30.4272 70.6567C30.1848 70.8448 29.8862 70.947 29.5787 70.947H27.5952C27.2877 70.947 26.9891 70.8448 26.7467 70.6567C26.5043 70.4686 26.332 70.2053 26.2573 69.9088L25.1387 65.461Z"
    fill="#FFE500"
    stroke="#45413C"
    stroke-width="1.4"
    stroke-linecap="round"
    stroke-linejoin="round"
  />
  <path
    d="M27.2076 70.947L25.1387 88.7766H32.0352L29.9663 70.947H27.2076Z"
    fill="#FFE500"
    stroke="#45413C"
    stroke-width="1.4"
    stroke-linecap="round"
    stroke-linejoin="round"
  />
  <path
    d="M28.5849 58.8997V67.152L23.0897 69.8745L21.9862 70.4231C21.7918 70.5204 21.5769 70.5705 21.3592 70.5694C21.1415 70.5683 20.9272 70.516 20.7337 70.4168C20.5403 70.3175 20.3732 70.1741 20.2462 69.9983C20.1191 69.8226 20.0357 69.6194 20.0028 69.4054L19.1531 63.8947C18.9431 62.6697 19.1082 61.4102 19.6272 60.2798C20.1462 59.1494 20.995 58.2002 22.0635 57.5556C22.2878 57.4216 22.5283 57.3165 22.7793 57.2429C23.5766 57.044 24.4055 58.5787 25.2524 58.4772L28.5849 58.8997Z"
    fill="#F0F0F0"
    stroke="#45413C"
    stroke-width="1.4"
    stroke-linecap="round"
    stroke-linejoin="round"
  />
  <path
    d="M38.0204 63.9152L37.1735 69.4122C37.1406 69.6262 37.0572 69.8293 36.9301 70.0051C36.8031 70.1809 36.636 70.3243 36.4426 70.4235C36.2491 70.5228 36.0348 70.5751 35.8171 70.5762C35.5994 70.5773 35.3845 70.5271 35.1901 70.4298L34.0866 69.8812L28.5859 67.1519V58.8996L31.9211 58.4881C32.768 58.5869 33.597 57.0521 34.3942 57.2538C34.668 57.3341 34.9297 57.4508 35.1721 57.6007C36.2222 58.2547 37.0535 59.2038 37.5605 60.3279C38.0676 61.452 38.2276 62.7005 38.0204 63.9152Z"
    fill="#F0F0F0"
    stroke="#45413C"
    stroke-width="1.4"
    stroke-linecap="round"
    stroke-linejoin="round"
  />
  <path
    d="M33.413 60.6606L28.5854 65.4609L23.7578 60.6606V53.1173H33.413V60.6606Z"
    fill="#D18660"
    stroke="#45413C"
    stroke-width="1.4"
    stroke-linecap="round"
    stroke-linejoin="round"
  />
  <path
    d="M23.7578 57.8984C26.9068 58.8383 30.264 58.8383 33.413 57.8984V53.1173H23.7578V57.8984Z"
    fill="#BD704A"
  />
  <path
    d="M33.413 60.6606L28.5854 65.4609L23.7578 60.6606V53.1173H33.413V60.6606Z"
    stroke="#45413C"
    stroke-width="1.4"
    stroke-linecap="round"
    stroke-linejoin="round"
  />
  <path
    d="M33.413 60.6606L28.5854 65.4609L23.7578 60.6606V53.1173H33.413V60.6606Z"
    stroke="#45413C"
    stroke-width="1.4"
    stroke-linecap="round"
    stroke-linejoin="round"
  />
  <path
    d="M98.9319 56.5474C94.2733 56.5217 89.7437 58.0674 86.0827 60.9321C82.4218 63.7969 79.846 67.8113 78.776 72.3198C78.7184 72.5786 78.7392 72.8487 78.836 73.0958C78.9327 73.3428 79.101 73.5558 79.3195 73.7078C81.3283 75.1569 83.4499 76.4447 85.6643 77.559C85.9149 77.6632 86.1289 77.8387 86.2796 78.0634C86.4302 78.2881 86.5108 78.552 86.5112 78.8221V88.7765H111.339V78.8153C111.339 78.5452 111.42 78.2812 111.57 78.0565C111.721 77.8318 111.935 77.6563 112.186 77.5521C114.4 76.4379 116.522 75.1501 118.531 73.7009C118.749 73.5487 118.917 73.3357 119.014 73.0887C119.11 72.8417 119.131 72.5718 119.074 72.3129C118.003 67.8081 115.429 63.7969 111.771 60.9337C108.113 58.0706 103.587 56.5244 98.9319 56.5474Z"
    fill="#FFB0CA"
  />
  <path
    d="M97.5508 62.6233V88.7766"
    stroke="#FF87AF"
    stroke-width="1.4"
    stroke-linecap="round"
    stroke-linejoin="round"
  />
  <path
    d="M100.311 62.6233V88.7766"
    stroke="#FF87AF"
    stroke-width="1.4"
    stroke-linecap="round"
    stroke-linejoin="round"
  />
  <path
    d="M79.3195 73.7009L79.5622 73.871C81.0726 69.9825 83.7313 66.6397 87.1886 64.2822C90.6458 61.9247 94.7398 60.663 98.9319 60.663C103.124 60.663 107.218 61.9247 110.675 64.2822C114.133 66.6397 116.791 69.9825 118.302 73.871L118.544 73.7009C118.763 73.5487 118.931 73.3357 119.027 73.0887C119.124 72.8417 119.145 72.5718 119.088 72.3129C117.992 67.8185 115.409 63.8206 111.754 60.9615C108.099 58.1024 103.583 56.548 98.9319 56.548C94.2811 56.548 89.7652 58.1024 86.1098 60.9615C82.4543 63.8206 79.8714 67.8185 78.776 72.3129C78.7184 72.5718 78.7392 72.8418 78.836 73.0889C78.9327 73.336 79.101 73.5489 79.3195 73.7009Z"
    fill="#FFCCDD"
  />
  <path
    d="M98.9319 56.5474C94.2733 56.5217 89.7437 58.0674 86.0827 60.9321C82.4218 63.7969 79.846 67.8113 78.776 72.3198C78.7184 72.5786 78.7392 72.8487 78.836 73.0958C78.9327 73.3428 79.101 73.5558 79.3195 73.7078C81.3283 75.1569 83.4499 76.4447 85.6643 77.559C85.9149 77.6632 86.1289 77.8387 86.2796 78.0634C86.4302 78.2881 86.5108 78.552 86.5112 78.8221V88.7765H111.339V78.8153C111.339 78.5452 111.42 78.2812 111.57 78.0565C111.721 77.8318 111.935 77.6563 112.186 77.5521C114.4 76.4379 116.522 75.1501 118.531 73.7009C118.749 73.5487 118.917 73.3357 119.014 73.0887C119.11 72.8417 119.131 72.5718 119.074 72.3129C118.003 67.8081 115.429 63.7969 111.771 60.9337C108.113 58.0706 103.587 56.5244 98.9319 56.5474V56.5474Z"
    stroke="#45413C"
    stroke-width="1.4"
    stroke-linecap="round"
    stroke-linejoin="round"
  />
  <path
    d="M94.1035 60.6606H98.9311H103.759V53.1173H94.1035V60.6606Z"
    fill="#FFDA8F"
    stroke="#45413C"
    stroke-width="1.4"
    stroke-linecap="round"
    stroke-linejoin="round"
  />
  <path
    d="M103.759 57.2318C100.61 58.1718 97.2525 58.1718 94.1035 57.2318V53.1173H103.759V57.2318Z"
    fill="#FFBE3D"
  />
  <path
    d="M94.1035 60.6606H98.9311H103.759V53.1173H94.1035V60.6606Z"
    stroke="#45413C"
    stroke-width="1.4"
    stroke-linecap="round"
    stroke-linejoin="round"
  />
  <path
    d="M106.518 58.6034V62.7179"
    stroke="#45413C"
    stroke-width="1.4"
    stroke-linecap="round"
    stroke-linejoin="round"
  />
  <path
    d="M91.3438 62.7179V58.6034"
    stroke="#45413C"
    stroke-width="1.4"
    stroke-linecap="round"
    stroke-linejoin="round"
  />
  <path
    d="M98.9319 62.7179C98.9319 62.7179 92.725 63.4036 94.1043 65.4609C94.6077 66.2111 95.3871 66.0493 96.1733 65.5405C97.2293 64.7418 98.1592 63.7904 98.9319 62.7179Z"
    stroke="#45413C"
    stroke-width="1.4"
    stroke-linecap="round"
    stroke-linejoin="round"
  />
  <path
    d="M98.9322 62.7179C97.7113 66.4919 97.0152 70.4142 96.8633 74.3757"
    stroke="#45413C"
    stroke-width="1.4"
    stroke-linecap="round"
    stroke-linejoin="round"
  />
  <path
    d="M98.9316 62.7179C98.9316 62.7179 105.139 63.4036 103.759 65.4609C103.256 66.2111 102.476 66.0493 101.69 65.5405C100.634 64.7418 99.7043 63.7904 98.9316 62.7179V62.7179Z"
    stroke="#45413C"
    stroke-width="1.4"
    stroke-linecap="round"
    stroke-linejoin="round"
  />
  <path
    d="M98.9316 62.7179C100.153 66.4919 100.849 70.4142 101.001 74.3757"
    stroke="#45413C"
    stroke-width="1.4"
    stroke-linecap="round"
    stroke-linejoin="round"
  />
  <path
    d="M85.8281 68.8897L86.5178 79.176"
    stroke="#45413C"
    stroke-width="1.4"
    stroke-linecap="round"
    stroke-linejoin="round"
  />
  <path
    d="M80.5703 74.5595L81.6972 72.3185"
    stroke="#45413C"
    stroke-width="1.4"
    stroke-linecap="round"
    stroke-linejoin="round"
  />
  <path
    d="M112.035 68.8897L111.346 79.176"
    stroke="#45413C"
    stroke-width="1.4"
    stroke-linecap="round"
    stroke-linejoin="round"
  />
  <path d="M117.3 74.5527L116.178 72.3185L117.3 74.5527Z" fill="#C8FFA1" />
  <path
    d="M117.3 74.5527L116.178 72.3185"
    stroke="#45413C"
    stroke-width="1.4"
    stroke-linecap="round"
    stroke-linejoin="round"
  />
  <path
    d="M112.193 77.5522C111.942 77.6564 111.728 77.8319 111.577 78.0566C111.427 78.2813 111.346 78.5452 111.346 78.8153V88.7766H118.242V73.9135C116.324 75.2814 114.301 76.4979 112.193 77.5522Z"
    fill="#FFDA8F"
    stroke="#45413C"
    stroke-width="1.4"
    stroke-linecap="round"
    stroke-linejoin="round"
  />
  <path
    d="M86.5161 78.8153C86.5157 78.5452 86.4351 78.2813 86.2845 78.0566C86.1338 77.8319 85.9198 77.6564 85.6692 77.5521C83.5604 76.4989 81.5377 75.2833 79.6196 73.9163V82.6048C79.6196 82.9685 79.4742 83.3174 79.2156 83.5746C78.9569 83.8318 78.6061 83.9763 78.2402 83.9763C77.8744 83.9763 77.5236 83.8318 77.2649 83.5746C77.0063 83.3174 76.8609 82.9685 76.8609 82.6048V71.6327L78.094 71.0196C78.5524 70.7919 78.9379 70.4417 79.2074 70.0083C79.4768 69.5749 79.6195 69.0755 79.6196 68.566V68.2039C79.6196 67.4764 79.3289 66.7787 78.8116 66.2643C78.2942 65.7499 77.5926 65.4609 76.8609 65.4609V57.9176C76.8609 57.372 76.643 56.8487 76.255 56.4629C75.8669 56.0771 75.3407 55.8604 74.792 55.8604C74.2432 55.8604 73.717 56.0771 73.329 56.4629C72.941 56.8487 72.723 57.372 72.723 57.9176V63.966L70.3451 64.5543C69.6875 64.7631 69.1392 65.2215 68.8195 65.8298C68.4998 66.4382 68.4344 67.1474 68.6375 67.8034L68.9699 69.1338C69.1311 69.7991 69.5215 70.3872 70.0733 70.7961C70.0209 71.6615 69.9671 72.3843 69.9671 72.6024V73.69V82.6048C69.9674 84.4926 70.6204 86.3229 71.8166 87.7888C73.0128 89.2547 74.6796 90.2671 76.5374 90.6562C78.3952 91.0452 80.331 90.7873 82.0202 89.9257C83.7095 89.0641 85.0494 87.6512 85.8154 85.9238C86.272 84.9 86.5106 83.7933 86.5161 82.6733V78.8153Z"
    fill="#FFDA8F"
    stroke="#45413C"
    stroke-width="1.4"
    stroke-linecap="round"
    stroke-linejoin="round"
  />
  <path
    d="M70.6327 71.2088L74.1927 70.3283C74.8498 70.119 75.3974 69.6604 75.7166 69.0521C76.0357 68.4438 76.1008 67.7349 75.8975 67.0792L75.5651 65.7489C75.4354 65.0757 75.0442 64.4804 74.4763 64.092C73.9083 63.7036 73.2093 63.5533 72.5306 63.6738L68.972 64.5543C68.3144 64.7631 67.7662 65.2214 67.4465 65.8298C67.1267 66.4381 67.0613 67.1473 67.2644 67.8034L67.5969 69.1337C67.7265 69.8072 68.1179 70.4028 68.6862 70.7912C69.2545 71.1796 69.9539 71.3297 70.6327 71.2088Z"
    fill="#FFDA8F"
    stroke="#45413C"
    stroke-width="1.4"
    stroke-linecap="round"
    stroke-linejoin="round"
  />
  <path
    d="M98.9315 62.7179C93.3164 62.7179 91.5619 59.3591 91.4902 59.2164C91.4075 59.0552 91.3578 58.8792 91.3439 58.6987C91.33 58.5182 91.3521 58.3368 91.409 58.1649C91.466 57.993 91.5566 57.8339 91.6756 57.697C91.7946 57.56 91.9397 57.4479 92.1026 57.367C92.2654 57.286 92.4428 57.238 92.6244 57.2255C92.806 57.2131 92.9883 57.2365 93.1607 57.2945C93.3332 57.3524 93.4924 57.4438 93.6292 57.5632C93.766 57.6826 93.8776 57.8278 93.9577 57.9903C93.9909 58.0479 95.1095 59.9749 98.9315 59.9749C102.754 59.9749 103.872 58.0479 103.918 57.9656C104.093 57.6507 104.385 57.4161 104.732 57.3111C105.078 57.2062 105.452 57.2393 105.774 57.4033C106.094 57.5667 106.335 57.8486 106.447 58.188C106.559 58.5274 106.532 58.8968 106.372 59.2164C106.301 59.3577 104.547 62.7179 98.9315 62.7179Z"
    fill="#FFB0CA"
    stroke="#45413C"
    stroke-width="1.4"
    stroke-linejoin="round"
  />
  <path
    d="M42.378 38.7165V35.2877C42.378 31.6503 40.9248 28.1618 38.3381 25.5897C35.7514 23.0176 32.2431 21.5726 28.5849 21.5726C24.9268 21.5726 21.4184 23.0176 18.8317 25.5897C16.245 28.1618 14.7918 31.6503 14.7918 35.2877V38.7165C14.0602 38.7165 13.3585 39.0055 12.8412 39.5199C12.3238 40.0343 12.0332 40.732 12.0332 41.4595C12.0332 42.187 12.3238 42.8847 12.8412 43.3991C13.3585 43.9135 14.0602 44.2025 14.7918 44.2025C14.8498 44.2025 14.9035 44.1888 14.9601 44.1847C15.4476 47.4309 17.0911 50.3952 19.5917 52.5379C22.0922 54.6806 25.2833 55.8592 28.5842 55.8592C31.8851 55.8592 35.0763 54.6806 37.5768 52.5379C40.0773 50.3952 41.7209 47.4309 42.2084 44.1847C42.2663 44.1847 42.3201 44.2025 42.378 44.2025C43.1097 44.2025 43.8113 43.9135 44.3287 43.3991C44.846 42.8847 45.1367 42.187 45.1367 41.4595C45.1367 40.732 44.846 40.0343 44.3287 39.5199C43.8113 39.0055 43.1097 38.7165 42.378 38.7165Z"
    fill="#D18660"
    stroke="#45413C"
    stroke-width="1.4"
    stroke-linecap="round"
    stroke-linejoin="round"
  />
  <path
    d="M24.4238 48.0373C25.5424 49.0972 27.0283 49.6884 28.5735 49.6884C30.1186 49.6884 31.6045 49.0972 32.7231 48.0373"
    stroke="#45413C"
    stroke-width="1.4"
    stroke-linecap="round"
    stroke-linejoin="round"
  />
  <path
    d="M18.9297 44.5453C18.9297 45 19.1113 45.4361 19.4347 45.7576C19.758 46.0791 20.1966 46.2597 20.6538 46.2597C21.1111 46.2597 21.5496 46.0791 21.873 45.7576C22.1963 45.4361 22.378 45 22.378 44.5453C22.378 44.0907 22.1963 43.6546 21.873 43.3331C21.5496 43.0116 21.1111 42.831 20.6538 42.831C20.1966 42.831 19.758 43.0116 19.4347 43.3331C19.1113 43.6546 18.9297 44.0907 18.9297 44.5453Z"
    fill="#BD704A"
  />
  <path
    d="M34.793 44.5453C34.793 45 34.9746 45.4361 35.298 45.7576C35.6213 46.0791 36.0598 46.2597 36.5171 46.2597C36.9744 46.2597 37.4129 46.0791 37.7363 45.7576C38.0596 45.4361 38.2412 45 38.2412 44.5453C38.2412 44.0907 38.0596 43.6546 37.7363 43.3331C37.4129 43.0116 36.9744 42.831 36.5171 42.831C36.0598 42.831 35.6213 43.0116 35.298 43.3331C34.9746 43.6546 34.793 44.0907 34.793 44.5453Z"
    fill="#BD704A"
  />
  <path
    d="M36.1724 40.088C36.0019 39.6806 35.7139 39.3325 35.3447 39.0876C34.9755 38.8427 34.5417 38.7121 34.0979 38.7121C33.6541 38.7121 33.2203 38.8427 32.8511 39.0876C32.4819 39.3325 32.1939 39.6806 32.0234 40.088"
    stroke="#45413C"
    stroke-width="1.4"
    stroke-linecap="round"
    stroke-linejoin="round"
  />
  <path
    d="M25.149 40.088C24.9785 39.6806 24.6905 39.3325 24.3213 39.0876C23.9521 38.8427 23.5183 38.7121 23.0745 38.7121C22.6307 38.7121 22.1969 38.8427 21.8277 39.0876C21.4585 39.3325 21.1705 39.6806 21 40.088"
    stroke="#45413C"
    stroke-width="1.4"
    stroke-linecap="round"
    stroke-linejoin="round"
  />
  <path
    d="M29.2759 20.2011C25.252 20.2011 21.3928 21.7906 18.5474 24.6199C15.702 27.4492 14.1035 31.2865 14.1035 35.2877V38.7165H14.149C15.1601 38.7162 16.1452 38.3976 16.9629 37.8062C17.7806 37.2149 18.389 36.3812 18.7008 35.4249L19.8787 31.8109C19.9349 31.6396 20.0246 31.481 20.1425 31.3441C20.2605 31.2072 20.4044 31.0948 20.5661 31.0133C20.7277 30.9318 20.904 30.8827 21.0847 30.869C21.2654 30.8552 21.4471 30.877 21.6194 30.9332C24.089 31.8036 26.6635 32.3455 29.2759 32.5447C32.3418 32.2504 35.3559 31.5588 38.2414 30.4874L39.9077 35.4605C40.2252 36.4084 40.8346 37.2328 41.6495 37.8172C42.4644 38.4016 43.4436 38.7162 44.4483 38.7165V35.2877C44.4483 31.2865 42.8498 27.4492 40.0044 24.6199C37.1591 21.7906 33.2999 20.2011 29.2759 20.2011Z"
    fill="#614B44"
  />
  <path
    d="M29.2759 20.2011C25.252 20.2011 21.3928 21.7906 18.5474 24.6199C15.702 27.4492 14.1035 31.2865 14.1035 35.2877V38.7165C14.1035 34.7153 15.702 30.8779 18.5474 28.0486C21.3928 25.2194 25.252 23.6299 29.2759 23.6299C33.2999 23.6299 37.1591 25.2194 40.0044 28.0486C42.8498 30.8779 44.4483 34.7153 44.4483 38.7165V35.2877C44.4483 31.2865 42.8498 27.4492 40.0044 24.6199C37.1591 21.7906 33.2999 20.2011 29.2759 20.2011Z"
    fill="#947063"
  />
  <path
    d="M29.2759 20.2011C25.252 20.2011 21.3928 21.7906 18.5474 24.6199C15.702 27.4492 14.1035 31.2865 14.1035 35.2877V38.7165H14.149C15.1601 38.7162 16.1452 38.3976 16.9629 37.8062C17.7806 37.2149 18.389 36.3812 18.7008 35.4249L19.8787 31.8109C19.9349 31.6396 20.0246 31.481 20.1425 31.3441C20.2605 31.2072 20.4044 31.0948 20.5661 31.0133C20.7277 30.9318 20.904 30.8827 21.0847 30.869C21.2654 30.8552 21.4471 30.877 21.6194 30.9332C24.089 31.8036 26.6635 32.3455 29.2759 32.5447C32.3418 32.2504 35.3559 31.5588 38.2414 30.4874L39.9077 35.4605C40.2252 36.4084 40.8346 37.2328 41.6495 37.8172C42.4644 38.4016 43.4436 38.7162 44.4483 38.7165V38.7165V35.2877C44.4483 31.2865 42.8498 27.4492 40.0044 24.6199C37.1591 21.7906 33.2999 20.2011 29.2759 20.2011Z"
    stroke="#45413C"
    stroke-width="1.4"
    stroke-linecap="round"
    stroke-linejoin="round"
  />
  <path
    d="M45.8274 38.7165C45.8274 38.7165 40.3101 40.0881 36.1722 33.2305C36.1722 33.2305 35.4826 36.6593 32.7239 36.6593C32.7239 36.6593 34.7929 32.5448 29.2757 32.5448C27.2637 32.5448 25.3341 31.75 23.9114 30.3354C22.4887 28.9207 21.6895 27.0021 21.6895 25.0015C21.6895 23.0009 22.4887 21.0822 23.9114 19.6675C25.3341 18.2529 27.2637 17.4582 29.2757 17.4582C29.2757 17.4582 40.3101 17.4582 45.1377 27.0587C45.1377 27.0587 47.2067 31.1732 45.8274 38.7165Z"
    fill="#614B44"
  />
  <path
    d="M29.2758 21.5726C29.2758 21.5726 40.3102 21.5726 45.1378 31.1731C45.7569 32.6407 46.1202 34.2023 46.2123 35.791C46.5917 32.8367 46.2224 29.8349 45.1378 27.0586C40.3102 17.4581 29.2758 17.4581 29.2758 17.4581C28.1022 17.4557 26.9443 17.7246 25.8932 18.2436C24.8421 18.7626 23.9268 19.5174 23.2194 20.4485C22.5121 21.3795 22.0321 22.4614 21.8173 23.6085C21.6026 24.7557 21.6589 25.9368 21.982 27.0586C22.4321 25.4797 23.3877 24.0899 24.704 23.0999C26.0203 22.1098 27.6253 21.5736 29.2758 21.5726Z"
    fill="#947063"
  />
  <path
    d="M45.8274 38.7165C45.8274 38.7165 40.3101 40.0881 36.1722 33.2305C36.1722 33.2305 35.4826 36.6593 32.7239 36.6593C32.7239 36.6593 34.7929 32.5448 29.2757 32.5448C27.2637 32.5448 25.3341 31.75 23.9114 30.3354C22.4887 28.9207 21.6895 27.0021 21.6895 25.0015C21.6895 23.0009 22.4887 21.0822 23.9114 19.6675C25.3341 18.2529 27.2637 17.4582 29.2757 17.4582C29.2757 17.4582 40.3101 17.4582 45.1377 27.0587C45.1377 27.0587 47.2067 31.1732 45.8274 38.7165Z"
    stroke="#45413C"
    stroke-width="1.4"
    stroke-linecap="round"
    stroke-linejoin="round"
  />
  <path
    d="M90.1406 21.2298C90.1406 23.1395 90.9036 24.9709 92.2616 26.3213C93.6196 27.6716 95.4615 28.4302 97.382 28.4302C99.3025 28.4302 101.144 27.6716 102.502 26.3213C103.86 24.9709 104.623 23.1395 104.623 21.2298C104.623 19.3201 103.86 17.4887 102.502 16.1383C101.144 14.788 99.3025 14.0294 97.382 14.0294C95.4615 14.0294 93.6196 14.788 92.2616 16.1383C90.9036 17.4887 90.1406 19.3201 90.1406 21.2298Z"
    fill="#724F3D"
  />
  <path
    d="M97.382 17.4581C95.7643 17.4603 94.1941 18.002 92.9228 18.9967C91.6514 19.9913 90.7524 21.3813 90.3696 22.9441C90.094 21.8803 90.0668 20.7678 90.2902 19.6919C90.5136 18.616 90.9816 17.6052 91.6584 16.7369C92.3352 15.8686 93.2028 15.1658 94.1949 14.6822C95.187 14.1987 96.2772 13.9474 97.382 13.9474C98.4868 13.9474 99.577 14.1987 100.569 14.6822C101.561 15.1658 102.429 15.8686 103.106 16.7369C103.782 17.6052 104.25 18.616 104.474 19.6919C104.697 20.7678 104.67 21.8803 104.394 22.9441C104.011 21.3814 103.112 19.9915 101.841 18.997C100.57 18.0024 98.9996 17.4605 97.382 17.4581Z"
    fill="#A86C4D"
  />
  <path
    d="M90.1406 21.2298C90.1406 23.1395 90.9036 24.9709 92.2616 26.3213C93.6196 27.6716 95.4615 28.4302 97.382 28.4302C99.3025 28.4302 101.144 27.6716 102.502 26.3213C103.86 24.9709 104.623 23.1395 104.623 21.2298C104.623 19.3201 103.86 17.4887 102.502 16.1383C101.144 14.788 99.3025 14.0294 97.382 14.0294C95.4615 14.0294 93.6196 14.788 92.2616 16.1383C90.9036 17.4887 90.1406 19.3201 90.1406 21.2298Z"
    stroke="#45413C"
    stroke-width="1.4"
    stroke-linecap="round"
    stroke-linejoin="round"
  />
  <path
    d="M82.3789 35.2877C82.3789 39.6526 84.1227 43.8388 87.2268 46.9253C90.3308 50.0118 94.5408 51.7458 98.9306 51.7458C103.32 51.7458 107.53 50.0118 110.634 46.9253C113.739 43.8388 115.482 39.6526 115.482 35.2877C115.482 30.9227 113.739 26.7365 110.634 23.65C107.53 20.5635 103.32 18.8296 98.9306 18.8296C94.5408 18.8296 90.3308 20.5635 87.2268 23.65C84.1227 26.7365 82.3789 30.9227 82.3789 35.2877Z"
    fill="#724F3D"
  />
  <path
    d="M98.9307 22.9441C94.9007 22.9461 91.0098 24.41 87.9879 27.0613C84.966 29.7126 83.0207 33.3691 82.517 37.345C82.4284 36.6627 82.3823 35.9757 82.379 35.2877C82.3705 33.0344 82.8274 30.8033 83.7214 28.7327C84.6154 26.6621 85.9276 24.7961 87.5765 23.2503C89.2255 21.7045 91.176 20.5119 93.3075 19.7464C95.4389 18.9808 97.7057 18.6587 99.9674 18.7998C102.229 18.941 104.438 19.5424 106.456 20.5669C108.474 21.5915 110.26 23.0172 111.701 24.7559C113.143 26.4945 114.21 28.509 114.837 30.6745C115.464 32.84 115.636 35.1104 115.345 37.345C114.842 33.3684 112.898 29.7109 109.875 27.0593C106.853 24.4077 102.961 22.9443 98.9307 22.9441Z"
    fill="#A86C4D"
  />
  <path
    d="M82.3789 35.2877C82.3789 39.6526 84.1227 43.8388 87.2268 46.9253C90.3308 50.0118 94.5408 51.7458 98.9306 51.7458C103.32 51.7458 107.53 50.0118 110.634 46.9253C113.739 43.8388 115.482 39.6526 115.482 35.2877C115.482 30.9227 113.739 26.7365 110.634 23.65C107.53 20.5635 103.32 18.8296 98.9306 18.8296C94.5408 18.8296 90.3308 20.5635 87.2268 23.65C84.1227 26.7365 82.3789 30.9227 82.3789 35.2877V35.2877Z"
    stroke="#45413C"
    stroke-width="1.4"
    stroke-linecap="round"
    stroke-linejoin="round"
  />
  <path
    d="M82.3789 41.4596C82.3811 42.1864 82.6724 42.8828 83.1893 43.3968C83.7062 43.9107 84.4066 44.2004 85.1375 44.2026C85.1927 44.2026 85.2479 44.1889 85.303 44.1889C85.7916 47.4352 87.436 50.3993 89.937 52.5417C92.438 54.6841 95.6295 55.8626 98.9306 55.8626C102.232 55.8626 105.423 54.6841 107.924 52.5417C110.425 50.3993 112.07 47.4352 112.558 44.1889C112.613 44.1889 112.669 44.2026 112.724 44.2026C113.455 44.2026 114.157 43.9136 114.674 43.3992C115.192 42.8848 115.482 42.1871 115.482 41.4596C115.482 40.7321 115.192 40.0344 114.674 39.52C114.157 39.0055 113.455 38.7165 112.724 38.7165V36.5029C109.195 36.2645 105.888 34.7062 103.469 32.1415C102.22 30.4801 101.17 28.6806 100.338 26.7789C99.3297 29.6294 97.6287 32.1877 95.3858 34.2262C93.9279 35.2869 92.2632 36.0329 90.4983 36.4165C88.7335 36.8001 86.9075 36.8127 85.1375 36.4536V38.7165C84.4066 38.7187 83.7062 39.0084 83.1893 39.5224C82.6724 40.0363 82.3811 40.7327 82.3789 41.4596Z"
    fill="#FFDA8F"
    stroke="#45413C"
    stroke-width="1.4"
    stroke-linecap="round"
    stroke-linejoin="round"
  />
  <path
    d="M91.3438 40.088C91.515 39.6812 91.8034 39.3338 92.1726 39.0895C92.5418 38.8452 92.9754 38.7148 93.4189 38.7148C93.8624 38.7148 94.296 38.8452 94.6653 39.0895C95.0345 39.3338 95.3228 39.6812 95.4941 40.088"
    stroke="#45413C"
    stroke-width="1.4"
    stroke-linecap="round"
    stroke-linejoin="round"
  />
  <path
    d="M102.367 40.088C102.538 39.6811 102.826 39.3336 103.195 39.0892C103.565 38.8447 103.998 38.7143 104.442 38.7143C104.885 38.7143 105.319 38.8447 105.688 39.0892C106.057 39.3336 106.345 39.6811 106.516 40.088"
    stroke="#45413C"
    stroke-width="1.4"
    stroke-linecap="round"
    stroke-linejoin="round"
  />
  <path
    d="M105.137 44.5453C105.137 45 105.318 45.4361 105.642 45.7576C105.965 46.0791 106.404 46.2597 106.861 46.2597C107.318 46.2597 107.757 46.0791 108.08 45.7576C108.403 45.4361 108.585 45 108.585 44.5453C108.585 44.0907 108.403 43.6546 108.08 43.3331C107.757 43.0116 107.318 42.831 106.861 42.831C106.404 42.831 105.965 43.0116 105.642 43.3331C105.318 43.6546 105.137 44.0907 105.137 44.5453Z"
    fill="#FFBE3D"
  />
  <path
    d="M89.2754 44.5453C89.2754 45 89.457 45.4361 89.7804 45.7576C90.1037 46.0791 90.5423 46.2597 90.9995 46.2597C91.4568 46.2597 91.8953 46.0791 92.2187 45.7576C92.542 45.4361 92.7237 45 92.7237 44.5453C92.7237 44.0907 92.542 43.6546 92.2187 43.3331C91.8953 43.0116 91.4568 42.831 90.9995 42.831C90.5423 42.831 90.1037 43.0116 89.7804 43.3331C89.457 43.6546 89.2754 44.0907 89.2754 44.5453Z"
    fill="#FFBE3D"
  />
  <path
    d="M102.215 48.3171C101.285 49.1978 100.051 49.6891 98.7666 49.6891C97.4827 49.6891 96.2479 49.1978 95.3184 48.3171"
    stroke="#45413C"
    stroke-width="1.4"
    stroke-linecap="round"
    stroke-linejoin="round"
  />
  <path
    d="M83.0703 44.2025C83.0703 44.5662 83.2156 44.9151 83.4743 45.1723C83.733 45.4295 84.0838 45.574 84.4496 45.574C84.8154 45.574 85.1663 45.4295 85.4249 45.1723C85.6836 44.9151 85.8289 44.5662 85.8289 44.2025C85.8289 43.8387 85.6836 43.4899 85.4249 43.2327C85.1663 42.9755 84.8154 42.831 84.4496 42.831C84.0838 42.831 83.733 42.9755 83.4743 43.2327C83.2156 43.4899 83.0703 43.8387 83.0703 44.2025Z"
    fill="white"
    stroke="#45413C"
    stroke-width="1.4"
    stroke-linecap="round"
    stroke-linejoin="round"
  />
  <path
    d="M84.4496 45.574L85.8289 46.9455L84.4496 51.7458L83.0703 46.9455L84.4496 45.574Z"
    fill="white"
    stroke="#45413C"
    stroke-width="1.4"
    stroke-linecap="round"
    stroke-linejoin="round"
  />
  <path
    d="M112.033 44.2025C112.033 44.5662 112.179 44.9151 112.437 45.1723C112.696 45.4295 113.047 45.574 113.413 45.574C113.778 45.574 114.129 45.4295 114.388 45.1723C114.647 44.9151 114.792 44.5662 114.792 44.2025C114.792 43.8387 114.647 43.4899 114.388 43.2327C114.129 42.9755 113.778 42.831 113.413 42.831C113.047 42.831 112.696 42.9755 112.437 43.2327C112.179 43.4899 112.033 43.8387 112.033 44.2025Z"
    fill="white"
    stroke="#45413C"
    stroke-width="1.4"
    stroke-linecap="round"
    stroke-linejoin="round"
  />
  <path
    d="M113.413 45.574L112.033 46.9455L113.413 51.7458L114.792 46.9455L113.413 45.574Z"
    fill="white"
    stroke="#45413C"
    stroke-width="1.4"
    stroke-linecap="round"
    stroke-linejoin="round"
  />
  <path
    d="M93.5891 18.1439L89.4512 14.7151"
    stroke="#45413C"
    stroke-width="1.4"
    stroke-linecap="round"
    stroke-linejoin="round"
  />
  <path
    d="M86.002 13.3436C86.002 13.8892 86.2199 14.4125 86.6079 14.7983C86.9959 15.1841 87.5222 15.4008 88.0709 15.4008C88.6196 15.4008 89.1459 15.1841 89.5339 14.7983C89.9219 14.4125 90.1399 13.8892 90.1399 13.3436C90.1399 12.798 89.9219 12.2747 89.5339 11.8889C89.1459 11.5031 88.6196 11.2863 88.0709 11.2863C87.5222 11.2863 86.9959 11.5031 86.6079 11.8889C86.2199 12.2747 86.002 12.798 86.002 13.3436Z"
    fill="#6DD627"
    stroke="#45413C"
    stroke-width="1.4"
    stroke-linejoin="round"
  />
  <path
    d="M98.9313 22.2583C102.693 22.2583 106.32 23.6475 109.109 26.1563C111.899 28.6652 113.652 32.115 114.028 35.8363C114.046 36.0273 114.024 36.22 113.963 36.402C113.901 36.584 113.803 36.7513 113.673 36.8933C113.543 37.0353 113.385 37.1488 113.209 37.2265C113.032 37.3043 112.842 37.3446 112.649 37.3449H85.2155C85.0225 37.3446 84.8317 37.3043 84.6553 37.2265C84.4789 37.1488 84.3207 37.0353 84.1909 36.8933C84.0611 36.7513 83.9625 36.584 83.9014 36.402C83.8404 36.22 83.8181 36.0273 83.8361 35.8363C84.2123 32.1152 85.9649 28.6657 88.7541 26.1568C91.5433 23.6479 95.1702 22.2586 98.9313 22.2583Z"
    fill="#724F3D"
  />
  <path
    d="M114.028 35.8322C113.652 32.1105 111.9 28.6603 109.11 26.1511C106.321 23.6418 102.693 22.2523 98.9314 22.2523C95.1698 22.2523 91.5423 23.6418 88.7527 26.1511C85.9632 28.6603 84.2105 32.1105 83.8348 35.8322C83.814 36.0412 83.8417 36.2521 83.9159 36.4488C83.99 36.6454 84.1086 36.8225 84.2624 36.9664C85.1063 33.7365 87.0045 30.8764 89.6592 28.8347C92.314 26.7931 95.5753 25.6854 98.9314 25.6854C102.288 25.6854 105.549 26.7931 108.204 28.8347C110.858 30.8764 112.757 33.7365 113.6 36.9664C113.754 36.8225 113.873 36.6454 113.947 36.4488C114.021 36.2521 114.049 36.0412 114.028 35.8322Z"
    fill="#A86C4D"
  />
  <path
    d="M98.9313 22.2583C102.693 22.2583 106.32 23.6475 109.109 26.1563C111.899 28.6652 113.652 32.115 114.028 35.8363C114.046 36.0273 114.024 36.22 113.963 36.402C113.901 36.584 113.803 36.7513 113.673 36.8933C113.543 37.0353 113.385 37.1488 113.209 37.2265C113.032 37.3043 112.842 37.3446 112.649 37.3449H85.2155C85.0225 37.3446 84.8317 37.3043 84.6553 37.2265C84.4789 37.1488 84.3207 37.0353 84.1909 36.8933C84.0611 36.7513 83.9625 36.584 83.9014 36.402C83.8404 36.22 83.8181 36.0273 83.8361 35.8363C84.2123 32.1152 85.9649 28.6657 88.7541 26.1568C91.5433 23.6479 95.1702 22.2586 98.9313 22.2583V22.2583Z"
    stroke="#45413C"
    stroke-width="1.4"
    stroke-linecap="round"
    stroke-linejoin="round"
  />
  <path
    d="M109.275 37.3449V32.5446"
    stroke="#45413C"
    stroke-width="1.4"
    stroke-linecap="round"
    stroke-linejoin="round"
  />
  <path
    d="M104.449 37.3449V32.5446"
    stroke="#45413C"
    stroke-width="1.4"
    stroke-linecap="round"
    stroke-linejoin="round"
  />
  <path
    d="M99.6211 37.3449V32.5446"
    stroke="#45413C"
    stroke-width="1.4"
    stroke-linecap="round"
    stroke-linejoin="round"
  />
  <path
    d="M94.793 37.3449V32.5446"
    stroke="#45413C"
    stroke-width="1.4"
    stroke-linecap="round"
    stroke-linejoin="round"
  />
  <path
    d="M89.9668 37.3449V32.5446"
    stroke="#45413C"
    stroke-width="1.4"
    stroke-linecap="round"
    stroke-linejoin="round"
  />
  <path
    opacity="0.15"
    d="M25.0859 104.742C25.0859 105.595 28.3479 106.413 34.1543 107.016C39.9607 107.62 47.8358 107.958 56.0473 107.958C64.2588 107.958 72.1339 107.62 77.9403 107.016C83.7467 106.413 87.0087 105.595 87.0087 104.742C87.0087 103.889 83.7467 103.071 77.9403 102.468C72.1339 101.865 64.2588 101.526 56.0473 101.526C47.8358 101.526 39.9607 101.865 34.1543 102.468C28.3479 103.071 25.0859 103.889 25.0859 104.742Z"
    fill="#45413C"
  />
  <path
    d="M46.1106 98.7694H41.9727L50.8002 71.5532C50.9204 71.1834 51.1553 70.861 51.4713 70.6323C51.7873 70.4036 52.168 70.2804 52.5589 70.2804H55.3478L46.1106 98.7694Z"
    fill="#E8F4FA"
    stroke="#45413C"
    stroke-width="1.4"
    stroke-linejoin="round"
  />
  <path
    d="M82.1555 98.7694H46.1113L55.3527 70.2804H88.863C89.1544 70.2803 89.4417 70.3486 89.7014 70.4799C89.9612 70.6112 90.186 70.8017 90.3576 71.0358C90.5292 71.27 90.6427 71.5412 90.6888 71.8272C90.735 72.1133 90.7124 72.4062 90.623 72.6819L82.1555 98.7694Z"
    fill="#ADC4D9"
  />
  <path
    d="M55.3525 70.2804H88.8615C89.1529 70.2803 89.4402 70.3486 89.6999 70.4799C89.9596 70.6112 90.1845 70.8017 90.3561 71.0358C90.5277 71.27 90.6411 71.5412 90.6873 71.8272C90.7334 72.1133 90.7109 72.4062 90.6215 72.6819L89.5181 76.1107H53.4629L55.3525 70.2804Z"
    fill="#C0DCEB"
  />
  <path
    d="M82.1541 98.7694H44.2617V103.364H78.4576C79.438 103.364 80.3782 102.977 81.0714 102.287C81.7647 101.598 82.1541 100.663 82.1541 99.6883V98.7694Z"
    fill="#C0DCEB"
    stroke="#45413C"
    stroke-width="1.4"
    stroke-linejoin="round"
  />
  <path
    d="M44.261 98.7694H27.5355C27.2904 98.7694 27.0553 98.8662 26.882 99.0385C26.7087 99.2108 26.6113 99.4446 26.6113 99.6883C26.6113 100.663 27.0008 101.598 27.694 102.287C28.3873 102.977 29.3275 103.364 30.3079 103.364H44.261V98.7694Z"
    fill="#E8F4FA"
    stroke="#45413C"
    stroke-width="1.4"
    stroke-linejoin="round"
  />
  <path
    d="M71.694 83.51C71.6975 83.1644 71.7893 82.8253 71.9609 82.5247C72.1325 82.224 72.3781 81.9717 72.6747 81.7915C72.4866 81.5258 72.2394 81.3069 71.9523 81.1518C71.6652 80.9967 71.346 80.9096 71.0195 80.8973C70.3119 80.8259 69.6402 81.3087 69.2816 81.3087C68.923 81.3087 68.3699 80.9055 67.7823 80.9151C67.3973 80.9262 67.0219 81.0365 66.6926 81.235C66.3634 81.4336 66.0915 81.7137 65.9037 82.048C65.6009 82.792 65.4948 83.6007 65.5955 84.3971C65.6962 85.1934 66.0003 85.9509 66.4788 86.5973C66.8609 87.1459 67.3147 87.7617 67.9119 87.7397C68.4885 87.7164 68.705 87.3694 69.4002 87.3694C70.0954 87.3694 70.2899 87.7397 70.8981 87.7274C71.5064 87.715 71.9092 87.1692 72.2885 86.6192C72.5595 86.2235 72.7709 85.7906 72.9161 85.3341C72.5553 85.1822 72.2472 84.9285 72.03 84.6043C71.8127 84.28 71.6959 83.8996 71.694 83.51Z"
    fill="#F0F0F0"
    stroke="#45413C"
    stroke-width="1.4"
    stroke-linejoin="round"
  />
  <path
    d="M70.1387 78.5506L70.9732 77.7222"
    stroke="#45413C"
    stroke-width="1.4"
    stroke-linecap="round"
    stroke-linejoin="round"
  />
  <path
    d="M82.1555 98.7694H46.1113L55.3527 70.2804H88.863C89.1544 70.2803 89.4417 70.3486 89.7014 70.4799C89.9612 70.6112 90.186 70.8017 90.3576 71.0358C90.5292 71.27 90.6427 71.5412 90.6888 71.8272C90.735 72.1133 90.7124 72.4062 90.623 72.6819L82.1555 98.7694Z"
    stroke="#45413C"
    stroke-width="1.4"
    stroke-linejoin="round"
  />
</svg>

