<svg width="128" height="128" viewBox="0 0 128 128" fill="none" xmlns="http://www.w3.org/2000/svg">
<path d="M12.0665 64C12.0665 77.5791 17.4608 90.6021 27.0627 100.204C36.6645 109.806 49.6874 115.2 63.2665 115.2C76.8456 115.2 89.8685 109.806 99.4704 100.204C109.072 90.6021 114.467 77.5791 114.467 64C114.467 50.421 109.072 37.398 99.4704 27.7962C89.8685 18.1943 76.8456 12.8 63.2665 12.8C49.6874 12.8 36.6645 18.1943 27.0627 27.7962C17.4608 37.398 12.0665 50.421 12.0665 64Z" fill="#C7F0FF" stroke="#C7F0FF" stroke-width="1.6" stroke-miterlimit="10"/>
<path d="M63.2678 115.2C76.0675 115.218 88.4061 110.423 97.8355 101.768C95.4095 96.9662 91.4289 93.1278 86.5424 90.878C81.6558 88.6282 76.1513 88.0997 70.9259 89.3786C65.7005 90.6575 61.0623 93.6684 57.767 97.9206C54.4718 102.173 52.7138 107.416 52.7795 112.795V114.125C56.2295 114.842 59.7441 115.202 63.2678 115.2Z" fill="#BF8DF2"/>
<path d="M76.64 88.7144C70.2929 88.7754 64.2263 91.3391 59.7588 95.8482C55.2914 100.357 52.7842 106.448 52.7821 112.795V114.125L53.2135 114.212C54.0334 109.697 56.1436 105.517 59.289 102.176C62.4344 98.8346 66.4803 96.4763 70.9375 95.3858C75.3947 94.2954 80.0723 94.5194 84.4049 96.0309C88.7374 97.5424 92.5394 100.277 95.3511 103.903C96.2044 103.22 97.0326 102.508 97.8356 101.768C95.822 97.8716 92.7848 94.5976 89.0505 92.2978C85.3161 89.9979 81.0256 88.7591 76.64 88.7144Z" fill="#DABFF5"/>
<path d="M63.2678 115.2C76.0675 115.218 88.4061 110.423 97.8355 101.768C95.4095 96.9662 91.4289 93.1278 86.5424 90.878C81.6558 88.6282 76.1513 88.0997 70.9259 89.3786C65.7005 90.6575 61.0623 93.6684 57.767 97.9206C54.4718 102.173 52.7138 107.416 52.7795 112.795V114.125C56.2295 114.842 59.7441 115.202 63.2678 115.2V115.2Z" stroke="#45413C" stroke-width="1.6" stroke-linecap="round" stroke-linejoin="round"/>
<path d="M62.0569 115.186L62.0428 110.073" stroke="#45413C" stroke-width="1.6" stroke-linecap="round" stroke-linejoin="round"/>
<path d="M85.7599 100.783C85.8643 100.832 85.9801 100.852 86.0948 100.841C86.2096 100.829 86.3191 100.787 86.4118 100.718C86.5045 100.65 86.577 100.557 86.6215 100.451C86.6661 100.345 86.681 100.228 86.6649 100.114L85.4681 91.7339C85.2898 90.7467 84.907 89.8077 84.3442 88.9773C83.7814 88.1469 83.0511 87.4434 82.2002 86.9121H71.0809C70.231 87.4439 69.5017 88.1474 68.9396 88.9775C68.3776 89.8077 67.9951 90.7461 67.8169 91.7326L66.6201 100.113C66.6037 100.227 66.6187 100.344 66.6633 100.45C66.7079 100.557 66.7805 100.649 66.8734 100.718C66.9663 100.787 67.076 100.829 67.191 100.84C67.3059 100.851 67.4218 100.831 67.5263 100.782L76.6399 96.5083L85.7599 100.783Z" fill="#BF8DF2" stroke="#45413C" stroke-width="1.6" stroke-linecap="round" stroke-linejoin="round"/>
<path d="M71.2524 84.6079V92.1599C71.2527 92.4063 71.3136 92.6489 71.4299 92.8661C71.5463 93.0834 71.7144 93.2686 71.9193 93.4053L76.64 96.5119L81.3619 93.3989C81.5667 93.2621 81.7346 93.0768 81.8507 92.8596C81.9668 92.6424 82.0275 92.3998 82.0275 92.1535V84.6079H71.2524Z" fill="#FFCEBF"/>
<path d="M71.2524 84.6079V89.2517C74.7699 90.2843 78.51 90.2843 82.0275 89.2517V84.6079H71.2524Z" fill="#FFB59E"/>
<path d="M71.2524 84.6079V92.1599C71.2527 92.4063 71.3136 92.6489 71.4299 92.8661C71.5463 93.0834 71.7144 93.2686 71.9193 93.4053L76.64 96.5119L81.3619 93.3989C81.5667 93.2621 81.7346 93.0768 81.8507 92.8596C81.9668 92.6424 82.0275 92.3998 82.0275 92.1535V84.6079H71.2524Z" stroke="#45413C" stroke-width="1.6" stroke-linecap="round" stroke-linejoin="round"/>
<path d="M12.0665 64C12.0665 77.5791 17.4608 90.6021 27.0627 100.204C36.6645 109.806 49.6874 115.2 63.2665 115.2C76.8456 115.2 89.8685 109.806 99.4704 100.204C109.072 90.6021 114.467 77.5791 114.467 64C114.467 50.421 109.072 37.398 99.4704 27.7962C89.8685 18.1943 76.8456 12.8 63.2665 12.8C49.6874 12.8 36.6645 18.1943 27.0627 27.7962C17.4608 37.398 12.0665 50.421 12.0665 64V64Z" stroke="#DAEDF7" stroke-width="1.6" stroke-miterlimit="10"/>
<path d="M12.2189 44.6387C12.2189 52.5081 15.345 60.0552 20.9095 65.6198C26.474 71.1843 34.0211 74.3104 41.8906 74.3104C49.76 74.3104 57.3071 71.1843 62.8716 65.6198C68.4361 60.0552 71.5622 52.5081 71.5622 44.6387C71.5622 36.7693 68.4361 29.2222 62.8716 23.6577C57.3071 18.0932 49.76 14.967 41.8906 14.967C34.0211 14.967 26.474 18.0932 20.9095 23.6577C15.345 29.2222 12.2189 36.7693 12.2189 44.6387Z" fill="#4ACFFF"/>
<path d="M41.8904 29.6309C40.6367 29.6307 39.3952 29.8775 38.2368 30.3572C37.0785 30.8368 36.026 31.54 35.1394 32.4264C34.2528 33.3129 33.5495 34.3653 33.0697 35.5236C32.5899 36.6819 32.3429 37.9234 32.3429 39.1771V43.9515C32.372 46.4643 33.3906 48.8644 35.1779 50.631C36.9651 52.3977 39.3768 53.3885 41.8898 53.3885C44.4028 53.3885 46.8145 52.3977 48.6017 50.631C50.3889 48.8644 51.4076 46.4643 51.4367 43.9515V39.1771C51.4367 36.6453 50.4309 34.2172 48.6406 32.4269C46.8504 30.6366 44.4222 29.6309 41.8904 29.6309Z" fill="#E5F8FF"/>
<path d="M41.8906 29.6309C41.4625 29.6304 41.0349 29.6586 40.6106 29.7153" stroke="#45413C" stroke-width="1.6" stroke-linecap="round" stroke-linejoin="round"/>
<path d="M37.052 30.9454C35.6175 31.7878 34.4282 32.9906 33.6021 34.4346C32.7761 35.8786 32.342 37.5135 32.3429 39.1771V43.9515C32.372 46.4643 33.3906 48.8644 35.1779 50.631C36.9651 52.3977 39.3768 53.3885 41.8898 53.3885C44.4028 53.3885 46.8145 52.3977 48.6017 50.631C50.3889 48.8644 51.4076 46.4643 51.4367 43.9515V39.1771C51.4366 37.1921 50.8182 35.2565 49.6673 33.6392C48.5164 32.022 46.8903 30.8035 45.0149 30.1531" stroke="#45413C" stroke-width="1.6" stroke-linecap="round" stroke-linejoin="round" stroke-dasharray="3.16 4.73"/>
<path d="M43.1679 29.7153C42.7436 29.6586 42.316 29.6304 41.8879 29.6309" stroke="#45413C" stroke-width="1.6" stroke-linecap="round" stroke-linejoin="round"/>
<path d="M61.7254 66.7058C56.2803 71.6001 49.2181 74.3086 41.8967 74.3102C34.5753 74.3119 27.5118 71.6066 22.0646 66.7148C23.6951 62.8039 26.4458 59.4627 29.9708 57.1115C33.4958 54.7604 37.6374 53.5043 41.8745 53.5015C46.1116 53.4986 50.255 54.749 53.7831 57.0954C57.3112 59.4418 60.0666 62.7793 61.7023 66.6879" fill="#E5F8FF"/>
<path d="M61.7255 66.7061C61.4081 66.9919 61.0851 67.2705 60.7566 67.5419" stroke="#45413C" stroke-width="1.6" stroke-linecap="round" stroke-linejoin="round"/>
<path d="M57.7498 69.7205C52.7388 72.8867 46.8948 74.4804 40.9702 74.2963C35.0456 74.1122 29.3117 72.1587 24.507 68.6875" stroke="#45413C" stroke-width="1.6" stroke-linecap="round" stroke-linejoin="round" stroke-dasharray="3.1 4.64"/>
<path d="M23.04 67.5495C22.7106 67.2782 22.3876 67 22.071 66.715C22.2349 66.3207 22.4102 65.9333 22.5971 65.5527" stroke="#45413C" stroke-width="1.6" stroke-linecap="round" stroke-linejoin="round"/>
<path d="M24.5415 62.3194C26.6263 59.4609 29.385 57.1619 32.5725 55.6268C35.76 54.0916 39.2775 53.3678 42.8121 53.5198C46.3468 53.6718 49.7891 54.6949 52.8331 56.498C55.877 58.3012 58.4282 60.8285 60.2599 63.8554" stroke="#45413C" stroke-width="1.6" stroke-linecap="round" stroke-linejoin="round" stroke-dasharray="3.15 4.72"/>
<path d="M61.1737 65.5195C61.3623 65.901 61.5385 66.2884 61.7024 66.6818" stroke="#45413C" stroke-width="1.6" stroke-linecap="round" stroke-linejoin="round"/>
<path d="M12.2189 44.6387C12.2189 52.5081 15.345 60.0552 20.9095 65.6198C26.474 71.1843 34.0211 74.3104 41.8906 74.3104C49.76 74.3104 57.3071 71.1843 62.8716 65.6198C68.4361 60.0552 71.5622 52.5081 71.5622 44.6387C71.5622 36.7693 68.4361 29.2222 62.8716 23.6577C57.3071 18.0932 49.76 14.967 41.8906 14.967C34.0211 14.967 26.474 18.0932 20.9095 23.6577C15.345 29.2222 12.2189 36.7693 12.2189 44.6387V44.6387Z" stroke="#45413C" stroke-width="1.6" stroke-linecap="round" stroke-linejoin="round"/>
<path d="M102.986 35.9196C103.002 35.8628 103.032 35.8112 103.074 35.7696C103.116 35.7281 103.167 35.6982 103.224 35.6828L107.704 34.4616C107.776 34.4419 107.839 34.3993 107.884 34.3402C107.929 34.2811 107.953 34.2089 107.953 34.1346C107.953 34.0603 107.929 33.9881 107.884 33.929C107.839 33.8699 107.776 33.8273 107.704 33.8076L103.224 32.5877C103.167 32.572 103.115 32.5416 103.073 32.4996C103.032 32.4577 103.002 32.4055 102.986 32.3484L101.766 27.8684C101.746 27.797 101.703 27.7341 101.644 27.6894C101.585 27.6446 101.513 27.6204 101.439 27.6204C101.364 27.6204 101.292 27.6446 101.233 27.6894C101.174 27.7341 101.131 27.797 101.111 27.8684L99.8911 32.3484C99.8759 32.4056 99.8459 32.4579 99.8041 32.4999C99.7623 32.5419 99.7102 32.5722 99.653 32.5877L95.173 33.8088C95.1014 33.8286 95.0382 33.8712 94.9932 33.9303C94.9482 33.9894 94.9238 34.0616 94.9238 34.1359C94.9238 34.2102 94.9482 34.2824 94.9932 34.3415C95.0382 34.4005 95.1014 34.4432 95.173 34.4629L99.653 35.6828C99.7099 35.6984 99.7618 35.7286 99.8036 35.7703C99.8453 35.8121 99.8755 35.8639 99.8911 35.9208L101.112 40.4008C101.132 40.4725 101.175 40.5356 101.234 40.5806C101.293 40.6257 101.365 40.65 101.439 40.65C101.514 40.65 101.586 40.6257 101.645 40.5806C101.704 40.5356 101.747 40.4725 101.766 40.4008L102.986 35.9196Z" fill="#FFE500" stroke="#45413C" stroke-width="1.6" stroke-linecap="round" stroke-linejoin="round"/>
<path d="M41.3362 96.5748C41.3518 96.5178 41.3819 96.4659 41.4237 96.4241C41.4654 96.3824 41.5173 96.3522 41.5743 96.3367L46.0543 95.1156C46.1259 95.0959 46.1891 95.0532 46.2341 94.9941C46.2791 94.9351 46.3035 94.8628 46.3035 94.7886C46.3035 94.7143 46.2791 94.6421 46.2341 94.583C46.1891 94.5239 46.1259 94.4812 46.0543 94.4615L41.5743 93.2417C41.5174 93.226 41.4655 93.1959 41.4238 93.1541C41.3821 93.1124 41.3519 93.0605 41.3362 93.0036L40.1151 88.5236C40.0954 88.452 40.0527 88.3888 39.9937 88.3438C39.9346 88.2988 39.8624 88.2744 39.7881 88.2744C39.7138 88.2744 39.6416 88.2988 39.5825 88.3438C39.5234 88.3888 39.4807 88.452 39.461 88.5236L38.2399 93.0036C38.2247 93.0605 38.1949 93.1125 38.1533 93.1543C38.1118 93.1961 38.06 93.2262 38.0031 93.2417L33.5231 94.4628C33.4515 94.4825 33.3883 94.5252 33.3433 94.5843C33.2983 94.6433 33.2739 94.7156 33.2739 94.7898C33.2739 94.8641 33.2983 94.9363 33.3433 94.9954C33.3883 95.0545 33.4515 95.0972 33.5231 95.1169L38.0031 96.3367C38.06 96.3524 38.1119 96.3825 38.1536 96.4243C38.1954 96.466 38.2256 96.5179 38.2412 96.5748L39.4623 101.055C39.482 101.126 39.5247 101.19 39.5838 101.235C39.6429 101.28 39.7151 101.304 39.7894 101.304C39.8636 101.304 39.9359 101.28 39.9949 101.235C40.054 101.19 40.0967 101.126 40.1164 101.055L41.3362 96.5748Z" fill="#FFE500" stroke="#45413C" stroke-width="1.6" stroke-linecap="round" stroke-linejoin="round"/>
<path d="M112.314 65.7473C112.406 65.4054 112.587 65.0938 112.838 64.8434C113.088 64.593 113.4 64.4126 113.742 64.3201L115.682 63.7902C115.755 63.7709 115.818 63.7283 115.864 63.6691C115.909 63.6098 115.934 63.5372 115.934 63.4625C115.934 63.3878 115.909 63.3152 115.864 63.256C115.818 63.1967 115.755 63.1541 115.682 63.1348L113.742 62.6062C113.401 62.5138 113.09 62.3341 112.839 62.0847C112.589 61.8353 112.407 61.5249 112.314 61.1841L111.784 59.2424C111.764 59.1707 111.721 59.1076 111.662 59.0626C111.603 59.0175 111.531 58.9932 111.457 58.9932C111.382 58.9932 111.31 59.0175 111.251 59.0626C111.192 59.1076 111.149 59.1707 111.13 59.2424L110.6 61.1841C110.507 61.5257 110.326 61.8371 110.076 62.0874C109.825 62.3377 109.514 62.5183 109.172 62.6113L107.231 63.1412C107.159 63.1609 107.096 63.2036 107.051 63.2627C107.006 63.3218 106.981 63.394 106.981 63.4683C106.981 63.5426 107.006 63.6148 107.051 63.6739C107.096 63.7329 107.159 63.7756 107.231 63.7953L109.172 64.3252C109.514 64.4185 109.825 64.5992 110.076 64.8495C110.326 65.0997 110.507 65.4109 110.601 65.7524L111.131 67.6942C111.151 67.7658 111.193 67.829 111.252 67.874C111.311 67.919 111.384 67.9434 111.458 67.9434C111.532 67.9434 111.604 67.919 111.663 67.874C111.722 67.829 111.765 67.7658 111.785 67.6942L112.314 65.7473Z" fill="#FFE500" stroke="#45413C" stroke-width="1.6" stroke-linecap="round" stroke-linejoin="round"/>
<path d="M92.1599 67.4165V63.5496C92.1228 59.4709 90.4765 55.5719 87.5793 52.7008C84.682 49.8298 80.7681 48.219 76.6892 48.219C72.6103 48.219 68.6965 49.8298 65.7992 52.7008C62.9019 55.5719 61.2556 59.4709 61.2185 63.5496V67.4165C60.4087 67.433 59.6376 67.7662 59.0708 68.3447C58.5039 68.9233 58.1864 69.7009 58.1864 70.5109C58.1864 71.3209 58.5039 72.0985 59.0708 72.6771C59.6376 73.2556 60.4087 73.5888 61.2185 73.6053C61.2838 73.6053 61.3465 73.5899 61.4079 73.5861C61.954 77.2483 63.7972 80.5925 66.6018 83.0099C69.4064 85.4273 72.9859 86.7571 76.6886 86.7571C80.3912 86.7571 83.9708 85.4273 86.7754 83.0099C89.58 80.5925 91.4231 77.2483 91.9692 73.5861C92.0345 73.5861 92.0972 73.6053 92.1599 73.6053C92.9697 73.5888 93.7408 73.2556 94.3077 72.6771C94.8745 72.0985 95.192 71.3209 95.192 70.5109C95.192 69.7009 94.8745 68.9233 94.3077 68.3447C93.7408 67.7662 92.9697 67.433 92.1599 67.4165Z" fill="#FFCEBF" stroke="#45413C" stroke-width="1.6" stroke-linecap="round" stroke-linejoin="round"/>
<path d="M65.8572 73.2302C65.8572 73.7432 66.0609 74.2351 66.4237 74.5978C66.7864 74.9605 67.2783 75.1643 67.7913 75.1643C68.3042 75.1643 68.7962 74.9605 69.1589 74.5978C69.5216 74.2351 69.7253 73.7432 69.7253 73.2302C69.7253 72.7173 69.5216 72.2253 69.1589 71.8626C68.7962 71.4999 68.3042 71.2961 67.7913 71.2961C67.2783 71.2961 66.7864 71.4999 66.4237 71.8626C66.0609 72.2253 65.8572 72.7173 65.8572 73.2302Z" fill="#FFB59E"/>
<path d="M83.6479 73.2302C83.6479 73.7432 83.8517 74.2351 84.2144 74.5978C84.5771 74.9605 85.0691 75.1643 85.582 75.1643C86.095 75.1643 86.5869 74.9605 86.9496 74.5978C87.3123 74.2351 87.5161 73.7432 87.5161 73.2302C87.5161 72.7173 87.3123 72.2253 86.9496 71.8626C86.5869 71.4999 86.095 71.2961 85.582 71.2961C85.0691 71.2961 84.5771 71.4999 84.2144 71.8626C83.8517 72.2253 83.6479 72.7173 83.6479 73.2302Z" fill="#FFB59E"/>
<path d="M72.8191 68.2022C72.6275 67.743 72.3043 67.3508 71.8902 67.0749C71.4761 66.7991 70.9896 66.6519 70.4921 66.6519C69.9945 66.6519 69.5081 66.7991 69.094 67.0749C68.6799 67.3508 68.3567 67.743 68.165 68.2022" stroke="#45413C" stroke-width="1.6" stroke-linecap="round" stroke-linejoin="round"/>
<path d="M85.2083 68.1907C85.0166 67.7315 84.6934 67.3393 84.2793 67.0635C83.8653 66.7876 83.3788 66.6404 82.8812 66.6404C82.3837 66.6404 81.8972 66.7876 81.4831 67.0635C81.0691 67.3393 80.7459 67.7315 80.5542 68.1907" stroke="#45413C" stroke-width="1.6" stroke-linecap="round" stroke-linejoin="round"/>
<path d="M88.558 74.4219C86.9683 78.1339 86.8876 79.0734 85.8559 79.3307L84.6822 79.6251C84.341 79.7116 83.9797 79.6657 83.671 79.4966C83.3623 79.3275 83.129 79.0478 83.0182 78.7138C81.9942 76.3394 80.2355 74.3784 77.7587 74.3784H75.6083C73.1315 74.3784 71.3727 76.3394 70.3487 78.7138C70.2376 79.0477 70.0044 79.3272 69.6957 79.4962C69.3871 79.6653 69.0259 79.7113 68.6847 79.6251L67.5123 79.3307C66.4806 79.0747 66.3999 78.1326 64.8102 74.4219C64.2918 73.2136 62.7724 73.5963 61.4003 73.5861C61.4003 83.5829 70.1299 89.0741 76.6809 89.0741C83.2319 89.0741 91.9615 83.5816 91.9615 73.5861C90.5958 73.6002 89.0764 73.2162 88.558 74.4219Z" fill="#FFDF3D" stroke="#45413C" stroke-width="1.6" stroke-linecap="round" stroke-linejoin="round"/>
<path d="M60.7001 67.7031C60.3585 67.7934 59.9966 67.7668 59.6719 67.6276C59.3471 67.4885 59.0783 67.2447 58.9081 66.9351C57.7692 64.3517 57.2351 61.5424 57.3465 58.7213C57.3465 54.6476 58.9648 50.7408 61.8453 47.8602C64.7259 44.9796 68.6328 43.3614 72.7065 43.3614C76.8946 43.3614 85.2722 42.3502 88.0665 46.0737C100.314 48.795 96.0486 69.7396 94.7993 68.4903C94.5317 68.2054 94.2102 67.9766 93.8533 67.8173C93.4964 67.6579 93.1113 67.5713 92.7206 67.5623C91.9664 67.519 91.2206 67.7394 90.6111 68.1857C87.6353 63.7624 86.2514 58.459 86.6866 53.1457C86.6866 57.3364 77.5103 60.9639 69.7638 60.9639C67.8772 60.9962 65.9974 60.7292 64.1945 60.1729C64.475 62.8632 64.2519 65.5822 63.5366 68.1908C63.1258 67.9122 62.6602 67.7246 62.171 67.6405C61.6818 67.5564 61.1803 67.5777 60.7001 67.7031Z" fill="#FFDF3D"/>
<path d="M72.7039 47.6493C76.892 47.6493 85.2696 46.6381 88.0639 50.3616C93.9864 51.6775 96.0472 57.2544 96.4556 62.5216C96.9036 56.4583 95.6594 47.7658 88.0639 46.08C85.2722 42.3578 76.8946 43.369 72.7039 43.369C68.6301 43.369 64.7233 44.9873 61.8427 47.8678C58.9622 50.7484 57.3439 54.6553 57.3439 58.729C57.3439 59.5559 57.3733 60.393 57.4463 61.2339C57.8816 57.4928 59.6763 54.042 62.4893 51.5374C65.3023 49.0329 68.9375 47.6492 72.7039 47.6493Z" fill="#FFEF9E"/>
<path d="M73.6075 78.2465C74.5573 78.7546 75.6181 79.0198 76.6952 79.0185C77.7724 79.0171 78.8325 78.7493 79.781 78.2388" stroke="#45413C" stroke-width="1.6" stroke-linecap="round" stroke-linejoin="round"/>
<path d="M60.7001 67.7031C60.3585 67.7934 59.9966 67.7668 59.6719 67.6276C59.3471 67.4885 59.0783 67.2447 58.9081 66.9351C57.7692 64.3517 57.2351 61.5424 57.3465 58.7213C57.3465 54.6476 58.9648 50.7408 61.8453 47.8602C64.7259 44.9796 68.6328 43.3614 72.7065 43.3614C76.8946 43.3614 85.2722 42.3502 88.0665 46.0737C100.314 48.795 96.0486 69.7396 94.7993 68.4903C94.5317 68.2054 94.2102 67.9766 93.8533 67.8173C93.4964 67.6579 93.1113 67.5713 92.7206 67.5623C91.9664 67.519 91.2206 67.7394 90.6111 68.1857C87.6353 63.7624 86.2514 58.459 86.6866 53.1457C86.6866 57.3364 77.5103 60.9639 69.7638 60.9639C67.8772 60.9962 65.9974 60.7292 64.1945 60.1729C64.475 62.8632 64.2519 65.5822 63.5366 68.1908C63.1258 67.9122 62.6602 67.7246 62.171 67.6405C61.6818 67.5564 61.1803 67.5777 60.7001 67.7031Z" stroke="#45413C" stroke-width="1.6" stroke-linecap="round" stroke-linejoin="round"/>
</svg>

