<svg viewBox="0 0 1440 845" fill="none" xmlns="http://www.w3.org/2000/svg"><path d="M1440 0H0v845h1440V0z" fill="#D4DFF1"/><path d="M964.146 663.63c47.614-43.666 47.614-114.463 0-158.129-47.612-43.666-124.807-43.666-172.419 0-47.612 43.666-47.612 114.463 0 158.129 47.612 43.667 124.807 43.667 172.419 0z" fill="#F6D661"/><path d="M942.788 646.243c34.491-31.632 34.491-82.918 0-114.55-34.491-31.633-90.412-31.633-124.902 0-34.491 31.632-34.491 82.918 0 114.55 34.49 31.632 90.411 31.632 124.902 0z" fill="#EDBF59"/><path d="M1104.24 656.367c-21.6-4.402-256.8-81.441-256.8-81.441s-156-63.831-189.6-85.842c-33.6-22.011-96-39.62-124.8-44.022-28.8-4.402-127.2 11.005-165.6 22.011-38.4 11.005-127.2 55.027-189.6 79.239C131.52 564.361 42.48 588.353 0 599.579v69.774l655.44 52.827c0 .22 470.4-61.411 448.8-65.813z" fill="#8C7FA8"/><path d="M763.92 563.04c39.6 10.125 72.72 40.06 113.76 41.38 12.24.441 24.48-1.981 35.76-6.603.72-.22 1.2-.44 1.92-.88a22043.62 22043.62 0 01-67.44-22.011s-156-63.832-189.6-85.843c-33.6-22.011-96-39.62-124.8-44.022-5.04-.88-12.24-.88-20.88-.66-1.44 3.962-1.44 8.144.48 12.106 3.84 8.584 14.4 12.766 24 16.068 13.92 4.842 28.08 9.685 42.72 12.766 31.2 6.383 67.92 5.503 88.8 27.514.96 1.1 1.92 2.201 2.4 3.742 2.16 8.364-16.56 7.924-19.2 16.288-1.44 4.842 3.6 9.244 8.16 11.666 30.48 16.068 69.36 9.684 103.92 18.489z" fill="#B7AAD0"/><path d="M817.92 679.258c20.64-15.628 35.04-39.84 31.68-64.272-64.32 8.144-129.12 13.647-194.16 16.288-29.04 1.1-60.24 1.321-84-13.647-10.56-6.603-18.96-15.628-29.52-22.011-35.04-21.13-81.84-7.484-123.6-11.886-29.76-3.081-58.08-16.068-78.48-36.098-3.36-3.301-6.72-7.043-7.44-11.445-.72-4.843 1.44-9.465 4.08-13.647 16.56-28.834 44.16-51.726 76.32-65.593-18 3.302-34.08 6.824-45.36 10.125-38.4 11.006-127.2 55.028-189.6 79.24C131.52 564.361 42.48 588.353 0 599.578v69.775l655.44 52.826s35.76-4.622 87.36-11.666c.96-.22 2.16-.44 3.12-.66 25.68-6.383 51.6-14.747 72-30.595z" fill="#806F97"/><path d="M1440 624.23c-71.04-27.734-239.76-102.13-239.76-102.13s-55.2-19.81-86.4-17.609c-31.2 2.201-31.2 10.785-64.8 24.212-31.68 12.766-408.48 149.674-435.12 156.277l267.12 8.805L1440 731.864V624.23z" fill="#8C7FA8"/><path d="M1113.84 504.491c-2.4.22-4.8.44-6.96.66-1.68 1.541-3.36 3.522-4.56 5.503-.96 1.761-1.68 3.742-1.2 5.503.96 3.962 6.24 5.282 10.56 5.722 34.08 4.183 70.08 4.183 100.8 18.71 9.12 4.402 18.96 13.206 14.88 22.011-5.76-3.742-13.2 4.402-11.04 10.345 2.4 5.943 9.6 8.804 16.32 10.785 31.2 8.584 64.56 7.924 96.48 14.087 7.92 1.541 15.84 3.522 22.56 7.924 4.08 2.641 7.2 6.163 11.28 8.805 14.16 9.904 33.6 9.024 50.64 13.866 9.36 2.642 17.76 7.044 26.64 10.786V624.23c-71.04-27.733-239.76-102.13-239.76-102.13s-55.44-19.81-86.64-17.609z" fill="#B7AAD0"/><path d="M1223.52 644.921c-18.72-2.422-38.16 1.76-56.16-3.302-23.52-6.383-39.36-26.853-62.16-35.438-49.44-18.489-108 25.313-156.72 5.723-4.32-1.761-8.64-4.182-10.56-8.144-1.92-3.962-.96-8.584.48-12.766 3.36-10.345 9.6-19.81 17.76-27.734-122.88 44.902-323.04 116.878-342 121.721l267.12 8.804 430.08 29.274c26.88-10.345 53.04-22.231 76.32-38.299-40.08-1.76-79.92-10.125-116.88-24.432-15.6-6.163-30.72-13.206-47.28-15.407z" fill="#806F97"/><path d="M1424.4 688.502v-2.641c.24-4.842 0-9.685-.24-14.527-.24-2.421-4.32-2.642-4.32 0-.24 4.182-.48 8.364-.96 12.766l-.72 3.962c-2.64-.22-5.28-.44-8.16-.44-.24-1.541-.24-2.862-.48-3.962-.24-1.541-2.64-1.541-2.64 0 0 1.321-.24 2.641-.24 3.742-.72 0-1.68 0-2.4-.22-11.04-.661-20.88-2.201-30-4.403.96-6.823.96-13.866.24-20.25-.24-.88-1.68-1.32-1.92-.22-.96 5.503-1.44 11.226-2.88 16.729-.24.88-.48 1.54-.72 2.421-1.92-.44-3.84-1.101-5.76-1.541 0-1.541.24-3.302.48-4.842.24-1.981-3.12-1.981-3.36 0-.24 1.1-.48 2.641-.72 3.962-18.96-5.503-37.92-12.327-65.76-16.068-6.96-.881-13.2-1.761-18.96-2.422 0-1.32-.24-2.641-.24-3.962-.48-5.943-.72-11.665-1.68-17.608-.24-1.321-2.16-1.321-2.16 0-.24 5.943-.48 11.665-.72 17.608 0 1.101-.24 2.201-.24 3.302-3.6-.44-6.96-.66-10.32-.88-.24-1.981-.48-3.962-.96-5.723-.24-1.541-3.12-1.101-2.88.44.24 1.761 0 3.302 0 5.062-23.52-1.54-43.2-1.1-84.24-2.641-12.72-.44-22.56-1.761-30.48-3.522.24-2.201-.24-4.622-.48-6.823-.24-1.541-2.64-1.761-2.88 0-.24 1.761-.48 3.742-.72 5.503v.44a69.485 69.485 0 01-8.16-2.421c.48-7.044-.24-14.307-.96-21.351-.24-2.201-3.6-2.201-3.6 0 0 5.943 0 11.666-.48 17.609 0 .66-.24 1.101-.24 1.761-15.36-6.383-23.52-14.087-47.76-15.188-23.28-1.32-44.16 3.302-65.52 7.704-1.2-1.321-3.6-.66-3.84.881-14.64 3.081-29.76 5.943-45.84 6.823-11.04.66-20.88 1.981-30.48 3.962-.24-1.761-.72-3.302-.96-4.843-.72-3.741-1.2-7.483-2.16-11.225-.24-1.321-2.64-1.101-2.4.22.48 3.742.72 7.484.96 11.226.24 1.76.24 3.521.48 5.282-2.16.44-4.32.881-6.48 1.541-.24-.88-.48-1.981-.48-2.861-.24-.881-1.44-1.321-2.16-1.101-.96.22-1.44 1.101-1.2 1.981.24.88.24 1.981.48 2.861-21.36 5.503-44.16 13.427-79.92 21.351-1.68.44-3.12.66-4.56.88a31.437 31.437 0 01-.72-6.823c0-1.761-2.88-1.761-2.88 0-.24 2.641 0 5.063.48 7.484-1.92.44-3.84.66-5.76 1.1-.96-6.163-.72-12.106 1.68-18.929.48-1.541-1.92-1.981-2.64-.66-2.4 5.943-3.84 13.206-3.6 20.25-42.48 6.823-72.48 2.201-114.48-3.082l.72-3.962c.24-2.201-3.36-1.981-3.6 0-.24 1.101-.48 2.421-.72 3.522-5.52-.66-11.28-1.321-17.52-1.981-35.04-3.962-65.28-4.842-95.76-7.924 0-7.043-3.12-15.848-3.36-20.69 0-1.101-1.92-1.101-1.92 0 0 4.622.72 9.244.96 13.867.24 2.201.24 4.402 0 6.603-2.16-.22-4.56-.44-6.96-.881 0-1.981-.48-3.962-.72-5.943-.24-1.54-2.64-.88-2.4.661.24 1.761.24 3.301 0 4.842-17.04-2.201-34.56-5.282-53.28-10.345-57.6-15.408-76.8-8.804-124.8-11.005-.96 0-1.92 0-2.64-.22v-.881c0-2.421-4.08-2.421-4.08 0v.881c-2.16 0-4.56-.221-6.72-.221v-2.201c-.24-4.402-.48-8.804-.96-12.986-.24-1.541-2.64-1.541-2.64 0 0 4.402-.24 8.804-.72 12.986 0 .661-.24 1.321-.24 1.981-1.68 0-3.6-.22-5.28-.22 0-1.32.24-2.641 0-4.182 0-1.321-1.92-1.321-2.16 0 0 1.101-.48 2.421-.96 3.962-45.36-1.981-100.56-4.842-134.4-12.106-12.96-2.861-26.88-4.402-40.8-5.283-.24-2.861-1.2-5.502-1.92-8.364-.48-2.201-4.32-1.32-3.84.881.48 2.421.96 4.842 1.68 7.263-3.6-.22-6.96-.22-10.56-.22-.48-2.421-.96-4.842-1.2-7.263-.48-6.384-.48-12.547-.72-18.93 0-2.201-3.12-1.981-3.36 0-.96 7.484-2.4 17.389-1.68 26.193h-6.96c.48-3.522-.24-6.823-1.2-10.125-.48-1.761-3.12-.88-2.88.661.72 3.081.72 6.383 1.2 9.464-18.72.661-36.72 2.642-52.56 5.503-15.36 2.861-41.76 1.321-66.96-1.541-.24-2.421-.96-4.842-1.2-7.263-.24-1.761-3.12-1.981-3.12 0-.24 2.201 0 4.622 0 6.823-1.68-.22-3.12-.44-4.8-.66-.24-5.723 0-11.446.24-17.169 0-1.321-2.16-1.321-2.16 0-.72 5.283-1.92 11.006-2.4 16.728C18 625.111 8.4 623.79.24 622.469V844.56h1440V689.383c-5.28 0-10.56-.441-15.84-.881z" fill="#6C6384"/><path d="M1440 723.5c-35.28 2.201-97.92 7.704-160.56 7.704-79.2 0-98.4-6.604-163.2-2.202-64.8 4.403-124.8 11.006-180 0-55.2-11.005-62.4 6.604-105.6 11.006-43.2 4.402-81.6 6.603-144-11.006-62.4-17.608-184.8-8.804-184.8-8.804L623.28 845H1440V723.5z" fill="#554E70"/><path d="M932.64 669.793c2.88.22 6-.66 8.64-1.981l-15.84 23.111c2.64-.66 5.28-1.54 7.92-2.201-2.88 9.685-7.2 18.71-12.48 27.074l8.64-1.321c-3.12 8.364-6.48 16.508-10.56 24.432 17.28 3.522 34.56 5.503 52.08 6.383-4.8-7.923-7.92-16.948-9.36-26.413 1.68 2.201 4.56 3.302 7.2 2.422-4.56-10.786-8.88-21.791-13.44-32.577 2.64.661 5.28 1.101 7.92 1.761a207.085 207.085 0 00-12.24-22.451c2.4.44 5.04.66 7.44 1.101-3.84-5.503-7.92-11.006-11.76-16.509-4.8 5.503-9.36 11.226-14.16 17.169zM1236.72 698.847c2.4 0 4.56-.44 6.72-1.54-4.08 5.943-8.16 11.886-12.24 18.049 2.16-.661 4.08-1.101 6.24-1.761-2.4 7.484-5.52 14.747-9.84 21.13 2.16-.22 4.32-.66 6.72-.88-2.4 6.603-5.04 12.986-8.16 19.149 13.44 2.642 26.88 4.403 40.56 4.843-3.6-6.163-6.24-13.207-7.2-20.47 1.44 1.76 3.6 2.421 5.52 1.981-3.6-8.365-6.96-16.949-10.56-25.313 2.16.44 4.08.88 6.24 1.321-2.88-5.943-6-11.886-9.36-17.389 1.92.22 3.84.66 5.76.88-3.12-4.402-6-8.584-9.12-12.986-4.08 3.962-7.68 8.584-11.28 12.986zM1321.68 685.641c2.64-.44 5.28-1.541 7.44-3.522-3.12 7.924-6.24 16.068-9.36 23.992 2.16-1.101 4.56-2.421 6.72-3.522-.72 9.465-2.64 18.49-5.76 27.074 2.64-.881 5.04-1.761 7.68-2.642-.96 8.365-2.4 16.509-4.32 24.433 16.56 0 32.88-1.101 49.2-3.742-6-6.383-11.04-14.087-14.4-22.451 2.16 1.76 5.04 2.201 7.2 1.1-6.48-9.244-12.96-18.269-19.44-27.514 2.64 0 5.04 0 7.68.221-5.04-6.384-10.32-12.547-16.08-18.27 2.4-.22 4.8-.22 6.96-.44-4.8-4.402-9.6-8.804-14.4-12.986-3.12 5.943-6.24 12.106-9.12 18.269z" fill="#554E70"/><path d="M1374.48 698.187c1.92 0 4.08-.44 6-1.321l-10.8 15.848c1.92-.44 3.6-1.1 5.52-1.54-1.92 6.603-5.04 12.986-8.64 18.489 1.92-.22 3.84-.661 5.76-.881-2.16 5.723-4.56 11.446-7.2 16.729 11.76 2.421 23.76 3.742 35.76 4.402-3.12-5.503-5.52-11.666-6.48-18.049 1.2 1.541 3.12 2.201 5.04 1.761l-9.36-22.451c1.92.44 3.6.88 5.52 1.1-2.64-5.283-5.28-10.345-8.4-15.408l5.04.661c-2.64-3.742-5.28-7.484-8.16-11.446-3.12 4.182-6.24 8.144-9.6 12.106zM886.08 687.842c1.92 0 4.08-.66 5.76-1.761a578.2 578.2 0 00-9.84 16.068c1.68-.66 3.6-1.321 5.28-1.761a72.543 72.543 0 01-7.68 18.71c1.92-.441 3.84-.661 5.76-1.101-1.68 5.723-3.84 11.446-6.24 16.948 11.76 1.761 23.52 2.422 35.28 2.201-3.36-5.282-5.76-11.225-7.2-17.388 1.2 1.321 3.12 1.981 5.04 1.541-3.36-7.264-6.72-14.308-10.08-21.571 1.68.22 3.6.66 5.28.88-2.64-5.062-5.76-9.905-8.88-14.747 1.68.22 3.36.22 5.04.44-2.88-3.522-5.52-7.263-8.4-10.785-3.12 4.182-6 8.364-9.12 12.326zM710.64 703.25c2.16 0 4.32-.661 6.24-1.761-3.6 5.282-6.96 10.785-10.56 16.068 1.92-.661 3.84-1.101 5.76-1.761-1.68 6.603-4.56 12.986-8.16 18.709 2.16-.44 4.08-.66 6.24-1.1-1.92 5.722-4.08 11.445-6.72 16.948 12.48 1.761 25.2 2.641 37.92 2.421a51.278 51.278 0 01-7.68-17.609c1.44 1.321 3.36 1.981 5.28 1.541-3.6-7.263-7.2-14.307-11.04-21.571 1.92.221 3.84.661 5.76.881-2.88-5.063-6.24-9.905-9.6-14.747 1.92.22 3.6.22 5.52.44-3.12-3.522-6-7.264-9.12-10.786-3.6 4.183-6.72 8.145-9.84 12.327zM650.16 701.489c1.68-.22 3.36-1.101 4.56-2.201-1.92 5.062-3.6 10.125-5.52 15.187 1.44-.66 2.88-1.541 4.08-2.201-.24 5.943-1.2 11.666-3.12 16.948 1.68-.66 3.12-1.1 4.8-1.76-.48 5.062-1.2 10.345-2.4 15.187 10.32-.22 20.64-1.32 30.72-3.081-3.84-3.962-7.2-8.585-9.36-13.867 1.44 1.1 3.12 1.32 4.56.44-4.32-5.503-8.4-11.226-12.72-16.728h4.8c-3.36-3.962-6.72-7.704-10.32-11.226 1.44-.22 2.88-.22 4.32-.44-3.12-2.641-6.24-5.283-9.12-7.924-1.68 3.742-3.6 7.704-5.28 11.666zM1086.48 681.459c2.4.22 4.8-.22 6.96-1.321-4.56 5.723-9.12 11.446-13.68 17.389 2.16-.44 4.32-.881 6.24-1.321-2.88 7.484-6.72 14.307-11.28 20.69 2.16-.22 4.56-.44 6.72-.66-2.88 6.383-6 12.546-9.6 18.709 13.2 3.522 26.88 5.943 40.56 7.264-3.36-6.383-5.28-13.647-6-21.13 1.2 1.76 3.36 2.641 5.52 2.201-2.88-8.805-5.76-17.389-8.88-26.193 2.16.66 4.08 1.1 6.24 1.76a157.723 157.723 0 00-8.4-18.049c1.92.441 3.84.881 5.76 1.101-2.88-4.402-5.52-9.024-8.4-13.427-3.6 4.403-7.68 8.805-11.76 12.987z" fill="#554E70"/><path d="M1039.92 669.133c3.12 0 6.24-.661 8.88-2.421l-15.84 24.432c2.64-.881 5.52-1.761 8.16-2.422a114.36 114.36 0 01-12.48 28.395c2.88-.441 6-.881 8.88-1.541-2.88 8.804-6.48 17.388-10.32 25.753 18 3.301 36.24 5.062 54.48 5.502-5.04-8.144-8.64-17.608-10.32-27.293 1.92 2.201 4.8 3.301 7.68 2.421-5.04-11.226-9.84-22.451-14.88-33.677 2.88.44 5.52 1.101 8.4 1.541-4.08-7.924-8.4-15.628-13.2-23.111 2.64.22 5.28.66 7.68.88-4.32-5.723-8.4-11.446-12.72-16.948-5.04 6.383-9.6 12.326-14.4 18.489zM1128.72 697.087c1.68 0 3.36-.441 5.04-1.321-2.88 4.622-5.76 9.245-8.4 13.867 1.44-.44 3.12-1.101 4.56-1.541-1.44 5.723-3.6 11.226-6.48 16.068 1.68-.22 3.36-.66 5.04-.88-1.44 5.062-3.36 9.905-5.52 14.527 10.08 1.541 20.4 2.421 30.48 2.421-2.88-4.622-5.04-9.685-6.24-15.188 1.2 1.321 2.88 1.761 4.32 1.321-2.88-6.163-6-12.326-8.88-18.709 1.44.22 3.12.44 4.56.88-2.4-4.402-5.04-8.584-7.68-12.766 1.44.22 2.88.22 4.32.44-2.4-3.081-4.8-6.163-7.44-9.244-2.64 3.301-5.28 6.603-7.68 10.125zM803.52 706.551c1.68 0 3.36-.44 5.04-1.32-2.88 4.622-5.76 9.244-8.4 13.866 1.44-.44 3.12-1.1 4.56-1.54-1.44 5.722-3.6 11.225-6.48 16.068 1.68-.221 3.36-.661 5.04-.881-1.44 5.063-3.36 9.905-5.52 14.527 10.08 1.541 20.4 2.422 30.48 2.422-2.88-4.623-5.04-9.685-6.24-15.188 1.2 1.321 2.88 1.761 4.32 1.321-2.88-6.163-6-12.326-8.88-18.71 1.44.221 3.12.441 4.56.881-2.4-4.402-5.04-8.584-7.68-12.766 1.44.22 2.88.22 4.32.44-2.4-3.082-4.8-6.163-7.44-9.245-2.64 3.082-5.04 6.603-7.68 10.125z" fill="#554E70"/><path d="M28.08 604.861c1.2 0 2.4-.22 3.36-.881-1.92 2.862-3.84 5.943-6 8.805.96-.22 2.16-.661 3.12-.881-.96 3.742-2.64 7.044-4.56 10.345 1.2-.22 2.16-.44 3.36-.66-.96 3.082-2.4 6.383-3.84 9.245 6.96 1.1 13.92 1.54 21.12 1.54-1.92-2.861-3.6-6.163-4.32-9.684.72.88 1.92 1.1 2.88.88-1.92-3.962-4.08-7.924-6-11.886.96.22 2.16.44 3.12.44-1.68-2.861-3.36-5.502-5.28-8.144.96 0 1.92.22 3.12.22l-5.04-5.943c-1.68 1.981-3.36 4.403-5.04 6.604zM53.28 619.608c1.2 0 2.4-.22 3.36-.88-1.92 2.861-3.84 5.943-6 8.804.96-.22 2.16-.66 3.12-.88-.96 3.741-2.64 7.043-4.56 10.345 1.2-.221 2.16-.441 3.36-.661-.96 3.082-2.4 6.383-3.84 9.245 6.96 1.1 13.92 1.541 21.12 1.541-1.92-2.862-3.6-6.163-4.32-9.685.72.88 1.92 1.1 2.88.88-1.92-3.962-4.08-7.924-6-11.886.96.22 2.16.441 3.12.441-1.68-2.862-3.36-5.503-5.28-8.144.96 0 1.92.22 3.12.22l-5.04-5.943-5.04 6.603zM156.72 606.622c1.2 0 2.4-.22 3.36-.881-1.92 2.862-3.84 5.943-6 8.805.96-.22 2.16-.661 3.12-.881-.96 3.742-2.64 7.044-4.56 10.345 1.2-.22 2.16-.44 3.36-.66-.96 3.081-2.4 6.383-3.84 9.244 6.96 1.101 13.92 1.541 21.12 1.541-1.92-2.861-3.6-6.163-4.32-9.685.72.881 1.92 1.101 2.88.881-1.92-3.962-4.08-7.924-6-11.886.96.22 2.16.44 3.12.44-1.68-2.861-3.36-5.502-5.28-8.144.96 0 1.92.22 3.12.22l-5.04-5.943-5.04 6.604zM191.76 607.282c1.2 0 2.4-.22 3.36-.881-1.92 2.862-3.84 5.943-6 8.805.96-.22 2.16-.66 3.12-.881-.96 3.742-2.64 7.044-4.56 10.345 1.2-.22 2.16-.44 3.36-.66-.96 3.082-2.4 6.383-3.84 9.245 6.96 1.1 13.92 1.541 21.12 1.541-1.92-2.862-3.6-6.164-4.32-9.685.72.88 1.92 1.1 2.88.88-1.92-3.962-4.08-7.924-6-11.886.96.22 2.16.441 3.12.441-1.68-2.862-3.36-5.503-5.28-8.145.96 0 1.92.221 3.12.221l-5.04-5.943c-1.44 2.201-3.36 4.402-5.04 6.603zM368.64 619.388c1.2 0 2.4-.22 3.36-.881-1.92 2.862-3.84 5.943-6 8.805.96-.22 2.16-.66 3.12-.881-.96 3.742-2.64 7.044-4.56 10.346 1.2-.221 2.16-.441 3.36-.661-.96 3.082-2.4 6.383-3.84 9.245 6.96 1.1 13.92 1.541 21.12 1.541-1.92-2.862-3.6-6.163-4.32-9.685.72.88 1.92 1.1 2.88.88-1.92-3.962-4.08-7.924-6-11.886.96.22 2.16.441 3.12.441-1.68-2.862-3.36-5.503-5.28-8.145.96 0 1.92.221 3.12.221l-5.04-5.943c-1.44 2.201-3.12 4.402-5.04 6.603z" fill="#6C6384"/><path d="M383.52 629.733c1.2 0 2.4-.22 3.36-.88-1.92 2.861-3.84 5.943-6 8.804.96-.22 2.16-.66 3.12-.88-.96 3.741-2.64 7.043-4.56 10.345 1.2-.22 2.16-.44 3.36-.661-.96 3.082-2.4 6.384-3.84 9.245 6.96 1.101 13.92 1.541 21.12 1.541-1.92-2.862-3.6-6.163-4.32-9.685.72.88 1.92 1.101 2.88.88-1.92-3.962-4.08-7.923-6-11.885.96.22 2.16.44 3.12.44-1.68-2.862-3.36-5.503-5.28-8.144.96 0 1.92.22 3.12.22l-5.04-5.943-5.04 6.603zM562.32 643.38c1.2 0 2.4-.22 3.36-.881-1.92 2.862-3.84 5.943-6 8.805.96-.22 2.16-.661 3.12-.881-.96 3.742-2.64 7.044-4.56 10.346 1.2-.221 2.16-.441 3.36-.661-.96 3.082-2.4 6.383-3.84 9.245 6.96 1.1 13.92 1.54 21.12 1.54-1.92-2.861-3.6-6.163-4.32-9.684.72.88 1.92 1.1 2.88.88-1.92-3.962-4.08-7.924-6-11.886.96.22 2.16.44 3.12.44-1.68-2.861-3.36-5.502-5.28-8.144.96 0 1.92.221 3.12.221l-5.04-5.943a86.12 86.12 0 00-5.04 6.603z" fill="#6C6384"/><path d="M580.8 634.135c1.44 0 2.88-.44 4.32-1.1-2.4 3.742-4.8 7.263-7.2 11.005 1.2-.44 2.64-.88 3.84-1.32-1.2 4.622-3.12 8.804-5.52 12.766l4.32-.66c-1.2 3.962-2.88 7.703-4.56 11.445 8.64 1.321 17.28 1.761 26.16 1.761-2.64-3.522-4.32-7.704-5.28-11.886.96.881 2.4 1.321 3.6 1.101-2.4-4.843-5.04-9.905-7.44-14.748 1.44.221 2.64.441 4.08.661-1.92-3.522-4.32-6.824-6.48-10.125 1.2.22 2.4.22 3.6.44-2.16-2.421-4.08-4.842-6.24-7.484-2.64 2.642-4.8 5.283-7.2 8.144zM698.4 656.146c1.2 0 2.4-.22 3.36-.88-1.92 2.861-3.84 5.943-6 8.804.96-.22 2.16-.66 3.12-.88-.96 3.742-2.64 7.043-4.56 10.345 1.2-.22 2.16-.44 3.36-.66-.96 3.081-2.4 6.383-3.84 9.244 6.96 1.101 13.92 1.541 21.12 1.541-2.16-2.862-3.6-6.163-4.32-9.685.72.881 1.92 1.101 2.88.881-1.92-3.962-4.08-7.924-6-11.886.96.22 2.16.44 3.12.44-1.68-2.862-3.36-5.503-5.28-8.144.96 0 1.92.22 3.12.22l-5.04-5.943c-1.44 2.201-3.36 4.402-5.04 6.603zM818.4 655.486c1.2 0 2.4-.22 3.36-.881-1.92 2.862-3.84 5.943-6 8.805.96-.22 2.16-.66 3.12-.881-.96 3.742-2.64 7.044-4.56 10.346 1.2-.221 2.16-.441 3.36-.661-.96 3.082-2.4 6.383-3.84 9.245 6.96 1.1 13.92 1.541 21.12 1.541-2.16-2.862-3.6-6.163-4.32-9.685.72.88 1.92 1.1 2.88.88-1.92-3.962-4.08-7.924-6-11.886.96.22 2.16.441 3.12.441-1.68-2.862-3.36-5.503-5.28-8.145.96 0 1.92.221 3.12.221l-5.04-5.943c-1.44 2.201-3.36 4.402-5.04 6.603zM912.24 637.217c1.2 0 2.16-.22 3.12-.881-1.68 2.642-3.6 5.283-5.28 8.144.96-.22 1.92-.66 2.88-.88-.96 3.302-2.4 6.383-4.08 9.465.96-.22 2.16-.441 3.12-.441-.96 2.862-2.16 5.723-3.36 8.365 6.24.88 12.72 1.32 19.2 1.32-1.92-2.641-3.12-5.723-3.84-8.804.72.66 1.68 1.1 2.64.66-1.92-3.521-3.6-7.263-5.52-10.785.96.22 1.92.22 2.88.44-1.44-2.641-3.12-5.062-4.8-7.484.96 0 1.92.221 2.64.221-1.44-1.761-3.12-3.522-4.56-5.503-1.92 2.201-3.36 4.182-5.04 6.163zM1004.64 628.412c1.2 0 2.16-.22 3.12-.88-1.68 2.641-3.6 5.283-5.28 8.144.96-.22 1.92-.66 2.88-.88-.96 3.301-2.4 6.383-4.08 9.464.96-.22 2.16-.44 3.12-.44-.96 2.862-2.16 5.723-3.36 8.364 6.24.881 12.72 1.321 19.2 1.321-1.92-2.641-3.12-5.723-3.84-8.804.72.66 1.68 1.1 2.64.66-1.92-3.522-3.6-7.264-5.52-10.786.96.221 1.92.221 2.88.441-1.44-2.642-3.12-5.063-4.8-7.484.96 0 1.92.22 2.64.22-1.44-1.761-3.12-3.522-4.56-5.503-1.92 2.201-3.36 4.182-5.04 6.163zM1119.12 623.13c1.2 0 2.64-.44 3.6-.881-2.16 3.082-4.08 6.163-6.24 9.465 1.2-.44 2.16-.66 3.36-1.101-.96 3.962-2.64 7.484-4.8 11.006l3.6-.66c-1.2 3.301-2.4 6.603-4.08 9.905 7.44 1.1 14.88 1.54 22.32 1.54-2.16-3.081-3.6-6.603-4.56-10.345.72.881 1.92 1.101 3.12.881l-6.48-12.547c1.2.22 2.16.441 3.36.441-1.68-3.082-3.6-5.943-5.52-8.585.96 0 2.16.22 3.12.22-1.68-2.201-3.6-4.182-5.28-6.383-1.68 2.201-3.6 4.623-5.52 7.044z" fill="#6C6384"/><path d="M1138.56 635.456c.96 0 1.92-.22 2.88-.66-1.68 2.421-3.12 4.842-4.8 7.263.96-.22 1.68-.44 2.64-.88-.72 3.081-2.16 5.943-3.84 8.584.96-.22 1.92-.44 2.88-.44-.96 2.641-1.92 5.062-3.12 7.704 5.76.88 11.52 1.32 17.28 1.1a24.1 24.1 0 01-3.6-7.924c.72.661 1.68.881 2.4.661l-5.04-9.905c.96.22 1.68.22 2.64.44-1.44-2.201-2.88-4.622-4.32-6.603.72 0 1.68.22 2.4.22-1.44-1.541-2.88-3.302-4.08-4.843l-4.32 5.283zM1249.2 646.461c.96 0 1.92-.22 2.88-.66-1.68 2.421-3.12 4.843-4.8 7.264.96-.22 1.68-.441 2.64-.881-.72 3.082-2.16 5.943-3.84 8.585.96-.221 1.92-.441 2.88-.441-.96 2.642-1.92 5.063-3.12 7.704 5.76.881 11.52 1.321 17.28 1.101a24.118 24.118 0 01-3.6-7.924c.72.66 1.68.88 2.4.66l-5.04-9.905c.96.22 1.68.22 2.64.44-1.44-2.201-2.88-4.622-4.32-6.603.72 0 1.68.22 2.4.22-1.44-1.541-2.88-3.301-4.08-4.842l-4.32 5.282zM1268.88 631.714c1.2 0 2.64-.44 3.84-1.101-2.16 3.302-4.32 6.384-6.48 9.685 1.2-.44 2.4-.66 3.36-1.1-1.2 3.962-2.88 7.924-5.04 11.225 1.2-.22 2.4-.44 3.84-.66-1.2 3.522-2.64 6.823-4.08 10.125 7.68 1.101 15.36 1.541 23.04 1.541-2.16-3.082-3.84-6.824-4.56-10.565.72.88 2.16 1.32 3.12.88-2.16-4.402-4.32-8.804-6.72-12.986l3.6.66c-1.68-3.082-3.84-5.943-5.76-9.025 1.2 0 2.16.22 3.36.22-1.92-2.201-3.6-4.402-5.52-6.603-2.16 2.862-4.08 5.283-6 7.704zM1363.44 657.467c1.2 0 2.64-.44 3.84-1.101-2.16 3.302-4.32 6.384-6.48 9.685 1.2-.44 2.4-.66 3.36-1.1-1.2 3.962-2.88 7.924-5.04 11.225 1.2-.22 2.4-.44 3.84-.66-1.2 3.522-2.64 6.823-4.08 10.125 7.68 1.1 15.36 1.541 23.04 1.541-2.16-3.082-3.84-6.824-4.56-10.566.72.881 2.16 1.321 3.12.881-2.16-4.402-4.32-8.805-6.72-12.987l3.6.661c-1.68-3.082-3.84-5.943-5.76-9.025 1.2 0 2.16.22 3.36.22-1.92-2.201-3.6-4.402-5.52-6.603-2.16 2.861-4.08 5.283-6 7.704zM1403.28 669.353c.96 0 1.92-.22 2.64-.661-1.44 2.422-3.12 4.623-4.56 7.044.72-.22 1.68-.44 2.4-.88-.72 2.861-1.92 5.722-3.6 8.144.96-.221 1.68-.221 2.64-.441-.96 2.422-1.92 5.063-2.88 7.264 5.52.88 11.04 1.1 16.56 1.1a17.516 17.516 0 01-3.36-7.703c.48.66 1.44.88 2.4.66-1.68-3.082-3.12-6.383-4.8-9.465.96.22 1.68.22 2.64.441-1.2-2.202-2.64-4.403-4.08-6.384.72 0 1.68.22 2.4.22-1.44-1.54-2.64-3.081-4.08-4.622-1.68 1.761-2.88 3.522-4.32 5.283z" fill="#6C6384"/><path d="M1419.12 665.611c1.2 0 2.4-.22 3.36-.881l-5.76 8.585c.96-.22 1.92-.661 3.12-.881a37.049 37.049 0 01-4.32 9.905c1.2-.22 2.16-.44 3.36-.66-.96 3.081-2.16 5.943-3.6 9.024a154.93 154.93 0 0020.16 1.321c-1.92-2.861-3.36-5.943-4.08-9.245.72.661 1.92 1.101 2.88.881-1.92-3.742-3.84-7.704-5.76-11.446.96.22 2.16.22 3.12.44-1.68-2.641-3.36-5.282-5.04-7.703.96 0 1.92.22 2.88.22-1.68-1.981-3.12-3.742-4.8-5.723-1.92 1.981-3.84 3.962-5.52 6.163zM924 628.412c1.2 0 2.64-.44 3.6-.88-2.16 3.082-4.08 6.383-6.24 9.465 1.2-.441 2.16-.661 3.36-1.101-.96 3.962-2.64 7.704-4.8 11.006l3.6-.661c-1.2 3.302-2.4 6.604-4.08 9.905 7.44 1.101 14.88 1.541 22.56 1.541-2.16-3.082-3.84-6.603-4.56-10.345.72.88 2.16 1.1 3.12.88-2.16-4.182-4.32-8.364-6.48-12.766 1.2.22 2.4.44 3.36.44a55.451 55.451 0 00-5.76-8.584c.96 0 2.16.22 3.12.22-1.68-2.201-3.6-4.182-5.28-6.383-1.68 2.421-3.6 4.842-5.52 7.263zM171.84 594.736c1.44 0 3.12-.441 4.32-1.101-2.4 3.742-5.04 7.484-7.44 11.226 1.44-.441 2.64-.881 4.08-1.321-1.2 4.622-3.12 9.025-5.76 12.986l4.32-.66c-1.44 3.962-2.88 7.924-4.8 11.666 8.88 1.321 17.76 1.981 26.64 1.761-2.64-3.742-4.32-7.924-5.28-12.106.96 1.1 2.4 1.32 3.6 1.1-2.64-5.062-5.04-9.905-7.68-14.967 1.44.22 2.64.44 4.08.66-2.16-3.522-4.32-7.043-6.72-10.345 1.2.22 2.64.22 3.84.44-2.16-2.421-4.32-5.062-6.48-7.483-2.16 2.421-4.56 5.282-6.72 8.144z" fill="#6C6384"/><path d="M210 270.955c-19.92-5.063-40.08-9.025-60.72-10.125-25.2-1.321-52.08.22-74.4-11.006-6.72-3.522-12.96-7.924-19.92-11.005-16.8-7.704-36.24-6.824-55.2-4.182v77.258c28.08-.88 55.92-3.081 83.52-7.924 24.96-4.402 49.92-11.005 75.36-9.685 15.36.881 30.72 4.843 46.08 4.623.96 0 1.92 0 2.88-.22 17.04-1.761 18.72-23.772 2.4-27.734zM391.888 350.384c-20.88-.66-39.84-12.766-60.72-12.106-10.32.44-20.4 4.182-30 7.704-20.16 7.704-40.32 15.408-60.48 22.891-10.08 3.742-22.08 13.207-16.08 21.351 1.92 2.641 5.52 4.182 8.88 5.063 31.44 9.684 65.76.44 98.64 3.741 17.76 1.761 34.8 7.044 52.32 11.006 67.44 14.747 138.48 7.043 206.4-5.283 12.24-2.201 27.84-8.584 25.68-20.03-1.2-5.943-7.2-10.125-13.44-12.106-18.48-6.163-39.36.661-58.56-3.081-18.96-3.742-34.08-17.169-51.84-24.652-14.88-6.384-32.16-8.365-48.24-5.723-17.76 3.301-34.56 11.665-52.56 11.225z" fill="#EAF5FC"/><path d="M169.2 111.816c0 16.068-14.16 29.054-31.68 29.054-17.76 0-31.92-12.986-31.92-29.054 0-16.068 14.16-29.055 31.68-29.055 17.76 0 31.92 12.987 31.92 29.055z" fill="#fff"/><path d="M1025.04 796.796c-25.68-4.622-55.92-13.647-91.2-9.245-35.28 4.623-44.88-1.54-68.88-10.785-24-9.245-43.2-16.728-73.68-19.81-30.48-3.081-103.92-3.081-124.8-7.704-20.88-4.622-41.52-16.728-72-27.513-30.48-10.786-103.92-9.245-123.12-10.786-19.2-1.54-64.08 0-84.72-3.081-20.88-3.082-100.8 6.163-100.8 6.163s-67.2-4.622-107.28-10.786c-40.08-6.163-49.68-15.187-88.08-24.432-26.64-6.383-67.92-21.57-90.72-30.155V844.78h1171.68c-54.48-18.93-130.32-45.123-146.4-47.984z" fill="#342E47"/><path d="M1025.04 796.796c-25.68-4.622-55.92-13.647-91.2-9.245-35.28 4.623-44.88-1.54-68.88-10.785-24-9.245-43.2-16.728-73.68-19.81-30.48-3.081-103.92-3.081-124.8-7.704-20.88-4.622-41.52-16.728-72-27.513-30.48-10.786-103.92-9.245-123.12-10.786-19.2-1.54-64.08 0-84.72-3.081-20.88-3.082-100.8 6.163-100.8 6.163s-67.2-4.622-107.28-10.786c-40.08-6.163-49.68-15.187-88.08-24.432-26.64-6.383-67.92-21.57-90.72-30.155V844.78h1171.68c-54.48-18.93-130.32-45.123-146.4-47.984z" fill="#342E47"/><path d="M60 685.421c59.52 28.394 129.6 37.638 195.6 26.633-23.04-1.981-54.24-4.843-76.8-8.364-40.08-6.163-49.68-15.188-88.08-24.432C64.08 672.874 22.8 657.687 0 649.103v17.828c19.92-1.32 41.04 9.465 60 18.49zM1025.04 796.796c-25.68-4.622-55.92-13.647-91.2-9.245-35.28 4.623-44.88-1.54-68.88-10.785-24-9.245-43.2-16.728-73.68-19.81-30.48-3.081-103.92-3.081-124.8-7.704-20.88-4.622-41.52-16.728-72-27.513-24-8.364-75.12-9.245-104.88-9.905 44.88 12.986 89.76 25.753 134.64 38.739 26.88 7.704 54.24 15.628 82.56 16.948 30 1.321 60.48-4.402 89.52 1.761 24.24 5.283 45.6 18.71 69.12 25.973 29.28 9.025 60.96 8.584 91.92 9.905 54.48 2.421 108 10.785 161.28 21.351-41.76-14.307-82.32-27.734-93.6-29.715z" fill="#46405D"/><path d="M562.32 724.6c-8.4-9.465-17.04-19.149-25.44-28.614 13.44 3.082 25.92 9.685 35.52 18.709 5.28-16.288 20.4-29.494 38.4-33.456-6 10.125-10.56 21.13-13.44 32.356 6.72-5.503 17.52-5.723 24.72-.881-10.8 6.604-22.32 12.546-34.08 17.609-4.32 1.761-9.12 3.742-13.68 2.641-5.28-.88-8.88-4.622-12-8.364zM800.4 755.415c9.36-10.785 27.36-14.527 41.04-8.584-14.4 3.082-27.84 9.465-39.12 18.269-1.92 0-3.84.22-6 .22-5.52-9.244-12.48-17.608-20.64-25.092 10.8-1.321 22.08 5.723 24.72 15.187zM156 697.086c9.36-10.785 27.36-14.527 41.04-8.584-14.4 3.082-27.84 9.465-39.12 18.269-1.92 0-3.84.22-6 .22-5.52-9.244-12.48-17.608-20.64-25.092 10.8-1.321 22.08 5.723 24.72 15.187zM1019.76 781.829c7.68 2.641 13.92 7.923 17.28 14.747 4.56-12.326 17.28-21.571 31.2-23.332-4.8 9.465-11.76 18.269-20.4 25.313 5.76-3.302 12.96-4.622 19.68-3.082-7.44 6.383-16.8 11.446-26.88 10.566-12.48-1.321-22.56-12.987-20.88-24.212z" fill="#46405D"/><path d="M452.16 821.448c5.76-15.848 7.2-32.796 8.4-49.744.72-9.685 1.44-19.59-1.92-28.835-3.36-9.244-12-17.388-22.56-18.049-13.92-.66-24 11.226-34.32 19.81-10.56 8.804-27.84 18.049-42 19.81-28.8 3.522-20.4-18.049-18.24-36.758-7.68-7.264-19.92-9.465-30.96-7.484-10.8 1.761-20.88 6.823-30.24 12.106-41.52 22.671-80.4 49.525-115.68 79.68-10.32 8.804-21.12 20.25-20.4 32.796h294.24c6.24-6.824 10.56-14.968 13.68-23.332z" fill="#282339"/><path d="M607.44 813.304c-144.96-8.804-291.12-3.301-435.36-20.47-26.4-3.082-53.28-7.264-77.52-17.609-31.92-13.867-61.68-38.959-94.8-43.581V845h868.08c-85.68-15.848-172.8-26.413-260.4-31.696z" fill="#282339"/><path d="M694.8 788.212c-4.08-.22-8.4-.22-12.24.88-3.84 1.101-7.68 3.522-8.88 7.264-1.2 3.301 0 6.823 2.16 9.684 2.16 2.862 5.28 4.843 8.64 6.384 18 9.024 40.56 8.584 59.04.88 3.36-1.321 6.72-3.081 8.88-5.723 2.4-2.641 3.36-6.383 2.16-9.464-1.44-2.862-4.56-4.843-7.68-6.164-12.48-5.942-38.4-3.301-52.08-3.741z" fill="#282339"/><path d="M727.44 806.481c10.32-1.981 31.92-6.163 24.48-20.03-1.44-2.862-3.12-5.503-4.56-8.364-8.64-16.068-34.08-22.011-50.64-11.666-8.4 5.282-13.2 20.03-9.6 28.614a86.166 86.166 0 0028.32 11.006c4.08.66 8.16 1.1 12 .44z" fill="#98818F"/><path d="M710.64 787.771c-8.64-4.622-15.6-14.307-11.52-22.451-.72.441-1.68.881-2.4 1.321-8.4 5.283-13.2 20.03-9.6 28.614a86.166 86.166 0 0028.32 11.006c3.84.66 7.92 1.1 12 .44 9.6-1.761 28.8-5.503 25.68-17.169-4.32 1.541-8.64 2.862-13.2 3.522-10.08 1.321-20.64-.66-29.28-5.283z" fill="#836E74"/><path d="M154.32 765.981c.96-1.101 1.68-2.201 2.4-3.522 1.68-3.082 3.12-6.603 1.68-9.905-.96-1.981-2.64-3.522-4.56-4.842-3.36-2.642-6.72-5.063-10.8-6.604-3.84-1.32-7.92-1.541-12-1.761-5.76-.44-11.76-.66-16.8 1.761-6.96 3.082-10.8 10.345-11.52 17.389 0 .88-.24 1.541 0 2.421.48 1.321 1.44 2.201 2.4 3.082 11.04 8.804 27.6 11.445 41.28 6.603 3.12-1.101 6-2.421 7.92-4.622z" fill="#282339"/><path d="M131.04 724.82c-2.16 0-4.56 0-6.72.661-4.08 1.54-6.72 5.282-8.64 8.804-11.04 20.47 9.6 23.111 27.84 25.753 18.72 2.641 19.2-5.063 15.6-18.489-.96-3.522-1.92-7.264-4.56-10.346-5.04-5.943-14.88-6.383-23.52-6.383z" fill="#98818F"/><path d="M150 752.994c-2.4-.88-4.8-1.981-7.44-2.641-1.92-.44-3.84-.22-5.52-.66-6.48-1.101-11.04-6.824-11.52-12.767-.24-4.402 1.44-8.804 4.56-12.106-1.92 0-3.84.22-5.52.661-4.08 1.54-6.72 5.282-8.64 8.804-11.04 20.47 9.6 23.111 27.84 25.753 11.76 1.761 16.32-.661 17.04-5.943-3.6.44-7.44.22-10.8-1.101z" fill="#836E74"/><path d="M668.88 798.777c.48-.66.72-1.541.96-2.201.72-1.981.96-4.182 0-5.943-.72-1.101-1.92-1.761-3.12-2.421-2.16-1.101-4.56-2.422-6.96-2.862-2.4-.44-4.8-.22-7.2 0-3.36.22-6.96.661-9.84 2.421-3.84 2.422-5.28 7.044-4.8 11.226 0 .44 0 .88.24 1.321.48.66 1.2 1.1 1.92 1.54 7.44 4.183 17.52 4.183 24.96.221 1.44-.661 3.12-1.761 3.84-3.302z" fill="#282339"/><path d="M650.88 776.766c-1.44.22-2.64.44-3.84 1.101-2.16 1.32-3.36 3.741-4.08 5.943-4.32 12.986 8.16 12.546 19.2 12.546 11.28-.22 10.8-4.623 7.2-12.326-.96-1.981-1.92-4.182-3.84-5.723-3.84-2.862-9.6-2.201-14.64-1.541z" fill="#98818F"/><path d="M665.04 791.734c-1.44-.221-3.12-.661-4.56-.881-1.2 0-2.16.22-3.36.22-3.84 0-7.2-3.081-8.16-6.383-.72-2.641 0-5.283 1.44-7.484-1.2.22-2.16.441-3.12.881-2.16 1.32-3.36 3.742-4.08 5.943-4.32 12.986 8.16 12.546 19.2 12.546 6.96 0 9.36-1.981 9.36-5.063-2.4.441-4.56.441-6.72.221z" fill="#836E74"/><path d="M42.48 718.217c5.28 2.201 10.08 4.842 14.64 8.144-.96-6.603 1.92-13.647 7.68-17.829.48 6.383 1.2 12.766 1.68 19.15 3.6-2.862 7.92-4.623 12.48-5.503.48 1.1-.24 2.201-.96 3.081-3.84 5.503-8.64 11.666-15.84 12.106-3.12.22-6-.66-8.64-2.201-6.48-3.521-10.8-10.125-11.04-16.948zM475.2 791.513c-2.64-3.301-4.8-6.823-6.48-10.785 6.48-1.541 12.72 2.861 17.76 7.043a65.557 65.557 0 0110.08-30.815 82.183 82.183 0 012.88 32.356c3.12-2.861 7.44-4.842 11.76-5.282.24 3.741-2.64 7.043-5.52 9.464-4.56 3.742-10.32 7.044-16.56 6.383-5.76-.44-10.56-4.182-13.92-8.364zM804.48 816.826c7.44.22 14.88 3.302 19.92 8.364.24-9.024 5.52-18.049 13.68-23.111 0 7.263-2.64 14.747-7.2 20.69 3.12-1.101 6.48-1.541 9.84-1.101 0 .661 0 1.321-.24 2.201-5.52 4.403-12.24 8.805-19.44 7.264-5.04-1.101-8.64-5.062-11.76-8.804-1.68-1.761-3.36-3.742-4.8-5.503z" fill="#46405D"/><path d="M339.36 319.599s-21.6-24.873-10.32-47.984c0 0-5.52 1.101-5.52-3.302 0-4.402 14.88-9.464 14.88-9.464s10.8-19.81 17.52-22.011c6.72-2.201 5.52 5.502 5.52 5.502s26.4-15.847 42.48-13.646c16.08 2.201 1.92 17.168 1.92 17.168s15.12-2.861 18 1.101c2.88 3.962-11.28 18.709-11.28 18.709s16.32 31.916-6.48 59.87c-22.56 27.954-66.72-5.943-66.72-5.943z" fill="#CB562D"/><path d="M416.88 277.778c-1.2 3.522-2.64 6.823-5.52 9.024-4.08 3.302-11.28 3.522-13.92-.88-4.32 6.383-10.56 11.886-18.24 14.307-7.68 2.421-17.28.881-22.32-5.062-4.56-5.283-4.8-12.547-3.84-19.15-3.36 2.641-8.88 2.201-11.76-.66-2.88-3.082-2.64-8.144.48-10.786-1.92.22-4.08.661-6 .221-1.92-.441-3.84-1.541-4.32-3.302-3.84 1.761-7.92 4.402-7.92 6.603 0 4.402 5.52 3.302 5.52 3.302-11.28 23.111 10.32 47.984 10.32 47.984s43.92 33.676 66.72 5.943c14.16-16.949 13.44-35.658 10.8-47.544z" fill="#AC4A26"/><path d="M423.84 246.963c-2.88-3.962-18-1.101-18-1.101s13.92-14.967-1.92-17.168c-16.08-2.201-42.48 13.646-42.48 13.646s1.2-7.703-5.52-5.502c-3.12 1.1-6.96 5.502-10.32 10.345 1.44-1.101 2.88-1.981 4.56-2.641 4.08-1.321 9.84.88 10.08 4.842 9.6-5.503 19.92-9.905 30.72-12.987 3.12-.88 6.72-1.76 9.6 0 2.4 1.541 3.36 4.403 2.88 7.044-.24 2.641-1.68 5.062-3.12 7.264 5.04-2.202 11.52-1.321 15.6 2.201 1.68 1.32 2.64 3.081 3.36 5.062 3.12-4.182 6-8.804 4.56-11.005z" fill="#D37C30"/><path d="M304.8 685.641c-4.56.44-9.36 4.182-8.4 9.905.96 5.722 4.56 6.383 5.76 8.804 1.2 2.421-.96 26.853 1.44 31.035 2.4 4.183 30.48 2.202 39.36 0 6.96-1.76 18.96-6.383 14.4-16.508-3.12-7.043-17.52-9.905-25.2-5.502 0 0-.96-7.924-.96-9.245 0-1.321 6.72-2.201 6.72-6.603 0-4.403 4.08-15.188-33.12-11.886zM409.44 683.44c-4.32.88-8.64 5.062-6.96 10.785 1.68 5.723 5.28 5.723 6.96 8.144 1.44 2.421 2.64 26.853 5.76 30.595 2.88 3.742 29.52.881 37.92-2.201 6.72-2.641 17.76-9.244 12.72-17.829-4.08-6.823-17.04-7.924-25.2-5.062 0 0-1.92-7.924-2.16-9.245-.24-1.321 6.24-2.861 5.76-7.263-.96-4.403 1.68-15.408-34.8-7.924z" fill="#CB562D"/><path d="M305.04 511.754s-6.72 171.686-1.92 178.289c4.8 6.603 25.68 7.043 29.28 2.201 3.6-4.842 36-124.362 38.88-127.663 2.88-3.302 6-1.101 7.68 6.603 1.92 7.704 28.8 112.696 32.4 116.658 3.6 3.962 22.08 3.962 25.2-2.641 3.12-6.604 2.88-183.792.48-188.194-2.4-4.402-132 14.747-132 14.747z" fill="#4E343C"/><path d="M305.04 511.754s-.48 15.408-1.2 37.199c21.36.88 42.72-1.101 63.12-6.163 26.16-6.383 51.12-17.829 71.52-34.117 0-1.541 0-2.862-.24-4.182l-27.12-6.824c-38.4 4.182-106.08 14.087-106.08 14.087z" fill="#3C272D"/><path d="M297.12 361.199s-22.08 58.77-25.92 76.599c-4.08 18.048 18 49.524 18 49.524l27.12-68.234 6-57.228-25.2-.661z" fill="#DFA534"/><path d="M305.76 360.319s-22.08 58.769-25.92 76.598c-4.08 18.049 18 49.525 18 49.525l27.12-68.234 6-57.229-25.2-.66z" fill="#D58431"/><path d="M291.6 463.11s-8.4-2.201-12.96.44c-4.56 2.642-9.12 32.577-2.16 40.501 6.96 7.923 25.2 8.364 25.2 8.364l2.16-33.017-12.24-16.288z" fill="#5A5262"/><path d="M273.12 491.944c.24 5.063 1.44 9.685 3.36 12.106 6.96 7.924 25.2 8.365 25.2 8.365l2.16-33.017-7.44-9.905-7.2-1.1c0 9.685-6.48 19.369-16.08 23.551z" fill="#47414F"/><path d="M443.76 360.319s25.68 60.53 27.6 76.598c1.92 16.068-25.68 47.324-25.68 47.324l-31.2-67.574.48-45.563 28.8-10.785z" fill="#DFA534"/><path d="M431.76 357.458s25.68 60.53 27.6 76.598c1.92 16.068-25.68 47.323-25.68 47.323l-31.2-67.573.48-45.563 28.8-10.785z" fill="#D58431"/><path d="M403.44 517.477c13.2-1.761 39.36-10.785 45.36-17.608 6-6.824-8.16-87.824-14.4-96.408-6.24-8.585-40.32 18.489-40.32 18.489l2.88 28.394 3.84 25.312 2.64 41.821z" fill="#855358"/><path d="M417.36 456.727c4.8-5.283 25.2-9.245 29.76-6.383 4.56 2.861 7.2 42.041 1.92 49.524-5.28 7.484-30 15.628-33.36 14.968-3.36-.66-1.92-53.927 1.68-58.109z" fill="#5A5262"/><path d="M297.12 424.591s-24.96 56.128-9.84 82.321c15.12 26.193 126.72 20.69 131.76 1.981 5.04-18.709-6.96-78.799-6.96-78.799l-24.24-11.006-51.36-.22-39.36 5.723z" fill="#C2787D"/><path d="M411.84 430.094l-20.64-9.465c3.36 17.609 6.48 47.984-6.96 65.593-9.36 12.326-68.16 19.589-101.04 9.905.72 3.961 1.92 7.483 3.84 10.785 15.12 26.193 126.72 20.69 131.76 1.981 5.28-18.93-6.96-78.799-6.96-78.799z" fill="#A5676C"/><path d="M434.16 365.602s3.36 25.973 3.36 40.94c0 21.13-15.36 23.992-28.56 27.514-8.64 2.421-24.24-40.06-24.24-40.06l10.08-28.394 17.76-5.283 21.6 5.283z" fill="#855358"/><path d="M306.48 362.3s-26.16 34.997-15.84 59.209c10.32 24.213 112.08 18.71 121.68 10.786 9.6-7.924-7.2-50.185-2.88-66.913 4.32-16.729-102.96-3.082-102.96-3.082z" fill="#C2787D"/><path d="M409.44 365.381c1.2-5.062-7.68-7.263-20.64-8.144-.24 16.949 5.52 39.84-6.96 49.965-7.44 6.163-63.12 15.408-92.88 8.364.48 1.981.96 3.742 1.68 5.723 10.08 24.212 112.08 18.71 121.68 10.786 9.6-7.924-6.96-49.965-2.88-66.694z" fill="#A5676C"/><path d="M432.24 321.14c-30-.661-109.2-7.264-139.92-9.905-12.72-1.101-23.52 37.638-9.12 47.763 30.48 21.351 134.88 14.528 150.48 10.346l-1.44-48.204z" fill="#A7B3A7"/><path d="M285.36 315.417c30.96 2.641 109.92 9.244 139.92 9.905l1.2 45.342c3.12-.44 5.52-.88 6.96-1.321l-1.2-48.203c-30-.661-109.2-7.264-139.92-9.905-2.64-.22-5.28 1.32-7.68 4.182h.72z" fill="#B8CCBF"/><path d="M432.24 321.14h-1.92l.72 27.513c-15.6 3.962-120 10.786-150.48-10.345-1.44-1.1-2.88-2.421-3.84-4.182-1.68 9.905-.24 20.25 6.24 24.872 30.48 21.351 134.88 14.528 150.48 10.346l-1.2-48.204z" fill="#91A296"/><path d="M432.24 321.14c-18.96 1.32-23.52 34.117-16.08 42.261 7.68 8.144 28.08 9.904 34.8-6.164 6.96-16.288 3.6-37.638-18.72-36.097z" fill="#8A948B"/><path d="M443.04 333.906c-7.92-5.503-19.2.88-21.84 8.364-2.4 6.824 1.92 20.69 12.72 17.609 4.32-1.321 7.2-3.742 8.4-7.924.72-2.861-.24-7.264-3.36-8.584-6.96-3.302-15.6 5.723-7.92 9.464 2.4 1.101 4.08-1.76 2.16-3.301-1.44-1.981 0-2.862 4.08-2.421 1.44 1.1 1.2 3.301.72 4.842-1.2 4.622-7.2 5.503-10.8 2.641-6.48-5.282-2.4-14.527 3.6-18.049 12-7.263 17.52 9.245 17.28 16.949-.48 14.747-21.36 17.829-30.24 7.263-8.4-10.125-3.6-29.714 7.44-36.758.72-.44 0-1.321-.72-.88-9.36 4.622-13.44 16.948-13.44 25.973 0 10.565 7.2 20.029 18.96 21.35 22.08 2.641 28.08-25.973 12.96-36.538z" fill="#6A726C"/><path d="M412.08 431.414c-9.84 3.082-18.96 4.843-29.52 4.843-10.8 0-21.36-.22-32.16 0-18.48.66-41.28 1.981-56.16-10.125-.48-.44-1.2.22-.72.66 10.32 13.647 34.32 12.987 50.16 12.766 12.24-.22 24.48-.22 36.72-.22 10.8.22 23.28-.22 32.64-5.722 1.44-.881.48-2.862-.96-2.202z" fill="#855358"/><path d="M340.08 418.208c2.4-5.503 13.92-3.962 16.8 2.201 2.88 6.163.48 28.394.24 35.217-.24 6.824-16.32 5.503-19.44 1.101-3.12-4.402.48-33.897 2.4-38.519z" fill="#5A5262"/><path d="M346.08 445.061c-7.2-.88-6.72 9.025-.96 9.685 5.76.66 8.64-8.804.96-9.685zM347.76 421.73c-7.2-.881-6.72 9.024-.96 9.684 5.76.661 8.4-8.804.96-9.684z" fill="#DFA534"/><path d="M448.8 499.868c.48-.66.72-1.32.96-2.201-3.12-.22-6.48-1.1-9.36-2.641-8.16-4.182-13.44-12.106-15.36-20.47-1.68-7.264-1.2-14.968 0-22.451-3.6 1.32-6.48 2.641-7.92 4.402-3.6 4.182-5.04 57.228-1.92 58.109 3.12.88 28.08-7.264 33.6-14.748z" fill="#47414F"/><path d="M349.2 423.931c-.72-1.101-3.12-1.541-4.08-.441-.24.221-.24.661 0 .661.48.22.96.22 1.68.44s.96.44 1.68.44 1.2-.66.72-1.1zM350.64 425.912c0-.22 0-.441-.24-.441 0 0-.24 0-.24-.22-.48-.22-.96 0-.72.441 0 .22.24.44.24.66.24.44 1.2.44 1.2-.22-.24 0-.24-.22-.24-.22zM344.4 447.042c-.48.22-.48 1.101.24 1.101.48 0 1.2 0 1.68.22s.96.66 1.44.66c.48.22 1.2-.44.96-.88-.48-1.541-2.88-1.761-4.32-1.101zM349.44 451.004c-.24-.22-.72-.22-.96 0-.24.44-.24.66-.24 1.321.24.44.96.44 1.2 0 .24-.661.24-.881 0-1.321z" fill="#EBCA46"/><path d="M324.96 703.47c-6.24 1.32-11.52 1.76-18 .44-.72-.22-1.2.66-.48 1.1 4.8 2.201 14.88 3.302 19.2-.44.48-.44 0-1.32-.72-1.1zM433.2 698.187c-7.2 2.201-13.2 4.402-20.88 3.522-.48 0-.48.44-.24.66 2.4 1.981 6.72 1.541 9.6 1.101 4.08-.661 9.36-1.541 12.48-4.183.48-.22-.24-1.32-.96-1.1zM457.68 711.834c-1.68-1.981-4.32-4.182-6.96-4.623-.48 0-.96.441-.48.881 2.16 1.541 4.08 2.641 5.76 4.842 1.44 1.761 2.16 4.402 3.84 5.723.48.44 1.44.22 1.44-.44.24-2.201-2.16-4.622-3.6-6.383zM352.08 723.72c-1.2-2.201-3.12-4.182-4.8-6.163-1.68-1.981-3.84-3.742-6-5.283-.24-.22-.72.22-.48.44l5.76 5.943c1.44 1.761 2.64 3.962 4.32 5.503.72.88 1.68.22 1.2-.44z" fill="#D68631"/><path d="M1152.8 140.62c-5.04-.66-9.84-2.641-14.88-2.201-3.84.44-7.2 2.201-10.32 3.962-9.12 4.842-18 9.905-27.12 14.747-1.2 4.182 5.04 6.824 9.84 7.484 48.72 6.603 98.16 9.024 147.36 7.043 3.36-.22 6.96-.22 9.84-1.981 2.88-1.76 4.56-5.502 2.88-8.144-.96-1.32-2.64-2.201-4.32-2.861-7.68-3.082-16.56-3.742-24.72-1.981-12.24-16.508-35.52-25.313-56.88-21.351-10.8 1.981-21.12 6.824-31.68 5.283zM1232.4 454.966c-3.12 2.862-5.28 6.603-8.88 9.025-8.88 5.943-23.04 1.981-30.96 8.804.24 8.144 11.52 11.666 20.4 12.546 53.04 5.503 106.56 6.163 159.84 2.421 4.8-.44 10.32-1.1 12.96-4.842 3.84-5.283-1.44-12.766-7.92-14.747-6.48-2.201-13.68-.881-20.64-1.101-2.88 0-6-.44-8.4-2.201-1.92-1.541-2.88-3.522-4.32-5.503-5.76-8.804-17.04-13.646-28.32-14.087-11.04-.66-22.08 2.862-31.92 7.704-5.28 2.641-11.04 5.943-16.8 3.962-2.64-.88-4.8-2.861-7.2-4.402-8.16-5.283-20.64-4.182-27.84 2.421z" fill="#EAF5FC"/></svg>
