<svg width="100" height="100" viewBox="0 0 100 100" fill="none" xmlns="http://www.w3.org/2000/svg">
<path d="M11.7769 90L14.5212 73.2727H17.1348L14.3905 90H11.7769ZM4.28715 85.8509L4.72004 83.2372H17.7882L17.3553 85.8509H4.28715ZM5.89617 90L8.64049 73.2727H11.2541L8.50981 90H5.89617ZM5.24276 80.0355L5.68382 77.4219H18.752L18.3109 80.0355H5.24276ZM27.62 73.2727V90H24.0834V76.6296H23.9854L20.1548 79.0309V75.8945L24.2958 73.2727H27.62ZM31.5956 90V87.4517L37.5498 81.9386C38.0562 81.4485 38.4809 81.0075 38.8239 80.6154C39.1724 80.2234 39.4365 79.8395 39.6162 79.4638C39.7959 79.0826 39.8857 78.6715 39.8857 78.2305C39.8857 77.7404 39.7741 77.3184 39.5508 76.9645C39.3276 76.6051 39.0227 76.3301 38.6361 76.1396C38.2495 75.9435 37.8111 75.8455 37.3211 75.8455C36.8092 75.8455 36.3627 75.949 35.9816 76.1559C35.6004 76.3628 35.3064 76.6596 35.0995 77.0462C34.8926 77.4328 34.7891 77.8929 34.7891 78.4265H31.4322C31.4322 77.332 31.68 76.3819 32.1755 75.576C32.671 74.7701 33.3652 74.1467 34.2582 73.7056C35.1512 73.2646 36.1803 73.044 37.3456 73.044C38.5435 73.044 39.5862 73.2564 40.4738 73.6811C41.3668 74.1004 42.061 74.683 42.5565 75.429C43.052 76.175 43.2998 77.0298 43.2998 77.9936C43.2998 78.6252 43.1745 79.2487 42.9241 79.864C42.679 80.4793 42.2407 81.1626 41.6091 81.9141C40.9774 82.66 40.0872 83.5558 38.9383 84.6012L36.4961 86.9943V87.1087H43.5203V90H31.5956ZM46.1155 90V77.4545H49.5949V90H46.1155ZM47.8634 75.8374C47.3461 75.8374 46.9024 75.6658 46.5321 75.3228C46.1673 74.9743 45.9849 74.5578 45.9849 74.0732C45.9849 73.594 46.1673 73.1829 46.5321 72.8398C46.9024 72.4914 47.3461 72.3171 47.8634 72.3171C48.3807 72.3171 48.8217 72.4914 49.1866 72.8398C49.5568 73.1829 49.742 73.594 49.742 74.0732C49.742 74.5578 49.5568 74.9743 49.1866 75.3228C48.8217 75.6658 48.3807 75.8374 47.8634 75.8374ZM55.8616 82.7472V90H52.3821V77.4545H55.6982V79.668H55.8452C56.1229 78.9383 56.5885 78.3611 57.2419 77.9364C57.8953 77.5063 58.6875 77.2912 59.6187 77.2912C60.4899 77.2912 61.2495 77.4818 61.8974 77.8629C62.5454 78.2441 63.0491 78.7886 63.4084 79.4964C63.7678 80.1989 63.9475 81.0374 63.9475 82.0121V90H60.4681V82.6328C60.4735 81.8651 60.2775 81.2661 59.88 80.8359C59.4825 80.4003 58.9353 80.1825 58.2383 80.1825C57.77 80.1825 57.3562 80.2833 56.9968 80.4847C56.6429 80.6862 56.3652 80.9802 56.1638 81.3668C55.9677 81.748 55.867 82.2081 55.8616 82.7472ZM66.6571 90V87.4517L72.6113 81.9386C73.1177 81.4485 73.5424 81.0075 73.8854 80.6154C74.2339 80.2234 74.498 79.8395 74.6777 79.4638C74.8574 79.0826 74.9472 78.6715 74.9472 78.2305C74.9472 77.7404 74.8356 77.3184 74.6123 76.9645C74.3891 76.6051 74.0842 76.3301 73.6976 76.1396C73.311 75.9435 72.8726 75.8455 72.3826 75.8455C71.8708 75.8455 71.4243 75.949 71.0431 76.1559C70.6619 76.3628 70.3679 76.6596 70.161 77.0462C69.9541 77.4328 69.8506 77.8929 69.8506 78.4265H66.4937C66.4937 77.332 66.7415 76.3819 67.237 75.576C67.7325 74.7701 68.4267 74.1467 69.3197 73.7056C70.2127 73.2646 71.2418 73.044 72.4071 73.044C73.605 73.044 74.6477 73.2564 75.5353 73.6811C76.4283 74.1004 77.1225 74.683 77.618 75.429C78.1135 76.175 78.3613 77.0298 78.3613 77.9936C78.3613 78.6252 78.236 79.2487 77.9856 79.864C77.7405 80.4793 77.3022 81.1626 76.6706 81.9141C76.039 82.66 75.1487 83.5558 73.9998 84.6012L71.5577 86.9943V87.1087H78.5818V90H66.6571ZM87.3273 90.2287C86.1076 90.2287 85.0213 90.0191 84.0684 89.5998C83.121 89.1751 82.3723 88.5924 81.8223 87.8519C81.2778 87.1059 80.9974 86.2456 80.981 85.271H84.5421C84.5639 85.6793 84.6973 86.0387 84.9423 86.3491C85.1928 86.654 85.525 86.8909 85.9388 87.0597C86.3526 87.2285 86.8182 87.3129 87.3354 87.3129C87.8745 87.3129 88.351 87.2176 88.7648 87.027C89.1786 86.8364 89.5026 86.5723 89.7367 86.2347C89.9709 85.8971 90.0879 85.5078 90.0879 85.0668C90.0879 84.6203 89.9627 84.2255 89.7122 83.8825C89.4672 83.534 89.1133 83.2617 88.6504 83.0657C88.193 82.8697 87.6485 82.7717 87.0169 82.7717H85.4569V80.1744H87.0169C87.5505 80.1744 88.0215 80.0818 88.4299 79.8967C88.8437 79.7115 89.165 79.4556 89.3937 79.1289C89.6224 78.7968 89.7367 78.4102 89.7367 77.9691C89.7367 77.5498 89.636 77.1823 89.4345 76.8665C89.2385 76.5452 88.9608 76.2947 88.6014 76.1151C88.2475 75.9354 87.8337 75.8455 87.36 75.8455C86.8808 75.8455 86.4425 75.9326 86.045 76.1069C85.6475 76.2757 85.3289 76.518 85.0894 76.8338C84.8498 77.1496 84.7218 77.5199 84.7055 77.9446H81.3159C81.3323 76.9808 81.6072 76.1314 82.1408 75.3963C82.6745 74.6612 83.3932 74.0868 84.2971 73.6729C85.2064 73.2537 86.2328 73.044 87.3763 73.044C88.5306 73.044 89.5407 73.2537 90.4065 73.6729C91.2722 74.0922 91.9447 74.6585 92.4239 75.3718C92.9085 76.0797 93.1481 76.8746 93.1426 77.7567C93.1481 78.6933 92.8568 79.4747 92.2687 80.1009C91.6861 80.727 90.9265 81.1245 89.9899 81.2933V81.424C91.2205 81.5819 92.1571 82.0094 92.7996 82.7063C93.4475 83.3978 93.7688 84.2636 93.7634 85.3036C93.7688 86.2565 93.4938 87.1032 92.9384 87.8438C92.3885 88.5843 91.6289 89.1669 90.6597 89.5916C89.6904 90.0163 88.5796 90.2287 87.3273 90.2287Z" fill="black"/>
<g clip-path="url(#clip0_8929_417365)">
<path d="M90.2656 10.1711C90.0781 10.3188 89.9062 10.3577 89.2187 10.4043C88.7656 10.4277 88.1562 10.4899 87.8515 10.5287C87.2578 10.6065 86.289 11.0108 85.8984 11.3374C85.7734 11.4462 85.539 11.594 85.3906 11.6717C85 11.8661 84.0156 12.8381 83.6875 13.3435C83.539 13.5767 83.289 14.0355 83.1406 14.3543C82.9844 14.6731 82.7969 15.0307 82.7265 15.1396C82.6484 15.2485 82.5078 15.5828 82.414 15.8783C82.1484 16.7025 82.1094 16.7258 81.1953 16.407C80.7734 16.2671 80.375 16.1426 80.2969 16.1426C80.2265 16.1426 79.914 16.0571 79.5937 15.9483C78.3984 15.5362 78.0937 15.4973 76.6172 15.5051C75.4922 15.5128 75.1328 15.5439 74.7031 15.6683C74.0937 15.8472 73.3906 15.9483 72.0312 16.0649C71.4922 16.1115 70.7187 16.1971 70.3125 16.2593C69.9062 16.3215 69.1484 16.407 68.6328 16.4459C68.1172 16.4925 67.4844 16.5858 67.2265 16.6558C66.9687 16.718 66.5859 16.7802 66.3672 16.7725C66.1562 16.7725 65.8047 16.8036 65.5859 16.8502C64.9531 16.9668 63.4531 17.169 62.6172 17.239C61.0234 17.3867 60.8984 17.4023 60.6953 17.55C60.5547 17.6511 60.3515 17.6977 60.0859 17.6977C59.789 17.6977 59.5703 17.7599 59.2422 17.931C59 18.0554 58.7031 18.1643 58.5781 18.1643C58.4609 18.1643 58.1406 18.2498 57.875 18.3587C57.6094 18.4675 57.2812 18.5531 57.1406 18.5531C56.9062 18.5531 56.5625 18.7863 56.5625 18.9418C56.5625 19.004 54.4609 19.4861 53.7109 19.6027C53.5391 19.6338 53.1016 19.7505 52.7344 19.8671C52.3672 19.9915 51.8984 20.1237 51.6797 20.1704C50.8281 20.3492 49.5 20.8002 49.1172 21.049C48.6484 21.3445 47.6953 21.9043 47.0937 22.2464C46.8125 22.4019 46.5937 22.6119 46.4062 22.8918C46.25 23.1173 45.9531 23.4283 45.75 23.5916C45.3437 23.9026 44.8906 24.5635 44.3828 25.5899C44.2187 25.9398 44.0234 26.2663 43.9531 26.3208C43.8828 26.3752 43.8281 26.4685 43.8281 26.5229C43.8281 26.5774 43.7812 26.6629 43.7187 26.7095C43.6562 26.764 43.5781 26.9506 43.5547 27.1294C43.5234 27.3083 43.3984 27.5726 43.2734 27.7281C42.4531 28.739 42.2422 28.9722 42.1094 29.0111C42.0234 29.0422 41.9531 29.0889 41.9531 29.12C41.9531 29.1511 41.8672 29.221 41.7578 29.2677C41.625 29.3299 41.5625 29.4232 41.5625 29.5476C41.5625 29.672 41.5078 29.7575 41.4062 29.7886C41.3203 29.812 40.9766 30.0686 40.6484 30.3485C39.9766 30.9161 39.0625 31.5226 38.2812 31.9269C38 32.0669 37.7344 32.2068 37.6875 32.2302C37.6406 32.2535 37.3906 32.4168 37.1406 32.5878C36.8828 32.7589 36.5781 32.9533 36.4531 33.0155C36.3281 33.0777 36.1797 33.2099 36.1094 33.3032C36.0469 33.4043 35.9219 33.482 35.8125 33.482C35.7109 33.482 35.5937 33.5442 35.5547 33.622C35.5156 33.6997 35.3281 33.8319 35.1406 33.9097C34.9531 33.9952 34.7578 34.1274 34.7031 34.1974C34.6484 34.2751 34.5469 34.3373 34.4766 34.3373C34.4062 34.3373 34.2969 34.3917 34.2266 34.4539C34.0781 34.5939 33.4687 35.0293 32.9844 35.3326C32.8047 35.4492 32.375 35.7447 32.0312 35.9857C31.2266 36.5611 30.9219 36.7555 29.8828 37.3309C29.4141 37.5953 28.8125 37.9374 28.5547 38.1007C28.0391 38.4195 27.6797 38.5361 27.2344 38.5361C27.0703 38.5361 26.7344 38.5827 26.4922 38.6449C26.25 38.7071 25.8281 38.7771 25.5469 38.8082C24.8359 38.8782 22.3359 39.2825 21.6797 39.4303C20.8594 39.6169 18.8359 40.2934 17.9062 40.6899C16.8516 41.1409 15.7734 41.7085 14.8437 42.3072C14.4375 42.5716 13.7656 42.9448 13.3594 43.1392C12.9531 43.3336 12.1719 43.7068 11.6328 43.9712C11.0937 44.2278 10.6172 44.4455 10.5859 44.4455C10.5469 44.4455 9.8125 44.7876 8.95312 45.2152L7.38281 45.9772L6.25 46.0628C5.01562 46.1561 4.60156 46.2649 2.61719 47.0503C1.125 47.6412 0.992187 47.7578 0.351562 49.0252L-0.0078125 49.7484L0.15625 50.3082C0.320312 50.8369 0.710937 51.5834 1.20312 52.2754C1.32812 52.462 1.77344 52.8897 2.1875 53.224C2.9375 53.8383 2.95312 53.8538 3.28125 54.608C4.0625 56.3964 4.66406 57.4228 5.19531 57.8893C5.64844 58.2859 6.05469 58.5113 7.25781 59.0479C8.25781 59.4833 8.46094 59.5533 9.125 59.6155C9.83594 59.6932 9.88281 59.6854 10.2734 59.4911C10.7187 59.2733 11.4062 58.7135 11.4062 58.5658C11.4062 58.5191 11.4922 58.3481 11.6016 58.1926C11.8594 57.8193 11.9062 57.5394 11.7969 57.1351C11.6953 56.7541 11.2969 56.2642 11.0937 56.2642C11.0156 56.2642 10.8828 56.202 10.7891 56.1243C10.5859 55.961 10.5234 55.6266 10.2891 53.3795L10.1094 51.7L10.375 51.3968C10.5156 51.2335 10.6484 51.008 10.6797 50.8991C10.7031 50.7903 10.7891 50.5959 10.8672 50.4715C11.1953 49.935 11.2656 49.7795 11.3125 49.4762L11.3672 49.1496L12.2656 48.7064C13.6328 48.0377 16.5234 47.0891 17.1953 47.0891C17.3281 47.0891 17.7422 47.0192 18.1172 46.9336C18.4844 46.8559 19.1797 46.7081 19.6484 46.6226C20.9453 46.3738 22.1016 46.0472 23.7578 45.4563C25.3281 44.8964 26.6562 44.531 27.5391 44.4066C27.9687 44.3444 29.0078 44.2044 29.8437 44.0956C31.9531 43.8157 32.125 43.7768 32.8828 43.3802C33.25 43.1936 33.875 42.8981 34.2578 42.7349C34.6484 42.5716 35.3281 42.2683 35.7812 42.0739C36.2344 41.8718 36.8281 41.623 37.1094 41.5219C37.3906 41.4286 38.0078 41.1953 38.4766 41.0165C38.9531 40.8376 39.5156 40.6355 39.7266 40.5577C39.9453 40.48 40.2734 40.3478 40.4687 40.2545C40.6641 40.1689 40.8828 40.0912 40.9609 40.0912C41.0391 40.0912 41.3906 40.2311 41.7422 40.3944C42.3359 40.6821 43.2344 40.9776 44.4531 41.3119C44.7891 41.4052 45.25 41.4519 45.8203 41.4519H46.6797L47.3203 40.9854C47.6719 40.7288 48.2969 40.3089 48.7031 40.0523C49.1172 39.7957 49.6797 39.4069 49.9687 39.197C50.2578 38.9793 50.5937 38.7305 50.7265 38.6372L50.9687 38.4583L51.1797 38.6605C51.5234 38.9871 51.7266 38.9171 53.3516 37.9296C53.8672 37.6186 54.3906 37.3231 54.5234 37.2687C54.7812 37.1754 54.7969 37.1831 55.5937 37.6652C55.8594 37.8207 56.5937 38.2639 57.2344 38.6449C57.875 39.0182 58.5469 39.4303 58.7344 39.5547C58.914 39.6791 59.1015 39.7802 59.1406 39.7802C59.2344 39.7802 59.3906 40.0756 59.3437 40.1612C59.3203 40.2 58.9531 40.27 58.539 40.3167C57.4844 40.4489 56.125 40.7754 54.5625 41.2964C52.625 41.9418 52.4375 41.9962 49.9687 42.6182C47.789 43.1781 47.7109 43.1858 47.5156 43.0614C47.3516 42.9526 47.125 42.9292 46.2891 42.9292C45.3437 42.937 45.2109 42.9526 44.2969 43.2247C41.9687 43.9323 41.2891 44.1578 41.1953 44.2822C41.1406 44.3522 41.0078 44.5388 40.8906 44.6943L40.6875 44.982L41.0547 46.0939C41.8516 48.4887 42.9922 50.9302 44.2422 52.8974C44.3516 53.0685 44.625 53.5895 44.8516 54.0482C45.2187 54.8102 45.3047 54.9191 45.8516 55.3856C46.6562 56.0698 46.8203 56.1476 47.1953 56.0387C47.375 55.9843 47.5781 55.8366 47.7266 55.65C47.9687 55.3545 47.9687 55.3467 47.9297 54.5458C47.9062 54.1026 47.8437 53.3173 47.7969 52.8041C47.6328 51.3112 47.6719 50.5104 47.9297 49.7328C48.0859 49.2663 48.2266 49.0019 48.3984 48.8386C48.7734 48.4965 48.9844 48.1466 48.9844 47.8822C48.9844 47.7501 49.0156 47.6256 49.0547 47.6023C49.0859 47.579 49.1406 47.4157 49.1719 47.2446C49.1953 47.0736 49.2656 46.9259 49.3203 46.9259C49.3672 46.9181 49.5391 46.9025 49.6875 46.8947C49.8359 46.887 50.3125 46.7937 50.7422 46.677C52.3437 46.2572 54.0937 46.0861 56.8359 46.0783C57.7422 46.0705 58.7422 46.0394 59.0625 46.0006C59.3828 45.9695 60.1094 45.8839 60.664 45.814C61.2265 45.7518 62.375 45.6584 63.2187 45.6118C64.9922 45.5185 65.625 45.3863 66.6328 44.9042C67.1875 44.6399 67.4219 44.461 67.9765 43.9012C69.5078 42.3461 69.4765 41.4052 67.7969 39.0804C67.5078 38.676 66.8828 37.7819 66.414 37.0976C65.9453 36.4134 65.4531 35.7447 65.3281 35.6203C65.0547 35.3481 64.7969 34.9049 64.8594 34.8427C64.8828 34.8116 65.039 34.8272 65.2109 34.8738C65.5781 34.9749 66.3515 34.9827 66.6719 34.8894C66.8047 34.8505 67.164 34.7727 67.4609 34.7183C67.7656 34.6717 68.0781 34.6017 68.164 34.5706C68.25 34.5317 68.4765 34.4695 68.6719 34.4151C69.3203 34.2362 69.4844 34.1896 70.2969 33.9485C70.7422 33.8164 71.2187 33.7153 71.3515 33.7308L71.6015 33.7542L71.6719 34.5706C71.7187 35.0838 71.7187 35.8147 71.664 36.5378C71.6015 37.4475 71.6094 37.8518 71.6953 38.4428C71.7578 38.8549 71.789 39.4303 71.7656 39.7102C71.6797 40.6821 72.664 44.4455 73.8047 47.5168C74.4687 49.2974 74.7031 49.7484 75.2969 50.3548C75.789 50.8525 75.8515 50.8836 76.4062 51.0158C76.8594 51.1246 77.2969 51.1479 78.3203 51.1479C79.2969 51.1402 79.789 51.1713 80.1719 51.2568C80.5703 51.3579 80.8203 51.3657 81.2265 51.319C81.7969 51.2413 81.7969 51.249 81.7031 50.7047C81.6797 50.557 81.7187 50.5492 82.6562 50.5726C83.1953 50.5881 83.6953 50.6192 83.7734 50.6425C84.0859 50.7281 84.9922 52.843 86.2969 56.5286C86.539 57.2206 87.1172 58.5269 87.5469 59.39C87.8281 59.9498 87.9609 60.1209 88.2969 60.3697C89.2109 61.0384 89.5859 61.1239 91.8359 61.1239C93.125 61.1239 93.8047 61.085 94.5781 60.9762C95.5 60.8362 95.7578 60.8362 97.3515 60.914C99.1172 60.9917 99.6875 60.9606 99.8906 60.7585C100.047 60.603 99.9453 60.393 99.6953 60.3386C99.5859 60.3153 99.2109 60.2297 98.875 60.1442C98.5312 60.0664 98.1719 59.9965 98.0703 59.9965C97.9687 59.9965 97.8906 59.9498 97.8906 59.8954C97.8906 59.8254 98.1015 59.771 98.539 59.7166C99.6406 59.5766 99.8672 59.3589 99.5234 58.7524C99.3203 58.4025 99.2265 58.3636 97.9297 58.1303C97.0937 57.9826 95.6875 57.5316 95.2734 57.275C94.9453 57.0729 94.6953 57.0807 93.9062 57.3139C93.3594 57.4772 93.0937 57.5083 92.289 57.5083C91.3672 57.5083 91.3047 57.5005 90.8828 57.275C90.6406 57.1429 90.4062 57.0418 90.3515 57.0418C89.6719 57.0418 88.5469 52.703 88.0078 47.9367C87.8984 47.0036 87.4844 44.29 87.2187 42.7737C87.0078 41.5297 86.7187 40.5111 86.2578 39.337C86.0078 38.6994 85.7265 37.9607 85.6406 37.6808C85.3906 36.911 85.0859 35.1926 84.9922 34.0652C84.8906 32.8211 84.75 31.8647 84.5781 31.3049C84.5 31.0716 84.4219 30.6828 84.3984 30.4496C84.3672 30.0686 84.3828 29.9753 84.5625 29.7187C84.6719 29.5554 84.7812 29.2988 84.8125 29.1355C84.875 28.7545 85.0469 28.218 85.3672 27.3394C85.6328 26.624 85.6406 26.5774 85.5937 25.8309C85.5703 25.4033 85.5234 24.929 85.5 24.7812C85.4375 24.3769 85.5703 24.2603 86.3672 23.9881C87.2578 23.6771 87.6172 23.7004 89.5625 24.1514C91.5781 24.6257 91.9922 24.5635 92.1875 23.7549C92.2656 23.4283 92.3203 23.3505 92.5312 23.265C92.6953 23.195 92.8203 23.0706 92.8906 22.8996C92.9531 22.7518 93.0937 22.5186 93.2187 22.3786C93.3437 22.2386 93.4375 22.0287 93.4375 21.9121C93.4375 21.6166 93.5234 21.5155 93.914 21.3134C94.3203 21.119 94.4062 20.839 94.164 20.5047C93.8594 20.0926 93.7344 19.595 93.789 19.0818C93.8515 18.5764 93.8906 18.5219 94.5703 17.9777L94.8437 17.7599L94.7969 16.9668C94.7422 16.1426 94.8125 15.8316 95.039 15.8316C95.2109 15.8316 95.6875 15.3806 95.9062 15.0074C96.3281 14.2843 96.289 13.8411 95.75 13.289C95.5781 13.1102 95.2734 12.7681 95.0859 12.527C94.8828 12.2704 94.664 12.0761 94.539 12.0527C94.2734 11.9828 94.1406 11.8739 94.0547 11.6562C94.0156 11.5551 93.9297 11.454 93.8515 11.4229C93.7812 11.3918 93.6406 11.283 93.5469 11.1741C93.4062 11.0108 93.3203 10.9875 93 10.9953C92.6484 11.0108 92.6015 10.9875 92.4609 10.7542C92.3672 10.6065 92.2265 10.4976 92.1094 10.4821C92 10.4665 91.8594 10.4121 91.7969 10.3577C91.6015 10.1944 91.0312 10 90.75 10C90.6015 10 90.3984 10.07 90.2656 10.1711ZM79.6406 30.2785C79.7422 30.4496 80.2344 33.4587 80.4219 35.076C80.4609 35.457 80.8047 37.051 80.9453 37.5253C81.0156 37.7741 81.039 38.3495 81.0312 39.5547C81.0078 41.1176 81.0234 41.3042 81.2109 42.1128C81.3203 42.5949 81.5469 43.4113 81.7265 43.9323C81.8984 44.4532 82.125 45.223 82.2265 45.6507C82.414 46.4438 83.164 48.6209 83.289 48.7531C83.3281 48.7997 83.3594 48.9086 83.3594 49.0097C83.3594 49.173 83.3281 49.1885 82.9375 49.1885C82.3359 49.1885 80.1719 48.963 79.8047 48.862C79.6328 48.8153 78.9297 48.7531 78.2422 48.7298C77.1172 48.6909 76.9687 48.6676 76.75 48.5121C76.4609 48.3099 76.4297 48.1699 76.0156 45.8917C75.9687 45.6118 75.9375 44.0256 75.9375 41.9262C75.9375 38.9326 75.914 38.3261 75.8047 37.7585C75.6484 36.9654 75.6328 35.9235 75.7734 35.387C75.8281 35.1693 75.9062 34.384 75.9531 33.6375L76.0312 32.2768L76.2578 32.0591C76.3906 31.9425 76.5547 31.8492 76.6328 31.8492C76.7031 31.8492 76.7969 31.8181 76.8437 31.7792C76.9453 31.6781 78.0547 31.1027 78.2734 31.0327C78.375 31.0016 78.5156 30.9316 78.5859 30.8694C79.3047 30.2785 79.5547 30.1385 79.6406 30.2785Z" fill="black"/>
</g>
<defs>
<clipPath id="clip0_8929_417365">
<rect width="100" height="51.1628" fill="white" transform="translate(0 10)"/>
</clipPath>
</defs>
</svg>

