<svg xmlns="http://www.w3.org/2000/svg" fill="none" viewBox="0 0 14 14" id="Number-Two-Circle--Streamline-Core" height="14" width="14">
  <desc>
    Number Two Circle Streamline Icon: https://streamlinehq.com
  </desc>
  <g id="number-two-circle--number-two-circle-mathematics-equation-text">
    <path id="Ellipse 1519" fill="#d7e0ff" d="M0.5 7a6.5 6.5 0 1 0 13 0 6.5 6.5 0 1 0 -13 0" stroke-width="1"></path>
    <path id="Vector 3" stroke="#4147d5" stroke-linecap="round" stroke-linejoin="round" d="M9 10H5v-0.85232c0 -0.59594 0.35279 -1.13536 0.89877 -1.37423l2.22577 -0.97378C8.65636 6.567 9 6.04157 9 5.46109 9 4.65415 8.34585 4 7.53891 4H6.5c-0.65311 0 -1.20873 0.4174 -1.41465 1" stroke-width="1"></path>
    <path id="Ellipse 1518" stroke="#4147d5" stroke-linecap="round" stroke-linejoin="round" d="M0.5 7a6.5 6.5 0 1 0 13 0 6.5 6.5 0 1 0 -13 0" stroke-width="1"></path>
  </g>
</svg>