<svg xmlns="http://www.w3.org/2000/svg" fill="none" viewBox="0 0 14 14" id="Number-Three-Circle--Streamline-Core" height="14" width="14">
  <desc>
    Number Three Circle Streamline Icon: https://streamlinehq.com
  </desc>
  <g id="number-three-circle--number-three-circle-mathematics-equation-text">
    <path id="Ellipse 1519" fill="#d7e0ff" d="M0.5 7a6.5 6.5 0 1 0 13 0 6.5 6.5 0 1 0 -13 0" stroke-width="1"></path>
    <path id="Vector" stroke="#4147d5" stroke-linecap="round" stroke-linejoin="round" d="M5.04297 9c0.20591 0.58261 0.76154 1 1.41466 1l0.99999 0c0.82842 0 1.49999 -0.67156 1.49999 -1.49999l0 -0.25c0.00001 -0.82843 -0.67157 -1.50001 -1.5 -1.50001l-0.49999 0h0.375c0.75939 0 1.375 -0.61561 1.375 -1.375 0 -0.7594 -0.61561 -1.37501 -1.37501 -1.375l-0.75 0.00001c-0.62938 0 -1.15999 0.42287 -1.32323 0.99999" stroke-width="1"></path>
    <path id="Ellipse 1518" stroke="#4147d5" stroke-linecap="round" stroke-linejoin="round" d="M0.5 7a6.5 6.5 0 1 0 13 0 6.5 6.5 0 1 0 -13 0" stroke-width="1"></path>
  </g>
</svg>