<svg xmlns="http://www.w3.org/2000/svg" fill="none" viewBox="0 0 14 14" id="Number-Four-Circle--Streamline-Core" height="14" width="14">
  <desc>
    Number Four Circle Streamline Icon: https://streamlinehq.com
  </desc>
  <g id="number-four-circle--number-four-circle-mathematics-equation-text">
    <path id="Ellipse 1519" fill="#d7e0ff" d="M0.5 7a6.5 6.5 0 1 0 13 0 6.5 6.5 0 1 0 -13 0" stroke-width="1"></path>
    <path id="Vector 7" stroke="#4147d5" stroke-linecap="round" stroke-linejoin="round" d="M9.5 8.5H4.86344C4.66272 8.5 4.5 8.33728 4.5 8.13656v0c0 -0.08804 0.03195 -0.17308 0.08992 -0.23933l3.30731 -3.77978C7.96254 4.04281 8.05689 4 8.15607 4v0c0.18995 0 0.34393 0.15398 0.34393 0.34393v5.65605" stroke-width="1"></path>
    <path id="Ellipse 1518" stroke="#4147d5" stroke-linecap="round" stroke-linejoin="round" d="M0.5 7a6.5 6.5 0 1 0 13 0 6.5 6.5 0 1 0 -13 0" stroke-width="1"></path>
  </g>
</svg>