<svg width="24" height="24" viewBox="0 0 24 24" fill="none" xmlns="http://www.w3.org/2000/svg">
<g clip-path="url(#clip0_9971_10625)">
<path d="M2.25195 3.75H21.752C21.752 3.75 23.252 3.75 23.252 5.25V21.75C23.252 21.75 23.252 23.25 21.752 23.25H2.25195C2.25195 23.25 0.751953 23.25 0.751953 21.75V5.25C0.751953 5.25 0.751953 3.75 2.25195 3.75Z" stroke="black" stroke-width="1.5" stroke-linecap="round" stroke-linejoin="round"/>
<path d="M0.751953 9.75H23.252" stroke="black" stroke-width="1.5" stroke-linecap="round" stroke-linejoin="round"/>
<path d="M4 6.25V1" stroke="black" stroke-width="1.5" stroke-linecap="round" stroke-linejoin="round"/>
<path d="M20 6.25V1" stroke="black" stroke-width="1.5" stroke-linecap="round" stroke-linejoin="round"/>
<path d="M7.22401 8V7.57898L8.20774 6.66811C8.29141 6.58714 8.36158 6.51428 8.41825 6.4495C8.47583 6.38473 8.51946 6.32131 8.54915 6.25923C8.57884 6.19626 8.59368 6.12834 8.59368 6.05547C8.59368 5.9745 8.57524 5.90478 8.53835 5.84631C8.50147 5.78693 8.45109 5.7415 8.38722 5.71001C8.32334 5.67763 8.25092 5.66143 8.16996 5.66143C8.08539 5.66143 8.01162 5.67853 7.94865 5.71271C7.88568 5.7469 7.8371 5.79593 7.80291 5.8598C7.76873 5.92367 7.75163 5.99969 7.75163 6.08785H7.19702C7.19702 5.90703 7.23795 5.75005 7.31982 5.6169C7.40168 5.48376 7.51638 5.38075 7.66392 5.30788C7.81146 5.23501 7.98149 5.19858 8.17401 5.19858C8.37192 5.19858 8.5442 5.23366 8.69084 5.30384C8.83838 5.37311 8.95308 5.46937 9.03494 5.59261C9.11681 5.71586 9.15774 5.8571 9.15774 6.01634C9.15774 6.12069 9.13705 6.2237 9.09567 6.32536C9.05518 6.42701 8.98277 6.53991 8.87841 6.66406C8.77405 6.78731 8.62696 6.9353 8.43714 7.10803L8.03366 7.50341V7.5223H9.19418V8H7.22401ZM10.7012 8.06072C10.4691 8.05982 10.2693 8.0027 10.102 7.88935C9.93558 7.77599 9.80738 7.61181 9.71742 7.3968C9.62836 7.18179 9.58427 6.92315 9.58517 6.62088C9.58517 6.31951 9.62971 6.06267 9.71877 5.85035C9.80873 5.63804 9.93693 5.47656 10.1034 5.36591C10.2707 5.25436 10.47 5.19858 10.7012 5.19858C10.9324 5.19858 11.1312 5.25436 11.2976 5.36591C11.4649 5.47746 11.5936 5.63939 11.6835 5.8517C11.7735 6.06312 11.818 6.31951 11.8171 6.62088C11.8171 6.92405 11.7722 7.18314 11.6822 7.39815C11.5931 7.61316 11.4654 7.77734 11.299 7.8907C11.1325 8.00405 10.9333 8.06072 10.7012 8.06072ZM10.7012 7.57628C10.8595 7.57628 10.9859 7.49666 11.0803 7.33743C11.1748 7.1782 11.2216 6.93935 11.2207 6.62088C11.2207 6.41127 11.1991 6.23674 11.1559 6.0973C11.1136 5.95786 11.0534 5.85305 10.9751 5.78288C10.8977 5.71271 10.8064 5.67763 10.7012 5.67763C10.5437 5.67763 10.4178 5.75634 10.3233 5.91378C10.2289 6.07121 10.1812 6.30691 10.1803 6.62088C10.1803 6.83319 10.2014 7.01042 10.2437 7.15256C10.2869 7.2938 10.3476 7.39995 10.4259 7.47102C10.5041 7.54119 10.5959 7.57628 10.7012 7.57628ZM12.2338 8V7.57898L13.2175 6.66811C13.3012 6.58714 13.3713 6.51428 13.428 6.4495C13.4856 6.38473 13.5292 6.32131 13.5589 6.25923C13.5886 6.19626 13.6034 6.12834 13.6034 6.05547C13.6034 5.9745 13.585 5.90478 13.5481 5.84631C13.5112 5.78693 13.4609 5.7415 13.397 5.71001C13.3331 5.67763 13.2607 5.66143 13.1797 5.66143C13.0952 5.66143 13.0214 5.67853 12.9584 5.71271C12.8954 5.7469 12.8469 5.79593 12.8127 5.8598C12.7785 5.92367 12.7614 5.99969 12.7614 6.08785H12.2068C12.2068 5.90703 12.2477 5.75005 12.3296 5.6169C12.4114 5.48376 12.5261 5.38075 12.6737 5.30788C12.8212 5.23501 12.9913 5.19858 13.1838 5.19858C13.3817 5.19858 13.554 5.23366 13.7006 5.30384C13.8481 5.37311 13.9628 5.46937 14.0447 5.59261C14.1266 5.71586 14.1675 5.8571 14.1675 6.01634C14.1675 6.12069 14.1468 6.2237 14.1054 6.32536C14.065 6.42701 13.9925 6.53991 13.8882 6.66406C13.7838 6.78731 13.6367 6.9353 13.4469 7.10803L13.0434 7.50341V7.5223H14.2039V8H12.2338ZM14.5261 7.5142V7.05405L15.6799 5.23636H16.0766V5.8733H15.8418L15.1145 7.02436V7.04595H16.754V7.5142H14.5261ZM15.8526 8V7.37386L15.8634 7.1701V5.23636H16.4113V8H15.8526Z" fill="black"/>
<path d="M5.4794 18.7216V17.5107L8.51562 12.7273H9.55966V14.4034H8.94176L7.0277 17.4325V17.4893H11.3423V18.7216H5.4794ZM8.97017 20V18.3523L8.99858 17.8161V12.7273H10.4403V20H8.97017ZM15.0799 20.0994C14.533 20.0994 14.0465 20.0107 13.6204 19.8331C13.1966 19.6532 12.864 19.4081 12.6225 19.098C12.381 18.7879 12.2603 18.4363 12.2603 18.0433C12.2603 17.7403 12.329 17.4621 12.4663 17.2088C12.6059 16.9531 12.7953 16.7412 13.0344 16.5732C13.2736 16.4027 13.5411 16.2938 13.837 16.2464V16.1967C13.4487 16.1186 13.1339 15.9304 12.8924 15.6321C12.6509 15.3314 12.5302 14.9822 12.5302 14.5845C12.5302 14.2081 12.6403 13.8731 12.8604 13.5795C13.0806 13.2836 13.3825 13.0516 13.766 12.8835C14.1519 12.7131 14.5898 12.6278 15.0799 12.6278C15.57 12.6278 16.0067 12.7131 16.3903 12.8835C16.7762 13.054 17.0792 13.2872 17.2994 13.5831C17.5195 13.8767 17.6308 14.2105 17.6332 14.5845C17.6308 14.9846 17.5077 15.3338 17.2638 15.6321C17.02 15.9304 16.7075 16.1186 16.3263 16.1967V16.2464C16.6175 16.2938 16.8815 16.4027 17.1183 16.5732C17.3574 16.7412 17.5468 16.9531 17.6864 17.2088C17.8285 17.4621 17.9007 17.7403 17.9031 18.0433C17.9007 18.4363 17.7788 18.7879 17.5373 19.098C17.2958 19.4081 16.962 19.6532 16.5359 19.8331C16.1121 20.0107 15.6268 20.0994 15.0799 20.0994ZM15.0799 18.9702C15.3237 18.9702 15.5368 18.9264 15.7191 18.8388C15.9014 18.7488 16.0434 18.6257 16.1452 18.4695C16.2494 18.3108 16.3015 18.1286 16.3015 17.9226C16.3015 17.7119 16.2482 17.526 16.1417 17.3651C16.0352 17.2017 15.8907 17.0739 15.7085 16.9815C15.5262 16.8868 15.3166 16.8395 15.0799 16.8395C14.8455 16.8395 14.636 16.8868 14.4513 16.9815C14.2667 17.0739 14.1211 17.2017 14.0146 17.3651C13.9104 17.526 13.8583 17.7119 13.8583 17.9226C13.8583 18.1286 13.9092 18.3108 14.011 18.4695C14.1128 18.6257 14.256 18.7488 14.4407 18.8388C14.6254 18.9264 14.8384 18.9702 15.0799 18.9702ZM15.0799 15.7209C15.2835 15.7209 15.4646 15.6795 15.6232 15.5966C15.7818 15.5137 15.9061 15.3989 15.9961 15.2521C16.0861 15.1054 16.131 14.9361 16.131 14.7443C16.131 14.5549 16.0861 14.3892 15.9961 14.2472C15.9061 14.1027 15.783 13.9903 15.6268 13.9098C15.4705 13.8269 15.2882 13.7855 15.0799 13.7855C14.8739 13.7855 14.6916 13.8269 14.533 13.9098C14.3744 13.9903 14.2501 14.1027 14.1602 14.2472C14.0726 14.3892 14.0288 14.5549 14.0288 14.7443C14.0288 14.9361 14.0737 15.1054 14.1637 15.2521C14.2537 15.3989 14.378 15.5137 14.5366 15.5966C14.6952 15.6795 14.8763 15.7209 15.0799 15.7209Z" fill="black"/>
</g>
<defs>
<clipPath id="clip0_9971_10625">
<rect width="24" height="24" fill="white"/>
</clipPath>
</defs>
</svg>
