<svg width="700" height="700" viewBox="0 0 700 700" fill="none" xmlns="http://www.w3.org/2000/svg">
<g clip-path="url(#clip0_1384_26578)">
<path d="M316.121 225.801C316.121 207.125 300.926 191.929 282.248 191.929C263.572 191.929 248.375 207.124 248.375 225.801C248.375 244.478 263.571 259.674 282.248 259.674C300.924 259.674 316.121 244.479 316.121 225.801ZM282.248 237.09C276.022 237.09 270.959 232.027 270.959 225.801C270.959 219.576 276.023 214.512 282.248 214.512C288.474 214.512 293.537 219.576 293.537 225.801C293.542 232.027 288.474 237.09 282.248 237.09Z" fill="black"/>
<path d="M417.746 191.938C392.423 191.938 372.584 206.816 372.584 225.811C372.584 244.805 392.423 259.684 417.746 259.684C443.069 259.684 462.907 244.806 462.907 225.811C462.907 206.817 443.069 191.938 417.746 191.938ZM417.746 237.1C403.962 237.1 395.163 230.415 395.163 225.811C395.163 221.206 403.962 214.522 417.746 214.522C431.53 214.522 440.328 221.206 440.328 225.811C440.324 230.415 431.53 237.1 417.746 237.1Z" fill="black"/>
<path d="M358.621 350.002C378.494 350.002 396.365 338.957 405.257 321.178L385.062 311.08C380.023 321.158 369.891 327.418 358.622 327.418H341.371C330.101 327.418 319.975 321.158 314.936 311.08L294.741 321.178C303.632 338.957 321.498 350.002 341.377 350.002H358.621Z" fill="black"/>
<path d="M650.16 316.127H648.221C620.746 316.127 598.387 338.486 598.387 365.966V367.904C598.387 378.612 601.742 388.808 607.957 397.29L573.295 483.945L564.516 470.776V446.367C564.516 418.135 541.542 395.161 513.309 395.161C499.633 395.161 486.771 400.488 477.098 410.161L470.906 416.352L406.448 397.935V391.694L438.162 379.8C473.221 366.655 496.771 332.671 496.771 295.229V282.256H508.06C526.737 282.256 541.933 267.061 541.933 248.383V203.222C541.933 184.545 526.738 169.349 508.06 169.349H496.771V124.192C496.771 68.1622 451.19 22.5808 395.16 22.5808H372.577C365.614 22.5808 359.13 24.695 353.745 28.3132C343.984 11.4093 325.722 -0.00195312 304.838 -0.00195312C285.243 -0.00195312 267.343 10.169 257.148 26.2482C250.79 23.8312 244.013 22.5811 237.094 22.5811C214.409 22.5811 194.081 36.4 185.283 56.6438C183.74 56.5168 182.192 56.4485 180.644 56.4485C149.516 56.4485 124.194 81.7711 124.194 112.899C124.194 119.276 125.283 125.619 127.377 131.605C118.095 141.903 112.905 155.253 112.905 169.354C112.905 187.782 122.006 204.897 136.719 215.369C135.918 218.719 135.483 222.21 135.483 225.804C135.483 250.706 155.742 270.965 180.645 270.965H203.227V295.228C203.227 332.664 226.777 366.654 261.836 379.798L293.55 391.693V397.933L229.097 416.351L222.906 410.159C213.228 400.486 200.372 395.159 186.69 395.159C158.457 395.159 135.483 418.133 135.483 446.366V470.775L126.704 483.943L92.0411 397.288C98.257 388.806 101.611 378.615 101.611 367.903V365.964C101.611 338.484 79.2526 316.125 51.7775 316.125H49.839C22.3589 316.125 0 338.484 0 365.964C0 386.208 2.35352 406.458 6.98729 426.165L30.9761 528.123C40.7126 569.49 77.1926 598.387 119.693 598.387C147.53 598.387 173.468 585.921 190.856 564.183L222.106 525.12C227.784 551.345 236.608 576.883 248.39 600.96V699.998H451.615V600.96C463.403 576.883 472.221 551.346 477.899 525.12L509.149 564.183C526.537 585.922 552.475 598.387 580.312 598.387C622.812 598.387 659.293 569.495 669.024 528.128L693.013 426.17C697.646 406.467 700 386.213 700 365.969C700 338.484 677.641 316.125 650.161 316.125L650.16 316.127ZM620.966 365.966C620.966 350.937 633.192 338.71 648.222 338.71H650.161C665.189 338.71 677.417 350.936 677.417 365.966C677.417 375.722 676.802 385.477 675.615 395.16H668.789C654.688 395.16 640.566 391.966 627.818 385.931C623.404 380.946 620.962 374.618 620.962 367.904L620.966 365.966ZM513.309 417.744C529.09 417.744 541.932 430.585 541.932 446.366V470.59C529.739 487.035 510.55 496.771 489.934 496.771H484.133L482.961 495.307C484.617 481.898 485.481 468.403 485.481 454.901V433.705L493.064 426.122C498.469 420.717 505.661 417.743 513.308 417.743L513.309 417.744ZM462.904 454.906C462.904 500.395 452.669 545.947 433.255 587.094H377.253C371.438 587.094 365.901 585.288 361.287 581.938V574.848C393.285 569.458 417.737 541.572 417.737 508.065C417.737 493.768 413.275 480.497 405.682 469.554C420.774 460.159 433.231 447.123 441.907 431.551L462.903 437.547L462.904 454.906ZM349.998 462.904C374.901 462.904 395.16 483.163 395.16 508.066C395.16 532.968 374.901 553.227 349.998 553.227C325.096 553.227 304.837 532.968 304.837 508.066C304.837 483.163 325.096 462.904 349.998 462.904ZM349.998 601.567C357.567 606.533 366.341 609.321 375.55 609.634C377.723 617.085 379.461 624.634 380.784 632.256H319.206C320.53 624.634 322.273 617.085 324.441 609.634C333.655 609.326 342.43 606.533 349.997 601.567H349.998ZM316.126 667.954C316.126 663.569 316.267 659.194 316.541 654.834H383.45C383.723 659.194 383.865 663.569 383.865 667.954V677.412H316.121L316.126 667.954ZM448.814 348.04C439.087 304.925 404.986 270.818 361.293 261.433L361.289 180.637H474.194V295.222C474.194 316.014 464.512 335.384 448.814 348.04ZM361.288 135.477H383.871V158.059H361.288V135.477ZM508.064 191.927C514.29 191.927 519.353 196.99 519.353 203.216V248.377C519.353 254.603 514.29 259.666 508.064 259.666H496.775V191.922L508.064 191.927ZM474.191 124.188V158.06H451.609V124.188C451.609 96.9265 432.18 74.1139 406.447 68.8701V45.975C444.7 51.4681 474.191 84.4414 474.191 124.188ZM372.58 45.1537H383.869V90.3152H395.158C413.834 90.3152 429.03 105.51 429.03 124.188V158.06H406.448V112.899H361.286V56.4438C361.286 50.2181 366.355 45.1547 372.58 45.1547L372.58 45.1537ZM135.479 169.348C135.479 159.118 140.039 149.538 147.994 143.064L155.24 137.166L150.806 128.943C148.126 123.982 146.768 118.582 146.768 112.898C146.768 94.2216 161.963 79.0253 180.641 79.0253C183.751 79.0253 186.862 79.4598 189.884 80.3143L201.451 83.5858L203.99 71.8329C207.335 56.374 221.252 45.1527 237.09 45.1527C243.834 45.1527 250.347 47.1302 255.928 50.8705L268.042 58.9955L272.872 45.2305C277.627 31.6754 290.469 22.5741 304.834 22.5741C323.51 22.5741 338.707 37.7692 338.707 56.4468V158.058H324.537C314.849 158.058 305.738 154.284 298.887 147.433L282.25 130.802L265.619 147.433C258.768 154.284 249.656 158.058 239.969 158.058C227.811 158.058 216.526 152.018 209.784 141.906L201.327 129.216L182.538 141.741L190.995 154.431C194.413 159.558 198.549 164.036 203.221 167.776L203.217 180.637H180.634C167.534 180.637 155.726 186.248 147.47 195.184C140.004 188.836 135.479 179.417 135.479 169.348ZM180.64 248.382C168.189 248.382 158.058 238.25 158.058 225.8C158.058 213.348 168.189 203.217 180.64 203.217H203.223V248.378L180.64 248.382ZM316.128 414.958V376.036L269.761 358.649C243.472 348.79 225.805 323.302 225.805 295.221V178.907C230.385 180.04 235.136 180.635 239.975 180.635C255.698 180.635 270.478 174.512 281.597 163.394L282.261 162.73L282.925 163.394C294.043 174.512 308.824 180.635 324.546 180.635H338.711V280.923L348.604 282.159C389.669 287.29 421.929 319.224 428.008 359.483L383.872 376.035V414.957L419.423 425.113C411.908 436.744 401.586 446.309 389.311 452.936C378.217 445.006 364.648 440.313 349.999 440.313C335.35 440.313 321.781 445.001 310.688 452.936C298.412 446.31 288.09 436.749 280.575 425.113L316.128 414.958ZM237.094 437.54L258.08 431.544C266.762 447.116 279.213 460.153 294.306 469.547C286.723 480.489 282.255 493.756 282.255 508.058C282.255 541.565 306.712 569.45 338.705 574.841V581.931C334.091 585.281 328.554 587.087 322.739 587.087H266.737C247.328 545.94 237.093 500.388 237.093 454.899L237.094 437.54ZM186.689 417.735C194.335 417.735 201.523 420.714 206.933 426.119L214.516 433.702V454.899C214.516 468.395 215.38 481.896 217.035 495.304L215.863 496.764H210.063C189.453 496.764 170.257 487.027 158.065 470.582V446.358C158.065 430.577 170.906 417.736 186.688 417.736L186.689 417.735ZM49.8383 338.701H51.7768C66.8056 338.701 79.0332 350.928 79.0332 365.958V367.896C79.0332 374.615 76.5967 380.944 72.1777 385.924C59.4289 391.964 45.3075 395.152 31.2062 395.152H24.3801C23.1936 385.465 22.5832 375.713 22.5832 365.958C22.5832 350.93 34.8098 338.702 49.8396 338.702L49.8383 338.701ZM28.9645 420.987C28.7106 419.908 28.486 418.819 28.2467 417.735H31.2008C45.3809 417.735 59.5747 415.117 72.856 410.132L109.844 502.607L55.0247 530.015C54.219 527.715 53.5159 525.367 52.9494 522.95L28.9645 420.987ZM119.692 575.8C98.086 575.8 78.5647 565.868 65.9084 549.828L116.661 524.452L129.332 575.131C126.159 575.575 122.941 575.8 119.694 575.8L119.692 575.8ZM173.223 550.072C167.041 557.797 159.424 563.969 150.899 568.328L136.357 510.169L147.69 493.167C161.264 507.034 179.092 515.985 198.423 518.567L173.223 550.072ZM270.967 609.672H301.021C296.065 628.686 293.55 648.228 293.55 667.954V677.412H270.967L270.967 609.672ZM406.455 677.411V667.953C406.455 648.227 403.94 628.686 398.984 609.672H429.038V677.416L406.455 677.411ZM526.783 550.073L501.578 518.57C520.909 515.987 538.737 507.036 552.31 493.169L563.644 510.167L549.102 568.331C540.582 563.971 532.965 557.799 526.783 550.075L526.783 550.073ZM580.313 575.801C577.061 575.801 573.843 575.576 570.679 575.132L583.351 524.453L634.103 549.829C621.447 565.87 601.921 575.801 580.314 575.801L580.313 575.801ZM647.047 522.95C646.481 525.367 645.773 527.72 644.972 530.015L590.153 502.607L627.141 410.132C640.427 415.122 654.616 417.734 668.796 417.734H671.75C671.511 418.818 671.286 419.907 671.032 420.986L647.047 522.95Z" fill="black"/>
<path d="M372.584 508.066C372.584 520.536 362.471 530.643 350.001 530.643C337.531 530.643 327.418 520.536 327.418 508.066C327.418 495.595 337.531 485.483 350.001 485.483C362.471 485.483 372.584 495.595 372.584 508.066Z" fill="black"/>
</g>
<defs>
<clipPath id="clip0_1384_26578">
<rect width="700" height="700" fill="white"/>
</clipPath>
</defs>
</svg>
