<svg width="700" height="700" viewBox="0 0 700 700" fill="none" xmlns="http://www.w3.org/2000/svg">
<g>
<path d="M0 35V665H700V35H0ZM583.333 58.3333V81.6667H116.667V58.3333H583.333ZM630 595H70V105H630V595ZM23.3333 58.3333H93.3333V81.6667H46.6667V128.333H23.3333V58.3333ZM23.3333 151.667H46.6667V548.333H23.3333V151.667ZM23.3333 641.667V571.667H46.6667V618.333H93.3333V641.667H23.3333ZM116.667 641.667V618.333H583.333V641.667H116.667ZM676.667 641.667H606.667V618.333H653.333V571.667H676.667V641.667ZM676.667 548.333H653.333V151.667H676.667V548.333ZM676.667 58.3333V128.333H653.333V81.6667H606.667V58.3333H676.667Z" fill="black"/>
<path d="M291.666 315H105C98.557 315 93.333 320.224 93.333 326.667V560C93.333 563.094 94.5622 566.063 96.7497 568.25C98.9372 570.437 101.906 571.667 105 571.667H291.666C294.76 571.667 297.729 570.437 299.916 568.25C302.104 566.062 303.333 563.094 303.333 560V326.667C303.333 323.573 302.104 320.604 299.916 318.417C297.729 316.229 294.76 315 291.666 315ZM116.666 385H280V478.333H116.666V385ZM280 548.333H116.666V501.667H280V548.333ZM116.666 361.667V338.333H280V361.667H116.666Z" fill="black"/>
<path d="M499.76 361.826L359.76 385.159C353.406 386.222 349.114 392.227 350.166 398.575L373.5 538.575C374.437 544.2 379.302 548.325 385.005 548.331C385.651 548.336 386.297 548.279 386.932 548.169L526.932 524.836C533.281 523.773 537.573 517.768 536.521 511.42L513.187 371.42C512.677 368.368 510.979 365.639 508.458 363.842C505.942 362.045 502.812 361.321 499.76 361.826V361.826ZM394.594 523.253L375.088 406.258L492.083 386.753L511.588 503.747L394.594 523.253Z" fill="black"/>
<path d="M351.906 151.826L211.906 128.493C208.854 127.967 205.718 128.681 203.192 130.483C200.671 132.29 198.979 135.024 198.489 138.087L175.156 278.087C174.104 284.436 178.395 290.441 184.749 291.503L324.749 314.836C325.38 314.946 326.02 314.998 326.661 314.998C332.359 314.987 337.218 310.867 338.15 305.242L361.484 165.242C362.541 158.894 358.255 152.894 351.906 151.826V151.826ZM317.072 289.92L200.078 270.414L219.583 153.42L336.578 172.925L317.072 289.92Z" fill="black"/>
<path d="M583.333 478.333H606.666V501.666H583.333V478.333Z" fill="black"/>
<path d="M548.333 525H571.666V548.333H548.333V525Z" fill="black"/>
<path d="M396.667 140V326.666C396.667 329.76 397.896 332.729 400.084 334.916C402.271 337.104 405.24 338.333 408.334 338.333H595C598.094 338.333 601.063 337.104 603.25 334.916C605.438 332.729 606.667 329.76 606.667 326.666V140C606.667 136.906 605.438 133.937 603.25 131.75C601.063 129.562 598.094 128.333 595 128.333H408.334C401.891 128.333 396.667 133.557 396.667 140ZM420 151.666H583.334V315H420V151.666Z" fill="black"/>
<path d="M443.333 175H536.666V198.333H443.333V175Z" fill="black"/>
<path d="M443.333 221.667H513.333V245H443.333V221.667Z" fill="black"/>
<path d="M443.333 268.333H501.666V291.666H443.333V268.333Z" fill="black"/>
<path d="M536.667 221.667H560V245H536.667V221.667Z" fill="black"/>
<path d="M96.7607 178.427L131.766 143.422L148.266 159.922L113.261 194.927L96.7607 178.427Z" fill="black"/>
<path d="M96.7461 236.746L143.413 190.079L159.913 206.579L113.246 253.246L96.7461 236.746Z" fill="black"/>
</g>
</svg>