<svg width="700" height="700" viewBox="0 0 700 700" fill="none" xmlns="http://www.w3.org/2000/svg">
<g>
<path d="M682.124 441.027L638.911 380.044L675.973 362.266C697.492 351.382 706.154 325.015 695.264 303.473C684.393 281.954 658.02 273.287 636.761 284.043L585.063 308.855C572.2 297.451 556.65 289.443 539.569 285.653V233.336C539.569 209.216 519.939 189.592 495.825 189.592L451.953 189.586C456.892 174.102 459.634 157.269 459.634 139.637C459.634 136.834 459.537 134.068 459.398 131.314C464.961 129.268 468.95 123.965 468.95 117.682V102.084C468.95 45.8039 423.158 0 366.878 0H308.921C265.968 0 231.023 34.9445 231.023 77.8971V117.678C231.023 123.961 235.006 129.263 240.575 131.309C240.436 134.057 240.339 136.83 240.339 139.632C240.339 157.265 243.081 174.098 248.026 189.581H204.155C180.034 189.581 160.404 209.211 160.404 233.326V285.642C135.611 291.145 113.936 305.435 99.2208 326.192L17.8557 441.029C6.33078 454.297 0 471.252 0 488.837V545.415C0 584.046 35.18 608.131 70.2871 612.252C70.3295 612.259 70.3658 612.271 70.4082 612.271C70.729 612.307 71.062 612.374 71.3828 612.41C71.8791 612.464 72.3694 612.489 72.8778 612.489C72.8839 612.489 72.896 612.495 72.9021 612.495V612.489C72.9081 612.489 72.9081 612.495 72.9081 612.495H98.8821C113.948 635.63 134.964 654.879 160.405 667.85V685.404C160.405 693.466 166.93 699.991 174.993 699.991C183.043 699.991 189.568 693.466 189.568 685.404V666.428C189.81 665.992 190.095 665.586 190.289 665.126C190.385 664.89 190.422 664.66 190.507 664.424C191.947 660.374 191.481 656.113 189.568 652.572C188.061 649.77 185.688 647.409 182.577 646.035C179.992 644.951 177.48 643.753 174.993 642.512C169.896 639.994 165.06 637.143 160.405 634.044C151.126 627.864 142.73 620.655 135.43 612.496C132.852 609.608 130.449 606.576 128.143 603.489L161.61 597.908L162.809 597.708C165.672 597.242 168.19 595.922 170.212 594.082C175.932 595.898 182.336 597.127 189.55 597.623C191.917 597.787 194.32 597.92 196.874 597.92C241.848 597.92 277.084 572.304 277.084 539.586C277.084 506.868 241.856 481.252 196.874 481.252C177.057 481.252 162.536 486.361 152.21 494.26L107.92 486.882C123.01 438.705 165.841 400.966 217.425 394.761C230.693 393.024 245.142 393.454 259.432 396.365C274.886 399.289 290.055 394.471 300.405 383.539C326.214 356.844 362.969 344.891 400.594 352.039C418.147 355.32 434.399 363.352 448.05 374.599L375.528 409.398C371.969 408.72 368.319 408.333 364.578 408.333C332.418 408.333 306.244 434.494 306.244 466.667C306.244 498.845 332.418 525 364.578 525C390.273 525 412.094 508.276 419.855 485.159L488.296 452.322C488.441 454.707 488.538 457.086 488.538 459.368C488.502 473.036 485.935 486.111 481.311 498.18C467.897 501.316 455.641 506.824 445.81 514.39C430.242 526.381 421.961 542.67 423.093 559.122C423.099 559.201 423.118 559.267 423.118 559.358C409.625 565.338 394.705 568.698 379.015 568.74C369.827 570.048 367.787 573.546 366.613 575.586C366.473 575.889 366.177 576.313 366.177 576.313C366.031 576.47 365.88 576.615 365.88 576.615C364.282 579.539 363.544 581.718 362.533 584.327C361.806 586.234 361.074 588.128 359.906 590.749C351.304 609.846 334.386 636.836 287.578 649.808C279.89 651.812 275.448 659.499 277.136 667.053C277.173 667.235 277.173 667.428 277.221 667.61C278.976 674.02 284.805 678.396 291.373 678.396C292.547 678.396 293.849 678.251 295.162 677.973C338.769 666.303 362.533 642.097 374.79 624.017C380.038 616.275 384.56 607.965 388.355 598.497L388.652 597.613C404.903 596.499 420.345 592.571 434.539 586.36C447.892 602.135 471.62 612.153 499.18 612.153C501.782 612.153 504.421 612.05 507.085 611.887C508.229 611.808 509.306 611.651 510.426 611.542V685.432C510.426 693.494 516.963 700.019 525.014 700.019C533.064 700.019 539.59 693.494 539.59 685.432V603.456C540.752 602.851 541.853 602.191 542.955 601.519L630.554 617.783C631.94 618.025 633.351 618.098 634.743 617.941C671.945 614.024 700 582.851 700 545.438V488.86C699.982 471.264 693.65 454.315 682.126 441.035L682.124 441.027ZM670.817 545.424C670.817 567.214 654.969 585.471 633.627 588.672L564.725 575.87C567.872 567.868 569.228 558.898 568.563 549.194C567.988 540.896 565.887 532.567 562.019 524.995H612.476C613.457 524.995 614.401 524.898 615.334 524.71C615.775 524.625 616.211 524.45 616.653 524.317C617.119 524.178 617.597 524.063 618.051 523.881C618.578 523.663 619.074 523.36 619.571 523.082C619.898 522.9 620.249 522.761 620.551 522.543C621.338 522.023 622.095 521.417 622.779 520.721C623.475 520.025 624.08 519.275 624.607 518.494C624.807 518.191 624.946 517.852 625.127 517.531C625.412 517.029 625.715 516.526 625.932 515.988C626.114 515.534 626.229 515.062 626.374 514.583C626.507 514.142 626.677 513.718 626.768 513.276C626.949 512.35 627.052 511.4 627.052 510.419C627.052 509.438 626.949 508.482 626.768 507.562C626.683 507.108 626.507 506.684 626.374 506.254C626.229 505.788 626.12 505.298 625.932 504.85C625.715 504.311 625.406 503.815 625.127 503.306C624.946 502.986 624.807 502.647 624.607 502.344C624.08 501.557 623.481 500.807 622.779 500.117L564.451 441.789C558.761 436.099 549.524 436.099 543.834 441.789C538.144 447.491 538.144 456.716 543.834 462.417L577.277 495.854H524.985C523.581 495.854 522.243 496.114 520.948 496.489C518.369 496.047 515.663 495.745 512.843 495.551C515.978 483.99 517.685 471.878 517.685 459.403C517.685 454.142 517.388 448.61 516.662 442.926C516.505 441.606 516.238 440.329 516.045 439.028L612.227 392.874L658.762 458.543C659.065 458.985 659.404 459.403 659.761 459.802C666.885 467.822 670.808 478.149 670.808 488.863V545.422L670.817 545.424ZM460.725 571.264C456.337 567.645 453.474 563.498 452.523 559.292C452.36 558.577 452.221 557.857 452.178 557.137C451.573 548.184 459.067 541.006 463.6 537.519C468.739 533.56 475.168 530.395 482.274 528.149C488.194 526.273 494.562 525.026 501.111 524.584C501.177 524.578 501.232 524.578 501.292 524.578C503.096 524.457 504.852 524.384 506.522 524.384C527.169 524.384 538.241 533.385 539.463 551.199C540.002 559.038 538.307 565.388 534.681 570.309C534.246 570.896 533.901 571.55 533.416 572.094C528.677 577.318 520.826 580.744 510.535 582.197C508.78 582.451 506.976 582.651 505.088 582.778C485.803 584.128 469.914 578.849 460.725 571.265L460.725 571.264ZM421.036 452.249C418.548 442.522 413.627 433.763 406.932 426.688L468.776 397.01L482.244 390.546L495.397 384.238L578.027 344.591L591.362 338.193L604.696 331.789L649.64 310.228C656.783 306.59 665.609 309.471 669.235 316.65C672.873 323.829 669.979 332.625 663.085 336.116L621.802 355.927L608.468 362.331L508.653 410.222L495.518 416.53L482.256 422.891L421.036 452.249ZM365.566 495.783C365.239 495.789 364.912 495.838 364.579 495.838C348.49 495.838 335.416 482.751 335.416 466.675C335.416 459.871 337.777 453.612 341.699 448.648C344.786 444.732 348.842 441.627 353.521 439.702C356.929 438.298 360.663 437.505 364.586 437.505C369.331 437.505 373.792 438.667 377.757 440.683C386.867 445.325 393.204 454.593 393.682 465.38C393.7 465.804 393.749 466.239 393.749 466.675C393.749 473.364 391.461 479.526 387.659 484.453C382.496 491.112 374.549 495.482 365.565 495.785L365.566 495.783ZM464.145 350.002C456.96 344.385 449.182 339.531 440.974 335.414C430.031 329.93 418.318 325.802 405.976 323.454C405.001 323.26 404.014 323.139 403.04 322.975C403.579 322.261 404.136 321.559 404.644 320.833C410.794 312.062 414.886 301.759 416.218 290.616L510.379 309.453L531.746 313.726C534.403 314.253 537.006 314.973 539.555 315.784C545.172 317.564 550.486 320.021 555.463 323.054L539.555 330.68L499.314 350.002L476.464 360.964C472.572 357.09 468.486 353.386 464.146 350.002L464.145 350.002ZM294.436 350.002C289.133 354.088 284.085 358.531 279.412 363.416C275.768 367.199 271.392 368.954 265.121 367.792C248.209 364.287 229.977 363.706 213.785 365.752C175.585 370.57 140.145 389.214 114.037 418.546C97.5251 436.995 85.6429 458.775 79.0139 482.066L75.3155 481.449C67.3497 480.069 59.8621 485.492 58.5305 493.44C57.211 501.37 62.574 508.893 70.5155 510.213L72.9186 510.612L73.6389 510.733L88.0331 513.13L102.457 515.533L134.042 520.793C132.166 526.919 131.258 533.287 131.258 539.582C131.258 550.726 134.006 562.142 140.259 571.917L112.662 576.517L97.8688 578.981L83.1962 581.426L72.9363 583.133L72.6761 583.176C50.7759 580.276 29.1857 566.651 29.1857 545.417V488.839C29.1857 478.113 33.108 467.799 40.2385 459.778C40.5956 459.379 40.9346 458.961 41.2373 458.519L123.05 343.07C132.281 330.025 145.38 320.57 160.434 315.789C162.994 314.984 165.579 314.264 168.242 313.731L175.009 312.376L189.585 309.458L283.746 290.621C285.09 301.765 289.176 312.061 295.332 320.838C299.218 326.383 303.939 331.286 309.296 335.414C310.44 336.31 311.584 337.212 312.801 338.029C306.385 341.509 300.247 345.522 294.435 350.002L294.436 350.002ZM196.873 510.414C226.95 510.414 247.913 525.783 247.913 539.577C247.913 553.372 226.946 568.74 196.873 568.74C187.945 568.74 180.663 567.396 174.998 564.733C165.307 560.187 160.41 551.786 160.41 539.571C160.41 527.362 165.307 518.954 174.998 514.409C180.663 511.758 187.951 510.414 196.873 510.414ZM189.579 233.319C189.579 225.275 196.122 218.744 204.167 218.744H260.866C267.149 229.627 274.691 239.3 283.22 247.459V260.981L189.579 279.703L189.579 233.319ZM269.522 139.63C269.522 135.993 269.685 132.427 269.976 128.923C287.983 123.499 303.219 111.708 313.145 96.1878C329.07 118.003 354.754 132.251 383.772 132.251H430.186C430.325 134.69 430.465 137.13 430.465 139.63C430.465 157.662 427.069 174.658 421.119 189.579C419.079 194.7 416.73 199.578 414.109 204.154C411.107 209.414 407.748 214.299 404.086 218.742C403.504 219.444 402.905 220.116 402.306 220.788C397.3 226.496 391.756 231.411 385.794 235.358C375.007 242.506 362.852 246.55 349.996 246.55C337.145 246.55 324.984 242.506 314.21 235.358C308.241 231.411 302.703 226.496 297.685 220.788C297.098 220.11 296.486 219.444 295.905 218.742C292.225 214.299 288.878 209.414 285.875 204.154C283.255 199.566 280.906 194.693 278.866 189.579C272.904 174.658 269.52 157.661 269.52 139.63L269.522 139.63ZM290.574 32.7889C292.42 32.0322 294.315 31.3482 296.276 30.8277V54.3503C296.276 59.4711 295.453 64.3923 293.988 69.035C291.288 77.5576 286.307 85.0638 279.757 90.8623C274.213 95.7592 267.567 99.4455 260.219 101.431V77.9021C260.219 71.4374 261.52 65.2876 263.814 59.6341C268.729 47.4735 278.426 37.7526 290.575 32.7893L290.574 32.7889ZM439.794 102.072V103.089H383.773C352.619 103.089 327.172 78.5311 325.591 47.7519C325.537 46.7471 325.434 45.7666 325.434 44.7557V29.1577H366.879C406.762 29.1577 439.226 61.3594 439.745 101.121C439.751 101.448 439.793 101.751 439.793 102.072L439.794 102.072ZM510.414 233.319V279.704L416.779 260.976V247.454C425.308 239.294 432.844 229.615 439.133 218.738H495.845C503.871 218.744 510.414 225.276 510.414 233.32L510.414 233.319ZM387.604 270.019V282.604C387.604 283.366 387.537 284.111 387.489 284.861C386.309 304.539 369.971 320.199 349.991 320.199C330.015 320.199 313.672 304.546 312.493 284.861C312.438 284.117 312.378 283.366 312.378 282.604V267.477C313.733 268.082 315.095 268.651 316.475 269.202C327.044 273.427 338.309 275.727 349.991 275.727C361.68 275.727 372.933 273.427 383.507 269.202C384.881 268.658 386.255 268.089 387.605 267.477L387.604 270.019ZM248.167 670.383C248.173 670.528 248.221 670.668 248.221 670.825C248.221 678.845 241.799 685.401 233.634 685.401H233.488C225.468 685.255 219.046 678.839 219.046 670.825C219.046 670.589 219.106 670.359 219.112 670.123C219.294 666.461 220.807 663.065 223.277 660.474C226.043 657.835 229.687 656.249 233.482 656.249H233.628C241.49 656.231 247.925 662.568 248.167 670.383L248.167 670.383Z" fill="black"/>
</g>
</svg>