<svg width="700" height="700" viewBox="0 0 700 700" fill="none" xmlns="http://www.w3.org/2000/svg">
<path d="M48.8913 585.869C180.911 634.934 293.418 749.41 453.163 676.18C514.345 647.665 564.745 668.553 594.93 681.053C603.489 684.591 610.247 687.387 616.476 688.785C627.492 691.391 638.825 684.718 642.045 673.723L693.631 497.721C696.703 487.235 691.491 476.091 681.45 471.727L523.874 403.173C519.419 401.219 515.124 399.773 510.914 398.634C499.754 377.873 476.44 343.044 436.57 345.295C422.525 345.867 409.03 349.468 396.828 355.803C367.232 337.732 329.544 335.21 298.168 348.833C297.819 348.409 297.39 348.065 297.03 347.647C297.332 345.708 297.739 343.78 297.485 341.736C295.012 321.398 294.466 300.293 294.885 278.975C306.033 281.232 317.272 282.46 328.458 282.46C391.23 282.46 451.459 247.95 477.37 191.344C479.87 185.878 479.997 179.607 477.709 174.057C475.4 168.485 470.909 164.121 465.274 162.002C407.517 140.34 344.296 151.966 300.01 187.519C302.732 131.427 302.971 75.5511 300.54 20.7371C300.031 8.7676 289.926 -0.469618 277.913 0.0184851C265.944 0.548104 256.664 10.6746 257.195 22.6448C257.931 39.3284 258.36 56.1327 258.603 72.9967C229.506 46.3463 189.689 30.3772 146.821 30.3772C129.089 30.3772 111.505 33.11 94.5573 38.4911C88.9115 40.2918 84.2296 44.3381 81.6238 49.6768C79.0393 55.0154 78.7426 61.1803 80.7976 66.7522C102.83 125.859 163.143 165.581 230.876 165.581C239.805 165.581 248.688 164.882 257.468 163.505C256.483 190.585 255.095 217.711 252.887 244.855C252.632 246.148 252.505 247.461 252.484 248.796C252.315 249.876 252.23 250.978 252.23 252.101C252.188 252.44 252.166 252.779 252.145 253.139C252.103 253.584 252.082 254.071 252.06 254.558H252.039C250.578 276.924 251.091 298.931 252.521 320.624C205.094 308.798 150.627 334.76 140.161 383.915C108.283 387.379 80.4404 409.554 74.4557 442.703C49.3306 442.475 26.4562 457.034 13.9201 483.59C-1.94735 517.295 4.23855 564.326 48.8967 585.872L48.8913 585.869ZM423.809 195.915C397.709 227.861 353.622 244.28 310.448 237.818C336.57 206.084 380.677 189.644 423.809 195.915ZM133.618 74.4395C177.683 70.0966 221.028 88.9931 244.141 121.491C199.779 126.194 156.753 106.953 133.618 74.4395V74.4395ZM155.65 427.609C163.362 429.368 171.201 426.868 176.475 421.084C180.945 416.191 182.894 409.581 181.898 403.141C179.848 358.192 252.778 344.173 270.875 386.554C273.502 392.697 278.82 397.295 285.281 399.011C291.679 400.748 298.606 399.35 303.946 395.324C323.35 380.579 357.84 377.698 381.907 398.396C389.703 405.069 401.143 405.387 409.257 399.138C417.625 392.697 427.688 389.075 438.598 388.63C438.874 388.609 439.17 388.609 439.467 388.609C446.469 388.609 453.614 393.396 460.822 401.918C432.037 412.013 394.349 436.117 329.093 464.154L246.196 467.755C227.108 468.793 209.905 478.263 198.339 493.156L116.04 455.165C116.099 454.635 116.374 454.191 116.395 453.645C117.036 435.41 138.116 423.514 155.651 427.609L155.65 427.609ZM53.1785 502.075C55.763 496.609 62.3093 485.974 74.1724 485.974C83.3507 485.974 82.5616 488.358 183.276 534.001C183.085 537.666 183.17 541.394 183.509 545.144C186.877 581.222 215.032 608.424 249.14 608.424C251.888 608.663 337.047 597.567 359.662 594.569C372.802 592.842 374.09 591.126 449.254 567.791C460.673 564.19 467.028 551.987 463.426 540.568C459.825 529.149 447.579 522.815 436.204 526.396C359.927 550.271 361.097 550.659 354.048 551.543C351.575 551.866 251.576 564.894 248.97 565.037C237.742 565.037 227.976 554.53 226.726 541.119C225.238 525.691 235.258 511.793 248.314 511.099L334.94 507.328C346.825 506.841 425.697 466.298 432.624 462.733C476.053 440.384 488.15 434.833 506.54 442.926L646.612 503.875L606.995 639.078C573.629 625.392 509.735 601.92 434.952 636.79C296.928 700.059 201.503 596.026 65.9327 546.013C44.387 535.568 48.1793 512.705 53.1794 502.075L53.1785 502.075Z" fill="black"/>
</svg>