<svg xmlns="http://www.w3.org/2000/svg" viewBox="0 0 24 24" id="Stairs-Person-Descend--Streamline-Ultimate" height="24" width="24"><desc>Stairs Person Descend Streamline Icon: https://streamlinehq.com</desc><g><g><path d="M4.87 3.56a2.63 2.63 0 1 0 5.26 0 2.63 2.63 0 1 0 -5.26 0" fill="none" stroke="#000000" stroke-linecap="round" stroke-linejoin="round" stroke-width="1.5"></path><path d="M14.55 11.15c-2.45 0 -2.55 -3.09 -7.8 -3.09a6 6 0 0 0 -6 6 1.5 1.5 0 1 0 3 0A3 3 0 0 1 6 11.15a16.41 16.41 0 0 1 -2.75 9.58 1.5 1.5 0 1 0 2.5 1.66A19.27 19.27 0 0 0 8 17.93l2.21 1.19 1.2 2.25a1.51 1.51 0 0 0 2 0.83 1.5 1.5 0 0 0 0.83 -1.95c-2.37 -4.45 -1 -2.74 -5.45 -5.23a16.76 16.76 0 0 0 0.21 -3.4c3.12 1.68 3.29 2.53 5.55 2.53a1.5 1.5 0 0 0 0 -3Z" fill="none" stroke="#000000" stroke-linecap="round" stroke-linejoin="round" stroke-width="1.5"></path></g><path d="m23.25 17.06 -3 0 0 3 -3 0 0 3 -1.5 0" fill="none" stroke="#000000" stroke-linecap="round" stroke-linejoin="round" stroke-width="1.5"></path></g></svg>