<svg xmlns="http://www.w3.org/2000/svg" fill="none" viewBox="0 0 24 24" id="Single-Woman-Question--Streamline-Ultimate" height="24" width="24"><desc>Single Woman Question Streamline Icon: https://streamlinehq.com</desc><path stroke="#000000" stroke-linecap="round" stroke-linejoin="round" d="M17.25 12.75c3.3137 0 6 -2.6863 6 -6 0 -3.31371 -2.6863 -6 -6 -6s-6 2.68629 -6 6c0 3.3137 2.6863 6 6 6Z" stroke-width="1.5"></path><path stroke="#000000" stroke-linecap="round" stroke-linejoin="round" d="M15.375 5.625c0 -0.37084 0.11 -0.73335 0.316 -1.04169 0.206 -0.30835 0.4989 -0.54867 0.8415 -0.69058 0.3426 -0.14192 0.7196 -0.17905 1.0833 -0.1067 0.3637 0.07235 0.6978 0.25092 0.96 0.51315 0.2622 0.26222 0.4408 0.59631 0.5132 0.96003 0.0723 0.36371 0.0352 0.74071 -0.1067 1.08332 -0.1419 0.34261 -0.3823 0.63545 -0.6906 0.84148 -0.3083 0.20602 -0.6709 0.31599 -1.0417 0.31599" stroke-width="1.5"></path><path stroke="#000000" d="M17.25 10.5c-0.2071 0 -0.375 -0.1679 -0.375 -0.375 0 -0.20711 0.1679 -0.375 0.375 -0.375" stroke-width="1.5"></path><path stroke="#000000" d="M17.25 10.5c0.2071 0 0.375 -0.1679 0.375 -0.375 0 -0.20711 -0.1679 -0.375 -0.375 -0.375" stroke-width="1.5"></path><path stroke="#000000" stroke-linecap="round" stroke-linejoin="round" d="M5.25 6.75c1.65685 0 3 -1.34315 3 -3s-1.34315 -3 -3 -3 -3 1.34315 -3 3 1.34315 3 3 3Z" stroke-width="1.5"></path><path stroke="#000000" stroke-linecap="round" stroke-linejoin="round" d="M8.034 9.216 5.25 12.75 2.466 9.216c-0.53522 0.42044 -0.96783 0.9571 -1.26512 1.5693 -0.297291 0.6123 -0.45147 1.2841 -0.450878 1.9647v3H2.25l0.75 7.5h4.5l0.75 -7.5h1.5v-3c0.00059 -0.6806 -0.15359 -1.3524 -0.45087 -1.9647 -0.29729 -0.6122 -0.72991 -1.14886 -1.26513 -1.5693Z" stroke-width="1.5"></path><path stroke="#000000" stroke-linecap="round" stroke-linejoin="round" d="M2.25 3.75s0 3 -1.5 3" stroke-width="1.5"></path></svg>