<svg width="24" height="24" viewBox="0 0 24 24" fill="none" xmlns="http://www.w3.org/2000/svg">
<path d="M1 3.39583C1 4.03125 1.25242 4.64064 1.70172 5.08994C2.15103 5.53925 2.76042 5.79167 3.39583 5.79167C4.03125 5.79167 4.64064 5.53925 5.08994 5.08994C5.53925 4.64064 5.79167 4.03125 5.79167 3.39583C5.79167 2.76042 5.53925 2.15103 5.08994 1.70172C4.64064 1.25242 4.03125 1 3.39583 1C2.76042 1 2.15103 1.25242 1.70172 1.70172C1.25242 2.15103 1 2.76042 1 3.39583Z" fill="#D7E0FF"/>
<path d="M1 11.5417C1 12.1771 1.25242 12.7865 1.70172 13.2358C2.15103 13.6851 2.76042 13.9375 3.39583 13.9375C4.03125 13.9375 4.64064 13.6851 5.08994 13.2358C5.53925 12.7865 5.79167 12.1771 5.79167 11.5417C5.79167 10.9063 5.53925 10.2969 5.08994 9.84757C4.64064 9.39826 4.03125 9.14584 3.39583 9.14584C2.76042 9.14584 2.15103 9.39826 1.70172 9.84757C1.25242 10.2969 1 10.9063 1 11.5417Z" fill="#D7E0FF"/>
<path d="M1 19.6875C1 20.3229 1.25242 20.9323 1.70172 21.3816C2.15103 21.8309 2.76042 22.0833 3.39583 22.0833C4.03125 22.0833 4.64064 21.8309 5.08994 21.3816C5.53925 20.9323 5.79167 20.3229 5.79167 19.6875C5.79167 19.0521 5.53925 18.4427 5.08994 17.9934C4.64064 17.5441 4.03125 17.2917 3.39583 17.2917C2.76042 17.2917 2.15103 17.5441 1.70172 17.9934C1.25242 18.4427 1 19.0521 1 19.6875Z" fill="#D7E0FF"/>
<path d="M9.625 3.39583C9.625 4.03125 9.87742 4.64064 10.3267 5.08994C10.776 5.53925 11.3854 5.79167 12.0208 5.79167C12.6562 5.79167 13.2656 5.53925 13.7149 5.08994C14.1642 4.64064 14.4167 4.03125 14.4167 3.39583C14.4167 2.76042 14.1642 2.15103 13.7149 1.70172C13.2656 1.25242 12.6562 1 12.0208 1C11.3854 1 10.776 1.25242 10.3267 1.70172C9.87742 2.15103 9.625 2.76042 9.625 3.39583Z" fill="#D7E0FF"/>
<path d="M9.625 11.5417C9.625 12.1771 9.87742 12.7865 10.3267 13.2358C10.776 13.6851 11.3854 13.9375 12.0208 13.9375C12.6562 13.9375 13.2656 13.6851 13.7149 13.2358C14.1642 12.7865 14.4167 12.1771 14.4167 11.5417C14.4167 10.9063 14.1642 10.2969 13.7149 9.84757C13.2656 9.39826 12.6562 9.14584 12.0208 9.14584C11.3854 9.14584 10.776 9.39826 10.3267 9.84757C9.87742 10.2969 9.625 10.9063 9.625 11.5417Z" fill="#D7E0FF"/>
<path d="M9.625 19.6875C9.625 20.3229 9.87742 20.9323 10.3267 21.3816C10.776 21.8309 11.3854 22.0833 12.0208 22.0833C12.6562 22.0833 13.2656 21.8309 13.7149 21.3816C14.1642 20.9323 14.4167 20.3229 14.4167 19.6875C14.4167 19.0521 14.1642 18.4427 13.7149 17.9934C13.2656 17.5441 12.6562 17.2917 12.0208 17.2917C11.3854 17.2917 10.776 17.5441 10.3267 17.9934C9.87742 18.4427 9.625 19.0521 9.625 19.6875Z" fill="#D7E0FF"/>
<path d="M1 3.39583C1 4.03125 1.25242 4.64064 1.70172 5.08994C2.15103 5.53925 2.76042 5.79167 3.39583 5.79167C4.03125 5.79167 4.64064 5.53925 5.08994 5.08994C5.53925 4.64064 5.79167 4.03125 5.79167 3.39583C5.79167 2.76042 5.53925 2.15103 5.08994 1.70172C4.64064 1.25242 4.03125 1 3.39583 1C2.76042 1 2.15103 1.25242 1.70172 1.70172C1.25242 2.15103 1 2.76042 1 3.39583Z" stroke="white"/>
<path d="M1 11.5417C1 12.1771 1.25242 12.7865 1.70172 13.2358C2.15103 13.6851 2.76042 13.9375 3.39583 13.9375C4.03125 13.9375 4.64064 13.6851 5.08994 13.2358C5.53925 12.7865 5.79167 12.1771 5.79167 11.5417C5.79167 10.9063 5.53925 10.2969 5.08994 9.84757C4.64064 9.39826 4.03125 9.14584 3.39583 9.14584C2.76042 9.14584 2.15103 9.39826 1.70172 9.84757C1.25242 10.2969 1 10.9063 1 11.5417Z" stroke="white"/>
<path d="M1 19.6875C1 20.3229 1.25242 20.9323 1.70172 21.3816C2.15103 21.8309 2.76042 22.0833 3.39583 22.0833C4.03125 22.0833 4.64064 21.8309 5.08994 21.3816C5.53925 20.9323 5.79167 20.3229 5.79167 19.6875C5.79167 19.0521 5.53925 18.4427 5.08994 17.9934C4.64064 17.5441 4.03125 17.2917 3.39583 17.2917C2.76042 17.2917 2.15103 17.5441 1.70172 17.9934C1.25242 18.4427 1 19.0521 1 19.6875Z" stroke="white"/>
<path d="M9.625 3.39583C9.625 4.03125 9.87742 4.64064 10.3267 5.08994C10.776 5.53925 11.3854 5.79167 12.0208 5.79167C12.6562 5.79167 13.2656 5.53925 13.7149 5.08994C14.1642 4.64064 14.4167 4.03125 14.4167 3.39583C14.4167 2.76042 14.1642 2.15103 13.7149 1.70172C13.2656 1.25242 12.6562 1 12.0208 1C11.3854 1 10.776 1.25242 10.3267 1.70172C9.87742 2.15103 9.625 2.76042 9.625 3.39583Z" stroke="white"/>
<path d="M9.625 11.5417C9.625 12.1771 9.87742 12.7865 10.3267 13.2358C10.776 13.6851 11.3854 13.9375 12.0208 13.9375C12.6562 13.9375 13.2656 13.6851 13.7149 13.2358C14.1642 12.7865 14.4167 12.1771 14.4167 11.5417C14.4167 10.9063 14.1642 10.2969 13.7149 9.84757C13.2656 9.39826 12.6562 9.14584 12.0208 9.14584C11.3854 9.14584 10.776 9.39826 10.3267 9.84757C9.87742 10.2969 9.625 10.9063 9.625 11.5417Z" stroke="white"/>
<path d="M9.625 19.6875C9.625 20.3229 9.87742 20.9323 10.3267 21.3816C10.776 21.8309 11.3854 22.0833 12.0208 22.0833C12.6562 22.0833 13.2656 21.8309 13.7149 21.3816C14.1642 20.9323 14.4167 20.3229 14.4167 19.6875C14.4167 19.0521 14.1642 18.4427 13.7149 17.9934C13.2656 17.5441 12.6562 17.2917 12.0208 17.2917C11.3854 17.2917 10.776 17.5441 10.3267 17.9934C9.87742 18.4427 9.625 19.0521 9.625 19.6875Z" stroke="white"/>
<path d="M18 3.39583C18 4.03125 18.2524 4.64064 18.7017 5.08994C19.151 5.53925 19.7604 5.79167 20.3958 5.79167C21.0312 5.79167 21.6406 5.53925 22.0899 5.08994C22.5392 4.64064 22.7917 4.03125 22.7917 3.39583C22.7917 2.76042 22.5392 2.15103 22.0899 1.70172C21.6406 1.25242 21.0312 1 20.3958 1C19.7604 1 19.151 1.25242 18.7017 1.70172C18.2524 2.15103 18 2.76042 18 3.39583Z" fill="#D7E0FF"/>
<path d="M18 11.5417C18 12.1771 18.2524 12.7865 18.7017 13.2358C19.151 13.6851 19.7604 13.9375 20.3958 13.9375C21.0312 13.9375 21.6406 13.6851 22.0899 13.2358C22.5392 12.7865 22.7917 12.1771 22.7917 11.5417C22.7917 10.9063 22.5392 10.2969 22.0899 9.84757C21.6406 9.39826 21.0312 9.14584 20.3958 9.14584C19.7604 9.14584 19.151 9.39826 18.7017 9.84757C18.2524 10.2969 18 10.9063 18 11.5417Z" fill="#D7E0FF"/>
<path d="M18 19.6875C18 20.3229 18.2524 20.9323 18.7017 21.3816C19.151 21.8309 19.7604 22.0833 20.3958 22.0833C21.0312 22.0833 21.6406 21.8309 22.0899 21.3816C22.5392 20.9323 22.7917 20.3229 22.7917 19.6875C22.7917 19.0521 22.5392 18.4427 22.0899 17.9934C21.6406 17.5441 21.0312 17.2917 20.3958 17.2917C19.7604 17.2917 19.151 17.5441 18.7017 17.9934C18.2524 18.4427 18 19.0521 18 19.6875Z" fill="#D7E0FF"/>
<path d="M18 3.39583C18 4.03125 18.2524 4.64064 18.7017 5.08994C19.151 5.53925 19.7604 5.79167 20.3958 5.79167C21.0312 5.79167 21.6406 5.53925 22.0899 5.08994C22.5392 4.64064 22.7917 4.03125 22.7917 3.39583C22.7917 2.76042 22.5392 2.15103 22.0899 1.70172C21.6406 1.25242 21.0312 1 20.3958 1C19.7604 1 19.151 1.25242 18.7017 1.70172C18.2524 2.15103 18 2.76042 18 3.39583Z" stroke="white"/>
<path d="M18 11.5417C18 12.1771 18.2524 12.7865 18.7017 13.2358C19.151 13.6851 19.7604 13.9375 20.3958 13.9375C21.0312 13.9375 21.6406 13.6851 22.0899 13.2358C22.5392 12.7865 22.7917 12.1771 22.7917 11.5417C22.7917 10.9063 22.5392 10.2969 22.0899 9.84757C21.6406 9.39826 21.0312 9.14584 20.3958 9.14584C19.7604 9.14584 19.151 9.39826 18.7017 9.84757C18.2524 10.2969 18 10.9063 18 11.5417Z" stroke="white"/>
<path d="M18 19.6875C18 20.3229 18.2524 20.9323 18.7017 21.3816C19.151 21.8309 19.7604 22.0833 20.3958 22.0833C21.0312 22.0833 21.6406 21.8309 22.0899 21.3816C22.5392 20.9323 22.7917 20.3229 22.7917 19.6875C22.7917 19.0521 22.5392 18.4427 22.0899 17.9934C21.6406 17.5441 21.0312 17.2917 20.3958 17.2917C19.7604 17.2917 19.151 17.5441 18.7017 17.9934C18.2524 18.4427 18 19.0521 18 19.6875Z" stroke="white"/>
</svg>
