<svg width="17" height="17" viewBox="0 0 17 17" fill="none" xmlns="http://www.w3.org/2000/svg">
<g clip-path="url(#clip0_8_128)">
<path d="M3.01992 13.9801C1.56652 12.5267 0.75 10.5554 0.75 8.5C0.75 6.44457 1.56652 4.47333 3.01992 3.01992C4.47333 1.56652 6.44457 0.75 8.5 0.75C10.5554 0.75 12.5267 1.56652 13.9801 3.01992C15.4335 4.47333 16.25 6.44457 16.25 8.5C16.25 10.5554 15.4335 12.5267 13.9801 13.9801C12.5267 15.4335 10.5554 16.25 8.5 16.25C6.44457 16.25 4.47333 15.4335 3.01992 13.9801Z" stroke="#228B22" stroke-width="1.5" stroke-linecap="round" stroke-linejoin="round"/>
<path d="M4.25 9.36629L5.98542 11.8292C6.05124 11.9275 6.1396 12.0087 6.24314 12.066C6.34668 12.1233 6.4624 12.155 6.58068 12.1585C6.69896 12.1621 6.81637 12.1373 6.92314 12.0863C7.02991 12.0353 7.12296 11.9595 7.19454 11.8653L12.75 4.8365" stroke="#228B22" stroke-width="1.5" stroke-linecap="round" stroke-linejoin="round"/>
</g>
<defs>
<clipPath id="clip0_8_128">
<rect width="17" height="17" fill="white"/>
</clipPath>
</defs>
</svg>
