<?xml version="1.0" encoding="utf-8"?><!-- Uploaded to: SVG Repo, www.svgrepo.com, Generator: SVG Repo Mixer Tools -->
<svg width="800px" height="800px" viewBox="0 0 24 24" fill="none" xmlns="http://www.w3.org/2000/svg">
<path fill-rule="evenodd" clip-rule="evenodd" d="M12 6C8.69 6 6 8.69 6 12H9L5 16L1 12H4C4 7.58 7.58 4 12 4C13.57 4 15.03 4.46 16.26 5.24L14.8 6.7C13.97 6.25 13.01 6 12 6ZM15 12L19 8L23 12H20C20 16.42 16.42 20 12 20C10.43 20 8.97 19.54 7.74 18.76L9.2 17.3C10.03 17.75 10.99 18 12 18C15.31 18 18 15.31 18 12H15Z" fill="#000000"/>
</svg>