<svg xmlns="http://www.w3.org/2000/svg" viewBox="-1 -1 48 48" id="Landmark-Cn-Tower--Streamline-Ultimate" height="48" width="48"><desc>Landmark Cn Tower Streamline Icon: https://streamlinehq.com</desc><defs></defs><title>landmark-cn-tower</title><path d="M23 23.958333333333336a7.565083333333334 7.565083333333334 0 0 1 -1.8035833333333333 -0.24150000000000002H21.083333333333336V45.04166666666667h3.8333333333333335V23.716833333333334h-0.11308333333333333A7.565083333333334 7.565083333333334 0 0 1 23 23.958333333333336Z" stroke="#7029f5" stroke-linecap="round" stroke-linejoin="round" fill="#d0b6ff" stroke-width="2"></path><path d="m10.541666666666668 45.04166666666667 24.916666666666668 0" fill="none" stroke="#7029f5" stroke-linecap="round" stroke-linejoin="round" stroke-width="2"></path><path d="m23 8.625 0 -7.666666666666667" fill="none" stroke="#7029f5" stroke-linecap="round" stroke-linejoin="round" stroke-width="2"></path><path d="m17.25 37.375 11.5 0" fill="none" stroke="#7029f5" stroke-linecap="round" stroke-linejoin="round" stroke-width="2"></path><path d="m17.25 31.625 11.5 0" fill="none" stroke="#7029f5" stroke-linecap="round" stroke-linejoin="round" stroke-width="2"></path><path d="M14.375 14.375h17.25s0.9583333333333334 0 0.9583333333333334 0.9583333333333334v1.9166666666666667s0 0.9583333333333334 -0.9583333333333334 0.9583333333333334h-17.25S13.416666666666668 18.208333333333336 13.416666666666668 17.25V15.333333333333334s0 -0.9583333333333334 0.9583333333333334 -0.9583333333333334" fill="#d0b6ff" stroke="#7029f5" stroke-linecap="round" stroke-linejoin="round" stroke-width="2"></path><path d="M30.4175 18.208333333333336a7.666666666666667 7.666666666666667 0 0 1 -14.835 0Z" fill="#dfcfff" stroke="#7029f5" stroke-linecap="round" stroke-linejoin="round" stroke-width="2"></path><path d="M30.4175 14.375H15.582500000000001a7.666666666666667 7.666666666666667 0 0 1 14.835 0Z" fill="#d0b6ff" stroke="#7029f5" stroke-linecap="round" stroke-linejoin="round" stroke-width="2"></path></svg>