<svg viewBox="0 0 16 16" fill="none" xmlns="http://www.w3.org/2000/svg" id="Cross-2--Streamline-Radix" height="16" width="16"><desc>Cross 2 Streamline Icon: https://streamlinehq.com</desc><path fill-rule="evenodd" clip-rule="evenodd" d="M12.567039999999999 4.300341333333334c0.23957333333333333 -0.23951999999999998 0.23957333333333333 -0.6278613333333334 0 -0.8673813333333332 -0.23946666666666666 -0.23951999999999998 -0.62784 -0.23951999999999998 -0.8673066666666667 0L8.000053333333334 7.132608 4.300416 3.43296c-0.23953066666666667 -0.23951999999999998 -0.627872 -0.23951999999999998 -0.867392 0 -0.23951999999999998 0.23951999999999998 -0.23951999999999998 0.6278613333333334 0 0.8673813333333332l3.699648 3.699648 -3.699648 3.6996373333333334c-0.23951999999999998 0.23957333333333333 -0.23951999999999998 0.62784 0 0.8674133333333334 0.23951999999999998 0.23946666666666666 0.6278613333333334 0.23946666666666666 0.867392 0l3.6996373333333334 -3.6996693333333335 3.69968 3.6996693333333335c0.23946666666666666 0.23946666666666666 0.62784 0.23946666666666666 0.8673066666666667 0 0.23957333333333333 -0.23957333333333333 0.23957333333333333 -0.62784 0 -0.8674133333333334L8.867434666666666 7.999989333333334l3.699605333333333 -3.699648Z" fill="#ff5757" stroke-width="2"></path></svg>