<svg width="17" height="17" viewBox="0 0 17 17" fill="none" xmlns="http://www.w3.org/2000/svg">
<g clip-path="url(#clip0_8_85)">
<path d="M8.5 3.14996C9.55071 3.14996 10.5778 3.46154 11.4515 4.04528C12.3251 4.62903 13.006 5.45873 13.4081 6.42946C13.8102 7.40019 13.9154 8.46836 13.7104 9.49888C13.5054 10.5294 12.9995 11.476 12.2565 12.219C11.5135 12.9619 10.5669 13.4679 9.53642 13.6729C8.50589 13.8779 7.43773 13.7727 6.46699 13.3706C5.49626 12.9685 4.66656 12.2876 4.08282 11.4139C3.49907 10.5403 3.1875 9.51318 3.1875 8.46246" stroke="#7029F5" stroke-width="1.5" stroke-linecap="round" stroke-linejoin="round"/>
<path d="M16.2506 10.2871C16.0853 10.991 15.8263 11.6694 15.4807 12.3045" stroke="#7029F5" stroke-width="1.5" stroke-linecap="round" stroke-linejoin="round"/>
<path d="M14.0349 14.1886C13.5114 14.6873 12.9271 15.118 12.296 15.4707" stroke="#7029F5" stroke-width="1.5" stroke-linecap="round" stroke-linejoin="round"/>
<path d="M9.20337 0.529129C9.92368 0.592941 10.6318 0.755491 11.3078 1.01221" stroke="#7029F5" stroke-width="1.5" stroke-linecap="round" stroke-linejoin="round"/>
<path d="M13.379 2.17104C13.9525 2.61142 14.4607 3.13083 14.8885 3.71379" stroke="#7029F5" stroke-width="1.5" stroke-linecap="round" stroke-linejoin="round"/>
<path d="M16.0083 5.80833C16.2553 6.488 16.4018 7.20005 16.4432 7.922" stroke="#7029F5" stroke-width="1.5" stroke-linecap="round" stroke-linejoin="round"/>
<path d="M10.0937 16.2718C9.06819 16.4811 8.01146 16.4864 6.98389 16.2873C5.95632 16.0882 4.97803 15.6886 4.10487 15.1115C2.34144 13.9458 1.11329 12.1274 0.690602 10.0562C0.267913 7.98503 0.685308 5.83077 1.85096 4.06734C3.01662 2.30391 4.83505 1.07576 6.90623 0.653076" stroke="#7029F5" stroke-width="1.5" stroke-linecap="round" stroke-linejoin="round"/>
</g>
<defs>
<clipPath id="clip0_8_85">
<rect width="17" height="17" fill="white"/>
</clipPath>
</defs>
</svg>
