<svg xmlns="http://www.w3.org/2000/svg" viewBox="0 0 24 24" id="Jira-Software-Logo--Streamline-Ultimate" height="24" width="24"><desc>Jira Software Logo Streamline Icon: https://streamlinehq.com</desc><g><path d="M12 8.09 8.09 12l4.74 4.75a4.35 4.35 0 0 1 0 6.15 1.16 1.16 0 0 1 -1.66 0L1.1 12.83a1.16 1.16 0 0 1 0 -1.66L11.17 1.1A1.14 1.14 0 0 1 12 0.75" fill="none" stroke="#000000" stroke-linecap="round" stroke-linejoin="round" stroke-width="1.5"></path><path d="M12 15.91 15.91 12l-4.74 -4.75a4.35 4.35 0 0 1 0 -6.15 1.16 1.16 0 0 1 1.66 0L22.9 11.17a1.16 1.16 0 0 1 0 1.66L12.83 22.9a1.14 1.14 0 0 1 -0.83 0.35" fill="none" stroke="#000000" stroke-linecap="round" stroke-linejoin="round" stroke-width="1.5"></path></g></svg>