<svg xmlns="http://www.w3.org/2000/svg" fill="none" viewBox="0 0 14 14" id="Flash-3--Streamline-Flex" height="14" width="14"><desc>Flash 3 Streamline Icon: https://streamlinehq.com</desc><g id="flash-3--flash-power-connect-charge-electricity-lightning"><path id="Vector 382" fill="#c595ff" d="M6.38367 6.99999H5.01553c-1.25522 0 -2.22714 -1.07547 -1.97568 -2.2653 0.06537 -0.3093 0.13564 -0.61179 0.20835 -0.87872 0.24486 -0.89889 0.7152 -2.12087 0.96304 -2.74353 0.10205 -0.256384 0.31467 -0.45093 0.5951 -0.494144C5.17467 0.561537 5.56243 0.5 6.59636 0.5c0.71571 0 1.18517 0.019465 1.51879 0.050186 0.58608 0.053968 0.91631 0.667424 0.74946 1.213684l-0.60633 1.98511s0.44885 -0.02627 1.04436 -0.02951c1.26586 -0.00689 1.89706 1.20396 1.35046 2.30864L8.88591 9.59999h1.89069c0.3538 0 0.5946 0.33534 0.4092 0.62691 -0.989 1.5556 -3.48664 3.0719 -5.15323 3.2731 -1.45004 -0.6526 -2.42051 -2.2962 -2.76027 -3.357 -0.09109 -0.28433 0.14262 -0.54301 0.45034 -0.54301h1.73218l0.92885 -2.6Z" stroke-width="1"></path><path id="Vector 383" stroke="#4147d5" stroke-linecap="round" stroke-linejoin="round" d="M6.38367 6.99999H5.01553c-1.25522 0 -2.22714 -1.07547 -1.97568 -2.2653 0.06537 -0.3093 0.13564 -0.61179 0.20835 -0.87872 0.24486 -0.89889 0.7152 -2.12087 0.96304 -2.74353 0.10205 -0.256384 0.31467 -0.45093 0.5951 -0.494144C5.17467 0.561537 5.56243 0.5 6.59636 0.5c0.71571 0 1.18517 0.019465 1.51879 0.050186 0.58608 0.053968 0.91631 0.667424 0.74946 1.213684l-0.60633 1.98511s0.44885 -0.02627 1.04436 -0.02951c1.26586 -0.00689 1.89706 1.20396 1.35046 2.30864L8.88591 9.59999h1.89069c0.3538 0 0.5946 0.33534 0.4092 0.62691 -0.989 1.5556 -3.48664 3.0719 -5.15323 3.2731 -1.45004 -0.6526 -2.42051 -2.2962 -2.76027 -3.357 -0.09109 -0.28433 0.14262 -0.54301 0.45034 -0.54301h1.73218l0.92885 -2.6Z" stroke-width="1"></path></g></svg>