<svg xmlns="http://www.w3.org/2000/svg" fill="none" viewBox="0 0 24 24" id="Module-Puzzle-2--Streamline-Ultimate" height="24" width="24"><desc>Module Puzzle 2 Streamline Icon: https://streamlinehq.com</desc><path stroke="#000000" stroke-linecap="round" stroke-linejoin="round" d="m19.5001 15.75 3.311 -3.311c0.2812 -0.2813 0.4391 -0.6628 0.4391 -1.0605 0 -0.3978 -0.1579 -0.7792 -0.4391 -1.0605l-2.111 -2.106c-0.2388 0.56648 -0.6131 1.06559 -1.0901 1.45338 -0.477 0.38782 -1.042 0.65242 -1.6453 0.77042 -0.6033 0.1181 -1.2264 0.0861 -1.8144 -0.0933 -0.588 -0.1794 -1.1229 -0.50051 -1.5576 -0.9352 -0.4346 -0.43468 -0.7558 -0.96957 -0.9351 -1.55756 -0.1794 -0.588 -0.2115 -1.21107 -0.0934 -1.81436 0.1181 -0.6033 0.3827 -1.16831 0.7705 -1.6453 0.3878 -0.477 0.8869 -0.85134 1.4534 -1.09008l-2.106 -2.111c-0.2813 -0.28121 -0.6628 -0.439183 -1.0605 -0.439183 -0.3978 0 -0.7793 0.157973 -1.0605 0.439183L8.25006 4.5c0 -0.74168 -0.21994 -1.46671 -0.63199 -2.08339 -0.41206 -0.61669 -0.99773 -1.09733 -1.68295 -1.38116C5.2499 0.75162 4.4959 0.677357 3.76847 0.822052 3.04104 0.966746 2.37285 1.3239 1.84841 1.84835 1.32396 2.37279 0.966807 3.04098 0.822113 3.76841c-0.144695 0.72743 -0.070432 1.48143 0.213397 2.16665 0.28383 0.68522 0.76448 1.27089 1.38116 1.68295 0.61668 0.41205 1.34171 0.63199 2.08339 0.63199l-3.311 3.311c-0.281209 0.2813 -0.439182 0.6627 -0.439182 1.0605 0 0.3977 0.157973 0.7792 0.439182 1.0605l2.111 2.106c0.23874 -0.5665 0.61308 -1.0656 1.09008 -1.4534 0.47699 -0.3878 1.04201 -0.6524 1.6453 -0.7704 0.60329 -0.1181 1.22636 -0.0861 1.81436 0.0933 0.58799 0.1793 1.12288 0.5005 1.55756 0.9352 0.43469 0.4347 0.75584 0.9696 0.93524 1.5576 0.1793 0.5879 0.2114 1.211 0.0933 1.8143 -0.1181 0.6033 -0.3827 1.1683 -0.77045 1.6453 -0.3878 0.477 -0.8869 0.8514 -1.45339 1.0901l2.10604 2.107c0.2812 0.2812 0.6627 0.4392 1.0605 0.4392 0.3977 0 0.7792 -0.158 1.0605 -0.4392l3.311 -3.307c0 0.7417 0.2199 1.4667 0.6319 2.0834 0.4121 0.6167 0.9978 1.0973 1.683 1.3811 0.6852 0.2839 1.4392 0.3581 2.1666 0.2134 0.7275 -0.1447 1.3957 -0.5018 1.9201 -1.0263 0.5245 -0.5244 0.8816 -1.1926 1.0263 -1.92 0.1447 -0.7274 0.0704 -1.4814 -0.2134 -2.1667 -0.2838 -0.6852 -0.7645 -1.2709 -1.3812 -1.6829 -0.6166 -0.4121 -1.3417 -0.632 -2.0833 -0.632Z" stroke-width="1.5"></path></svg>