<svg xmlns="http://www.w3.org/2000/svg" viewBox="0 0 24 24" id="Hierarchy-2--Streamline-Ultimate" height="24" width="24"><desc>Hierarchy 2 Streamline Icon: https://streamlinehq.com</desc><defs></defs><title>hierarchy-2</title><path d="M10.5 18.748h12s0.75 0 0.75 0.75v3s0 0.75 -0.75 0.75h-12s-0.75 0 -0.75 -0.75v-3s0 -0.75 0.75 -0.75" fill="none" stroke="#000000" stroke-linecap="round" stroke-linejoin="round" stroke-width="1.5"></path><path d="M10.5 11.248h12s0.75 0 0.75 0.75v3s0 0.75 -0.75 0.75h-12s-0.75 0 -0.75 -0.75v-3s0 -0.75 0.75 -0.75" fill="none" stroke="#000000" stroke-linecap="round" stroke-linejoin="round" stroke-width="1.5"></path><path d="M1.5 0.748h12s0.75 0 0.75 0.75v3s0 0.75 -0.75 0.75h-12s-0.75 0 -0.75 -0.75v-3s0 -0.75 0.75 -0.75" fill="none" stroke="#000000" stroke-linecap="round" stroke-linejoin="round" stroke-width="1.5"></path><path d="M6.75 5.248v1.5a1.5 1.5 0 0 0 1.5 1.5h4.5a1.5 1.5 0 0 1 1.5 1.5v1.5" fill="none" stroke="#000000" stroke-linecap="round" stroke-linejoin="round" stroke-width="1.5"></path><path d="m17.25 15.748 0 3" fill="none" stroke="#000000" stroke-linecap="round" stroke-linejoin="round" stroke-width="1.5"></path></svg>