<svg xmlns="http://www.w3.org/2000/svg" viewBox="-1 -1 48 48" id="Brain-Chip--Streamline-Ultimate" height="48" width="48"><desc>Brain Chip Streamline Icon: https://streamlinehq.com</desc><defs></defs><path d="M45.04166666666667 23a5.730833333333334 5.730833333333334 0 0 0 -5.3379166666666675 -5.707833333333334A7.1530000000000005 7.1530000000000005 0 0 0 34.020833333333336 5.75c-0.21658333333333335 0 -0.4216666666666667 0.044083333333333335 -0.6344166666666667 0.06325A3.8160833333333337 3.8160833333333337 0 0 0 33.54166666666667 4.791666666666667a3.8333333333333335 3.8333333333333335 0 0 0 -7.6570833333333335 -0.18016666666666667 5.75 5.75 0 0 0 -5.75 0A3.8333333333333335 3.8333333333333335 0 0 0 12.458333333333334 4.791666666666667a3.8160833333333337 3.8160833333333337 0 0 0 0.15525 1.0215833333333335C12.400833333333333 5.794083333333334 12.195750000000002 5.75 11.979166666666668 5.75a7.1530000000000005 7.1530000000000005 0 0 0 -5.682916666666666 11.542166666666668 5.72125 5.72125 0 0 0 0 11.415666666666668A7.1530000000000005 7.1530000000000005 0 0 0 11.979166666666668 40.25c0.21658333333333335 0 0.4216666666666667 -0.044083333333333335 0.6344166666666667 -0.06325a3.8237500000000004 3.8237500000000004 0 1 0 7.501833333333334 1.20175 5.75 5.75 0 0 0 5.75 0 3.8333333333333335 3.8333333333333335 0 1 0 7.501833333333334 -1.20175c0.21275000000000002 0.01916666666666667 0.41783333333333333 0.06325 0.6344166666666667 0.06325a7.1530000000000005 7.1530000000000005 0 0 0 5.682916666666666 -11.542166666666668A5.730833333333334 5.730833333333334 0 0 0 45.04166666666667 23Z" fill="#ffe1c9" stroke-width="2"></path><path d="M23 3.8333333333333335a5.72125 5.72125 0 0 0 -2.875 0.7666666666666667 3.8333333333333335 3.8333333333333335 0 0 0 -7.666666666666667 0.19166666666666668 3.8160833333333337 3.8160833333333337 0 0 0 0.15525 1.0215833333333335C12.400833333333333 5.794083333333334 12.195750000000002 5.75 11.979166666666668 5.75a7.1530000000000005 7.1530000000000005 0 0 0 -5.682916666666666 11.542166666666668 5.72125 5.72125 0 0 0 0 11.415666666666668A7.1530000000000005 7.1530000000000005 0 0 0 11.979166666666668 40.25c0.21658333333333335 0 0.4216666666666667 -0.044083333333333335 0.6344166666666667 -0.06325a3.8237500000000004 3.8237500000000004 0 1 0 7.501833333333334 1.20175A5.72125 5.72125 0 0 0 23 42.16666666666667Z" fill="#ffe1c9" stroke-width="2"></path><path d="M17.516416666666665 8.406500000000001A3.8333333333333335 3.8333333333333335 0 1 0 12.458333333333334 4.791666666666667a3.8160833333333337 3.8160833333333337 0 0 0 0.15525 1.0215833333333335C12.400833333333333 5.794083333333334 12.195750000000002 5.75 11.979166666666668 5.75a7.1530000000000005 7.1530000000000005 0 0 0 -5.682916666666666 11.542166666666668 5.72125 5.72125 0 0 0 0 11.415666666666668A7.1530000000000005 7.1530000000000005 0 0 0 11.979166666666668 40.25c0.21658333333333335 0 0.4216666666666667 -0.044083333333333335 0.6344166666666667 -0.06325a3.8333333333333335 3.8333333333333335 0 1 0 4.902833333333334 -2.5932500000000003" fill="none" stroke="#d27f00" stroke-linecap="round" stroke-linejoin="round" stroke-width="2"></path><path d="M28.483583333333335 8.406500000000001A3.8333333333333335 3.8333333333333335 0 1 1 33.54166666666667 4.791666666666667a3.8160833333333337 3.8160833333333337 0 0 1 -0.15525 1.0215833333333335c0.21275000000000002 -0.01916666666666667 0.41783333333333333 -0.06325 0.6344166666666667 -0.06325a7.1530000000000005 7.1530000000000005 0 0 1 5.682916666666666 11.542166666666668 5.72125 5.72125 0 0 1 0 11.415666666666668A7.1530000000000005 7.1530000000000005 0 0 1 34.020833333333336 40.25c-0.21658333333333335 0 -0.4216666666666667 -0.044083333333333335 -0.6344166666666667 -0.06325a3.8333333333333335 3.8333333333333335 0 1 1 -4.902833333333334 -2.5932500000000003" fill="none" stroke="#d27f00" stroke-linecap="round" stroke-linejoin="round" stroke-width="2"></path><path d="M20.125 4.6a5.75 5.75 0 0 1 5.75 0" fill="none" stroke="#d27f00" stroke-linecap="round" stroke-linejoin="round" stroke-width="2"></path><path d="M25.875 41.400000000000006a5.75 5.75 0 0 1 -5.75 0" fill="none" stroke="#d27f00" stroke-linecap="round" stroke-linejoin="round" stroke-width="2"></path><path d="M17.25 15.333333333333334h11.5s1.9166666666666667 0 1.9166666666666667 1.9166666666666667v11.5s0 1.9166666666666667 -1.9166666666666667 1.9166666666666667H17.25s-1.9166666666666667 0 -1.9166666666666667 -1.9166666666666667V17.25s0 -1.9166666666666667 1.9166666666666667 -1.9166666666666667" fill="#ffbb54" stroke-width="2"></path><path d="M30.105083333333337 15.894916666666665A1.9166666666666667 1.9166666666666667 0 0 0 28.75 15.333333333333334H17.25a1.9166666666666667 1.9166666666666667 0 0 0 -1.9166666666666667 1.9166666666666667v11.5a1.9166666666666667 1.9166666666666667 0 0 0 0.5615833333333333 1.3550833333333334Z" fill="#ffe1c9" stroke-width="2"></path><path d="M17.25 15.333333333333334h11.5s1.9166666666666667 0 1.9166666666666667 1.9166666666666667v11.5s0 1.9166666666666667 -1.9166666666666667 1.9166666666666667H17.25s-1.9166666666666667 0 -1.9166666666666667 -1.9166666666666667V17.25s0 -1.9166666666666667 1.9166666666666667 -1.9166666666666667" fill="none" stroke="#d27f00" stroke-linecap="round" stroke-linejoin="round" stroke-width="2"></path><path d="m19.166666666666668 11.5 0 3.8333333333333335" fill="none" stroke="#d27f00" stroke-linecap="round" stroke-linejoin="round" stroke-width="2"></path><path d="m26.833333333333336 11.5 0 3.8333333333333335" fill="none" stroke="#d27f00" stroke-linecap="round" stroke-linejoin="round" stroke-width="2"></path><path d="m11.5 26.833333333333336 3.8333333333333335 0" fill="none" stroke="#d27f00" stroke-linecap="round" stroke-linejoin="round" stroke-width="2"></path><path d="m11.5 19.166666666666668 3.8333333333333335 0" fill="none" stroke="#d27f00" stroke-linecap="round" stroke-linejoin="round" stroke-width="2"></path><path d="m26.833333333333336 34.5 0 -3.8333333333333335" fill="none" stroke="#d27f00" stroke-linecap="round" stroke-linejoin="round" stroke-width="2"></path><path d="m19.166666666666668 34.5 0 -3.8333333333333335" fill="none" stroke="#d27f00" stroke-linecap="round" stroke-linejoin="round" stroke-width="2"></path><path d="m34.5 19.166666666666668 -3.8333333333333335 0" fill="none" stroke="#d27f00" stroke-linecap="round" stroke-linejoin="round" stroke-width="2"></path><path d="m34.5 26.833333333333336 -3.8333333333333335 0" fill="none" stroke="#d27f00" stroke-linecap="round" stroke-linejoin="round" stroke-width="2"></path></svg>