<svg xmlns="http://www.w3.org/2000/svg" viewBox="0 0 16 16" id="Pause--Streamline-Font-Awesome" height="16" width="16"><desc>Pause Streamline Icon: https://streamlinehq.com</desc><!--! Font Awesome Free 6.5.2 by @fontawesome - https://fontawesome.com License - https://fontawesome.com/license/free (Icons: CC BY 4.0, Fonts: SIL OFL 1.1, Code: MIT License) Copyright 2024 Fonticons, Inc.--><path d="M3.426665 0.16000000000000003c-1.0820800000000002 0 -1.9600000000000002 0.877915 -1.9600000000000002 1.9600000000000002v11.76c0 1.082085 0.87792 1.9600000000000002 1.9600000000000002 1.9600000000000002h1.3066700000000002c1.0820800000000002 0 1.9600000000000002 -0.877915 1.9600000000000002 -1.9600000000000002V2.12c0 -1.082085 -0.87792 -1.9600000000000002 -1.9600000000000002 -1.9600000000000002H3.426665Zm7.840000000000001 0c-1.0820800000000002 0 -1.9600000000000002 0.877915 -1.9600000000000002 1.9600000000000002v11.76c0 1.082085 0.87792 1.9600000000000002 1.9600000000000002 1.9600000000000002h1.3066700000000002c1.0820800000000002 0 1.9600000000000002 -0.877915 1.9600000000000002 -1.9600000000000002V2.12c0 -1.082085 -0.87792 -1.9600000000000002 -1.9600000000000002 -1.9600000000000002h-1.3066700000000002Z" fill="#000000" stroke-width="0.05"></path></svg>