<svg width="658" height="657" viewBox="0 0 658 657" fill="none" xmlns="http://www.w3.org/2000/svg">
<path d="M521.262 216.043L478.388 119.939C464.533 88.8766 428.076 74.8766 397.013 88.7313C391.617 91.0646 386.805 94.2729 382.576 97.9188L378.638 89.0229C372.221 74.4389 360.409 63.3562 345.534 57.6682C330.659 51.9802 314.471 52.4182 300.034 58.8349L296.097 60.5849C291.576 62.6265 287.492 65.1057 283.847 68.0224C267.805 45.1264 237.325 35.9397 210.784 47.6064L206.846 49.3564C177.534 62.4814 163.972 96.4604 175.929 125.919C171.846 126.794 167.617 128.106 163.679 129.856L159.742 131.606C129.846 145.022 116.283 180.169 129.7 210.211L186.43 337.523C179.867 336.648 173.159 336.502 166.451 337.523C148.076 340.148 131.888 349.918 120.806 364.648C98.0563 395.127 104.18 438.148 134.222 461.189C143.847 469.502 160.763 485.252 167.326 493.272C193.284 525.501 229.159 566.043 277.284 594.772C313.596 616.501 350.202 627.293 386.806 627.293C415.243 627.293 443.68 620.731 472.118 607.605C530.014 580.772 566.472 546.064 583.534 501.584C603.367 449.813 602.2 393.959 580.034 344.224L521.262 216.043ZM540.221 485.403C527.533 518.507 499.68 544.174 452.429 566.049C370.325 604.111 288.802 570.861 203.202 464.549C191.681 450.403 166.598 428.382 163.681 426.049L162.368 425.028C157.41 421.382 154.202 415.986 153.327 409.716C152.452 403.445 153.91 397.466 157.702 392.508C161.348 387.549 166.889 384.341 173.014 383.466C179.138 382.591 185.264 384.05 190.222 387.841L220.263 408.841C221.576 410.008 223.18 411.174 224.784 412.049L281.95 452.153C292.45 459.445 306.742 456.966 314.18 446.466C321.472 435.966 318.992 421.674 308.492 414.237L254.096 376.174L171.7 191.547C168.784 184.839 171.7 176.963 178.409 174.047L182.346 172.297C185.554 170.839 189.2 170.693 192.554 172.006C195.908 173.318 198.534 175.797 199.992 179.006L268.825 333.299C274.075 344.966 287.637 350.216 299.304 344.966C310.97 339.715 316.221 326.154 310.97 314.487L242.137 160.194C240.825 157.131 239.075 154.214 237.325 151.589C237.033 150.569 236.741 149.548 236.304 148.673L218.804 109.443C215.887 102.735 218.804 94.8595 225.512 91.9435L229.45 90.1935C236.158 87.2768 244.034 90.1935 246.95 96.9017L264.887 137.152C265.179 137.882 265.47 138.757 265.762 139.486C265.908 139.923 266.199 140.215 266.345 140.507L342.033 310.4C345.825 319.004 354.283 324.108 363.179 324.108C366.387 324.108 369.449 323.525 372.512 322.066C384.179 316.816 389.429 303.254 384.179 291.588L307.471 119.508C305.283 113.091 308.2 105.945 314.616 103.174L318.554 101.424C321.762 99.9659 325.408 99.8202 328.762 101.133C332.116 102.445 334.741 104.924 336.2 108.133L419.616 295.239C423.407 303.843 431.866 308.947 440.761 308.947C443.969 308.947 447.032 308.364 450.094 306.906C461.761 301.656 467.012 288.094 461.761 276.427L409.698 159.615C409.552 156.99 408.969 154.219 407.802 151.74C404.302 144.011 407.802 134.823 415.677 131.324C423.407 127.824 432.595 131.324 436.093 139.199L475.905 228.303L537.739 364.076C554.801 401.994 555.676 445.159 540.218 485.41L540.221 485.403Z" fill="url(#paint0_linear_9296_422137)"/>
<path d="M655.716 170.097C635.3 119.201 602.779 73.2632 561.508 36.8045C551.883 28.3461 537.3 29.2212 528.841 38.8461C520.383 48.471 521.258 63.0541 530.883 71.5128C566.758 103.158 595.05 143.117 612.695 187.305C616.341 196.346 624.945 201.889 634.132 201.889C637.049 201.889 639.965 201.305 642.736 200.285C654.695 195.326 660.382 181.91 655.716 170.097Z" fill="url(#paint1_linear_9296_422137)"/>
<path d="M52.409 157.563C40.4506 153.188 27.1797 159.313 22.6597 171.271C1.22232 229.313 -4.46568 292.313 6.32632 353.711C8.36792 364.94 17.993 372.815 29.0757 372.815C30.3882 372.815 31.7007 372.669 33.159 372.524C45.7006 370.336 54.159 358.378 51.971 345.836C42.6377 292.606 47.4502 237.918 66.1163 187.462C70.4913 175.212 64.3663 161.941 52.4083 157.566L52.409 157.563Z" fill="url(#paint2_linear_9296_422137)"/>
<defs>
<linearGradient id="paint0_linear_9296_422137" x1="352.313" y1="42.5422" x2="352.313" y2="627.293" gradientUnits="userSpaceOnUse">
<stop stop-color="#2200FF"/>
<stop offset="1" stop-color="#9E00FF"/>
</linearGradient>
<linearGradient id="paint1_linear_9296_422137" x1="590.19" y1="31" x2="590.19" y2="201.889" gradientUnits="userSpaceOnUse">
<stop stop-color="#2200FF"/>
<stop offset="1" stop-color="#9E00FF"/>
</linearGradient>
<linearGradient id="paint2_linear_9296_422137" x1="34.2645" y1="156.151" x2="34.2645" y2="372.815" gradientUnits="userSpaceOnUse">
<stop stop-color="#2200FF"/>
<stop offset="1" stop-color="#9E00FF"/>
</linearGradient>
</defs>
</svg>

