<svg width="18" height="18" viewBox="0 0 18 18" fill="none" xmlns="http://www.w3.org/2000/svg">
<path fill-rule="evenodd" clip-rule="evenodd" d="M12.5 6C12.5 4.067 10.933 2.5 9 2.5C7.067 2.5 5.5 4.067 5.5 6V6.5H12.5V6Z" stroke="#000" stroke-width="1.5" stroke-linecap="round" stroke-linejoin="round"/>
<path fill-rule="evenodd" clip-rule="evenodd" d="M5.5 13C5.5 14.933 7.067 16.5 9 16.5C10.933 16.5 12.5 14.933 12.5 13V6.5H5.5V13Z" stroke="#000" stroke-width="1.5" stroke-linecap="round" stroke-linejoin="round"/>
<path d="M12.0627 4.306C13.229 3.86425 14.0003 2.74709 14.0001 1.5" stroke="#000" stroke-width="1.5" stroke-linecap="round" stroke-linejoin="round"/>
<path d="M5.93733 4.306C4.7711 3.86425 3.99979 2.74709 4 1.5" stroke="#000" stroke-width="1.5" stroke-linecap="round" stroke-linejoin="round"/>
<path d="M12.5 9.5H16.5" stroke="#000" stroke-width="1.5" stroke-linecap="round" stroke-linejoin="round"/>
<path d="M16.5 13.5C14.2909 13.5 12.5 11.7091 12.5 9.5C12.5 7.29086 14.2909 5.5 16.5 5.5" stroke="#000" stroke-width="1.5" stroke-linecap="round" stroke-linejoin="round"/>
<path d="M5.5 9.5H1.5" stroke="#000" stroke-width="1.5" stroke-linecap="round" stroke-linejoin="round"/>
<path d="M1.5 13.5C3.70914 13.5 5.5 11.7091 5.5 9.5C5.5 7.29086 3.70914 5.5 1.5 5.5" stroke="#000" stroke-width="1.5" stroke-linecap="round" stroke-linejoin="round"/>
</svg>
