<svg width="73" height="74" viewBox="0 0 73 74" fill="none" xmlns="http://www.w3.org/2000/svg">
<path d="M50.5939 22.486L37.0129 32.363L23.4319 22.486C23.0912 22.2384 22.814 21.9138 22.6228 21.5385C22.4316 21.1633 22.3319 20.7481 22.3319 20.327V3.669C22.3319 3.3185 22.4009 2.97144 22.5351 2.64762C22.6692 2.3238 22.8658 2.02957 23.1136 1.78173C23.3615 1.53389 23.6557 1.33729 23.9795 1.20317C24.3033 1.06904 24.6504 1 25.0009 1H49.0249C49.3754 1 49.7225 1.06904 50.0463 1.20317C50.3701 1.33729 50.6643 1.53389 50.9122 1.78173C51.16 2.02957 51.3566 2.3238 51.4907 2.64762C51.6249 2.97144 51.6939 3.3185 51.6939 3.669V20.327C51.6939 20.7481 51.5942 21.1633 51.403 21.5385C51.2119 21.9138 50.9346 22.2384 50.5939 22.486Z" fill="#FF6242"/>
<path d="M49.0249 1H25.0009C24.6504 1 24.3033 1.06904 23.9795 1.20317C23.6557 1.33729 23.3615 1.53389 23.1136 1.78173C22.8658 2.02957 22.6692 2.3238 22.5351 2.64762C22.4009 2.97144 22.3319 3.3185 22.3319 3.669V9.008C22.3319 8.30004 22.6131 7.62107 23.1136 7.12038C23.6141 6.61969 24.293 6.33826 25.0009 6.338H49.0249C49.7329 6.33826 50.4117 6.61969 50.9122 7.12038C51.4127 7.62107 51.6939 8.30004 51.6939 9.008V3.669C51.6939 2.96114 51.4127 2.28227 50.9122 1.78173C50.4116 1.2812 49.7328 1 49.0249 1Z" fill="#FFA694"/>
<path d="M50.5939 22.486L37.0129 32.363L23.4319 22.486C23.0912 22.2384 22.814 21.9138 22.6228 21.5385C22.4316 21.1633 22.3319 20.7481 22.3319 20.327V3.669C22.3319 3.3185 22.4009 2.97144 22.5351 2.64762C22.6692 2.3238 22.8658 2.02957 23.1136 1.78173C23.3615 1.53389 23.6557 1.33729 23.9795 1.20317C24.3033 1.06904 24.6504 1 25.0009 1H49.0249C49.3754 1 49.7225 1.06904 50.0463 1.20317C50.3701 1.33729 50.6643 1.53389 50.9122 1.78173C51.16 2.02957 51.3566 2.3238 51.4907 2.64762C51.6249 2.97144 51.6939 3.3185 51.6939 3.669V20.327C51.6939 20.7481 51.5942 21.1633 51.403 21.5385C51.2119 21.9138 50.9346 22.2384 50.5939 22.486Z" stroke="#45413C" stroke-linecap="round" stroke-linejoin="round"/>
<path d="M30.34 27.51L37.013 32.363L43.686 27.51V1H30.34V27.51Z" fill="#6DD627"/>
<path d="M30.34 1H43.686V6.338H30.34V1Z" fill="#9CEB60"/>
<path d="M30.34 27.51L37.013 32.363L43.686 27.51V1H30.34V27.51Z" stroke="#45413C" stroke-linecap="round" stroke-linejoin="round"/>
<path d="M31.088 44.263L35.557 37.108C35.7111 36.8608 35.9257 36.657 36.1804 36.5156C36.4351 36.3743 36.7217 36.3001 37.013 36.3001C37.3043 36.3001 37.5908 36.3743 37.8455 36.5156C38.1002 36.657 38.3148 36.8608 38.469 37.108L42.938 44.263L51.369 44.556C51.66 44.5662 51.9437 44.6502 52.1933 44.8002C52.4429 44.9502 52.6503 45.1613 52.7959 45.4135C52.9415 45.6657 53.0206 45.9508 53.0257 46.242C53.0307 46.5332 52.9617 46.8209 52.825 47.078L48.863 54.525L52.825 61.973C52.9617 62.2301 53.0307 62.5178 53.0257 62.809C53.0206 63.1002 52.9415 63.3853 52.7959 63.6375C52.6503 63.8897 52.4429 64.1008 52.1933 64.2508C51.9437 64.4008 51.66 64.4848 51.369 64.495L42.938 64.787L38.469 71.943C38.3146 72.1899 38.1 72.3936 37.8453 72.5347C37.5906 72.6759 37.3042 72.75 37.013 72.75C36.7218 72.75 36.4353 72.6759 36.1806 72.5347C35.9259 72.3936 35.7113 72.1899 35.557 71.943L31.088 64.787L22.657 64.495C22.3659 64.4848 22.0822 64.4008 21.8326 64.2508C21.583 64.1008 21.3756 63.8897 21.23 63.6375C21.0844 63.3853 21.0053 63.1002 21.0003 62.809C20.9952 62.5178 21.0642 62.2301 21.201 61.973L25.163 54.525L21.201 47.078C21.0642 46.8209 20.9952 46.5332 21.0003 46.242C21.0053 45.9508 21.0844 45.6657 21.23 45.4135C21.3756 45.1613 21.583 44.9502 21.8326 44.8002C22.0822 44.6502 22.3659 44.5662 22.657 44.556L31.088 44.263Z" fill="#CD7F32"/>
<path d="M28.94 64.713L22.657 64.495C22.3659 64.4848 22.0822 64.4008 21.8326 64.2508C21.583 64.1008 21.3756 63.8897 21.23 63.6375C21.0844 63.3853 21.0053 63.1002 21.0003 62.809C20.9952 62.5178 21.0642 62.2301 21.201 61.973L25.163 54.525L21.201 47.078C21.0642 46.8209 20.9952 46.5332 21.0003 46.242C21.0053 45.9508 21.0844 45.6657 21.23 45.4135C21.3756 45.1613 21.583 44.9502 21.8326 44.8002C22.0822 44.6502 22.3659 44.5662 22.657 44.556L31.088 44.263L35.557 37.108C35.7111 36.8608 35.9257 36.657 36.1804 36.5156C36.4351 36.3743 36.7217 36.3001 37.013 36.3001C37.3043 36.3001 37.5908 36.3743 37.8455 36.5156C38.1002 36.657 38.3148 36.8608 38.469 37.108L42.938 44.263L49.173 44.48L28.94 64.713Z" fill="#DD8F43"/>
<path d="M31.088 44.263L35.557 37.108C35.7111 36.8608 35.9257 36.657 36.1804 36.5156C36.4351 36.3743 36.7217 36.3001 37.013 36.3001C37.3043 36.3001 37.5908 36.3743 37.8455 36.5156C38.1002 36.657 38.3148 36.8608 38.469 37.108L42.938 44.263L51.369 44.556C51.66 44.5662 51.9437 44.6502 52.1933 44.8002C52.4429 44.9502 52.6503 45.1613 52.7959 45.4135C52.9415 45.6657 53.0206 45.9508 53.0257 46.242C53.0307 46.5332 52.9617 46.8209 52.825 47.078L48.863 54.525L52.825 61.973C52.9617 62.2301 53.0307 62.5178 53.0257 62.809C53.0206 63.1002 52.9415 63.3853 52.7959 63.6375C52.6503 63.8897 52.4429 64.1008 52.1933 64.2508C51.9437 64.4008 51.66 64.4848 51.369 64.495L42.938 64.787L38.469 71.943C38.3146 72.1899 38.1 72.3936 37.8453 72.5347C37.5906 72.6759 37.3042 72.75 37.013 72.75C36.7218 72.75 36.4353 72.6759 36.1806 72.5347C35.9259 72.3936 35.7113 72.1899 35.557 71.943L31.088 64.787L22.657 64.495C22.3659 64.4848 22.0822 64.4008 21.8326 64.2508C21.583 64.1008 21.3756 63.8897 21.23 63.6375C21.0844 63.3853 21.0053 63.1002 21.0003 62.809C20.9952 62.5178 21.0642 62.2301 21.201 61.973L25.163 54.525L21.201 47.078C21.0642 46.8209 20.9952 46.5332 21.0003 46.242C21.0053 45.9508 21.0844 45.6657 21.23 45.4135C21.3756 45.1613 21.583 44.9502 21.8326 44.8002C22.0822 44.6502 22.3659 44.5662 22.657 44.556L31.088 44.263Z" stroke="#45413C" stroke-linecap="round" stroke-linejoin="round"/>
<path d="M34.6399 29.398C34.6399 28.7686 34.8899 28.1651 35.3349 27.72C35.78 27.275 36.3835 27.025 37.0129 27.025C37.6423 27.025 38.2458 27.275 38.6909 27.72C39.1359 28.1651 39.3859 28.7686 39.3859 29.398V35.329C39.3859 35.9583 39.1359 36.5619 38.6909 37.007C38.2458 37.452 37.6423 37.702 37.0129 37.702C36.3835 37.702 35.78 37.452 35.3349 37.007C34.8899 36.5619 34.6399 35.9583 34.6399 35.329V29.398Z" fill="#CD7F32"/>
<path d="M37.0129 27.025C36.3835 27.025 35.78 27.275 35.3349 27.72C34.8899 28.1651 34.6399 28.7686 34.6399 29.398V33.398C34.6399 32.7686 34.8899 32.1651 35.3349 31.72C35.78 31.275 36.3835 31.025 37.0129 31.025C37.6423 31.025 38.2458 31.275 38.6909 31.72C39.1359 32.1651 39.3859 32.7686 39.3859 33.398V29.398C39.386 29.0863 39.3247 28.7777 39.2055 28.4897C39.0863 28.2018 38.9115 27.9401 38.6912 27.7197C38.4708 27.4994 38.2091 27.3246 37.9212 27.2054C37.6332 27.0861 37.3246 27.0249 37.0129 27.025Z" fill="#DD8F43"/>
<path d="M34.6399 29.398C34.6399 28.7686 34.8899 28.1651 35.3349 27.72C35.78 27.275 36.3835 27.025 37.0129 27.025C37.6423 27.025 38.2458 27.275 38.6909 27.72C39.1359 28.1651 39.3859 28.7686 39.3859 29.398V35.329C39.3859 35.9583 39.1359 36.5619 38.6909 37.007C38.2458 37.452 37.6423 37.702 37.0129 37.702C36.3835 37.702 35.78 37.452 35.3349 37.007C34.8899 36.5619 34.6399 35.9583 34.6399 35.329V29.398Z" stroke="#45413C" stroke-linecap="round" stroke-linejoin="round"/>
</svg>

