<svg width="82" height="82" viewBox="0 0 82 82" fill="none" xmlns="http://www.w3.org/2000/svg">
<path d="M1 41C1 51.6087 5.21427 61.7828 12.7157 69.2843C20.2172 76.7857 30.3913 81 41 81C51.6087 81 61.7828 76.7857 69.2843 69.2843C76.7857 61.7828 81 51.6087 81 41C81 30.3913 76.7857 20.2172 69.2843 12.7157C61.7828 5.21427 51.6087 1 41 1C30.3913 1 20.2172 5.21427 12.7157 12.7157C5.21427 20.2172 1 30.3913 1 41Z" fill="#DAEDF7" stroke="#DAEDF7"/>
<path d="M27.05 30.404H52.84V34.321H27.05V30.404Z" fill="#B8ECFF" stroke="#45413C" stroke-linecap="round" stroke-linejoin="round"/>
<path d="M55.161 32.454H24.578V9.354C24.578 8.6167 24.8709 7.9096 25.3922 7.38825C25.9136 6.8669 26.6207 6.57401 27.358 6.57401H52.381C53.1183 6.57401 53.8254 6.8669 54.3468 7.38825C54.8681 7.9096 55.161 8.6167 55.161 9.354V32.454Z" fill="#00B8F0"/>
<path d="M52.381 6.57199H27.358C26.6207 6.57199 25.9136 6.86488 25.3922 7.38624C24.8709 7.90759 24.578 8.61469 24.578 9.35199V14.913C24.5779 14.5478 24.6497 14.1862 24.7893 13.8488C24.929 13.5114 25.1337 13.2048 25.3919 12.9466C25.6501 12.6883 25.9566 12.4835 26.2939 12.3437C26.6313 12.2039 26.9928 12.132 27.358 12.132H52.381C52.7462 12.132 53.1077 12.2039 53.4451 12.3437C53.7824 12.4835 54.089 12.6883 54.3471 12.9466C54.6053 13.2048 54.81 13.5114 54.9497 13.8488C55.0893 14.1862 55.1611 14.5478 55.161 14.913V9.35199C55.161 8.61469 54.8681 7.90759 54.3468 7.38624C53.8254 6.86488 53.1183 6.57199 52.381 6.57199Z" fill="#4ACFFF"/>
<path d="M55.161 32.454H24.578V9.354C24.578 8.6167 24.8709 7.9096 25.3922 7.38825C25.9136 6.8669 26.6207 6.57401 27.358 6.57401H52.381C53.1183 6.57401 53.8254 6.8669 54.3468 7.38825C54.8681 7.9096 55.161 8.6167 55.161 9.354V32.454Z" stroke="#45413C" stroke-linecap="round" stroke-linejoin="round"/>
<path d="M31.528 32.454H33.614H35.699V6.57199H31.528V32.454Z" fill="#B8ECFF"/>
<path d="M31.528 6.57199H35.699V12.133H31.528V6.57199Z" fill="white"/>
<path d="M31.528 32.454H33.614H35.699V6.57199H31.528V32.454Z" stroke="#45413C" stroke-linecap="round" stroke-linejoin="round"/>
<path d="M44.04 32.454H46.125H48.211V6.57199H44.04V32.454Z" fill="#B8ECFF"/>
<path d="M44.04 6.57199H48.211V12.133H44.04V6.57199Z" fill="white"/>
<path d="M44.04 32.454H46.125H48.211V6.57199H44.04V32.454Z" stroke="#45413C" stroke-linecap="round" stroke-linejoin="round"/>
<path d="M55.161 32.145C55.174 31.4981 55.4401 30.8821 55.9022 30.4293C56.3643 29.9764 56.9855 29.7227 57.6325 29.7227C58.2795 29.7227 58.9007 29.9764 59.3628 30.4293C59.8249 30.8821 60.091 31.4981 60.104 32.145V38.324C60.091 38.9709 59.8249 39.5869 59.3628 40.0397C58.9007 40.4926 58.2795 40.7463 57.6325 40.7463C56.9855 40.7463 56.3643 40.4926 55.9022 40.0397C55.4401 39.5869 55.174 38.9709 55.161 38.324V32.145Z" fill="#FFE500"/>
<path d="M57.633 29.674C57.3084 29.6739 56.987 29.7377 56.6871 29.8618C56.3872 29.9859 56.1147 30.1679 55.8851 30.3974C55.6556 30.6269 55.4735 30.8993 55.3492 31.1992C55.225 31.499 55.161 31.8204 55.161 32.145V36.316C55.1544 35.9873 55.2134 35.6605 55.3347 35.3549C55.4559 35.0492 55.6369 34.7708 55.8671 34.536C56.0972 34.3012 56.3719 34.1146 56.6751 33.9873C56.9782 33.8599 57.3037 33.7943 57.6325 33.7943C57.9613 33.7943 58.2868 33.8599 58.59 33.9873C58.8931 34.1146 59.1678 34.3012 59.398 34.536C59.6281 34.7708 59.8091 35.0492 59.9304 35.3549C60.0516 35.6605 60.1106 35.9873 60.104 36.316V32.145C60.104 31.4897 59.8437 30.8612 59.3803 30.3978C58.9169 29.9343 58.2884 29.674 57.633 29.674Z" fill="#FFF48C"/>
<path d="M55.161 32.145C55.174 31.4981 55.4401 30.8821 55.9022 30.4293C56.3643 29.9764 56.9855 29.7227 57.6325 29.7227C58.2795 29.7227 58.9007 29.9764 59.3628 30.4293C59.8249 30.8821 60.091 31.4981 60.104 32.145V38.324C60.091 38.9709 59.8249 39.5869 59.3628 40.0397C58.9007 40.4926 58.2795 40.7463 57.6325 40.7463C56.9855 40.7463 56.3643 40.4926 55.9022 40.0397C55.4401 39.5869 55.174 38.9709 55.161 38.324V32.145Z" stroke="#45413C" stroke-linecap="round" stroke-linejoin="round"/>
<path d="M19.635 32.145C19.635 31.8205 19.6989 31.4992 19.8231 31.1994C19.9473 30.8996 20.1293 30.6272 20.3587 30.3978C20.5882 30.1683 20.8606 29.9863 21.1604 29.8621C21.4602 29.7379 21.7815 29.674 22.106 29.674C22.4305 29.674 22.7518 29.7379 23.0516 29.8621C23.3514 29.9863 23.6238 30.1683 23.8533 30.3978C24.0827 30.6272 24.2647 30.8996 24.3889 31.1994C24.5131 31.4992 24.577 31.8205 24.577 32.145V38.324C24.577 38.9794 24.3167 39.6079 23.8533 40.0713C23.3899 40.5347 22.7614 40.795 22.106 40.795C21.4507 40.795 20.8222 40.5347 20.3587 40.0713C19.8953 39.6079 19.635 38.9794 19.635 38.324V32.145Z" fill="#FFE500"/>
<path d="M22.106 29.674C21.4507 29.674 20.8222 29.9343 20.3588 30.3978C19.8954 30.8612 19.635 31.4897 19.635 32.145V36.316C19.6284 35.9873 19.6874 35.6605 19.8087 35.3549C19.9299 35.0492 20.1109 34.7708 20.3411 34.536C20.5712 34.3012 20.8459 34.1146 21.1491 33.9873C21.4522 33.8599 21.7777 33.7943 22.1065 33.7943C22.4353 33.7943 22.7608 33.8599 23.064 33.9873C23.3671 34.1146 23.6418 34.3012 23.872 34.536C24.1021 34.7708 24.2831 35.0492 24.4044 35.3549C24.5256 35.6605 24.5846 35.9873 24.578 36.316V32.145C24.578 31.8204 24.5141 31.499 24.3898 31.1992C24.2656 30.8993 24.0835 30.6269 23.8539 30.3974C23.6244 30.1679 23.3519 29.9859 23.0519 29.8618C22.752 29.7377 22.4306 29.6739 22.106 29.674Z" fill="#FFF48C"/>
<path d="M19.635 32.145C19.635 31.8205 19.6989 31.4992 19.8231 31.1994C19.9473 30.8996 20.1293 30.6272 20.3587 30.3978C20.5882 30.1683 20.8606 29.9863 21.1604 29.8621C21.4602 29.7379 21.7815 29.674 22.106 29.674C22.4305 29.674 22.7518 29.7379 23.0516 29.8621C23.3514 29.9863 23.6238 30.1683 23.8533 30.3978C24.0827 30.6272 24.2647 30.8996 24.3889 31.1994C24.5131 31.4992 24.577 31.8205 24.577 32.145V38.324C24.577 38.9794 24.3167 39.6079 23.8533 40.0713C23.3899 40.5347 22.7614 40.795 22.106 40.795C21.4507 40.795 20.8222 40.5347 20.3587 40.0713C19.8953 39.6079 19.635 38.9794 19.635 38.324V32.145Z" stroke="#45413C" stroke-linecap="round" stroke-linejoin="round"/>
<path d="M24.578 36.625H55.161V39.405L39.869 44.966L24.578 39.405V36.625Z" fill="#FFE500"/>
<path d="M24.578 36.625H55.161V39.405L39.869 44.966L24.578 39.405V36.625Z" stroke="#45413C" stroke-linecap="round" stroke-linejoin="round"/>
<path d="M21.797 60.258C21.797 65.051 23.701 69.6477 27.0902 73.0368C30.4793 76.426 35.076 78.33 39.869 78.33C44.662 78.33 49.2587 76.426 52.6478 73.0368C56.037 69.6477 57.941 65.051 57.941 60.258C57.941 55.465 56.037 50.8683 52.6478 47.4792C49.2587 44.09 44.662 42.186 39.869 42.186C35.076 42.186 30.4793 44.09 27.0902 47.4792C23.701 50.8683 21.797 55.465 21.797 60.258Z" fill="#FFE500"/>
<path d="M52.59 47.42C50.8818 45.7232 48.8518 44.3848 46.6191 43.4835C44.3865 42.5821 41.9963 42.136 39.5889 42.1712C37.1815 42.2064 34.8053 42.7223 32.6 43.6886C30.3947 44.6549 28.4048 46.0521 26.7469 47.7981C25.0891 49.5441 23.7969 51.6038 22.9461 53.8562C22.0954 56.1086 21.7032 58.5082 21.7928 60.9142C21.8823 63.3203 22.4517 65.6842 23.4675 67.8671C24.4832 70.05 25.925 72.008 27.708 73.626L52.59 47.42Z" fill="#FFF48C"/>
<path d="M21.797 60.258C21.797 65.051 23.701 69.6477 27.0902 73.0368C30.4793 76.426 35.076 78.33 39.869 78.33C44.662 78.33 49.2587 76.426 52.6478 73.0368C56.037 69.6477 57.941 65.051 57.941 60.258C57.941 55.465 56.037 50.8683 52.6478 47.4792C49.2587 44.09 44.662 42.186 39.869 42.186C35.076 42.186 30.4793 44.09 27.0902 47.4792C23.701 50.8683 21.797 55.465 21.797 60.258Z" stroke="#45413C" stroke-linecap="round" stroke-linejoin="round"/>
<path d="M48.4194 48.4569L49.8686 51.4341C49.926 51.5522 50.011 51.6544 50.1162 51.7317C50.2214 51.809 50.3436 51.8592 50.4722 51.8779L53.7142 52.3557C53.8626 52.3767 54.0022 52.4396 54.1171 52.5371C54.2319 52.6347 54.3173 52.763 54.3637 52.9074C54.41 53.0518 54.4153 53.2065 54.3791 53.3538C54.3428 53.5012 54.2664 53.6352 54.1586 53.7407L51.8143 56.058C51.7209 56.1497 51.651 56.263 51.6106 56.3883C51.5702 56.5135 51.5606 56.6468 51.5825 56.7767L52.1361 60.0492C52.1622 60.1987 52.1462 60.3526 52.0901 60.4934C52.034 60.6342 51.94 60.7561 51.8188 60.8454C51.6976 60.9346 51.5541 60.9875 51.4046 60.998C51.2552 61.0086 51.1058 60.9764 50.9736 60.905L48.0741 59.3603C47.9591 59.2991 47.8311 59.2672 47.7012 59.2672C47.5712 59.2672 47.4433 59.2991 47.3282 59.3603L44.4282 60.905C44.296 60.9764 44.1466 61.0086 43.9972 60.998C43.8477 60.9875 43.7042 60.9346 43.583 60.8454C43.4618 60.7561 43.3678 60.6342 43.3117 60.4934C43.2556 60.3526 43.2396 60.1987 43.2657 60.0492L43.8193 56.7767C43.8414 56.647 43.832 56.5137 43.7919 56.3885C43.7518 56.2633 43.6822 56.1498 43.5891 56.058L41.2448 53.7407C41.137 53.6352 41.0606 53.5013 41.0243 53.354C40.988 53.2067 40.9933 53.052 41.0396 52.9076C41.0858 52.7632 41.1712 52.6349 41.286 52.5373C41.4008 52.4397 41.5403 52.3768 41.6886 52.3557L44.9307 51.8779C45.0593 51.8592 45.1815 51.809 45.2867 51.7317C45.3919 51.6544 45.4769 51.5522 45.5343 51.4341L46.9846 48.4569C47.0504 48.321 47.1525 48.2065 47.2793 48.1264C47.4061 48.0463 47.5526 48.0039 47.702 48.0039C47.8514 48.0039 47.9978 48.0463 48.1246 48.1264C48.2514 48.2065 48.3535 48.321 48.4194 48.4569Z" fill="#FFE500"/>
<path d="M43.3643 59.4645L43.8188 56.7767C43.8409 56.647 43.8316 56.5137 43.7914 56.3885C43.7513 56.2633 43.6817 56.1498 43.5886 56.058L41.2443 53.7406C41.1365 53.6352 41.0601 53.5013 41.0238 53.354C40.9875 53.2067 40.9928 53.052 41.0391 52.9076C41.0854 52.7632 41.1707 52.6349 41.2855 52.5373C41.4003 52.4397 41.5398 52.3768 41.6881 52.3557L44.9302 51.8779C45.0588 51.8592 45.181 51.809 45.2862 51.7317C45.3914 51.6544 45.4764 51.5522 45.5338 51.4341L46.9841 48.4569C47.0495 48.3199 47.1517 48.2045 47.2789 48.1237C47.4061 48.0429 47.5532 48 47.7033 48C47.8535 48 48.0006 48.0429 48.1278 48.1237C48.255 48.2045 48.3572 48.3199 48.4226 48.4569L49.8718 51.4341C49.9292 51.5522 50.0142 51.6544 50.1194 51.7317C50.2246 51.809 50.3468 51.8592 50.4755 51.8779L43.3643 59.4645Z" fill="#FFFACF"/>
<path d="M48.4194 48.4569L49.8686 51.4341C49.926 51.5522 50.011 51.6544 50.1162 51.7317C50.2214 51.809 50.3436 51.8592 50.4722 51.8779L53.7142 52.3557C53.8626 52.3767 54.0022 52.4396 54.1171 52.5371C54.2319 52.6347 54.3173 52.763 54.3637 52.9074C54.41 53.0518 54.4153 53.2065 54.3791 53.3538C54.3428 53.5012 54.2664 53.6352 54.1586 53.7407L51.8143 56.058C51.7209 56.1497 51.651 56.263 51.6106 56.3883C51.5702 56.5135 51.5606 56.6468 51.5825 56.7767L52.1361 60.0492C52.1622 60.1987 52.1462 60.3526 52.0901 60.4934C52.034 60.6342 51.94 60.7561 51.8188 60.8454C51.6976 60.9346 51.5541 60.9875 51.4046 60.998C51.2552 61.0086 51.1058 60.9764 50.9736 60.905L48.0741 59.3603C47.9591 59.2991 47.8311 59.2672 47.7012 59.2672C47.5712 59.2672 47.4433 59.2991 47.3282 59.3603L44.4282 60.905C44.296 60.9764 44.1466 61.0086 43.9972 60.998C43.8477 60.9875 43.7042 60.9346 43.583 60.8454C43.4618 60.7561 43.3678 60.6342 43.3117 60.4934C43.2556 60.3526 43.2396 60.1987 43.2657 60.0492L43.8193 56.7767C43.8414 56.647 43.832 56.5137 43.7919 56.3885C43.7518 56.2633 43.6822 56.1498 43.5891 56.058L41.2448 53.7407C41.137 53.6352 41.0606 53.5013 41.0243 53.354C40.988 53.2067 40.9933 53.052 41.0396 52.9076C41.0858 52.7632 41.1712 52.6349 41.286 52.5373C41.4008 52.4397 41.5403 52.3768 41.6886 52.3557L44.9307 51.8779C45.0593 51.8592 45.1815 51.809 45.2867 51.7317C45.3919 51.6544 45.4769 51.5522 45.5343 51.4341L46.9846 48.4569C47.0504 48.321 47.1525 48.2065 47.2793 48.1264C47.4061 48.0463 47.5526 48.0039 47.702 48.0039C47.8514 48.0039 47.9978 48.0463 48.1246 48.1264C48.2514 48.2065 48.3535 48.321 48.4194 48.4569Z" stroke="#45413C" stroke-linecap="round" stroke-linejoin="round"/>
<path d="M48.4194 48.4569L49.8686 51.4341C49.926 51.5522 50.011 51.6544 50.1162 51.7317C50.2214 51.809 50.3436 51.8592 50.4722 51.8779L53.7142 52.3557C53.8626 52.3767 54.0022 52.4396 54.1171 52.5371C54.2319 52.6347 54.3173 52.763 54.3637 52.9074C54.41 53.0518 54.4153 53.2065 54.3791 53.3538C54.3428 53.5012 54.2664 53.6352 54.1586 53.7407L51.8143 56.058C51.7209 56.1497 51.651 56.263 51.6106 56.3883C51.5702 56.5135 51.5606 56.6468 51.5825 56.7767L52.1361 60.0492C52.1622 60.1987 52.1462 60.3526 52.0901 60.4934C52.034 60.6342 51.94 60.7561 51.8188 60.8454C51.6976 60.9346 51.5541 60.9875 51.4046 60.998C51.2552 61.0086 51.1058 60.9764 50.9736 60.905L48.0741 59.3603C47.9591 59.2991 47.8311 59.2672 47.7012 59.2672C47.5712 59.2672 47.4433 59.2991 47.3282 59.3603L44.4282 60.905C44.296 60.9764 44.1466 61.0086 43.9972 60.998C43.8477 60.9875 43.7042 60.9346 43.583 60.8454C43.4618 60.7561 43.3678 60.6342 43.3117 60.4934C43.2556 60.3526 43.2396 60.1987 43.2657 60.0492L43.8193 56.7767C43.8414 56.647 43.832 56.5137 43.7919 56.3885C43.7518 56.2633 43.6822 56.1498 43.5891 56.058L41.2448 53.7407C41.137 53.6352 41.0606 53.5013 41.0243 53.354C40.988 53.2067 40.9933 53.052 41.0396 52.9076C41.0858 52.7632 41.1712 52.6349 41.286 52.5373C41.4008 52.4397 41.5403 52.3768 41.6886 52.3557L44.9307 51.8779C45.0593 51.8592 45.1815 51.809 45.2867 51.7317C45.3919 51.6544 45.4769 51.5522 45.5343 51.4341L46.9846 48.4569C47.0504 48.321 47.1525 48.2065 47.2793 48.1264C47.4061 48.0463 47.5526 48.0039 47.702 48.0039C47.8514 48.0039 47.9978 48.0463 48.1246 48.1264C48.2514 48.2065 48.3535 48.321 48.4194 48.4569Z" stroke="#45413C" stroke-linecap="round" stroke-linejoin="round"/>
<path d="M40.75 61.4493L42.2638 64.3773C42.3238 64.4935 42.4125 64.594 42.5224 64.67C42.6323 64.7461 42.7599 64.7954 42.8943 64.8138L46.2808 65.2837C46.4358 65.3044 46.5816 65.3662 46.7015 65.4622C46.8215 65.5581 46.9108 65.6843 46.9592 65.8263C47.0076 65.9683 47.0131 66.1205 46.9753 66.2654C46.9374 66.4103 46.8576 66.5421 46.7449 66.6458L44.2962 68.9249C44.1987 69.015 44.1256 69.1265 44.0834 69.2497C44.0412 69.3728 44.0312 69.5039 44.0541 69.6316L44.6324 72.8501C44.6596 72.9971 44.6429 73.1485 44.5843 73.2869C44.5257 73.4254 44.4275 73.5453 44.3009 73.6331C44.1743 73.7208 44.0244 73.7729 43.8683 73.7832C43.7122 73.7936 43.5561 73.7619 43.418 73.6917L40.3894 72.1725C40.2692 72.1124 40.1355 72.081 39.9998 72.081C39.8641 72.081 39.7304 72.1124 39.6102 72.1725L36.5811 73.6917C36.4429 73.7619 36.2869 73.7936 36.1308 73.7832C35.9747 73.7729 35.8248 73.7208 35.6982 73.6331C35.5716 73.5453 35.4734 73.4254 35.4148 73.2869C35.3561 73.1485 35.3395 72.9971 35.3667 72.8501L35.945 69.6316C35.9681 69.5041 35.9583 69.373 35.9164 69.2499C35.8745 69.1267 35.8018 69.0152 35.7045 68.9249L33.2558 66.6458C33.1432 66.5421 33.0634 66.4103 33.0255 66.2655C32.9876 66.1206 32.9931 65.9685 33.0414 65.8265C33.0898 65.6845 33.179 65.5583 33.2988 65.4623C33.4187 65.3664 33.5644 65.3045 33.7194 65.2837L37.1059 64.8138C37.2403 64.7954 37.3679 64.7461 37.4778 64.67C37.5877 64.594 37.6764 64.4935 37.7364 64.3773L39.2513 61.4493C39.3201 61.3157 39.4267 61.2031 39.5592 61.1243C39.6916 61.0456 39.8446 61.0038 40.0007 61.0038C40.1567 61.0038 40.3097 61.0456 40.4421 61.1243C40.5746 61.2031 40.6812 61.3157 40.75 61.4493Z" fill="#FFE500"/>
<path d="M35.4696 72.275L35.9443 69.6316C35.9675 69.5041 35.9577 69.373 35.9158 69.2499C35.8739 69.1267 35.8012 69.0152 35.7039 68.9249L33.2552 66.6458C33.1426 66.5421 33.0628 66.4103 33.0249 66.2655C32.987 66.1206 32.9925 65.9685 33.0408 65.8265C33.0892 65.6845 33.1783 65.5583 33.2982 65.4623C33.4181 65.3664 33.5638 65.3045 33.7188 65.2837L37.1053 64.8138C37.2396 64.7954 37.3673 64.7461 37.4772 64.67C37.587 64.594 37.6758 64.4935 37.7358 64.3773L39.2507 61.4493C39.319 61.3147 39.4258 61.2011 39.5586 61.1216C39.6915 61.0421 39.8452 61 40.002 61C40.1588 61 40.3125 61.0421 40.4453 61.1216C40.5782 61.2011 40.6849 61.3147 40.7533 61.4493L42.2671 64.3773C42.327 64.4935 42.4158 64.594 42.5257 64.67C42.6356 64.7461 42.7632 64.7954 42.8976 64.8138L35.4696 72.275Z" fill="#FFFACF"/>
<path d="M40.75 61.4493L42.2638 64.3773C42.3238 64.4935 42.4125 64.594 42.5224 64.67C42.6323 64.7461 42.7599 64.7954 42.8943 64.8138L46.2808 65.2837C46.4358 65.3044 46.5816 65.3662 46.7015 65.4622C46.8215 65.5581 46.9108 65.6843 46.9592 65.8263C47.0076 65.9683 47.0131 66.1205 46.9753 66.2654C46.9374 66.4103 46.8576 66.5421 46.7449 66.6458L44.2962 68.9249C44.1987 69.015 44.1256 69.1265 44.0834 69.2497C44.0412 69.3728 44.0312 69.5039 44.0541 69.6316L44.6324 72.8501C44.6596 72.9971 44.6429 73.1485 44.5843 73.2869C44.5257 73.4254 44.4275 73.5453 44.3009 73.6331C44.1743 73.7208 44.0244 73.7729 43.8683 73.7832C43.7122 73.7936 43.5561 73.7619 43.418 73.6917L40.3894 72.1725C40.2692 72.1124 40.1355 72.081 39.9998 72.081C39.8641 72.081 39.7304 72.1124 39.6102 72.1725L36.5811 73.6917C36.4429 73.7619 36.2869 73.7936 36.1308 73.7832C35.9747 73.7729 35.8248 73.7208 35.6982 73.6331C35.5716 73.5453 35.4734 73.4254 35.4148 73.2869C35.3561 73.1485 35.3395 72.9971 35.3667 72.8501L35.945 69.6316C35.9681 69.5041 35.9583 69.373 35.9164 69.2499C35.8745 69.1267 35.8018 69.0152 35.7045 68.9249L33.2558 66.6458C33.1432 66.5421 33.0634 66.4103 33.0255 66.2655C32.9876 66.1206 32.9931 65.9685 33.0414 65.8265C33.0898 65.6845 33.179 65.5583 33.2988 65.4623C33.4187 65.3664 33.5644 65.3045 33.7194 65.2837L37.1059 64.8138C37.2403 64.7954 37.3679 64.7461 37.4778 64.67C37.5877 64.594 37.6764 64.4935 37.7364 64.3773L39.2513 61.4493C39.3201 61.3157 39.4267 61.2031 39.5592 61.1243C39.6916 61.0456 39.8446 61.0038 40.0007 61.0038C40.1567 61.0038 40.3097 61.0456 40.4421 61.1243C40.5746 61.2031 40.6812 61.3157 40.75 61.4493Z" stroke="#45413C" stroke-linecap="round" stroke-linejoin="round"/>
<path d="M40.75 61.4493L42.2638 64.3773C42.3238 64.4935 42.4125 64.594 42.5224 64.67C42.6323 64.7461 42.7599 64.7954 42.8943 64.8138L46.2808 65.2837C46.4358 65.3044 46.5816 65.3662 46.7015 65.4622C46.8215 65.5581 46.9108 65.6843 46.9592 65.8263C47.0076 65.9683 47.0131 66.1205 46.9753 66.2654C46.9374 66.4103 46.8576 66.5421 46.7449 66.6458L44.2962 68.9249C44.1987 69.015 44.1256 69.1265 44.0834 69.2497C44.0412 69.3728 44.0312 69.5039 44.0541 69.6316L44.6324 72.8501C44.6596 72.9971 44.6429 73.1485 44.5843 73.2869C44.5257 73.4254 44.4275 73.5453 44.3009 73.6331C44.1743 73.7208 44.0244 73.7729 43.8683 73.7832C43.7122 73.7936 43.5561 73.7619 43.418 73.6917L40.3894 72.1725C40.2692 72.1124 40.1355 72.081 39.9998 72.081C39.8641 72.081 39.7304 72.1124 39.6102 72.1725L36.5811 73.6917C36.4429 73.7619 36.2869 73.7936 36.1308 73.7832C35.9747 73.7729 35.8248 73.7208 35.6982 73.6331C35.5716 73.5453 35.4734 73.4254 35.4148 73.2869C35.3561 73.1485 35.3395 72.9971 35.3667 72.8501L35.945 69.6316C35.9681 69.5041 35.9583 69.373 35.9164 69.2499C35.8745 69.1267 35.8018 69.0152 35.7045 68.9249L33.2558 66.6458C33.1432 66.5421 33.0634 66.4103 33.0255 66.2655C32.9876 66.1206 32.9931 65.9685 33.0414 65.8265C33.0898 65.6845 33.179 65.5583 33.2988 65.4623C33.4187 65.3664 33.5644 65.3045 33.7194 65.2837L37.1059 64.8138C37.2403 64.7954 37.3679 64.7461 37.4778 64.67C37.5877 64.594 37.6764 64.4935 37.7364 64.3773L39.2513 61.4493C39.3201 61.3157 39.4267 61.2031 39.5592 61.1243C39.6916 61.0456 39.8446 61.0038 40.0007 61.0038C40.1567 61.0038 40.3097 61.0456 40.4421 61.1243C40.5746 61.2031 40.6812 61.3157 40.75 61.4493Z" stroke="#45413C" stroke-linecap="round" stroke-linejoin="round"/>
<path d="M32.75 48.4569L34.2638 51.4341C34.3238 51.5522 34.4125 51.6544 34.5224 51.7317C34.6323 51.809 34.7599 51.8592 34.8943 51.8779L38.2808 52.3557C38.4358 52.3767 38.5816 52.4396 38.7015 52.5371C38.8215 52.6347 38.9108 52.763 38.9592 52.9074C39.0076 53.0518 39.0131 53.2065 38.9753 53.3538C38.9374 53.5012 38.8576 53.6352 38.7449 53.7407L36.2962 56.058C36.1987 56.1497 36.1256 56.263 36.0834 56.3883C36.0412 56.5135 36.0312 56.6468 36.0541 56.7767L36.6324 60.0492C36.6596 60.1987 36.6429 60.3526 36.5843 60.4934C36.5257 60.6342 36.4275 60.7561 36.3009 60.8454C36.1743 60.9346 36.0244 60.9875 35.8683 60.998C35.7122 61.0086 35.5561 60.9764 35.418 60.905L32.3894 59.3603C32.2692 59.2991 32.1355 59.2672 31.9998 59.2672C31.8641 59.2672 31.7304 59.2991 31.6102 59.3603L28.5811 60.905C28.4429 60.9764 28.2869 61.0086 28.1308 60.998C27.9747 60.9875 27.8248 60.9346 27.6982 60.8454C27.5716 60.7561 27.4734 60.6342 27.4148 60.4934C27.3561 60.3526 27.3395 60.1987 27.3667 60.0492L27.945 56.7767C27.9681 56.647 27.9583 56.5137 27.9164 56.3885C27.8745 56.2633 27.8018 56.1498 27.7045 56.058L25.2558 53.7407C25.1432 53.6352 25.0634 53.5013 25.0255 53.354C24.9876 53.2067 24.9931 53.052 25.0414 52.9076C25.0898 52.7632 25.179 52.6349 25.2988 52.5373C25.4187 52.4397 25.5644 52.3768 25.7194 52.3557L29.1059 51.8779C29.2403 51.8592 29.3679 51.809 29.4778 51.7317C29.5877 51.6544 29.6764 51.5522 29.7364 51.4341L31.2513 48.4569C31.3201 48.321 31.4267 48.2065 31.5592 48.1264C31.6916 48.0463 31.8446 48.0039 32.0007 48.0039C32.1567 48.0039 32.3097 48.0463 32.4421 48.1264C32.5746 48.2065 32.6812 48.321 32.75 48.4569Z" fill="#FFE500"/>
<path d="M27.4696 59.4645L27.9443 56.7767C27.9675 56.647 27.9577 56.5137 27.9158 56.3885C27.8739 56.2633 27.8012 56.1498 27.7039 56.058L25.2552 53.7406C25.1426 53.6352 25.0628 53.5013 25.0249 53.354C24.987 53.2067 24.9925 53.052 25.0408 52.9076C25.0892 52.7632 25.1783 52.6349 25.2982 52.5373C25.4181 52.4397 25.5638 52.3768 25.7188 52.3557L29.1053 51.8779C29.2396 51.8592 29.3673 51.809 29.4772 51.7317C29.587 51.6544 29.6758 51.5522 29.7358 51.4341L31.2507 48.4569C31.319 48.3199 31.4258 48.2045 31.5586 48.1237C31.6915 48.0429 31.8452 48 32.002 48C32.1588 48 32.3125 48.0429 32.4453 48.1237C32.5782 48.2045 32.6849 48.3199 32.7533 48.4569L34.2671 51.4341C34.327 51.5522 34.4158 51.6544 34.5257 51.7317C34.6356 51.809 34.7632 51.8592 34.8976 51.8779L27.4696 59.4645Z" fill="#FFFACF"/>
<path d="M32.75 48.4569L34.2638 51.4341C34.3238 51.5522 34.4125 51.6544 34.5224 51.7317C34.6323 51.809 34.7599 51.8592 34.8943 51.8779L38.2808 52.3557C38.4358 52.3767 38.5816 52.4396 38.7015 52.5371C38.8215 52.6347 38.9108 52.763 38.9592 52.9074C39.0076 53.0518 39.0131 53.2065 38.9753 53.3538C38.9374 53.5012 38.8576 53.6352 38.7449 53.7407L36.2962 56.058C36.1987 56.1497 36.1256 56.263 36.0834 56.3883C36.0412 56.5135 36.0312 56.6468 36.0541 56.7767L36.6324 60.0492C36.6596 60.1987 36.6429 60.3526 36.5843 60.4934C36.5257 60.6342 36.4275 60.7561 36.3009 60.8454C36.1743 60.9346 36.0244 60.9875 35.8683 60.998C35.7122 61.0086 35.5561 60.9764 35.418 60.905L32.3894 59.3603C32.2692 59.2991 32.1355 59.2672 31.9998 59.2672C31.8641 59.2672 31.7304 59.2991 31.6102 59.3603L28.5811 60.905C28.4429 60.9764 28.2869 61.0086 28.1308 60.998C27.9747 60.9875 27.8248 60.9346 27.6982 60.8454C27.5716 60.7561 27.4734 60.6342 27.4148 60.4934C27.3561 60.3526 27.3395 60.1987 27.3667 60.0492L27.945 56.7767C27.9681 56.647 27.9583 56.5137 27.9164 56.3885C27.8745 56.2633 27.8018 56.1498 27.7045 56.058L25.2558 53.7407C25.1432 53.6352 25.0634 53.5013 25.0255 53.354C24.9876 53.2067 24.9931 53.052 25.0414 52.9076C25.0898 52.7632 25.179 52.6349 25.2988 52.5373C25.4187 52.4397 25.5644 52.3768 25.7194 52.3557L29.1059 51.8779C29.2403 51.8592 29.3679 51.809 29.4778 51.7317C29.5877 51.6544 29.6764 51.5522 29.7364 51.4341L31.2513 48.4569C31.3201 48.321 31.4267 48.2065 31.5592 48.1264C31.6916 48.0463 31.8446 48.0039 32.0007 48.0039C32.1567 48.0039 32.3097 48.0463 32.4421 48.1264C32.5746 48.2065 32.6812 48.321 32.75 48.4569Z" stroke="#45413C" stroke-linecap="round" stroke-linejoin="round"/>
<path d="M32.75 48.4569L34.2638 51.4341C34.3238 51.5522 34.4125 51.6544 34.5224 51.7317C34.6323 51.809 34.7599 51.8592 34.8943 51.8779L38.2808 52.3557C38.4358 52.3767 38.5816 52.4396 38.7015 52.5371C38.8215 52.6347 38.9108 52.763 38.9592 52.9074C39.0076 53.0518 39.0131 53.2065 38.9753 53.3538C38.9374 53.5012 38.8576 53.6352 38.7449 53.7407L36.2962 56.058C36.1987 56.1497 36.1256 56.263 36.0834 56.3883C36.0412 56.5135 36.0312 56.6468 36.0541 56.7767L36.6324 60.0492C36.6596 60.1987 36.6429 60.3526 36.5843 60.4934C36.5257 60.6342 36.4275 60.7561 36.3009 60.8454C36.1743 60.9346 36.0244 60.9875 35.8683 60.998C35.7122 61.0086 35.5561 60.9764 35.418 60.905L32.3894 59.3603C32.2692 59.2991 32.1355 59.2672 31.9998 59.2672C31.8641 59.2672 31.7304 59.2991 31.6102 59.3603L28.5811 60.905C28.4429 60.9764 28.2869 61.0086 28.1308 60.998C27.9747 60.9875 27.8248 60.9346 27.6982 60.8454C27.5716 60.7561 27.4734 60.6342 27.4148 60.4934C27.3561 60.3526 27.3395 60.1987 27.3667 60.0492L27.945 56.7767C27.9681 56.647 27.9583 56.5137 27.9164 56.3885C27.8745 56.2633 27.8018 56.1498 27.7045 56.058L25.2558 53.7407C25.1432 53.6352 25.0634 53.5013 25.0255 53.354C24.9876 53.2067 24.9931 53.052 25.0414 52.9076C25.0898 52.7632 25.179 52.6349 25.2988 52.5373C25.4187 52.4397 25.5644 52.3768 25.7194 52.3557L29.1059 51.8779C29.2403 51.8592 29.3679 51.809 29.4778 51.7317C29.5877 51.6544 29.6764 51.5522 29.7364 51.4341L31.2513 48.4569C31.3201 48.321 31.4267 48.2065 31.5592 48.1264C31.6916 48.0463 31.8446 48.0039 32.0007 48.0039C32.1567 48.0039 32.3097 48.0463 32.4421 48.1264C32.5746 48.2065 32.6812 48.321 32.75 48.4569Z" stroke="#45413C" stroke-linecap="round" stroke-linejoin="round"/>
</svg>

