<svg width="73" height="74" viewBox="0 0 73 74" fill="none" xmlns="http://www.w3.org/2000/svg">
<path d="M24.4155 24.832H50.2055V28.749H24.4155V24.832Z" fill="#B8ECFF" stroke="#45413C" stroke-linecap="round" stroke-linejoin="round"/>
<path d="M52.5264 26.882H21.9434V3.78201C21.9434 3.04471 22.2363 2.33761 22.7576 1.81626C23.279 1.29491 23.9861 1.00201 24.7234 1.00201H49.7464C50.4837 1.00201 51.1908 1.29491 51.7121 1.81626C52.2335 2.33761 52.5264 3.04471 52.5264 3.78201V26.882Z" fill="#00B8F0"/>
<path d="M49.7464 1H24.7234C23.9861 1 23.279 1.29289 22.7576 1.81424C22.2363 2.3356 21.9434 3.0427 21.9434 3.78V9.341C21.9432 8.97584 22.015 8.61423 22.1547 8.27683C22.2943 7.93943 22.4991 7.63285 22.7572 7.3746C23.0154 7.11634 23.3219 6.91148 23.6593 6.77171C23.9966 6.63194 24.3582 6.56 24.7234 6.56H49.7464C50.1115 6.56 50.4731 6.63194 50.8105 6.77171C51.1478 6.91148 51.4543 7.11634 51.7125 7.3746C51.9706 7.63285 52.1754 7.93943 52.315 8.27683C52.4547 8.61423 52.5265 8.97584 52.5264 9.341V3.78C52.5264 3.0427 52.2335 2.3356 51.7121 1.81424C51.1908 1.29289 50.4837 1 49.7464 1Z" fill="#4ACFFF"/>
<path d="M52.5264 26.882H21.9434V3.78201C21.9434 3.04471 22.2363 2.33761 22.7576 1.81626C23.279 1.29491 23.9861 1.00201 24.7234 1.00201H49.7464C50.4837 1.00201 51.1908 1.29491 51.7121 1.81626C52.2335 2.33761 52.5264 3.04471 52.5264 3.78201V26.882Z" stroke="#45413C" stroke-linecap="round" stroke-linejoin="round"/>
<path d="M28.8936 26.882H30.9796H33.0646V1H28.8936V26.882Z" fill="#B8ECFF"/>
<path d="M28.8936 1H33.0646V6.561H28.8936V1Z" fill="white"/>
<path d="M28.8936 26.882H30.9796H33.0646V1H28.8936V26.882Z" stroke="#45413C" stroke-linecap="round" stroke-linejoin="round"/>
<path d="M41.4055 26.882H43.4905H45.5765V1H41.4055V26.882Z" fill="#B8ECFF"/>
<path d="M41.4055 1H45.5765V6.561H41.4055V1Z" fill="white"/>
<path d="M41.4055 26.882H43.4905H45.5765V1H41.4055V26.882Z" stroke="#45413C" stroke-linecap="round" stroke-linejoin="round"/>
<path d="M52.5264 26.573C52.5394 25.9261 52.8055 25.3101 53.2676 24.8573C53.7296 24.4044 54.3509 24.1507 54.9979 24.1507C55.6449 24.1507 56.2661 24.4044 56.7282 24.8573C57.1902 25.3101 57.4563 25.9261 57.4694 26.573V32.752C57.4563 33.3989 57.1902 34.0149 56.7282 34.4678C56.2661 34.9206 55.6449 35.1743 54.9979 35.1743C54.3509 35.1743 53.7296 34.9206 53.2676 34.4678C52.8055 34.0149 52.5394 33.3989 52.5264 32.752V26.573Z" fill="#FFE500"/>
<path d="M54.9984 24.102C54.6738 24.1019 54.3524 24.1657 54.0525 24.2898C53.7525 24.4139 53.48 24.5959 53.2505 24.8254C53.0209 25.0549 52.8388 25.3273 52.7146 25.6272C52.5903 25.927 52.5264 26.2484 52.5264 26.573V30.744C52.5198 30.4153 52.5788 30.0885 52.7 29.7829C52.8213 29.4772 53.0023 29.1988 53.2324 28.964C53.4626 28.7292 53.7373 28.5426 54.0404 28.4153C54.3436 28.2879 54.6691 28.2223 54.9979 28.2223C55.3267 28.2223 55.6522 28.2879 55.9553 28.4153C56.2585 28.5426 56.5332 28.7292 56.7633 28.964C56.9935 29.1988 57.1745 29.4772 57.2957 29.7829C57.417 30.0885 57.476 30.4153 57.4694 30.744V26.573C57.4694 25.9177 57.209 25.2892 56.7456 24.8258C56.2822 24.3624 55.6537 24.102 54.9984 24.102Z" fill="#FFF48C"/>
<path d="M52.5264 26.573C52.5394 25.9261 52.8055 25.3101 53.2676 24.8573C53.7296 24.4044 54.3509 24.1507 54.9979 24.1507C55.6449 24.1507 56.2661 24.4044 56.7282 24.8573C57.1902 25.3101 57.4563 25.9261 57.4694 26.573V32.752C57.4563 33.3989 57.1902 34.0149 56.7282 34.4678C56.2661 34.9206 55.6449 35.1743 54.9979 35.1743C54.3509 35.1743 53.7296 34.9206 53.2676 34.4678C52.8055 34.0149 52.5394 33.3989 52.5264 32.752V26.573Z" stroke="#45413C" stroke-linecap="round" stroke-linejoin="round"/>
<path d="M17.0005 26.573C17.0005 26.2485 17.0644 25.9272 17.1886 25.6274C17.3128 25.3276 17.4948 25.0552 17.7242 24.8258C17.9537 24.5963 18.2261 24.4143 18.5259 24.2901C18.8257 24.1659 19.147 24.102 19.4715 24.102C19.796 24.102 20.1173 24.1659 20.4171 24.2901C20.7169 24.4143 20.9893 24.5963 21.2187 24.8258C21.4482 25.0552 21.6302 25.3276 21.7544 25.6274C21.8786 25.9272 21.9425 26.2485 21.9425 26.573V32.752C21.9425 33.4074 21.6822 34.0359 21.2187 34.4993C20.7553 34.9627 20.1268 35.223 19.4715 35.223C18.8161 35.223 18.1876 34.9627 17.7242 34.4993C17.2608 34.0359 17.0005 33.4074 17.0005 32.752V26.573Z" fill="#FFE500"/>
<path d="M19.4715 24.102C18.8162 24.102 18.1876 24.3624 17.7242 24.8258C17.2608 25.2892 17.0005 25.9177 17.0005 26.573V30.744C16.9939 30.4153 17.0529 30.0885 17.1742 29.7829C17.2954 29.4772 17.4764 29.1988 17.7065 28.964C17.9367 28.7292 18.2114 28.5426 18.5145 28.4153C18.8177 28.2879 19.1432 28.2223 19.472 28.2223C19.8008 28.2223 20.1263 28.2879 20.4295 28.4153C20.7326 28.5426 21.0073 28.7292 21.2375 28.964C21.4676 29.1988 21.6486 29.4772 21.7698 29.7829C21.8911 30.0885 21.9501 30.4153 21.9435 30.744V26.573C21.9435 26.2484 21.8796 25.927 21.7553 25.6272C21.6311 25.3273 21.449 25.0549 21.2194 24.8254C20.9898 24.5959 20.7173 24.4139 20.4174 24.2898C20.1175 24.1657 19.7961 24.1019 19.4715 24.102Z" fill="#FFF48C"/>
<path d="M17.0005 26.573C17.0005 26.2485 17.0644 25.9272 17.1886 25.6274C17.3128 25.3276 17.4948 25.0552 17.7242 24.8258C17.9537 24.5963 18.2261 24.4143 18.5259 24.2901C18.8257 24.1659 19.147 24.102 19.4715 24.102C19.796 24.102 20.1173 24.1659 20.4171 24.2901C20.7169 24.4143 20.9893 24.5963 21.2187 24.8258C21.4482 25.0552 21.6302 25.3276 21.7544 25.6274C21.8786 25.9272 21.9425 26.2485 21.9425 26.573V32.752C21.9425 33.4074 21.6822 34.0359 21.2187 34.4993C20.7553 34.9627 20.1268 35.223 19.4715 35.223C18.8161 35.223 18.1876 34.9627 17.7242 34.4993C17.2608 34.0359 17.0005 33.4074 17.0005 32.752V26.573Z" stroke="#45413C" stroke-linecap="round" stroke-linejoin="round"/>
<path d="M21.9434 31.053H52.5264V33.833L37.2344 39.394L21.9434 33.833V31.053Z" fill="#FFE500"/>
<path d="M21.9434 31.053H52.5264V33.833L37.2344 39.394L21.9434 33.833V31.053Z" stroke="#45413C" stroke-linecap="round" stroke-linejoin="round"/>
<path d="M19.1626 54.686C19.1626 59.479 21.0666 64.0757 24.4558 67.4648C27.8449 70.854 32.4416 72.758 37.2346 72.758C42.0276 72.758 46.6243 70.854 50.0134 67.4648C53.4026 64.0757 55.3066 59.479 55.3066 54.686C55.3066 49.893 53.4026 45.2963 50.0134 41.9072C46.6243 38.518 42.0276 36.614 37.2346 36.614C32.4416 36.614 27.8449 38.518 24.4558 41.9072C21.0666 45.2963 19.1626 49.893 19.1626 54.686Z" fill="#FFE500"/>
<path d="M49.9554 41.848C48.2472 40.1512 46.2172 38.8128 43.9846 37.9115C41.752 37.0101 39.3618 36.564 36.9544 36.5992C34.5469 36.6344 32.1708 37.1503 29.9655 38.1166C27.7602 39.0829 25.7702 40.4801 24.1124 42.2261C22.4546 43.9721 21.1624 46.0318 20.3116 48.2842C19.4609 50.5366 19.0687 52.9362 19.1583 55.3423C19.2478 57.7483 19.8172 60.1122 20.8329 62.2951C21.8487 64.478 23.2904 66.436 25.0734 68.054L49.9554 41.848Z" fill="#FFF48C"/>
<path d="M19.1626 54.686C19.1626 59.479 21.0666 64.0757 24.4558 67.4648C27.8449 70.854 32.4416 72.758 37.2346 72.758C42.0276 72.758 46.6243 70.854 50.0134 67.4648C53.4026 64.0757 55.3066 59.479 55.3066 54.686C55.3066 49.893 53.4026 45.2963 50.0134 41.9072C46.6243 38.518 42.0276 36.614 37.2346 36.614C32.4416 36.614 27.8449 38.518 24.4558 41.9072C21.0666 45.2963 19.1626 49.893 19.1626 54.686Z" stroke="#45413C" stroke-linecap="round" stroke-linejoin="round"/>
<path d="M45.7848 42.8849L47.234 45.8621C47.2915 45.9802 47.3765 46.0824 47.4816 46.1597C47.5868 46.2371 47.709 46.2872 47.8377 46.3059L51.0797 46.7837C51.2281 46.8047 51.3677 46.8676 51.4825 46.9652C51.5974 47.0627 51.6828 47.191 51.7292 47.3354C51.7755 47.4798 51.7808 47.6345 51.7446 47.7819C51.7083 47.9292 51.6319 48.0632 51.5241 48.1687L49.1798 50.486C49.0864 50.5777 49.0165 50.6911 48.9761 50.8163C48.9357 50.9415 48.9261 51.0748 48.948 51.2047L49.5016 54.4772C49.5277 54.6267 49.5117 54.7807 49.4556 54.9214C49.3995 55.0622 49.3055 55.1842 49.1843 55.2734C49.0631 55.3626 48.9196 55.4155 48.7701 55.4261C48.6207 55.4366 48.4713 55.4044 48.339 55.333L45.4396 53.7883C45.3245 53.7271 45.1966 53.6952 45.0666 53.6952C44.9367 53.6952 44.8087 53.7271 44.6937 53.7883L41.7937 55.333C41.6615 55.4044 41.5121 55.4366 41.3627 55.4261C41.2132 55.4155 41.0697 55.3626 40.9485 55.2734C40.8273 55.1842 40.7332 55.0622 40.6771 54.9214C40.621 54.7807 40.6051 54.6267 40.6312 54.4772L41.1847 51.2047C41.2069 51.075 41.1975 50.9417 41.1574 50.8165C41.1173 50.6913 41.0477 50.5779 40.9546 50.486L38.6103 48.1687C38.5025 48.0633 38.4261 47.9293 38.3898 47.782C38.3535 47.6347 38.3588 47.48 38.405 47.3356C38.4513 47.1912 38.5367 47.0629 38.6515 46.9653C38.7662 46.8678 38.9057 46.8048 39.0541 46.7837L42.2961 46.3059C42.4248 46.2872 42.547 46.2371 42.6522 46.1597C42.7574 46.0824 42.8424 45.9802 42.8998 45.8621L44.35 42.8849C44.4159 42.749 44.518 42.6345 44.6448 42.5544C44.7716 42.4743 44.918 42.4319 45.0674 42.4319C45.2169 42.4319 45.3633 42.4743 45.4901 42.5544C45.6169 42.6345 45.719 42.749 45.7848 42.8849Z" fill="#FFE500"/>
<path d="M40.7298 53.8925L41.1842 51.2047C41.2064 51.075 41.197 50.9417 41.1569 50.8165C41.1168 50.6913 41.0472 50.5779 40.9541 50.486L38.6098 48.1687C38.502 48.0633 38.4256 47.9293 38.3893 47.782C38.353 47.6347 38.3583 47.48 38.4046 47.3356C38.4508 47.1912 38.5362 47.0629 38.651 46.9653C38.7657 46.8678 38.9053 46.8048 39.0536 46.7837L42.2956 46.3059C42.4243 46.2872 42.5465 46.2371 42.6517 46.1597C42.7569 46.0824 42.8419 45.9802 42.8993 45.8621L44.3496 42.8849C44.415 42.748 44.5172 42.6325 44.6444 42.5517C44.7716 42.4709 44.9187 42.428 45.0688 42.428C45.219 42.428 45.366 42.4709 45.4933 42.5517C45.6205 42.6325 45.7226 42.748 45.7881 42.8849L47.2373 45.8621C47.2947 45.9802 47.3797 46.0824 47.4849 46.1597C47.5901 46.2371 47.7123 46.2872 47.8409 46.3059L40.7298 53.8925Z" fill="#FFFACF"/>
<path d="M45.7848 42.8849L47.234 45.8621C47.2915 45.9802 47.3765 46.0824 47.4816 46.1597C47.5868 46.2371 47.709 46.2872 47.8377 46.3059L51.0797 46.7837C51.2281 46.8047 51.3677 46.8676 51.4825 46.9652C51.5974 47.0627 51.6828 47.191 51.7292 47.3354C51.7755 47.4798 51.7808 47.6345 51.7446 47.7819C51.7083 47.9292 51.6319 48.0632 51.5241 48.1687L49.1798 50.486C49.0864 50.5777 49.0165 50.6911 48.9761 50.8163C48.9357 50.9415 48.9261 51.0748 48.948 51.2047L49.5016 54.4772C49.5277 54.6267 49.5117 54.7807 49.4556 54.9214C49.3995 55.0622 49.3055 55.1842 49.1843 55.2734C49.0631 55.3626 48.9196 55.4155 48.7701 55.4261C48.6207 55.4366 48.4713 55.4044 48.339 55.333L45.4396 53.7883C45.3245 53.7271 45.1966 53.6952 45.0666 53.6952C44.9367 53.6952 44.8087 53.7271 44.6937 53.7883L41.7937 55.333C41.6615 55.4044 41.5121 55.4366 41.3627 55.4261C41.2132 55.4155 41.0697 55.3626 40.9485 55.2734C40.8273 55.1842 40.7332 55.0622 40.6771 54.9214C40.621 54.7807 40.6051 54.6267 40.6312 54.4772L41.1847 51.2047C41.2069 51.075 41.1975 50.9417 41.1574 50.8165C41.1173 50.6913 41.0477 50.5779 40.9546 50.486L38.6103 48.1687C38.5025 48.0633 38.4261 47.9293 38.3898 47.782C38.3535 47.6347 38.3588 47.48 38.405 47.3356C38.4513 47.1912 38.5367 47.0629 38.6515 46.9653C38.7662 46.8678 38.9057 46.8048 39.0541 46.7837L42.2961 46.3059C42.4248 46.2872 42.547 46.2371 42.6522 46.1597C42.7574 46.0824 42.8424 45.9802 42.8998 45.8621L44.35 42.8849C44.4159 42.749 44.518 42.6345 44.6448 42.5544C44.7716 42.4743 44.918 42.4319 45.0674 42.4319C45.2169 42.4319 45.3633 42.4743 45.4901 42.5544C45.6169 42.6345 45.719 42.749 45.7848 42.8849Z" stroke="#45413C" stroke-linecap="round" stroke-linejoin="round"/>
<path d="M45.7848 42.8849L47.234 45.8621C47.2915 45.9802 47.3765 46.0824 47.4816 46.1597C47.5868 46.2371 47.709 46.2872 47.8377 46.3059L51.0797 46.7837C51.2281 46.8047 51.3677 46.8676 51.4825 46.9652C51.5974 47.0627 51.6828 47.191 51.7292 47.3354C51.7755 47.4798 51.7808 47.6345 51.7446 47.7819C51.7083 47.9292 51.6319 48.0632 51.5241 48.1687L49.1798 50.486C49.0864 50.5777 49.0165 50.6911 48.9761 50.8163C48.9357 50.9415 48.9261 51.0748 48.948 51.2047L49.5016 54.4772C49.5277 54.6267 49.5117 54.7807 49.4556 54.9214C49.3995 55.0622 49.3055 55.1842 49.1843 55.2734C49.0631 55.3626 48.9196 55.4155 48.7701 55.4261C48.6207 55.4366 48.4713 55.4044 48.339 55.333L45.4396 53.7883C45.3245 53.7271 45.1966 53.6952 45.0666 53.6952C44.9367 53.6952 44.8087 53.7271 44.6937 53.7883L41.7937 55.333C41.6615 55.4044 41.5121 55.4366 41.3627 55.4261C41.2132 55.4155 41.0697 55.3626 40.9485 55.2734C40.8273 55.1842 40.7332 55.0622 40.6771 54.9214C40.621 54.7807 40.6051 54.6267 40.6312 54.4772L41.1847 51.2047C41.2069 51.075 41.1975 50.9417 41.1574 50.8165C41.1173 50.6913 41.0477 50.5779 40.9546 50.486L38.6103 48.1687C38.5025 48.0633 38.4261 47.9293 38.3898 47.782C38.3535 47.6347 38.3588 47.48 38.405 47.3356C38.4513 47.1912 38.5367 47.0629 38.6515 46.9653C38.7662 46.8678 38.9057 46.8048 39.0541 46.7837L42.2961 46.3059C42.4248 46.2872 42.547 46.2371 42.6522 46.1597C42.7574 46.0824 42.8424 45.9802 42.8998 45.8621L44.35 42.8849C44.4159 42.749 44.518 42.6345 44.6448 42.5544C44.7716 42.4743 44.918 42.4319 45.0674 42.4319C45.2169 42.4319 45.3633 42.4743 45.4901 42.5544C45.6169 42.6345 45.719 42.749 45.7848 42.8849Z" stroke="#45413C" stroke-linecap="round" stroke-linejoin="round"/>
<path d="M38.1154 55.8773L39.6291 58.8053C39.6891 58.9215 39.7779 59.022 39.8878 59.098C39.9976 59.1741 40.1253 59.2235 40.2597 59.2418L43.6461 59.7118C43.8012 59.7324 43.947 59.7942 44.0669 59.8902C44.1869 59.9861 44.2761 60.1123 44.3245 60.2543C44.3729 60.3963 44.3785 60.5485 44.3406 60.6934C44.3027 60.8383 44.2229 60.9701 44.1103 61.0738L41.6616 63.3529C41.564 63.443 41.491 63.5545 41.4488 63.6777C41.4066 63.8008 41.3965 63.9319 41.4195 64.0597L41.9977 67.2781C42.0249 67.4251 42.0083 67.5765 41.9497 67.715C41.8911 67.8534 41.7929 67.9733 41.6663 68.0611C41.5396 68.1488 41.3897 68.2009 41.2336 68.2112C41.0775 68.2216 40.9215 68.1899 40.7834 68.1197L37.7547 66.6005C37.6346 66.5404 37.5009 66.509 37.3652 66.509C37.2295 66.509 37.0958 66.5404 36.9756 66.6005L33.9464 68.1197C33.8083 68.1899 33.6523 68.2216 33.4962 68.2112C33.3401 68.2009 33.1901 68.1488 33.0635 68.0611C32.9369 67.9733 32.8387 67.8534 32.7801 67.715C32.7215 67.5765 32.7049 67.4251 32.7321 67.2781L33.3103 64.0597C33.3335 63.9321 33.3237 63.801 33.2818 63.6779C33.2399 63.5547 33.1672 63.4432 33.0699 63.3529L30.6212 61.0738C30.5086 60.9701 30.4287 60.8384 30.3908 60.6935C30.3529 60.5486 30.3585 60.3965 30.4068 60.2545C30.4551 60.1125 30.5443 59.9863 30.6642 59.8904C30.7841 59.7944 30.9298 59.7325 31.0848 59.7118L34.4712 59.2418C34.6056 59.2235 34.7333 59.1741 34.8431 59.098C34.953 59.022 35.0418 58.9215 35.1018 58.8053L36.6166 55.8773C36.6854 55.7437 36.7921 55.6311 36.9245 55.5523C37.057 55.4736 37.2099 55.4318 37.366 55.4318C37.5221 55.4318 37.675 55.4736 37.8075 55.5523C37.9399 55.6311 38.0466 55.7437 38.1154 55.8773Z" fill="#FFE500"/>
<path d="M32.8351 66.703L33.3098 64.0597C33.333 63.9321 33.3232 63.801 33.2813 63.6779C33.2394 63.5547 33.1667 63.4432 33.0694 63.3529L30.6207 61.0738C30.5081 60.9701 30.4283 60.8383 30.3903 60.6935C30.3524 60.5486 30.358 60.3965 30.4063 60.2545C30.4546 60.1125 30.5438 59.9863 30.6637 59.8904C30.7836 59.7944 30.9293 59.7325 31.0843 59.7117L34.4707 59.2418C34.6051 59.2234 34.7328 59.1741 34.8427 59.098C34.9525 59.022 35.0413 58.9215 35.1013 58.8053L36.6162 55.8773C36.6845 55.7427 36.7912 55.6291 36.9241 55.5496C37.057 55.4702 37.2106 55.428 37.3675 55.428C37.5243 55.428 37.6779 55.4702 37.8108 55.5496C37.9437 55.6291 38.0504 55.7427 38.1188 55.8773L39.6325 58.8053C39.6925 58.9215 39.7813 59.022 39.8912 59.098C40.001 59.1741 40.1287 59.2234 40.2631 59.2418L32.8351 66.703Z" fill="#FFFACF"/>
<path d="M38.1154 55.8773L39.6291 58.8053C39.6891 58.9215 39.7779 59.022 39.8878 59.098C39.9976 59.1741 40.1253 59.2235 40.2597 59.2418L43.6461 59.7118C43.8012 59.7324 43.947 59.7942 44.0669 59.8902C44.1869 59.9861 44.2761 60.1123 44.3245 60.2543C44.3729 60.3963 44.3785 60.5485 44.3406 60.6934C44.3027 60.8383 44.2229 60.9701 44.1103 61.0738L41.6616 63.3529C41.564 63.443 41.491 63.5545 41.4488 63.6777C41.4066 63.8008 41.3965 63.9319 41.4195 64.0597L41.9977 67.2781C42.0249 67.4251 42.0083 67.5765 41.9497 67.715C41.8911 67.8534 41.7929 67.9733 41.6663 68.0611C41.5396 68.1488 41.3897 68.2009 41.2336 68.2112C41.0775 68.2216 40.9215 68.1899 40.7834 68.1197L37.7547 66.6005C37.6346 66.5404 37.5009 66.509 37.3652 66.509C37.2295 66.509 37.0958 66.5404 36.9756 66.6005L33.9464 68.1197C33.8083 68.1899 33.6523 68.2216 33.4962 68.2112C33.3401 68.2009 33.1901 68.1488 33.0635 68.0611C32.9369 67.9733 32.8387 67.8534 32.7801 67.715C32.7215 67.5765 32.7049 67.4251 32.7321 67.2781L33.3103 64.0597C33.3335 63.9321 33.3237 63.801 33.2818 63.6779C33.2399 63.5547 33.1672 63.4432 33.0699 63.3529L30.6212 61.0738C30.5086 60.9701 30.4287 60.8384 30.3908 60.6935C30.3529 60.5486 30.3585 60.3965 30.4068 60.2545C30.4551 60.1125 30.5443 59.9863 30.6642 59.8904C30.7841 59.7944 30.9298 59.7325 31.0848 59.7118L34.4712 59.2418C34.6056 59.2235 34.7333 59.1741 34.8431 59.098C34.953 59.022 35.0418 58.9215 35.1018 58.8053L36.6166 55.8773C36.6854 55.7437 36.7921 55.6311 36.9245 55.5523C37.057 55.4736 37.2099 55.4318 37.366 55.4318C37.5221 55.4318 37.675 55.4736 37.8075 55.5523C37.9399 55.6311 38.0466 55.7437 38.1154 55.8773Z" stroke="#45413C" stroke-linecap="round" stroke-linejoin="round"/>
<path d="M38.1154 55.8773L39.6291 58.8053C39.6891 58.9215 39.7779 59.022 39.8878 59.098C39.9976 59.1741 40.1253 59.2235 40.2597 59.2418L43.6461 59.7118C43.8012 59.7324 43.947 59.7942 44.0669 59.8902C44.1869 59.9861 44.2761 60.1123 44.3245 60.2543C44.3729 60.3963 44.3785 60.5485 44.3406 60.6934C44.3027 60.8383 44.2229 60.9701 44.1103 61.0738L41.6616 63.3529C41.564 63.443 41.491 63.5545 41.4488 63.6777C41.4066 63.8008 41.3965 63.9319 41.4195 64.0597L41.9977 67.2781C42.0249 67.4251 42.0083 67.5765 41.9497 67.715C41.8911 67.8534 41.7929 67.9733 41.6663 68.0611C41.5396 68.1488 41.3897 68.2009 41.2336 68.2112C41.0775 68.2216 40.9215 68.1899 40.7834 68.1197L37.7547 66.6005C37.6346 66.5404 37.5009 66.509 37.3652 66.509C37.2295 66.509 37.0958 66.5404 36.9756 66.6005L33.9464 68.1197C33.8083 68.1899 33.6523 68.2216 33.4962 68.2112C33.3401 68.2009 33.1901 68.1488 33.0635 68.0611C32.9369 67.9733 32.8387 67.8534 32.7801 67.715C32.7215 67.5765 32.7049 67.4251 32.7321 67.2781L33.3103 64.0597C33.3335 63.9321 33.3237 63.801 33.2818 63.6779C33.2399 63.5547 33.1672 63.4432 33.0699 63.3529L30.6212 61.0738C30.5086 60.9701 30.4287 60.8384 30.3908 60.6935C30.3529 60.5486 30.3585 60.3965 30.4068 60.2545C30.4551 60.1125 30.5443 59.9863 30.6642 59.8904C30.7841 59.7944 30.9298 59.7325 31.0848 59.7118L34.4712 59.2418C34.6056 59.2235 34.7333 59.1741 34.8431 59.098C34.953 59.022 35.0418 58.9215 35.1018 58.8053L36.6166 55.8773C36.6854 55.7437 36.7921 55.6311 36.9245 55.5523C37.057 55.4736 37.2099 55.4318 37.366 55.4318C37.5221 55.4318 37.675 55.4736 37.8075 55.5523C37.9399 55.6311 38.0466 55.7437 38.1154 55.8773Z" stroke="#45413C" stroke-linecap="round" stroke-linejoin="round"/>
<path d="M30.1154 42.8849L31.6291 45.8621C31.6891 45.9802 31.7779 46.0824 31.8878 46.1597C31.9976 46.2371 32.1253 46.2872 32.2597 46.3059L35.6461 46.7837C35.8012 46.8047 35.947 46.8676 36.0669 46.9652C36.1869 47.0627 36.2761 47.191 36.3245 47.3354C36.3729 47.4798 36.3785 47.6345 36.3406 47.7819C36.3027 47.9292 36.2229 48.0632 36.1103 48.1687L33.6616 50.486C33.564 50.5777 33.491 50.6911 33.4488 50.8163C33.4066 50.9415 33.3965 51.0748 33.4195 51.2047L33.9977 54.4772C34.0249 54.6267 34.0083 54.7807 33.9497 54.9214C33.8911 55.0622 33.7929 55.1842 33.6663 55.2734C33.5396 55.3626 33.3897 55.4155 33.2336 55.4261C33.0775 55.4366 32.9215 55.4044 32.7834 55.333L29.7547 53.7883C29.6346 53.7271 29.5009 53.6952 29.3652 53.6952C29.2295 53.6952 29.0958 53.7271 28.9756 53.7883L25.9464 55.333C25.8083 55.4044 25.6523 55.4366 25.4962 55.4261C25.3401 55.4155 25.1901 55.3626 25.0635 55.2734C24.9369 55.1842 24.8387 55.0622 24.7801 54.9214C24.7215 54.7807 24.7049 54.6267 24.7321 54.4772L25.3103 51.2047C25.3335 51.075 25.3237 50.9417 25.2818 50.8165C25.2399 50.6913 25.1672 50.5779 25.0699 50.486L22.6212 48.1687C22.5086 48.0633 22.4287 47.9293 22.3908 47.782C22.3529 47.6347 22.3585 47.48 22.4068 47.3356C22.4551 47.1912 22.5443 47.0629 22.6642 46.9653C22.7841 46.8678 22.9298 46.8048 23.0848 46.7837L26.4712 46.3059C26.6056 46.2872 26.7333 46.2371 26.8431 46.1597C26.953 46.0824 27.0418 45.9802 27.1018 45.8621L28.6166 42.8849C28.6854 42.749 28.7921 42.6345 28.9245 42.5544C29.057 42.4743 29.2099 42.4319 29.366 42.4319C29.5221 42.4319 29.675 42.4743 29.8075 42.5544C29.9399 42.6345 30.0466 42.749 30.1154 42.8849Z" fill="#FFE500"/>
<path d="M24.8351 53.8925L25.3098 51.2047C25.333 51.075 25.3232 50.9417 25.2813 50.8165C25.2394 50.6913 25.1667 50.5779 25.0694 50.486L22.6207 48.1687C22.5081 48.0633 22.4283 47.9293 22.3903 47.782C22.3524 47.6347 22.358 47.48 22.4063 47.3356C22.4546 47.1912 22.5438 47.0629 22.6637 46.9653C22.7836 46.8678 22.9293 46.8048 23.0843 46.7837L26.4707 46.3059C26.6051 46.2872 26.7328 46.2371 26.8427 46.1597C26.9525 46.0824 27.0413 45.9802 27.1013 45.8621L28.6162 42.8849C28.6845 42.748 28.7912 42.6325 28.9241 42.5517C29.057 42.4709 29.2106 42.428 29.3675 42.428C29.5243 42.428 29.6779 42.4709 29.8108 42.5517C29.9437 42.6325 30.0504 42.748 30.1188 42.8849L31.6325 45.8621C31.6925 45.9802 31.7813 46.0824 31.8912 46.1597C32.001 46.2371 32.1287 46.2872 32.2631 46.3059L24.8351 53.8925Z" fill="#FFFACF"/>
<path d="M30.1154 42.8849L31.6291 45.8621C31.6891 45.9802 31.7779 46.0824 31.8878 46.1597C31.9976 46.2371 32.1253 46.2872 32.2597 46.3059L35.6461 46.7837C35.8012 46.8047 35.947 46.8676 36.0669 46.9652C36.1869 47.0627 36.2761 47.191 36.3245 47.3354C36.3729 47.4798 36.3785 47.6345 36.3406 47.7819C36.3027 47.9292 36.2229 48.0632 36.1103 48.1687L33.6616 50.486C33.564 50.5777 33.491 50.6911 33.4488 50.8163C33.4066 50.9415 33.3965 51.0748 33.4195 51.2047L33.9977 54.4772C34.0249 54.6267 34.0083 54.7807 33.9497 54.9214C33.8911 55.0622 33.7929 55.1842 33.6663 55.2734C33.5396 55.3626 33.3897 55.4155 33.2336 55.4261C33.0775 55.4366 32.9215 55.4044 32.7834 55.333L29.7547 53.7883C29.6346 53.7271 29.5009 53.6952 29.3652 53.6952C29.2295 53.6952 29.0958 53.7271 28.9756 53.7883L25.9464 55.333C25.8083 55.4044 25.6523 55.4366 25.4962 55.4261C25.3401 55.4155 25.1901 55.3626 25.0635 55.2734C24.9369 55.1842 24.8387 55.0622 24.7801 54.9214C24.7215 54.7807 24.7049 54.6267 24.7321 54.4772L25.3103 51.2047C25.3335 51.075 25.3237 50.9417 25.2818 50.8165C25.2399 50.6913 25.1672 50.5779 25.0699 50.486L22.6212 48.1687C22.5086 48.0633 22.4287 47.9293 22.3908 47.782C22.3529 47.6347 22.3585 47.48 22.4068 47.3356C22.4551 47.1912 22.5443 47.0629 22.6642 46.9653C22.7841 46.8678 22.9298 46.8048 23.0848 46.7837L26.4712 46.3059C26.6056 46.2872 26.7333 46.2371 26.8431 46.1597C26.953 46.0824 27.0418 45.9802 27.1018 45.8621L28.6166 42.8849C28.6854 42.749 28.7921 42.6345 28.9245 42.5544C29.057 42.4743 29.2099 42.4319 29.366 42.4319C29.5221 42.4319 29.675 42.4743 29.8075 42.5544C29.9399 42.6345 30.0466 42.749 30.1154 42.8849Z" stroke="#45413C" stroke-linecap="round" stroke-linejoin="round"/>
<path d="M30.1154 42.8849L31.6291 45.8621C31.6891 45.9802 31.7779 46.0824 31.8878 46.1597C31.9976 46.2371 32.1253 46.2872 32.2597 46.3059L35.6461 46.7837C35.8012 46.8047 35.947 46.8676 36.0669 46.9652C36.1869 47.0627 36.2761 47.191 36.3245 47.3354C36.3729 47.4798 36.3785 47.6345 36.3406 47.7819C36.3027 47.9292 36.2229 48.0632 36.1103 48.1687L33.6616 50.486C33.564 50.5777 33.491 50.6911 33.4488 50.8163C33.4066 50.9415 33.3965 51.0748 33.4195 51.2047L33.9977 54.4772C34.0249 54.6267 34.0083 54.7807 33.9497 54.9214C33.8911 55.0622 33.7929 55.1842 33.6663 55.2734C33.5396 55.3626 33.3897 55.4155 33.2336 55.4261C33.0775 55.4366 32.9215 55.4044 32.7834 55.333L29.7547 53.7883C29.6346 53.7271 29.5009 53.6952 29.3652 53.6952C29.2295 53.6952 29.0958 53.7271 28.9756 53.7883L25.9464 55.333C25.8083 55.4044 25.6523 55.4366 25.4962 55.4261C25.3401 55.4155 25.1901 55.3626 25.0635 55.2734C24.9369 55.1842 24.8387 55.0622 24.7801 54.9214C24.7215 54.7807 24.7049 54.6267 24.7321 54.4772L25.3103 51.2047C25.3335 51.075 25.3237 50.9417 25.2818 50.8165C25.2399 50.6913 25.1672 50.5779 25.0699 50.486L22.6212 48.1687C22.5086 48.0633 22.4287 47.9293 22.3908 47.782C22.3529 47.6347 22.3585 47.48 22.4068 47.3356C22.4551 47.1912 22.5443 47.0629 22.6642 46.9653C22.7841 46.8678 22.9298 46.8048 23.0848 46.7837L26.4712 46.3059C26.6056 46.2872 26.7333 46.2371 26.8431 46.1597C26.953 46.0824 27.0418 45.9802 27.1018 45.8621L28.6166 42.8849C28.6854 42.749 28.7921 42.6345 28.9245 42.5544C29.057 42.4743 29.2099 42.4319 29.366 42.4319C29.5221 42.4319 29.675 42.4743 29.8075 42.5544C29.9399 42.6345 30.0466 42.749 30.1154 42.8849Z" stroke="#45413C" stroke-linecap="round" stroke-linejoin="round"/>
</svg>

