<svg width="50" height="50" viewBox="0 0 50 50" fill="none" xmlns="http://www.w3.org/2000/svg">
<path d="M38.581 22.486L25 32.363L11.419 22.486C11.0783 22.2384 10.801 21.9138 10.6098 21.5385C10.4187 21.1633 10.319 20.7481 10.319 20.327V3.669C10.319 3.3185 10.388 2.97144 10.5221 2.64762C10.6563 2.3238 10.8529 2.02957 11.1007 1.78173C11.3485 1.53389 11.6428 1.33729 11.9666 1.20317C12.2904 1.06904 12.6375 1 12.988 1H37.012C37.3625 1 37.7095 1.06904 38.0334 1.20317C38.3572 1.33729 38.6514 1.53389 38.8992 1.78173C39.1471 2.02957 39.3437 2.3238 39.4778 2.64762C39.6119 2.97144 39.681 3.3185 39.681 3.669V20.327C39.681 20.7481 39.5813 21.1633 39.3901 21.5385C39.1989 21.9138 38.9217 22.2384 38.581 22.486Z" fill="#1A9496"/>
<path d="M37.012 1H12.988C12.6375 1 12.2904 1.06904 11.9666 1.20317C11.6428 1.33729 11.3485 1.53389 11.1007 1.78173C10.8529 2.02957 10.6563 2.3238 10.5221 2.64762C10.388 2.97144 10.319 3.3185 10.319 3.669V9.008C10.319 8.30004 10.6001 7.62107 11.1006 7.12038C11.6011 6.61969 12.28 6.33826 12.988 6.338H37.012C37.7199 6.33826 38.3988 6.61969 38.8993 7.12038C39.3998 7.62107 39.681 8.30004 39.681 9.008V3.669C39.681 2.96114 39.3998 2.28227 38.8992 1.78173C38.3987 1.2812 37.7198 1 37.012 1Z" fill="#2DC090"/>
<path d="M38.581 22.486L25 32.363L11.419 22.486C11.0783 22.2384 10.801 21.9138 10.6098 21.5385C10.4187 21.1633 10.319 20.7481 10.319 20.327V3.669C10.319 3.3185 10.388 2.97144 10.5221 2.64762C10.6563 2.3238 10.8529 2.02957 11.1007 1.78173C11.3485 1.53389 11.6428 1.33729 11.9666 1.20317C12.2904 1.06904 12.6375 1 12.988 1H37.012C37.3625 1 37.7095 1.06904 38.0334 1.20317C38.3572 1.33729 38.6514 1.53389 38.8992 1.78173C39.1471 2.02957 39.3437 2.3238 39.4778 2.64762C39.6119 2.97144 39.681 3.3185 39.681 3.669V20.327C39.681 20.7481 39.5813 21.1633 39.3901 21.5385C39.1989 21.9138 38.9217 22.2384 38.581 22.486Z" stroke="#45413C" stroke-linecap="round" stroke-linejoin="round"/>
<path d="M18.327 27.51L25 32.363L31.673 27.51V1H18.327V27.51Z" fill="#445DCE"/>
<path d="M18.327 1H31.673V6.338H18.327V1Z" fill="#6277D5"/>
<path d="M18.327 27.51L25 32.363L31.673 27.51V1H18.327V27.51Z" stroke="#45413C" stroke-linecap="round" stroke-linejoin="round"/>
<path d="M23.5 30.1155C23.5 29.5545 23.658 29.0164 23.9393 28.6196C24.2206 28.2229 24.6022 28 25 28C25.3978 28 25.7794 28.2229 26.0607 28.6196C26.342 29.0164 26.5 29.5545 26.5 30.1155L26.5 35.4031C26.5 35.9642 26.342 36.5023 26.0607 36.899C25.7794 37.2958 25.3978 37.5186 25 37.5186C24.6022 37.5186 24.2206 37.2958 23.9393 36.899C23.658 36.5023 23.5 35.9642 23.5 35.4031L23.5 30.1155Z" fill="#C0C0C0"/>
<path d="M25 28C24.6022 28 24.2206 28.2229 23.9393 28.6196C23.658 29.0164 23.5 29.5545 23.5 30.1155L23.5 33.6816C23.5 33.1205 23.658 32.5824 23.9393 32.1857C24.2206 31.7889 24.6022 31.566 25 31.566C25.3978 31.566 25.7794 31.7889 26.0607 32.1857C26.342 32.5824 26.5 33.1205 26.5 33.6816L26.5 30.1155C26.5001 29.8377 26.4613 29.5625 26.386 29.3058C26.3106 29.0491 26.2001 28.8158 26.0608 28.6194C25.9215 28.4229 25.7561 28.2671 25.5741 28.1608C25.3921 28.0545 25.197 27.9999 25 28Z" fill="#DDDDDD"/>
<path d="M23.5 30.1155C23.5 29.5545 23.658 29.0164 23.9393 28.6196C24.2206 28.2229 24.6022 28 25 28C25.3978 28 25.7794 28.2229 26.0607 28.6196C26.342 29.0164 26.5 29.5545 26.5 30.1155L26.5 35.4031C26.5 35.9642 26.342 36.5023 26.0607 36.899C25.7794 37.2958 25.3978 37.5186 25 37.5186C24.6022 37.5186 24.2206 37.2958 23.9393 36.899C23.658 36.5023 23.5 35.9642 23.5 35.4031L23.5 30.1155Z" stroke="#666666" stroke-linecap="round" stroke-linejoin="round"/>
<path d="M23.5 30.1155C23.5 29.5545 23.658 29.0164 23.9393 28.6196C24.2206 28.2229 24.6022 28 25 28C25.3978 28 25.7794 28.2229 26.0607 28.6196C26.342 29.0164 26.5 29.5545 26.5 30.1155L26.5 35.4031C26.5 35.9642 26.342 36.5023 26.0607 36.899C25.7794 37.2958 25.3978 37.5186 25 37.5186C24.6022 37.5186 24.2206 37.2958 23.9393 36.899C23.658 36.5023 23.5 35.9642 23.5 35.4031L23.5 30.1155Z" stroke="#666666" stroke-linecap="round" stroke-linejoin="round"/>
<rect x="9.15" y="36.15" width="31.7" height="0.7" rx="0.35" fill="#D9D9D9" stroke="#666666" stroke-width="0.3"/>
<path d="M9.77992 38.84L11.4544 36.2881C11.5122 36.2 11.5926 36.1273 11.688 36.0769C11.7835 36.0264 11.8908 36 12 36C12.1092 36 12.2165 36.0264 12.312 36.0769C12.4074 36.1273 12.4878 36.2 12.5456 36.2881L14.2201 38.84L17.3791 38.9445C17.4882 38.9481 17.5945 38.9781 17.688 39.0316C17.7816 39.0851 17.8593 39.1604 17.9138 39.2503C17.9684 39.3403 17.998 39.442 17.9999 39.5458C18.0018 39.6497 17.9759 39.7523 17.9247 39.844L16.4402 42.5L17.9247 45.1563C17.9759 45.2481 18.0018 45.3507 17.9999 45.4545C17.998 45.5584 17.9684 45.66 17.9138 45.75C17.8593 45.84 17.7816 45.9152 17.688 45.9687C17.5945 46.0222 17.4882 46.0522 17.3791 46.0558L14.2201 46.16L12.5456 48.7122C12.4877 48.8003 12.4073 48.8729 12.3119 48.9232C12.2164 48.9736 12.1091 49 12 49C11.8909 49 11.7836 48.9736 11.6881 48.9232C11.5927 48.8729 11.5123 48.8003 11.4544 48.7122L9.77992 46.16L6.62086 46.0558C6.5118 46.0522 6.40551 46.0222 6.31198 45.9687C6.21844 45.9152 6.14074 45.84 6.08619 45.75C6.03163 45.66 6.002 45.5584 6.0001 45.4545C5.99819 45.3507 6.02407 45.2481 6.0753 45.1563L7.55985 42.5L6.0753 39.844C6.02407 39.7523 5.99819 39.6497 6.0001 39.5458C6.002 39.442 6.03163 39.3403 6.08619 39.2503C6.14074 39.1604 6.21844 39.0851 6.31198 39.0316C6.40551 38.9781 6.5118 38.9481 6.62086 38.9445L9.77992 38.84Z" fill="#C0C0C0"/>
<path d="M8.97611 46.2143L6.62107 46.1359C6.51198 46.1323 6.40565 46.102 6.31209 46.0481C6.21852 45.9942 6.14079 45.9183 6.08622 45.8277C6.03164 45.737 6.002 45.6345 6.0001 45.5298C5.99819 45.4251 6.02408 45.3217 6.07533 45.2293L7.56039 42.5517L6.07533 39.8746C6.02408 39.7821 5.99819 39.6787 6.0001 39.574C6.002 39.4694 6.03164 39.3669 6.08622 39.2762C6.14079 39.1855 6.21852 39.1097 6.31209 39.0557C6.40565 39.0018 6.51198 38.9716 6.62107 38.9679L9.78125 38.8626L11.4563 36.2904C11.5141 36.2016 11.5946 36.1283 11.69 36.0775C11.7855 36.0267 11.8929 36 12.0021 36C12.1113 36 12.2187 36.0267 12.3142 36.0775C12.4096 36.1283 12.4901 36.2016 12.5478 36.2904L14.223 38.8626L16.56 38.9406L8.97611 46.2143Z" fill="#DDDDDD"/>
<path d="M9.77992 38.84L11.4544 36.2881C11.5122 36.2 11.5926 36.1273 11.688 36.0769C11.7835 36.0264 11.8908 36 12 36C12.1092 36 12.2165 36.0264 12.312 36.0769C12.4074 36.1273 12.4878 36.2 12.5456 36.2881L14.2201 38.84L17.3791 38.9445C17.4882 38.9481 17.5945 38.9781 17.688 39.0316C17.7816 39.0851 17.8593 39.1604 17.9138 39.2503C17.9684 39.3403 17.998 39.442 17.9999 39.5458C18.0018 39.6497 17.9759 39.7523 17.9247 39.844L16.4402 42.5L17.9247 45.1563C17.9759 45.2481 18.0018 45.3507 17.9999 45.4545C17.998 45.5584 17.9684 45.66 17.9138 45.75C17.8593 45.84 17.7816 45.9152 17.688 45.9687C17.5945 46.0222 17.4882 46.0522 17.3791 46.0558L14.2201 46.16L12.5456 48.7122C12.4877 48.8003 12.4073 48.8729 12.3119 48.9232C12.2164 48.9736 12.1091 49 12 49C11.8909 49 11.7836 48.9736 11.6881 48.9232C11.5927 48.8729 11.5123 48.8003 11.4544 48.7122L9.77992 46.16L6.62086 46.0558C6.5118 46.0522 6.40551 46.0222 6.31198 45.9687C6.21844 45.9152 6.14074 45.84 6.08619 45.75C6.03163 45.66 6.002 45.5584 6.0001 45.4545C5.99819 45.3507 6.02407 45.2481 6.0753 45.1563L7.55985 42.5L6.0753 39.844C6.02407 39.7523 5.99819 39.6497 6.0001 39.5458C6.002 39.442 6.03163 39.3403 6.08619 39.2503C6.14074 39.1604 6.21844 39.0851 6.31198 39.0316C6.40551 38.9781 6.5118 38.9481 6.62086 38.9445L9.77992 38.84Z" stroke="#666666" stroke-linecap="round" stroke-linejoin="round"/>
<path d="M35.7799 38.84L37.4544 36.2881C37.5122 36.2 37.5926 36.1273 37.688 36.0769C37.7835 36.0264 37.8908 36 38 36C38.1092 36 38.2165 36.0264 38.312 36.0769C38.4074 36.1273 38.4878 36.2 38.5456 36.2881L40.2201 38.84L43.3791 38.9445C43.4882 38.9481 43.5945 38.9781 43.688 39.0316C43.7816 39.0851 43.8593 39.1604 43.9138 39.2503C43.9684 39.3403 43.998 39.442 43.9999 39.5458C44.0018 39.6497 43.9759 39.7523 43.9247 39.844L42.4402 42.5L43.9247 45.1563C43.9759 45.2481 44.0018 45.3507 43.9999 45.4545C43.998 45.5584 43.9684 45.66 43.9138 45.75C43.8593 45.84 43.7816 45.9152 43.688 45.9687C43.5945 46.0222 43.4882 46.0522 43.3791 46.0558L40.2201 46.16L38.5456 48.7122C38.4877 48.8003 38.4073 48.8729 38.3119 48.9232C38.2164 48.9736 38.1091 49 38 49C37.8909 49 37.7836 48.9736 37.6881 48.9232C37.5927 48.8729 37.5123 48.8003 37.4544 48.7122L35.7799 46.16L32.6209 46.0558C32.5118 46.0522 32.4055 46.0222 32.312 45.9687C32.2184 45.9152 32.1407 45.84 32.0862 45.75C32.0316 45.66 32.002 45.5584 32.0001 45.4545C31.9982 45.3507 32.0241 45.2481 32.0753 45.1563L33.5598 42.5L32.0753 39.844C32.0241 39.7523 31.9982 39.6497 32.0001 39.5458C32.002 39.442 32.0316 39.3403 32.0862 39.2503C32.1407 39.1604 32.2184 39.0851 32.312 39.0316C32.4055 38.9781 32.5118 38.9481 32.6209 38.9445L35.7799 38.84Z" fill="#C0C0C0"/>
<path d="M34.9761 46.2143L32.6211 46.1359C32.512 46.1323 32.4057 46.102 32.3121 46.0481C32.2185 45.9942 32.1408 45.9183 32.0862 45.8277C32.0316 45.737 32.002 45.6345 32.0001 45.5298C31.9982 45.4251 32.0241 45.3217 32.0753 45.2293L33.5604 42.5517L32.0753 39.8746C32.0241 39.7821 31.9982 39.6787 32.0001 39.574C32.002 39.4694 32.0316 39.3669 32.0862 39.2762C32.1408 39.1855 32.2185 39.1097 32.3121 39.0557C32.4057 39.0018 32.512 38.9716 32.6211 38.9679L35.7812 38.8626L37.4563 36.2904C37.5141 36.2016 37.5946 36.1283 37.69 36.0775C37.7855 36.0267 37.8929 36 38.0021 36C38.1113 36 38.2187 36.0267 38.3142 36.0775C38.4096 36.1283 38.4901 36.2016 38.5478 36.2904L40.223 38.8626L42.56 38.9406L34.9761 46.2143Z" fill="#DDDDDD"/>
<path d="M35.7799 38.84L37.4544 36.2881C37.5122 36.2 37.5926 36.1273 37.688 36.0769C37.7835 36.0264 37.8908 36 38 36C38.1092 36 38.2165 36.0264 38.312 36.0769C38.4074 36.1273 38.4878 36.2 38.5456 36.2881L40.2201 38.84L43.3791 38.9445C43.4882 38.9481 43.5945 38.9781 43.688 39.0316C43.7816 39.0851 43.8593 39.1604 43.9138 39.2503C43.9684 39.3403 43.998 39.442 43.9999 39.5458C44.0018 39.6497 43.9759 39.7523 43.9247 39.844L42.4402 42.5L43.9247 45.1563C43.9759 45.2481 44.0018 45.3507 43.9999 45.4545C43.998 45.5584 43.9684 45.66 43.9138 45.75C43.8593 45.84 43.7816 45.9152 43.688 45.9687C43.5945 46.0222 43.4882 46.0522 43.3791 46.0558L40.2201 46.16L38.5456 48.7122C38.4877 48.8003 38.4073 48.8729 38.3119 48.9232C38.2164 48.9736 38.1091 49 38 49C37.8909 49 37.7836 48.9736 37.6881 48.9232C37.5927 48.8729 37.5123 48.8003 37.4544 48.7122L35.7799 46.16L32.6209 46.0558C32.5118 46.0522 32.4055 46.0222 32.312 45.9687C32.2184 45.9152 32.1407 45.84 32.0862 45.75C32.0316 45.66 32.002 45.5584 32.0001 45.4545C31.9982 45.3507 32.0241 45.2481 32.0753 45.1563L33.5598 42.5L32.0753 39.844C32.0241 39.7523 31.9982 39.6497 32.0001 39.5458C32.002 39.442 32.0316 39.3403 32.0862 39.2503C32.1407 39.1604 32.2184 39.0851 32.312 39.0316C32.4055 38.9781 32.5118 38.9481 32.6209 38.9445L35.7799 38.84Z" stroke="#666666" stroke-linecap="round" stroke-linejoin="round"/>
<path d="M22.7799 38.84L24.4544 36.2881C24.5122 36.2 24.5926 36.1273 24.688 36.0769C24.7835 36.0264 24.8908 36 25 36C25.1092 36 25.2165 36.0264 25.312 36.0769C25.4074 36.1273 25.4878 36.2 25.5456 36.2881L27.2201 38.84L30.3791 38.9445C30.4882 38.9481 30.5945 38.9781 30.688 39.0316C30.7816 39.0851 30.8593 39.1604 30.9138 39.2503C30.9684 39.3403 30.998 39.442 30.9999 39.5458C31.0018 39.6497 30.9759 39.7523 30.9247 39.844L29.4402 42.5L30.9247 45.1563C30.9759 45.2481 31.0018 45.3507 30.9999 45.4545C30.998 45.5584 30.9684 45.66 30.9138 45.75C30.8593 45.84 30.7816 45.9152 30.688 45.9687C30.5945 46.0222 30.4882 46.0522 30.3791 46.0558L27.2201 46.16L25.5456 48.7122C25.4877 48.8003 25.4073 48.8729 25.3119 48.9232C25.2164 48.9736 25.1091 49 25 49C24.8909 49 24.7836 48.9736 24.6881 48.9232C24.5927 48.8729 24.5123 48.8003 24.4544 48.7122L22.7799 46.16L19.6209 46.0558C19.5118 46.0522 19.4055 46.0222 19.312 45.9687C19.2184 45.9152 19.1407 45.84 19.0862 45.75C19.0316 45.66 19.002 45.5584 19.0001 45.4545C18.9982 45.3507 19.0241 45.2481 19.0753 45.1563L20.5598 42.5L19.0753 39.844C19.0241 39.7523 18.9982 39.6497 19.0001 39.5458C19.002 39.442 19.0316 39.3403 19.0862 39.2503C19.1407 39.1604 19.2184 39.0851 19.312 39.0316C19.4055 38.9781 19.5118 38.9481 19.6209 38.9445L22.7799 38.84Z" fill="#C0C0C0"/>
<path d="M21.9155 46.2424L19.6084 46.1638C19.5015 46.1602 19.3974 46.1299 19.3057 46.0758C19.2141 46.0217 19.1379 45.9456 19.0845 45.8547C19.031 45.7638 19.002 45.661 19.0001 45.5561C18.9982 45.4511 19.0236 45.3474 19.0738 45.2547L20.5286 42.5698L19.0738 39.8853C19.0236 39.7926 18.9982 39.6889 19.0001 39.5839C19.002 39.4789 19.031 39.3761 19.0845 39.2852C19.1379 39.1943 19.2141 39.1182 19.3057 39.0642C19.3974 39.0101 19.5015 38.9798 19.6084 38.9761L22.7042 38.8705L24.3452 36.2912C24.4018 36.2021 24.4806 36.1286 24.5741 36.0777C24.6676 36.0267 24.7728 36 24.8798 36C24.9868 36 25.092 36.0267 25.1855 36.0777C25.279 36.1286 25.3578 36.2021 25.4144 36.2912L27.0554 38.8705L29.3448 38.9487L21.9155 46.2424Z" fill="#DDDDDD"/>
<path d="M22.7799 38.84L24.4544 36.2881C24.5122 36.2 24.5926 36.1273 24.688 36.0769C24.7835 36.0264 24.8908 36 25 36C25.1092 36 25.2165 36.0264 25.312 36.0769C25.4074 36.1273 25.4878 36.2 25.5456 36.2881L27.2201 38.84L30.3791 38.9445C30.4882 38.9481 30.5945 38.9781 30.688 39.0316C30.7816 39.0851 30.8593 39.1604 30.9138 39.2503C30.9684 39.3403 30.998 39.442 30.9999 39.5458C31.0018 39.6497 30.9759 39.7523 30.9247 39.844L29.4402 42.5L30.9247 45.1563C30.9759 45.2481 31.0018 45.3507 30.9999 45.4545C30.998 45.5584 30.9684 45.66 30.9138 45.75C30.8593 45.84 30.7816 45.9152 30.688 45.9687C30.5945 46.0222 30.4882 46.0522 30.3791 46.0558L27.2201 46.16L25.5456 48.7122C25.4877 48.8003 25.4073 48.8729 25.3119 48.9232C25.2164 48.9736 25.1091 49 25 49C24.8909 49 24.7836 48.9736 24.6881 48.9232C24.5927 48.8729 24.5123 48.8003 24.4544 48.7122L22.7799 46.16L19.6209 46.0558C19.5118 46.0522 19.4055 46.0222 19.312 45.9687C19.2184 45.9152 19.1407 45.84 19.0862 45.75C19.0316 45.66 19.002 45.5584 19.0001 45.4545C18.9982 45.3507 19.0241 45.2481 19.0753 45.1563L20.5598 42.5L19.0753 39.844C19.0241 39.7523 18.9982 39.6497 19.0001 39.5458C19.002 39.442 19.0316 39.3403 19.0862 39.2503C19.1407 39.1604 19.2184 39.0851 19.312 39.0316C19.4055 38.9781 19.5118 38.9481 19.6209 38.9445L22.7799 38.84Z" stroke="#666666" stroke-linecap="round" stroke-linejoin="round"/>
</svg>

