<svg xmlns="http://www.w3.org/2000/svg" fill="none" viewBox="-1 -1 28 28" id="Check-Thick--Streamline-Flex-Neon" height="28" width="28"><desc>Check Thick Streamline Icon: https://streamlinehq.com</desc><g id="check-thick--check-form-validation-checkmark-success-add-addition-1-tick"><path id="Vector (Stroke)" fill-rule="evenodd" stroke="#c71dff" stroke-linecap="round" stroke-linejoin="round" d="M23.746914285714286 2.4810314285714283c1.2307285714285714 1.3565500000000001 1.1285857142857143 3.4538400000000005 -0.22805714285714287 4.68442 -2.5489285714285717 2.312347142857143 -4.2523 4.198925714285714 -5.654554285714286 6.387624285714287 -1.4153657142857143 2.209164285714286 -2.614875714285714 4.867775714285714 -3.993507142857143 8.827910000000001 -0.3782814285714286 1.0868000000000002 -1.2927942857142858 1.8996714285714285 -2.41631 2.1479714285714286 -1.1235157142857144 0.24830000000000002 -2.2954285714285714 -0.10344285714285714 -3.096432857142857 -0.9294999999999999L2.328392857142857 17.381315714285716C1.0533640000000002 16.066440000000004 1.0856652857142859 13.966921428571428 2.4005428571428573 12.6919c1.3148571428571427 -1.27504 3.4143942857142857 -1.2427257142857142 4.6894157142857145 0.07213142857142857l2.4188542857142856 2.4944585714285714c0.8481757142857144 -1.9555157142857142 1.743207142857143 -3.6796128571428572 2.7707457142857144 -5.28346 1.8264628571428572 -2.8508257142857145 3.9804885714285714 -5.179812857142857 6.783084285714286 -7.722092857142858 1.356457142857143 -1.2305855714285714 3.4537285714285715 -1.1284612857142857 4.684271428571429 0.22809428571428572Z" clip-rule="evenodd" stroke-width="2"></path></g></svg>