<svg width="16" height="18" viewBox="0 0 16 18" fill="none" xmlns="http://www.w3.org/2000/svg">
<path fill-rule="evenodd" clip-rule="evenodd" d="M15 15.502C15 16.0543 14.5523 16.502 14 16.502H2C1.44772 16.502 1 16.0543 1 15.502V2.502C1 1.94971 1.44772 1.502 2 1.502H12.03C12.2911 1.50203 12.5419 1.6042 12.7287 1.78667L14.6987 3.708C14.8915 3.89631 15.0001 4.15448 15 4.424V15.502Z" stroke="#000" stroke-width="1.5" stroke-linecap="round" stroke-linejoin="round"/>
<path d="M7 6.50199H6.5C5.98666 6.46714 5.54081 6.85176 5.5 7.36466V8.19599C5.4918 8.49792 5.32162 8.77204 5.05467 8.91333L4 9.51999L5.05467 10.126C5.32143 10.2675 5.49152 10.5415 5.5 10.8433V11.6753C5.54081 12.1881 5.98678 12.5726 6.5 12.5373H7" stroke="#000" stroke-width="1.5" stroke-linecap="round" stroke-linejoin="round"/>
<path d="M9 6.50199H9.5C10.0135 6.46677 10.4595 6.85158 10.5 7.36466V8.19599C10.5082 8.49792 10.6784 8.77204 10.9453 8.91333L12 9.51999L10.9453 10.126C10.6786 10.2675 10.5085 10.5415 10.5 10.8433V11.6753C10.4592 12.1881 10.0132 12.5726 9.5 12.5373H9" stroke="#000" stroke-width="1.5" stroke-linecap="round" stroke-linejoin="round"/>
</svg>
