<svg width="24" height="24" viewBox="0 0 24 24" fill="none" xmlns="http://www.w3.org/2000/svg">
<path fill-rule="evenodd" clip-rule="evenodd" d="M18 9.01099L15 10.011V9.01099C15 8.18256 14.3284 7.51099 13.5 7.51099H7.5C6.67157 7.51099 6 8.18256 6 9.01099V15.011C6 15.8394 6.67157 16.511 7.5 16.511H13.5C14.3284 16.511 15 15.8394 15 15.011V14.011L18 15.011V9.01099Z" stroke="black" stroke-width="1.5" stroke-linecap="round" stroke-linejoin="round"/>
<path fill-rule="evenodd" clip-rule="evenodd" d="M1.5 6.01099C1.5 3.52571 3.51472 1.51099 6 1.51099H18C20.4853 1.51099 22.5 3.52571 22.5 6.01099V18.011C22.5 20.4963 20.4853 22.511 18 22.511H6C3.51472 22.511 1.5 20.4963 1.5 18.011V6.01099Z" stroke="black" stroke-width="1.5" stroke-linecap="round" stroke-linejoin="round"/>
</svg>
