<svg viewBox="0 0 24 25" fill="none" xmlns="http://www.w3.org/2000/svg">
<path fill-rule="evenodd" clip-rule="evenodd" d="M9.75 7.76099C9.75 7.2087 10.1977 6.76099 10.75 6.76099H22.25C22.8023 6.76099 23.25 7.2087 23.25 7.76099V22.261C23.25 22.8133 22.8023 23.261 22.25 23.261H10.75C10.1977 23.261 9.75 22.8133 9.75 22.261V7.76099Z" stroke="#000000" stroke-width="1.5" stroke-linecap="round" stroke-linejoin="round"/>
<path d="M9.75 20.261H6.75C5.92157 20.261 5.25 19.5894 5.25 18.761V5.26099C5.25 4.43256 5.92157 3.76099 6.75 3.76099H17.25C18.0784 3.76099 18.75 4.43256 18.75 5.26099V6.76099" stroke="#000000" stroke-width="1.5" stroke-linecap="round" stroke-linejoin="round"/>
<path d="M5.25 17.261H2.25C1.42157 17.261 0.75 16.5894 0.75 15.761V2.26099C0.75 1.43256 1.42157 0.760986 2.25 0.760986H12.75C13.5784 0.760986 14.25 1.43256 14.25 2.26099V3.76099" stroke="#000000" stroke-width="1.5" stroke-linecap="round" stroke-linejoin="round"/>
<path d="M17.25 11.261H20.25" stroke="#000000" stroke-width="1.5" stroke-linecap="round" stroke-linejoin="round"/>
<path d="M12.75 10.511L13.5 11.261L15 9.76099" stroke="#000000" stroke-width="1.5" stroke-linecap="round" stroke-linejoin="round"/>
<path d="M17.25 15.761H20.25" stroke="#000000" stroke-width="1.5" stroke-linecap="round" stroke-linejoin="round"/>
<path d="M12.75 15.011L13.5 15.761L15 14.261" stroke="#000000" stroke-width="1.5" stroke-linecap="round" stroke-linejoin="round"/>
<path d="M17.25 20.261H20.25" stroke="#000000" stroke-width="1.5" stroke-linecap="round" stroke-linejoin="round"/>
<path d="M12.75 19.511L13.5 20.261L15 18.761" stroke="#000000" stroke-width="1.5" stroke-linecap="round" stroke-linejoin="round"/>
</svg>
