<svg width="700" height="700" viewBox="0 0 700 700" fill="none" xmlns="http://www.w3.org/2000/svg">
<path d="M393.823 497.578V442.373H392.349C387.194 441.639 382.045 441.639 376.889 441.639C348.183 441.639 326.84 449.736 305.491 459.305V499.79C304.757 502.732 304.018 505.679 303.284 508.621C297.394 529.965 290.771 554.256 290.771 576.339C290.771 609.461 298.868 677.178 298.868 680.125C300.342 691.164 309.907 700 320.951 700H323.893C336.406 698.527 344.503 687.488 343.03 674.975C343.03 674.241 334.933 606.524 334.933 576.344C334.933 560.151 340.822 539.541 345.972 520.405C347.445 515.989 348.179 510.835 349.653 506.418C351.861 512.308 354.069 518.931 357.016 526.293C362.171 538.806 370.262 560.155 370.262 566.038C370.262 578.551 365.107 615.354 361.431 636.703C359.223 648.481 367.32 660.259 379.833 662.468C392.345 664.675 403.389 656.578 405.597 644.066C406.332 638.177 415.168 585.92 414.428 565.305C413.694 552.792 407.805 535.865 398.235 510.835C397.501 506.414 395.293 501.999 393.825 497.578L393.823 497.578Z" fill="black"/>
<path d="M231.153 276.024C225.264 267.193 213.486 264.985 204.655 270.869C195.824 276.758 193.616 288.536 199.5 297.367C204.655 305.464 233.361 346.683 253.97 359.195C259.859 362.876 279.735 373.915 305.493 377.597V412.926C325.368 405.563 348.185 398.94 376.891 398.94C382.046 398.94 387.93 398.94 393.819 399.674V377.591C419.584 373.909 438.719 362.871 445.342 359.189C465.952 346.677 494.658 305.458 499.812 297.361C505.701 288.53 503.493 276.752 494.657 270.863C485.826 264.974 474.047 267.182 468.159 276.018C456.381 293.685 435.037 320.918 424.733 326.808C413.694 333.431 394.553 341.528 375.416 341.528H323.893C304.757 341.528 284.882 333.431 274.577 326.808C264.273 320.924 242.929 293.691 231.151 276.023L231.153 276.024Z" fill="black"/>
<path d="M394.559 283.384C394.559 308.178 374.458 328.284 349.659 328.284C324.86 328.284 304.759 308.178 304.759 283.384C304.759 258.585 324.86 238.484 349.659 238.484C374.458 238.484 394.559 258.585 394.559 283.384" fill="black"/>
<path d="M582.255 440.165C529.992 464.455 503.493 451.204 468.904 434.276C448.294 423.971 425.477 412.933 395.298 409.986C344.508 405.57 311.387 420.29 281.947 433.542C265.019 440.905 249.559 448.262 232.631 451.209C164.179 462.248 122.221 421.029 120.748 419.561C116.332 415.146 109.709 415.146 106.028 419.561C101.612 423.977 101.612 430.6 106.028 434.281C107.496 436.484 145.767 474.761 209.809 474.761C217.906 474.761 226.737 474.026 236.307 472.553C256.182 469.611 273.11 461.514 290.777 453.416C318.748 440.904 348.19 426.918 393.089 431.333C419.588 433.541 440.197 443.846 459.332 453.416C493.927 470.345 529.997 488.011 591.087 459.306C596.242 457.098 598.45 450.474 596.242 445.319C594.035 440.164 588.145 437.956 582.256 440.164L582.255 440.165Z" fill="black"/>
<path d="M624.21 0H75.108C49.3432 0 28 21.3432 28 47.108V677.177C28 688.955 37.5704 698.52 49.3432 698.52C61.1213 698.52 70.6863 688.95 70.6863 677.177V176.655H629.357V677.177C629.357 688.955 638.928 698.52 650.701 698.52C662.479 698.52 672.044 688.95 672.044 677.177L672.054 47.108C671.315 21.3432 649.971 0 624.207 0H624.21ZM70.6916 47.108C70.6916 44.166 72.8994 41.953 75.8465 41.953H121.481V88.3263H71.4315L71.4263 47.1081L70.6916 47.108ZM171.531 134.701H120.741V88.3274H171.531V134.701ZM171.531 42.6929H222.32V89.0661H171.531V42.6929ZM273.109 134.701H222.319V88.3274H273.109V134.701ZM273.109 42.6929H323.898V89.0661H273.109V42.6929ZM375.421 134.701H324.632V88.3274H375.421V134.701ZM375.421 42.6929H426.211V89.0661H375.421V42.6929ZM476.994 134.701H426.204V88.3274H476.994V134.701ZM476.994 42.6929H527.784V89.0661H476.994V42.6929ZM578.572 134.701H527.782V88.3274H578.572V134.701ZM628.621 88.3274H578.572V42.6929H623.472C626.414 42.6929 628.627 44.9007 628.627 47.8478L628.621 88.3274Z" fill="black"/>
</svg>
