<svg width="700" height="700" viewBox="0 0 700 700" fill="none" xmlns="http://www.w3.org/2000/svg">
<path d="M458.674 216.497C424.146 185.576 377.682 170.787 331.227 175.931C255.715 184.291 195.246 245.243 187.45 320.866C182.807 365.864 196.508 408.049 227.096 442.832C253.597 472.966 268.183 513.206 268.183 556.115V559.696C268.183 566.146 273.409 571.357 279.843 571.357V606.338C279.843 612.788 285.07 617.998 291.504 617.998V652.98C291.504 659.429 296.73 664.64 303.164 664.64H396.448C402.882 664.64 408.108 659.429 408.108 652.98V617.998C414.542 617.998 419.768 612.788 419.768 606.338V571.357C426.202 571.357 431.429 566.146 431.429 559.696V556.162C431.429 514.72 446.811 474.154 475.9 438.834C500.553 408.929 513.052 375.056 513.052 338.148C513.052 291.777 493.229 247.442 458.669 216.495L458.674 216.497ZM384.792 641.323H314.83V618.002H384.792V641.323ZM396.453 594.681H303.17V571.36H396.453V594.681ZM457.904 424.012C427.212 461.258 410.154 503.97 408.291 548.034H291.359C289.62 502.474 273.18 459.904 244.624 427.432C218.075 397.219 206.644 362.17 210.658 323.248C217.342 258.476 269.121 206.258 333.789 199.112C374.226 194.609 413.08 206.972 443.116 233.858C472.745 260.396 489.736 298.408 489.736 338.146C489.736 369.941 479.325 398.021 457.904 424.012V424.012Z" fill="black"/>
<path d="M604.01 333.488L585.353 319.495L550.372 366.137C547.259 370.275 547.259 375.98 550.372 380.119L585.353 426.76L604.01 412.778L583.021 384.793H699.625V361.473H583.021L604.01 333.488Z" fill="black"/>
<path d="M95.6154 412.778L114.272 426.76L149.253 380.119C152.366 375.98 152.366 370.275 149.253 366.137L114.272 319.495L95.6154 333.488L116.604 361.473H0V384.793H116.604L95.6154 412.778Z" fill="black"/>
<path d="M349.813 256.529C311.229 256.529 279.85 287.908 279.85 326.492H303.171C303.171 300.771 324.092 279.85 349.813 279.85C375.533 279.85 396.454 300.771 396.454 326.492C396.454 352.213 375.533 373.133 349.813 373.133C343.379 373.133 338.152 378.344 338.152 384.794V466.417H361.473V395.486C394.518 389.91 419.775 361.097 419.775 326.492C419.775 287.908 388.396 256.529 349.813 256.529Z" fill="black"/>
<path d="M338.152 489.737H361.473V513.058H338.152V489.737Z" fill="black"/>
<path d="M338.152 0V93.2834L310.167 72.2946L296.175 90.9513L342.816 125.933C344.893 127.494 347.35 128.265 349.813 128.265C352.275 128.265 354.732 127.494 356.809 125.933L403.451 90.9513L389.458 72.2946L361.473 93.2834V0H338.152Z" fill="black"/>
<path d="M557.595 524.853L554.294 501.767L496.576 510.012C491.443 510.746 487.409 514.78 486.685 519.913L478.44 577.632L501.515 580.932L506.461 546.289L588.911 628.74L605.397 612.254L522.946 529.803L557.595 524.853Z" fill="black"/>
<path d="M124.493 223.68L182.212 215.435C187.344 214.701 191.379 210.666 192.102 205.534L200.348 147.815L177.272 144.515L172.327 179.158L89.8765 96.707L73.3907 113.193L155.841 195.643L121.209 200.589L124.493 223.68Z" fill="black"/>
<path d="M203.051 509.994L145.333 501.748L142.032 524.834L176.665 529.78L94.2141 612.23L110.7 628.716L193.15 546.265L198.096 580.908L221.171 577.608L212.926 519.889C212.207 514.762 208.183 510.738 203.051 509.994H203.051Z" fill="black"/>
<path d="M609.753 96.6973L527.303 179.148L522.358 144.505L499.282 147.805L507.528 205.524C508.251 210.641 512.285 214.675 517.418 215.425L575.137 223.67L578.437 200.584L543.805 195.639L626.255 113.188L609.753 96.6973Z" fill="black"/>
<path d="M653.357 629.663H676.678V652.984H653.357V629.663Z" fill="black"/>
<path d="M676.304 676.664L653.369 675.93L652.609 699.251L675.919 700L676.679 676.679H699.625V653.358H676.304V676.664Z" fill="black"/>
<path d="M629.263 675.879L630.013 652.579L653.333 653.329L652.584 676.628L629.263 675.879Z" fill="black"/>
<path d="M35.3544 629.663H58.6753V652.984H35.3544V629.663Z" fill="black"/>
<path d="M58.3021 676.664L35.3664 675.93L34.6064 699.251L57.9166 700L58.6766 676.679H81.6229V653.358H58.3021V676.664Z" fill="black"/>
<path d="M11.2913 675.891L12.0409 652.592L35.3618 653.341L34.6122 676.641L11.2913 675.891Z" fill="black"/>
</svg>
