<svg width="16" height="18" viewBox="0 0 16 18" fill="none" xmlns="http://www.w3.org/2000/svg">
<path d="M8 2.50067V1.50067" stroke="#000000" stroke-width="1.5" stroke-linecap="round" stroke-linejoin="round"/>
<path d="M12.2427 4.25866L12.95 3.55133" stroke="#000000" stroke-width="1.5" stroke-linecap="round" stroke-linejoin="round"/>
<path d="M14 8.50067H15" stroke="#000000" stroke-width="1.5" stroke-linecap="round" stroke-linejoin="round"/>
<path d="M12.2427 12.7433L12.95 13.4507" stroke="#000000" stroke-width="1.5" stroke-linecap="round" stroke-linejoin="round"/>
<path d="M3.75738 4.25866L3.05005 3.55133" stroke="#000000" stroke-width="1.5" stroke-linecap="round" stroke-linejoin="round"/>
<path d="M2 8.50067H1" stroke="#000000" stroke-width="1.5" stroke-linecap="round" stroke-linejoin="round"/>
<path d="M3.75738 12.7433L3.05005 13.4507" stroke="#000000" stroke-width="1.5" stroke-linecap="round" stroke-linejoin="round"/>
<path d="M6 11.966V13.4993C6 14.6039 6.89543 15.4993 8 15.4993C9.10457 15.4993 10 14.6039 10 13.4993V11.966" stroke="#000000" stroke-width="1.5" stroke-linecap="round" stroke-linejoin="round"/>
<path fill-rule="evenodd" clip-rule="evenodd" d="M8 12.5007C10.2091 12.5007 12 10.7098 12 8.50067C12 6.29153 10.2091 4.50067 8 4.50067C5.79086 4.50067 4 6.29153 4 8.50067C4 10.7098 5.79086 12.5007 8 12.5007Z" stroke="#000000" stroke-width="1.5" stroke-linecap="round" stroke-linejoin="round"/>
<path d="M8 15.5007V16.5007" stroke="#000000" stroke-width="1.5" stroke-linecap="round" stroke-linejoin="round"/>
</svg>
