<svg viewBox="0 0 24 24" fill="none" xmlns="http://www.w3.org/2000/svg">
<path d="M8.25 23.25H1.5C1.08579 23.25 0.75 22.9142 0.75 22.5V17.25" stroke="#000000" stroke-width="1.5" stroke-linecap="round" stroke-linejoin="round"/>
<path d="M8.25 17.25H0.75V11.25" stroke="#000000" stroke-width="1.5" stroke-linecap="round" stroke-linejoin="round"/>
<path d="M12.75 11.25H0.75V6C0.75 5.58579 1.08579 5.25 1.5 5.25H12C12.4142 5.25 12.75 5.58579 12.75 6V11.25" stroke="#000000" stroke-width="1.5" stroke-linecap="round" stroke-linejoin="round"/>
<path d="M1.5 5.25V3C1.5 2.58579 1.83579 2.25 2.25 2.25H4.5C4.91421 2.25 5.25 2.58579 5.25 3V5.25" stroke="#000000" stroke-width="1.5" stroke-linecap="round" stroke-linejoin="round"/>
<path d="M8.25 5.25V3C8.25 2.58579 8.58579 2.25 9 2.25H11.25C11.6642 2.25 12 2.58579 12 3V5.25" stroke="#000000" stroke-width="1.5" stroke-linecap="round" stroke-linejoin="round"/>
<path d="M12 17.25V15C12 14.5858 12.3358 14.25 12.75 14.25H15C15.4142 14.25 15.75 14.5858 15.75 15V17.25" stroke="#000000" stroke-width="1.5" stroke-linecap="round" stroke-linejoin="round"/>
<path d="M18.75 17.25V15C18.75 14.5858 19.0858 14.25 19.5 14.25H21.75C22.1642 14.25 22.5 14.5858 22.5 15V17.25" stroke="#000000" stroke-width="1.5" stroke-linecap="round" stroke-linejoin="round"/>
<path fill-rule="evenodd" clip-rule="evenodd" d="M11.25 18C11.25 17.5858 11.5858 17.25 12 17.25H22.5C22.9142 17.25 23.25 17.5858 23.25 18V22.5C23.25 22.9142 22.9142 23.25 22.5 23.25H12C11.5858 23.25 11.25 22.9142 11.25 22.5V18Z" stroke="#000000" stroke-width="1.5" stroke-linecap="round" stroke-linejoin="round"/>
</svg>

