<svg width="700" height="700" viewBox="0 0 700 700" fill="none" xmlns="http://www.w3.org/2000/svg">
<path d="M652.428 464.775C621.691 495.502 580.826 512.46 537.382 512.46C493.936 512.46 453.067 495.507 422.335 464.775L371.472 413.912L414.237 371.147L465.1 422.011C484.402 441.312 510.05 451.908 537.382 451.908C564.629 451.908 590.289 441.313 609.59 422.011C649.477 382.123 649.477 317.334 609.59 277.448C590.289 258.146 564.629 247.55 537.382 247.55C510.06 247.55 484.402 258.146 465.1 277.448L414.237 328.311L392.897 349.731L350.06 392.568L328.64 413.913L277.777 464.777C247.05 495.503 206.175 512.461 162.731 512.461C119.285 512.461 78.4162 495.508 47.6844 464.777C16.958 434.04 0 393.175 0 349.731C0 306.286 16.9526 265.416 47.6844 234.684C78.4108 203.958 119.286 187 162.731 187C206.176 187 247.045 203.953 277.777 234.684L328.64 285.548L285.875 328.312L235.012 277.449C215.71 258.147 190.051 247.551 162.731 247.551C135.483 247.551 109.824 258.147 90.5221 277.449C71.1461 296.825 60.5499 322.483 60.5499 349.731C60.5499 376.978 71.1459 402.71 90.5221 421.939C109.824 441.315 135.483 451.911 162.731 451.911C190.052 451.911 215.71 441.315 235.012 422.013L285.875 371.15L307.22 349.731L350.058 306.893L371.478 285.548L422.341 234.684C453.078 203.958 493.942 187 537.387 187C580.833 187 621.701 203.953 652.433 234.684C715.857 298.113 715.857 401.345 652.428 464.774L652.428 464.775Z" fill="black"/>
</svg>