<svg width="16" height="18" viewBox="0 0 16 18" fill="none" xmlns="http://www.w3.org/2000/svg">
<path fill-rule="evenodd" clip-rule="evenodd" d="M11 15.3421C11.0001 15.6544 10.8542 15.9489 10.6056 16.138C10.3571 16.3272 10.0344 16.3894 9.73333 16.3061L2.73333 14.3614C2.30091 14.2417 2.0011 13.8487 2 13.4001V2.65806C1.99993 2.3457 2.14583 2.05125 2.39439 1.86209C2.64295 1.67292 2.96562 1.61076 3.26667 1.69406L10.2667 3.95472C10.6998 4.07457 10.9998 4.46864 11 4.91806V15.3421Z" stroke="#000" stroke-width="1.5" stroke-linecap="round" stroke-linejoin="round"/>
<path d="M3 1.65808H13C13.5523 1.65808 14 2.1058 14 2.65808V13.1581C14 13.7104 13.5523 14.1581 13 14.1581H11" stroke="#000" stroke-width="1.5" stroke-linecap="round" stroke-linejoin="round"/>
</svg>
