<svg width="25" height="24" viewBox="0 0 25 24" fill="none" xmlns="http://www.w3.org/2000/svg">
<path d="M8.06348 9.22781L10.9355 6.51481C11.2572 6.29976 11.6355 6.18492 12.0225 6.18481H15.7065C16.3916 6.18458 17.0267 6.54314 17.3805 7.12981L17.7305 7.70781C18.0795 8.28343 18.1082 8.99805 17.8065 9.59981L17.4895 10.2338C17.0952 11.0229 16.2214 11.4502 15.3565 11.2768L12.1945 10.6448C12.025 10.6117 11.8493 10.6477 11.7065 10.7448C11.1058 11.1419 10.7749 11.8394 10.8475 12.5558C10.8754 12.8389 11.0603 13.0821 11.3255 13.1848L16.6745 15.2418C17.0863 15.4001 17.5395 15.4146 17.9605 15.2828L23.6695 13.4998" stroke="#000000" stroke-width="1.5" stroke-linecap="round" stroke-linejoin="round"/>
<path d="M23.6686 5.77089L19.3066 3.08389C18.9631 2.87418 18.5634 2.77505 18.1616 2.79989L11.1396 3.21289C10.7012 3.23767 10.2838 3.4092 9.95463 3.69989L6.45463 6.81489C6.19842 7.04213 6.00664 7.3329 5.89863 7.65789L5.22363 9.67089" stroke="#000000" stroke-width="1.5" stroke-linecap="round" stroke-linejoin="round"/>
<path d="M9.04354 12.2058H7.00654C6.36244 12.2038 5.80786 12.6599 5.68563 13.2923C5.56341 13.9247 5.90806 14.5547 6.50654 14.7928L8.56954 15.6188C9.16571 15.8587 9.50816 16.4875 9.38621 17.1185C9.26427 17.7494 8.71216 18.2054 8.06954 18.2058H6.04354" stroke="#000000" stroke-width="1.5" stroke-linecap="round" stroke-linejoin="round"/>
<path d="M7.54395 12.2058V11.4558" stroke="#000000" stroke-width="1.5" stroke-linecap="round" stroke-linejoin="round"/>
<path d="M7.54395 18.9558V18.2058" stroke="#000000" stroke-width="1.5" stroke-linecap="round" stroke-linejoin="round"/>
<path d="M8.83063 9.34384C6.23747 8.77731 3.58062 9.98433 2.30144 12.3101C1.02226 14.6358 1.42564 17.526 3.29274 19.4126C5.15984 21.2993 8.04565 21.7327 10.3846 20.4778C12.7235 19.2229 13.9581 16.5788 13.4186 13.9798" stroke="#000000" stroke-width="1.5" stroke-linecap="round" stroke-linejoin="round"/>
</svg>

