<svg id="editor" xmlns="http://www.w3.org/2000/svg" viewBox="0 0 24 24">
  <defs>
    <style>
      .a {
        fill:none;
        stroke:currentColor;
        stroke-linecap:round;
        stroke-linejoin:round;
        stroke-width:1.5px;
      }
    </style>
  </defs>
  <title>file-code-1</title>
  <path class="a" d="M22.5,21.753a1.5,1.5,0,0,1-1.5,1.5H3a1.5,1.5,0,0,1-1.5-1.5V2.253A1.5,1.5,0,0,1,3,.753H18.045a1.5,1.5,0,0,1,1.048.427l2.955,2.882A1.5,1.5,0,0,1,22.5,5.136Z"/>
  <path class="a" d="M10.5,8.253H9.75a1.409,1.409,0,0,0-1.5,1.294v1.247a1.256,1.256,0,0,1-.668,1.076L6,12.78l1.582.909a1.258,1.258,0,0,1,.668,1.076v1.248a1.408,1.408,0,0,0,1.5,1.293h.75"/>
  <path class="a" d="M13.5,8.253h.75a1.408,1.408,0,0,1,1.5,1.294v1.247a1.256,1.256,0,0,0,.668,1.076L18,12.78l-1.582.909a1.258,1.258,0,0,0-.668,1.076v1.248a1.408,1.408,0,0,1-1.5,1.293H13.5"/>
</svg>