<svg width="64" height="64" viewBox="0 0 64 64" fill="none" xmlns="http://www.w3.org/2000/svg">
<mask id="mask0_9233_420593" style="mask-type:luminance" maskUnits="userSpaceOnUse" x="2" y="6" width="60" height="52">
<path d="M61.7345 6H2.3999V57.2H61.7345V6Z" fill="white"/>
</mask>
<g mask="url(#mask0_9233_420593)">
<path d="M35.7783 38.7674C35.7783 40.9358 33.9011 42.2908 32.2384 42.2908C30.5757 42.2908 28.581 41.6171 28.581 38.7674V37.3815H26.3906V38.7674C26.3906 41.9233 29.015 44.4901 32.2384 44.4901C35.4619 44.4901 38.0862 41.9233 38.0862 38.7674V37.3815H35.7783V38.7674Z" fill="url(#paint0_linear_9233_420593)"/>
<path d="M17.3823 32.0748C17.3823 30.0042 19.1782 28.3202 21.3846 28.3202C23.5896 28.3202 25.3854 30.0056 25.3854 32.0748H27.9064C27.9064 28.6986 24.9823 25.953 21.3846 25.953C17.787 25.953 14.8613 28.6986 14.8613 32.0748H17.3823Z" fill="url(#paint1_linear_9233_420593)"/>
<path d="M38.1563 32.0748C38.1563 30.0042 39.9521 28.3202 42.1571 28.3202C44.3635 28.3202 46.1594 30.0056 46.1594 32.0748H48.6804C48.6804 28.6986 45.7547 25.953 42.1571 25.953C38.5594 25.953 35.6353 28.6986 35.6353 32.0748H38.1563Z" fill="url(#paint2_linear_9233_420593)"/>
<path fill-rule="evenodd" clip-rule="evenodd" d="M52.7485 24.0437V15.9065C52.7485 13.1642 52.4151 11.2616 51.7484 10.1984C51.0816 9.13532 49.6934 8.31564 47.5837 7.73937C46.9469 7.56053 46.6284 7.2724 46.6284 6.87498C46.6284 6.33845 47.3449 6.07019 48.7779 6.07019H50.9572C53.3257 6.07019 55.1219 6.80542 56.3459 8.2759C57.5699 9.74638 58.1819 11.8924 58.1819 14.7142V23.2986C58.1819 25.2857 58.3958 26.8158 58.8237 27.8888C59.2517 28.9619 60.0428 29.9653 61.1971 30.8993C61.5355 31.1775 61.7046 31.406 61.7046 31.5849C61.7046 31.7637 61.5355 31.9922 61.1971 32.2704C60.0229 33.2242 59.2268 34.2327 58.8088 35.2958C58.3909 36.3589 58.1819 37.884 58.1819 39.8712V48.4257C58.1819 51.2673 57.5649 53.4233 56.3309 54.8938C55.097 56.3643 53.3058 57.0995 50.9572 57.0995H48.7779C47.8425 57.0995 47.2504 57.0548 47.0016 56.9654C46.7528 56.876 46.6284 56.6524 46.6284 56.2947C46.6284 55.798 46.9568 55.4701 47.6136 55.3111L48.8078 55.0429C51.4349 54.4467 52.7485 51.8535 52.7485 47.2633V39.126C52.7485 36.0459 53.4948 33.8701 54.9875 32.5983L55.5547 32.1214C55.8334 31.8829 55.9727 31.7041 55.9727 31.5849C55.9727 31.4458 55.8334 31.2669 55.5547 31.0483L54.9875 30.5714C53.4948 29.2997 52.7485 27.1238 52.7485 24.0437Z" fill="url(#paint3_linear_9233_420593)"/>
<path fill-rule="evenodd" clip-rule="evenodd" d="M11.356 23.9735V15.8363C11.356 13.094 11.6894 11.1914 12.3561 10.1282C13.0229 9.06513 14.4111 8.24545 16.5207 7.66918C17.1576 7.49034 17.4761 7.20221 17.4761 6.80479C17.4761 6.26826 16.7596 6 15.3266 6H13.1473C10.7788 6 8.98269 6.73523 7.75867 8.20571C6.53465 9.67619 5.92266 11.8223 5.92266 14.644V23.2284C5.92266 25.2155 5.7087 26.7456 5.2808 27.8186C4.85289 28.8917 4.06177 29.8952 2.90741 30.8291C2.56907 31.1073 2.3999 31.3358 2.3999 31.5147C2.3999 31.6935 2.56907 31.922 2.90741 32.2002C4.08167 33.154 4.87777 34.1625 5.29572 35.2256C5.71368 36.2887 5.92266 37.8138 5.92266 39.801V48.3555C5.92266 51.1971 6.53963 53.3531 7.7736 54.8236C9.00757 56.2941 10.7987 57.0293 13.1473 57.0293H15.3266C16.262 57.0293 16.8541 56.9846 17.1029 56.8952C17.3517 56.8058 17.4761 56.5822 17.4761 56.2246C17.4761 55.7278 17.1477 55.3999 16.4909 55.2409L15.2967 54.9727C12.6696 54.3765 11.356 51.7834 11.356 47.1931V39.0558C11.356 35.9757 10.6097 33.7999 9.11702 32.5281L8.5498 32.0512C8.27116 31.8127 8.13184 31.6339 8.13184 31.5147C8.13184 31.3756 8.27116 31.1967 8.5498 30.9781L9.11702 30.5012C10.6097 29.2295 11.356 27.0536 11.356 23.9735Z" fill="url(#paint4_linear_9233_420593)"/>
</g>
<mask id="mask1_9233_420593" style="mask-type:alpha" maskUnits="userSpaceOnUse" x="32" y="0" width="32" height="64">
<rect x="32" width="32" height="64" fill="#D9D9D9"/>
</mask>
<g mask="url(#mask1_9233_420593)">
<mask id="mask2_9233_420593" style="mask-type:luminance" maskUnits="userSpaceOnUse" x="2" y="6" width="60" height="52">
<path d="M61.7299 6H2.3999V57.2H61.7299V6Z" fill="white"/>
</mask>
<g mask="url(#mask2_9233_420593)">
<path d="M35.7761 38.7674C35.7761 40.9358 33.8991 42.2908 32.2365 42.2908C30.5739 42.2908 28.5794 41.6171 28.5794 38.7674V37.3815H26.3892V38.7674C26.3892 41.9233 29.0134 44.4901 32.2365 44.4901C35.4598 44.4901 38.0839 41.9233 38.0839 38.7674V37.3815H35.7761V38.7674Z" fill="white"/>
<path d="M38.1536 32.0748C38.1536 30.0042 39.9493 28.3202 42.1541 28.3202C44.3603 28.3202 46.1561 30.0056 46.1561 32.0748H48.6769C48.6769 28.6986 45.7514 25.953 42.1541 25.953C38.5567 25.953 35.6328 28.6986 35.6328 32.0748H38.1536Z" fill="white"/>
<path fill-rule="evenodd" clip-rule="evenodd" d="M52.7449 24.0437V15.9065C52.7449 13.1642 52.4115 11.2616 51.7448 10.1984C51.0781 9.13532 49.69 8.31564 47.5805 7.73937C46.9437 7.56053 46.6252 7.2724 46.6252 6.87498C46.6252 6.33845 47.3417 6.07019 48.7746 6.07019H50.9537C53.322 6.07019 55.1181 6.80542 56.342 8.2759C57.5659 9.74638 58.1778 11.8924 58.1778 14.7142V23.2986C58.1778 25.2857 58.3917 26.8158 58.8196 27.8888C59.2476 28.9619 60.0386 29.9653 61.1928 30.8993C61.5312 31.1775 61.7003 31.406 61.7003 31.5849C61.7003 31.7637 61.5312 31.9922 61.1928 32.2704C60.0187 33.2242 59.2227 34.2327 58.8047 35.2958C58.3868 36.3589 58.1778 37.884 58.1778 39.8712V48.4257C58.1778 51.2673 57.5609 53.4233 56.327 54.8938C55.0932 56.3643 53.3021 57.0995 50.9537 57.0995H48.7746C47.8393 57.0995 47.2472 57.0548 46.9984 56.9654C46.7496 56.876 46.6252 56.6524 46.6252 56.2947C46.6252 55.798 46.9536 55.4701 47.6104 55.3111L48.8045 55.0429C51.4314 54.4467 52.7449 51.8535 52.7449 47.2633V39.126C52.7449 36.0459 53.4911 33.8701 54.9837 32.5983L55.5509 32.1214C55.8295 31.8829 55.9688 31.7041 55.9688 31.5849C55.9688 31.4458 55.8295 31.2669 55.5509 31.0483L54.9837 30.5714C53.4911 29.2997 52.7449 27.1238 52.7449 24.0437Z" fill="white"/>
</g>
</g>
<defs>
<linearGradient id="paint0_linear_9233_420593" x1="32.2384" y1="37.3815" x2="32.2384" y2="44.4901" gradientUnits="userSpaceOnUse">
<stop stop-color="#2200FF"/>
<stop offset="1" stop-color="#9E00FF"/>
</linearGradient>
<linearGradient id="paint1_linear_9233_420593" x1="21.3839" y1="25.953" x2="21.3839" y2="32.0748" gradientUnits="userSpaceOnUse">
<stop stop-color="#2200FF"/>
<stop offset="1" stop-color="#9E00FF"/>
</linearGradient>
<linearGradient id="paint2_linear_9233_420593" x1="42.1578" y1="25.953" x2="42.1578" y2="32.0748" gradientUnits="userSpaceOnUse">
<stop stop-color="#2200FF"/>
<stop offset="1" stop-color="#9E00FF"/>
</linearGradient>
<linearGradient id="paint3_linear_9233_420593" x1="54.1665" y1="6.07019" x2="54.1665" y2="57.0995" gradientUnits="userSpaceOnUse">
<stop stop-color="#2200FF"/>
<stop offset="1" stop-color="#9E00FF"/>
</linearGradient>
<linearGradient id="paint4_linear_9233_420593" x1="9.93801" y1="6" x2="9.93801" y2="57.0293" gradientUnits="userSpaceOnUse">
<stop stop-color="#2200FF"/>
<stop offset="1" stop-color="#9E00FF"/>
</linearGradient>
</defs>
</svg>

