<svg width="97" height="18" viewBox="0 0 97 18" fill="none" xmlns="http://www.w3.org/2000/svg">
<path fill-rule="evenodd" clip-rule="evenodd" d="M58.6542 2.47101C58.6542 3.78502 59.3967 4.44203 60.8816 4.44203C62.2015 4.44203 62.8615 3.78502 62.8615 2.47101C62.8615 1.157 62.2015 0.5 60.8816 0.5C59.3967 0.5 58.6542 1.157 58.6542 2.47101ZM29.2342 12.5035C30.501 14.4561 32.912 14.7815 36.4673 13.4798C37.7143 18.6052 25.2436 19.0934 25.2436 11.2832C25.7299 4.2639 31.9778 4.2639 34.4719 5.66965C37.3297 7.12871 37.7143 10.7951 35.2202 12.0154C34.4619 12.4263 32.4666 12.5891 29.2342 12.5035ZM29.2342 9.8188C29.9825 6.64592 32.9754 7.86626 32.9754 9.0866C32.9754 9.09909 32.9761 9.11286 32.9768 9.12772C32.9899 9.40307 33.0206 10.0504 29.2342 9.8188ZM46.1844 8.18759C44.454 7.94695 43.4507 8.19585 43.1742 8.9343C42.8978 9.67275 42.8142 12.3277 42.9234 16.8992C41.0689 17.2015 39.8983 16.8696 39.4115 15.9036C38.9248 14.9376 38.7575 12.6145 38.9098 8.9343C39.0771 6.94307 39.9132 5.69855 41.4183 5.20074C42.4318 4.86552 44.8442 4.67937 45.9336 5.69855C46.2858 6.0281 46.3694 6.85778 46.1844 8.18759ZM64.585 16.6484C62.8528 17.8261 60.1986 17.0789 59.5535 16.1535C58.7136 14.9487 58.462 11.4844 58.7987 5.76041C60.6007 5.55321 61.7747 5.71818 62.3208 6.25532C63.0188 6.94192 63.0173 9.85062 63.0163 11.7613V11.7614V11.7614V11.7614V11.7615V11.7615V11.7615C63.0158 12.6052 63.0155 13.2543 63.0755 13.4315C63.3319 14.1881 64.0028 14.4355 65.0881 14.1739C65.1012 15.5866 64.9335 16.4114 64.585 16.6484ZM50.9616 11.0117C50.9616 7.6025 54.9008 7.6025 56.8704 9.06359C56.8704 9.00937 56.8744 8.93542 56.8792 8.84543C56.9404 7.70939 57.1392 4.01571 51.2078 5.14792C48.7458 5.88106 47.0224 8.56925 47.0224 11.0232C47.0224 13.9456 48.4996 15.9007 51.2078 16.8782C57.8552 17.8557 56.8704 12.9598 56.8704 12.9598C55.147 14.1774 50.9616 14.4209 50.9616 11.0117ZM12.932 5.22875C16.5233 4.85404 17.6475 6.78096 18.3102 7.91692C18.5106 8.26046 18.6688 8.53166 18.8403 8.64498C18.8403 8.64498 20.5636 6.93686 20.8097 5.22875C24.7486 5.06608 24.7486 7.09954 20.8097 11.3291C22.2868 13.6066 23.5998 14.8267 24.7486 14.9894C24.5024 16.9415 22.7076 17.3991 21.0559 16.6975C19.3327 15.9654 18.1018 13.5253 18.1018 13.5253C17.1171 13.5253 16.1323 16.6975 16.1323 16.9415C11.8652 17.1042 11.7832 14.9894 15.8862 10.5971C13.9167 8.31962 12.932 6.53017 12.932 5.22875ZM11.2237 13.4798C7.66842 14.7815 5.25741 14.4561 3.99063 12.5035C7.22296 12.5891 9.21828 12.4263 9.97658 12.0154C12.4707 10.7951 12.0861 7.12871 9.22834 5.66965C6.73419 4.2639 0.48631 4.2639 0 11.2832C0 19.0934 12.4707 18.6052 11.2237 13.4798ZM7.73185 9.0866C7.73185 7.86626 4.73888 6.64592 3.99063 9.8188C7.77699 10.0504 7.74627 9.40307 7.73321 9.12772L7.73321 9.12769C7.7325 9.11285 7.73185 9.09908 7.73185 9.0866ZM75.7255 8.95989C76.9492 3.51386 67.4042 4.00896 66.4252 7.96971C65.7868 11.8444 68.3754 12.2445 70.2534 12.5347C71.2549 12.6895 72.0544 12.813 72.0544 13.4157C72.0544 15.1486 67.8937 14.1584 66.67 13.4157C65.2015 18.3667 74.257 18.8618 75.7255 14.6535C76.3499 12.6536 75.7707 11.1496 74.5018 10.4452C73.735 10.0195 72.9201 9.9249 72.1878 9.83991C71.282 9.73479 70.5024 9.64432 70.0964 8.95989C69.6069 7.96971 72.5438 7.22707 75.7255 8.95989ZM82.088 13.9104C82.14 14.9292 82.1961 16.0267 82.1961 17.1523C77.8458 17.8097 77.9018 15.1862 77.977 11.6616C77.9872 11.1844 77.9977 10.6907 77.9977 10.1864C77.9977 4.4643 85.1596 3.46916 87.3822 6.95215C89.6049 3.71795 96.5198 3.96673 96.5198 11.0942V17.1523C92.4078 17.6544 92.3214 15.6596 92.3214 13.1718C92.3214 12.8015 92.3242 12.4538 92.3268 12.128C92.3488 9.38831 92.3584 8.19607 90.5927 8.19607C89.1503 8.37771 89.1559 9.83895 89.1679 12.9721C89.1723 14.1304 89.1776 15.5172 89.1109 17.1523C85.4065 17.6499 85.4065 15.9084 85.4065 14.1669C85.4065 13.8148 85.4104 13.465 85.4142 13.1217C85.4433 10.4661 85.4683 8.19607 83.6778 8.19607C81.7963 8.19607 81.9216 10.6509 82.088 13.9104Z" fill="#000"/>
</svg>
