<svg width="28" height="24" viewBox="0 0 28 24" fill="none" xmlns="http://www.w3.org/2000/svg">
<path d="M15.6461 15.3598C15.6461 16.3762 14.7662 17.0113 13.9868 17.0113C13.2074 17.0113 12.2724 16.6955 12.2724 15.3598V14.7101H11.2457V15.3598C11.2457 16.8391 12.4758 18.0422 13.9868 18.0422C15.4978 18.0422 16.728 16.8391 16.728 15.3598V14.7101H15.6461V15.3598Z" fill="#000"/>
<path d="M10.9332 11C10.9332 11.9706 10.0914 12.7599 9.0571 12.7599C8.02353 12.7599 7.18172 11.9699 7.18172 11H6C6 12.5826 7.37071 13.8696 9.0571 13.8696C10.7435 13.8696 12.1149 12.5826 12.1149 11H10.9332Z" fill="#000"/>
<path d="M20.9332 11C20.9332 11.9706 20.0914 12.7599 19.0578 12.7599C18.0235 12.7599 17.1817 11.9699 17.1817 11H16C16 12.5826 17.3714 13.8696 19.0578 13.8696C20.7442 13.8696 22.1149 12.5826 22.1149 11H20.9332Z" fill="#000"/>
<path fill-rule="evenodd" clip-rule="evenodd" d="M23.6008 8.45799V4.64365C23.6008 3.35822 23.4445 2.46635 23.132 1.96801C22.8195 1.46968 22.1688 1.08545 21.1798 0.815328C20.8813 0.731496 20.732 0.596435 20.732 0.410141C20.732 0.158644 21.0679 0.0328979 21.7396 0.0328979H22.7612C23.8714 0.0328979 24.7133 0.377536 25.2871 1.06682C25.8608 1.75611 26.1477 2.76208 26.1477 4.08477V8.10869C26.1477 9.04016 26.248 9.75738 26.4486 10.2604C26.6492 10.7634 27.02 11.2338 27.5611 11.6715C27.7197 11.8019 27.799 11.9091 27.799 11.9929C27.799 12.0767 27.7197 12.1838 27.5611 12.3143C27.0107 12.7614 26.6375 13.2341 26.4416 13.7324C26.2457 14.2307 26.1477 14.9456 26.1477 15.8771V19.8871C26.1477 21.2191 25.8585 22.2297 25.2801 22.919C24.7017 23.6083 23.862 23.9529 22.7612 23.9529H21.7396C21.3011 23.9529 21.0236 23.9319 20.907 23.89C20.7903 23.8481 20.732 23.7433 20.732 23.5757C20.732 23.3428 20.886 23.1891 21.1938 23.1146L21.7536 22.9888C22.9851 22.7094 23.6008 21.4938 23.6008 19.3422V15.5278C23.6008 14.084 23.9506 13.0641 24.6504 12.4679L24.9162 12.2444C25.0469 12.1326 25.1122 12.0488 25.1122 11.9929C25.1122 11.9277 25.0469 11.8439 24.9162 11.7414L24.6504 11.5179C23.9506 10.9217 23.6008 9.90177 23.6008 8.45799Z" fill="#000"/>
<path fill-rule="evenodd" clip-rule="evenodd" d="M4.1982 8.42509V4.61075C4.1982 3.32532 4.35446 2.43345 4.667 1.93512C4.97953 1.43678 5.63025 1.05256 6.61916 0.78243C6.9177 0.698598 7.06697 0.563537 7.06697 0.377243C7.06697 0.125746 6.73112 0 6.0594 0H5.03784C3.92764 0 3.08568 0.344638 2.51192 1.03393C1.93816 1.72321 1.65129 2.72918 1.65129 4.05187V8.0758C1.65129 9.00726 1.551 9.72448 1.35042 10.2275C1.14983 10.7305 0.778996 11.2009 0.237892 11.6386C0.0792921 11.7691 -6.37775e-06 11.8762 -6.37775e-06 11.96C-6.37775e-06 12.0438 0.0792921 12.151 0.237892 12.2814C0.788326 12.7285 1.1615 13.2012 1.35741 13.6995C1.55333 14.1978 1.65129 14.9127 1.65129 15.8442V19.8542C1.65129 21.1862 1.94049 22.1968 2.51892 22.8861C3.09734 23.5754 3.93697 23.92 5.03784 23.92H6.0594C6.49788 23.92 6.77543 23.899 6.89205 23.8571C7.00866 23.8152 7.06697 23.7104 7.06697 23.5428C7.06697 23.3099 6.91304 23.1562 6.60517 23.0817L6.04541 22.9559C4.81393 22.6765 4.1982 21.4609 4.1982 19.3093V15.4949C4.1982 14.0511 3.84835 13.0312 3.14865 12.435L2.88276 12.2115C2.75215 12.0997 2.68684 12.0159 2.68684 11.96C2.68684 11.8948 2.75215 11.811 2.88276 11.7085L3.14865 11.485C3.84835 10.8888 4.1982 9.86887 4.1982 8.42509Z" fill="#000"/>
</svg>
