<svg width="24" height="24" viewBox="0 0 24 24" fill="none" xmlns="http://www.w3.org/2000/svg">
<path d="M0.75 9.748V5.248C0.75 4.41957 1.42157 3.748 2.25 3.748H8.25" stroke="black" stroke-width="1.5" stroke-linecap="round" stroke-linejoin="round"/>
<path d="M23.25 9.748V5.248C23.25 4.41957 22.5784 3.748 21.75 3.748H15.75" stroke="black" stroke-width="1.5" stroke-linecap="round" stroke-linejoin="round"/>
<path d="M0.75 14.248V18.748C0.75 19.5764 1.42157 20.248 2.25 20.248H8.25" stroke="black" stroke-width="1.5" stroke-linecap="round" stroke-linejoin="round"/>
<path d="M23.25 14.248V18.748C23.25 19.5764 22.5784 20.248 21.75 20.248H15.75" stroke="black" stroke-width="1.5" stroke-linecap="round" stroke-linejoin="round"/>
<path fill-rule="evenodd" clip-rule="evenodd" d="M5.25 9.748C5.25 8.91957 5.92157 8.248 6.75 8.248H17.25C18.0784 8.248 18.75 8.91957 18.75 9.748V14.248C18.75 15.0764 18.0784 15.748 17.25 15.748H6.75C5.92157 15.748 5.25 15.0764 5.25 14.248V9.748Z" stroke="black" stroke-width="1.5" stroke-linecap="round" stroke-linejoin="round"/>
</svg>
