<svg id="external-site-linkedin" viewBox="0 0 16 17" fill="none" xmlns="http://www.w3.org/2000/svg">
<path fill-rule="evenodd" clip-rule="evenodd" d="M3.35632 16.5V5.91856H0.100448V16.5H3.35632ZM3.35632 2.16791C3.33693 1.22098 2.70864 0.5 1.68799 0.5C0.667066 0.5 0 1.22098 0 2.16791C0 3.09427 0.647673 3.8361 1.64894 3.8361H1.66833C2.70864 3.8361 3.35632 3.09427 3.35632 2.16791ZM8.66809 16.5V10.4712C8.66809 10.1486 8.6913 9.82591 8.78576 9.5959C9.044 8.95091 9.63173 8.28325 10.6186 8.28325C11.9114 8.28325 12.7222 9.02024 12.7222 10.4712V16.5H16V10.3099C16 6.99392 14.2378 5.45094 11.8872 5.45094C9.95993 5.45094 9.11397 6.53326 8.64424 7.26993L8.66777 5.85471H5.3956C5.44266 6.86771 5.3956 16.5 5.3956 16.5H8.66809Z" fill="#000000"/>
</svg>
