<!-- TODO: Use a proper icon -->

<svg width="20" height="20" viewBox="0 0 20 20" fill="none" xmlns="http://www.w3.org/2000/svg">
<path d="M20.0041 9.4999C19.9918 9.16212 19.882 8.83513 19.688 8.55834C19.494 8.28156 19.224 8.0668 18.9107 7.93996C18.5974 7.81311 18.2541 7.77961 17.9222 7.84347C17.5903 7.90734 17.284 8.06585 17.0401 8.2999C15.675 7.37196 14.0703 6.8593 12.4201 6.8239L13.2001 3.0799L15.7681 3.6199C15.7986 3.90368 15.9293 4.16729 16.1367 4.3634C16.344 4.55952 16.6145 4.6753 16.8996 4.68996C17.1846 4.70463 17.4655 4.61722 17.6919 4.44342C17.9183 4.26962 18.0754 4.02082 18.1349 3.74167C18.1944 3.46252 18.1524 3.17131 18.0165 2.92031C17.8807 2.6693 17.6598 2.47495 17.3935 2.37212C17.1273 2.2693 16.8331 2.26475 16.5638 2.35927C16.2945 2.4538 16.0677 2.64123 15.9241 2.8879L12.9841 2.2999C12.936 2.28935 12.8863 2.28845 12.8379 2.29725C12.7895 2.30605 12.7432 2.32438 12.7019 2.35117C12.6607 2.37795 12.6251 2.41267 12.5973 2.45331C12.5695 2.49395 12.5501 2.53969 12.5401 2.5879L11.6521 6.7519C9.98156 6.77709 8.35483 7.29013 6.9721 8.2279C6.78711 8.05384 6.56649 7.92209 6.32551 7.84178C6.08454 7.76146 5.82899 7.7345 5.57657 7.76277C5.32414 7.79103 5.08088 7.87385 4.86364 8.00547C4.6464 8.1371 4.46038 8.31438 4.31847 8.52505C4.17656 8.73571 4.08215 8.97471 4.04179 9.22549C4.00143 9.47626 4.01608 9.73281 4.08472 9.97737C4.15337 10.2219 4.27437 10.4486 4.43933 10.6418C4.6043 10.8349 4.80929 10.9899 5.0401 11.0959C5.02659 11.2716 5.02659 11.4482 5.0401 11.6239C5.0401 14.3119 8.1721 16.4959 12.0361 16.4959C15.9001 16.4959 19.0321 14.3119 19.0321 11.6239C19.0456 11.4482 19.0456 11.2716 19.0321 11.0959C19.3282 10.9487 19.5766 10.7207 19.7486 10.4383C19.9207 10.1559 20.0092 9.83054 20.0041 9.4999ZM8.0041 10.6999C8.0041 10.4626 8.07448 10.2306 8.20634 10.0332C8.3382 9.83588 8.52561 9.68207 8.74488 9.59125C8.96415 9.50042 9.20543 9.47666 9.43821 9.52296C9.67099 9.56926 9.88481 9.68355 10.0526 9.85137C10.2205 10.0192 10.3347 10.233 10.381 10.4658C10.4273 10.6986 10.4036 10.9398 10.3128 11.1591C10.2219 11.3784 10.0681 11.5658 9.87079 11.6977C9.67345 11.8295 9.44144 11.8999 9.2041 11.8999C9.04652 11.8999 8.89047 11.8689 8.74488 11.8086C8.59929 11.7483 8.467 11.6599 8.35557 11.5484C8.24414 11.437 8.15575 11.3047 8.09545 11.1591C8.03514 11.0135 8.0041 10.8575 8.0041 10.6999ZM14.9761 13.9999C14.1247 14.6415 13.0772 14.968 12.0121 14.9239C10.947 14.968 9.89947 14.6415 9.0481 13.9999C8.99707 13.9377 8.971 13.8588 8.97494 13.7785C8.97889 13.6981 9.01257 13.6221 9.06945 13.5652C9.12632 13.5084 9.20232 13.4747 9.28266 13.4707C9.36299 13.4668 9.44193 13.4929 9.5041 13.5439C10.2256 14.0731 11.1062 14.3398 12.0001 14.2999C12.8951 14.3486 13.7798 14.0903 14.5081 13.5679C14.5718 13.5058 14.6575 13.4716 14.7463 13.4727C14.7904 13.4733 14.8338 13.4825 14.8743 13.4999C14.9147 13.5172 14.9514 13.5424 14.9821 13.5739C15.0128 13.6054 15.0371 13.6427 15.0534 13.6836C15.0697 13.7244 15.0778 13.7681 15.0773 13.8121C15.0767 13.8562 15.0675 13.8996 15.0501 13.9401C15.0328 13.9805 15.0076 14.0172 14.9761 14.0479V13.9999ZM14.7601 11.9479C14.5228 11.9479 14.2908 11.8775 14.0934 11.7457C13.8961 11.6138 13.7423 11.4264 13.6514 11.2071C13.5606 10.9879 13.5369 10.7466 13.5832 10.5138C13.6295 10.281 13.7438 10.0672 13.9116 9.89937C14.0794 9.73155 14.2932 9.61726 14.526 9.57096C14.7588 9.52466 15 9.54842 15.2193 9.63925C15.4386 9.73007 15.626 9.88388 15.7579 10.0812C15.8897 10.2786 15.9601 10.5106 15.9601 10.7479C15.9666 10.9105 15.94 11.0727 15.8819 11.2247C15.8237 11.3767 15.7353 11.5153 15.6219 11.632C15.5086 11.7487 15.3726 11.8412 15.2224 11.9037C15.0722 11.9663 14.9108 11.9977 14.7481 11.9959L14.7601 11.9479Z" fill="#000000"/>
</svg>
