<svg width="48" height="48" viewBox="0 0 48 48" fill="none" xmlns="http://www.w3.org/2000/svg">
  <path d="M36.2063 5.25C36.6963 5.24605 37.1824 5.33898 37.6364 5.52345C38.0905 5.70792 38.5036 5.9803 38.8521 6.32494C39.2006 6.66957 39.4775 7.07967 39.667 7.53167C39.8565 7.98366 39.9548 8.46865 39.9563 8.95875V41.25L36.0375 37.83L33.8213 35.8125L31.5 33.6713L32.4675 37.0013H11.7938C11.3037 37.0052 10.8176 36.9123 10.3636 36.7278C9.90949 36.5433 9.49635 36.271 9.14788 35.9263C8.79941 35.5817 8.52248 35.1716 8.333 34.7196C8.14351 34.2676 8.04522 33.7826 8.04375 33.2925V8.95875C8.04522 8.46865 8.14351 7.98366 8.333 7.53167C8.52248 7.07967 8.79941 6.66957 9.14788 6.32494C9.49635 5.9803 9.90949 5.70792 10.3636 5.52345C10.8176 5.33898 11.3037 5.24605 11.7938 5.25H36.2063ZM36.2063 2.8125H11.7938C10.1613 2.8115 8.59507 3.45801 7.43863 4.61023C6.2822 5.76245 5.62996 7.32629 5.625 8.95875V33.2963C5.62997 34.9294 6.28271 36.4938 7.43996 37.6461C8.5972 38.7984 10.1644 39.4445 11.7975 39.4425H34.1737L34.38 39.6338L34.4025 39.6525H34.425L38.3438 43.0725L42.375 46.6125V8.95875C42.37 7.32629 41.7178 5.76245 40.5614 4.61023C39.4049 3.45801 37.8387 2.8115 36.2063 2.8125Z" fill="#000"/>
  <path d="M27.8608 27.4161C28.4083 28.1024 29.0645 28.8749 29.0645 28.8749C33.092 28.7474 34.6408 26.1374 34.6408 26.1374C34.5808 22.4826 33.6827 18.8904 32.0158 15.6374C30.5417 14.5032 28.755 13.8488 26.897 13.7624L26.642 14.0511C29.7395 14.9886 31.1795 16.3386 31.1795 16.3386C29.4806 15.4143 27.6189 14.8273 25.697 14.6099C24.4736 14.4773 23.2388 14.4899 22.0183 14.6474C21.9136 14.6509 21.8095 14.6634 21.707 14.6849C20.282 14.8435 18.8903 15.2231 17.582 15.8099C16.892 16.1249 16.4983 16.3311 16.4983 16.3311C16.4983 16.3311 17.9983 14.9099 21.2908 13.9724L21.107 13.7549C19.2491 13.8413 17.4624 14.4957 15.9883 15.6299C14.3213 18.8829 13.4233 22.4751 13.3633 26.1299C13.3633 26.1299 14.8933 28.7549 18.9208 28.8674C18.9208 28.8674 19.5958 28.0574 20.1433 27.3674C17.8295 26.6849 16.9558 25.2449 16.9558 25.2449C16.9558 25.2449 17.1395 25.3724 17.4658 25.5524C17.4862 25.574 17.5104 25.5917 17.537 25.6049C17.5933 25.6424 17.6458 25.6574 17.702 25.6949C18.1314 25.9287 18.5761 26.1329 19.0333 26.3061C19.9007 26.6438 20.7968 26.9024 21.7108 27.0786C23.27 27.3682 24.8691 27.3682 26.4283 27.0786C27.3297 26.9212 28.2103 26.662 29.0533 26.3061C29.7896 26.0321 30.4928 25.6761 31.1495 25.2449C31.1495 25.2449 30.2495 26.7524 27.8608 27.4161ZM21.1108 24.9074C20.0983 24.9074 19.2658 23.9811 19.2658 22.8486C19.2346 22.5881 19.2591 22.324 19.3375 22.0736C19.4159 21.8232 19.5465 21.5923 19.7206 21.3961C19.8948 21.1999 20.1086 21.0428 20.3479 20.9352C20.5872 20.8277 20.8465 20.772 21.1089 20.772C21.3713 20.772 21.6307 20.8277 21.87 20.9352C22.1093 21.0428 22.323 21.1999 22.4972 21.3961C22.6714 21.5923 22.8019 21.8232 22.8803 22.0736C22.9587 22.324 22.9832 22.5881 22.952 22.8486C22.9667 23.1056 22.9305 23.3629 22.8454 23.6058C22.7603 23.8487 22.6281 24.0724 22.4563 24.2641C22.2845 24.4558 22.0765 24.6116 21.8443 24.7226C21.6122 24.8337 21.3603 24.8977 21.1033 24.9111L21.1108 24.9074ZM27.707 24.9074C26.6908 24.9111 25.8733 23.9999 25.8733 22.8524C25.9124 22.496 26.0539 22.1586 26.2806 21.8809C26.5073 21.6032 26.8096 21.3971 27.151 21.2875C27.4923 21.1779 27.8581 21.1695 28.2041 21.2633C28.5501 21.3571 28.8616 21.5491 29.1008 21.816C29.3401 22.083 29.4969 22.4136 29.5524 22.7678C29.6078 23.1219 29.5595 23.4846 29.4133 23.8119C29.2671 24.1393 29.0292 24.4173 28.7284 24.6123C28.4276 24.8074 28.0768 24.9112 27.7183 24.9111L27.707 24.9074Z" fill="#000"/>
  </svg>
  