<svg id="features-strongly-typed" viewBox="0 0 64 64" fill="none" xmlns="http://www.w3.org/2000/svg"> <path fill-rule="evenodd" clip-rule="evenodd" d="M2 19.4947C2 18.6662 2.67157 17.9947 3.5 17.9947H60.5C61.3284 17.9947 62 18.6662 62 19.4947V44.4947C62 45.3231 61.3284 45.9947 60.5 45.9947H3.5C2.67157 45.9947 2 45.3231 2 44.4947V19.4947Z" stroke="#26282D" stroke-width="2" stroke-linecap="round" stroke-linejoin="round"/> <path d="M46 49.9947V13.9947" stroke="#26282D" stroke-width="2" stroke-linecap="round" stroke-linejoin="round"/> <path d="M34 61.9947C40.6274 61.9947 46 56.6221 46 49.9947C46 56.6221 51.3726 61.9947 58 61.9947" stroke="#26282D" stroke-width="2" stroke-linecap="round" stroke-linejoin="round"/> <path d="M34 1.99466C40.6274 1.99466 46 7.36724 46 13.9947C46 7.36724 51.3726 1.99466 58 1.99466" stroke="#26282D" stroke-width="2" stroke-linecap="round" stroke-linejoin="round"/> </svg>
