<svg id="features-functional" viewBox="0 0 64 64" fill="none" xmlns="http://www.w3.org/2000/svg"> <path d="M20 10.0027V26.0027" stroke="#26282D" stroke-width="2" stroke-linecap="round" stroke-linejoin="round"/> <path d="M12 18.0027H28" stroke="#26282D" stroke-width="2" stroke-linecap="round" stroke-linejoin="round"/> <path d="M50 28.0027L38 40.0027" stroke="#26282D" stroke-width="2" stroke-linecap="round" stroke-linejoin="round"/> <path d="M38 28.0027L50 40.0027" stroke="#26282D" stroke-width="2" stroke-linecap="round" stroke-linejoin="round"/> <path d="M14 46.0027H28" stroke="#26282D" stroke-width="2" stroke-linecap="round" stroke-linejoin="round"/> <path d="M21 38.0027C21.5523 38.0027 22 38.4504 22 39.0027" stroke="#26282D" stroke-width="2" stroke-linecap="round" stroke-linejoin="round"/> <path d="M20 39.0027C20 38.4504 20.4477 38.0027 21 38.0027" stroke="#26282D" stroke-width="2" stroke-linecap="round" stroke-linejoin="round"/> <path d="M21 40C20.7346 40.0007 20.4798 39.8956 20.2921 39.7079C20.1044 39.5202 19.9993 39.2654 20 39" stroke="#26282D" stroke-width="2" stroke-linecap="round" stroke-linejoin="round"/> <path d="M22 39.0027C22 39.2676 21.8946 39.5217 21.7069 39.7088C21.5193 39.8959 21.265 40.0007 21 40" stroke="#26282D" stroke-width="2" stroke-linecap="round" stroke-linejoin="round"/> <path d="M21 52C21.5523 52 22 52.4477 22 53" stroke="#26282D" stroke-width="2" stroke-linecap="round" stroke-linejoin="round"/> <path d="M20 53.0027C20 52.4504 20.4477 52.0027 21 52.0027" stroke="#26282D" stroke-width="2" stroke-linecap="round" stroke-linejoin="round"/> <path d="M21 54.0027C20.7346 54.0034 20.4798 53.8982 20.2921 53.7105C20.1044 53.5229 19.9993 53.2681 20 53.0027" stroke="#26282D" stroke-width="2" stroke-linecap="round" stroke-linejoin="round"/> <path d="M22 53.0027C22.0007 53.2681 21.8956 53.5229 21.7079 53.7105C21.5202 53.8982 21.2654 54.0034 21 54.0027" stroke="#26282D" stroke-width="2" stroke-linecap="round" stroke-linejoin="round"/> <path fill-rule="evenodd" clip-rule="evenodd" d="M60 58.0027C60 60.2118 58.2091 62.0027 56 62.0027H8C5.79086 62.0027 4 60.2118 4 58.0027V6.00266C4 3.79352 5.79086 2.00266 8 2.00266H48.096C49.1414 2.00208 50.1455 2.4108 50.8933 3.14132L58.792 10.8267C59.5643 11.5794 59.9999 12.6122 60 13.6907V58.0027Z" stroke="#26282D" stroke-width="2" stroke-linecap="round" stroke-linejoin="round"/> </svg>
