<svg width="48" height="48" viewBox="0 0 48 48" fill="none" xmlns="http://www.w3.org/2000/svg">
  <path
    d="M8.38 8V9.5V8ZM19 31.88H17.5C17.5 32.4281 17.7989 32.9325 18.2797 33.1957C18.7605 33.4589 19.3465 33.439 19.8082 33.1436L19 31.88ZM19 14.56L19.8082 13.2964C19.3465 13.001 18.7605 12.9811 18.2797 13.2443C17.7989 13.5075 17.5 14.0119 17.5 14.56H19ZM32.54 23.22L33.3482 24.4836C33.7792 24.208 34.04 23.7316 34.04 23.22C34.04 22.7084 33.7792 22.232 33.3482 21.9564L32.54 23.22ZM48 14.88C48 10.2519 44.2481 6.5 39.62 6.5V9.5C42.5913 9.5 45 11.9087 45 14.88H48ZM39.62 6.5H8.38V9.5H39.62V6.5ZM8.38 6.5C3.75185 6.5 0 10.2519 0 14.88H3C3 11.9087 5.40871 9.5 8.38 9.5V6.5ZM0 14.88V33.12H3V14.88H0ZM0 33.12C0 35.3425 0.88289 37.474 2.45445 39.0456L4.57577 36.9242C3.56682 35.9153 3 34.5469 3 33.12H0ZM2.45445 39.0456C4.026 40.6171 6.15749 41.5 8.38 41.5V38.5C6.95314 38.5 5.58471 37.9332 4.57577 36.9242L2.45445 39.0456ZM8.38 41.5H39.62V38.5H8.38V41.5ZM39.62 41.5C44.2481 41.5 48 37.7481 48 33.12H45C45 36.0913 42.5913 38.5 39.62 38.5V41.5ZM48 33.12V14.88H45V33.12H48ZM20.5 31.88V14.56H17.5V31.88H20.5ZM18.1918 15.8236L31.7318 24.4836L33.3482 21.9564L19.8082 13.2964L18.1918 15.8236ZM31.7318 21.9564L18.1918 30.6164L19.8082 33.1436L33.3482 24.4836L31.7318 21.9564Z"
    fill="#000" />
</svg>
  