<svg xmlns="http://www.w3.org/2000/svg" fill="none" viewBox="0 0 14 14" id="Multiple-Stars--Streamline-Core-Neon" height="14" width="14">
  <desc>
    Multiple Stars Streamline Icon: https://streamlinehq.com
  </desc>
  <g id="multiple-stars--reward-rating-rate-social-star-media-favorite-like-stars-spark">
    <path id="Vector 2134" stroke="#000" stroke-linecap="round" stroke-linejoin="round" d="m5.99429 5.36645 2.28681 -0.83156 0.83157 -2.28682c0.15958 -0.43883 0.78022 -0.43883 0.93983 0l0.8315 2.28682 2.2868 0.83156c0.4389 0.15958 0.4389 0.78022 0 0.9398l-2.2868 0.83157 -0.8315 2.28681c-0.15961 0.43884 -0.78025 0.43883 -0.93983 0L8.2811 7.13782l-2.28681 -0.83157c-0.43884 -0.15958 -0.43884 -0.78022 0 -0.9398Z" stroke-width="1"></path>
    <path id="Vector 2135" stroke="#000" stroke-linecap="round" stroke-linejoin="round" d="m0.829128 9.92648 1.690062 -0.61457 0.61457 -1.69006c0.15958 -0.43883 0.78021 -0.43883 0.93979 0l0.61457 1.69006 1.69006 0.61457c0.43884 0.15962 0.43884 0.78022 0 0.93982l-1.69006 0.6145 -0.61457 1.6901c-0.15958 0.4388 -0.78021 0.4388 -0.93979 0l-0.61457 -1.6901 -1.690061 -0.6145c-0.438838 -0.1596 -0.438839 -0.7802 -0.000001 -0.93982Z" stroke-width="1"></path>
    <path id="Vector 2136" stroke="#000" stroke-linecap="round" stroke-linejoin="round" d="m0.829129 2.27652 1.061421 -0.38597 0.38597 -1.061422c0.15958 -0.438838 0.78021 -0.438837 0.93979 0.000001l0.38597 1.061421 1.06142 0.38597c0.43884 0.15958 0.43884 0.78021 0 0.93979l-1.06142 0.38597 -0.38597 1.06142c-0.15958 0.43884 -0.78021 0.43884 -0.93979 0l-0.38597 -1.06142 -1.061422 -0.38597C0.39029 3.05673 0.390291 2.4361 0.829129 2.27652Z" stroke-width="1"></path>
  </g>
</svg>