<svg xmlns="http://www.w3.org/2000/svg" fill="none" viewBox="0 0 14 14" id="Ai-Redo-Robot--Streamline-Core" height="14" width="14">
  <desc>
    Ai Redo Robot Streamline Icon: https://streamlinehq.com
  </desc>
  <g id="ai-redo-robot--arrow-refresh-sync-synchronize-artificial-intelligence-ai">
    <path id="Union" fill="#000000" fill-rule="evenodd" d="M10.2387 2.55414C9.33003 1.89084 8.21118 1.5 7 1.5 3.96243 1.5 1.5 3.96243 1.5 7c0 0.41421 -0.33579 0.75 -0.75 0.75C0.335787 7.75 0 7.41421 0 7c0 -3.86599 3.13401 -7 7 -7 1.62498 0 3.1216 0.554437 4.3094 1.48344l0.837 -0.836979c0.143 -0.142999 0.3581 -0.185777 0.5449 -0.108386 0.1868 0.07739 0.3087 0.259708 0.3087 0.461935v2.5c0 0.27615 -0.2239 0.5 -0.5 0.5H9.99996c-0.20223 0 -0.38455 -0.12182 -0.46194 -0.30865 -0.07739 -0.18684 -0.03461 -0.4019 0.10839 -0.5449l0.59229 -0.59232ZM12.5 7c0 -0.41421 0.3358 -0.75 0.75 -0.75s0.75 0.33579 0.75 0.75c0 3.866 -3.134 7 -7 7 -1.62499 0 -3.12164 -0.5544 -4.30944 -1.4834l-0.83701 0.837c-0.143 0.143 -0.35805 0.1857 -0.54489 0.1083C1.12182 13.3845 1 13.2022 1 13v-2.5c0 -0.2761 0.22386 -0.5 0.5 -0.5H4c0.20223 0 0.38455 0.1218 0.46194 0.3087 0.07739 0.1868 0.03461 0.4019 -0.10839 0.5449l-0.59229 0.5923C4.66996 12.1092 5.78882 12.5 7 12.5c3.0376 0 5.5 -2.4624 5.5 -5.5ZM7 2.75c0.41421 0 0.75 0.33579 0.75 0.75v0.83054c1.57259 0.34334 2.75 1.7439 2.75 3.41946v0.5c0 0.82843 -0.67157 1.5 -1.5 1.5H5c-0.82843 0 -1.5 -0.67157 -1.5 -1.5v-0.5c0 -1.67556 1.17741 -3.07612 2.75 -3.41946V3.5c0 -0.41421 0.33579 -0.75 0.75 -0.75ZM5.75 8C5.33579 8 5 7.66421 5 7.25s0.33579 -0.75 0.75 -0.75 0.75 0.33579 0.75 0.75 -0.33579 0.75 -0.75 0.75Zm2.5 0c-0.41421 0 -0.75 -0.33579 -0.75 -0.75s0.33579 -0.75 0.75 -0.75 0.75 0.33579 0.75 0.75 -0.33579 0.75 -0.75 0.75Z" clip-rule="evenodd" stroke-width="1"></path>
  </g>
</svg>