<svg width="129" height="129" viewBox="0 0 129 129" fill="none" xmlns="http://www.w3.org/2000/svg">
<g clip-path="url(#clip0_212_2)">
<path fill-rule="evenodd" clip-rule="evenodd" d="M94.3423 23.5346C85.9696 17.4227 75.6602 13.8214 64.5 13.8214C36.511 13.8214 13.8214 36.511 13.8214 64.5C13.8214 68.3167 10.7274 71.4107 6.91071 71.4107C3.09404 71.4107 0 68.3167 0 64.5C0 28.8777 28.8777 0 64.5 0C79.473 0 93.2633 5.10874 104.208 13.6688L111.92 5.95668C113.238 4.63904 115.22 4.24487 116.941 4.95798C118.662 5.67107 119.786 7.351 119.786 9.21438V32.2501C119.786 34.7946 117.723 36.8572 115.179 36.8572H92.1425C90.2791 36.8572 88.5991 35.7348 87.886 34.0132C87.173 32.2916 87.5671 30.31 88.8848 28.9924L94.3423 23.5346ZM115.179 64.5C115.179 60.6834 118.273 57.5893 122.089 57.5893C125.906 57.5893 129 60.6834 129 64.5C129 100.122 100.122 129 64.5 129C49.5269 129 35.7363 123.892 24.7916 115.332L17.0791 123.044C15.7615 124.362 13.78 124.755 12.0584 124.042C10.3368 123.329 9.21429 121.649 9.21429 119.786V96.75C9.21429 94.2059 11.277 92.1429 13.8214 92.1429H36.8571C38.7205 92.1429 40.4005 93.2652 41.1136 94.9873C41.8267 96.7085 41.4325 98.6905 40.1149 100.008L34.6573 105.466C43.0303 111.578 53.3398 115.179 64.5 115.179C92.4893 115.179 115.179 92.4893 115.179 64.5Z" fill="black"/>
<path fill-rule="evenodd" clip-rule="evenodd" d="M31 65.9319C31 47.7441 45.7441 33 63.9319 33C82.1198 33 96.8639 47.7441 96.8639 65.9319C96.8639 80.8501 86.9443 93.4517 73.341 97.5V83.3463C73.341 81.2095 72.6139 79.1367 71.2792 77.4683L69.9775 75.8412C72.6519 75.2233 75.066 74.204 77.0591 72.8757C80.4619 70.6076 82.7502 67.3451 82.7502 63.5822C82.7502 61.2529 81.8732 59.1152 80.3979 57.2865V49.466C80.3979 49.0802 80.2088 48.719 79.8917 48.4993C79.5746 48.2796 79.17 48.2293 78.8087 48.3647L70.5485 51.4623C68.4839 50.9337 66.2526 50.6473 63.9319 50.6473C61.6113 50.6473 59.3799 50.9337 57.3153 51.4623L49.0551 48.3647C48.6939 48.2293 48.2892 48.2796 47.9722 48.4993C47.6551 48.719 47.466 49.0802 47.466 49.466V57.2865C45.9906 59.1152 45.1137 61.2529 45.1137 63.5822C45.1137 67.3451 47.4019 70.6076 50.8048 72.8757C52.7978 74.204 55.212 75.2233 57.8863 75.8412L56.5846 77.4683C55.2499 79.1367 54.5228 81.2095 54.5228 83.3463V85.6478C53.621 85.2493 52.9217 84.4524 52.6708 83.4489C51.6523 79.3751 47.992 76.5172 43.7927 76.5172H42.7614C41.1375 76.5172 39.8211 77.8336 39.8211 79.4575C39.8211 81.0816 41.1375 82.3979 42.7614 82.3979H43.7927C45.2935 82.3979 46.6017 83.4192 46.9657 84.8753C47.8757 88.5152 50.8947 91.1846 54.5228 91.7115V97.5C40.9196 93.4517 31 80.8501 31 65.9319Z" fill="black"/>
</g>
<defs>
<clipPath id="clip0_212_2">
<rect width="129" height="129" fill="white"/>
</clipPath>
</defs>
</svg>
