<svg width="115" height="115" viewBox="0 0 115 115" fill="none" xmlns="http://www.w3.org/2000/svg">
<g clip-path="url(#clip0_215_14)">
<path fill-rule="evenodd" clip-rule="evenodd" d="M34.85 23.2333C41.3428 18.9329 49.129 16.4286 57.5 16.4286C80.1831 16.4286 98.5714 34.8169 98.5714 57.5C98.5714 65.871 96.0669 73.6572 91.7667 80.15L34.85 23.2333ZM23.2333 34.85L80.15 91.7667C73.6572 96.0669 65.871 98.5714 57.5 98.5714C34.8169 98.5714 16.4286 80.1831 16.4286 57.5C16.4286 49.129 18.9329 41.3428 23.2333 34.85ZM57.5 0C25.7437 0 0 25.7437 0 57.5C0 89.2564 25.7437 115 57.5 115C89.2564 115 115 89.2564 115 57.5C115 25.7437 89.2564 0 57.5 0Z" fill="black" fill-opacity="0.7"/>
<path fill-rule="evenodd" clip-rule="evenodd" d="M24 42.4952C24 38.908 27.1917 36 31.1289 36H83.4076C87.3447 36 90.5366 38.908 90.5366 42.4952V72.8063C90.5366 76.3939 87.3447 79.3016 83.4076 79.3016H31.1289C27.1917 79.3016 24 76.3939 24 72.8063V42.4952ZM50.8997 69.3702L49.5166 65.7698H38.8795L37.4964 69.3702C36.9545 70.7811 35.2599 71.5242 33.7115 71.0305C32.1631 70.5368 31.3473 68.9929 31.8892 67.5821L39.8138 46.9531C40.4658 45.2556 42.2241 44.119 44.198 44.119C46.172 44.119 47.9303 45.2557 48.5823 46.9531L56.5069 67.5821C57.0488 68.9929 56.233 70.5368 54.6846 71.0305C53.1362 71.5242 51.4416 70.7811 50.8997 69.3702ZM44.198 51.9248L47.4373 60.3571H40.9588L44.198 51.9248ZM65.5848 44.119C63.9443 44.119 62.6144 45.3307 62.6144 46.8254V68.4762C62.6144 69.9709 63.9443 71.1825 65.5848 71.1825H70.3375C77.0691 71.1825 82.8131 65.7455 82.8131 57.6508C82.8131 49.5561 77.0691 44.119 70.3375 44.119H65.5848ZM68.5552 65.7698V49.5317H70.3375C73.1111 49.5317 76.8723 51.8889 76.8723 57.6508C76.8723 63.4126 73.1111 65.7698 70.3375 65.7698H68.5552Z" fill="black"/>
</g>
<defs>
<clipPath id="clip0_215_14">
<rect width="115" height="115" fill="white"/>
</clipPath>
</defs>
</svg>
