<svg width="25" height="25" viewBox="0 0 25 25" fill="none" xmlns="http://www.w3.org/2000/svg">
<path d="M8.50001 20.2529H3.24701C2.41858 20.2529 1.74701 19.5814 1.74701 18.7529V2.25293C1.74701 1.4245 2.41858 0.75293 3.24701 0.75293H13.876C14.2737 0.75328 14.655 0.911545 14.936 1.19293L17.808 4.06393C18.0893 4.34537 18.2472 4.72704 18.247 5.12493V6.75293" stroke="black" stroke-width="1.5" stroke-linecap="round" stroke-linejoin="round"/>
<path fill-rule="evenodd" clip-rule="evenodd" d="M7.74701 6.00293C7.74701 5.58872 8.0828 5.25293 8.49701 5.25293H9.99701C10.4112 5.25293 10.747 5.58872 10.747 6.00293V9.00293C10.747 9.41714 10.4112 9.75293 9.99701 9.75293H8.49701C8.0828 9.75293 7.74701 9.41714 7.74701 9.00293V6.00293Z" stroke="black" stroke-width="1.5" stroke-linecap="round" stroke-linejoin="round"/>
<path d="M4.74701 5.25293V9.75293" stroke="black" stroke-width="1.5" stroke-linecap="round" stroke-linejoin="round"/>
<path d="M13.747 5.25293V8.25293" stroke="black" stroke-width="1.5" stroke-linecap="round" stroke-linejoin="round"/>
<path fill-rule="evenodd" clip-rule="evenodd" d="M4.74701 13.5029C4.74701 13.0887 5.0828 12.7529 5.49701 12.7529H6.99701C7.41122 12.7529 7.74701 13.0887 7.74701 13.5029V16.5029C7.74701 16.9171 7.41122 17.2529 6.99701 17.2529H5.49701C5.0828 17.2529 4.74701 16.9171 4.74701 16.5029V13.5029Z" stroke="black" stroke-width="1.5" stroke-linecap="round" stroke-linejoin="round"/>
<path fill-rule="evenodd" clip-rule="evenodd" d="M16.747 21.0029C19.6465 21.0029 21.997 18.6524 21.997 15.7529C21.997 12.8534 19.6465 10.5029 16.747 10.5029C13.8475 10.5029 11.497 12.8534 11.497 15.7529C11.497 18.6524 13.8475 21.0029 16.747 21.0029Z" stroke="black" stroke-width="1.5" stroke-linecap="round" stroke-linejoin="round"/>
<path d="M24.247 23.2531L20.459 19.4661" stroke="black" stroke-width="1.5" stroke-linecap="round" stroke-linejoin="round"/>
</svg>
