<svg xmlns="http://www.w3.org/2000/svg" fill="none" viewBox="0 0 14 14" id="Money-Shield--Streamline-Flex" height="14" width="14">
  <desc>
    Money Shield Streamline Icon: https://streamlinehq.com
  </desc>
  <g id="money-shield--shield-pay-product-secure-money-cash-currency-security-business">
    <path id="Vector 106" fill="#d7e0ff" d="M0.5 6.73088C0.5 2.76585 2.125 1.06655 2.66667 0.500122h8.66663C11.875 1.06655 13.5 2.76585 13.5 6.73088c0 4.53142 -4.26797 6.20282 -6.43464 6.76922C4.8987 12.9337 0.5 11.2623 0.5 6.73088Z" stroke-width="1"></path>
    <path id="Vector 107" stroke="#4147d5" stroke-linecap="round" stroke-linejoin="round" d="M0.5 6.73076C0.5 2.76573 2.125 1.06643 2.66667 0.5h8.66663C11.875 1.06643 13.5 2.76573 13.5 6.73076c0 4.53144 -4.26797 6.20284 -6.43464 6.76924C4.8987 12.9336 0.5 11.2622 0.5 6.73076Z" stroke-width="1"></path>
    <path id="Vector" stroke="#4147d5" stroke-linecap="round" stroke-linejoin="round" d="M7.12183 8.71033v1.00132" stroke-width="1"></path>
    <path id="Vector_2" stroke="#4147d5" stroke-linecap="round" stroke-linejoin="round" d="M8.49353 5.13488c-0.18149 -0.43037 -0.68661 -0.66613 -1.45606 -0.66613 -0.97992 0 -1.53112 0.38237 -1.53112 1.06214 0 0.67978 0.5512 1.06215 1.53112 1.06215 0.97993 0 1.45608 0.38237 1.45608 1.06214 0 0.67977 -0.5512 1.06214 -1.53113 1.06214 -0.76944 0 -1.27456 -0.23575 -1.45605 -0.66612" stroke-width="1"></path>
    <path id="Vector_3" stroke="#4147d5" stroke-linecap="round" stroke-linejoin="round" d="M7.12183 3.46741v1.00132" stroke-width="1"></path>
  </g>
</svg>