<svg fill="#000000" width="800px" height="800px" viewBox="0 0 56 56" xmlns="http://www.w3.org/2000/svg"><path d="M 27.9266 43.8337 C 28.6400 43.8337 29.1436 43.4350 29.1436 42.7216 C 29.1436 42.4069 29.0597 42.2391 28.8289 41.7984 C 26.2691 37.8329 24.8213 33.2799 24.8213 28.3492 C 24.8213 23.5863 26.1852 18.8235 28.8289 14.8369 C 29.0597 14.3963 29.1436 14.2285 29.1436 13.9137 C 29.1436 13.2423 28.6400 12.8017 27.9266 12.8017 C 27.2343 12.8017 26.6677 13.1164 25.9963 14.0396 C 22.8491 18.0471 21.2545 23.0408 21.2545 28.3282 C 21.2545 33.6156 22.7861 38.4623 25.9963 42.5958 C 26.6677 43.5189 27.2343 43.8337 27.9266 43.8337 Z M 49.3490 43.8337 C 50.0413 43.8337 50.5870 43.5189 51.2582 42.5958 C 54.4685 38.4623 56 33.6156 56 28.3282 C 56 23.0408 54.4264 18.0471 51.2582 14.0396 C 50.5870 13.1164 50.0413 12.8017 49.3490 12.8017 C 48.6357 12.8017 48.1321 13.2423 48.1321 13.9137 C 48.1321 14.2285 48.1948 14.3963 48.4256 14.8369 C 51.0906 18.8235 52.4541 23.5863 52.4541 28.3492 C 52.4541 33.2799 50.9858 37.8329 48.4466 41.7984 C 48.1948 42.2391 48.1321 42.4069 48.1321 42.7216 C 48.1321 43.3931 48.6357 43.8337 49.3490 43.8337 Z M 2.8325 43.7917 C 6.9449 43.7917 8.8543 42.0292 9.8404 37.3084 L 12.2323 25.8314 L 16.0300 25.8314 C 17.2470 25.8314 18.0233 25.1809 18.0233 24.1318 C 18.0233 23.2296 17.4358 22.6631 16.4706 22.6631 L 12.9247 22.6631 L 13.5122 19.8096 C 14.0577 17.1449 14.8970 16.0539 17.2260 16.0539 C 17.5617 16.0539 17.8974 16.0329 18.1282 16.0119 C 19.1773 15.9070 19.6389 15.4244 19.6389 14.5222 C 19.6389 13.3472 18.6527 12.8227 16.6385 12.8227 C 12.6310 12.8227 10.5748 14.8160 9.6516 19.3060 L 8.9382 22.6631 L 6.3365 22.6631 C 5.1195 22.6631 4.3222 23.3136 4.3222 24.3626 C 4.3222 25.2648 4.9307 25.8314 5.8959 25.8314 L 8.2668 25.8314 L 5.9588 36.8048 C 5.3713 39.5534 4.5110 40.5605 2.2660 40.5605 C 1.9723 40.5605 1.6995 40.5815 1.4897 40.6025 C .5245 40.7284 0 41.2529 0 42.1342 C 0 43.2672 .9652 43.7917 2.8325 43.7917 Z M 32.3118 38.2735 C 33.0042 38.2735 33.4658 38.0427 33.9904 37.2874 L 38.5853 30.7411 L 38.6691 30.7411 L 43.3692 37.3923 C 43.8939 38.1267 44.3971 38.2735 44.9007 38.2735 C 45.9079 38.2735 46.5796 37.5601 46.5796 36.6999 C 46.5796 36.3012 46.4537 35.9236 46.1808 35.5669 L 40.8095 28.2652 L 46.1808 21.0685 C 46.4537 20.7118 46.5796 20.3341 46.5796 19.8935 C 46.5796 18.9913 45.8241 18.3619 44.9849 18.3619 C 44.2295 18.3619 43.7886 18.7396 43.3903 19.3480 L 38.9630 25.8314 L 38.8582 25.8314 L 34.4100 19.3270 C 34.0114 18.7185 33.5078 18.3619 32.7105 18.3619 C 31.7453 18.3619 31.0109 19.1382 31.0109 19.9774 C 31.0109 20.5859 31.1788 20.9636 31.4726 21.3203 L 36.5711 28.1603 L 31.1578 35.6508 C 30.8431 36.0495 30.7802 36.4062 30.7802 36.8258 C 30.7802 37.6441 31.4726 38.2735 32.3118 38.2735 Z"/></svg>
