<svg xmlns="http://www.w3.org/2000/svg" fill="none" viewBox="0 0 14 14" id="Github-Logo--Streamline-Flex" height="14" width="14">
  <desc>
    Github Logo Streamline Icon: https://streamlinehq.com
  </desc>
  <g id="github--github-code-branch-developer-portal">
    <path id="Vector_2" fill="#67e46c" d="M7 13.5c4.16 0 6.5 -2.34 6.5 -6.5S11.16 0.5 7 0.5 0.5 2.84 0.5 7s2.34 6.5 6.5 6.5Z" stroke-width="1"></path>
    <path id="Intersect" fill="#ffffff" fill-rule="evenodd" d="M8.81791 13.33c-0.56004 0.1127 -1.16667 0.17 -1.81791 0.17 -0.65111 0 -1.25764 -0.0573 -1.81759 -0.17v-2.2463c0 -0.6379 0.10391 -1.41448 0.30252 -1.81725 -1.63582 -0.35892 -2.53181 -1.10399 -2.53181 -2.61876 0 -0.59271 0.13718 -1.10584 0.40218 -1.53243 -0.07862 -0.7489 0.00572 -1.46542 0.10689 -1.86974 0.02561 -0.10237 0.12246 -0.15618 0.22291 -0.12385 0.3527 0.1135 0.90787 0.36862 1.44435 0.74869 0.53365 -0.15887 1.15945 -0.2408 1.8707 -0.2408 0.7112 0 1.33696 0.08192 1.87058 0.24076 0.53646 -0.38005 1.0916 -0.63516 1.44427 -0.74865 0.1005 -0.03233 0.1973 0.02148 0.2229 0.12385 0.1012 0.40427 0.1855 1.12068 0.1069 1.86948 0.2651 0.42665 0.4024 0.93987 0.4024 1.53269 0 1.51477 -0.896 2.25984 -2.53182 2.61876 0.19862 0.40277 0.30253 1.17935 0.30253 1.81725V13.33Z" clip-rule="evenodd" stroke-width="1"></path>
    <path id="Vector 4020" stroke="#0a6d0f" stroke-linecap="round" stroke-linejoin="round" d="M5.11719 11.4287c-1.13965 0.0005 -1.76839 -0.2715 -1.88281 -1.4062l-0.4375 -0.39066" stroke-width="1"></path>
    <path id="Vector_2_2" stroke="#0a6d0f" stroke-linecap="round" stroke-linejoin="round" d="M7 13.5c4.16 0 6.5 -2.34 6.5 -6.5S11.16 0.5 7 0.5 0.5 2.84 0.5 7s2.34 6.5 6.5 6.5Z" stroke-width="1"></path>
    <path id="Intersect_2" stroke="#0a6d0f" stroke-linecap="round" stroke-linejoin="round" d="M8.81791 13.33c-0.56004 0.1127 -1.16667 0.17 -1.81791 0.17 -0.65111 0 -1.25764 -0.0573 -1.81759 -0.17v-2.2463c0 -0.6379 0.10391 -1.41448 0.30252 -1.81725 -1.63582 -0.35892 -2.53181 -1.10399 -2.53181 -2.61876 0 -0.59271 0.13718 -1.10584 0.40218 -1.53243 -0.07862 -0.7489 0.00572 -1.46542 0.10689 -1.86974 0.02561 -0.10237 0.12246 -0.15618 0.22291 -0.12385 0.3527 0.1135 0.90787 0.36862 1.44435 0.74869 0.53365 -0.15887 1.15945 -0.2408 1.8707 -0.2408 0.7112 0 1.33696 0.08192 1.87058 0.24076 0.53646 -0.38005 1.0916 -0.63516 1.44427 -0.74865 0.1005 -0.03233 0.1973 0.02148 0.2229 0.12385 0.1012 0.40427 0.1855 1.12068 0.1069 1.86948 0.2651 0.42665 0.4024 0.93987 0.4024 1.53269 0 1.51477 -0.896 2.25984 -2.53182 2.61876 0.19862 0.40277 0.30253 1.17935 0.30253 1.81725V13.33Z" stroke-width="1"></path>
  </g>
</svg>