<svg width="16" height="16" viewBox="0 0 16 16" fill="none" xmlns="http://www.w3.org/2000/svg">
<g clip-path="url(#clip0_203_104)">
<mask id="mask0_203_104" style="mask-type:luminance" maskUnits="userSpaceOnUse" x="0" y="0" width="16" height="16">
<path d="M16 0H0V16H16V0Z" fill="white"/>
</mask>
<g mask="url(#mask0_203_104)">
<path d="M15.6315 6.24613C16.2562 3.14688 14.3579 0.525894 11.1974 0.52202C10.0008 0.519476 8.85163 0.989579 7.9999 1.83005C7.17415 1.01531 6.0678 0.547637 4.90804 0.523077C3.83671 0.483533 2.78659 0.828676 1.94762 1.49608C1.10864 2.16349 0.5362 3.1091 0.333821 4.16188C-0.443458 8.28776 4.38222 13.0268 6.66158 15.0033C6.98186 15.2818 7.39042 15.4379 7.81481 15.4439C8.23921 15.4499 8.65201 15.3054 8.98003 15.036C10.9833 13.4015 14.9133 9.80464 15.6315 6.24613Z" fill="#631AFF"/>
<path d="M4.90808 2.84323C6.06753 2.86797 7.17352 3.3357 7.99891 4.15036C8.85059 3.3094 9.99994 2.83885 11.1968 2.84112C13.5325 2.84393 15.1771 4.27823 15.6233 6.27609C15.6255 6.26623 15.6293 6.25601 15.6314 6.2458C16.2563 3.14615 14.3578 0.524836 11.1968 0.520961C9.99994 0.518698 8.85059 0.989249 7.99891 1.83021C7.17307 1.01537 6.06658 0.547638 4.90667 0.523075C3.83515 0.48354 2.78486 0.828776 1.94577 1.49634C1.10668 2.1639 0.534201 3.10971 0.331871 4.16269C0.20853 4.86496 0.224688 5.58464 0.379422 6.28067C0.621829 5.27321 1.20516 4.38057 2.03054 3.75407C2.85591 3.12758 3.87254 2.80578 4.90808 2.84323Z" fill="#7560F4"/>
<path d="M15.6339 6.24842C16.2588 3.14793 14.3602 0.525897 11.1991 0.522021C10.0024 0.519475 8.853 0.989767 8.00112 1.83057C7.17525 1.0155 6.06873 0.547648 4.90878 0.523078C3.83728 0.483518 2.787 0.828799 1.94789 1.49647C1.10878 2.16415 0.536245 3.11013 0.333834 4.16334C-0.443568 8.29087 4.38288 13.0318 6.6626 15.0091C6.98293 15.2877 7.39155 15.4438 7.81601 15.4498C8.24048 15.4558 8.65335 15.3113 8.98142 15.0418C10.985 13.4067 14.9157 9.80835 15.6339 6.24842Z" stroke="#2A14AF" stroke-width="0.4" stroke-linecap="round" stroke-linejoin="round"/>
</g>
<path d="M6.7762 5.82816C6.7762 5.47591 6.92613 5.13808 7.193 4.889C7.45987 4.63993 7.82183 4.5 8.19924 4.5C8.57665 4.5 8.93861 4.63993 9.20548 4.889C9.47236 5.13808 9.62228 5.47591 9.62228 5.82816V6.67337" stroke="white" stroke-width="0.7" stroke-linecap="round" stroke-linejoin="round"/>
<path d="M10.3985 7.15631C10.3985 7.02822 10.344 6.90537 10.2469 6.81479C10.1499 6.72422 10.0182 6.67334 9.88106 6.67334H6.51747C6.38023 6.67334 6.24861 6.72422 6.15156 6.81479C6.05452 6.90537 6 7.02822 6 7.15631V9.57116C6 9.69922 6.05452 9.82209 6.15156 9.91267C6.24861 10.0032 6.38023 10.0542 6.51747 10.0542H9.88106C10.0182 10.0542 10.1499 10.0032 10.2469 9.91267C10.344 9.82209 10.3985 9.69922 10.3985 9.57116V7.15631Z" fill="#5500FF"/>
<path d="M8.19924 6.67334H6.51747C6.38023 6.67334 6.24861 6.72422 6.15156 6.81479C6.05452 6.90537 6 7.02822 6 7.15631V9.57116C6 9.69922 6.05452 9.82209 6.15156 9.91267C6.24861 10.0032 6.38023 10.0542 6.51747 10.0542H8.19924V6.67334Z" fill="#5B00FF"/>
<path d="M10.3985 7.15631C10.3985 7.02822 10.344 6.90537 10.2469 6.81479C10.1499 6.72422 10.0182 6.67334 9.88106 6.67334H6.51747C6.38023 6.67334 6.24861 6.72422 6.15156 6.81479C6.05452 6.90537 6 7.02822 6 7.15631V9.57116C6 9.69922 6.05452 9.82209 6.15156 9.91267C6.24861 10.0032 6.38023 10.0542 6.51747 10.0542H9.88106C10.0182 10.0542 10.1499 10.0032 10.2469 9.91267C10.344 9.82209 10.3985 9.69922 10.3985 9.57116V7.15631Z" stroke="white" stroke-width="0.7" stroke-linecap="round" stroke-linejoin="round"/>
<path d="M8.19924 8.66567C8.26321 8.66567 8.32574 8.64796 8.37892 8.61479C8.43211 8.58162 8.47357 8.53448 8.49804 8.47932C8.52252 8.42416 8.52892 8.36347 8.51645 8.30492C8.50397 8.24636 8.47316 8.19258 8.42794 8.15036C8.38271 8.10815 8.32507 8.0794 8.26234 8.06775C8.1996 8.05611 8.13457 8.06208 8.07548 8.08493C8.01638 8.10778 7.96587 8.14647 7.93033 8.1961C7.8948 8.24575 7.87583 8.3041 7.87583 8.36381C7.87583 8.44387 7.9099 8.52064 7.97055 8.57725C8.0312 8.63386 8.11347 8.66567 8.19924 8.66567Z" fill="#5500FF" stroke="white" stroke-width="0.7" stroke-linecap="round" stroke-linejoin="round"/>
</g>
<defs>
<clipPath id="clip0_203_104">
<rect width="16" height="16" fill="white"/>
</clipPath>
</defs>
</svg>
