<svg width="16" height="16" viewBox="0 0 16 16" fill="none" xmlns="http://www.w3.org/2000/svg">
<g clip-path="url(#clip0_9284_422108)">
<path d="M15.6315 6.24613C16.2562 3.14688 14.3579 0.525894 11.1974 0.52202C10.0008 0.519476 8.85163 0.989579 7.9999 1.83005C7.17415 1.01531 6.0678 0.547637 4.90804 0.523077C3.83671 0.483533 2.78659 0.828676 1.94762 1.49608C1.10864 2.16349 0.5362 3.1091 0.333821 4.16188C-0.443458 8.28776 4.38222 13.0268 6.66158 15.0033C6.98186 15.2818 7.39042 15.4379 7.81481 15.4439C8.23921 15.4499 8.65201 15.3054 8.98003 15.036C10.9833 13.4015 14.9133 9.80464 15.6315 6.24613Z" fill="#631AFF"/>
<path d="M4.90808 2.84323C6.06753 2.86797 7.17352 3.3357 7.99891 4.15036C8.85059 3.3094 9.99994 2.83885 11.1968 2.84112C13.5325 2.84393 15.1771 4.27823 15.6233 6.27609C15.6255 6.26623 15.6293 6.25601 15.6314 6.2458C16.2563 3.14615 14.3578 0.524836 11.1968 0.520961C9.99994 0.518698 8.85059 0.989249 7.99891 1.83021C7.17307 1.01537 6.06658 0.547638 4.90667 0.523075C3.83515 0.48354 2.78486 0.828776 1.94577 1.49634C1.10668 2.1639 0.534201 3.10971 0.331871 4.16269C0.20853 4.86496 0.224688 5.58464 0.379422 6.28067C0.621829 5.27321 1.20516 4.38057 2.03054 3.75407C2.85591 3.12758 3.87254 2.80578 4.90808 2.84323Z" fill="#7560F4"/>
<path d="M15.6339 6.24842C16.2588 3.14793 14.3602 0.525897 11.1991 0.522021C10.0024 0.519475 8.853 0.989767 8.00112 1.83057C7.17525 1.0155 6.06873 0.547648 4.90878 0.523078C3.83728 0.483518 2.787 0.828799 1.94789 1.49647C1.10878 2.16415 0.536245 3.11013 0.333834 4.16334C-0.443568 8.29087 4.38288 13.0318 6.6626 15.0091C6.98293 15.2877 7.39155 15.4438 7.81601 15.4498C8.24048 15.4558 8.65335 15.3113 8.98142 15.0418C10.985 13.4067 14.9157 9.80835 15.6339 6.24842Z" stroke="#2A14AF" stroke-width="0.4" stroke-linecap="round" stroke-linejoin="round"/>
</g>
<defs>
<clipPath id="clip0_9284_422108">
<rect width="16" height="16" fill="white"/>
</clipPath>
</defs>
</svg>

