<svg width="26" height="26" viewBox="0 0 26 26" fill="none" xmlns="http://www.w3.org/2000/svg">
<path d="M8.5 4.76706L6.934 2.41806C6.63747 1.97299 6.1264 1.71947 5.59263 1.75265C5.05886 1.78583 4.58313 2.1007 4.344 2.57906L1.75 7.76706H13.75L11.681 3.62906C11.4652 3.19863 11.0559 2.89795 10.5807 2.82072C10.1054 2.74349 9.62197 2.8991 9.281 3.23906L8.181 4.29206" stroke="#000000" stroke-width="2" stroke-linecap="round" stroke-linejoin="round"/>
<path fill-rule="evenodd" clip-rule="evenodd" d="M21.25 4L18.25 12.25H24.25L21.25 4V4Z" stroke="#000000" stroke-width="2" stroke-linecap="round" stroke-linejoin="round"/>
<path d="M21.25 12.25V15.25" stroke="#000000" stroke-width="2" stroke-linecap="round" stroke-linejoin="round"/>
<path fill-rule="evenodd" clip-rule="evenodd" d="M4.75 13L1.75 21.25H7.75L4.75 13V13Z" stroke="#000000" stroke-width="2" stroke-linecap="round" stroke-linejoin="round"/>
<path d="M4.75 21.25V24.25" stroke="#000000" stroke-width="2" stroke-linecap="round" stroke-linejoin="round"/>
<path d="M20.5 20.7001C21.0911 21.2664 21.5282 21.974 21.77 22.7561" stroke="#000000" stroke-width="2" stroke-linecap="round" stroke-linejoin="round"/>
<path d="M16 18.848C16.24 18.906 16.489 18.957 16.749 19C17.261 19.083 17.7651 19.2087 18.256 19.376" stroke="#000000" stroke-width="2" stroke-linecap="round" stroke-linejoin="round"/>
<path d="M11.6992 15.6671C12.0223 16.3102 12.4633 16.8869 12.9992 17.3671" stroke="#000000" stroke-width="2" stroke-linecap="round" stroke-linejoin="round"/>
<path d="M10.7501 10.75C10.7482 11.3345 10.7772 11.9186 10.8371 12.5" stroke="#000000" stroke-width="2" stroke-linecap="round" stroke-linejoin="round"/>
</svg>

