<svg width="700" height="700" viewBox="0 0 700 700" fill="none" xmlns="http://www.w3.org/2000/svg">
<path fill-rule="evenodd" clip-rule="evenodd" d="M128.602 477.243C112.957 476.75 99.6324 468.449 90.6137 456.959C81.3266 445.143 76 429.434 76 412.682C76 395.93 81.3271 380.221 90.6137 368.405C99.6664 356.901 112.924 348.62 128.602 348.136C128.837 249.333 192.757 165.374 281.252 136.274C286.637 130.669 293.254 125.737 300.803 121.723C263.723 76.6459 301.54 3.73998 350.036 0C314.358 66.3235 426.975 66.2597 403.21 124.374C408.874 127.846 413.923 131.879 418.2 136.332C506.603 165.459 570.462 249.383 570.699 348.132C586.344 348.615 599.664 356.92 608.696 368.4C617.984 380.216 623.32 395.925 623.32 412.677C623.32 429.43 617.983 445.139 608.696 456.955C599.634 468.483 586.373 476.745 570.699 477.238C570.401 600.104 471.637 700 349.65 700C227.644 700 128.901 600.108 128.601 477.238L128.602 477.243ZM539.813 476.672L539.803 468.088L539.144 467.751L539.803 457.829L539.793 357.312H539.813V348.704C539.813 272.854 496.414 207.329 433.51 175.979C430.951 208.635 394.374 234.573 349.696 234.573C304.989 234.573 268.403 208.607 265.873 175.941C202.919 207.273 159.492 272.82 159.492 348.702V476.677C159.492 583.058 244.833 669.113 349.641 669.113C454.446 669.113 539.803 583.059 539.803 476.677L539.813 476.672ZM331.139 577.839C331.139 571.022 336.671 565.48 343.492 565.48H350.421C357.233 565.48 362.779 571.022 362.779 577.839C362.779 584.66 357.233 590.197 350.421 590.197H343.492C336.671 590.197 331.139 584.66 331.139 577.839ZM282.248 567.438C276.584 563.635 275.09 555.949 278.888 550.285C292.78 529.66 318.087 516.501 346.203 516.501C374.303 516.501 399.587 529.641 413.488 550.285C417.292 555.949 415.802 563.635 410.133 567.438C404.479 571.247 396.788 569.748 392.99 564.089C384.074 550.856 366.809 541.213 346.202 541.213C325.573 541.213 308.288 550.876 299.396 564.089C295.598 569.748 287.907 571.247 282.248 567.438H282.248ZM318.8 497.477C313.424 493.298 312.443 485.52 316.642 480.139C320.514 475.163 324.791 470.803 329.542 467.6C334.376 464.353 339.977 462.141 346.153 462.014C352.398 461.902 358.145 463.933 363.169 467.341C368.057 470.637 372.305 475.256 376.074 480.612C380.015 486.184 378.682 493.894 373.11 497.825C367.524 501.76 359.819 500.427 355.889 494.856C353.199 491.048 350.962 488.909 349.307 487.801C347.872 486.829 347.061 486.717 346.631 486.726C346.221 486.736 345.171 486.868 343.336 488.108C341.431 489.387 338.995 491.643 336.138 495.325C331.959 500.701 324.185 501.677 318.8 497.478L318.8 497.477ZM128.589 446.276L128.598 379.104L128.149 379.134C123.662 379.7 118.994 382.307 114.897 387.503C110.209 393.469 106.889 402.326 106.889 412.684C106.889 423.045 110.209 431.902 114.897 437.869C118.964 443.044 123.686 445.671 128.158 446.247L128.589 446.276ZM570.712 446.276L571.161 446.247C575.638 445.676 580.326 443.073 584.413 437.868C589.11 431.902 592.431 423.045 592.431 412.683C592.431 402.327 589.111 393.47 584.413 387.502C580.336 382.331 575.624 379.709 571.152 379.133L570.703 379.114L570.712 446.276ZM218.188 413.069C218.188 394.969 232.891 380.272 250.986 380.272C251.991 380.272 252.983 380.325 253.964 380.413L254.316 380.618L234.057 368.905C228.149 365.496 226.122 357.938 229.535 352.03C232.953 346.121 240.512 344.095 246.42 347.513L284.643 369.583C290.541 372.991 292.572 380.55 289.15 386.458C286.518 391.023 281.41 393.274 276.503 392.488C281.059 398.118 283.784 405.276 283.784 413.069C283.784 431.174 269.081 445.867 250.986 445.867C232.891 445.867 218.189 431.174 218.189 413.069L218.188 413.069ZM413.987 413.069C413.987 405.276 416.712 398.118 421.258 392.488C416.355 393.274 411.253 391.023 408.622 386.458C405.204 380.549 407.23 372.991 413.138 369.583L451.346 347.513C457.254 344.095 464.827 346.121 468.23 352.029C471.648 357.938 469.622 365.496 463.714 368.904L443.758 380.428L443.797 380.413C444.778 380.325 445.774 380.272 446.785 380.272C464.89 380.272 479.582 394.969 479.582 413.069C479.582 431.174 464.89 445.866 446.785 445.866C428.685 445.866 413.988 431.174 413.988 413.069L413.987 413.069Z" fill="black"/>
</svg>
