<svg width="24" height="24" viewBox="0 0 24 24" fill="none" xmlns="http://www.w3.org/2000/svg">
<g clip-path="url(#clip0_9971_10639)">
<path d="M22.8099 10.6001C22.1812 10.3968 21.516 10.332 20.8599 10.4101C19.7299 10.4101 19.5599 10.5101 19.0899 10.5001C18.8499 10.5001 18.5299 10.5001 17.9399 10.4101L16.7799 10.1801C16.8352 10.053 16.9094 9.93501 16.9999 9.83006C17.3499 9.43006 17.8199 9.06006 18.1099 8.68006C18.8699 7.68006 19.5299 7.11006 20.1999 6.18006C20.6341 5.56678 21.0154 4.91779 21.3399 4.24006C21.6134 3.67827 21.653 3.03096 21.4499 2.44006C21.3168 2.12812 21.0909 1.86477 20.8028 1.68583C20.5147 1.5069 20.1785 1.42108 19.8399 1.44006C19.4379 1.44799 19.0476 1.57693 18.7199 1.81006C18.322 2.08913 17.968 2.42619 17.6699 2.81006L15.5599 5.57006C15.357 5.84369 15.1257 6.09509 14.8699 6.32006C14.6719 6.50342 14.4187 6.61596 14.1499 6.64006H12.3299H11.1799C11.0499 6.64006 10.8399 6.59006 10.6199 6.54006C10.5063 6.51061 10.3959 6.47043 10.2899 6.42006C10.4699 6.34006 10.5799 5.88006 10.6599 5.74006L12.6599 2.26006C12.8576 2.03166 12.9929 1.75598 13.0524 1.45983C13.112 1.16367 13.0939 0.857141 12.9999 0.570056C12.893 0.394221 12.7474 0.245147 12.574 0.134225C12.4007 0.0233021 12.2043 -0.0465327 11.9999 -0.0699436C11.8131 -0.119101 11.6167 -0.119101 11.4299 -0.0699436C11.2031 0.00286722 10.9876 0.107223 10.7899 0.240056C10.0187 0.875731 9.31193 1.58583 8.67991 2.36006C7.99991 3.17006 7.21991 4.10006 6.57991 5.00006C6.48368 4.68285 6.33861 4.38258 6.14991 4.11006C5.80347 3.52984 5.28173 3.07463 4.65991 2.81006C4.16784 2.65947 3.64198 2.65947 3.14991 2.81006C2.68127 2.92106 2.24373 3.13641 1.86991 3.44006C1.83725 3.4628 1.80962 3.49203 1.78875 3.52591C1.76788 3.55979 1.7542 3.59761 1.74857 3.63701C1.74294 3.67641 1.74548 3.71654 1.75603 3.75491C1.76659 3.79329 1.78492 3.82908 1.80991 3.86006C1.85945 3.92437 1.93224 3.96668 2.01265 3.9779C2.09305 3.98912 2.17465 3.96835 2.23991 3.92006C2.5503 3.68233 2.91427 3.52438 3.29991 3.46006C3.63778 3.4006 3.98569 3.44235 4.29991 3.58006C4.72611 3.80539 5.07458 4.15385 5.29991 4.58006C5.53173 4.9836 5.6428 5.44523 5.61991 5.91006C5.6088 6.15134 5.54389 6.3871 5.42991 6.60006C5.32387 6.82432 5.1782 7.02758 4.99991 7.20006C4.67981 7.50965 4.29335 7.74221 3.86991 7.88006C3.46394 8.01361 3.02587 8.01361 2.61991 7.88006C2.34256 7.8005 2.08176 7.67179 1.84991 7.50006C1.62449 7.33075 1.4456 7.10714 1.32991 6.85006C1.18004 6.5035 1.11162 6.12719 1.12991 5.75006C1.14951 5.38869 1.27468 5.041 1.48991 4.75006C1.55341 4.68633 1.58907 4.60003 1.58907 4.51006C1.58907 4.42009 1.55341 4.33378 1.48991 4.27006C1.45621 4.23895 1.41656 4.21498 1.37336 4.19959C1.33015 4.1842 1.28428 4.17771 1.23851 4.18052C1.19273 4.18332 1.14799 4.19536 1.10699 4.2159C1.06598 4.23644 1.02956 4.26507 0.999905 4.30006C0.644907 4.6891 0.418004 5.17781 0.349905 5.70006C0.288858 6.20572 0.34357 6.71865 0.509905 7.20006C0.662754 7.58561 0.906301 7.92864 1.21991 8.20006C1.5338 8.4779 1.89664 8.69492 2.28991 8.84006C2.83333 9.05391 3.42624 9.10938 3.99991 9.00006C3.85265 9.61239 3.74576 10.2337 3.67991 10.8601C3.55422 11.7657 3.55422 12.6844 3.67991 13.5901C3.77991 14.1401 3.84991 14.6601 3.97991 15.1801C4.07123 15.5457 4.19162 15.9035 4.33991 16.2501C4.43062 16.4607 4.57135 16.6461 4.74991 16.7901C5.09991 17.0501 6.62991 17.7901 7.08991 15.3901C7.25991 14.4901 7.33991 13.2401 7.50991 12.2901C7.54944 12.0281 7.61304 11.7703 7.69991 11.5201C7.76341 11.5617 7.82065 11.6122 7.86991 11.6701C8.21936 12.1206 8.64189 12.5093 9.11991 12.8201C9.41657 13.0143 9.73553 13.1721 10.0699 13.2901C10.5416 13.4491 11.0224 13.5794 11.5099 13.6801L13.6699 13.9601C14.4699 14.0801 15.1999 14.1501 15.8699 14.2001C17.2599 14.3001 18.3599 14.2801 19.1199 14.3201C20.3533 14.4263 21.5932 14.2128 22.7199 13.7001C23.0167 13.5369 23.2653 13.2986 23.4409 13.009C23.6164 12.7194 23.7126 12.3886 23.7199 12.0501C23.7483 11.742 23.6746 11.4332 23.5101 11.1711C23.3457 10.9091 23.0996 10.7085 22.8099 10.6001ZM21.7499 12.9101C20.9049 13.1829 20.0162 13.2949 19.1299 13.2401C18.3599 13.2401 17.2699 13.2401 15.8899 13.1701C15.2499 13.1701 14.5499 13.0701 13.7799 12.9601L11.6799 12.7301C11.2323 12.6486 10.7911 12.535 10.3599 12.3901C10.0904 12.2871 9.83236 12.1564 9.58991 12.0001C9.12559 11.7022 8.71903 11.3228 8.38991 10.8801C8.24812 10.6984 8.06688 10.5514 7.85991 10.4501C7.74264 10.4065 7.61494 10.3994 7.49358 10.4297C7.37221 10.4601 7.26287 10.5264 7.17991 10.6201C6.89085 10.9844 6.70442 11.4194 6.63991 11.8801C6.46991 12.7801 6.40991 14.0401 6.25991 15.0001C6.2435 15.3516 6.14413 15.6943 5.96991 16.0001C5.90746 16.0755 5.82723 16.1341 5.73645 16.1708C5.64567 16.2075 5.5472 16.2209 5.44991 16.2101C5.35738 16.2051 5.26762 16.1768 5.18895 16.1278C5.11028 16.0789 5.04526 16.0109 4.99991 15.9301C4.86978 15.6306 4.7693 15.3191 4.69991 15.0001C4.55991 14.5001 4.47991 14.0001 4.37991 13.4601C4.2677 12.6272 4.2677 11.783 4.37991 10.9501C4.4531 10.2118 4.5801 9.47983 4.75991 8.76006C5.12711 8.57513 5.46425 8.33576 5.75991 8.05006C6.05172 7.78873 6.28953 7.47278 6.45991 7.12006C6.6316 6.77028 6.73027 6.3892 6.74991 6.00006C6.7543 5.9368 6.7543 5.87331 6.74991 5.81006C7.45991 4.87006 8.36991 3.81006 9.19991 2.81006C9.80433 2.10823 10.474 1.46535 11.1999 0.890056C11.293 0.813571 11.3935 0.746572 11.4999 0.690056C11.5984 0.6659 11.7014 0.6659 11.7999 0.690056C12.1099 0.760056 12.2899 0.850056 12.3099 1.04006C12.2914 1.33404 12.1792 1.61438 11.9899 1.84006L9.91991 5.26006C9.7183 5.51289 9.54085 5.78408 9.38991 6.07006C9.33655 6.22218 9.33655 6.38793 9.38991 6.54006C9.42623 6.67485 9.49038 6.80054 9.57821 6.90905C9.66605 7.01755 9.77563 7.10646 9.89991 7.17006C10.278 7.34994 10.6837 7.46488 11.0999 7.51006L12.3599 7.58006H14.2199C14.6151 7.56816 14.9979 7.4394 15.3199 7.21006C15.7202 6.93028 16.0773 6.59337 16.3799 6.21006L18.5999 3.49006C18.7931 3.25363 19.0148 3.04202 19.2599 2.86006C19.4223 2.7013 19.6339 2.60255 19.8599 2.58006C20.2199 2.58006 20.4299 2.70006 20.5099 2.88006C20.5543 3.0241 20.5683 3.17579 20.5511 3.32554C20.5339 3.47529 20.4858 3.61984 20.4099 3.75006C20.1112 4.36904 19.7599 4.96121 19.3599 5.52006C18.6499 6.43006 17.9999 7.00006 17.2499 8.00006C16.9099 8.43006 16.3399 8.86006 15.9799 9.33006C15.7462 9.6158 15.6003 9.96314 15.5599 10.3301C15.5476 10.5082 15.5898 10.6859 15.6809 10.8395C15.772 10.9931 15.9077 11.1154 16.0699 11.1901C16.6301 11.408 17.2202 11.5395 17.8199 11.5801C18.4499 11.6501 18.8199 11.6701 19.0599 11.6801C19.5499 11.6801 19.7299 11.6201 20.8999 11.5801C21.3215 11.5254 21.7483 11.5254 22.1699 11.5801C22.2796 11.5902 22.3809 11.6431 22.452 11.7273C22.5231 11.8115 22.5582 11.9202 22.5499 12.0301C22.5399 12.4901 22.1799 12.7401 21.7499 12.9101Z" fill="black"/>
<path d="M23 21.1701C23 20.9301 22.65 20.6401 22.05 20.4601C20.8846 20.1905 19.6955 20.0365 18.5 20.0001L18.67 18.8001C18.692 18.5407 18.6648 18.2794 18.59 18.0301C18.5203 17.8318 18.4037 17.6534 18.25 17.5101C17.8896 17.244 17.4471 17.113 17 17.1401C16.5638 17.1379 16.1389 17.2784 15.79 17.5401C15.6779 17.6537 15.5985 17.7953 15.56 17.9501C15.5414 18.1463 15.5414 18.3439 15.56 18.5401C15.56 18.8701 15.51 19.2101 15.56 19.5401C15.5501 19.6398 15.5501 19.7403 15.56 19.8401H14.65C12.65 19.8401 10.47 19.8401 8.52997 20.0201L7.24997 20.1201V18.7101C7.20895 18.432 7.12459 18.1621 6.99997 17.9101C6.90393 17.7081 6.76784 17.5278 6.59997 17.3801C6.55804 17.3512 6.51465 17.3245 6.46997 17.3001C5.88683 17.0989 5.25311 17.0989 4.66997 17.3001C4.45824 17.3793 4.27173 17.514 4.12997 17.6901C4.03283 17.8327 3.97427 17.9981 3.95997 18.1701C3.96622 18.3816 3.98963 18.5923 4.02997 18.8001C4.02997 19.1701 4.08997 19.5601 4.15997 19.9401C4.19731 20.1125 4.24404 20.2828 4.29997 20.4501C3.62599 20.5252 2.95782 20.6454 2.29997 20.8101C2.03997 20.8801 1.65997 20.8601 1.35997 20.9501C1.15659 20.9989 0.972185 21.1067 0.82997 21.2601C0.688612 21.4832 0.602877 21.737 0.57997 22.0001C0.534393 22.3314 0.514334 22.6657 0.51997 23.0001V23.8701C0.527592 23.9479 0.565307 24.0197 0.625081 24.0701C0.684856 24.1206 0.761962 24.1457 0.83997 24.1401C0.920458 24.1325 0.99478 24.0937 1.04709 24.032C1.09939 23.9704 1.12555 23.8907 1.11997 23.8101V23.0501C1.13352 22.7582 1.16694 22.4675 1.21997 22.1801C1.24512 22.0327 1.31493 21.8965 1.41997 21.7901C1.49675 21.7296 1.59224 21.6978 1.68997 21.7001C1.97997 21.7001 2.29997 21.7001 2.52997 21.6301C4.51899 21.3599 6.52281 21.2129 8.52997 21.1901C10.45 21.1201 12.58 21.0501 14.59 21.0201C16.7346 20.9421 18.8819 20.9956 21.02 21.1801C21.3604 21.2107 21.696 21.2812 22.02 21.3901L22.17 21.4601C22.4021 22.1959 22.5793 22.948 22.7 23.7101C22.6959 23.7542 22.7007 23.7988 22.7142 23.841C22.7277 23.8833 22.7496 23.9223 22.7785 23.9559C22.8074 23.9895 22.8428 24.017 22.8826 24.0366C22.9224 24.0562 22.9657 24.0676 23.01 24.0701C23.0547 24.0742 23.0997 24.0694 23.1425 24.0561C23.1854 24.0427 23.2251 24.021 23.2595 23.9921C23.2939 23.9633 23.3223 23.928 23.3429 23.8882C23.3636 23.8483 23.3762 23.8048 23.38 23.7601C23.3501 22.8853 23.2226 22.0166 23 21.1701ZM4.99997 20.3601C4.98025 20.194 4.98025 20.0262 4.99997 19.8601C4.99997 19.5001 5.07997 19.1301 5.10997 18.7801C5.10997 18.6501 5.18997 18.2801 5.34997 18.2801C5.56958 18.2616 5.79036 18.2616 6.00997 18.2801C6.09363 18.3317 6.16252 18.404 6.20997 18.4901C6.27581 18.6204 6.32615 18.758 6.35997 18.9001L6.59997 20.2301C5.99997 20.2401 5.47997 20.3001 4.99997 20.3601ZM16.22 19.8701V19.6101C16.2351 19.1738 16.316 18.7423 16.46 18.3301C16.56 18.1901 17.46 18.2701 17.51 18.3301C17.5679 18.3607 17.6137 18.4101 17.64 18.4701C17.6872 18.5781 17.7176 18.6928 17.73 18.8101V19.9501L16.22 19.8701Z" fill="black"/>
</g>
<defs>
<clipPath id="clip0_9971_10639">
<rect width="24" height="24" fill="white"/>
</clipPath>
</defs>
</svg>
