<svg width="12" height="12" viewBox="0 0 12 12" fill="none" xmlns="http://www.w3.org/2000/svg">
<path fill-rule="evenodd" clip-rule="evenodd" d="M6.38095 10.1546C7.33818 9.3442 8.51026 8.82936 9.75467 8.67272C10.058 8.63276 10.2847 8.37411 10.2846 8.06815V2.32949C10.2848 2.15161 10.208 1.98235 10.0739 1.86545C9.93986 1.74855 9.76171 1.69548 9.58552 1.71996C8.40333 1.90304 7.2945 2.40855 6.38095 3.18092C6.15655 3.35423 5.84345 3.35423 5.61905 3.18092C4.70509 2.40864 3.59586 1.90338 2.41333 1.72072C2.23728 1.69626 2.05926 1.74923 1.92522 1.86596C1.79118 1.98269 1.71425 2.15174 1.71429 2.32949V8.06815C1.71415 8.37411 1.94085 8.63276 2.24419 8.67272C3.489 8.82914 4.66151 9.34399 5.61905 10.1546C5.84331 10.3283 6.15669 10.3283 6.38095 10.1546Z" stroke="black" stroke-width="1.5" stroke-linecap="round" stroke-linejoin="round"/>
<path d="M6 3.30957V10.2852" stroke="black" stroke-width="1.5" stroke-linecap="round" stroke-linejoin="round"/>
</svg>

