<svg xmlns="http://www.w3.org/2000/svg" viewBox="0 0 50 50" height="16" width="16"><defs></defs><path d="M48.887 22.2C50.4 13.514 44 5.233 35.186 5.32a13.772 13.772 0 0 0-9.539 3.968 13.776 13.776 0 0 0-9.54-3.968C7.291 5.233.9 13.514 2.406 22.2 4.617 34.908 20 43.85 24.445 46.192a2.569 2.569 0 0 0 2.4 0C31.3 43.85 46.676 34.908 48.887 22.2z" fill="#631aff"></path><path d="M29.19 38.276a6.381 6.381 0 0 1-6.384 0c-5.877-3.39-17.993-11.616-20.02-22.754a14.783 14.783 0 0 0-.38 6.679C4.617 34.908 20 43.85 24.444 46.192a2.569 2.569 0 0 0 2.4 0C31.3 43.85 46.676 34.908 48.887 22.2a14.8 14.8 0 0 0-.024-5.157C46.075 27.407 34.8 35.042 29.19 38.276z" fill="#2a14af"></path><path d="M34.541 11.172c3.259-.925 7.013 2.532 7 5.99" stroke-linecap="round" stroke-linejoin="round" stroke-width="1.25px" stroke="#7a6bea" fill="none"></path><path d="M48.887 22.2C50.4 13.514 44 5.233 35.186 5.32a13.772 13.772 0 0 0-9.539 3.968 13.776 13.776 0 0 0-9.54-3.968C7.291 5.233.9 13.514 2.406 22.2 4.617 34.908 20 43.85 24.445 46.192a2.569 2.569 0 0 0 2.4 0C31.3 43.85 46.676 34.908 48.887 22.2z" stroke="#45413c" stroke-linecap="round" stroke-linejoin="round" stroke-width="1.25px" fill="none"></path><path d="M38.865 30.367c-1.182 3.943-3.258 6.172-5.191 7.015a.441.441 0 0 0-.127.726 24.246 24.246 0 0 1 5.334 8.09.442.442 0 0 0 .832 0 24.259 24.259 0 0 1 5.333-8.09.441.441 0 0 0-.126-.726c-1.933-.843-4.01-3.072-5.192-7.015a.448.448 0 0 0-.863 0z" stroke-linecap="round" stroke-linejoin="round" stroke-width="1.25px" fill="#fff48c" stroke="#f2c100"></path><path d="M39.3 34.461c-.44 2.113-1.5 3.175-2.4 3.431a8.887 8.887 0 0 1 2.4 3.774 8.884 8.884 0 0 1 2.4-3.774c-.9-.256-1.964-1.318-2.4-3.431z" fill="#ffffff"></path><path d="M5.2 3.767C4.265 6.878 2.626 8.637 1.1 9.3a.348.348 0 0 0-.1.573 19.153 19.153 0 0 1 4.21 6.386.348.348 0 0 0 .656 0 19.153 19.153 0 0 1 4.209-6.383.348.348 0 0 0-.1-.573c-1.526-.666-3.165-2.425-4.1-5.536a.353.353 0 0 0-.675 0z" stroke-linecap="round" stroke-linejoin="round" stroke-width="1.25px" fill="#fff48c" stroke="#f2c100"></path><path d="M5.538 7c-.347 1.665-1.182 2.5-1.895 2.705a7.009 7.009 0 0 1 1.9 2.978 7.009 7.009 0 0 1 1.89-2.978C6.721 9.5 5.885 8.665 5.538 7z" fill="#ffffff"></path><path d="M16.379 4.629a.248.248 0 0 0-.444 0 4.7 4.7 0 0 1-2.67 2.962.171.171 0 0 0-.065.309 10.339 10.339 0 0 1 2.743 3.416.247.247 0 0 0 .428 0A10.349 10.349 0 0 1 19.113 7.9a.171.171 0 0 0-.065-.306 4.7 4.7 0 0 1-2.669-2.965zm-.385 15.912a.212.212 0 0 0-.38 0 4.034 4.034 0 0 1-2.292 2.542.148.148 0 0 0-.056.264 8.851 8.851 0 0 1 2.354 2.931.212.212 0 0 0 .368 0 8.86 8.86 0 0 1 2.353-2.931.148.148 0 0 0-.055-.264 4.031 4.031 0 0 1-2.292-2.542z" fill="#fffef2" stroke="#f2c100" stroke-linecap="round" stroke-linejoin="round" stroke-width="1.25px"></path></svg>
