<svg width="20" height="20" viewBox="0 0 20 20" fill="none" xmlns="http://www.w3.org/2000/svg">
<circle cx="10" cy="10" r="9.5" stroke="black"/>
<g filter="url(#filter0_i_9295_421962)">
<path d="M11.5042 14.1998V14.6403C11.5042 14.8392 11.4228 15.0201 11.2918 15.151C11.1609 15.2818 10.9798 15.3631 10.7807 15.3631H9.23722C9.03815 15.3631 8.85707 15.2818 8.72613 15.151L8.70872 15.132C8.58808 15.0026 8.51375 14.8292 8.51375 14.6403V14.1998C8.51375 13.8349 8.43952 13.4967 8.29536 13.194C8.15051 12.8901 7.93452 12.6188 7.65222 12.3899C7.22167 12.0404 6.87012 11.5979 6.62993 11.0937C6.39784 10.6069 6.26778 10.0623 6.26778 9.48806C6.26778 8.45764 6.68663 7.52325 7.3637 6.84633L7.3654 6.84483C8.04276 6.16859 8.97783 5.75044 10.0089 5.75044C11.0402 5.75044 11.9755 6.1689 12.6531 6.84534L12.6546 6.84704C13.3314 7.52376 13.75 8.45795 13.75 9.48801C13.75 10.0622 13.6199 10.6068 13.3878 11.0936C13.1476 11.5977 12.7962 12.0403 12.3655 12.3898C12.0831 12.6188 11.8671 12.89 11.7224 13.194L11.7153 13.2079C11.5758 13.5066 11.5041 13.8403 11.5041 14.1997L11.5042 14.1998ZM9.27526 16.8057C9.11689 16.8057 8.98835 16.6773 8.98835 16.5191C8.98835 16.3608 9.1169 16.2324 9.27526 16.2324H10.6829C10.8413 16.2324 10.9698 16.3608 10.9698 16.5191C10.9698 16.6773 10.8413 16.8057 10.6829 16.8057H9.27526ZM9.11909 16.0843C8.96073 16.0843 8.83219 15.9559 8.83219 15.7977C8.83219 15.6395 8.96074 15.511 9.11909 15.511H10.8391C10.9974 15.511 11.126 15.6395 11.126 15.7977C11.126 15.9559 10.9974 16.0843 10.8391 16.0843H9.11909ZM9.72213 3.48097C9.72213 3.32276 9.85068 3.19434 10.009 3.19434C10.1674 3.19434 10.2959 3.32276 10.2959 3.48097V5.18512C10.2959 5.34333 10.1674 5.47176 10.009 5.47176C9.85068 5.47176 9.72213 5.34333 9.72213 5.18512V3.48097ZM14.0581 5.03792C14.1701 4.92609 14.3517 4.92609 14.4637 5.03792C14.5756 5.14976 14.5756 5.33116 14.4637 5.4431L13.2574 6.64824C13.1455 6.76008 12.9639 6.76008 12.8519 6.64824C12.7399 6.53641 12.7399 6.35501 12.8519 6.24307L14.0581 5.03792ZM6.7606 12.3284C6.87255 12.2165 7.05412 12.2165 7.16616 12.3284C7.27811 12.4402 7.27811 12.6216 7.16616 12.7335L5.95989 13.9387C5.84794 14.0505 5.66637 14.0505 5.55433 13.9387C5.44239 13.8268 5.44239 13.6454 5.55433 13.5335L6.7606 12.3284ZM16.0219 9.20151C16.1803 9.20151 16.3088 9.32993 16.3088 9.48814C16.3088 9.64636 16.1803 9.77478 16.0219 9.77478H14.3162C14.1578 9.77478 14.0292 9.64635 14.0292 9.48814C14.0292 9.32993 14.1578 9.20151 14.3162 9.20151H16.0219ZM5.70164 9.20151C5.86 9.20151 5.98854 9.32993 5.98854 9.48814C5.98854 9.64636 5.86 9.77478 5.70164 9.77478H3.99589C3.83753 9.77478 3.70898 9.64635 3.70898 9.48814C3.70898 9.32993 3.83753 9.20151 3.99589 9.20151H5.70164ZM5.55428 5.4432C5.44234 5.33136 5.44234 5.14996 5.55428 5.03803C5.66622 4.92619 5.84779 4.92619 5.95984 5.03803L7.16611 6.24317C7.27806 6.35501 7.27806 6.53641 7.16611 6.64835C7.05417 6.76019 6.8726 6.76019 6.76056 6.64835L5.55428 5.4432ZM12.8518 12.7336C12.7399 12.6218 12.7399 12.4404 12.8518 12.3285C12.9638 12.2166 13.1453 12.2166 13.2574 12.3285L14.4636 13.5336C14.5756 13.6454 14.5756 13.8268 14.4636 13.9388C14.3517 14.0506 14.1701 14.0506 14.0581 13.9388L12.8518 12.7336ZM9.27334 6.93102C9.4249 6.88664 9.58417 6.97329 9.62858 7.12481C9.673 7.27623 9.58626 7.43535 9.4346 7.47971L9.38789 7.49361C9.23633 7.53798 9.07706 7.45133 9.03265 7.29981C8.98824 7.1484 9.07497 6.98928 9.22663 6.94491L9.27334 6.93102ZM8.53155 7.27392C8.6633 7.18627 8.84156 7.22175 8.9293 7.35348C9.01704 7.4851 8.98152 7.66319 8.84967 7.75085C8.6615 7.87628 8.49543 8.0303 8.35878 8.20541C8.22323 8.37941 8.11419 8.5764 8.03866 8.78979C7.98614 8.93871 7.82247 9.01686 7.67341 8.96439C7.52435 8.91192 7.44612 8.74841 7.49864 8.59949C7.59468 8.32874 7.73413 8.07708 7.9082 7.85371C8.08456 7.62784 8.29525 7.43132 8.53155 7.27392ZM10.9303 14.6406V14.2C10.9303 13.7567 11.0211 13.3412 11.1976 12.9645L11.2049 12.9479C11.3857 12.5688 11.654 12.2314 12.0049 11.9468C12.3684 11.6519 12.666 11.2765 12.8703 10.8476C13.0663 10.4363 13.1762 9.97536 13.1762 9.48834C13.1762 8.61371 12.822 7.82247 12.2497 7.25078C11.6765 6.67789 10.8844 6.32409 10.009 6.32409C9.13357 6.32409 8.34158 6.67799 7.76936 7.24978C7.19593 7.82247 6.84179 8.61381 6.84179 9.48834C6.84179 9.97536 6.95174 10.4364 7.1477 10.8476C7.35198 11.2765 7.64961 11.6517 8.01314 11.9468C8.36397 12.2312 8.63259 12.5688 8.81314 12.9479C8.99441 13.3285 9.08775 13.7496 9.08775 14.2V14.6406C9.08775 14.6779 9.10116 14.7121 9.12317 14.7378L9.13177 14.7461C9.15868 14.7729 9.19629 14.79 9.23731 14.79H10.7808C10.8218 14.79 10.8594 14.7729 10.8864 14.7461C10.9133 14.7192 10.9304 14.6816 10.9304 14.6406L10.9303 14.6406Z" fill="black"/>
</g>
<defs>
<filter id="filter0_i_9295_421962" x="3.70898" y="3.19434" width="12.5996" height="17.6113" filterUnits="userSpaceOnUse" color-interpolation-filters="sRGB">
<feFlood flood-opacity="0" result="BackgroundImageFix"/>
<feBlend mode="normal" in="SourceGraphic" in2="BackgroundImageFix" result="shape"/>
<feColorMatrix in="SourceAlpha" type="matrix" values="0 0 0 0 0 0 0 0 0 0 0 0 0 0 0 0 0 0 127 0" result="hardAlpha"/>
<feOffset dy="4"/>
<feGaussianBlur stdDeviation="2"/>
<feComposite in2="hardAlpha" operator="arithmetic" k2="-1" k3="1"/>
<feColorMatrix type="matrix" values="0 0 0 0 0 0 0 0 0 0 0 0 0 0 0 0 0 0 0.25 0"/>
<feBlend mode="normal" in2="shape" result="effect1_innerShadow_9295_421962"/>
</filter>
</defs>
</svg>

