<svg xmlns="http://www.w3.org/2000/svg" width="20" height="20" fill="none"><circle cx="10" cy="10" r="9.5" stroke="url(#a)"/><g filter="url(#b)"><path fill="url(#c)" d="M11.504 14.2v.44a.72.72 0 0 1-.723.723H9.237c-.199 0-.38-.081-.51-.212l-.018-.019a.72.72 0 0 1-.195-.492v-.44a2.32 2.32 0 0 0-.219-1.006 2.32 2.32 0 0 0-.643-.804 3.722 3.722 0 0 1-1.384-2.902c0-1.03.419-1.965 1.096-2.642l.001-.001A3.731 3.731 0 0 1 10.01 5.75c1.031 0 1.966.419 2.644 1.095l.002.002a3.724 3.724 0 0 1 1.095 2.641 3.721 3.721 0 0 1-1.384 2.902c-.283.229-.499.5-.644.804l-.007.014c-.14.299-.21.632-.21.992Zm-2.229 2.606a.287.287 0 1 1 0-.574h1.408a.287.287 0 1 1 0 .574H9.275Zm-.156-.722a.287.287 0 1 1 0-.573h1.72a.287.287 0 0 1 0 .573H9.12Zm.603-12.603a.287.287 0 0 1 .574 0v1.704a.287.287 0 0 1-.574 0V3.481Zm4.336 1.557a.287.287 0 0 1 .406.405l-1.207 1.205a.287.287 0 0 1-.405-.405l1.206-1.205Zm-7.297 7.29a.287.287 0 0 1 .405.405L5.96 13.94a.287.287 0 0 1-.406-.405l1.207-1.206Zm9.26-3.126a.287.287 0 1 1 0 .573h-1.705a.287.287 0 1 1 0-.573h1.706Zm-10.32 0a.287.287 0 1 1 0 .573H3.997a.287.287 0 1 1 0-.573h1.706Zm-.147-3.759a.286.286 0 1 1 .406-.405l1.206 1.205a.286.286 0 1 1-.405.405L5.554 5.443Zm7.298 7.29a.286.286 0 1 1 .405-.405l1.207 1.206a.286.286 0 1 1-.406.405l-1.206-1.205ZM9.273 6.932a.286.286 0 0 1 .162.549l-.047.014a.286.286 0 0 1-.161-.55l.046-.013Zm-.741.343a.287.287 0 0 1 .318.477 2.101 2.101 0 0 0-.811 1.039.286.286 0 0 1-.54-.19 2.663 2.663 0 0 1 1.033-1.326Zm2.398 7.367V14.2c0-.443.091-.859.268-1.236l.007-.016c.18-.38.449-.717.8-1.001a3.151 3.151 0 0 0 1.171-2.458 3.159 3.159 0 0 0-3.167-3.164c-.875 0-1.667.353-2.24.925a3.153 3.153 0 0 0-.927 2.238 3.152 3.152 0 0 0 1.171 2.459c.351.284.62.622.8 1 .181.382.275.803.275 1.253v.44a.15.15 0 0 0 .035.098l.009.008a.15.15 0 0 0 .105.044h1.544a.15.15 0 0 0 .15-.15Z"/></g><defs><linearGradient id="a" x1="10" x2="10" y1="0" y2="20" gradientUnits="userSpaceOnUse"><stop stop-color="#1C01C9"/><stop offset="1" stop-color="#9E01FF"/></linearGradient><linearGradient id="c" x1="10.009" x2="10.009" y1="3.194" y2="16.806" gradientUnits="userSpaceOnUse"><stop stop-color="#20F"/><stop offset="1" stop-color="#9E00FF"/></linearGradient><filter id="b" width="12.6" height="17.611" x="3.709" y="3.194" color-interpolation-filters="sRGB" filterUnits="userSpaceOnUse"><feFlood flood-opacity="0" result="BackgroundImageFix"/><feBlend in="SourceGraphic" in2="BackgroundImageFix" result="shape"/><feColorMatrix in="SourceAlpha" result="hardAlpha" values="0 0 0 0 0 0 0 0 0 0 0 0 0 0 0 0 0 0 127 0"/><feOffset dy="4"/><feGaussianBlur stdDeviation="2"/><feComposite in2="hardAlpha" k2="-1" k3="1" operator="arithmetic"/><feColorMatrix values="0 0 0 0 0 0 0 0 0 0 0 0 0 0 0 0 0 0 0.25 0"/><feBlend in2="shape" result="effect1_innerShadow_9295_421962"/></filter></defs></svg>
