<svg width="18" height="16" viewBox="0 0 18 16" fill="none" xmlns="http://www.w3.org/2000/svg">
<path d="M7.24268 12.3333L6.62135 12.9546C5.44977 14.1262 3.55026 14.1262 2.37868 12.9546C1.2071 11.783 1.2071 9.88353 2.37868 8.71195L5.56068 5.52928C6.6671 4.42037 8.44044 4.34938 9.63195 5.36631C10.8235 6.38324 11.032 8.14572 10.1107 9.41262" stroke="#000" stroke-width="1.5" stroke-linecap="round" stroke-linejoin="round"/>
<path d="M10.8789 3.71133L11.3789 3.21133C12.5505 2.03975 14.45 2.03975 15.6216 3.21133C16.7931 4.38291 16.7931 6.28241 15.6216 7.45399L12.4396 10.636C11.3329 11.7444 9.55981 11.815 8.3686 10.798C7.17739 9.78099 6.96903 8.01875 7.89022 6.75199" stroke="#000" stroke-width="1.5" stroke-linecap="round" stroke-linejoin="round"/>
</svg>
