<svg viewBox="0 0 64 64" fill="none" xmlns="http://www.w3.org/2000/svg">
<circle cx="32" cy="32" r="32" fill="#E1EBFF"/>
<path fill-rule="evenodd" clip-rule="evenodd" d="M23.619 31.2144C23.619 30.3859 24.2906 29.7144 25.119 29.7144H38.881C39.7094 29.7144 40.3809 30.3859 40.3809 31.2144V41.9286C40.3809 42.7571 39.7094 43.4286 38.8809 43.4286H25.119C24.2906 43.4286 23.619 42.7571 23.619 41.9286V31.2144Z" stroke="#5C5589" stroke-width="1.5" stroke-linecap="round" stroke-linejoin="round"/>
<path d="M26.6667 29.7144V25.9049C26.6667 22.9593 29.0545 20.5715 32 20.5715C34.9455 20.5715 37.3333 22.9593 37.3333 25.9049V29.7144" stroke="#5C5589" stroke-width="1.5" stroke-linecap="round" stroke-linejoin="round"/>
<path d="M32 35.8096C31.7896 35.8096 31.619 35.9801 31.619 36.1905C31.619 36.4009 31.7896 36.5715 32 36.5715C32.2104 36.5715 32.381 36.4009 32.381 36.1905C32.3812 36.0894 32.3412 35.9924 32.2697 35.9209C32.1982 35.8493 32.1011 35.8093 32 35.8096V35.8096" stroke="#5C5589" stroke-width="1.5" stroke-linecap="round" stroke-linejoin="round"/>
</svg>
