<svg id="logo" viewBox="0 0 24 20" fill="none" xmlns="http://www.w3.org/2000/svg">
  <g clip-path="url(#clip0)">
    <path d="M13.4169 12.5378C13.4169 13.3509 12.7129 13.8591 12.0894 13.8591C11.4659 13.8591 10.7179 13.6064 10.7179 12.5378V12.0181H9.89648V12.5378C9.89648 13.7212 10.8806 14.6838 12.0894 14.6838C13.2982 14.6838 14.2823 13.7212 14.2823 12.5378V12.0181H13.4169V12.5378Z" fill="currentColor"/>
    <path d="M6.51837 10.0281C6.51837 9.25161 7.19182 8.62013 8.01923 8.62013C8.84609 8.62013 9.51954 9.25213 9.51954 10.0281H10.4649C10.4649 8.76202 9.36835 7.73242 8.01923 7.73242C6.67012 7.73242 5.573 8.76202 5.573 10.0281H6.51837Z" fill="currentColor"/>
    <path d="M14.3088 10.0281C14.3088 9.25161 14.9822 8.62013 15.8091 8.62013C16.6365 8.62013 17.3099 9.25213 17.3099 10.0281H18.2553C18.2553 8.76202 17.1582 7.73242 15.8091 7.73242C14.46 7.73242 13.3634 8.76202 13.3634 10.0281H14.3088Z" fill="currentColor"/>
    <path fill-rule="evenodd" clip-rule="evenodd" d="M19.7806 7.01644V3.96497C19.7806 2.93662 19.6556 2.22313 19.4056 1.82446C19.1555 1.42579 18.635 1.11841 17.8438 0.902311C17.605 0.835245 17.4856 0.727197 17.4856 0.578162C17.4856 0.376964 17.7543 0.276367 18.2917 0.276367H19.1089C19.9971 0.276367 20.6706 0.552078 21.1296 1.10351C21.5886 1.65494 21.8181 2.45971 21.8181 3.51786V6.737C21.8181 7.48218 21.8984 8.05595 22.0588 8.45835C22.2193 8.86074 22.516 9.23705 22.9489 9.58728C23.0757 9.69161 23.1392 9.7773 23.1392 9.84437C23.1392 9.91143 23.0757 9.99713 22.9489 10.1015C22.5085 10.4591 22.21 10.8373 22.0532 11.236C21.8965 11.6346 21.8181 12.2066 21.8181 12.9517V16.1597C21.8181 17.2253 21.5868 18.0338 21.124 18.5852C20.6613 19.1367 19.9896 19.4124 19.1089 19.4124H18.2917C17.9409 19.4124 17.7188 19.3956 17.6255 19.3621C17.5322 19.3285 17.4856 19.2447 17.4856 19.1106C17.4856 18.9243 17.6087 18.8013 17.855 18.7417L18.3028 18.6411C19.288 18.4176 19.7806 17.4451 19.7806 15.7238V12.6723C19.7806 11.5173 20.0605 10.7013 20.6203 10.2244L20.833 10.0456C20.9375 9.95614 20.9897 9.88908 20.9897 9.84437C20.9897 9.79221 20.9375 9.72514 20.833 9.64317L20.6203 9.46433C20.0605 8.98742 19.7806 8.17146 19.7806 7.01644Z" fill="currentColor"/>
    <path fill-rule="evenodd" clip-rule="evenodd" d="M4.25857 6.99008V3.9386C4.25857 2.91026 4.38358 2.19676 4.63361 1.79809C4.88364 1.39942 5.40421 1.09204 6.19534 0.875944C6.43417 0.808878 6.55359 0.700829 6.55359 0.551794C6.55359 0.350597 6.28491 0.25 5.74753 0.25H4.93028C4.04213 0.25 3.36855 0.525711 2.90955 1.07714C2.45054 1.62857 2.22104 2.43335 2.22104 3.4915V6.71064C2.22104 7.45581 2.14081 8.02959 1.98035 8.43198C1.81988 8.83438 1.52321 9.21068 1.09033 9.56092C0.963446 9.66524 0.900007 9.75093 0.900007 9.818C0.900007 9.88507 0.963446 9.97076 1.09033 10.0751C1.53067 10.4328 1.82921 10.8109 1.98594 11.2096C2.14268 11.6083 2.22104 12.1802 2.22104 12.9254V16.1333C2.22104 17.1989 2.45241 18.0074 2.91515 18.5589C3.37788 19.1103 4.04959 19.386 4.93028 19.386H5.74753C6.09832 19.386 6.32035 19.3692 6.41365 19.3357C6.50694 19.3022 6.55359 19.2183 6.55359 19.0842C6.55359 18.8979 6.43044 18.775 6.18415 18.7153L5.73634 18.6147C4.75116 18.3912 4.25857 17.4188 4.25857 15.6974V12.6459C4.25857 11.4909 3.97869 10.6749 3.41893 10.198L3.20622 10.0192C3.10173 9.92978 3.04949 9.86271 3.04949 9.818C3.04949 9.76584 3.10173 9.69877 3.20622 9.6168L3.41893 9.43796C3.97869 8.96105 4.25857 8.1451 4.25857 6.99008Z" fill="currentColor"/>
  </g>
  <defs>
    <clipPath id="clip0">
      <rect width="22.2505" height="19.2" fill="white" transform="translate(0.900024 0.25)"/>
    </clipPath>
  </defs>
</svg>