<svg viewBox="0 0 22 22" fill="none" xmlns="http://www.w3.org/2000/svg">
<path fill-rule="evenodd" clip-rule="evenodd" d="M19.0622 11.5302C20.915 9.67821 21.3734 6.84775 20.1997 4.50569L17.0935 7.60844C16.581 8.12082 15.7501 8.12082 15.2376 7.60844L14.5376 6.90844C14.2913 6.66228 14.1529 6.32831 14.1529 5.98007C14.1529 5.63182 14.2913 5.29786 14.5376 5.05169L17.6876 1.90169C15.3741 0.638489 12.5102 1.01025 10.5959 2.82225C8.68157 4.63425 8.15323 7.47352 9.28761 9.85282L1.54998 17.5852C1.29661 17.8383 1.15424 18.1817 1.15424 18.5398C1.15424 18.8979 1.29661 19.2414 1.54998 19.4944L2.50461 20.4499C2.75784 20.7034 3.10141 20.8458 3.45967 20.8458C3.81793 20.8458 4.1615 20.7034 4.41473 20.4499L12.1462 12.7184C14.4705 13.8276 17.2415 13.3515 19.0622 11.5302V11.5302Z" stroke="#000000" stroke-width="1.5" stroke-linecap="round" stroke-linejoin="round"/>
</svg>

