<svg width="167" height="168" viewBox="0 0 167 168" fill="none" xmlns="http://www.w3.org/2000/svg">
<path d="M125.344 80.4428C135.015 73.702 142.894 65.079 147.528 56.161C152.9 45.8231 153.427 35.9145 149.011 28.2611C145.4 22.0022 139.677 18.0328 132.894 17.0835C129.558 16.6169 126.069 16.8789 122.609 17.7933V6.20821C122.609 3.3312 120.27 1 117.388 1H51.5902C48.7063 1 46.3697 3.33245 46.3697 6.20821V17.7923C42.9104 16.8779 39.4216 16.6159 36.0848 17.0836C29.3022 18.0324 23.5784 22.0023 19.9674 28.2612C15.5518 35.915 16.0786 45.8232 21.4507 56.1611C26.0843 65.0787 33.9627 73.7021 43.6353 80.4429C45.6952 81.8789 45.9288 83.4197 45.7616 84.46C45.5723 85.6386 44.8168 86.5905 43.8376 86.8843C42.3658 87.3258 39.5532 86.4584 36.086 82.6921C33.587 79.978 29.3551 79.799 26.6342 82.2923C23.9136 84.786 23.7343 89.0084 26.2334 91.7221C32.6633 98.7068 38.8081 100.315 43.1064 100.315C45.0686 100.315 46.6461 99.9802 47.6901 99.666C49.9217 98.9969 51.9434 97.8335 53.6493 96.3114C58.5201 102.991 65.5139 108.036 73.6364 110.445V129.61H57.3974C49.7349 129.61 43.5003 135.829 43.5003 143.474V161.501C43.5003 165.09 46.4171 168 50.015 168H118.971C122.568 168 125.485 165.09 125.485 161.501V143.474C125.485 135.829 119.251 129.609 111.589 129.609H95.3497V110.445C103.469 108.034 110.463 102.991 115.332 96.3109C117.039 97.8335 119.06 98.996 121.292 99.6655C122.336 99.9786 123.915 100.315 125.876 100.315C130.174 100.315 136.321 98.7037 142.749 91.7216C145.248 89.0066 145.069 84.7846 142.348 82.2918C139.628 79.7982 135.395 79.9771 132.896 82.6916C129.429 86.4569 126.618 87.3245 125.144 86.8838C124.165 86.5904 123.409 85.638 123.22 84.4595C123.052 83.4198 123.282 81.8788 125.346 80.4432M33.3285 50.0173C31.4739 46.4492 28.7799 39.7435 31.563 34.9192C33.1365 32.1924 35.2234 30.682 37.9434 30.3015C40.4837 29.9466 43.457 30.5875 46.3699 32.0109V65.6995C40.7608 60.9471 36.1437 55.4322 33.3275 50.0143M122.609 65.6995V32.0066C125.521 30.5827 128.495 29.9415 131.035 30.2981C133.756 30.6791 135.843 32.189 137.415 34.9157C140.198 39.74 137.498 46.4457 135.65 50.0139C132.835 55.4309 128.219 60.9459 122.607 65.6991L122.609 65.6995Z" fill="url(#paint0_radial_9442_421965)"/>
<defs>
<radialGradient id="paint0_radial_9442_421965" cx="0" cy="0" r="1" gradientUnits="userSpaceOnUse" gradientTransform="translate(85.7881 70.5095) rotate(0.0227777) scale(232.469 226.663)">
<stop/>
<stop offset="1" stop-opacity="0"/>
</radialGradient>
</defs>
</svg>

