<svg width="26" height="25" viewBox="0 0 26 25" fill="none" xmlns="http://www.w3.org/2000/svg">
<path fill-rule="evenodd" clip-rule="evenodd" d="M9.4375 19.0623C8.81618 19.0623 8.3125 18.5586 8.3125 17.9373V12.3123C8.3125 11.6909 8.81618 11.1873 9.4375 11.1873H17.3125C17.9338 11.1873 18.4375 11.6909 18.4375 12.3123V17.9373C18.4375 18.5586 17.9338 19.0623 17.3125 19.0623H16.1875V22.4373L12.8125 19.0623H9.4375Z" stroke="#000000" stroke-width="1.5" stroke-linecap="round" stroke-linejoin="round"/>
<path d="M6.0625 14.5623L3.8125 16.8123V13.4373H2.6875C2.06618 13.4373 1.5625 12.9336 1.5625 12.3123V6.68726C1.5625 6.06594 2.06618 5.56226 2.6875 5.56226H10.5625C11.1838 5.56226 11.6875 6.06594 11.6875 6.68726V8.93726" stroke="#000000" stroke-width="1.5" stroke-linecap="round" stroke-linejoin="round"/>
<path fill-rule="evenodd" clip-rule="evenodd" d="M25.1875 8.51196C25.1875 11.8257 22.5012 14.512 19.1875 14.512C15.8738 14.512 13.1875 11.8257 13.1875 8.51196C13.1875 5.19825 15.8738 2.51196 19.1875 2.51196C22.5012 2.51196 25.1875 5.19825 25.1875 8.51196ZM19.5625 6.38196C19.5625 5.96775 19.2267 5.63196 18.8125 5.63196C18.3983 5.63196 18.0625 5.96775 18.0625 6.38196V9.38196C18.0625 9.79618 18.3983 10.132 18.8125 10.132H20.8958C21.31 10.132 21.6458 9.79618 21.6458 9.38196C21.6458 8.96775 21.31 8.63196 20.8958 8.63196H19.5625V6.38196Z" fill="#000000"/>
</svg>

