<svg width="24" height="24" viewBox="0 0 24 24" fill="none" xmlns="http://www.w3.org/2000/svg">
<g clip-path="url(#clip0_1393_26622)">
<path d="M21.75 18.75H11.25L5.25 23.25V18.75H2.25C1.85218 18.75 1.47064 18.592 1.18934 18.3107C0.908035 18.0294 0.75 17.6478 0.75 17.25V2.25C0.75 1.85218 0.908035 1.47064 1.18934 1.18934C1.47064 0.908035 1.85218 0.75 2.25 0.75H21.75C22.1478 0.75 22.5294 0.908035 22.8107 1.18934C23.092 1.47064 23.25 1.85218 23.25 2.25V17.25C23.25 17.6478 23.092 18.0294 22.8107 18.3107C22.5294 18.592 22.1478 18.75 21.75 18.75Z" stroke="black" stroke-width="1.5" stroke-linecap="round" stroke-linejoin="round"/>
<path d="M6.705 13C6.375 13 6.21 12.8387 6.21 12.516C6.21 12.2007 6.375 12.043 6.705 12.043H8.047V6.554L7.013 7.214C6.87367 7.302 6.74167 7.32767 6.617 7.291C6.49967 7.247 6.408 7.17 6.342 7.06C6.28333 6.95 6.265 6.83267 6.287 6.708C6.31633 6.576 6.40067 6.466 6.54 6.378L8.058 5.421C8.18267 5.34767 8.3 5.289 8.41 5.245C8.52733 5.19367 8.63733 5.168 8.74 5.168C8.86467 5.168 8.96733 5.20467 9.048 5.278C9.136 5.35133 9.18 5.465 9.18 5.619V12.043H10.412C10.7493 12.043 10.918 12.2007 10.918 12.516C10.918 12.8387 10.7493 13 10.412 13H6.705ZM14.8957 13.099C13.9937 13.099 13.3044 12.758 12.8277 12.076C12.3584 11.3867 12.1237 10.4003 12.1237 9.117C12.1237 7.81167 12.3584 6.82533 12.8277 6.158C13.3044 5.48333 13.9937 5.146 14.8957 5.146C15.805 5.146 16.4944 5.48333 16.9637 6.158C17.433 6.82533 17.6677 7.808 17.6677 9.106C17.6677 10.3967 17.4294 11.3867 16.9527 12.076C16.4834 12.758 15.7977 13.099 14.8957 13.099ZM14.8957 12.153C15.453 12.153 15.8674 11.9073 16.1387 11.416C16.41 10.9173 16.5457 10.1473 16.5457 9.106C16.5457 8.05733 16.41 7.29467 16.1387 6.818C15.8747 6.334 15.4604 6.092 14.8957 6.092C14.3384 6.092 13.924 6.334 13.6527 6.818C13.3814 7.302 13.2457 8.06467 13.2457 9.106C13.2457 10.1473 13.3814 10.9173 13.6527 11.416C13.924 11.9073 14.3384 12.153 14.8957 12.153Z" fill="black"/>
</g>
<defs>
<clipPath id="clip0_1393_26622">
<rect width="24" height="24" fill="white"/>
</clipPath>
</defs>
</svg>