<svg width="25" height="25" viewBox="0 0 25 25" fill="none" xmlns="http://www.w3.org/2000/svg">
<path fill-rule="evenodd" clip-rule="evenodd" d="M9.4375 19.0623C8.81618 19.0623 8.3125 18.5586 8.3125 17.9373V12.3123C8.3125 11.6909 8.81618 11.1873 9.4375 11.1873H17.3125C17.9338 11.1873 18.4375 11.6909 18.4375 12.3123V17.9373C18.4375 18.5586 17.9338 19.0623 17.3125 19.0623H16.1875V22.4373L12.8125 19.0623H9.4375Z" stroke="#000000" stroke-width="1.5" stroke-linecap="round" stroke-linejoin="round"/>
<path d="M6.0625 14.5623L3.8125 16.8123V13.4373H2.6875C2.06618 13.4373 1.5625 12.9336 1.5625 12.3123V6.68726C1.5625 6.06594 2.06618 5.56226 2.6875 5.56226H10.5625C11.1838 5.56226 11.6875 6.06594 11.6875 6.68726V8.93726" stroke="#000000" stroke-width="1.5" stroke-linecap="round" stroke-linejoin="round"/>
<circle cx="19" cy="7.99976" r="6" fill="#000000"/>
<path d="M21.1094 5.89014L18.2796 9.93245C18.2039 10.0413 18.0804 10.1071 17.9479 10.1093C17.8153 10.1115 17.6897 10.0498 17.6104 9.94351L16.8906 8.98389" stroke="white" stroke-width="1.5" stroke-linecap="round" stroke-linejoin="round"/>
</svg>

