<svg viewBox="0 0 25 25" fill="none" xmlns="http://www.w3.org/2000/svg">
<path fill-rule="evenodd" clip-rule="evenodd" d="M9.4375 19.0623C8.81618 19.0623 8.3125 18.5586 8.3125 17.9373V12.3123C8.3125 11.6909 8.81618 11.1873 9.4375 11.1873H17.3125C17.9338 11.1873 18.4375 11.6909 18.4375 12.3123V17.9373C18.4375 18.5586 17.9338 19.0623 17.3125 19.0623H16.1875V22.4373L12.8125 19.0623H9.4375Z" stroke="#000000" stroke-width="1.5" stroke-linecap="round" stroke-linejoin="round"/>
<path d="M6.0625 14.5623L3.8125 16.8123V13.4373H2.6875C2.06618 13.4373 1.5625 12.9336 1.5625 12.3123V6.68726C1.5625 6.06594 2.06618 5.56226 2.6875 5.56226H10.5625C11.1838 5.56226 11.6875 6.06594 11.6875 6.68726V8.93726" stroke="#000000" stroke-width="1.5" stroke-linecap="round" stroke-linejoin="round"/>
<path fill-rule="evenodd" clip-rule="evenodd" d="M19 13.9998C22.3137 13.9998 25 11.3135 25 7.99976C25 4.68605 22.3137 1.99976 19 1.99976C15.6863 1.99976 13 4.68605 13 7.99976C13 11.3135 15.6863 13.9998 19 13.9998ZM17.125 8.00694C17.125 8.45999 16.7577 8.82726 16.3047 8.82726C15.8516 8.82726 15.4844 8.45999 15.4844 8.00694C15.4844 7.5539 15.8516 7.18663 16.3047 7.18663C16.7577 7.18663 17.125 7.5539 17.125 8.00694ZM21.6953 8.82726C22.1484 8.82726 22.5156 8.45999 22.5156 8.00694C22.5156 7.5539 22.1484 7.18663 21.6953 7.18663C21.2423 7.18663 20.875 7.5539 20.875 8.00694C20.875 8.45999 21.2423 8.82726 21.6953 8.82726ZM19.8203 8.00694C19.8203 8.45999 19.453 8.82726 19 8.82726C18.547 8.82726 18.1797 8.45999 18.1797 8.00694C18.1797 7.5539 18.547 7.18663 19 7.18663C19.453 7.18663 19.8203 7.5539 19.8203 8.00694Z" fill="#000000"/>
</svg>

