<?xml version="1.0" encoding="utf-8"?><!-- Uploaded to: SVG Repo, www.svgrepo.com, Generator: SVG Repo Mixer Tools -->
<svg width="800px" height="800px" viewBox="0 0 1024 1024" xmlns="http://www.w3.org/2000/svg"><path fill="#000000" d="M512 128a128 128 0 0 0-128 128v256a128 128 0 1 0 256 0V256a128 128 0 0 0-128-128zm0-64a192 192 0 0 1 192 192v256a192 192 0 1 1-384 0V256A192 192 0 0 1 512 64zm-32 832v-64a288 288 0 0 1-288-288v-32a32 32 0 0 1 64 0v32a224 224 0 0 0 224 224h64a224 224 0 0 0 224-224v-32a32 32 0 1 1 64 0v32a288 288 0 0 1-288 288v64h64a32 32 0 1 1 0 64H416a32 32 0 1 1 0-64h64z"/></svg>