<svg width="18" height="16" viewBox="0 0 18 16" fill="none" xmlns="http://www.w3.org/2000/svg">
<path fill-rule="evenodd" clip-rule="evenodd" d="M3.25 9.76532C4.2165 9.76532 5 8.98182 5 8.01532C5 7.04882 4.2165 6.26532 3.25 6.26532C2.2835 6.26532 1.5 7.04882 1.5 8.01532C1.5 8.98182 2.2835 9.76532 3.25 9.76532Z" stroke="#000000" stroke-width="1.5" stroke-linecap="round" stroke-linejoin="round"/>
<path fill-rule="evenodd" clip-rule="evenodd" d="M14.75 9.76532C15.7165 9.76532 16.5 8.98182 16.5 8.01532C16.5 7.04882 15.7165 6.26532 14.75 6.26532C13.7835 6.26532 13 7.04882 13 8.01532C13 8.98182 13.7835 9.76532 14.75 9.76532Z" stroke="#000000" stroke-width="1.5" stroke-linecap="round" stroke-linejoin="round"/>
<path fill-rule="evenodd" clip-rule="evenodd" d="M9 9.76532C9.9665 9.76532 10.75 8.98182 10.75 8.01532C10.75 7.04882 9.9665 6.26532 9 6.26532C8.0335 6.26532 7.25 7.04882 7.25 8.01532C7.25 8.98182 8.0335 9.76532 9 9.76532Z" stroke="#000000" stroke-width="1.5" stroke-linecap="round" stroke-linejoin="round"/>
</svg>

