<svg width="106" height="106" viewBox="0 0 106 106" fill="none" xmlns="http://www.w3.org/2000/svg">
<g>
<path d="M77.5268 100.817C76.7748 103.459 34.0498 103.048 35.6138 100.048C37.3508 96.7135 37.4088 95.8905 36.2178 91.4435C33.9288 82.9015 32.6308 80.1265 30.6268 79.4895C26.9388 78.3195 23.5898 73.7785 24.1728 70.7385C24.5388 68.8245 24.2418 67.7715 23.2238 67.3815C22.4088 67.0685 21.7418 66.2015 21.7418 65.4545C21.7418 64.7075 20.8738 63.6325 19.8138 63.0645C18.7528 62.4975 16.8598 59.8935 15.6078 57.2795C14.3548 54.6655 12.4358 51.5055 11.3428 50.2565C8.84381 47.4025 8.11484 39.2035 10.2858 38.3705C11.0868 38.0635 11.7418 37.2405 11.7418 36.5415C11.7418 34.5275 14.2398 32.9815 17.8758 32.7445C19.7188 32.6245 22.0288 31.7285 23.0078 30.7535C24.4108 29.3555 25.2138 29.2085 26.8028 30.0585C27.9108 30.6515 29.6638 30.8685 30.6988 30.5395C32.3088 30.0285 32.5558 29.0145 32.4108 23.4895C32.3178 19.9405 31.9038 17.0335 31.4918 17.0315C30.2248 17.0215 30.6618 13.2255 31.9918 12.6855C32.9758 12.2865 32.9638 11.9825 31.9338 11.2575C31.0928 10.6655 30.8618 9.39451 31.2868 7.70151C31.8518 5.44951 32.2328 5.21851 33.9088 6.11551C35.3048 6.86251 36.2648 6.83651 37.2418 6.02551C38.2428 5.19451 39.1648 5.18151 40.6548 5.97951C42.3038 6.86251 43.0838 6.6835 44.7188 5.0495C45.8308 3.9365 47.6418 3.0265 48.7418 3.0265C49.8528 3.0265 50.7418 2.3595 50.7418 1.5265C50.7418 -0.819495 56.9768 -0.363489 60.2648 2.22351C61.8018 3.43151 63.9548 4.48651 65.0488 4.56751C66.1438 4.64851 67.6478 5.54551 68.3908 6.56151C69.1338 7.57751 70.4658 8.5155 71.3498 8.6445C72.2348 8.7745 73.9218 9.77751 75.0998 10.8735C76.2778 11.9695 78.5739 13.0145 80.2019 13.1965C82.3959 13.4405 83.3198 14.1735 83.7688 16.0265C84.1098 17.4325 85.0018 18.4245 85.8078 18.2935C87.4158 18.0325 90.7418 23.2195 90.7418 25.9885C90.7418 26.9785 92.2568 28.9445 94.1098 30.3575C97.2348 32.7415 97.4818 33.3435 97.5298 38.7205C97.5588 41.9065 97.0598 45.1425 96.4228 45.9105C95.7848 46.6785 95.1978 48.6145 95.1168 50.2115C95.0368 51.8085 94.2448 53.9175 93.3568 54.8995C92.4688 55.8805 91.7418 57.2875 91.7418 58.0265C91.7418 58.7645 91.0288 60.1565 90.1578 61.1185C89.2868 62.0815 87.7508 65.4915 86.7458 68.6975C85.2528 73.4565 84.5468 74.4845 82.8968 74.2995C79.5388 73.9235 77.0058 79.3945 76.1968 88.7685C75.6998 94.5195 75.8368 97.4355 76.6488 98.4135C77.2878 99.1845 77.6838 100.266 77.5268 100.817ZM37.0948 99.9375C33.5948 107.384 76.6448 104.043 75.9208 104.037C75.0618 104.027 74.8228 103.335 75.2348 102.037C76.4398 98.2405 74.6408 98.1145 69.9838 101.67C64.5478 105.819 57.9518 105.475 58.8258 104.423C59.6908 103.38 59.6368 102.935 58.6008 102.568C52.7948 100.514 51.7378 99.8955 51.7378 98.5515C51.7378 97.4815 52.7618 97.0275 55.1748 97.0275C57.8488 97.0275 59.4018 96.1935 62.1668 93.2775C64.1218 91.2145 65.7248 89.1605 65.7298 88.7115C65.7518 86.6645 63.4838 84.0275 61.7028 84.0275C60.6228 84.0275 59.7378 83.5285 59.7378 82.9205C59.7378 82.3115 59.1328 82.0455 58.3918 82.3295C57.6518 82.6135 54.6148 82.5175 51.6418 82.1165L46.2378 81.3865L54.2378 80.6475C65.3028 79.6255 65.6668 79.5185 62.4878 78.2095C60.9758 77.5865 59.7378 76.6475 59.7378 76.1235C59.7378 75.5985 58.9818 74.4135 58.0578 73.4895C56.4828 71.9145 56.5178 71.7015 58.6118 70.1225L60.8479 68.4365L58.7928 66.5765C57.6628 65.5535 56.7378 63.9615 56.7378 63.0385C56.7378 59.9565 55.5338 60.1015 52.2548 63.5785C49.6238 66.3685 48.2598 67.0245 45.1198 67.0125C40.3518 66.9945 36.6408 65.2165 35.1568 62.2395C32.9088 57.7315 32.4938 58.6945 33.0908 67.0275C33.5708 73.7175 33.4588 75.0485 32.5668 73.2775C30.9708 70.1125 29.3758 70.4495 30.2108 73.7755C30.5898 75.2865 30.9768 76.5235 31.0698 76.5255C31.1618 76.5265 32.1208 77.0155 33.2008 77.6125C34.6648 78.4225 35.6128 80.9645 36.9308 87.6125C38.5628 95.8455 38.5758 96.7875 37.0948 99.9375ZM51.2408 72.0225C51.5808 71.4725 52.5338 71.0225 53.3588 71.0225C54.1838 71.0225 54.5808 71.4725 54.2408 72.0225C53.9008 72.5725 52.9478 73.0225 52.1228 73.0225C51.2978 73.0225 50.9008 72.5725 51.2408 72.0225ZM72.0639 76.2665C72.3179 75.8535 72.8338 73.4525 73.2118 70.9305L73.8978 66.3445L69.0588 66.4305C65.2718 66.4975 64.3068 66.8425 64.6198 68.0165C64.8398 68.8415 65.1298 70.7205 65.2648 72.1925C65.3998 73.6645 65.8088 75.3525 66.1738 75.9425C66.9278 77.1625 71.3619 77.4065 72.0639 76.2665ZM62.7198 70.9575C62.7198 69.8255 62.2698 69.1765 61.7198 69.5165C61.1698 69.8565 60.7198 70.7825 60.7198 71.5755C60.7198 72.3685 61.1698 73.0165 61.7198 73.0165C62.2698 73.0165 62.7198 72.0895 62.7198 70.9575ZM50.7198 64.0165C52.6748 62.0615 53.3978 58.0275 52.0368 56.6665C51.6608 56.2905 50.7829 57.3405 50.0849 58.9995C49.3609 60.7215 48.0658 62.0165 47.0678 62.0165C45.7088 62.0165 45.5868 61.7495 46.5198 60.8165C48.2788 59.0575 47.9858 57.5505 46.1778 59.0515C45.0278 60.0055 44.3468 60.0425 43.5008 59.1975C42.6648 58.3605 42.0148 58.3575 41.0198 59.1825C40.2778 59.7985 39.3878 60.0185 39.0418 59.6725C38.6958 59.3265 40.1698 58.2715 42.3168 57.3275C45.7798 55.8065 45.9568 55.5705 43.8878 55.2345C42.6048 55.0265 40.7688 55.5675 39.8088 56.4365C38.8478 57.3055 37.5058 58.0165 36.8248 58.0165C34.5348 58.0165 36.0498 63.3845 38.7198 64.7285C42.5878 66.6755 48.4068 66.3305 50.7198 64.0165ZM71.7198 64.1235C71.7198 63.0235 69.2398 62.0165 66.5308 62.0165C65.1878 62.0165 64.6898 61.5355 65.0538 60.5895C65.3548 59.8045 64.9528 58.6245 64.1608 57.9675C62.9458 56.9595 62.7198 57.4185 62.7198 60.8945V65.0165H67.2198C69.6948 65.0165 71.7198 64.6145 71.7198 64.1235ZM59.0728 53.5205C59.8958 52.6975 61.8408 51.5345 63.3938 50.9365L66.2198 49.8475L62.2198 47.7975C60.0198 46.6695 58.0718 45.3635 57.8908 44.8945C57.7098 44.4265 56.7468 43.0365 55.7498 41.8065C54.1238 39.7985 53.1868 39.6005 46.5898 39.8695C38.3098 40.2075 36.7198 41.0455 36.7198 45.0735C36.7198 46.6205 36.2748 49.0565 35.7308 50.4875C34.9478 52.5475 35.0658 53.2125 36.2978 53.6855C37.1538 54.0135 38.3638 53.7725 38.9868 53.1495C40.6008 51.5355 48.8568 51.8055 51.1608 53.5485C53.6578 55.4365 57.1688 55.4245 59.0728 53.5205ZM34.7198 9.45751C34.7198 8.60051 34.2628 8.18151 33.7038 8.52651C33.1448 8.87251 32.9458 9.57351 33.2628 10.0855C34.1198 11.4725 34.7198 11.2135 34.7198 9.45751Z" fill="black"/>
</g>
</svg>