<svg width="48" height="48" viewBox="0 0 48 48" fill="none" xmlns="http://www.w3.org/2000/svg">
<g clip-path="url(#clip0_9259_171779)">
<path fill-rule="evenodd" clip-rule="evenodd" d="M21.5569 10.7765L14.7536 6.84862C14.2869 6.57914 13.7118 6.57914 13.2451 6.84862L6.44179 10.7765C5.97505 11.046 5.68753 11.544 5.68753 12.0829V19.9387C5.68753 20.4776 5.97505 20.9756 6.44179 21.2451L13.2451 25.173C13.7118 25.4425 14.2869 25.4425 14.7536 25.173L21.5569 21.2451C22.0236 20.9756 22.3112 20.4776 22.3112 19.9387V12.0829C22.3112 11.544 22.0236 11.046 21.5569 10.7765ZM15.0769 6.28872C14.4101 5.90376 13.5886 5.90376 12.9218 6.28872L6.11854 10.2166C5.45176 10.6016 5.04102 11.313 5.04102 12.0829V19.9387C5.04102 20.7086 5.45176 21.4201 6.11854 21.805L12.9218 25.7329C13.5886 26.1179 14.4101 26.1179 15.0769 25.7329L21.8802 21.805C22.5469 21.4201 22.9577 20.7086 22.9577 19.9387V12.0829C22.9577 11.313 22.5469 10.6016 21.8802 10.2166L15.0769 6.28872Z" fill="#F0DB4F"/>
<rect x="9" y="11" width="10" height="10" fill="#F8DC3D"/>
<path d="M13.1203 19.9653C13.9341 19.9653 14.4919 19.5322 14.4919 18.5806V15.4437H13.5731V18.5675C13.5731 19.0269 13.3828 19.145 13.0809 19.145C12.7659 19.145 12.6347 18.9284 12.4903 18.6725L11.7422 19.1253C11.9588 19.5847 12.3853 19.9653 13.1203 19.9653Z" fill="black"/>
<path d="M16.6647 19.9653C17.5375 19.9653 18.1872 19.5125 18.1872 18.6856C18.1872 17.9178 17.7475 17.5765 16.9666 17.2419L16.7369 17.1434C16.3431 16.9728 16.1725 16.8612 16.1725 16.5856C16.1725 16.3625 16.3431 16.1919 16.6122 16.1919C16.8747 16.1919 17.0453 16.3034 17.2028 16.5856L17.9181 16.1262C17.6162 15.5947 17.1962 15.3912 16.6122 15.3912C15.7919 15.3912 15.2669 15.9162 15.2669 16.6053C15.2669 17.3534 15.7066 17.7078 16.3694 17.99L16.5991 18.0884C17.0191 18.2722 17.2684 18.3837 17.2684 18.6987C17.2684 18.9612 17.0256 19.1515 16.645 19.1515C16.1922 19.1515 15.9362 18.9153 15.7394 18.5937L14.9912 19.0269C15.2603 19.5584 15.8116 19.9653 16.6647 19.9653Z" fill="black"/>
<path fill-rule="evenodd" clip-rule="evenodd" d="M41.5391 10.7713L34.7431 6.8477C34.2769 6.57852 33.7025 6.57852 33.2362 6.8477L26.4403 10.7713C25.974 11.0405 25.6868 11.538 25.6868 12.0764V19.9236C25.6868 20.462 25.974 20.9595 26.4403 21.2287L33.2362 25.1523C33.7025 25.4215 34.2769 25.4215 34.7431 25.1523L41.5391 21.2287C42.0053 20.9595 42.2925 20.462 42.2925 19.9236V12.0764C42.2925 11.538 42.0053 11.0405 41.5391 10.7713ZM35.066 6.28841C34.4 5.90386 33.5794 5.90386 32.9133 6.28841L26.1174 10.2121C25.4513 10.5966 25.041 11.3073 25.041 12.0764V19.9236C25.041 20.6927 25.4513 21.4034 26.1174 21.7879L32.9133 25.7116C33.5794 26.0961 34.4 26.0961 35.066 25.7116L41.862 21.7879C42.528 21.4034 42.9383 20.6927 42.9383 19.9236V12.0764C42.9383 11.3073 42.528 10.5966 41.862 10.2121L35.066 6.28841Z" fill="#341394"/>
<path d="M29.0001 15.9955C28.9703 11.1096 35.6113 8.95216 38.4752 13.4921L36.2777 14.7451C34.9511 12.583 31.6572 13.3561 31.539 15.9955C31.5745 18.428 34.8119 19.558 36.2778 17.2457L38.4753 18.4987C35.9514 22.8163 29.1274 21.2629 29.0001 15.9955Z" fill="#341394"/>
<path d="M37.3778 14.5768H37.7963L37.5104 17.2987H37.084L37.3778 14.5768Z" fill="#341394"/>
<path d="M38.2743 14.5768H38.6928L38.4069 17.2987H37.9805L38.2743 14.5768Z" fill="#341394"/>
<path d="M39.0008 15.2231H36.9082V15.6214H39.0008V15.2231Z" fill="#341394"/>
<path d="M38.8836 16.1935H36.791V16.5918H38.8836V16.1935Z" fill="#341394"/>
<path fill-rule="evenodd" clip-rule="evenodd" d="M31.5391 28.2713L24.7431 24.3477C24.2769 24.0785 23.7025 24.0785 23.2362 24.3477L16.4403 28.2713C15.974 28.5405 15.6868 29.038 15.6868 29.5764V37.4236C15.6868 37.962 15.974 38.4595 16.4403 38.7287L23.2362 42.6523C23.7025 42.9215 24.2769 42.9215 24.7431 42.6523L31.5391 38.7287C32.0053 38.4595 32.2925 37.962 32.2925 37.4236V29.5764C32.2925 29.038 32.0053 28.5405 31.5391 28.2713ZM25.066 23.7884C24.4 23.4039 23.5794 23.4039 22.9133 23.7884L16.1174 27.7121C15.4513 28.0966 15.041 28.8073 15.041 29.5764V37.4236C15.041 38.1927 15.4513 38.9034 16.1174 39.2879L22.9133 43.2116C23.5794 43.5961 24.4 43.5961 25.066 43.2116L31.862 39.2879C32.528 38.9034 32.9383 38.1927 32.9383 37.4236V29.5764C32.9383 28.8073 32.528 28.0966 31.862 27.7121L25.066 23.7884Z" fill="#7D41A4"/>
<g clip-path="url(#clip1_9259_171779)">
<path fill-rule="evenodd" clip-rule="evenodd" d="M24.3178 28.5251C23.5912 28.7827 22.8899 29.5343 22.2138 30.7801C21.1996 32.6487 19.8897 35.304 21.6934 37.4064C22.5279 38.379 23.9057 38.9531 25.7139 38.0439C27.1664 37.3136 27.5704 35.2176 27.0489 34.2327C25.9732 32.201 24.8818 31.6998 24.5895 30.4399C24.3947 29.5999 24.3041 28.9616 24.3178 28.5251Z" fill="url(#paint0_linear_9259_171779)"/>
<path fill-rule="evenodd" clip-rule="evenodd" d="M24.3183 28.5C23.5881 28.7602 22.8868 29.5118 22.2143 30.7549C21.2057 32.6195 19.8902 35.2789 21.694 37.3813C22.5285 38.3539 23.8885 38.6682 24.6432 38.0913C25.1352 37.7153 25.4698 37.3568 25.6626 36.6016C25.8773 35.7606 25.7126 34.6283 25.5997 34.1082C25.4569 33.4501 25.4102 32.7277 25.4595 31.9411C25.4421 31.9199 25.4291 31.904 25.4205 31.8935C25.0276 31.4127 24.7244 30.9939 24.5901 30.4147C24.3953 29.5747 24.3047 28.9365 24.3183 28.5Z" fill="url(#paint1_linear_9259_171779)"/>
<path fill-rule="evenodd" clip-rule="evenodd" d="M23.714 28.8271C23.0339 29.3647 22.5282 30.2663 22.1969 31.532C21.7 33.4305 21.6462 35.1813 21.8214 36.1997C22.1611 38.1738 23.9223 38.9231 25.7288 38.0042C26.8406 37.4388 27.3036 36.2249 27.2791 34.9074C27.2537 33.5432 24.6174 31.9971 24.1506 30.8585C23.8393 30.0995 23.6938 29.4224 23.714 28.8271Z" fill="url(#paint2_linear_9259_171779)"/>
<path fill-rule="evenodd" clip-rule="evenodd" d="M25.4377 32.3866C26.2534 33.4327 26.4312 34.1609 25.9711 34.5712C25.281 35.1867 23.5934 35.5883 22.5435 34.8437C21.8436 34.3474 21.5788 33.2826 21.7491 31.6494C21.4601 32.2528 21.2158 32.8641 21.0162 33.4831C20.8165 34.1022 20.7582 34.7501 20.8413 35.4267C21.0915 35.9329 21.6998 36.271 22.6663 36.441C24.1161 36.6959 25.4882 36.57 26.409 36.1058C27.0228 35.7964 27.3131 35.4884 27.2799 35.1818C27.3021 34.729 27.1625 34.2979 26.8611 33.8887C26.5597 33.4794 26.0852 32.9787 25.4377 32.3866Z" fill="url(#paint3_linear_9259_171779)"/>
<path fill-rule="evenodd" clip-rule="evenodd" d="M22.2501 31.342C22.2433 32.0975 22.4376 32.8157 22.8329 33.4966C23.4259 34.5179 24.1181 35.5271 25.1539 36.3636C25.8444 36.9213 26.3962 37.1015 26.8092 36.9041C26.47 37.5112 26.1093 37.8087 25.7271 37.7966C25.1539 37.7784 24.4549 37.5279 23.335 36.182C22.5884 35.2848 22.0776 34.4361 21.8027 33.6359C21.8463 33.3185 21.8926 33.0023 21.9414 32.6874C21.9903 32.3724 22.0932 31.924 22.2501 31.342Z" fill="url(#paint4_linear_9259_171779)"/>
<path fill-rule="evenodd" clip-rule="evenodd" d="M24.0016 32.3788C24.0649 32.9942 24.3044 33.9787 24.0016 34.6342C23.6987 35.2896 22.2999 36.4738 22.686 37.5169C23.0721 38.56 24.0131 38.3258 24.6034 37.8451C25.1937 37.3644 25.5096 36.5827 25.5797 36.033C25.6497 35.4833 25.4121 34.4255 25.3348 33.5055C25.2833 32.8921 25.3183 32.3662 25.4397 31.9278L25.2588 31.7002L24.1942 31.385C24.0235 31.6372 23.9593 31.9685 24.0016 32.3788Z" fill="url(#paint5_linear_9259_171779)"/>
<path fill-rule="evenodd" clip-rule="evenodd" d="M24.381 29.3304C24.0364 29.476 23.7099 29.7645 23.4016 30.1959C22.939 30.843 22.7035 31.2309 22.8778 32.5136C22.9941 33.3688 23.0773 34.1555 23.1275 34.8737L24.6186 30.5414C24.5637 30.3206 24.5181 30.1213 24.4818 29.9433C24.4454 29.7653 24.4118 29.561 24.381 29.3304Z" fill="url(#paint6_linear_9259_171779)"/>
<path fill-rule="evenodd" clip-rule="evenodd" d="M24.6171 30.5328C24.2385 30.7538 23.9452 31.2064 23.7371 31.8908C23.529 32.5751 23.3387 33.5318 23.166 34.7609C23.3963 33.9792 23.5491 33.413 23.6243 33.0623C23.7371 32.5363 23.7757 31.7924 24.0753 31.2874C24.2751 30.9507 24.4556 30.6992 24.6171 30.5328Z" fill="#330A4C" fill-opacity="0.316321"/>
<path fill-rule="evenodd" clip-rule="evenodd" d="M23.1772 29.3304C22.8346 29.7398 22.5377 30.1737 22.2865 30.6322C22.0354 31.0908 21.8559 31.4329 21.7482 31.6585C21.7148 31.8268 21.6985 32.0752 21.6992 32.4035C21.7 32.7319 21.7284 33.097 21.7844 33.4988C21.8335 32.7119 21.9836 31.9481 22.2348 31.2074C22.486 30.4667 22.8001 29.8411 23.1772 29.3304Z" fill="#EDEDED" fill-opacity="0.603261"/>
</g>
</g>
<defs>
<linearGradient id="paint0_linear_9259_171779" x1="24.1778" y1="29.2622" x2="23.8309" y2="38.4924" gradientUnits="userSpaceOnUse">
<stop stop-color="#D9D8DC"/>
<stop offset="1" stop-color="white" stop-opacity="0.385275"/>
</linearGradient>
<linearGradient id="paint1_linear_9259_171779" x1="24.3352" y1="29.2599" x2="20.7098" y2="37.2058" gradientUnits="userSpaceOnUse">
<stop stop-color="#8D67AF" stop-opacity="0.671932"/>
<stop offset="1" stop-color="#9F8DAF"/>
</linearGradient>
<linearGradient id="paint2_linear_9259_171779" x1="24.7402" y1="31.8343" x2="24.7402" y2="38.2241" gradientUnits="userSpaceOnUse">
<stop stop-color="#26053D" stop-opacity="0.761634"/>
<stop offset="1" stop-color="#B7B4B4" stop-opacity="0.277683"/>
</linearGradient>
<linearGradient id="paint3_linear_9259_171779" x1="21.4611" y1="32.2665" x2="23.0878" y2="36.5755" gradientUnits="userSpaceOnUse">
<stop stop-color="#91739F" stop-opacity="0.45955"/>
<stop offset="1" stop-color="#32054F" stop-opacity="0.539912"/>
</linearGradient>
<linearGradient id="paint4_linear_9259_171779" x1="25.8091" y1="37.5652" x2="21.3358" y2="33.8587" gradientUnits="userSpaceOnUse">
<stop stop-color="#463D49" stop-opacity="0.331182"/>
<stop offset="1" stop-color="#340A50" stop-opacity="0.821388"/>
</linearGradient>
<linearGradient id="paint5_linear_9259_171779" x1="24.8891" y1="31.8945" x2="21.7342" y2="36.694" gradientUnits="userSpaceOnUse">
<stop stop-color="#715383" stop-opacity="0.145239"/>
<stop offset="1" stop-color="#F4F4F4" stop-opacity="0.233639"/>
</linearGradient>
<linearGradient id="paint6_linear_9259_171779" x1="25.1903" y1="33.3585" x2="22.956" y2="33.2221" gradientUnits="userSpaceOnUse">
<stop stop-color="#A5A1A8" stop-opacity="0.356091"/>
<stop offset="1" stop-color="#370C50" stop-opacity="0.581975"/>
</linearGradient>
<clipPath id="clip0_9259_171779">
<rect width="40" height="40" fill="white" transform="translate(4 4)"/>
</clipPath>
<clipPath id="clip1_9259_171779">
<rect width="10" height="10" fill="white" transform="translate(19 28.5)"/>
</clipPath>
</defs>
</svg>

