<svg width="82" height="82" viewBox="0 0 82 82" fill="none" xmlns="http://www.w3.org/2000/svg">
<path d="M1 41C1 51.6087 5.21427 61.7828 12.7157 69.2843C20.2172 76.7857 30.3913 81 41 81C51.6087 81 61.7828 76.7857 69.2843 69.2843C76.7857 61.7828 81 51.6087 81 41C81 30.3913 76.7857 20.2172 69.2843 12.7157C61.7828 5.21427 51.6087 1 41 1C30.3913 1 20.2172 5.21427 12.7157 12.7157C5.21427 20.2172 1 30.3913 1 41Z" fill="#DAEDF7" stroke="#DAEDF7"/>
<path opacity="0.15" d="M54.392 66.658C54.392 67.658 46.112 68.467 35.898 68.467C25.684 68.467 17.4 67.658 17.4 66.658C17.4 65.658 25.68 64.849 35.894 64.849C46.108 64.849 54.392 65.659 54.392 66.658Z" fill="#45413C"/>
<path d="M17.083 8.50299H54.714V59.16H17.083V8.50299Z" fill="#F7E5C6"/>
<path d="M54.713 11.021C54.7135 10.6905 54.649 10.3631 54.5229 10.0575C54.3969 9.7519 54.212 9.47414 53.9786 9.24004C53.7453 9.00594 53.4681 8.8201 53.1629 8.69312C52.8577 8.56615 52.5305 8.50052 52.2 8.5H19.6C19.2694 8.5 18.942 8.56514 18.6366 8.69169C18.3311 8.81824 18.0536 9.00374 17.8199 9.23757C17.5861 9.4714 17.4007 9.74899 17.2743 10.0545C17.1479 10.36 17.0829 10.6874 17.083 11.018V15.74C17.0846 14.9719 17.3908 14.2358 17.9345 13.6933C18.4782 13.1507 19.2149 12.846 19.983 12.846H51.819C52.5865 12.846 53.3226 13.1509 53.8654 13.6936C54.4081 14.2364 54.713 14.9725 54.713 15.74V11.021Z" fill="#FFF5E3"/>
<path d="M17.083 8.50299H54.714V59.16H17.083V8.50299Z" stroke="#45413C"/>
<path d="M59.943 48.606C59.943 48.8832 59.8333 49.1491 59.6379 49.3456C59.4425 49.5422 59.1772 49.6534 58.9 49.655H54.713V42.584H59.943V48.606Z" fill="#00DFEB" stroke="#45413C" stroke-linejoin="round"/>
<path d="M54.713 21.37H59.943V28.441H54.713V21.37Z" fill="#FF8A14" stroke="#45413C" stroke-linejoin="round"/>
<path d="M54.713 28.441H59.943V35.512H54.713V28.441Z" fill="#FFE500" stroke="#45413C" stroke-linejoin="round"/>
<path d="M54.713 35.512H59.943V42.583H54.713V35.512Z" fill="#6DD627" stroke="#45413C" stroke-linejoin="round"/>
<path d="M59.943 21.372H54.713V14.3H58.9C59.1781 14.3003 59.4446 14.4109 59.6411 14.6076C59.8376 14.8043 59.948 15.071 59.948 15.349L59.943 21.372Z" fill="#FF6242" stroke="#45413C" stroke-linejoin="round"/>
<path d="M29.385 34.556H49.648V50.477H29.385V34.556Z" fill="white" stroke="#45413C"/>
<path d="M33.003 38.898H46.029" stroke="#45413C" stroke-linecap="round" stroke-linejoin="round"/>
<path d="M33.003 42.516H46.029" stroke="#45413C" stroke-linecap="round" stroke-linejoin="round"/>
<path d="M33.003 46.134H46.029" stroke="#45413C" stroke-linecap="round" stroke-linejoin="round"/>
<path d="M24.319 59.16H19.6C18.9325 59.16 18.2923 58.8948 17.8202 58.4228C17.3482 57.9508 17.083 57.3105 17.083 56.643V11.021C17.0825 10.6901 17.1472 10.3624 17.2735 10.0566C17.3997 9.75072 17.585 9.47278 17.8188 9.23863C18.0526 9.00448 18.3302 8.81872 18.6359 8.69198C18.9415 8.56524 19.2691 8.5 19.6 8.5H24.319V59.16Z" fill="#915E3A"/>
<path d="M17.083 15.74C17.0846 14.9719 17.3908 14.2358 17.9345 13.6933C18.4782 13.1507 19.2149 12.846 19.983 12.846H24.324V8.5H19.6C19.2694 8.5 18.942 8.56514 18.6366 8.69169C18.3311 8.81824 18.0536 9.00374 17.8199 9.23757C17.5861 9.4714 17.4007 9.74899 17.2743 10.0545C17.1479 10.36 17.0829 10.6874 17.083 11.018V15.74Z" fill="#BF8256"/>
<path d="M24.319 59.16H19.6C18.9325 59.16 18.2923 58.8948 17.8202 58.4228C17.3482 57.9508 17.083 57.3105 17.083 56.643V11.021C17.0825 10.6901 17.1472 10.3624 17.2735 10.0566C17.3997 9.75072 17.585 9.47278 17.8188 9.23863C18.0526 9.00448 18.3302 8.81872 18.6359 8.69198C18.9415 8.56524 19.2691 8.5 19.6 8.5H24.319V59.16Z" stroke="#45413C"/>
<path d="M64.733 31.316L68.3 38.544C68.441 38.8309 68.6499 39.0789 68.9085 39.2668C69.1671 39.4546 69.4676 39.5766 69.784 39.622L77.762 40.782C78.1258 40.8352 78.4675 40.9889 78.7486 41.226C79.0296 41.4631 79.2388 41.774 79.3524 42.1236C79.4661 42.4733 79.4798 42.8478 79.3919 43.2048C79.304 43.5618 79.118 43.8871 78.855 44.144L73.081 49.771C72.8524 49.9943 72.6815 50.2698 72.583 50.5738C72.4846 50.8778 72.4616 51.2011 72.516 51.516L73.878 59.462C73.9401 59.8247 73.8995 60.1976 73.7608 60.5384C73.622 60.8792 73.3907 61.1744 73.0929 61.3906C72.7951 61.6068 72.4428 61.7354 72.0758 61.7618C71.7088 61.7882 71.3417 61.7114 71.016 61.54L63.881 57.789C63.598 57.6403 63.2832 57.5626 62.9635 57.5626C62.6438 57.5626 62.329 57.6403 62.046 57.789L54.912 61.54C54.5864 61.7112 54.2195 61.7879 53.8526 61.7614C53.4857 61.7349 53.1336 61.6063 52.836 61.3901C52.5384 61.1739 52.3073 60.8787 52.1688 60.538C52.0302 60.1973 51.9898 59.8245 52.052 59.462L53.414 51.516C53.4684 51.2011 53.4454 50.8778 53.347 50.5738C53.2485 50.2698 53.0776 49.9943 52.849 49.771L47.075 44.144C46.8116 43.8873 46.6253 43.5619 46.5372 43.2048C46.4491 42.8477 46.4626 42.4731 46.5764 42.1232C46.6901 41.7734 46.8994 41.4624 47.1807 41.2254C47.462 40.9884 47.804 40.8348 48.168 40.782L56.146 39.622C56.4622 39.5762 56.7626 39.4541 57.0211 39.2663C57.2796 39.0785 57.4886 38.8306 57.63 38.544L61.2 31.316C61.3627 30.9864 61.6144 30.7089 61.9265 30.5149C62.2387 30.3209 62.5989 30.218 62.9665 30.218C63.3341 30.218 63.6943 30.3209 64.0065 30.5149C64.3186 30.7089 64.5703 30.9864 64.733 31.316Z" fill="#FFE500"/>
<path d="M52.3 58.042L53.418 51.516C53.4724 51.2011 53.4494 50.8777 53.351 50.5737C53.2525 50.2697 53.0816 49.9942 52.853 49.771L47.079 44.144C46.8156 43.8872 46.6293 43.5619 46.5412 43.2048C46.4531 42.8477 46.4666 42.473 46.5804 42.1232C46.6941 41.7734 46.9034 41.4624 47.1847 41.2254C47.466 40.9883 47.808 40.8348 48.172 40.782L56.15 39.622C56.4662 39.5761 56.7666 39.454 57.0251 39.2662C57.2837 39.0784 57.4926 38.8305 57.634 38.544L61.2 31.316C61.3625 30.9858 61.6142 30.7078 61.9266 30.5134C62.239 30.319 62.5996 30.2159 62.9675 30.2159C63.3354 30.2159 63.696 30.319 64.0084 30.5134C64.3208 30.7078 64.5725 30.9858 64.735 31.316L68.3 38.544C68.441 38.8308 68.6499 39.0789 68.9085 39.2668C69.1671 39.4546 69.4676 39.5765 69.784 39.622L70.3 39.697L52.3 58.042Z" fill="#FFF48C"/>
<path d="M64.733 31.316L68.3 38.544C68.441 38.8309 68.6499 39.0789 68.9085 39.2668C69.1671 39.4546 69.4676 39.5766 69.784 39.622L77.762 40.782C78.1258 40.8352 78.4675 40.9889 78.7486 41.226C79.0296 41.4631 79.2388 41.774 79.3524 42.1236C79.4661 42.4733 79.4798 42.8478 79.3919 43.2048C79.304 43.5618 79.118 43.8871 78.855 44.144L73.081 49.771C72.8524 49.9943 72.6815 50.2698 72.583 50.5738C72.4846 50.8778 72.4616 51.2011 72.516 51.516L73.878 59.462C73.9401 59.8247 73.8995 60.1976 73.7608 60.5384C73.622 60.8792 73.3907 61.1744 73.0929 61.3906C72.7951 61.6068 72.4428 61.7354 72.0758 61.7618C71.7088 61.7882 71.3416 61.7114 71.016 61.54L63.881 57.789C63.598 57.6403 63.2832 57.5626 62.9635 57.5626C62.6438 57.5626 62.329 57.6403 62.046 57.789L54.912 61.54C54.5864 61.7112 54.2195 61.7879 53.8526 61.7614C53.4857 61.7349 53.1336 61.6063 52.836 61.3901C52.5384 61.1739 52.3073 60.8787 52.1688 60.538C52.0302 60.1973 51.9898 59.8245 52.052 59.462L53.414 51.516C53.4684 51.2011 53.4454 50.8778 53.347 50.5738C53.2485 50.2698 53.0776 49.9943 52.849 49.771L47.075 44.144C46.8116 43.8873 46.6253 43.5619 46.5372 43.2048C46.4491 42.8477 46.4626 42.4731 46.5764 42.1232C46.6901 41.7734 46.8994 41.4624 47.1807 41.2254C47.462 40.9884 47.804 40.8348 48.168 40.782L56.146 39.622C56.4622 39.5762 56.7626 39.4541 57.0211 39.2663C57.2796 39.0785 57.4886 38.8306 57.63 38.544L61.2 31.316C61.3627 30.9864 61.6144 30.7089 61.9265 30.5149C62.2387 30.3209 62.5989 30.218 62.9665 30.218C63.3341 30.218 63.6943 30.3209 64.0065 30.5149C64.3186 30.7089 64.5703 30.9864 64.733 31.316Z" stroke="#45413C" stroke-linecap="round" stroke-linejoin="round"/>
<path d="M38.1953 24.2955V24.692C38.1954 25.0351 38.3148 25.2388 38.4766 25.359C38.6411 25.4812 38.8572 25.5231 39.0596 25.5231C39.4527 25.5231 39.8945 25.2016 39.8946 24.692V24.2955H40.5713V24.692C40.5712 25.5095 39.892 26.1725 39.0596 26.1725C38.2273 26.1725 37.548 25.5095 37.5479 24.692V24.2955H38.1953Z" fill="#45413C" stroke="#45413C" stroke-width="0.1"/>
<path d="M36.3462 21.4384C37.2701 21.4384 38.0267 22.144 38.0269 23.0185V23.0683H37.2964V23.0185C37.2963 22.5318 36.8728 22.1298 36.3462 22.1298C35.8192 22.1298 35.3961 22.5315 35.396 23.0185V23.0683H34.6655V23.0185C34.6656 22.144 35.4223 21.4384 36.3462 21.4384Z" fill="#45413C" stroke="#45413C" stroke-width="0.1"/>
<path d="M41.5398 21.4384C42.4635 21.4386 43.2203 22.1441 43.2204 23.0185V23.0683H42.49V23.0185C42.4898 22.5319 42.0666 22.13 41.5398 22.1298C41.0132 22.1298 40.5897 22.5315 40.5896 23.0185V23.0683H39.8591V23.0185C39.8592 22.144 40.6158 21.4384 41.5398 21.4384Z" fill="#45413C" stroke="#45413C" stroke-width="0.1"/>
<path d="M43.7391 16.4677C44.3422 16.4677 44.8072 16.6553 45.1249 17.037C45.4412 17.4171 45.5956 17.9669 45.5956 18.6786V20.8242C45.5956 21.3185 45.6493 21.6944 45.7528 21.954C45.8559 22.2122 46.0474 22.4561 46.3309 22.6855V22.6865C46.3748 22.7225 46.4099 22.7569 46.4344 22.79C46.4585 22.8224 46.4764 22.8587 46.4764 22.8964C46.4764 22.934 46.4584 22.9695 46.4344 23.0019C46.4223 23.0183 46.4077 23.0355 46.3905 23.0527L46.3309 23.1064C46.0422 23.341 45.8494 23.5863 45.7489 23.8417C45.6478 24.0989 45.5956 24.4733 45.5956 24.9677V27.1064C45.5956 27.8231 45.4399 28.3757 45.121 28.7558C44.8009 29.1371 44.3373 29.3251 43.7391 29.3251H43.1942C43.0768 29.3251 42.9799 29.3221 42.9042 29.3163C42.8299 29.3107 42.7713 29.3017 42.7333 29.288C42.6914 29.2729 42.6582 29.2458 42.6366 29.207C42.6156 29.1692 42.6073 29.1232 42.6073 29.0732C42.6074 28.999 42.6324 28.9347 42.6835 28.8837C42.7333 28.834 42.8044 28.8003 42.8915 28.7792H42.8925L43.1913 28.7119C43.5036 28.6409 43.7384 28.4523 43.8964 28.1406C44.0555 27.8263 44.1376 27.3854 44.1376 26.8154V24.7812C44.1376 24.005 44.3254 23.443 44.7147 23.1113L44.8563 22.9921L44.9276 22.9218C44.9435 22.9014 44.9432 22.8939 44.9432 22.8964C44.9432 22.8953 44.9422 22.8858 44.9276 22.8671C44.9137 22.8493 44.8912 22.8276 44.8583 22.8017L44.8563 22.8007L44.7147 22.6806C44.3253 22.3489 44.1376 21.787 44.1376 21.0107V18.9765C44.1376 18.2916 44.0529 17.8288 43.8944 17.5761C43.7574 17.3577 43.4865 17.1766 43.0702 17.039L42.8827 16.9833C42.7994 16.96 42.7313 16.9278 42.6835 16.8847C42.6341 16.8401 42.6073 16.7837 42.6073 16.7187C42.6073 16.6729 42.6228 16.6318 42.6532 16.5976C42.6828 16.5644 42.7249 16.5399 42.7743 16.5214C42.8724 16.4848 43.0136 16.4677 43.1942 16.4677H43.7391Z" fill="#45413C" stroke="#45413C" stroke-width="0.1"/>
<path d="M34.8315 16.4502C35.0123 16.4502 35.1542 16.4672 35.2523 16.5039C35.3016 16.5224 35.3429 16.5469 35.3725 16.5801C35.403 16.6143 35.4193 16.6553 35.4193 16.7012C35.4193 16.7662 35.3925 16.8226 35.3432 16.8672C35.2954 16.9104 35.2273 16.9424 35.144 16.9658H35.143C34.6197 17.1088 34.2878 17.309 34.1313 17.5586C33.9728 17.8113 33.8891 18.2742 33.8891 18.959V20.9932C33.8891 21.7693 33.7011 22.3313 33.3119 22.6631L33.1693 22.7832L33.1684 22.7842C33.1354 22.81 33.113 22.8318 33.099 22.8496C33.0845 22.8683 33.0834 22.8777 33.0834 22.8789C33.0842 22.8813 33.0876 22.8897 33.099 22.9043C33.1135 22.9228 33.137 22.9461 33.1703 22.9746H33.1693L33.3119 23.0938L33.4486 23.2295C33.7452 23.5699 33.889 24.0847 33.8891 24.7637V26.7979C33.8891 27.3679 33.9711 27.8088 34.1303 28.123C34.2884 28.4348 34.5229 28.6234 34.8354 28.6943L35.1342 28.7617L35.2523 28.8027C35.2875 28.82 35.3181 28.8412 35.3432 28.8662C35.3941 28.9171 35.4192 28.9816 35.4193 29.0557C35.4193 29.1057 35.4101 29.1517 35.3891 29.1895C35.3674 29.2283 35.3344 29.2554 35.2924 29.2705C35.2544 29.2841 35.1957 29.2932 35.1215 29.2988C35.0458 29.3045 34.9488 29.3076 34.8315 29.3076H34.2865C33.6884 29.3075 33.2247 29.1197 32.9047 28.7383C32.5858 28.3582 32.4311 27.8055 32.4311 27.0889V24.9502C32.4311 24.4558 32.3788 24.0814 32.2777 23.8242C32.1773 23.5688 31.9845 23.3234 31.6957 23.0889H31.6947C31.6509 23.0528 31.6157 23.0175 31.5912 22.9844C31.5674 22.9521 31.5503 22.9164 31.5502 22.8789C31.5502 22.8412 31.5672 22.8049 31.5912 22.7725C31.6157 22.7394 31.651 22.705 31.6947 22.6689L31.6957 22.668C31.9792 22.4386 32.1708 22.1947 32.2738 21.9365C32.3774 21.6769 32.4311 21.301 32.4311 20.8066V18.6611C32.4311 17.9496 32.5846 17.3995 32.9008 17.0195C33.2185 16.6379 33.6836 16.4503 34.2865 16.4502H34.8315Z" fill="#45413C" stroke="#45413C" stroke-width="0.1"/>
</svg>
