<svg width="48" height="48" viewBox="0 0 48 48" fill="none" xmlns="http://www.w3.org/2000/svg">
<path d="M9.32778 23.8443L12.7294 25.8082C12.9319 25.9251 13.0566 26.1411 13.0566 26.3748V30.3027C13.0566 30.5365 12.9319 30.7525 12.7294 30.8693L9.32778 32.8333C9.12535 32.9501 8.87595 32.9501 8.67352 32.8333L5.27187 30.8693C5.06944 30.7525 4.94474 30.5365 4.94474 30.3027V26.3748C4.94474 26.1411 5.06944 25.9251 5.27187 25.8082L8.67352 23.8443C8.87595 23.7274 9.12535 23.7274 9.32778 23.8443ZM9.58941 23.3911C9.22509 23.1808 8.77622 23.1808 8.41189 23.3911L5.01024 25.3551C4.64592 25.5654 4.42148 25.9541 4.42148 26.3748V30.3027C4.42148 30.7234 4.64592 31.1121 5.01024 31.3225L8.41189 33.2864C8.77622 33.4968 9.22509 33.4968 9.58941 33.2864L12.9911 31.3225C13.3554 31.1121 13.5798 30.7234 13.5798 30.3027V26.3748C13.5798 25.9541 13.3554 25.5654 12.9911 25.3551L9.58941 23.3911Z" fill="url(#paint0_linear_9259_171526)" stroke="url(#paint1_linear_9259_171526)" stroke-width="0.2"/>
<path d="M19.3278 23.8443L22.7294 25.8082C22.9319 25.9251 23.0566 26.1411 23.0566 26.3748V30.3027C23.0566 30.5365 22.9319 30.7525 22.7294 30.8693L19.3278 32.8333C19.1254 32.9501 18.8759 32.9501 18.6735 32.8333L15.2719 30.8693C15.0694 30.7525 14.9447 30.5365 14.9447 30.3027V26.3748C14.9447 26.1411 15.0694 25.9251 15.2719 25.8082L18.6735 23.8443C18.8759 23.7274 19.1254 23.7274 19.3278 23.8443ZM19.5894 23.3911C19.2251 23.1808 18.7762 23.1808 18.4119 23.3911L15.0102 25.3551C14.6459 25.5654 14.4215 25.9541 14.4215 26.3748V30.3027C14.4215 30.7234 14.6459 31.1121 15.0102 31.3225L18.4119 33.2864C18.7762 33.4968 19.2251 33.4968 19.5894 33.2864L22.9911 31.3225C23.3554 31.1121 23.5798 30.7234 23.5798 30.3027V26.3748C23.5798 25.9541 23.3554 25.5654 22.9911 25.3551L19.5894 23.3911Z" fill="url(#paint2_linear_9259_171526)" stroke="url(#paint3_linear_9259_171526)" stroke-width="0.2"/>
<path d="M29.3278 23.8443L32.7294 25.8082C32.9319 25.9251 33.0566 26.1411 33.0566 26.3748V30.3027C33.0566 30.5365 32.9319 30.7525 32.7294 30.8693L29.3278 32.8333C29.1254 32.9501 28.8759 32.9501 28.6735 32.8333L25.2719 30.8693C25.0694 30.7525 24.9447 30.5365 24.9447 30.3027V26.3748C24.9447 26.1411 25.0694 25.9251 25.2719 25.8082L28.6735 23.8443C28.8759 23.7274 29.1254 23.7274 29.3278 23.8443ZM29.5894 23.3911C29.2251 23.1808 28.7762 23.1808 28.4119 23.3911L25.0102 25.3551C24.6459 25.5654 24.4215 25.9541 24.4215 26.3748V30.3027C24.4215 30.7234 24.6459 31.1121 25.0102 31.3225L28.4119 33.2864C28.7762 33.4968 29.2251 33.4968 29.5894 33.2864L32.9911 31.3225C33.3554 31.1121 33.5798 30.7234 33.5798 30.3027V26.3748C33.5798 25.9541 33.3554 25.5654 32.9911 25.3551L29.5894 23.3911Z" fill="url(#paint4_linear_9259_171526)" stroke="url(#paint5_linear_9259_171526)" stroke-width="0.2"/>
<path d="M39.3278 23.8443L42.7294 25.8082C42.9319 25.9251 43.0566 26.1411 43.0566 26.3748V30.3027C43.0566 30.5365 42.9319 30.7525 42.7294 30.8693L39.3278 32.8333C39.1254 32.9501 38.8759 32.9501 38.6735 32.8333L35.2719 30.8693C35.0694 30.7525 34.9447 30.5365 34.9447 30.3027V26.3748C34.9447 26.1411 35.0694 25.9251 35.2719 25.8082L38.6735 23.8443C38.8759 23.7274 39.1254 23.7274 39.3278 23.8443ZM39.5894 23.3911C39.2251 23.1808 38.7762 23.1808 38.4119 23.3911L35.0102 25.3551C34.6459 25.5654 34.4215 25.9541 34.4215 26.3748V30.3027C34.4215 30.7234 34.6459 31.1121 35.0102 31.3225L38.4119 33.2864C38.7762 33.4968 39.2251 33.4968 39.5894 33.2864L42.9911 31.3225C43.3554 31.1121 43.5798 30.7234 43.5798 30.3027V26.3748C43.5798 25.9541 43.3554 25.5654 42.9911 25.3551L39.5894 23.3911Z" fill="url(#paint6_linear_9259_171526)" stroke="url(#paint7_linear_9259_171526)" stroke-width="0.2"/>
<path d="M14.3278 14.6775L17.7294 16.6415C17.9319 16.7584 18.0566 16.9743 18.0566 17.2081V21.136C18.0566 21.3697 17.9319 21.5857 17.7294 21.7026L14.3278 23.6665C14.1254 23.7834 13.8759 23.7834 13.6735 23.6665L10.2719 21.7026C10.0694 21.5857 9.94474 21.3697 9.94474 21.136V17.2081C9.94474 16.9743 10.0694 16.7584 10.2719 16.6415L13.6735 14.6775C13.8759 14.5607 14.1254 14.5607 14.3278 14.6775ZM14.5894 14.2244C14.2251 14.014 13.7762 14.014 13.4119 14.2244L10.0102 16.1883C9.64592 16.3987 9.42148 16.7874 9.42148 17.2081V21.136C9.42148 21.5567 9.64592 21.9454 10.0102 22.1557L13.4119 24.1197C13.7762 24.33 14.2251 24.33 14.5894 24.1197L17.9911 22.1557C18.3554 21.9454 18.5798 21.5567 18.5798 21.136V17.2081C18.5798 16.7874 18.3554 16.3987 17.9911 16.1883L14.5894 14.2244Z" fill="url(#paint8_linear_9259_171526)" stroke="url(#paint9_linear_9259_171526)" stroke-width="0.2"/>
<path d="M14.3278 33.0109L17.7294 34.9749C17.9319 35.0917 18.0566 35.3077 18.0566 35.5415V39.4693C18.0566 39.7031 17.9319 39.9191 17.7294 40.036L14.3278 41.9999C14.1254 42.1168 13.8759 42.1168 13.6735 41.9999L10.2719 40.036C10.0694 39.9191 9.94474 39.7031 9.94474 39.4693V35.5415C9.94474 35.3077 10.0694 35.0917 10.2719 34.9749L13.6735 33.0109C13.8759 32.894 14.1254 32.894 14.3278 33.0109ZM14.5894 32.5578C14.2251 32.3474 13.7762 32.3474 13.4119 32.5578L10.0102 34.5217C9.64592 34.732 9.42148 35.1208 9.42148 35.5415V39.4693C9.42148 39.89 9.64592 40.2788 10.0102 40.4891L13.4119 42.453C13.7762 42.6634 14.2251 42.6634 14.5894 42.453L17.9911 40.4891C18.3554 40.2788 18.5798 39.89 18.5798 39.4693V35.5415C18.5798 35.1208 18.3554 34.732 17.9911 34.5217L14.5894 32.5578Z" fill="url(#paint10_linear_9259_171526)" stroke="url(#paint11_linear_9259_171526)" stroke-width="0.2"/>
<path d="M24.3278 14.6775L27.7294 16.6415C27.9319 16.7584 28.0566 16.9743 28.0566 17.2081V21.136C28.0566 21.3697 27.9319 21.5857 27.7294 21.7026L24.3278 23.6665C24.1254 23.7834 23.8759 23.7834 23.6735 23.6665L20.2719 21.7026C20.0694 21.5857 19.9447 21.3697 19.9447 21.136V17.2081C19.9447 16.9743 20.0694 16.7584 20.2719 16.6415L23.6735 14.6775C23.8759 14.5607 24.1254 14.5607 24.3278 14.6775ZM24.5894 14.2244C24.2251 14.014 23.7762 14.014 23.4119 14.2244L20.0102 16.1883C19.6459 16.3987 19.4215 16.7874 19.4215 17.2081V21.136C19.4215 21.5567 19.6459 21.9454 20.0102 22.1557L23.4119 24.1197C23.7762 24.33 24.2251 24.33 24.5894 24.1197L27.9911 22.1557C28.3554 21.9454 28.5798 21.5567 28.5798 21.136V17.2081C28.5798 16.7874 28.3554 16.3987 27.9911 16.1883L24.5894 14.2244Z" fill="url(#paint12_linear_9259_171526)" stroke="url(#paint13_linear_9259_171526)" stroke-width="0.2"/>
<path d="M29.3278 5.51091L32.7294 7.47485C32.9319 7.59173 33.0566 7.80772 33.0566 8.04146V11.9693C33.0566 12.2031 32.9319 12.4191 32.7294 12.536L29.3278 14.4999C29.1254 14.6168 28.8759 14.6168 28.6735 14.4999L25.2719 12.536C25.0694 12.4191 24.9447 12.2031 24.9447 11.9693V8.04146C24.9447 7.80772 25.0694 7.59173 25.2719 7.47485L28.6735 5.51091C28.8759 5.39404 29.1254 5.39404 29.3278 5.51091ZM29.5894 5.05776C29.2251 4.84741 28.7762 4.84741 28.4119 5.05776L25.0102 7.0217C24.6459 7.23204 24.4215 7.62077 24.4215 8.04146V11.9693C24.4215 12.39 24.6459 12.7788 25.0102 12.9891L28.4119 14.953C28.7762 15.1634 29.2251 15.1634 29.5894 14.953L32.9911 12.9891C33.3554 12.7788 33.5798 12.39 33.5798 11.9693V8.04146C33.5798 7.62077 33.3554 7.23204 32.9911 7.0217L29.5894 5.05776Z" fill="url(#paint14_linear_9259_171526)" stroke="url(#paint15_linear_9259_171526)" stroke-width="0.2"/>
<path d="M19.3278 5.51091L22.7294 7.47485C22.9319 7.59173 23.0566 7.80772 23.0566 8.04146V11.9693C23.0566 12.2031 22.9319 12.4191 22.7294 12.536L19.3278 14.4999C19.1254 14.6168 18.8759 14.6168 18.6735 14.4999L15.2719 12.536C15.0694 12.4191 14.9447 12.2031 14.9447 11.9693V8.04146C14.9447 7.80772 15.0694 7.59173 15.2719 7.47485L18.6735 5.51091C18.8759 5.39404 19.1254 5.39404 19.3278 5.51091ZM19.5894 5.05776C19.2251 4.84741 18.7762 4.84741 18.4119 5.05776L15.0102 7.0217C14.6459 7.23204 14.4215 7.62077 14.4215 8.04146V11.9693C14.4215 12.39 14.6459 12.7788 15.0102 12.9891L18.4119 14.953C18.7762 15.1634 19.2251 15.1634 19.5894 14.953L22.9911 12.9891C23.3554 12.7788 23.5798 12.39 23.5798 11.9693V8.04146C23.5798 7.62077 23.3554 7.23204 22.9911 7.0217L19.5894 5.05776Z" fill="url(#paint16_linear_9259_171526)" stroke="url(#paint17_linear_9259_171526)" stroke-width="0.2"/>
<path d="M24.3278 33.0109L27.7294 34.9749C27.9319 35.0917 28.0566 35.3077 28.0566 35.5415V39.4693C28.0566 39.7031 27.9319 39.9191 27.7294 40.036L24.3278 41.9999C24.1254 42.1168 23.8759 42.1168 23.6735 41.9999L20.2719 40.036C20.0694 39.9191 19.9447 39.7031 19.9447 39.4693V35.5415C19.9447 35.3077 20.0694 35.0917 20.2719 34.9749L23.6735 33.0109C23.8759 32.894 24.1254 32.894 24.3278 33.0109ZM24.5894 32.5578C24.2251 32.3474 23.7762 32.3474 23.4119 32.5578L20.0102 34.5217C19.6459 34.732 19.4215 35.1208 19.4215 35.5415V39.4693C19.4215 39.89 19.6459 40.2788 20.0102 40.4891L23.4119 42.453C23.7762 42.6634 24.2251 42.6634 24.5894 42.453L27.9911 40.4891C28.3554 40.2788 28.5798 39.89 28.5798 39.4693V35.5415C28.5798 35.1208 28.3554 34.732 27.9911 34.5217L24.5894 32.5578Z" fill="url(#paint18_linear_9259_171526)" stroke="url(#paint19_linear_9259_171526)" stroke-width="0.2"/>
<path d="M34.3278 14.6775L37.7294 16.6415C37.9319 16.7584 38.0566 16.9743 38.0566 17.2081V21.136C38.0566 21.3697 37.9319 21.5857 37.7294 21.7026L34.3278 23.6665C34.1254 23.7834 33.8759 23.7834 33.6735 23.6665L30.2719 21.7026C30.0694 21.5857 29.9447 21.3697 29.9447 21.136V17.2081C29.9447 16.9743 30.0694 16.7584 30.2719 16.6415L33.6735 14.6775C33.8759 14.5607 34.1254 14.5607 34.3278 14.6775ZM34.5894 14.2244C34.2251 14.014 33.7762 14.014 33.4119 14.2244L30.0102 16.1883C29.6459 16.3987 29.4215 16.7874 29.4215 17.2081V21.136C29.4215 21.5567 29.6459 21.9454 30.0102 22.1557L33.4119 24.1197C33.7762 24.33 34.2251 24.33 34.5894 24.1197L37.9911 22.1557C38.3554 21.9454 38.5798 21.5567 38.5798 21.136V17.2081C38.5798 16.7874 38.3554 16.3987 37.9911 16.1883L34.5894 14.2244Z" fill="url(#paint20_linear_9259_171526)" stroke="url(#paint21_linear_9259_171526)" stroke-width="0.2"/>
<path d="M34.3278 33.0109L37.7294 34.9749C37.9319 35.0917 38.0566 35.3077 38.0566 35.5415V39.4693C38.0566 39.7031 37.9319 39.9191 37.7294 40.036L34.3278 41.9999C34.1254 42.1168 33.8759 42.1168 33.6735 41.9999L30.2719 40.036C30.0694 39.9191 29.9447 39.7031 29.9447 39.4693V35.5415C29.9447 35.3077 30.0694 35.0917 30.2719 34.9749L33.6735 33.0109C33.8759 32.894 34.1254 32.894 34.3278 33.0109ZM34.5894 32.5578C34.2251 32.3474 33.7762 32.3474 33.4119 32.5578L30.0102 34.5217C29.6459 34.732 29.4215 35.1208 29.4215 35.5415V39.4693C29.4215 39.89 29.6459 40.2788 30.0102 40.4891L33.4119 42.453C33.7762 42.6634 34.2251 42.6634 34.5894 42.453L37.9911 40.4891C38.3554 40.2788 38.5798 39.89 38.5798 39.4693V35.5415C38.5798 35.1208 38.3554 34.732 37.9911 34.5217L34.5894 32.5578Z" fill="url(#paint22_linear_9259_171526)" stroke="url(#paint23_linear_9259_171526)" stroke-width="0.2"/>
<defs>
<linearGradient id="paint0_linear_9259_171526" x1="9.00065" y1="23.3334" x2="9.00065" y2="33.3442" gradientUnits="userSpaceOnUse">
<stop stop-color="#2200FF"/>
<stop offset="1" stop-color="#9E00FF"/>
</linearGradient>
<linearGradient id="paint1_linear_9259_171526" x1="9.00065" y1="23.3334" x2="9.00065" y2="33.3442" gradientUnits="userSpaceOnUse">
<stop stop-color="#2200FF"/>
<stop offset="1" stop-color="#9E00FF"/>
</linearGradient>
<linearGradient id="paint2_linear_9259_171526" x1="19.0007" y1="23.3334" x2="19.0007" y2="33.3442" gradientUnits="userSpaceOnUse">
<stop stop-color="#2200FF"/>
<stop offset="1" stop-color="#9E00FF"/>
</linearGradient>
<linearGradient id="paint3_linear_9259_171526" x1="19.0007" y1="23.3334" x2="19.0007" y2="33.3442" gradientUnits="userSpaceOnUse">
<stop stop-color="#2200FF"/>
<stop offset="1" stop-color="#9E00FF"/>
</linearGradient>
<linearGradient id="paint4_linear_9259_171526" x1="29.0007" y1="23.3334" x2="29.0007" y2="33.3442" gradientUnits="userSpaceOnUse">
<stop stop-color="#2200FF"/>
<stop offset="1" stop-color="#9E00FF"/>
</linearGradient>
<linearGradient id="paint5_linear_9259_171526" x1="29.0007" y1="23.3334" x2="29.0007" y2="33.3442" gradientUnits="userSpaceOnUse">
<stop stop-color="#2200FF"/>
<stop offset="1" stop-color="#9E00FF"/>
</linearGradient>
<linearGradient id="paint6_linear_9259_171526" x1="39.0007" y1="23.3334" x2="39.0007" y2="33.3442" gradientUnits="userSpaceOnUse">
<stop stop-color="#2200FF"/>
<stop offset="1" stop-color="#9E00FF"/>
</linearGradient>
<linearGradient id="paint7_linear_9259_171526" x1="39.0007" y1="23.3334" x2="39.0007" y2="33.3442" gradientUnits="userSpaceOnUse">
<stop stop-color="#2200FF"/>
<stop offset="1" stop-color="#9E00FF"/>
</linearGradient>
<linearGradient id="paint8_linear_9259_171526" x1="14.0007" y1="14.1666" x2="14.0007" y2="24.1774" gradientUnits="userSpaceOnUse">
<stop stop-color="#2200FF"/>
<stop offset="1" stop-color="#9E00FF"/>
</linearGradient>
<linearGradient id="paint9_linear_9259_171526" x1="14.0007" y1="14.1666" x2="14.0007" y2="24.1774" gradientUnits="userSpaceOnUse">
<stop stop-color="#2200FF"/>
<stop offset="1" stop-color="#9E00FF"/>
</linearGradient>
<linearGradient id="paint10_linear_9259_171526" x1="14.0007" y1="32.5" x2="14.0007" y2="42.5108" gradientUnits="userSpaceOnUse">
<stop stop-color="#2200FF"/>
<stop offset="1" stop-color="#9E00FF"/>
</linearGradient>
<linearGradient id="paint11_linear_9259_171526" x1="14.0007" y1="32.5" x2="14.0007" y2="42.5108" gradientUnits="userSpaceOnUse">
<stop stop-color="#2200FF"/>
<stop offset="1" stop-color="#9E00FF"/>
</linearGradient>
<linearGradient id="paint12_linear_9259_171526" x1="24.0007" y1="14.1666" x2="24.0007" y2="24.1774" gradientUnits="userSpaceOnUse">
<stop stop-color="#2200FF"/>
<stop offset="1" stop-color="#9E00FF"/>
</linearGradient>
<linearGradient id="paint13_linear_9259_171526" x1="24.0007" y1="14.1666" x2="24.0007" y2="24.1774" gradientUnits="userSpaceOnUse">
<stop stop-color="#2200FF"/>
<stop offset="1" stop-color="#9E00FF"/>
</linearGradient>
<linearGradient id="paint14_linear_9259_171526" x1="29.0007" y1="5" x2="29.0007" y2="15.0108" gradientUnits="userSpaceOnUse">
<stop stop-color="#2200FF"/>
<stop offset="1" stop-color="#9E00FF"/>
</linearGradient>
<linearGradient id="paint15_linear_9259_171526" x1="29.0007" y1="5" x2="29.0007" y2="15.0108" gradientUnits="userSpaceOnUse">
<stop stop-color="#2200FF"/>
<stop offset="1" stop-color="#9E00FF"/>
</linearGradient>
<linearGradient id="paint16_linear_9259_171526" x1="19.0007" y1="5" x2="19.0007" y2="15.0108" gradientUnits="userSpaceOnUse">
<stop stop-color="#2200FF"/>
<stop offset="1" stop-color="#9E00FF"/>
</linearGradient>
<linearGradient id="paint17_linear_9259_171526" x1="19.0007" y1="5" x2="19.0007" y2="15.0108" gradientUnits="userSpaceOnUse">
<stop stop-color="#2200FF"/>
<stop offset="1" stop-color="#9E00FF"/>
</linearGradient>
<linearGradient id="paint18_linear_9259_171526" x1="24.0007" y1="32.5" x2="24.0007" y2="42.5108" gradientUnits="userSpaceOnUse">
<stop stop-color="#2200FF"/>
<stop offset="1" stop-color="#9E00FF"/>
</linearGradient>
<linearGradient id="paint19_linear_9259_171526" x1="24.0007" y1="32.5" x2="24.0007" y2="42.5108" gradientUnits="userSpaceOnUse">
<stop stop-color="#2200FF"/>
<stop offset="1" stop-color="#9E00FF"/>
</linearGradient>
<linearGradient id="paint20_linear_9259_171526" x1="34.0007" y1="14.1666" x2="34.0007" y2="24.1774" gradientUnits="userSpaceOnUse">
<stop stop-color="#2200FF"/>
<stop offset="1" stop-color="#9E00FF"/>
</linearGradient>
<linearGradient id="paint21_linear_9259_171526" x1="34.0007" y1="14.1666" x2="34.0007" y2="24.1774" gradientUnits="userSpaceOnUse">
<stop stop-color="#2200FF"/>
<stop offset="1" stop-color="#9E00FF"/>
</linearGradient>
<linearGradient id="paint22_linear_9259_171526" x1="34.0007" y1="32.5" x2="34.0007" y2="42.5108" gradientUnits="userSpaceOnUse">
<stop stop-color="#2200FF"/>
<stop offset="1" stop-color="#9E00FF"/>
</linearGradient>
<linearGradient id="paint23_linear_9259_171526" x1="34.0007" y1="32.5" x2="34.0007" y2="42.5108" gradientUnits="userSpaceOnUse">
<stop stop-color="#2200FF"/>
<stop offset="1" stop-color="#9E00FF"/>
</linearGradient>
</defs>
</svg>

