<svg width="100" height="100" viewBox="0 0 100 100" fill="none" xmlns="http://www.w3.org/2000/svg">
<path d="M89.875 50.651C89.8758 44.6812 88.5403 38.7868 85.9664 33.4003C83.3926 28.0138 79.6457 23.2718 75.0006 19.5219C70.3554 15.772 64.9298 13.1094 59.1217 11.7294C53.3136 10.3493 47.2702 10.2869 41.4347 11.5465C35.5993 12.8062 30.1198 15.3561 25.3982 19.0091C20.6765 22.6622 16.8324 27.3258 14.1478 32.658C11.4632 37.9901 10.0061 43.8556 9.88344 49.8241C9.7608 55.7927 10.9757 61.7131 13.439 67.151H86.311C88.6638 61.9687 89.8791 56.3424 89.875 50.651Z" fill="#D7B3FF" fill-opacity="0.3"/>
<path d="M13.439 67.151C16.6117 74.1549 21.7358 80.096 28.1979 84.2629C34.6599 88.4298 42.186 90.6459 49.875 90.6459C57.564 90.6459 65.0901 88.4298 71.5521 84.2629C78.0142 80.096 83.1383 74.1549 86.311 67.151H13.439Z" fill="#F2DFC2"/>
<path d="M10.875 67.151H88.875" stroke="#45413C" stroke-linecap="round" stroke-linejoin="round"/>
<path d="M6.375 67.151H8.875" stroke="#45413C" stroke-linecap="round" stroke-linejoin="round"/>
<path d="M90.875 67.151H93.375" stroke="#45413C" stroke-linecap="round" stroke-linejoin="round"/>
<path d="M6.625 67.151H9.125" stroke="#45413C" stroke-linecap="round" stroke-linejoin="round"/>
<path d="M91.125 67.151H93.625" stroke="#45413C" stroke-linecap="round" stroke-linejoin="round"/>
<path d="M56.713 40.944C52.1705 40.9733 47.8241 42.7984 44.6225 46.0208C41.4208 49.2433 39.6239 53.6014 39.624 58.144V67.378H73.8V58.143C73.7998 53.601 72.0031 49.2434 68.8019 46.0212C65.6007 42.799 61.2549 40.9738 56.713 40.944Z" fill="#F8F8F8"/>
<path d="M56.713 40.944C52.1705 40.9733 47.8241 42.7984 44.6225 46.0208C41.4208 49.2433 39.6239 53.6014 39.624 58.144V63.078C39.624 60.8338 40.066 58.6117 40.9248 56.5383C41.7836 54.465 43.0424 52.5811 44.6293 50.9943C46.2161 49.4074 48.1 48.1486 50.1733 47.2898C52.2467 46.431 54.4688 45.989 56.713 45.989C58.9572 45.989 61.1793 46.431 63.2527 47.2898C65.326 48.1486 67.2099 49.4074 68.7967 50.9943C70.3836 52.5811 71.6424 54.465 72.5012 56.5383C73.36 58.6117 73.802 60.8338 73.802 63.078V58.143C73.8018 53.6006 72.0048 49.2427 68.8032 46.0205C65.6016 42.7982 61.2553 40.9733 56.713 40.944Z" fill="white"/>
<path d="M56.713 40.944C52.1705 40.9733 47.8241 42.7984 44.6225 46.0208C41.4208 49.2433 39.6239 53.6014 39.624 58.144V67.378H73.8V58.143C73.7998 53.601 72.0031 49.2434 68.8019 46.0212C65.6007 42.799 61.2549 40.9738 56.713 40.944Z" stroke="#45413C" stroke-linecap="round" stroke-linejoin="round"/>
<path d="M60.874 58.233L56.724 45.692L56.713 45.723L56.702 45.692L52.552 58.233L52.545 58.252C52.4099 58.7311 52.3922 59.2356 52.4934 59.723C52.5945 60.2104 52.8115 60.6662 53.126 61.052L56.713 65.723L60.3 61.053C60.6145 60.6672 60.8315 60.2114 60.9326 59.724C61.0338 59.2366 61.0161 58.7321 60.881 58.253L60.874 58.233Z" fill="#00B8F0" stroke="#45413C" stroke-linecap="round" stroke-linejoin="round"/>
<path d="M53.647 47.079L54.639 48.568C54.8655 48.9075 55.1723 49.1859 55.5322 49.3784C55.892 49.5709 56.2939 49.6716 56.702 49.6716C57.1101 49.6716 57.512 49.5709 57.8718 49.3784C58.2317 49.1859 58.5385 48.9075 58.765 48.568L59.757 47.08L56.7 45.692L53.647 47.079Z" fill="#00B8F0" stroke="#45413C" stroke-linecap="round" stroke-linejoin="round"/>
<path d="M63.9 48.905L63.047 42.936C62.9145 42.2763 62.6358 41.6548 62.2313 41.1171C61.8269 40.5794 61.307 40.1392 60.71 39.829C60.067 39.676 59.41 40.9 58.737 40.822L56.73 41.157H56.719H56.708L54.7 40.821C54.029 40.899 53.37 39.675 52.727 39.828C52.13 40.1382 51.6101 40.5784 51.2057 41.1161C50.8012 41.6538 50.5225 42.2753 50.39 42.935L49.537 48.904C49.5248 48.9899 49.5359 49.0774 49.5691 49.1576C49.6023 49.2377 49.6565 49.3074 49.7259 49.3594C49.7953 49.4115 49.8774 49.4439 49.9636 49.4533C50.0498 49.4627 50.137 49.4488 50.216 49.413L56.7 46.462H56.711H56.722L63.215 49.414C63.2942 49.4513 63.3821 49.4664 63.4693 49.4578C63.5565 49.4491 63.6396 49.4169 63.7099 49.3646C63.7802 49.3124 63.8351 49.242 63.8685 49.1611C63.902 49.0802 63.9129 48.9916 63.9 48.905Z" fill="#F8F8F8" stroke="#45413C" stroke-linecap="round" stroke-linejoin="round"/>
<path d="M52.854 37.868V43.821L56.713 46.394L60.572 43.821V37.868H52.854Z" fill="#FFDB94"/>
<path d="M52.854 41.486C55.3403 42.4287 58.0857 42.4287 60.572 41.486V37.868H52.854V41.486Z" fill="#FFBE3D"/>
<path d="M52.854 37.868V43.821L56.713 46.394L60.572 43.821V37.868H52.854Z" stroke="#45413C" stroke-linecap="round" stroke-linejoin="round"/>
<path d="M73.82 58.672V60.662C73.8211 61.7173 74.2407 62.7291 74.9868 63.4755C75.733 64.2218 76.7447 64.6417 77.8 64.643C78.2404 64.6353 78.6779 64.7155 79.0869 64.8787C79.496 65.042 79.8685 65.285 80.1826 65.5937C80.4967 65.9025 80.7462 66.2707 80.9166 66.6768C81.0869 67.083 81.1746 67.5191 81.1746 67.9595C81.1746 68.3999 81.0869 68.836 80.9166 69.2421C80.7462 69.6483 80.4967 70.0165 80.1826 70.3252C79.8685 70.634 79.496 70.877 79.0869 71.0403C78.6779 71.2035 78.2404 71.2836 77.8 71.276C74.9861 71.2728 72.2883 70.1535 70.2986 68.1637C68.309 66.1738 67.1899 63.4759 67.187 60.662V58.672" fill="#F8F8F8"/>
<path d="M73.82 58.672V60.662C73.8211 61.7173 74.2407 62.7291 74.9868 63.4755C75.733 64.2218 76.7447 64.6417 77.8 64.643C78.2404 64.6353 78.6779 64.7155 79.0869 64.8787C79.496 65.042 79.8685 65.285 80.1826 65.5937C80.4967 65.9025 80.7462 66.2707 80.9166 66.6768C81.0869 67.083 81.1746 67.5191 81.1746 67.9595C81.1746 68.3999 81.0869 68.836 80.9166 69.2421C80.7462 69.6483 80.4967 70.0165 80.1826 70.3252C79.8685 70.634 79.496 70.877 79.0869 71.0403C78.6779 71.2035 78.2404 71.2836 77.8 71.276C74.9861 71.2728 72.2883 70.1535 70.2986 68.1637C68.309 66.1738 67.1899 63.4759 67.187 60.662V58.672" stroke="#45413C" stroke-linecap="round" stroke-linejoin="round"/>
<path d="M80.863 56.764H83.619V66.135H80.863V56.764Z" fill="white" stroke="#45413C" stroke-linecap="round" stroke-linejoin="round"/>
<path d="M85.209 70.987C85.1281 71.2617 84.9605 71.5028 84.7312 71.6744C84.502 71.846 84.2234 71.9388 83.937 71.939H80.87C80.4518 71.9391 80.0377 71.8569 79.6514 71.6969C79.265 71.5369 78.914 71.3024 78.6183 71.0067C78.3226 70.711 78.0881 70.36 77.9281 69.9736C77.7681 69.5873 77.6859 69.1732 77.686 68.755V67.163C77.686 66.3186 78.0215 65.5087 78.6186 64.9116C79.2157 64.3145 80.0256 63.979 80.87 63.979H83.937C84.2234 63.979 84.5021 64.0718 84.7314 64.2434C84.9607 64.415 85.1282 64.6562 85.209 64.931C85.791 66.9077 85.791 69.0103 85.209 70.987Z" fill="#FFDB94"/>
<path d="M79.077 71.385C79.034 71.1744 79.0122 70.96 79.012 70.745V69.153C79.0121 68.7346 79.0947 68.3203 79.255 67.9338C79.4153 67.5473 79.6502 67.1961 79.9463 66.9005C80.2423 66.6048 80.5938 66.3703 80.9805 66.2105C81.3672 66.0507 81.7816 65.9686 82.2 65.969H85.462C85.3953 65.619 85.312 65.272 85.212 64.928C85.1312 64.6539 84.9638 64.4133 84.7349 64.2422C84.506 64.0711 84.2278 63.9788 83.942 63.979H80.87C80.0256 63.979 79.2157 64.3145 78.6186 64.9116C78.0215 65.5087 77.686 66.3186 77.686 67.163V68.755C77.6858 69.2736 77.8124 69.7844 78.0548 70.2428C78.2973 70.7012 78.6482 71.0933 79.077 71.385Z" fill="#FFE9BD"/>
<path d="M85.209 70.987C85.1281 71.2617 84.9605 71.5028 84.7312 71.6744C84.502 71.846 84.2234 71.9388 83.937 71.939H80.87C80.4518 71.9391 80.0377 71.8569 79.6514 71.6969C79.265 71.5369 78.914 71.3024 78.6183 71.0067C78.3226 70.711 78.0881 70.36 77.9281 69.9736C77.7681 69.5873 77.6859 69.1732 77.686 68.755V67.163C77.686 66.3186 78.0215 65.5087 78.6186 64.9116C79.2157 64.3145 80.0256 63.979 80.87 63.979H83.937C84.2234 63.979 84.5021 64.0718 84.7314 64.2434C84.9607 64.415 85.1282 64.6562 85.209 64.931C85.791 66.9077 85.791 69.0103 85.209 70.987Z" stroke="#45413C" stroke-linecap="round" stroke-linejoin="round"/>
<path d="M67.187 59.109V55.699" stroke="#45413C" stroke-linecap="round" stroke-linejoin="round"/>
<path d="M58.2004 75.829L66.3163 71.1442L67.6941 73.5311L59.5782 78.2159L58.2004 75.829Z" fill="white" stroke="#45413C" stroke-linecap="round" stroke-linejoin="round"/>
<path d="M65.4106 81.9879L69.7369 73.6754L72.1817 74.9477L67.8553 83.2603L65.4106 81.9879Z" fill="white" stroke="#45413C" stroke-linecap="round" stroke-linejoin="round"/>
<path d="M63.486 11.369C49 5.637 42.932 12.947 42.932 22.726C42.932 29.862 49.053 35.679 56.713 35.947C64.373 35.679 70.494 29.862 70.494 22.726C70.494 12.947 66.443 10.311 63.486 11.369Z" fill="#614B44"/>
<path d="M63.486 15.375C66.176 14.412 69.771 16.507 70.399 24.254C70.462 23.7471 70.4937 23.2368 70.494 22.726C70.494 12.947 66.443 10.311 63.486 11.369C49 5.637 42.932 12.947 42.932 22.726C42.9318 23.2964 42.9712 23.8661 43.05 24.431C43.959 15.864 50.158 10.1 63.486 15.375Z" fill="#947063"/>
<path d="M63.486 11.369C49 5.637 42.932 12.947 42.932 22.726C42.932 29.862 49.053 35.679 56.713 35.947C64.373 35.679 70.494 29.862 70.494 22.726C70.494 12.947 66.443 10.311 63.486 11.369Z" stroke="#45413C" stroke-linecap="round" stroke-linejoin="round"/>
<path d="M69.943 28.239C69.9398 28.8215 69.7071 29.3793 69.2952 29.7912C68.8833 30.2031 68.3255 30.4359 67.743 30.439C67.699 30.439 67.655 30.428 67.611 30.428C67.2195 33.0369 65.9046 35.4185 63.9056 37.1399C61.9065 38.8613 59.3561 39.8081 56.718 39.8081C54.0799 39.8081 51.5295 38.8613 49.5304 37.1399C47.5314 35.4185 46.2165 33.0369 45.825 30.428C45.781 30.428 45.737 30.439 45.693 30.439C45.1082 30.439 44.5473 30.2067 44.1338 29.7932C43.7203 29.3797 43.488 28.8188 43.488 28.234C43.488 27.6492 43.7203 27.0884 44.1338 26.6748C44.5473 26.2613 45.1082 26.029 45.693 26.029C45.693 26.029 57.85 25.878 60.224 15.412C59.887 22.198 67.743 26.029 67.743 26.029C68.3273 26.0319 68.8867 26.266 69.299 26.6801C69.7112 27.0942 69.9427 27.6547 69.943 28.239Z" fill="#FFDB94" stroke="#45413C" stroke-linecap="round" stroke-linejoin="round"/>
<path d="M62.776 27.136C62.6383 26.8101 62.4075 26.532 62.1127 26.3365C61.8178 26.141 61.4718 26.0367 61.118 26.0367C60.7642 26.0367 60.4182 26.141 60.1233 26.3365C59.8285 26.532 59.5977 26.8101 59.46 27.136" stroke="#45413C" stroke-linecap="round" stroke-linejoin="round"/>
<path d="M53.966 27.136C53.8284 26.8098 53.5977 26.5314 53.3027 26.3357C53.0077 26.14 52.6615 26.0356 52.3075 26.0356C51.9535 26.0356 51.6073 26.14 51.3123 26.3357C51.0173 26.5314 50.7866 26.8098 50.649 27.136" stroke="#45413C" stroke-linecap="round" stroke-linejoin="round"/>
<path d="M51.752 31.277C51.7851 31.5566 51.7323 31.8395 51.6008 32.0884C51.4693 32.3373 51.2652 32.5404 51.0157 32.6706C50.7661 32.8008 50.4828 32.852 50.2035 32.8175C49.9241 32.783 49.6618 32.6644 49.4514 32.4774C49.241 32.2903 49.0925 32.0438 49.0255 31.7704C48.9585 31.4969 48.9762 31.2096 49.0763 30.9465C49.1764 30.6834 49.3541 30.457 49.5859 30.2972C49.8176 30.1374 50.0925 30.0519 50.374 30.052C50.7188 30.0331 51.0572 30.1513 51.3153 30.3807C51.5734 30.6102 51.7304 30.9323 51.752 31.277Z" fill="#FFBE3D"/>
<path d="M64.43 31.277C64.4631 31.5566 64.4103 31.8395 64.2788 32.0884C64.1473 32.3373 63.9432 32.5404 63.6937 32.6706C63.4441 32.8008 63.1608 32.852 62.8815 32.8175C62.6021 32.783 62.3398 32.6644 62.1294 32.4774C61.919 32.2903 61.7705 32.0438 61.7035 31.7704C61.6365 31.4969 61.6542 31.2096 61.7543 30.9465C61.8544 30.6834 62.0321 30.457 62.2639 30.2972C62.4956 30.1374 62.7705 30.0519 63.052 30.052C63.3969 30.0329 63.7354 30.1509 63.9935 30.3804C64.2517 30.6099 64.4086 30.9322 64.43 31.277Z" fill="#FFBE3D"/>
<path d="M53.405 33.751C54.2972 34.5994 55.4813 35.0724 56.7125 35.0724C57.9437 35.0724 59.1278 34.5994 60.02 33.751" stroke="#45413C" stroke-linecap="round" stroke-linejoin="round"/>
<path d="M52.61 29.892H50.893C50.0974 29.892 49.3343 29.5759 48.7717 29.0133C48.2091 28.4507 47.893 27.6876 47.893 26.892V25.38C47.893 25.1148 47.9984 24.8604 48.1859 24.6729C48.3734 24.4854 48.6278 24.38 48.893 24.38H54.61C54.8752 24.38 55.1296 24.4854 55.3171 24.6729C55.5046 24.8604 55.61 25.1148 55.61 25.38V26.892C55.61 27.6876 55.2939 28.4507 54.7313 29.0133C54.1687 29.5759 53.4057 29.892 52.61 29.892Z" stroke="#45413C" stroke-linecap="round" stroke-linejoin="round"/>
<path d="M62.533 29.892H60.815C60.0193 29.892 59.2563 29.5759 58.6937 29.0133C58.1311 28.4507 57.815 27.6876 57.815 26.892V25.38C57.815 25.1148 57.9204 24.8604 58.1079 24.6729C58.2954 24.4854 58.5498 24.38 58.815 24.38H64.533C64.7982 24.38 65.0526 24.4854 65.2401 24.6729C65.4276 24.8604 65.533 25.1148 65.533 25.38V26.892C65.533 27.6876 65.2169 28.4507 64.6543 29.0133C64.0917 29.5759 63.3287 29.892 62.533 29.892Z" stroke="#45413C" stroke-linecap="round" stroke-linejoin="round"/>
<path d="M55.61 26.034H57.815" stroke="#45413C" stroke-linecap="round" stroke-linejoin="round"/>
<path d="M47.893 26.034H45.687H47.893Z" fill="#FFDB94"/>
<path d="M47.893 26.034H45.687" stroke="#45413C" stroke-linecap="round" stroke-linejoin="round"/>
<path d="M67.738 26.034H65.532H67.738Z" fill="#FFDB94"/>
<path d="M67.738 26.034H65.532" stroke="#45413C" stroke-linecap="round" stroke-linejoin="round"/>
<path d="M53.405 22.726V25.482C55.4881 24.5038 57.2416 22.9405 58.4515 20.9828C59.6615 19.0251 60.2756 16.7577 60.219 14.457" fill="#614B44"/>
<path d="M53.405 22.726V25.482C55.4881 24.5038 57.2416 22.9405 58.4515 20.9828C59.6615 19.0251 60.2756 16.7577 60.219 14.457" stroke="#45413C" stroke-linecap="round" stroke-linejoin="round"/>
<path opacity="0.15" d="M9.753 75.556C9.753 75.9947 12.018 76.4154 16.0496 76.7256C20.0813 77.0357 25.5494 77.21 31.251 77.21C36.9526 77.21 42.4207 77.0357 46.4524 76.7256C50.484 76.4154 52.749 75.9947 52.749 75.556C52.749 75.1173 50.484 74.6966 46.4524 74.3865C42.4207 74.0763 36.9526 73.902 31.251 73.902C25.5494 73.902 20.0813 74.0763 16.0496 74.3865C12.018 74.6966 9.753 75.1173 9.753 75.556Z" fill="#45413C"/>
<path d="M12.678 49.354H49.825V75.224H12.678V49.354Z" fill="#BF8DF2" stroke="#45413C" stroke-linecap="round" stroke-linejoin="round"/>
<path d="M15.331 52.007H47.172V72.571H15.331V52.007Z" fill="white" stroke="#45413C" stroke-linecap="round" stroke-linejoin="round"/>
<path d="M34.943 47.137C35.2177 47.2179 35.4588 47.3855 35.6304 47.6148C35.802 47.844 35.8948 48.1226 35.895 48.409V51.476C35.895 52.3204 35.5595 53.1303 34.9624 53.7274C34.3653 54.3245 33.5554 54.66 32.711 54.66H31.119C30.7008 54.6601 30.2867 54.5779 29.9004 54.4179C29.514 54.2579 29.163 54.0234 28.8673 53.7277C28.5716 53.432 28.3371 53.081 28.1771 52.6946C28.0171 52.3083 27.9349 51.8942 27.935 51.476V48.409C27.9349 48.1226 28.0276 47.8438 28.1992 47.6145C28.3708 47.3852 28.6121 47.2176 28.887 47.137C30.8637 46.555 32.9663 46.555 34.943 47.137Z" fill="#FFDB94"/>
<path d="M34.943 47.137C32.9663 46.555 30.8637 46.555 28.887 47.137C28.6121 47.2176 28.3708 47.3852 28.1992 47.6145C28.0276 47.8438 27.9349 48.1226 27.935 48.409V51.062C27.935 50.7756 28.0278 50.4969 28.1994 50.2676C28.371 50.0383 28.6122 49.8708 28.887 49.79C30.8637 49.208 32.9663 49.208 34.943 49.79C35.2176 49.8711 35.4586 50.0387 35.6302 50.2679C35.8018 50.4971 35.8946 50.7757 35.895 51.062V48.409C35.8948 48.1226 35.802 47.844 35.6304 47.6148C35.4588 47.3855 35.2177 47.2179 34.943 47.137Z" fill="#FFE9BD"/>
<path d="M34.943 47.137C35.2177 47.2179 35.4588 47.3855 35.6304 47.6148C35.802 47.844 35.8948 48.1226 35.895 48.409V51.476C35.895 52.3204 35.5595 53.1303 34.9624 53.7274C34.3653 54.3245 33.5554 54.66 32.711 54.66H31.119C30.7008 54.6601 30.2867 54.5779 29.9004 54.4179C29.514 54.2579 29.163 54.0234 28.8673 53.7277C28.5716 53.432 28.3371 53.081 28.1771 52.6946C28.0171 52.3083 27.9349 51.8942 27.935 51.476V48.409C27.9349 48.1226 28.0276 47.8438 28.1992 47.6145C28.3708 47.3852 28.6121 47.2176 28.887 47.137C30.8637 46.555 32.9663 46.555 34.943 47.137Z" stroke="#45413C" stroke-linecap="round" stroke-linejoin="round"/>
<path d="M25.6827 67.4413C25.4266 67.4413 25.1792 67.3432 24.9867 67.1653L21.3608 63.826C21.2474 63.7214 21.1566 63.5924 21.0944 63.4479C21.0322 63.3033 21 63.1465 21 62.9878C21 62.829 21.0322 62.6722 21.0944 62.5276C21.1566 62.3831 21.2474 62.2541 21.3608 62.1495L24.9867 58.8102C25.1979 58.6158 25.4739 58.5176 25.7539 58.5373C26.0339 58.557 26.295 58.693 26.4797 58.9153C26.6644 59.1377 26.7577 59.4281 26.739 59.7228C26.7202 60.0175 26.591 60.2923 26.3798 60.4867L23.6639 62.988L26.3798 65.4888C26.5418 65.638 26.6567 65.8356 26.7092 66.0554C26.7617 66.2751 26.7492 66.5065 26.6734 66.7186C26.5977 66.9307 26.4622 67.1134 26.2852 67.2424C26.1082 67.3713 25.898 67.4403 25.6827 67.4402V67.4413ZM37.3173 67.4413C37.102 67.4415 36.8917 67.3726 36.7146 67.2437C36.5375 67.1148 36.402 66.9321 36.3261 66.72C36.2503 66.5078 36.2378 66.2764 36.2903 66.0566C36.3427 65.8368 36.4576 65.6391 36.6197 65.4899L39.3366 62.9891L36.6197 60.4878C36.4148 60.2915 36.2911 60.0184 36.2754 59.7272C36.2597 59.436 36.3531 59.15 36.5355 58.9304C36.718 58.7109 36.975 58.5755 37.2513 58.5532C37.5276 58.5309 37.8012 58.6236 38.0133 58.8113L41.6392 62.1484C41.7526 62.253 41.8434 62.3819 41.9056 62.5265C41.9678 62.6711 42 62.8279 42 62.9866C42 63.1453 41.9678 63.3022 41.9056 63.4468C41.8434 63.5913 41.7526 63.7203 41.6392 63.8249L38.0133 67.1664C37.8206 67.3438 37.5733 67.4415 37.3173 67.4413ZM29.4592 68C29.274 67.9997 29.0922 67.9483 28.9318 67.851C28.7714 67.7536 28.6381 67.6136 28.5453 67.445C28.4524 67.2764 28.4032 67.0851 28.4026 66.8902C28.402 66.6954 28.45 66.5037 28.5418 66.3345L32.7714 58.5408C32.9136 58.2911 33.1431 58.1099 33.4108 58.0362C33.6784 57.9625 33.9628 58.0022 34.203 58.1466C34.4432 58.2911 34.62 58.5289 34.6956 58.8089C34.7711 59.089 34.7394 59.3891 34.6072 59.6449L30.3781 67.4369C30.2859 67.6079 30.1523 67.7502 29.9909 67.8491C29.8294 67.948 29.646 68.0001 29.4592 68Z" fill="#B8ECFF" stroke="#45413C" stroke-linejoin="round"/>
</svg>
