<svg xmlns="http://www.w3.org/2000/svg" fill="none" viewBox="0 0 100 100" id="Coding-Workstation-5--Streamline-Ux" height="100" width="100"><desc>Coding Workstation 5 Streamline Illustration: https://streamlinehq.com</desc><path fill="#adc4d9" d="M49.039 90c7.0168 -0.0005 13.9097 -1.8493 19.9849 -5.3603C75.0992 81.1288 80.1424 76.0795 83.646 70H14.431c3.5038 6.0795 8.5472 11.1289 14.6226 14.6399C35.129 88.1508 42.0221 89.9996 49.039 90Z" stroke-width="1"></path><path fill="#adc4d9" d="M12.6 66.5c0.547 1.2 1.171 2.363 1.829 3.5h69.217c0.658 -1.137 1.282 -2.3 1.829 -3.5H12.6Z" stroke-width="1"></path><path fill="#b8ecff" d="M89.038 50c0.0001 -5.9694 -1.3359 -11.8632 -3.91 -17.2492 -2.5741 -5.3859 -6.3211 -10.1274 -10.9661 -13.8768 -4.645 -3.7494 -10.0704 -6.4116 -15.8782 -7.7914 -5.8077 -1.37985 -11.8507 -1.44226 -17.6858 -0.1827 -5.835 1.2596 -11.3142 3.8092 -16.0357 7.4618 -4.7214 3.6527 -8.5655 8.3158 -11.2503 13.6474 -2.6848 5.3317 -4.14223 11.1966 -4.26542 17.1648C8.92329 55.142 10.1375 61.0621 12.6 66.5h72.875c2.3524 -5.1824 3.5674 -10.8087 3.563 -16.5Z" stroke-width="1"></path><path stroke="#45413c" stroke-linecap="round" stroke-linejoin="round" d="M10.038 66.5h78" stroke-width="1"></path><path stroke="#45413c" stroke-linecap="round" stroke-linejoin="round" d="M5.53796 66.5h2.5" stroke-width="1"></path><path stroke="#45413c" stroke-linecap="round" stroke-linejoin="round" d="M90.038 66.5h2.5" stroke-width="1"></path><path fill="#f0d3a8" stroke="#45413c" stroke-linecap="round" stroke-linejoin="round" d="M13.051 69.3691H10.37v-42.213c0.0095 -0.3492 0.1549 -0.6809 0.4053 -0.9245 0.2504 -0.2436 0.5859 -0.3799 0.9352 -0.3799 0.3493 0 0.6848 0.1363 0.9352 0.3799 0.2503 0.2436 0.3958 0.5753 0.4053 0.9245v42.213Z" stroke-width="1"></path><path fill="#f0d3a8" stroke="#45413c" stroke-linecap="round" stroke-linejoin="round" d="M31.142 69.369h-2.68V27.156c0 -0.3553 0.1412 -0.6962 0.3925 -0.9475 0.2513 -0.2513 0.5921 -0.3925 0.9475 -0.3925 0.3554 0 0.6963 0.1412 0.9476 0.3925 0.2513 0.2513 0.3924 0.5922 0.3924 0.9475v42.213Z" stroke-width="1"></path><path fill="#ffffff" stroke="#45413c" stroke-linecap="round" stroke-linejoin="round" d="M28.462 61.998H13.051v2.68h15.411v-2.68Z" stroke-width="1"></path><path fill="#ffffff" stroke="#45413c" stroke-linecap="round" stroke-linejoin="round" d="M28.462 47.9271H13.051v2.68h15.411v-2.68Z" stroke-width="1"></path><path fill="#ffffff" stroke="#45413c" stroke-linecap="round" stroke-linejoin="round" d="M28.462 33.856H13.051v2.68h15.411v-2.68Z" stroke-width="1"></path><path fill="#ffaa54" stroke="#45413c" stroke-linecap="round" stroke-linejoin="round" d="M28.462 39.217h-2.68v8.711h2.68v-8.711Z" stroke-width="1"></path><path fill="#00dba8" stroke="#45413c" stroke-linecap="round" stroke-linejoin="round" d="M25.781 40.5571h-2.68v7.371h2.68v-7.371Z" stroke-width="1"></path><path fill="#00dfeb" stroke="#45413c" stroke-linecap="round" stroke-linejoin="round" d="m19.8558 40.1016 -2.0373 7.0839 2.5756 0.7407 2.0373 -7.0838 -2.5756 -0.7408Z" stroke-width="1"></path><path fill="#f7e5c6" stroke="#45413c" stroke-linecap="round" stroke-linejoin="round" d="M24.075 58.287h-9.014V62h9.014c0.0955 0.0002 0.1901 -0.0185 0.2784 -0.055 0.0883 -0.0365 0.1685 -0.0901 0.236 -0.1576 0.0675 -0.0675 0.1211 -0.1477 0.1576 -0.236 0.0365 -0.0882 0.0552 -0.1828 0.055 -0.2784v-2.259c0 -0.1928 -0.0766 -0.3777 -0.2129 -0.514 -0.1363 -0.1364 -0.3213 -0.213 -0.5141 -0.213v0Z" stroke-width="1"></path><path fill="#fff5e3" stroke="#45413c" stroke-linecap="round" stroke-linejoin="round" d="M23.643 55.968h-5.335v2.319h5.335c0.307 -0.0005 0.6013 -0.1229 0.8182 -0.3402 0.2169 -0.2172 0.3388 -0.5117 0.3388 -0.8188v0c0.0002 -0.3072 -0.1215 -0.6019 -0.3384 -0.8195 -0.217 -0.2175 -0.5114 -0.34 -0.8186 -0.3405Z" stroke-width="1"></path><path stroke="#45413c" stroke-linecap="round" stroke-linejoin="round" d="M15.061 60.1431h6.546" stroke-width="1"></path><path fill="#ffffff" stroke="#45413c" stroke-linecap="round" stroke-linejoin="round" d="M21.0911 33.8561h-4.691l-0.51 -2.548c-0.0193 -0.0971 -0.0167 -0.1973 0.0074 -0.2933s0.0692 -0.1855 0.132 -0.262c0.0629 -0.0765 0.1419 -0.1381 0.2313 -0.1804 0.0895 -0.0423 0.1873 -0.0643 0.2863 -0.0643h4.4c0.0989 0 0.1967 0.022 0.2862 0.0643 0.0894 0.0423 0.1684 0.1039 0.2313 0.1804 0.0628 0.0765 0.1079 0.166 0.132 0.262 0.0241 0.096 0.0267 0.1962 0.0075 0.2933l-0.513 2.548Z" stroke-width="1"></path><path fill="#6dd627" stroke="#45413c" stroke-linecap="round" stroke-linejoin="round" d="M18.746 26.486c-0.2199 0 -0.4377 0.0433 -0.6409 0.1275 -0.2033 0.0842 -0.3879 0.2076 -0.5435 0.3631 -0.1555 0.1556 -0.2789 0.3402 -0.3631 0.5434 -0.0841 0.2032 -0.1275 0.4211 -0.1275 0.641v2.345h3.35v-2.345c0 -0.4442 -0.1764 -0.8703 -0.4905 -1.1844 -0.3142 -0.3141 -0.7402 -0.4906 -1.1845 -0.4906v0Z" stroke-width="1"></path><path fill="#614b44" stroke="#45413c" stroke-linecap="round" stroke-linejoin="round" d="M61.545 36.77c0.0443 -0.1556 0.0288 -0.3222 -0.0433 -0.4671 -0.0722 -0.1448 -0.1958 -0.2575 -0.3467 -0.3159 -0.957 -0.427 -1.435 -2.019 -1.526 -3.133v-9.006H41.471v9.006c-0.091 1.114 -0.569 2.706 -1.526 3.133 -0.151 0.0584 -0.2746 0.1711 -0.3468 0.3159 -0.0721 0.1449 -0.0876 0.3115 -0.0432 0.4671 0.1059 0.3983 0.3444 0.7485 0.6762 0.9928 0.3318 0.2444 0.737 0.3682 1.1488 0.3512h18.34c0.4117 0.017 0.8169 -0.1068 1.1487 -0.3512 0.3318 -0.2443 0.5704 -0.5945 0.6763 -0.9928v0Z" stroke-width="1"></path><path fill="#87898c" stroke="#45413c" stroke-linecap="round" stroke-linejoin="round" d="M46.7159 81.6c0.4037 0.0001 0.7913 -0.1583 1.0795 -0.441 0.2882 -0.2828 0.4539 -0.6673 0.4615 -1.071l0.241 -12.78c0.0175 -0.4373 -0.0522 -0.8738 -0.205 -1.284s-0.3857 -0.7858 -0.685 -1.1051c-0.2994 -0.3193 -0.6593 -0.5759 -1.0588 -0.7548 -0.3995 -0.1788 -0.8306 -0.2764 -1.2682 -0.2871v0c-0.8726 0.0199 -1.7015 0.3855 -2.3047 1.0162 -0.6032 0.6308 -0.9314 1.4752 -0.9123 2.3478v12.815c-0.0004 0.2026 0.0392 0.4033 0.1164 0.5907 0.0773 0.1873 0.1907 0.3575 0.3339 0.5009 0.1431 0.1434 0.3131 0.2572 0.5003 0.3348 0.1871 0.0777 0.3878 0.1176 0.5904 0.1176h3.111Z" stroke-width="1"></path><path fill="#87898c" stroke="#45413c" stroke-linecap="round" stroke-linejoin="round" d="M54.3659 81.6c-0.4037 0.0001 -0.7913 -0.1583 -1.0795 -0.4411 -0.2882 -0.2827 -0.4539 -0.6673 -0.4615 -1.0709l-0.242 -12.78c-0.0173 -0.4373 0.0524 -0.8736 0.2053 -1.2837s0.3858 -0.7856 0.6851 -1.1048c0.2994 -0.3192 0.6593 -0.5757 1.0587 -0.7545 0.3994 -0.1788 0.8304 -0.2763 1.2679 -0.287v0c0.8727 0.0199 1.7017 0.3854 2.3051 1.0161 0.6033 0.6308 0.9317 1.4752 0.9129 2.3479v12.815c0.0003 0.2025 -0.0394 0.4031 -0.1167 0.5903 -0.0773 0.1872 -0.1908 0.3573 -0.3339 0.5006 -0.1431 0.1433 -0.3131 0.257 -0.5002 0.3346s-0.3876 0.1175 -0.5902 0.1175h-3.111Z" stroke-width="1"></path><path fill="#915e3a" stroke="#45413c" stroke-linecap="round" stroke-linejoin="round" d="M42.744 82.368h4.191c0.2916 0.0017 0.5777 -0.0793 0.8251 -0.2337 0.2474 -0.1544 0.446 -0.3757 0.5727 -0.6384 0.1267 -0.2627 0.1763 -0.5559 0.143 -0.8456 -0.0332 -0.2897 -0.1479 -0.5641 -0.3308 -0.7913 -1.528 -1.786 -4.732 -1.742 -6.46 -0.164 -0.226 0.2122 -0.3829 0.4874 -0.4505 0.7899 -0.0676 0.3026 -0.0427 0.6184 0.0715 0.9066 0.1141 0.2882 0.3123 0.5354 0.5687 0.7095 0.2564 0.1741 0.5593 0.2672 0.8693 0.267Z" stroke-width="1"></path><path fill="#915e3a" stroke="#45413c" stroke-linecap="round" stroke-linejoin="round" d="M58.3359 82.368h-4.191c-0.2916 0.0017 -0.5777 -0.0793 -0.8252 -0.2337 -0.2474 -0.1544 -0.4459 -0.3757 -0.5726 -0.6384 -0.1267 -0.2627 -0.1763 -0.5559 -0.1431 -0.8456 0.0333 -0.2897 0.148 -0.5641 0.3309 -0.7913 1.528 -1.786 4.732 -1.742 6.459 -0.164 0.2264 0.212 0.3838 0.4871 0.4517 0.7897 0.0679 0.3026 0.0432 0.6186 -0.0709 0.9069 -0.1141 0.2884 -0.3124 0.5357 -0.569 0.7099 -0.2566 0.1741 -0.5597 0.267 -0.8698 0.2665v0Z" stroke-width="1"></path><path fill="#f8f8f8" d="M62.5409 46.517c0 -3.1826 -1.2643 -6.2348 -3.5147 -8.4853 -2.2505 -2.2504 -5.3027 -3.5147 -8.4853 -3.5147 -3.1826 0 -6.2349 1.2643 -8.4853 3.5147 -2.2504 2.2505 -3.5147 5.3027 -3.5147 8.4853v14h4.667v-5.332h19.333v-8.668Z" stroke-width="1"></path><path stroke="#45413c" stroke-linecap="round" stroke-linejoin="round" d="M62.5409 46.517c0 -3.1826 -1.2643 -6.2348 -3.5147 -8.4853 -2.2505 -2.2504 -5.3027 -3.5147 -8.4853 -3.5147 -3.1826 0 -6.2349 1.2643 -8.4853 3.5147 -2.2504 2.2505 -3.5147 5.3027 -3.5147 8.4853v14h4.667v-5.332h19.333v-8.668Z" stroke-width="1"></path><path fill="#6dd627" d="M42.5389 65.185c0.4961 0.5833 1.1446 1.017 1.8732 1.2526 0.7285 0.2356 1.5082 0.2638 2.2518 0.0814 0 0 0.542 -4.777 0.9 -11.334 0.177 -3.242 0.309 -6.918 0.309 -10.668 -0.1843 -3.0939 -0.9936 -6.1184 -2.379 -8.891 -2.0775 0.9627 -3.8363 2.4996 -5.0686 4.4294 -1.2324 1.9298 -1.8869 4.1719 -1.8864 6.4616v14h4.667l-0.667 4.668Z" stroke-width="1"></path><path fill="#9ceb60" d="M46.8629 39.091c-0.3958 -1.178 -0.8528 -2.3345 -1.369 -3.465 -2.0775 0.9627 -3.8363 2.4996 -5.0686 4.4294 -1.2324 1.9298 -1.8869 4.1719 -1.8864 6.4616v4c0.0004 -2.5402 0.8063 -5.0148 2.3021 -7.068 1.4957 -2.0531 3.6041 -3.5789 6.0219 -4.358Z" stroke-width="1"></path><path stroke="#45413c" stroke-linecap="round" stroke-linejoin="round" d="M42.5389 65.185c0.4961 0.5833 1.1446 1.017 1.8732 1.2526 0.7285 0.2356 1.5082 0.2638 2.2518 0.0814 0 0 0.542 -4.777 0.9 -11.334 0.177 -3.242 0.309 -6.918 0.309 -10.668 -0.1843 -3.0939 -0.9936 -6.1184 -2.379 -8.891 -2.0775 0.9627 -3.8363 2.4996 -5.0686 4.4294 -1.2324 1.9298 -1.8869 4.1719 -1.8864 6.4616v14h4.667l-0.667 4.668Z" stroke-width="1"></path><path fill="#6dd627" d="M55.5849 35.626c-1.3846 2.7728 -2.1935 5.7973 -2.378 8.891 0 11.334 1.208 22 1.208 22 0.7438 0.1825 1.5237 0.1544 2.2524 -0.0812 0.7287 -0.2356 1.3774 -0.6694 1.8736 -1.2528l-0.667 -4.667v-3.665c-0.0064 0.3105 0.0492 0.6192 0.1636 0.9079 0.1143 0.2888 0.2852 0.5518 0.5025 0.7737 0.2173 0.2218 0.4768 0.3981 0.7631 0.5184 0.2863 0.1204 0.5937 0.1823 0.9043 0.1823s0.618 -0.0619 0.9043 -0.1823c0.2864 -0.1203 0.5458 -0.2966 0.7631 -0.5184 0.2173 -0.2219 0.3882 -0.4849 0.5025 -0.7737 0.1144 -0.2887 0.17 -0.5974 0.1636 -0.9079V46.517c0.0005 -2.2898 -0.6542 -4.532 -1.8867 -6.4618 -1.2326 -1.9298 -2.9916 -3.4667 -5.0693 -4.4292Z" stroke-width="1"></path><path fill="#9ceb60" d="M54.2169 39.091c0.396 -1.1778 0.8526 -2.3343 1.368 -3.465 2.0777 0.9625 3.8367 2.4994 5.0693 4.4292 1.2325 1.9298 1.8872 4.172 1.8867 6.4618v4c-0.0003 -2.5402 -0.8063 -5.0148 -2.302 -7.068 -1.4958 -2.0531 -3.6042 -3.5789 -6.022 -4.358Z" stroke-width="1"></path><path stroke="#45413c" stroke-linecap="round" stroke-linejoin="round" d="M55.5849 35.626c-1.3846 2.7728 -2.1935 5.7973 -2.378 8.891 0 11.334 1.208 22 1.208 22 0.7438 0.1825 1.5237 0.1544 2.2524 -0.0812 0.7287 -0.2356 1.3774 -0.6694 1.8736 -1.2528l-0.667 -4.667v-3.665c-0.0064 0.3105 0.0492 0.6192 0.1636 0.9079 0.1143 0.2888 0.2852 0.5518 0.5025 0.7737 0.2173 0.2218 0.4768 0.3981 0.7631 0.5184 0.2863 0.1204 0.5937 0.1823 0.9043 0.1823s0.618 -0.0619 0.9043 -0.1823c0.2864 -0.1203 0.5458 -0.2966 0.7631 -0.5184 0.2173 -0.2219 0.3882 -0.4849 0.5025 -0.7737 0.1144 -0.2887 0.17 -0.5974 0.1636 -0.9079V46.517c0.0005 -2.2898 -0.6542 -4.532 -1.8867 -6.4618 -1.2326 -1.9298 -2.9916 -3.4667 -5.0693 -4.4292v0Z" stroke-width="1"></path><path fill="#ffcebf" stroke="#45413c" stroke-linecap="round" stroke-linejoin="round" d="M53.3129 34.111v-3.695h-5.545v3.7c-0.0028 0.2075 -0.0724 0.4086 -0.1985 0.5734 -0.1261 0.1649 -0.3019 0.2846 -0.5015 0.3416 -0.5363 0.1634 -1.0606 0.3639 -1.569 0.6 0.5159 0.8801 1.253 1.61 2.1382 2.1172 0.8852 0.5072 1.8876 0.774 2.9078 0.774s2.0226 -0.2668 2.9078 -0.774c0.8852 -0.5072 1.6223 -1.2371 2.1382 -2.1172 -0.5087 -0.2364 -1.0333 -0.4369 -1.57 -0.6 -0.202 -0.0555 -0.3804 -0.1753 -0.5082 -0.3413 -0.1278 -0.166 -0.1979 -0.3692 -0.1998 -0.5787v0Z" stroke-width="1"></path><path stroke="#45413c" stroke-linecap="round" stroke-linejoin="round" d="M43.22 42.172v18.346" stroke-width="1"></path><path stroke="#45413c" stroke-linecap="round" stroke-linejoin="round" d="M57.8739 42.172v14.679" stroke-width="1"></path><path fill="#ffcebf" stroke="#45413c" stroke-linecap="round" stroke-linejoin="round" d="M59.629 25.793c-0.0037 -0.3696 -0.1351 -0.7265 -0.3721 -1.0102 -0.237 -0.2836 -0.5649 -0.4765 -0.928 -0.5458V23.2c0 -2.0639 -0.8198 -4.0433 -2.2792 -5.5027 -1.4595 -1.4594 -3.4388 -2.2793 -5.5028 -2.2793 -2.0639 0 -4.0432 0.8199 -5.5027 2.2793 -1.4594 1.4594 -2.2793 3.4388 -2.2793 5.5027v1.038c-0.3778 0.0714 -0.7169 0.2773 -0.9545 0.5796 -0.2376 0.3024 -0.3574 0.6806 -0.3374 1.0646 0.02 0.384 0.1786 0.7477 0.4463 1.0236 0.2677 0.276 0.6265 0.4456 1.0096 0.4772 0.3652 1.7503 1.3219 3.3215 2.7093 4.4493 1.3873 1.1278 3.1208 1.7435 4.9087 1.7435 1.788 0 3.5214 -0.6157 4.9088 -1.7435 1.3874 -1.1278 2.3441 -2.699 2.7092 -4.4493 0.3987 -0.034 0.7701 -0.2161 1.0411 -0.5104 0.271 -0.2943 0.4219 -0.6795 0.423 -1.0796v0Z" stroke-width="1"></path><path fill="#ffb59e" d="M46.3349 27.739c0.5374 0 0.973 -0.4356 0.973 -0.973 0 -0.5373 -0.4356 -0.973 -0.973 -0.973 -0.5373 0 -0.973 0.4357 -0.973 0.973 0 0.5374 0.4357 0.973 0.973 0.973Z" stroke-width="1"></path><path fill="#ffb59e" d="M54.765 27.739c0.5374 0 0.973 -0.4356 0.973 -0.973 0 -0.5373 -0.4356 -0.973 -0.973 -0.973s-0.973 0.4357 -0.973 0.973c0 0.5374 0.4356 0.973 0.973 0.973Z" stroke-width="1"></path><path stroke="#45413c" stroke-linecap="round" stroke-linejoin="round" d="M52.5 29.036c-0.5614 0.4206 -1.244 0.6479 -1.9455 0.6479s-1.3841 -0.2273 -1.9455 -0.6479" stroke-width="1"></path><path fill="#45413c" d="M47.6319 25.145c0.5374 0 0.973 -0.4356 0.973 -0.973 0 -0.5373 -0.4356 -0.973 -0.973 -0.973 -0.5373 0 -0.973 0.4357 -0.973 0.973 0 0.5374 0.4357 0.973 0.973 0.973Z" stroke-width="1"></path><path fill="#45413c" d="M53.468 25.145c0.5374 0 0.973 -0.4356 0.973 -0.973 0 -0.5373 -0.4356 -0.973 -0.973 -0.973s-0.973 0.4357 -0.973 0.973c0 0.5374 0.4356 0.973 0.973 0.973Z" stroke-width="1"></path><path fill="#614b44" d="M50.55 12.754c-2.4402 0.1033 -4.7463 1.1444 -6.4377 2.9062 -1.6914 1.7619 -2.6376 4.1085 -2.6413 6.5508V39.34c-0.0009 0.0941 0.0189 0.1871 0.0578 0.2727 0.039 0.0856 0.0963 0.1616 0.1677 0.2227 0.0715 0.0611 0.1555 0.1058 0.2461 0.1309 0.0906 0.0252 0.1856 0.0302 0.2784 0.0147 0.6543 -0.0328 1.2727 -0.309 1.7339 -0.7743 0.4612 -0.4653 0.732 -1.0861 0.7591 -1.7407V27.457c-0.0058 -0.8637 0.1865 -1.7172 0.562 -2.495 0.3754 -0.7778 0.9242 -1.4592 1.604 -1.992 1.8933 -1.3328 3.2061 -3.3385 3.67 -5.607 0.6293 1.9103 1.846 3.5728 3.4765 4.7504 1.6304 1.1775 3.5913 1.8098 5.6025 1.8066v-1.709c-0.0035 -2.4424 -0.9496 -4.7891 -2.6411 -6.551 -1.6915 -1.7619 -3.9977 -2.8029 -6.4379 -2.906Z" stroke-width="1"></path><path fill="#947063" d="M50.5499 12.754c-2.4401 0.1033 -4.7462 1.1444 -6.4376 2.9062 -1.6914 1.7619 -2.6376 4.1085 -2.6414 6.5508v2.663c0.0035 -2.4424 0.9496 -4.7891 2.6411 -6.551 1.6915 -1.7619 3.9977 -2.8029 6.4379 -2.906 2.2759 0.0935 4.4417 1.0044 6.1002 2.5657 1.6584 1.5613 2.6983 3.6683 2.9288 5.9343h0.05v-1.706c-0.0034 -2.4424 -0.9496 -4.7891 -2.641 -6.551 -1.6915 -1.7619 -3.9977 -2.8029 -6.438 -2.906Z" stroke-width="1"></path><path stroke="#45413c" stroke-linecap="round" stroke-linejoin="round" d="M50.55 12.754c-2.4402 0.1033 -4.7463 1.1444 -6.4377 2.9062 -1.6914 1.7619 -2.6376 4.1085 -2.6413 6.5508V39.34c-0.0009 0.0941 0.0189 0.1871 0.0578 0.2727 0.039 0.0856 0.0963 0.1616 0.1677 0.2227 0.0715 0.0611 0.1555 0.1058 0.2461 0.1309 0.0906 0.0252 0.1856 0.0302 0.2784 0.0147 0.6543 -0.0328 1.2727 -0.309 1.7339 -0.7743 0.4612 -0.4653 0.732 -1.0861 0.7591 -1.7407V27.457c-0.0058 -0.8637 0.1865 -1.7172 0.562 -2.495 0.3754 -0.7778 0.9242 -1.4592 1.604 -1.992 1.8933 -1.3328 3.2061 -3.3385 3.67 -5.607 0.6293 1.9103 1.846 3.5728 3.4765 4.7504 1.6304 1.1775 3.5913 1.8098 5.6025 1.8066v-1.709c-0.0035 -2.4424 -0.9496 -4.7891 -2.6411 -6.551 -1.6915 -1.7619 -3.9977 -2.8029 -6.4379 -2.906Z" stroke-width="1"></path><path fill="#daedf7" d="M26.6529 80.441c0.0059 0.2567 -0.0396 0.512 -0.1338 0.7508 -0.0942 0.2389 -0.2352 0.4565 -0.4146 0.6401 -0.1795 0.1836 -0.3939 0.3295 -0.6305 0.4291 -0.2366 0.0996 -0.4908 0.1509 -0.7476 0.1509 -0.2567 0 -0.5109 -0.0513 -0.7475 -0.1509 -0.2367 -0.0996 -0.451 -0.2455 -0.6305 -0.4291 -0.1795 -0.1836 -0.3204 -0.4012 -0.4146 -0.6401 -0.0942 -0.2388 -0.1397 -0.4941 -0.1339 -0.7508v-23.5h3.853v23.5Z" stroke-width="1"></path><path fill="#daedf7" d="M81.362 80.441c0.0059 0.2567 -0.0396 0.512 -0.1338 0.7508 -0.0942 0.2389 -0.2352 0.4565 -0.4146 0.6401 -0.1795 0.1836 -0.3939 0.3295 -0.6305 0.4291 -0.2366 0.0996 -0.4908 0.1509 -0.7476 0.1509 -0.2567 0 -0.5109 -0.0513 -0.7475 -0.1509 -0.2367 -0.0996 -0.451 -0.2455 -0.6305 -0.4291 -0.1795 -0.1836 -0.3204 -0.4012 -0.4146 -0.6401 -0.0942 -0.2388 -0.1397 -0.4941 -0.1339 -0.7508v-23.5h3.853v23.5Z" stroke-width="1"></path><path fill="#daedf7" d="M26.653 56.939H22.8v4.623h3.853v-4.623Z" stroke-width="1"></path><path stroke="#45413c" stroke-linecap="round" stroke-linejoin="round" d="M26.6529 80.441c0.0059 0.2567 -0.0396 0.512 -0.1338 0.7508 -0.0942 0.2389 -0.2352 0.4565 -0.4146 0.6401 -0.1795 0.1836 -0.3939 0.3295 -0.6305 0.4291 -0.2366 0.0996 -0.4908 0.1509 -0.7476 0.1509 -0.2567 0 -0.5109 -0.0513 -0.7475 -0.1509 -0.2367 -0.0996 -0.451 -0.2455 -0.6305 -0.4291 -0.1795 -0.1836 -0.3204 -0.4012 -0.4146 -0.6401 -0.0942 -0.2388 -0.1397 -0.4941 -0.1339 -0.7508v-23.5h3.853v23.5Z" stroke-width="1"></path><path fill="#daedf7" d="M81.362 56.939h-3.853v4.623h3.853v-4.623Z" stroke-width="1"></path><path stroke="#45413c" stroke-linecap="round" stroke-linejoin="round" d="M81.362 80.417c0.0001 0.2562 -0.0502 0.5099 -0.1482 0.7466 -0.0979 0.2367 -0.2415 0.4517 -0.4226 0.6329 -0.1811 0.1812 -0.3961 0.3249 -0.6328 0.423 -0.2366 0.0981 -0.4903 0.1485 -0.7464 0.1485 -0.5039 0 -0.9872 -0.2002 -1.3435 -0.5565 -0.3564 -0.3563 -0.5565 -0.8396 -0.5565 -1.3435V56.939h3.853l-0.003 23.478Z" stroke-width="1"></path><path fill="#bf8256" stroke="#45413c" stroke-linecap="round" stroke-linejoin="round" d="M82.1331 55.3881c-0.0002 -0.2012 -0.0399 -0.4004 -0.117 -0.5862 -0.0772 -0.1859 -0.1901 -0.3547 -0.3325 -0.4968 -0.1423 -0.1422 -0.3113 -0.2549 -0.4972 -0.3318 -0.1859 -0.0769 -0.3852 -0.1164 -0.5863 -0.1162h-57.039c-0.4062 0 -0.7957 0.1612 -1.083 0.4483 -0.2873 0.2871 -0.4488 0.6765 -0.449 1.0827v0.781c0 0.1012 0.0199 0.2014 0.0587 0.2949 0.0387 0.0934 0.0955 0.1784 0.1671 0.2499 0.0716 0.0715 0.1566 0.1282 0.2502 0.1668 0.0935 0.0387 0.1938 0.0585 0.295 0.0584h58.562c0.1012 0.0001 0.2014 -0.0197 0.2949 -0.0584 0.0936 -0.0386 0.1786 -0.0953 0.2502 -0.1668 0.0716 -0.0715 0.1284 -0.1565 0.1671 -0.2499 0.0388 -0.0935 0.0588 -0.1937 0.0588 -0.2949v-0.781Z" stroke-width="1"></path><path fill="#daedf7" stroke="#45413c" stroke-linecap="round" stroke-linejoin="round" d="M77.51 72.351H26.653v6.935H77.51v-6.935Z" stroke-width="1"></path><path fill="#f8f8f8" d="M77.51 56.939H26.653V72.35H77.51V56.939Z" stroke-width="1"></path><path fill="#ffffff" d="M77.51 61.563H26.653v10.788H77.51V61.563Z" stroke-width="1"></path><path stroke="#45413c" stroke-linecap="round" stroke-linejoin="round" d="M77.51 56.939H26.653V72.35H77.51V56.939Z" stroke-width="1"></path><path fill="#e0e0e0" stroke="#45413c" stroke-linecap="round" stroke-linejoin="round" d="M89.838 82.368h-5.394V73.4c0 -0.2784 0.1106 -0.5455 0.3075 -0.7424 0.1969 -0.1969 0.464 -0.3076 0.7425 -0.3076h3.294c0.2784 0 0.5455 0.1107 0.7424 0.3076 0.1969 0.1969 0.3076 0.464 0.3076 0.7424v8.968Z" stroke-width="1"></path><path fill="#9ceb60" stroke="#45413c" stroke-linecap="round" stroke-linejoin="round" d="M89.838 75.433h-5.394v3.082h5.394v-3.082Z" stroke-width="1"></path><path stroke="#45413c" stroke-linecap="round" stroke-linejoin="round" d="M77.509 46.9221v4.132c0 0.7426 0.295 1.4548 0.8201 1.9799 0.5251 0.5251 1.2373 0.8201 1.9799 0.8201h2.112c0.9443 0.0002 1.8498 0.3755 2.5174 1.0433 0.6676 0.6678 1.0426 1.5734 1.0426 2.5177v14.936" stroke-width="1"></path><path fill="#ffffff" d="M52.572 42.299H36.9491c-0.5799 0 -1.0501 0.4701 -1.0501 1.05v9.458c0 0.5799 0.4702 1.05 1.0501 1.05H52.572c0.5799 0 1.0501 -0.4701 1.0501 -1.05v-9.458c0 -0.5799 -0.4702 -1.05 -1.0501 -1.05Z" stroke-width="1"></path><path fill="#f8f8f8" d="M53.622 47.693c0 -0.4087 -0.1623 -0.8006 -0.4513 -1.0896 -0.289 -0.289 -0.681 -0.4514 -1.0897 -0.4514H37.44c-0.4085 0.0003 -0.8002 0.1628 -1.089 0.4517 -0.2888 0.289 -0.451 0.6808 -0.451 1.0893v5.114c0 0.2785 0.1106 0.5456 0.3076 0.7425 0.1969 0.1969 0.4639 0.3075 0.7424 0.3075h15.622c0.2785 0 0.5456 -0.1106 0.7425 -0.3075 0.1969 -0.1969 0.3075 -0.464 0.3075 -0.7425v-5.114Z" stroke-width="1"></path><path stroke="#45413c" stroke-linecap="round" stroke-linejoin="round" d="M52.572 42.299H36.9491c-0.5799 0 -1.0501 0.4701 -1.0501 1.05v9.458c0 0.5799 0.4702 1.05 1.0501 1.05H52.572c0.5799 0 1.0501 -0.4701 1.0501 -1.05v-9.458c0 -0.5799 -0.4702 -1.05 -1.0501 -1.05Z" stroke-width="1"></path><path fill="#ffe500" stroke="#45413c" stroke-linecap="round" stroke-linejoin="round" d="M44.7611 50.775c0.8511 0 1.541 -0.6899 1.541 -1.541s-0.6899 -1.541 -1.541 -1.541 -1.541 0.6899 -1.541 1.541 0.6899 1.541 1.541 1.541Z" stroke-width="1"></path><path stroke="#45413c" stroke-linecap="round" stroke-linejoin="round" d="m44.7611 46.152 0.77 -0.771" stroke-width="1"></path><path fill="#ff6242" stroke="#45413c" stroke-linecap="round" stroke-linejoin="round" d="M30.506 49.234h-3.853v4.623h3.853v-4.623Z" stroke-width="1"></path><path stroke="#45413c" stroke-linecap="round" stroke-linejoin="round" d="M31.276 53.087h-0.771V50h0.771c0.2025 0 0.4029 0.0399 0.59 0.1174 0.187 0.0775 0.3569 0.1911 0.5 0.3343s0.2566 0.3132 0.334 0.5003c0.0774 0.1871 0.1171 0.3875 0.117 0.59v0c0.0005 0.2027 -0.0389 0.4035 -0.1161 0.5909 -0.0773 0.1875 -0.1907 0.3578 -0.3338 0.5013 -0.1432 0.1436 -0.3132 0.2574 -0.5005 0.3351 -0.1872 0.0777 -0.3879 0.1177 -0.5906 0.1177v0Z" stroke-width="1"></path><path fill="#45413c" stroke="#45413c" stroke-miterlimit="10" d="M55.934 85.4501c21.2784 0 38.528 -1.0352 38.528 -2.312 0 -1.2769 -17.2496 -2.3121 -38.528 -2.3121 -21.2784 0 -38.528 1.0352 -38.528 2.3121 0 1.2768 17.2496 2.312 38.528 2.312Z" opacity=".15" stroke-width="1"></path><path fill="#45413c" d="M71.609 35.2c-0.1244 -0.0011 -0.2459 -0.0368 -0.3512 -0.103 -0.1052 -0.0663 -0.1899 -0.1606 -0.2446 -0.2722 -0.0547 -0.1117 -0.0772 -0.2364 -0.0651 -0.3602 0.0122 -0.1237 0.0585 -0.2416 0.1339 -0.3406 0.5342 -0.7569 0.8209 -1.6605 0.821 -2.587V13.085c0 -0.1777 0.0706 -0.3481 0.1962 -0.4737 0.1257 -0.1257 0.2961 -0.1963 0.4738 -0.1963h16.081c0.0881 -0.0001 0.1753 0.0171 0.2567 0.0508 0.0814 0.0336 0.1554 0.0829 0.2177 0.1451 0.0623 0.0623 0.1118 0.1362 0.1455 0.2175 0.0337 0.0814 0.0511 0.1686 0.0511 0.2566v18.448c-0.0001 0.6782 -0.154 1.3475 -0.4502 1.9576 -0.2962 0.61 -0.727 1.145 -1.2598 1.5644 -0.1217 0.093 -0.2709 0.1426 -0.424 0.141l-15.582 0.004Z" opacity=".15" stroke-width="1"></path><path fill="#45413c" d="M71.609 33.186c-0.1244 -0.0011 -0.2459 -0.0368 -0.3512 -0.103 -0.1052 -0.0663 -0.1899 -0.1606 -0.2446 -0.2722 -0.0547 -0.1117 -0.0772 -0.2364 -0.0651 -0.3602 0.0122 -0.1237 0.0585 -0.2417 0.1339 -0.3406 0.5342 -0.7569 0.8209 -1.6606 0.821 -2.587V11.075c0 -0.1777 0.0706 -0.3481 0.1962 -0.4737 0.1257 -0.1257 0.2961 -0.1963 0.4738 -0.1963h16.081c0.0881 -0.0001 0.1753 0.0171 0.2567 0.0507 0.0814 0.0337 0.1554 0.083 0.2177 0.1452 0.0623 0.0622 0.1118 0.1361 0.1455 0.2175 0.0337 0.0814 0.0511 0.1686 0.0511 0.2566v18.448c-0.0001 0.6782 -0.154 1.3475 -0.4502 1.9576 -0.2962 0.61 -0.727 1.1449 -1.2598 1.5644 -0.1217 0.093 -0.2709 0.1426 -0.424 0.141H71.609Z" stroke-width="1"></path><path fill="#87898c" d="M89.3159 29.836c-0.0446 0.6224 -0.2189 1.2286 -0.5117 1.7797 -0.2927 0.5511 -0.6975 1.0349 -1.1883 1.4203 -0.1224 0.0958 -0.2735 0.1476 -0.429 0.147h-15.574c-0.1247 0.0008 -0.2471 -0.0334 -0.3535 -0.0987 -0.1063 -0.0653 -0.1922 -0.159 -0.248 -0.2705 -0.0557 -0.1116 -0.0792 -0.2366 -0.0676 -0.3608 0.0116 -0.1242 0.0577 -0.2427 0.1331 -0.342 0.4825 -0.6667 0.7658 -1.4566 0.817 -2.278l17.422 0.003Z" stroke-width="1"></path><path stroke="#9ceb60" stroke-linecap="round" stroke-linejoin="round" d="M80.614 27.155c3.3303 0 6.03 -2.6997 6.03 -6.03 0 -3.3302 -2.6997 -6.03 -6.03 -6.03 -3.3303 0 -6.03 2.6998 -6.03 6.03 0 3.3303 2.6997 6.03 6.03 6.03Z" stroke-width="1"></path><path stroke="#9ceb60" stroke-linecap="round" stroke-linejoin="round" d="m79.2739 19.1151 -2.01 2.01 2.01 2.011" stroke-width="1"></path><path stroke="#9ceb60" stroke-linecap="round" stroke-linejoin="round" d="m81.954 19.1151 2.01 2.01 -2.01 2.011" stroke-width="1"></path><path stroke="#45413c" stroke-linecap="round" stroke-linejoin="round" d="M71.609 33.186c-0.1244 -0.0011 -0.2459 -0.0368 -0.3512 -0.103 -0.1052 -0.0663 -0.1899 -0.1606 -0.2446 -0.2722 -0.0547 -0.1117 -0.0772 -0.2364 -0.0651 -0.3602 0.0122 -0.1237 0.0585 -0.2417 0.1339 -0.3406 0.5342 -0.7569 0.8209 -1.6606 0.821 -2.587V11.075c0 -0.1777 0.0706 -0.3481 0.1962 -0.4737 0.1257 -0.1257 0.2961 -0.1963 0.4738 -0.1963h16.081c0.0881 -0.0001 0.1753 0.0171 0.2567 0.0507 0.0814 0.0337 0.1554 0.083 0.2177 0.1452 0.0623 0.0622 0.1118 0.1361 0.1455 0.2175 0.0337 0.0814 0.0511 0.1686 0.0511 0.2566v18.448c-0.0001 0.6782 -0.154 1.3475 -0.4502 1.9576 -0.2962 0.61 -0.727 1.1449 -1.2598 1.5644 -0.1217 0.093 -0.2709 0.1426 -0.424 0.141H71.609Z" stroke-width="1"></path><path stroke="#45413c" stroke-linecap="round" stroke-linejoin="round" d="M71.609 33.186c-0.1244 -0.0011 -0.2459 -0.0368 -0.3512 -0.103 -0.1052 -0.0663 -0.1899 -0.1606 -0.2446 -0.2722 -0.0547 -0.1117 -0.0772 -0.2364 -0.0651 -0.3602 0.0122 -0.1237 0.0585 -0.2417 0.1339 -0.3406 0.5342 -0.7569 0.8209 -1.6606 0.821 -2.587V11.075c0 -0.1777 0.0706 -0.3481 0.1962 -0.4737 0.1257 -0.1257 0.2961 -0.1963 0.4738 -0.1963h16.081c0.0881 -0.0001 0.1753 0.0171 0.2567 0.0507 0.0814 0.0337 0.1554 0.083 0.2177 0.1452 0.0623 0.0622 0.1118 0.1361 0.1455 0.2175 0.0337 0.0814 0.0511 0.1686 0.0511 0.2566v18.448c-0.0001 0.6782 -0.154 1.3475 -0.4502 1.9576 -0.2962 0.61 -0.727 1.1449 -1.2598 1.5644 -0.1217 0.093 -0.2709 0.1426 -0.424 0.141H71.609Z" stroke-width="1"></path><path stroke="#45413c" stroke-linecap="round" stroke-linejoin="round" d="M71.609 33.186c-0.1244 -0.0011 -0.2459 -0.0368 -0.3512 -0.103 -0.1052 -0.0663 -0.1899 -0.1606 -0.2446 -0.2722 -0.0547 -0.1117 -0.0772 -0.2364 -0.0651 -0.3602 0.0122 -0.1237 0.0585 -0.2417 0.1339 -0.3406 0.5342 -0.7569 0.8209 -1.6606 0.821 -2.587V11.075c0 -0.1777 0.0706 -0.3481 0.1962 -0.4737 0.1257 -0.1257 0.2961 -0.1963 0.4738 -0.1963h16.081c0.0881 -0.0001 0.1753 0.0171 0.2567 0.0507 0.0814 0.0337 0.1554 0.083 0.2177 0.1452 0.0623 0.0622 0.1118 0.1361 0.1455 0.2175 0.0337 0.0814 0.0511 0.1686 0.0511 0.2566v18.448c-0.0001 0.6782 -0.154 1.3475 -0.4502 1.9576 -0.2962 0.61 -0.727 1.1449 -1.2598 1.5644 -0.1217 0.093 -0.2709 0.1426 -0.424 0.141H71.609Z" stroke-width="1"></path><path fill="#ffffff" stroke="#45413c" stroke-linejoin="round" d="M79.263 32.282H61.887c-1.1598 0 -2.1 0.9402 -2.1 2.1v10.441c0 1.1598 0.9402 2.1 2.1 2.1h17.376c1.1598 0 2.1 -0.9402 2.1 -2.1V34.382c0 -1.1598 -0.9402 -2.1 -2.1 -2.1Z" stroke-width="1"></path><path fill="#ffffff" stroke="#45413c" stroke-linejoin="round" d="M75.1999 53.857h-9.249c0 -0.8174 0.3247 -1.6013 0.9027 -2.1793 0.578 -0.578 1.3619 -0.9027 2.1793 -0.9027h3.082c0.405 -0.0004 0.8061 0.0791 1.1804 0.2338 0.3743 0.1547 0.7144 0.3816 1.0009 0.6679 0.2865 0.2862 0.5138 0.6261 0.6688 1.0002 0.1551 0.3741 0.2349 0.7751 0.2349 1.1801Z" stroke-width="1"></path><path fill="#ffffff" stroke="#45413c" stroke-linejoin="round" d="M72.115 46.9221h-3.082v3.853h3.082v-3.853Z" stroke-width="1"></path><path stroke="#45413c" stroke-linecap="round" stroke-linejoin="round" d="M77.509 43.8401v-1.541" stroke-width="1"></path><path stroke="#45413c" stroke-linecap="round" stroke-linejoin="round" d="M74.427 43.8401v-1.541" stroke-width="1"></path></svg>