<svg width="48" height="48" viewBox="0 0 48 48" fill="none" xmlns="http://www.w3.org/2000/svg">
<g clip-path="url(#clip0_9259_422290)">
<rect x="4" y="4" width="40" height="40" rx="20" fill="#D4DFF1"/>
<path d="M34.4727 33.5981C40.1257 28.4136 40.1257 20.0078 34.4727 14.8233C28.8197 9.63881 19.6543 9.63881 14.0013 14.8233C8.3483 20.0078 8.3483 28.4136 14.0013 33.5981C19.6543 38.7826 28.8197 38.7826 34.4727 33.5981Z" fill="#F6D661"/>
<path d="M31.9378 31.5337C36.0329 27.778 36.0329 21.6888 31.9378 17.9331C27.8427 14.1774 21.2033 14.1774 17.1082 17.9331C13.0131 21.6888 13.0131 27.778 17.1082 31.5337C21.2033 35.2894 27.8427 35.2894 31.9378 31.5337Z" fill="#EDBF59"/>
<path d="M51.1066 32.7357C48.542 32.2131 20.6167 23.0663 20.6167 23.0663C20.6167 23.0663 2.0948 15.4875 -1.89454 12.8742C-5.88387 10.2608 -13.2926 8.17012 -16.7121 7.64745C-20.1315 7.12477 -31.8145 8.95413 -36.3738 10.2608C-40.933 11.5675 -51.4763 16.7942 -58.885 19.6689C-64.3846 21.8119 -74.9563 24.6604 -80 25.9933V34.2776L-2.17949 40.5497C-2.17949 40.5758 53.6712 33.2584 51.1066 32.7357Z" fill="#8C7FA8"/>
<path d="M10.7005 21.655C15.4022 22.8571 19.3346 26.4113 24.2073 26.5681C25.6605 26.6204 27.1138 26.3329 28.4531 25.7841C28.5386 25.758 28.5956 25.7318 28.681 25.6796C24.0933 24.19 20.6739 23.0662 20.6739 23.0662C20.6739 23.0662 2.15196 15.4875 -1.83738 12.8741C-5.82671 10.2607 -13.2355 8.17004 -16.6549 7.64736C-17.2533 7.54283 -18.1082 7.54283 -19.134 7.56896C-19.305 8.03937 -19.305 8.53591 -19.077 9.00631C-18.6211 10.0255 -17.3673 10.5221 -16.2275 10.9141C-14.5747 11.489 -12.8935 12.0639 -11.1553 12.4298C-7.45094 13.1877 -3.09116 13.0832 -0.612076 15.6965C-0.498095 15.8272 -0.384115 15.9579 -0.327124 16.1408C-0.0706673 17.1339 -2.2933 17.0816 -2.60674 18.0747C-2.77772 18.6496 -2.17932 19.1723 -1.63791 19.4598C1.98099 21.3675 6.59722 20.6096 10.7005 21.655Z" fill="#B7AAD0"/>
<path d="M17.1118 35.4536C19.5624 33.5981 21.2721 30.7234 20.8732 27.8225C13.2364 28.7895 5.54273 29.4428 -2.17948 29.7564C-5.6274 29.8871 -9.33179 29.9132 -12.1528 28.1361C-13.4066 27.3521 -14.4039 26.2807 -15.6577 25.5228C-19.818 23.014 -25.3746 24.6342 -30.3328 24.1116C-33.8662 23.7457 -37.2286 22.2038 -39.6507 19.8256C-40.0497 19.4336 -40.4486 18.9894 -40.5341 18.4667C-40.6196 17.8918 -40.3631 17.343 -40.0497 16.8464C-38.0835 13.4229 -34.8065 10.705 -30.9882 9.05859C-33.1253 9.4506 -35.0345 9.86873 -36.3738 10.2607C-40.933 11.5674 -51.4763 16.7941 -58.885 19.6688C-64.3846 21.8118 -74.9563 24.6604 -80 25.9932V34.2775L-2.17948 40.5496C-2.17948 40.5496 2.06631 40.0008 8.19279 39.1645C8.30677 39.1384 8.44924 39.1123 8.56322 39.0861C11.6122 38.3283 14.6897 37.3352 17.1118 35.4536Z" fill="#806F97"/>
<path d="M90.9713 28.9201C82.5367 25.6273 62.5045 16.7941 62.5045 16.7941C62.5045 16.7941 55.9506 14.4421 52.2462 14.7035C48.5418 14.9648 48.5418 15.984 44.5525 17.5782C40.7911 19.0939 -3.9464 35.349 -7.10938 36.133L24.6058 37.1784L90.9713 41.6995V28.9201Z" fill="#8C7FA8"/>
<path d="M65.2693 31.3767C63.0467 31.0892 60.7386 31.5858 58.6015 30.9847C55.8089 30.2268 53.9282 27.7964 51.2212 26.7772C45.3512 24.582 38.3983 29.7826 32.6138 27.4567C32.1009 27.2476 31.588 26.9601 31.36 26.4897C31.132 26.0193 31.246 25.4705 31.417 24.974C31.8159 23.7457 32.5568 22.6219 33.5256 21.6811C18.9361 27.0124 -4.82895 35.5581 -7.08008 36.133L24.6351 37.1784L75.6986 40.6542C78.8901 39.4259 81.9961 38.0147 84.7601 36.1069C80.0014 35.8978 75.2712 34.9048 70.8829 33.2061C69.0307 32.4743 67.2355 31.6381 65.2693 31.3767Z" fill="#806F97"/>
<path d="M89.1201 36.5512C89.1201 36.4466 89.1201 36.3421 89.1201 36.2376C89.1486 35.6626 89.1201 35.0877 89.0916 34.5127C89.0631 34.2253 88.5787 34.1991 88.5787 34.5127C88.5502 35.0093 88.5217 35.5058 88.4647 36.0285C88.4362 36.1853 88.4077 36.3421 88.3792 36.4989C88.0658 36.4728 87.7523 36.4466 87.4104 36.4466C87.3819 36.2637 87.3819 36.1069 87.3534 35.9762C87.3249 35.7933 87.0399 35.7933 87.0399 35.9762C87.0399 36.133 87.0114 36.2898 87.0114 36.4205C86.9259 36.4205 86.812 36.4205 86.7265 36.3944C85.4157 36.316 84.2474 36.133 83.1646 35.8717C83.2786 35.0615 83.2786 34.2253 83.1931 33.4674C83.1646 33.3629 82.9936 33.3106 82.9651 33.4413C82.8512 34.0946 82.7942 34.7741 82.6232 35.4274C82.5947 35.532 82.5662 35.6104 82.5377 35.7149C82.3097 35.6626 82.0818 35.5842 81.8538 35.5319C81.8538 35.349 81.8823 35.14 81.9108 34.957C81.9393 34.7218 81.5404 34.7218 81.5119 34.957C81.4834 35.0877 81.4549 35.2706 81.4264 35.4274C79.1752 34.7741 76.9241 33.9639 73.6187 33.5197C72.7923 33.4151 72.0515 33.3106 71.3676 33.2322C71.3676 33.0754 71.3391 32.9186 71.3391 32.7618C71.2821 32.0562 71.2536 31.3767 71.1396 30.6711C71.1111 30.5143 70.8831 30.5143 70.8831 30.6711C70.8546 31.3767 70.8262 32.0562 70.7977 32.7618C70.7977 32.8925 70.7691 33.0231 70.7691 33.1538C70.3417 33.1015 69.9428 33.0754 69.5439 33.0493C69.5154 32.8141 69.4869 32.5788 69.4299 32.3698C69.4014 32.1868 69.0594 32.2391 69.0879 32.422C69.1164 32.6311 69.0879 32.8141 69.0879 33.0231C66.2954 32.8402 63.9588 32.8925 59.0861 32.7095C57.5759 32.6573 56.4075 32.5005 55.4672 32.2914C55.4957 32.03 55.4387 31.7426 55.4102 31.4812C55.3817 31.2983 55.0968 31.2722 55.0683 31.4812C55.0398 31.6903 55.0113 31.9255 54.9828 32.1346C54.9828 32.1607 54.9828 32.1607 54.9828 32.1868C54.6408 32.1084 54.2989 32.0039 54.0139 31.8994C54.0709 31.0631 53.9854 30.2007 53.9 29.3644C53.8715 29.1031 53.4725 29.1031 53.4725 29.3644C53.4725 30.07 53.4725 30.7495 53.4155 31.4551C53.4155 31.5335 53.3871 31.5858 53.3871 31.6642C51.5634 30.9063 50.5945 29.9916 47.7165 29.861C44.9525 29.7042 42.4734 30.253 39.9373 30.7756C39.7948 30.6188 39.5099 30.6972 39.4814 30.8802C37.7432 31.246 35.948 31.5858 34.0388 31.6903C32.728 31.7687 31.5597 31.9255 30.4199 32.1607C30.3914 31.9516 30.3344 31.7687 30.3059 31.5858C30.2204 31.1415 30.1634 30.6972 30.0494 30.253C30.021 30.0962 29.736 30.1223 29.7645 30.2791C29.8215 30.7234 29.85 31.1676 29.8785 31.6119C29.907 31.821 29.907 32.03 29.9355 32.2391C29.679 32.2914 29.4225 32.3436 29.1661 32.422C29.1376 32.3175 29.1091 32.1869 29.1091 32.0823C29.0806 31.9778 28.9381 31.9255 28.8526 31.9516C28.7387 31.9778 28.6817 32.0823 28.7102 32.1868C28.7387 32.2914 28.7387 32.422 28.7672 32.5266C26.2311 33.1799 23.524 34.1207 19.2782 35.0615C19.0788 35.1138 18.9078 35.1399 18.7368 35.1661C18.6798 34.9047 18.6513 34.6434 18.6513 34.3559C18.6513 34.1469 18.3094 34.1469 18.3094 34.3559C18.2809 34.6695 18.3094 34.957 18.3664 35.2445C18.1384 35.2967 17.9105 35.3229 17.6825 35.3751C17.5685 34.6434 17.597 33.9378 17.882 33.1277C17.939 32.9447 17.654 32.8925 17.5685 33.0493C17.2836 33.7549 17.1126 34.6173 17.1411 35.4536C12.0974 36.2637 8.53553 35.7149 3.54887 35.0877C3.57736 34.9309 3.60585 34.7741 3.63435 34.6173C3.66284 34.3559 3.23541 34.3821 3.20692 34.6173C3.17842 34.7479 3.14993 34.9047 3.12144 35.0354C2.46605 34.957 1.78216 34.8786 1.04128 34.8002C-3.11903 34.3298 -6.70943 34.2253 -10.3283 33.8594C-10.3283 33.0231 -10.6988 31.9778 -10.7273 31.4028C-10.7273 31.2722 -10.9552 31.2722 -10.9552 31.4028C-10.9552 31.9516 -10.8697 32.5004 -10.8412 33.0493C-10.8127 33.3106 -10.8127 33.5719 -10.8412 33.8333C-11.0977 33.8071 -11.3826 33.781 -11.6676 33.7287C-11.6676 33.4935 -11.7246 33.2583 -11.7531 33.0231C-11.7816 32.8402 -12.0665 32.9186 -12.038 33.1015C-12.0095 33.3106 -12.0095 33.4935 -12.038 33.6765C-14.0612 33.4151 -16.1414 33.0493 -18.364 32.4482C-25.2028 30.6188 -27.4825 31.4028 -33.1815 31.1415C-33.2955 31.1415 -33.4095 31.1415 -33.495 31.1154C-33.495 31.0892 -33.495 31.037 -33.495 31.0108C-33.495 30.7234 -33.9794 30.7234 -33.9794 31.0108V31.1154C-34.2358 31.1154 -34.5208 31.0892 -34.7772 31.0892C-34.7772 31.0108 -34.7772 30.9324 -34.7772 30.8279C-34.8057 30.3052 -34.8342 29.7826 -34.8912 29.286C-34.9197 29.1031 -35.2047 29.1031 -35.2047 29.286C-35.2047 29.8087 -35.2332 30.3314 -35.2902 30.8279C-35.2902 30.9063 -35.3187 30.9847 -35.3187 31.0631C-35.5181 31.0631 -35.7461 31.037 -35.9455 31.037C-35.9455 30.8802 -35.9171 30.7234 -35.9455 30.5404C-35.9455 30.3836 -36.1735 30.3836 -36.202 30.5404C-36.202 30.6711 -36.259 30.8279 -36.316 31.0108C-41.7016 30.7756 -48.2555 30.4359 -52.2733 29.5735C-53.8121 29.2337 -55.4648 29.0508 -57.1175 28.9463C-57.146 28.6065 -57.26 28.2929 -57.3455 27.9532C-57.4025 27.6919 -57.8584 27.7964 -57.8014 28.0577C-57.7444 28.3452 -57.6874 28.6327 -57.6019 28.9201C-58.0294 28.894 -58.4283 28.894 -58.8557 28.894C-58.9127 28.6065 -58.9697 28.3191 -58.9982 28.0316C-59.0552 27.2737 -59.0552 26.542 -59.0837 25.7841C-59.0837 25.5228 -59.4541 25.5489 -59.4826 25.7841C-59.5966 26.6727 -59.7676 27.8487 -59.6821 28.894C-59.967 28.894 -60.252 28.894 -60.5084 28.894C-60.4515 28.4759 -60.5369 28.0839 -60.6509 27.6919C-60.7079 27.4828 -61.0214 27.5873 -60.9929 27.7703C-60.9074 28.1361 -60.9074 28.5281 -60.8504 28.894C-63.073 28.9724 -65.2102 29.2076 -67.0909 29.5474C-68.9145 29.8871 -72.049 29.7041 -75.041 29.3644C-75.0695 29.0769 -75.155 28.7895 -75.1835 28.502C-75.212 28.2929 -75.5539 28.2668 -75.5539 28.502C-75.5824 28.7633 -75.5539 29.0508 -75.5539 29.3121C-75.7534 29.286 -75.9244 29.2599 -76.1238 29.2337C-76.1523 28.5543 -76.1238 27.8748 -76.0953 27.1953C-76.0953 27.0385 -76.3518 27.0385 -76.3518 27.1953C-76.4373 27.8225 -76.5798 28.502 -76.6368 29.1815C-77.8621 29.0247 -79.0019 28.8679 -79.9707 28.7111V55.0799H91.0008V36.6557C90.3739 36.6557 89.747 36.6034 89.1201 36.5512Z" fill="#6C6384"/>
<path d="M90.9719 40.7064C86.7831 40.9677 79.3458 41.6211 71.9086 41.6211C62.5051 41.6211 60.2255 40.8371 52.5318 41.3598C44.8381 41.8824 37.7143 42.6664 31.1604 41.3598C24.6065 40.0531 23.7516 42.1438 18.6225 42.6664C13.4933 43.1891 8.93409 43.4504 1.52533 41.3598C-5.88344 39.2691 -20.416 40.3144 -20.416 40.3144L-5.99742 55.1322H90.9719V40.7064Z" fill="#554E70"/>
<path d="M30.7336 34.3298C31.0755 34.3559 31.446 34.2514 31.7594 34.0946C31.1325 35.0093 30.5056 35.9239 29.8787 36.8386C30.1922 36.7602 30.5056 36.6557 30.8191 36.5773C30.4771 37.7272 29.9642 38.7986 29.3373 39.7917C29.6793 39.7395 30.0212 39.6872 30.3632 39.6349C29.9927 40.628 29.5938 41.5949 29.1094 42.5358C31.161 42.9539 33.2127 43.1891 35.2928 43.2936C34.7229 42.3528 34.3525 41.2813 34.1815 40.1576C34.381 40.4189 34.7229 40.5496 35.0364 40.4451C34.495 39.1645 33.9821 37.8578 33.4406 36.5773C33.7541 36.6557 34.0675 36.708 34.381 36.7864C33.9536 35.8717 33.4691 34.9831 32.9277 34.1207C33.2127 34.173 33.5261 34.1991 33.8111 34.2514C33.3552 33.598 32.8707 32.9447 32.4148 32.2914C31.8449 32.9447 31.3035 33.6242 30.7336 34.3298Z" fill="#554E70"/>
<path d="M25.2053 36.4728C25.4332 36.4728 25.6897 36.3944 25.8892 36.2637C25.4902 36.8909 25.0913 37.5443 24.7209 38.1715C24.9203 38.0931 25.1483 38.0147 25.3477 37.9624C25.1483 38.7464 24.8348 39.5043 24.4359 40.1838C24.6639 40.1315 24.8918 40.1054 25.1198 40.0531C24.9203 40.7326 24.6639 41.412 24.3789 42.0654C25.7752 42.2744 27.1714 42.3528 28.5677 42.3267C28.1688 41.6995 27.8838 40.9939 27.7128 40.2622C27.8553 40.419 28.0833 40.4974 28.3112 40.4451C27.9123 39.5827 27.5134 38.7464 27.1144 37.884C27.3139 37.9101 27.5419 37.9624 27.7413 37.9885C27.4279 37.3875 27.0575 36.8125 26.687 36.2376C26.8865 36.2637 27.086 36.2637 27.2854 36.2898C26.9435 35.8717 26.63 35.4274 26.2881 35.0093C25.9177 35.5058 25.5757 36.0024 25.2053 36.4728Z" fill="#554E70"/>
<path d="M4.37439 38.3021C4.63085 38.3021 4.88731 38.2237 5.11527 38.093C4.68784 38.7202 4.2889 39.3736 3.86147 40.0008C4.08943 39.9224 4.3174 39.8701 4.54536 39.7917C4.3459 40.5757 4.00395 41.3336 3.57652 42.0131C3.83297 41.9608 4.06094 41.9347 4.31739 41.8824C4.08943 42.5619 3.83298 43.2414 3.51953 43.8947C5.00128 44.1038 6.51153 44.2083 8.02178 44.1822C7.59435 43.555 7.28091 42.8494 7.10994 42.0915C7.28091 42.2483 7.50886 42.3267 7.73683 42.2744C7.3094 41.412 6.88197 40.5757 6.42604 39.7133C6.654 39.7395 6.88197 39.7917 7.10994 39.8179C6.76799 39.2168 6.36906 38.6418 5.97012 38.0669C6.19809 38.093 6.39755 38.093 6.62551 38.1192C6.25507 37.701 5.91313 37.2568 5.5427 36.8386C5.11527 37.3352 4.74483 37.8056 4.37439 38.3021Z" fill="#554E70"/>
<path d="M43.4692 34.2514C43.8397 34.2514 44.2101 34.173 44.5236 33.9639C43.8967 34.9309 43.2698 35.8978 42.6429 36.8648C42.9563 36.7602 43.2983 36.6557 43.6117 36.5773C43.2698 37.7795 42.7569 38.9293 42.13 39.9485C42.4719 39.8963 42.8423 39.844 43.1843 39.7656C42.8423 40.811 42.4149 41.8302 41.959 42.8232C44.0961 43.2153 46.2618 43.4243 48.4274 43.4766C47.829 42.5096 47.4016 41.3859 47.2021 40.236C47.4301 40.4974 47.772 40.628 48.114 40.5235C47.5156 39.1907 46.9457 37.8579 46.3473 36.525C46.6892 36.5773 47.0026 36.6557 47.3446 36.708C46.8602 35.7672 46.3473 34.8525 45.7774 33.9639C46.0908 33.9901 46.4043 34.0423 46.6892 34.0685C46.1763 33.389 45.6919 32.7095 45.1789 32.0562C44.5805 32.8141 44.0391 33.5197 43.4692 34.2514Z" fill="#554E70"/>
<path d="M15.4026 38.6941C15.6021 38.6941 15.8016 38.6418 16.001 38.5373C15.6591 39.0861 15.3171 39.6349 15.0037 40.1837C15.1747 40.1315 15.3741 40.0531 15.5451 40.0008C15.3741 40.6803 15.1177 41.3336 14.7757 41.9085C14.9752 41.8824 15.1747 41.8301 15.3741 41.804C15.2032 42.4051 14.9752 42.98 14.7188 43.5288C15.9155 43.7118 17.1408 43.8163 18.3376 43.8163C17.9957 43.2675 17.7392 42.6664 17.5968 42.0131C17.7392 42.1699 17.9387 42.2221 18.1097 42.1699C17.7677 41.4381 17.3973 40.7064 17.0554 39.9485C17.2263 39.9747 17.4258 40.0008 17.5968 40.0531C17.3118 39.5304 16.9984 39.0338 16.6849 38.5373C16.8559 38.5634 17.0269 38.5634 17.1978 38.5896C16.9129 38.2237 16.6279 37.8578 16.3145 37.492C16.001 37.8578 15.7161 38.276 15.4026 38.6941Z" fill="#554E70"/>
<path d="M2.92031 32.7095C3.06279 32.7095 3.20526 32.6834 3.31924 32.605C3.09128 32.9447 2.86332 33.3106 2.60686 33.6503C2.72085 33.6242 2.86333 33.5719 2.97731 33.5458C2.86333 33.9901 2.66385 34.3821 2.43589 34.7741C2.57837 34.748 2.69236 34.7218 2.83483 34.6957C2.72085 35.0616 2.54988 35.4536 2.37891 35.7933C3.20527 35.924 4.03162 35.9762 4.88648 35.9762C4.63002 35.6365 4.45906 35.2445 4.37357 34.8264C4.45906 34.9309 4.60153 34.957 4.71551 34.9309C4.48755 34.4605 4.23109 33.9901 4.00313 33.5197C4.11711 33.5458 4.25959 33.5719 4.37357 33.5719C4.1741 33.2322 3.97463 32.9186 3.74667 32.605C3.86065 32.605 3.97464 32.6311 4.11711 32.6311C3.91765 32.3959 3.71818 32.1607 3.51871 31.9255C3.34774 32.1869 3.11978 32.4482 2.92031 32.7095Z" fill="#6C6384"/>
<path d="M17.1684 32.6311C17.3108 32.6311 17.4533 32.605 17.5673 32.5266C17.3393 32.8663 17.1114 33.2322 16.8549 33.5719C16.9689 33.5458 17.1114 33.4935 17.2254 33.4674C17.1114 33.9117 16.9119 34.3037 16.6839 34.6957C16.8264 34.6696 16.9404 34.6434 17.0829 34.6173C16.9689 34.9832 16.7979 35.3752 16.627 35.7149C17.4533 35.8456 18.2797 35.8978 19.1345 35.8978C18.8781 35.5581 18.7071 35.1661 18.6216 34.748C18.7071 34.8525 18.8496 34.8786 18.9636 34.8525C18.7356 34.3821 18.4791 33.9117 18.2512 33.4413C18.3652 33.4674 18.5076 33.4935 18.6216 33.4935C18.4222 33.1538 18.2227 32.8402 17.9947 32.5266C18.1087 32.5266 18.2227 32.5527 18.3652 32.5527C18.1657 32.3175 17.9662 32.0823 17.7668 31.8471C17.5958 32.1085 17.3678 32.3698 17.1684 32.6311Z" fill="#6C6384"/>
<path d="M28.3102 30.462C28.4527 30.462 28.5667 30.4359 28.6807 30.3575C28.4812 30.6711 28.2533 30.9847 28.0538 31.3244C28.1678 31.2983 28.2817 31.246 28.3957 31.2199C28.2817 31.6119 28.1108 31.9778 27.9113 32.3437C28.0253 32.3175 28.1678 32.2914 28.2817 32.2914C28.1678 32.6311 28.0253 32.9709 27.8828 33.2845C28.6237 33.389 29.3931 33.4413 30.1624 33.4413C29.9345 33.1277 29.792 32.7618 29.7065 32.3959C29.792 32.4743 29.906 32.5266 30.02 32.4743C29.792 32.0562 29.5925 31.6119 29.3646 31.1938C29.4785 31.2199 29.5925 31.2199 29.7065 31.246C29.5355 30.9324 29.3361 30.645 29.1366 30.3575C29.2506 30.3575 29.3646 30.3836 29.4501 30.3836C29.2791 30.1746 29.0796 29.9655 28.9086 29.7303C28.6807 29.9916 28.5097 30.2268 28.3102 30.462Z" fill="#6C6384"/>
<path d="M39.2809 29.4167C39.4234 29.4167 39.5374 29.3905 39.6514 29.3121C39.4519 29.6257 39.224 29.9393 39.0245 30.2791C39.1385 30.2529 39.2524 30.2007 39.3664 30.1745C39.2524 30.5666 39.0815 30.9324 38.882 31.2983C38.996 31.2722 39.1385 31.246 39.2524 31.246C39.1385 31.5858 38.996 31.9255 38.8535 32.2391C39.5944 32.3436 40.3638 32.3959 41.1331 32.3959C40.9052 32.0823 40.7627 31.7164 40.6772 31.3506C40.7627 31.429 40.8767 31.4812 40.9907 31.429C40.7627 31.0108 40.5632 30.5666 40.3353 30.1484C40.4492 30.1745 40.5632 30.1746 40.6772 30.2007C40.5062 29.8871 40.3068 29.5996 40.1073 29.3121C40.2213 29.3121 40.3353 29.3383 40.4208 29.3383C40.2498 29.1292 40.0503 28.9201 39.8793 28.6849C39.6514 28.9463 39.4804 29.1815 39.2809 29.4167Z" fill="#6C6384"/>
<path d="M29.7074 29.4167C29.8499 29.4167 30.0209 29.3644 30.1349 29.3122C29.8784 29.678 29.6504 30.07 29.394 30.4359C29.5364 30.3836 29.6504 30.3575 29.7929 30.3052C29.6789 30.7757 29.4795 31.2199 29.223 31.6119C29.3655 31.5858 29.508 31.5597 29.6504 31.5335C29.508 31.9255 29.3655 32.3175 29.166 32.7095C30.0494 32.8402 30.9327 32.8925 31.8446 32.8925C31.5881 32.5266 31.3886 32.1085 31.3032 31.6642C31.3886 31.7687 31.5596 31.7949 31.6736 31.7687C31.4171 31.2722 31.1607 30.7757 30.9042 30.253C31.0467 30.2791 31.1892 30.3052 31.3032 30.3052C31.1037 29.9394 30.8757 29.5996 30.6193 29.286C30.7333 29.286 30.8757 29.3122 30.9897 29.3122C30.7902 29.0508 30.5623 28.8156 30.3628 28.5543C30.1633 28.8418 29.9354 29.1292 29.7074 29.4167Z" fill="#6C6384"/>
</g>
<defs>
<clipPath id="clip0_9259_422290">
<rect x="4" y="4" width="40" height="40" rx="20" fill="white"/>
</clipPath>
</defs>
</svg>

