<svg width="31" height="27" viewBox="0 0 31 27" fill="none" xmlns="http://www.w3.org/2000/svg">
<path fill-rule="evenodd" clip-rule="evenodd" d="M12.75 3.75002C8.93933 3.74452 5.42568 5.80695 3.5728 9.13683C1.71991 12.4667 1.81953 16.5397 3.833 19.775L0.75 26.25L7.225 23.167C11.0113 25.5211 15.8714 25.2274 19.3466 22.4345C22.8219 19.6416 24.1544 14.9585 22.6701 10.7544C21.1859 6.55028 17.2084 3.74192 12.75 3.75002Z" stroke="url(#paint0_linear_23_150)" stroke-width="1.5" stroke-linecap="round" stroke-linejoin="round"/>
<path fill-rule="evenodd" clip-rule="evenodd" d="M15.75 16.5C15.75 18.1569 14.4069 19.5 12.75 19.5C11.0931 19.5 9.75 18.1569 9.75 16.5H15.75Z" stroke="url(#paint1_linear_23_150)" stroke-width="1.5" stroke-linecap="round" stroke-linejoin="round"/>
<path d="M8.25 12.375C8.04289 12.375 7.875 12.5429 7.875 12.75C7.875 12.9571 8.04289 13.125 8.25 13.125C8.45711 13.125 8.625 12.9571 8.625 12.75C8.625 12.5429 8.45711 12.375 8.25 12.375" stroke="url(#paint2_linear_23_150)" stroke-width="1.5" stroke-linecap="round" stroke-linejoin="round"/>
<path d="M17.25 12.375C17.0429 12.375 16.875 12.5429 16.875 12.75C16.875 12.9571 17.0429 13.125 17.25 13.125C17.4571 13.125 17.625 12.9571 17.625 12.75C17.625 12.5429 17.4571 12.375 17.25 12.375" stroke="url(#paint3_linear_23_150)" stroke-width="1.5" stroke-linecap="round" stroke-linejoin="round"/>
<circle cx="24" cy="7" r="5.5" fill="#59D2AE" stroke="#302B42" stroke-width="3"/>
<defs>
<linearGradient id="paint0_linear_23_150" x1="12.0098" y1="3.75" x2="12.0098" y2="26.25" gradientUnits="userSpaceOnUse">
<stop stop-color="#2200FF"/>
<stop offset="1" stop-color="#9E00FF"/>
</linearGradient>
<linearGradient id="paint1_linear_23_150" x1="12.75" y1="16.5" x2="12.75" y2="19.5" gradientUnits="userSpaceOnUse">
<stop stop-color="#2200FF"/>
<stop offset="1" stop-color="#9E00FF"/>
</linearGradient>
<linearGradient id="paint2_linear_23_150" x1="8.375" y1="12.375" x2="8.375" y2="13.375" gradientUnits="userSpaceOnUse">
<stop stop-color="#2200FF"/>
<stop offset="1" stop-color="#9E00FF"/>
</linearGradient>
<linearGradient id="paint3_linear_23_150" x1="17.375" y1="12.375" x2="17.375" y2="13.375" gradientUnits="userSpaceOnUse">
<stop stop-color="#2200FF"/>
<stop offset="1" stop-color="#9E00FF"/>
</linearGradient>
</defs>
</svg>
