<svg width="30" height="30" viewBox="0 0 30 30" fill="none" xmlns="http://www.w3.org/2000/svg">
<path fill-rule="evenodd" clip-rule="evenodd" d="M21.1249 28.125L15.1586 21.902C14.0841 20.8274 13.8181 19.1857 14.4983 17.8268V17.8268C15.0056 16.812 15.9699 16.103 17.0898 15.9213C18.2097 15.7396 19.3486 16.1074 20.1508 16.9098L21.1249 17.884L22.0991 16.9098C22.9015 16.1074 24.0406 15.7397 25.1606 15.9213C26.2807 16.103 27.2451 16.812 27.7528 17.8268V17.8268C28.4319 19.186 28.1655 20.8273 27.0913 21.902L21.1249 28.125Z" stroke="#000000" stroke-width="2" stroke-linecap="round" stroke-linejoin="round"/>
<path d="M14.9999 28.125C7.98398 28.1243 2.20913 22.6061 1.8898 15.5974C1.57047 8.5887 6.8196 2.56817 13.8064 1.92951C20.7933 1.29085 27.0469 6.25991 28.0036 13.2104" stroke="#000000" stroke-width="2" stroke-linecap="round" stroke-linejoin="round"/>
<path d="M11.8372 27.7411C10.0627 25.1371 8.875 20.4051 8.875 15C8.875 9.59479 10.0627 4.86396 11.8372 2.25879" stroke="#000000" stroke-width="2" stroke-linecap="round" stroke-linejoin="round"/>
<path d="M1.90405 14.125H13.0142" stroke="#000000" stroke-width="2" stroke-linecap="round" stroke-linejoin="round"/>
<path d="M4.49878 7.125H25.4999" stroke="#000000" stroke-width="2" stroke-linecap="round" stroke-linejoin="round"/>
<path d="M3.38928 21.125H10.6249" stroke="#000000" stroke-width="2" stroke-linecap="round" stroke-linejoin="round"/>
<path d="M18.1628 2.25879C19.7355 4.56646 20.8462 8.54246 21.0795 13.1776" stroke="#000000" stroke-width="2" stroke-linecap="round" stroke-linejoin="round"/>
</svg>

