<svg width="64" height="67" viewBox="0 0 64 67" fill="none" xmlns="http://www.w3.org/2000/svg">
  <g clip-path="url(#clip0_6_465)">
  <path d="M64 29.0769H59.0769V34H64V29.0769Z" fill="#211E28"/>
  <path d="M59.0769 34H54.1538V38.9231H59.0769V34Z" fill="#211E28"/>
  <path d="M54.1539 38.9231H49.2308V43.8462H54.1539V38.9231Z" fill="#211E28"/>
  <path d="M49.2308 43.8461H44.3077V48.7692H49.2308V43.8461Z" fill="#211E28"/>
  <path d="M44.3077 48.7692H39.3846V53.6923H44.3077V48.7692Z" fill="#211E28"/>
  <path d="M39.3846 53.6923H34.4615V58.6154H39.3846V53.6923Z" fill="#211E28"/>
  <path d="M34.4615 58.6154H29.5385V63.5384H34.4615V58.6154Z" fill="#211E28"/>
  <path d="M29.5385 53.6923H24.6154V58.6154H29.5385V53.6923Z" fill="#211E28"/>
  <path d="M24.6154 48.7692H19.6923V53.6923H24.6154V48.7692Z" fill="#211E28"/>
  <path d="M19.6923 43.8461H14.7692V48.7692H19.6923V43.8461Z" fill="#211E28"/>
  <path d="M14.7692 38.9231H9.84616V43.8462H14.7692V38.9231Z" fill="#211E28"/>
  <path d="M9.84616 34H4.92308V38.9231H9.84616V34Z" fill="#211E28"/>
  <path d="M4.92308 29.0769H0V34H4.92308V29.0769Z" fill="#211E28"/>
  <path d="M64 24.1539H59.0769V29.0769H64V24.1539Z" fill="#211E28"/>
  <path d="M64 19.2308H59.0769V24.1539H64V19.2308Z" fill="#211E28"/>
  <path d="M64 14.3077H59.0769V19.2308H64V14.3077Z" fill="#211E28"/>
  <path d="M59.0769 29.0769H54.1538V34H59.0769V29.0769Z" fill="#2A14AF"/>
  <path d="M59.0769 24.1539H54.1538V29.0769H59.0769V24.1539Z" fill="#2A14AF"/>
  <path d="M59.0769 19.2308H54.1538V24.1539H59.0769V19.2308Z" fill="#2A14AF"/>
  <path d="M59.0769 14.3077H54.1538V19.2308H59.0769V14.3077Z" fill="#2A14AF"/>
  <path d="M59.0769 9.38464H54.1538V14.3077H59.0769V9.38464Z" fill="#211E28"/>
  <path d="M54.1539 34H49.2308V38.9231H54.1539V34Z" fill="#2A14AF"/>
  <path d="M54.1539 29.0769H49.2308V34H54.1539V29.0769Z" fill="#631AFF"/>
  <path d="M54.1539 24.1539H49.2308V29.0769H54.1539V24.1539Z" fill="#631AFF"/>
  <path d="M54.1539 19.2308H49.2308V24.1539H54.1539V19.2308Z" fill="#631AFF"/>
  <path d="M54.1539 14.3077H49.2308V19.2308H54.1539V14.3077Z" fill="#631AFF"/>
  <path d="M54.1539 9.38464H49.2308V14.3077H54.1539V9.38464Z" fill="#2A14AF"/>
  <path d="M54.1539 4.46155H49.2308V9.38462H54.1539V4.46155Z" fill="#211E28"/>
  <path d="M49.2308 38.9231H44.3077V43.8462H49.2308V38.9231Z" fill="#2A14AF"/>
  <path d="M49.2308 34H44.3077V38.9231H49.2308V34Z" fill="#631AFF"/>
  <path d="M49.2308 29.0769H44.3077V34H49.2308V29.0769Z" fill="#631AFF"/>
  <path d="M49.2308 24.1539H44.3077V29.0769H49.2308V24.1539Z" fill="#631AFF"/>
  <path d="M49.2308 19.2308H44.3077V24.1539H49.2308V19.2308Z" fill="#631AFF"/>
  <path d="M49.2308 14.3077H44.3077V19.2308H49.2308V14.3077Z" fill="#631AFF"/>
  <path d="M49.2308 9.38464H44.3077V14.3077H49.2308V9.38464Z" fill="#631AFF"/>
  <path d="M49.2308 4.46155H44.3077V9.38462H49.2308V4.46155Z" fill="#211E28"/>
  <path d="M44.3077 43.8461H39.3846V48.7692H44.3077V43.8461Z" fill="#2A14AF"/>
  <path d="M44.3077 38.9231H39.3846V43.8462H44.3077V38.9231Z" fill="#631AFF"/>
  <path d="M44.3077 34H39.3846V38.9231H44.3077V34Z" fill="#631AFF"/>
  <path d="M44.3077 29.0769H39.3846V34H44.3077V29.0769Z" fill="#631AFF"/>
  <path d="M44.3077 24.1539H39.3846V29.0769H44.3077V24.1539Z" fill="#631AFF"/>
  <path d="M44.3077 19.2308H39.3846V24.1539H44.3077V19.2308Z" fill="#631AFF"/>
  <path d="M44.3077 14.3077H39.3846V19.2308H44.3077V14.3077Z" fill="#631AFF"/>
  <path d="M44.3077 9.38464H39.3846V14.3077H44.3077V9.38464Z" fill="#631AFF"/>
  <path d="M44.3077 4.46155H39.3846V9.38462H44.3077V4.46155Z" fill="#211E28"/>
  <path d="M39.3846 48.7692H34.4615V53.6923H39.3846V48.7692Z" fill="#2A14AF"/>
  <path d="M39.3846 43.8461H34.4615V48.7692H39.3846V43.8461Z" fill="#631AFF"/>
  <path d="M39.3846 38.9231H34.4615V43.8462H39.3846V38.9231Z" fill="#631AFF"/>
  <path d="M39.3846 34H34.4615V38.9231H39.3846V34Z" fill="#631AFF"/>
  <path d="M39.3846 29.0769H34.4615V34H39.3846V29.0769Z" fill="#631AFF"/>
  <path d="M39.3846 24.1539H34.4615V29.0769H39.3846V24.1539Z" fill="#631AFF"/>
  <path d="M39.3846 19.2308H34.4615V24.1539H39.3846V19.2308Z" fill="#631AFF"/>
  <path d="M39.3846 14.3077H34.4615V19.2308H39.3846V14.3077Z" fill="#631AFF"/>
  <path d="M39.3846 9.38464H34.4615V14.3077H39.3846V9.38464Z" fill="#211E28"/>
  <path d="M34.4615 53.6923H29.5385V58.6154H34.4615V53.6923Z" fill="#7560F4"/>
  <path d="M34.4615 48.7692H29.5385V53.6923H34.4615V48.7692Z" fill="#631AFF"/>
  <path d="M34.4615 43.8461H29.5385V48.7692H34.4615V43.8461Z" fill="#631AFF"/>
  <path d="M34.4615 38.9231H29.5385V43.8462H34.4615V38.9231Z" fill="#631AFF"/>
  <path d="M34.4615 34H29.5385V38.9231H34.4615V34Z" fill="#631AFF"/>
  <path d="M34.4615 29.0769H29.5385V34H34.4615V29.0769Z" fill="#631AFF"/>
  <path d="M34.4615 24.1539H29.5385V29.0769H34.4615V24.1539Z" fill="#631AFF"/>
  <path d="M34.4615 19.2308H29.5385V24.1539H34.4615V19.2308Z" fill="#631AFF"/>
  <path d="M34.4615 14.3077H29.5385V19.2308H34.4615V14.3077Z" fill="#211E28"/>
  <path d="M29.5385 48.7692H24.6154V53.6923H29.5385V48.7692Z" fill="#7560F4"/>
  <path d="M29.5385 43.8461H24.6154V48.7692H29.5385V43.8461Z" fill="#631AFF"/>
  <path d="M29.5385 38.9231H24.6154V43.8462H29.5385V38.9231Z" fill="#631AFF"/>
  <path d="M29.5385 34H24.6154V38.9231H29.5385V34Z" fill="#631AFF"/>
  <path d="M29.5385 29.0769H24.6154V34H29.5385V29.0769Z" fill="#631AFF"/>
  <path d="M29.5385 24.1539H24.6154V29.0769H29.5385V24.1539Z" fill="#631AFF"/>
  <path d="M29.5385 19.2308H24.6154V24.1539H29.5385V19.2308Z" fill="#631AFF"/>
  <path d="M29.5385 14.3077H24.6154V19.2308H29.5385V14.3077Z" fill="#631AFF"/>
  <path d="M29.5385 9.38464H24.6154V14.3077H29.5385V9.38464Z" fill="#211E28"/>
  <path d="M24.6154 43.8461H19.6923V48.7692H24.6154V43.8461Z" fill="#7560F4"/>
  <path d="M24.6154 38.9231H19.6923V43.8462H24.6154V38.9231Z" fill="#631AFF"/>
  <path d="M24.6154 34H19.6923V38.9231H24.6154V34Z" fill="#631AFF"/>
  <path d="M24.6154 29.0769H19.6923V34H24.6154V29.0769Z" fill="#631AFF"/>
  <path d="M24.6154 24.1539H19.6923V29.0769H24.6154V24.1539Z" fill="#631AFF"/>
  <path d="M24.6154 19.2308H19.6923V24.1539H24.6154V19.2308Z" fill="#631AFF"/>
  <path d="M24.6154 14.3077H19.6923V19.2308H24.6154V14.3077Z" fill="#631AFF"/>
  <path d="M24.6154 9.38464H19.6923V14.3077H24.6154V9.38464Z" fill="#631AFF"/>
  <path d="M24.6154 4.46155H19.6923V9.38462H24.6154V4.46155Z" fill="#211E28"/>
  <path d="M19.6923 38.9231H14.7692V43.8462H19.6923V38.9231Z" fill="#7560F4"/>
  <path d="M19.6923 34H14.7692V38.9231H19.6923V34Z" fill="#631AFF"/>
  <path d="M19.6923 29.0769H14.7692V34H19.6923V29.0769Z" fill="#631AFF"/>
  <path d="M19.6923 24.1539H14.7692V29.0769H19.6923V24.1539Z" fill="#631AFF"/>
  <path d="M19.6923 19.2308H14.7692V24.1539H19.6923V19.2308Z" fill="#631AFF"/>
  <path d="M19.6923 14.3077H14.7692V19.2308H19.6923V14.3077Z" fill="white"/>
  <path d="M19.6923 9.38464H14.7692V14.3077H19.6923V9.38464Z" fill="#631AFF"/>
  <path d="M19.6923 4.46155H14.7692V9.38462H19.6923V4.46155Z" fill="#211E28"/>
  <path d="M14.7692 34H9.84616V38.9231H14.7692V34Z" fill="#7560F4"/>
  <path d="M14.7692 29.0769H9.84616V34H14.7692V29.0769Z" fill="#631AFF"/>
  <path d="M14.7692 24.1539H9.84616V29.0769H14.7692V24.1539Z" fill="#631AFF"/>
  <path d="M14.7692 19.2308H9.84616V24.1539H14.7692V19.2308Z" fill="white"/>
  <path d="M14.7692 14.3077H9.84616V19.2308H14.7692V14.3077Z" fill="white"/>
  <path d="M14.7692 9.38464H9.84616V14.3077H14.7692V9.38464Z" fill="#7560F4"/>
  <path d="M14.7692 4.46155H9.84616V9.38462H14.7692V4.46155Z" fill="#211E28"/>
  <path d="M9.84616 29.0769H4.92308V34H9.84616V29.0769Z" fill="#7560F4"/>
  <path d="M9.84616 24.1539H4.92308V29.0769H9.84616V24.1539Z" fill="#7560F4"/>
  <path d="M9.84616 19.2308H4.92308V24.1539H9.84616V19.2308Z" fill="#7560F4"/>
  <path d="M9.84616 14.3077H4.92308V19.2308H9.84616V14.3077Z" fill="#7560F4"/>
  <path d="M9.84616 9.38464H4.92308V14.3077H9.84616V9.38464Z" fill="#211E28"/>
  <path d="M4.92308 24.1539H0V29.0769H4.92308V24.1539Z" fill="#211E28"/>
  <path d="M4.92308 19.2308H0V24.1539H4.92308V19.2308Z" fill="#211E28"/>
  <path d="M4.92308 14.3077H0V19.2308H4.92308V14.3077Z" fill="#211E28"/>
  </g>
  <path fill-rule="evenodd" clip-rule="evenodd" d="M48.8632 31H51.329V67H48.8632V31ZM51.3296 38.1506H53.7953V43.0823H56.2595V54.9179H53.7953V59.8493H51.3296V38.1506ZM48.8626 38.1506H46.3969V59.8493H48.8626V38.1506ZM43.9305 43.0823H46.3963V54.9179H43.9305V52.4521H41.4663V45.3014H43.9305V43.0823ZM56.2601 45.3014H58.7258V52.4521H56.2601V45.3014ZM39 47.7671H41.4658V50.2329H39V47.7671ZM61.1922 47.7671H58.7264V50.2329H61.1922V47.7671Z" fill="#F7B000"/>
  <path fill-rule="evenodd" clip-rule="evenodd" d="M48.8632 31H51.329V67H48.8632V31ZM51.3296 38.1506H53.7953V43.0823H56.2595V54.9179H53.7953V59.8493H51.3296V38.1506ZM48.8626 38.1506H46.3969V59.8493H48.8626V38.1506ZM43.9305 43.0823H46.3963V54.9179H43.9305V52.4521H41.4663V45.3014H43.9305V43.0823ZM56.2601 45.3014H58.7258V52.4521H56.2601V45.3014ZM39 47.7671H41.4658V50.2329H39V47.7671ZM61.1922 47.7671H58.7264V50.2329H61.1922V47.7671Z" fill="#F7B000"/>
  <path fill-rule="evenodd" clip-rule="evenodd" d="M55.5755 0H57.2194V4.76709H58.8626V8.05485H60.5058V15.9453H58.8626V19.2328H57.2194V24H55.5755V19.2328H53.9323V4.76709H55.5755V0ZM52.2865 8.05485H53.9303V15.9453H52.2865V14.3015H50.6432V12.8219H49V11.1781H50.6432V9.53434H52.2865V8.05485ZM60.5078 9.53434H62.1516V11.1781H63.7949V12.8219H62.1516V14.3015H60.5078V9.53434Z" fill="#F7B000"/>
  <path fill-rule="evenodd" clip-rule="evenodd" d="M55.5755 0H57.2194V4.76709H58.8626V8.05485H60.5058V15.9453H58.8626V19.2328H57.2194V24H55.5755V19.2328H53.9323V4.76709H55.5755V0ZM52.2865 8.05485H53.9303V15.9453H52.2865V14.3015H50.6432V12.8219H49V11.1781H50.6432V9.53434H52.2865V8.05485ZM60.5078 9.53434H62.1516V11.1781H63.7949V12.8219H62.1516V14.3015H60.5078V9.53434Z" fill="#F7B000"/>
  <path fill-rule="evenodd" clip-rule="evenodd" d="M8.67144 26H10.5892V31.5616H12.5064V35.3973H14.4235V44.6028H12.5064V48.4383H10.5892V54H8.67144V48.4383H6.75434V31.5616H8.67144V26ZM4.8342 35.3973H6.75201V44.6028H4.8342V42.685H2.9171V40.9589H1V39.0411H2.9171V37.1234H4.8342V35.3973ZM14.4258 37.1234H16.3436V39.0411H18.2607V40.9589H16.3436V42.685H14.4258V37.1234Z" fill="#F7B000"/>
  <path fill-rule="evenodd" clip-rule="evenodd" d="M8.67144 26H10.5892V31.5616H12.5064V35.3973H14.4235V44.6028H12.5064V48.4383H10.5892V54H8.67144V48.4383H6.75434V31.5616H8.67144V26ZM4.8342 35.3973H6.75201V44.6028H4.8342V42.685H2.9171V40.9589H1V39.0411H2.9171V37.1234H4.8342V35.3973ZM14.4258 37.1234H16.3436V39.0411H18.2607V40.9589H16.3436V42.685H14.4258V37.1234Z" fill="#F7B000"/>
  <defs>
  <clipPath id="clip0_6_465">
  <rect width="64" height="64" fill="white" transform="translate(0 2)"/>
  </clipPath>
  </defs>
  </svg>
  
