<svg width="64" height="67" viewBox="0 0 64 67" fill="none" xmlns="http://www.w3.org/2000/svg">
<g clip-path="url(#clip0_5220_317844)">
<path d="M64.0012 29.0769H59.0781V34H64.0012V29.0769Z" fill="#211E28"/>
<path d="M59.0754 34H54.1523V38.9231H59.0754V34Z" fill="#211E28"/>
<path d="M54.1535 38.9231H49.2305V43.8462H54.1535V38.9231Z" fill="#211E28"/>
<path d="M49.2317 43.8462H44.3086V48.7693H49.2317V43.8462Z" fill="#211E28"/>
<path d="M44.3059 48.7693H39.3828V53.6924H44.3059V48.7693Z" fill="#211E28"/>
<path d="M39.384 53.6924H34.4609V58.6155H39.384V53.6924Z" fill="#211E28"/>
<path d="M34.4621 58.6155H29.5391V63.5386H34.4621V58.6155Z" fill="#211E28"/>
<path d="M29.5403 53.6924H24.6172V58.6155H29.5403V53.6924Z" fill="#211E28"/>
<path d="M24.6145 48.7693H19.6914V53.6924H24.6145V48.7693Z" fill="#211E28"/>
<path d="M19.6926 43.8462H14.7695V48.7693H19.6926V43.8462Z" fill="#211E28"/>
<path d="M14.7707 38.9231H9.84766V43.8462H14.7707V38.9231Z" fill="#211E28"/>
<path d="M9.84495 34H4.92188V38.9231H9.84495V34Z" fill="#211E28"/>
<path d="M4.92308 29.0769H0V34H4.92308V29.0769Z" fill="#211E28"/>
<path d="M64.0012 24.1538H59.0781V29.0769H64.0012V24.1538Z" fill="#211E28"/>
<path d="M64.0012 19.2307H59.0781V24.1538H64.0012V19.2307Z" fill="#211E28"/>
<path d="M64.0012 14.3076H59.0781V19.2307H64.0012V14.3076Z" fill="#211E28"/>
<path d="M59.0754 29.0769H54.1523V34H59.0754V29.0769Z" fill="#2A14AF"/>
<path d="M59.0754 24.1538H54.1523V29.0769H59.0754V24.1538Z" fill="#2A14AF"/>
<path d="M59.0754 19.2307H54.1523V24.1538H59.0754V19.2307Z" fill="#2A14AF"/>
<path d="M59.0754 14.3076H54.1523V19.2307H59.0754V14.3076Z" fill="#2A14AF"/>
<path d="M59.0754 9.38452H54.1523V14.3076H59.0754V9.38452Z" fill="#211E28"/>
<path d="M54.1535 34H49.2305V38.9231H54.1535V34Z" fill="#2A14AF"/>
<path d="M54.1535 29.0769H49.2305V34H54.1535V29.0769Z" fill="#631AFF"/>
<path d="M54.1535 24.1538H49.2305V29.0769H54.1535V24.1538Z" fill="#631AFF"/>
<path d="M54.1535 19.2307H49.2305V24.1538H54.1535V19.2307Z" fill="#631AFF"/>
<path d="M54.1535 14.3076H49.2305V19.2307H54.1535V14.3076Z" fill="#631AFF"/>
<path d="M54.1535 9.38452H49.2305V14.3076H54.1535V9.38452Z" fill="#2A14AF"/>
<path d="M54.1535 4.46143H49.2305V9.3845H54.1535V4.46143Z" fill="#211E28"/>
<path d="M49.2317 38.9231H44.3086V43.8462H49.2317V38.9231Z" fill="#2A14AF"/>
<path d="M49.2317 34H44.3086V38.9231H49.2317V34Z" fill="#631AFF"/>
<path d="M49.2317 29.0769H44.3086V34H49.2317V29.0769Z" fill="#631AFF"/>
<path d="M49.2317 24.1538H44.3086V29.0769H49.2317V24.1538Z" fill="#631AFF"/>
<path d="M49.2317 19.2307H44.3086V24.1538H49.2317V19.2307Z" fill="#631AFF"/>
<path d="M49.2317 14.3076H44.3086V19.2307H49.2317V14.3076Z" fill="#631AFF"/>
<path d="M49.2317 9.38452H44.3086V14.3076H49.2317V9.38452Z" fill="#631AFF"/>
<path d="M49.2317 4.46143H44.3086V9.3845H49.2317V4.46143Z" fill="#211E28"/>
<path d="M44.3059 43.8462H39.3828V48.7693H44.3059V43.8462Z" fill="#2A14AF"/>
<path d="M44.3059 38.9231H39.3828V43.8462H44.3059V38.9231Z" fill="#631AFF"/>
<path d="M44.3059 34H39.3828V38.9231H44.3059V34Z" fill="#631AFF"/>
<path d="M44.3059 29.0769H39.3828V34H44.3059V29.0769Z" fill="#631AFF"/>
<path d="M44.3059 24.1538H39.3828V29.0769H44.3059V24.1538Z" fill="#631AFF"/>
<path d="M44.3059 19.2307H39.3828V24.1538H44.3059V19.2307Z" fill="#631AFF"/>
<path d="M44.3059 14.3076H39.3828V19.2307H44.3059V14.3076Z" fill="#631AFF"/>
<path d="M44.3059 9.38452H39.3828V14.3076H44.3059V9.38452Z" fill="#631AFF"/>
<path d="M44.3059 4.46143H39.3828V9.3845H44.3059V4.46143Z" fill="#211E28"/>
<path d="M39.384 48.7693H34.4609V53.6924H39.384V48.7693Z" fill="#2A14AF"/>
<path d="M39.384 43.8462H34.4609V48.7693H39.384V43.8462Z" fill="#631AFF"/>
<path d="M39.384 38.9231H34.4609V43.8462H39.384V38.9231Z" fill="#631AFF"/>
<path d="M39.384 34H34.4609V38.9231H39.384V34Z" fill="#631AFF"/>
<path d="M39.384 29.0769H34.4609V34H39.384V29.0769Z" fill="#631AFF"/>
<path d="M39.384 24.1538H34.4609V29.0769H39.384V24.1538Z" fill="#631AFF"/>
<path d="M39.384 19.2307H34.4609V24.1538H39.384V19.2307Z" fill="#631AFF"/>
<path d="M39.384 14.3076H34.4609V19.2307H39.384V14.3076Z" fill="#631AFF"/>
<path d="M39.384 9.38452H34.4609V14.3076H39.384V9.38452Z" fill="#211E28"/>
<path d="M34.4621 53.6924H29.5391V58.6155H34.4621V53.6924Z" fill="#7560F4"/>
<path d="M34.4621 48.7693H29.5391V53.6924H34.4621V48.7693Z" fill="#631AFF"/>
<path d="M34.4621 43.8462H29.5391V48.7693H34.4621V43.8462Z" fill="#631AFF"/>
<path d="M34.4621 38.9231H29.5391V43.8462H34.4621V38.9231Z" fill="#631AFF"/>
<path d="M34.4621 34H29.5391V38.9231H34.4621V34Z" fill="#631AFF"/>
<path d="M34.4621 29.0769H29.5391V34H34.4621V29.0769Z" fill="#631AFF"/>
<path d="M34.4621 24.1538H29.5391V29.0769H34.4621V24.1538Z" fill="#631AFF"/>
<path d="M34.4621 19.2307H29.5391V24.1538H34.4621V19.2307Z" fill="#631AFF"/>
<path d="M34.4621 14.3076H29.5391V19.2307H34.4621V14.3076Z" fill="#211E28"/>
<path d="M29.5403 48.7693H24.6172V53.6924H29.5403V48.7693Z" fill="#7560F4"/>
<path d="M29.5403 43.8462H24.6172V48.7693H29.5403V43.8462Z" fill="#631AFF"/>
<path d="M29.5403 38.9231H24.6172V43.8462H29.5403V38.9231Z" fill="#631AFF"/>
<path d="M29.5403 34H24.6172V38.9231H29.5403V34Z" fill="#631AFF"/>
<path d="M29.5403 29.0769H24.6172V34H29.5403V29.0769Z" fill="#631AFF"/>
<path d="M29.5403 24.1538H24.6172V29.0769H29.5403V24.1538Z" fill="#631AFF"/>
<path d="M29.5403 19.2307H24.6172V24.1538H29.5403V19.2307Z" fill="#631AFF"/>
<path d="M29.5403 14.3076H24.6172V19.2307H29.5403V14.3076Z" fill="#631AFF"/>
<path d="M29.5403 9.38452H24.6172V14.3076H29.5403V9.38452Z" fill="#211E28"/>
<path d="M24.6145 43.8462H19.6914V48.7693H24.6145V43.8462Z" fill="#7560F4"/>
<path d="M24.6145 38.9231H19.6914V43.8462H24.6145V38.9231Z" fill="#631AFF"/>
<path d="M24.6145 34H19.6914V38.9231H24.6145V34Z" fill="#631AFF"/>
<path d="M24.6145 29.0769H19.6914V34H24.6145V29.0769Z" fill="#631AFF"/>
<path d="M24.6145 24.1538H19.6914V29.0769H24.6145V24.1538Z" fill="#631AFF"/>
<path d="M24.6145 19.2307H19.6914V24.1538H24.6145V19.2307Z" fill="#631AFF"/>
<path d="M24.6145 14.3076H19.6914V19.2307H24.6145V14.3076Z" fill="#631AFF"/>
<path d="M24.6145 9.38452H19.6914V14.3076H24.6145V9.38452Z" fill="#631AFF"/>
<path d="M24.6145 4.46143H19.6914V9.3845H24.6145V4.46143Z" fill="#211E28"/>
<path d="M19.6926 38.9231H14.7695V43.8462H19.6926V38.9231Z" fill="#7560F4"/>
<path d="M19.6926 34H14.7695V38.9231H19.6926V34Z" fill="#631AFF"/>
<path d="M19.6926 29.0769H14.7695V34H19.6926V29.0769Z" fill="#631AFF"/>
<path d="M19.6926 24.1538H14.7695V29.0769H19.6926V24.1538Z" fill="#631AFF"/>
<path d="M19.6926 19.2307H14.7695V24.1538H19.6926V19.2307Z" fill="#631AFF"/>
<path d="M19.6926 14.3076H14.7695V19.2307H19.6926V14.3076Z" fill="white"/>
<path d="M19.6926 9.38452H14.7695V14.3076H19.6926V9.38452Z" fill="#631AFF"/>
<path d="M19.6926 4.46143H14.7695V9.3845H19.6926V4.46143Z" fill="#211E28"/>
<path d="M14.7707 34H9.84766V38.9231H14.7707V34Z" fill="#7560F4"/>
<path d="M14.7707 29.0769H9.84766V34H14.7707V29.0769Z" fill="#631AFF"/>
<path d="M14.7707 24.1538H9.84766V29.0769H14.7707V24.1538Z" fill="#631AFF"/>
<path d="M14.7707 19.2307H9.84766V24.1538H14.7707V19.2307Z" fill="white"/>
<path d="M14.7707 14.3076H9.84766V19.2307H14.7707V14.3076Z" fill="white"/>
<path d="M14.7707 9.38452H9.84766V14.3076H14.7707V9.38452Z" fill="#7560F4"/>
<path d="M14.7707 4.46143H9.84766V9.3845H14.7707V4.46143Z" fill="#211E28"/>
<path d="M9.84495 29.0769H4.92188V34H9.84495V29.0769Z" fill="#7560F4"/>
<path d="M9.84495 24.1538H4.92188V29.0769H9.84495V24.1538Z" fill="#7560F4"/>
<path d="M9.84495 19.2307H4.92188V24.1538H9.84495V19.2307Z" fill="#7560F4"/>
<path d="M9.84495 14.3076H4.92188V19.2307H9.84495V14.3076Z" fill="#7560F4"/>
<path d="M9.84495 9.38452H4.92188V14.3076H9.84495V9.38452Z" fill="#211E28"/>
<path d="M4.92308 24.1538H0V29.0769H4.92308V24.1538Z" fill="#211E28"/>
<path d="M4.92308 19.2307H0V24.1538H4.92308V19.2307Z" fill="#211E28"/>
<path d="M4.92308 14.3076H0V19.2307H4.92308V14.3076Z" fill="#211E28"/>
</g>
<path fill-rule="evenodd" clip-rule="evenodd" d="M48.8632 31H51.329V67H48.8632V31ZM51.3296 38.1506H53.7953V43.0823H56.2595V54.9179H53.7953V59.8493H51.3296V38.1506ZM48.8626 38.1506H46.3969V59.8493H48.8626V38.1506ZM43.9305 43.0823H46.3963V54.9179H43.9305V52.4521H41.4663V45.3014H43.9305V43.0823ZM56.2601 45.3014H58.7258V52.4521H56.2601V45.3014ZM39 47.7671H41.4658V50.2329H39V47.7671ZM61.1922 47.7671H58.7264V50.2329H61.1922V47.7671Z" fill="#F7B000"/>
<path fill-rule="evenodd" clip-rule="evenodd" d="M48.8632 31H51.329V67H48.8632V31ZM51.3296 38.1506H53.7953V43.0823H56.2595V54.9179H53.7953V59.8493H51.3296V38.1506ZM48.8626 38.1506H46.3969V59.8493H48.8626V38.1506ZM43.9305 43.0823H46.3963V54.9179H43.9305V52.4521H41.4663V45.3014H43.9305V43.0823ZM56.2601 45.3014H58.7258V52.4521H56.2601V45.3014ZM39 47.7671H41.4658V50.2329H39V47.7671ZM61.1922 47.7671H58.7264V50.2329H61.1922V47.7671Z" fill="#F7B000"/>
<path fill-rule="evenodd" clip-rule="evenodd" d="M55.5755 0H57.2194V4.76709H58.8626V8.05485H60.5058V15.9453H58.8626V19.2328H57.2194V24H55.5755V19.2328H53.9323V4.76709H55.5755V0ZM52.2865 8.05485H53.9303V15.9453H52.2865V14.3015H50.6432V12.8219H49V11.1781H50.6432V9.53434H52.2865V8.05485ZM60.5078 9.53434H62.1516V11.1781H63.7949V12.8219H62.1516V14.3015H60.5078V9.53434Z" fill="#F7B000"/>
<path fill-rule="evenodd" clip-rule="evenodd" d="M55.5755 0H57.2194V4.76709H58.8626V8.05485H60.5058V15.9453H58.8626V19.2328H57.2194V24H55.5755V19.2328H53.9323V4.76709H55.5755V0ZM52.2865 8.05485H53.9303V15.9453H52.2865V14.3015H50.6432V12.8219H49V11.1781H50.6432V9.53434H52.2865V8.05485ZM60.5078 9.53434H62.1516V11.1781H63.7949V12.8219H62.1516V14.3015H60.5078V9.53434Z" fill="#F7B000"/>
<path fill-rule="evenodd" clip-rule="evenodd" d="M8.67144 26H10.5892V31.5616H12.5064V35.3973H14.4235V44.6028H12.5064V48.4383H10.5892V54H8.67144V48.4383H6.75434V31.5616H8.67144V26ZM4.8342 35.3973H6.75201V44.6028H4.8342V42.685H2.9171V40.9589H1V39.0411H2.9171V37.1234H4.8342V35.3973ZM14.4258 37.1234H16.3436V39.0411H18.2607V40.9589H16.3436V42.685H14.4258V37.1234Z" fill="#F7B000"/>
<path fill-rule="evenodd" clip-rule="evenodd" d="M8.67144 26H10.5892V31.5616H12.5064V35.3973H14.4235V44.6028H12.5064V48.4383H10.5892V54H8.67144V48.4383H6.75434V31.5616H8.67144V26ZM4.8342 35.3973H6.75201V44.6028H4.8342V42.685H2.9171V40.9589H1V39.0411H2.9171V37.1234H4.8342V35.3973ZM14.4258 37.1234H16.3436V39.0411H18.2607V40.9589H16.3436V42.685H14.4258V37.1234Z" fill="#F7B000"/>
<defs>
<clipPath id="clip0_5220_317844">
<rect width="64" height="64" fill="white" transform="translate(0 2)"/>
</clipPath>
</defs>
</svg>

