<svg xmlns="http://www.w3.org/2000/svg" viewBox="0 0 24 24" id="Olympics-Torch--Streamline-Freehand" height="24" width="24"><desc>Olympics Torch Streamline Icon: https://streamlinehq.com</desc><title>olympics-torch</title><g><path d="M21.1 9.5c0 -0.12 0 -0.25 0.08 -0.4 0.12 -0.66 0.22 -1.37 0.32 -2.17 0 -0.38 -0.86 0.17 -1 0.56a13.12 13.12 0 0 0 -0.22 1.45 4.3 4.3 0 0 0 -1.72 -0.07l-0.26 0c-0.06 -0.41 -0.12 -0.81 -0.19 -1.16s-0.92 -0.7 -0.91 -0.07l0 1.44c-0.87 0.18 -1.7 0.4 -2.25 0.46a4.56 4.56 0 0 1 -0.74 -0.13c-0.69 -0.15 -1.58 -0.39 -1.9 -0.45a3.39 3.39 0 0 0 2 -2.88 2.82 2.82 0 0 0 -1 -2.4A3.18 3.18 0 0 0 10.76 3 4.5 4.5 0 0 0 8.4 4.22a3.19 3.19 0 0 0 -0.63 1.19A2.91 2.91 0 0 0 9.53 9l-0.4 0a6.79 6.79 0 0 0 -2.08 0.53 17 17 0 0 0 -2.41 1.28 6.9 6.9 0 0 0 -1.41 1.26 4.51 4.51 0 0 0 -0.73 1.17 1.83 1.83 0 0 0 -0.14 1.06 1.53 1.53 0 0 0 1.28 1.06A2.09 2.09 0 0 0 5.13 15a14.86 14.86 0 0 1 3 -1.5A25.55 25.55 0 0 1 7 16.82l-0.06 0.09c-0.15 0 -0.37 -0.07 -0.58 -0.12 -0.37 -0.09 -0.75 -0.19 -0.89 -0.24a5.87 5.87 0 0 0 -1.17 -0.28 3.82 3.82 0 0 0 -1.3 0.03 1.27 1.27 0 0 0 -0.94 0.85 1.82 1.82 0 0 0 0.24 1.63 4.46 4.46 0 0 0 0.57 0.58 4.36 4.36 0 0 0 0.65 0.48 12.2 12.2 0 0 0 3.3 1.71 2.27 2.27 0 0 0 1.93 -0.28 11.35 11.35 0 0 0 1.12 -1c0.35 -0.35 0.68 -0.73 1 -1.08l0.38 -0.44a7.81 7.81 0 0 1 1 0.53 13.85 13.85 0 0 1 1.48 1c0.14 0.32 0.44 1.18 0.77 1.9a6.46 6.46 0 0 0 0.5 0.9 2.17 2.17 0 0 0 1 0.84 1.55 1.55 0 0 0 1 0 1.66 1.66 0 0 0 0.89 -0.54 2.83 2.83 0 0 0 0.38 -1.23 5.92 5.92 0 0 0 -0.27 -2.68 6.77 6.77 0 0 0 -1.13 -2.41 3.43 3.43 0 0 0 -1 -0.6c-0.6 -0.28 -1.35 -0.57 -1.74 -0.76 0 -0.53 0.07 -1.71 0.13 -2.17l0.17 0c0.65 -0.1 1.85 -0.27 3 -0.5 0 0.82 0.22 2.23 0.28 2.54a1.35 1.35 0 0 0 1.49 1.13 1.48 1.48 0 0 0 1.43 -1.21s0.35 -3.63 0.34 -3.67a1.18 1.18 0 0 0 0.23 -0.2 1.48 1.48 0 0 0 0.25 -1.6 2.06 2.06 0 0 0 -0.35 -0.52ZM8.85 5.76A2 2 0 0 1 9.21 5a3.53 3.53 0 0 1 1.74 -1 2.23 2.23 0 0 1 1.81 0.41 1.92 1.92 0 0 1 0.79 1.6 2.32 2.32 0 0 1 -3.25 2.34 2 2 0 0 1 -1.45 -2.59Zm10.77 9.59a0.47 0.47 0 0 1 -0.45 0.38c-0.19 0 -0.38 -0.12 -0.45 -0.41s-0.22 -1.72 -0.41 -2.5l0.72 -0.18a7.55 7.55 0 0 0 0.8 -0.25Zm1 -4.28a3.84 3.84 0 0 1 -1.76 0.74c-1.56 0.39 -3.56 0.62 -4.47 0.75a3.74 3.74 0 0 0 -0.53 0.11 0.52 0.52 0 0 0 -0.31 0.26 17.61 17.61 0 0 0 -0.26 2.16 4.53 4.53 0 0 0 0 1.11 1.16 1.16 0 0 0 0.48 0.39 14.59 14.59 0 0 1 2.4 1.16 5.64 5.64 0 0 1 0.87 2 4.78 4.78 0 0 1 0.21 2.12 2.73 2.73 0 0 1 -0.15 0.77 0.5 0.5 0 0 1 -0.35 0.22 0.53 0.53 0 0 1 -0.38 0 1.42 1.42 0 0 1 -0.4 -0.41 5.8 5.8 0 0 1 -0.38 -0.72c-0.36 -0.8 -0.69 -1.77 -0.82 -2a5.65 5.65 0 0 0 -1.31 -1 12.53 12.53 0 0 0 -1.92 -1 0.93 0.93 0 0 0 -0.81 0.11 3.21 3.21 0 0 0 -0.71 0.72c-0.28 0.34 -0.58 0.68 -0.91 1a9 9 0 0 1 -1 0.88c-0.36 0.28 -0.88 0.15 -1.4 0a14.33 14.33 0 0 1 -2.55 -1.42 3.68 3.68 0 0 1 -0.51 -0.37 3.82 3.82 0 0 1 -0.45 -0.45 0.63 0.63 0 0 1 -0.08 -0.46c0 -0.1 0 -0.23 0.15 -0.25a2.84 2.84 0 0 1 0.92 0 4.16 4.16 0 0 1 1 0.22 13.33 13.33 0 0 0 1.41 0.33 2.32 2.32 0 0 0 0.79 0 0.62 0.62 0 0 0 0.34 -0.23 3.89 3.89 0 0 0 0.42 -0.87 29.55 29.55 0 0 0 1 -3.56 0.61 0.61 0 0 0 -0.15 -0.63 0.71 0.71 0 0 0 -0.72 -0.26 13.17 13.17 0 0 0 -3.67 1.79 1.3 1.3 0 0 1 -0.9 0.27 0.67 0.67 0 0 1 -0.6 -0.43 1.17 1.17 0 0 1 0.15 -0.75 4.54 4.54 0 0 1 0.52 -0.81 6.24 6.24 0 0 1 1.23 -1.14 16.25 16.25 0 0 1 2.31 -1.27A6.88 6.88 0 0 1 9.7 9.6c2.47 -0.22 2.54 0.15 4.68 0.6a2.7 2.7 0 0 0 0.67 0.09c0.8 -0.08 2.46 -0.53 3.63 -0.65a3.45 3.45 0 0 1 1.39 0 1.2 1.2 0 0 1 0.63 0.64 0.68 0.68 0 0 1 -0.12 0.79Z" fill="#000000" stroke-width="1"></path><path d="M21.92 3.75a3.82 3.82 0 0 0 -1.42 -2.38 8.41 8.41 0 0 0 -1.4 -0.81A8.69 8.69 0 0 0 17.55 0.1a10.91 10.91 0 0 0 -3 0 1.15 1.15 0 0 0 -0.55 0.24 0.6 0.6 0 0 0 -0.19 0.44 0.6 0.6 0 0 0 0.13 0.38 1.91 1.91 0 0 0 0.39 0.32c0.54 0.35 1.81 1 2.21 1.88 0.08 0.17 -0.05 0.33 -0.12 0.52A2.46 2.46 0 0 0 16.15 5a2.88 2.88 0 0 0 0.47 1.38 3 3 0 0 0 5.3 -2.63ZM17.3 6a2.09 2.09 0 0 1 -0.3 -1 2.84 2.84 0 0 1 0.39 -1.1 1.22 1.22 0 0 0 0 -0.9 3.73 3.73 0 0 0 -1 -1.32 5.86 5.86 0 0 0 -0.63 -0.51 7.78 7.78 0 0 1 1.53 0.06 8.29 8.29 0 0 1 1.36 0.37 7.08 7.08 0 0 1 1.25 0.64 2.86 2.86 0 0 1 1.12 1.73 2.16 2.16 0 0 1 -0.75 2.31 2.4 2.4 0 0 1 -2.07 0.49 1.8 1.8 0 0 1 -0.9 -0.77Z" fill="#000000" stroke-width="1"></path></g></svg>