<svg width="750" height="750" viewBox="0 0 750 750" fill="none" xmlns="http://www.w3.org/2000/svg">
<path d="M735.65 633.555L685.874 205.781C684.316 198.005 678.098 191.781 670.316 191.781L506.983 191.776V134.224C506.983 61.1093 447.868 2 374.759 2C301.65 2 242.535 61.1093 242.535 134.224V191.781L77.655 191.776C69.879 191.776 63.655 198 62.0976 205.776L38.7643 417.336L13.8736 635.109C6.09762 694.224 51.207 748.667 110.322 748.667H639.202C698.316 748.667 743.426 694.224 735.65 633.557V633.555ZM273.65 134.221C273.65 78.2212 318.759 33.1065 374.759 33.1065C430.759 33.1065 475.868 78.2159 475.868 134.216V191.773H273.642L273.65 134.221ZM91.6496 222.888H240.983V288.221C219.207 294.445 205.207 314.664 205.207 337.997C205.207 365.997 228.54 389.331 256.54 389.331C284.54 389.331 307.874 365.997 307.874 337.997C307.874 314.664 292.316 295.997 272.098 288.221V222.888H474.324V288.221C452.548 294.445 438.548 314.664 438.548 337.997C438.548 365.997 461.882 389.331 489.882 389.331C517.882 389.331 541.215 365.997 541.215 337.997C541.215 314.664 525.658 295.997 505.439 288.221V222.888H654.772L676.548 406.448L71.4283 406.443L91.6496 222.888ZM258.09 316.221C268.98 316.221 278.314 325.555 278.314 336.445C278.314 347.336 268.98 356.669 258.09 356.669C247.199 356.669 237.866 347.336 237.866 336.445C237.866 325.555 245.647 316.221 258.09 316.221ZM491.423 316.221C502.314 316.221 511.647 325.555 511.647 336.445C511.647 347.336 502.314 356.669 491.423 356.669C480.532 356.669 471.199 347.336 471.199 336.445C471.199 325.555 480.532 316.221 491.423 316.221ZM639.196 717.555H110.316C69.8736 717.555 40.3163 680.221 44.983 638.221L68.3163 439.115H682.756L706.09 638.221C710.756 680.221 679.647 717.555 639.199 717.555H639.196Z" fill="black"/>
</svg>

