<svg width="726" height="726" viewBox="0 0 726 726" fill="none" xmlns="http://www.w3.org/2000/svg">
<path d="M531.504 124.291C533.319 150.209 535.207 171.554 536.732 188.542C536.732 191.374 540.434 190.285 543.992 186.219C547.115 183.189 549.371 179.379 550.526 175.184L555.753 112.82C557.568 89.2254 559.165 62.9442 559.964 33.396C560.031 31.2983 559.685 29.2078 558.945 27.2439C558.204 25.2801 557.084 23.4815 555.647 21.951C554.211 20.4204 552.487 19.188 550.575 18.324C548.662 17.46 546.598 16.9815 544.5 16.9158H543.774C513.645 16.0446 481.047 15.3186 442.86 14.52C440.448 14.4816 438.052 14.9187 435.808 15.8064C433.565 16.6942 431.519 18.0151 429.786 19.6938C428.054 21.3725 426.669 23.3761 425.71 25.5901C424.752 27.8041 424.24 30.1852 424.202 32.5974V33.396C423.548 75.7944 423.113 120.516 422.967 166.762H400.534H398.283C392.094 167.159 386.126 169.215 381.005 172.713C375.884 176.211 371.798 181.023 369.177 186.644C366.556 192.265 365.496 198.487 366.108 204.659C366.72 210.831 368.982 216.724 372.656 221.72C373.537 222.929 374.507 224.07 375.56 225.133L377.084 226.73L377.81 227.383L389.281 238.055L412.15 259.182L457.017 300.274L467.979 310.22L470.738 312.688C472.765 314.526 475.008 316.111 477.418 317.407C483.357 320.663 490.156 322.006 496.887 321.253C503.618 320.499 509.952 317.685 515.024 313.196L516.839 311.454L518.146 310.22L528.31 300.274C555.099 273.992 579.856 249.454 601.563 227.165L605.557 223.027L607.008 221.503L608.751 219.47C609.839 218 610.81 216.446 611.655 214.823C614.73 208.619 615.431 201.504 613.626 194.818C611.821 188.132 607.634 182.337 601.854 178.523C599.125 176.761 596.1 175.506 592.924 174.821C591.33 174.441 589.698 174.246 588.06 174.24H584.793C574.785 175.213 564.845 176.789 555.027 178.959C550.511 180.766 546.447 183.542 543.12 187.09C539.708 190.648 539.273 193.697 542.249 194.35C556.18 196.749 570.241 198.325 584.357 199.069H585.882C586.022 199.013 586.178 199.013 586.318 199.069C586.318 199.069 586.317 199.069 586.753 199.505C586.861 199.934 586.861 200.383 586.753 200.812C586.753 201.32 586.39 201.392 586.245 201.392H585.882L585.374 201.828L581.018 205.603C557.64 225.859 531.359 249.163 503.481 274.138L493.68 284.011L493.244 283.14L482.572 272.831L439.012 230.65L416.506 208.87L413.602 206.111H442.86C445.478 206.111 448.071 205.595 450.489 204.59C452.907 203.586 455.104 202.114 456.952 200.259C458.8 198.405 460.264 196.203 461.259 193.781C462.254 191.359 462.762 188.765 462.752 186.146C462.752 139.9 462.317 94.38 461.736 51.1104C485.549 50.7474 507.256 50.2392 527.657 49.731C528.673 77.8998 529.98 102.729 531.504 124.291Z" fill="url(#paint0_linear_9539_52737)"/>
<path d="M650.859 326.7C636.545 319.817 620.165 318.573 604.976 323.215C597.579 325.472 590.679 329.119 584.648 333.96C583.153 335.141 581.723 336.401 580.365 337.735C578.767 339.187 578.259 339.841 577.243 340.857L571.58 346.665C525.842 393.492 485.549 435.6 454.621 469.069C451.9 459.093 446.808 449.923 439.78 442.339C432.752 434.754 423.995 428.981 414.256 425.509C408.597 423.51 402.68 422.336 396.687 422.024H392.548H358.281C291.707 422.024 225.133 422.822 166.98 424.492H156.163C152.387 424.492 147.959 424.855 144.038 425.363C136.134 426.332 128.349 428.108 120.806 430.663C106.934 435.417 94.114 442.813 83.0545 452.443C77.6821 457.162 73.9069 461.228 69.9865 465.148L58.7335 476.692C51.4735 483.952 45.1573 491.212 39.5671 497.02C37.9699 498.762 39.5671 503.554 43.7053 507.619C47.8435 511.685 50.9653 513.064 52.8529 511.83C59.6047 506.893 67.3729 501.303 75.1411 494.987L87.7735 485.041C92.1295 481.628 96.7759 477.781 100.769 475.022C109.578 468.878 119.412 464.354 129.809 461.663C135.375 460.248 141.064 459.373 146.797 459.05C149.846 459.05 152.46 459.05 155.872 459.05H166.69C224.77 460.72 291.417 461.518 357.991 461.518H392.258C393.42 461.518 393.565 461.518 394.291 461.518C396.586 461.572 398.861 461.963 401.043 462.68C405.375 464.169 409.223 466.806 412.176 470.309C415.129 473.812 417.077 478.05 417.813 482.572C418.505 487.072 417.989 491.675 416.318 495.91C414.647 500.145 411.881 503.86 408.303 506.675C404.773 509.496 400.569 511.348 396.106 512.048C394.945 512.119 393.781 512.119 392.621 512.048H387.031H375.996C317.916 513.79 267.967 516.331 234.788 519.671C232.465 519.671 230.723 524.608 230.868 530.125C230.868 535.062 232.683 538.91 234.788 539.128C267.894 542.54 317.77 545.081 375.996 546.751H387.031H392.621C395.184 546.899 397.753 546.899 400.317 546.751C411.014 546.245 421.397 542.968 430.446 537.24C442.425 528.695 451.011 516.203 454.694 501.956C490.994 470.158 540.289 424.783 596.046 372.002L601.927 366.412C602.798 365.614 604.177 364.234 604.613 363.944C605.21 363.397 605.84 362.887 606.501 362.419C611.846 358.478 618.489 356.714 625.086 357.482C628.572 357.869 631.95 358.929 635.032 360.604C637.97 362.068 640.583 364.108 642.715 366.602C644.848 369.097 646.457 371.995 647.447 375.124C648.493 378.251 648.885 381.56 648.598 384.845C648.311 388.13 647.351 391.32 645.777 394.218C645.025 395.679 644.098 397.044 643.018 398.284L641.276 400.171L638.082 403.293L625.231 415.925L599.386 441.481L547.404 492.954L444.82 596.409C423.619 618.482 395.371 632.451 364.96 635.903C359.951 636.412 355.595 636.702 350.44 636.775H334.178C291.271 637.646 251.414 638.662 216.203 639.969H212.936H208.943C206.312 640.195 203.695 640.558 201.102 641.058C196.114 642.066 191.247 643.599 186.582 645.632C177.748 649.441 169.791 655.026 163.205 662.039C160.239 665.203 157.566 668.629 155.219 672.276L149.483 681.133L138.666 698.194C136.851 701.098 139.102 705.962 143.676 709.012C148.249 712.061 152.315 711.988 154.348 709.665L166.98 694.709L173.659 686.578C175.556 684.186 177.671 681.974 179.975 679.972C187.136 673.73 196.021 669.807 205.458 668.719C207.055 668.719 208.725 668.719 210.395 668.719H216.203C251.414 670.025 291.271 671.042 334.178 671.913H350.44C355.885 671.913 362.565 671.913 368.59 671.477C381.196 670.501 393.645 668.064 405.689 664.217C430.656 656.147 453.349 642.263 471.9 623.707L575.646 521.195L627.482 469.214L653.037 443.368L665.67 430.518L668.791 427.324L673.002 422.532C675.817 419.207 678.252 415.579 680.262 411.715C684.11 404.253 686.411 396.091 687.029 387.718C687.646 379.346 686.566 370.935 683.855 362.989C681.143 355.044 676.855 347.728 671.247 341.48C665.64 335.231 658.829 330.18 651.222 326.627L650.859 326.7Z" fill="url(#paint1_linear_9539_52737)"/>
<path d="M316.463 122.694C263.973 155.945 134.963 285.173 101.277 337.517C100.696 338.461 103.527 342.454 107.52 346.375C111.513 350.295 114.78 352.183 115.361 351.602C167.706 318.206 296.861 188.833 330.185 136.415C330.765 135.472 328.007 131.551 324.086 127.776C320.166 124.001 317.262 122.186 316.463 122.694Z" fill="url(#paint2_linear_9539_52737)"/>
<path d="M333.96 252.14C328.826 250.049 323.426 248.68 317.915 248.074C311.599 247.639 308.768 248.074 304.92 248.074C293.727 248.118 282.785 251.396 273.411 257.512C264.271 263.509 257.04 272 252.575 281.978C250.365 286.792 248.873 291.905 248.147 297.152C247.75 299.698 247.556 302.271 247.566 304.847V308.042V310.583L248.074 320.674V325.611V328.66V332.145C249.222 340.441 252.339 348.341 257.164 355.186C261.988 362.032 268.381 367.623 275.807 371.494C281.72 374.516 288.199 376.271 294.828 376.649C297.654 376.913 300.497 376.913 303.323 376.649C305.646 376.649 307.388 375.85 309.276 375.415C311.163 374.979 311.091 370.478 311.018 364.96C310.946 359.443 310.22 356.176 309.276 355.958L303.54 354.724C302.032 354.286 300.552 353.753 299.112 353.126C296.074 351.807 293.277 349.992 290.835 347.754C288.22 345.402 286.13 342.524 284.704 339.309C283.278 336.094 282.547 332.613 282.559 329.096L283.575 310.873V308.332V306.372V305.719C283.66 304.809 283.83 303.91 284.084 303.032C284.489 301.299 285.15 299.635 286.044 298.096C287.862 294.726 290.604 291.946 293.947 290.081C297.291 288.216 301.098 287.344 304.92 287.569C309.792 286.941 314.743 287.362 319.44 288.803C322.791 290.066 325.747 292.196 328.007 294.974C330.266 297.736 331.767 301.039 332.363 304.557C332.363 305.646 332.798 310.002 332.943 313.124L333.524 322.925C333.524 326.7 333.96 327.934 333.524 329.749C333.495 331.51 333.276 333.263 332.871 334.976C332.02 338.313 330.515 341.447 328.442 344.197C324.584 349.243 319.297 353.012 313.269 355.014C312.126 358.473 311.755 362.141 312.18 365.759C312.18 370.841 313.196 374.761 314.43 374.906C320.4 375.621 326.453 375.141 332.235 373.496C338.018 371.851 343.417 369.073 348.117 365.323C354.272 360.484 359.239 354.3 362.637 347.246C364.533 343.342 365.947 339.222 366.848 334.976C367.615 331 368.076 326.971 368.227 322.925L368.808 313.124C369.014 309.23 369.014 305.329 368.808 301.435C368.201 291.007 364.707 280.952 358.716 272.395C352.549 263.435 343.964 256.411 333.96 252.14Z" fill="url(#paint3_linear_9539_52737)"/>
<path d="M173.805 113.764C167.549 104.788 158.859 97.7855 148.758 93.5813C143.623 91.4901 138.224 90.1219 132.713 89.5157C126.397 89.0801 123.565 89.5157 119.718 89.5157C108.525 89.5599 97.5832 92.8374 88.2092 98.9537C79.0689 104.951 71.8381 113.441 67.373 123.42C65.2225 128.028 63.7317 132.916 62.9444 137.94C62.5479 140.486 62.3537 143.059 62.3636 145.636V148.83V151.371L62.8718 161.462V166.399V169.448V172.933C64.0202 181.229 67.1368 189.129 71.9614 195.975C76.786 202.82 83.1785 208.412 90.605 212.282C96.5183 215.304 102.996 217.059 109.626 217.437C112.451 217.701 115.295 217.701 118.12 217.437C120.444 217.437 122.186 216.638 124.074 216.203C125.961 215.767 125.889 211.266 125.816 205.748C125.743 200.231 125.017 196.964 124.074 196.746L118.338 195.512C116.829 195.074 115.35 194.541 113.91 193.915C111.271 192.563 108.849 190.826 106.722 188.76C104.107 186.408 102.017 183.53 100.591 180.315C99.1646 177.1 98.4336 173.619 98.4458 170.102L99.4622 151.879V149.338V148.031V147.378C99.5468 146.469 99.7169 145.569 99.9704 144.692C100.376 142.958 101.037 141.295 101.931 139.755C103.651 136.612 106.18 133.985 109.256 132.147C112.333 130.309 115.844 129.326 119.427 129.301C124.3 128.673 129.25 129.094 133.947 130.535C137.298 131.798 140.254 133.928 142.514 136.706C144.774 139.468 146.275 142.77 146.87 146.289C146.87 147.378 147.306 151.734 147.451 154.856L148.032 164.657C148.032 168.432 148.467 169.666 148.032 171.481C148.003 173.242 147.784 174.995 147.378 176.708C146.527 180.045 145.022 183.179 142.95 185.929C139.092 190.975 133.805 194.744 127.776 196.746C126.56 200.189 126.114 203.857 126.469 207.491C126.469 212.573 127.486 216.493 128.72 216.638C134.69 217.352 140.742 216.873 146.525 215.228C152.308 213.583 157.706 210.805 162.406 207.055C168.562 202.216 173.529 196.032 176.926 188.978C178.965 185.022 180.502 180.827 181.5 176.491C182.267 172.514 182.728 168.485 182.88 164.439L183.46 154.638C183.667 150.744 183.667 146.843 183.46 142.949C183.01 132.514 179.667 122.409 173.805 113.764Z" fill="url(#paint4_linear_9539_52737)"/>
<defs>
<linearGradient id="paint0_linear_9539_52737" x1="490.273" y1="14.5177" x2="490.273" y2="321.457" gradientUnits="userSpaceOnUse">
<stop stop-color="#2200FF"/>
<stop offset="1" stop-color="#9E00FF"/>
</linearGradient>
<linearGradient id="paint1_linear_9539_52737" x1="363.077" y1="320.454" x2="363.077" y2="711.359" gradientUnits="userSpaceOnUse">
<stop stop-color="#2200FF"/>
<stop offset="1" stop-color="#9E00FF"/>
</linearGradient>
<linearGradient id="paint2_linear_9539_52737" x1="215.731" y1="122.61" x2="215.731" y2="351.705" gradientUnits="userSpaceOnUse">
<stop stop-color="#2200FF"/>
<stop offset="1" stop-color="#9E00FF"/>
</linearGradient>
<linearGradient id="paint3_linear_9539_52737" x1="308.264" y1="247.881" x2="308.264" y2="376.847" gradientUnits="userSpaceOnUse">
<stop stop-color="#2200FF"/>
<stop offset="1" stop-color="#9E00FF"/>
</linearGradient>
<linearGradient id="paint4_linear_9539_52737" x1="122.989" y1="89.3221" x2="122.989" y2="217.635" gradientUnits="userSpaceOnUse">
<stop stop-color="#2200FF"/>
<stop offset="1" stop-color="#9E00FF"/>
</linearGradient>
</defs>
</svg>

