<svg width="40" height="40" viewBox="0 0 40 40" fill="none" xmlns="http://www.w3.org/2000/svg">
  <path d="M33.8465 30.7693H30.7695V33.8462H33.8465V30.7693Z" fill="#1E2028"/>
  <path d="M33.8465 27.6923H30.7695V30.7692H33.8465V27.6923Z" fill="#1E2028"/>
  <path d="M33.8465 24.6154H30.7695V27.6923H33.8465V24.6154Z" fill="#1E2028"/>
  <path d="M33.8465 21.5385H30.7695V24.6154H33.8465V21.5385Z" fill="#1E2028"/>
  <path d="M33.8465 18.4615H30.7695V21.5385H33.8465V18.4615Z" fill="#1E2028"/>
  <path d="M33.8465 15.3846H30.7695V18.4616H33.8465V15.3846Z" fill="#1E2028"/>
  <path d="M33.8465 12.3077H30.7695V15.3847H33.8465V12.3077Z" fill="#1E2028"/>
  <path d="M33.8465 9.23071H30.7695V12.3076H33.8465V9.23071Z" fill="#1E2028"/>
  <path d="M33.8465 6.15381H30.7695V9.23073H33.8465V6.15381Z" fill="#1E2028"/>
  <path d="M30.7683 33.8462H27.6914V36.9231H30.7683V33.8462Z" fill="#1E2028"/>
  <path d="M30.7683 30.7693H27.6914V33.8462H30.7683V30.7693Z" fill="#FF9343"/>
  <path d="M30.7683 27.6923H27.6914V30.7692H30.7683V27.6923Z" fill="#FF9343"/>
  <path d="M30.7683 24.6154H27.6914V27.6923H30.7683V24.6154Z" fill="#FF9343"/>
  <path d="M30.7683 21.5385H27.6914V24.6154H30.7683V21.5385Z" fill="#FF9343"/>
  <path d="M30.7683 18.4615H27.6914V21.5385H30.7683V18.4615Z" fill="#FF9343"/>
  <path d="M30.7683 15.3846H27.6914V18.4616H30.7683V15.3846Z" fill="#FF9343"/>
  <path d="M30.7683 12.3077H27.6914V15.3847H30.7683V12.3077Z" fill="#FF9343"/>
  <path d="M30.7683 9.23071H27.6914V12.3076H30.7683V9.23071Z" fill="#FF9343"/>
  <path d="M30.7683 6.15381H27.6914V9.23073H30.7683V6.15381Z" fill="#FF9343"/>
  <path d="M30.7683 3.0769H27.6914V6.15383H30.7683V3.0769Z" fill="#1E2028"/>
  <path d="M27.6941 36.9231H24.6172V40H27.6941V36.9231Z" fill="#1E2028"/>
  <path d="M27.6941 33.8462H24.6172V36.9231H27.6941V33.8462Z" fill="#FF9343"/>
  <path d="M27.6941 30.7693H24.6172V33.8462H27.6941V30.7693Z" fill="#FF9343"/>
  <path d="M27.6941 27.6923H24.6172V30.7692H27.6941V27.6923Z" fill="#FFDD4D"/>
  <path d="M27.6941 24.6154H24.6172V27.6923H27.6941V24.6154Z" fill="#FFDD4D"/>
  <path d="M27.6941 21.5385H24.6172V24.6154H27.6941V21.5385Z" fill="#FFDD4D"/>
  <path d="M27.6941 18.4615H24.6172V21.5385H27.6941V18.4615Z" fill="#FFDD4D"/>
  <path d="M27.6941 15.3846H24.6172V18.4616H27.6941V15.3846Z" fill="#FFDD4D"/>
  <path d="M27.6941 12.3077H24.6172V15.3847H27.6941V12.3077Z" fill="white"/>
  <path d="M27.6941 9.23071H24.6172V12.3076H27.6941V9.23071Z" fill="white"/>
  <path d="M27.6941 6.15381H24.6172V9.23073H27.6941V6.15381Z" fill="#FFDD4D"/>
  <path d="M27.6941 3.0769H24.6172V6.15383H27.6941V3.0769Z" fill="#FFDD4D"/>
  <path d="M27.6941 0H24.6172V3.07692H27.6941V0Z" fill="#1E2028"/>
  <path d="M24.616 36.9231H21.5391V40H24.616V36.9231Z" fill="#1E2028"/>
  <path d="M24.616 33.8462H21.5391V36.9231H24.616V33.8462Z" fill="#FF9343"/>
  <path d="M24.616 30.7693H21.5391V33.8462H24.616V30.7693Z" fill="#1E2028"/>
  <path d="M24.616 27.6923H21.5391V30.7692H24.616V27.6923Z" fill="#FFDD4D"/>
  <path d="M24.616 24.6154H21.5391V27.6923H24.616V24.6154Z" fill="#FFDD4D"/>
  <path d="M24.616 21.5385H21.5391V24.6154H24.616V21.5385Z" fill="#FFDD4D"/>
  <path d="M24.616 18.4615H21.5391V21.5385H24.616V18.4615Z" fill="#FFDD4D"/>
  <path d="M24.616 15.3846H21.5391V18.4616H24.616V15.3846Z" fill="#FFDD4D"/>
  <path d="M24.616 12.3077H21.5391V15.3847H24.616V12.3077Z" fill="#FFDD4D"/>
  <path d="M24.616 9.23071H21.5391V12.3076H24.616V9.23071Z" fill="#FFDD4D"/>
  <path d="M24.616 6.15381H21.5391V9.23073H24.616V6.15381Z" fill="white"/>
  <path d="M24.616 3.0769H21.5391V6.15383H24.616V3.0769Z" fill="#FFDD4D"/>
  <path d="M24.616 0H21.5391V3.07692H24.616V0Z" fill="#1E2028"/>
  <path d="M21.5379 36.9231H18.4609V40H21.5379V36.9231Z" fill="#1E2028"/>
  <path d="M21.5379 33.8462H18.4609V36.9231H21.5379V33.8462Z" fill="#FF9343"/>
  <path d="M21.5379 30.7693H18.4609V33.8462H21.5379V30.7693Z" fill="#1E2028"/>
  <path d="M21.5379 27.6923H18.4609V30.7692H21.5379V27.6923Z" fill="#FFDD4D"/>
  <path d="M21.5379 24.6154H18.4609V27.6923H21.5379V24.6154Z" fill="#FFDD4D"/>
  <path d="M21.5379 21.5385H18.4609V24.6154H21.5379V21.5385Z" fill="#FFDD4D"/>
  <path d="M21.5379 18.4615H18.4609V21.5385H21.5379V18.4615Z" fill="#FFDD4D"/>
  <path d="M21.5379 15.3846H18.4609V18.4616H21.5379V15.3846Z" fill="#FFDD4D"/>
  <path d="M21.5379 12.3077H18.4609V15.3847H21.5379V12.3077Z" fill="#FFDD4D"/>
  <path d="M21.5379 9.23071H18.4609V12.3076H21.5379V9.23071Z" fill="#FFDD4D"/>
  <path d="M21.5379 6.15381H18.4609V9.23073H21.5379V6.15381Z" fill="#FFDD4D"/>
  <path d="M21.5379 3.0769H18.4609V6.15383H21.5379V3.0769Z" fill="#FFDD4D"/>
  <path d="M21.5379 0H18.4609V3.07692H21.5379V0Z" fill="#1E2028"/>
  <path d="M18.4597 36.9231H15.3828V40H18.4597V36.9231Z" fill="#1E2028"/>
  <path d="M18.4597 33.8462H15.3828V36.9231H18.4597V33.8462Z" fill="#FF9343"/>
  <path d="M18.4597 30.7693H15.3828V33.8462H18.4597V30.7693Z" fill="#1E2028"/>
  <path d="M18.4597 27.6923H15.3828V30.7692H18.4597V27.6923Z" fill="#FF9343"/>
  <path d="M18.4597 24.6154H15.3828V27.6923H18.4597V24.6154Z" fill="#FF9343"/>
  <path d="M18.4597 21.5385H15.3828V24.6154H18.4597V21.5385Z" fill="#FF9343"/>
  <path d="M18.4597 18.4615H15.3828V21.5385H18.4597V18.4615Z" fill="#FF9343"/>
  <path d="M18.4597 15.3846H15.3828V18.4616H18.4597V15.3846Z" fill="#FF9343"/>
  <path d="M18.4597 12.3077H15.3828V15.3847H18.4597V12.3077Z" fill="#FF9343"/>
  <path d="M18.4597 9.23071H15.3828V12.3076H18.4597V9.23071Z" fill="#FF9343"/>
  <path d="M18.4597 6.15381H15.3828V9.23073H18.4597V6.15381Z" fill="#1E2028"/>
  <path d="M18.4597 3.0769H15.3828V6.15383H18.4597V3.0769Z" fill="#FFDD4D"/>
  <path d="M18.4597 0H15.3828V3.07692H18.4597V0Z" fill="#1E2028"/>
  <path d="M15.3855 36.9231H12.3086V40H15.3855V36.9231Z" fill="#1E2028"/>
  <path d="M15.3855 33.8462H12.3086V36.9231H15.3855V33.8462Z" fill="#FFF1B6"/>
  <path d="M15.3855 30.7693H12.3086V33.8462H15.3855V30.7693Z" fill="#FFF1B6"/>
  <path d="M15.3855 27.6923H12.3086V30.7692H15.3855V27.6923Z" fill="#1E2028"/>
  <path d="M15.3855 24.6154H12.3086V27.6923H15.3855V24.6154Z" fill="#1E2028"/>
  <path d="M15.3855 21.5385H12.3086V24.6154H15.3855V21.5385Z" fill="#1E2028"/>
  <path d="M15.3855 18.4615H12.3086V21.5385H15.3855V18.4615Z" fill="#1E2028"/>
  <path d="M15.3855 15.3846H12.3086V18.4616H15.3855V15.3846Z" fill="#1E2028"/>
  <path d="M15.3855 12.3077H12.3086V15.3847H15.3855V12.3077Z" fill="#1E2028"/>
  <path d="M15.3855 9.23071H12.3086V12.3076H15.3855V9.23071Z" fill="#1E2028"/>
  <path d="M15.3855 6.15381H12.3086V9.23073H15.3855V6.15381Z" fill="#FFF1B6"/>
  <path d="M15.3855 3.0769H12.3086V6.15383H15.3855V3.0769Z" fill="#FFF1B6"/>
  <path d="M15.3855 0H12.3086V3.07692H15.3855V0Z" fill="#1E2028"/>
  <path d="M12.3074 33.8462H9.23047V36.9231H12.3074V33.8462Z" fill="#1E2028"/>
  <path d="M12.3074 30.7693H9.23047V33.8462H12.3074V30.7693Z" fill="#FFF1B6"/>
  <path d="M12.3074 27.6923H9.23047V30.7692H12.3074V27.6923Z" fill="#FFF1B6"/>
  <path d="M12.3074 24.6154H9.23047V27.6923H12.3074V24.6154Z" fill="#FFF1B6"/>
  <path d="M12.3074 21.5385H9.23047V24.6154H12.3074V21.5385Z" fill="#FFF1B6"/>
  <path d="M12.3074 18.4615H9.23047V21.5385H12.3074V18.4615Z" fill="#FFF1B6"/>
  <path d="M12.3074 15.3846H9.23047V18.4616H12.3074V15.3846Z" fill="#FFF1B6"/>
  <path d="M12.3074 12.3077H9.23047V15.3847H12.3074V12.3077Z" fill="#FFF1B6"/>
  <path d="M12.3074 9.23071H9.23047V12.3076H12.3074V9.23071Z" fill="#FFF1B6"/>
  <path d="M12.3074 6.15381H9.23047V9.23073H12.3074V6.15381Z" fill="#FFF1B6"/>
  <path d="M12.3074 3.0769H9.23047V6.15383H12.3074V3.0769Z" fill="#1E2028"/>
  <path d="M9.22927 30.7693H6.15234V33.8462H9.22927V30.7693Z" fill="#1E2028"/>
  <path d="M9.22927 27.6923H6.15234V30.7692H9.22927V27.6923Z" fill="#1E2028"/>
  <path d="M9.22927 24.6154H6.15234V27.6923H9.22927V24.6154Z" fill="#1E2028"/>
  <path d="M9.22927 21.5385H6.15234V24.6154H9.22927V21.5385Z" fill="#1E2028"/>
  <path d="M9.22927 18.4615H6.15234V21.5385H9.22927V18.4615Z" fill="#1E2028"/>
  <path d="M9.22927 15.3846H6.15234V18.4616H9.22927V15.3846Z" fill="#1E2028"/>
  <path d="M9.22927 12.3077H6.15234V15.3847H9.22927V12.3077Z" fill="#1E2028"/>
  <path d="M9.22927 9.23071H6.15234V12.3076H9.22927V9.23071Z" fill="#1E2028"/>
  <path d="M9.22927 6.15381H6.15234V9.23073H9.22927V6.15381Z" fill="#1E2028"/>
  </svg>
  