<svg width="48" height="48" viewBox="0 0 48 48" fill="none" xmlns="http://www.w3.org/2000/svg">
  <g clip-path="url(#clip0_9136_423085)">
  <path d="M48.0009 25.8462H44.3086V29.5385H48.0009V25.8462Z" fill="#28281E"/>
  <path d="M48.0009 22.1538H44.3086V25.8461H48.0009V22.1538Z" fill="#28281E"/>
  <path d="M48.0009 18.4614H44.3086V22.1537H48.0009V18.4614Z" fill="#28281E"/>
  <path d="M44.3095 33.2307H40.6172V36.923H44.3095V33.2307Z" fill="#28281E"/>
  <path d="M44.3095 29.5386H40.6172V33.2309H44.3095V29.5386Z" fill="#28281E"/>
  <path d="M44.3095 25.8462H40.6172V29.5385H44.3095V25.8462Z" fill="#B29738"/>
  <path d="M44.3095 22.1538H40.6172V25.8461H44.3095V22.1538Z" fill="#B29738"/>
  <path d="M44.3095 18.4614H40.6172V22.1537H44.3095V18.4614Z" fill="#B29738"/>
  <path d="M44.3095 14.7693H40.6172V18.4616H44.3095V14.7693Z" fill="#28281E"/>
  <path d="M44.3095 11.0769H40.6172V14.7692H44.3095V11.0769Z" fill="#28281E"/>
  <path d="M40.6142 36.9231H36.9219V40.6154H40.6142V36.9231Z" fill="#28281E"/>
  <path d="M40.6142 33.2307H36.9219V36.923H40.6142V33.2307Z" fill="#B29738"/>
  <path d="M40.6142 29.5386H36.9219V33.2309H40.6142V29.5386Z" fill="#B29738"/>
  <path d="M40.6142 25.8462H36.9219V29.5385H40.6142V25.8462Z" fill="#EFE160"/>
  <path d="M40.6142 22.1538H36.9219V25.8461H40.6142V22.1538Z" fill="#EFE160"/>
  <path d="M40.6142 18.4614H36.9219V22.1537H40.6142V18.4614Z" fill="#EFE160"/>
  <path d="M40.6142 14.7693H36.9219V18.4616H40.6142V14.7693Z" fill="#B29738"/>
  <path d="M40.6142 11.0769H36.9219V14.7692H40.6142V11.0769Z" fill="#B29738"/>
  <path d="M40.6142 7.38452H36.9219V11.0768H40.6142V7.38452Z" fill="#28281E"/>
  <path d="M36.9228 40.6154H33.2305V44.3077H36.9228V40.6154Z" fill="#28281E"/>
  <path d="M36.9228 36.9231H33.2305V40.6154H36.9228V36.9231Z" fill="#B29738"/>
  <path d="M36.9228 33.2307H33.2305V36.923H36.9228V33.2307Z" fill="#EFE160"/>
  <path d="M36.9228 29.5386H33.2305V33.2309H36.9228V29.5386Z" fill="#EFE160"/>
  <path d="M36.9228 25.8462H33.2305V29.5385H36.9228V25.8462Z" fill="#EFE160"/>
  <path d="M36.9228 22.1538H33.2305V25.8461H36.9228V22.1538Z" fill="#EFE160"/>
  <path d="M36.9228 18.4614H33.2305V22.1537H36.9228V18.4614Z" fill="#EFE160"/>
  <path d="M36.9228 14.7693H33.2305V18.4616H36.9228V14.7693Z" fill="#EFE160"/>
  <path d="M36.9228 11.0769H33.2305V14.7692H36.9228V11.0769Z" fill="#EFE160"/>
  <path d="M36.9228 7.38452H33.2305V11.0768H36.9228V7.38452Z" fill="#B29738"/>
  <path d="M36.9228 3.69238H33.2305V7.38469H36.9228V3.69238Z" fill="#28281E"/>
  <path d="M33.2314 40.6154H29.5391V44.3077H33.2314V40.6154Z" fill="#28281E"/>
  <path d="M33.2314 36.9231H29.5391V40.6154H33.2314V36.9231Z" fill="#B29738"/>
  <path d="M33.2314 33.2307H29.5391V36.923H33.2314V33.2307Z" fill="#EFE160"/>
  <path d="M33.2314 29.5386H29.5391V33.2309H33.2314V29.5386Z" fill="#EFE160"/>
  <path d="M33.2314 25.8462H29.5391V29.5385H33.2314V25.8462Z" fill="#EFE160"/>
  <path d="M33.2314 22.1538H29.5391V25.8461H33.2314V22.1538Z" fill="#28281E"/>
  <path d="M33.2314 18.4614H29.5391V22.1537H33.2314V18.4614Z" fill="#28281E"/>
  <path d="M33.2314 14.7693H29.5391V18.4616H33.2314V14.7693Z" fill="#EFE160"/>
  <path d="M33.2314 11.0769H29.5391V14.7692H33.2314V11.0769Z" fill="#EFE160"/>
  <path d="M33.2314 7.38452H29.5391V11.0768H33.2314V7.38452Z" fill="#EFE160"/>
  <path d="M33.2314 3.69238H29.5391V7.38469H33.2314V3.69238Z" fill="#28281E"/>
  <path d="M29.54 44.3077H25.8477V48H29.54V44.3077Z" fill="#28281E"/>
  <path d="M29.54 40.6154H25.8477V44.3077H29.54V40.6154Z" fill="#B29738"/>
  <path d="M29.54 36.9231H25.8477V40.6154H29.54V36.9231Z" fill="#EFE160"/>
  <path d="M29.54 33.2307H25.8477V36.923H29.54V33.2307Z" fill="#EFE160"/>
  <path d="M29.54 29.5386H25.8477V33.2309H29.54V29.5386Z" fill="#28281E"/>
  <path d="M29.54 25.8462H25.8477V29.5385H29.54V25.8462Z" fill="#EFE160"/>
  <path d="M29.54 22.1538H25.8477V25.8461H29.54V22.1538Z" fill="#EFE160"/>
  <path d="M29.54 18.4614H25.8477V22.1537H29.54V18.4614Z" fill="#EFE160"/>
  <path d="M29.54 14.7693H25.8477V18.4616H29.54V14.7693Z" fill="#EFE160"/>
  <path d="M29.54 11.0769H25.8477V14.7692H29.54V11.0769Z" fill="#EFE160"/>
  <path d="M29.54 7.38452H25.8477V11.0768H29.54V7.38452Z" fill="#EFE160"/>
  <path d="M29.54 3.69238H25.8477V7.38469H29.54V3.69238Z" fill="#EFE160"/>
  <path d="M29.54 0H25.8477V3.69231H29.54V0Z" fill="#28281E"/>
  <path d="M25.8447 44.3077H22.1523V48H25.8447V44.3077Z" fill="#28281E"/>
  <path d="M25.8447 40.6154H22.1523V44.3077H25.8447V40.6154Z" fill="#B29738"/>
  <path d="M25.8447 36.9231H22.1523V40.6154H25.8447V36.9231Z" fill="#EFE160"/>
  <path d="M25.8447 33.2307H22.1523V36.923H25.8447V33.2307Z" fill="#EFE160"/>
  <path d="M25.8447 29.5386H22.1523V33.2309H25.8447V29.5386Z" fill="#28281E"/>
  <path d="M25.8447 25.8462H22.1523V29.5385H25.8447V25.8462Z" fill="#EFE160"/>
  <path d="M25.8447 22.1538H22.1523V25.8461H25.8447V22.1538Z" fill="#EFE160"/>
  <path d="M25.8447 18.4614H22.1523V22.1537H25.8447V18.4614Z" fill="#EFE160"/>
  <path d="M25.8447 14.7693H22.1523V18.4616H25.8447V14.7693Z" fill="#EFE160"/>
  <path d="M25.8447 11.0769H22.1523V14.7692H25.8447V11.0769Z" fill="#EFE160"/>
  <path d="M25.8447 7.38452H22.1523V11.0768H25.8447V7.38452Z" fill="#EFE160"/>
  <path d="M25.8447 3.69238H22.1523V7.38469H25.8447V3.69238Z" fill="#EFE160"/>
  <path d="M25.8447 0H22.1523V3.69231H25.8447V0Z" fill="#28281E"/>
  <path d="M22.1532 44.3077H18.4609V48H22.1532V44.3077Z" fill="#28281E"/>
  <path d="M22.1532 40.6154H18.4609V44.3077H22.1532V40.6154Z" fill="#F2EBAA"/>
  <path d="M22.1532 36.9231H18.4609V40.6154H22.1532V36.9231Z" fill="#EFE160"/>
  <path d="M22.1532 33.2307H18.4609V36.923H22.1532V33.2307Z" fill="#EFE160"/>
  <path d="M22.1532 29.5386H18.4609V33.2309H22.1532V29.5386Z" fill="#28281E"/>
  <path d="M22.1532 25.8462H18.4609V29.5385H22.1532V25.8462Z" fill="#EFE160"/>
  <path d="M22.1532 22.1538H18.4609V25.8461H22.1532V22.1538Z" fill="#EFE160"/>
  <path d="M22.1532 18.4614H18.4609V22.1537H22.1532V18.4614Z" fill="#EFE160"/>
  <path d="M22.1532 14.7693H18.4609V18.4616H22.1532V14.7693Z" fill="#EFE160"/>
  <path d="M22.1532 11.0769H18.4609V14.7692H22.1532V11.0769Z" fill="#EFE160"/>
  <path d="M22.1532 7.38452H18.4609V11.0768H22.1532V7.38452Z" fill="white"/>
  <path d="M22.1532 3.69238H18.4609V7.38469H22.1532V3.69238Z" fill="#F2EBAA"/>
  <path d="M22.1532 0H18.4609V3.69231H22.1532V0Z" fill="#28281E"/>
  <path d="M18.4618 40.6154H14.7695V44.3077H18.4618V40.6154Z" fill="#28281E"/>
  <path d="M18.4618 36.9231H14.7695V40.6154H18.4618V36.9231Z" fill="#F2EBAA"/>
  <path d="M18.4618 33.2307H14.7695V36.923H18.4618V33.2307Z" fill="#EFE160"/>
  <path d="M18.4618 29.5386H14.7695V33.2309H18.4618V29.5386Z" fill="#EFE160"/>
  <path d="M18.4618 25.8462H14.7695V29.5385H18.4618V25.8462Z" fill="#EFE160"/>
  <path d="M18.4618 22.1538H14.7695V25.8461H18.4618V22.1538Z" fill="#28281E"/>
  <path d="M18.4618 18.4614H14.7695V22.1537H18.4618V18.4614Z" fill="#28281E"/>
  <path d="M18.4618 14.7693H14.7695V18.4616H18.4618V14.7693Z" fill="#EFE160"/>
  <path d="M18.4618 11.0769H14.7695V14.7692H18.4618V11.0769Z" fill="white"/>
  <path d="M18.4618 7.38452H14.7695V11.0768H18.4618V7.38452Z" fill="#F2EBAA"/>
  <path d="M18.4618 3.69238H14.7695V7.38469H18.4618V3.69238Z" fill="#28281E"/>
  <path d="M14.7704 40.6154H11.0781V44.3077H14.7704V40.6154Z" fill="#28281E"/>
  <path d="M14.7704 36.9231H11.0781V40.6154H14.7704V36.9231Z" fill="#F2EBAA"/>
  <path d="M14.7704 33.2307H11.0781V36.923H14.7704V33.2307Z" fill="#EFE160"/>
  <path d="M14.7704 29.5386H11.0781V33.2309H14.7704V29.5386Z" fill="#EFE160"/>
  <path d="M14.7704 25.8462H11.0781V29.5385H14.7704V25.8462Z" fill="#EFE160"/>
  <path d="M14.7704 22.1538H11.0781V25.8461H14.7704V22.1538Z" fill="#EFE160"/>
  <path d="M14.7704 18.4614H11.0781V22.1537H14.7704V18.4614Z" fill="#EFE160"/>
  <path d="M14.7704 14.7693H11.0781V18.4616H14.7704V14.7693Z" fill="#EFE160"/>
  <path d="M14.7704 11.0769H11.0781V14.7692H14.7704V11.0769Z" fill="#EFE160"/>
  <path d="M14.7704 7.38452H11.0781V11.0768H14.7704V7.38452Z" fill="#F2EBAA"/>
  <path d="M14.7704 3.69238H11.0781V7.38469H14.7704V3.69238Z" fill="#28281E"/>
  <path d="M11.0751 36.9231H7.38281V40.6154H11.0751V36.9231Z" fill="#28281E"/>
  <path d="M11.0751 33.2307H7.38281V36.923H11.0751V33.2307Z" fill="#F2EBAA"/>
  <path d="M11.0751 29.5386H7.38281V33.2309H11.0751V29.5386Z" fill="#F2EBAA"/>
  <path d="M11.0751 25.8462H7.38281V29.5385H11.0751V25.8462Z" fill="#EFE160"/>
  <path d="M11.0751 22.1538H7.38281V25.8461H11.0751V22.1538Z" fill="#EFE160"/>
  <path d="M11.0751 18.4614H7.38281V22.1537H11.0751V18.4614Z" fill="#EFE160"/>
  <path d="M11.0751 14.7693H7.38281V18.4616H11.0751V14.7693Z" fill="#F2EBAA"/>
  <path d="M11.0751 11.0769H7.38281V14.7692H11.0751V11.0769Z" fill="#F2EBAA"/>
  <path d="M11.0751 7.38452H7.38281V11.0768H11.0751V7.38452Z" fill="#28281E"/>
  <path d="M7.38371 33.2307H3.69141V36.923H7.38371V33.2307Z" fill="#28281E"/>
  <path d="M7.38371 29.5386H3.69141V33.2309H7.38371V29.5386Z" fill="#28281E"/>
  <path d="M7.38371 25.8462H3.69141V29.5385H7.38371V25.8462Z" fill="#F2EBAA"/>
  <path d="M7.38371 22.1538H3.69141V25.8461H7.38371V22.1538Z" fill="#F2EBAA"/>
  <path d="M7.38371 18.4614H3.69141V22.1537H7.38371V18.4614Z" fill="#F2EBAA"/>
  <path d="M7.38371 14.7693H3.69141V18.4616H7.38371V14.7693Z" fill="#28281E"/>
  <path d="M7.38371 11.0769H3.69141V14.7692H7.38371V11.0769Z" fill="#28281E"/>
  <path d="M3.69231 25.8462H0V29.5385H3.69231V25.8462Z" fill="#28281E"/>
  <path d="M3.69231 22.1538H0V25.8461H3.69231V22.1538Z" fill="#28281E"/>
  <path d="M3.69231 18.4614H0V22.1537H3.69231V18.4614Z" fill="#28281E"/>
  </g>
  <defs>
  <clipPath id="clip0_9136_423085">
  <rect width="48" height="48" fill="white"/>
  </clipPath>
  </defs>
  </svg>
  