<svg width="56" height="56" viewBox="0 0 56 56" fill="none" xmlns="http://www.w3.org/2000/svg">
  <g clip-path="url(#clip0_9136_422693)">
  <path d="M55.9991 21.5385H51.6914V25.8461H55.9991V21.5385Z" fill="#1E2028"/>
  <path d="M55.9991 17.2307H51.6914V21.5384H55.9991V17.2307Z" fill="#1E2028"/>
  <path d="M51.6905 25.8462H47.3828V30.1539H51.6905V25.8462Z" fill="#1E2028"/>
  <path d="M51.6905 21.5385H47.3828V25.8461H51.6905V21.5385Z" fill="#38B269"/>
  <path d="M51.6905 17.2307H47.3828V21.5384H51.6905V17.2307Z" fill="#38B269"/>
  <path d="M51.6905 12.9231H47.3828V17.2308H51.6905V12.9231Z" fill="#1E2028"/>
  <path d="M47.3858 30.1538H43.0781V34.4615H47.3858V30.1538Z" fill="#1E2028"/>
  <path d="M47.3858 25.8462H43.0781V30.1539H47.3858V25.8462Z" fill="#38B269"/>
  <path d="M47.3858 21.5385H43.0781V25.8461H47.3858V21.5385Z" fill="#1E2028"/>
  <path d="M47.3858 17.2307H43.0781V21.5384H47.3858V17.2307Z" fill="#60EF9A"/>
  <path d="M47.3858 12.9231H43.0781V17.2308H47.3858V12.9231Z" fill="#38B269"/>
  <path d="M47.3858 8.61536H43.0781V12.923H47.3858V8.61536Z" fill="#1E2028"/>
  <path d="M43.0772 34.4615H38.7695V38.7692H43.0772V34.4615Z" fill="#1E2028"/>
  <path d="M43.0772 30.1538H38.7695V34.4615H43.0772V30.1538Z" fill="#38B269"/>
  <path d="M43.0772 25.8462H38.7695V30.1539H43.0772V25.8462Z" fill="#60EF9A"/>
  <path d="M43.0772 21.5385H38.7695V25.8461H43.0772V21.5385Z" fill="#1E2028"/>
  <path d="M43.0772 17.2307H38.7695V21.5384H43.0772V17.2307Z" fill="#60EF9A"/>
  <path d="M43.0772 12.9231H38.7695V17.2308H43.0772V12.9231Z" fill="#60EF9A"/>
  <path d="M43.0772 8.61536H38.7695V12.923H43.0772V8.61536Z" fill="#38B269"/>
  <path d="M43.0772 4.30774H38.7695V8.61543H43.0772V4.30774Z" fill="#1E2028"/>
  <path d="M38.7686 38.7693H34.4609V43.077H38.7686V38.7693Z" fill="#1E2028"/>
  <path d="M38.7686 34.4615H34.4609V38.7692H38.7686V34.4615Z" fill="#38B269"/>
  <path d="M38.7686 30.1538H34.4609V34.4615H38.7686V30.1538Z" fill="#60EF9A"/>
  <path d="M38.7686 25.8462H34.4609V30.1539H38.7686V25.8462Z" fill="#60EF9A"/>
  <path d="M38.7686 21.5385H34.4609V25.8461H38.7686V21.5385Z" fill="#1E2028"/>
  <path d="M38.7686 17.2307H34.4609V21.5384H38.7686V17.2307Z" fill="#60EF9A"/>
  <path d="M38.7686 12.9231H34.4609V17.2308H38.7686V12.9231Z" fill="#1E2028"/>
  <path d="M38.7686 8.61536H34.4609V12.923H38.7686V8.61536Z" fill="#60EF9A"/>
  <path d="M38.7686 4.30774H34.4609V8.61543H38.7686V4.30774Z" fill="#1E2028"/>
  <path d="M34.46 43.0769H30.1523V47.3846H34.46V43.0769Z" fill="#1E2028"/>
  <path d="M34.46 38.7693H30.1523V43.077H34.46V38.7693Z" fill="#38B269"/>
  <path d="M34.46 34.4615H30.1523V38.7692H34.46V34.4615Z" fill="#60EF9A"/>
  <path d="M34.46 30.1538H30.1523V34.4615H34.46V30.1538Z" fill="#60EF9A"/>
  <path d="M34.46 25.8462H30.1523V30.1539H34.46V25.8462Z" fill="#60EF9A"/>
  <path d="M34.46 21.5385H30.1523V25.8461H34.46V21.5385Z" fill="#1E2028"/>
  <path d="M34.46 17.2307H30.1523V21.5384H34.46V17.2307Z" fill="#1E2028"/>
  <path d="M34.46 12.9231H30.1523V17.2308H34.46V12.9231Z" fill="#60EF9A"/>
  <path d="M34.46 8.61536H30.1523V12.923H34.46V8.61536Z" fill="#60EF9A"/>
  <path d="M34.46 4.30774H30.1523V8.61543H34.46V4.30774Z" fill="#1E2028"/>
  <path d="M30.1553 47.3846H25.8477V51.6923H30.1553V47.3846Z" fill="#1E2028"/>
  <path d="M30.1553 43.0769H25.8477V47.3846H30.1553V43.0769Z" fill="#38B269"/>
  <path d="M30.1553 38.7693H25.8477V43.077H30.1553V38.7693Z" fill="#1E2028"/>
  <path d="M30.1553 34.4615H25.8477V38.7692H30.1553V34.4615Z" fill="#1E2028"/>
  <path d="M30.1553 30.1538H25.8477V34.4615H30.1553V30.1538Z" fill="#1E2028"/>
  <path d="M30.1553 25.8462H25.8477V30.1539H30.1553V25.8462Z" fill="#1E2028"/>
  <path d="M30.1553 21.5385H25.8477V25.8461H30.1553V21.5385Z" fill="#1E2028"/>
  <path d="M30.1553 17.2307H25.8477V21.5384H30.1553V17.2307Z" fill="#60EF9A"/>
  <path d="M30.1553 12.9231H25.8477V17.2308H30.1553V12.9231Z" fill="#60EF9A"/>
  <path d="M30.1553 8.61536H25.8477V12.923H30.1553V8.61536Z" fill="#60EF9A"/>
  <path d="M30.1553 4.30774H25.8477V8.61543H30.1553V4.30774Z" fill="#1E2028"/>
  <path d="M25.8468 43.0769H21.5391V47.3846H25.8468V43.0769Z" fill="#1E2028"/>
  <path d="M25.8468 38.7693H21.5391V43.077H25.8468V38.7693Z" fill="#AAF2C7"/>
  <path d="M25.8468 34.4615H21.5391V38.7692H25.8468V34.4615Z" fill="#60EF9A"/>
  <path d="M25.8468 30.1538H21.5391V34.4615H25.8468V30.1538Z" fill="#60EF9A"/>
  <path d="M25.8468 25.8462H21.5391V30.1539H25.8468V25.8462Z" fill="#60EF9A"/>
  <path d="M25.8468 21.5385H21.5391V25.8461H25.8468V21.5385Z" fill="#1E2028"/>
  <path d="M25.8468 17.2307H21.5391V21.5384H25.8468V17.2307Z" fill="#1E2028"/>
  <path d="M25.8468 12.9231H21.5391V17.2308H25.8468V12.9231Z" fill="#60EF9A"/>
  <path d="M25.8468 8.61536H21.5391V12.923H25.8468V8.61536Z" fill="#60EF9A"/>
  <path d="M25.8468 4.30774H21.5391V8.61543H25.8468V4.30774Z" fill="#1E2028"/>
  <path d="M21.5382 38.7693H17.2305V43.077H21.5382V38.7693Z" fill="#1E2028"/>
  <path d="M21.5382 34.4615H17.2305V38.7692H21.5382V34.4615Z" fill="#AAF2C7"/>
  <path d="M21.5382 30.1538H17.2305V34.4615H21.5382V30.1538Z" fill="#60EF9A"/>
  <path d="M21.5382 25.8462H17.2305V30.1539H21.5382V25.8462Z" fill="#60EF9A"/>
  <path d="M21.5382 21.5385H17.2305V25.8461H21.5382V21.5385Z" fill="#1E2028"/>
  <path d="M21.5382 17.2307H17.2305V21.5384H21.5382V17.2307Z" fill="#60EF9A"/>
  <path d="M21.5382 12.9231H17.2305V17.2308H21.5382V12.9231Z" fill="#1E2028"/>
  <path d="M21.5382 8.61536H17.2305V12.923H21.5382V8.61536Z" fill="#60EF9A"/>
  <path d="M21.5382 4.30774H17.2305V8.61543H21.5382V4.30774Z" fill="#1E2028"/>
  <path d="M17.2296 34.4615H12.9219V38.7692H17.2296V34.4615Z" fill="#1E2028"/>
  <path d="M17.2296 30.1538H12.9219V34.4615H17.2296V30.1538Z" fill="#AAF2C7"/>
  <path d="M17.2296 25.8462H12.9219V30.1539H17.2296V25.8462Z" fill="#60EF9A"/>
  <path d="M17.2296 21.5385H12.9219V25.8461H17.2296V21.5385Z" fill="#1E2028"/>
  <path d="M17.2296 17.2307H12.9219V21.5384H17.2296V17.2307Z" fill="#60EF9A"/>
  <path d="M17.2296 12.9231H12.9219V17.2308H17.2296V12.9231Z" fill="white"/>
  <path d="M17.2296 8.61536H12.9219V12.923H17.2296V8.61536Z" fill="#AAF2C7"/>
  <path d="M17.2296 4.30774H12.9219V8.61543H17.2296V4.30774Z" fill="#1E2028"/>
  <path d="M12.9249 30.1538H8.61719V34.4615H12.9249V30.1538Z" fill="#1E2028"/>
  <path d="M12.9249 25.8462H8.61719V30.1539H12.9249V25.8462Z" fill="#AAF2C7"/>
  <path d="M12.9249 21.5385H8.61719V25.8461H12.9249V21.5385Z" fill="#1E2028"/>
  <path d="M12.9249 17.2307H8.61719V21.5384H12.9249V17.2307Z" fill="white"/>
  <path d="M12.9249 12.9231H8.61719V17.2308H12.9249V12.9231Z" fill="#AAF2C7"/>
  <path d="M12.9249 8.61536H8.61719V12.923H12.9249V8.61536Z" fill="#1E2028"/>
  <path d="M8.61629 25.8462H4.30859V30.1539H8.61629V25.8462Z" fill="#1E2028"/>
  <path d="M8.61629 21.5385H4.30859V25.8461H8.61629V21.5385Z" fill="#AAF2C7"/>
  <path d="M8.61629 17.2307H4.30859V21.5384H8.61629V17.2307Z" fill="#AAF2C7"/>
  <path d="M8.61629 12.9231H4.30859V17.2308H8.61629V12.9231Z" fill="#1E2028"/>
  <path d="M4.30769 21.5385H0L0 25.8461H4.30769V21.5385Z" fill="#1E2028"/>
  <path d="M4.30769 17.2307H0L0 21.5384H4.30769V17.2307Z" fill="#1E2028"/>
  </g>
  <defs>
  <clipPath id="clip0_9136_422693">
  <rect width="56" height="56" fill="white"/>
  </clipPath>
  </defs>
  </svg>
  