<svg width="32" height="32" viewBox="0 0 32 32" fill="none" xmlns="http://www.w3.org/2000/svg">
  <g clip-path="url(#clip0_9136_422889)">
  <path d="M32.0006 12.3077H29.5391V14.7693H32.0006V12.3077Z" fill="#1E2028"/>
  <path d="M32.0006 9.84619H29.5391V12.3077H32.0006V9.84619Z" fill="#1E2028"/>
  <path d="M29.5397 14.7693H27.0781V17.2308H29.5397V14.7693Z" fill="#1E2028"/>
  <path d="M29.5397 12.3077H27.0781V14.7693H29.5397V12.3077Z" fill="#3886B2"/>
  <path d="M29.5397 9.84619H27.0781V12.3077H29.5397V9.84619Z" fill="#3886B2"/>
  <path d="M29.5397 7.38452H27.0781V9.84606H29.5397V7.38452Z" fill="#1E2028"/>
  <path d="M27.0787 17.2307H24.6172V19.6923H27.0787V17.2307Z" fill="#1E2028"/>
  <path d="M27.0787 14.7693H24.6172V17.2308H27.0787V14.7693Z" fill="#3886B2"/>
  <path d="M27.0787 12.3077H24.6172V14.7693H27.0787V12.3077Z" fill="#1E2028"/>
  <path d="M27.0787 9.84619H24.6172V12.3077H27.0787V9.84619Z" fill="#60CDEF"/>
  <path d="M27.0787 7.38452H24.6172V9.84606H27.0787V7.38452Z" fill="#3886B2"/>
  <path d="M27.0787 4.9231H24.6172V7.38463H27.0787V4.9231Z" fill="#1E2028"/>
  <path d="M24.6139 19.6923H22.1523V22.1538H24.6139V19.6923Z" fill="#1E2028"/>
  <path d="M24.6139 17.2307H22.1523V19.6923H24.6139V17.2307Z" fill="#3886B2"/>
  <path d="M24.6139 14.7693H22.1523V17.2308H24.6139V14.7693Z" fill="#60CDEF"/>
  <path d="M24.6139 12.3077H22.1523V14.7693H24.6139V12.3077Z" fill="#1E2028"/>
  <path d="M24.6139 9.84619H22.1523V12.3077H24.6139V9.84619Z" fill="#60CDEF"/>
  <path d="M24.6139 7.38452H22.1523V9.84606H24.6139V7.38452Z" fill="#60CDEF"/>
  <path d="M24.6139 4.9231H22.1523V7.38463H24.6139V4.9231Z" fill="#3886B2"/>
  <path d="M24.6139 2.46143H22.1523V4.92296H24.6139V2.46143Z" fill="#1E2028"/>
  <path d="M22.1529 22.1538H19.6914V24.6153H22.1529V22.1538Z" fill="#1E2028"/>
  <path d="M22.1529 19.6923H19.6914V22.1538H22.1529V19.6923Z" fill="#3886B2"/>
  <path d="M22.1529 17.2307H19.6914V19.6923H22.1529V17.2307Z" fill="#60CDEF"/>
  <path d="M22.1529 14.7693H19.6914V17.2308H22.1529V14.7693Z" fill="#60CDEF"/>
  <path d="M22.1529 12.3077H19.6914V14.7693H22.1529V12.3077Z" fill="#1E2028"/>
  <path d="M22.1529 9.84619H19.6914V12.3077H22.1529V9.84619Z" fill="#60CDEF"/>
  <path d="M22.1529 7.38452H19.6914V9.84606H22.1529V7.38452Z" fill="#1E2028"/>
  <path d="M22.1529 4.9231H19.6914V7.38463H22.1529V4.9231Z" fill="#60CDEF"/>
  <path d="M22.1529 2.46143H19.6914V4.92296H22.1529V2.46143Z" fill="#1E2028"/>
  <path d="M19.692 24.6154H17.2305V27.0769H19.692V24.6154Z" fill="#1E2028"/>
  <path d="M19.692 22.1538H17.2305V24.6153H19.692V22.1538Z" fill="#3886B2"/>
  <path d="M19.692 19.6923H17.2305V22.1538H19.692V19.6923Z" fill="#60CDEF"/>
  <path d="M19.692 17.2307H17.2305V19.6923H19.692V17.2307Z" fill="#60CDEF"/>
  <path d="M19.692 14.7693H17.2305V17.2308H19.692V14.7693Z" fill="#60CDEF"/>
  <path d="M19.692 12.3077H17.2305V14.7693H19.692V12.3077Z" fill="#1E2028"/>
  <path d="M19.692 9.84619H17.2305V12.3077H19.692V9.84619Z" fill="#1E2028"/>
  <path d="M19.692 7.38452H17.2305V9.84606H19.692V7.38452Z" fill="#60CDEF"/>
  <path d="M19.692 4.9231H17.2305V7.38463H19.692V4.9231Z" fill="#60CDEF"/>
  <path d="M19.692 2.46143H17.2305V4.92296H19.692V2.46143Z" fill="#1E2028"/>
  <path d="M17.2311 27.0769H14.7695V29.5384H17.2311V27.0769Z" fill="#1E2028"/>
  <path d="M17.2311 24.6154H14.7695V27.0769H17.2311V24.6154Z" fill="#3886B2"/>
  <path d="M17.2311 22.1538H14.7695V24.6153H17.2311V22.1538Z" fill="#1E2028"/>
  <path d="M17.2311 19.6923H14.7695V22.1538H17.2311V19.6923Z" fill="#1E2028"/>
  <path d="M17.2311 17.2307H14.7695V19.6923H17.2311V17.2307Z" fill="#1E2028"/>
  <path d="M17.2311 14.7693H14.7695V17.2308H17.2311V14.7693Z" fill="#1E2028"/>
  <path d="M17.2311 12.3077H14.7695V14.7693H17.2311V12.3077Z" fill="#1E2028"/>
  <path d="M17.2311 9.84619H14.7695V12.3077H17.2311V9.84619Z" fill="#60CDEF"/>
  <path d="M17.2311 7.38452H14.7695V9.84606H17.2311V7.38452Z" fill="#60CDEF"/>
  <path d="M17.2311 4.9231H14.7695V7.38463H17.2311V4.9231Z" fill="#60CDEF"/>
  <path d="M17.2311 2.46143H14.7695V4.92296H17.2311V2.46143Z" fill="#1E2028"/>
  <path d="M14.7701 24.6154H12.3086V27.0769H14.7701V24.6154Z" fill="#1E2028"/>
  <path d="M14.7701 22.1538H12.3086V24.6153H14.7701V22.1538Z" fill="#AAC7F2"/>
  <path d="M14.7701 19.6923H12.3086V22.1538H14.7701V19.6923Z" fill="#60CDEF"/>
  <path d="M14.7701 17.2307H12.3086V19.6923H14.7701V17.2307Z" fill="#60CDEF"/>
  <path d="M14.7701 14.7693H12.3086V17.2308H14.7701V14.7693Z" fill="#60CDEF"/>
  <path d="M14.7701 12.3077H12.3086V14.7693H14.7701V12.3077Z" fill="#1E2028"/>
  <path d="M14.7701 9.84619H12.3086V12.3077H14.7701V9.84619Z" fill="#1E2028"/>
  <path d="M14.7701 7.38452H12.3086V9.84606H14.7701V7.38452Z" fill="#60CDEF"/>
  <path d="M14.7701 4.9231H12.3086V7.38463H14.7701V4.9231Z" fill="#60CDEF"/>
  <path d="M14.7701 2.46143H12.3086V4.92296H14.7701V2.46143Z" fill="#1E2028"/>
  <path d="M12.3092 22.1538H9.84766V24.6153H12.3092V22.1538Z" fill="#1E2028"/>
  <path d="M12.3092 19.6923H9.84766V22.1538H12.3092V19.6923Z" fill="#AAC7F2"/>
  <path d="M12.3092 17.2307H9.84766V19.6923H12.3092V17.2307Z" fill="#60CDEF"/>
  <path d="M12.3092 14.7693H9.84766V17.2308H12.3092V14.7693Z" fill="#60CDEF"/>
  <path d="M12.3092 12.3077H9.84766V14.7693H12.3092V12.3077Z" fill="#1E2028"/>
  <path d="M12.3092 9.84619H9.84766V12.3077H12.3092V9.84619Z" fill="#60CDEF"/>
  <path d="M12.3092 7.38452H9.84766V9.84606H12.3092V7.38452Z" fill="#1E2028"/>
  <path d="M12.3092 4.9231H9.84766V7.38463H12.3092V4.9231Z" fill="#60CDEF"/>
  <path d="M12.3092 2.46143H9.84766V4.92296H12.3092V2.46143Z" fill="#1E2028"/>
  <path d="M9.84435 19.6923H7.38281V22.1538H9.84435V19.6923Z" fill="#1E2028"/>
  <path d="M9.84435 17.2307H7.38281V19.6923H9.84435V17.2307Z" fill="#AAC7F2"/>
  <path d="M9.84435 14.7693H7.38281V17.2308H9.84435V14.7693Z" fill="#60CDEF"/>
  <path d="M9.84435 12.3077H7.38281V14.7693H9.84435V12.3077Z" fill="#1E2028"/>
  <path d="M9.84435 9.84619H7.38281V12.3077H9.84435V9.84619Z" fill="#60CDEF"/>
  <path d="M9.84435 7.38452H7.38281V9.84606H9.84435V7.38452Z" fill="white"/>
  <path d="M9.84435 4.9231H7.38281V7.38463H9.84435V4.9231Z" fill="#AAC7F2"/>
  <path d="M9.84435 2.46143H7.38281V4.92296H9.84435V2.46143Z" fill="#1E2028"/>
  <path d="M7.38341 17.2307H4.92188V19.6923H7.38341V17.2307Z" fill="#1E2028"/>
  <path d="M7.38341 14.7693H4.92188V17.2308H7.38341V14.7693Z" fill="#AAC7F2"/>
  <path d="M7.38341 12.3077H4.92188V14.7693H7.38341V12.3077Z" fill="#1E2028"/>
  <path d="M7.38341 9.84619H4.92188V12.3077H7.38341V9.84619Z" fill="white"/>
  <path d="M7.38341 7.38452H4.92188V9.84606H7.38341V7.38452Z" fill="#AAC7F2"/>
  <path d="M7.38341 4.9231H4.92188V7.38463H7.38341V4.9231Z" fill="#1E2028"/>
  <path d="M4.92248 14.7693H2.46094V17.2308H4.92248V14.7693Z" fill="#1E2028"/>
  <path d="M4.92248 12.3077H2.46094V14.7693H4.92248V12.3077Z" fill="#AAC7F2"/>
  <path d="M4.92248 9.84619H2.46094V12.3077H4.92248V9.84619Z" fill="#AAC7F2"/>
  <path d="M4.92248 7.38452H2.46094V9.84606H4.92248V7.38452Z" fill="#1E2028"/>
  <path d="M2.46154 12.3077H0L0 14.7693H2.46154V12.3077Z" fill="#1E2028"/>
  <path d="M2.46154 9.84619H0L0 12.3077H2.46154V9.84619Z" fill="#1E2028"/>
  </g>
  <defs>
  <clipPath id="clip0_9136_422889">
  <rect width="32" height="32" fill="white"/>
  </clipPath>
  </defs>
  </svg>
  