<svg width="16" height="18" viewBox="0 0 16 18" fill="none" xmlns="http://www.w3.org/2000/svg">
<path fill-rule="evenodd" clip-rule="evenodd" d="M5.75 13.5C7.13071 13.5 8.25 12.3807 8.25 11C8.25 9.61929 7.13071 8.5 5.75 8.5C4.36929 8.5 3.25 9.61929 3.25 11C3.25 12.3807 4.36929 13.5 5.75 13.5Z" stroke="#000000" stroke-width="1.5" stroke-linecap="round" stroke-linejoin="round"/>
<path fill-rule="evenodd" clip-rule="evenodd" d="M5.75 16C8.51142 16 10.75 13.7614 10.75 11C10.75 8.23858 8.51142 6 5.75 6C2.98858 6 0.75 8.23858 0.75 11C0.75 13.7614 2.98858 16 5.75 16Z" stroke="#000000" stroke-width="1.5" stroke-linecap="round" stroke-linejoin="round"/>
<path d="M5.75 11L11.75 5" stroke="#000000" stroke-width="1.5" stroke-linecap="round" stroke-linejoin="round"/>
<path d="M0.75 16.4999L2.47333 14.7766" stroke="#000000" stroke-width="1.5" stroke-linecap="round" stroke-linejoin="round"/>
<path d="M10.75 16.4999L9.02667 14.7766" stroke="#000000" stroke-width="1.5" stroke-linecap="round" stroke-linejoin="round"/>
<path fill-rule="evenodd" clip-rule="evenodd" d="M13.1286 6.45C12.9061 6.67279 12.5917 6.77777 12.28 6.73333L10.3 6.45067L10.0173 4.47067C9.9727 4.15906 10.0774 3.84463 10.3 3.622L12.4213 1.5L13.0253 3.72467L15.25 4.32867L13.1286 6.45Z" stroke="#000000" stroke-width="1.5" stroke-linecap="round" stroke-linejoin="round"/>
</svg>
