<svg width="64" height="62" viewBox="0 0 64 62" fill="none" xmlns="http://www.w3.org/2000/svg">
<path d="M64 27.0769H59.0769V32H64V27.0769Z" fill="#211E28"/>
<path d="M59.0769 32H54.1538V36.9231H59.0769V32Z" fill="#211E28"/>
<path d="M54.1538 36.9231H49.2308V41.8462H54.1538V36.9231Z" fill="#211E28"/>
<path d="M49.2308 41.8462H44.3077V46.7692H49.2308V41.8462Z" fill="#211E28"/>
<path d="M44.3077 46.7692H39.3846V51.6923H44.3077V46.7692Z" fill="#211E28"/>
<path d="M39.3846 51.6923H34.4615V56.6154H39.3846V51.6923Z" fill="#211E28"/>
<path d="M34.4615 56.6154H29.5385V61.5385H34.4615V56.6154Z" fill="#211E28"/>
<path d="M29.5385 51.6923H24.6154V56.6154H29.5385V51.6923Z" fill="#211E28"/>
<path d="M24.6154 46.7692H19.6923V51.6923H24.6154V46.7692Z" fill="#211E28"/>
<path d="M19.6923 41.8462H14.7692V46.7692H19.6923V41.8462Z" fill="#211E28"/>
<path d="M14.7692 36.9231H9.84615V41.8462H14.7692L14.7692 36.9231Z" fill="#211E28"/>
<path d="M9.84615 32H4.92308V36.9231H9.84615V32Z" fill="#211E28"/>
<path d="M4.92308 27.0769H0V32H4.92308V27.0769Z" fill="#211E28"/>
<path d="M64 22.1538H59.0769V27.0769H64V22.1538Z" fill="#211E28"/>
<path d="M64 17.2308H59.0769V22.1538H64V17.2308Z" fill="#211E28"/>
<path d="M64 12.3077H59.0769V17.2308H64V12.3077Z" fill="#211E28"/>
<path d="M59.0769 27.0769H54.1538V32H59.0769V27.0769Z" fill="#2A14AF"/>
<path d="M59.0769 22.1538H54.1538V27.0769H59.0769V22.1538Z" fill="#2A14AF"/>
<path d="M59.0769 17.2308H54.1538V22.1538H59.0769V17.2308Z" fill="#2A14AF"/>
<path d="M59.0769 12.3077H54.1538V17.2308H59.0769V12.3077Z" fill="#2A14AF"/>
<path d="M59.0769 7.38462H54.1538V12.3077H59.0769V7.38462Z" fill="#211E28"/>
<path d="M54.1538 32H49.2308V36.9231H54.1538V32Z" fill="#2A14AF"/>
<path d="M54.1538 27.0769H49.2308V32H54.1538V27.0769Z" fill="#631AFF"/>
<path d="M54.1538 22.1538H49.2308V27.0769H54.1538V22.1538Z" fill="#631AFF"/>
<path d="M54.1538 17.2308H49.2308V22.1538H54.1538V17.2308Z" fill="#631AFF"/>
<path d="M54.1538 12.3077H49.2308V17.2308H54.1538V12.3077Z" fill="#631AFF"/>
<path d="M54.1538 7.38462H49.2308V12.3077H54.1538V7.38462Z" fill="#2A14AF"/>
<path d="M54.1538 2.46154H49.2308V7.38462H54.1538V2.46154Z" fill="#211E28"/>
<path d="M49.2308 36.9231H44.3077V41.8462H49.2308V36.9231Z" fill="#2A14AF"/>
<path d="M49.2308 32H44.3077V36.9231H49.2308V32Z" fill="#631AFF"/>
<path d="M49.2308 27.0769H44.3077V32H49.2308V27.0769Z" fill="#631AFF"/>
<path d="M49.2308 22.1538H44.3077V27.0769H49.2308V22.1538Z" fill="#631AFF"/>
<path d="M49.2308 17.2308H44.3077V22.1538H49.2308V17.2308Z" fill="#631AFF"/>
<path d="M49.2308 12.3077H44.3077V17.2308H49.2308V12.3077Z" fill="#631AFF"/>
<path d="M49.2308 7.38462H44.3077V12.3077H49.2308V7.38462Z" fill="#631AFF"/>
<path d="M49.2308 2.46154H44.3077V7.38462H49.2308V2.46154Z" fill="#211E28"/>
<path d="M44.3077 41.8462H39.3846V46.7692H44.3077V41.8462Z" fill="#2A14AF"/>
<path d="M44.3077 36.9231H39.3846V41.8462H44.3077V36.9231Z" fill="#631AFF"/>
<path d="M44.3077 32H39.3846V36.9231H44.3077V32Z" fill="#631AFF"/>
<path d="M44.3077 27.0769H39.3846V32H44.3077V27.0769Z" fill="#631AFF"/>
<path d="M44.3077 22.1538H39.3846V27.0769H44.3077V22.1538Z" fill="#631AFF"/>
<path d="M44.3077 17.2308H39.3846V22.1538H44.3077V17.2308Z" fill="#631AFF"/>
<path d="M44.3077 12.3077H39.3846V17.2308H44.3077V12.3077Z" fill="#631AFF"/>
<path d="M44.3077 7.38462H39.3846V12.3077H44.3077V7.38462Z" fill="#631AFF"/>
<path d="M44.3077 2.46154H39.3846V7.38462H44.3077V2.46154Z" fill="#211E28"/>
<path d="M39.3846 46.7692H34.4615V51.6923H39.3846V46.7692Z" fill="#2A14AF"/>
<path d="M39.3846 41.8462H34.4615V46.7692H39.3846V41.8462Z" fill="#631AFF"/>
<path d="M39.3846 36.9231H34.4615V41.8462H39.3846V36.9231Z" fill="#631AFF"/>
<path d="M39.3846 32H34.4615V36.9231H39.3846V32Z" fill="#631AFF"/>
<path d="M39.3846 27.0769H34.4615V32H39.3846V27.0769Z" fill="#631AFF"/>
<path d="M39.3846 22.1538H34.4615V27.0769H39.3846V22.1538Z" fill="#631AFF"/>
<path d="M39.3846 17.2308H34.4615V22.1538H39.3846V17.2308Z" fill="#631AFF"/>
<path d="M39.3846 12.3077H34.4615V17.2308H39.3846V12.3077Z" fill="#631AFF"/>
<path d="M39.3846 7.38462H34.4615V12.3077H39.3846V7.38462Z" fill="#211E28"/>
<path d="M34.4615 51.6923H29.5385V56.6154H34.4615V51.6923Z" fill="#7560F4"/>
<path d="M34.4615 46.7692H29.5385V51.6923H34.4615V46.7692Z" fill="#631AFF"/>
<path d="M34.4615 41.8462H29.5385V46.7692H34.4615V41.8462Z" fill="#631AFF"/>
<path d="M34.4615 36.9231H29.5385V41.8462H34.4615V36.9231Z" fill="#631AFF"/>
<path d="M34.4615 32H29.5385V36.9231H34.4615V32Z" fill="#631AFF"/>
<path d="M34.4615 27.0769H29.5385V32H34.4615V27.0769Z" fill="#631AFF"/>
<path d="M34.4615 22.1538H29.5385V27.0769H34.4615V22.1538Z" fill="#631AFF"/>
<path d="M34.4615 17.2308H29.5385V22.1538H34.4615V17.2308Z" fill="#631AFF"/>
<path d="M34.4615 12.3077H29.5385V17.2308H34.4615V12.3077Z" fill="#211E28"/>
<path d="M29.5385 46.7692H24.6154V51.6923H29.5385V46.7692Z" fill="#7560F4"/>
<path d="M29.5385 41.8462H24.6154V46.7692H29.5385V41.8462Z" fill="#631AFF"/>
<path d="M29.5385 36.9231H24.6154V41.8462H29.5385V36.9231Z" fill="#631AFF"/>
<path d="M29.5385 32H24.6154V36.9231H29.5385V32Z" fill="#631AFF"/>
<path d="M29.5385 27.0769H24.6154V32H29.5385V27.0769Z" fill="#631AFF"/>
<path d="M29.5385 22.1538H24.6154V27.0769H29.5385V22.1538Z" fill="#631AFF"/>
<path d="M29.5385 17.2308H24.6154V22.1538H29.5385V17.2308Z" fill="#631AFF"/>
<path d="M29.5385 12.3077H24.6154V17.2308H29.5385V12.3077Z" fill="#631AFF"/>
<path d="M29.5385 7.38462H24.6154V12.3077H29.5385V7.38462Z" fill="#211E28"/>
<path d="M24.6154 41.8462H19.6923V46.7692H24.6154V41.8462Z" fill="#7560F4"/>
<path d="M24.6154 36.9231H19.6923V41.8462H24.6154V36.9231Z" fill="#631AFF"/>
<path d="M24.6154 32H19.6923V36.9231H24.6154V32Z" fill="#631AFF"/>
<path d="M24.6154 27.0769H19.6923V32H24.6154V27.0769Z" fill="#631AFF"/>
<path d="M24.6154 22.1538H19.6923V27.0769H24.6154V22.1538Z" fill="#631AFF"/>
<path d="M24.6154 17.2308H19.6923V22.1538H24.6154V17.2308Z" fill="#631AFF"/>
<path d="M24.6154 12.3077H19.6923V17.2308H24.6154V12.3077Z" fill="#631AFF"/>
<path d="M24.6154 7.38462H19.6923V12.3077H24.6154V7.38462Z" fill="#631AFF"/>
<path d="M24.6154 2.46154H19.6923V7.38462H24.6154V2.46154Z" fill="#211E28"/>
<path d="M19.6923 36.9231H14.7692L14.7692 41.8462H19.6923V36.9231Z" fill="#7560F4"/>
<path d="M19.6923 32H14.7692L14.7692 36.9231H19.6923V32Z" fill="#631AFF"/>
<path d="M19.6923 27.0769H14.7692V32H19.6923V27.0769Z" fill="#631AFF"/>
<path d="M19.6923 22.1538H14.7692V27.0769H19.6923V22.1538Z" fill="#631AFF"/>
<path d="M19.6923 17.2308H14.7692V22.1538H19.6923V17.2308Z" fill="#631AFF"/>
<path d="M19.6923 12.3077H14.7692V17.2308H19.6923V12.3077Z" fill="white"/>
<path d="M19.6923 7.38462H14.7692V12.3077H19.6923V7.38462Z" fill="#631AFF"/>
<path d="M19.6923 2.46154H14.7692V7.38462H19.6923V2.46154Z" fill="#211E28"/>
<path d="M14.7692 32H9.84615V36.9231H14.7692L14.7692 32Z" fill="#7560F4"/>
<path d="M14.7692 27.0769H9.84615V32H14.7692V27.0769Z" fill="#631AFF"/>
<path d="M14.7692 22.1538H9.84615V27.0769H14.7692V22.1538Z" fill="#631AFF"/>
<path d="M14.7692 17.2308H9.84615V22.1538H14.7692V17.2308Z" fill="white"/>
<path d="M14.7692 12.3077H9.84615V17.2308H14.7692V12.3077Z" fill="white"/>
<path d="M14.7692 7.38462H9.84615V12.3077H14.7692V7.38462Z" fill="#7560F4"/>
<path d="M14.7692 2.46154H9.84615V7.38462H14.7692V2.46154Z" fill="#211E28"/>
<path d="M9.84615 27.0769H4.92308V32H9.84615V27.0769Z" fill="#7560F4"/>
<path d="M9.84615 22.1538H4.92308V27.0769H9.84615V22.1538Z" fill="#7560F4"/>
<path d="M9.84615 17.2308H4.92308V22.1538H9.84615V17.2308Z" fill="#7560F4"/>
<path d="M9.84615 12.3077H4.92308V17.2308H9.84615V12.3077Z" fill="#7560F4"/>
<path d="M9.84615 7.38462H4.92308V12.3077H9.84615V7.38462Z" fill="#211E28"/>
<path d="M4.92308 22.1538H0V27.0769H4.92308V22.1538Z" fill="#211E28"/>
<path d="M4.92308 17.2308H0V22.1538H4.92308V17.2308Z" fill="#211E28"/>
<path d="M4.92308 12.3077H0V17.2308H4.92308V12.3077Z" fill="#211E28"/>
<path d="M17.2308 43.9231H15.5385V45.6154H17.2308V43.9231Z" fill="#1E2028"/>
<path d="M17.2308 42.2308H15.5385V43.9231H17.2308V42.2308Z" fill="#1E2028"/>
<path d="M17.2308 40.5385H15.5385V42.2308H17.2308V40.5385Z" fill="#1E2028"/>
<path d="M17.2308 38.8462H15.5385V40.5385H17.2308V38.8462Z" fill="#1E2028"/>
<path d="M17.2308 37.1539H15.5385V38.8462H17.2308V37.1539Z" fill="#1E2028"/>
<path d="M17.2308 35.4616H15.5385V37.1539H17.2308V35.4616Z" fill="#1E2028"/>
<path d="M17.2308 33.7692H15.5385V35.4616H17.2308V33.7692Z" fill="#1E2028"/>
<path d="M17.2308 32.0769H15.5385V33.7692H17.2308V32.0769Z" fill="#1E2028"/>
<path d="M17.2308 30.3846H15.5385V32.0769H17.2308V30.3846Z" fill="#1E2028"/>
<path d="M15.5385 45.6154L13.8462 45.6154V47.3077H15.5385L15.5385 45.6154Z" fill="#1E2028"/>
<path d="M15.5385 43.9231H13.8462V45.6154L15.5385 45.6154V43.9231Z" fill="#FF9343"/>
<path d="M15.5385 42.2308H13.8462V43.9231H15.5385V42.2308Z" fill="#FF9343"/>
<path d="M15.5385 40.5385H13.8462V42.2308H15.5385V40.5385Z" fill="#FF9343"/>
<path d="M15.5385 38.8462H13.8462V40.5385H15.5385V38.8462Z" fill="#FF9343"/>
<path d="M15.5385 37.1539H13.8462V38.8462H15.5385V37.1539Z" fill="#FF9343"/>
<path d="M15.5385 35.4616H13.8462V37.1539H15.5385V35.4616Z" fill="#FF9343"/>
<path d="M15.5385 33.7692H13.8462V35.4616H15.5385V33.7692Z" fill="#FF9343"/>
<path d="M15.5385 32.0769H13.8462V33.7692H15.5385V32.0769Z" fill="#FF9343"/>
<path d="M15.5385 30.3846H13.8462V32.0769H15.5385V30.3846Z" fill="#FF9343"/>
<path d="M15.5385 28.6923H13.8462V30.3846H15.5385L15.5385 28.6923Z" fill="#1E2028"/>
<path d="M13.8462 47.3077L12.1539 47.3077V49H13.8462L13.8462 47.3077Z" fill="#1E2028"/>
<path d="M13.8462 45.6154H12.1539V47.3077L13.8462 47.3077V45.6154Z" fill="#FF9343"/>
<path d="M13.8462 43.9231H12.1539V45.6154H13.8462V43.9231Z" fill="#FF9343"/>
<path d="M13.8462 42.2308H12.1539V43.9231H13.8462V42.2308Z" fill="#FFDD4D"/>
<path d="M13.8462 40.5385H12.1539V42.2308H13.8462V40.5385Z" fill="#FFDD4D"/>
<path d="M13.8462 38.8462H12.1539V40.5385H13.8462V38.8462Z" fill="#FFDD4D"/>
<path d="M13.8462 37.1539H12.1539V38.8462H13.8462V37.1539Z" fill="#FFDD4D"/>
<path d="M13.8462 35.4616H12.1539V37.1539H13.8462V35.4616Z" fill="#FFDD4D"/>
<path d="M13.8462 33.7692H12.1539V35.4616H13.8462V33.7692Z" fill="white"/>
<path d="M13.8462 32.0769H12.1539V33.7692H13.8462V32.0769Z" fill="white"/>
<path d="M13.8462 30.3846H12.1539V32.0769H13.8462V30.3846Z" fill="#FFDD4D"/>
<path d="M13.8462 28.6923H12.1539V30.3846H13.8462V28.6923Z" fill="#FFDD4D"/>
<path d="M13.8462 27H12.1539V28.6923H13.8462L13.8462 27Z" fill="#1E2028"/>
<path d="M12.1539 47.3077H10.4615V49H12.1539V47.3077Z" fill="#1E2028"/>
<path d="M12.1539 45.6154H10.4615V47.3077H12.1539V45.6154Z" fill="#FF9343"/>
<path d="M12.1539 43.9231H10.4615V45.6154H12.1539V43.9231Z" fill="#1E2028"/>
<path d="M12.1539 42.2308H10.4615V43.9231H12.1539V42.2308Z" fill="#FFDD4D"/>
<path d="M12.1539 40.5385H10.4615V42.2308H12.1539V40.5385Z" fill="#FFDD4D"/>
<path d="M12.1539 38.8462H10.4615V40.5385H12.1539V38.8462Z" fill="#FFDD4D"/>
<path d="M12.1539 37.1539H10.4615V38.8462H12.1539V37.1539Z" fill="#FFDD4D"/>
<path d="M12.1539 35.4616H10.4615V37.1539H12.1539V35.4616Z" fill="#FFDD4D"/>
<path d="M12.1539 33.7692H10.4615V35.4616H12.1539V33.7692Z" fill="#FFDD4D"/>
<path d="M12.1539 32.0769H10.4615V33.7692H12.1539V32.0769Z" fill="#FFDD4D"/>
<path d="M12.1539 30.3846H10.4615V32.0769H12.1539V30.3846Z" fill="white"/>
<path d="M12.1539 28.6923H10.4615V30.3846H12.1539V28.6923Z" fill="#FFDD4D"/>
<path d="M12.1539 27H10.4615V28.6923H12.1539V27Z" fill="#1E2028"/>
<path d="M10.4615 47.3077H8.76924V49H10.4615V47.3077Z" fill="#1E2028"/>
<path d="M10.4615 45.6154H8.76924V47.3077H10.4615V45.6154Z" fill="#FF9343"/>
<path d="M10.4615 43.9231H8.76924V45.6154H10.4615V43.9231Z" fill="#1E2028"/>
<path d="M10.4615 42.2308H8.76924V43.9231H10.4615V42.2308Z" fill="#FFDD4D"/>
<path d="M10.4615 40.5385H8.76924V42.2308H10.4615V40.5385Z" fill="#FFDD4D"/>
<path d="M10.4615 38.8462H8.76924V40.5385H10.4615V38.8462Z" fill="#FFDD4D"/>
<path d="M10.4615 37.1539H8.76924V38.8462H10.4615V37.1539Z" fill="#FFDD4D"/>
<path d="M10.4615 35.4616H8.76924V37.1539H10.4615V35.4616Z" fill="#FFDD4D"/>
<path d="M10.4615 33.7692H8.76924V35.4616H10.4615V33.7692Z" fill="#FFDD4D"/>
<path d="M10.4615 32.0769H8.76924V33.7692H10.4615V32.0769Z" fill="#FFDD4D"/>
<path d="M10.4615 30.3846H8.76924V32.0769H10.4615V30.3846Z" fill="#FFDD4D"/>
<path d="M10.4615 28.6923H8.76924V30.3846H10.4615V28.6923Z" fill="#FFDD4D"/>
<path d="M10.4615 27H8.76924V28.6923H10.4615V27Z" fill="#1E2028"/>
<path d="M8.76924 47.3077H7.07693V49H8.76924V47.3077Z" fill="#1E2028"/>
<path d="M8.76924 45.6154H7.07693V47.3077H8.76924V45.6154Z" fill="#FF9343"/>
<path d="M8.76924 43.9231H7.07693V45.6154H8.76924V43.9231Z" fill="#1E2028"/>
<path d="M8.76924 42.2308H7.07693V43.9231H8.76924V42.2308Z" fill="#FF9343"/>
<path d="M8.76924 40.5385H7.07693V42.2308H8.76924V40.5385Z" fill="#FF9343"/>
<path d="M8.76924 38.8462H7.07693V40.5385H8.76924V38.8462Z" fill="#FF9343"/>
<path d="M8.76924 37.1539H7.07693V38.8462H8.76924V37.1539Z" fill="#FF9343"/>
<path d="M8.76924 35.4616H7.07693V37.1539H8.76924V35.4616Z" fill="#FF9343"/>
<path d="M8.76924 33.7692H7.07693V35.4616H8.76924V33.7692Z" fill="#FF9343"/>
<path d="M8.76924 32.0769H7.07693V33.7692H8.76924V32.0769Z" fill="#FF9343"/>
<path d="M8.76924 30.3846H7.07693V32.0769H8.76924V30.3846Z" fill="#1E2028"/>
<path d="M8.76924 28.6923H7.07693V30.3846H8.76924V28.6923Z" fill="#FFDD4D"/>
<path d="M8.76924 27H7.07693V28.6923H8.76924V27Z" fill="#1E2028"/>
<path d="M7.07693 47.3077H5.38461V49H7.07693V47.3077Z" fill="#1E2028"/>
<path d="M7.07693 45.6154H5.38461V47.3077H7.07693V45.6154Z" fill="#FFF1B6"/>
<path d="M7.07693 43.9231H5.38461V45.6154H7.07693V43.9231Z" fill="#FFF1B6"/>
<path d="M7.07693 42.2308H5.38461V43.9231H7.07693V42.2308Z" fill="#1E2028"/>
<path d="M7.07693 40.5385H5.38461V42.2308H7.07693V40.5385Z" fill="#1E2028"/>
<path d="M7.07693 38.8462H5.38461V40.5385H7.07693V38.8462Z" fill="#1E2028"/>
<path d="M7.07693 37.1539H5.38461V38.8462H7.07693V37.1539Z" fill="#1E2028"/>
<path d="M7.07693 35.4616H5.38461V37.1539H7.07693V35.4616Z" fill="#1E2028"/>
<path d="M7.07693 33.7692H5.38461V35.4616H7.07693V33.7692Z" fill="#1E2028"/>
<path d="M7.07693 32.0769H5.38461V33.7692H7.07693V32.0769Z" fill="#1E2028"/>
<path d="M7.07693 30.3846H5.38461V32.0769H7.07693V30.3846Z" fill="#FFF1B6"/>
<path d="M7.07693 28.6923H5.38461V30.3846H7.07693V28.6923Z" fill="#FFF1B6"/>
<path d="M7.07693 27H5.38461V28.6923H7.07693V27Z" fill="#1E2028"/>
<path d="M5.38461 45.6154H3.69231V47.3077L5.38461 47.3077V45.6154Z" fill="#1E2028"/>
<path d="M5.38461 43.9231H3.69231V45.6154H5.38461V43.9231Z" fill="#FFF1B6"/>
<path d="M5.38461 42.2308H3.69231V43.9231H5.38461V42.2308Z" fill="#FFF1B6"/>
<path d="M5.38461 40.5385H3.69231V42.2308H5.38461V40.5385Z" fill="#FFF1B6"/>
<path d="M5.38461 38.8462H3.69231V40.5385H5.38461V38.8462Z" fill="#FFF1B6"/>
<path d="M5.38461 37.1539H3.69231V38.8462H5.38461V37.1539Z" fill="#FFF1B6"/>
<path d="M5.38461 35.4616H3.69231V37.1539H5.38461V35.4616Z" fill="#FFF1B6"/>
<path d="M5.38461 33.7692H3.69231V35.4616H5.38461V33.7692Z" fill="#FFF1B6"/>
<path d="M5.38461 32.0769H3.69231V33.7692H5.38461V32.0769Z" fill="#FFF1B6"/>
<path d="M5.38461 30.3846H3.69231V32.0769H5.38461V30.3846Z" fill="#FFF1B6"/>
<path d="M5.38461 28.6923H3.69231V30.3846H5.38461V28.6923Z" fill="#1E2028"/>
<path d="M3.69231 43.9231H2V45.6154L3.69231 45.6154V43.9231Z" fill="#1E2028"/>
<path d="M3.69231 42.2308H2V43.9231H3.69231V42.2308Z" fill="#1E2028"/>
<path d="M3.69231 40.5385H2V42.2308H3.69231V40.5385Z" fill="#1E2028"/>
<path d="M3.69231 38.8462H2V40.5385H3.69231V38.8462Z" fill="#1E2028"/>
<path d="M3.69231 37.1539H2V38.8462H3.69231V37.1539Z" fill="#1E2028"/>
<path d="M3.69231 35.4616H2V37.1539H3.69231V35.4616Z" fill="#1E2028"/>
<path d="M3.69231 33.7692H2V35.4616H3.69231V33.7692Z" fill="#1E2028"/>
<path d="M3.69231 32.0769H2V33.7692H3.69231V32.0769Z" fill="#1E2028"/>
<path d="M3.69231 30.3846H2V32.0769H3.69231V30.3846Z" fill="#1E2028"/>
<path d="M60.4615 54.8462H58.0769V57.2308H60.4615V54.8462Z" fill="#1E2028"/>
<path d="M60.4615 52.4615H58.0769V54.8462H60.4615V52.4615Z" fill="#1E2028"/>
<path d="M60.4615 50.0769H58.0769V52.4615H60.4615V50.0769Z" fill="#1E2028"/>
<path d="M60.4615 47.6923H58.0769V50.0769H60.4615V47.6923Z" fill="#1E2028"/>
<path d="M60.4615 45.3077H58.0769V47.6923H60.4615V45.3077Z" fill="#1E2028"/>
<path d="M60.4615 42.9231H58.0769V45.3077H60.4615V42.9231Z" fill="#1E2028"/>
<path d="M60.4615 40.5385H58.0769V42.9231H60.4615V40.5385Z" fill="#1E2028"/>
<path d="M60.4615 38.1539H58.0769V40.5385H60.4615V38.1539Z" fill="#1E2028"/>
<path d="M60.4615 35.7693H58.0769V38.1539H60.4615V35.7693Z" fill="#1E2028"/>
<path d="M58.0769 57.2308L55.6923 57.2307V59.6154H58.0769L58.0769 57.2308Z" fill="#1E2028"/>
<path d="M58.0769 54.8462H55.6923V57.2307L58.0769 57.2308V54.8462Z" fill="#FF9343"/>
<path d="M58.0769 52.4615H55.6923V54.8462H58.0769V52.4615Z" fill="#FF9343"/>
<path d="M58.0769 50.0769H55.6923V52.4615H58.0769V50.0769Z" fill="#FF9343"/>
<path d="M58.0769 47.6923H55.6923V50.0769H58.0769V47.6923Z" fill="#FF9343"/>
<path d="M58.0769 45.3077H55.6923V47.6923H58.0769V45.3077Z" fill="#FF9343"/>
<path d="M58.0769 42.9231H55.6923V45.3077H58.0769V42.9231Z" fill="#FF9343"/>
<path d="M58.0769 40.5385H55.6923V42.9231H58.0769V40.5385Z" fill="#FF9343"/>
<path d="M58.0769 38.1539H55.6923V40.5385H58.0769V38.1539Z" fill="#FF9343"/>
<path d="M58.0769 35.7693H55.6923V38.1539H58.0769V35.7693Z" fill="#FF9343"/>
<path d="M58.0769 33.3846H55.6923V35.7693H58.0769L58.0769 33.3846Z" fill="#1E2028"/>
<path d="M55.6923 59.6154L53.3077 59.6154V62H55.6923L55.6923 59.6154Z" fill="#1E2028"/>
<path d="M55.6923 57.2307H53.3077V59.6154L55.6923 59.6154V57.2307Z" fill="#FF9343"/>
<path d="M55.6923 54.8462H53.3077V57.2307H55.6923V54.8462Z" fill="#FF9343"/>
<path d="M55.6923 52.4615H53.3077V54.8462H55.6923V52.4615Z" fill="#FFDD4D"/>
<path d="M55.6923 50.0769H53.3077V52.4615H55.6923V50.0769Z" fill="#FFDD4D"/>
<path d="M55.6923 47.6923H53.3077V50.0769H55.6923V47.6923Z" fill="#FFDD4D"/>
<path d="M55.6923 45.3077H53.3077V47.6923H55.6923V45.3077Z" fill="#FFDD4D"/>
<path d="M55.6923 42.9231H53.3077V45.3077H55.6923V42.9231Z" fill="#FFDD4D"/>
<path d="M55.6923 40.5385H53.3077V42.9231H55.6923V40.5385Z" fill="white"/>
<path d="M55.6923 38.1539H53.3077V40.5385H55.6923V38.1539Z" fill="white"/>
<path d="M55.6923 35.7693H53.3077V38.1539H55.6923V35.7693Z" fill="#FFDD4D"/>
<path d="M55.6923 33.3846H53.3077V35.7693H55.6923V33.3846Z" fill="#FFDD4D"/>
<path d="M55.6923 31H53.3077V33.3846H55.6923L55.6923 31Z" fill="#1E2028"/>
<path d="M53.3077 59.6154H50.9231V62H53.3077V59.6154Z" fill="#1E2028"/>
<path d="M53.3077 57.2307H50.9231V59.6154H53.3077V57.2307Z" fill="#FF9343"/>
<path d="M53.3077 54.8462H50.9231V57.2307H53.3077V54.8462Z" fill="#1E2028"/>
<path d="M53.3077 52.4615H50.9231V54.8462H53.3077V52.4615Z" fill="#FFDD4D"/>
<path d="M53.3077 50.0769H50.9231V52.4615H53.3077V50.0769Z" fill="#FFDD4D"/>
<path d="M53.3077 47.6923H50.9231V50.0769H53.3077V47.6923Z" fill="#FFDD4D"/>
<path d="M53.3077 45.3077H50.9231V47.6923H53.3077V45.3077Z" fill="#FFDD4D"/>
<path d="M53.3077 42.9231H50.9231V45.3077H53.3077V42.9231Z" fill="#FFDD4D"/>
<path d="M53.3077 40.5385H50.9231V42.9231H53.3077V40.5385Z" fill="#FFDD4D"/>
<path d="M53.3077 38.1539H50.9231V40.5385H53.3077V38.1539Z" fill="#FFDD4D"/>
<path d="M53.3077 35.7693H50.9231V38.1539H53.3077V35.7693Z" fill="white"/>
<path d="M53.3077 33.3846H50.9231V35.7693H53.3077V33.3846Z" fill="#FFDD4D"/>
<path d="M53.3077 31H50.9231V33.3846H53.3077V31Z" fill="#1E2028"/>
<path d="M50.9231 59.6154H48.5385V62H50.9231V59.6154Z" fill="#1E2028"/>
<path d="M50.9231 57.2307H48.5385V59.6154H50.9231V57.2307Z" fill="#FF9343"/>
<path d="M50.9231 54.8462H48.5385V57.2307H50.9231V54.8462Z" fill="#1E2028"/>
<path d="M50.9231 52.4615H48.5385V54.8462H50.9231V52.4615Z" fill="#FFDD4D"/>
<path d="M50.9231 50.0769H48.5385V52.4615H50.9231V50.0769Z" fill="#FFDD4D"/>
<path d="M50.9231 47.6923H48.5385V50.0769H50.9231V47.6923Z" fill="#FFDD4D"/>
<path d="M50.9231 45.3077H48.5385V47.6923H50.9231V45.3077Z" fill="#FFDD4D"/>
<path d="M50.9231 42.9231H48.5385V45.3077H50.9231V42.9231Z" fill="#FFDD4D"/>
<path d="M50.9231 40.5385H48.5385V42.9231H50.9231V40.5385Z" fill="#FFDD4D"/>
<path d="M50.9231 38.1539H48.5385V40.5385H50.9231V38.1539Z" fill="#FFDD4D"/>
<path d="M50.9231 35.7693H48.5385V38.1539H50.9231V35.7693Z" fill="#FFDD4D"/>
<path d="M50.9231 33.3846H48.5385V35.7693H50.9231V33.3846Z" fill="#FFDD4D"/>
<path d="M50.9231 31H48.5385V33.3846H50.9231V31Z" fill="#1E2028"/>
<path d="M48.5385 59.6154H46.1539V62H48.5385V59.6154Z" fill="#1E2028"/>
<path d="M48.5385 57.2307H46.1539V59.6154H48.5385V57.2307Z" fill="#FF9343"/>
<path d="M48.5385 54.8462H46.1539V57.2307H48.5385V54.8462Z" fill="#1E2028"/>
<path d="M48.5385 52.4615H46.1539V54.8462H48.5385V52.4615Z" fill="#FF9343"/>
<path d="M48.5385 50.0769H46.1539V52.4615H48.5385V50.0769Z" fill="#FF9343"/>
<path d="M48.5385 47.6923H46.1539V50.0769H48.5385V47.6923Z" fill="#FF9343"/>
<path d="M48.5385 45.3077H46.1539V47.6923H48.5385V45.3077Z" fill="#FF9343"/>
<path d="M48.5385 42.9231H46.1539V45.3077H48.5385V42.9231Z" fill="#FF9343"/>
<path d="M48.5385 40.5385H46.1539V42.9231H48.5385V40.5385Z" fill="#FF9343"/>
<path d="M48.5385 38.1539H46.1539V40.5385H48.5385V38.1539Z" fill="#FF9343"/>
<path d="M48.5385 35.7693H46.1539V38.1539H48.5385V35.7693Z" fill="#1E2028"/>
<path d="M48.5385 33.3846H46.1539V35.7693H48.5385V33.3846Z" fill="#FFDD4D"/>
<path d="M48.5385 31H46.1539V33.3846H48.5385V31Z" fill="#1E2028"/>
<path d="M46.1539 59.6154H43.7692V62H46.1539V59.6154Z" fill="#1E2028"/>
<path d="M46.1539 57.2307H43.7692V59.6154H46.1539V57.2307Z" fill="#FFF1B6"/>
<path d="M46.1539 54.8462H43.7692V57.2307H46.1539V54.8462Z" fill="#FFF1B6"/>
<path d="M46.1539 52.4615H43.7692V54.8462H46.1539V52.4615Z" fill="#1E2028"/>
<path d="M46.1539 50.0769H43.7692V52.4615H46.1539V50.0769Z" fill="#1E2028"/>
<path d="M46.1539 47.6923H43.7692V50.0769H46.1539V47.6923Z" fill="#1E2028"/>
<path d="M46.1539 45.3077H43.7692V47.6923H46.1539V45.3077Z" fill="#1E2028"/>
<path d="M46.1539 42.9231H43.7692V45.3077H46.1539V42.9231Z" fill="#1E2028"/>
<path d="M46.1539 40.5385H43.7692V42.9231H46.1539V40.5385Z" fill="#1E2028"/>
<path d="M46.1539 38.1539H43.7692V40.5385H46.1539V38.1539Z" fill="#1E2028"/>
<path d="M46.1539 35.7693H43.7692V38.1539H46.1539V35.7693Z" fill="#FFF1B6"/>
<path d="M46.1539 33.3846H43.7692V35.7693H46.1539V33.3846Z" fill="#FFF1B6"/>
<path d="M46.1539 31H43.7692V33.3846H46.1539V31Z" fill="#1E2028"/>
<path d="M43.7692 57.2307H41.3846V59.6154L43.7692 59.6154V57.2307Z" fill="#1E2028"/>
<path d="M43.7692 54.8462H41.3846V57.2307H43.7692V54.8462Z" fill="#FFF1B6"/>
<path d="M43.7692 52.4615H41.3846V54.8462H43.7692V52.4615Z" fill="#FFF1B6"/>
<path d="M43.7692 50.0769H41.3846V52.4615H43.7692V50.0769Z" fill="#FFF1B6"/>
<path d="M43.7692 47.6923H41.3846V50.0769H43.7692V47.6923Z" fill="#FFF1B6"/>
<path d="M43.7692 45.3077H41.3846V47.6923H43.7692V45.3077Z" fill="#FFF1B6"/>
<path d="M43.7692 42.9231H41.3846V45.3077H43.7692V42.9231Z" fill="#FFF1B6"/>
<path d="M43.7692 40.5385H41.3846V42.9231H43.7692V40.5385Z" fill="#FFF1B6"/>
<path d="M43.7692 38.1539H41.3846V40.5385H43.7692V38.1539Z" fill="#FFF1B6"/>
<path d="M43.7692 35.7693H41.3846V38.1539H43.7692V35.7693Z" fill="#FFF1B6"/>
<path d="M43.7692 33.3846H41.3846V35.7693H43.7692V33.3846Z" fill="#1E2028"/>
<path d="M41.3846 54.8462H39V57.2308L41.3846 57.2307V54.8462Z" fill="#1E2028"/>
<path d="M41.3846 52.4615H39V54.8462H41.3846V52.4615Z" fill="#1E2028"/>
<path d="M41.3846 50.0769H39V52.4615H41.3846V50.0769Z" fill="#1E2028"/>
<path d="M41.3846 47.6923H39V50.0769H41.3846V47.6923Z" fill="#1E2028"/>
<path d="M41.3846 45.3077H39V47.6923H41.3846V45.3077Z" fill="#1E2028"/>
<path d="M41.3846 42.9231H39V45.3077H41.3846V42.9231Z" fill="#1E2028"/>
<path d="M41.3846 40.5385H39V42.9231H41.3846V40.5385Z" fill="#1E2028"/>
<path d="M41.3846 38.1539H39V40.5385H41.3846V38.1539Z" fill="#1E2028"/>
<path d="M41.3846 35.7693H39V38.1539H41.3846V35.7693Z" fill="#1E2028"/>
<path d="M62.4615 16.0684H60.8547V17.6752H62.4615V16.0684Z" fill="#1E2028"/>
<path d="M62.4615 14.4615H60.8547V16.0684H62.4615V14.4615Z" fill="#1E2028"/>
<path d="M62.4615 12.8547H60.8547V14.4615H62.4615V12.8547Z" fill="#1E2028"/>
<path d="M62.4615 11.2479H60.8547V12.8547H62.4615V11.2479Z" fill="#1E2028"/>
<path d="M62.4615 9.64106H60.8547V11.2479H62.4615V9.64106Z" fill="#1E2028"/>
<path d="M62.4615 8.03421H60.8547V9.64106H62.4615V8.03421Z" fill="#1E2028"/>
<path d="M62.4615 6.42733H60.8547V8.03421H62.4615V6.42733Z" fill="#1E2028"/>
<path d="M62.4615 4.82053H60.8547V6.42733H62.4615V4.82053Z" fill="#1E2028"/>
<path d="M62.4615 3.21369H60.8547V4.82053H62.4615V3.21369Z" fill="#1E2028"/>
<path d="M60.8547 17.6752L59.2479 17.6752V19.282H60.8547L60.8547 17.6752Z" fill="#1E2028"/>
<path d="M60.8547 16.0684H59.2479V17.6752L60.8547 17.6752V16.0684Z" fill="#FF9343"/>
<path d="M60.8547 14.4615H59.2479V16.0684H60.8547V14.4615Z" fill="#FF9343"/>
<path d="M60.8547 12.8547H59.2479V14.4615H60.8547V12.8547Z" fill="#FF9343"/>
<path d="M60.8547 11.2479H59.2479V12.8547H60.8547V11.2479Z" fill="#FF9343"/>
<path d="M60.8547 9.64106H59.2479V11.2479H60.8547V9.64106Z" fill="#FF9343"/>
<path d="M60.8547 8.03421H59.2479V9.64106H60.8547V8.03421Z" fill="#FF9343"/>
<path d="M60.8547 6.42733H59.2479V8.03421H60.8547V6.42733Z" fill="#FF9343"/>
<path d="M60.8547 4.82053H59.2479V6.42733H60.8547V4.82053Z" fill="#FF9343"/>
<path d="M60.8547 3.21369H59.2479V4.82053H60.8547V3.21369Z" fill="#FF9343"/>
<path d="M60.8547 1.60684H59.2479V3.21369H60.8547L60.8547 1.60684Z" fill="#1E2028"/>
<path d="M59.2479 19.282L57.641 19.2821V20.8889H59.2479L59.2479 19.282Z" fill="#1E2028"/>
<path d="M59.2479 17.6752H57.641V19.2821L59.2479 19.282V17.6752Z" fill="#FF9343"/>
<path d="M59.2479 16.0684H57.641V17.6752H59.2479V16.0684Z" fill="#FF9343"/>
<path d="M59.2479 14.4615H57.641V16.0684H59.2479V14.4615Z" fill="#FFDD4D"/>
<path d="M59.2479 12.8547H57.641V14.4615H59.2479V12.8547Z" fill="#FFDD4D"/>
<path d="M59.2479 11.2479H57.641V12.8547H59.2479V11.2479Z" fill="#FFDD4D"/>
<path d="M59.2479 9.64106H57.641V11.2479H59.2479V9.64106Z" fill="#FFDD4D"/>
<path d="M59.2479 8.03421H57.641V9.64106H59.2479V8.03421Z" fill="#FFDD4D"/>
<path d="M59.2479 6.42733H57.641V8.03421H59.2479V6.42733Z" fill="white"/>
<path d="M59.2479 4.82053H57.641V6.42733H59.2479V4.82053Z" fill="white"/>
<path d="M59.2479 3.21369H57.641V4.82053H59.2479V3.21369Z" fill="#FFDD4D"/>
<path d="M59.2479 1.60684H57.641V3.21369H59.2479V1.60684Z" fill="#FFDD4D"/>
<path d="M59.2479 0H57.641V1.60684H59.2479L59.2479 0Z" fill="#1E2028"/>
<path d="M57.641 19.2821H56.0342V20.8889H57.641V19.2821Z" fill="#1E2028"/>
<path d="M57.641 17.6752H56.0342V19.2821H57.641V17.6752Z" fill="#FF9343"/>
<path d="M57.641 16.0684H56.0342V17.6752H57.641V16.0684Z" fill="#1E2028"/>
<path d="M57.641 14.4615H56.0342V16.0684H57.641V14.4615Z" fill="#FFDD4D"/>
<path d="M57.641 12.8547H56.0342V14.4615H57.641V12.8547Z" fill="#FFDD4D"/>
<path d="M57.641 11.2479H56.0342V12.8547H57.641V11.2479Z" fill="#FFDD4D"/>
<path d="M57.641 9.64106H56.0342V11.2479H57.641V9.64106Z" fill="#FFDD4D"/>
<path d="M57.641 8.03421H56.0342V9.64106H57.641V8.03421Z" fill="#FFDD4D"/>
<path d="M57.641 6.42733H56.0342V8.03421H57.641V6.42733Z" fill="#FFDD4D"/>
<path d="M57.641 4.82053H56.0342V6.42733H57.641V4.82053Z" fill="#FFDD4D"/>
<path d="M57.641 3.21369H56.0342V4.82053H57.641V3.21369Z" fill="white"/>
<path d="M57.641 1.60684H56.0342V3.21369H57.641V1.60684Z" fill="#FFDD4D"/>
<path d="M57.641 0H56.0342V1.60684H57.641V0Z" fill="#1E2028"/>
<path d="M56.0342 19.2821H54.4274V20.8889H56.0342V19.2821Z" fill="#1E2028"/>
<path d="M56.0342 17.6752H54.4274V19.2821H56.0342V17.6752Z" fill="#FF9343"/>
<path d="M56.0342 16.0684H54.4274V17.6752H56.0342V16.0684Z" fill="#1E2028"/>
<path d="M56.0342 14.4615H54.4274V16.0684H56.0342V14.4615Z" fill="#FFDD4D"/>
<path d="M56.0342 12.8547H54.4274V14.4615H56.0342V12.8547Z" fill="#FFDD4D"/>
<path d="M56.0342 11.2479H54.4274V12.8547H56.0342V11.2479Z" fill="#FFDD4D"/>
<path d="M56.0342 9.64106H54.4274V11.2479H56.0342V9.64106Z" fill="#FFDD4D"/>
<path d="M56.0342 8.03421H54.4274V9.64106H56.0342V8.03421Z" fill="#FFDD4D"/>
<path d="M56.0342 6.42733H54.4274V8.03421H56.0342V6.42733Z" fill="#FFDD4D"/>
<path d="M56.0342 4.82053H54.4274V6.42733H56.0342V4.82053Z" fill="#FFDD4D"/>
<path d="M56.0342 3.21369H54.4274V4.82053H56.0342V3.21369Z" fill="#FFDD4D"/>
<path d="M56.0342 1.60684H54.4274V3.21369H56.0342V1.60684Z" fill="#FFDD4D"/>
<path d="M56.0342 0H54.4274V1.60684H56.0342V0Z" fill="#1E2028"/>
<path d="M54.4274 19.2821H52.8205V20.8889H54.4274V19.2821Z" fill="#1E2028"/>
<path d="M54.4274 17.6752H52.8205V19.2821H54.4274V17.6752Z" fill="#FF9343"/>
<path d="M54.4274 16.0684H52.8205V17.6752H54.4274V16.0684Z" fill="#1E2028"/>
<path d="M54.4274 14.4615H52.8205V16.0684H54.4274V14.4615Z" fill="#FF9343"/>
<path d="M54.4274 12.8547H52.8205V14.4615H54.4274V12.8547Z" fill="#FF9343"/>
<path d="M54.4274 11.2479H52.8205V12.8547H54.4274V11.2479Z" fill="#FF9343"/>
<path d="M54.4274 9.64106H52.8205V11.2479H54.4274V9.64106Z" fill="#FF9343"/>
<path d="M54.4274 8.03421H52.8205V9.64106H54.4274V8.03421Z" fill="#FF9343"/>
<path d="M54.4274 6.42733H52.8205V8.03421H54.4274V6.42733Z" fill="#FF9343"/>
<path d="M54.4274 4.82053H52.8205V6.42733H54.4274V4.82053Z" fill="#FF9343"/>
<path d="M54.4274 3.21369H52.8205V4.82053H54.4274V3.21369Z" fill="#1E2028"/>
<path d="M54.4274 1.60684H52.8205V3.21369H54.4274V1.60684Z" fill="#FFDD4D"/>
<path d="M54.4274 0H52.8205V1.60684H54.4274V0Z" fill="#1E2028"/>
<path d="M52.8205 19.2821H51.2137V20.8889H52.8205V19.2821Z" fill="#1E2028"/>
<path d="M52.8205 17.6752H51.2137V19.2821H52.8205V17.6752Z" fill="#FFF1B6"/>
<path d="M52.8205 16.0684H51.2137V17.6752H52.8205V16.0684Z" fill="#FFF1B6"/>
<path d="M52.8205 14.4615H51.2137V16.0684H52.8205V14.4615Z" fill="#1E2028"/>
<path d="M52.8205 12.8547H51.2137V14.4615H52.8205V12.8547Z" fill="#1E2028"/>
<path d="M52.8205 11.2479H51.2137V12.8547H52.8205V11.2479Z" fill="#1E2028"/>
<path d="M52.8205 9.64106H51.2137V11.2479H52.8205V9.64106Z" fill="#1E2028"/>
<path d="M52.8205 8.03421H51.2137V9.64106H52.8205V8.03421Z" fill="#1E2028"/>
<path d="M52.8205 6.42733H51.2137V8.03421H52.8205V6.42733Z" fill="#1E2028"/>
<path d="M52.8205 4.82053H51.2137V6.42733H52.8205V4.82053Z" fill="#1E2028"/>
<path d="M52.8205 3.21369H51.2137V4.82053H52.8205V3.21369Z" fill="#FFF1B6"/>
<path d="M52.8205 1.60684H51.2137V3.21369H52.8205V1.60684Z" fill="#FFF1B6"/>
<path d="M52.8205 0H51.2137V1.60684H52.8205V0Z" fill="#1E2028"/>
<path d="M51.2137 17.6752H49.6069V19.282L51.2137 19.2821V17.6752Z" fill="#1E2028"/>
<path d="M51.2137 16.0684H49.6069V17.6752H51.2137V16.0684Z" fill="#FFF1B6"/>
<path d="M51.2137 14.4615H49.6069V16.0684H51.2137V14.4615Z" fill="#FFF1B6"/>
<path d="M51.2137 12.8547H49.6069V14.4615H51.2137V12.8547Z" fill="#FFF1B6"/>
<path d="M51.2137 11.2479H49.6069V12.8547H51.2137V11.2479Z" fill="#FFF1B6"/>
<path d="M51.2137 9.64106H49.6069V11.2479H51.2137V9.64106Z" fill="#FFF1B6"/>
<path d="M51.2137 8.03421H49.6069V9.64106H51.2137V8.03421Z" fill="#FFF1B6"/>
<path d="M51.2137 6.42733H49.6069V8.03421H51.2137V6.42733Z" fill="#FFF1B6"/>
<path d="M51.2137 4.82053H49.6069V6.42733H51.2137V4.82053Z" fill="#FFF1B6"/>
<path d="M51.2137 3.21369H49.6069V4.82053H51.2137V3.21369Z" fill="#FFF1B6"/>
<path d="M51.2137 1.60684H49.6069V3.21369H51.2137V1.60684Z" fill="#1E2028"/>
<path d="M49.6069 16.0684H48V17.6752L49.6069 17.6752V16.0684Z" fill="#1E2028"/>
<path d="M49.6069 14.4615H48V16.0684H49.6069V14.4615Z" fill="#1E2028"/>
<path d="M49.6069 12.8547H48V14.4615H49.6069V12.8547Z" fill="#1E2028"/>
<path d="M49.6069 11.2479H48V12.8547H49.6069V11.2479Z" fill="#1E2028"/>
<path d="M49.6069 9.64106H48V11.2479H49.6069V9.64106Z" fill="#1E2028"/>
<path d="M49.6069 8.03421H48V9.64106H49.6069V8.03421Z" fill="#1E2028"/>
<path d="M49.6069 6.42733H48V8.03421H49.6069V6.42733Z" fill="#1E2028"/>
<path d="M49.6069 4.82053H48V6.42733H49.6069V4.82053Z" fill="#1E2028"/>
<path d="M49.6069 3.21369H48V4.82053H49.6069V3.21369Z" fill="#1E2028"/>
</svg>
