<svg width="48" height="48" viewBox="0 0 48 48" fill="none" xmlns="http://www.w3.org/2000/svg">
<path d="M47.4758 16.2675C47.4385 16.5618 47.3469 16.8466 47.2058 17.1075C47.1377 17.2196 47.0625 17.3274 46.9808 17.43L24.0008 45.75L3.65329 20.7675L0.923289 17.4225C0.659675 17.0942 0.49107 16.6999 0.435789 16.2825C0.362723 15.7398 0.493678 15.1892 0.803289 14.7375L8.25079 5.25H39.5633L39.5933 5.295L47.0933 14.7375C47.1607 14.8315 47.2185 14.932 47.2658 15.0375V15.045C47.4533 15.4234 47.5263 15.8482 47.4758 16.2675Z" fill="#30B2E5"/>
<path d="M15.0008 20.25L0.435789 16.2825C0.362723 15.7398 0.493678 15.1892 0.803289 14.7375L8.25079 5.25L15.0008 20.25Z" fill="#2FC1F4"/>
<path d="M8.25 5.25L15 20.25L24 5.25H8.25Z" fill="#30B2E5"/>
<path d="M24.0005 45.6975L3.65305 20.7675L0.923047 17.4225C0.659433 17.0942 0.490828 16.6999 0.435547 16.2825L15.0005 20.25L24.0005 45.6975Z" fill="#2898C9"/>
<path d="M47.475 16.2675L33 20.25L39.5925 5.295L39.6075 5.25L47.265 15.0375V15.045C47.4526 15.4234 47.5255 15.8482 47.475 16.2675Z" fill="#2FC1F4"/>
<path d="M39.609 5.25L33 20.25L24 5.25H39.609Z" fill="#30B2E5"/>
<path d="M24 5.25L15 20.25H24H33L24 5.25Z" fill="#2FC1F4"/>
<path d="M47.475 16.2675C47.4377 16.5617 47.3461 16.8465 47.205 17.1075L24 45.75L33 20.25L47.475 16.2675Z" fill="#2898C9"/>
</svg>

