<svg xmlns="http://www.w3.org/2000/svg" width="600" height="600" fill="none"><path fill="#ECBE07" d="M90.36 495.547h-1.88v77.587h423.507v-77.587H90.359ZM567.675 111.625c-17.862 0-32.333 14.472-32.333 32.334 0 11.193 5.687 21.052 14.332 26.856L399.017 322.841 308.074 90.123v-.004c13.025-4.172 22.466-16.374 22.466-30.785C330.54 41.472 316.068 27 298.211 27c-17.862 0-32.334 14.472-32.334 32.334 0 15.601 11.054 28.618 25.759 31.66l-90.65 231.848L44.829 165.257l-.028-.028c11.658-4.878 19.862-16.393 19.862-29.828 0-17.862-14.472-32.334-32.33-32.334C14.473 103.067 0 117.539 0 135.401c0 17.853 14.472 32.329 32.334 32.329.846 0 1.679-.06 2.511-.125l51.406 303.694h427.494l49.973-295.266c1.302.158 2.614.265 3.953.265 17.853 0 32.329-14.471 32.329-32.329 0-17.857-14.472-32.334-32.329-32.334l.004-.01Z"/></svg>
