<svg width="64" height="64" viewBox="0 0 64 64" fill="none" xmlns="http://www.w3.org/2000/svg">
  <g clip-path="url(#clip0_9136_421027)">
  <path d="M64.0012 27.0769H59.0781V32H64.0012V27.0769Z" fill="#211E28"/>
  <path d="M59.0754 32H54.1523V36.9231H59.0754V32Z" fill="#211E28"/>
  <path d="M54.1535 36.9231H49.2305V41.8462H54.1535V36.9231Z" fill="#211E28"/>
  <path d="M49.2317 41.8462H44.3086V46.7693H49.2317V41.8462Z" fill="#211E28"/>
  <path d="M44.3059 46.7693H39.3828V51.6924H44.3059V46.7693Z" fill="#211E28"/>
  <path d="M39.384 51.6924H34.4609V56.6155H39.384V51.6924Z" fill="#211E28"/>
  <path d="M34.4621 56.6155H29.5391V61.5386H34.4621V56.6155Z" fill="#211E28"/>
  <path d="M29.5403 51.6924H24.6172V56.6155H29.5403V51.6924Z" fill="#211E28"/>
  <path d="M24.6145 46.7693H19.6914V51.6924H24.6145V46.7693Z" fill="#211E28"/>
  <path d="M19.6926 41.8462H14.7695V46.7693H19.6926V41.8462Z" fill="#211E28"/>
  <path d="M14.7707 36.9231H9.84766V41.8462H14.7707V36.9231Z" fill="#211E28"/>
  <path d="M9.84495 32H4.92188V36.9231H9.84495V32Z" fill="#211E28"/>
  <path d="M4.92308 27.0769H0V32H4.92308V27.0769Z" fill="#211E28"/>
  <path d="M64.0012 22.1538H59.0781V27.0769H64.0012V22.1538Z" fill="#211E28"/>
  <path d="M64.0012 17.2307H59.0781V22.1538H64.0012V17.2307Z" fill="#211E28"/>
  <path d="M64.0012 12.3076H59.0781V17.2307H64.0012V12.3076Z" fill="#211E28"/>
  <path d="M59.0754 27.0769H54.1523V32H59.0754V27.0769Z" fill="#2A14AF"/>
  <path d="M59.0754 22.1538H54.1523V27.0769H59.0754V22.1538Z" fill="#2A14AF"/>
  <path d="M59.0754 17.2307H54.1523V22.1538H59.0754V17.2307Z" fill="#2A14AF"/>
  <path d="M59.0754 12.3076H54.1523V17.2307H59.0754V12.3076Z" fill="#2A14AF"/>
  <path d="M59.0754 7.38452H54.1523V12.3076H59.0754V7.38452Z" fill="#211E28"/>
  <path d="M54.1535 32H49.2305V36.9231H54.1535V32Z" fill="#2A14AF"/>
  <path d="M54.1535 27.0769H49.2305V32H54.1535V27.0769Z" fill="#631AFF"/>
  <path d="M54.1535 22.1538H49.2305V27.0769H54.1535V22.1538Z" fill="#631AFF"/>
  <path d="M54.1535 17.2307H49.2305V22.1538H54.1535V17.2307Z" fill="#631AFF"/>
  <path d="M54.1535 12.3076H49.2305V17.2307H54.1535V12.3076Z" fill="#631AFF"/>
  <path d="M54.1535 7.38452H49.2305V12.3076H54.1535V7.38452Z" fill="#2A14AF"/>
  <path d="M54.1535 2.46143H49.2305V7.3845H54.1535V2.46143Z" fill="#211E28"/>
  <path d="M49.2317 36.9231H44.3086V41.8462H49.2317V36.9231Z" fill="#2A14AF"/>
  <path d="M49.2317 32H44.3086V36.9231H49.2317V32Z" fill="#631AFF"/>
  <path d="M49.2317 27.0769H44.3086V32H49.2317V27.0769Z" fill="#631AFF"/>
  <path d="M49.2317 22.1538H44.3086V27.0769H49.2317V22.1538Z" fill="#631AFF"/>
  <path d="M49.2317 17.2307H44.3086V22.1538H49.2317V17.2307Z" fill="#631AFF"/>
  <path d="M49.2317 12.3076H44.3086V17.2307H49.2317V12.3076Z" fill="#631AFF"/>
  <path d="M49.2317 7.38452H44.3086V12.3076H49.2317V7.38452Z" fill="#631AFF"/>
  <path d="M49.2317 2.46143H44.3086V7.3845H49.2317V2.46143Z" fill="#211E28"/>
  <path d="M44.3059 41.8462H39.3828V46.7693H44.3059V41.8462Z" fill="#2A14AF"/>
  <path d="M44.3059 36.9231H39.3828V41.8462H44.3059V36.9231Z" fill="#631AFF"/>
  <path d="M44.3059 32H39.3828V36.9231H44.3059V32Z" fill="#631AFF"/>
  <path d="M44.3059 27.0769H39.3828V32H44.3059V27.0769Z" fill="#631AFF"/>
  <path d="M44.3059 22.1538H39.3828V27.0769H44.3059V22.1538Z" fill="#631AFF"/>
  <path d="M44.3059 17.2307H39.3828V22.1538H44.3059V17.2307Z" fill="#631AFF"/>
  <path d="M44.3059 12.3076H39.3828V17.2307H44.3059V12.3076Z" fill="#631AFF"/>
  <path d="M44.3059 7.38452H39.3828V12.3076H44.3059V7.38452Z" fill="#631AFF"/>
  <path d="M44.3059 2.46143H39.3828V7.3845H44.3059V2.46143Z" fill="#211E28"/>
  <path d="M39.384 46.7693H34.4609V51.6924H39.384V46.7693Z" fill="#2A14AF"/>
  <path d="M39.384 41.8462H34.4609V46.7693H39.384V41.8462Z" fill="#631AFF"/>
  <path d="M39.384 36.9231H34.4609V41.8462H39.384V36.9231Z" fill="#631AFF"/>
  <path d="M39.384 32H34.4609V36.9231H39.384V32Z" fill="#631AFF"/>
  <path d="M39.384 27.0769H34.4609V32H39.384V27.0769Z" fill="#631AFF"/>
  <path d="M39.384 22.1538H34.4609V27.0769H39.384V22.1538Z" fill="#631AFF"/>
  <path d="M39.384 17.2307H34.4609V22.1538H39.384V17.2307Z" fill="#631AFF"/>
  <path d="M39.384 12.3076H34.4609V17.2307H39.384V12.3076Z" fill="#631AFF"/>
  <path d="M39.384 7.38452H34.4609V12.3076H39.384V7.38452Z" fill="#211E28"/>
  <path d="M34.4621 51.6924H29.5391V56.6155H34.4621V51.6924Z" fill="#7560F4"/>
  <path d="M34.4621 46.7693H29.5391V51.6924H34.4621V46.7693Z" fill="#631AFF"/>
  <path d="M34.4621 41.8462H29.5391V46.7693H34.4621V41.8462Z" fill="#631AFF"/>
  <path d="M34.4621 36.9231H29.5391V41.8462H34.4621V36.9231Z" fill="#631AFF"/>
  <path d="M34.4621 32H29.5391V36.9231H34.4621V32Z" fill="#631AFF"/>
  <path d="M34.4621 27.0769H29.5391V32H34.4621V27.0769Z" fill="#631AFF"/>
  <path d="M34.4621 22.1538H29.5391V27.0769H34.4621V22.1538Z" fill="#631AFF"/>
  <path d="M34.4621 17.2307H29.5391V22.1538H34.4621V17.2307Z" fill="#631AFF"/>
  <path d="M34.4621 12.3076H29.5391V17.2307H34.4621V12.3076Z" fill="#211E28"/>
  <path d="M29.5403 46.7693H24.6172V51.6924H29.5403V46.7693Z" fill="#7560F4"/>
  <path d="M29.5403 41.8462H24.6172V46.7693H29.5403V41.8462Z" fill="#631AFF"/>
  <path d="M29.5403 36.9231H24.6172V41.8462H29.5403V36.9231Z" fill="#631AFF"/>
  <path d="M29.5403 32H24.6172V36.9231H29.5403V32Z" fill="#631AFF"/>
  <path d="M29.5403 27.0769H24.6172V32H29.5403V27.0769Z" fill="#631AFF"/>
  <path d="M29.5403 22.1538H24.6172V27.0769H29.5403V22.1538Z" fill="#631AFF"/>
  <path d="M29.5403 17.2307H24.6172V22.1538H29.5403V17.2307Z" fill="#631AFF"/>
  <path d="M29.5403 12.3076H24.6172V17.2307H29.5403V12.3076Z" fill="#631AFF"/>
  <path d="M29.5403 7.38452H24.6172V12.3076H29.5403V7.38452Z" fill="#211E28"/>
  <path d="M24.6145 41.8462H19.6914V46.7693H24.6145V41.8462Z" fill="#7560F4"/>
  <path d="M24.6145 36.9231H19.6914V41.8462H24.6145V36.9231Z" fill="#631AFF"/>
  <path d="M24.6145 32H19.6914V36.9231H24.6145V32Z" fill="#631AFF"/>
  <path d="M24.6145 27.0769H19.6914V32H24.6145V27.0769Z" fill="#631AFF"/>
  <path d="M24.6145 22.1538H19.6914V27.0769H24.6145V22.1538Z" fill="#631AFF"/>
  <path d="M24.6145 17.2307H19.6914V22.1538H24.6145V17.2307Z" fill="#631AFF"/>
  <path d="M24.6145 12.3076H19.6914V17.2307H24.6145V12.3076Z" fill="#631AFF"/>
  <path d="M24.6145 7.38452H19.6914V12.3076H24.6145V7.38452Z" fill="#631AFF"/>
  <path d="M24.6145 2.46143H19.6914V7.3845H24.6145V2.46143Z" fill="#211E28"/>
  <path d="M19.6926 36.9231H14.7695V41.8462H19.6926V36.9231Z" fill="#7560F4"/>
  <path d="M19.6926 32H14.7695V36.9231H19.6926V32Z" fill="#631AFF"/>
  <path d="M19.6926 27.0769H14.7695V32H19.6926V27.0769Z" fill="#631AFF"/>
  <path d="M19.6926 22.1538H14.7695V27.0769H19.6926V22.1538Z" fill="#631AFF"/>
  <path d="M19.6926 17.2307H14.7695V22.1538H19.6926V17.2307Z" fill="#631AFF"/>
  <path d="M19.6926 12.3076H14.7695V17.2307H19.6926V12.3076Z" fill="white"/>
  <path d="M19.6926 7.38452H14.7695V12.3076H19.6926V7.38452Z" fill="#631AFF"/>
  <path d="M19.6926 2.46143H14.7695V7.3845H19.6926V2.46143Z" fill="#211E28"/>
  <path d="M14.7707 32H9.84766V36.9231H14.7707V32Z" fill="#7560F4"/>
  <path d="M14.7707 27.0769H9.84766V32H14.7707V27.0769Z" fill="#631AFF"/>
  <path d="M14.7707 22.1538H9.84766V27.0769H14.7707V22.1538Z" fill="#631AFF"/>
  <path d="M14.7707 17.2307H9.84766V22.1538H14.7707V17.2307Z" fill="white"/>
  <path d="M14.7707 12.3076H9.84766V17.2307H14.7707V12.3076Z" fill="white"/>
  <path d="M14.7707 7.38452H9.84766V12.3076H14.7707V7.38452Z" fill="#7560F4"/>
  <path d="M14.7707 2.46143H9.84766V7.3845H14.7707V2.46143Z" fill="#211E28"/>
  <path d="M9.84495 27.0769H4.92188V32H9.84495V27.0769Z" fill="#7560F4"/>
  <path d="M9.84495 22.1538H4.92188V27.0769H9.84495V22.1538Z" fill="#7560F4"/>
  <path d="M9.84495 17.2307H4.92188V22.1538H9.84495V17.2307Z" fill="#7560F4"/>
  <path d="M9.84495 12.3076H4.92188V17.2307H9.84495V12.3076Z" fill="#7560F4"/>
  <path d="M9.84495 7.38452H4.92188V12.3076H9.84495V7.38452Z" fill="#211E28"/>
  <path d="M4.92308 22.1538H0V27.0769H4.92308V22.1538Z" fill="#211E28"/>
  <path d="M4.92308 17.2307H0V22.1538H4.92308V17.2307Z" fill="#211E28"/>
  <path d="M4.92308 12.3076H0V17.2307H4.92308V12.3076Z" fill="#211E28"/>
  </g>
  <defs>
  <clipPath id="clip0_9136_421027">
  <rect width="64" height="64" fill="white"/>
  </clipPath>
  </defs>
  </svg>