<svg width="26" height="26" viewBox="0 0 26 26" fill="none" xmlns="http://www.w3.org/2000/svg">
<g clip-path="url(#clip0_9528_52690)">
<path fill-rule="evenodd" clip-rule="evenodd" d="M13 24.25C19.2132 24.25 24.25 19.2132 24.25 13C24.25 6.7868 19.2132 1.75 13 1.75C6.7868 1.75 1.75 6.7868 1.75 13C1.75 19.2132 6.7868 24.25 13 24.25Z" stroke="black" stroke-width="2"/>
<path d="M11.5455 15.5114V15.3182C11.5492 14.6553 11.608 14.1269 11.7216 13.733C11.839 13.339 12.0095 13.0208 12.233 12.7784C12.4564 12.536 12.7254 12.3163 13.0398 12.1193C13.2746 11.9678 13.4848 11.8106 13.6705 11.6477C13.8561 11.4848 14.0038 11.3049 14.1136 11.108C14.2235 10.9072 14.2784 10.6837 14.2784 10.4375C14.2784 10.1761 14.2159 9.94697 14.0909 9.75C13.9659 9.55303 13.7973 9.40151 13.5852 9.29545C13.3769 9.18939 13.1458 9.13636 12.892 9.13636C12.6458 9.13636 12.4129 9.19129 12.1932 9.30114C11.9735 9.4072 11.7936 9.56629 11.6534 9.77841C11.5133 9.98674 11.4375 10.2462 11.4261 10.5568H9.10795C9.12689 9.79924 9.30871 9.17424 9.65341 8.68182C9.99811 8.18561 10.4545 7.81629 11.0227 7.57386C11.5909 7.32765 12.2178 7.20455 12.9034 7.20455C13.6572 7.20455 14.3239 7.32955 14.9034 7.57955C15.483 7.82576 15.9375 8.18371 16.267 8.65341C16.5966 9.12311 16.7614 9.68939 16.7614 10.3523C16.7614 10.7955 16.6875 11.1894 16.5398 11.5341C16.3958 11.875 16.1932 12.178 15.9318 12.4432C15.6705 12.7045 15.3617 12.9413 15.0057 13.1534C14.7064 13.3314 14.4602 13.517 14.267 13.7102C14.0777 13.9034 13.9356 14.1269 13.8409 14.3807C13.75 14.6345 13.7027 14.947 13.6989 15.3182V15.5114H11.5455ZM12.6705 19.1477C12.2917 19.1477 11.9678 19.0152 11.6989 18.75C11.4337 18.4811 11.303 18.1591 11.3068 17.7841C11.303 17.4129 11.4337 17.0947 11.6989 16.8295C11.9678 16.5644 12.2917 16.4318 12.6705 16.4318C13.0303 16.4318 13.3466 16.5644 13.6193 16.8295C13.892 17.0947 14.0303 17.4129 14.0341 17.7841C14.0303 18.0341 13.964 18.2633 13.8352 18.4716C13.7102 18.6761 13.5455 18.8409 13.3409 18.9659C13.1364 19.0871 12.9129 19.1477 12.6705 19.1477Z" fill="black"/>
</g>
<defs>
<clipPath id="clip0_9528_52690">
<rect width="26" height="26" fill="white"/>
</clipPath>
</defs>
</svg>

