<svg width="32" height="32" viewBox="0 0 32 32" fill="none" xmlns="http://www.w3.org/2000/svg">
<path fill-rule="evenodd" clip-rule="evenodd" d="M29 11H13L7 17V11H3C1.89543 11 1 10.1046 1 9V3C1 1.89543 1.89543 1 3 1H29C30.1046 1 31 1.89543 31 3V9C31 10.1046 30.1046 11 29 11Z" stroke="url(#paint0_linear_8223_95158)" stroke-width="1.5" stroke-linecap="round" stroke-linejoin="round"/>
<path d="M3 15C1.89543 15 1 15.8954 1 17V23C1 24.1046 1.89543 25 3 25H19L25 31V25H29C30.1046 25 31 24.1046 31 23V17C31 15.8954 30.1046 15 29 15H15" stroke="url(#paint1_linear_8223_95158)" stroke-width="1.5" stroke-linecap="round" stroke-linejoin="round"/>
<defs>
<linearGradient id="paint0_linear_8223_95158" x1="16" y1="1" x2="16" y2="17" gradientUnits="userSpaceOnUse">
<stop stop-color="#2200FF"/>
<stop offset="1" stop-color="#9E00FF"/>
</linearGradient>
<linearGradient id="paint1_linear_8223_95158" x1="16" y1="15" x2="16" y2="31" gradientUnits="userSpaceOnUse">
<stop stop-color="#2200FF"/>
<stop offset="1" stop-color="#9E00FF"/>
</linearGradient>
</defs>
</svg>
