<svg width="24" height="24" viewBox="0 0 24 24" fill="none" xmlns="http://www.w3.org/2000/svg">
<path fill-rule="evenodd" clip-rule="evenodd" d="M21.75 8.25H9.75L5.25 12.75V8.25H2.25C1.42157 8.25 0.75 7.57843 0.75 6.75V2.25C0.75 1.42157 1.42157 0.75 2.25 0.75H21.75C22.5784 0.75 23.25 1.42157 23.25 2.25V6.75C23.25 7.57843 22.5784 8.25 21.75 8.25Z" stroke="black" stroke-width="1.5" stroke-linecap="round" stroke-linejoin="round"/>
<path d="M2.25 11.25C1.42157 11.25 0.75 11.9216 0.75 12.75V17.25C0.75 18.0784 1.42157 18.75 2.25 18.75H14.25L18.75 23.25V18.75H21.75C22.5784 18.75 23.25 18.0784 23.25 17.25V12.75C23.25 11.9216 22.5784 11.25 21.75 11.25H11.25" stroke="black" stroke-width="1.5" stroke-linecap="round" stroke-linejoin="round"/>
</svg>
