<svg width="700" height="700" viewBox="0 0 700 700" fill="none" xmlns="http://www.w3.org/2000/svg">
<path fill-rule="evenodd" clip-rule="evenodd" d="M34.1935 676.664H676.664V606.663H180.06C122.555 606.663 69.4579 632.473 34.1935 676.664V676.664ZM688.33 700H11.6616C7.42223 700 3.51531 697.701 1.46025 693.988C-0.58999 690.28 -0.475735 685.743 1.76804 682.149C40.4395 620.279 107.093 583.331 180.053 583.331H688.323C694.777 583.331 699.989 588.558 699.989 594.997V688.328C699.989 694.772 694.777 699.999 688.323 699.999" fill="black"/>
<path fill-rule="evenodd" clip-rule="evenodd" d="M291.664 443.339H315.001V373.339H291.664V443.339ZM326.667 466.67H279.998C273.559 466.67 268.332 461.443 268.332 455.004V361.673C268.332 355.234 273.559 350.007 279.998 350.007H326.667C333.105 350.007 338.333 355.234 338.333 361.673V455.004C338.333 461.443 333.105 466.67 326.667 466.67Z" fill="black"/>
<path fill-rule="evenodd" clip-rule="evenodd" d="M384.995 420.006H408.332V373.338H384.995V420.006ZM419.998 443.338H373.329C366.89 443.338 361.663 438.11 361.663 431.672V361.672C361.663 355.233 366.89 350.006 373.329 350.006H419.998C426.436 350.006 431.664 355.233 431.664 361.672V431.672C431.664 438.11 426.436 443.338 419.998 443.338Z" fill="black"/>
<path fill-rule="evenodd" clip-rule="evenodd" d="M303.33 70.0006H396.667V23.3317H303.33V70.0006ZM408.333 93.3318H291.664C285.225 93.3318 279.998 88.1045 279.998 81.6659V11.6659C279.998 5.22732 285.225 0 291.664 0H408.333C414.771 0 419.999 5.22732 419.999 11.6659V81.6659C419.999 88.1045 414.771 93.3318 408.333 93.3318Z" fill="black"/>
<path fill-rule="evenodd" clip-rule="evenodd" d="M443.326 163.335C417.592 163.335 396.663 184.265 396.663 210.004C396.663 235.738 417.592 256.668 443.326 256.668C469.066 256.668 489.995 235.738 489.995 210.004C489.995 184.265 469.066 163.335 443.326 163.335V163.335ZM443.326 280.004C404.725 280.004 373.326 248.606 373.326 210.004C373.326 171.397 404.725 140.004 443.326 140.004C481.933 140.004 513.326 171.397 513.326 210.004C513.326 248.606 481.933 280.004 443.326 280.004Z" fill="black"/>
<path fill-rule="evenodd" clip-rule="evenodd" d="M419.993 373.328H279.997C260.701 373.328 245 357.627 245 338.33V104.993C245 85.6963 260.701 69.9951 279.997 69.9951H419.993C439.289 69.9951 454.99 85.6963 454.99 104.993V151.661C454.99 158.1 449.768 163.327 443.324 163.327C436.886 163.327 431.658 158.1 431.658 151.661V104.993C431.658 98.564 426.421 93.3267 419.992 93.3267H279.997C273.569 93.3267 268.331 98.564 268.331 104.993V338.33C268.331 344.754 273.569 349.996 279.997 349.996H419.992C426.421 349.996 431.658 344.754 431.658 338.33V268.33C431.658 261.887 436.886 256.66 443.324 256.66C449.768 256.66 454.99 261.887 454.99 268.33V338.33C454.99 357.627 439.289 373.328 419.993 373.328" fill="black"/>
<path fill-rule="evenodd" clip-rule="evenodd" d="M653.331 478.338C640.464 478.338 629.999 488.802 629.999 501.669C629.999 514.536 640.464 525 653.331 525C666.197 525 676.667 514.536 676.667 501.669C676.667 488.802 666.198 478.338 653.331 478.338ZM653.331 548.338C627.596 548.338 606.667 527.403 606.667 501.669C606.667 475.929 627.596 455 653.331 455C679.07 455 700 475.929 700 501.669C700 527.403 679.07 548.338 653.331 548.338Z" fill="black"/>
<path fill-rule="evenodd" clip-rule="evenodd" d="M641.664 480.473C635.226 480.473 629.999 475.246 629.999 468.807V310.474C629.999 288.81 618.099 269.058 598.952 258.916L493.289 202.974C487.595 199.966 485.425 192.897 488.434 187.203C491.457 181.519 498.516 179.33 504.205 182.348L609.872 238.29C636.684 252.478 653.328 280.139 653.328 310.475V468.808C653.328 475.247 648.101 480.474 641.662 480.474" fill="black"/>
<path fill-rule="evenodd" clip-rule="evenodd" d="M641.665 606.666H571.665C565.226 606.666 559.999 601.439 559.999 595V360.074C559.999 337.263 546.58 316.418 525.806 306.977L456.982 275.688C451.115 273.017 448.524 266.112 451.184 260.245C453.855 254.362 460.785 251.786 466.633 254.456L535.451 285.735C564.536 298.949 583.331 328.129 583.331 360.074V583.334H630V534.521C630 528.083 635.227 522.856 641.665 522.856C648.104 522.856 653.331 528.083 653.331 534.521V595C653.331 601.439 648.104 606.666 641.665 606.666" fill="black"/>
<path fill-rule="evenodd" clip-rule="evenodd" d="M244.999 583.333H454.992V560.002H244.999V583.333ZM466.671 606.665H233.333C226.894 606.665 221.667 601.437 221.667 594.999V548.335C221.667 541.891 226.894 536.664 233.333 536.664H466.671C473.109 536.664 478.337 541.891 478.337 548.335V594.999C478.337 601.437 473.109 606.665 466.671 606.665Z" fill="black"/>
<path fill-rule="evenodd" clip-rule="evenodd" d="M291.665 163.336H256.668C250.224 163.336 245.002 158.108 245.002 151.67C245.002 145.231 250.224 140.004 256.668 140.004H291.665C298.104 140.004 303.331 145.231 303.331 151.67C303.331 158.108 298.104 163.336 291.665 163.336Z" fill="black"/>
<path fill-rule="evenodd" clip-rule="evenodd" d="M303.332 233.334H256.668C250.224 233.334 245.002 228.106 245.002 221.668C245.002 215.229 250.224 210.002 256.668 210.002H303.332C309.775 210.002 315.002 215.229 315.002 221.668C315.002 228.106 309.775 233.334 303.332 233.334Z" fill="black"/>
<path fill-rule="evenodd" clip-rule="evenodd" d="M291.665 303.331H256.668C250.224 303.331 245.002 298.103 245.002 291.665C245.002 285.226 250.224 279.999 256.668 279.999H291.665C298.104 279.999 303.331 285.226 303.331 291.665C303.331 298.103 298.104 303.331 291.665 303.331Z" fill="black"/>
</svg>