<svg width="33" height="32" viewBox="0 0 33 32" fill="none" xmlns="http://www.w3.org/2000/svg">
<path fill-rule="evenodd" clip-rule="evenodd" d="M1 8.34661C0.999863 7.52864 1.49784 6.79302 2.25733 6.48928L9.432 3.61995C10.4343 3.21893 11.5562 3.24009 12.5427 3.67861L18.5253 6.33728C19.4716 6.75794 20.5441 6.79522 21.5173 6.44128L28.3173 3.96795C28.9306 3.74475 29.6142 3.83481 30.1488 4.20923C30.6833 4.58364 31.0015 5.19532 31.0013 5.84795V23.5919C31.001 24.4325 30.4752 25.1831 29.6853 25.4706L21.5187 28.4413C20.5455 28.7952 19.4729 28.7579 18.5267 28.3373L12.5427 25.6786C11.5562 25.2401 10.4343 25.2189 9.432 25.6199L3.74267 27.8959C3.12644 28.1424 2.42809 28.0671 1.87855 27.695C1.32902 27.3228 0.999889 26.7023 1 26.0386V8.34661Z" stroke="#000000" stroke-width="2" stroke-linecap="round" stroke-linejoin="round"/>
<path d="M16.5 14.9919C16.7761 14.9919 17 15.2158 17 15.4919" stroke="#000000" stroke-width="2" stroke-linecap="round" stroke-linejoin="round"/>
<path d="M16 15.4919C16 15.2158 16.2239 14.9919 16.5 14.9919" stroke="#000000" stroke-width="2" stroke-linecap="round" stroke-linejoin="round"/>
<path d="M16.5 15.9919C16.2239 15.9919 16 15.7681 16 15.4919" stroke="#000000" stroke-width="2" stroke-linecap="round" stroke-linejoin="round"/>
<path d="M17 15.4919C17 15.7681 16.7761 15.9919 16.5 15.9919" stroke="#000000" stroke-width="2" stroke-linecap="round" stroke-linejoin="round"/>
<path d="M12.5 18.3333C12.7761 18.3333 13 18.5571 13 18.8333" stroke="#000000" stroke-width="2" stroke-linecap="round" stroke-linejoin="round"/>
<path d="M12 18.8333C12 18.5571 12.2239 18.3333 12.5 18.3333" stroke="#000000" stroke-width="2" stroke-linecap="round" stroke-linejoin="round"/>
<path d="M12.5 19.3333C12.2239 19.3333 12 19.1094 12 18.8333" stroke="#000000" stroke-width="2" stroke-linecap="round" stroke-linejoin="round"/>
<path d="M13 18.8333C13 19.1094 12.7761 19.3333 12.5 19.3333" stroke="#000000" stroke-width="2" stroke-linecap="round" stroke-linejoin="round"/>
<path d="M8.5 15.3333C8.77614 15.3333 9 15.5571 9 15.8333" stroke="#000000" stroke-width="2" stroke-linecap="round" stroke-linejoin="round"/>
<path d="M8 15.8333C8 15.5571 8.22386 15.3333 8.5 15.3333" stroke="#000000" stroke-width="2" stroke-linecap="round" stroke-linejoin="round"/>
<path d="M8.5 16.3333C8.22386 16.3333 8 16.1094 8 15.8333" stroke="#000000" stroke-width="2" stroke-linecap="round" stroke-linejoin="round"/>
<path d="M9 15.8333C9 16.1094 8.77614 16.3333 8.5 16.3333" stroke="#000000" stroke-width="2" stroke-linecap="round" stroke-linejoin="round"/>
<path d="M5.5 19.3333C5.77614 19.3333 6 19.5571 6 19.8333" stroke="#000000" stroke-width="2" stroke-linecap="round" stroke-linejoin="round"/>
<path d="M5 19.8333C5 19.5571 5.22386 19.3333 5.5 19.3333" stroke="#000000" stroke-width="2" stroke-linecap="round" stroke-linejoin="round"/>
<path d="M5.5 20.3333C5.22386 20.3333 5 20.1094 5 19.8333" stroke="#000000" stroke-width="2" stroke-linecap="round" stroke-linejoin="round"/>
<path d="M6 19.8333C6 20.1094 5.77614 20.3333 5.5 20.3333" stroke="#000000" stroke-width="2" stroke-linecap="round" stroke-linejoin="round"/>
<path d="M21 10.9919L27 16.9919" stroke="#000000" stroke-width="2" stroke-linecap="round" stroke-linejoin="round"/>
<path d="M21 16.9919L27 10.9919" stroke="#000000" stroke-width="2" stroke-linecap="round" stroke-linejoin="round"/>
</svg>

