<svg width="32" height="32" viewBox="0 0 32 32" fill="none" xmlns="http://www.w3.org/2000/svg">
<path d="M10 14.5001C9.72386 14.5001 9.5 14.2762 9.5 14.0001C9.5 13.7239 9.72386 13.5001 10 13.5001C10.2761 13.5001 10.5 13.7239 10.5 14.0001C10.5 14.2762 10.2761 14.5001 10 14.5001" stroke="black" stroke-width="2" stroke-linecap="round" stroke-linejoin="round"/>
<path d="M22 14.5001C21.7239 14.5001 21.5 14.2762 21.5 14.0001C21.5 13.7239 21.7239 13.5001 22 13.5001C22.2761 13.5001 22.5 13.7239 22.5 14.0001C22.5 14.2762 22.2761 14.5001 22 14.5001" stroke="black" stroke-width="2" stroke-linecap="round" stroke-linejoin="round"/>
<path d="M8 10.0707V10.0707C8.44466 9.40038 9.19558 8.99738 10 8.99738C10.8044 8.99738 11.5553 9.40038 12 10.0707V10.0707" stroke="black" stroke-width="2" stroke-linecap="round" stroke-linejoin="round"/>
<path d="M20 10.0707V10.0707C20.4447 9.40038 21.1956 8.99738 22 8.99738C22.8044 8.99738 23.5553 9.40038 24 10.0707V10.0707" stroke="black" stroke-width="1.5" stroke-linecap="round" stroke-linejoin="round"/>
<path fill-rule="evenodd" clip-rule="evenodd" d="M16 31.0001C24.2843 31.0001 31 24.2843 31 16.0001C31 7.71579 24.2843 1.00006 16 1.00006C7.71573 1.00006 1 7.71579 1 16.0001C1 24.2843 7.71573 31.0001 16 31.0001Z" stroke="black" stroke-width="2" stroke-linecap="round" stroke-linejoin="round"/>
<path d="M24.064 24.0001C22.5448 20.9342 19.419 18.9945 15.9973 18.9945C12.5757 18.9945 9.44984 20.9342 7.93066 24.0001" stroke="black" stroke-width="1.5" stroke-linecap="round" stroke-linejoin="round"/>
</svg>

