<svg xmlns="http://www.w3.org/2000/svg" fill="none" viewBox="0 0 14 14" height="14" width="14">
  <g id="lock-encryption-check-active--lock-encryption-check-active-padlock-security-action">
    <path id="Subtract" fill="#d7e0ff" fill-rule="evenodd" d="M2.54056 4.2869c0.83634 -0.03836 1.6851 -0.05838 2.62106 -0.05838 0.93596 0 1.78471 0.02002 2.62105 0.05838 0.96158 0.04411 1.75276 0.79012 1.8834 1.7438 0.08602 0.62797 0.15716 1.27159 0.15716 1.92711 0 0.65551 -0.07114 1.29913 -0.15716 1.92711 -0.01335 0.09747 -0.03361 0.19278 -0.06024 0.28538 -0.61156 -0.22512 -1.32496 -0.0981 -1.82408 0.3859 -0.31194 0.3025 -0.48708 0.6929 -0.52424 1.0941 -0.66872 0.0242 -1.35499 0.0368 -2.09589 0.0368 -0.93596 0 -1.78472 -0.02 -2.62106 -0.0584 -0.96157 -0.0441 -1.752763 -0.7901 -1.883397 -1.74378C0.571144 9.25694 0.5 8.61332 0.5 7.95781c0 -0.65552 0.071144 -1.29914 0.157163 -1.92711 0.130634 -0.95368 0.921827 -1.69969 1.883397 -1.7438Z" clip-rule="evenodd" stroke-width="1"></path>
    <path id="Intersect" stroke="#4147d5" stroke-linecap="round" stroke-linejoin="round" d="M6.87337 11.6629c-0.54789 0.016 -1.11192 0.0242 -1.71175 0.0242 -0.93596 0 -1.78472 -0.02 -2.62106 -0.0584 -0.96157 -0.0441 -1.752763 -0.7901 -1.883397 -1.74378C0.571144 9.25694 0.5 8.61332 0.5 7.95781c0 -0.65552 0.071144 -1.29914 0.157163 -1.92711 0.130634 -0.95368 0.921827 -1.69969 1.883397 -1.7438 0.83634 -0.03836 1.6851 -0.05838 2.62106 -0.05838 0.93596 0 1.78471 0.02002 2.62105 0.05838 0.96158 0.04411 1.75276 0.79012 1.8834 1.7438 0.08602 0.62797 0.15716 1.27159 0.15716 1.92711 0 0.56922 -0.05365 1.12947 -0.12409 1.67829" stroke-width="1"></path>
    <path id="Vector" stroke="#4147d5" stroke-linecap="round" stroke-linejoin="round" d="M7.77228 4.22929V3.1105c0 -0.69234 -0.27504 -1.35634 -0.7646 -1.8459C6.51811 0.775034 5.85412 0.5 5.16177 0.5s-1.35634 0.275034 -1.8459 0.7646c-0.48957 0.48956 -0.7646 1.15356 -0.7646 1.8459v1.11879" stroke-width="1"></path>
    <path id="Vector_2" stroke="#4147d5" stroke-linecap="round" stroke-linejoin="round" d="M9 11.8125 10.6364 13.5c0.77 -2.2119 1.4113 -3.1825 2.8636 -4.5" stroke-width="1"></path>
  </g>
</svg>