<svg width="16" height="16" viewBox="0 0 16 16" fill="none" xmlns="http://www.w3.org/2000/svg">
<g clip-path="url(#clip0_2349_81344)">
<path d="M11.236 9.6L9.6 6.4L6.4 4.764L9.6 3.2L11.2 0L12.8 3.2L16 4.8L12.8 6.4L11.236 9.6ZM3.21792 6.4L4 4.8L5.6 4L4 3.2L3.2 1.6L2.4 3.2L0.8 3.98208L2.4 4.8L3.21792 6.4ZM12.8 9.6L12 11.2L10.4 11.9821L12 12.8L12.8179 14.4L13.6 12.8L15.2 12L13.6 11.2L12.8 9.6ZM4.8 6.4L3.2 9.6L0 11.164L3.2 12.8L4.836 16L6.4 12.8L9.6 11.2L6.4 9.6L4.8 6.4Z" fill="#E48900"/>
</g>
<defs>
<clipPath id="clip0_2349_81344">
<rect width="16" height="16" fill="white"/>
</clipPath>
</defs>
</svg>
