<svg width="48" height="48" viewBox="0 0 48 48" fill="none" xmlns="http://www.w3.org/2000/svg">
<path fill-rule="evenodd" clip-rule="evenodd" d="M8.99805 16.5C12.3118 16.5 14.998 13.8137 14.998 10.5C14.998 7.18629 12.3118 4.5 8.99805 4.5C5.68434 4.5 2.99805 7.18629 2.99805 10.5C2.99805 13.8137 5.68434 16.5 8.99805 16.5Z" stroke="#000" stroke-width="2" stroke-linecap="round" stroke-linejoin="round"/>
<path d="M11.65 19.982C9.34544 19.1139 6.76157 19.4315 4.73579 20.8319C2.71002 22.2323 1.50007 24.5373 1.49805 27V31.5H4.49805L5.99805 43.5H12L13.5 31.5H16.5" stroke="#000" stroke-width="2" stroke-linecap="round" stroke-linejoin="round"/>
<path fill-rule="evenodd" clip-rule="evenodd" d="M38.998 16.5C42.3118 16.5 44.998 13.8137 44.998 10.5C44.998 7.18629 42.3118 4.5 38.998 4.5C35.6843 4.5 32.998 7.18629 32.998 10.5C32.998 13.8137 35.6843 16.5 38.998 16.5Z" stroke="#000" stroke-width="2" stroke-linecap="round" stroke-linejoin="round"/>
<path d="M38.038 19.56C38.3564 19.5198 38.6771 19.4997 38.998 19.5C43.1401 19.5 46.498 22.8579 46.498 27V31.5H43.498L41.998 43.5H36L34.5 31.5H31.5" stroke="#000" stroke-width="2" stroke-linecap="round" stroke-linejoin="round"/>
<path fill-rule="evenodd" clip-rule="evenodd" d="M28.0585 12L17.3385 22.72C17.124 22.9347 17.0601 23.2576 17.1766 23.5378C17.2931 23.8181 17.567 24.0005 17.8705 24H22.0585V33L32.7785 22.28C32.9927 22.0655 33.0568 21.7432 32.9408 21.4631C32.8248 21.183 32.5516 21.0003 32.2485 21H28.0585V12Z" stroke="#000" stroke-width="2" stroke-linecap="round" stroke-linejoin="round"/>
</svg>
