<svg xmlns="http://www.w3.org/2000/svg" width="24" height="24" fill="none"><g clip-path="url(#a)"><path fill="#F69605" fill-rule="evenodd" stroke="#F69605" stroke-linecap="round" stroke-linejoin="round" stroke-width="1.5" d="m12.713 1.442 3.273 6.544 6.295.63a.797.797 0 0 1 .486 1.357l-5.189 5.186 1.924 7.048a.798.798 0 0 1-1.126.923L12 19.941l-6.376 3.192A.796.796 0 0 1 4.5 22.21l1.922-7.05-5.189-5.19a.796.796 0 0 1 .486-1.357l6.296-.63 3.272-6.544a.796.796 0 0 1 1.425.003Z" clip-rule="evenodd"/></g><defs><clipPath id="a"><path fill="#fff" d="M0 0h24v24H0z"/></clipPath></defs></svg>

