<svg width="21" height="22" viewBox="0 0 21 22" fill="none" xmlns="http://www.w3.org/2000/svg">
<path fill-rule="evenodd" clip-rule="evenodd" d="M11.1379 1.55L14.0657 7.35037L19.7007 7.90862C19.9746 7.93139 20.2102 8.11141 20.3042 8.36971C20.3982 8.62801 20.3334 8.91739 20.1382 9.11087L15.5007 13.7072L17.22 19.953C17.2919 20.2236 17.1983 20.5112 16.981 20.6877C16.7637 20.8643 16.463 20.8969 16.2129 20.7711L10.5 17.9422L4.79503 20.7676C4.54489 20.8934 4.24423 20.8608 4.02692 20.6842C3.8096 20.5077 3.71605 20.2201 3.7879 19.9495L5.50728 13.7037L0.866278 9.10737C0.671049 8.91388 0.606205 8.62451 0.7002 8.36621C0.794194 8.10791 1.02985 7.92789 1.30378 7.90512L6.93878 7.34687L9.86215 1.55C9.98474 1.31059 10.2311 1.15997 10.5 1.15997C10.769 1.15997 11.0153 1.31059 11.1379 1.55Z" fill="#FAE54E" stroke="#5C5589" stroke-width="1.5" stroke-linecap="round" stroke-linejoin="round"/>
</svg>

