<svg viewBox="0 0 24 25" fill="none" xmlns="http://www.w3.org/2000/svg">
<path d="M14.25 22.82C17.564 22.82 19.5 20.2414 19.5 17.06C19.4932 16.5554 19.4162 16.054 19.271 15.5691C21.5343 15.3228 23.2457 13.4867 23.25 11.3C23.25 7.69997 21 6.97997 15.75 4.09997C10.5 1.21997 8.25 0.499971 7.5 1.93997C6.75 3.37997 8.25 4.81997 11.25 6.25997L15.515 8.30669C14.7041 9.1087 14.2504 10.1823 14.25 11.3C14.25 11.3249 14.257 11.348 14.258 11.3729C14.0072 11.333 13.754 11.3086 13.5 11.3H6.75C3.43629 11.3 0.75 13.8788 0.75 17.06C0.75 20.2411 3.43629 22.82 6.75 22.82H10.5" stroke="#5C5589" stroke-width="1.5" stroke-linecap="round" stroke-linejoin="round"/>
<path d="M5.25 17.0601C8.25 17.0601 9.75 19.9401 8.25 22.8201" stroke="#5C5589" stroke-width="1.5" stroke-linecap="round" stroke-linejoin="round"/>
<path d="M14.25 22.8201H18.75" stroke="#5C5589" stroke-width="1.5" stroke-linecap="round" stroke-linejoin="round"/>
<path d="M19.875 10.5801C20.0821 10.5801 20.25 10.7413 20.25 10.9401" stroke="#5C5589" stroke-width="1.5" stroke-linecap="round" stroke-linejoin="round"/>
<path d="M19.5 10.9401C19.5 10.7413 19.6679 10.5801 19.875 10.5801" stroke="#5C5589" stroke-width="1.5" stroke-linecap="round" stroke-linejoin="round"/>
<path d="M19.875 11.2999C19.6679 11.2999 19.5 11.1388 19.5 10.9399" stroke="#5C5589" stroke-width="1.5" stroke-linecap="round" stroke-linejoin="round"/>
<path d="M20.25 10.9399C20.25 11.1388 20.0821 11.2999 19.875 11.2999" stroke="#5C5589" stroke-width="1.5" stroke-linecap="round" stroke-linejoin="round"/>
</svg>
