<svg width="24" height="24" viewBox="0 0 24 24" fill="none" xmlns="http://www.w3.org/2000/svg">
<g clip-path="url(#clip0_8778_418137)">
<path d="M21.75 18.75H11.25L5.25 23.25V18.75H2.25C1.85218 18.75 1.47064 18.592 1.18934 18.3107C0.908035 18.0294 0.75 17.6478 0.75 17.25V2.25C0.75 1.85218 0.908035 1.47064 1.18934 1.18934C1.47064 0.908035 1.85218 0.75 2.25 0.75H21.75C22.1478 0.75 22.5294 0.908035 22.8107 1.18934C23.092 1.47064 23.25 1.85218 23.25 2.25V17.25C23.25 17.6478 23.092 18.0294 22.8107 18.3107C22.5294 18.592 22.1478 18.75 21.75 18.75Z" stroke="black" stroke-width="1.5" stroke-linecap="round" stroke-linejoin="round"/>
<path d="M3.70496 13C3.37496 13 3.20996 12.8387 3.20996 12.516C3.20996 12.2007 3.37496 12.043 3.70496 12.043H5.04696V6.554L4.01296 7.214C3.87363 7.302 3.74163 7.32767 3.61696 7.291C3.49963 7.247 3.40796 7.17 3.34196 7.06C3.28329 6.95 3.26496 6.83267 3.28696 6.708C3.31629 6.576 3.40063 6.466 3.53996 6.378L5.05796 5.421C5.18263 5.34767 5.29996 5.289 5.40996 5.245C5.52729 5.19367 5.63729 5.168 5.73996 5.168C5.86463 5.168 5.96729 5.20467 6.04796 5.278C6.13596 5.35133 6.17996 5.465 6.17996 5.619V12.043H7.41196C7.74926 12.043 7.91796 12.2007 7.91796 12.516C7.91796 12.8387 7.74926 13 7.41196 13H3.70496ZM11.8957 13.099C10.9937 13.099 10.3044 12.758 9.82766 12.076C9.35836 11.3867 9.12366 10.4003 9.12366 9.117C9.12366 7.81167 9.35836 6.82533 9.82766 6.158C10.3044 5.48333 10.9937 5.146 11.8957 5.146C12.805 5.146 13.4944 5.48333 13.9637 6.158C14.433 6.82533 14.6677 7.808 14.6677 9.106C14.6677 10.3967 14.4294 11.3867 13.9527 12.076C13.4834 12.758 12.7977 13.099 11.8957 13.099ZM11.8957 12.153C12.453 12.153 12.8674 11.9073 13.1387 11.416C13.41 10.9173 13.5457 10.1473 13.5457 9.106C13.5457 8.05733 13.41 7.29467 13.1387 6.818C12.8747 6.334 12.4604 6.092 11.8957 6.092C11.3384 6.092 10.924 6.334 10.6527 6.818C10.3814 7.302 10.2457 8.06467 10.2457 9.106C10.2457 10.1473 10.3814 10.9173 10.6527 11.416C10.924 11.9073 11.3384 12.153 11.8957 12.153Z" fill="black"/>
<path d="M18.4375 13.1094C17.849 13.1094 17.3477 12.9492 16.9336 12.6289C16.5195 12.306 16.2031 11.8385 15.9844 11.2266C15.7656 10.612 15.6563 9.86979 15.6563 9C15.6563 8.13542 15.7656 7.39714 15.9844 6.78516C16.2057 6.17057 16.5234 5.70182 16.9375 5.37891C17.3542 5.05339 17.8542 4.89062 18.4375 4.89062C19.0208 4.89062 19.5195 5.05339 19.9336 5.37891C20.3503 5.70182 20.668 6.17057 20.8867 6.78516C21.1081 7.39714 21.2188 8.13542 21.2188 9C21.2188 9.86979 21.1094 10.612 20.8906 11.2266C20.6719 11.8385 20.3555 12.306 19.9414 12.6289C19.5273 12.9492 19.026 13.1094 18.4375 13.1094ZM18.4375 12.25C19.0208 12.25 19.474 11.9687 19.7969 11.4062C20.1198 10.8437 20.2813 10.0417 20.2813 9C20.2813 8.30729 20.207 7.71745 20.0586 7.23047C19.9128 6.74349 19.7018 6.3724 19.4258 6.11719C19.1523 5.86198 18.8229 5.73437 18.4375 5.73437C17.8594 5.73437 17.4076 6.01953 17.082 6.58984C16.7565 7.15755 16.5938 7.96094 16.5938 9C16.5938 9.69271 16.6667 10.2812 16.8125 10.7656C16.9583 11.25 17.168 11.6185 17.4414 11.8711C17.7174 12.1237 18.0495 12.25 18.4375 12.25Z" fill="black"/>
</g>
<defs>
<clipPath id="clip0_8778_418137">
<rect width="24" height="24" fill="white"/>
</clipPath>
</defs>
</svg>