<svg xmlns="http://www.w3.org/2000/svg" width="36" height="36" viewBox="0 0 2500 2500" version="1.1">
<path d="M 1240.500 95.557 C 1239.400 95.811, 1236.025 96.504, 1233 97.095 C 1225.023 98.655, 1212.519 105.011, 1204.736 111.461 C 1192.871 121.295, 1183.480 137.346, 1181.018 152 C 1180.263 156.497, 1180.015 191.933, 1180.213 267 L 1180.500 375.500 1183.324 383.490 C 1190.288 403.199, 1205.126 418.629, 1224.721 426.543 C 1257.159 439.643, 1296.277 423.935, 1311.992 391.500 C 1319.212 376.597, 1319 380.486, 1319 263 C 1319 170.879, 1318.804 156.965, 1317.411 150.208 C 1312.445 126.116, 1293.379 105.353, 1269.500 98.030 C 1262.767 95.966, 1245.204 94.468, 1240.500 95.557 M 295.500 485.566 C 277.425 489.548, 260.312 501.847, 250.600 517.835 C 243.991 528.715, 240.990 539.979, 241.017 553.799 C 241.041 565.630, 243.153 574.886, 248.137 585 C 252.322 593.493, 252.391 593.566, 330.913 672.077 C 407.936 749.090, 409.662 750.735, 417.652 754.737 C 429.232 760.537, 438.478 762.382, 452.890 761.770 C 470.912 761.004, 483.155 755.939, 496.559 743.703 C 522.808 719.741, 526.363 678.995, 504.690 650.500 C 500.576 645.090, 368.682 512.711, 358.071 503.341 C 343.227 490.233, 331.174 485.180, 313 484.448 C 305.803 484.157, 300.298 484.509, 295.500 485.566 M 2179.500 484.557 C 2178.400 484.811, 2175.025 485.504, 2172 486.095 C 2163.383 487.780, 2151.346 494.092, 2143 501.302 C 2129.163 513.256, 1994.495 649.263, 1990.815 655 C 1977.741 675.383, 1976.330 702.242, 1987.191 724 C 1990.585 730.800, 1993.241 734.305, 2000.467 741.523 C 2010.968 752.011, 2020.918 757.733, 2033.542 760.542 C 2044.041 762.877, 2061.761 762.176, 2071 759.058 C 2086.437 753.849, 2085.937 754.295, 2166.819 673.623 C 2248.349 592.304, 2249.742 590.748, 2254.632 575.500 C 2258.028 564.913, 2258.857 549.602, 2256.607 539.035 C 2251.381 514.486, 2231.132 493.022, 2207 486.449 C 2201.479 484.946, 2183.241 483.690, 2179.500 484.557 M 1303 627.537 C 1289.603 629.414, 1275.562 633.212, 1263.155 638.315 C 1257.295 640.725, 1212.528 661.962, 1163.674 685.508 L 1074.849 728.320 1044.174 713.266 C 1005.232 694.154, 999.883 692.021, 981 688.077 C 944.070 680.362, 906.348 685.265, 872.694 702.153 C 847.720 714.686, 827.982 731.557, 811.452 754.500 C 803.811 765.106, 779.251 813.330, 773.765 828.500 C 767.524 845.758, 763.269 863.022, 761.531 878.144 L 760.883 883.789 733.654 870.476 C 718.678 863.155, 703.663 856.234, 700.286 855.097 C 682.309 849.040, 660.534 851.216, 644.500 860.671 C 632.523 867.733, 494.075 962.127, 488.997 966.692 C 479.081 975.608, 472.098 987.286, 468.447 1001.058 C 465.362 1012.693, 466.145 1022.969, 474.404 1079.309 C 478.582 1107.803, 482 1132.151, 482 1133.414 C 482 1135.268, 470.208 1144.838, 420.770 1183.105 C 387.094 1209.172, 356.949 1232.649, 353.782 1235.276 C 343.783 1243.571, 335.546 1256.688, 331.691 1270.454 C 329.864 1276.981, 329.662 1282.211, 328.954 1341.500 C 328.534 1376.700, 328.147 1415.198, 328.095 1427.052 L 328 1448.603 273.355 1483.487 C 243.300 1502.673, 216.521 1520.101, 213.846 1522.216 C 199.479 1533.572, 189 1555.737, 189 1574.767 C 189 1581.142, 203.388 1735.407, 204.972 1746.013 C 207.659 1764.008, 218.071 1781.241, 232.461 1791.510 C 236.312 1794.257, 278.680 1815.639, 336.671 1844.099 C 390.417 1870.477, 434.536 1892.203, 434.713 1892.380 C 434.889 1892.556, 364.489 1982.439, 278.267 2092.119 C 192.045 2201.799, 120.242 2293.214, 118.703 2295.263 C 114.368 2301.039, 109.140 2312.840, 107.511 2320.529 C 104.370 2335.357, 106.360 2351.726, 112.978 2365.508 C 117.898 2375.755, 123.426 2382.654, 132.246 2389.555 C 152.481 2405.388, 177.058 2409.104, 201.304 2399.996 C 209.594 2396.882, 221.018 2388.912, 226.761 2382.235 C 229.474 2379.081, 304.738 2283.575, 394.014 2170 C 483.290 2056.425, 557.852 1961.631, 559.708 1959.346 L 563.083 1955.193 592.291 1969.484 C 635.514 1990.632, 656.557 1998.457, 686.538 2004.527 C 708.166 2008.906, 723.643 2010.347, 749 2010.343 C 786.326 2010.336, 817.269 2005.076, 851.211 1992.969 C 925.349 1966.522, 988.247 1911.311, 1022.834 1842.322 C 1028.595 1830.830, 1209.207 1435.083, 1213.749 1424 C 1223.160 1401.034, 1229.778 1375.478, 1233.687 1347 C 1236.089 1329.507, 1236.079 1288.365, 1233.668 1271 C 1227.598 1227.271, 1214.021 1187.448, 1193.538 1153.293 C 1188.988 1145.707, 1185.319 1139.453, 1185.383 1139.396 C 1186.933 1138.012, 1579.727 948.397, 1584.688 946.637 C 1606.813 938.790, 1634.412 938.802, 1656.312 946.670 C 1678.040 954.476, 1697.418 968.831, 1709.235 985.875 L 1712.268 990.250 1711.640 1003.875 C 1711.295 1011.369, 1710.966 1049.225, 1710.910 1088 C 1710.800 1164.011, 1710.713 1162.557, 1716.135 1175.500 C 1719.188 1182.790, 1726.220 1193, 1731.713 1198.117 C 1734.346 1200.571, 1759.563 1218.047, 1787.750 1236.953 L 1839 1271.327 1839.025 1274.914 C 1839.039 1276.886, 1837.617 1306.281, 1835.866 1340.236 C 1832.769 1400.288, 1832.728 1402.210, 1834.385 1410.736 C 1836.787 1423.094, 1843.101 1435.741, 1851.180 1444.379 C 1855.188 1448.663, 1881.100 1469.337, 1922 1500.884 C 1958.266 1528.855, 1987.039 1551.741, 1987.732 1553.164 C 1990.877 1559.629, 1992.365 1570.551, 1992.342 1587 C 1992.321 1601.731, 1992.030 1604.572, 1989.625 1613.500 C 1986.394 1625.498, 1977.973 1643.035, 1971.103 1652.072 C 1964.387 1660.907, 1952.430 1672.115, 1943.674 1677.782 C 1939.728 1680.336, 1916.025 1692.399, 1891 1704.590 C 1517.289 1886.642, 1257.489 2013.756, 1253.387 2016.560 C 1250.575 2018.482, 1246.204 2022.096, 1243.673 2024.590 C 1239.934 2028.277, 1219.840 2053.323, 1192.502 2088.374 C 1190.303 2091.193, 1153.819 2137.825, 1111.426 2192 C 1069.034 2246.175, 1032.707 2292.788, 1030.699 2295.585 C 1021.444 2308.479, 1017.502 2322.297, 1018.313 2339 C 1019.616 2365.823, 1034.279 2387.345, 1059.194 2399.004 C 1083.547 2410.400, 1115.668 2404.972, 1134.720 2386.240 C 1138.491 2382.533, 1165.768 2348.563, 1195.337 2310.750 C 1224.905 2272.937, 1249.271 2242, 1249.483 2242 C 1249.696 2242, 1274.038 2272.938, 1303.577 2310.750 C 1333.116 2348.563, 1360.382 2382.533, 1364.168 2386.240 C 1369.412 2391.375, 1373.250 2394.032, 1380.276 2397.394 C 1392.636 2403.308, 1398.161 2404.513, 1412.500 2404.422 C 1427.200 2404.329, 1436.832 2401.558, 1448.131 2394.170 C 1469.693 2380.070, 1480.245 2360.720, 1480.397 2335 C 1480.497 2318.069, 1476.466 2306.394, 1465.542 2291.973 C 1463.240 2288.933, 1433.774 2251.207, 1400.063 2208.138 C 1362.271 2159.854, 1339.127 2129.473, 1339.700 2128.900 C 1341.035 2127.565, 1869.236 1870, 1870.638 1870 C 1871.281 1870, 1960.124 1982.838, 2068.069 2120.750 C 2176.013 2258.662, 2267.396 2375.173, 2271.141 2379.661 C 2287.885 2399.728, 2313.251 2408.639, 2338.792 2403.427 C 2353.229 2400.481, 2369.796 2390.322, 2378.983 2378.783 C 2391.379 2363.215, 2396.684 2340.333, 2392.489 2320.529 C 2390.859 2312.836, 2385.628 2301.030, 2381.297 2295.269 C 2379.758 2293.224, 2293.116 2182.471, 2188.757 2049.152 L 1999.014 1806.753 2007.757 1801.758 C 2072.563 1764.727, 2117.514 1698.955, 2129.585 1623.500 C 2131.762 1609.889, 2132.552 1577.229, 2131.063 1562.359 C 2129.764 1549.383, 2126.057 1529.480, 2122.895 1518.500 C 2116.884 1497.632, 2106.884 1475.057, 2099.121 1464.833 C 2093.465 1457.384, 2091.823 1456.054, 2021 1401.511 C 1995.425 1381.816, 1974.363 1365.594, 1974.196 1365.463 C 1974.029 1365.333, 1975.267 1339.119, 1976.946 1307.210 C 1981.329 1223.943, 1981.213 1221.054, 1972.812 1204.271 C 1964.844 1188.352, 1961.758 1185.814, 1902.578 1146.500 L 1849.891 1111.500 1850.196 1035 L 1850.500 958.500 1848.148 951.500 C 1839.644 926.192, 1813.966 889.680, 1788.500 866.684 C 1749.637 831.591, 1702.592 809.740, 1652.500 803.515 C 1604.438 797.543, 1562.215 803.975, 1515.882 824.327 L 1512.265 825.916 1510.565 814.708 C 1506.722 789.370, 1500.772 771.500, 1486.192 741.501 C 1468.254 704.592, 1461.967 694.531, 1446.881 678.591 C 1428.740 659.422, 1410.001 646.733, 1385.409 636.964 C 1361.277 627.378, 1329.820 623.779, 1303 627.537 M 1317.540 766.437 C 1311.578 768.653, 1233.076 806.411, 1233.035 807.082 C 1232.967 808.210, 1367.322 874.078, 1368.091 873.294 C 1369.771 871.582, 1373.064 857.060, 1373.600 849 C 1374.261 839.046, 1372.500 828.620, 1368.418 818.329 C 1364.678 808.899, 1349.297 778.255, 1346.391 774.446 C 1340.719 767.009, 1326.569 763.081, 1317.540 766.437 M 942.344 824.095 C 936.743 825.131, 931.166 828.126, 927.320 832.162 C 923.348 836.332, 905.808 871.741, 902.386 882.500 C 895.669 903.616, 899.614 927.295, 913.246 947.676 C 921.746 960.385, 928.700 965.327, 959 980.193 C 973.575 987.344, 1005.712 1003.301, 1030.415 1015.653 L 1075.331 1038.111 1149.915 1001.918 C 1190.937 982.012, 1226.071 964.934, 1227.992 963.967 L 1231.484 962.208 1133.492 913.288 C 998.678 845.985, 954.098 824.230, 950 823.742 C 948.075 823.513, 944.630 823.672, 942.344 824.095 M 648.924 1025.152 C 629.441 1038.348, 612.955 1049.675, 612.290 1050.322 C 611.345 1051.242, 612.742 1062.789, 618.660 1103 C 627.378 1162.226, 628.004 1171.490, 624.136 1184 C 619.455 1199.136, 612.398 1209.715, 600.228 1219.838 C 596.484 1222.952, 565.256 1247.295, 530.832 1273.934 L 468.242 1322.369 467.584 1404.434 C 467.202 1452.066, 466.475 1490.276, 465.852 1495.500 C 463.959 1511.377, 457.600 1524.386, 446.050 1536.015 C 440.727 1541.373, 429.759 1548.816, 387.500 1575.746 C 358.900 1593.972, 334.652 1609.511, 333.615 1610.277 C 331.775 1611.637, 331.819 1612.616, 335.421 1650.586 C 337.452 1671.988, 339.427 1689.817, 339.810 1690.204 C 340.193 1690.590, 391.580 1715.937, 454.004 1746.528 C 516.427 1777.120, 583.925 1810.267, 604 1820.189 C 660.558 1848.141, 682.640 1858.525, 693.500 1862.276 C 735.428 1876.757, 781.366 1873.976, 821.575 1854.521 C 851.101 1840.235, 876.749 1816.723, 893.875 1788.242 C 898.230 1780.999, 1076.571 1391.465, 1084.214 1372.500 C 1102.320 1327.578, 1100.693 1279.380, 1079.588 1235.398 C 1065.121 1205.249, 1041.214 1179.471, 1012.271 1162.813 C 1007.746 1160.208, 937.321 1125.378, 855.771 1085.413 C 774.222 1045.447, 702.291 1010.141, 695.924 1006.954 L 684.348 1001.159 648.924 1025.152" stroke="none" fill="#000" fill-rule="evenodd"></path>
</svg>
