<svg width="700" height="700" viewBox="0 0 700 700" fill="none" xmlns="http://www.w3.org/2000/svg">
<path d="M349.998 0.00238001C312.498 0.00238001 274.624 -0.215251 244.356 5.98462C229.228 9.08738 215.752 13.7526 205.127 22.1449C195.584 29.684 189.038 41.068 187.788 54.1039C198.234 49.0146 208.234 44.9352 217.258 42.0223C219.289 41.3359 221.393 40.9006 223.53 40.75H223.748C227.135 40.5714 230.528 41.0904 233.709 42.2623H233.759L233.781 42.2846C233.781 42.2846 272.81 57.0063 314.663 75.538L315.104 75.711L349.998 89.6509L384.886 75.711C427.001 57.0335 466.209 42.289 466.209 42.289L466.232 42.2667H466.276C469.457 41.0892 472.85 40.5758 476.237 40.7544H476.46C478.598 40.9051 480.707 41.3348 482.733 42.0267C491.762 44.9398 501.773 49.019 512.226 54.1139C510.976 41.0669 504.413 29.6821 494.871 22.1434C484.246 13.7504 470.797 9.08522 455.664 5.98317C425.401 -0.216638 387.5 0.000935853 350 0.000935853L349.998 0.00238001ZM268.162 25.0028C268.341 24.9972 268.519 24.9972 268.698 25.0028H431.198C438.173 24.9191 440.026 34.5843 433.519 37.09L352.219 68.2676C350.796 68.8033 349.223 68.8033 347.8 68.2676L266.5 37.09C260.25 34.7573 261.51 25.5663 268.162 25.0028ZM224.412 53.2289C223.313 53.307 222.23 53.5303 221.187 53.8874C182.343 66.4043 126.081 97.1695 80.5612 174.765C35.0541 252.355 0.0198582 376.025 0.0198582 574.971C-0.0080432 581.874 5.56672 587.494 12.4696 587.522H74.9924C81.2591 587.499 86.5381 582.845 87.3472 576.634L124.997 387.488C137.692 369.592 150.366 351.668 163.156 333.849C177.056 315.874 187.96 275.868 187.96 229.846C187.96 213.446 186.654 197.853 184.271 183.724C183.579 180.074 186.208 176.625 189.913 176.33C193.2 176.034 196.146 178.344 196.654 181.603C199.16 196.469 200.51 212.775 200.51 229.847C200.51 277.76 190.226 319.263 173.022 341.517C170.321 345.206 162.497 355.167 162.497 355.167V624.971H537.497V355.167C537.497 355.167 529.673 345.211 526.972 341.517C509.768 319.263 499.484 277.755 499.484 229.847C499.484 212.777 500.84 196.471 503.34 181.603C503.842 178.344 506.794 176.034 510.081 176.33C513.786 176.626 516.415 180.074 515.723 183.729C513.345 197.859 512.034 213.451 512.034 229.846C512.034 275.868 522.938 315.874 536.838 333.849C549.634 351.668 562.301 369.592 574.997 387.488L612.642 576.62C613.452 582.831 618.731 587.485 624.997 587.507H687.52C694.423 587.479 699.998 581.86 699.97 574.957C699.97 376.025 664.941 252.352 619.428 174.751C573.916 97.1651 517.654 66.4003 478.803 53.8844C477.765 53.5217 476.677 53.304 475.583 53.2259C473.887 53.1366 472.196 53.3933 470.6 53.9849C470.6 53.9849 431.677 68.6394 389.958 87.1382L349.997 103.104L310.03 87.1382C268.317 68.6394 229.388 53.9791 229.388 53.9791C227.798 53.3932 226.107 53.1365 224.411 53.2258L224.412 53.2289ZM312.448 156.111C315.958 156.099 318.793 158.973 318.72 162.483C318.72 238.875 293.424 314.457 293.424 314.457C291.081 322.951 278.324 318.709 281.533 310.501C281.533 310.501 306.264 236.085 306.264 162.47C306.197 158.999 308.971 156.136 312.442 156.097L312.448 156.111ZM387.542 156.111C391.013 156.15 393.786 159.012 393.719 162.483C393.719 236.094 418.451 310.514 418.451 310.514C421.665 318.717 408.903 322.964 406.559 314.471C406.559 314.471 381.264 238.884 381.264 162.497C381.197 158.987 384.026 156.113 387.536 156.124L387.542 156.111ZM277.096 437.472H422.896C426.367 437.461 429.185 440.273 429.169 443.744C429.169 476.005 452.684 501.508 481.194 501.508C484.632 501.497 487.433 504.248 487.467 507.686V571.727C488.231 580.761 474.252 580.761 475.017 571.727V513.74C442.59 510.007 419.554 482.395 416.964 450.018H283.024C280.429 482.395 257.398 510.007 224.966 513.74V571.727C225.73 580.761 211.751 580.761 212.516 571.727V507.686C212.555 504.254 215.356 501.497 218.788 501.508C247.298 501.508 270.814 476.001 270.814 443.744C270.803 440.273 273.615 437.455 277.086 437.472H277.096ZM3.711 600.003C1.65743 600.003 0 601.638 0 603.692V633.792C0 635.846 1.65743 637.503 3.711 637.503H71.2895C73.3431 637.503 75.0005 635.846 75.0005 633.792V603.692C75.0005 601.638 73.3431 600.003 71.2895 600.003H3.711ZM628.71 600.003C626.657 600.003 624.999 601.638 624.999 603.692V633.792C624.999 635.846 626.657 637.503 628.71 637.503H696.289C698.343 637.503 700 635.846 700 633.792V603.692C700 601.638 698.343 600.003 696.289 600.003H628.71ZM162.497 637.527V687.55C162.524 694.414 168.083 699.972 174.946 700H525.046C531.91 699.972 537.468 694.414 537.496 687.55V637.527H162.497Z" fill="black"/>
</svg>

