<svg width="24" height="24" viewBox="0 0 24 24" fill="none" xmlns="http://www.w3.org/2000/svg">
<path d="M5.25 2.24902H2.25C1.42157 2.24902 0.75 2.9206 0.75 3.74902V21.749C0.75 22.5775 1.42157 23.249 2.25 23.249H21.75C22.5784 23.249 23.25 22.5775 23.25 21.749V3.74902C23.25 2.9206 22.5784 2.24902 21.75 2.24902H11.25" stroke="#000000" stroke-width="1.5" stroke-linecap="round" stroke-linejoin="round"/>
<path fill-rule="evenodd" clip-rule="evenodd" d="M11.25 11.249L8.25 9.00002L5.25 11.25V1.50002C5.24974 1.30094 5.32864 1.10992 5.46932 0.969047C5.61 0.828178 5.80091 0.749023 6 0.749023H10.5C10.9142 0.749023 11.25 1.08481 11.25 1.49902V11.249Z" stroke="#000000" stroke-width="1.5" stroke-linecap="round" stroke-linejoin="round"/>
<path d="M5.25 18.749H15.75" stroke="#000000" stroke-width="1.5" stroke-linecap="round" stroke-linejoin="round"/>
<path d="M5.25 14.249H18.75" stroke="#000000" stroke-width="1.5" stroke-linecap="round" stroke-linejoin="round"/>
<path d="M18.75 9.74902H14.25" stroke="#000000" stroke-width="1.5" stroke-linecap="round" stroke-linejoin="round"/>
</svg>

