<svg width="24" height="24" viewBox="0 0 24 24" fill="none" xmlns="http://www.w3.org/2000/svg">
<rect x="0.75" y="0.75" width="22.5" height="22.5" stroke="#000000" stroke-width="1.5"/>
<path d="M9.81548 18.168C9.27415 18.168 8.77015 18.0887 8.30348 17.93C7.84615 17.7713 7.44482 17.538 7.09948 17.23C6.76348 16.922 6.49748 16.544 6.30148 16.096C6.11482 15.648 6.02148 15.1393 6.02148 14.57C6.02148 14.0007 6.12415 13.492 6.32948 13.044C6.54415 12.596 6.82882 12.218 7.18348 11.91C7.53815 11.602 7.95348 11.3687 8.42948 11.21C8.90548 11.042 9.40482 10.958 9.92748 10.958C10.4875 10.958 10.9775 11.0513 11.3975 11.238C11.8268 11.4247 12.1862 11.6533 12.4755 11.924L11.7055 12.932C11.4348 12.7173 11.1595 12.554 10.8795 12.442C10.6088 12.33 10.3195 12.274 10.0115 12.274C9.32082 12.274 8.76082 12.484 8.33148 12.904C7.90215 13.3147 7.68748 13.87 7.68748 14.57C7.68748 14.9153 7.74348 15.228 7.85548 15.508C7.96748 15.788 8.12148 16.0307 8.31748 16.236C8.52282 16.432 8.76548 16.586 9.04548 16.698C9.32548 16.8007 9.63348 16.852 9.96948 16.852C10.3615 16.852 10.7162 16.7773 11.0335 16.628C11.3602 16.4787 11.6588 16.3013 11.9295 16.096L12.6015 17.132C12.2002 17.4773 11.7568 17.7387 11.2715 17.916C10.7955 18.084 10.3102 18.168 9.81548 18.168Z" fill="#000000"/>
</svg>

