<svg width="24" height="25" viewBox="0 0 24 25" fill="none" xmlns="http://www.w3.org/2000/svg">
<path d="M8.3074 10.9219L7.2594 9.87792C5.52345 10.7098 3.45165 10.3574 2.08845 8.99823C0.725255 7.63908 0.36664 5.56833 1.1934 3.82992L2.6184 5.25092C2.99894 5.6406 3.55948 5.79585 4.08628 5.65745C4.61308 5.51905 5.02494 5.10834 5.16481 4.58194C5.30468 4.05553 5.15101 3.49456 4.7624 3.11292L3.3384 1.69292C5.0738 0.862951 7.14384 1.21622 8.50575 2.57476C9.86767 3.93331 10.2261 6.00247 9.4004 7.73992L10.3704 8.70692" stroke="#000000" stroke-width="1.5" stroke-linecap="round" stroke-linejoin="round"/>
<path d="M15.3197 13.636L16.7417 15.054C18.4772 14.2229 20.548 14.5754 21.9109 15.9337C23.2738 17.2921 23.633 19.3618 22.8077 21.1L21.3827 19.68C20.7905 19.0984 19.8405 19.1021 19.2528 19.6881C18.6651 20.2742 18.6588 21.2242 19.2387 21.818L20.6627 23.238C18.9275 24.0675 16.858 23.7143 15.4962 22.3561C14.1345 20.998 13.7758 18.9293 14.6007 17.192L13.1787 15.774" stroke="#000000" stroke-width="1.5" stroke-linecap="round" stroke-linejoin="round"/>
<path fill-rule="evenodd" clip-rule="evenodd" d="M1.44568 23.0999V23.0999C1.02414 22.6808 0.787109 22.1109 0.787109 21.5164C0.787109 20.922 1.02414 20.352 1.44568 19.9329L6.14068 15.2469C6.43339 14.9551 6.90698 14.9551 7.19968 15.2469L9.31768 17.3579C9.45789 17.4979 9.53668 17.6878 9.53668 17.8859C9.53668 18.084 9.45789 18.274 9.31768 18.4139L4.62168 23.0999C3.74347 23.9741 2.3239 23.9741 1.44568 23.0999Z" stroke="#000000" stroke-width="1.5" stroke-linecap="round" stroke-linejoin="round"/>
<path fill-rule="evenodd" clip-rule="evenodd" d="M16.5868 1.6879L22.8078 7.8879C23.0887 8.16736 23.2466 8.54721 23.2466 8.9434C23.2466 9.3396 23.0887 9.71945 22.8078 9.9989L20.6908 12.1119C20.1054 12.6955 19.1582 12.6955 18.5728 12.1119L12.3518 5.9119C12.071 5.63245 11.9131 5.2526 11.9131 4.8564C11.9131 4.46021 12.071 4.08036 12.3518 3.8009L14.4688 1.6899C15.0537 1.10577 16.0009 1.10488 16.5868 1.6879Z" stroke="#000000" stroke-width="1.5" stroke-linecap="round" stroke-linejoin="round"/>
<path d="M15.5272 9.0769L8.1582 16.2029" stroke="#000000" stroke-width="1.5" stroke-linecap="round" stroke-linejoin="round"/>
</svg>

