<svg xmlns="http://www.w3.org/2000/svg" viewBox="0 0 24 24"><defs><style>.a{fill:none;stroke:currentColor;stroke-linecap:round;stroke-linejoin:round;stroke-width:1.5px;}</style></defs><title>programming-keyboard-type</title><rect class="a" x="1.494" y="1.5" width="21" height="9" rx="1.5" ry="1.5"/><line class="a" x1="4.494" y1="4.5" x2="5.994" y2="4.5"/><line class="a" x1="4.494" y1="7.5" x2="5.994" y2="7.5"/><line class="a" x1="8.994" y1="4.5" x2="10.494" y2="4.5"/><line class="a" x1="8.994" y1="7.5" x2="14.994" y2="7.5"/><line class="a" x1="13.494" y1="4.5" x2="14.994" y2="4.5"/><line class="a" x1="17.994" y1="4.5" x2="19.494" y2="4.5"/><line class="a" x1="17.994" y1="7.5" x2="19.494" y2="7.5"/><path class="a" d="M.744,22.5s-.015-4.266,1.4-6.738A3,3,0,0,1,4.747,14.25H7.379a.751.751,0,0,1,.743.856L7.494,19.5c3.75-2.25,3.75,0,1.5,3"/><path class="a" d="M23.244,22.5s.015-4.266-1.4-6.738a3,3,0,0,0-2.6-1.512H16.609a.751.751,0,0,0-.743.856l.628,4.394c-3.75-2.25-3.75,0-1.5,3"/></svg>
