<svg width="24" height="25" viewBox="0 0 24 25" fill="none" xmlns="http://www.w3.org/2000/svg">
<path fill-rule="evenodd" clip-rule="evenodd" d="M3.75 13.743C3.75027 14.0461 3.933 14.3193 4.21308 14.4353C4.49316 14.5513 4.81551 14.4872 5.03 14.273L9.75 9.553V23C9.75 23.4142 10.0858 23.75 10.5 23.75H13.5C13.9142 23.75 14.25 23.4142 14.25 23V9.553L18.97 14.273C19.1845 14.4872 19.5068 14.5513 19.7869 14.4353C20.067 14.3193 20.2497 14.0461 20.25 13.743V9.811C20.2502 9.41311 20.0923 9.03144 19.811 8.75L12.53 1.47C12.3895 1.3293 12.1988 1.25024 12 1.25024C11.8012 1.25024 11.6105 1.3293 11.47 1.47L4.189 8.75C3.90774 9.03144 3.74982 9.41311 3.75 9.811V13.743Z" stroke="#000000" stroke-width="1.5" stroke-linecap="round" stroke-linejoin="round"/>
</svg>

