<svg width="24" height="24" viewBox="0 0 24 24" fill="none" xmlns="http://www.w3.org/2000/svg">
<path fill-rule="evenodd" clip-rule="evenodd" d="M1.723 13.0331C1.13749 13.2528 0.74974 13.8127 0.75 14.4381V20.0631C0.75182 20.6867 1.13921 21.244 1.723 21.4631L6.223 23.1501C6.56277 23.2776 6.93723 23.2776 7.277 23.1501L11.777 21.4631C12.3608 21.244 12.7482 20.6867 12.75 20.0631V14.4381C12.7503 13.8127 12.3625 13.2528 11.777 13.0331L7.277 11.3461C6.93723 11.2186 6.56277 11.2186 6.223 11.3461L1.723 13.0331Z" stroke="#000000" stroke-width="1.5" stroke-linecap="round" stroke-linejoin="round"/>
<path d="M1.00781 13.5972L6.74981 15.7502L12.4918 13.5972" stroke="#000000" stroke-width="1.5" stroke-linecap="round" stroke-linejoin="round"/>
<path d="M6.75 15.75V23.25" stroke="#000000" stroke-width="1.5" stroke-linecap="round" stroke-linejoin="round"/>
<path d="M22.9498 3.8501L14.2498 6.7501L5.5498 3.8501" stroke="#000000" stroke-width="1.5" stroke-linecap="round" stroke-linejoin="round"/>
<path d="M14.25 6.75V10.5" stroke="#000000" stroke-width="1.5" stroke-linecap="round" stroke-linejoin="round"/>
<path d="M5.25 8.25024V4.75024C5.25006 4.10451 5.66336 3.53129 6.276 3.32724L13.776 0.827241C14.0836 0.724253 14.4164 0.724253 14.724 0.827241L22.224 3.32724C22.8366 3.53129 23.2499 4.10451 23.25 4.75024V13.2502C23.2499 13.896 22.8366 14.4692 22.224 14.6732L15.75 16.8312" stroke="#000000" stroke-width="1.5" stroke-linecap="round" stroke-linejoin="round"/>
</svg>

