<svg width="24" height="24" viewBox="0 0 24 24" fill="none" xmlns="http://www.w3.org/2000/svg">
<path fill-rule="evenodd" clip-rule="evenodd" d="M3.375 21.103C4.82475 21.103 6 19.9278 6 18.478C6 17.0283 4.82475 15.853 3.375 15.853C1.92525 15.853 0.75 17.0283 0.75 18.478C0.75 19.9278 1.92525 21.103 3.375 21.103Z" stroke="black" stroke-width="1.5" stroke-linecap="round" stroke-linejoin="round"/>
<path d="M6.581 23.2001C5.02592 21.6197 2.55143 21.4075 0.75 22.7001" stroke="black" stroke-width="1.5" stroke-linecap="round" stroke-linejoin="round"/>
<path fill-rule="evenodd" clip-rule="evenodd" d="M20.625 21.103C22.0747 21.103 23.25 19.9278 23.25 18.478C23.25 17.0283 22.0747 15.853 20.625 15.853C19.1753 15.853 18 17.0283 18 18.478C18 19.9278 19.1753 21.103 20.625 21.103Z" stroke="black" stroke-width="1.5" stroke-linecap="round" stroke-linejoin="round"/>
<path d="M17.5107 23.1049C19.0764 21.6049 21.489 21.4347 23.2497 22.6999" stroke="black" stroke-width="1.5" stroke-linecap="round" stroke-linejoin="round"/>
<path fill-rule="evenodd" clip-rule="evenodd" d="M12 21.103C13.864 21.103 15.375 19.592 15.375 17.728C15.375 15.8641 13.864 14.353 12 14.353C10.136 14.353 8.625 15.8641 8.625 17.728C8.625 19.592 10.136 21.103 12 21.103Z" stroke="black" stroke-width="1.5" stroke-linecap="round" stroke-linejoin="round"/>
<path d="M14.7231 23.25C13.0292 22.397 11.0334 22.387 9.33105 23.223" stroke="black" stroke-width="1.5" stroke-linecap="round" stroke-linejoin="round"/>
<path fill-rule="evenodd" clip-rule="evenodd" d="M15.7496 4.60011C15.7501 2.72707 14.3684 1.14092 12.513 0.884488C10.6576 0.628057 8.89751 1.77999 8.38992 3.58294C7.88234 5.38589 8.78293 7.28689 10.4996 8.03611V9.85311H13.4996V8.03611C14.8664 7.44043 15.75 6.09109 15.7496 4.60011V4.60011Z" stroke="black" stroke-width="1.5" stroke-linecap="round" stroke-linejoin="round"/>
<path d="M10.5 12.103H13.5" stroke="black" stroke-width="1.5" stroke-linecap="round" stroke-linejoin="round"/>
<path d="M19.8105 5.25H21.3105" stroke="black" stroke-width="1.5" stroke-linecap="round" stroke-linejoin="round"/>
<path d="M19.5 8.68896L20.561 9.74996" stroke="black" stroke-width="1.5" stroke-linecap="round" stroke-linejoin="round"/>
<path d="M19.5 1.81L20.561 0.75" stroke="black" stroke-width="1.5" stroke-linecap="round" stroke-linejoin="round"/>
<path d="M4.18945 5.25H2.68945" stroke="black" stroke-width="1.5" stroke-linecap="round" stroke-linejoin="round"/>
<path d="M4.50045 8.68896L3.43945 9.74996" stroke="black" stroke-width="1.5" stroke-linecap="round" stroke-linejoin="round"/>
<path d="M4.50045 1.81L3.43945 0.75" stroke="black" stroke-width="1.5" stroke-linecap="round" stroke-linejoin="round"/>
</svg>
