<svg width="700" height="700" viewBox="0 0 700 700" fill="none" xmlns="http://www.w3.org/2000/svg">
<g>
<path fill-rule="evenodd" clip-rule="evenodd" d="M430.399 618.051H559.977C577.296 618.051 590.944 631.694 590.944 649.019C590.944 666.377 577.302 680.019 559.977 680.019H458.416H457.718H430.4C413.081 680.019 399.432 666.377 399.432 649.019C399.432 631.694 413.075 618.051 430.4 618.051H430.399ZM438.018 536.056H567.557C584.915 536.056 598.569 549.699 598.569 567.068C598.569 584.382 584.915 598.036 567.557 598.036L438.018 598.03C420.704 598.03 407.017 584.377 407.017 567.062C407.017 549.699 420.704 536.056 438.018 536.056V536.056ZM459.052 454.107H585.197C602.555 454.107 616.165 467.749 616.165 485.074C616.165 502.438 602.555 516.086 585.197 516.086L455.613 516.081C446.793 516.081 439.031 512.449 433.483 506.707C434.956 506.153 436.457 505.55 437.891 504.83C451.799 497.748 461.588 484.394 460.442 470.374L459.052 454.107ZM185.561 428.565V643.871L86.3798 643.865C84.3091 643.865 82.9858 642.171 82.9858 640.516L82.9802 433.898C82.9802 431.135 85.0012 430.582 86.568 430.537L185.561 428.565ZM452.022 372.117H585.187C602.545 372.117 616.155 385.76 616.155 403.118C616.155 420.437 602.545 434.086 585.187 434.086H457.303L452.022 372.117ZM428.042 326.223L440.345 470.417C440.311 476.618 437.41 484.06 428.817 486.955C405.895 494.762 390.691 487.138 384.993 465.235L363.45 382.083C360.742 368.219 339.752 373.645 344.115 387.094L365.609 470.234C369.7 485.992 377.003 498.854 388.215 504.834C393.082 507.408 398.508 508.92 404.062 509.8C393.946 526.017 381.776 536.676 366.024 543.735C349.125 551.32 327.809 554.67 301.032 554.67C287.107 554.072 287.107 575.3 301.032 574.647C329.508 574.647 353.665 571.197 374.201 561.973C379.306 559.681 384.178 557.007 388.813 553.989C387.656 558.158 387.014 562.527 387.014 567.078C387.014 582.283 393.78 595.925 404.377 605.249C389.445 614.163 379.389 630.464 379.389 649.029C379.389 660.695 383.387 671.441 390.042 680.029H260.011C241.446 680.029 217.561 669.559 205.534 650.679V422.474L281.515 342.64C289.454 334.279 299.2 330.973 308.335 329.312L411.374 310.299C422.116 308.323 427.398 318.294 428.04 326.234L428.042 326.223ZM415.274 25.5454V116.216C415.274 119.804 417.251 123.159 420.362 124.937L467.774 151.536C470.797 153.23 474.479 153.23 477.513 151.536L524.918 124.937C528.085 123.148 530.062 119.849 530.062 116.216L530.057 25.5894C566.439 46.7231 592.074 87.4683 592.118 130.461C592.019 177.309 564.644 219.814 522.023 239.144C518.213 240.843 515.86 244.708 516.143 248.838L522.2 352.144L450.321 352.139L447.985 324.543C446.971 312.966 442.88 303.093 435.355 296.787C432.542 294.451 429.331 292.756 425.981 291.599L429.148 248.877C429.475 244.752 427.172 240.798 423.362 239.043C380.685 219.708 353.267 177.264 353.167 130.411C353.167 87.3679 378.891 46.6723 415.273 25.5443L415.274 25.5454ZM425.008 0.00350725C423.806 0.0478016 422.704 0.241588 421.614 0.645765C368.327 21.591 333.179 73.1341 333.179 130.406V130.451C333.279 182.264 363.494 230.861 408.928 254.885L405.993 290.896C403.779 291.316 338.46 303.392 304.747 309.638C296.386 311.155 287.948 313.447 281.365 316.581C274.422 319.887 270.209 325.639 266.117 329.953C245.442 351.862 215.034 383.428 191.193 408.454L86.1879 410.513C80.9057 410.652 75.6734 412.39 71.0782 416.266C66.527 420.12 63 426.592 63 433.906V640.523C63 647.322 66.1671 652.97 70.303 656.962C74.428 661.01 79.854 663.85 86.3822 663.85H192.174C208.939 687.194 235.815 700 260.022 700H559.962C588.034 700 610.906 677.077 610.906 649.023C610.906 633.818 604.156 620.165 593.548 610.84C608.469 601.942 618.536 585.626 618.536 567.066C618.536 553.556 613.209 541.342 604.611 532.2C623.121 524.537 636.176 506.3 636.176 485.071C636.176 468.306 627.954 453.384 615.363 444.105C627.959 434.825 636.176 419.898 636.176 403.121C636.176 375.066 613.254 352.138 585.193 352.138H542.2L536.392 254.94C581.833 230.96 612.052 182.314 612.096 130.451L612.102 130.406C612.002 73.1781 576.965 21.73 523.668 0.784818C517.107 -1.78978 509.981 3.0327 510.025 10.0645V110.336L472.641 131.37L435.245 110.336V9.96955C435.25 4.31646 430.605 -0.140616 425.002 0.0033937L425.008 0.00350725Z" fill="black"/>
</g>
</svg>