<svg viewBox="0 0 18 18" fill="none" xmlns="http://www.w3.org/2000/svg">
<path d="M1.5 7.5V5C1.5 3.067 3.067 1.5 5 1.5C6.933 1.5 8.5 3.067 8.5 5V7.5" stroke="#000" stroke-width="2" stroke-linecap="round" stroke-linejoin="round"/>
<path fill-rule="evenodd" clip-rule="evenodd" d="M5.5 9C5.5 8.17157 6.17157 7.5 7 7.5H15C15.8284 7.5 16.5 8.17157 16.5 9V15C16.5 15.8284 15.8284 16.5 15 16.5H7C6.17157 16.5 5.5 15.8284 5.5 15V9Z" stroke="#000" stroke-width="2" stroke-linecap="round" stroke-linejoin="round"/>
<path d="M11 11.5C10.8619 11.5 10.75 11.6119 10.75 11.75C10.75 11.8881 10.8619 12 11 12C11.1381 12 11.25 11.8881 11.25 11.75C11.2502 11.6836 11.2239 11.62 11.177 11.573C11.1301 11.5261 11.0664 11.4998 11 11.5V11.5" stroke="#000" stroke-width="2" stroke-linecap="round" stroke-linejoin="round"/>
</svg>

