<svg width="65" height="65" viewBox="0 0 65 65" fill="none" xmlns="http://www.w3.org/2000/svg">
<path d="M11.5527 64.9999H53.4473C59.8209 64.9999 65 59.6503 65 53.0797V41.9562C65 40.818 64.0967 39.8867 62.9926 39.8867C61.8885 39.8867 60.9852 40.818 60.9852 41.9562V53.09C60.9852 57.3739 57.6027 60.8713 53.4473 60.8713H11.5527C7.39731 60.8713 4.01482 57.3842 4.01482 53.09V41.9562C4.01482 40.818 3.11149 39.8867 2.00741 39.8867C0.903335 39.8867 0 40.818 0 41.9562V53.09C0 59.6607 5.17912 64.9999 11.5527 64.9999Z" fill="black"/>
<path d="M14.4333 21.9029L30.4926 5.34704V47.7094C30.4926 48.8476 31.3959 49.7789 32.5 49.7789C33.6041 49.7789 34.5074 48.8476 34.5074 47.7094V5.34704L50.5667 21.9029C50.9581 22.3065 51.47 22.5134 51.9819 22.5134C52.4938 22.5134 53.0057 22.3065 53.3971 21.9029C54.18 21.0958 54.18 19.7817 53.3971 18.9746L36.7457 1.80821C34.407 -0.602738 30.5929 -0.602738 28.2443 1.80821L11.5928 18.985C10.8099 19.7921 10.8099 21.1062 11.5928 21.9133C12.3757 22.71 13.6504 22.71 14.4333 21.9029Z" fill="black"/>
</svg>

