<svg width="667" height="667" viewBox="0 0 667 667" fill="none" xmlns="http://www.w3.org/2000/svg">
<g clip-path="url(#clip0_9971_10644)">
<path d="M489.334 0.933374C488.267 1.33337 481.334 4.53338 474 8.00004C466.667 11.6 459.6 14.8 458.267 15.2C456.934 15.6 454.934 17.8667 453.6 20.2667C444.934 36.9334 397.333 70.0001 370.933 77.7334C360.8 80.8001 349.867 87.0667 340.133 95.3334C335.067 99.6001 324.667 106 314.133 111.333L296.8 120.133L281.333 119.2C267.733 118.533 265.2 118.667 258.667 121.2C250 124.533 242.4 130.4 230.133 144C225.067 149.467 220.533 154.133 220 154.4C219.333 154.667 217.2 152.667 215.2 149.867C211.333 144.8 210.4 138.8 212.4 131.733C213.067 128.933 212.8 127.467 211.067 125.6C209.733 124.267 206.4 119.733 203.467 115.6C196 104.533 191.467 102.133 179.2 102.933C170.667 103.467 168.533 104.133 164.267 107.6C154 115.867 150.533 134.667 157.2 146C159.067 149.2 159.733 152 159.2 154.533C158.133 159.733 164 164.533 170.267 163.6C173.6 162.933 176.133 163.867 182.267 167.867C190.133 172.933 197.333 180.267 197.333 183.2C197.333 185.733 189.867 195.333 184.8 199.067C180.4 202.533 180.267 202.533 179.6 199.867C179.2 198.4 177.6 196.8 176.133 196.4C172 195.333 174.8 191.2 182 187.733C187.467 185.067 190.267 181.867 188.667 180.267C188.267 179.867 183.2 181.067 177.333 183.067C171.467 185.067 165.733 186.667 164.4 186.667C163.067 186.667 158.4 188.8 154 191.333C149.6 193.867 144.533 196.667 142.667 197.467C139.067 199.067 128.133 219.867 125.467 230C121.867 243.333 125.6 255.867 134 258.667C140 260.667 145.6 259.733 158.4 254.533C163.867 252.4 169.867 250.667 172 250.667C176.267 250.667 188.133 244.667 197.6 237.867C201.2 235.2 204.267 233.2 204.533 233.467C204.8 233.733 214.133 249.867 225.333 269.334C236.533 288.8 247.733 307.867 250.133 311.734C252.667 315.6 254.667 319.867 254.667 321.467C254.667 327.334 250.267 333.867 236 348.667C218.8 366.534 208.8 381.2 195.733 407.334C188.267 422.134 184.933 427.334 179.6 432.134C173.733 437.6 172.933 439.067 172.4 444.8C171.733 451.6 173.2 457.334 179.333 471.734C181.2 476.267 183.733 484.667 184.8 490.267C186.667 500.267 193.067 516.267 204.533 540C214.8 560.934 212.667 568.4 194 578.267C188.133 581.334 180.667 584.267 177.333 584.667C164.133 586.534 156 590.934 156 596.267C156 600.934 162.267 603.2 176.667 603.734C189.6 604.267 190.667 604.134 200.133 599.867C209.6 595.734 210.8 595.467 226.8 595.467C241.733 595.334 244 595.067 246.667 592.667C249.333 590.267 249.6 589.067 248.933 580.934C248.4 572.534 248 571.467 243.467 567.467C240.8 564.934 238.667 562.8 238.667 562.534C238.667 562.267 237.733 557.734 236.667 552.667C235.467 547.2 234 530.8 233.333 513.334C232.133 483.067 230.267 470 225.6 458L223.067 451.467L239.867 439.734C264.933 422.267 280.667 408.934 285.733 400.934C290.8 393.2 322.4 362.4 324.8 362.934C325.6 363.2 331.333 369.6 337.467 377.334C343.467 385.067 355.2 398.267 363.2 406.8C377.067 421.334 381.867 427.867 396.133 452.534C398.667 456.8 404.4 464.267 408.933 469.2C416.667 477.6 417.333 478.8 419.867 490C426 515.467 436.533 535.334 454.667 555.334C472.133 574.667 480.4 594.667 482.134 621.467C482.534 628.267 483.467 635.6 484.134 637.467C485.467 640.8 490.133 644 493.867 644C495.734 644 501.334 653.334 501.334 656.4C501.334 657.6 503.6 660.267 506.267 662.267C513.067 667.467 524.267 667.467 534.4 662.267C538.267 660.134 541.734 657.734 542.267 656.667C543.867 652.267 540.8 647.067 531.334 638.267C523.867 631.334 520.267 626.667 516.667 619.334C512.934 611.734 510.934 609.2 507.867 608.134C504.934 607.067 504 606 504 603.2C504 598.267 497.867 571.334 493.334 556.8C483.867 526 472.4 500.134 452 463.334C429.467 422.8 417.467 394.4 414.667 375.334C411.733 354.267 399.067 331.2 374.8 302.4C361.333 286.267 342.267 258.133 328 233.333C312.533 206.4 296.133 172.133 295.2 164.933L294.267 158.533L300.133 156.267C311.2 152 330 142.4 336.533 137.733C340.133 135.2 346.267 131.867 350.267 130.533C360.667 126.933 379.467 116.8 390.133 108.933C395.2 105.2 406.8 94.6668 416 85.3334C432.267 68.8001 444 59.6001 453.333 56.0001C455.867 55.0667 459.6 53.0667 461.6 51.7334C463.6 50.2667 468.934 48.5334 473.6 47.8667C478.134 47.0667 482.267 46.2667 482.8 46.0001C483.334 45.6001 484 43.0667 484.533 40.4001C484.933 37.6001 485.6 33.2001 486 30.6667C486.934 25.3334 484.8 22.5334 478.134 20.4L474.134 19.2L482.134 13.6C486.4 10.5334 491.333 7.20004 493.067 6.00004C498.533 2.13337 496 -1.46663 489.334 0.933374ZM161.867 215.067C164.133 216.8 164 216.933 160.133 218.667C157.867 219.6 155.333 221.333 154.667 222.533C153.6 224.267 153.467 224 153.333 221.067C153.333 213.6 156.667 211.2 161.867 215.067Z" fill="black"/>
</g>
<defs>
<clipPath id="clip0_9971_10644">
<rect width="666.667" height="666.667" fill="white"/>
</clipPath>
</defs>
</svg>
