<svg width="22" height="20" viewBox="0 0 22 20" fill="none" xmlns="http://www.w3.org/2000/svg">
<path fill-rule="evenodd" clip-rule="evenodd" d="M7.25 10C9.14848 10 10.6875 8.46098 10.6875 6.5625C10.6875 4.66402 9.14848 3.125 7.25 3.125C5.35152 3.125 3.8125 4.66402 3.8125 6.5625C3.8125 8.46098 5.35152 10 7.25 10Z" stroke="black
" stroke-width="1.5" stroke-linecap="round" stroke-linejoin="round"/>
<path d="M1.625 16.875C1.625 13.7684 4.1434 11.25 7.25 11.25C10.3566 11.25 12.875 13.7684 12.875 16.875" stroke="black
" stroke-width="1.5" stroke-linecap="round" stroke-linejoin="round"/>
<path fill-rule="evenodd" clip-rule="evenodd" d="M15.7725 11.25C17.3258 11.25 18.585 9.9908 18.585 8.4375C18.585 6.8842 17.3258 5.625 15.7725 5.625C14.2192 5.625 12.96 6.8842 12.96 8.4375C12.96 9.9908 14.2192 11.25 15.7725 11.25Z" stroke="black
" stroke-width="1.5" stroke-linecap="round" stroke-linejoin="round"/>
<path d="M14.1777 12.5566C15.5902 12.0361 17.1678 12.2387 18.4029 13.0992C19.6379 13.9598 20.3744 15.3697 20.3752 16.8749" stroke="black
" stroke-width="1.5" stroke-linecap="round" stroke-linejoin="round"/>
</svg>
