<svg width="384" height="384" viewBox="0 0 384 384" fill="none" xmlns="http://www.w3.org/2000/svg">
<path d="M308.29 0C308.29 0 315.636 75.2418 267.553 115.979C248.186 103.736 223.921 96.8348 195.205 96.8348C168.714 96.8348 142.669 104.403 120.186 118.428C68.763 78.1356 76.5543 0 76.5543 0C19.5665 111.082 79.4482 154.49 80.7838 155.603C64.9786 178.31 55.1838 207.026 55.1838 240.64C55.1838 330.797 121.299 384 203.664 384C245.737 384 281.577 369.976 310.071 352.167L290.481 316.995C265.772 331.464 240.617 340.591 211.01 340.591C156.026 340.591 115.733 308.758 112.394 254.887H318.53C319.643 248.209 321.424 237.523 321.424 226.393C321.424 199.457 315.636 175.416 304.506 155.603C309.848 151.374 363.052 106.852 308.29 0ZM111.726 216.598C119.073 167.847 155.358 140.466 196.318 140.466C243.288 140.466 269.779 167.847 269.779 216.598H111.726Z" fill="#770428"/>
</svg>