<svg width="384" height="384" viewBox="0 0 384 384" fill="none" xmlns="http://www.w3.org/2000/svg">
<path d="M244.1 101.5C244.1 101.5 247.4 135.3 225.8 153.6C217.1 148.1 206.2 145 193.3 145C181.4 145 169.7 148.4 159.6 154.7C136.5 136.6 140 101.5 140 101.5C114.4 151.4 141.3 170.9 141.9 171.4C134.8 181.6 130.4 194.5 130.4 209.6C130.4 250.1 160.1 274 197.1 274C216 274 232.1 267.7 244.9 259.7L236.1 243.9C225 250.4 213.7 254.5 200.4 254.5C175.7 254.5 157.6 240.2 156.1 216H248.7C249.2 213 250 208.2 250 203.2C250 191.1 247.4 180.3 242.4 171.4C244.8 169.5 268.7 149.5 244.1 101.5V101.5ZM155.8 198.8C159.1 176.9 175.4 164.6 193.8 164.6C214.9 164.6 226.8 176.9 226.8 198.8H155.8ZM192 384C86.1 384 0 297.9 0 192C0 86.1 86.1 0 192 0C297.9 0 384 86.1 384 192C384 297.9 297.9 384 192 384ZM192 24.9C99.8 24.9 24.9 99.9 24.9 192C24.9 284.2 99.9 359.1 192 359.1C284.2 359.1 359.1 284.1 359.1 192C359.1 99.8 284.2 24.9 192 24.9Z" fill="#770428"/>
</svg>