<svg width="700" height="700" viewBox="0 0 700 700" fill="none" xmlns="http://www.w3.org/2000/svg">
<path d="M359.529 200.746C397.843 200.746 426.31 155.86 426.31 116.451C426.31 79.2301 398.943 54.0508 359.529 54.0508C319.022 54.0508 292.748 79.2314 292.748 116.451C292.748 155.86 321.214 200.746 359.529 200.746ZM359.529 75.94C370.476 75.94 404.416 79.2261 404.416 116.448C404.416 144.913 383.616 178.848 359.529 178.848C335.443 178.848 314.642 144.908 314.642 116.448C314.642 78.1334 348.583 75.94 359.529 75.94Z" fill="black"/>
<path d="M697.821 629.899L575.207 421.897C570.827 415.33 559.88 415.33 556.594 421.897L532.507 462.404L532.512 344.164H550.026C569.732 344.164 585.059 328.837 585.059 309.131C585.059 289.425 569.732 274.098 550.026 274.098H532.512V220.457H670.454C679.213 220.457 684.686 210.604 679.213 202.943L659.507 155.869L679.213 106.602C682.499 98.9414 677.026 91.2754 669.36 91.2754H520.465C513.897 91.2754 509.517 95.6551 509.517 102.222V105.509V274.106H483.244L433.977 227.033C426.316 220.465 417.556 217.179 408.796 217.179H304.799L248.966 163.538L278.526 98.9454C286.187 81.4315 278.526 60.6313 261.012 52.9646C243.498 45.3037 222.698 52.9646 215.031 70.4785L174.523 158.06C167.956 171.2 171.237 187.619 182.184 198.567L255.533 268.635V587.212L245.679 598.159L142.771 424.09C138.391 417.523 127.444 417.523 124.158 424.09L1.54369 632.092C-1.74246 637.566 0.449995 644.133 5.92346 647.419C11.3969 650.706 17.9641 648.513 21.2504 643.04L135.105 451.462L248.96 643.04C252.246 648.513 258.813 649.607 264.287 647.419C269.76 644.133 270.854 637.566 268.667 632.092L261.006 618.952L278.52 600.339L352.961 522.612C370.475 541.225 405.509 577.352 451.489 624.426L467.91 645.226C471.196 649.606 478.857 650.699 483.237 647.413C487.617 644.127 488.71 636.466 485.424 632.086L473.383 617.854L570.818 453.643L684.673 645.22C687.959 650.693 694.526 651.787 700 649.6C698.911 640.85 700.005 634.283 697.818 629.903L697.821 629.899ZM637.608 160.246L652.935 198.56H531.413V113.166H652.935L637.608 151.48C636.514 154.771 636.514 156.959 637.608 160.245V160.246ZM509.52 499.622L465.731 574.063V491.955C465.731 485.388 463.544 478.815 460.258 473.342L419.75 410.941V311.319L444.931 335.406C451.498 341.973 460.258 345.259 469.018 345.259H509.525L509.52 499.622ZM273.055 254.396L196.42 181.047C192.041 176.668 190.947 171.194 193.134 165.721L233.642 78.1393C236.928 71.5721 244.589 68.286 251.156 71.5721C257.723 74.8583 261.009 82.5192 257.723 89.086L224.882 160.246C222.695 164.626 223.788 169.006 227.069 172.287L291.662 234.687C293.849 236.875 296.042 237.974 299.323 237.974C413.178 239.067 410.991 235.786 417.558 241.26L470.106 291.62C472.294 293.807 474.486 294.906 477.767 294.906H548.927C556.588 294.906 562.067 300.379 562.067 308.046C562.067 315.707 556.594 321.186 548.927 321.186L469.017 321.176C465.731 321.176 462.45 320.082 460.257 317.89C419.75 281.762 416.468 269.722 405.517 274.101C401.137 276.288 398.95 279.574 398.95 283.954V413.135C398.95 415.322 400.043 417.514 401.137 418.608L443.831 483.201C444.925 485.388 446.019 487.581 446.019 489.768V585.01L419.745 557.642V496.334C419.745 494.147 418.652 491.954 417.558 490.861L377.05 429.553C377.05 428.459 375.957 428.459 375.957 427.365C373.769 425.178 370.483 424.079 368.296 424.079H315.748C309.181 424.079 304.801 428.459 304.801 435.026V533.554L278.527 560.922V262.047C276.34 258.766 275.246 256.573 273.054 254.386L273.055 254.396ZM340.934 496.345L325.607 512.766V448.173H361.734L396.767 502.913V537.946L357.354 496.346C351.88 491.966 345.308 491.966 340.933 496.346L340.934 496.345Z" fill="black"/>
<path d="M590.537 546.703C587.251 541.23 580.683 540.136 575.21 542.324C569.736 545.61 568.643 552.177 570.83 557.651L597.103 601.439C600.39 606.913 606.957 608.006 612.43 605.819C617.904 602.533 618.998 595.966 616.81 590.492L590.537 546.703Z" fill="black"/>
<path d="M372.677 580.636C368.297 576.257 361.73 575.163 357.35 579.543C352.97 583.922 351.877 590.49 356.256 594.87L378.151 620.05C382.531 624.43 389.098 625.524 393.478 621.144C397.858 616.764 398.951 610.197 394.571 605.817L372.677 580.636Z" fill="black"/>
<path d="M121.967 543.413C116.494 540.127 109.927 542.319 106.64 547.793L80.3669 591.581C77.0808 597.055 79.2732 603.622 84.7467 606.908C90.2202 610.194 96.7874 608.002 100.074 602.528L126.347 558.74C129.633 552.173 127.441 545.6 121.967 543.413Z" fill="black"/>
</svg>