<svg width="700" height="700" viewBox="0 0 700 700" fill="none" xmlns="http://www.w3.org/2000/svg">
<path d="M419.669 210C419.669 216.442 414.445 221.666 408.003 221.666C401.56 221.666 396.336 216.442 396.336 210C396.336 203.557 401.56 198.333 408.003 198.333C414.445 198.333 419.669 203.557 419.669 210Z" fill="black"/>
<path d="M174.669 233.333H234.549C239.023 257.421 250.341 279.713 267.153 297.536C242.757 310.431 222.341 329.733 208.096 353.364C193.856 377 186.336 404.072 186.336 431.666V688.333C186.336 691.427 187.565 694.396 189.752 696.583C191.94 698.771 194.909 700 198.002 700H524.669C527.763 700 530.732 698.771 532.919 696.583C535.107 694.396 536.336 691.427 536.336 688.333V431.666C536.336 404.016 528.784 376.896 514.487 353.229C500.195 329.557 479.705 310.245 455.236 297.374C469.168 282.442 479.329 264.401 484.887 244.749C498.027 246.119 511.137 241.848 520.949 232.999C530.757 224.145 536.351 211.545 536.335 198.332C536.34 186.978 532.189 176.015 524.668 167.515V163.333C524.668 104.978 493.537 51.0564 443.001 21.879C392.465 -7.29301 330.204 -7.29301 279.668 21.879C229.132 51.0564 198.001 104.978 198.001 163.333V174.999C198.001 200.942 172.022 210.239 170.98 210.598C165.553 212.41 162.235 217.89 163.152 223.535C164.068 229.181 168.949 233.332 174.667 233.332L174.669 233.333ZM233.003 676.667H209.669V513.333H233.003V676.667ZM349.669 676.667H256.336V630H349.669V676.667ZM466.336 676.667H373.003V630H466.336V676.667ZM513.003 676.667H489.669V513.333H513.003V676.667ZM490.143 358.533C505.075 379.992 513.055 405.522 513.003 431.664V489.997H489.669V454.997C489.669 448.554 484.445 443.33 478.003 443.33C471.56 443.33 466.336 448.554 466.336 454.997V606.664H256.336V454.997C256.336 448.554 251.112 443.33 244.669 443.33C238.227 443.33 233.003 448.554 233.003 454.997V489.997H209.669V431.664C209.664 406.768 216.904 382.404 230.503 361.549C244.101 340.694 263.472 324.242 286.257 314.205C288.044 315.486 289.861 316.715 291.705 317.898H291.7C291.997 319.059 292.476 320.163 293.106 321.179L351.44 414.512C353.575 417.924 357.315 419.997 361.335 419.997C365.356 419.997 369.096 417.924 371.231 414.512L429.565 321.179C430.226 320.111 430.716 318.944 431.007 317.72C432.789 316.564 434.539 315.366 436.257 314.121C457.981 323.658 476.637 339.033 490.143 358.533L490.143 358.533ZM328.703 334.112C350.088 339.731 372.563 339.737 393.953 334.122L361.333 386.319L328.703 334.112ZM466.329 209.997C466.158 244.773 448.829 277.226 420.027 296.716C391.229 316.21 354.663 320.232 322.313 307.471C289.964 294.705 265.996 266.799 258.267 232.892C275.939 231.949 308.355 229.001 341.157 219.767C397.501 203.923 424.043 178.314 435.439 152.923C442.308 160.251 452.179 167.188 466.335 172.043L466.329 209.997ZM512.996 198.33C512.991 204.518 510.527 210.445 506.152 214.819C501.777 219.194 495.85 221.658 489.663 221.663C489.486 221.663 489.309 221.642 489.132 221.642C489.481 217.804 489.663 213.924 489.663 209.997V174.996C495.851 175.002 501.778 177.465 506.152 181.84C510.527 186.215 512.991 192.142 512.996 198.33V198.33ZM221.329 174.997V163.33C221.334 114.538 246.741 69.2727 288.387 43.8513C330.032 18.4353 381.903 16.5233 425.307 38.8201C468.703 61.1175 497.364 104.394 500.952 153.055C494.707 151.492 488.207 151.242 481.864 152.326C481.526 152.206 481.182 152.102 480.828 152.013C465.188 148.102 454.093 140.961 447.858 130.789H447.863C445.139 126.482 443.473 121.591 442.999 116.519C442.957 110.076 437.702 104.883 431.259 104.925C424.817 104.966 419.624 110.222 419.666 116.664C419.666 208.784 246.412 209.998 244.665 209.998H209.769C217.441 199.961 221.514 187.634 221.332 174.998L221.329 174.997Z" fill="black"/>
<path d="M388.083 248.413C388 248.496 379.042 256.663 361.334 256.663C343.626 256.663 334.667 248.496 334.584 248.413C330.022 243.903 322.673 243.929 318.136 248.46C313.6 252.996 313.574 260.345 318.084 264.913C319.626 266.455 333.959 279.996 361.335 279.996C388.711 279.996 403.043 266.455 404.586 264.913C409.096 260.346 409.07 252.997 404.534 248.46C399.997 243.929 392.648 243.903 388.086 248.413H388.083Z" fill="black"/>
</svg>
