<svg xmlns="http://www.w3.org/2000/svg" viewBox="0 0 24 24" id="Ecology-Globe-Message--Streamline-Ultimate">
  <desc>
    Ecology Globe Message Streamline Icon: https://streamlinehq.com
  </desc>
  <defs></defs>
  <title>ecology-globe-message</title>
  <path d="m0.6 22.73 2.492 -5.4a11 11 0 1 1 3.58 3.58L1.27 23.4a0.507 0.507 0 0 1 -0.67 -0.67Z" fill="#d0b6ff" stroke-width="1"></path>
  <path d="M12 17.9a11.5 11.5 0 0 1 -10.524 -6.874c-0.009 0.175 -0.027 0.348 -0.027 0.525a10.954 10.954 0 0 0 1.64 5.78L0.6 22.73a0.507 0.507 0 0 0 0.673 0.673l5.4 -2.492A10.986 10.986 0 0 0 23.167 9.1 11.5 11.5 0 0 1 12 17.9Z" fill="#dfcfff" stroke-width="1"></path>
  <path d="m0.6 22.73 2.492 -5.4a11 11 0 1 1 3.58 3.58L1.27 23.4a0.507 0.507 0 0 1 -0.67 -0.67Z" fill="none" stroke="#7029f5" stroke-linecap="round" stroke-linejoin="round" stroke-width="1"></path>
  <path d="m22.699 7.551 -20.5 0" fill="none" stroke="#7029f5" stroke-linecap="round" stroke-linejoin="round" stroke-width="1"></path>
  <path d="m22.699 15.551 -20.5 0" fill="none" stroke="#7029f5" stroke-linecap="round" stroke-linejoin="round" stroke-width="1"></path>
  <path d="M15.04 22.244c1.444 -2.192 2.409 -6.161 2.409 -10.693S16.484 3.049 15.04 0.858" fill="none" stroke="#7029f5" stroke-linecap="round" stroke-linejoin="round" stroke-width="1"></path>
  <path d="M9.858 22.244c-1.444 -2.192 -2.409 -6.161 -2.409 -10.693S8.414 3.049 9.858 0.858" fill="none" stroke="#7029f5" stroke-linecap="round" stroke-linejoin="round" stroke-width="1"></path>
</svg>