<svg xmlns="http://www.w3.org/2000/svg" fill="none" viewBox="0 0 14 14" id="Earth-1--Streamline-Core" height="14" width="14">
  <desc>
    Earth 1 Streamline Icon: https://streamlinehq.com
  </desc>
  <g id="earth-1--planet-earth-globe-world">
    <g id="Subtract">
      <path fill="#000000" d="M6.99999 0.00219727c0.1258 0 0.25084 0.00331993 0.37501 0.00987693V2.71049c0 0.30427 -0.11889 0.59394 -0.32713 0.80584 -0.2078 0.21144 -0.48727 0.32823 -0.77636 0.32833 -0.31733 -0.00018 -0.63117 0.06463 -0.92273 0.19026 -0.29154 0.12562 -0.55451 0.30932 -0.77357 0.53959 -0.21904 0.23025 -0.38974 0.50238 -0.5025 0.79991 -0.11145 0.29412 -0.16418 0.60748 -0.15538 0.92195v1.44447c0 0.15043 -0.02913 0.29914 -0.08548 0.43755 -0.05633 0.1384 -0.13862 0.26344 -0.24165 0.36828 -0.10301 0.10482 -0.22471 0.18737 -0.35785 0.24349 -0.13313 0.05611 -0.27542 0.08484 -0.41886 0.08484H0.256313C0.0907421 8.27824 0.0022583 7.64942 0.0022583 6.99993 0.0022583 3.13519 3.13525 0.00219727 6.99999 0.00219727Z" stroke-width="1"></path>
      <path fill="#000000" d="M6.99999 13.9977c-2.74161 0 -5.11497 -1.5767 -6.262879 -3.8727H2.81349c0.31064 0 0.61796 -0.0623 0.90435 -0.18297 0.28635 -0.1207 0.54583 -0.2973 0.76389 -0.5192 0.21805 -0.22187 0.39045 -0.48468 0.50787 -0.77315 0.11743 -0.28845 0.17773 -0.59725 0.17773 -0.90884V6.28698c0 -0.00677 -0.00011 -0.01354 -0.00033 -0.02031 -0.00499 -0.15359 0.02046 -0.30642 0.0746 -0.44929 0.05413 -0.14285 0.13569 -0.27243 0.23926 -0.38131 0.10355 -0.10885 0.22696 -0.19476 0.36255 -0.25318 0.13557 -0.05841 0.28089 -0.08832 0.42741 -0.08823 0.62781 0 1.22802 -0.25388 1.66858 -0.70217 0.4402 -0.44792 0.6856 -1.05315 0.6856 -1.682V0.191854C11.3491 0.83966 13.4561 3.08011 13.9078 5.875H9.68132c-0.01846 0 -0.0369 0.00082 -0.05529 0.00245 -0.61078 0.05424 -1.1816 0.33 -1.5992 0.7771 -0.41796 0.44749 -0.65183 1.03427 -0.65183 1.64555 0 0.61129 0.23387 1.19806 0.65183 1.64555 0.4176 0.44705 0.98842 0.72285 1.5992 0.77715 0.02075 0.0018 0.04157 0.0026 0.06239 0.0024 0.09164 -0.0011 0.18228 0.0157 0.26655 0.049 0.08423 0.0333 0.15993 0.0822 0.22313 0.1433 0.0632 0.0611 0.1126 0.133 0.146 0.2113 0.0334 0.0782 0.0504 0.1616 0.0504 0.2455v1.7574c-1.00068 0.5519 -2.15092 0.866 -3.37451 0.866Z" stroke-width="1"></path>
      <path fill="#000000" d="M11.6245 12.2519c1.4261 -1.2567 2.3363 -3.08519 2.3721 -5.1269H9.71179c-0.29846 0.03244 -0.57236 0.16963 -0.77145 0.38278 -0.20423 0.21866 -0.31534 0.50145 -0.31534 0.79232 0 0.29088 0.11111 0.57366 0.31534 0.79232 0.19903 0.2131 0.47283 0.35027 0.77119 0.38275 0.2405 0.00185 0.47887 0.04801 0.70277 0.13646 0.2354 0.09302 0.4506 0.23117 0.6326 0.40707 0.182 0.176 0.3273 0.3863 0.4268 0.6192 0.0994 0.2328 0.1508 0.4832 0.1508 0.7364v0.8776Z" stroke-width="1"></path>
    </g>
  </g>
</svg>