<svg width="192" height="48" viewBox="0 0 192 48" fill="none" xmlns="http://www.w3.org/2000/svg">
<path d="M2.37548 0.624512C2.33738 0.624512 2.20792 0.627595 2.13783 0.675324L2.09453 0.703719L2.08557 0.756023C1.97409 1.39021 1.73973 2.39647 1.48632 3.10973L1.46834 3.15908L1.49076 3.20537C1.5864 3.39735 1.9138 3.49169 2.08856 3.36077L2.11396 3.34142L2.12743 3.3115C2.28918 2.9437 2.44167 2.59679 2.81483 2.25347C3.16572 1.93096 3.96016 1.88735 4.69178 1.88735H5.56748C5.92342 1.88735 5.92319 1.88751 5.92319 2.27436V9.3967C5.92319 11.1228 5.82403 11.1978 5.04749 11.2659L4.47509 11.3141L4.4213 11.3302C4.32643 11.3891 4.27172 11.5077 4.27784 11.6485C4.28167 11.7556 4.32597 11.8895 4.43026 11.9415L4.45719 11.9568L4.48856 11.9553C5.46388 11.9255 6.05311 11.9086 6.69881 11.9086C7.32071 11.9086 7.83503 11.9224 8.78181 11.9553L8.81318 11.9568L8.83996 11.9415C8.94478 11.8895 8.99069 11.748 8.99681 11.6324C9.00599 11.4947 8.96468 11.386 8.8851 11.3333L8.3189 11.2659C7.52171 11.1978 7.47435 11.0922 7.47435 9.3967V2.25645C7.47404 2.09356 7.47343 1.94045 7.49975 1.91421C7.52668 1.88735 7.6993 1.88735 7.81361 1.88735H8.94478C9.79867 1.88735 10.3794 2.01039 10.7199 2.26242C10.8714 2.37314 11.0022 2.77659 11.0696 3.34142L11.0742 3.37577L11.0986 3.40416C11.1568 3.47501 11.2647 3.5177 11.3871 3.5177C11.5378 3.5177 11.6641 3.4532 11.7153 3.34884L11.7306 3.31747L11.7276 3.28158C11.6824 2.82288 11.7926 1.53929 11.9632 0.904L11.9755 0.859163L11.9548 0.817311C11.8928 0.696901 11.7161 0.687314 11.6633 0.687314C11.6235 0.687314 11.5654 0.691874 11.5141 0.712724L11.4736 0.727667L11.4521 0.765052C11.2478 1.12023 11.1629 1.14907 10.3167 1.14907H3.72939C3.01613 1.14907 2.69677 1.1112 2.62951 0.754562L2.62201 0.717208L2.59516 0.690306C2.55085 0.646119 2.47901 0.62455 2.37548 0.62455V0.624512ZM137.674 0.624512C137.636 0.624512 137.506 0.627595 137.437 0.675324L137.391 0.703719L137.384 0.756023C137.269 1.39273 137.032 2.40076 136.779 3.10973L136.764 3.15908L136.787 3.2069C136.886 3.39849 137.208 3.49238 137.384 3.36077L137.407 3.34142L137.422 3.3115C137.583 2.94263 137.736 2.59464 138.11 2.25347C138.462 1.93096 139.258 1.88735 139.985 1.88735H140.865C141.217 1.88735 141.217 1.88758 141.217 2.27436V9.3967C141.217 11.1228 141.117 11.1986 140.345 11.2659L139.771 11.3141L139.717 11.3302C139.618 11.3891 139.564 11.5092 139.572 11.65C139.58 11.7579 139.625 11.8903 139.725 11.9415L139.756 11.9568L139.786 11.9553C140.758 11.9255 141.347 11.9071 141.997 11.9071C142.617 11.9071 143.13 11.9224 144.079 11.9553L144.109 11.9568L144.132 11.9431C144.27 11.8788 144.285 11.6913 144.293 11.6355C144.3 11.4962 144.262 11.386 144.178 11.3333L143.612 11.2659C142.816 11.1978 142.77 11.0922 142.77 9.3967V2.25492C142.77 2.09317 142.77 1.94007 142.793 1.91421C142.824 1.88735 142.992 1.88735 143.107 1.88735H144.239C145.096 1.88735 145.678 2.00893 146.014 2.26089C146.167 2.3713 146.297 2.7759 146.366 3.34142V3.37577L146.389 3.40416C146.45 3.47531 146.558 3.5177 146.68 3.5177C146.833 3.5177 146.963 3.45167 147.009 3.34738L147.024 3.31601V3.28158C146.978 2.82464 147.086 1.54143 147.262 0.904L147.269 0.860694L147.246 0.818841C147.193 0.700191 147.024 0.687314 146.955 0.687314C146.917 0.687314 146.856 0.690375 146.81 0.711224L146.764 0.727667L146.749 0.765052C146.542 1.11985 146.458 1.14762 145.609 1.14762H139.021C138.309 1.14762 137.996 1.1112 137.927 0.754562L137.919 0.717208L137.889 0.690306C137.85 0.646119 137.774 0.62455 137.674 0.62455V0.624512ZM123.818 0.89348C121.798 0.894092 120.444 2.04409 120.444 3.75532C120.444 5.2106 121.561 6.16197 122.219 6.59917L123.734 7.58841C124.835 8.29563 124.988 9.02786 124.988 9.71495C124.988 10.565 124.407 11.4243 123.114 11.4243C121.507 11.4243 120.803 10.1809 120.497 9.13804L120.482 9.10361C120.428 9.03245 120.344 8.99343 120.237 8.99343C120.13 8.99343 119.977 9.03551 119.893 9.15028L119.87 9.18318V9.2245C119.9 9.94526 120.107 11.1251 120.313 11.51L120.329 11.5398L120.359 11.5559C120.673 11.7387 121.545 12.1626 122.907 12.1626C125.011 12.1626 126.427 10.9292 126.427 9.09366C126.427 7.81971 125.754 6.78495 124.376 5.93113L123.099 5.13317C122.617 4.83255 121.805 4.19282 121.805 3.27856C121.805 2.66377 122.035 1.63176 123.581 1.63176C124.981 1.63176 125.409 2.54686 125.631 3.34283L125.654 3.38767C125.7 3.45018 125.792 3.48484 125.891 3.48484C126.014 3.48484 126.174 3.4361 126.243 3.32936L126.266 3.29799V3.26211C126.266 2.61106 126.128 1.70062 125.975 1.27459L125.945 1.1954H125.853C125.746 1.1954 125.532 1.16801 125.333 1.10573C124.95 1.00335 124.353 0.893709 123.818 0.89348ZM173.2 0.89348C169.894 0.89348 167.408 3.36326 167.408 6.63949C167.408 9.38365 169.397 12.1626 173.2 12.1626C176.421 12.1626 178.854 9.71878 178.854 6.47958C178.854 3.78936 177.086 0.89348 173.2 0.89348ZM189.512 1.06984L189.359 1.1042C189.168 1.1485 188.189 1.14758 187.24 1.14758H184.302C183.705 1.14758 183.169 1.13473 182.465 1.10121L182.435 1.09823L182.404 1.11315C182.274 1.17742 182.251 1.36496 182.244 1.42104C182.236 1.56014 182.282 1.66971 182.358 1.72289L182.664 1.77369C183.475 1.87117 183.514 1.95993 183.514 3.66113V9.39513C183.514 11.08 183.475 11.1687 182.664 11.2659L182.228 11.3187L182.198 11.3485C182.106 11.438 182.09 11.5865 182.106 11.6951C182.129 11.8137 182.182 11.9025 182.259 11.9415L182.289 11.9568L182.32 11.9553C183.062 11.9247 183.598 11.9071 184.302 11.9071C184.944 11.9071 185.503 11.9247 186.421 11.9553H186.452L186.482 11.9415C186.582 11.8895 186.628 11.7479 186.635 11.6324C186.643 11.4947 186.605 11.3845 186.521 11.3317L185.924 11.2644C185.113 11.1955 185.067 11.0907 185.067 9.39513V7.18044C185.067 6.87271 185.067 6.87263 185.465 6.87263H186.551C187.11 6.87263 187.531 6.88625 187.745 6.94731C187.967 7.01846 188.089 7.16461 188.173 7.46592L188.342 8.125L188.365 8.15025C188.525 8.28568 188.862 8.27803 188.961 8.125L188.984 8.09516V8.05767C188.984 7.8924 188.969 7.67816 188.961 7.44197C188.938 7.15328 188.923 6.82557 188.923 6.51095C188.923 6.18814 188.938 5.84689 188.961 5.54558C188.969 5.2979 188.984 5.07556 188.984 4.90302V4.8656L188.961 4.83423C188.885 4.7203 188.724 4.70875 188.663 4.70875C188.525 4.70875 188.41 4.7516 188.349 4.82383L188.189 5.51122C188.097 5.89769 187.99 5.93695 187.867 5.98048C187.699 6.03649 187.209 6.07016 186.551 6.07016H185.465C185.067 6.07016 185.067 6.07115 185.067 5.7638V2.40133C185.067 1.88655 185.067 1.88578 185.419 1.88578H186.391C187.049 1.88578 187.569 1.88609 187.906 1.97844C188.594 2.15603 188.793 2.61205 188.931 3.39364L188.938 3.43702L188.977 3.46686C189.03 3.51965 189.122 3.54758 189.214 3.54758C189.336 3.54758 189.489 3.49593 189.543 3.38017L189.558 3.35178V3.31896C189.528 2.74266 189.512 1.99772 189.512 1.22226V1.06984ZM37.0591 1.0788L36.952 1.1042C36.7744 1.14812 35.7859 1.14903 34.8295 1.14903H31.8347C31.2211 1.14903 30.697 1.13511 29.9624 1.10121L29.9295 1.09976L29.9028 1.11315C29.7712 1.17742 29.749 1.36419 29.7459 1.41951C29.736 1.55899 29.775 1.66971 29.8546 1.72289L30.1637 1.77369C30.9801 1.8704 31.0275 1.97683 31.0275 3.66113V9.39666C31.0275 11.1228 30.928 11.1978 30.1507 11.2659L29.5829 11.3171L29.5516 11.3485C29.4605 11.4388 29.446 11.5872 29.4628 11.6967C29.4819 11.8145 29.5378 11.9032 29.6143 11.9415L29.6426 11.9553H29.6725C30.5929 11.9247 31.1476 11.9071 31.8347 11.9071H33.2694C34.6588 11.9071 36.0537 11.9231 37.5358 11.9553L37.6153 11.9568L37.6498 11.8864C37.8632 11.4419 38.2626 10.2046 38.3743 9.64303L38.3835 9.60401L38.3667 9.57034C38.2978 9.41655 38.1287 9.34769 37.9918 9.34769C37.913 9.34769 37.8426 9.36911 37.7867 9.4089L37.7485 9.45328C37.2909 10.3661 36.88 10.8275 36.6719 10.943C36.3291 11.1144 35.8456 11.1687 34.6864 11.1687C33.3589 11.1687 33.0184 11.0103 32.8493 10.842C32.6236 10.601 32.5792 10.0837 32.5792 9.26965V7.02206C32.5792 6.71363 32.5792 6.71425 32.9824 6.71425H33.9059C34.4622 6.71425 34.8784 6.72679 35.1034 6.79045C35.3245 6.84577 35.4385 6.99069 35.5081 7.306L35.6512 7.92454L35.6757 7.9758C35.7346 8.04772 35.8471 8.0921 35.9741 8.0921C36.1203 8.0921 36.2381 8.03625 36.2909 7.94443L36.3077 7.91536V7.88246C36.3077 7.72713 36.2947 7.52185 36.2809 7.29108C36.2633 7.00056 36.2434 6.67148 36.2434 6.35257C36.2434 6.01927 36.2633 5.67879 36.2809 5.37824C36.2947 5.13447 36.3077 4.91572 36.3077 4.74456V4.71173L36.2909 4.6848C36.2381 4.59207 36.1203 4.53537 35.9741 4.53537C35.8471 4.53537 35.7346 4.5786 35.6757 4.65045L35.5211 5.35881C35.4492 5.72263 35.3605 5.77604 35.2212 5.82202C35.0514 5.87925 34.5716 5.9117 33.9059 5.9117H32.9824C32.5792 5.9117 32.5792 5.9117 32.5792 5.58743V2.40286C32.5792 1.888 32.5792 1.88731 32.935 1.88731H34.0827C34.7591 1.88731 35.2755 1.90308 35.5977 1.97997C36.3245 2.16146 36.4707 2.62062 36.6918 3.31597L36.7216 3.41162L36.7438 3.45194C36.7982 3.51812 36.8892 3.555 37.0024 3.555C37.1126 3.555 37.2664 3.51698 37.3368 3.41162L37.3613 3.37573L37.3399 3.13961C37.2572 2.21204 37.1823 1.4254 37.0966 1.18339L37.0591 1.0788ZM103.444 1.0788L103.337 1.1042C103.161 1.14812 102.166 1.14903 101.217 1.14903H98.2179C97.6058 1.14903 97.0778 1.13511 96.3433 1.10121L96.3127 1.09976L96.2821 1.11315C96.152 1.17742 96.129 1.36419 96.129 1.41951C96.1214 1.55899 96.1597 1.66971 96.2362 1.72289L96.5499 1.77369C97.3609 1.8704 97.4145 1.97683 97.4145 3.66113V9.39666C97.4145 11.1228 97.3074 11.1978 96.5346 11.2659L95.9684 11.3171L95.9378 11.3485C95.8459 11.4388 95.8306 11.5865 95.8459 11.6951C95.8689 11.813 95.9225 11.9032 95.999 11.9415L96.0219 11.9553H96.0525C96.9783 11.9247 97.5292 11.9071 98.2179 11.9071H99.6487C101.041 11.9071 102.441 11.9231 103.918 11.9553L103.995 11.9568L104.033 11.8864C104.247 11.4388 104.645 10.2023 104.76 9.64303L104.767 9.60401L104.752 9.57034C104.683 9.41655 104.515 9.34769 104.377 9.34769C104.293 9.34769 104.224 9.36911 104.171 9.4089L104.132 9.45328C103.673 10.3653 103.268 10.8275 103.054 10.943C102.709 11.1144 102.227 11.1687 101.072 11.1687C99.7405 11.1687 99.4038 11.0111 99.2355 10.842C99.006 10.6017 98.96 10.0837 98.96 9.26965V7.02206C98.96 6.71363 98.9601 6.71425 99.3656 6.71425H100.291C100.842 6.71425 101.263 6.72679 101.485 6.79045C101.707 6.84539 101.822 6.98954 101.891 7.30447L102.036 7.92454L102.059 7.97733C102.12 8.04925 102.227 8.0921 102.357 8.0921C102.503 8.0921 102.625 8.03625 102.671 7.94443L102.694 7.91536V7.88246C102.694 7.72713 102.679 7.52185 102.663 7.29108C102.648 7.00056 102.625 6.67148 102.625 6.35257C102.625 6.01927 102.648 5.67879 102.663 5.37824C102.679 5.13447 102.694 4.91572 102.694 4.74456V4.71173L102.671 4.6848C102.625 4.59207 102.503 4.53537 102.357 4.53537C102.227 4.53537 102.12 4.5786 102.059 4.65045L101.906 5.35881C101.837 5.72294 101.745 5.77604 101.607 5.82202C101.431 5.87925 100.957 5.9117 100.291 5.9117H99.3656C98.9601 5.9117 98.96 5.9117 98.96 5.58743V2.40286C98.96 1.888 98.9601 1.88731 99.3197 1.88731H100.467C101.141 1.88731 101.661 1.90308 101.982 1.97997C102.709 2.16146 102.855 2.62062 103.076 3.31597L103.107 3.41162L103.13 3.45194C103.184 3.51812 103.275 3.555 103.383 3.555C103.497 3.555 103.65 3.51721 103.719 3.41162L103.742 3.37573L103.727 3.14106C103.643 2.2128 103.566 1.42571 103.482 1.18339L103.444 1.0788ZM63.506 1.08629L63.5044 1.08775L63.4073 1.10274C63.216 1.13151 62.9558 1.14903 62.6926 1.14903C62.4141 1.14903 61.5671 1.14842 60.9022 1.10121L60.8678 1.09823L60.8379 1.11315C60.7538 1.15592 60.6949 1.24345 60.6765 1.35379C60.6551 1.48646 60.6933 1.62633 60.7737 1.70797L60.8035 1.73781L61.1165 1.77369C61.5411 1.82656 61.8586 1.94669 62.0293 2.11739C62.3269 2.4428 62.3476 2.73677 62.3476 3.18146V7.93066C62.3483 8.70039 62.3514 10.5046 62.1517 11.018C62.1142 11.0998 61.9795 11.2093 61.5495 11.2659L61.0759 11.3187L61.0461 11.3485C60.9749 11.4189 60.9389 11.5314 60.9489 11.6515C60.9588 11.7716 61.0109 11.8734 61.092 11.9316L61.1279 11.9568L61.17 11.9537C61.724 11.9231 62.1524 11.9055 62.8212 11.9055C63.3606 11.9055 63.8977 11.9201 64.6789 11.9537L64.7218 11.9553L64.7547 11.9316C64.8297 11.878 64.8794 11.7931 64.8955 11.6921C64.9138 11.5758 64.8847 11.4556 64.8151 11.3615L64.7822 11.3171L64.2321 11.2644C63.8495 11.2337 63.5825 11.1435 63.5159 11.0226C63.3445 10.7196 63.2458 9.53974 63.2458 7.78605V4.31272C63.2458 4.02763 63.2519 3.72364 63.2803 3.50726C63.5335 3.79051 63.9543 4.28992 64.3338 4.73859C64.594 5.04633 64.8358 5.33103 64.9911 5.50969L68.6867 9.71495C69.9147 11.1121 70.5031 11.8045 70.7174 12.1091L70.7549 12.1611H70.8176C71.0273 12.1611 71.1841 12.0639 71.2377 11.9009L71.2453 11.8757L71.2423 11.8504C71.2208 11.6653 71.1956 11.0333 71.1956 9.07683V5.05245C71.1933 4.23636 71.1872 2.53806 71.4213 2.04118C71.442 2.00094 71.6332 1.86574 72.2224 1.77369L72.4856 1.73635L72.5154 1.70644C72.592 1.62954 72.6294 1.50475 72.6157 1.38072C72.6027 1.2671 72.5468 1.17237 72.4619 1.11919L72.4275 1.09823L72.3884 1.09976C71.8658 1.13037 71.4511 1.14758 70.7549 1.14758C70.1933 1.14758 69.6676 1.13358 68.8811 1.09976H68.8558L68.8336 1.10718C68.7403 1.14146 68.676 1.22838 68.6538 1.34629C68.6278 1.48868 68.6699 1.63375 68.7632 1.71393L68.7915 1.73781L69.0991 1.77369C69.6462 1.84202 69.9239 1.92381 69.9989 2.03674C70.1894 2.33767 70.2981 3.51613 70.2981 5.26914V8.6782C70.2981 8.83199 70.2973 9.01179 70.2874 9.13345C69.7349 8.56266 69.1588 7.91459 68.4403 7.1102L66.2237 4.62504C64.6483 2.85697 63.7455 1.69657 63.5419 1.17742L63.506 1.08629ZM54.583 1.09823L54.5485 1.12218C54.4743 1.17099 54.4246 1.26166 54.4093 1.37024C54.3924 1.4896 54.4223 1.60467 54.4911 1.68555L54.524 1.72442L54.9724 1.75877C55.3382 1.78899 55.5868 1.88594 55.6717 2.03223C55.8577 2.3594 55.9602 3.50932 55.9602 5.26914V7.10278C55.9602 8.98042 55.4292 11.2169 52.8966 11.2169C50.7734 11.2169 49.784 9.90318 49.784 7.0848V3.64468C49.784 1.95036 49.8407 1.8274 50.6287 1.75877L51.0427 1.72587L51.0679 1.70797C51.1475 1.65517 51.1873 1.54767 51.1781 1.41354C51.1705 1.30244 51.1268 1.16457 51.0228 1.11315L50.9945 1.09976L50.9631 1.10121C50.2079 1.13182 49.6723 1.14758 49.0082 1.14758C48.354 1.14758 47.7909 1.13113 47.0387 1.10121L47.0074 1.09976L46.979 1.11315C46.875 1.16426 46.8314 1.30137 46.8237 1.41209C46.8153 1.54652 46.8536 1.65441 46.9324 1.70797L46.9599 1.72587L47.3899 1.75877C48.1788 1.8274 48.2331 1.95036 48.2331 3.64468V7.4031C48.2331 9.33009 48.6294 10.5191 49.5178 11.2575C50.2202 11.8573 51.25 12.1626 52.5783 12.1626C53.8339 12.1626 55.0329 11.7012 55.7092 10.9598C56.4813 10.1327 56.8569 8.85953 56.8569 7.06988V5.26914C56.8569 4.46169 56.8569 2.57004 57.0696 2.06957C57.1431 1.90927 57.4163 1.78716 57.7644 1.75877L58.199 1.72442L58.2319 1.68402C58.3031 1.59848 58.3344 1.46756 58.3153 1.34927C58.2992 1.24973 58.2487 1.16809 58.1707 1.11919L58.1378 1.09823L58.0988 1.10121C57.5456 1.13182 57.1156 1.14903 56.4331 1.14903C55.8217 1.14903 55.2295 1.13289 54.6227 1.10121L54.583 1.09823ZM82.6091 1.09823L82.5708 1.11919C82.479 1.17666 82.4178 1.28423 82.4102 1.40612C82.4025 1.52793 82.4408 1.64308 82.5249 1.71393L82.5555 1.73934L82.8769 1.77522C83.4967 1.84753 83.7109 2.13155 84.0705 3.00663L86.8709 9.92001C87.2076 10.7471 87.4524 11.4556 87.5978 12.0241L87.6131 12.0823L87.6743 12.106C87.7661 12.1435 87.8656 12.1626 87.9574 12.1626C88.0492 12.1626 88.1334 12.1381 88.2022 12.0938L88.2405 12.07L88.2482 12.0295C88.5236 11.1741 89.2887 9.29719 89.9008 7.88399L90.7654 5.92516C91.5 4.24982 92.1197 2.98766 92.5406 2.27585C92.7471 1.9483 92.9537 1.80185 93.2751 1.77522L93.7954 1.74087L93.8336 1.70797C93.9178 1.62089 93.9331 1.46894 93.9178 1.36572C93.9025 1.24965 93.8489 1.16258 93.7724 1.11766L93.7418 1.09823L93.7036 1.10121C93.168 1.13327 92.6783 1.14903 92.1656 1.14903C91.5382 1.14903 90.9414 1.13144 90.5206 1.10121L90.4824 1.09823L90.4441 1.11766C90.3599 1.16801 90.2987 1.27276 90.2834 1.39862C90.2758 1.52586 90.314 1.64415 90.3982 1.71393L90.4211 1.73934L90.7501 1.77522C91.3087 1.83888 91.3546 1.95602 91.3546 1.95602C91.3546 2.05993 91.3393 2.21977 91.2245 2.53286C90.9491 3.22668 90.1916 5.05054 89.7402 6.09701C89.6254 6.3681 89.4724 6.72236 89.3117 7.11173C89.0056 7.82813 88.6384 8.69962 88.3323 9.38442C87.5748 7.65291 86.8786 5.9146 86.1746 4.13934C85.7079 2.99538 85.4401 2.16307 85.3942 1.95602C85.4172 1.90537 85.5549 1.83812 86.0293 1.77522L86.3047 1.73781L86.3353 1.71393C86.4118 1.64423 86.4577 1.52701 86.4424 1.40008C86.4348 1.2739 86.3736 1.16801 86.2818 1.11766L86.2511 1.09976L86.2129 1.10121C85.509 1.13473 84.9504 1.14903 84.2924 1.14903C83.6344 1.14903 83.1217 1.13404 82.6474 1.10121L82.6091 1.09976V1.09823ZM149.581 1.09823L149.551 1.11766C149.474 1.16227 149.421 1.24552 149.398 1.35225C149.375 1.48026 149.413 1.61462 149.49 1.702L149.513 1.73482L150.002 1.82151C150.423 1.89229 150.637 1.92909 151.173 2.96776L153.055 6.63199C153.507 7.49912 153.552 7.67969 153.552 8.55271V9.36376C153.552 11.093 153.507 11.1817 152.703 11.2659L152.168 11.3187L152.137 11.35C152.045 11.4411 152.03 11.5888 152.053 11.6982C152.068 11.8153 152.122 11.9032 152.198 11.9415L152.229 11.9568L152.259 11.9553C153.116 11.9239 153.675 11.9086 154.341 11.9086C154.991 11.9086 155.557 11.9254 156.506 11.9553L156.536 11.9568L156.559 11.9415C156.636 11.9032 156.697 11.8145 156.712 11.6967C156.728 11.5872 156.72 11.4388 156.628 11.3485L156.59 11.3171L155.947 11.2659C155.205 11.2108 155.098 11.0884 155.098 9.36376V8.53435C155.098 7.34082 155.136 7.2239 155.833 6.01629L156.835 4.27982C156.927 4.12312 157.019 3.9707 157.095 3.82402C157.722 2.72935 158.174 1.93911 158.855 1.82151L159.337 1.73635L159.36 1.71393C159.444 1.64316 159.482 1.52793 159.475 1.40612C159.467 1.28423 159.406 1.17704 159.314 1.11919L159.283 1.09823L159.245 1.10121C158.113 1.1674 157.439 1.16702 156.246 1.10121L156.207 1.09976L156.185 1.11468C156.093 1.15921 156.032 1.2498 156.016 1.36128C155.993 1.48998 156.031 1.62204 156.116 1.70797L156.146 1.73934L156.475 1.77522C156.789 1.81378 156.98 1.88854 157.034 1.93062C156.988 2.15855 156.429 3.19371 156.093 3.82104L156.016 3.95555C155.634 4.69758 155.19 5.49653 154.631 6.45716C154.21 5.69899 153.805 4.86568 153.407 4.05716C153.246 3.73971 153.093 3.42332 152.94 3.11268C152.826 2.88222 152.466 2.06796 152.458 1.9411C152.458 1.90904 152.527 1.84569 153.025 1.77522L153.269 1.73781L153.3 1.70797C153.384 1.62128 153.422 1.46419 153.384 1.32685C153.361 1.21797 153.292 1.1374 153.201 1.10718L153.178 1.09976L153.155 1.10274C152.764 1.13358 152.191 1.14903 151.456 1.14903C150.721 1.14903 150.132 1.13473 149.62 1.10274L149.581 1.09976V1.09823ZM18.7356 1.09976L18.7042 1.10121C17.9789 1.13473 17.4464 1.14903 16.8633 1.14903C16.4471 1.14903 16.0844 1.1374 15.6888 1.12516C15.4333 1.11652 15.1647 1.10734 14.8594 1.10121H14.8296L14.802 1.11315C14.6712 1.17719 14.6498 1.36419 14.6452 1.41951C14.636 1.55938 14.675 1.67086 14.7546 1.72442L14.7814 1.74232L15.2282 1.77668C15.9306 1.83062 16.0546 1.97362 16.0546 3.66113V9.39666C16.0546 11.0555 16.0247 11.1251 15.2328 11.2674L14.9237 11.3217L14.8962 11.35C14.8051 11.4403 14.7929 11.5888 14.8097 11.6982C14.8288 11.8153 14.8824 11.9048 14.9589 11.943L14.9864 11.9568L15.0178 11.9553C15.2366 11.9491 15.4455 11.943 15.6544 11.9354C16.0309 11.9224 16.4211 11.9086 16.8633 11.9086C17.4617 11.9086 17.9689 11.9239 18.8818 11.9568H18.9131L18.9422 11.943C19.0463 11.891 19.0906 11.7494 19.0975 11.6339C19.1059 11.4962 19.0646 11.386 18.985 11.3332L18.4693 11.2659C17.705 11.1832 17.607 11.1075 17.607 9.39666V7.1506C17.607 6.76375 17.607 6.76352 18.2811 6.76352H22.8375C23.5116 6.76352 23.5116 6.76375 23.5116 7.1506V9.39666C23.5116 11.0914 23.494 11.1266 22.6416 11.2674L22.3011 11.3217L22.2728 11.35C22.1818 11.4411 22.168 11.5903 22.1864 11.6997C22.2055 11.8168 22.2606 11.9055 22.3371 11.943L22.3654 11.9568L22.3968 11.9553C23.1596 11.9216 23.7151 11.9086 24.3173 11.9086C24.9454 11.9086 25.4979 11.9254 26.2408 11.9553L26.2722 11.9568L26.3005 11.943C26.4321 11.8788 26.4535 11.6913 26.4574 11.6354C26.4658 11.4962 26.4268 11.386 26.3464 11.3332L25.9103 11.2659C25.1015 11.1687 25.0633 11.0815 25.0633 9.39666V3.66113C25.0633 1.9639 25.11 1.85862 25.9072 1.77522L26.2408 1.74385L26.2974 1.72289C26.377 1.67009 26.4183 1.56129 26.4092 1.42249C26.4053 1.36649 26.3831 1.17826 26.2523 1.11315L26.224 1.09976L26.1926 1.10121C25.4229 1.13496 24.8965 1.14903 24.3173 1.14903C23.6271 1.14903 23.0716 1.13037 22.3968 1.10121L22.3654 1.09976L22.3371 1.11315C22.2063 1.17742 22.1841 1.36534 22.1802 1.42104C22.1718 1.56014 22.2109 1.66971 22.2912 1.72289L22.6477 1.77522C23.4618 1.859 23.5101 1.96429 23.5101 3.66113V5.49332C23.5101 5.88117 23.5101 5.88033 22.836 5.88033H18.2811C17.607 5.88033 17.6055 5.88117 17.6055 5.49332V3.66113C17.6055 1.9639 17.6545 1.859 18.4533 1.77522L18.7547 1.74385L18.8106 1.72442C18.8902 1.67162 18.93 1.56014 18.9208 1.42104C18.9169 1.36496 18.8955 1.1775 18.7639 1.11315L18.7371 1.09976H18.7356ZM75.7489 1.09976L75.7206 1.11315C75.589 1.17742 75.5676 1.36534 75.5637 1.42104C75.5546 1.56014 75.5951 1.66971 75.6754 1.72289L75.7007 1.74087L76.1315 1.77522C76.9341 1.84347 76.9877 1.96872 76.9877 3.6925V9.36376C76.9877 11.0792 76.9494 11.1679 76.1269 11.2659L75.6862 11.3187L75.6563 11.3485C75.5653 11.4396 75.5515 11.588 75.5691 11.6967C75.5882 11.8145 75.6433 11.904 75.7206 11.9415L75.7489 11.9568L75.7803 11.9553C76.5898 11.9239 77.1177 11.9086 77.7834 11.9086C78.4108 11.9086 78.9617 11.9247 79.7498 11.9553L79.7804 11.9568L79.811 11.943C79.9411 11.878 79.964 11.6898 79.9717 11.6339C79.9793 11.4954 79.9334 11.386 79.8569 11.3332L79.4055 11.2659C78.5791 11.1679 78.5409 11.0792 78.5409 9.36376V3.6925C78.5409 1.96865 78.5944 1.84317 79.3978 1.77522L79.834 1.74232L79.8569 1.72289C79.9334 1.66971 79.9793 1.56052 79.964 1.42104C79.964 1.36534 79.9411 1.1775 79.811 1.11315L79.7804 1.09976L79.7498 1.10121C79 1.13105 78.4338 1.14758 77.7834 1.14758C77.0948 1.14758 76.5508 1.13182 75.7803 1.10121L75.7489 1.09976ZM129.943 1.09976L129.912 1.11468C129.782 1.17972 129.767 1.36679 129.759 1.42249C129.751 1.56091 129.79 1.67009 129.874 1.72289L129.897 1.74232L130.325 1.77522C131.136 1.84424 131.182 1.95143 131.182 3.6925V9.36376C131.182 11.0792 131.144 11.1687 130.318 11.2659L129.881 11.3187L129.851 11.3485C129.759 11.4388 129.744 11.5872 129.767 11.6967C129.782 11.8145 129.836 11.9032 129.912 11.9415L129.943 11.9568L129.973 11.9553C130.784 11.9239 131.32 11.9086 131.978 11.9086C132.613 11.9086 133.141 11.9239 133.952 11.9553L133.983 11.9568L134.006 11.9415C134.136 11.8765 134.159 11.6898 134.166 11.6339C134.174 11.4954 134.136 11.386 134.051 11.3332L133.6 11.2659C132.781 11.1687 132.735 11.0792 132.735 9.36376V3.6925C132.735 1.95143 132.781 1.84385 133.592 1.77522L134.029 1.74232L134.051 1.72289C134.136 1.66971 134.174 1.56014 134.166 1.42104C134.159 1.36534 134.136 1.17788 134.006 1.11315L133.983 1.09976L133.952 1.10121C133.195 1.13105 132.628 1.14758 131.978 1.14758C131.297 1.14758 130.746 1.13182 129.973 1.10121L129.943 1.09976ZM111.335 1.10121C109.873 1.10121 108.741 1.14169 107.769 1.22823L107.723 1.24024C107.631 1.28661 107.57 1.39005 107.562 1.51515C107.547 1.65211 107.601 1.78303 107.693 1.84845L107.715 1.86635L108.259 1.9336C108.779 1.99696 108.848 2.11004 108.848 3.67612V9.39666C108.848 11.0815 108.81 11.1687 108.006 11.2659L107.555 11.3202L107.524 11.3562C107.44 11.4602 107.425 11.6117 107.448 11.7188C107.471 11.8267 107.524 11.9048 107.601 11.9415L107.624 11.9568L107.654 11.9553C108.366 11.9262 108.947 11.9071 109.644 11.9071C110.302 11.9071 110.853 11.9262 111.534 11.9553L111.564 11.9568L111.595 11.9415C111.71 11.8833 111.74 11.7311 111.748 11.6683C111.763 11.5276 111.725 11.4051 111.648 11.3409L111.625 11.3202L111.25 11.2659C110.432 11.1526 110.401 11.083 110.401 9.39666V7.38818C110.401 7.16101 110.401 7.16101 111.029 7.16101C111.641 7.16101 111.847 7.3073 112.061 7.6168C112.299 7.96815 112.582 8.41499 112.857 8.84653C113.14 9.29719 113.408 9.72337 113.622 10.0241C114.716 11.5826 115.543 12.0823 117.02 12.0823C117.326 12.0823 117.593 12.0524 117.754 11.9981L117.792 11.9775C117.869 11.9193 117.907 11.826 117.892 11.7326C117.876 11.6454 117.823 11.5742 117.746 11.5444L117.716 11.5367C117.333 11.5092 116.951 11.3531 116.683 11.1182C115.589 10.1985 114.716 8.85494 113.508 6.90997C113.423 6.77553 113.408 6.71356 113.416 6.68731C113.944 6.46657 115.436 5.68636 115.436 3.9316C115.436 2.59713 114.686 1.92373 114.051 1.59442C113.255 1.16044 112.23 1.10121 111.335 1.10121ZM172.936 1.63176C175.95 1.63176 177.021 4.50982 177.021 6.97424C177.021 10.2582 175.078 11.4227 173.41 11.4227C170.128 11.4227 169.248 8.09593 169.248 6.12991C169.248 2.81022 171.237 1.63176 172.936 1.63176ZM111.319 1.83949C113.11 1.83949 113.745 3.09546 113.745 4.17071C113.745 5.05367 113.508 5.65086 112.995 6.04919C112.536 6.39396 111.916 6.43773 111.426 6.43773C110.707 6.43773 110.485 6.41011 110.424 6.38991C110.401 6.3241 110.401 6.13733 110.401 5.95508V2.2265C110.401 1.86842 110.401 1.83949 111.319 1.83949ZM16.2512 20.6358C12.2756 20.6358 8.72075 21.7078 5.92954 23.8869C3.0234 26.1425 1.11133 29.7746 1.11133 34.0188C1.11133 38.9501 3.48179 42.4299 6.5405 44.5333C9.33133 46.4063 12.6206 47.0949 16.0618 47.0949C18.508 47.0949 21.2602 46.5203 22.1011 46.2143C22.5219 46.0612 22.981 45.909 23.4385 45.8317C24.0124 45.1056 25.0078 42.5837 25.2756 40.5951C25.1218 40.3281 24.548 40.2508 24.2802 40.4413C23.4003 42.6977 21.2212 45.9098 16.2899 45.9098C10.0188 45.9098 4.93371 41.4735 4.93371 33.4449C4.93364 25.5304 9.9048 21.821 15.7543 21.821C21.2984 21.821 23.0192 24.8035 23.5931 27.4042C23.8601 27.633 24.4332 27.5955 24.6237 27.3284C24.3184 24.9963 24.1287 22.5877 24.0904 21.7078C23.7461 21.746 23.4775 21.6695 23.0192 21.5555C21.2212 21.0582 18.3159 20.6358 16.2508 20.6358H16.2512ZM93.7518 20.6358C89.7731 20.6358 86.2228 21.7078 83.4301 23.8869C80.5226 26.1425 78.6097 29.7746 78.6097 34.0188C78.6097 38.9501 80.9817 42.4299 84.0422 44.5333C86.835 46.4063 90.1174 47.0949 93.5605 47.0949C96.0089 47.0949 98.7634 46.5203 99.6051 46.2143C100.026 46.0612 100.477 45.909 100.936 45.8317C101.51 45.1056 102.505 42.5837 102.773 40.5951C102.62 40.3281 102.046 40.2508 101.786 40.4413C100.906 42.6977 98.7252 45.9098 93.79 45.9098C87.5236 45.9098 82.4354 41.4735 82.4354 33.4449C82.4354 25.5304 87.4088 21.821 93.2544 21.821C98.8017 21.821 100.523 24.8035 101.097 27.4042C101.357 27.633 101.939 27.5955 102.13 27.3284C101.824 24.9963 101.625 22.5877 101.587 21.7078C101.242 21.746 100.982 21.6695 100.523 21.5555C98.7252 21.0582 95.8176 20.6358 93.7518 20.6358ZM119.369 20.6358C118.948 21.1331 118.297 21.8225 117.379 22.0903C117.494 22.7024 117.264 23.4263 116.729 24.8027L112.834 35.1275C111.227 39.4099 110.156 41.8943 109.468 43.6526C108.932 45.0298 108.09 45.4514 107.172 45.5272L105.91 45.642C105.68 45.8332 105.757 46.4446 105.986 46.5968C107.019 46.5594 108.396 46.4836 109.659 46.4836C111.457 46.5211 112.643 46.5203 113.63 46.5968C113.974 46.4446 113.974 45.8332 113.707 45.642L112.452 45.5272C111.534 45.4514 111.342 45.2211 111.342 44.7621C111.342 44.3412 111.61 43.3091 112.184 41.5875L113.515 37.5736C113.783 36.7702 114.013 36.6562 114.969 36.6562H120.746C121.893 36.6562 122.046 36.771 122.314 37.6126L123.998 42.8117C124.304 43.7291 124.495 44.4177 124.495 44.8378C124.495 45.2204 123.959 45.4514 123.156 45.5272L122.046 45.642C121.779 45.8332 121.817 46.4446 122.123 46.5968C123.232 46.5594 124.686 46.4836 126.515 46.4836C128.236 46.4836 129.575 46.5203 131.144 46.5968C131.335 46.4446 131.412 45.8332 131.144 45.642L130.111 45.5272C128.466 45.3359 127.969 44.7605 126.859 41.4727L121.626 26.1027C121.052 24.4209 120.44 22.6626 119.942 20.9801C119.866 20.7131 119.598 20.6358 119.369 20.6358ZM148.926 20.6358C143.149 20.6358 139.361 22.4331 136.806 25.1103C134.434 27.633 133.363 30.9208 133.363 34.1711C133.363 37.5361 134.587 40.5561 136.882 42.8507C139.821 45.8332 143.991 47.0949 148.543 47.0949C150.609 47.0949 153.356 46.6359 155.383 46.101C156.11 45.9105 156.799 45.756 157.258 45.756C157.411 45.6412 157.411 45.4109 157.296 45.2969C156.608 45.0291 156.378 44.1125 156.378 42.5829V40.4413C156.378 38.4918 156.416 37.4221 158.023 37.2301L158.635 37.152C158.903 36.924 158.865 36.3509 158.597 36.1971C157.335 36.2736 156.034 36.3111 154.542 36.3111C152.285 36.3111 150.188 36.2736 149.079 36.1971C148.811 36.3119 148.773 37.0005 149.079 37.152L150.762 37.3448C153.126 37.6119 153.241 37.8422 153.241 41.0527V42.5829C153.241 43.8064 153.05 44.495 152.866 44.7621C152.438 45.4117 151.03 45.9098 148.658 45.9098C140.968 45.9098 137.189 40.1345 137.189 32.7946C137.189 27.0599 140.44 21.7835 147.854 21.7835C151.757 21.7835 154.618 23.0827 155.689 27.2114C155.919 27.4417 156.608 27.4042 156.722 27.0981C156.378 24.8035 156.149 22.8157 156.149 21.5555C155.689 21.6312 154.504 21.3627 153.784 21.2097C153.126 21.0574 151.106 20.6373 148.926 20.6373V20.6358ZM177.595 20.6358C169.722 20.6358 163.984 26.486 163.984 34.132C163.984 41.0144 169.11 47.0949 177.595 47.0949C184.979 47.0949 190.863 41.4727 190.863 33.7495C190.863 27.0209 186.433 20.6358 177.595 20.6358ZM30.5898 21.1339C30.3603 21.2479 30.2838 21.9365 30.5141 22.0903L31.5072 22.1661C33.4966 22.3191 33.7629 22.9687 33.7629 26.9826V40.7482C33.7629 44.7621 33.6864 45.1454 31.5447 45.5272L30.8967 45.642C30.6664 45.8707 30.7436 46.4828 30.9724 46.5968C32.4644 46.5594 33.7636 46.4836 35.4079 46.4836C36.8992 46.4836 38.1984 46.5203 40.2635 46.5968C40.493 46.4828 40.5687 45.7942 40.3392 45.642L39.2305 45.5272C37.0897 45.2976 36.8976 44.7621 36.8976 40.7482V35.3562C36.8976 34.2101 36.9757 34.1336 38.8105 34.1336H49.745C51.5806 34.1336 51.6563 34.2101 51.6563 35.3562V40.7482C51.6563 44.7621 51.6563 45.1454 49.3242 45.5272L48.5973 45.642C48.3685 45.8707 48.445 46.4828 48.6738 46.5968C50.3564 46.5203 51.7336 46.4836 53.3006 46.4836C54.7918 46.4836 56.0918 46.5203 57.9274 46.5968C58.1561 46.4828 58.2334 45.7942 58.0046 45.642L57.0857 45.5272C54.8684 45.2594 54.7918 44.7621 54.7918 40.7482V26.9826C54.7918 22.9687 54.8684 22.3949 57.0857 22.1661L57.8884 22.0903C58.1179 21.9365 58.0414 21.2479 57.8118 21.1339C56.0918 21.2097 54.7918 21.2472 53.3006 21.2472C51.7336 21.2472 50.4329 21.2104 48.6738 21.1339C48.445 21.2479 48.3685 21.9365 48.5973 22.0903L49.3242 22.1661C51.5798 22.3949 51.6563 22.9687 51.6563 26.9826V31.3791C51.6563 32.5658 51.5806 32.6033 49.745 32.6033H38.8105C36.9757 32.6033 36.8976 32.565 36.8976 31.3791V26.9826C36.8976 22.9687 36.9757 22.3949 39.193 22.1661L39.9184 22.0903C40.1472 21.9365 40.0714 21.2479 39.8419 21.1339C38.1976 21.2097 36.8992 21.2472 35.4079 21.2472C33.7636 21.2472 32.4637 21.1722 30.5898 21.1339ZM64.1961 21.1339C63.9666 21.2479 63.8908 21.9365 64.1196 22.0903L65.076 22.1661C67.3316 22.3566 67.4074 23.0062 67.4074 27.0591V40.6716C67.4074 44.7246 67.3316 45.2594 65.076 45.5272L64.1196 45.642C63.8908 45.8707 63.9666 46.4828 64.1961 46.5968C66.1074 46.5203 67.4082 46.4836 69.0142 46.4836C70.5437 46.4836 71.8437 46.5203 73.7557 46.5968C73.9845 46.4828 74.0618 45.7942 73.8322 45.642L72.8758 45.5272C70.6194 45.2594 70.5444 44.7246 70.5444 40.6716V27.0591C70.5444 23.0062 70.6194 22.3566 72.8758 22.1661L73.8322 22.0903C74.0618 21.9365 73.9853 21.2479 73.7557 21.1339C71.8437 21.2097 70.5437 21.2472 69.0142 21.2472C67.4082 21.2472 66.1074 21.2104 64.1961 21.1339ZM176.946 21.821C184.254 21.821 187.046 28.6269 187.046 34.9362C187.046 42.4674 182.685 45.9098 178.094 45.9098C170.565 45.9098 167.811 38.5683 167.811 32.9093C167.811 24.5365 172.975 21.821 176.946 21.821ZM118.069 25.3001H118.146C118.375 25.7584 118.72 26.7921 119.026 27.7095L121.092 33.9407C121.436 34.9737 121.359 35.1275 120.25 35.1275H115.544C114.481 35.1275 114.435 35.0884 114.741 34.2101L117.151 27.5565C117.572 26.4103 117.955 25.4914 118.069 25.3001Z" fill="#800000"/>
</svg>

