<svg width="179" height="50" viewBox="0 0 179 50" fill="none" xmlns="http://www.w3.org/2000/svg">
<g filter="url(#filter0_i_657_6214)">
<path fill-rule="evenodd" clip-rule="evenodd" d="M26.7044 37.7723C27.3666 37.11 27.3668 36.0364 26.7046 35.3741C26.0424 34.7119 24.9685 34.7119 24.3062 35.374C23.6439 36.0364 23.6442 37.11 24.3064 37.7723C24.9688 38.4347 26.0424 38.4346 26.7044 37.7723Z" fill="url(#paint0_radial_657_6214)"/>
<path fill-rule="evenodd" clip-rule="evenodd" d="M15.9346 21.6919C16.8711 21.6919 17.6301 20.9328 17.6301 19.996C17.6301 19.0594 16.8711 18.3001 15.9346 18.3001C14.9979 18.3001 14.2387 19.0594 14.2387 19.996C14.2387 20.9328 14.9979 21.6919 15.9346 21.6919Z" fill="url(#paint1_radial_657_6214)"/>
<path fill-rule="evenodd" clip-rule="evenodd" d="M25.5052 45.2534C24.1945 45.2534 23.1319 46.3158 23.1319 47.6266C23.1319 48.9374 24.1945 50 25.5052 50C26.8159 50 27.8787 48.9374 27.8787 47.6266C27.8787 46.3158 26.8159 45.2534 25.5052 45.2534Z" fill="url(#paint2_radial_657_6214)"/>
<path fill-rule="evenodd" clip-rule="evenodd" d="M35.0766 11.3159C36.3871 11.3159 37.4497 10.2534 37.4497 8.94259C37.4497 7.63164 36.3871 6.56917 35.0766 6.56917C33.7658 6.56949 32.7031 7.63195 32.7031 8.94259C32.7031 10.2536 33.7658 11.3161 35.0766 11.3159Z" fill="url(#paint3_radial_657_6214)"/>
<path fill-rule="evenodd" clip-rule="evenodd" d="M23.2395 5.96473C24.856 7.74562 25.9034 11.6516 24.3067 13.2482C24.3067 13.2482 24.3067 13.2483 24.3066 13.2483C23.9729 13.582 23.8078 14.0202 23.8105 14.4574C23.8084 14.894 23.9737 15.3311 24.3067 15.6642C25.9515 17.309 24.7905 21.4047 23.0918 23.1034C21.759 24.4365 21.759 26.5977 23.0918 27.9308C24.425 29.2639 26.5864 29.264 27.9193 27.9308C29.2525 26.5977 29.2525 24.4362 27.9193 23.1034C26.221 21.4049 25.0602 17.3099 26.7039 15.6648C26.7042 15.6645 26.7044 15.6644 26.7047 15.6642C27.0385 15.3304 27.2034 14.8922 27.201 14.455C27.2029 14.0183 27.0375 13.5814 26.7047 13.2482C25.108 11.6514 26.1555 7.7454 27.7719 5.96454C28.4754 5.33912 28.9191 4.4279 28.9191 3.41291C28.9191 1.52756 27.3908 -0.000747814 25.5056 -0.000747979C23.6203 -0.000748144 22.0921 1.52756 22.0921 3.41291C22.0921 4.428 22.536 5.33944 23.2395 5.96473Z" fill="url(#paint4_radial_657_6214)"/>
<path fill-rule="evenodd" clip-rule="evenodd" d="M7.56137 26.7265C8.22359 26.0643 8.22359 24.9907 7.56137 24.3283C6.89906 23.6661 5.82554 23.666 5.16322 24.3283C4.50098 24.9907 4.50098 26.0643 5.16322 26.7265C6.04533 27.6086 6.72359 32.8614 4.68396 34.901C3.75721 35.8279 3.75721 37.3305 4.68428 38.2576C5.61091 39.1843 7.11347 39.1843 8.04042 38.2576C8.96749 37.3305 8.96749 35.8279 8.04042 34.901C6.00081 32.8614 6.67914 27.6086 7.56137 26.7265Z" fill="url(#paint5_radial_657_6214)"/>
<path fill-rule="evenodd" clip-rule="evenodd" d="M17.6124 32.7294C18.5392 31.8027 18.5392 30.2999 17.6123 29.3729C16.6856 28.4462 15.1829 28.4462 14.2561 29.3729C13.329 30.2999 13.329 31.8027 14.2561 32.7294C16.2956 34.769 15.6174 40.0217 14.735 40.9038C14.0728 41.5661 14.0728 42.6398 14.735 43.3022C15.3974 43.9643 16.471 43.9644 17.1332 43.3022C17.7955 42.6398 17.7955 41.5661 17.1332 40.9038C16.2513 40.0218 15.5728 34.7701 17.6121 32.7301C17.6121 32.7297 17.6123 32.7296 17.6124 32.7294Z" fill="url(#paint6_radial_657_6214)"/>
<path fill-rule="evenodd" clip-rule="evenodd" d="M42.9698 34.8991C42.6634 35.2054 42.4606 35.5749 42.3566 35.9654L42.3549 35.9622C41.6084 38.7484 36.7203 40.7873 35.5153 40.4644L35.5167 40.467C35.3764 40.4293 35.2291 40.4073 35.0768 40.4073C34.1402 40.4073 33.3809 41.1665 33.3809 42.1029C33.3809 43.0395 34.1404 43.7988 35.0768 43.7988C35.8622 43.7988 36.5208 43.2643 36.7136 42.54L36.7144 42.5412C37.0371 41.3364 41.2462 38.123 44.0323 38.8687C44.0325 38.8688 44.0331 38.8689 44.0333 38.8691L44.0323 38.8675C44.8245 39.0796 45.7045 38.8771 46.3262 38.2556C47.2532 37.3286 47.2532 35.8259 46.3262 34.8991C44.2866 32.8595 44.965 27.6067 45.8472 26.7246L45.8465 26.7246C45.8468 26.7245 45.847 26.7242 45.8472 26.7241C46.5095 26.0618 46.5095 24.9882 45.8472 24.3259C44.965 23.4437 44.2869 18.1922 46.3257 16.1521C46.326 16.1517 46.3262 16.1516 46.3266 16.1514C47.2532 15.2246 47.2532 13.7218 46.3262 12.795C45.3995 11.8682 43.8967 11.8682 42.97 12.795C42.043 13.7218 42.043 15.2246 42.9698 16.1514C45.0094 18.191 44.3311 23.4436 43.449 24.3259C42.7868 24.9882 42.7868 26.0618 43.449 26.7241C43.449 26.7242 43.4493 26.7245 43.4495 26.7246L43.449 26.7246C44.3311 27.6066 45.0094 32.8585 42.9705 34.8983C42.9703 34.8986 42.97 34.8988 42.9698 34.8991Z" fill="url(#paint7_radial_657_6214)"/>
<path fill-rule="evenodd" clip-rule="evenodd" d="M33.3987 29.3712C32.472 30.2981 32.472 31.8008 33.3987 32.7277C34.3257 33.6546 35.8285 33.6545 36.7552 32.7277C37.6822 31.8007 37.6822 30.2981 36.7552 29.3712C34.8909 27.5069 35.2319 23.2 36.7547 21.6762C36.7549 21.6759 36.7552 21.6757 36.7554 21.6755C37.6822 20.7487 37.6822 19.2461 36.7552 18.3191C35.8285 17.3922 34.3257 17.3922 33.3989 18.3191C32.472 19.2461 32.472 20.7487 33.3987 21.6755C34.922 23.1987 35.2635 27.5066 33.3987 29.3712Z" fill="url(#paint8_radial_657_6214)"/>
<path fill-rule="evenodd" clip-rule="evenodd" d="M5.74782 16.7642C7.01406 17.1035 8.31549 16.3521 8.65466 15.0861C9.21221 13.0053 12.7722 10.5556 15.3192 11.2382C16.5853 11.5772 17.8868 10.8257 18.226 9.5598C18.5653 8.29357 17.8139 6.99225 16.5477 6.65328C15.2817 6.31399 13.9804 7.06506 13.6411 8.3314C12.9589 10.8774 9.06038 12.7352 6.97876 12.1798C6.97805 12.1796 6.97703 12.1793 6.97633 12.1791C5.71031 11.84 4.40897 12.5915 4.0697 13.8577C3.73041 15.1233 4.4818 16.425 5.74782 16.7642Z" fill="url(#paint9_radial_657_6214)"/>
</g>
<path d="M74.1829 21.32C75.2163 21.32 76.1896 21.1733 77.1029 20.88C78.0163 20.58 78.7863 20.2067 79.4129 19.76L78.0129 17.01C77.5663 17.3633 77.0196 17.64 76.3729 17.84C75.7329 18.04 75.0663 18.14 74.3729 18.14C73.2863 18.14 72.3096 17.9033 71.4429 17.43C70.5763 16.9567 69.8929 16.3133 69.3929 15.5C68.8929 14.6867 68.6429 13.7733 68.6429 12.76C68.6429 11.7467 68.8929 10.8333 69.3929 10.02C69.8929 9.20667 70.5763 8.56333 71.4429 8.09C72.3096 7.61667 73.2863 7.38 74.3729 7.38C75.0663 7.38 75.7329 7.48 76.3729 7.68C77.0196 7.88 77.5663 8.15667 78.0129 8.51L79.4129 5.76C78.7663 5.29333 77.9829 4.91667 77.0629 4.63C76.1429 4.34333 75.1763 4.2 74.1629 4.2C72.9229 4.2 71.7563 4.42 70.6629 4.86C69.5763 5.3 68.6163 5.91333 67.7829 6.7C66.9563 7.48 66.3063 8.39 65.8329 9.43C65.3663 10.4633 65.1329 11.5767 65.1329 12.77C65.1329 13.9567 65.3663 15.0667 65.8329 16.1C66.3063 17.1333 66.9563 18.0433 67.7829 18.83C68.6163 19.61 69.5796 20.22 70.6729 20.66C71.7663 21.1 72.9363 21.32 74.1829 21.32ZM87.817 21.32C88.9503 21.32 89.9703 21.09 90.877 20.63C91.7837 20.1633 92.5003 19.5233 93.027 18.71C93.5603 17.89 93.827 16.9467 93.827 15.88C93.827 14.8133 93.5603 13.8733 93.027 13.06C92.5003 12.24 91.7837 11.6 90.877 11.14C89.9703 10.6733 88.9503 10.44 87.817 10.44C86.6903 10.44 85.6703 10.6733 84.757 11.14C83.8503 11.6 83.1303 12.24 82.597 13.06C82.0703 13.8733 81.807 14.8133 81.807 15.88C81.807 16.9467 82.0703 17.89 82.597 18.71C83.1303 19.5233 83.8503 20.1633 84.757 20.63C85.6703 21.09 86.6903 21.32 87.817 21.32ZM87.817 18.7C87.297 18.7 86.8237 18.58 86.397 18.34C85.977 18.1 85.6437 17.77 85.397 17.35C85.1503 16.9233 85.027 16.4333 85.027 15.88C85.027 15.3267 85.1503 14.84 85.397 14.42C85.6437 13.9933 85.977 13.66 86.397 13.42C86.8237 13.18 87.297 13.06 87.817 13.06C88.3437 13.06 88.817 13.18 89.237 13.42C89.6637 13.66 90.0003 13.9933 90.247 14.42C90.5003 14.84 90.627 15.3267 90.627 15.88C90.627 16.4333 90.5003 16.9233 90.247 17.35C90.0003 17.77 89.6637 18.1 89.237 18.34C88.817 18.58 88.3437 18.7 87.817 18.7ZM101.896 21.32C102.61 21.32 103.276 21.1733 103.896 20.88C104.516 20.5867 105.053 20.1767 105.506 19.65V21H108.576V3.8H105.506V12.01C105.1 11.5167 104.586 11.1333 103.966 10.86C103.353 10.58 102.69 10.44 101.976 10.44C100.99 10.44 100.11 10.6767 99.3362 11.15C98.5629 11.6233 97.9562 12.27 97.5162 13.09C97.0762 13.91 96.8562 14.84 96.8562 15.88C96.8562 16.94 97.0829 17.88 97.5362 18.7C97.9896 19.52 98.5962 20.1633 99.3562 20.63C100.123 21.09 100.97 21.32 101.896 21.32ZM102.816 18.71C102.016 18.71 101.36 18.4467 100.846 17.92C100.34 17.3867 100.086 16.7133 100.086 15.9C100.086 15.0733 100.346 14.3933 100.866 13.86C101.393 13.32 102.05 13.05 102.836 13.05C103.623 13.05 104.276 13.32 104.796 13.86C105.316 14.3933 105.576 15.0733 105.576 15.9C105.576 16.7133 105.316 17.3867 104.796 17.92C104.283 18.4467 103.623 18.71 102.816 18.71ZM118.219 21.32C119.299 21.32 120.279 21.0867 121.159 20.62C122.039 20.1533 122.719 19.5067 123.199 18.68L120.989 17.57C120.609 18.0233 120.212 18.3533 119.799 18.56C119.392 18.7667 118.922 18.87 118.389 18.87C117.535 18.87 116.849 18.6333 116.329 18.16C115.809 17.6867 115.549 17.06 115.549 16.28H123.399C123.419 16.1067 123.429 15.99 123.429 15.93C123.435 15.8633 123.439 15.7867 123.439 15.7C123.439 14.6533 123.212 13.7367 122.759 12.95C122.312 12.1633 121.685 11.55 120.879 11.11C120.079 10.6633 119.145 10.44 118.079 10.44C117.012 10.44 116.049 10.6833 115.189 11.17C114.335 11.65 113.655 12.3 113.149 13.12C112.642 13.94 112.389 14.86 112.389 15.88C112.389 16.9133 112.642 17.84 113.149 18.66C113.662 19.48 114.359 20.13 115.239 20.61C116.119 21.0833 117.112 21.32 118.219 21.32ZM115.659 14.58C115.725 13.9867 115.972 13.52 116.399 13.18C116.825 12.84 117.372 12.67 118.039 12.67C118.672 12.67 119.199 12.84 119.619 13.18C120.045 13.52 120.312 13.9867 120.419 14.58H115.659ZM74.1829 41.32C75.2163 41.32 76.1896 41.1733 77.1029 40.88C78.0163 40.58 78.7863 40.2067 79.4129 39.76L78.0129 37.01C77.5663 37.3633 77.0196 37.64 76.3729 37.84C75.7329 38.04 75.0663 38.14 74.3729 38.14C73.2863 38.14 72.3096 37.9033 71.4429 37.43C70.5763 36.9567 69.8929 36.3133 69.3929 35.5C68.8929 34.6867 68.6429 33.7733 68.6429 32.76C68.6429 31.7467 68.8929 30.8333 69.3929 30.02C69.8929 29.2067 70.5763 28.5633 71.4429 28.09C72.3096 27.6167 73.2863 27.38 74.3729 27.38C75.0663 27.38 75.7329 27.48 76.3729 27.68C77.0196 27.88 77.5663 28.1567 78.0129 28.51L79.4129 25.76C78.7663 25.2933 77.9829 24.9167 77.0629 24.63C76.1429 24.3433 75.1763 24.2 74.1629 24.2C72.9229 24.2 71.7563 24.42 70.6629 24.86C69.5763 25.3 68.6163 25.9133 67.7829 26.7C66.9563 27.48 66.3063 28.39 65.8329 29.43C65.3663 30.4633 65.1329 31.5767 65.1329 32.77C65.1329 33.9567 65.3663 35.0667 65.8329 36.1C66.3063 37.1333 66.9563 38.0433 67.7829 38.83C68.6163 39.61 69.5796 40.22 70.6729 40.66C71.7663 41.1 72.9363 41.32 74.1829 41.32ZM86.987 41.32C87.687 41.32 88.3403 41.1767 88.947 40.89C89.5603 40.5967 90.1003 40.1833 90.567 39.65V41H93.637V30.76H90.567V32.01C90.1603 31.5167 89.6437 31.1333 89.017 30.86C88.3903 30.58 87.7137 30.44 86.987 30.44C86.0003 30.44 85.1237 30.68 84.357 31.16C83.597 31.6333 83.0003 32.28 82.567 33.1C82.1337 33.9133 81.917 34.8333 81.917 35.86C81.917 36.9133 82.1437 37.8533 82.597 38.68C83.0503 39.5 83.657 40.1467 84.417 40.62C85.1837 41.0867 86.0403 41.32 86.987 41.32ZM87.897 38.71C87.1037 38.71 86.447 38.4433 85.927 37.91C85.407 37.3767 85.147 36.7 85.147 35.88C85.147 35.06 85.407 34.3833 85.927 33.85C86.4537 33.3167 87.1103 33.05 87.897 33.05C88.6903 33.05 89.3437 33.3167 89.857 33.85C90.377 34.3767 90.637 35.0533 90.637 35.88C90.637 36.7067 90.3803 37.3867 89.867 37.92C89.3537 38.4467 88.697 38.71 87.897 38.71ZM98.3594 46.2H101.429V39.65C101.883 40.1833 102.419 40.5967 103.039 40.89C103.659 41.1767 104.319 41.32 105.019 41.32C105.979 41.32 106.839 41.0833 107.599 40.61C108.366 40.13 108.969 39.48 109.409 38.66C109.849 37.8333 110.069 36.9067 110.069 35.88C110.069 34.84 109.846 33.91 109.399 33.09C108.959 32.27 108.353 31.6233 107.579 31.15C106.813 30.6767 105.936 30.44 104.949 30.44C104.243 30.44 103.583 30.58 102.969 30.86C102.356 31.1333 101.843 31.5167 101.429 32.01V30.76H98.3594V46.2ZM104.109 38.71C103.309 38.71 102.649 38.4467 102.129 37.92C101.609 37.3867 101.349 36.71 101.349 35.89C101.349 35.07 101.609 34.3933 102.129 33.86C102.656 33.32 103.316 33.05 104.109 33.05C104.896 33.05 105.546 33.32 106.059 33.86C106.579 34.3933 106.839 35.0733 106.839 35.9C106.839 36.72 106.583 37.3933 106.069 37.92C105.556 38.4467 104.903 38.71 104.109 38.71ZM116.804 41.32C118.217 41.32 119.317 41.02 120.104 40.42C120.897 39.8133 121.294 38.9533 121.294 37.84C121.294 37.2333 121.181 36.75 120.954 36.39C120.727 36.0233 120.414 35.7267 120.014 35.5C119.621 35.2733 119.167 35.0667 118.654 34.88C118.341 34.7667 118.011 34.6433 117.664 34.51C117.324 34.37 117.034 34.21 116.794 34.03C116.561 33.85 116.444 33.6433 116.444 33.41C116.444 33.1567 116.557 32.9467 116.784 32.78C117.011 32.6133 117.314 32.53 117.694 32.53C118.367 32.53 119.137 32.8067 120.004 33.36L121.054 31.39C119.787 30.77 118.661 30.46 117.674 30.46C116.861 30.46 116.141 30.5967 115.514 30.87C114.894 31.1433 114.407 31.5233 114.054 32.01C113.701 32.49 113.524 33.0467 113.524 33.68C113.524 34.2067 113.641 34.64 113.874 34.98C114.114 35.3133 114.424 35.59 114.804 35.81C115.184 36.03 115.581 36.2267 115.994 36.4C116.714 36.7 117.244 36.9367 117.584 37.11C117.924 37.2767 118.094 37.5567 118.094 37.95C118.094 38.3033 117.974 38.5767 117.734 38.77C117.501 38.9567 117.191 39.05 116.804 39.05C115.857 39.05 114.944 38.5833 114.064 37.65L112.774 39.71C113.694 40.7833 115.037 41.32 116.804 41.32ZM130.27 41.32C132.143 41.32 133.49 40.9533 134.31 40.22C135.136 39.48 135.55 38.2667 135.55 36.58V30.76H132.48V35.86C132.48 36.94 132.313 37.7033 131.98 38.15C131.653 38.5967 131.083 38.82 130.27 38.82C129.463 38.82 128.893 38.5967 128.56 38.15C128.226 37.7033 128.06 36.94 128.06 35.86V30.76H124.99V36.58C124.99 38.2667 125.403 39.48 126.23 40.22C127.056 40.9533 128.403 41.32 130.27 41.32ZM140.033 41H143.103V23.8H140.033V41ZM152.743 41.32C153.823 41.32 154.803 41.0867 155.683 40.62C156.563 40.1533 157.243 39.5067 157.723 38.68L155.513 37.57C155.133 38.0233 154.737 38.3533 154.323 38.56C153.917 38.7667 153.447 38.87 152.913 38.87C152.06 38.87 151.373 38.6333 150.853 38.16C150.333 37.6867 150.073 37.06 150.073 36.28H157.923C157.943 36.1067 157.953 35.99 157.953 35.93C157.96 35.8633 157.963 35.7867 157.963 35.7C157.963 34.6533 157.737 33.7367 157.283 32.95C156.837 32.1633 156.21 31.55 155.403 31.11C154.603 30.6633 153.67 30.44 152.603 30.44C151.537 30.44 150.573 30.6833 149.713 31.17C148.86 31.65 148.18 32.3 147.673 33.12C147.167 33.94 146.913 34.86 146.913 35.88C146.913 36.9133 147.167 37.84 147.673 38.66C148.187 39.48 148.883 40.13 149.763 40.61C150.643 41.0833 151.637 41.32 152.743 41.32ZM150.183 34.58C150.25 33.9867 150.497 33.52 150.923 33.18C151.35 32.84 151.897 32.67 152.563 32.67C153.197 32.67 153.723 32.84 154.143 33.18C154.57 33.52 154.837 33.9867 154.943 34.58H150.183ZM164.666 41.32C166.08 41.32 167.18 41.02 167.966 40.42C168.76 39.8133 169.156 38.9533 169.156 37.84C169.156 37.2333 169.043 36.75 168.816 36.39C168.59 36.0233 168.276 35.7267 167.876 35.5C167.483 35.2733 167.03 35.0667 166.516 34.88C166.203 34.7667 165.873 34.6433 165.526 34.51C165.186 34.37 164.896 34.21 164.656 34.03C164.423 33.85 164.306 33.6433 164.306 33.41C164.306 33.1567 164.42 32.9467 164.646 32.78C164.873 32.6133 165.176 32.53 165.556 32.53C166.23 32.53 167 32.8067 167.866 33.36L168.916 31.39C167.65 30.77 166.523 30.46 165.536 30.46C164.723 30.46 164.003 30.5967 163.376 30.87C162.756 31.1433 162.27 31.5233 161.916 32.01C161.563 32.49 161.386 33.0467 161.386 33.68C161.386 34.2067 161.503 34.64 161.736 34.98C161.976 35.3133 162.286 35.59 162.666 35.81C163.046 36.03 163.443 36.2267 163.856 36.4C164.576 36.7 165.106 36.9367 165.446 37.11C165.786 37.2767 165.956 37.5567 165.956 37.95C165.956 38.3033 165.836 38.5767 165.596 38.77C165.363 38.9567 165.053 39.05 164.666 39.05C163.72 39.05 162.806 38.5833 161.926 37.65L160.636 39.71C161.556 40.7833 162.9 41.32 164.666 41.32Z" fill="#141B25"/>
<defs>
<filter id="filter0_i_657_6214" x="0.50293" y="-0.000732422" width="50" height="50.0007" filterUnits="userSpaceOnUse" color-interpolation-filters="sRGB">
<feFlood flood-opacity="0" result="BackgroundImageFix"/>
<feBlend mode="normal" in="SourceGraphic" in2="BackgroundImageFix" result="shape"/>
<feColorMatrix in="SourceAlpha" type="matrix" values="0 0 0 0 0 0 0 0 0 0 0 0 0 0 0 0 0 0 127 0" result="hardAlpha"/>
<feOffset/>
<feGaussianBlur stdDeviation="0.497222"/>
<feComposite in2="hardAlpha" operator="arithmetic" k2="-1" k3="1"/>
<feColorMatrix type="matrix" values="0 0 0 0 1 0 0 0 0 1 0 0 0 0 1 0 0 0 0.2 0"/>
<feBlend mode="normal" in2="shape" result="effect1_innerShadow_657_6214"/>
</filter>
<radialGradient id="paint0_radial_657_6214" cx="0" cy="0" r="1" gradientUnits="userSpaceOnUse" gradientTransform="translate(26.8809 37.8489) rotate(-135.946) scale(4.27339 7.71679)">
<stop stop-color="#F4D52B"/>
<stop offset="1" stop-color="#FFD90B"/>
</radialGradient>
<radialGradient id="paint1_radial_657_6214" cx="0" cy="0" r="1" gradientUnits="userSpaceOnUse" gradientTransform="translate(17.3098 21.2717) rotate(-135.944) scale(4.27343 7.71687)">
<stop stop-color="#F4D52B"/>
<stop offset="1" stop-color="#FFD90B"/>
</radialGradient>
<radialGradient id="paint2_radial_657_6214" cx="0" cy="0" r="1" gradientUnits="userSpaceOnUse" gradientTransform="translate(27.4304 49.4119) rotate(-135.947) scale(5.98083 10.8)">
<stop stop-color="#F4D52B"/>
<stop offset="1" stop-color="#FFD90B"/>
</radialGradient>
<radialGradient id="paint3_radial_657_6214" cx="0" cy="0" r="1" gradientUnits="userSpaceOnUse" gradientTransform="translate(37.0014 10.7278) rotate(-135.946) scale(5.98083 10.8)">
<stop stop-color="#F4D52B"/>
<stop offset="1" stop-color="#FFD90B"/>
</radialGradient>
<radialGradient id="paint4_radial_657_6214" cx="0" cy="0" r="1" gradientUnits="userSpaceOnUse" gradientTransform="translate(28.2744 25.3464) rotate(-103.707) scale(26.0902 21.7038)">
<stop stop-color="#F4D52B"/>
<stop offset="1" stop-color="#FFD90B"/>
</radialGradient>
<radialGradient id="paint5_radial_657_6214" cx="0" cy="0" r="1" gradientUnits="userSpaceOnUse" gradientTransform="translate(8.28741 37.0793) rotate(-107.977) scale(13.9276 14.7744)">
<stop stop-color="#F4D52B"/>
<stop offset="1" stop-color="#FFD90B"/>
</radialGradient>
<radialGradient id="paint6_radial_657_6214" cx="0" cy="0" r="1" gradientUnits="userSpaceOnUse" gradientTransform="translate(17.8592 41.9255) rotate(-107.976) scale(13.9275 14.7741)">
<stop stop-color="#F4D52B"/>
<stop offset="1" stop-color="#FFD90B"/>
</radialGradient>
<radialGradient id="paint7_radial_657_6214" cx="0" cy="0" r="1" gradientUnits="userSpaceOnUse" gradientTransform="translate(45.7332 39.8717) rotate(-113.979) scale(30.3949 40.7833)">
<stop stop-color="#F4D52B"/>
<stop offset="1" stop-color="#FFD90B"/>
</radialGradient>
<radialGradient id="paint8_radial_657_6214" cx="0" cy="0" r="1" gradientUnits="userSpaceOnUse" gradientTransform="translate(37.0021 31.4655) rotate(-107.252) scale(14.4937 14.8338)">
<stop stop-color="#F4D52B"/>
<stop offset="1" stop-color="#FFD90B"/>
</radialGradient>
<radialGradient id="paint9_radial_657_6214" cx="0" cy="0" r="1" gradientUnits="userSpaceOnUse" gradientTransform="translate(16.9551 15.5729) rotate(-145.233) scale(15.7848 26.7191)">
<stop stop-color="#F4D52B"/>
<stop offset="1" stop-color="#FFD90B"/>
</radialGradient>
</defs>
</svg>
