<svg width="179" height="50" viewBox="0 0 179 50" fill="none" xmlns="http://www.w3.org/2000/svg">
<g clip-path="url(#clip0_9431_421960)">
<g filter="url(#filter0_d_9431_421960)">
<path fill-rule="evenodd" clip-rule="evenodd" d="M26.7044 37.7723C27.3666 37.11 27.3668 36.0364 26.7046 35.3741C26.0424 34.7119 24.9685 34.7119 24.3062 35.374C23.6439 36.0364 23.6442 37.11 24.3064 37.7723C24.9688 38.4347 26.0424 38.4346 26.7044 37.7723Z" fill="url(#paint0_radial_9431_421960)"/>
<path fill-rule="evenodd" clip-rule="evenodd" d="M15.9347 21.6916C16.8712 21.6916 17.6302 20.9325 17.6302 19.9957C17.6302 19.0591 16.8712 18.2998 15.9347 18.2998C14.998 18.2998 14.2388 19.0591 14.2388 19.9957C14.2388 20.9325 14.998 21.6916 15.9347 21.6916Z" fill="url(#paint1_radial_9431_421960)"/>
<path fill-rule="evenodd" clip-rule="evenodd" d="M25.5051 45.2529C24.1944 45.2529 23.1318 46.3153 23.1318 47.6261C23.1318 48.9369 24.1944 49.9995 25.5051 49.9995C26.8158 49.9995 27.8786 48.9369 27.8786 47.6261C27.8786 46.3153 26.8158 45.2529 25.5051 45.2529Z" fill="url(#paint2_radial_9431_421960)"/>
<path fill-rule="evenodd" clip-rule="evenodd" d="M35.0766 11.3156C36.3871 11.3156 37.4497 10.2531 37.4497 8.94227C37.4497 7.63132 36.3871 6.56885 35.0766 6.56885C33.7658 6.56917 32.7031 7.63163 32.7031 8.94227C32.7031 10.2533 33.7658 11.3158 35.0766 11.3156Z" fill="url(#paint3_radial_9431_421960)"/>
<path fill-rule="evenodd" clip-rule="evenodd" d="M23.2397 5.9645C24.8562 7.74539 25.9036 11.6514 24.3069 13.248C23.9732 13.5817 23.808 14.02 23.8107 14.4572C23.8086 14.8938 23.9739 15.3309 24.3069 15.664C25.9517 17.3088 24.7907 21.4045 23.092 23.1032C21.7592 24.4363 21.7592 26.5975 23.092 27.9306C24.4252 29.2637 26.5866 29.2638 27.9195 27.9306C29.2527 26.5975 29.2527 24.436 27.9195 23.1032C26.2212 21.4047 25.0604 17.3097 26.7041 15.6646C26.7044 15.6643 26.7046 15.6642 26.7049 15.664C27.0387 15.3302 27.2036 14.892 27.2012 14.4548C27.2031 14.0181 27.0377 13.5812 26.7049 13.248C25.1082 11.6512 26.1557 7.74517 27.7721 5.96431C28.4756 5.33889 28.9193 4.42767 28.9193 3.41268C28.9193 1.52733 27.391 -0.000976397 25.5058 -0.000976562C23.6205 -0.000976727 22.0923 1.52733 22.0923 3.41268C22.0923 4.42777 22.5362 5.33921 23.2397 5.9645Z" fill="url(#paint4_radial_9431_421960)"/>
<path fill-rule="evenodd" clip-rule="evenodd" d="M7.5612 26.7264C8.22342 26.0642 8.22342 24.9906 7.5612 24.3282C6.89889 23.666 5.82537 23.6659 5.16305 24.3282C4.50081 24.9906 4.50081 26.0642 5.16305 26.7264C6.04516 27.6085 6.72342 32.8613 4.68379 34.9009C3.75704 35.8278 3.75704 37.3304 4.68411 38.2575C5.61074 39.1842 7.1133 39.1842 8.04025 38.2575C8.96732 37.3304 8.96732 35.8278 8.04025 34.9009C6.00064 32.8613 6.67897 27.6085 7.5612 26.7264Z" fill="url(#paint5_radial_9431_421960)"/>
<path fill-rule="evenodd" clip-rule="evenodd" d="M17.6127 32.7293C18.5395 31.8026 18.5395 30.2998 17.6126 29.3728C16.6859 28.4461 15.1832 28.4461 14.2564 29.3728C13.3293 30.2998 13.3293 31.8026 14.2564 32.7293C16.2959 34.7689 15.6177 40.0216 14.7353 40.9037C14.0731 41.566 14.0731 42.6397 14.7353 43.3021C15.3977 43.9642 16.4713 43.9643 17.1335 43.3021C17.7958 42.6397 17.7958 41.566 17.1335 40.9037C16.2516 40.0217 15.5734 34.7693 17.6127 32.7293C17.6126 32.7295 17.6127 32.7289 17.6127 32.7293Z" fill="url(#paint6_radial_9431_421960)"/>
<path fill-rule="evenodd" clip-rule="evenodd" d="M42.9698 34.8988C42.6634 35.2051 42.4606 35.5746 42.3566 35.9651L42.3549 35.9619C41.6084 38.7481 36.7203 40.787 35.5153 40.4641L35.5167 40.4667C35.3764 40.429 35.2291 40.407 35.0768 40.407C34.1402 40.407 33.3809 41.1662 33.3809 42.1026C33.3809 43.0392 34.1404 43.7985 35.0768 43.7985C35.8622 43.7985 36.5208 43.264 36.7136 42.5397L36.7144 42.5409C37.0371 41.3361 41.2462 38.1227 44.0323 38.8684C44.0325 38.8685 44.0331 38.8686 44.0333 38.8688L44.0323 38.8672C44.8245 39.0793 45.7045 38.8768 46.3262 38.2553C47.2532 37.3283 47.2532 35.8256 46.3262 34.8988C44.2866 32.8592 44.965 27.6064 45.8472 26.7243C45.847 26.7244 45.8475 26.7242 45.8472 26.7243C46.5095 26.062 46.5095 24.9879 45.8472 24.3256C44.965 23.4434 44.2869 18.1919 46.3257 16.1518C46.326 16.1514 46.3262 16.1513 46.3266 16.1511C47.2532 15.2243 47.2532 13.7215 46.3262 12.7947C45.3995 11.8679 43.8967 11.8679 42.97 12.7947C42.043 13.7215 42.043 15.2243 42.9698 16.1511C45.0094 18.1907 44.3311 23.4433 43.449 24.3256C42.7868 24.9879 42.7868 26.0615 43.449 26.7238C43.4488 26.7237 43.449 26.7239 43.449 26.7238C44.3311 27.6058 45.0094 32.8582 42.9705 34.898C42.9703 34.8983 42.97 34.8985 42.9698 34.8988Z" fill="url(#paint7_radial_9431_421960)"/>
<path fill-rule="evenodd" clip-rule="evenodd" d="M33.3986 29.3708C32.4719 30.2977 32.4719 31.8004 33.3986 32.7273C34.3256 33.6542 35.8284 33.6541 36.7551 32.7273C37.6821 31.8003 37.6821 30.2977 36.7551 29.3708C34.8908 27.5065 35.2318 23.1996 36.7546 21.6758C36.7544 21.676 36.7548 21.6755 36.7546 21.6758C37.6814 20.749 37.6821 19.2457 36.7551 18.3187C35.8284 17.3918 34.3256 17.3918 33.3988 18.3187C32.4719 19.2457 32.4719 20.7483 33.3986 21.6751C34.9219 23.1983 35.2634 27.5062 33.3986 29.3708Z" fill="url(#paint8_radial_9431_421960)"/>
<path fill-rule="evenodd" clip-rule="evenodd" d="M5.74787 16.7642C7.01411 17.1035 8.31555 16.3521 8.65472 15.0861C9.21227 13.0053 12.7723 10.5556 15.3193 11.2382C16.5854 11.5772 17.8869 10.8257 18.2261 9.55979C18.5654 8.29356 17.814 6.99224 16.5478 6.65327C15.2818 6.31398 13.9805 7.06505 13.6412 8.33139C12.959 10.8774 9.06043 12.7352 6.97881 12.1798L6.97638 12.1791C5.71036 11.84 4.40902 12.5915 4.06975 13.8577C3.73046 15.1233 4.48185 16.425 5.74787 16.7642Z" fill="url(#paint9_radial_9431_421960)"/>
</g>
<path d="M74.744 20.5943C75.8566 20.5943 76.9046 20.4386 77.8879 20.1274C78.8714 19.809 79.7004 19.4128 80.3751 18.9387L78.8677 16.02C78.3868 16.395 77.7982 16.6887 77.1019 16.9009C76.4129 17.1132 75.6951 17.2193 74.9486 17.2193C73.7786 17.2193 72.727 16.9681 71.7939 16.4658C70.8608 15.9635 70.125 15.2806 69.5867 14.4175C69.0483 13.5543 68.7792 12.5849 68.7792 11.5094C68.7792 10.434 69.0483 9.46459 69.5867 8.60141C70.125 7.73821 70.8608 7.05542 71.7939 6.55307C72.727 6.05071 73.7786 5.79953 74.9486 5.79953C75.6951 5.79953 76.4129 5.90566 77.1019 6.11792C77.7982 6.33019 78.3868 6.62382 78.8677 6.99882L80.3751 4.08019C79.6789 3.5849 78.8354 3.18515 77.8448 2.8809C76.8543 2.57665 75.8136 2.42453 74.7225 2.42453C73.3874 2.42453 72.1313 2.65802 70.9541 3.125C69.7841 3.59198 68.7505 4.24292 67.8532 5.07783C66.9632 5.90566 66.2634 6.87146 65.7537 7.97524C65.2513 9.0719 65 10.2536 65 11.52C65 12.7795 65.2513 13.9576 65.7537 15.0542C66.2634 16.1509 66.9632 17.1167 67.8532 17.9516C68.7505 18.7795 69.7877 19.4269 70.9648 19.8939C72.1421 20.3608 73.4018 20.5943 74.744 20.5943ZM89.4236 20.5943C90.6438 20.5943 91.742 20.3502 92.7183 19.862C93.6945 19.3667 94.466 18.6875 95.0331 17.8243C95.6073 16.954 95.8945 15.9529 95.8945 14.8208C95.8945 13.6886 95.6073 12.691 95.0331 11.8278C94.466 10.9575 93.6945 10.2783 92.7183 9.79009C91.742 9.29478 90.6438 9.04717 89.4236 9.04717C88.2105 9.04717 87.1123 9.29478 86.129 9.79009C85.1527 10.2783 84.3775 10.9575 83.8033 11.8278C83.2362 12.691 82.9527 13.6886 82.9527 14.8208C82.9527 15.9529 83.2362 16.954 83.8033 17.8243C84.3775 18.6875 85.1527 19.3667 86.129 19.862C87.1123 20.3502 88.2105 20.5943 89.4236 20.5943ZM89.4236 17.8137C88.8637 17.8137 88.3541 17.6863 87.8947 17.4316C87.4425 17.1769 87.0837 16.8266 86.818 16.3809C86.5524 15.928 86.4197 15.408 86.4197 14.8208C86.4197 14.2335 86.5524 13.717 86.818 13.2712C87.0837 12.8184 87.4425 12.4646 87.8947 12.2099C88.3541 11.9552 88.8637 11.8278 89.4236 11.8278C89.9907 11.8278 90.5003 11.9552 90.9525 12.2099C91.4119 12.4646 91.7743 12.8184 92.04 13.2712C92.3127 13.717 92.4491 14.2335 92.4491 14.8208C92.4491 15.408 92.3127 15.928 92.04 16.3809C91.7743 16.8266 91.4119 17.1769 90.9525 17.4316C90.5003 17.6863 89.9907 17.8137 89.4236 17.8137ZM104.582 20.5943C105.351 20.5943 106.068 20.4386 106.736 20.1274C107.403 19.8161 107.981 19.3809 108.469 18.8219V20.2547H111.774V2H108.469V10.7134C108.032 10.1899 107.479 9.78298 106.811 9.49292C106.151 9.19575 105.437 9.04717 104.668 9.04717C103.607 9.04717 102.659 9.29838 101.826 9.80071C100.994 10.303 100.34 10.9894 99.8666 11.8597C99.3928 12.73 99.156 13.717 99.156 14.8208C99.156 15.9458 99.4001 16.9434 99.8881 17.8137C100.376 18.684 101.029 19.3667 101.848 19.862C102.673 20.3502 103.585 20.5943 104.582 20.5943ZM105.573 17.8243C104.711 17.8243 104.005 17.5448 103.452 16.9858C102.907 16.4198 102.633 15.7052 102.633 14.842C102.633 13.9646 102.913 13.2429 103.473 12.6769C104.041 12.1038 104.748 11.8172 105.594 11.8172C106.442 11.8172 107.145 12.1038 107.705 12.6769C108.264 13.2429 108.544 13.9646 108.544 14.842C108.544 15.7052 108.264 16.4198 107.705 16.9858C107.152 17.5448 106.442 17.8243 105.573 17.8243ZM122.157 20.5943C123.32 20.5943 124.375 20.3467 125.322 19.8514C126.27 19.3561 127.002 18.6698 127.519 17.7925L125.139 16.6144C124.73 17.0955 124.303 17.4457 123.858 17.6651C123.42 17.8845 122.914 17.9941 122.34 17.9941C121.421 17.9941 120.682 17.7429 120.122 17.2406C119.562 16.7382 119.282 16.0731 119.282 15.2453H127.734C127.756 15.0614 127.766 14.9375 127.766 14.8738C127.773 14.803 127.777 14.7217 127.777 14.6297C127.777 13.5188 127.533 12.546 127.045 11.7111C126.564 10.8761 125.889 10.2252 125.021 9.75825C124.16 9.28416 123.154 9.04717 122.006 9.04717C120.857 9.04717 119.821 9.30539 118.895 9.82193C117.975 10.3314 117.243 11.0212 116.698 11.8915C116.152 12.7618 115.88 13.7382 115.88 14.8208C115.88 15.9174 116.152 16.9009 116.698 17.7712C117.251 18.6415 118.001 19.3314 118.948 19.8408C119.896 20.3431 120.965 20.5943 122.157 20.5943ZM119.401 13.441C119.472 12.8114 119.738 12.316 120.197 11.9552C120.656 11.5943 121.245 11.4139 121.963 11.4139C122.645 11.4139 123.212 11.5943 123.664 11.9552C124.123 12.316 124.41 12.8114 124.526 13.441H119.401ZM74.744 41.8208C75.8566 41.8208 76.9046 41.6651 77.8879 41.3538C78.8714 41.0354 79.7004 40.6392 80.3751 40.1651L78.8677 37.2465C78.3868 37.6214 77.7982 37.9151 77.1019 38.1274C76.4129 38.3396 75.6951 38.4458 74.9486 38.4458C73.7786 38.4458 72.727 38.1945 71.7939 37.6922C70.8608 37.1899 70.125 36.507 69.5867 35.6439C69.0483 34.7807 68.7792 33.8113 68.7792 32.7358C68.7792 31.6604 69.0483 30.691 69.5867 29.8278C70.125 28.9647 70.8608 28.2818 71.7939 27.7795C72.727 27.2772 73.7786 27.0259 74.9486 27.0259C75.6951 27.0259 76.4129 27.1321 77.1019 27.3443C77.7982 27.5566 78.3868 27.8503 78.8677 28.2252L80.3751 25.3066C79.6789 24.8113 78.8354 24.4116 77.8448 24.1073C76.8543 23.803 75.8136 23.6509 74.7225 23.6509C73.3874 23.6509 72.1313 23.8844 70.9541 24.3514C69.7841 24.8184 68.7505 25.4693 67.8532 26.3042C66.9632 27.1321 66.2634 28.0979 65.7537 29.2016C65.2513 30.2983 65 31.48 65 32.7465C65 34.0059 65.2513 35.184 65.7537 36.2807C66.2634 37.3773 66.9632 38.3431 67.8532 39.1781C68.7505 40.0059 69.7877 40.6533 70.9648 41.1203C72.1421 41.5873 73.4018 41.8208 74.744 41.8208ZM88.53 41.8208C89.2836 41.8208 89.987 41.6687 90.6403 41.3644C91.3006 41.0531 91.882 40.6144 92.3845 40.0483V41.4811H95.6899V30.6132H92.3845V31.9399C91.9466 31.4163 91.3904 31.0094 90.7156 30.7193C90.0409 30.4222 89.3124 30.2736 88.53 30.2736C87.4676 30.2736 86.5238 30.5283 85.6983 31.0377C84.88 31.5401 84.2375 32.2264 83.771 33.0967C83.3045 33.9599 83.0712 34.9363 83.0712 36.0259C83.0712 37.1438 83.3153 38.1415 83.8033 39.0189C84.2914 39.8891 84.9446 40.5755 85.7629 41.0778C86.5884 41.5731 87.5107 41.8208 88.53 41.8208ZM89.5097 39.0507C88.6556 39.0507 87.9486 38.7677 87.3887 38.2016C86.8288 37.6356 86.5489 36.9175 86.5489 36.0472C86.5489 35.1769 86.8288 34.4587 87.3887 33.8927C87.9558 33.3267 88.6627 33.0436 89.5097 33.0436C90.3639 33.0436 91.0674 33.3267 91.62 33.8927C92.1799 34.4517 92.4599 35.1698 92.4599 36.0472C92.4599 36.9246 92.1835 37.6463 91.6308 38.2123C91.0781 38.7713 90.3711 39.0507 89.5097 39.0507ZM100.774 47H104.079V40.0483C104.568 40.6144 105.145 41.0531 105.813 41.3644C106.48 41.6687 107.191 41.8208 107.945 41.8208C108.978 41.8208 109.904 41.5695 110.723 41.0672C111.548 40.5578 112.198 39.8679 112.671 38.9976C113.145 38.1202 113.382 37.1368 113.382 36.0472C113.382 34.9434 113.142 33.9564 112.661 33.0861C112.187 32.2158 111.534 31.5294 110.701 31.0271C109.876 30.5248 108.932 30.2736 107.869 30.2736C107.109 30.2736 106.399 30.4222 105.738 30.7193C105.078 31.0094 104.525 31.4163 104.079 31.9399V30.6132H100.774V47ZM106.965 39.0507C106.104 39.0507 105.393 38.7713 104.833 38.2123C104.273 37.6463 103.993 36.9281 103.993 36.0578C103.993 35.1875 104.273 34.4693 104.833 33.9033C105.401 33.3302 106.111 33.0436 106.965 33.0436C107.812 33.0436 108.512 33.3302 109.064 33.9033C109.624 34.4693 109.904 35.191 109.904 36.0684C109.904 36.9387 109.629 37.6533 109.075 38.2123C108.523 38.7713 107.82 39.0507 106.965 39.0507ZM120.633 41.8208C122.155 41.8208 123.339 41.5024 124.186 40.8656C125.04 40.2217 125.468 39.3089 125.468 38.1274C125.468 37.4835 125.346 36.9705 125.102 36.5884C124.857 36.1993 124.52 35.8845 124.09 35.6439C123.666 35.4033 123.178 35.184 122.625 34.9858C122.288 34.8656 121.933 34.7346 121.559 34.5932C121.193 34.4446 120.881 34.2748 120.623 34.0837C120.372 33.8927 120.246 33.6733 120.246 33.4257C120.246 33.1569 120.367 32.934 120.612 32.7571C120.856 32.5802 121.183 32.4917 121.592 32.4917C122.316 32.4917 123.145 32.7854 124.079 33.3726L125.209 31.2818C123.845 30.6238 122.633 30.2948 121.57 30.2948C120.695 30.2948 119.92 30.4399 119.245 30.73C118.577 31.02 118.053 31.4233 117.673 31.9399C117.292 32.4493 117.102 33.0401 117.102 33.7123C117.102 34.2713 117.228 34.7311 117.479 35.092C117.737 35.4457 118.071 35.7394 118.48 35.9729C118.889 36.2064 119.317 36.4151 119.761 36.5991C120.537 36.9175 121.107 37.1687 121.473 37.3526C121.839 37.5295 122.022 37.8267 122.022 38.2441C122.022 38.6191 121.893 38.9092 121.635 39.1144C121.384 39.3125 121.05 39.4116 120.633 39.4116C119.614 39.4116 118.631 38.9162 117.683 37.9257L116.294 40.112C117.285 41.2511 118.731 41.8208 120.633 41.8208ZM135.132 41.8208C137.149 41.8208 138.599 41.4316 139.482 40.6533C140.371 39.8679 140.817 38.5802 140.817 36.7901V30.6132H137.512V36.0259C137.512 37.1722 137.332 37.9823 136.973 38.4564C136.621 38.9305 136.007 39.1675 135.132 39.1675C134.263 39.1675 133.649 38.9305 133.291 38.4564C132.931 37.9823 132.753 37.1722 132.753 36.0259V30.6132H129.447V36.7901C129.447 38.5802 129.892 39.8679 130.782 40.6533C131.672 41.4316 133.122 41.8208 135.132 41.8208ZM145.644 41.4811H148.949V23.2264H145.644V41.4811ZM159.328 41.8208C160.491 41.8208 161.546 41.5731 162.494 41.0778C163.441 40.5825 164.173 39.8963 164.69 39.0189L162.311 37.8408C161.902 38.3219 161.475 38.6721 161.03 38.8915C160.592 39.1109 160.086 39.2205 159.511 39.2205C158.593 39.2205 157.853 38.9693 157.293 38.467C156.734 37.9647 156.454 37.2995 156.454 36.4717H164.906C164.927 36.2878 164.938 36.1639 164.938 36.1002C164.945 36.0294 164.949 35.9481 164.949 35.8561C164.949 34.7452 164.705 33.7724 164.217 32.9375C163.736 32.1026 163.061 31.4516 162.192 30.9847C161.331 30.5106 160.326 30.2736 159.178 30.2736C158.03 30.2736 156.992 30.5318 156.066 31.0483C155.148 31.5578 154.415 32.2476 153.87 33.1179C153.325 33.9882 153.051 34.9646 153.051 36.0472C153.051 37.1438 153.325 38.1274 153.87 38.9976C154.423 39.8679 155.172 40.5578 156.12 41.0672C157.067 41.5695 158.138 41.8208 159.328 41.8208ZM156.572 34.6675C156.644 34.0378 156.91 33.5425 157.369 33.1816C157.829 32.8208 158.418 32.6403 159.135 32.6403C159.817 32.6403 160.384 32.8208 160.836 33.1816C161.295 33.5425 161.583 34.0378 161.697 34.6675H156.572ZM172.166 41.8208C173.688 41.8208 174.872 41.5024 175.719 40.8656C176.574 40.2217 177 39.3089 177 38.1274C177 37.4835 176.878 36.9705 176.634 36.5884C176.391 36.1993 176.053 35.8845 175.622 35.6439C175.199 35.4033 174.711 35.184 174.158 34.9858C173.821 34.8656 173.465 34.7346 173.092 34.5932C172.726 34.4446 172.413 34.2748 172.155 34.0837C171.904 33.8927 171.778 33.6733 171.778 33.4257C171.778 33.1569 171.901 32.934 172.144 32.7571C172.389 32.5802 172.715 32.4917 173.124 32.4917C173.85 32.4917 174.679 32.7854 175.611 33.3726L176.742 31.2818C175.379 30.6238 174.165 30.2948 173.102 30.2948C172.227 30.2948 171.452 30.4399 170.777 30.73C170.109 31.02 169.586 31.4233 169.205 31.9399C168.825 32.4493 168.634 33.0401 168.634 33.7123C168.634 34.2713 168.76 34.7311 169.011 35.092C169.269 35.4457 169.603 35.7394 170.012 35.9729C170.421 36.2064 170.849 36.4151 171.294 36.5991C172.069 36.9175 172.639 37.1687 173.006 37.3526C173.372 37.5295 173.555 37.8267 173.555 38.2441C173.555 38.6191 173.425 38.9092 173.167 39.1144C172.916 39.3125 172.582 39.4116 172.166 39.4116C171.147 39.4116 170.163 38.9162 169.216 37.9257L167.827 40.112C168.817 41.2511 170.264 41.8208 172.166 41.8208Z" fill="#141B25"/>
</g>
<defs>
<filter id="filter0_d_9431_421960" x="2.99384" y="-0.995421" width="45.0221" height="51.9894" filterUnits="userSpaceOnUse" color-interpolation-filters="sRGB">
<feFlood flood-opacity="0" result="BackgroundImageFix"/>
<feColorMatrix in="SourceAlpha" type="matrix" values="0 0 0 0 0 0 0 0 0 0 0 0 0 0 0 0 0 0 127 0" result="hardAlpha"/>
<feOffset/>
<feGaussianBlur stdDeviation="0.497222"/>
<feComposite in2="hardAlpha" operator="out"/>
<feColorMatrix type="matrix" values="0 0 0 0 1 0 0 0 0 1 0 0 0 0 1 0 0 0 0.2 0"/>
<feBlend mode="normal" in2="BackgroundImageFix" result="effect1_dropShadow_9431_421960"/>
<feBlend mode="normal" in="SourceGraphic" in2="effect1_dropShadow_9431_421960" result="shape"/>
</filter>
<radialGradient id="paint0_radial_9431_421960" cx="0" cy="0" r="1" gradientUnits="userSpaceOnUse" gradientTransform="translate(26.8809 37.8489) rotate(-135.946) scale(4.27339 7.71679)">
<stop stop-color="#F4D52B"/>
<stop offset="1" stop-color="#FFD90B"/>
</radialGradient>
<radialGradient id="paint1_radial_9431_421960" cx="0" cy="0" r="1" gradientUnits="userSpaceOnUse" gradientTransform="translate(17.3099 21.2714) rotate(-135.944) scale(4.27343 7.71687)">
<stop stop-color="#F4D52B"/>
<stop offset="1" stop-color="#FFD90B"/>
</radialGradient>
<radialGradient id="paint2_radial_9431_421960" cx="0" cy="0" r="1" gradientUnits="userSpaceOnUse" gradientTransform="translate(27.4303 49.4114) rotate(-135.947) scale(5.98083 10.8)">
<stop stop-color="#F4D52B"/>
<stop offset="1" stop-color="#FFD90B"/>
</radialGradient>
<radialGradient id="paint3_radial_9431_421960" cx="0" cy="0" r="1" gradientUnits="userSpaceOnUse" gradientTransform="translate(37.0014 10.7275) rotate(-135.946) scale(5.98083 10.8)">
<stop stop-color="#F4D52B"/>
<stop offset="1" stop-color="#FFD90B"/>
</radialGradient>
<radialGradient id="paint4_radial_9431_421960" cx="0" cy="0" r="1" gradientUnits="userSpaceOnUse" gradientTransform="translate(28.2746 25.3462) rotate(-103.707) scale(26.0902 21.7038)">
<stop stop-color="#F4D52B"/>
<stop offset="1" stop-color="#FFD90B"/>
</radialGradient>
<radialGradient id="paint5_radial_9431_421960" cx="0" cy="0" r="1" gradientUnits="userSpaceOnUse" gradientTransform="translate(8.28724 37.0792) rotate(-107.977) scale(13.9276 14.7744)">
<stop stop-color="#F4D52B"/>
<stop offset="1" stop-color="#FFD90B"/>
</radialGradient>
<radialGradient id="paint6_radial_9431_421960" cx="0" cy="0" r="1" gradientUnits="userSpaceOnUse" gradientTransform="translate(17.8595 41.9254) rotate(-107.976) scale(13.9275 14.7741)">
<stop stop-color="#F4D52B"/>
<stop offset="1" stop-color="#FFD90B"/>
</radialGradient>
<radialGradient id="paint7_radial_9431_421960" cx="0" cy="0" r="1" gradientUnits="userSpaceOnUse" gradientTransform="translate(45.7332 39.8714) rotate(-113.979) scale(30.3949 40.7833)">
<stop stop-color="#F4D52B"/>
<stop offset="1" stop-color="#FFD90B"/>
</radialGradient>
<radialGradient id="paint8_radial_9431_421960" cx="0" cy="0" r="1" gradientUnits="userSpaceOnUse" gradientTransform="translate(37.002 31.4651) rotate(-107.252) scale(14.4937 14.8338)">
<stop stop-color="#F4D52B"/>
<stop offset="1" stop-color="#FFD90B"/>
</radialGradient>
<radialGradient id="paint9_radial_9431_421960" cx="0" cy="0" r="1" gradientUnits="userSpaceOnUse" gradientTransform="translate(16.9552 15.5729) rotate(-145.233) scale(15.7848 26.7191)">
<stop stop-color="#F4D52B"/>
<stop offset="1" stop-color="#FFD90B"/>
</radialGradient>
<clipPath id="clip0_9431_421960">
<rect width="179" height="50" fill="white"/>
</clipPath>
</defs>
</svg>

