<svg xmlns="http://www.w3.org/2000/svg" width="3600" height="759"><rect x="21" y="21" width="716" height="716" rx="358" fill="url(#A)"/><rect x="21" y="21" width="716" height="716" rx="358" stroke="url(#B)" stroke-width="42"/><path d="M310 553c-2 0-4-2-4-4l97-343c0-1 2-2 3-2h42c2 0 4 2 4 4l-97 343c-1 1-2 2-4 2h-41zm-68-86c-1 0-2 0-2-1l-85-86c-1-1-1-3 0-5l85-85s1-1 2-1h54c3 0 5 4 2 6l-80 80c-1 2-1 4 0 5l80 81c3 2 1 6-2 6h-54zm220 0c-3 0-5-4-3-6l80-81c1-1 1-3 0-5l-80-80c-2-2 0-6 3-6h53c1 0 2 1 3 1l84 85c2 2 2 4 0 5l-84 86c-1 1-2 1-3 1h-53z" fill="#fff"/><path d="M1040 535c-30 0-57-6-79-19-22-14-39-32-51-56-12-23-18-51-18-82s6-58 18-82 29-43 51-56 49-20 79-20c37 0 67 9 90 27 24 18 38 44 44 77h-61c-4-17-12-30-25-39-12-10-28-14-49-14-28 0-50 9-66 28s-24 46-24 79 8 60 24 79 38 28 66 28c21 0 37-4 49-13 13-9 21-21 25-37h61c-6 31-20 56-44 74-23 17-53 26-90 26zm273 0c-21 0-40-5-57-14-17-10-30-23-40-40-9-17-14-37-14-59s5-42 15-59 23-30 39-40c17-9 36-14 57-14s39 5 56 14c17 10 30 23 39 40 10 17 15 37 15 59s-5 42-15 59c-9 17-22 30-39 40-17 9-36 14-56 14zm0-48c14 0 27-5 38-16 10-11 16-27 16-49 0-21-6-38-16-48-11-11-24-17-38-17-15 0-28 6-38 17-11 10-16 27-16 48 0 22 5 38 16 49 10 11 23 16 38 16zm246 48c-20 0-38-5-54-15-16-9-29-23-38-40s-14-37-14-58c0-22 5-41 14-58s22-31 38-40c16-10 34-15 54-15 17 0 31 3 43 9s22 15 30 26V217h55v313h-49l-6-31c-7 10-17 18-28 25-12 8-26 11-45 11zm12-49c18 0 33-5 44-17 12-13 17-28 17-47s-5-34-17-46c-11-12-26-18-44-18s-32 6-44 17c-12 12-17 28-17 47 0 18 5 34 17 46s26 18 44 18zm265 49c-22 0-41-4-58-14-17-9-30-22-40-39-9-17-14-36-14-58 0-23 5-42 14-60 10-17 23-31 39-40 17-10 37-15 59-15s40 4 57 14c16 9 28 22 37 38 10 16 14 34 14 54v10c0 3 0 7-1 11h-164c1 16 7 30 18 39 10 10 23 15 38 15 12 0 21-3 29-8s13-12 17-20h57c-4 14-11 26-21 38-9 11-21 19-34 26-14 6-30 9-47 9zm0-181c-13 0-25 4-36 12-10 7-17 19-20 35h108c-1-15-6-26-16-34-10-9-21-13-36-13zm282 181c-31 0-58-6-80-19-22-14-39-32-51-56-12-23-18-51-18-82s6-58 18-82 29-43 51-56 49-20 80-20c36 0 66 9 89 27 24 18 38 44 44 77h-61c-4-17-12-30-25-39-12-10-28-14-48-14-29 0-51 9-67 28s-24 46-24 79 8 60 24 79 38 28 67 28c20 0 36-4 48-13 13-9 21-21 25-37h61c-6 31-20 56-44 74-23 17-53 26-89 26zm168-5V314h50l5 41c8-14 18-25 32-34 13-8 29-12 48-12v59h-16c-12 0-23 2-33 5-9 4-17 11-22 20-6 9-8 22-8 39v98h-56zm234 5c-18 0-34-3-46-8-11-7-20-15-26-24-6-10-9-21-9-33 0-20 8-36 24-49 15-12 39-19 70-19h55v-5c0-15-4-25-13-32-8-7-18-11-31-11-11 0-21 3-29 8-9 6-14 13-16 24h-55c2-16 7-29 16-41s21-20 36-27c14-6 31-9 49-9 30 0 55 8 72 23 18 15 27 37 27 65v133h-48l-5-35c-6 12-15 21-27 29-11 7-26 11-44 11zm13-43c16 0 28-6 37-16s14-23 17-39h-48c-14 0-25 3-31 9-7 5-10 11-10 19 0 9 3 15 10 20 6 4 14 7 25 7zm161 38V361h-30v-47h30v-25c0-26 7-45 20-56s31-16 54-16h24v47h-16c-9 0-16 2-20 6-4 3-6 10-6 19v25h46v47h-46v169h-56zm230 0c-23 0-41-5-55-17-13-11-20-30-20-58v-94h-37v-47h37l6-58h49v58h59v47h-59v94c0 11 3 18 7 22 5 4 12 6 24 6h27v47h-38zm173 5c-22 0-41-4-58-14-17-9-30-22-40-39-9-17-14-36-14-58 0-23 5-42 14-60 10-17 23-31 39-40 17-10 37-15 59-15s40 4 57 14c16 9 29 22 38 38s13 34 13 54v10 11h-165c2 16 7 30 18 39 11 10 23 15 39 15 11 0 20-3 28-8s14-12 17-20h57c-4 14-11 26-21 38-9 11-20 19-34 26-14 6-30 9-47 9zm0-181c-13 0-25 4-36 12-10 7-17 19-20 35h108c-1-15-6-26-16-34-9-9-21-13-36-13zm142 176V314h50l5 41c8-14 19-25 32-34 14-8 30-12 48-12v59h-16c-12 0-23 2-33 5-9 4-17 11-22 20s-8 22-8 39v98h-56zm249 5c-19 0-36-3-50-9-15-6-27-15-35-26-9-11-14-24-16-38h56c2 8 7 15 14 21 8 6 18 9 30 9s21-2 27-7 9-11 9-17c0-10-5-16-13-19s-19-7-34-10c-9-2-18-4-28-7s-18-7-27-11c-7-5-14-11-19-18s-7-16-7-26c0-19 7-36 23-49 15-13 36-19 64-19 26 0 46 6 61 18s24 28 27 49h-52c-3-16-16-24-36-24-11 0-19 2-25 6-5 4-8 9-8 15 0 7 4 12 13 16 8 3 19 7 33 10 15 3 29 7 41 12 13 4 23 10 31 18 7 9 11 20 11 36 1 13-3 25-10 36s-18 19-32 25c-13 6-29 9-48 9z" fill="#171920"/><defs><linearGradient id="A" x1="120" y1="106" x2="658" y2="643" gradientUnits="userSpaceOnUse"><stop stop-color="#171920"/><stop offset="1" stop-color="#0c0c11"/></linearGradient><linearGradient id="B" x1="103" y1="118" x2="644" y2="659" gradientUnits="userSpaceOnUse"><stop stop-color="#00e0ee"/><stop offset="1" stop-color="#6809e1"/></linearGradient></defs></svg>
