<svg width="246" height="39" viewBox="0 0 246 39" fill="none" xmlns="http://www.w3.org/2000/svg">
<g clip-path="url(#clip0_9428_421960)">
<path d="M31.5696 11.06V0L20.4596 11.06H11.2096L3.80957 3.65V27.73C3.80826 29.1885 4.0944 30.633 4.65164 31.9809C5.20888 33.3287 6.02629 34.5536 7.05715 35.5854C8.08801 36.6171 9.31211 37.4357 10.6595 37.9941C12.0068 38.5526 13.4511 38.84 14.9096 38.84H31.5996V11.06H31.5696Z" fill="#ED1C24"/>
<path d="M23.6199 14.8501H11.7899C9.23837 14.8501 7.16992 16.9185 7.16992 19.4701V19.8101C7.16992 22.3617 9.23837 24.4301 11.7899 24.4301H23.6199C26.1715 24.4301 28.2399 22.3617 28.2399 19.8101V19.4701C28.2399 16.9185 26.1715 14.8501 23.6199 14.8501Z" fill="white"/>
<path d="M23.0398 23.3399C25.0833 23.3399 26.7398 21.6834 26.7398 19.6399C26.7398 17.5965 25.0833 15.9399 23.0398 15.9399C20.9964 15.9399 19.3398 17.5965 19.3398 19.6399C19.3398 21.6834 20.9964 23.3399 23.0398 23.3399Z" fill="black"/>
<path d="M12.3001 16.73C12.8934 16.73 13.4734 16.906 13.9668 17.2356C14.4601 17.5652 14.8446 18.0338 15.0717 18.582C15.2988 19.1301 15.3582 19.7333 15.2424 20.3153C15.1267 20.8972 14.8409 21.4318 14.4214 21.8513C14.0018 22.2709 13.4673 22.5566 12.8853 22.6724C12.3034 22.7881 11.7002 22.7287 11.152 22.5016C10.6038 22.2746 10.1353 21.8901 9.80566 21.3967C9.47601 20.9034 9.30007 20.3233 9.30007 19.73C9.30007 18.9344 9.61614 18.1713 10.1787 17.6087C10.7414 17.0461 11.5044 16.73 12.3001 16.73ZM12.3001 15.99C11.5663 15.988 10.8484 16.2037 10.2372 16.6097C9.62603 17.0157 9.14895 17.5939 8.86632 18.271C8.5837 18.9482 8.50822 19.6939 8.64943 20.414C8.79064 21.134 9.1422 21.796 9.65965 22.3163C10.1771 22.8365 10.8372 23.1916 11.5565 23.3367C12.2758 23.4818 13.0219 23.4104 13.7006 23.1314C14.3793 22.8524 14.96 22.3785 15.3693 21.7695C15.7786 21.1605 15.9981 20.4438 16.0001 19.71C15.9974 18.7286 15.6071 17.788 14.9141 17.0931C14.221 16.3982 13.2815 16.0053 12.3001 16V15.99Z" fill="#ED1C24"/>
<path d="M19.3703 27.25C19.2994 27.181 19.2043 27.1423 19.1053 27.1423C19.0063 27.1423 18.9112 27.181 18.8403 27.25L17.7103 28.38L16.5703 27.25C16.5401 27.2119 16.5027 27.1802 16.4602 27.1565C16.4177 27.1329 16.371 27.1179 16.3227 27.1123C16.2744 27.1067 16.2255 27.1107 16.1788 27.1241C16.132 27.1374 16.0884 27.1598 16.0503 27.19C16.0122 27.2202 15.9804 27.2576 15.9568 27.3001C15.9332 27.3426 15.9182 27.3893 15.9126 27.4376C15.907 27.4859 15.911 27.5348 15.9243 27.5815C15.9377 27.6283 15.9601 27.6719 15.9903 27.71C16.0049 27.7347 16.0255 27.7554 16.0503 27.77L17.3403 29.06V31.58C17.3403 31.6781 17.3793 31.7722 17.4487 31.8416C17.518 31.911 17.6122 31.95 17.7103 31.95C17.8069 31.9452 17.8982 31.9046 17.9666 31.8363C18.0349 31.7679 18.0755 31.6766 18.0803 31.58V29.06L19.3703 27.77C19.4387 27.7007 19.477 27.6073 19.477 27.51C19.477 27.4127 19.4387 27.3192 19.3703 27.25Z" fill="white"/>
<path d="M2.52974 28.6699H9.99974C10.0732 28.6674 10.143 28.6371 10.195 28.5851C10.2469 28.5331 10.2772 28.4634 10.2797 28.3899C10.2799 28.319 10.2532 28.2506 10.2049 28.1987C10.1567 28.1467 10.0905 28.115 10.0197 28.1099H2.52974C2.49395 28.1071 2.45798 28.1118 2.42409 28.1236C2.3902 28.1355 2.35912 28.1542 2.33282 28.1786C2.30652 28.203 2.28556 28.2326 2.27126 28.2656C2.25696 28.2985 2.24963 28.334 2.24974 28.3699C2.24699 28.4083 2.25219 28.4469 2.26503 28.4832C2.27786 28.5195 2.29805 28.5528 2.32433 28.581C2.35061 28.6091 2.38241 28.6315 2.41776 28.6468C2.4531 28.6622 2.49122 28.67 2.52974 28.6699Z" fill="white"/>
<path d="M11.4401 29.45H1.10008C1.02756 29.4525 0.958888 29.4832 0.908522 29.5354C0.858155 29.5876 0.830032 29.6574 0.830078 29.73C0.832565 29.8008 0.86181 29.868 0.911916 29.9181C0.962022 29.9682 1.02926 29.9975 1.10008 30H11.4401C11.5135 29.9975 11.5833 29.9672 11.6353 29.9152C11.6873 29.8632 11.7176 29.7934 11.7201 29.7199C11.7175 29.6474 11.6868 29.5788 11.6346 29.5284C11.5824 29.478 11.5126 29.4499 11.4401 29.45Z" fill="white"/>
<path d="M10 30.79H2.53C2.49421 30.7873 2.45824 30.7919 2.42435 30.8038C2.39046 30.8156 2.35939 30.8343 2.33308 30.8587C2.30678 30.8831 2.28582 30.9128 2.27152 30.9457C2.25722 30.9786 2.24989 31.0141 2.25 31.05C2.25 31.0868 2.25724 31.1232 2.27131 31.1572C2.28539 31.1911 2.30601 31.222 2.33201 31.248C2.35801 31.274 2.38888 31.2946 2.42285 31.3087C2.45682 31.3228 2.49323 31.33 2.53 31.33H10C10.0735 31.3275 10.1432 31.2972 10.1952 31.2452C10.2472 31.1933 10.2775 31.1235 10.28 31.05C10.2802 30.9791 10.2534 30.9107 10.2052 30.8588C10.1569 30.8068 10.0907 30.7751 10.02 30.77L10 30.79Z" fill="white"/>
<path d="M25.4304 28.3901H32.9404C33.0147 28.3901 33.0859 28.3606 33.1384 28.3081C33.1909 28.2556 33.2204 28.1843 33.2204 28.1101C33.2204 28.0358 33.1909 27.9646 33.1384 27.9121C33.0859 27.8596 33.0147 27.8301 32.9404 27.8301H25.4304C25.3561 27.8301 25.2849 27.8596 25.2324 27.9121C25.1799 27.9646 25.1504 28.0358 25.1504 28.1101C25.1504 28.1843 25.1799 28.2556 25.2324 28.3081C25.2849 28.3606 25.3561 28.3901 25.4304 28.3901Z" fill="white"/>
<path d="M34.36 29.1701H24C23.9624 29.1688 23.9249 29.175 23.8897 29.1885C23.8546 29.2019 23.8225 29.2224 23.7955 29.2485C23.7684 29.2746 23.7469 29.3059 23.7322 29.3406C23.7175 29.3752 23.7099 29.4125 23.71 29.4501C23.7125 29.5236 23.7428 29.5933 23.7947 29.6453C23.8467 29.6973 23.9165 29.7276 23.99 29.7301H34.36C34.4342 29.7301 34.5054 29.7006 34.558 29.6481C34.6105 29.5956 34.64 29.5244 34.64 29.4501C34.64 29.3758 34.6105 29.3046 34.558 29.2521C34.5054 29.1996 34.4342 29.1701 34.36 29.1701Z" fill="white"/>
<path d="M32.9404 30.51H25.4304C25.3561 30.51 25.2849 30.5395 25.2324 30.592C25.1799 30.6445 25.1504 30.7157 25.1504 30.79C25.1504 30.8643 25.1799 30.9355 25.2324 30.988C25.2849 31.0405 25.3561 31.07 25.4304 31.07H32.9404C33.0147 31.07 33.0859 31.0405 33.1384 30.988C33.1909 30.9355 33.2204 30.8643 33.2204 30.79C33.2204 30.7157 33.1909 30.6445 33.1384 30.592C33.0859 30.5395 33.0147 30.51 32.9404 30.51Z" fill="white"/>
<path d="M45.2196 18.3999C44.9042 17.5967 44.3208 16.9273 43.5683 16.5051C42.8157 16.0829 41.9403 15.9339 41.0904 16.0834C40.2406 16.2329 39.4686 16.6717 38.9052 17.3253C38.3419 17.979 38.022 18.8073 37.9996 19.6699C38.0079 20.1785 38.1131 20.6808 38.3096 21.1499C38.9668 22.9884 39.1714 24.9581 38.9059 26.8923C38.6404 28.8265 37.9127 30.6683 36.7844 32.2616C35.6561 33.855 34.1605 35.1529 32.4242 36.0456C30.6878 36.9383 28.762 37.3994 26.8096 37.3899C25.7272 37.4003 24.6481 37.2692 23.5996 36.9999C26.3167 38.5084 29.4309 39.1478 32.5225 38.8319C35.6142 38.516 38.5347 37.26 40.8906 35.2332C43.2465 33.2064 44.9245 30.5062 45.6985 27.4964C46.4726 24.4866 46.3054 21.3118 45.2196 18.3999Z" fill="#ED1C24"/>
<path d="M67.4399 38.6C65.7961 38.6434 64.1612 38.346 62.6381 37.7264C61.1149 37.1068 59.7366 36.1785 58.5899 35.0001C57.4253 33.8438 56.5104 32.4609 55.9015 30.937C55.2926 29.4131 55.0027 27.7804 55.0499 26.1401C54.9801 22.8968 56.1985 19.758 58.4384 17.4113C60.6782 15.0646 63.7568 13.7013 66.9999 13.6201H67.6599C69.5284 13.5856 71.3849 13.9256 73.1199 14.6201C74.6443 15.2734 76.0268 16.2177 77.1899 17.4001L73.8199 21.3001C72.1799 19.6344 69.9657 18.6578 67.6299 18.5701C66.6883 18.5495 65.7535 18.7338 64.8901 19.1102C64.0268 19.4866 63.2556 20.0461 62.6299 20.7501C61.2963 22.2036 60.5793 24.1181 60.6299 26.0901C60.5905 28.0721 61.3054 29.995 62.6299 31.4701C63.2533 32.1781 64.0236 32.7418 64.8871 33.1217C65.7507 33.5017 66.6866 33.6888 67.6299 33.67C68.7942 33.6867 69.9468 33.437 70.9999 32.9401C72.0915 32.3607 73.1005 31.6376 73.9999 30.7901L77.3699 34.2101C76.1539 35.545 74.6989 36.6405 73.0799 37.4401C71.3102 38.2434 69.3829 38.6398 67.4399 38.6Z" fill="white"/>
<path d="M99.2304 34.9999C96.7434 37.3298 93.4632 38.6263 90.0554 38.6263C86.6476 38.6263 83.3674 37.3298 80.8804 34.9999C79.6954 33.8582 78.7602 32.4831 78.1336 30.9615C77.5071 29.44 77.203 27.805 77.2404 26.1599C77.2101 24.5101 77.5204 22.8718 78.1518 21.3474C78.7833 19.8229 79.7224 18.4451 80.9104 17.2999C83.3974 14.9701 86.6776 13.6736 90.0854 13.6736C93.4932 13.6736 96.7734 14.9701 99.2604 17.2999C100.444 18.4366 101.38 19.8063 102.008 21.3226C102.636 22.8389 102.944 24.469 102.91 26.1099C102.944 27.7655 102.634 29.4099 102 30.9399C101.367 32.4699 100.424 33.8522 99.2304 34.9999ZM84.8704 31.4999C85.5376 32.2169 86.3502 32.7832 87.2539 33.1608C88.1575 33.5385 89.1314 33.7189 90.1104 33.6899C91.0829 33.7242 92.0514 33.5491 92.9503 33.1765C93.8492 32.8038 94.6575 32.2423 95.3204 31.5299C96.6702 30.0704 97.3891 28.1368 97.3204 26.1499C97.3718 24.1548 96.6311 22.2205 95.2604 20.7699C94.5792 20.074 93.7666 19.5201 92.8698 19.1405C91.9729 18.7608 91.0097 18.563 90.0358 18.5583C89.062 18.5537 88.0969 18.7423 87.1965 19.1134C86.296 19.4844 85.4782 20.0305 84.7904 20.7199C83.4553 22.1765 82.7382 24.0947 82.7904 26.0699C82.7365 28.0841 83.4847 30.0372 84.8704 31.4999Z" fill="white"/>
<path d="M105.05 38.2V14H110L121.27 28.9V14H126.47V38.2H122L110.29 22.84V38.2H105.05Z" fill="white"/>
<path d="M129.71 38.2V14H148.12V18.82H135V24H146.54V28.84H135V38.12L129.71 38.2Z" fill="white"/>
<path d="M150 38.2V14H155.32V38.2H150Z" fill="white"/>
<path d="M170.4 38.6C168.719 38.6596 167.043 38.3794 165.472 37.7763C163.902 37.1732 162.469 36.2596 161.26 35.09C160.082 33.9262 159.157 32.5311 158.545 30.9925C157.932 29.4539 157.645 27.8052 157.7 26.15C157.67 24.5047 157.975 22.8706 158.598 21.3472C159.22 19.8239 160.146 18.4434 161.32 17.29C162.499 16.0958 163.91 15.1565 165.467 14.5304C167.024 13.9042 168.693 13.6046 170.37 13.65C172.171 13.6026 173.966 13.8769 175.67 14.46C177.195 15.0105 178.61 15.8264 179.85 16.87L176.51 20.87C175.631 20.1036 174.639 19.4764 173.57 19.01C172.498 18.5902 171.352 18.3896 170.2 18.42C169.263 18.414 168.336 18.6152 167.485 19.0094C166.634 19.4036 165.881 19.9809 165.28 20.7C163.954 22.1418 163.237 24.0413 163.28 26C163.245 27.0019 163.408 28.0008 163.759 28.9396C164.111 29.8783 164.645 30.7382 165.33 31.47C166.001 32.1873 166.817 32.7528 167.724 33.1288C168.632 33.5048 169.609 33.6825 170.59 33.65C172.359 33.7412 174.111 33.2647 175.59 32.29V28.87H170.24V24.23H180.73V34.73C177.878 37.2439 174.202 38.6214 170.4 38.6Z" fill="white"/>
<path d="M194.87 38.5999C193.265 38.6377 191.671 38.3366 190.191 37.7163C188.71 37.096 187.378 36.1704 186.28 34.9999C185.148 33.8253 184.261 32.4367 183.672 30.9154C183.083 29.3941 182.804 27.7706 182.85 26.1399C182.816 24.5097 183.105 22.8889 183.698 21.3703C184.292 19.8517 185.179 18.4651 186.31 17.2899C187.405 16.1046 188.74 15.166 190.227 14.5367C191.713 13.9073 193.316 13.6016 194.93 13.6399C196.701 13.6041 198.46 13.9449 200.09 14.6399C201.64 15.3752 203.064 16.3505 204.31 17.5299L203.05 18.8399C201.993 17.7424 200.728 16.8668 199.328 16.2641C197.929 15.6614 196.423 15.3438 194.9 15.3299C193.537 15.2972 192.183 15.5569 190.928 16.0917C189.674 16.6264 188.55 17.4237 187.63 18.4299C185.677 20.5216 184.631 23.3002 184.72 26.1599C184.679 27.579 184.919 28.9922 185.425 30.3186C185.931 31.645 186.694 32.8586 187.67 33.8899C188.587 34.8971 189.71 35.6959 190.962 36.2324C192.215 36.7689 193.567 37.0306 194.93 36.9999C196.464 37.0388 197.987 36.724 199.38 36.0799C200.813 35.3502 202.12 34.3946 203.25 33.2499L204.45 34.4199C203.186 35.6852 201.719 36.7297 200.11 37.5099C198.465 38.2576 196.675 38.6299 194.87 38.5999Z" fill="#ED1C24"/>
<path d="M204.73 38.2001L216 13.8501H217.74L229 38.2001H227L223.9 31.4201H209.67L206.57 38.2001H204.73ZM210.42 29.8001H223.15L216.81 15.8801L210.42 29.8001Z" fill="#ED1C24"/>
<path d="M235.06 38.2V15.69H226.65V14H245.2V15.65H236.77V38.2H235.06Z" fill="#ED1C24"/>
</g>
<defs>
<clipPath id="clip0_9428_421960">
<rect width="245.2" height="38.84" fill="white"/>
</clipPath>
</defs>
</svg>

