<svg width="48" height="48" viewBox="0 0 48 48" fill="none" xmlns="http://www.w3.org/2000/svg">
  <rect width="48" height="48" rx="8" fill="#1E1E1E"/>
  <g clip-path="url(#clip0_9145_91470)">
  <path d="M24 24.2666C24 22.9229 24.5338 21.6341 25.484 20.6839C26.4342 19.7338 27.7229 19.2 29.0667 19.2C30.4104 19.2 31.6992 19.7338 32.6493 20.6839C33.5995 21.6341 34.1333 22.9229 34.1333 24.2666C34.1333 25.6104 33.5995 26.8991 32.6493 27.8493C31.6992 28.7995 30.4104 29.3333 29.0667 29.3333C27.7229 29.3333 26.4342 28.7995 25.484 27.8493C24.5338 26.8991 24 25.6104 24 24.2666Z" fill="#1ABCFE"/>
  <path d="M13.8672 34.4C13.8672 33.0563 14.401 31.7676 15.3512 30.8174C16.3014 29.8672 17.5901 29.3334 18.9339 29.3334H24.0005V34.4C24.0005 35.7438 23.4667 37.0325 22.5165 37.9827C21.5663 38.9329 20.2776 39.4667 18.9339 39.4667C17.5901 39.4667 16.3014 38.9329 15.3512 37.9827C14.401 37.0325 13.8672 35.7438 13.8672 34.4V34.4Z" fill="#0ACF83"/>
  <path d="M24 9.06665V19.2H29.0667C30.4104 19.2 31.6992 18.6662 32.6493 17.716C33.5995 16.7658 34.1333 15.4771 34.1333 14.1333C34.1333 12.7896 33.5995 11.5008 32.6493 10.5506C31.6992 9.60046 30.4104 9.06665 29.0667 9.06665H24Z" fill="#FF7262"/>
  <path d="M13.8672 14.1333C13.8672 15.4771 14.401 16.7658 15.3512 17.716C16.3014 18.6662 17.5901 19.2 18.9339 19.2H24.0005V9.06665H18.9339C17.5901 9.06665 16.3014 9.60046 15.3512 10.5506C14.401 11.5008 13.8672 12.7896 13.8672 14.1333V14.1333Z" fill="#F24E1E"/>
  <path d="M13.8672 24.2666C13.8672 25.6104 14.401 26.8991 15.3512 27.8493C16.3014 28.7995 17.5901 29.3333 18.9339 29.3333H24.0005V19.2H18.9339C17.5901 19.2 16.3014 19.7338 15.3512 20.6839C14.401 21.6341 13.8672 22.9229 13.8672 24.2666V24.2666Z" fill="#A259FF"/>
  </g>
  <defs>
  <clipPath id="clip0_9145_91470">
  <rect width="20.2667" height="30.4" fill="white" transform="translate(13.8672 9.06665)"/>
  </clipPath>
  </defs>
  </svg>
  