<svg width="102" height="28" viewBox="0 0 102 28" fill="none" xmlns="http://www.w3.org/2000/svg">
<path fill-rule="evenodd" clip-rule="evenodd" d="M85.3491 10.1167C81.3935 10.1392 78.1677 13.3868 78.1578 17.3575C78.1701 21.3281 81.3958 24.5745 85.3491 24.5951C89.3095 24.5745 92.5369 21.3281 92.5471 17.359C92.5369 13.3868 89.311 10.1392 85.3562 10.1167H85.3546H85.3491ZM85.3159 27.9953C79.5197 27.957 74.7882 23.1913 74.7712 17.3717V17.34C74.7882 11.5189 79.5204 6.75397 85.3198 6.71832H85.3894C91.1849 6.75397 95.9161 11.5196 95.9343 17.3416V17.3733C95.9161 23.1913 91.1849 27.9562 85.3878 27.9953H85.3159Z" fill="#195EE4"/>
<path fill-rule="evenodd" clip-rule="evenodd" d="M33.0812 10.1155C29.1125 10.1155 25.8842 13.3662 25.8842 17.3627C25.8842 21.3588 29.1125 24.6107 33.0812 24.6107C37.0503 24.6107 40.2794 21.3588 40.2794 17.3627C40.2794 13.3662 37.0503 10.1155 33.0812 10.1155ZM33.0812 27.998C27.2571 27.998 22.5189 23.227 22.5189 17.3627C22.5189 11.4984 27.2571 6.72699 33.0812 6.72699C35.3077 6.72699 37.4383 7.41843 39.2432 8.72721L40.2794 9.47837V7.28185H43.6435V17.2378L43.6427 17.3914C43.6273 23.2406 38.8898 27.998 33.0812 27.998Z" fill="#195EE4"/>
<path fill-rule="evenodd" clip-rule="evenodd" d="M62.3072 10.1154C58.3382 10.1154 55.109 13.3662 55.109 17.3627C55.109 21.3588 58.3382 24.6107 62.3072 24.6107C66.2754 24.6107 69.5054 21.3588 69.5054 17.3627C69.5054 13.3662 66.2754 10.1154 62.3072 10.1154ZM62.3072 27.998C56.4831 27.998 51.7441 23.227 51.7441 17.3627C51.7441 11.4983 56.4831 6.72696 62.3072 6.72696C64.5321 6.72696 66.6639 7.41841 68.4688 8.72719L69.5054 9.47834V0.410583H72.8695V17.237L72.8687 17.3914C72.8525 23.2406 68.1151 27.998 62.3072 27.998Z" fill="#195EE4"/>
<mask id="mask0_1091_24513" style="mask-type:alpha" maskUnits="userSpaceOnUse" x="0" y="0" width="101" height="28">
<path d="M0.00695801 0.00860596H100.785V27.4475H0.00695801V0.00860596Z" fill="white"/>
</mask>
<g mask="url(#mask0_1091_24513)">
<path fill-rule="evenodd" clip-rule="evenodd" d="M46.2538 27.4472H49.6332V7.237H46.2538V27.4472Z" fill="#195EE4"/>
<path fill-rule="evenodd" clip-rule="evenodd" d="M47.9432 4.09173C46.8242 4.09173 45.9139 3.17626 45.9139 2.05032C45.9139 0.924347 46.8242 0.00848389 47.9432 0.00848389C49.0614 0.00848389 49.9724 0.924347 49.9724 2.05032C49.9724 3.17626 49.0614 4.09173 47.9432 4.09173Z" fill="#195EE4"/>
<path fill-rule="evenodd" clip-rule="evenodd" d="M98.7022 8.80962C99.0179 8.80962 99.2365 8.66269 99.2365 8.40637V8.39441C99.2365 8.15632 99.0432 8.00274 98.7204 8.00274H98.0591V8.80962H98.7022ZM97.726 7.86317C97.726 7.7709 97.7978 7.69799 97.8886 7.69799H98.733C99.0179 7.69799 99.2547 7.78949 99.4007 7.93606C99.5096 8.04039 99.583 8.19276 99.583 8.37614V8.38818C99.583 8.74293 99.3462 8.96859 99.0061 9.04807L99.5403 9.71422C99.5648 9.75066 99.583 9.78713 99.583 9.83634C99.583 9.92784 99.5041 9.99533 99.4188 9.99533C99.3518 9.99533 99.3155 9.97046 99.2791 9.92202L98.6415 9.10898H98.0591V9.83017C98.0591 9.92202 97.9794 9.99533 97.8886 9.99533C97.7978 9.99533 97.726 9.92202 97.726 9.83017V7.86317ZM100.584 8.89532V8.8837C100.584 7.77747 99.7282 6.8729 98.5933 6.8729C97.4514 6.8729 96.5896 7.78949 96.5896 8.89532V8.90738C96.5896 10.0135 97.4459 10.9181 98.5815 10.9181C99.7227 10.9181 100.584 10.0007 100.584 8.89532ZM96.3892 8.90738V8.89532C96.3892 7.6918 97.3606 6.68329 98.5933 6.68329C99.826 6.68329 100.786 7.67976 100.786 8.8837V8.89532C100.786 10.0992 99.8134 11.107 98.5815 11.107C97.3488 11.107 96.3892 10.1113 96.3892 8.90738Z" fill="#195EE4"/>
<path fill-rule="evenodd" clip-rule="evenodd" d="M19.4255 27.4475C19.2763 25.4228 18.444 23.536 17.0622 22.105C15.599 20.5908 13.6757 19.7499 11.6473 19.7378C9.61229 19.7499 7.68829 20.5908 6.22398 22.105C4.84214 23.536 4.00979 25.4228 3.86067 27.4475H0.0218775L0.00683594 3.62678H3.836V18.7263L14.7119 3.62134L19.6467 3.63026L10.926 15.4991L12.1463 15.5588C15.1366 15.7066 17.9335 17.0737 20.0192 19.4083C21.9729 21.5951 23.1182 24.4387 23.2635 27.4475H19.4255Z" fill="#195EE4"/>
</g>
</svg>
