<svg width="101" height="28" viewBox="0 0 101 28" fill="none" xmlns="http://www.w3.org/2000/svg">
<path fill-rule="evenodd" clip-rule="evenodd" d="M85.3489 10.1167C81.3932 10.1392 78.1675 13.3868 78.1575 17.3575C78.1698 21.3281 81.3956 24.5745 85.3489 24.5951C89.3092 24.5745 92.5366 21.3281 92.5469 17.359C92.5366 13.3868 89.3108 10.1392 85.3559 10.1167H85.3544H85.3489ZM85.3156 27.9953C79.5194 27.957 74.7879 23.1913 74.771 17.3717V17.34C74.7879 11.5189 79.5202 6.75397 85.3196 6.71832H85.3891C91.1846 6.75397 95.9158 11.5196 95.934 17.3416V17.3733C95.9158 23.1913 91.1846 27.9562 85.3876 27.9953H85.3156Z" fill="white"/>
<path fill-rule="evenodd" clip-rule="evenodd" d="M33.0811 10.1155C29.1124 10.1155 25.884 13.3662 25.884 17.3627C25.884 21.3588 29.1124 24.6107 33.0811 24.6107C37.0501 24.6107 40.2793 21.3588 40.2793 17.3627C40.2793 13.3662 37.0501 10.1155 33.0811 10.1155ZM33.0811 27.998C27.257 27.998 22.5188 23.227 22.5188 17.3627C22.5188 11.4984 27.257 6.72699 33.0811 6.72699C35.3076 6.72699 37.4382 7.41843 39.2431 8.72721L40.2793 9.47837V7.28185H43.6434V17.2378L43.6426 17.3914C43.6272 23.2406 38.8897 27.998 33.0811 27.998Z" fill="white"/>
<path fill-rule="evenodd" clip-rule="evenodd" d="M62.3072 10.1154C58.3382 10.1154 55.109 13.3662 55.109 17.3627C55.109 21.3588 58.3382 24.6107 62.3072 24.6107C66.2754 24.6107 69.5054 21.3588 69.5054 17.3627C69.5054 13.3662 66.2754 10.1154 62.3072 10.1154ZM62.3072 27.998C56.4831 27.998 51.7441 23.227 51.7441 17.3627C51.7441 11.4983 56.4831 6.72696 62.3072 6.72696C64.5321 6.72696 66.6639 7.41841 68.4688 8.72719L69.5054 9.47834V0.410583H72.8695V17.237L72.8687 17.3914C72.8525 23.2406 68.1151 27.998 62.3072 27.998Z" fill="white"/>
<mask id="mask0_1299_25224" style="mask-type:alpha" maskUnits="userSpaceOnUse" x="0" y="0" width="101" height="28">
<path d="M0.00683594 0.00860596H100.785V27.4475H0.00683594V0.00860596Z" fill="white"/>
</mask>
<g mask="url(#mask0_1299_25224)">
<path fill-rule="evenodd" clip-rule="evenodd" d="M46.2537 27.4472H49.6331V7.237H46.2537V27.4472Z" fill="white"/>
<path fill-rule="evenodd" clip-rule="evenodd" d="M47.9431 4.09173C46.8241 4.09173 45.9138 3.17626 45.9138 2.05032C45.9138 0.924347 46.8241 0.00848389 47.9431 0.00848389C49.0613 0.00848389 49.9723 0.924347 49.9723 2.05032C49.9723 3.17626 49.0613 4.09173 47.9431 4.09173Z" fill="white"/>
<path fill-rule="evenodd" clip-rule="evenodd" d="M98.7022 8.80962C99.0179 8.80962 99.2365 8.66269 99.2365 8.40637V8.39441C99.2365 8.15632 99.0432 8.00274 98.7204 8.00274H98.0591V8.80962H98.7022ZM97.726 7.86317C97.726 7.7709 97.7978 7.69799 97.8886 7.69799H98.733C99.0179 7.69799 99.2547 7.78949 99.4007 7.93606C99.5096 8.04039 99.583 8.19276 99.583 8.37614V8.38818C99.583 8.74293 99.3462 8.96859 99.0061 9.04807L99.5403 9.71422C99.5648 9.75066 99.583 9.78713 99.583 9.83634C99.583 9.92784 99.5041 9.99533 99.4188 9.99533C99.3518 9.99533 99.3155 9.97046 99.2791 9.92202L98.6415 9.10898H98.0591V9.83017C98.0591 9.92202 97.9794 9.99533 97.8886 9.99533C97.7978 9.99533 97.726 9.92202 97.726 9.83017V7.86317ZM100.584 8.89532V8.8837C100.584 7.77747 99.7282 6.8729 98.5933 6.8729C97.4514 6.8729 96.5896 7.78949 96.5896 8.89532V8.90738C96.5896 10.0135 97.4459 10.9181 98.5815 10.9181C99.7227 10.9181 100.584 10.0007 100.584 8.89532ZM96.3892 8.90738V8.89532C96.3892 7.6918 97.3606 6.68329 98.5933 6.68329C99.826 6.68329 100.786 7.67976 100.786 8.8837V8.89532C100.786 10.0992 99.8134 11.107 98.5815 11.107C97.3488 11.107 96.3892 10.1113 96.3892 8.90738Z" fill="white"/>
<path fill-rule="evenodd" clip-rule="evenodd" d="M19.4252 27.4475C19.2761 25.4228 18.4437 23.536 17.0619 22.105C15.5987 20.5908 13.6755 19.7499 11.647 19.7378C9.61205 19.7499 7.68804 20.5908 6.22374 22.105C4.84189 23.536 4.00955 25.4228 3.86043 27.4475H0.0216334L0.0065918 3.62678H3.83576V18.7263L14.7117 3.62134L19.6465 3.63026L10.9257 15.4991L12.146 15.5588C15.1363 15.7066 17.9332 17.0737 20.019 19.4083C21.9727 21.5951 23.118 24.4387 23.2633 27.4475H19.4252Z" fill="white"/>
</g>
</svg>

