<svg viewBox="117.657 110.221 600 195.4" xmlns="http://www.w3.org/2000/svg"><path class="st0" d="M45.8 385.6H20.6V229.4h60.5c36 0 55.3 18.2 55.3 47.5s-19.3 47.5-55.3 47.5H45.8v61.2zm0-85.1h34.7c20.5 0 29.8-7.4 29.8-23.6s-9.2-23.7-29.8-23.7H45.8v47.3zM224.7 385.6v-12.9c-7.4 9.5-18.3 15.6-33.6 15.6-29.9 0-53.4-23.5-53.4-56.2s23.5-56.2 53.4-56.2c15.3 0 26.1 6.2 33.6 15.7v-13H248v106.9h-23.3v.1zm-63.1-53.4c0 18.7 12.2 34.3 32.3 34.3 19.2 0 32.3-14.7 32.3-34.3 0-19.5-13.1-34.3-32.3-34.3-20.1 0-32.3 15.6-32.3 34.3zM356.3 292.9l-15 16c-7.5-7.1-15.4-11.1-25.6-11.1-18 0-31.6 14.1-31.6 34.3 0 20.2 13.6 34.3 31.6 34.3 10.3 0 19.4-4.8 26.2-11.2l14.4 16.1c-9.9 11.3-23.8 17.1-39.9 17.1-33.9 0-56.2-24.2-56.2-56.2s22.3-56.2 56.2-56.2c16.1-.1 30.5 5.7 39.9 16.9zM389.1 340.5v45.1h-23.4V225l23.4-.6v94.4M495.1 385.6v-85.7h-21.3v-21.1h21.3v-32.4h23.4v32.4h21.4v21.1h-21.4v85.7zM393.5 329.1l8.7-9.8 35.3-40.5h29.3L422 329l45.3 56.6h-29.6l-35.6-45.1zM612.1 340.5l-35.6 45.1h-29.6l45.2-56.6-44.8-50.2h29.4l35.3 40.5 8.6 9.8zM620.6 419.8h-600v-15.5h600z" style="fill:#ec670f" transform="translate(97.057 -114.18)"/></svg>
