<?xml version="1.0" encoding="UTF-8"?><svg id="Layer_1" xmlns="http://www.w3.org/2000/svg" viewBox="0 0 751 147.458"><defs><style>.cls-1{fill:#fff;}.cls-2{fill:#159cf4;}.cls-3{fill:#231f20;}</style></defs><g><path class="cls-3" d="M176.4473,108.6313c-5.0234-2.1977-9.0003-5.3374-11.8259-9.3142s-4.2908-8.6863-4.2908-14.1283h16.3261c.314,3.9769,1.9884,7.3258,4.8141,9.9422,2.8257,2.6164,6.8025,3.8722,11.9306,3.8722,5.2327,0,9.4189-1.2558,12.3492-3.8722,2.9303-2.5117,4.3955-5.8606,4.3955-9.8375,0-3.1396-.9419-5.6513-2.721-7.6398-1.8838-1.9884-4.0815-3.4536-6.8025-4.6048-2.721-1.0465-6.4886-2.1977-11.3027-3.4536-6.07-1.5698-10.9887-3.2443-14.8609-4.9188-3.7676-1.6745-7.0118-4.1862-9.7329-7.7444-2.721-3.4536-3.9769-8.163-3.9769-13.919,0-5.3374,1.3605-10.0468,3.9769-14.1283,2.721-3.9769,6.4886-7.1165,11.3027-9.3142s10.4654-3.2443,16.7447-3.2443c9.0003,0,16.4307,2.3024,22.1867,6.8025s9.0003,10.6747,9.6282,18.6285h-16.954c-.314-3.3489-1.8838-6.2793-4.8141-8.6863s-6.8025-3.6629-11.7213-3.6629c-4.3955,0-7.9537,1.1512-10.7794,3.3489-2.8257,2.1977-4.1862,5.442-4.1862,9.6282,0,2.8257,.8372,5.2327,2.6164,7.0118,1.7791,1.8838,3.9769,3.2443,6.5932,4.3955,2.721,1.0465,6.3839,2.1977,10.9887,3.4536,6.1746,1.6745,11.198,3.4536,15.0702,5.1281s7.2211,4.2908,9.9422,7.8491,4.0815,8.2677,4.0815,14.1283c0,4.7094-1.2558,9.2096-3.8722,13.3958-2.5117,4.1862-6.2793,7.5351-11.0934,10.1515-4.9188,2.5117-10.6747,3.8722-17.268,3.8722-6.0699,.1047-11.7213-.9419-16.7447-3.1396Z"/><path class="cls-3" d="M261.008,49.5015v40.9199c0,2.8257,.6279,4.8141,1.9884,5.9653,1.2559,1.2558,3.5582,1.7791,6.5932,1.7791h9.4189v12.7678h-12.0353c-6.9072,0-12.1399-1.5698-15.8028-4.8141s-5.5467-8.477-5.5467-15.6982V49.5015h-8.6863v-12.5585h8.6863V18.6285h15.4889v18.4192h17.8959v12.4539h-18.0006Z"/><path class="cls-3" d="M305.6955,107.3754c-5.6513-3.1396-10.0468-7.6398-13.2911-13.3958s-4.8141-12.4539-4.8141-20.0936c0-7.5351,1.6745-14.233,4.9188-19.989,3.349-5.8606,7.8491-10.2561,13.6051-13.3958s12.1399-4.7094,19.1517-4.7094c7.1165,0,13.5004,1.5698,19.1517,4.7094,5.756,3.1396,10.2561,7.6398,13.6051,13.3958,3.349,5.8606,4.9188,12.4539,4.9188,19.989s-1.6745,14.233-5.1281,19.989c-3.4536,5.8606-8.0584,10.3608-13.919,13.5004-5.8607,3.1396-12.3492,4.8141-19.3611,4.8141-6.8025,0-13.1865-1.5698-18.8378-4.8141Zm30.0358-11.3027c3.4536-1.8838,6.2793-4.7094,8.3724-8.477,2.1977-3.7676,3.2443-8.3724,3.2443-13.7097s-1.0465-9.9422-3.1396-13.6051-4.8141-6.4886-8.163-8.3724c-3.4536-1.8838-7.1165-2.8257-10.9887-2.8257-3.9769,0-7.5351,.9419-10.9887,2.8257-3.349,1.8838-6.0699,4.7094-7.9537,8.3724-1.9884,3.6629-2.9303,8.2677-2.9303,13.6051,0,7.9537,1.9884,14.1283,6.0699,18.4192s9.2096,6.4886,15.3842,6.4886c3.9768,.1047,7.6397-.8372,11.0933-2.721Z"/><path class="cls-3" d="M403.5473,39.2454c4.5001-2.3024,9.5236-3.4536,15.1749-3.4536,6.4886,0,12.3492,1.5698,17.6866,4.8141,5.3374,3.1396,9.5236,7.6398,12.5585,13.3958,3.035,5.756,4.6048,12.3492,4.6048,19.7797s-1.5698,14.0237-4.6048,19.8843-7.2211,10.4654-12.5585,13.7097-11.198,4.9188-17.6866,4.9188c-5.6513,0-10.6748-1.1512-15.0702-3.4536-4.3955-2.3024-7.9537-5.1281-10.7794-8.477v45.9433h-15.2795V36.943h15.2795v10.8841c2.721-3.3489,6.2792-6.1746,10.6747-8.5817Zm31.2917,21.1402c-2.0931-3.6629-4.9188-6.4886-8.3724-8.477-3.4536-1.8838-7.1165-2.9303-11.0934-2.9303-3.8722,0-7.5351,.9419-10.9887,2.9303-3.4536,1.9884-6.1746,4.8141-8.3724,8.5817-2.0931,3.7676-3.1396,8.163-3.1396,13.2911s1.0465,9.5235,3.1396,13.3958c2.0931,3.7676,4.9188,6.6979,8.3724,8.6863s7.1165,2.9303,10.9887,2.9303c3.9769,0,7.6398-1.0465,11.0934-3.035,3.4536-1.9884,6.1746-4.9188,8.3724-8.791,2.0931-3.8722,3.1396-8.3724,3.1396-13.3958s-1.0465-9.4189-3.1396-13.1865Z"/><path class="cls-3" d="M483.5033,11.6166V110.9337h-15.2795V11.6166h15.2795Z"/><path class="cls-3" d="M503.9109,24.3845c-1.8838-1.8838-2.8257-4.1862-2.8257-7.0118,0-2.721,.9419-5.1281,2.8257-7.0118,1.8838-1.8838,4.1862-2.8257,7.0119-2.8257,2.721,0,4.9188,.9419,6.8025,2.8257,1.8838,1.8838,2.8256,4.1862,2.8256,7.0118s-.9419,5.1281-2.8257,7.0118-4.1862,2.8257-6.8025,2.8257c-2.8256,0-5.128-.9419-7.0118-2.8257Zm14.4423,12.5585V110.9337h-15.2795V36.943h15.2795Z"/><path class="cls-3" d="M583.0296,39.2454c4.3955,2.3024,7.8491,5.1281,10.3608,8.477v-10.7794h15.4888V112.0849c0,6.8025-1.4652,12.8725-4.2908,18.2099-2.8257,5.3374-7.0119,9.5236-12.4539,12.5585s-11.9306,4.6048-19.3611,4.6048c-10.0468,0-18.3145-2.3024-25.0124-7.0118-6.5932-4.7094-10.3608-11.0934-11.3027-19.1518h15.1749c1.1512,3.8722,3.6629,6.9072,7.4304,9.3142,3.7675,2.4071,8.3724,3.5582,13.6051,3.5582,6.1746,0,11.198-1.8838,14.9656-5.6513,3.7675-3.7676,5.756-9.2096,5.756-16.3261v-12.3492c-2.6164,3.4536-6.0699,6.3839-10.5701,8.791-4.3955,2.4071-9.4189,3.5583-15.0703,3.5583-6.4886,0-12.3492-1.6745-17.6866-4.9188-5.3373-3.2443-9.5235-7.8491-12.6632-13.7097-3.1396-5.8606-4.6048-12.4539-4.6048-19.8843s1.5698-14.0237,4.6048-19.7797c3.1396-5.756,7.3258-10.1515,12.6632-13.3958,5.3373-3.1396,11.198-4.8141,17.6866-4.8141,5.7561,.1047,10.7795,1.2559,15.2796,3.5582Zm7.2212,21.3495c-2.0931-3.7676-4.8141-6.5932-8.2677-8.5817-3.4536-1.9884-7.1165-2.9303-10.9887-2.9303-3.9769,0-7.6398,.9419-10.9887,2.9303-3.4536,1.8838-6.1746,4.7095-8.2677,8.477-2.0931,3.6629-3.1396,8.163-3.1396,13.1865,0,5.1281,1.0465,9.6282,3.1396,13.3958,2.0931,3.8722,4.9188,6.8025,8.3724,8.791s7.1165,3.035,10.9887,3.035c3.9769,0,7.6398-.9419,10.9887-2.9303s6.1746-4.8141,8.2677-8.6863c2.0931-3.7676,3.1396-8.2677,3.1396-13.3958-.1046-5.1281-1.1512-9.5235-3.2443-13.2911Z"/><path class="cls-3" d="M681.8234,39.4547c4.3955,2.4071,7.9537,5.9653,10.4654,10.7794,2.5117,4.7094,3.8722,10.4654,3.8722,17.1633v43.6409h-15.2796v-41.4431c0-6.5932-1.6744-11.7213-4.9188-15.2795-3.349-3.5583-7.8491-5.3374-13.6051-5.3374s-10.2561,1.7791-13.6051,5.3374c-3.349,3.5583-5.0234,8.5817-5.0234,15.2795v41.3385h-15.2795V11.6166h15.2795V45.6293c2.6164-3.1396,5.8606-5.5467,9.8375-7.2212,3.9769-1.6745,8.3724-2.5117,13.0818-2.5117,5.6513-.1047,10.6747,1.0465,15.1749,3.5583Z"/><path class="cls-3" d="M732.8947,49.5015v40.9199c0,2.8257,.6279,4.8141,1.9885,5.9653,1.2559,1.2558,3.5583,1.7791,6.5932,1.7791h9.4189v12.7678h-12.0353c-6.9072,0-12.1399-1.5698-15.8028-4.8141-3.6629-3.2443-5.5467-8.477-5.5467-15.6982V49.5015h-8.6863v-12.5585h8.6863V18.6285h15.4888v18.4192h18.0006v12.4539h-18.1053Z"/></g><g><circle class="cls-2" cx="64.0485" cy="64.0485" r="64.0485"/><path class="cls-1" d="M100.4682,52.0132h0c-.5233-.1047-.9419-.314-1.2558-.6279-.4186-.314-.7326-.7326-.9419-1.2559-.314-.5233-.4186-1.1512-.4186-1.9884v-11.0934c0-1.2559-.2093-2.4071-.6279-3.3489s-.9419-1.6745-1.5698-2.3024c-.7326-.6279-1.4652-1.0465-2.3024-1.3605-.8372-.314-1.7791-.4186-2.721-.4186h-23.8612v-2.3024c3.2443-1.1512,5.5467-4.2908,5.5467-7.8491,0-4.6048-3.7676-8.3724-8.3724-8.3724s-8.3724,3.7676-8.3724,8.3724c0,3.6629,2.3024,6.6979,5.5467,7.9537v2.3024h-23.5472c-.9419,0-1.8838,.1047-2.721,.4186-.8372,.314-1.6745,.7326-2.3024,1.3605-.7326,.6279-1.2559,1.3605-1.5698,2.3024-.4186,.9419-.6279,1.9884-.6279,3.3489v11.198c0,.8372-.1047,1.4652-.4186,1.9884-.314,.5233-.6279,.9419-.9419,1.2559-.4186,.314-.8372,.5233-1.2559,.6279h0c-.7326,.2093-1.2559,.8372-1.2559,1.5698v2.1977c0,.7326,.5233,1.3605,1.2559,1.5698h0c.5233,.1047,.9419,.314,1.2559,.6279,.4186,.314,.7326,.7326,.9419,1.3605,.314,.5233,.4186,1.2558,.4186,2.1977v11.512c0,1.2558,.2093,2.4071,.6279,3.3489,.4186,.9419,.9419,1.6745,1.5698,2.3024,.7326,.6279,1.4652,1.0465,2.3024,1.3605s1.7791,.4186,2.721,.4186h45.3154c1.0465,0,1.9884,.2093,2.3024,.9419,.314,.7326,.2093,1.5698,.2093,2.4071v16.64c0,.8372,0,1.4652-.314,2.1977s-1.0465,1.1512-2.1977,1.1512H46.1526c-1.0465,0-1.9884-.4186-2.1977-1.1512-.314-.7326-.2093-1.4652-.2093-2.3024v-4.9188h0s.1047-3.1396-2.9303-3.1396c-2.9303,0-2.8257,2.9303-2.8257,3.1396h0v5.5467c0,1.2558,.2093,2.4071,.6279,3.3489,.4186,.9419,.9419,1.6745,1.5698,2.3024,.7326,.6279,1.4652,1.0465,2.3024,1.3605s1.7791,.4186,2.721,.4186h38.8268c.9419,0,1.8838-.1047,2.721-.4186,.8372-.314,1.6745-.7326,2.3024-1.3605,.7326-.6279,1.2558-1.3605,1.5698-2.3024,.4186-.9419,.6279-1.9884,.6279-3.3489v-18.0006c0-1.2558-.2093-2.4071-.6279-3.3489-.4186-.9419-.9419-1.6745-1.5698-2.3024-.7326-.6279-1.4652-1.0465-2.3024-1.3605-.8372-.314-1.7791-.4186-2.721-.4186H38.7221c-1.0465,0-2.0931-.7326-2.4071-1.3605-.314-.7326-.1047-6.1746-.1047-7.0118v-6.07c0-1.3605-.2093-2.4071-.6279-3.2443s-.9419-1.4652-1.4652-1.9884-1.1512-.8372-1.7791-1.0465c-.6279-.2093-1.1512-.314-1.6745-.4186v-.1047c.4186,0,1.0465-.2093,1.6745-.4186,.6279-.314,1.2559-.6279,1.7791-1.1512s1.0465-1.1512,1.4652-1.8838,.6279-1.6745,.6279-2.8257v-10.5701c0-.8372,0-1.6745,.2093-2.4071,.314-.7326,1.0465-1.0465,2.3024-.9419h50.9667c1.0465,0,1.8838,.314,2.1977,1.0465,.314,.7326,.314,1.5698,.314,2.4071v10.6747c0,1.0465,.2093,1.9884,.6279,2.8257,.4186,.7326,.9419,1.3605,1.4652,1.8838s1.1512,.8372,1.7791,1.1512,1.1512,.4186,1.6745,.4186v.1047c-.4186,0-1.0465,.2093-1.6745,.4186-.6279,.2093-1.2558,.5233-1.7791,1.0465s-1.0465,1.1512-1.4652,1.9884-.6279,1.8838-.6279,3.2443v7.4305s0,2.721,2.9303,2.721c3.035,0,2.9303-2.721,2.9303-2.721v-7.2212c0-.9419,.1047-1.6745,.4186-2.1977s.6279-1.0465,.9419-1.3605c.4186-.314,.8372-.5233,1.2558-.6279h0c.7326-.2093,1.2558-.8372,1.2558-1.5698v-2.1977c-.2093-.9419-.7326-1.5698-1.4652-1.7791ZM63.9438,16.5354c1.4652,0,2.721,1.2559,2.721,2.721s-1.2558,2.721-2.721,2.721-2.721-1.2559-2.721-2.721,1.2558-2.721,2.721-2.721Z"/><path class="cls-1" d="M70.851,50.2341c0,2.721,2.1977,5.0234,5.0234,5.0234,2.721,0,5.0234-2.1977,5.0234-5.0234,0-2.721-2.1977-5.0234-5.0234-5.0234-2.8257,0-5.0234,2.1977-5.0234,5.0234Z"/><path class="cls-1" d="M47.1991,50.2341c0,2.721,2.1977,5.0234,5.0234,5.0234,2.721,0,5.0234-2.1977,5.0234-5.0234,0-2.721-2.1977-5.0234-5.0234-5.0234-2.721,.1047-5.0234,2.3024-5.0234,5.0234Z"/></g></svg>