<svg width="66" height="64" viewBox="0 0 66 64" fill="none" xmlns="http://www.w3.org/2000/svg">
<path d="M1.39307 32C1.39307 40.4869 4.72304 48.6263 10.6504 54.6274C16.5778 60.6286 24.6171 64 32.9997 64C41.3823 64 49.4216 60.6286 55.349 54.6274C61.2764 48.6263 64.6064 40.4869 64.6064 32C64.6064 23.5131 61.2764 15.3737 55.349 9.37258C49.4216 3.37142 41.3823 0 32.9997 0C24.6171 0 16.5778 3.37142 10.6504 9.37258C4.72304 15.3737 1.39307 23.5131 1.39307 32Z" fill="#C7F0FF"/>
<path d="M40.4671 23.52C42.8719 23.52 45.1782 22.5529 46.8786 20.8313C48.579 19.1097 49.5343 16.7747 49.5343 14.34C49.5343 11.9053 48.579 9.57038 46.8786 7.84879C45.1782 6.12721 42.8719 5.16003 40.4671 5.16003H25.533C23.1282 5.16003 20.822 6.12721 19.1215 7.84879C17.4211 9.57038 16.4658 11.9053 16.4658 14.34C16.4658 16.7747 17.4211 19.1097 19.1215 20.8313C20.822 22.5529 23.1282 23.52 25.533 23.52H40.4671Z" fill="white"/>
<path d="M49.2267 16.72C48.3814 17.8279 47.2964 18.7249 46.0553 19.342C44.8141 19.9592 43.4497 20.28 42.067 20.28H23.9327C22.5499 20.28 21.1855 19.9592 19.9443 19.342C18.7032 18.7249 17.6183 17.8279 16.7729 16.72C17.2911 18.6711 18.4302 20.3947 20.0138 21.6241C21.5974 22.8534 23.5372 23.5198 25.5327 23.52H40.4669C42.4624 23.5198 44.4022 22.8534 45.9858 21.6241C47.5695 20.3947 48.7085 18.6711 49.2267 16.72Z" fill="#E8F4FA"/>
<path d="M40.4671 23.52C42.8719 23.52 45.1782 22.5529 46.8786 20.8313C48.579 19.1097 49.5343 16.7747 49.5343 14.34C49.5343 11.9053 48.579 9.57038 46.8786 7.84879C45.1782 6.12721 42.8719 5.16003 40.4671 5.16003H25.533C23.1282 5.16003 20.822 6.12721 19.1215 7.84879C17.4211 9.57038 16.4658 11.9053 16.4658 14.34C16.4658 16.7747 17.4211 19.1097 19.1215 20.8313C20.822 22.5529 23.1282 23.52 25.533 23.52H40.4671Z" stroke="#45413C" stroke-width="1.6" stroke-linecap="round" stroke-linejoin="round"/>
<path d="M60.5713 29.2224C61.041 30.4804 61.2308 31.8279 61.1272 33.1687C61.0237 34.5095 60.6293 35.8107 59.9722 36.9796C59.3151 38.1485 58.4115 39.1562 57.3257 39.9311C56.24 40.7059 54.9987 41.2287 53.6905 41.4624L45.1006 42.996C44.8929 43.0318 44.6941 43.1089 44.5159 43.2228C44.3376 43.3366 44.1833 43.485 44.0619 43.6594C43.9404 43.8338 43.8542 44.0308 43.8082 44.2391C43.7621 44.4473 43.7572 44.6627 43.7936 44.8729C43.83 45.0831 43.9071 45.2839 44.0204 45.4638C44.1338 45.6438 44.2811 45.7993 44.4539 45.9214C44.6268 46.0435 44.8217 46.1299 45.0277 46.1755C45.2336 46.2211 45.4463 46.225 45.6538 46.1872L54.2437 44.652C56.0151 44.3359 57.6959 43.6282 59.1663 42.5793C60.6367 41.5304 61.8605 40.1661 62.7507 38.5836C63.6408 37.0011 64.1753 35.2394 64.3161 33.4238C64.4569 31.6083 64.2005 29.7837 63.5653 28.08L60.5713 29.2224Z" fill="#ADC4D9" stroke="#45413C" stroke-width="1.6" stroke-miterlimit="10"/>
<path d="M51.1344 24.5544C51.1357 24.3578 51.1808 24.164 51.2665 23.9875C51.3521 23.8111 51.476 23.6565 51.629 23.5353C51.782 23.4141 51.96 23.3295 52.1498 23.2878C52.3396 23.2461 52.5362 23.2484 52.725 23.2944C53.0288 23.3687 53.2994 23.5432 53.4943 23.7905C53.6892 24.0378 53.7972 24.3437 53.8012 24.66C53.8128 25.5093 54.0714 26.3362 54.5446 27.0374C55.0178 27.7387 55.6847 28.2832 56.4619 28.6028C57.2391 28.9224 58.0921 29.003 58.9143 28.8345C59.7365 28.666 60.4914 28.2559 61.0846 27.6554C61.6778 27.0549 62.0831 26.2907 62.2496 25.4583C62.4162 24.6259 62.3368 23.7623 62.0212 22.9754C61.7057 22.1884 61.168 21.5131 60.4755 21.0339C59.7829 20.5546 58.9662 20.2927 58.1274 20.2808C57.815 20.2764 57.513 20.167 57.2688 19.9697C57.0246 19.7725 56.8522 19.4986 56.7786 19.1912C56.733 19.0001 56.7306 18.8011 56.7717 18.6089C56.8128 18.4167 56.8963 18.2365 57.0159 18.0816C57.1355 17.9267 57.2881 17.8012 57.4624 17.7145C57.6367 17.6278 57.8281 17.5821 58.0223 17.5808C59.3973 17.5718 60.7439 17.977 61.8909 18.7448C63.0379 19.5126 63.9335 20.6083 64.4638 21.8928C64.9941 23.1772 65.1352 24.5923 64.8691 25.9581C64.603 27.3239 63.9418 28.5788 62.9695 29.5632C61.9972 30.5476 60.7578 31.217 59.4087 31.4864C58.0597 31.7558 56.662 31.613 55.3934 31.0761C54.1247 30.5391 53.0424 29.6324 52.2841 28.4712C51.5257 27.3099 51.1255 25.9465 51.1344 24.5544Z" fill="#F0F0F0" stroke="#45413C" stroke-width="1.6" stroke-linecap="round" stroke-linejoin="round"/>
<path d="M55.7891 40.8145L57.1742 43.7369" stroke="#45413C" stroke-width="1.6" stroke-miterlimit="10"/>
<path d="M51.8774 41.7856L52.4495 44.8504" stroke="#45413C" stroke-width="1.6" stroke-miterlimit="10"/>
<path d="M58.6489 38.7792L60.8969 41.0872" stroke="#45413C" stroke-width="1.6" stroke-miterlimit="10"/>
<path d="M60.5508 35.7424L63.4863 37.0392" stroke="#45413C" stroke-width="1.6" stroke-miterlimit="10"/>
<path d="M64.357 32.6296L61.1528 32.7088" stroke="#45413C" stroke-width="1.6" stroke-miterlimit="10"/>
<path d="M5.42902 29.2224C4.95937 30.4804 4.76955 31.8279 4.87311 33.1687C4.97666 34.5095 5.37103 35.8107 6.02811 36.9796C6.68519 38.1485 7.58882 39.1562 8.6746 39.9311C9.76038 40.7059 11.0016 41.2288 12.3098 41.4624L20.8997 42.9968C21.1075 43.0326 21.3062 43.1097 21.4845 43.2236C21.6627 43.3374 21.817 43.4858 21.9385 43.6602C22.0599 43.8346 22.1461 44.0316 22.1922 44.2399C22.2382 44.4481 22.2431 44.6635 22.2067 44.8737C22.1703 45.0839 22.0932 45.2847 21.9799 45.4646C21.8666 45.6446 21.7192 45.8001 21.5464 45.9222C21.3736 46.0443 21.1786 46.1307 20.9727 46.1763C20.7668 46.2219 20.554 46.2259 20.3466 46.188L11.7535 44.652C9.98237 44.3355 8.30194 43.6275 6.8319 42.5784C5.36186 41.5293 4.13837 40.165 3.24857 38.5826C2.35877 37.0001 1.82454 35.2385 1.68393 33.4232C1.54332 31.6079 1.79979 29.7835 2.43508 28.08L5.42902 29.2224Z" fill="#ADC4D9" stroke="#45413C" stroke-width="1.6" stroke-miterlimit="10"/>
<path d="M14.8657 24.5544C14.8644 24.3578 14.8193 24.164 14.7337 23.9875C14.648 23.8111 14.5241 23.6565 14.3711 23.5353C14.2182 23.4141 14.0401 23.3295 13.8503 23.2878C13.6606 23.2461 13.4639 23.2484 13.2751 23.2944C12.9714 23.3687 12.7007 23.5432 12.5058 23.7905C12.311 24.0378 12.203 24.3437 12.1989 24.66C12.1873 25.5093 11.9287 26.3362 11.4555 27.0374C10.9823 27.7387 10.3154 28.2832 9.53821 28.6028C8.76101 28.9224 7.908 29.003 7.08582 28.8345C6.26363 28.666 5.50874 28.2559 4.91552 27.6554C4.3223 27.0549 3.91706 26.2907 3.75048 25.4583C3.58389 24.6259 3.66334 23.7623 3.9789 22.9754C4.29446 22.1884 4.83212 21.5131 5.52467 21.0339C6.21723 20.5546 7.03394 20.2927 7.87273 20.2808C8.18508 20.2764 8.48712 20.167 8.7313 19.9697C8.97548 19.7725 9.14794 19.4986 9.22154 19.1912C9.26717 19.0001 9.26954 18.8011 9.22844 18.6089C9.18735 18.4167 9.10388 18.2365 8.98426 18.0816C8.86464 17.9267 8.71198 17.8012 8.53769 17.7145C8.36341 17.6278 8.17201 17.5821 7.97782 17.5808C6.60282 17.5718 5.25623 17.977 4.10924 18.7448C2.96225 19.5126 2.06667 20.6083 1.53636 21.8928C1.00605 23.1772 0.864966 24.5923 1.13104 25.9581C1.39711 27.3239 2.05832 28.5788 3.03061 29.5632C4.0029 30.5476 5.24235 31.217 6.59139 31.4864C7.94043 31.7558 9.33811 31.613 10.6068 31.0761C11.8754 30.5391 12.9577 29.6324 13.7161 28.4712C14.4744 27.3099 14.8746 25.9465 14.8657 24.5544Z" fill="#F0F0F0" stroke="#45413C" stroke-width="1.6" stroke-linecap="round" stroke-linejoin="round"/>
<path d="M10.2108 40.8145L8.82568 43.7369" stroke="#45413C" stroke-width="1.6" stroke-miterlimit="10"/>
<path d="M14.1229 41.7856L13.5508 44.8504" stroke="#45413C" stroke-width="1.6" stroke-miterlimit="10"/>
<path d="M7.35105 38.7792L5.10303 41.0872" stroke="#45413C" stroke-width="1.6" stroke-miterlimit="10"/>
<path d="M5.44914 35.7424L2.51367 37.0392" stroke="#45413C" stroke-width="1.6" stroke-miterlimit="10"/>
<path d="M1.64307 32.6296L4.84719 32.7088" stroke="#45413C" stroke-width="1.6" stroke-miterlimit="10"/>
<path d="M20.1992 14.34C20.1992 15.4858 20.6488 16.5846 21.449 17.3947C22.2492 18.2049 23.3345 18.66 24.4661 18.66C25.5978 18.66 26.6831 18.2049 27.4833 17.3947C28.2835 16.5846 28.733 15.4858 28.733 14.34C28.733 13.1943 28.2835 12.0955 27.4833 11.2853C26.6831 10.4752 25.5978 10.02 24.4661 10.02C23.3345 10.02 22.2492 10.4752 21.449 11.2853C20.6488 12.0955 20.1992 13.1943 20.1992 14.34Z" fill="#4AEFF7"/>
<path d="M20.1992 14.34C20.1992 15.4858 20.6488 16.5846 21.449 17.3947C22.2492 18.2049 23.3345 18.66 24.4661 18.66C25.5978 18.66 26.6831 18.2049 27.4833 17.3947C28.2835 16.5846 28.733 15.4858 28.733 14.34C28.733 13.1943 28.2835 12.0955 27.4833 11.2853C26.6831 10.4752 25.5978 10.02 24.4661 10.02C23.3345 10.02 22.2492 10.4752 21.449 11.2853C20.6488 12.0955 20.1992 13.1943 20.1992 14.34Z" stroke="#45413C" stroke-width="1.6" stroke-linecap="round" stroke-linejoin="round"/>
<path d="M22.8662 14.34C22.8662 14.7696 23.0348 15.1817 23.3349 15.4855C23.6349 15.7893 24.0419 15.96 24.4663 15.96C24.8907 15.96 25.2977 15.7893 25.5977 15.4855C25.8978 15.1817 26.0664 14.7696 26.0664 14.34C26.0664 13.9103 25.8978 13.4983 25.5977 13.1945C25.2977 12.8906 24.8907 12.72 24.4663 12.72C24.0419 12.72 23.6349 12.8906 23.3349 13.1945C23.0348 13.4983 22.8662 13.9103 22.8662 14.34Z" fill="#00C9D4"/>
<path d="M21.5918 12.24C21.5918 12.4549 21.6761 12.661 21.8262 12.813C21.9764 12.965 22.1799 13.0504 22.3922 13.0504C22.6045 13.0504 22.8081 12.965 22.9582 12.813C23.1083 12.661 23.1927 12.4549 23.1927 12.24C23.1927 12.025 23.1083 11.8189 22.9582 11.6669C22.8081 11.5149 22.6045 11.4296 22.3922 11.4296C22.1799 11.4296 21.9764 11.5149 21.8262 11.6669C21.6761 11.8189 21.5918 12.025 21.5918 12.24Z" fill="#A6FBFF"/>
<path d="M37.2671 14.34C37.2671 15.4858 37.7166 16.5846 38.5168 17.3947C39.317 18.2049 40.4023 18.66 41.534 18.66C42.6656 18.66 43.7509 18.2049 44.5511 17.3947C45.3513 16.5846 45.8009 15.4858 45.8009 14.34C45.8009 13.1943 45.3513 12.0955 44.5511 11.2853C43.7509 10.4752 42.6656 10.02 41.534 10.02C40.4023 10.02 39.317 10.4752 38.5168 11.2853C37.7166 12.0955 37.2671 13.1943 37.2671 14.34Z" fill="#4AEFF7"/>
<path d="M37.2671 14.34C37.2671 15.4858 37.7166 16.5846 38.5168 17.3947C39.317 18.2049 40.4023 18.66 41.534 18.66C42.6656 18.66 43.7509 18.2049 44.5511 17.3947C45.3513 16.5846 45.8009 15.4858 45.8009 14.34C45.8009 13.1943 45.3513 12.0955 44.5511 11.2853C43.7509 10.4752 42.6656 10.02 41.534 10.02C40.4023 10.02 39.317 10.4752 38.5168 11.2853C37.7166 12.0955 37.2671 13.1943 37.2671 14.34Z" stroke="#45413C" stroke-width="1.6" stroke-linecap="round" stroke-linejoin="round"/>
<path d="M39.9336 14.34C39.9336 14.7696 40.1022 15.1817 40.4022 15.4855C40.7023 15.7893 41.1093 15.96 41.5337 15.96C41.958 15.96 42.365 15.7893 42.6651 15.4855C42.9652 15.1817 43.1338 14.7696 43.1338 14.34C43.1338 13.9103 42.9652 13.4983 42.6651 13.1945C42.365 12.8906 41.958 12.72 41.5337 12.72C41.1093 12.72 40.7023 12.8906 40.4022 13.1945C40.1022 13.4983 39.9336 13.9103 39.9336 14.34Z" fill="#00C9D4"/>
<path d="M38.6592 12.24C38.6592 12.4549 38.7435 12.661 38.8936 12.813C39.0437 12.965 39.2473 13.0504 39.4596 13.0504C39.6719 13.0504 39.8755 12.965 40.0256 12.813C40.1757 12.661 40.2601 12.4549 40.2601 12.24C40.2601 12.025 40.1757 11.8189 40.0256 11.6669C39.8755 11.5149 39.6719 11.4296 39.4596 11.4296C39.2473 11.4296 39.0437 11.5149 38.8936 11.6669C38.7435 11.8189 38.6592 12.025 38.6592 12.24Z" fill="#A6FBFF"/>
<path d="M17.5327 36.48H48.4677V53.22H17.5327V36.48Z" fill="white"/>
<path d="M44.5169 49.98H21.4835C20.4357 49.98 19.4308 49.5586 18.6899 48.8084C17.949 48.0583 17.5327 47.0408 17.5327 45.98V49.22C17.5327 50.2809 17.949 51.2983 18.6899 52.0484C19.4308 52.7986 20.4357 53.22 21.4835 53.22H44.5169C45.5647 53.22 46.5696 52.7986 47.3106 52.0484C48.0515 51.2983 48.4677 50.2809 48.4677 49.22V45.98C48.4677 47.0408 48.0515 48.0583 47.3106 48.8084C46.5696 49.5586 45.5647 49.98 44.5169 49.98Z" fill="#E8F4FA"/>
<path d="M17.5327 36.48H48.4677V53.22H17.5327V36.48Z" stroke="#45413C" stroke-width="1.6" stroke-linecap="round" stroke-linejoin="round"/>
<path d="M37.8002 25.14C37.8002 25.3528 37.7588 25.5634 37.6784 25.76C37.598 25.9565 37.4802 26.1351 37.3316 26.2855C37.183 26.436 37.0066 26.5553 36.8125 26.6367C36.6183 26.7181 36.4103 26.76 36.2001 26.76H29.7998C29.3754 26.76 28.9684 26.5893 28.6684 26.2855C28.3683 25.9817 28.1997 25.5697 28.1997 25.14C28.1997 24.7104 28.3683 24.2983 28.6684 23.9945C28.9684 23.6907 29.3754 23.52 29.7998 23.52H36.2001C36.4103 23.52 36.6183 23.5619 36.8125 23.6433C37.0066 23.7247 37.183 23.8441 37.3316 23.9945C37.4802 24.1449 37.598 24.3235 37.6784 24.5201C37.7588 24.7166 37.8002 24.9273 37.8002 25.14Z" fill="#ADC4D9"/>
<path d="M29.7996 25.14H36.2C36.4804 25.1403 36.7559 25.2154 36.9986 25.3576C37.2413 25.4999 37.4428 25.7043 37.5828 25.9504C37.7234 25.7044 37.7976 25.4252 37.7979 25.1409C37.7982 24.8567 37.7246 24.5773 37.5845 24.331C37.4443 24.0847 37.2426 23.88 36.9996 23.7377C36.7565 23.5953 36.4808 23.5203 36.2 23.52H29.7996C29.5189 23.5203 29.2431 23.5953 29.0001 23.7377C28.757 23.88 28.5553 24.0847 28.4151 24.331C28.275 24.5773 28.2014 24.8567 28.2017 25.1409C28.202 25.4252 28.2762 25.7044 28.4168 25.9504C28.5568 25.7043 28.7583 25.4999 29.001 25.3576C29.2437 25.2154 29.5192 25.1403 29.7996 25.14Z" fill="#8CA4B8"/>
<path d="M37.8002 25.14C37.8002 25.3528 37.7588 25.5634 37.6784 25.76C37.598 25.9565 37.4802 26.1351 37.3316 26.2855C37.183 26.436 37.0066 26.5553 36.8125 26.6367C36.6183 26.7181 36.4103 26.76 36.2001 26.76H29.7998C29.3754 26.76 28.9684 26.5893 28.6684 26.2855C28.3683 25.9817 28.1997 25.5697 28.1997 25.14C28.1997 24.7104 28.3683 24.2983 28.6684 23.9945C28.9684 23.6907 29.3754 23.52 29.7998 23.52H36.2001C36.4103 23.52 36.6183 23.5619 36.8125 23.6433C37.0066 23.7247 37.183 23.8441 37.3316 23.9945C37.4802 24.1449 37.598 24.3235 37.6784 24.5201C37.7588 24.7166 37.8002 24.9273 37.8002 25.14V25.14Z" stroke="#45413C" stroke-width="1.6" stroke-linecap="round" stroke-linejoin="round"/>
<path d="M37.8002 28.38C37.8002 28.5927 37.7588 28.8034 37.6784 29C37.598 29.1965 37.4802 29.3751 37.3316 29.5255C37.183 29.676 37.0066 29.7953 36.8125 29.8767C36.6183 29.9581 36.4103 30 36.2001 30H29.7998C29.3754 30 28.9684 29.8293 28.6684 29.5255C28.3683 29.2217 28.1997 28.8097 28.1997 28.38C28.1997 27.9504 28.3683 27.5383 28.6684 27.2345C28.9684 26.9307 29.3754 26.76 29.7998 26.76H36.2001C36.4103 26.76 36.6183 26.8019 36.8125 26.8833C37.0066 26.9647 37.183 27.0841 37.3316 27.2345C37.4802 27.3849 37.598 27.5635 37.6784 27.7601C37.7588 27.9566 37.8002 28.1673 37.8002 28.38Z" fill="#ADC4D9"/>
<path d="M29.7996 28.38H36.2C36.4804 28.3803 36.7559 28.4554 36.9986 28.5976C37.2413 28.7399 37.4428 28.9443 37.5828 29.1904C37.7234 28.9444 37.7976 28.6652 37.7979 28.3809C37.7982 28.0967 37.7246 27.8173 37.5845 27.571C37.4443 27.3247 37.2426 27.12 36.9996 26.9777C36.7565 26.8353 36.4808 26.7602 36.2 26.76H29.7996C29.5189 26.7602 29.2431 26.8353 29.0001 26.9777C28.757 27.12 28.5553 27.3247 28.4151 27.571C28.275 27.8173 28.2014 28.0967 28.2017 28.3809C28.202 28.6652 28.2762 28.9444 28.4168 29.1904C28.5568 28.9443 28.7583 28.7399 29.001 28.5976C29.2437 28.4554 29.5192 28.3803 29.7996 28.38Z" fill="#8CA4B8"/>
<path d="M37.8002 28.38C37.8002 28.5927 37.7588 28.8034 37.6784 29C37.598 29.1965 37.4802 29.3751 37.3316 29.5255C37.183 29.676 37.0066 29.7953 36.8125 29.8767C36.6183 29.9581 36.4103 30 36.2001 30H29.7998C29.3754 30 28.9684 29.8293 28.6684 29.5255C28.3683 29.2217 28.1997 28.8097 28.1997 28.38C28.1997 27.9504 28.3683 27.5383 28.6684 27.2345C28.9684 26.9307 29.3754 26.76 29.7998 26.76H36.2001C36.4103 26.76 36.6183 26.8019 36.8125 26.8833C37.0066 26.9647 37.183 27.0841 37.3316 27.2345C37.4802 27.3849 37.598 27.5635 37.6784 27.7601C37.7588 27.9566 37.8002 28.1673 37.8002 28.38V28.38Z" stroke="#45413C" stroke-width="1.6" stroke-linecap="round" stroke-linejoin="round"/>
<path d="M37.8002 31.62C37.8002 31.8327 37.7588 32.0434 37.6784 32.2399C37.598 32.4365 37.4802 32.6151 37.3316 32.7655C37.183 32.9159 37.0066 33.0353 36.8125 33.1167C36.6183 33.1981 36.4103 33.24 36.2001 33.24H29.7998C29.3754 33.24 28.9684 33.0693 28.6684 32.7655C28.3683 32.4617 28.1997 32.0497 28.1997 31.62C28.1997 31.1904 28.3683 30.7783 28.6684 30.4745C28.9684 30.1707 29.3754 30 29.7998 30H36.2001C36.4103 30 36.6183 30.0419 36.8125 30.1233C37.0066 30.2047 37.183 30.3241 37.3316 30.4745C37.4802 30.6249 37.598 30.8035 37.6784 31.0001C37.7588 31.1966 37.8002 31.4073 37.8002 31.62Z" fill="#ADC4D9"/>
<path d="M29.7996 31.62H36.2C36.4804 31.6203 36.7559 31.6954 36.9986 31.8376C37.2413 31.9799 37.4428 32.1843 37.5828 32.4304C37.7234 32.1844 37.7976 31.9052 37.7979 31.6209C37.7982 31.3367 37.7246 31.0573 37.5845 30.811C37.4443 30.5647 37.2426 30.36 36.9996 30.2177C36.7565 30.0753 36.4808 30.0002 36.2 30H29.7996C29.5189 30.0002 29.2431 30.0753 29.0001 30.2177C28.757 30.36 28.5553 30.5647 28.4151 30.811C28.275 31.0573 28.2014 31.3367 28.2017 31.6209C28.202 31.9052 28.2762 32.1844 28.4168 32.4304C28.5568 32.1843 28.7583 31.9799 29.001 31.8376C29.2437 31.6954 29.5192 31.6203 29.7996 31.62Z" fill="#8CA4B8"/>
<path d="M37.8002 31.62C37.8002 31.8327 37.7588 32.0434 37.6784 32.2399C37.598 32.4365 37.4802 32.6151 37.3316 32.7655C37.183 32.9159 37.0066 33.0353 36.8125 33.1167C36.6183 33.1981 36.4103 33.24 36.2001 33.24H29.7998C29.3754 33.24 28.9684 33.0693 28.6684 32.7655C28.3683 32.4617 28.1997 32.0497 28.1997 31.62C28.1997 31.1904 28.3683 30.7783 28.6684 30.4745C28.9684 30.1707 29.3754 30 29.7998 30H36.2001C36.4103 30 36.6183 30.0419 36.8125 30.1233C37.0066 30.2047 37.183 30.3241 37.3316 30.4745C37.4802 30.6249 37.598 30.8035 37.6784 31.0001C37.7588 31.1966 37.8002 31.4073 37.8002 31.62V31.62Z" stroke="#45413C" stroke-width="1.6" stroke-linecap="round" stroke-linejoin="round"/>
<path d="M37.8002 34.86C37.8002 35.0727 37.7588 35.2834 37.6784 35.4799C37.598 35.6765 37.4802 35.8551 37.3316 36.0055C37.183 36.1559 37.0066 36.2753 36.8125 36.3567C36.6183 36.4381 36.4103 36.48 36.2001 36.48H29.7998C29.3754 36.48 28.9684 36.3093 28.6684 36.0055C28.3683 35.7017 28.1997 35.2896 28.1997 34.86C28.1997 34.4303 28.3683 34.0183 28.6684 33.7145C28.9684 33.4107 29.3754 33.24 29.7998 33.24H36.2001C36.4103 33.24 36.6183 33.2819 36.8125 33.3633C37.0066 33.4447 37.183 33.564 37.3316 33.7145C37.4802 33.8649 37.598 34.0435 37.6784 34.24C37.7588 34.4366 37.8002 34.6473 37.8002 34.86Z" fill="#ADC4D9"/>
<path d="M29.7996 34.86H36.2C36.4804 34.8603 36.7559 34.9354 36.9986 35.0776C37.2413 35.2199 37.4428 35.4243 37.5828 35.6704C37.7234 35.4244 37.7976 35.1452 37.7979 34.8609C37.7982 34.5766 37.7246 34.2973 37.5845 34.051C37.4443 33.8046 37.2426 33.6 36.9996 33.4577C36.7565 33.3153 36.4808 33.2402 36.2 33.24H29.7996C29.5189 33.2402 29.2431 33.3153 29.0001 33.4577C28.757 33.6 28.5553 33.8046 28.4151 34.051C28.275 34.2973 28.2014 34.5766 28.2017 34.8609C28.202 35.1452 28.2762 35.4244 28.4168 35.6704C28.5568 35.4243 28.7583 35.2199 29.001 35.0776C29.2437 34.9354 29.5192 34.8603 29.7996 34.86Z" fill="#8CA4B8"/>
<path d="M37.8002 34.86C37.8002 35.0727 37.7588 35.2834 37.6784 35.4799C37.598 35.6765 37.4802 35.8551 37.3316 36.0055C37.183 36.1559 37.0066 36.2753 36.8125 36.3567C36.6183 36.4381 36.4103 36.48 36.2001 36.48H29.7998C29.3754 36.48 28.9684 36.3093 28.6684 36.0055C28.3683 35.7017 28.1997 35.2896 28.1997 34.86C28.1997 34.4303 28.3683 34.0183 28.6684 33.7145C28.9684 33.4107 29.3754 33.24 29.7998 33.24H36.2001C36.4103 33.24 36.6183 33.2819 36.8125 33.3633C37.0066 33.4447 37.183 33.564 37.3316 33.7145C37.4802 33.8649 37.598 34.0435 37.6784 34.24C37.7588 34.4366 37.8002 34.6473 37.8002 34.86V34.86Z" stroke="#45413C" stroke-width="1.6" stroke-linecap="round" stroke-linejoin="round"/>
<path d="M41.0004 53.22H24.9995V44.56C24.9995 44.1356 25.166 43.7286 25.4624 43.4286C25.7587 43.1285 26.1607 42.96 26.5798 42.96H39.4201C39.8392 42.96 40.2412 43.1285 40.5375 43.4286C40.8339 43.7286 41.0004 44.1356 41.0004 44.56V53.22Z" fill="#DAEDF7"/>
<path d="M39.4201 42.96H26.5798C26.1607 42.96 25.7587 43.1285 25.4624 43.4286C25.166 43.7286 24.9995 44.1356 24.9995 44.56V47.1096C24.9995 46.6852 25.166 46.2782 25.4624 45.9782C25.7587 45.6781 26.1607 45.5096 26.5798 45.5096H39.4201C39.8392 45.5096 40.2412 45.6781 40.5375 45.9782C40.8339 46.2782 41.0004 46.6852 41.0004 47.1096V44.56C41.0004 44.1356 40.8339 43.7286 40.5375 43.4286C40.2412 43.1285 39.8392 42.96 39.4201 42.96Z" fill="#E8F4FA"/>
<path d="M41.0004 53.22H24.9995V44.56C24.9995 44.1356 25.166 43.7286 25.4624 43.4286C25.7587 43.1285 26.1607 42.96 26.5798 42.96H39.4201C39.8392 42.96 40.2412 43.1285 40.5375 43.4286C40.8339 43.7286 41.0004 44.1356 41.0004 44.56V53.22Z" stroke="#45413C" stroke-width="1.6" stroke-linecap="round" stroke-linejoin="round"/>
<path d="M27.1328 48.9C27.1328 49.4729 27.3576 50.0223 27.7577 50.4273C28.1578 50.8324 28.7004 51.06 29.2663 51.06C29.8321 51.06 30.3747 50.8324 30.7748 50.4273C31.1749 50.0223 31.3997 49.4729 31.3997 48.9C31.3997 48.3271 31.1749 47.7777 30.7748 47.3726C30.3747 46.9676 29.8321 46.74 29.2663 46.74C28.7004 46.74 28.1578 46.9676 27.7577 47.3726C27.3576 47.7777 27.1328 48.3271 27.1328 48.9Z" fill="#00DFEB" stroke="#45413C" stroke-width="1.6" stroke-linecap="round" stroke-linejoin="round"/>
<path d="M27.9004 48.3272C27.9004 48.5422 27.9847 48.7483 28.1348 48.9003C28.2849 49.0523 28.4885 49.1376 28.7008 49.1376C28.9131 49.1376 29.1167 49.0523 29.2668 48.9003C29.4169 48.7483 29.5013 48.5422 29.5013 48.3272C29.5013 48.1123 29.4169 47.9062 29.2668 47.7542C29.1167 47.6022 28.9131 47.5168 28.7008 47.5168C28.4885 47.5168 28.2849 47.6022 28.1348 47.7542C27.9847 47.9062 27.9004 48.1123 27.9004 48.3272Z" fill="#A6FBFF"/>
<path d="M34.6001 48.9C34.6001 49.4729 34.8249 50.0223 35.225 50.4273C35.6251 50.8324 36.1677 51.06 36.7335 51.06C37.2994 51.06 37.842 50.8324 38.2421 50.4273C38.6422 50.0223 38.867 49.4729 38.867 48.9C38.867 48.3271 38.6422 47.7777 38.2421 47.3726C37.842 46.9676 37.2994 46.74 36.7335 46.74C36.1677 46.74 35.6251 46.9676 35.225 47.3726C34.8249 47.7777 34.6001 48.3271 34.6001 48.9Z" fill="#00F5BC" stroke="#45413C" stroke-width="1.6" stroke-linecap="round" stroke-linejoin="round"/>
<path d="M35.3677 48.3272C35.3677 48.4337 35.3884 48.539 35.4286 48.6374C35.4688 48.7357 35.5278 48.825 35.6021 48.9003C35.6764 48.9755 35.7647 49.0352 35.8618 49.0759C35.9589 49.1167 36.063 49.1376 36.1681 49.1376C36.2732 49.1376 36.3773 49.1167 36.4744 49.0759C36.5715 49.0352 36.6598 48.9755 36.7341 48.9003C36.8084 48.825 36.8674 48.7357 36.9076 48.6374C36.9479 48.539 36.9686 48.4337 36.9686 48.3272C36.9686 48.2208 36.9479 48.1154 36.9076 48.0171C36.8674 47.9188 36.8084 47.8295 36.7341 47.7542C36.6598 47.679 36.5715 47.6193 36.4744 47.5785C36.3773 47.5378 36.2732 47.5168 36.1681 47.5168C36.063 47.5168 35.9589 47.5378 35.8618 47.5785C35.7647 47.6193 35.6764 47.679 35.6021 47.7542C35.5278 47.8295 35.4688 47.9188 35.4286 48.0171C35.3884 48.1154 35.3677 48.2208 35.3677 48.3272Z" fill="#CCFFF3"/>
<path opacity="0.15" d="M16.4658 53.7599C16.4658 54.0464 18.2078 54.3211 21.3086 54.5236C24.4094 54.7261 28.6149 54.8399 33.0001 54.8399C37.3852 54.8399 41.5908 54.7261 44.6915 54.5236C47.7923 54.3211 49.5343 54.0464 49.5343 53.7599C49.5343 53.4735 47.7923 53.1988 44.6915 52.9963C41.5908 52.7937 37.3852 52.6799 33.0001 52.6799C28.6149 52.6799 24.4094 52.7937 21.3086 52.9963C18.2078 53.1988 16.4658 53.4735 16.4658 53.7599Z" fill="#45413C"/>
</svg>

