<svg
  id="graphic-bookworm"
  viewBox="0 0 96 96"
  fill="none"
  xmlns="http://www.w3.org/2000/svg"
>
  <path
    d="M10.0381 57.024C10.0381 67.2083 14.0838 76.9755 21.2852 84.1769C28.4866 91.3783 38.2538 95.424 48.4381 95.424C58.6224 95.424 68.3896 91.3783 75.591 84.1769C82.7924 76.9755 86.8381 67.2083 86.8381 57.024C86.8381 46.8397 82.7924 37.0725 75.591 29.8711C68.3896 22.6697 58.6224 18.624 48.4381 18.624C38.2538 18.624 28.4866 22.6697 21.2852 29.8711C14.0838 37.0725 10.0381 46.8397 10.0381 57.024Z"
    fill="#E8F4FA"
  />
  <path
    fill-rule="evenodd"
    clip-rule="evenodd"
    d="M20.9463 29.5317C28.2377 22.2403 38.127 18.144 48.4386 18.144C58.7502 18.144 68.6395 22.2403 75.9309 29.5317C83.2223 36.8231 87.3186 46.7124 87.3186 57.024C87.3186 67.3357 83.2223 77.2249 75.9309 84.5163C68.6395 91.8078 58.7502 95.904 48.4386 95.904C38.127 95.904 28.2377 91.8078 20.9463 84.5163C13.6549 77.2249 9.55859 67.3357 9.55859 57.024C9.55859 46.7124 13.6549 36.8231 20.9463 29.5317ZM48.4386 19.104C38.3816 19.104 28.7365 23.0992 21.6251 30.2106C14.5137 37.3219 10.5186 46.967 10.5186 57.024C10.5186 67.0811 14.5137 76.7261 21.6251 83.8375C28.7365 90.9489 38.3816 94.944 48.4386 94.944C58.4956 94.944 68.1407 90.9489 75.2521 83.8375C82.3635 76.7261 86.3586 67.0811 86.3586 57.024C86.3586 46.967 82.3635 37.3219 75.2521 30.2106C68.1407 23.0992 58.4956 19.104 48.4386 19.104Z"
    fill="#DAEDF7"
  />
  <path d="M50.752 55.847H80.8566V59.8234H50.752V55.847Z" fill="#00DBA8" />
  <path
    d="M50.752 56.9827V58.6867C50.752 58.9882 50.8717 59.2773 51.0849 59.4904C51.298 59.7036 51.5871 59.8234 51.8886 59.8234H74.8931C74.9579 59.4517 74.9766 59.0735 74.9488 58.6973L74.7846 56.4298C74.7704 56.234 74.7434 56.0393 74.704 55.847H51.8886C51.5873 55.847 51.2983 55.9667 51.0852 56.1796C50.8721 56.3926 50.7522 56.6814 50.752 56.9827Z"
    fill="#00AD85"
  />
  <path d="M53.0244 49.0311H78.5854V53.0074H53.0244V49.0311Z" fill="#DEBB7E" />
  <path
    d="M54.1601 49.0311C53.8589 49.0311 53.57 49.1508 53.357 49.3638C53.1441 49.5767 53.0244 49.8656 53.0244 50.1668V51.8708C53.0244 52.172 53.1441 52.4609 53.357 52.6739C53.57 52.8868 53.8589 53.0065 54.1601 53.0065H71.7694V49.0311H54.1601Z"
    fill="#B89558"
  />
  <path d="M54.1602 40.5101H78.5854V46.1905H54.1602V40.5101Z" fill="#FF6242" />
  <path
    d="M59.3969 40.5121H55.2968C54.9953 40.5121 54.7062 40.6318 54.4931 40.845C54.2799 41.0582 54.1602 41.3473 54.1602 41.6487V45.0567C54.1609 45.3577 54.281 45.646 54.4941 45.8586C54.7072 46.0711 54.9958 46.1905 55.2968 46.1905H59.3969V40.5121Z"
    fill="#E04122"
  />
  <path d="M54.1602 31.9901H78.5854V37.6704H54.1602V31.9901Z" fill="#00B8F0" />
  <path
    d="M54.6248 32.209C54.4803 32.3142 54.3627 32.4522 54.2816 32.6115C54.2005 32.7708 54.1583 32.947 54.1582 33.1258V36.5338C54.1582 36.6832 54.1877 36.8312 54.2449 36.9692C54.3021 37.1072 54.386 37.2326 54.4918 37.3382C54.5975 37.4438 54.7231 37.5274 54.8612 37.5845C54.9993 37.6415 55.1473 37.6707 55.2968 37.6704H58.8324C57.949 35.5032 56.495 33.6159 54.6248 32.209Z"
    fill="#009FD9"
  />
  <path
    fill-rule="evenodd"
    clip-rule="evenodd"
    d="M50.2715 55.8471C50.2715 55.582 50.4864 55.3671 50.7515 55.3671H80.8561C81.1212 55.3671 81.3361 55.582 81.3361 55.8471V59.8234C81.3361 60.0885 81.1212 60.3034 80.8561 60.3034H50.7515C50.4864 60.3034 50.2715 60.0885 50.2715 59.8234V55.8471ZM51.2315 56.3271V59.3434H80.3761V56.3271H51.2315Z"
    fill="#45413C"
  />
  <path
    fill-rule="evenodd"
    clip-rule="evenodd"
    d="M52.5439 49.031C52.5439 48.7659 52.7588 48.551 53.0239 48.551H78.5849C78.85 48.551 79.0649 48.7659 79.0649 49.031V53.0073C79.0649 53.2724 78.85 53.4873 78.5849 53.4873H53.0239C52.7588 53.4873 52.5439 53.2724 52.5439 53.0073V49.031ZM53.5039 49.511V52.5273H78.1049V49.511H53.5039Z"
    fill="#45413C"
  />
  <path
    fill-rule="evenodd"
    clip-rule="evenodd"
    d="M53.6797 40.5102C53.6797 40.2451 53.8946 40.0302 54.1597 40.0302H78.585C78.8501 40.0302 79.065 40.2451 79.065 40.5102V46.1905C79.065 46.4556 78.8501 46.6705 78.585 46.6705H54.1597C53.8946 46.6705 53.6797 46.4556 53.6797 46.1905V40.5102ZM54.6397 40.9902V45.7105H78.105V40.9902H54.6397Z"
    fill="#45413C"
  />
  <path
    fill-rule="evenodd"
    clip-rule="evenodd"
    d="M53.6797 31.9901C53.6797 31.725 53.8946 31.5101 54.1597 31.5101H78.585C78.8501 31.5101 79.065 31.725 79.065 31.9901V37.6705C79.065 37.9355 78.8501 38.1505 78.585 38.1505H54.1597C53.8946 38.1505 53.6797 37.9355 53.6797 37.6705V31.9901ZM54.6397 32.4701V37.1905H78.105V32.4701H54.6397Z"
    fill="#45413C"
  />
  <path d="M53.0244 53.0065H78.5854V55.8462H53.0244V53.0065Z" fill="#BF8256" />
  <path
    d="M53.0244 54.1441V54.7114C53.0244 55.0127 53.144 55.3017 53.357 55.5148C53.5699 55.728 53.8588 55.8478 54.1601 55.8481H74.7041C74.521 54.9428 74.0634 54.1159 73.3937 53.4798C73.3783 53.3211 73.3543 53.1635 73.3217 53.0074H54.1601C53.8588 53.0077 53.5699 53.1276 53.357 53.3407C53.144 53.5538 53.0244 53.8428 53.0244 54.1441Z"
    fill="#915E3A"
  />
  <path
    fill-rule="evenodd"
    clip-rule="evenodd"
    d="M52.5439 53.0065C52.5439 52.7414 52.7588 52.5265 53.0239 52.5265H78.5849C78.85 52.5265 79.0649 52.7414 79.0649 53.0065V55.8462C79.0649 56.1113 78.85 56.3262 78.5849 56.3262H53.0239C52.7588 56.3262 52.5439 56.1113 52.5439 55.8462V53.0065ZM53.5039 53.4865V55.3662H78.1049V53.4865H53.5039Z"
    fill="#45413C"
  />
  <path d="M53.0244 46.1904H77.4497V49.0301H53.0244V46.1904Z" fill="#FF8A14" />
  <path
    d="M53.0244 47.3281V47.8964C53.0244 48.1977 53.144 48.4867 53.357 48.6998C53.5699 48.9129 53.8588 49.0328 54.1601 49.0331H69.7217L68.0273 47.9041C67.0494 47.2511 65.8556 47.0045 64.699 47.2167L60.5268 47.9751C60.5268 47.9204 60.5268 47.8647 60.5268 47.8091C60.5277 47.2594 60.4358 46.7135 60.2551 46.1943H54.1601C53.8592 46.1943 53.5707 46.3137 53.3577 46.5263C53.1448 46.7389 53.0249 47.0272 53.0244 47.3281Z"
    fill="#EB6D00"
  />
  <path
    fill-rule="evenodd"
    clip-rule="evenodd"
    d="M52.5439 46.1904C52.5439 45.9254 52.7588 45.7104 53.0239 45.7104H77.4492C77.7143 45.7104 77.9292 45.9254 77.9292 46.1904V49.0301C77.9292 49.2952 77.7143 49.5101 77.4492 49.5101H53.0239C52.7588 49.5101 52.5439 49.2952 52.5439 49.0301V46.1904ZM53.5039 46.6704V48.5501H76.9692V46.6704H53.5039Z"
    fill="#45413C"
  />
  <path d="M53.0244 37.6704H76.313V40.5101H53.0244V37.6704Z" fill="#00DFEB" />
  <path
    d="M54.1601 37.6704C53.8589 37.6704 53.57 37.7901 53.357 38.003C53.1441 38.216 53.0244 38.5049 53.0244 38.8061V39.3744C53.0242 39.5237 53.0534 39.6716 53.1103 39.8096C53.1673 39.9476 53.2509 40.073 53.3564 40.1787C53.4619 40.2844 53.5871 40.3682 53.725 40.4254C53.863 40.4826 54.0108 40.512 54.1601 40.512H59.6167C59.4648 39.5383 59.201 38.5855 58.8305 37.6723L54.1601 37.6704Z"
    fill="#00C9D4"
  />
  <path
    fill-rule="evenodd"
    clip-rule="evenodd"
    d="M52.5439 37.6704C52.5439 37.4053 52.7588 37.1904 53.0239 37.1904H76.3126C76.5777 37.1904 76.7926 37.4053 76.7926 37.6704V40.5101C76.7926 40.7752 76.5777 40.9901 76.3126 40.9901H53.0239C52.7588 40.9901 52.5439 40.7752 52.5439 40.5101V37.6704ZM53.5039 38.1504V40.0301H75.8326V38.1504H53.5039Z"
    fill="#45413C"
  />
  <path d="M51.3203 29.1495H74.609V31.9892H51.3203V29.1495Z" fill="#FF6242" />
  <path
    fill-rule="evenodd"
    clip-rule="evenodd"
    d="M50.8398 29.1494C50.8398 28.8843 51.0547 28.6694 51.3198 28.6694H74.6085C74.8736 28.6694 75.0885 28.8843 75.0885 29.1494V31.9891C75.0885 32.2542 74.8736 32.4691 74.6085 32.4691H51.3198C51.0547 32.4691 50.8398 32.2542 50.8398 31.9891V29.1494ZM51.7998 29.6294V31.5091H74.1285V29.6294H51.7998Z"
    fill="#45413C"
  />
  <path
    fill-rule="evenodd"
    clip-rule="evenodd"
    d="M55.2964 55.3671C55.5615 55.3671 55.7764 55.582 55.7764 55.8471V59.8234C55.7764 60.0885 55.5615 60.3034 55.2964 60.3034C55.0313 60.3034 54.8164 60.0885 54.8164 59.8234V55.8471C54.8164 55.582 55.0313 55.3671 55.2964 55.3671Z"
    fill="#45413C"
  />
  <path
    fill-rule="evenodd"
    clip-rule="evenodd"
    d="M59.397 40.0302C59.6621 40.0302 59.877 40.2451 59.877 40.5102V46.1905C59.877 46.4556 59.6621 46.6705 59.397 46.6705C59.1319 46.6705 58.917 46.4556 58.917 46.1905V40.5102C58.917 40.2451 59.1319 40.0302 59.397 40.0302Z"
    fill="#45413C"
  />
  <path d="M63.248 31.9901H65.5204V37.6704H63.248V31.9901Z" fill="#E0E0E0" />
  <path
    fill-rule="evenodd"
    clip-rule="evenodd"
    d="M62.7686 31.9901C62.7686 31.725 62.9835 31.5101 63.2486 31.5101H65.5209C65.786 31.5101 66.0009 31.725 66.0009 31.9901V37.6705C66.0009 37.9355 65.786 38.1505 65.5209 38.1505H63.2486C62.9835 38.1505 62.7686 37.9355 62.7686 37.6705V31.9901ZM63.7286 32.4701V37.1905H65.0409V32.4701H63.7286Z"
    fill="#45413C"
  />
  <path d="M71.7695 49.0311H74.0418V53.0074H71.7695V49.0311Z" fill="#FFF48C" />
  <path
    fill-rule="evenodd"
    clip-rule="evenodd"
    d="M71.2891 49.031C71.2891 48.7659 71.504 48.551 71.7691 48.551H74.0414C74.3065 48.551 74.5214 48.7659 74.5214 49.031V53.0073C74.5214 53.2724 74.3065 53.4873 74.0414 53.4873H71.7691C71.504 53.4873 71.2891 53.2724 71.2891 53.0073V49.031ZM72.2491 49.511V52.5273H73.5614V49.511H72.2491Z"
    fill="#45413C"
  />
  <path d="M66.9404 74.0237H91.3657V76.8634H66.9404V74.0237Z" fill="#FF8A14" />
  <path
    d="M68.0771 74.0237C67.7758 74.0237 67.4868 74.1433 67.2737 74.3563C67.0606 74.5692 66.9407 74.8581 66.9404 75.1594V75.7277C66.9407 76.029 67.0606 76.3178 67.2737 76.5308C67.4868 76.7437 67.7758 76.8634 68.0771 76.8634H72.7974C73.2016 76.1691 73.4143 75.38 73.4137 74.5766V74.0237H68.0771Z"
    fill="#EB6D00"
  />
  <path
    fill-rule="evenodd"
    clip-rule="evenodd"
    d="M66.46 74.0237C66.46 73.7586 66.6749 73.5437 66.94 73.5437H91.3652C91.6303 73.5437 91.8452 73.7586 91.8452 74.0237V76.8634C91.8452 77.1285 91.6303 77.3434 91.3652 77.3434H66.94C66.6749 77.3434 66.46 77.1285 66.46 76.8634V74.0237ZM67.42 74.5037V76.3834H90.8852V74.5037H67.42Z"
    fill="#45413C"
  />
  <path d="M68.0771 65.5038H91.3658V68.3435H68.0771V65.5038Z" fill="#FF6242" />
  <path
    d="M73.4138 65.5038H69.2167C69.0676 65.5038 68.9199 65.5332 68.7821 65.5902C68.6443 65.6473 68.5191 65.731 68.4137 65.8364C68.3082 65.9419 68.2246 66.0671 68.1675 66.2049C68.1104 66.3426 68.0811 66.4903 68.0811 66.6395V67.2068C68.0811 67.5081 68.2007 67.7971 68.4136 68.0102C68.6266 68.2233 68.9154 68.3432 69.2167 68.3435H73.4177L73.4138 65.5038Z"
    fill="#E04122"
  />
  <path
    fill-rule="evenodd"
    clip-rule="evenodd"
    d="M67.5967 65.5037C67.5967 65.2386 67.8116 65.0237 68.0767 65.0237H91.3653C91.6304 65.0237 91.8453 65.2386 91.8453 65.5037V68.3434C91.8453 68.6085 91.6304 68.8234 91.3653 68.8234H68.0767C67.8116 68.8234 67.5967 68.6085 67.5967 68.3434V65.5037ZM68.5567 65.9837V67.8634H90.8853V65.9837H68.5567Z"
    fill="#45413C"
  />
  <path d="M65.8047 68.3434H90.23V74.0237H65.8047V68.3434Z" fill="#FFE500" />
  <path
    d="M73.4136 68.3434H66.9404C66.7912 68.3434 66.6435 68.3728 66.5058 68.4298C66.368 68.4869 66.2428 68.5706 66.1373 68.676C66.0319 68.7815 65.9482 68.9067 65.8911 69.0445C65.8341 69.1822 65.8047 69.3299 65.8047 69.4791V72.8871C65.8047 73.1883 65.9243 73.4773 66.1373 73.6904C66.3502 73.9036 66.6391 74.0234 66.9404 74.0237H73.4136V68.3434Z"
    fill="#EBCB00"
  />
  <path
    fill-rule="evenodd"
    clip-rule="evenodd"
    d="M65.3242 68.3434C65.3242 68.0783 65.5391 67.8634 65.8042 67.8634H90.2295C90.4946 67.8634 90.7095 68.0783 90.7095 68.3434V74.0237C90.7095 74.2888 90.4946 74.5037 90.2295 74.5037H65.8042C65.5391 74.5037 65.3242 74.2888 65.3242 74.0237V68.3434ZM66.2842 68.8234V73.5437H89.7495V68.8234H66.2842Z"
    fill="#45413C"
  />
  <path
    fill-rule="evenodd"
    clip-rule="evenodd"
    d="M86.8208 67.8634C87.0859 67.8634 87.3008 68.0783 87.3008 68.3434V74.0237C87.3008 74.2888 87.0859 74.5037 86.8208 74.5037C86.5557 74.5037 86.3408 74.2888 86.3408 74.0237V68.3434C86.3408 68.0783 86.5557 67.8634 86.8208 67.8634Z"
    fill="#45413C"
  />
  <path
    fill-rule="evenodd"
    clip-rule="evenodd"
    d="M69.7808 67.8634C70.0459 67.8634 70.2608 68.0783 70.2608 68.3434V74.0237C70.2608 74.2888 70.0459 74.5037 69.7808 74.5037C69.5157 74.5037 69.3008 74.2888 69.3008 74.0237V68.3434C69.3008 68.0783 69.5157 67.8634 69.7808 67.8634Z"
    fill="#45413C"
  />
  <path d="M67.5088 59.8234H91.9341V65.5037H67.5088V59.8234Z" fill="#9F5AE5" />
  <path
    d="M68.6406 59.8234C68.3399 59.8244 68.0519 59.9446 67.8397 60.1577C67.6275 60.3708 67.5085 60.6593 67.5088 60.96V64.368C67.509 64.6685 67.6282 64.9566 67.8403 65.1694C68.0524 65.3822 68.3402 65.5024 68.6406 65.5037H73.4099V62.4432C73.5674 62.3046 73.7152 62.1555 73.8525 61.9968C74.3886 61.3796 74.747 60.6284 74.8893 59.8234H68.6406Z"
    fill="#803EC2"
  />
  <path
    fill-rule="evenodd"
    clip-rule="evenodd"
    d="M67.0283 59.8234C67.0283 59.5583 67.2432 59.3434 67.5083 59.3434H91.9336C92.1987 59.3434 92.4136 59.5583 92.4136 59.8234V65.5037C92.4136 65.7688 92.1987 65.9837 91.9336 65.9837H67.5083C67.2432 65.9837 67.0283 65.7688 67.0283 65.5037V59.8234ZM67.9883 60.3034V65.0237H91.4536V60.3034H67.9883Z"
    fill="#45413C"
  />
  <path d="M76.5967 59.8234H78.869V65.5037H76.5967V59.8234Z" fill="#E0E0E0" />
  <path
    fill-rule="evenodd"
    clip-rule="evenodd"
    d="M76.1172 59.8234C76.1172 59.5583 76.3321 59.3434 76.5972 59.3434H78.8695C79.1346 59.3434 79.3495 59.5583 79.3495 59.8234V65.5037C79.3495 65.7688 79.1346 65.9837 78.8695 65.9837H76.5972C76.3321 65.9837 76.1172 65.7688 76.1172 65.5037V59.8234ZM77.0772 60.3034V65.0237H78.3895V60.3034H77.0772Z"
    fill="#45413C"
  />
  <path d="M65.8047 76.8634H91.3656V80.8397H65.8047V76.8634Z" fill="#FF6196" />
  <path
    d="M66.9404 76.8634C66.6391 76.8637 66.3502 76.9835 66.1373 77.1967C65.9243 77.4098 65.8047 77.6988 65.8047 78V79.704C65.8047 79.8532 65.8341 80.0009 65.8911 80.1386C65.9482 80.2764 66.0319 80.4016 66.1373 80.5071C66.2428 80.6125 66.368 80.6962 66.5058 80.7533C66.6435 80.8103 66.7912 80.8397 66.9404 80.8397H67.4761C67.6078 80.3669 67.693 79.8824 67.7304 79.393L69.6716 79.0464C70.3198 78.9313 70.9353 78.6764 71.4751 78.2994C72.0149 77.9224 72.4661 77.4324 72.7973 76.8634H66.9404Z"
    fill="#E0366F"
  />
  <path
    fill-rule="evenodd"
    clip-rule="evenodd"
    d="M65.3242 76.8634C65.3242 76.5983 65.5391 76.3834 65.8042 76.3834H91.3652C91.6303 76.3834 91.8452 76.5983 91.8452 76.8634V80.8397C91.8452 81.1048 91.6303 81.3197 91.3652 81.3197H65.8042C65.5391 81.3197 65.3242 81.1048 65.3242 80.8397V76.8634ZM66.2842 77.3434V80.3597H90.8852V77.3434H66.2842Z"
    fill="#45413C"
  />
  <path d="M84.5498 76.8634H86.8221V80.8397H84.5498V76.8634Z" fill="#FFF48C" />
  <path
    fill-rule="evenodd"
    clip-rule="evenodd"
    d="M84.0693 76.8634C84.0693 76.5983 84.2842 76.3834 84.5493 76.3834H86.8217C87.0868 76.3834 87.3017 76.5983 87.3017 76.8634V80.8397C87.3017 81.1048 87.0868 81.3197 86.8217 81.3197H84.5493C84.2842 81.3197 84.0693 81.1048 84.0693 80.8397V76.8634ZM85.0293 77.3434V80.3597H86.3417V77.3434H85.0293Z"
    fill="#45413C"
  />
  <path d="M7.01367 75.696H37.1183V79.6724H7.01367V75.696Z" fill="#00DBA8" />
  <path
    d="M35.9832 75.696H20.5166C20.7313 76.5418 21.1854 77.3076 21.8244 77.9017C22.4635 78.4958 23.2604 78.893 24.1195 79.0455L26.0472 79.3901C26.0472 79.4861 26.0577 79.5821 26.0654 79.6724H35.9832C36.2844 79.6724 36.5734 79.5527 36.7865 79.3398C36.9997 79.1268 37.1195 78.838 37.1198 78.5367V76.8327C37.1198 76.6834 37.0904 76.5356 37.0333 76.3977C36.9762 76.2598 36.8924 76.1345 36.7869 76.029C36.6813 75.9234 36.556 75.8397 36.4181 75.7826C36.2802 75.7254 36.1324 75.696 35.9832 75.696Z"
    fill="#00AD85"
  />
  <path d="M9.28613 68.88H34.8471V72.8563H9.28613V68.88Z" fill="#DEBB7E" />
  <path
    d="M33.7114 68.88H20.377V72.8563H33.7114C34.0128 72.8563 34.3019 72.7366 34.5151 72.5234C34.7282 72.3102 34.848 72.0211 34.848 71.7197V70.0157C34.848 69.8665 34.8186 69.7187 34.7615 69.5809C34.7043 69.443 34.6206 69.3178 34.515 69.2123C34.4095 69.1068 34.2842 69.0232 34.1463 68.9662C34.0084 68.9092 33.8606 68.8799 33.7114 68.88Z"
    fill="#B89558"
  />
  <path d="M10.4219 60.36H34.8472V66.0403H10.4219V60.36Z" fill="#FF6242" />
  <path
    d="M33.7115 60.36H19.0273C19.2765 61.1656 19.7436 61.8866 20.3771 62.4432V66.0403H33.7115C34.013 66.0403 34.3021 65.9205 34.5152 65.7074C34.7284 65.4942 34.8481 65.2051 34.8481 64.9037V61.4957C34.8481 61.3464 34.8187 61.1987 34.7616 61.0608C34.7045 60.923 34.6207 60.7977 34.5152 60.6923C34.4096 60.5868 34.2843 60.5032 34.1464 60.4462C34.0085 60.3891 33.8607 60.3599 33.7115 60.36Z"
    fill="#E04122"
  />
  <path
    fill-rule="evenodd"
    clip-rule="evenodd"
    d="M6.53418 75.6961C6.53418 75.431 6.74908 75.2161 7.01418 75.2161H37.1188C37.3839 75.2161 37.5988 75.431 37.5988 75.6961V79.6724C37.5988 79.9375 37.3839 80.1524 37.1188 80.1524H7.01418C6.74908 80.1524 6.53418 79.9375 6.53418 79.6724V75.6961ZM7.49418 76.1761V79.1924H36.6388V76.1761H7.49418Z"
    fill="#45413C"
  />
  <path
    fill-rule="evenodd"
    clip-rule="evenodd"
    d="M8.80664 68.88C8.80664 68.6149 9.02154 68.4 9.28664 68.4H34.8476C35.1127 68.4 35.3276 68.6149 35.3276 68.88V72.8563C35.3276 73.1214 35.1127 73.3363 34.8476 73.3363H9.28664C9.02154 73.3363 8.80664 73.1214 8.80664 72.8563V68.88ZM9.76664 69.36V72.3763H34.3676V69.36H9.76664Z"
    fill="#45413C"
  />
  <path
    fill-rule="evenodd"
    clip-rule="evenodd"
    d="M9.94238 60.36C9.94238 60.0949 10.1573 59.88 10.4224 59.88H34.8477C35.1128 59.88 35.3277 60.0949 35.3277 60.36V66.0403C35.3277 66.3054 35.1128 66.5203 34.8477 66.5203H10.4224C10.1573 66.5203 9.94238 66.3054 9.94238 66.0403V60.36ZM10.9024 60.84V65.5603H34.3677V60.84H10.9024Z"
    fill="#45413C"
  />
  <path d="M9.28613 72.8563H34.8471V75.696H9.28613V72.8563Z" fill="#BF8256" />
  <path
    d="M33.7114 72.8563H20.377V74.5766C20.3767 74.9541 20.4234 75.3301 20.5162 75.696H33.7114C33.8606 75.6961 34.0084 75.6669 34.1463 75.6098C34.2842 75.5528 34.4095 75.4692 34.515 75.3637C34.6206 75.2582 34.7043 75.133 34.7615 74.9952C34.8186 74.8573 34.848 74.7095 34.848 74.5603V73.992C34.848 73.8428 34.8186 73.695 34.7615 73.5572C34.7043 73.4193 34.6206 73.2941 34.515 73.1886C34.4095 73.0831 34.2842 72.9995 34.1463 72.9425C34.0084 72.8855 33.8606 72.8562 33.7114 72.8563Z"
    fill="#915E3A"
  />
  <path
    fill-rule="evenodd"
    clip-rule="evenodd"
    d="M8.80664 72.8563C8.80664 72.5912 9.02154 72.3763 9.28664 72.3763H34.8476C35.1127 72.3763 35.3276 72.5912 35.3276 72.8563V75.696C35.3276 75.9611 35.1127 76.176 34.8476 76.176H9.28664C9.02154 76.176 8.80664 75.9611 8.80664 75.696V72.8563ZM9.76664 73.3363V75.216H34.3676V73.3363H9.76664Z"
    fill="#45413C"
  />
  <path d="M9.28613 66.0404H33.7114V68.8801H9.28613V66.0404Z" fill="#FF8A14" />
  <path
    d="M33.7114 67.1761C33.7114 67.0269 33.6819 66.8791 33.6248 66.7413C33.5677 66.6034 33.4839 66.4782 33.3784 66.3727C33.2728 66.2672 33.1475 66.1836 33.0096 66.1266C32.8717 66.0696 32.7239 66.0403 32.5747 66.0404H20.377V68.8801H32.5747C32.876 68.8801 33.165 68.7605 33.3781 68.5475C33.5912 68.3346 33.7111 68.0457 33.7114 67.7444V67.1761Z"
    fill="#EB6D00"
  />
  <path
    fill-rule="evenodd"
    clip-rule="evenodd"
    d="M8.80664 66.0403C8.80664 65.7752 9.02154 65.5603 9.28664 65.5603H33.7119C33.977 65.5603 34.1919 65.7752 34.1919 66.0403V68.88C34.1919 69.1451 33.977 69.36 33.7119 69.36H9.28664C9.02154 69.36 8.80664 69.1451 8.80664 68.88V66.0403ZM9.76664 66.5203V68.4H33.2319V66.5203H9.76664Z"
    fill="#45413C"
  />
  <path d="M9.28613 57.5194H32.5748V60.3591H9.28613V57.5194Z" fill="#00DFEB" />
  <path
    d="M32.575 58.656C32.575 58.3548 32.4553 58.0658 32.2424 57.8527C32.0294 57.6395 31.7406 57.5197 31.4393 57.5194H18.9286L18.8431 58.6964C18.8004 59.2576 18.8629 59.8218 19.0274 60.3601H31.4393C31.7406 60.3598 32.0294 60.2399 32.2424 60.0268C32.4553 59.8137 32.575 59.5247 32.575 59.2234V58.656Z"
    fill="#00C9D4"
  />
  <path
    fill-rule="evenodd"
    clip-rule="evenodd"
    d="M8.80664 57.5194C8.80664 57.2543 9.02154 57.0394 9.28664 57.0394H32.5753C32.8404 57.0394 33.0553 57.2543 33.0553 57.5194V60.3591C33.0553 60.6242 32.8404 60.8391 32.5753 60.8391H9.28664C9.02154 60.8391 8.80664 60.6242 8.80664 60.3591V57.5194ZM9.76664 57.9994V59.8791H32.0953V57.9994H9.76664Z"
    fill="#45413C"
  />
  <path
    fill-rule="evenodd"
    clip-rule="evenodd"
    d="M11.5591 75.2161C11.8242 75.2161 12.0391 75.431 12.0391 75.6961V79.6724C12.0391 79.9375 11.8242 80.1524 11.5591 80.1524C11.294 80.1524 11.0791 79.9375 11.0791 79.6724V75.6961C11.0791 75.431 11.294 75.2161 11.5591 75.2161Z"
    fill="#45413C"
  />
  <path
    fill-rule="evenodd"
    clip-rule="evenodd"
    d="M14.3989 59.88C14.664 59.88 14.8789 60.0949 14.8789 60.36V66.0403C14.8789 66.3054 14.664 66.5203 14.3989 66.5203C14.1338 66.5203 13.9189 66.3054 13.9189 66.0403V60.36C13.9189 60.0949 14.1338 59.88 14.3989 59.88Z"
    fill="#45413C"
  />
  <path d="M28.0312 68.88H30.3036V72.8563H28.0312V68.88Z" fill="#FFF48C" />
  <path
    fill-rule="evenodd"
    clip-rule="evenodd"
    d="M27.5518 68.88C27.5518 68.6149 27.7667 68.4 28.0318 68.4H30.3041C30.5692 68.4 30.7841 68.6149 30.7841 68.88V72.8563C30.7841 73.1214 30.5692 73.3363 30.3041 73.3363H28.0318C27.7667 73.3363 27.5518 73.1214 27.5518 72.8563V68.88ZM28.5118 69.36V72.3763H29.8241V69.36H28.5118Z"
    fill="#45413C"
  />
  <path
    opacity="0.15"
    d="M26.7354 90.6048C26.7354 91.4068 28.8593 92.176 32.6401 92.7431C36.4208 93.3102 41.5486 93.6288 46.8954 93.6288C52.2421 93.6288 57.3699 93.3102 61.1506 92.7431C64.9314 92.176 67.0554 91.4068 67.0554 90.6048C67.0554 89.8028 64.9314 89.0336 61.1506 88.4665C57.3699 87.8994 52.2421 87.5808 46.8954 87.5808C41.5486 87.5808 36.4208 87.8994 32.6401 88.4665C28.8593 89.0336 26.7354 89.8028 26.7354 90.6048Z"
    fill="#45413C"
  />
  <path
    d="M46.8951 32.209C40.4103 32.209 35.8916 37.4611 35.8916 43.9459V52.1818C35.8916 52.7926 36.0823 53.3882 36.437 53.8856C36.7916 54.3829 37.2926 54.7572 37.8702 54.9562C40.7678 55.9742 43.8234 56.4686 46.8942 56.4163C49.9649 56.4686 53.0206 55.9742 55.9182 54.9562C56.4957 54.7572 56.9967 54.3829 57.3514 53.8856C57.706 53.3882 57.8967 52.7926 57.8967 52.1818V43.9459C57.8986 37.4611 53.3761 32.209 46.8951 32.209Z"
    fill="#614B44"
  />
  <path
    fill-rule="evenodd"
    clip-rule="evenodd"
    d="M35.4121 43.946C35.4121 37.2378 40.1059 31.729 46.8956 31.729C53.6814 31.729 58.3791 37.2376 58.3772 43.946C58.3772 43.946 58.3772 43.9459 58.3772 43.946V52.1818C58.3772 52.8926 58.1554 53.5856 57.7427 54.1643C57.3303 54.7426 56.7478 55.1779 56.0764 55.4095M37.7131 55.4096C37.0416 55.1779 36.4591 54.7426 36.0467 54.1643C35.634 53.5856 35.4122 52.8926 35.4121 52.1818V43.946M46.8956 32.689C40.7158 32.689 36.3721 37.6845 36.3721 43.946V52.1818C36.3721 52.1818 36.3721 52.1818 36.3721 52.1818C36.3721 52.6927 36.5316 53.1909 36.8283 53.6069C37.1249 54.0229 37.544 54.3359 38.0271 54.5024L38.0298 54.5033C40.8737 55.5025 43.8726 55.9878 46.8865 55.9364C46.8919 55.9363 46.8974 55.9363 46.9028 55.9364C49.9167 55.9878 52.9157 55.5025 55.7596 54.5033L55.7623 54.5024C56.2453 54.3359 56.6644 54.0229 56.9611 53.6069C57.2577 53.1909 57.4172 52.6927 57.4172 52.1818V43.946C57.4191 37.6848 53.0717 32.689 46.8956 32.689Z"
    fill="#45413C"
  />
  <path
    d="M57.8986 43.9459V44.6506C57.8986 44.6506 54.9649 35.1466 46.8951 35.1466C38.8254 35.1466 35.8916 44.6506 35.8916 44.6506V43.9459C35.8916 37.4611 40.4103 32.209 46.8951 32.209C53.3799 32.209 57.8986 37.4611 57.8986 43.9459Z"
    fill="white"
  />
  <path
    fill-rule="evenodd"
    clip-rule="evenodd"
    d="M36.5192 41.9777C36.8963 41.2525 37.3797 40.4343 37.9806 39.6148C39.7694 37.1752 42.6464 34.6666 46.8956 34.6666C51.1448 34.6666 54.0219 37.1752 55.8106 39.6148C56.4115 40.4343 56.8949 41.2525 57.2721 41.9777C56.4653 36.6695 52.412 32.689 46.8956 32.689C41.3793 32.689 37.3259 36.6695 36.5192 41.9777ZM57.4404 44.7919L57.4392 44.7881L57.4336 44.7706C57.4285 44.7546 57.4204 44.7299 57.4094 44.6972C57.3873 44.6316 57.3534 44.5339 57.3071 44.4085C57.2144 44.1577 57.0724 43.7968 56.877 43.3627C56.4855 42.493 55.8825 41.3362 55.0365 40.1824C53.3409 37.87 50.7162 35.6266 46.8956 35.6266C43.0751 35.6266 40.4503 37.87 38.7548 40.1824C37.9088 41.3362 37.3058 42.493 36.9143 43.3627C36.7188 43.7968 36.5768 44.1577 36.4842 44.4085C36.4379 44.5339 36.404 44.6316 36.3819 44.6972C36.3709 44.7299 36.3628 44.7546 36.3576 44.7706L36.352 44.7881L36.3509 44.7919C36.3508 44.7919 36.3509 44.7918 36.3509 44.7919C36.3509 44.7917 36.3508 44.7922 35.8921 44.6506M57.4404 44.7919C57.5105 45.0186 57.736 45.1606 57.9707 45.1252C58.2055 45.0898 58.3792 44.8881 58.3792 44.6506V43.946C58.3792 37.2378 53.6854 31.729 46.8956 31.729C40.1059 31.729 35.4121 37.2378 35.4121 43.946V44.6506C35.4121 44.8881 35.5857 45.0898 35.8205 45.1252C36.0552 45.1606 36.2807 45.0186 36.3509 44.7919"
    fill="#45413C"
  />
  <path
    d="M57.1657 47.6161C57.1636 48.0678 56.9921 48.5022 56.6851 48.8336C56.3781 49.1649 55.958 49.369 55.5078 49.4055C55.0979 51.3867 54.0175 53.1659 52.4487 54.4433C50.8799 55.7208 48.9187 56.4183 46.8956 56.4183C44.8725 56.4183 42.9113 55.7208 41.3425 54.4433C39.7737 53.1659 38.6933 51.3867 38.2835 49.4055C37.8475 49.3751 37.4377 49.1863 37.1312 48.8749C36.8246 48.5634 36.6424 48.1507 36.6188 47.7143C36.5952 47.278 36.7319 46.848 37.0031 46.5053C37.2743 46.1626 37.6613 45.9309 38.0915 45.8535V45.3841C40.7031 45.3129 43.2307 44.4458 45.3361 42.8988C47.4415 41.3519 49.0242 39.1988 49.8726 36.7278C50.0255 38.4567 50.6493 40.1106 51.6761 41.5099C52.7029 42.9093 54.0935 44.0005 55.6969 44.6651V45.8535C56.108 45.9316 56.4793 46.1501 56.7472 46.4716C57.0151 46.7931 57.163 47.1976 57.1657 47.6161Z"
    fill="#FFDA8F"
  />
  <path
    fill-rule="evenodd"
    clip-rule="evenodd"
    d="M49.9302 36.2512C50.1551 36.2786 50.3303 36.4597 50.3502 36.6854C50.4955 38.3269 51.0877 39.8973 52.0626 41.2259C53.0376 42.5545 54.3579 43.5906 55.8802 44.2216C56.0595 44.2959 56.1764 44.4709 56.1764 44.665V45.4927C56.5397 45.6317 56.8636 45.862 57.1155 46.1642C57.4546 46.5712 57.6419 47.0833 57.6452 47.613L57.1652 47.616L57.6452 47.6183C57.6425 48.1902 57.4254 48.7402 57.0367 49.1597C56.7309 49.4898 56.3364 49.7201 55.9045 49.8259C55.4256 51.7851 54.32 53.5382 52.7513 54.8155C51.0969 56.1626 49.0287 56.8982 46.8951 56.8982C44.7616 56.8982 42.6934 56.1626 41.039 54.8155C39.4712 53.5389 38.366 51.7871 37.8867 49.8292C37.4721 49.7315 37.0908 49.5185 36.7886 49.2115C36.4 48.8167 36.169 48.2934 36.1391 47.7402C36.1092 47.1869 36.2824 46.6418 36.6262 46.2074C36.8846 45.8809 37.2259 45.6338 37.611 45.4896V45.384C37.611 45.124 37.818 44.9113 38.0779 44.9042C40.5918 44.8357 43.0248 44.001 45.0514 42.512C47.078 41.0229 48.6015 38.9504 49.4181 36.5718C49.4917 36.3575 49.7052 36.2238 49.9302 36.2512ZM56.6852 47.6164C56.6826 47.3101 56.5741 47.0141 56.378 46.7788C56.1813 46.5428 55.9087 46.3824 55.6069 46.325C55.3804 46.282 55.2164 46.084 55.2164 45.8535V44.98C53.6569 44.2736 52.3036 43.177 51.2887 41.7938C50.5442 40.7793 50.0014 39.6374 49.6837 38.4302C48.7432 40.3447 47.352 42.0129 45.6199 43.2856C43.5614 44.7981 41.1139 45.6841 38.571 45.8429V45.8535C38.571 46.0858 38.4046 46.2848 38.1759 46.3259C37.861 46.3825 37.5776 46.5522 37.379 46.8031C37.1804 47.054 37.0804 47.3688 37.0977 47.6883C37.1149 48.0079 37.2483 48.31 37.4728 48.5381C37.6973 48.7661 37.9973 48.9043 38.3165 48.9266C38.5311 48.9416 38.7094 49.0976 38.753 49.3082C39.1406 51.1812 40.162 52.8633 41.6451 54.071C43.1283 55.2787 44.9825 55.9382 46.8951 55.9382C48.8078 55.9382 50.662 55.2787 52.1452 54.071C53.6283 52.8633 54.6497 51.1812 55.0373 49.3082C55.0804 49.0995 55.2561 48.9443 55.4685 48.927C55.7989 48.9002 56.1072 48.7504 56.3325 48.5073C56.5572 48.2647 56.683 47.9469 56.6852 47.6164Z"
    fill="#45413C"
  />
  <path
    d="M41.0273 48.7133C41.0273 49.0051 41.1433 49.2849 41.3496 49.4913C41.5559 49.6976 41.8357 49.8135 42.1275 49.8135C42.4193 49.8135 42.6991 49.6976 42.9054 49.4913C43.1118 49.2849 43.2277 49.0051 43.2277 48.7133C43.2277 48.4215 43.1118 48.1417 42.9054 47.9354C42.6991 47.7291 42.4193 47.6132 42.1275 47.6132C41.8357 47.6132 41.5559 47.7291 41.3496 47.9354C41.1433 48.1417 41.0273 48.4215 41.0273 48.7133Z"
    fill="#FFBE3D"
  />
  <path
    d="M50.5635 48.7133C50.5635 49.0051 50.6794 49.2849 50.8857 49.4913C51.092 49.6976 51.3719 49.8135 51.6636 49.8135C51.9554 49.8135 52.2352 49.6976 52.4416 49.4913C52.6479 49.2849 52.7638 49.0051 52.7638 48.7133C52.7638 48.4215 52.6479 48.1417 52.4416 47.9354C52.2352 47.7291 51.9554 47.6132 51.6636 47.6132C51.3719 47.6132 51.092 47.7291 50.8857 47.9354C50.6794 48.1417 50.5635 48.4215 50.5635 48.7133Z"
    fill="#FFBE3D"
  />
  <path
    fill-rule="evenodd"
    clip-rule="evenodd"
    d="M49.3184 45.4322C49.5281 45.3453 49.7529 45.3005 49.9799 45.3005C50.2069 45.3005 50.4317 45.3453 50.6414 45.4322C50.8511 45.5191 51.0417 45.6464 51.2021 45.807C51.3895 45.9945 51.3895 46.2984 51.2019 46.4858C51.0144 46.6732 50.7105 46.6731 50.5231 46.4856C50.4518 46.4143 50.3671 46.3577 50.2739 46.319C50.1807 46.2804 50.0808 46.2605 49.9799 46.2605C49.879 46.2605 49.7791 46.2804 49.6859 46.319C49.5927 46.3577 49.508 46.4143 49.4367 46.4856C49.2493 46.6731 48.9454 46.6732 48.7579 46.4858C48.5704 46.2984 48.5703 45.9945 48.7577 45.807C48.9182 45.6464 49.1087 45.5191 49.3184 45.4322Z"
    fill="#45413C"
  />
  <path
    fill-rule="evenodd"
    clip-rule="evenodd"
    d="M43.8119 46.2605C43.7111 46.2605 43.6111 46.2804 43.5179 46.319C43.4247 46.3577 43.34 46.4143 43.2687 46.4856C43.0813 46.6731 42.7774 46.6732 42.5899 46.4858C42.4024 46.2984 42.4023 45.9945 42.5897 45.807C42.7502 45.6464 42.9407 45.5191 43.1504 45.4322C43.3601 45.3453 43.5849 45.3005 43.8119 45.3005C44.039 45.3005 44.2637 45.3453 44.4734 45.4322C44.6832 45.5191 44.8737 45.6464 45.0342 45.807C45.2216 45.9945 45.2215 46.2984 45.034 46.4858C44.8465 46.6732 44.5426 46.6731 44.3552 46.4856C44.2838 46.4143 44.1991 46.3577 44.1059 46.319C44.0127 46.2804 43.9128 46.2605 43.8119 46.2605Z"
    fill="#45413C"
  />
  <path
    fill-rule="evenodd"
    clip-rule="evenodd"
    d="M44.3108 50.9934C44.4698 50.7813 44.7707 50.7382 44.9828 50.8972C45.5347 51.311 46.2059 51.5346 46.8957 51.5346C47.5855 51.5346 48.2566 51.311 48.8086 50.8972C49.0207 50.7382 49.3215 50.7813 49.4805 50.9934C49.6395 51.2055 49.5965 51.5064 49.3844 51.6654C48.6663 52.2036 47.7931 52.4946 46.8957 52.4946C45.9982 52.4946 45.125 52.2036 44.407 51.6654C44.1948 51.5064 44.1518 51.2055 44.3108 50.9934Z"
    fill="#45413C"
  />
  <path d="M44.6221 56.8993H49.1696V79.635H44.6221V56.8993Z" fill="#E04122" />
  <path
    fill-rule="evenodd"
    clip-rule="evenodd"
    d="M44.1426 56.8992C44.1426 56.6341 44.3575 56.4192 44.6226 56.4192H49.1701C49.4352 56.4192 49.6501 56.6341 49.6501 56.8992V79.6349C49.6501 79.9 49.4352 80.1149 49.1701 80.1149H44.6226C44.3575 80.1149 44.1426 79.9 44.1426 79.6349V56.8992ZM45.1026 57.3792V79.1549H48.6901V57.3792H45.1026Z"
    fill="#45413C"
  />
  <path
    d="M23.6164 53.1486C23.4778 53.3808 23.4042 53.6461 23.4033 53.9166V74.5767C23.4035 74.9323 23.5286 75.2766 23.7566 75.5494C23.9847 75.8222 24.3014 76.0063 24.6513 76.0695L44.6193 79.635V56.8993L23.6164 53.1486Z"
    fill="#FF6242"
  />
  <path
    fill-rule="evenodd"
    clip-rule="evenodd"
    d="M23.2048 52.9025C23.3071 52.7311 23.5048 52.6409 23.7013 52.676L44.7042 56.4267C44.9331 56.4676 45.0998 56.6667 45.0998 56.8992V79.6349C45.0998 79.7769 45.0369 79.9117 44.928 80.0029C44.819 80.0941 44.6753 80.1324 44.5354 80.1074L24.5665 76.5418C24.1059 76.4586 23.6891 76.2163 23.3889 75.8572C23.0887 75.4981 22.9241 75.045 22.9238 74.5769L22.9238 53.9149C22.925 53.5583 23.022 53.2087 23.2048 52.9025ZM23.9105 53.6885C23.8932 53.7632 23.8841 53.84 23.8838 53.9173V74.5766C23.884 74.8197 23.9695 75.055 24.1254 75.2415C24.2814 75.428 24.4979 75.5539 24.7371 75.5971L44.1398 79.0616V57.3011L23.9105 53.6885Z"
    fill="#45413C"
  />
  <path
    d="M38.5593 64.9085C38.5592 65.1324 38.5096 65.3534 38.414 65.5558C38.3183 65.7583 38.1791 65.937 38.0061 66.0791C37.8332 66.2213 37.6309 66.3234 37.4139 66.3781C37.1968 66.4328 36.9703 66.4388 36.7506 66.3955L30.9906 65.2599C30.6461 65.1922 30.3358 65.0068 30.1129 64.7355C29.8899 64.4643 29.7682 64.1239 29.7686 63.7728V61.0167C29.7684 60.7927 29.8179 60.5716 29.9135 60.3691C30.0091 60.1666 30.1484 59.9878 30.3214 59.8456C30.4943 59.7034 30.6967 59.6013 30.9138 59.5466C31.131 59.492 31.3575 59.4862 31.5772 59.5296L37.3372 60.6643C37.6816 60.7324 37.9917 60.9178 38.2145 61.189C38.4374 61.4602 38.5593 61.8003 38.5593 62.1514V64.9085Z"
    fill="#E04122"
  />
  <path
    fill-rule="evenodd"
    clip-rule="evenodd"
    d="M31.4836 60.0005C31.3336 59.9709 31.1788 59.9748 31.0305 60.0122C30.8821 60.0495 30.7439 60.1192 30.6257 60.2164C30.5076 60.3135 30.4124 60.4357 30.3471 60.574C30.2818 60.7123 30.248 60.8634 30.2481 61.0164L30.2481 63.7728C30.2478 64.0126 30.331 64.2455 30.4832 64.4308C30.6355 64.6161 30.8474 64.7426 31.0827 64.7889L36.8429 65.9246C36.8429 65.9246 36.8428 65.9246 36.8429 65.9246C36.9929 65.9541 37.1478 65.9501 37.2961 65.9127C37.4444 65.8753 37.5827 65.8055 37.7008 65.7084C37.819 65.6112 37.9142 65.4891 37.9795 65.3508C38.0449 65.2125 38.0788 65.0615 38.0788 64.9085M31.6695 59.0587C31.3803 59.0016 31.0821 59.0092 30.7962 59.0812C30.5103 59.1531 30.2438 59.2876 30.016 59.4748C29.7883 59.6621 29.6048 59.8975 29.479 60.1642C29.3531 60.4308 29.288 60.7219 29.2881 61.0167C29.2881 61.0166 29.2881 61.0167 29.2881 61.0167V63.7726M31.6695 59.0587L37.4295 60.1934C37.8829 60.283 38.2915 60.5272 38.5849 60.8843C38.8784 61.2413 39.0388 61.6892 39.0388 62.1514V64.9085C39.0388 65.2033 38.9734 65.4944 38.8475 65.7609C38.7216 66.0274 38.5382 66.2627 38.3105 66.4499C38.0828 66.6371 37.8165 66.7716 37.5307 66.8436C37.2449 66.9156 36.9467 66.9234 36.6575 66.8665L30.8976 65.7309M31.4836 60.0005L37.2437 61.1353L31.4836 60.0005ZM37.2437 61.1353C37.4789 61.1818 37.691 61.3085 37.8432 61.4938C37.9955 61.6791 38.0788 61.9115 38.0788 62.1514C38.0788 62.1514 38.0788 62.1514 38.0788 62.1514V64.9085"
    fill="#45413C"
  />
  <path
    d="M24.7799 55.3325C25.1274 55.3577 25.4665 55.4511 25.7778 55.6073C26.0892 55.7636 26.3667 55.9796 26.5945 56.2431C26.8224 56.5067 26.9961 56.8125 27.1058 57.1431C27.2154 57.4738 27.2589 57.8228 27.2337 58.1702C27.2085 58.5177 27.1151 58.8567 26.9588 59.1681C26.8026 59.4794 26.5865 59.757 26.323 59.9848C26.0595 60.2127 25.7537 60.3864 25.423 60.4961C25.0924 60.6057 24.7434 60.6492 24.3959 60.624L23.2622 60.5405C23.0636 60.526 22.8699 60.4725 22.6921 60.3831C22.5142 60.2938 22.3557 60.1702 22.2256 60.0195C22.0955 59.8689 21.9964 59.694 21.934 59.505C21.8715 59.316 21.8469 59.1166 21.8615 58.9181L22.0267 56.6505C22.0561 56.2497 22.2436 55.8769 22.5478 55.6143C22.8521 55.3516 23.2482 55.2206 23.6491 55.2499L24.7799 55.3325Z"
    fill="#FFDA8F"
  />
  <path
    fill-rule="evenodd"
    clip-rule="evenodd"
    d="M23.614 55.7286C23.3401 55.7086 23.0694 55.7982 22.8615 55.9776C22.6536 56.1571 22.5255 56.4117 22.5054 56.6856C22.5053 56.6856 22.5054 56.6855 22.5054 56.6856L22.3402 58.9529C22.3302 59.0886 22.347 59.2253 22.3897 59.3544C22.4324 59.4835 22.5001 59.6029 22.5889 59.7059C22.6778 59.8088 22.7861 59.8932 22.9076 59.9543C23.0291 60.0153 23.1614 60.0519 23.297 60.0617L24.4307 60.1453C24.4307 60.1453 24.4306 60.1453 24.4307 60.1453C24.7151 60.1659 25.0012 60.1303 25.2719 60.0405C25.5427 59.9507 25.7932 59.8084 26.009 59.6217C26.2249 59.4351 26.4018 59.2078 26.5298 58.9528C26.6578 58.6978 26.7343 58.4201 26.7549 58.1355C26.7756 57.8509 26.74 57.5651 26.6502 57.2942C26.5603 57.0234 26.418 56.773 26.2314 56.5571C26.0448 56.3413 25.8175 56.1643 25.5625 56.0364C25.3075 55.9084 25.0297 55.8319 24.7452 55.8112L23.614 55.7286ZM23.684 54.7712C23.1562 54.7326 22.6347 54.9052 22.2341 55.251C21.8336 55.5968 21.5867 56.0876 21.5479 56.6154L21.3828 58.8827C21.3828 58.8827 21.3828 58.8828 21.3828 58.8827"
    fill="#45413C"
  />
  <path
    d="M23.6162 53.1486L44.622 56.8993H46.8952C46.1807 55.7085 45.2202 54.684 44.0778 53.8943C42.9355 53.1046 41.6377 52.5679 40.2712 52.3201L28.5506 50.188C28.1646 50.1181 27.7666 50.2004 27.4399 50.4174L24.0799 52.66C23.8905 52.7858 23.732 52.9528 23.6162 53.1486Z"
    fill="white"
  />
  <path
    fill-rule="evenodd"
    clip-rule="evenodd"
    d="M27.1744 50.0175C27.6044 49.7318 28.1282 49.6236 28.6361 49.7155L40.357 51.8477C41.7907 52.1077 43.1523 52.6708 44.3509 53.4993C45.5494 54.3279 46.5573 55.4028 47.3069 56.6523C47.3959 56.8005 47.3982 56.9852 47.313 57.1357C47.2278 57.2862 47.0683 57.3792 46.8953 57.3792H44.6221C44.5938 57.3792 44.5655 57.3767 44.5377 57.3717L23.5319 53.621L23.6163 53.1485L23.2031 52.9042C23.3556 52.6463 23.5644 52.4262 23.8139 52.2604C23.814 52.2603 23.8137 52.2605 23.8139 52.2604L27.1735 50.0181L27.1744 50.0175ZM24.663 52.8478L44.6646 56.4192H45.9996C45.3922 55.5942 44.651 54.8739 43.805 54.289C42.7188 53.5382 41.4849 53.0279 40.1857 52.7923L28.4653 50.6602C28.4652 50.6602 28.4653 50.6602 28.4653 50.6602C28.2015 50.6125 27.9293 50.6687 27.706 50.8169C27.7058 50.8169 27.7061 50.8168 27.706 50.8169L24.663 52.8478Z"
    fill="#45413C"
  />
  <path
    d="M70.1767 53.1486C70.3153 53.3808 70.3889 53.6461 70.3898 53.9166V74.5767C70.3898 74.9324 70.2648 75.2767 70.0367 75.5496C69.8086 75.8225 69.4919 76.0065 69.1418 76.0695L49.1738 79.635V56.8993L70.1767 53.1486Z"
    fill="#FF6242"
  />
  <path
    fill-rule="evenodd"
    clip-rule="evenodd"
    d="M70.0919 52.676C70.2884 52.6409 70.4861 52.7311 70.5884 52.9025C70.7711 53.2087 70.8682 53.5583 70.8694 53.9149L70.8694 53.9165L70.8694 74.5766C70.8694 75.0448 70.7048 75.4982 70.4045 75.8574C70.1042 76.2166 69.6872 76.4589 69.2264 76.5418L49.2577 80.1074C49.1179 80.1324 48.9741 80.0941 48.8652 80.0029C48.7563 79.9117 48.6934 79.7769 48.6934 79.6349V56.8992C48.6934 56.6667 48.8601 56.4676 49.089 56.4267L70.0919 52.676ZM49.6534 57.3011V79.0616L69.0563 75.597C69.2956 75.5539 69.5121 75.4282 69.668 75.2416C69.8239 75.0551 69.9094 74.8198 69.9094 74.5766V53.9173C69.909 53.84 69.9 53.7632 69.8826 53.6885L49.6534 57.3011Z"
    fill="#45413C"
  />
  <path
    d="M69.0105 55.3325C68.6631 55.3577 68.324 55.4511 68.0126 55.6073C67.7013 55.7636 67.4238 55.9796 67.1959 56.2431C66.9681 56.5067 66.7943 56.8125 66.6847 57.1431C66.575 57.4738 66.5315 57.8228 66.5568 58.1702C66.582 58.5177 66.6754 58.8567 66.8316 59.1681C66.9879 59.4794 67.2039 59.757 67.4674 59.9848C67.731 60.2127 68.0368 60.3864 68.3674 60.4961C68.6981 60.6057 69.0471 60.6492 69.3945 60.624L70.5283 60.5405C70.7269 60.5261 70.9207 60.4727 71.0987 60.3834C71.2767 60.2941 71.4353 60.1705 71.5655 60.0198C71.6956 59.8692 71.7948 59.6943 71.8574 59.5052C71.9199 59.3162 71.9445 59.1166 71.9299 58.9181L71.7638 56.6505C71.7343 56.2497 71.5469 55.8769 71.2426 55.6143C70.9384 55.3516 70.5423 55.2206 70.1414 55.2499L69.0105 55.3325Z"
    fill="#FFDA8F"
  />
  <path
    fill-rule="evenodd"
    clip-rule="evenodd"
    d="M70.107 54.7712C70.6347 54.7326 71.1562 54.9052 71.5568 55.251C71.9574 55.5968 72.2042 56.0876 72.243 56.6154L72.4091 58.8828C72.4284 59.1443 72.3959 59.407 72.3136 59.656C72.2312 59.9049 72.1006 60.1352 71.9292 60.3337C71.7578 60.5321 71.5489 60.6948 71.3145 60.8124C71.0803 60.93 70.8252 61.0003 70.5638 61.0192C70.5636 61.0192 70.5639 61.0192 70.5638 61.0192L69.4303 61.1027C69.02 61.1325 68.6073 61.0812 68.2168 60.9517C67.8263 60.8222 67.4652 60.617 67.154 60.3479C66.8428 60.0788 66.5877 59.7511 66.4031 59.3834C66.2186 59.0157 66.1083 58.6153 66.0785 58.205C66.0488 57.7947 66.1001 57.3825 66.2296 56.992C66.3591 56.6015 66.5643 56.2404 66.8333 55.9292C67.1024 55.618 67.4302 55.3629 67.7979 55.1783C68.1655 54.9938 68.5658 54.8836 68.9761 54.8538L70.107 54.7712C70.1069 54.7712 70.107 54.7712 70.107 54.7712ZM70.9295 55.9776C70.7216 55.7982 70.4509 55.7086 70.177 55.7286L69.046 55.8112C68.7614 55.8319 68.4835 55.9084 68.2285 56.0364C67.9734 56.1643 67.7461 56.3413 67.5595 56.5571C67.3729 56.7729 67.2306 57.0234 67.1408 57.2942C67.051 57.5651 67.0154 57.8509 67.036 58.1355C67.0567 58.4201 67.1332 58.6978 67.2611 58.9528C67.3891 59.2078 67.5661 59.4351 67.7819 59.6217C67.9977 59.8084 68.2482 59.9507 68.519 60.0405C68.7898 60.1303 69.0756 60.1659 69.36 60.1453C69.3601 60.1453 69.36 60.1453 69.36 60.1453L70.4935 60.0618C70.6292 60.052 70.7623 60.0155 70.8839 59.9544C71.0055 59.8934 71.1138 59.809 71.2027 59.7061C71.2917 59.6031 71.3594 59.4837 71.4021 59.3545C71.4449 59.2254 71.4617 59.089 71.4517 58.9534L71.2856 56.6858C71.2655 56.4118 71.1374 56.1571 70.9295 55.9776Z"
    fill="#45413C"
  />
  <path
    d="M70.1765 53.1485L49.1688 56.8992H46.8955C47.61 55.7084 48.5706 54.6839 49.7129 53.8942C50.8553 53.1045 52.1531 52.5678 53.5195 52.32L65.243 50.1879C65.629 50.118 66.0271 50.2002 66.3538 50.4173L69.7138 52.6599C69.9029 52.7858 70.0611 52.9528 70.1765 53.1485Z"
    fill="white"
  />
  <path
    fill-rule="evenodd"
    clip-rule="evenodd"
    d="M65.3281 50.6602C65.3281 50.6602 65.3281 50.6602 65.3281 50.6602L53.6049 52.7923C52.3057 53.0279 51.0715 53.5382 49.9854 54.289C49.1394 54.8739 48.3982 55.5942 47.7908 56.4192H49.1258L69.13 52.8477L66.0876 50.8171C66.0874 50.8169 66.0877 50.8172 66.0876 50.8171C65.8643 50.6688 65.5918 50.6124 65.3281 50.6602ZM70.176 53.1485L70.2604 53.621L49.2527 57.3718C49.2248 57.3767 49.1966 57.3792 49.1683 57.3792H46.895C46.7221 57.3792 46.5625 57.2862 46.4773 57.1357C46.3921 56.9852 46.3945 56.8005 46.4834 56.6523C47.2331 55.4028 48.2409 54.3279 49.4395 53.4993C50.638 52.6708 51.9996 52.1078 53.4332 51.8478C53.4332 51.8478 53.4331 51.8478 53.4332 51.8478L65.1567 49.7156C65.6647 49.6236 66.189 49.7317 66.619 50.0176L66.6197 50.0181L69.9792 52.2603C70.2287 52.4263 70.4373 52.6466 70.5895 52.9047L70.176 53.1485Z"
    fill="#45413C"
  />
  <path
    d="M60.8843 84.6576L58.9643 90.528C58.9003 90.724 58.7982 90.9055 58.664 91.0621C58.5298 91.2186 58.3661 91.3472 58.1821 91.4405C57.9982 91.5337 57.7977 91.5898 57.5921 91.6055C57.3865 91.6213 57.1798 91.5963 56.9838 91.5322L32.0642 83.3856C31.5105 83.2047 30.9979 82.9164 30.5557 82.5374C30.1134 82.1583 29.7502 81.6958 29.4867 81.1764C29.2232 80.657 29.0646 80.0907 29.0199 79.5099C28.9752 78.9292 29.0454 78.3453 29.2264 77.7917L29.3646 77.3674C29.7303 76.2494 30.5251 75.3225 31.5741 74.7905C32.6232 74.2585 33.8406 74.165 34.9586 74.5306L59.8792 82.6771C60.2751 82.8065 60.6034 83.0878 60.7919 83.4592C60.9804 83.8306 61.0136 84.2617 60.8843 84.6576Z"
    fill="#00B8F0"
  />
  <path
    d="M33.7923 83.9491C32.9671 83.3825 32.3472 82.5643 32.0251 81.6166C31.7029 80.6688 31.6958 79.6424 32.0048 78.6903C32.3918 77.4925 33.2285 76.4916 34.3386 75.8984C35.4488 75.3051 36.7459 75.1658 37.9568 75.5098L34.9596 74.5306C33.8416 74.165 32.6242 74.2585 31.5752 74.7905C30.5261 75.3225 29.7314 76.2494 29.3657 77.3674L29.2275 77.7917C28.8619 78.9097 28.9554 80.1271 29.4874 81.1761C30.0194 82.2252 30.9463 83.02 32.0643 83.3856L34.0966 84.0499"
    fill="#4ACFFF"
  />
  <path
    fill-rule="evenodd"
    clip-rule="evenodd"
    d="M34.8099 74.9868C33.8129 74.6608 32.7272 74.7442 31.7917 75.2186C30.8563 75.693 30.1475 76.5195 29.8214 77.5164C29.8214 77.5165 29.8215 77.5163 29.8214 77.5164L29.6833 77.9404C29.5219 78.4341 29.4592 78.9552 29.499 79.4731C29.5388 79.991 29.6803 80.496 29.9153 80.9593C30.1503 81.4225 30.4742 81.8349 30.8686 82.1729C31.263 82.511 31.7201 82.768 32.2138 82.9294L57.1335 91.0759C57.2695 91.1205 57.4133 91.1379 57.556 91.127C57.6987 91.116 57.8379 91.0771 57.9656 91.0124C58.0933 90.9476 58.2069 90.8584 58.3001 90.7497C58.3933 90.641 58.4641 90.515 58.5086 90.3789L60.4285 84.5086C60.5183 84.2337 60.4952 83.9344 60.3644 83.6765C60.2335 83.4186 60.0055 83.2232 59.7306 83.1334L34.8099 74.9868ZM61.341 84.8068L59.4211 90.6771C59.3375 90.9331 59.2042 91.17 59.029 91.3745C58.8537 91.5789 58.6399 91.7468 58.3997 91.8686C58.1596 91.9904 57.8977 92.0636 57.6293 92.0842C57.3608 92.1047 57.0909 92.0721 56.835 91.9883L31.9155 83.8419C31.302 83.6413 30.7339 83.3219 30.2438 82.9018C29.7537 82.4817 29.3511 81.9692 29.0591 81.3936C28.7671 80.8179 28.5913 80.1904 28.5418 79.5468C28.4923 78.9032 28.5701 78.2563 28.7706 77.6428C28.7706 77.6427 28.7706 77.6429 28.7706 77.6428L28.9088 77.2187C29.314 75.9798 30.1949 74.952 31.3575 74.3624C32.5201 73.7728 33.8693 73.6692 35.1083 74.0744L60.0288 82.2209C60.0288 82.2209 60.0288 82.2209 60.0288 82.2209C60.5457 82.3898 60.9743 82.7571 61.2204 83.242C61.4665 83.7269 61.5099 84.2899 61.341 84.8068Z"
    fill="#45413C"
  />
  <path
    d="M58.9263 93.0413C59.1396 93.3085 59.4212 93.513 59.7413 93.6332C60.0614 93.7533 60.408 93.7847 60.7444 93.7239C61.0809 93.6631 61.3946 93.5124 61.6523 93.2877C61.9101 93.0631 62.1023 92.773 62.2085 92.448L64.6335 85.0301C64.7349 84.7203 64.7548 84.3897 64.6912 84.07C64.6276 83.7503 64.4826 83.4525 64.2703 83.2052C64.058 82.9578 63.7856 82.7694 63.4792 82.6581C63.1729 82.5468 62.843 82.5163 62.5215 82.5696C58.0805 83.2925 56.2287 89.6717 58.9263 93.0413Z"
    fill="#DEBB7E"
  />
  <path
    fill-rule="evenodd"
    clip-rule="evenodd"
    d="M62.4439 82.096C62.8467 82.0293 63.2598 82.0675 63.6434 82.207C64.0273 82.3465 64.3687 82.5826 64.6348 82.8925C64.9008 83.2025 65.0825 83.5757 65.1622 83.9763C65.2419 84.3769 65.217 84.7911 65.09 85.1792C65.0899 85.1793 65.09 85.1792 65.09 85.1792L62.665 92.5972C62.5318 93.0044 62.291 93.3681 61.9679 93.6496C61.6449 93.9311 61.2517 94.12 60.83 94.1962C60.4084 94.2725 59.9739 94.2332 59.5728 94.0826C59.1718 93.932 58.8189 93.6758 58.5516 93.341C57.0781 91.5002 56.8731 88.8843 57.5904 86.6653C58.3087 84.4432 59.9952 82.4949 62.4439 82.096ZM63.3155 83.1092C63.0867 83.0261 62.8404 83.0033 62.6003 83.0432L62.5989 83.0434C60.607 83.3676 59.1473 84.9702 58.5039 86.9606C57.8595 88.9542 58.0774 91.2126 59.3012 92.7413C59.4605 92.9408 59.6712 93.0941 59.9102 93.1838C60.1492 93.2736 60.4081 93.297 60.6593 93.2515C60.9105 93.2061 61.1447 93.0936 61.3372 92.9259C61.5297 92.7582 61.6732 92.5415 61.7525 92.2988L64.1775 84.881C64.2532 84.6496 64.2682 84.4024 64.2206 84.1637C64.1731 83.925 64.0649 83.7025 63.9063 83.5178C63.7478 83.3331 63.5443 83.1924 63.3155 83.1092Z"
    fill="#45413C"
  />
  <path
    d="M32.9068 84.4339L34.8268 90.3043C34.8909 90.5003 34.9929 90.6818 35.1271 90.8384C35.2613 90.9949 35.4251 91.1235 35.609 91.2168C35.7929 91.31 35.9934 91.3661 36.199 91.3819C36.4046 91.3976 36.6113 91.3727 36.8073 91.3085L61.7289 83.1619C62.8465 82.7959 63.773 82.0009 64.3046 80.9519C64.8362 79.9029 64.9294 78.6857 64.5638 77.568L64.4255 77.1446C64.2448 76.5908 63.9567 76.078 63.5777 75.6355C63.1988 75.193 62.7364 74.8295 62.2169 74.5657C61.6975 74.302 61.1311 74.1431 60.5503 74.0982C59.9694 74.0533 59.3854 74.1232 58.8316 74.304L33.911 82.4534C33.5152 82.583 33.1872 82.8644 32.9989 83.2358C32.8106 83.6072 32.7775 84.0381 32.9068 84.4339Z"
    fill="#00B8F0"
  />
  <path
    d="M60.0004 83.7264C60.8257 83.1596 61.4456 82.3413 61.7677 81.3934C62.0899 80.4455 62.097 79.4188 61.7879 78.4666C61.4009 77.2688 60.5642 76.268 59.454 75.675C58.3437 75.0819 57.0467 74.9428 55.8359 75.2871L58.8311 74.304C59.9493 73.9388 61.1667 74.0325 62.2157 74.5647C63.2647 75.0968 64.0594 76.0238 64.4251 77.1418L64.5633 77.5651C64.7448 78.1188 64.8154 78.7027 64.7712 79.2837C64.7269 79.8646 64.5687 80.4311 64.3054 80.9509C64.0421 81.4706 63.679 81.9334 63.2369 82.3128C62.7947 82.6922 62.2821 82.9807 61.7284 83.162L59.6951 83.8263"
    fill="#4ACFFF"
  />
  <path
    fill-rule="evenodd"
    clip-rule="evenodd"
    d="M58.6822 73.8477C59.2959 73.6474 59.9431 73.5698 60.5868 73.6196C61.2305 73.6694 61.8581 73.8455 62.4337 74.1378C63.0094 74.4301 63.5218 74.8329 63.9418 75.3233C64.3617 75.8137 64.681 76.3819 64.8813 76.9957C64.8813 76.9957 64.8813 76.9956 64.8813 76.9957L65.0195 77.4188C65.4247 78.6575 65.3214 80.0064 64.7323 81.1689C64.1431 82.3315 63.1164 83.2124 61.8778 83.6181L36.9562 91.7646C36.7003 91.8484 36.4304 91.881 36.1619 91.8605C35.8934 91.8399 35.6316 91.7667 35.3914 91.6449C35.1513 91.5231 34.9374 91.3552 34.7622 91.1508C34.587 90.9464 34.4537 90.7094 34.3701 90.4535C34.3701 90.4535 34.3701 90.4536 34.3701 90.4535L32.4501 84.5831C32.2812 84.0664 32.3244 83.5036 32.5703 83.0187C32.8161 82.5338 33.2445 82.1664 33.7611 81.9973L58.6822 73.8477ZM58.9801 74.7603C58.98 74.7603 58.9802 74.7603 58.9801 74.7603L34.0598 82.9096C33.7851 82.9996 33.5572 83.195 33.4265 83.4529C33.2958 83.7107 33.2728 84.0099 33.3625 84.2847C33.3625 84.2848 33.3625 84.2847 33.3625 84.2847L35.2825 90.1551C35.327 90.2912 35.3979 90.4173 35.491 90.526C35.5842 90.6347 35.6979 90.7239 35.8256 90.7887C35.9532 90.8534 36.0924 90.8923 36.2351 90.9033C36.3779 90.9142 36.5214 90.8969 36.6574 90.8523L61.579 82.7058C61.5791 82.7057 61.5789 82.7058 61.579 82.7058C62.5755 82.3793 63.4019 81.6704 63.8759 80.735C64.35 79.7995 64.4332 78.714 64.1071 77.7173L63.9687 77.2936C63.8075 76.7997 63.5506 76.3424 63.2127 75.9478C62.8747 75.5531 62.4623 75.229 61.9991 74.9937C61.5358 74.7585 61.0308 74.6168 60.5128 74.5768C59.9949 74.5367 59.4739 74.5991 58.9801 74.7603Z"
    fill="#45413C"
  />
  <path
    d="M34.8646 92.8177C34.6509 93.0846 34.3691 93.2887 34.0489 93.4085C33.7287 93.5282 33.3821 93.5591 33.0458 93.4979C32.7095 93.4367 32.396 93.2857 32.1385 93.0608C31.881 92.8359 31.6892 92.5456 31.5833 92.2206L29.1583 84.8017C29.0572 84.4924 29.0374 84.1623 29.1008 83.8431C29.1642 83.5239 29.3087 83.2264 29.5204 82.9792C29.7321 82.7321 30.0038 82.5435 30.3094 82.4318C30.6151 82.3201 30.9443 82.2889 31.2655 82.3412C35.7122 83.0689 37.5622 89.4491 34.8646 92.8177Z"
    fill="#DEBB7E"
  />
  <path
    fill-rule="evenodd"
    clip-rule="evenodd"
    d="M31.1885 82.8148C30.9487 82.7758 30.7029 82.7991 30.4748 82.8825C30.2465 82.966 30.0436 83.1068 29.8855 83.2913C29.7274 83.4759 29.6195 83.6981 29.5721 83.9365C29.5247 84.1749 29.5395 84.4214 29.6151 84.6524L32.04 92.0714C32.1191 92.314 32.2625 92.5313 32.4548 92.6992C32.647 92.8671 32.8811 92.9799 33.1323 93.0256C33.3834 93.0713 33.6422 93.0482 33.8813 92.9588C34.1204 92.8694 34.3308 92.7169 34.4903 92.5176C35.7142 90.9894 35.9326 88.7309 35.2879 86.7366C34.6444 84.7457 33.1835 83.1414 31.1885 82.8148ZM30.1451 81.9809C30.5282 81.8409 30.9408 81.8018 31.3433 81.8674C33.7948 82.2686 35.4828 84.2182 36.2014 86.4414C36.919 88.6612 36.7135 91.2772 35.2398 93.1175M30.1451 81.9809C29.7621 82.1209 29.4216 82.3571 29.1563 82.6669L30.1451 81.9809ZM29.1563 82.6669C28.8911 82.9766 28.71 83.3495 28.6305 83.7494L29.1563 82.6669ZM28.6305 83.7494C28.551 84.1494 28.5759 84.5631 28.7026 84.9507L28.6305 83.7494ZM28.7026 84.9507C28.7026 84.9507 28.7026 84.9507 28.7026 84.9507V84.9507ZM28.7026 84.9507L31.1274 92.3692C31.1274 92.3691 31.1274 92.3693 31.1274 92.3692C31.2601 92.7765 31.5006 93.1404 31.8233 93.4222C32.146 93.7041 32.5389 93.8934 32.9604 93.9701C33.3819 94.0468 33.8163 94.008 34.2176 93.8579C34.6188 93.7079 34.9721 93.452 35.2398 93.1175"
    fill="#45413C"
  />
  <path
    d="M34.7425 0.527941C35.3083 0.201298 36.0053 0.201298 36.5711 0.527941L44.2441 4.95793C44.8098 5.28457 45.1583 5.88823 45.1583 6.54152V15.4015C45.1583 16.0548 44.8098 16.6584 44.2441 16.9851L36.5711 21.4151C36.0053 21.7417 35.3083 21.7417 34.7425 21.4151L27.0696 16.9851C26.5038 16.6584 26.1553 16.0548 26.1553 15.4015V6.54152C26.1553 5.88823 26.5038 5.28457 27.0696 4.95793L34.7425 0.527941Z"
    fill="white"
  />
  <path
    fill-rule="evenodd"
    clip-rule="evenodd"
    d="M43.9289 5.23485L36.4727 0.930049C35.9612 0.634718 35.331 0.634718 34.8194 0.930048L27.3633 5.23485C26.8518 5.53018 26.5367 6.07597 26.5367 6.66663V15.2762C26.5367 15.8669 26.8518 16.4127 27.3633 16.708L34.8194 21.0128C35.331 21.3081 35.9612 21.3081 36.4727 21.0128L43.9289 16.708C44.4404 16.4127 44.7555 15.8669 44.7555 15.2762V6.66663C44.7555 6.07597 44.4404 5.53018 43.9289 5.23485ZM36.827 0.316426C36.0963 -0.105475 35.1959 -0.105475 34.4652 0.316426L27.009 4.62122C26.2783 5.04312 25.8281 5.82283 25.8281 6.66663V15.2762C25.8281 16.12 26.2783 16.8997 27.009 17.3216L34.4652 21.6264C35.1959 22.0483 36.0963 22.0483 36.827 21.6264L44.2831 17.3216C45.0139 16.8997 45.464 16.12 45.464 15.2762V6.66663C45.464 5.82283 45.0139 5.04312 44.2831 4.62122L36.827 0.316426Z"
    fill="#F98A0A"
  />
  <g clip-path="url(#clip0)">
    <path
      d="M30.6865 15.9313L35.6629 10.955L40.6062 15.9313H30.6865Z"
      fill="url(#paint0_linear)"
    />
    <path
      d="M30.6865 6.0116H35.6629L30.6865 11.3848V6.0116Z"
      fill="url(#paint1_linear)"
    />
    <path
      d="M35.6629 6.0116L30.6865 11.2525V15.9313L35.6629 10.9549L40.6062 6.0116H35.6629Z"
      fill="url(#paint2_linear)"
    />
  </g>
  <path
    d="M21.7898 21.6991C22.7303 21.1443 23.8979 21.1443 24.8383 21.6991L30.944 25.3008C31.8585 25.8403 32.4197 26.823 32.4197 27.8847V35.2008C32.4197 36.2626 31.8585 37.2453 30.944 37.7848L24.8383 41.3865C23.8979 41.9413 22.7303 41.9413 21.7898 41.3865L15.6842 37.7848C14.7697 37.2453 14.2085 36.2626 14.2085 35.2008V27.8847C14.2085 26.823 14.7697 25.8403 15.6842 25.3008L21.7898 21.6991Z"
    fill="white"
  />
  <path
    fill-rule="evenodd"
    clip-rule="evenodd"
    d="M31.6056 25.8119L24.1415 21.5025C23.6294 21.2068 22.9985 21.2068 22.4864 21.5025L15.0222 25.8119C14.5101 26.1076 14.1947 26.6539 14.1947 27.2452V35.8641C14.1947 36.4554 14.5101 37.0018 15.0222 37.2975L22.4864 41.6069C22.9985 41.9026 23.6294 41.9026 24.1415 41.6069L31.6056 37.2975C32.1177 37.0018 32.4332 36.4554 32.4332 35.8642V27.2452C32.4332 26.6539 32.1177 26.1076 31.6056 25.8119ZM24.4961 20.8882C23.7646 20.4658 22.8633 20.4658 22.1317 20.8882L14.6675 25.1976C13.936 25.62 13.4854 26.4005 13.4854 27.2452V35.8641C13.4854 36.7089 13.936 37.4894 14.6675 37.9118L22.1317 42.2212C22.8633 42.6436 23.7646 42.6436 24.4961 42.2212L31.9603 37.9118C32.6918 37.4894 33.1425 36.7089 33.1425 35.8642V27.2452C33.1425 26.4005 32.6918 25.62 31.9603 25.1976L24.4961 20.8882Z"
    fill="#F0DB4F"
  />
  <path
    d="M22.1902 37.5632C23.2292 37.5632 23.9414 37.0102 23.9414 35.7952V31.7902H22.7683V35.7785C22.7683 36.365 22.5254 36.5158 22.1399 36.5158C21.7378 36.5158 21.5702 36.2393 21.3858 35.9125L20.4307 36.4907C20.7072 37.0772 21.2518 37.5632 22.1902 37.5632Z"
    fill="#323330"
  />
  <path
    d="M26.7155 37.5632C27.8299 37.5632 28.6594 36.985 28.6594 35.9293C28.6594 34.949 28.0981 34.5133 27.101 34.086L26.8077 33.9603C26.305 33.7424 26.0871 33.6 26.0871 33.2481C26.0871 32.9632 26.305 32.7454 26.6485 32.7454C26.9837 32.7454 27.2015 32.8878 27.4026 33.2481L28.3159 32.6616C27.9305 31.9829 27.3942 31.7231 26.6485 31.7231C25.6012 31.7231 24.9309 32.3934 24.9309 33.2732C24.9309 34.2284 25.4922 34.6809 26.3385 35.0411L26.6318 35.1668C27.168 35.4014 27.4864 35.5439 27.4864 35.9461C27.4864 36.2812 27.1764 36.5242 26.6904 36.5242C26.1123 36.5242 25.7855 36.2226 25.5341 35.812L24.579 36.365C24.9225 37.0437 25.6263 37.5632 26.7155 37.5632Z"
    fill="#323330"
  />
  <path
    d="M10.057 0.527819C10.6227 0.201176 11.3198 0.201176 11.8855 0.527819L19.5585 4.95781C20.1243 5.28445 20.4728 5.88811 20.4728 6.5414V15.4014C20.4728 16.0547 20.1243 16.6583 19.5585 16.985L11.8855 21.4149C11.3198 21.7416 10.6227 21.7416 10.057 21.4149L2.38401 16.985C1.81825 16.6583 1.46973 16.0547 1.46973 15.4014V6.5414C1.46973 5.88811 1.81825 5.28445 2.38401 4.95781L10.057 0.527819Z"
    fill="white"
  />
  <path
    fill-rule="evenodd"
    clip-rule="evenodd"
    d="M19.2433 5.23485L11.7872 0.930049C11.2757 0.634718 10.6454 0.634718 10.1339 0.930048L2.67777 5.23485C2.16624 5.53018 1.85113 6.07597 1.85113 6.66663V15.2762C1.85113 15.8669 2.16624 16.4127 2.67777 16.708L10.1339 21.0128C10.6454 21.3081 11.2757 21.3081 11.7872 21.0128L19.2433 16.708C19.7548 16.4127 20.07 15.8669 20.07 15.2762V6.66663C20.07 6.07597 19.7548 5.53018 19.2433 5.23485ZM12.1415 0.316426C11.4107 -0.105475 10.5104 -0.105475 9.77962 0.316426L2.3235 4.62122C1.59274 5.04312 1.14258 5.82283 1.14258 6.66663V15.2762C1.14258 16.12 1.59274 16.8997 2.3235 17.3216L9.77962 21.6264C10.5104 22.0483 11.4107 22.0483 12.1415 21.6264L19.5976 17.3216C20.3283 16.8997 20.7785 16.12 20.7785 15.2762V6.66663C20.7785 5.82283 20.3283 5.04312 19.5976 4.62122L12.1415 0.316426Z"
    fill="#341394"
  />
  <path
    d="M6.00108 10.967C5.97148 6.1203 12.5592 3.9802 15.4001 8.48364L13.2202 9.72666C11.9042 7.58185 8.63683 8.34877 8.51955 10.967C8.55476 13.38 11.7662 14.5009 13.2203 12.2071L15.4002 13.4501C12.8966 17.7331 6.12735 16.1921 6.00108 10.967Z"
    fill="#341394"
  />
  <path
    d="M14.31 9.55969H14.7252L14.4415 12.2598H14.0186L14.31 9.55969Z"
    fill="#341394"
  />
  <path
    d="M15.1987 9.55969H15.6139L15.3302 12.2598H14.9072L15.1987 9.55969Z"
    fill="#341394"
  />
  <path d="M15.9205 10.2009H13.8447V10.596H15.9205V10.2009Z" fill="#341394" />
  <path d="M15.8043 11.1633H13.7285V11.5584H15.8043V11.1633Z" fill="#341394" />
  <defs>
    <linearGradient
      id="paint0_linear"
      x1="33.3251"
      y1="18.2483"
      x2="34.7134"
      y2="12.7316"
      gradientUnits="userSpaceOnUse"
    >
      <stop offset="0.09677" stop-color="#0095D5" />
      <stop offset="0.3007" stop-color="#238AD9" />
      <stop offset="0.6211" stop-color="#557BDE" />
      <stop offset="0.8643" stop-color="#7472E2" />
      <stop offset="1" stop-color="#806EE3" />
    </linearGradient>
    <linearGradient
      id="paint1_linear"
      x1="31.3824"
      y1="8.00531"
      x2="34.2958"
      y2="5.50638"
      gradientUnits="userSpaceOnUse"
    >
      <stop offset="0.1183" stop-color="#0095D5" />
      <stop offset="0.4178" stop-color="#3C83DC" />
      <stop offset="0.6962" stop-color="#6D74E1" />
      <stop offset="0.8333" stop-color="#806EE3" />
    </linearGradient>
    <linearGradient
      id="paint2_linear"
      x1="29.0164"
      y1="15.1317"
      x2="38.2472"
      y2="5.90093"
      gradientUnits="userSpaceOnUse"
    >
      <stop offset="0.1075" stop-color="#C757BC" />
      <stop offset="0.2138" stop-color="#D0609A" />
      <stop offset="0.4254" stop-color="#E1725C" />
      <stop offset="0.6048" stop-color="#EE7E2F" />
      <stop offset="0.743" stop-color="#F58613" />
      <stop offset="0.8232" stop-color="#F88909" />
    </linearGradient>
    <clipPath id="clip0">
      <rect
        width="9.9197"
        height="9.91971"
        fill="white"
        transform="translate(30.6865 6.0116)"
      />
    </clipPath>
  </defs>
</svg>
