<svg width="320" height="320" viewBox="0 0 320 320" fill="none" xmlns="http://www.w3.org/2000/svg">
<g clip-path="url(#clip0)">
<path d="M107.642 276.801C138.62 290.687 173.846 291.698 205.569 279.612C237.292 267.526 262.915 243.332 276.801 212.354C290.687 181.377 291.698 146.151 279.612 114.428C267.526 82.7044 243.332 57.0815 212.354 43.1958C181.376 29.3101 146.151 28.2991 114.428 40.3852C82.7044 52.4713 57.0815 76.6644 43.1958 107.642C29.3102 138.62 28.2992 173.846 40.3853 205.569C52.4713 237.292 76.6645 262.915 107.642 276.801Z" fill="#C7F0FF"/>
<path opacity="0.15" d="M51.8975 274.393C51.8975 276.088 63.1182 277.714 83.0913 278.912C103.064 280.11 130.154 280.784 158.4 280.784C186.646 280.784 213.735 280.11 233.708 278.912C253.681 277.714 264.902 276.088 264.902 274.393C264.902 272.699 253.681 271.073 233.708 269.875C213.735 268.676 186.646 268.003 158.4 268.003C130.154 268.003 103.064 268.676 83.0913 269.875C63.1182 271.073 51.8975 272.699 51.8975 274.393Z" fill="#45413C"/>
<path d="M130.723 191.36V250.976C130.723 251.256 130.778 251.532 130.885 251.79C130.992 252.049 131.149 252.283 131.346 252.481C131.544 252.678 131.779 252.835 132.037 252.942C132.295 253.049 132.572 253.104 132.851 253.104H149.885L151.565 219.271C151.619 217.494 152.363 215.808 153.639 214.571C154.915 213.333 156.623 212.641 158.4 212.641C160.177 212.641 161.885 213.333 163.161 214.571C164.437 215.808 165.181 217.494 165.235 219.271L166.918 253.104H183.949C184.513 253.104 185.055 252.88 185.455 252.481C185.854 252.082 186.079 251.541 186.08 250.976V191.36H130.723Z" fill="#FFAA54"/>
<path d="M130.723 191.357H186.08V208.391H130.723V191.357Z" fill="#FFAA54"/>
<path d="M130.723 191.36V250.976C130.723 251.256 130.778 251.532 130.885 251.79C130.992 252.049 131.149 252.283 131.346 252.481C131.544 252.678 131.779 252.835 132.037 252.942C132.295 253.049 132.572 253.104 132.851 253.104H149.885L151.565 219.271C151.619 217.494 152.363 215.808 153.639 214.571C154.915 213.333 156.623 212.641 158.4 212.641C160.177 212.641 161.885 213.333 163.161 214.571C164.437 215.808 165.181 217.494 165.235 219.271L166.918 253.104H183.949C184.513 253.104 185.055 252.88 185.455 252.481C185.854 252.082 186.079 251.541 186.08 250.976V191.36H130.723Z" stroke="#45413C" stroke-width="1.6" stroke-linecap="round" stroke-linejoin="round"/>
<path d="M146.525 272.262H136.211C135.32 272.262 134.465 271.908 133.835 271.278C133.205 270.648 132.851 269.793 132.851 268.902V253.101H149.885V268.902C149.885 269.793 149.531 270.648 148.901 271.278C148.27 271.908 147.416 272.262 146.525 272.262Z" fill="white" stroke="#45413C" stroke-width="1.6" stroke-linecap="round" stroke-linejoin="round"/>
<path d="M180.588 272.262H170.278C169.387 272.262 168.532 271.908 167.902 271.278C167.272 270.648 166.918 269.793 166.918 268.902V253.101H183.948V268.902C183.948 269.343 183.861 269.78 183.693 270.188C183.524 270.596 183.276 270.966 182.964 271.278C182.652 271.59 182.282 271.838 181.874 272.006C181.467 272.175 181.03 272.262 180.588 272.262Z" fill="white" stroke="#45413C" stroke-width="1.6" stroke-linecap="round" stroke-linejoin="round"/>
<path opacity="0.15" d="M124.954 274.621C124.954 275.28 125.819 275.932 127.5 276.541C129.18 277.149 131.644 277.703 134.75 278.169C137.856 278.634 141.543 279.004 145.601 279.256C149.659 279.508 154.008 279.638 158.4 279.638C162.792 279.638 167.141 279.508 171.199 279.256C175.257 279.004 178.944 278.634 182.05 278.169C185.156 277.703 187.62 277.149 189.3 276.541C190.981 275.932 191.846 275.28 191.846 274.621C191.846 273.962 190.981 273.309 189.3 272.7C187.62 272.092 185.156 271.539 182.05 271.073C178.944 270.607 175.257 270.237 171.199 269.985C167.141 269.733 162.792 269.603 158.4 269.603C154.008 269.603 149.659 269.733 145.601 269.985C141.543 270.237 137.856 270.607 134.75 271.073C131.644 271.539 129.18 272.092 127.5 272.7C125.819 273.309 124.954 273.962 124.954 274.621Z" fill="#45413C"/>
<path d="M200.982 157.293V161.683H186.08V197.76H130.72V161.683H115.817V157.293C115.817 151.701 116.919 146.164 119.059 140.997C121.199 135.831 124.335 131.137 128.289 127.183C132.244 123.228 136.938 120.092 142.104 117.952C147.271 115.812 152.808 114.71 158.4 114.71C163.992 114.71 169.529 115.812 174.695 117.952C179.862 120.092 184.556 123.228 188.51 127.183C192.464 131.137 195.601 135.831 197.741 140.997C199.881 146.164 200.982 151.701 200.982 157.293Z" fill="#F0F0F0" stroke="#45413C" stroke-width="1.6" stroke-linecap="round" stroke-linejoin="round"/>
<path d="M115.811 165.943C115.811 167.072 115.362 168.155 114.564 168.954C113.765 169.753 112.682 170.202 111.552 170.202H97.7055C95.7281 170.202 93.8316 170.987 92.4333 172.386C91.035 173.784 90.2495 175.68 90.2495 177.658C90.2495 179.635 91.035 181.532 92.4333 182.93C93.8316 184.328 95.7281 185.114 97.7055 185.114H111.552C116.636 185.114 121.513 183.094 125.108 179.499C128.703 175.903 130.723 171.027 130.723 165.943V161.683H115.811V165.943Z" fill="#FFDA8F" stroke="#45413C" stroke-width="1.6" stroke-linecap="round" stroke-linejoin="round"/>
<path d="M200.988 165.943C200.988 167.072 201.437 168.155 202.236 168.954C203.035 169.753 204.118 170.202 205.248 170.202H219.094C220.073 170.202 221.043 170.395 221.947 170.769C222.852 171.144 223.674 171.693 224.366 172.386C225.058 173.078 225.608 173.9 225.982 174.804C226.357 175.709 226.55 176.679 226.55 177.658C226.55 178.637 226.357 179.606 225.982 180.511C225.608 181.416 225.058 182.238 224.366 182.93C223.674 183.622 222.852 184.171 221.947 184.546C221.043 184.921 220.073 185.114 219.094 185.114H205.248C202.73 185.114 200.237 184.618 197.912 183.654C195.586 182.691 193.473 181.279 191.693 179.498C189.913 177.718 188.501 175.605 187.538 173.279C186.575 170.953 186.079 168.46 186.08 165.943V161.683H200.988V165.943Z" fill="#FFDA8F" stroke="#45413C" stroke-width="1.6" stroke-linecap="round" stroke-linejoin="round"/>
<path d="M130.723 148.775V197.744" stroke="#45413C" stroke-width="1.6" stroke-linecap="round" stroke-linejoin="round"/>
<path d="M186.08 148.775V197.744" stroke="#45413C" stroke-width="1.6" stroke-linecap="round" stroke-linejoin="round"/>
<path d="M187.056 272.262C187.786 272.269 188.505 272.087 189.144 271.735C189.784 271.382 190.321 270.871 190.705 270.25C191.089 269.629 191.307 268.92 191.337 268.191C191.367 267.461 191.208 266.736 190.877 266.086C189.773 264.087 188.153 262.42 186.186 261.26C184.219 260.099 181.976 259.487 179.693 259.488H177.561C175.278 259.487 173.035 260.099 171.068 261.259C169.101 262.42 167.481 264.087 166.377 266.086C166.046 266.736 165.887 267.461 165.917 268.191C165.947 268.92 166.165 269.629 166.549 270.25C166.933 270.871 167.47 271.382 168.11 271.735C168.749 272.087 169.468 272.269 170.198 272.262H187.056Z" fill="#F0F0F0" stroke="#45413C" stroke-width="1.6" stroke-linecap="round" stroke-linejoin="round"/>
<path d="M146.604 272.262C147.334 272.269 148.054 272.088 148.693 271.735C149.333 271.383 149.87 270.871 150.254 270.25C150.638 269.629 150.855 268.92 150.884 268.19C150.914 267.461 150.755 266.736 150.422 266.086C149.318 264.087 147.698 262.42 145.731 261.26C143.764 260.099 141.522 259.487 139.238 259.488H137.11C134.824 259.485 132.578 260.096 130.609 261.257C128.639 262.417 127.016 264.085 125.91 266.086C125.578 266.736 125.42 267.461 125.45 268.191C125.48 268.92 125.697 269.629 126.081 270.25C126.466 270.871 127.003 271.382 127.642 271.735C128.282 272.087 129.001 272.269 129.731 272.262H146.604Z" fill="#F0F0F0" stroke="#45413C" stroke-width="1.6" stroke-linecap="round" stroke-linejoin="round"/>
<path d="M186.08 189.229V148.775" stroke="#45413C" stroke-width="1.6" stroke-linecap="round" stroke-linejoin="round"/>
<path d="M130.723 189.229V148.775" stroke="#45413C" stroke-width="1.6" stroke-linecap="round" stroke-linejoin="round"/>
<path d="M103.139 191.322V267.779H83.9646L82.2814 214.762C82.2151 212.993 81.4658 211.318 80.1909 210.09C78.916 208.862 77.2147 208.176 75.4446 208.176C73.6744 208.176 71.9732 208.862 70.6983 210.09C69.4234 211.318 68.6741 212.993 68.6078 214.762L66.9246 267.779H47.7598V191.322H103.139Z" fill="#F0D5A8"/>
<path d="M47.7598 191.322H103.139V201.971H47.7598V191.322Z" fill="#DEBB7E"/>
<path d="M103.139 191.322V267.779H83.9646L82.2814 214.762C82.2151 212.993 81.4658 211.318 80.1909 210.09C78.916 208.862 77.2147 208.176 75.4446 208.176C73.6744 208.176 71.9732 208.862 70.6983 210.09C69.4234 211.318 68.6741 212.993 68.6078 214.762L66.9246 267.779H47.7598V191.322H103.139Z" stroke="#45413C" stroke-width="1.6" stroke-linecap="round" stroke-linejoin="round"/>
<path d="M46.7773 272.262C46.0452 272.272 45.323 272.093 44.6807 271.742C44.0384 271.391 43.4978 270.879 43.1114 270.258C42.725 269.636 42.5059 268.925 42.4754 268.193C42.4449 267.462 42.604 266.735 42.9373 266.083C44.0428 264.081 45.6652 262.413 47.6352 261.252C49.6051 260.091 51.8505 259.479 54.1373 259.481H56.2685C58.5552 259.479 60.8006 260.091 62.7706 261.252C64.7405 262.413 66.3629 264.081 67.4685 266.083C67.8011 266.734 67.9602 267.459 67.9304 268.189C67.9006 268.919 67.6829 269.629 67.2984 270.251C66.9139 270.872 66.3756 271.384 65.7354 271.736C65.0953 272.088 64.3751 272.27 63.6445 272.262H46.7773Z" fill="#915E3A" stroke="#45413C" stroke-width="1.6" stroke-linecap="round" stroke-linejoin="round"/>
<path d="M87.248 272.262C86.5159 272.272 85.7937 272.093 85.1514 271.742C84.5091 271.391 83.9685 270.879 83.5821 270.258C83.1957 269.636 82.9766 268.925 82.9461 268.193C82.9156 267.462 83.0747 266.735 83.408 266.083C84.5135 264.081 86.1359 262.413 88.1059 261.252C90.0758 260.091 92.3212 259.479 94.608 259.481H96.7392C99.0259 259.479 101.271 260.091 103.241 261.252C105.211 262.413 106.834 264.081 107.939 266.083C108.272 266.735 108.432 267.462 108.401 268.193C108.371 268.925 108.151 269.636 107.765 270.258C107.379 270.879 106.838 271.391 106.196 271.742C105.553 272.093 104.831 272.272 104.099 272.262H87.248Z" fill="#915E3A" stroke="#45413C" stroke-width="1.6" stroke-linecap="round" stroke-linejoin="round"/>
<path d="M32.8477 157.242V161.501H47.7597V191.322H103.139V161.501H118.051V157.242C118.051 145.943 113.562 135.107 105.573 127.118C97.5838 119.129 86.7479 114.64 75.4492 114.64C64.1506 114.64 53.3147 119.129 45.3254 127.118C37.336 135.107 32.8477 145.943 32.8477 157.242Z" fill="#F0F0F0"/>
<path d="M75.4492 114.64C64.1522 114.645 53.3192 119.135 45.331 127.123C37.3427 135.112 32.8527 145.945 32.8477 157.242V161.501H33.0653C34.1233 150.995 39.0453 141.257 46.8766 134.175C54.7079 127.092 64.8905 123.171 75.4492 123.171C86.008 123.171 96.1906 127.092 104.022 134.175C111.853 141.257 116.775 150.995 117.833 161.501H118.051V157.242C118.041 145.946 113.549 135.116 105.562 127.129C97.5748 119.142 86.7448 114.65 75.4492 114.64Z" fill="white"/>
<path d="M32.8477 157.242V161.501H47.7597V191.322H103.139V161.501H118.051V157.242C118.048 148.065 115.081 139.135 109.593 131.781C104.104 124.427 96.3867 119.042 87.59 116.429C83.6561 115.226 79.5631 114.623 75.4492 114.64C64.1522 114.645 53.3192 119.135 45.331 127.123C37.3427 135.112 32.8527 145.945 32.8477 157.242V157.242Z" stroke="#45413C" stroke-width="1.6" stroke-linecap="round" stroke-linejoin="round"/>
<path d="M87.0688 116.272C86.3727 116.067 85.7619 115.642 85.328 115.06C84.8941 114.478 84.6605 113.772 84.6624 113.046V99.219H66.24V113.494C66.2395 114.101 66.0416 114.69 65.6761 115.174C65.3106 115.658 64.7975 116.01 64.2144 116.176C64.512 118.473 66.176 127.421 75.4624 127.421C84.4928 127.421 87.008 118.985 87.6032 116.429L87.0688 116.272Z" fill="#D18660" stroke="#45413C" stroke-width="1.6" stroke-linecap="round" stroke-linejoin="round"/>
<path d="M169.948 116.336C169.245 116.136 168.626 115.711 168.186 115.128C167.746 114.544 167.509 113.832 167.51 113.101V99.219H149.078L149.062 113.136C149.061 113.865 148.824 114.574 148.384 115.156C147.945 115.738 147.328 116.161 146.627 116.361C146.243 116.47 145.862 116.585 145.484 116.71C145.484 116.71 145.612 129.613 158.387 129.613C170.652 129.613 171.248 117.731 171.289 116.752C170.854 116.605 170.403 116.48 169.948 116.336Z" fill="#FFDA8F" stroke="#45413C" stroke-width="1.6" stroke-linecap="round" stroke-linejoin="round"/>
<path d="M47.7534 148.72V161.501" stroke="#45413C" stroke-width="1.6" stroke-linecap="round" stroke-linejoin="round"/>
<path d="M103.139 148.72V161.501" stroke="#45413C" stroke-width="1.6" stroke-linecap="round" stroke-linejoin="round"/>
<path d="M105.28 85.7216C105.271 84.5074 104.842 83.3336 104.066 82.4C103.289 81.4665 102.213 80.831 101.021 80.6016V77.2C101.021 70.4207 98.3277 63.919 93.5339 59.1252C88.7402 54.3315 82.2385 51.6384 75.4591 51.6384C68.6798 51.6384 62.1781 54.3315 57.3844 59.1252C52.5906 63.919 49.8975 70.4207 49.8975 77.2V80.6112C48.6551 80.8433 47.5392 81.5185 46.7573 82.5115C45.9753 83.5045 45.5805 84.7476 45.6462 86.0098C45.7119 87.2719 46.2337 88.4673 47.1145 89.3737C47.9954 90.2801 49.1754 90.8358 50.4351 90.9376C51.6335 96.688 54.7757 101.85 59.3331 105.556C63.8906 109.261 69.5853 111.284 75.4591 111.284C81.333 111.284 87.0277 109.261 91.5851 105.556C96.1426 101.85 99.2848 96.688 100.483 90.9376C101.788 90.8192 103.001 90.2196 103.888 89.2554C104.775 88.2912 105.271 87.0315 105.28 85.7216Z" fill="#D18660" stroke="#45413C" stroke-width="1.6" stroke-linecap="round" stroke-linejoin="round"/>
<path d="M65.8655 77.1997C65.2326 77.1997 64.6139 77.3874 64.0877 77.739C63.5615 78.0906 63.1513 78.5904 62.9091 79.1751C62.6669 79.7598 62.6035 80.4033 62.727 81.024C62.8505 81.6447 63.1553 82.2149 63.6028 82.6625C64.0503 83.11 64.6205 83.4147 65.2412 83.5382C65.862 83.6617 66.5054 83.5983 67.0901 83.3561C67.6748 83.1139 68.1746 82.7038 68.5262 82.1775C68.8778 81.6513 69.0655 81.0326 69.0655 80.3997C69.0655 79.551 68.7284 78.7371 68.1283 78.137C67.5282 77.5368 66.7142 77.1997 65.8655 77.1997Z" fill="#45413C"/>
<path d="M85.0335 77.1997C84.4006 77.1997 83.7819 77.3874 83.2557 77.739C82.7294 78.0906 82.3193 78.5904 82.0771 79.1751C81.8349 79.7598 81.7715 80.4033 81.895 81.024C82.0185 81.6447 82.3232 82.2149 82.7708 82.6625C83.2183 83.11 83.7885 83.4147 84.4092 83.5382C85.0299 83.6617 85.6734 83.5983 86.2581 83.3561C86.8428 83.1139 87.3426 82.7038 87.6942 82.1775C88.0458 81.6513 88.2335 81.0326 88.2335 80.3997C88.2335 79.551 87.8964 78.7371 87.2962 78.137C86.6961 77.5368 85.8822 77.1997 85.0335 77.1997Z" fill="#45413C"/>
<path d="M64.7999 88.9151C64.7999 89.548 64.6122 90.1667 64.2606 90.6929C63.909 91.2192 63.4092 91.6293 62.8245 91.8715C62.2398 92.1137 61.5964 92.1771 60.9756 92.0536C60.3549 91.9302 59.7847 91.6254 59.3372 91.1779C58.8896 90.7303 58.5849 90.1601 58.4614 89.5394C58.3379 88.9187 58.4013 88.2752 58.6435 87.6905C58.8857 87.1058 59.2958 86.606 59.8221 86.2544C60.3483 85.9028 60.967 85.7151 61.5999 85.7151C62.4486 85.7151 63.2625 86.0522 63.8626 86.6524C64.4628 87.2525 64.7999 88.0664 64.7999 88.9151Z" fill="#BD704A"/>
<path d="M92.4796 88.9151C92.4796 89.548 92.2919 90.1667 91.9403 90.6929C91.5887 91.2192 91.0889 91.6293 90.5042 91.8715C89.9195 92.1137 89.276 92.1771 88.6553 92.0536C88.0346 91.9302 87.4644 91.6254 87.0169 91.1779C86.5693 90.7303 86.2646 90.1601 86.1411 89.5394C86.0176 88.9187 86.081 88.2752 86.3232 87.6905C86.5654 87.1058 86.9755 86.606 87.5018 86.2544C88.028 85.9028 88.6467 85.7151 89.2796 85.7151C90.1283 85.7151 90.9422 86.0522 91.5423 86.6524C92.1425 87.2525 92.4796 88.0664 92.4796 88.9151Z" fill="#BD704A"/>
<path d="M69.0591 96.5664C70.9515 97.8281 73.175 98.5014 75.4495 98.5014C77.7239 98.5014 79.9475 97.8281 81.8399 96.5664" stroke="#45413C" stroke-width="1.6" stroke-linecap="round" stroke-linejoin="round"/>
<path d="M103.139 70.8097C103.139 63.466 100.222 56.423 95.0289 51.2302C89.8361 46.0374 82.7931 43.1201 75.4494 43.1201C68.1056 43.1201 61.0627 46.0374 55.8699 51.2302C50.6771 56.423 47.7598 63.466 47.7598 70.8097V79.3313C51.0643 78.5029 54.1311 76.918 56.7184 74.7017C59.3056 72.4854 61.3426 69.6982 62.6686 66.5601C74.6014 74.5857 90.3582 72.9409 103.139 70.8097Z" fill="#724F3D"/>
<path d="M75.4496 53.76C80.972 53.7627 86.3674 55.4173 90.9419 58.5109C95.5165 61.6045 99.0611 65.9957 101.12 71.12C101.792 71.0144 102.483 70.9184 103.136 70.8C103.136 63.4562 100.219 56.4133 95.0259 51.2205C89.8331 46.0276 82.7902 43.1104 75.4464 43.1104C68.1027 43.1104 61.0597 46.0276 55.8669 51.2205C50.6741 56.4133 47.7568 63.4562 47.7568 70.8V79.3216L47.8656 79.2864C48.4062 72.3406 51.5466 65.8543 56.6598 61.1225C61.7731 56.3907 68.4829 53.7615 75.4496 53.76Z" fill="#A86C4D"/>
<path d="M103.139 70.8097C103.139 63.466 100.222 56.423 95.0289 51.2302C89.8361 46.0374 82.7931 43.1201 75.4494 43.1201C68.1056 43.1201 61.0627 46.0374 55.8699 51.2302C50.6771 56.423 47.7598 63.466 47.7598 70.8097V79.3313C51.0643 78.5029 54.1311 76.918 56.7184 74.7017C59.3056 72.4854 61.3426 69.6982 62.6686 66.5601C74.6014 74.5857 90.3582 72.9409 103.139 70.8097Z" stroke="#45413C" stroke-width="1.6" stroke-linecap="round" stroke-linejoin="round"/>
<path d="M58.4092 62.291C59.493 64.0137 60.9482 65.4722 62.6684 66.5598" stroke="#45413C" stroke-width="1.6" stroke-linecap="round" stroke-linejoin="round"/>
<path d="M103.139 165.76C103.139 166.32 103.03 166.874 102.816 167.391C102.602 167.908 102.288 168.378 101.893 168.774C101.497 169.17 101.028 169.484 100.511 169.698C99.9936 169.912 99.4395 170.022 98.8799 170.022H85.0335C83.0832 170.063 81.2264 170.866 79.8614 172.259C78.4964 173.653 77.7319 175.526 77.7319 177.477C77.7319 179.427 78.4964 181.3 79.8614 182.694C81.2264 184.088 83.0832 184.891 85.0335 184.931H98.8799C103.964 184.931 108.84 182.912 112.435 179.317C116.03 175.723 118.05 170.847 118.051 165.763V161.501H103.139V165.76Z" fill="#D18660" stroke="#45413C" stroke-width="1.6" stroke-linecap="round" stroke-linejoin="round"/>
<path d="M47.7599 161.501V177.645C47.7582 180.625 48.4931 183.56 49.8995 186.188C51.3058 188.816 53.3399 191.055 55.8207 192.707L57.2191 193.638C57.2735 193.677 57.3119 193.722 57.3663 193.76L48.1887 205.539L47.5487 205.114C43.0227 202.103 39.3116 198.019 36.7461 193.226C34.1806 188.434 32.8404 183.081 32.8447 177.645V161.501H47.7599Z" fill="#D18660" stroke="#45413C" stroke-width="1.6" stroke-linecap="round" stroke-linejoin="round"/>
<path d="M213.664 191.322V267.779H232.835L234.518 214.762C234.584 212.993 235.334 211.318 236.608 210.09C237.883 208.862 239.585 208.176 241.355 208.176C243.125 208.176 244.826 208.862 246.101 210.09C247.376 211.318 248.125 212.993 248.192 214.762L249.875 267.779H269.046V191.322H213.664Z" fill="#FFCEBF" stroke="#45413C" stroke-width="1.6" stroke-linecap="round" stroke-linejoin="round"/>
<path d="M233.977 231.792L234.518 214.762C234.584 212.993 235.334 211.318 236.608 210.09C237.883 208.862 239.585 208.176 241.355 208.176C243.125 208.176 244.826 208.862 246.101 210.09C247.376 211.318 248.125 212.993 248.192 214.762L248.732 231.792H269.046V191.322H213.664V231.792H233.977Z" fill="#00B8F0"/>
<path d="M213.661 191.322H269.04V201.971H213.661V191.322Z" fill="#009FD9"/>
<path d="M233.977 231.792L234.518 214.762C234.584 212.993 235.334 211.318 236.608 210.09C237.883 208.862 239.585 208.176 241.355 208.176C243.125 208.176 244.826 208.862 246.101 210.09C247.376 211.318 248.125 212.993 248.192 214.762L248.732 231.792H269.046V191.322H213.664V231.792H233.977Z" stroke="#45413C" stroke-width="1.6" stroke-linecap="round" stroke-linejoin="round"/>
<path d="M211.529 231.792H237.091V242.442H211.529V231.792Z" fill="#80DDFF" stroke="#45413C" stroke-width="1.6" stroke-linecap="round" stroke-linejoin="round"/>
<path d="M245.613 231.792H271.174V242.442H245.613V231.792Z" fill="#80DDFF" stroke="#45413C" stroke-width="1.6" stroke-linecap="round" stroke-linejoin="round"/>
<path d="M270.026 272.262C270.756 272.269 271.476 272.087 272.115 271.735C272.755 271.382 273.293 270.871 273.677 270.249C274.061 269.628 274.279 268.918 274.308 268.188C274.338 267.459 274.179 266.733 273.846 266.083C272.741 264.081 271.118 262.413 269.148 261.252C267.179 260.091 264.933 259.479 262.646 259.481H260.515C258.228 259.478 255.982 260.089 254.012 261.25C252.042 262.412 250.42 264.081 249.315 266.083C248.982 266.733 248.822 267.459 248.851 268.189C248.88 268.919 249.098 269.629 249.482 270.251C249.866 270.872 250.405 271.384 251.045 271.737C251.685 272.089 252.405 272.27 253.136 272.262H270.026Z" fill="#915E3A" stroke="#45413C" stroke-width="1.6" stroke-linecap="round" stroke-linejoin="round"/>
<path d="M229.552 272.262C230.284 272.272 231.006 272.093 231.648 271.742C232.291 271.391 232.831 270.879 233.218 270.258C233.604 269.636 233.823 268.925 233.854 268.193C233.884 267.462 233.725 266.735 233.392 266.083C232.286 264.081 230.664 262.413 228.694 261.252C226.724 260.091 224.479 259.479 222.192 259.481H220.061C217.774 259.479 215.528 260.091 213.559 261.252C211.589 262.413 209.966 264.081 208.861 266.083C208.527 266.735 208.368 267.462 208.399 268.193C208.429 268.925 208.648 269.636 209.035 270.258C209.421 270.879 209.962 271.391 210.604 271.742C211.246 272.093 211.969 272.272 212.701 272.262H229.552Z" fill="#915E3A" stroke="#45413C" stroke-width="1.6" stroke-linecap="round" stroke-linejoin="round"/>
<path d="M283.952 157.242V161.501H269.043V191.322H213.66V161.501H198.752V157.242C198.703 151.616 199.769 146.037 201.888 140.826C204.007 135.614 207.137 130.874 211.097 126.879C215.058 122.884 219.771 119.713 224.963 117.549C230.156 115.385 235.726 114.271 241.352 114.271C246.977 114.271 252.547 115.385 257.74 117.549C262.932 119.713 267.645 122.884 271.606 126.879C275.566 130.874 278.696 135.614 280.815 140.826C282.934 146.037 284 151.616 283.952 157.242Z" fill="#F0F0F0"/>
<path d="M241.35 114.64C230.055 114.65 219.225 119.142 211.239 127.129C203.252 135.117 198.761 145.947 198.752 157.242V161.501H198.966C200.024 150.995 204.946 141.257 212.778 134.175C220.609 127.092 230.792 123.171 241.35 123.171C251.909 123.171 262.092 127.092 269.923 134.175C277.754 141.257 282.676 150.995 283.734 161.501H283.952V157.242C283.947 145.945 279.457 135.112 271.469 127.123C263.48 119.135 252.647 114.645 241.35 114.64Z" fill="white"/>
<path d="M283.952 157.242V161.501H269.043V191.322H213.66V161.501H198.752V157.242C198.703 151.616 199.769 146.037 201.888 140.826C204.007 135.614 207.137 130.874 211.097 126.879C215.058 122.884 219.771 119.713 224.963 117.549C230.156 115.385 235.726 114.271 241.352 114.271C246.977 114.271 252.547 115.385 257.74 117.549C262.932 119.713 267.645 122.884 271.606 126.879C275.566 130.874 278.696 135.614 280.815 140.826C282.934 146.037 284 151.616 283.952 157.242V157.242Z" stroke="#45413C" stroke-width="1.6" stroke-linecap="round" stroke-linejoin="round"/>
<path d="M252.557 116.16C251.853 115.96 251.234 115.535 250.794 114.952C250.354 114.368 250.117 113.656 250.118 112.925V99.2158H231.696V113.187C231.693 113.904 231.461 114.601 231.033 115.177C230.606 115.752 230.006 116.176 229.321 116.387L229.222 116.416C229.821 118.976 232.333 127.408 241.363 127.408C250.643 127.408 252.313 118.448 252.611 116.163L252.557 116.16Z" fill="#FFCEBF" stroke="#45413C" stroke-width="1.6" stroke-linecap="round" stroke-linejoin="round"/>
<path d="M269.046 148.72V161.501" stroke="#45413C" stroke-width="1.6" stroke-linecap="round" stroke-linejoin="round"/>
<path d="M213.661 148.72V161.501" stroke="#45413C" stroke-width="1.6" stroke-linecap="round" stroke-linejoin="round"/>
<path d="M213.661 165.76C213.66 166.32 213.77 166.874 213.984 167.391C214.198 167.908 214.512 168.378 214.907 168.774C215.303 169.17 215.772 169.484 216.289 169.698C216.806 169.912 217.36 170.022 217.92 170.022H231.766C232.758 170.002 233.744 170.179 234.667 170.545C235.589 170.91 236.429 171.456 237.138 172.15C237.847 172.844 238.41 173.673 238.794 174.588C239.179 175.502 239.377 176.485 239.377 177.477C239.377 178.469 239.179 179.451 238.794 180.366C238.41 181.28 237.847 182.109 237.138 182.803C236.429 183.497 235.589 184.043 234.667 184.409C233.744 184.774 232.758 184.952 231.766 184.931H217.92C212.836 184.931 207.961 182.912 204.366 179.317C200.771 175.722 198.752 170.847 198.752 165.763V161.501H213.661V165.76Z" fill="#FFCEBF" stroke="#45413C" stroke-width="1.6" stroke-linecap="round" stroke-linejoin="round"/>
<path d="M211.52 85.7215C211.528 84.5068 211.958 83.3327 212.735 82.3991C213.512 81.4655 214.589 80.8302 215.782 80.6015V77.1999C215.857 70.4705 218.583 64.0423 223.369 59.3103C228.154 54.5783 234.612 51.9243 241.342 51.9243C248.072 51.9243 254.53 54.5783 259.315 59.3103C264.101 64.0423 266.827 70.4705 266.902 77.1999V80.6111C268.144 80.8432 269.26 81.5184 270.042 82.5114C270.824 83.5044 271.219 84.7475 271.153 86.0097C271.088 87.2718 270.566 88.4672 269.685 89.3736C268.804 90.28 267.624 90.8358 266.364 90.9375C265.166 96.6879 262.024 101.85 257.466 105.556C252.909 109.261 247.214 111.284 241.34 111.284C235.466 111.284 229.772 109.261 225.214 105.556C220.657 101.85 217.515 96.6879 216.316 90.9375C215.012 90.8191 213.798 90.2195 212.911 89.2553C212.025 88.2911 211.528 87.0314 211.52 85.7215Z" fill="#FFCEBF" stroke="#45413C" stroke-width="1.6" stroke-linecap="round" stroke-linejoin="round"/>
<path d="M250.937 77.1997C250.304 77.1997 249.686 77.3874 249.159 77.739C248.633 78.0906 248.223 78.5904 247.981 79.1751C247.739 79.7598 247.675 80.4033 247.799 81.024C247.922 81.6447 248.227 82.2149 248.675 82.6625C249.122 83.11 249.692 83.4147 250.313 83.5382C250.934 83.6617 251.577 83.5983 252.162 83.3561C252.747 83.1139 253.246 82.7038 253.598 82.1775C253.95 81.6513 254.137 81.0326 254.137 80.3997C254.137 79.551 253.8 78.7371 253.2 78.137C252.6 77.5368 251.786 77.1997 250.937 77.1997Z" fill="#45413C"/>
<path d="M231.766 77.1997C231.134 77.1997 230.515 77.3874 229.989 77.739C229.462 78.0906 229.052 78.5904 228.81 79.1751C228.568 79.7598 228.504 80.4033 228.628 81.024C228.751 81.6447 229.056 82.2149 229.504 82.6625C229.951 83.11 230.521 83.4147 231.142 83.5382C231.763 83.6617 232.406 83.5983 232.991 83.3561C233.576 83.1139 234.075 82.7038 234.427 82.1775C234.779 81.6513 234.966 81.0326 234.966 80.3997C234.966 79.551 234.629 78.7371 234.029 78.137C233.429 77.5368 232.615 77.1997 231.766 77.1997Z" fill="#45413C"/>
<path d="M252 88.9151C252 89.548 252.188 90.1667 252.539 90.6929C252.891 91.2192 253.391 91.6293 253.975 91.8715C254.56 92.1137 255.204 92.1771 255.824 92.0536C256.445 91.9302 257.015 91.6254 257.463 91.1779C257.91 90.7303 258.215 90.1601 258.339 89.5394C258.462 88.9187 258.399 88.2752 258.156 87.6905C257.914 87.1058 257.504 86.606 256.978 86.2544C256.452 85.9028 255.833 85.7151 255.2 85.7151C254.351 85.7151 253.537 86.0522 252.937 86.6524C252.337 87.2525 252 88.0664 252 88.9151Z" fill="#FFB59E"/>
<path d="M224.32 88.9151C224.32 89.548 224.508 90.1667 224.859 90.6929C225.211 91.2192 225.711 91.6293 226.295 91.8715C226.88 92.1137 227.523 92.1771 228.144 92.0536C228.765 91.9302 229.335 91.6254 229.783 91.1779C230.23 90.7303 230.535 90.1601 230.658 89.5394C230.782 88.9187 230.718 88.2752 230.476 87.6905C230.234 87.1058 229.824 86.606 229.298 86.2544C228.771 85.9028 228.153 85.7151 227.52 85.7151C226.671 85.7151 225.857 86.0522 225.257 86.6524C224.657 87.2525 224.32 88.0664 224.32 88.9151Z" fill="#FFB59E"/>
<path d="M234.96 96.5664C236.852 97.8281 239.076 98.5014 241.35 98.5014C243.625 98.5014 245.848 97.8281 247.741 96.5664" stroke="#45413C" stroke-width="1.6" stroke-linecap="round" stroke-linejoin="round"/>
<path d="M241.35 51.6416C244.707 51.6412 248.031 52.302 251.132 53.5862C254.233 54.8704 257.051 56.753 259.425 59.1263C261.799 61.4997 263.682 64.3174 264.966 67.4185C266.251 70.5196 266.912 73.8434 266.912 77.2V79.5392C265.048 79.5132 263.268 78.7569 261.955 77.4327C260.642 76.1086 259.901 74.3222 259.891 72.4576C259.785 71.7896 259.546 71.1497 259.189 70.5757C258.831 70.0017 258.362 69.5051 257.809 69.1155C257.256 68.7259 256.631 68.4511 255.97 68.3073C255.309 68.1635 254.626 68.1537 253.962 68.2784C249.808 69.0996 245.585 69.5197 241.35 69.5328C237.117 69.5198 232.895 69.0998 228.742 68.2784C228.077 68.1537 227.394 68.1635 226.733 68.3072C226.072 68.451 225.447 68.7257 224.894 69.1153C224.341 69.5049 223.871 70.0014 223.513 70.5755C223.155 71.1495 222.916 71.7895 222.81 72.4576C222.801 74.3219 222.06 76.1083 220.748 77.4325C219.436 78.7568 217.656 79.5132 215.792 79.5392V77.2C215.792 73.8435 216.452 70.5198 217.737 67.4187C219.021 64.3176 220.904 61.4999 223.277 59.1265C225.65 56.7531 228.468 54.8705 231.569 53.5863C234.67 52.302 237.994 51.6412 241.35 51.6416Z" fill="#A86C4D" stroke="#45413C" stroke-width="1.6" stroke-linecap="round" stroke-linejoin="round"/>
<path d="M274.454 73.4656C274.878 75.0896 274.977 76.7812 274.747 78.4436C274.517 80.1061 273.962 81.707 273.113 83.1547C272.264 84.6025 271.138 85.8688 269.799 86.8814C268.461 87.894 266.936 88.6329 265.312 89.056L258.678 90.7872C258.497 90.8331 258.306 90.8184 258.134 90.7453C257.962 90.6722 257.819 90.5447 257.726 90.3824C257.634 90.2201 257.597 90.0319 257.621 89.8467C257.646 89.6615 257.73 89.4894 257.862 89.3568C259.162 88.0681 260.097 86.4577 260.572 84.6898C261.047 82.9219 261.045 81.0596 260.566 79.2928C260.207 78.1799 259.431 77.249 258.401 76.695C257.371 76.1409 256.167 76.0066 255.04 76.32C252.734 76.8638 250.331 76.8522 248.03 76.2863C245.73 75.7204 243.596 74.6162 241.805 73.0647C240.014 71.5132 238.617 69.5587 237.729 67.3619C236.841 65.1652 236.488 62.789 236.697 60.4288C236.928 57.3545 238.131 54.4334 240.133 52.0885C242.134 49.7435 244.83 48.0964 247.83 47.3856C250.266 46.7503 252.803 46.601 255.297 46.9463C257.79 47.2916 260.191 48.1246 262.363 49.3979C264.535 50.6712 266.434 52.3598 267.953 54.3673C269.472 56.3747 270.581 58.6617 271.216 61.0976L274.454 73.4656Z" fill="#724F3D"/>
<path d="M274.454 73.4656C274.878 75.0896 274.977 76.7812 274.747 78.4436C274.517 80.1061 273.962 81.707 273.113 83.1547C272.264 84.6025 271.138 85.8688 269.799 86.8814C268.461 87.894 266.936 88.6329 265.312 89.056L258.678 90.7872C258.497 90.8331 258.306 90.8184 258.134 90.7453C257.962 90.6722 257.819 90.5447 257.726 90.3824C257.634 90.2201 257.597 90.0319 257.621 89.8467C257.646 89.6615 257.73 89.4894 257.862 89.3568C259.162 88.0681 260.097 86.4577 260.572 84.6898C261.047 82.9219 261.045 81.0596 260.566 79.2928C260.207 78.1799 259.431 77.249 258.401 76.695C257.371 76.1409 256.167 76.0066 255.04 76.32C252.734 76.8638 250.331 76.8522 248.03 76.2863C245.73 75.7204 243.596 74.6162 241.805 73.0647C240.014 71.5132 238.617 69.5587 237.729 67.3619C236.841 65.1652 236.488 62.789 236.697 60.4288C236.928 57.3545 238.131 54.4334 240.133 52.0885C242.134 49.7435 244.83 48.0964 247.83 47.3856C250.266 46.7503 252.803 46.601 255.297 46.9463C257.79 47.2916 260.191 48.1246 262.363 49.3979C264.535 50.6712 266.434 52.3598 267.953 54.3673C269.472 56.3747 270.581 58.6617 271.216 61.0976L274.454 73.4656Z" fill="#724F3D"/>
<path d="M236.707 60.4288C236.939 57.3544 238.143 54.4335 240.145 52.0887C242.147 49.7439 244.843 48.0967 247.843 47.3856C250.279 46.7503 252.816 46.601 255.31 46.9463C257.803 47.2916 260.204 48.1246 262.376 49.3979C264.548 50.6712 266.447 52.3598 267.966 54.3673C269.485 56.3747 270.594 58.6617 271.229 61.0976L274.454 73.4656C274.978 75.4626 275.007 77.557 274.541 79.568L274.505 79.5488L271.99 69.9488C271.356 67.5126 270.247 65.2253 268.728 63.2175C267.21 61.2097 265.31 59.5207 263.138 58.2471C260.967 56.9735 258.566 56.1402 256.072 55.7947C253.578 55.4492 251.041 55.5984 248.605 56.2336C245.967 56.9944 243.58 58.4449 241.689 60.4355C239.799 62.4261 238.473 64.8849 237.849 67.5584C236.922 65.3023 236.531 62.8617 236.707 60.4288Z" fill="#A86C4D"/>
<path d="M274.454 73.4656C274.878 75.0896 274.977 76.7812 274.747 78.4436C274.517 80.1061 273.962 81.707 273.113 83.1547C272.264 84.6025 271.138 85.8688 269.799 86.8814C268.461 87.894 266.936 88.6329 265.312 89.056L258.678 90.7872C258.497 90.8331 258.306 90.8184 258.134 90.7453C257.962 90.6722 257.819 90.5447 257.726 90.3824C257.634 90.2201 257.597 90.0319 257.621 89.8467C257.646 89.6615 257.73 89.4894 257.862 89.3568C259.162 88.0681 260.097 86.4577 260.572 84.6898C261.047 82.9219 261.045 81.0596 260.566 79.2928C260.207 78.1799 259.431 77.249 258.401 76.695C257.371 76.1409 256.167 76.0066 255.04 76.32C252.734 76.8638 250.331 76.8523 248.03 76.2863C245.73 75.7204 243.596 74.6162 241.805 73.0647C240.014 71.5132 238.617 69.5587 237.729 67.3619C236.841 65.1652 236.488 62.789 236.697 60.4288C236.928 57.3545 238.131 54.4334 240.133 52.0885C242.134 49.7435 244.83 48.0964 247.83 47.3856C250.266 46.7503 252.803 46.601 255.297 46.9463C257.79 47.2916 260.191 48.1246 262.363 49.3979C264.535 50.6712 266.434 52.3598 267.953 54.3673C269.472 56.3747 270.581 58.6617 271.216 61.0976L274.454 73.4656Z" stroke="#45413C" stroke-width="1.6" stroke-linecap="round" stroke-linejoin="round"/>
<path d="M272.32 65.219C272.749 66.8577 273.811 68.2592 275.272 69.1164C276.734 69.9736 278.475 70.2165 280.115 69.7918" stroke="#45413C" stroke-width="1.6" stroke-linecap="round" stroke-linejoin="round"/>
<path d="M269.043 161.501V177.645C269.044 180.625 268.309 183.56 266.902 186.188C265.495 188.816 263.46 191.055 260.979 192.707L259.581 193.638C259.526 193.677 259.488 193.722 259.434 193.76L268.611 205.539L269.251 205.114C273.777 202.102 277.487 198.018 280.052 193.226C282.617 188.433 283.957 183.081 283.952 177.645V161.501H269.043Z" fill="#FFCEBF" stroke="#45413C" stroke-width="1.6" stroke-linecap="round" stroke-linejoin="round"/>
<path d="M188.211 85.792C188.204 84.5774 187.775 83.403 186.998 82.4692C186.221 81.5355 185.145 80.9003 183.952 80.672V77.2736C183.876 70.5451 181.151 64.1177 176.366 59.3863C171.581 54.6549 165.124 52.0012 158.395 52.0012C151.666 52.0012 145.208 54.6549 140.424 59.3863C135.639 64.1177 132.913 70.5451 132.838 77.2736V80.6848C131.596 80.9169 130.48 81.5921 129.698 82.5851C128.916 83.5781 128.521 84.8212 128.587 86.0834C128.652 87.3455 129.174 88.5409 130.055 89.4473C130.936 90.3537 132.116 90.9095 133.376 91.0112C134.575 96.7591 137.718 101.919 142.274 105.622C146.83 109.326 152.523 111.347 158.395 111.347C164.266 111.347 169.959 109.326 174.516 105.622C179.072 101.919 182.214 96.7591 183.414 91.0112C184.719 90.8928 185.933 90.2926 186.82 89.3278C187.707 88.3629 188.203 87.1025 188.211 85.792Z" fill="#FFDA8F" stroke="#45413C" stroke-width="1.6" stroke-linecap="round" stroke-linejoin="round"/>
<path d="M141.36 88.9885C141.36 89.8355 141.696 90.6478 142.295 91.2467C142.894 91.8457 143.706 92.1821 144.553 92.1821C145.4 92.1821 146.213 91.8457 146.812 91.2467C147.411 90.6478 147.747 89.8355 147.747 88.9885C147.747 88.1415 147.411 87.3292 146.812 86.7303C146.213 86.1314 145.4 85.7949 144.553 85.7949C143.706 85.7949 142.894 86.1314 142.295 86.7303C141.696 87.3292 141.36 88.1415 141.36 88.9885Z" fill="#FFBE3D"/>
<path d="M169.046 88.9885C169.046 89.8355 169.383 90.6478 169.982 91.2467C170.581 91.8457 171.393 92.1821 172.24 92.1821C173.087 92.1821 173.899 91.8457 174.498 91.2467C175.097 90.6478 175.434 89.8355 175.434 88.9885C175.434 88.1415 175.097 87.3292 174.498 86.7303C173.899 86.1314 173.087 85.7949 172.24 85.7949C171.393 85.7949 170.581 86.1314 169.982 86.7303C169.383 87.3292 169.046 88.1415 169.046 88.9885Z" fill="#FFBE3D"/>
<path d="M169.92 81.5329C169.24 80.8552 168.32 80.4746 167.36 80.4746C166.4 80.4746 165.479 80.8552 164.8 81.5329" stroke="#45413C" stroke-width="1.6" stroke-linecap="round" stroke-linejoin="round"/>
<path d="M146.88 81.5329C147.56 80.8552 148.48 80.4746 149.44 80.4746C150.4 80.4746 151.32 80.8552 152 81.5329" stroke="#45413C" stroke-width="1.6" stroke-linecap="round" stroke-linejoin="round"/>
<path d="M164.8 96.4414C162.956 97.8225 160.714 98.569 158.411 98.569C156.107 98.569 153.866 97.8225 152.022 96.4414" stroke="#45413C" stroke-width="1.6" stroke-linecap="round" stroke-linejoin="round"/>
<path d="M189.12 72.8192C189.043 74.1388 188.465 75.3792 187.504 76.2864C186.542 77.1936 185.271 77.699 183.949 77.6992C179.651 77.6992 177.283 70.9568 176.189 66.5408C176.109 66.2109 175.94 65.9089 175.702 65.6674C175.463 65.4259 175.163 65.2539 174.834 65.17C174.505 65.0861 174.16 65.0935 173.835 65.1912C173.509 65.289 173.217 65.4734 172.989 65.7248C170.465 68.5105 167.5 70.861 164.211 72.6816C164.049 72.7683 163.867 72.8116 163.683 72.8072C163.499 72.8028 163.32 72.7509 163.162 72.6565C163.004 72.5621 162.873 72.4284 162.782 72.2685C162.692 72.1087 162.644 71.928 162.643 71.744V67.2288C162.642 67.0263 162.583 66.8283 162.473 66.658C162.363 66.4877 162.208 66.3521 162.024 66.2669C161.84 66.1817 161.636 66.1505 161.435 66.1769C161.234 66.2033 161.045 66.2863 160.89 66.416C156.026 70.6605 150.809 74.4824 145.296 77.84C144.897 78.0713 144.444 78.1935 143.982 78.1943C143.521 78.1951 143.067 78.0745 142.667 77.8446C142.267 77.6148 141.934 77.2837 141.703 76.8847C141.471 76.4856 141.348 76.0327 141.347 75.5712C138.678 76.845 135.78 77.5687 132.826 77.6992V79.8304C131.608 79.831 130.439 79.357 129.565 78.5092C128.692 77.6613 128.183 76.5064 128.147 75.2896C127.683 60.2208 135.997 45.7536 160.512 45.7536L159.514 42.752C159.392 42.3768 159.371 41.9761 159.454 41.5903C159.536 41.2046 159.719 40.8475 159.984 40.5552C160.249 40.263 160.587 40.0459 160.963 39.9259C161.339 39.8059 161.739 39.7874 162.125 39.872C165.454 40.6209 168.57 42.1129 171.241 44.2364C173.912 46.3599 176.069 49.0599 177.549 52.1344C177.549 52.1344 183.949 50.0032 188.198 64.912C188.955 67.4757 189.267 70.1502 189.12 72.8192Z" fill="#614B44"/>
<path d="M128.38 69.968C132.86 61.8048 144.604 55.9776 158.396 55.9776C173.043 55.9776 185.388 62.5504 189.158 71.5136C189.158 69.2814 188.835 67.061 188.198 64.9216C183.939 50.0128 177.548 52.144 177.548 52.144C176.068 49.0694 173.912 46.3694 171.241 44.2459C168.57 42.1224 165.453 40.6304 162.124 39.8816C161.739 39.7969 161.338 39.8155 160.962 39.9354C160.587 40.0554 160.249 40.2725 159.984 40.5648C159.719 40.857 159.536 41.2141 159.453 41.5999C159.371 41.9856 159.391 42.3864 159.513 42.7616L160.512 45.7632C138.921 45.76 129.9 56.9888 128.38 69.968Z" fill="#947063"/>
<path d="M189.12 72.8192C189.043 74.1388 188.465 75.3792 187.504 76.2864C186.542 77.1936 185.271 77.699 183.949 77.6992C179.651 77.6992 177.283 70.9568 176.189 66.5408C176.109 66.2109 175.94 65.9089 175.702 65.6674C175.463 65.4259 175.163 65.2539 174.834 65.17C174.505 65.0861 174.16 65.0935 173.835 65.1912C173.509 65.289 173.217 65.4734 172.989 65.7248C170.465 68.5105 167.5 70.861 164.211 72.6816C164.049 72.7683 163.867 72.8116 163.683 72.8072C163.499 72.8028 163.32 72.7509 163.162 72.6565C163.004 72.5621 162.873 72.4284 162.782 72.2685C162.692 72.1087 162.644 71.928 162.643 71.744V67.2288C162.642 67.0263 162.583 66.8283 162.473 66.658C162.363 66.4877 162.208 66.3521 162.024 66.2669C161.84 66.1817 161.636 66.1505 161.435 66.1769C161.234 66.2033 161.045 66.2863 160.89 66.416C156.026 70.6605 150.809 74.4824 145.296 77.84C144.897 78.0713 144.444 78.1935 143.982 78.1943C143.521 78.1951 143.067 78.0745 142.667 77.8446C142.267 77.6148 141.934 77.2837 141.703 76.8847C141.471 76.4856 141.348 76.0327 141.347 75.5712C138.678 76.845 135.78 77.5687 132.826 77.6992V79.8304C131.608 79.831 130.439 79.357 129.565 78.5092C128.692 77.6613 128.183 76.5064 128.147 75.2896C127.683 60.2208 135.997 45.7536 160.512 45.7536L159.514 42.752C159.392 42.3768 159.371 41.9761 159.454 41.5903C159.536 41.2046 159.719 40.8475 159.984 40.5552C160.249 40.263 160.587 40.0459 160.963 39.9259C161.339 39.8059 161.739 39.7874 162.125 39.872C165.454 40.6209 168.57 42.1129 171.241 44.2364C173.912 46.3599 176.069 49.0599 177.549 52.1344C177.549 52.1344 183.949 50.0032 188.198 64.912C188.955 67.4757 189.267 70.1502 189.12 72.8192Z" stroke="#45413C" stroke-width="1.6" stroke-linecap="round" stroke-linejoin="round"/>
<g clip-path="url(#clip1)">
<path d="M76.8892 153.384C76.8892 154.468 75.9506 155.145 75.1192 155.145C74.2879 155.145 73.2905 154.808 73.2905 153.384V152.691H72.1953V153.384C72.1953 154.962 73.5075 156.245 75.1192 156.245C76.7309 156.245 78.0431 154.962 78.0431 153.384V152.691H76.8892V153.384Z" fill="#130B43"/>
<path d="M67.6912 150.037C67.6912 149.002 68.5891 148.16 69.6923 148.16C70.7948 148.16 71.6927 149.003 71.6927 150.037H72.9532C72.9532 148.349 71.4911 146.977 69.6923 146.977C67.8935 146.977 66.4307 148.349 66.4307 150.037H67.6912Z" fill="#130B43"/>
<path d="M78.0784 150.037C78.0784 149.002 78.9763 148.16 80.0788 148.16C81.182 148.16 82.0799 149.003 82.0799 150.037H83.3404C83.3404 148.349 81.8776 146.977 80.0788 146.977C78.28 146.977 76.8179 148.349 76.8179 150.037H78.0784Z" fill="#130B43"/>
<path fill-rule="evenodd" clip-rule="evenodd" d="M85.3745 146.022V141.953C85.3745 140.582 85.2078 139.631 84.8744 139.099C84.5411 138.568 83.847 138.158 82.7921 137.87C82.4737 137.78 82.3145 137.636 82.3145 137.438C82.3145 137.169 82.6727 137.035 83.3892 137.035H84.4789C85.6631 137.035 86.5612 137.403 87.1732 138.138C87.7852 138.873 88.0912 139.946 88.0912 141.357V145.649C88.0912 146.643 88.1982 147.408 88.4121 147.944C88.6261 148.481 89.0216 148.983 89.5988 149.45C89.768 149.589 89.8526 149.703 89.8526 149.792C89.8526 149.882 89.768 149.996 89.5988 150.135C89.0117 150.612 88.6136 151.116 88.4047 151.648C88.1957 152.18 88.0912 152.942 88.0912 153.936V158.213C88.0912 159.634 87.7827 160.712 87.1657 161.447C86.5487 162.182 85.6531 162.55 84.4789 162.55H83.3892C82.9215 162.55 82.6254 162.527 82.501 162.483C82.3766 162.438 82.3145 162.326 82.3145 162.147C82.3145 161.899 82.4786 161.735 82.807 161.656L83.4041 161.521C84.7177 161.223 85.3745 159.927 85.3745 157.632V153.563C85.3745 152.023 85.7476 150.935 86.494 150.299L86.7776 150.061C86.9169 149.942 86.9866 149.852 86.9866 149.792C86.9866 149.723 86.9169 149.634 86.7776 149.524L86.494 149.286C85.7476 148.65 85.3745 147.562 85.3745 146.022Z" fill="#130B43"/>
<path fill-rule="evenodd" clip-rule="evenodd" d="M64.6783 145.987V141.918C64.6783 140.547 64.8449 139.596 65.1783 139.064C65.5117 138.533 66.2058 138.123 67.2606 137.835C67.5791 137.745 67.7383 137.601 67.7383 137.402C67.7383 137.134 67.38 137 66.6635 137H65.5739C64.3897 137 63.4916 137.368 62.8796 138.103C62.2676 138.838 61.9616 139.911 61.9616 141.322V145.614C61.9616 146.608 61.8546 147.373 61.6406 147.909C61.4267 148.446 61.0311 148.948 60.4539 149.415C60.2848 149.554 60.2002 149.668 60.2002 149.757C60.2002 149.847 60.2848 149.961 60.4539 150.1C61.0411 150.577 61.4391 151.081 61.6481 151.613C61.8571 152.144 61.9616 152.907 61.9616 153.9V158.178C61.9616 159.599 62.27 160.677 62.887 161.412C63.504 162.147 64.3996 162.515 65.5739 162.515H66.6635C67.1313 162.515 67.4273 162.492 67.5517 162.448C67.6761 162.403 67.7383 162.291 67.7383 162.112C67.7383 161.864 67.5741 161.7 67.2457 161.62L66.6486 161.486C65.335 161.188 64.6783 159.892 64.6783 157.597V153.528C64.6783 151.988 64.3051 150.9 63.5587 150.264L63.2751 150.026C63.1358 149.906 63.0661 149.817 63.0661 149.757C63.0661 149.688 63.1358 149.598 63.2751 149.489L63.5587 149.251C64.3051 148.615 64.6783 147.527 64.6783 145.987Z" fill="#130B43"/>
</g>
<g clip-path="url(#clip2)">
<path d="M159.889 153.384C159.889 154.468 158.951 155.145 158.119 155.145C157.288 155.145 156.29 154.808 156.29 153.384V152.691H155.195V153.384C155.195 154.962 156.507 156.245 158.119 156.245C159.731 156.245 161.043 154.962 161.043 153.384V152.691H159.889V153.384Z" fill="#130B43"/>
<path d="M150.691 150.037C150.691 149.002 151.589 148.16 152.692 148.16C153.795 148.16 154.693 149.003 154.693 150.037H155.953C155.953 148.349 154.491 146.977 152.692 146.977C150.893 146.977 149.431 148.349 149.431 150.037H150.691Z" fill="#130B43"/>
<path d="M161.078 150.037C161.078 149.002 161.976 148.16 163.079 148.16C164.182 148.16 165.08 149.003 165.08 150.037H166.34C166.34 148.349 164.878 146.977 163.079 146.977C161.28 146.977 159.818 148.349 159.818 150.037H161.078Z" fill="#130B43"/>
<path fill-rule="evenodd" clip-rule="evenodd" d="M168.374 146.022V141.953C168.374 140.582 168.208 139.631 167.874 139.099C167.541 138.568 166.847 138.158 165.792 137.87C165.474 137.78 165.314 137.636 165.314 137.438C165.314 137.169 165.673 137.035 166.389 137.035H167.479C168.663 137.035 169.561 137.403 170.173 138.138C170.785 138.873 171.091 139.946 171.091 141.357V145.649C171.091 146.643 171.198 147.408 171.412 147.944C171.626 148.481 172.022 148.983 172.599 149.45C172.768 149.589 172.853 149.703 172.853 149.792C172.853 149.882 172.768 149.996 172.599 150.135C172.012 150.612 171.614 151.116 171.405 151.648C171.196 152.18 171.091 152.942 171.091 153.936V158.213C171.091 159.634 170.783 160.712 170.166 161.447C169.549 162.182 168.653 162.55 167.479 162.55H166.389C165.921 162.55 165.625 162.527 165.501 162.483C165.377 162.438 165.314 162.326 165.314 162.147C165.314 161.899 165.479 161.735 165.807 161.656L166.404 161.521C167.718 161.223 168.374 159.927 168.374 157.632V153.563C168.374 152.023 168.748 150.935 169.494 150.299L169.778 150.061C169.917 149.942 169.987 149.852 169.987 149.792C169.987 149.723 169.917 149.634 169.778 149.524L169.494 149.286C168.748 148.65 168.374 147.562 168.374 146.022Z" fill="#130B43"/>
<path fill-rule="evenodd" clip-rule="evenodd" d="M147.678 145.987V141.918C147.678 140.547 147.845 139.596 148.178 139.064C148.512 138.533 149.206 138.123 150.261 137.835C150.579 137.745 150.738 137.601 150.738 137.402C150.738 137.134 150.38 137 149.664 137H148.574C147.39 137 146.492 137.368 145.88 138.103C145.268 138.838 144.962 139.911 144.962 141.322V145.614C144.962 146.608 144.855 147.373 144.641 147.909C144.427 148.446 144.031 148.948 143.454 149.415C143.285 149.554 143.2 149.668 143.2 149.757C143.2 149.847 143.285 149.961 143.454 150.1C144.041 150.577 144.439 151.081 144.648 151.613C144.857 152.144 144.962 152.907 144.962 153.9V158.178C144.962 159.599 145.27 160.677 145.887 161.412C146.504 162.147 147.4 162.515 148.574 162.515H149.664C150.131 162.515 150.427 162.492 150.552 162.448C150.676 162.403 150.738 162.291 150.738 162.112C150.738 161.864 150.574 161.7 150.246 161.62L149.649 161.486C148.335 161.188 147.678 159.892 147.678 157.597V153.528C147.678 151.988 147.305 150.9 146.559 150.264L146.275 150.026C146.136 149.906 146.066 149.817 146.066 149.757C146.066 149.688 146.136 149.598 146.275 149.489L146.559 149.251C147.305 148.615 147.678 147.527 147.678 145.987Z" fill="#130B43"/>
</g>
<g clip-path="url(#clip3)">
<path d="M242.889 153.384C242.889 154.468 241.951 155.145 241.119 155.145C240.288 155.145 239.29 154.808 239.29 153.384V152.691H238.195V153.384C238.195 154.962 239.507 156.245 241.119 156.245C242.731 156.245 244.043 154.962 244.043 153.384V152.691H242.889V153.384Z" fill="#130B43"/>
<path d="M233.691 150.037C233.691 149.002 234.589 148.16 235.692 148.16C236.795 148.16 237.693 149.003 237.693 150.037H238.953C238.953 148.349 237.491 146.977 235.692 146.977C233.893 146.977 232.431 148.349 232.431 150.037H233.691Z" fill="#130B43"/>
<path d="M244.078 150.037C244.078 149.002 244.976 148.16 246.079 148.16C247.182 148.16 248.08 149.003 248.08 150.037H249.34C249.34 148.349 247.878 146.977 246.079 146.977C244.28 146.977 242.818 148.349 242.818 150.037H244.078Z" fill="#130B43"/>
<path fill-rule="evenodd" clip-rule="evenodd" d="M251.374 146.022V141.953C251.374 140.582 251.208 139.631 250.874 139.099C250.541 138.568 249.847 138.158 248.792 137.87C248.474 137.78 248.314 137.636 248.314 137.438C248.314 137.169 248.673 137.035 249.389 137.035H250.479C251.663 137.035 252.561 137.403 253.173 138.138C253.785 138.873 254.091 139.946 254.091 141.357V145.649C254.091 146.643 254.198 147.408 254.412 147.944C254.626 148.481 255.022 148.983 255.599 149.45C255.768 149.589 255.853 149.703 255.853 149.792C255.853 149.882 255.768 149.996 255.599 150.135C255.012 150.612 254.614 151.116 254.405 151.648C254.196 152.18 254.091 152.942 254.091 153.936V158.213C254.091 159.634 253.783 160.712 253.166 161.447C252.549 162.182 251.653 162.55 250.479 162.55H249.389C248.921 162.55 248.625 162.527 248.501 162.483C248.377 162.438 248.314 162.326 248.314 162.147C248.314 161.899 248.479 161.735 248.807 161.656L249.404 161.521C250.718 161.223 251.374 159.927 251.374 157.632V153.563C251.374 152.023 251.748 150.935 252.494 150.299L252.778 150.061C252.917 149.942 252.987 149.852 252.987 149.792C252.987 149.723 252.917 149.634 252.778 149.524L252.494 149.286C251.748 148.65 251.374 147.562 251.374 146.022Z" fill="#130B43"/>
<path fill-rule="evenodd" clip-rule="evenodd" d="M230.678 145.987V141.918C230.678 140.547 230.845 139.596 231.178 139.064C231.512 138.533 232.206 138.123 233.261 137.835C233.579 137.745 233.738 137.601 233.738 137.402C233.738 137.134 233.38 137 232.664 137H231.574C230.39 137 229.492 137.368 228.88 138.103C228.268 138.838 227.962 139.911 227.962 141.322V145.614C227.962 146.608 227.855 147.373 227.641 147.909C227.427 148.446 227.031 148.948 226.454 149.415C226.285 149.554 226.2 149.668 226.2 149.757C226.2 149.847 226.285 149.961 226.454 150.1C227.041 150.577 227.439 151.081 227.648 151.613C227.857 152.144 227.962 152.907 227.962 153.9V158.178C227.962 159.599 228.27 160.677 228.887 161.412C229.504 162.147 230.4 162.515 231.574 162.515H232.664C233.131 162.515 233.427 162.492 233.552 162.448C233.676 162.403 233.738 162.291 233.738 162.112C233.738 161.864 233.574 161.7 233.246 161.62L232.649 161.486C231.335 161.188 230.678 159.892 230.678 157.597V153.528C230.678 151.988 230.305 150.9 229.559 150.264L229.275 150.026C229.136 149.906 229.066 149.817 229.066 149.757C229.066 149.688 229.136 149.598 229.275 149.489L229.559 149.251C230.305 148.615 230.678 147.527 230.678 145.987Z" fill="#130B43"/>
</g>
</g>
<defs>
<clipPath id="clip0">
<rect width="320" height="320" fill="white"/>
</clipPath>
<clipPath id="clip1">
<rect width="29.6673" height="25.6" fill="white" transform="translate(60.2002 137)"/>
</clipPath>
<clipPath id="clip2">
<rect width="29.6673" height="25.6" fill="white" transform="translate(143.2 137)"/>
</clipPath>
<clipPath id="clip3">
<rect width="29.6673" height="25.6" fill="white" transform="translate(226.2 137)"/>
</clipPath>
</defs>
</svg>

