<svg
  id="graphic-editor"
  viewBox="0 0 66 66"
  fill="none"
  xmlns="http://www.w3.org/2000/svg"
>
  <path
    d="M1 33C1 41.4869 4.37142 49.6263 10.3726 55.6274C16.3737 61.6286 24.5131 65 33 65C41.4869 65 49.6263 61.6286 55.6274 55.6274C61.6286 49.6263 65 41.4869 65 33C65 24.5131 61.6286 16.3737 55.6274 10.3726C49.6263 4.37142 41.4869 1 33 1C24.5131 1 16.3737 4.37142 10.3726 10.3726C4.37142 16.3737 1 24.5131 1 33Z"
    fill="#E8F4FA"
    stroke="#DAEDF7"
    stroke-width="1.4"
    stroke-linecap="round"
    stroke-linejoin="round"
  />
  <path
    opacity="0.15"
    d="M10.1978 50.9464C10.1978 51.4478 12.5872 51.9286 16.8406 52.2831C21.0939 52.6377 26.8626 52.8368 32.8778 52.8368C38.8929 52.8368 44.6616 52.6377 48.9149 52.2831C53.1683 51.9286 55.5578 51.4478 55.5578 50.9464C55.5578 50.4451 53.1683 49.9642 48.9149 49.6097C44.6616 49.2552 38.8929 49.056 32.8778 49.056C26.8626 49.056 21.0939 49.2552 16.8406 49.6097C12.5872 49.9642 10.1978 50.4451 10.1978 50.9464Z"
    fill="#45413C"
  />
  <path
    d="M58.5375 43.1711H7.21748C7.00531 43.1711 6.80183 43.2554 6.6518 43.4055C6.50177 43.5555 6.41748 43.759 6.41748 43.9711V47.1903H59.3375V43.9711C59.3375 43.759 59.2532 43.5555 59.1032 43.4055C58.9531 43.2554 58.7496 43.1711 58.5375 43.1711Z"
    fill="#F0F0F0"
    stroke="#45413C"
    stroke-width="1.4"
    stroke-linecap="round"
    stroke-linejoin="round"
  />
  <path
    d="M59.3375 47.1904H6.41748C6.8203 47.9957 7.43936 48.6729 8.20531 49.1463C8.97127 49.6196 9.85387 49.8704 10.7543 49.8704H55.0223C55.916 49.87 56.7921 49.621 57.5524 49.1512C58.3128 48.6815 58.9275 48.0095 59.3279 47.2104L59.3375 47.1904Z"
    fill="#BDBEC0"
    stroke="#45413C"
    stroke-width="1.4"
    stroke-linecap="round"
    stroke-linejoin="round"
  />
  <path
    d="M53.7199 15.0369H12.0399C11.6156 15.0369 11.2086 15.2054 10.9086 15.5055C10.6085 15.8056 10.4399 16.2125 10.4399 16.6369V43.1713H55.3199V16.6369C55.3199 16.2125 55.1514 15.8056 54.8513 15.5055C54.5513 15.2054 54.1443 15.0369 53.7199 15.0369Z"
    fill="#00B8F0"
  />
  <path
    d="M53.7199 15.0369H12.0399C11.6156 15.0369 11.2086 15.2054 10.9086 15.5055C10.6085 15.8056 10.4399 16.2125 10.4399 16.6369V43.1713H55.3199V16.6369C55.3199 16.2125 55.1514 15.8056 54.8513 15.5055C54.5513 15.2054 54.1443 15.0369 53.7199 15.0369Z"
    stroke="#45413C"
    stroke-width="1.4"
    stroke-miterlimit="10"
  />
  <path
    d="M32.8773 38.3736C30.9904 38.3786 29.1212 38.0094 27.3779 37.2872C25.6346 36.5651 24.0519 35.5043 22.7213 34.1664L22.2253 33.6704C21.9469 33.392 21.7905 33.0145 21.7905 32.6208C21.7905 32.2271 21.9469 31.8496 22.2253 31.5712C22.5037 31.2928 22.8812 31.1364 23.2749 31.1364C23.6686 31.1364 24.0461 31.2928 24.3245 31.5712L24.8205 32.0672C25.8786 33.1253 27.1347 33.9646 28.5171 34.5373C29.8996 35.1099 31.3813 35.4047 32.8777 35.4047C34.3741 35.4047 35.8558 35.1099 37.2382 34.5373C38.6207 33.9646 39.8768 33.1253 40.9349 32.0672L41.4293 31.5712C41.7077 31.2926 42.0853 31.136 42.4791 31.1359C42.8729 31.1357 43.2507 31.292 43.5293 31.5704C43.8079 31.8488 43.9645 32.2264 43.9646 32.6202C43.9648 33.014 43.8085 33.3918 43.5301 33.6704L43.0349 34.1664C41.7039 35.5042 40.1209 36.5649 38.3773 37.287C36.6338 38.0092 34.7644 38.3785 32.8773 38.3736Z"
    fill="white"
    stroke="#009FD9"
    stroke-width="1.4"
    stroke-miterlimit="10"
  />
  <path
    d="M27.3584 29.6999C26.9648 29.6995 26.5875 29.5429 26.3093 29.2645C26.031 28.9862 25.8746 28.6087 25.8744 28.2151V24.0191C25.8698 23.8213 25.9048 23.6246 25.9774 23.4404C26.0499 23.2563 26.1585 23.0886 26.2968 22.947C26.4351 22.8055 26.6003 22.693 26.7827 22.6162C26.965 22.5394 27.1609 22.4999 27.3588 22.4999C27.5567 22.4999 27.7526 22.5394 27.935 22.6162C28.1174 22.693 28.2826 22.8055 28.4208 22.947C28.5591 23.0886 28.6677 23.2563 28.7403 23.4404C28.8128 23.6246 28.8478 23.8213 28.8432 24.0191V28.2151C28.843 28.6089 28.6865 28.9864 28.4081 29.2648C28.1297 29.5432 27.7522 29.6997 27.3584 29.6999Z"
    fill="white"
    stroke="#009FD9"
    stroke-width="1.4"
    stroke-miterlimit="10"
  />
  <path
    d="M38.3969 29.7C38.0032 29.6996 37.6258 29.543 37.3475 29.2647C37.0691 28.9863 36.9125 28.6089 36.9121 28.2152V24.0192C36.9121 23.8242 36.9505 23.6312 37.0251 23.451C37.0998 23.2709 37.2091 23.1072 37.347 22.9693C37.4849 22.8314 37.6486 22.7221 37.8287 22.6474C38.0088 22.5728 38.2019 22.5344 38.3969 22.5344C38.5919 22.5344 38.785 22.5728 38.9651 22.6474C39.1453 22.7221 39.3089 22.8314 39.4468 22.9693C39.5847 23.1072 39.6941 23.2709 39.7687 23.451C39.8433 23.6312 39.8817 23.8242 39.8817 24.0192V28.2152C39.8813 28.6089 39.7247 28.9863 39.4464 29.2647C39.168 29.543 38.7906 29.6996 38.3969 29.7Z"
    fill="white"
    stroke="#009FD9"
    stroke-width="1.4"
    stroke-miterlimit="10"
  />
</svg>
