<svg
  id="graphic-exercise"
  viewBox="0 0 66 66"
  fill="none"
  xmlns="http://www.w3.org/2000/svg"
>
  <path
    d="M1 33C1 41.4869 4.37142 49.6263 10.3726 55.6274C16.3737 61.6286 24.5131 65 33 65C41.4869 65 49.6263 61.6286 55.6274 55.6274C61.6286 49.6263 65 41.4869 65 33C65 24.5131 61.6286 16.3737 55.6274 10.3726C49.6263 4.37142 41.4869 1 33 1C24.5131 1 16.3737 4.37142 10.3726 10.3726C4.37142 16.3737 1 24.5131 1 33Z"
    fill="#E8F4FA"
    stroke="#DAEDF7"
    stroke-width="1.4"
    stroke-miterlimit="10"
  />
  <path
    opacity="0.15"
    d="M22.5205 54.8708C22.5205 55.2217 23.7286 55.5583 25.8789 55.8065C28.0293 56.0546 30.9458 56.194 33.9869 56.194C37.028 56.194 39.9445 56.0546 42.0949 55.8065C44.2452 55.5583 45.4533 55.2217 45.4533 54.8708C45.4533 54.5199 44.2452 54.1833 42.0949 53.9352C39.9445 53.687 37.028 53.5476 33.9869 53.5476C30.9458 53.5476 28.0293 53.687 25.8789 53.9352C23.7286 54.1833 22.5205 54.5199 22.5205 54.8708Z"
    fill="#45413C"
  />
  <path
    d="M23.0005 36.6392L40.1003 24.162L42.5958 27.5819L25.4959 40.0591L23.0005 36.6392Z"
    fill="#656769"
  />
  <path
    d="M23.0005 36.6419L23.4165 37.2115L25.6965 35.5483C25.8478 35.4387 26.0363 35.3933 26.2209 35.4221C26.4056 35.4509 26.5713 35.5514 26.6821 35.7019L29.5325 33.6219C29.4227 33.4706 29.3774 33.282 29.4063 33.0973C29.4352 32.9126 29.5361 32.7468 29.6869 32.6363L34.2469 29.3091C34.3983 29.1992 34.587 29.1537 34.7718 29.1825C34.9566 29.2113 35.1225 29.312 35.2333 29.4627L38.0829 27.3827C37.9731 27.2313 37.9277 27.0425 37.9566 26.8577C37.9855 26.6728 38.0865 26.507 38.2373 26.3963L40.5173 24.7331L40.1013 24.1627L23.0005 36.6419Z"
    fill="#87898C"
  />
  <path
    d="M34.2778 16.1823L39.9778 12.0232L54.1186 31.403L48.4186 35.5621L34.2778 16.1823Z"
    fill="#525252"
  />
  <path
    d="M42.0571 14.8734L47.7571 10.7144L57.7388 24.3942L52.0389 28.5533L42.0571 14.8734Z"
    fill="#525252"
  />
  <path
    d="M7.85742 39.8282L13.5574 35.6692L23.5391 49.3491L17.8392 53.5081L7.85742 39.8282Z"
    fill="#525252"
  />
  <path
    d="M11.478 32.8186L17.178 28.6595L31.3188 48.0393L25.6188 52.1984L11.478 32.8186Z"
    fill="#525252"
  />
  <path
    d="M39.7461 29.6619C39.8007 29.7367 39.8695 29.8001 39.9486 29.8483C40.0277 29.8966 40.1156 29.9288 40.2071 29.943C40.2986 29.9573 40.3921 29.9534 40.4821 29.9315C40.5721 29.9096 40.657 29.8702 40.7317 29.8155L43.0149 28.1523L39.6877 23.5923L37.4077 25.2555C37.3329 25.3102 37.2696 25.3791 37.2214 25.4583C37.1733 25.5375 37.1412 25.6254 37.127 25.717C37.1128 25.8086 37.1168 25.9021 37.1387 25.9922C37.1607 26.0822 37.2002 26.1671 37.2549 26.2419L39.7461 29.6619Z"
    fill="#ADC4D9"
  />
  <path
    d="M54.4117 19.8339L56.1221 18.5867C56.4243 18.366 56.6265 18.0343 56.6842 17.6645C56.742 17.2947 56.6506 16.9171 56.4301 16.6147L54.7661 14.3347C54.6568 14.185 54.5192 14.0583 54.3609 13.9618C54.2027 13.8653 54.027 13.8009 53.8439 13.7723C53.6608 13.7437 53.4738 13.7514 53.2937 13.7951C53.1135 13.8387 52.9438 13.9175 52.7941 14.0267L51.0845 15.2739L54.4117 19.8339Z"
    fill="#ADC4D9"
  />
  <path
    d="M10.8298 49.8867C11.0505 50.189 11.3822 50.3913 11.7519 50.4492C12.1217 50.5071 12.4993 50.4158 12.8018 50.1954L14.5114 48.9474L11.1842 44.3875L9.47464 45.6354C9.32486 45.7446 9.19807 45.8821 9.10151 46.0403C9.00495 46.1985 8.94052 46.3741 8.91192 46.5572C8.88331 46.7403 8.89108 46.9272 8.93479 47.1073C8.9785 47.2874 9.05729 47.457 9.16664 47.6066L10.8298 49.8867Z"
    fill="#ADC4D9"
  />
  <path
    d="M25.9117 40.6291L28.1917 38.9659C28.2666 38.9113 28.3301 38.8424 28.3784 38.7633C28.4267 38.6842 28.459 38.5963 28.4733 38.5047C28.4877 38.4131 28.4838 38.3195 28.462 38.2294C28.4401 38.1393 28.4008 38.0544 28.3461 37.9795L25.8509 34.5619C25.7404 34.4108 25.5744 34.3098 25.3895 34.281C25.2045 34.2522 25.0157 34.298 24.8645 34.4083L22.5845 36.0715L25.9117 40.6291Z"
    fill="#ADC4D9"
  />
  <path
    d="M28.2842 31.9102L33.9841 27.7511L37.3114 32.311L31.6114 36.4701L28.2842 31.9102Z"
    fill="#ADC4D9"
  />
  <path
    d="M37.2547 26.2419L38.0859 27.3819C37.9761 27.2304 37.9307 27.0417 37.9596 26.8568C37.9886 26.672 38.0895 26.5062 38.2403 26.3955L40.5203 24.7323L39.6883 23.5923L37.4083 25.2555C37.2576 25.3663 37.1568 25.5322 37.1281 25.717C37.0993 25.9018 37.1448 26.0905 37.2547 26.2419Z"
    fill="#C0DCEB"
  />
  <path
    d="M51.0845 15.2739L51.9165 16.4139L53.6261 15.1668C53.9288 14.9471 54.3061 14.8562 54.6756 14.9139C55.0451 14.9716 55.3768 15.1733 55.5981 15.4747L54.7661 14.3347C54.5448 14.0333 54.2131 13.8316 53.8436 13.7739C53.4741 13.7162 53.0968 13.8071 52.7941 14.0267L51.0845 15.2739Z"
    fill="#C0DCEB"
  />
  <path
    d="M9.1667 47.6066L9.9987 48.7466C9.7791 48.4441 9.68822 48.0669 9.74593 47.6975C9.80365 47.3281 10.0053 46.9966 10.3067 46.7755L12.0163 45.5274L11.1843 44.3875L9.4747 45.6354C9.17326 45.8566 8.97165 46.1881 8.91393 46.5575C8.85622 46.9269 8.9471 47.3041 9.1667 47.6066Z"
    fill="#C0DCEB"
  />
  <path
    d="M22.5845 36.0691L23.4165 37.2091L25.6965 35.5459C25.8478 35.4363 26.0363 35.3909 26.2209 35.4197C26.4055 35.4484 26.5713 35.549 26.6821 35.6995L25.8509 34.5619C25.74 34.4114 25.5741 34.3108 25.3893 34.282C25.2045 34.2532 25.0159 34.2986 24.8645 34.4083L22.5845 36.0691Z"
    fill="#C0DCEB"
  />
  <path
    d="M28.7004 32.482L29.5324 33.622C29.4227 33.4706 29.3773 33.282 29.4062 33.0973C29.4352 32.9126 29.536 32.7469 29.6868 32.6364L34.2468 29.3092C34.3982 29.1993 34.5869 29.1537 34.7717 29.1825C34.9565 29.2113 35.1224 29.3121 35.2332 29.4628L34.4004 28.322C34.2899 28.1712 34.1242 28.0703 33.9395 28.0414C33.7548 28.0124 33.5662 28.0578 33.4148 28.1676L28.8548 31.4948C28.7036 31.6053 28.6024 31.7713 28.5734 31.9564C28.5445 32.1415 28.5902 32.3305 28.7004 32.482Z"
    fill="#C0DCEB"
  />
  <path
    d="M35.9412 18.4628L38.0212 21.3124C37.8026 21.013 37.645 20.6735 37.5577 20.3132C37.4703 19.9529 37.4548 19.579 37.512 19.2127C37.5692 18.8464 37.698 18.495 37.8911 18.1786C38.0841 17.8621 38.3377 17.5868 38.6372 17.3684L39.7772 16.5372C40.0766 16.3186 40.4161 16.1612 40.7764 16.0739C41.1366 15.9865 41.5106 15.971 41.8768 16.0282C42.243 16.0854 42.5944 16.2142 42.9109 16.4072C43.2274 16.6003 43.5027 16.8537 43.7212 17.1532L41.6412 14.3036C41.4229 14.004 41.1477 13.7504 40.8314 13.5573C40.515 13.3641 40.1637 13.2352 39.7974 13.1779C39.4312 13.1206 39.0573 13.1361 38.6971 13.2234C38.3369 13.3107 37.9974 13.4682 37.698 13.6868L36.558 14.5188C36.2584 14.7371 36.0048 15.0124 35.8117 15.3288C35.6185 15.6453 35.4896 15.9967 35.4323 16.3629C35.375 16.7292 35.3905 17.1032 35.4778 17.4635C35.5651 17.8238 35.7226 18.1633 35.9412 18.4628Z"
    fill="#656769"
  />
  <path
    d="M43.721 17.1531L45.8002 20.0019C45.5816 19.7025 45.4242 19.363 45.3369 19.0027C45.2496 18.6425 45.2341 18.2685 45.2913 17.9023C45.3485 17.5361 45.4773 17.1847 45.6703 16.8682C45.8633 16.5517 46.1168 16.2764 46.4162 16.0579L47.5562 15.2259C47.8556 15.0073 48.1952 14.8498 48.5555 14.7625C48.9158 14.6752 49.2897 14.6597 49.656 14.717C50.0223 14.7743 50.3737 14.9032 50.6901 15.0963C51.0066 15.2895 51.2818 15.5431 51.5002 15.8427L49.4202 12.9923C49.2018 12.6929 48.9265 12.4394 48.6101 12.2464C48.2937 12.0534 47.9424 11.9246 47.5762 11.8674C47.21 11.8102 46.8362 11.8257 46.476 11.913C46.1158 12.0003 45.7763 12.1578 45.477 12.3763L44.337 13.2083C44.0373 13.4267 43.7836 13.702 43.5903 14.0185C43.3971 14.335 43.2682 14.6866 43.211 15.053C43.1538 15.4194 43.1694 15.7934 43.2569 16.1538C43.3444 16.5142 43.5021 16.8537 43.721 17.1531Z"
    fill="#656769"
  />
  <path
    d="M34.2778 16.1823L39.9778 12.0232L54.1186 31.403L48.4186 35.5621L34.2778 16.1823Z"
    stroke="#45413C"
    stroke-width="1.4"
    stroke-linecap="round"
    stroke-linejoin="round"
  />
  <path
    d="M42.0571 14.8734L47.7571 10.7144L57.7388 24.3942L52.0389 28.5533L42.0571 14.8734Z"
    stroke="#45413C"
    stroke-width="1.4"
    stroke-linecap="round"
    stroke-linejoin="round"
  />
  <path
    d="M9.52121 42.1075L11.6012 44.9579C11.3826 44.6584 11.2251 44.3189 11.1378 43.9586C11.0505 43.5983 11.035 43.2243 11.0923 42.858C11.1496 42.4918 11.2785 42.1404 11.4717 41.8239C11.6648 41.5075 11.9184 41.2322 12.218 41.0139L13.358 40.1819C13.6575 39.9636 13.9971 39.8064 14.3574 39.7194C14.7177 39.6324 15.0916 39.6173 15.4577 39.6749C15.8238 39.7325 16.175 39.8616 16.4912 40.055C16.8074 40.2484 17.0824 40.5022 17.3004 40.8019L15.2204 37.9515C15.0019 37.652 14.7266 37.3986 14.4101 37.2055C14.0936 37.0125 13.7423 36.8837 13.376 36.8265C13.0098 36.7693 12.6358 36.7848 12.2756 36.8722C11.9153 36.9595 11.5758 37.1169 11.2764 37.3355L10.1348 38.1619C9.83525 38.3805 9.58172 38.656 9.38873 38.9727C9.19573 39.2894 9.06706 39.641 9.01008 40.0075C8.95309 40.3739 8.9689 40.748 9.0566 41.1083C9.14431 41.4687 9.30219 41.8082 9.52121 42.1075Z"
    fill="#656769"
  />
  <path
    d="M7.85742 39.8282L13.5574 35.6692L23.5391 49.3491L17.8392 53.5081L7.85742 39.8282Z"
    stroke="#45413C"
    stroke-width="1.4"
    stroke-linecap="round"
    stroke-linejoin="round"
  />
  <path
    d="M13.1411 35.0988L15.2211 37.9484C15.0026 37.6491 14.8451 37.3096 14.7578 36.9494C14.6705 36.5892 14.655 36.2154 14.7122 35.8492C14.7694 35.483 14.8982 35.1317 15.0912 34.8153C15.2842 34.4989 15.5377 34.2236 15.8371 34.0052L16.9771 33.1732C17.2765 32.9546 17.616 32.7972 17.9763 32.7099C18.3365 32.6226 18.7104 32.6071 19.0767 32.6643C19.4429 32.7215 19.7943 32.8503 20.1108 33.0433C20.4272 33.2363 20.7026 33.4898 20.9211 33.7892L18.8411 30.9396C18.6227 30.6401 18.3475 30.3866 18.0311 30.1935C17.7148 30.0004 17.3635 29.8716 16.9973 29.8143C16.6311 29.757 16.2572 29.7724 15.897 29.8597C15.5368 29.9469 15.1973 30.1043 14.8979 30.3228L13.7579 31.1548C13.4584 31.3732 13.2049 31.6485 13.0118 31.965C12.8187 32.2814 12.6898 32.6328 12.6325 32.999C12.5753 33.3653 12.5907 33.7392 12.6779 34.0995C12.7652 34.4598 12.9226 34.7993 13.1411 35.0988Z"
    fill="#656769"
  />
  <path
    d="M11.478 32.8186L17.178 28.6595L31.3188 48.0393L25.6188 52.1984L11.478 32.8186Z"
    stroke="#45413C"
    stroke-width="1.4"
    stroke-linecap="round"
    stroke-linejoin="round"
  />
  <path
    d="M34.4004 28.3214L37.2504 26.2419L39.7458 29.6618L36.8958 31.7414L34.4004 28.3214Z"
    stroke="#45413C"
    stroke-width="1.4"
    stroke-linecap="round"
    stroke-linejoin="round"
  />
  <path
    d="M25.8511 34.5596L28.701 32.48L31.1965 35.9L28.3465 37.9795L25.8511 34.5596Z"
    stroke="#45413C"
    stroke-width="1.4"
    stroke-linecap="round"
    stroke-linejoin="round"
  />
  <path
    d="M39.7461 29.6619C39.8007 29.7367 39.8695 29.8001 39.9486 29.8483C40.0277 29.8966 40.1156 29.9288 40.2071 29.943C40.2986 29.9573 40.3921 29.9534 40.4821 29.9315C40.5721 29.9096 40.657 29.8702 40.7317 29.8155L43.0149 28.1523L39.6877 23.5923L37.4077 25.2555C37.3329 25.3102 37.2696 25.3791 37.2214 25.4583C37.1733 25.5375 37.1412 25.6254 37.127 25.717C37.1128 25.8086 37.1168 25.9021 37.1387 25.9922C37.1607 26.0822 37.2002 26.1671 37.2549 26.2419L39.7461 29.6619Z"
    stroke="#45413C"
    stroke-width="1.4"
    stroke-linecap="round"
    stroke-linejoin="round"
  />
  <path
    d="M54.4117 19.8339L56.1221 18.5867C56.4243 18.366 56.6265 18.0343 56.6842 17.6645C56.742 17.2947 56.6506 16.9171 56.4301 16.6147L54.7661 14.3347C54.6568 14.185 54.5192 14.0583 54.3609 13.9618C54.2027 13.8653 54.027 13.8009 53.8439 13.7723C53.6608 13.7437 53.4738 13.7514 53.2937 13.7951C53.1135 13.8387 52.9438 13.9175 52.7941 14.0267L51.0845 15.2739L54.4117 19.8339Z"
    stroke="#45413C"
    stroke-width="1.4"
    stroke-linecap="round"
    stroke-linejoin="round"
  />
  <path
    d="M10.8298 49.8867C11.0505 50.189 11.3822 50.3913 11.7519 50.4492C12.1217 50.5071 12.4993 50.4158 12.8018 50.1954L14.5114 48.9474L11.1842 44.3875L9.47464 45.6354C9.32486 45.7446 9.19807 45.8821 9.10151 46.0403C9.00495 46.1985 8.94052 46.3741 8.91192 46.5572C8.88331 46.7403 8.89108 46.9272 8.93479 47.1073C8.9785 47.2874 9.05729 47.457 9.16664 47.6066L10.8298 49.8867Z"
    stroke="#45413C"
    stroke-width="1.4"
    stroke-linecap="round"
    stroke-linejoin="round"
  />
  <path
    d="M25.9117 40.6291L28.1917 38.9659C28.2666 38.9113 28.3301 38.8424 28.3784 38.7633C28.4267 38.6842 28.459 38.5963 28.4733 38.5047C28.4877 38.4131 28.4838 38.3195 28.462 38.2294C28.4401 38.1393 28.4008 38.0544 28.3461 37.9795L25.8509 34.5619C25.7403 34.4108 25.5744 34.3098 25.3895 34.281C25.2045 34.2522 25.0157 34.298 24.8645 34.4083L22.5845 36.0715L25.9117 40.6291Z"
    stroke="#45413C"
    stroke-width="1.4"
    stroke-linecap="round"
    stroke-linejoin="round"
  />
  <path
    d="M28.2842 31.9102L33.9841 27.7511L37.3114 32.311L31.6114 36.4701L28.2842 31.9102Z"
    stroke="#45413C"
    stroke-width="1.4"
    stroke-linecap="round"
    stroke-linejoin="round"
  />
</svg>
