<svg
  id="graphic-gratitude"
  viewBox="0 0 32 32"
  fill="none"
  xmlns="http://www.w3.org/2000/svg"
>
  <path
    d="M0 16C0 20.2435 1.68571 24.3131 4.68629 27.3137C7.68687 30.3143 11.7565 32 16 32C20.2435 32 24.3131 30.3143 27.3137 27.3137C30.3143 24.3131 32 20.2435 32 16C32 11.7565 30.3143 7.68687 27.3137 4.68629C24.3131 1.68571 20.2435 0 16 0C11.7565 0 7.68687 1.68571 4.68629 4.68629C1.68571 7.68687 0 11.7565 0 16Z"
    fill="#FFF3E1"
  />
  <path
    d="M19.3689 2.8292C19.4083 2.83772 19.4453 2.85521 19.4769 2.88033C19.5085 2.90544 19.5339 2.93751 19.5512 2.97403C19.5684 3.01055 19.5769 3.05054 19.5762 3.09091C19.5755 3.13128 19.5654 3.17094 19.5469 3.2068L17.9277 6.3144C17.9005 6.36623 17.8568 6.4075 17.8035 6.43163C17.7502 6.45576 17.6903 6.46138 17.6334 6.44758C17.5766 6.43379 17.5259 6.40138 17.4896 6.3555C17.4532 6.30963 17.4333 6.25292 17.4329 6.1944L17.4009 2.736C17.4009 2.69681 17.4098 2.65814 17.4267 2.62281C17.4437 2.58749 17.4683 2.55641 17.4989 2.53185C17.5294 2.5073 17.565 2.4899 17.6032 2.48093C17.6413 2.47195 17.681 2.47164 17.7193 2.48L19.3689 2.8292Z"
    fill="#FFE500"
  />
  <path
    fill-rule="evenodd"
    clip-rule="evenodd"
    d="M17.6205 2.93595L17.6231 2.93649L17.6205 2.93595ZM17.8708 2.98893L19.0095 3.22998L17.8928 5.37306L17.8708 2.98893ZM17.8179 2.02372C17.7121 2.0009 17.6025 2.00191 17.4972 2.0267C17.3912 2.05163 17.2921 2.09998 17.2073 2.1682C17.1224 2.23642 17.0539 2.32278 17.0068 2.42093C16.9597 2.51909 16.9352 2.62654 16.9351 2.73541L16.9671 6.19768C16.9671 6.1979 16.9671 6.19813 16.9671 6.19835"
    fill="#45413C"
  />
  <path
    d="M24.5153 6.09039C24.5418 6.12099 24.5608 6.1573 24.5708 6.19646C24.5809 6.23563 24.5818 6.27659 24.5733 6.31615C24.5649 6.3557 24.5475 6.39278 24.5224 6.42446C24.4972 6.45615 24.4651 6.48159 24.4285 6.49879L21.2593 7.99359C21.2065 8.01751 21.1472 8.02326 21.0908 8.00995C21.0344 7.99663 20.9839 7.965 20.9474 7.91999C20.9108 7.87498 20.8902 7.81913 20.8888 7.76117C20.8873 7.7032 20.9051 7.64638 20.9393 7.59959L23.0061 4.82679C23.0295 4.79526 23.0598 4.7694 23.0945 4.75112C23.1293 4.73284 23.1677 4.72262 23.207 4.7212C23.2462 4.71977 23.2853 4.7272 23.3213 4.74291C23.3573 4.75863 23.3893 4.78224 23.4149 4.81199L24.5153 6.09039Z"
    fill="#FFE500"
  />
  <path
    fill-rule="evenodd"
    clip-rule="evenodd"
    d="M23.2278 5.31012L23.9863 6.19136L21.8035 7.22092L23.2278 5.31012ZM24.1621 6.39552C24.1619 6.39531 24.1617 6.39509 24.1615 6.39487L24.1621 6.39552ZM23.19 4.25487C23.2991 4.25092 23.4078 4.27157 23.5079 4.31527C23.608 4.35898 23.697 4.42464 23.7683 4.5074L24.8683 5.78534C24.8684 5.78547 24.8682 5.78521 24.8683 5.78534C24.9417 5.87036 24.9947 5.97158 25.0227 6.08034C25.0507 6.18928 25.0531 6.30321 25.0297 6.4132C25.0063 6.5232 24.9578 6.62631 24.8879 6.71444C24.8181 6.80241 24.729 6.87307 24.6275 6.9209L21.4517 8.41879C21.305 8.48525 21.1403 8.50118 20.9835 8.46418C20.8267 8.42718 20.6866 8.33929 20.585 8.21424C20.4834 8.08918 20.4262 7.93401 20.4221 7.77295C20.4181 7.61189 20.4675 7.45403 20.5626 7.32403L20.565 7.32073L22.6314 4.54856C22.6315 4.54842 22.6313 4.54869 22.6314 4.54856C22.6965 4.46105 22.7807 4.38886 22.8772 4.33811C22.9739 4.28727 23.0808 4.25882 23.19 4.25487Z"
    fill="#45413C"
  />
  <path
    d="M12.28 2.82921C12.2405 2.83758 12.2034 2.85499 12.1717 2.88008C12.14 2.90517 12.1145 2.93725 12.0973 2.97382C12.08 3.01039 12.0715 3.05045 12.0723 3.09088C12.0731 3.1313 12.0833 3.17098 12.102 3.20681L13.7212 6.31441C13.7484 6.36625 13.7921 6.40751 13.8454 6.43164C13.8987 6.45578 13.9586 6.46139 14.0155 6.4476C14.0723 6.43381 14.123 6.40139 14.1593 6.35552C14.1957 6.30964 14.2156 6.25294 14.216 6.19442L14.248 2.73601C14.2483 2.69676 14.2398 2.65794 14.2232 2.62241C14.2065 2.58687 14.182 2.55553 14.1516 2.5307C14.1212 2.50587 14.0857 2.48817 14.0475 2.47891C14.0094 2.46966 13.9696 2.46908 13.9312 2.47721L12.28 2.82921Z"
    fill="#FFE500"
  />
  <path
    fill-rule="evenodd"
    clip-rule="evenodd"
    d="M13.8347 2.02073C13.9414 1.99811 14.0518 1.99972 14.1578 2.02544C14.2638 2.05116 14.3626 2.10034 14.4471 2.16933C14.5316 2.23833 14.5995 2.32541 14.6458 2.42413C14.6922 2.52286 14.7158 2.63073 14.7149 2.73979L14.6829 6.1977C14.6829 6.19791 14.6829 6.19748 14.6829 6.1977M12.1836 2.3727C12.1838 2.37267 12.1835 2.37273 12.1836 2.3727L13.8347 2.02073L12.1836 2.3727ZM13.7792 2.98685L12.6403 3.22964L13.7572 5.37307L13.7792 2.98685ZM13.7496 6.19121C13.7496 6.19085 13.7496 6.19049 13.7496 6.19014L13.7496 6.19121ZM12.5159 2.99084C12.5158 2.99071 12.516 2.99096 12.5159 2.99084V2.99084Z"
    fill="#45413C"
  />
  <path
    d="M7.13613 6.09037C7.10968 6.12095 7.09066 6.15723 7.08057 6.19637C7.07047 6.23552 7.06957 6.27647 7.07794 6.31602C7.08631 6.35557 7.10371 6.39265 7.1288 6.42436C7.15388 6.45606 7.18596 6.48153 7.22253 6.49877L10.3917 7.99357C10.4445 8.01749 10.5038 8.02324 10.5602 8.00993C10.6167 7.99661 10.6671 7.96498 10.7037 7.91997C10.7402 7.87496 10.7608 7.81911 10.7623 7.76115C10.7638 7.70318 10.746 7.64636 10.7117 7.59957L8.64533 4.82677C8.62186 4.79595 8.59185 4.77071 8.55746 4.75287C8.52306 4.73504 8.48514 4.72506 8.44643 4.72364C8.40771 4.72222 8.36916 4.72941 8.33356 4.74469C8.29795 4.75996 8.26618 4.78294 8.24053 4.81197L7.13613 6.09037Z"
    fill="#FFE500"
  />
  <path
    fill-rule="evenodd"
    clip-rule="evenodd"
    d="M8.14944 4.31586C8.24846 4.27338 8.35567 4.25339 8.46335 4.25732C8.57102 4.26126 8.67648 4.28902 8.77214 4.33862C8.8678 4.38822 8.95126 4.45842 9.01652 4.54415L9.0194 4.54794L11.0882 7.32399C11.1833 7.454 11.2327 7.61187 11.2287 7.77293C11.2246 7.93398 11.1673 8.08916 11.0658 8.21421C10.9642 8.33927 10.8241 8.42716 10.6673 8.46416C10.5105 8.50116 10.3458 8.48518 10.1991 8.41872L10.1925 8.41573L7.02337 6.92091C7.02336 6.9209 7.02339 6.92092 7.02337 6.92091C6.9217 6.87296 6.83245 6.80211 6.76269 6.71395C6.69293 6.62577 6.64452 6.52265 6.62125 6.41265C6.59797 6.30264 6.60048 6.18875 6.62855 6.07988C6.6566 5.97112 6.70941 5.87031 6.78286 5.78534L7.89068 4.50297C7.96203 4.42223 8.05042 4.35834 8.14944 4.31586ZM8.42495 5.31223L9.84741 7.22097L7.66519 6.19169L8.42495 5.31223Z"
    fill="#45413C"
  />
  <path
    d="M10.2395 30.8953V26.7797C10.2396 26.3132 10.3951 25.86 10.6815 25.4917L14.8923 21.0553C14.9925 20.9585 15.0724 20.8428 15.1274 20.7148C15.1823 20.5868 15.2113 20.4492 15.2125 20.3099C15.2137 20.1707 15.1871 20.0326 15.1344 19.9037C15.0816 19.7748 15.0037 19.6577 14.9052 19.5592C14.8067 19.4607 14.6896 19.3829 14.5607 19.3301C14.4318 19.2774 14.2937 19.2509 14.1544 19.2521C14.0151 19.2534 13.8775 19.2823 13.7495 19.3373C13.6216 19.3923 13.5059 19.4723 13.4091 19.5725L11.7167 21.2649C11.6847 21.2967 11.645 21.3198 11.6016 21.3319C11.5581 21.344 11.5122 21.3447 11.4683 21.3341C11.3795 21.3121 11.3403 21.2273 11.2807 21.1577C10.8737 20.607 10.6893 19.9231 10.7643 19.2425V18.1937H2.37354V19.5049C2.3736 21.4046 2.78989 23.2813 3.59313 25.0029L3.90993 25.6829C4.10705 26.1049 4.20918 26.5651 4.20914 27.0309V30.8969"
    fill="#FFDA8F"
  />
  <path
    fill-rule="evenodd"
    clip-rule="evenodd"
    d="M1.90771 18.1935C1.90771 17.9358 2.11665 17.7269 2.37438 17.7269H10.7652C11.0229 17.7269 11.2318 17.9358 11.2318 18.1935V19.2423C11.2318 19.2594 11.2309 19.2765 11.229 19.2935C11.1725 19.8061 11.2936 20.3209 11.5694 20.753L13.0774 19.245C13.2165 19.1017 13.3826 18.9874 13.5661 18.9085C13.751 18.829 13.9499 18.7871 14.1511 18.7854C14.3523 18.7836 14.5519 18.8219 14.7382 18.8981C14.9245 18.9742 15.0937 19.0867 15.236 19.229C15.3783 19.3713 15.4909 19.5405 15.5671 19.7268C15.6433 19.913 15.6817 20.1126 15.68 20.3138C15.6782 20.5151 15.6364 20.7139 15.557 20.8989C15.4791 21.0804 15.3664 21.2449 15.2253 21.3831L11.0377 25.7951C10.8233 26.0783 10.7071 26.424 10.707 26.7795C10.707 26.7796 10.707 26.7795 10.707 26.7795V30.8952C10.707 31.1529 10.4981 31.3618 10.2404 31.3618C9.98265 31.3618 9.77372 31.1529 9.77372 30.8952V26.7795C9.77382 26.2093 9.96393 25.6552 10.314 25.2051C10.3234 25.193 10.3334 25.1814 10.3439 25.1703L14.5547 20.7339C14.5594 20.729 14.5641 20.7242 14.569 20.7195C14.6246 20.6658 14.6689 20.6015 14.6994 20.5305C14.7299 20.4595 14.746 20.3831 14.7467 20.3058C14.7473 20.2285 14.7326 20.1518 14.7033 20.0803C14.674 20.0087 14.6308 19.9437 14.5761 19.8891C14.5215 19.8344 14.4565 19.7912 14.3849 19.7619C14.3134 19.7327 14.2367 19.718 14.1594 19.7187C14.0821 19.7193 14.0057 19.7354 13.9347 19.7659C13.8637 19.7965 13.7994 19.8408 13.7457 19.8965L13.74 19.9024L12.0476 21.5947L12.0464 21.5959C11.9578 21.6839 11.848 21.7478 11.7276 21.7813C11.6073 21.8148 11.4803 21.8169 11.3589 21.7874L11.357 21.7869C11.1809 21.7433 11.0713 21.6378 11.0121 21.5696C10.9859 21.5394 10.9633 21.509 10.9511 21.4926L10.9491 21.4898C10.9339 21.4694 10.9298 21.4642 10.9271 21.4611C10.9199 21.4526 10.9129 21.4439 10.9063 21.435C10.4347 20.797 10.2182 20.0063 10.2985 19.2177V18.6602H2.84105V19.5047C2.84105 19.5047 2.84105 19.5047 2.84105 19.5047C2.84111 21.3363 3.24247 23.1456 4.01688 24.8054L4.33361 25.4853C4.33367 25.4854 4.33354 25.4851 4.33361 25.4853M1.90771 18.1935V19.5047V18.1935ZM1.90771 19.5047C1.90778 21.4726 2.33898 23.4165 3.17097 25.1998L1.90771 19.5047ZM3.17097 25.1998C3.17093 25.1997 3.17101 25.1999 3.17097 25.1998V25.1998ZM3.17097 25.1998L3.48777 25.8798C3.656 26.24 3.74335 26.6332 3.74332 27.0307V30.8968C3.74332 31.1545 3.95225 31.3634 4.20998 31.3634C4.46771 31.3634 4.67665 31.1545 4.67665 30.8968V27.0308C4.67665 27.0308 4.67665 27.0308 4.67665 27.0308"
    fill="#45413C"
  />
  <path
    d="M7.24763 25.6584C6.01156 25.6566 4.78427 25.4507 3.61523 25.0492L3.91003 25.6812C4.10715 26.1033 4.20928 26.5634 4.20923 27.0292V30.8952H10.2396V26.7796C10.2397 26.3131 10.3952 25.8599 10.6816 25.4916L11.2192 24.9248C9.95066 25.4076 8.60498 25.6562 7.24763 25.6584Z"
    fill="#FFBE3D"
  />
  <path
    fill-rule="evenodd"
    clip-rule="evenodd"
    d="M1.90771 18.1935C1.90771 17.9358 2.11665 17.7269 2.37438 17.7269H10.7652C11.0229 17.7269 11.2318 17.9358 11.2318 18.1935V19.2423C11.2318 19.2594 11.2309 19.2765 11.229 19.2935C11.1725 19.8061 11.2936 20.3209 11.5694 20.753L13.0774 19.245C13.2165 19.1017 13.3826 18.9874 13.5661 18.9085C13.751 18.829 13.9499 18.7871 14.1511 18.7854C14.3523 18.7836 14.5519 18.8219 14.7382 18.8981C14.9245 18.9742 15.0937 19.0867 15.236 19.229C15.3783 19.3713 15.4909 19.5405 15.5671 19.7268C15.6433 19.913 15.6817 20.1126 15.68 20.3138C15.6782 20.5151 15.6364 20.7139 15.557 20.8989C15.4791 21.0804 15.3664 21.2449 15.2253 21.3831L11.0377 25.7951C10.8233 26.0783 10.7071 26.424 10.707 26.7795C10.707 26.7796 10.707 26.7795 10.707 26.7795V30.8952C10.707 31.1529 10.4981 31.3618 10.2404 31.3618C9.98265 31.3618 9.77372 31.1529 9.77372 30.8952V26.7795C9.77382 26.2093 9.96393 25.6552 10.314 25.2051C10.3234 25.193 10.3334 25.1814 10.3439 25.1703L14.5547 20.7339C14.5594 20.729 14.5641 20.7242 14.569 20.7195C14.6246 20.6658 14.6689 20.6015 14.6994 20.5305C14.7299 20.4595 14.746 20.3831 14.7467 20.3058C14.7473 20.2285 14.7326 20.1518 14.7033 20.0803C14.674 20.0087 14.6308 19.9437 14.5761 19.8891C14.5215 19.8344 14.4565 19.7912 14.3849 19.7619C14.3134 19.7327 14.2367 19.718 14.1594 19.7187C14.0821 19.7193 14.0057 19.7354 13.9347 19.7659C13.8637 19.7965 13.7994 19.8408 13.7457 19.8965L13.74 19.9024L12.0476 21.5947L12.0464 21.5959C11.9578 21.6839 11.848 21.7478 11.7276 21.7813C11.6073 21.8148 11.4803 21.8169 11.3589 21.7874L11.357 21.7869C11.1809 21.7433 11.0713 21.6378 11.0121 21.5696C10.9859 21.5394 10.9633 21.509 10.9511 21.4926L10.9491 21.4898C10.9339 21.4694 10.9298 21.4642 10.9271 21.4611C10.9199 21.4526 10.9129 21.4439 10.9063 21.435C10.4347 20.797 10.2182 20.0063 10.2985 19.2177V18.6602H2.84105V19.5047C2.84105 19.5047 2.84105 19.5047 2.84105 19.5047C2.84111 21.3363 3.24247 23.1456 4.01688 24.8054L4.33361 25.4853C4.33367 25.4854 4.33354 25.4851 4.33361 25.4853M1.90771 18.1935V19.5047V18.1935ZM1.90771 19.5047C1.90778 21.4726 2.33898 23.4165 3.17097 25.1998L1.90771 19.5047ZM3.17097 25.1998C3.17093 25.1997 3.17101 25.1999 3.17097 25.1998V25.1998ZM3.17097 25.1998L3.48777 25.8798C3.656 26.24 3.74335 26.6332 3.74332 27.0307V30.8968C3.74332 31.1545 3.95225 31.3634 4.20998 31.3634C4.46771 31.3634 4.67665 31.1545 4.67665 30.8968V27.0308C4.67665 27.0308 4.67665 27.0308 4.67665 27.0308"
    fill="#45413C"
  />
  <path
    d="M2.37354 19.2424V14.5224C2.37354 14.2443 2.48403 13.9775 2.68072 13.7808C2.87741 13.5841 3.14418 13.4736 3.42233 13.4736C3.70049 13.4736 3.96726 13.5841 4.16395 13.7808C4.36064 13.9775 4.47114 14.2443 4.47114 14.5224V19.2424"
    fill="#FFDA8F"
  />
  <path
    fill-rule="evenodd"
    clip-rule="evenodd"
    d="M3.42318 13.9402C3.26879 13.9402 3.12072 14.0015 3.01155 14.1107C2.90238 14.2198 2.84105 14.3679 2.84105 14.5223V19.2423C2.84105 19.5 2.63211 19.709 2.37438 19.709C2.11665 19.709 1.90771 19.5 1.90771 19.2423V14.5223C1.90771 14.1204 2.06738 13.7349 2.35158 13.4507C2.63579 13.1665 3.02126 13.0068 3.42318 13.0068C3.82511 13.0068 4.21057 13.1665 4.49478 13.4507C4.77898 13.7349 4.93865 14.1204 4.93865 14.5223V19.2423C4.93865 19.5 4.72971 19.709 4.47198 19.709C4.21425 19.709 4.00532 19.5 4.00532 19.2423V14.5223C4.00532 14.3679 3.94398 14.2198 3.83481 14.1107C3.72564 14.0015 3.57757 13.9402 3.42318 13.9402Z"
    fill="#45413C"
  />
  <path
    d="M8.6665 19.1836V13.2116C8.6665 12.9334 8.777 12.6666 8.97369 12.47C9.17038 12.2733 9.43715 12.1628 9.71531 12.1628C9.99346 12.1628 10.2602 12.2733 10.4569 12.47C10.6536 12.6666 10.7641 12.9334 10.7641 13.2116V19.2424"
    fill="#FFDA8F"
  />
  <path
    fill-rule="evenodd"
    clip-rule="evenodd"
    d="M9.71615 12.6295C9.56176 12.6295 9.41369 12.6908 9.30452 12.8C9.19535 12.9091 9.13402 13.0572 9.13402 13.2116V19.1836C9.13402 19.4413 8.92508 19.6503 8.66735 19.6503C8.40962 19.6503 8.20068 19.4413 8.20068 19.1836V13.2116C8.20068 12.8097 8.36035 12.4242 8.64455 12.14C8.92876 11.8558 9.31423 11.6961 9.71615 11.6961C10.1181 11.6961 10.5035 11.8558 10.7877 12.14C11.072 12.4242 11.2316 12.8097 11.2316 13.2116V19.2424C11.2316 19.5001 11.0227 19.7091 10.765 19.7091C10.5072 19.7091 10.2983 19.5001 10.2983 19.2424V13.2116C10.2983 13.0572 10.237 12.9091 10.1278 12.8C10.0186 12.6908 9.87054 12.6295 9.71615 12.6295Z"
    fill="#45413C"
  />
  <path
    d="M4.47119 19.3627V12.4247C4.47656 12.15 4.58943 11.8884 4.78557 11.6961C4.98171 11.5037 5.24547 11.396 5.52019 11.396C5.79491 11.396 6.05867 11.5037 6.25481 11.6961C6.45095 11.8884 6.56383 12.15 6.56919 12.4247V18.9799"
    fill="#FFDA8F"
  />
  <path
    fill-rule="evenodd"
    clip-rule="evenodd"
    d="M5.52104 11.8627C5.36851 11.8627 5.22207 11.9225 5.11317 12.0293C5.00519 12.1352 4.94266 12.2789 4.9387 12.43V19.3628C4.9387 19.6205 4.72977 19.8294 4.47204 19.8294C4.2143 19.8294 4.00537 19.6205 4.00537 19.3628V12.4156C4.01312 12.0188 4.17629 11.6408 4.45967 11.3629C4.74306 11.085 5.12413 10.9294 5.52104 10.9294C5.91794 10.9294 6.29902 11.085 6.5824 11.3629C6.86578 11.6408 7.02887 12.0188 7.03661 12.4156L7.03679 12.4247L7.0367 18.98C7.0367 19.2377 6.82777 19.4466 6.57004 19.4466C6.3123 19.4466 6.10337 19.2377 6.10337 18.98V12.43C6.09941 12.2789 6.03689 12.1352 5.92891 12.0293C5.82001 11.9225 5.67357 11.8627 5.52104 11.8627Z"
    fill="#45413C"
  />
  <path
    d="M6.56885 18.9799V11.6399C6.56885 11.3618 6.67935 11.095 6.87603 10.8983C7.07272 10.7016 7.33949 10.5911 7.61765 10.5911C7.89581 10.5911 8.16257 10.7016 8.35926 10.8983C8.55595 11.095 8.66645 11.3618 8.66645 11.6399V19.1651"
    fill="#FFDA8F"
  />
  <path
    fill-rule="evenodd"
    clip-rule="evenodd"
    d="M7.61849 11.0578C7.4641 11.0578 7.31603 11.1192 7.20686 11.2283C7.09769 11.3375 7.03636 11.4856 7.03636 11.64V18.98C7.03636 19.2377 6.82743 19.4466 6.56969 19.4466C6.31196 19.4466 6.10303 19.2377 6.10303 18.98V11.64C6.10303 11.2381 6.26269 10.8526 6.5469 10.5684C6.8311 10.2842 7.21657 10.1245 7.61849 10.1245C8.02042 10.1245 8.40589 10.2842 8.69009 10.5684C8.9743 10.8526 9.13396 11.2381 9.13396 11.64V19.1652C9.13396 19.4229 8.92503 19.6318 8.66729 19.6318C8.40956 19.6318 8.20063 19.4229 8.20063 19.1652V11.64C8.20063 11.4856 8.1393 11.3375 8.03012 11.2283C7.92095 11.1192 7.77288 11.0578 7.61849 11.0578Z"
    fill="#45413C"
  />
  <path
    fill-rule="evenodd"
    clip-rule="evenodd"
    d="M6.8209 19.4465C5.8975 19.4252 4.98115 19.612 4.13977 19.9931C3.90499 20.0994 3.62847 19.9953 3.52214 19.7605C3.41582 19.5257 3.51995 19.2492 3.75473 19.1429C4.72095 18.7053 5.773 18.4901 6.83335 18.5132C7.78477 18.4994 8.73004 18.6682 9.61792 19.0105C9.8584 19.1033 9.97819 19.3734 9.88548 19.6138C9.79277 19.8543 9.52266 19.9741 9.28218 19.8814C8.50321 19.5811 7.67373 19.4335 6.83898 19.4466C6.83295 19.4467 6.82693 19.4467 6.8209 19.4465Z"
    fill="#45413C"
  />
  <path
    d="M21.3667 30.8953V26.7797C21.3674 26.3134 21.2125 25.8601 20.9267 25.4917L16.7147 21.0553C16.6145 20.9585 16.5346 20.8428 16.4797 20.7148C16.4247 20.5868 16.3958 20.4492 16.3946 20.3099C16.3934 20.1707 16.4199 20.0326 16.4727 19.9037C16.5254 19.7748 16.6033 19.6577 16.7018 19.5592C16.8003 19.4607 16.9174 19.3829 17.0463 19.3301C17.1753 19.2774 17.3134 19.2509 17.4527 19.2521C17.5919 19.2534 17.7295 19.2823 17.8575 19.3373C17.9855 19.3923 18.1012 19.4723 18.1979 19.5725L19.8903 21.2649C19.9222 21.2967 19.9618 21.3198 20.0053 21.3319C20.0487 21.3441 20.0945 21.3448 20.1383 21.3341C20.2275 21.3121 20.2663 21.2273 20.3259 21.1577C20.733 20.607 20.9174 19.9231 20.8423 19.2425V18.1937H29.2331V19.5049C29.233 21.4046 28.8168 23.2813 28.0135 25.0029L27.6967 25.6829C27.4998 26.105 27.3977 26.5651 27.3975 27.0309V30.8969"
    fill="#FFDA8F"
  />
  <path
    fill-rule="evenodd"
    clip-rule="evenodd"
    d="M20.3755 18.1935C20.3755 17.9358 20.5844 17.7269 20.8422 17.7269H29.233C29.4907 17.7269 29.6996 17.9358 29.6996 18.1935V19.5048C29.6996 21.4726 29.2684 23.4165 28.4364 25.1998C28.4364 25.1999 28.4364 25.1997 28.4364 25.1998L28.1196 25.8798C27.9515 26.2402 27.8642 26.6331 27.864 27.0308C27.864 27.0308 27.864 27.0307 27.864 27.0308V30.8968C27.864 31.1545 27.6551 31.3634 27.3974 31.3634C27.1396 31.3634 26.9307 31.1545 26.9307 30.8968V27.0308C26.9309 26.4969 27.0479 25.9695 27.2736 25.4857C27.2736 25.4856 27.2735 25.4858 27.2736 25.4857L27.5904 24.8057C28.3648 23.1459 28.7663 21.3363 28.7663 19.5047V18.6602H21.3088V19.2177C21.3892 20.0063 21.1727 20.797 20.701 21.435C20.6944 21.4439 20.6875 21.4526 20.6802 21.4611C20.6778 21.464 20.6738 21.4691 20.6587 21.4894L20.6566 21.4922C20.6444 21.5086 20.6219 21.5391 20.5957 21.5693C20.5362 21.638 20.4263 21.7435 20.2499 21.787L20.249 21.7873C20.1274 21.817 20.0003 21.8149 19.8797 21.7813C19.7591 21.7477 19.6493 21.6836 19.5606 21.5952L17.862 19.8965C17.8083 19.8409 17.7441 19.7965 17.6731 19.7659C17.6021 19.7354 17.5257 19.7193 17.4484 19.7187C17.3711 19.718 17.2944 19.7327 17.2229 19.7619C17.1513 19.7912 17.0863 19.8344 17.0316 19.8891C16.977 19.9437 16.9337 20.0087 16.9044 20.0803C16.8752 20.1518 16.8604 20.2285 16.8611 20.3058C16.8618 20.3831 16.8778 20.4595 16.9083 20.5305C16.9388 20.6015 16.9832 20.6658 17.0388 20.7195C17.0436 20.7242 17.0484 20.729 17.053 20.7338L21.265 25.1702C21.2757 25.1815 21.2858 25.1933 21.2953 25.2055C21.6447 25.6558 21.834 26.2098 21.8332 26.7797M20.5711 25.7949L20.5881 25.8129L20.9266 25.4915L20.5579 25.7776C20.5623 25.7833 20.5667 25.7891 20.5711 25.7949ZM20.3755 18.1935V19.2423V18.1935ZM16.8696 18.8981C17.0559 18.8219 17.2554 18.7836 17.4567 18.7854C17.6579 18.7871 17.8568 18.829 18.0417 18.9085C18.2252 18.9874 18.3913 19.1017 18.5304 19.245L20.0381 20.7527C20.3138 20.3207 20.4349 19.806 20.3783 19.2935C20.3765 19.2765 20.3755 19.2594 20.3755 19.2423M16.8696 18.8981C16.6833 18.9742 16.5141 19.0867 16.3717 19.229L16.8696 18.8981ZM16.3717 19.229C16.2294 19.3713 16.1169 19.5405 16.0406 19.7268L16.3717 19.229ZM16.0406 19.7268C15.9644 19.913 15.9261 20.1126 15.9278 20.3138L16.0406 19.7268ZM15.9278 20.3138C15.9295 20.5151 15.9713 20.7139 16.0507 20.8989L15.9278 20.3138ZM16.0507 20.8989C16.1287 21.0804 16.2414 21.2449 16.3825 21.3831L16.0507 20.8989Z"
    fill="#45413C"
  />
  <path
    d="M24.3599 25.6584C25.5958 25.6566 26.823 25.4507 27.9919 25.0492L27.6971 25.6812C27.5001 26.1033 27.398 26.5634 27.3979 27.0292V30.8952H21.3663V26.7796C21.3669 26.3133 21.2121 25.8601 20.9263 25.4916L20.3887 24.9248C21.6571 25.4075 23.0027 25.6561 24.3599 25.6584Z"
    fill="#FFBE3D"
  />
  <path
    fill-rule="evenodd"
    clip-rule="evenodd"
    d="M20.3755 18.1935C20.3755 17.9358 20.5844 17.7269 20.8422 17.7269H29.233C29.4907 17.7269 29.6996 17.9358 29.6996 18.1935V19.5048C29.6996 21.4726 29.2684 23.4165 28.4364 25.1998C28.4364 25.1999 28.4364 25.1997 28.4364 25.1998L28.1196 25.8798C27.9515 26.2402 27.8642 26.6331 27.864 27.0308C27.864 27.0308 27.864 27.0307 27.864 27.0308V30.8968C27.864 31.1545 27.6551 31.3634 27.3974 31.3634C27.1396 31.3634 26.9307 31.1545 26.9307 30.8968V27.0308C26.9309 26.4969 27.0479 25.9695 27.2736 25.4857C27.2736 25.4856 27.2735 25.4858 27.2736 25.4857L27.5904 24.8057C28.3648 23.1459 28.7663 21.3363 28.7663 19.5047V18.6602H21.3088V19.2177C21.3892 20.0063 21.1727 20.797 20.701 21.435C20.6944 21.4439 20.6875 21.4526 20.6802 21.4611C20.6778 21.464 20.6738 21.4691 20.6587 21.4894L20.6566 21.4922C20.6444 21.5086 20.6219 21.5391 20.5957 21.5693C20.5362 21.638 20.4263 21.7435 20.2499 21.787L20.249 21.7873C20.1274 21.817 20.0003 21.8149 19.8797 21.7813C19.7591 21.7477 19.6493 21.6836 19.5606 21.5952L17.862 19.8965C17.8083 19.8409 17.7441 19.7965 17.6731 19.7659C17.6021 19.7354 17.5257 19.7193 17.4484 19.7187C17.3711 19.718 17.2944 19.7327 17.2229 19.7619C17.1513 19.7912 17.0863 19.8344 17.0316 19.8891C16.977 19.9437 16.9337 20.0087 16.9044 20.0803C16.8752 20.1518 16.8604 20.2285 16.8611 20.3058C16.8618 20.3831 16.8778 20.4595 16.9083 20.5305C16.9388 20.6015 16.9832 20.6658 17.0388 20.7195C17.0436 20.7242 17.0484 20.729 17.053 20.7338L21.265 25.1702C21.2757 25.1815 21.2858 25.1933 21.2953 25.2055C21.6447 25.6558 21.834 26.2098 21.8332 26.7797M20.5711 25.7949L20.5881 25.8129L20.9266 25.4915L20.5579 25.7776C20.5623 25.7833 20.5667 25.7891 20.5711 25.7949ZM20.3755 18.1935V19.2423V18.1935ZM16.8696 18.8981C17.0559 18.8219 17.2554 18.7836 17.4567 18.7854C17.6579 18.7871 17.8568 18.829 18.0417 18.9085C18.2252 18.9874 18.3913 19.1017 18.5304 19.245L20.0381 20.7527C20.3138 20.3207 20.4349 19.806 20.3783 19.2935C20.3765 19.2765 20.3755 19.2594 20.3755 19.2423M16.8696 18.8981C16.6833 18.9742 16.5141 19.0867 16.3717 19.229L16.8696 18.8981ZM16.3717 19.229C16.2294 19.3713 16.1169 19.5405 16.0406 19.7268L16.3717 19.229ZM16.0406 19.7268C15.9644 19.913 15.9261 20.1126 15.9278 20.3138L16.0406 19.7268ZM15.9278 20.3138C15.9295 20.5151 15.9713 20.7139 16.0507 20.8989L15.9278 20.3138ZM16.0507 20.8989C16.1287 21.0804 16.2414 21.2449 16.3825 21.3831L16.0507 20.8989Z"
    fill="#45413C"
  />
  <path
    d="M29.2324 19.2424V14.5224C29.2324 14.2443 29.1219 13.9775 28.9252 13.7808C28.7285 13.5841 28.4617 13.4736 28.1836 13.4736C27.9054 13.4736 27.6386 13.5841 27.442 13.7808C27.2453 13.9775 27.1348 14.2443 27.1348 14.5224V19.2424"
    fill="#FFDA8F"
  />
  <path
    fill-rule="evenodd"
    clip-rule="evenodd"
    d="M27.1118 13.4507C27.396 13.1665 27.7815 13.0068 28.1834 13.0068C28.5854 13.0068 28.9708 13.1665 29.255 13.4507C29.5392 13.7349 29.6989 14.1204 29.6989 14.5223V19.2423C29.6989 19.5 29.49 19.709 29.2322 19.709C28.9745 19.709 28.7656 19.5 28.7656 19.2423V14.5223C28.7656 14.3679 28.7042 14.2198 28.5951 14.1107C28.4859 14.0015 28.3378 13.9402 28.1834 13.9402C28.029 13.9402 27.881 14.0015 27.7718 14.1107C27.6626 14.2198 27.6013 14.3679 27.6013 14.5223V19.2423C27.6013 19.5 27.3924 19.709 27.1346 19.709C26.8769 19.709 26.668 19.5 26.668 19.2423V14.5223C26.668 14.1204 26.8276 13.7349 27.1118 13.4507Z"
    fill="#45413C"
  />
  <path
    d="M22.9394 19.1836V13.2116C22.9394 12.9334 22.8289 12.6666 22.6322 12.47C22.4355 12.2733 22.1688 12.1628 21.8906 12.1628C21.6124 12.1628 21.3457 12.2733 21.149 12.47C20.9523 12.6666 20.8418 12.9334 20.8418 13.2116V19.2424"
    fill="#FFDA8F"
  />
  <path
    fill-rule="evenodd"
    clip-rule="evenodd"
    d="M20.8189 12.14C21.1031 11.8558 21.4885 11.6961 21.8905 11.6961C22.2924 11.6961 22.6779 11.8558 22.9621 12.14C23.2463 12.4242 23.4059 12.8097 23.4059 13.2116V19.1836C23.4059 19.4413 23.197 19.6503 22.9393 19.6503C22.6815 19.6503 22.4726 19.4413 22.4726 19.1836V13.2116C22.4726 13.0572 22.4113 12.9091 22.3021 12.8C22.1929 12.6908 22.0449 12.6295 21.8905 12.6295C21.7361 12.6295 21.588 12.6908 21.4788 12.8C21.3697 12.9091 21.3083 13.0572 21.3083 13.2116V19.2424C21.3083 19.5001 21.0994 19.7091 20.8417 19.7091C20.5839 19.7091 20.375 19.5001 20.375 19.2424V13.2116C20.375 12.8097 20.5347 12.4242 20.8189 12.14Z"
    fill="#45413C"
  />
  <path
    d="M27.1347 19.3628V12.4248C27.1347 12.1466 27.0242 11.8799 26.8275 11.6832C26.6308 11.4865 26.3641 11.376 26.0859 11.376C25.8078 11.376 25.541 11.4865 25.3443 11.6832C25.1476 11.8799 25.0371 12.1466 25.0371 12.4248V18.98"
    fill="#FFDA8F"
  />
  <path
    fill-rule="evenodd"
    clip-rule="evenodd"
    d="M25.0142 11.3532C25.2984 11.069 25.6839 10.9093 26.0858 10.9093C26.4877 10.9093 26.8732 11.069 27.1574 11.3532C27.4416 11.6374 27.6012 12.0229 27.6012 12.4248V19.3628C27.6012 19.6206 27.3923 19.8295 27.1346 19.8295C26.8768 19.8295 26.6679 19.6206 26.6679 19.3628V12.4248C26.6679 12.2704 26.6066 12.1224 26.4974 12.0132C26.3882 11.904 26.2402 11.8427 26.0858 11.8427C25.9314 11.8427 25.7833 11.904 25.6741 12.0132C25.565 12.1224 25.5036 12.2704 25.5036 12.4248V18.98C25.5036 19.2377 25.2947 19.4467 25.037 19.4467C24.7792 19.4467 24.5703 19.2377 24.5703 18.98V12.4248C24.5703 12.0229 24.73 11.6374 25.0142 11.3532Z"
    fill="#45413C"
  />
  <path
    d="M25.0375 18.98V11.64C25.0321 11.3654 24.9192 11.1038 24.7231 10.9114C24.5269 10.7191 24.2632 10.6113 23.9885 10.6113C23.7137 10.6113 23.45 10.7191 23.2538 10.9114C23.0577 11.1038 22.9448 11.3654 22.9395 11.64V19.1652"
    fill="#FFDA8F"
  />
  <path
    fill-rule="evenodd"
    clip-rule="evenodd"
    d="M22.927 10.5781C23.2103 10.3002 23.5914 10.1445 23.9883 10.1445C24.3852 10.1445 24.7663 10.3002 25.0497 10.5781C25.3331 10.856 25.4961 11.234 25.5039 11.6308L25.5041 11.6399L25.504 18.9799C25.504 19.2376 25.2951 19.4466 25.0373 19.4466C24.7796 19.4466 24.5707 19.2376 24.5707 18.9799V11.6451C24.5667 11.4941 24.5042 11.3504 24.3962 11.2445C24.2873 11.1377 24.1408 11.0779 23.9883 11.0779C23.8358 11.0779 23.6894 11.1377 23.5805 11.2445C23.4725 11.3504 23.4099 11.4941 23.406 11.6451V19.1651C23.406 19.4228 23.1971 19.6318 22.9393 19.6318C22.6816 19.6318 22.4727 19.4228 22.4727 19.1651V11.6308C22.4804 11.234 22.6436 10.856 22.927 10.5781Z"
    fill="#45413C"
  />
  <path
    fill-rule="evenodd"
    clip-rule="evenodd"
    d="M24.7744 18.5132C25.8348 18.4901 26.8868 18.7053 27.853 19.1429C28.0878 19.2492 28.1919 19.5257 28.0856 19.7605C27.9793 19.9953 27.7028 20.0994 27.468 19.9931C26.6266 19.612 25.7103 19.4252 24.7869 19.4465C24.7808 19.4467 24.7748 19.4467 24.7688 19.4466C23.934 19.4335 23.1045 19.5811 22.3256 19.8814C22.0851 19.9741 21.815 19.8543 21.7223 19.6138C21.6296 19.3734 21.7494 19.1033 21.9898 19.0105C22.8777 18.6682 23.823 18.4994 24.7744 18.5132Z"
    fill="#45413C"
  />
</svg>
