<svg width="128" height="128" viewBox="0 0 128 128" fill="none" xmlns="http://www.w3.org/2000/svg">
<path d="M12.8 64C12.8 77.5791 18.1943 90.6021 27.7961 100.204C37.398 109.806 50.4209 115.2 64 115.2C77.5791 115.2 90.602 109.806 100.204 100.204C109.806 90.6021 115.2 77.5791 115.2 64C115.2 50.421 109.806 37.398 100.204 27.7962C90.602 18.1943 77.5791 12.8 64 12.8C50.4209 12.8 37.398 18.1943 27.7961 27.7962C18.1943 37.398 12.8 50.421 12.8 64Z" fill="#E8F4FA" stroke="#DAEDF7" stroke-width="1.5"/>
<path d="M53.3683 77.7959H55.241C57.1136 83.4125 63.6659 86.2209 63.6659 93.7101C63.6659 98.3629 59.9219 101.199 54.3053 101.199C48.6886 101.199 44.9434 98.3629 44.9434 93.7101C44.9434 86.2209 51.497 83.4125 53.3683 77.7959Z" fill="#F7E5C6"/>
<path d="M51.968 67.2641C53.5127 67.5764 55.1043 67.5764 56.649 67.2641C56.8377 67.2191 57.0355 67.2301 57.2181 67.2957C57.4007 67.3612 57.5603 67.4785 57.6774 67.6332C57.7945 67.7879 57.8641 67.9733 57.8776 68.1669C57.8911 68.3605 57.8481 68.5538 57.7536 68.7233L55.2448 73.1149H53.3683L50.8595 68.7233C50.7646 68.5535 50.7213 68.3597 50.7349 68.1656C50.7485 67.9716 50.8184 67.7857 50.9361 67.6308C51.0538 67.4759 51.2141 67.3587 51.3974 67.2936C51.5806 67.2284 51.779 67.2182 51.968 67.2641Z" fill="#F7E5C6" stroke="#45413C" stroke-width="1.5" stroke-linecap="round" stroke-linejoin="round"/>
<path d="M54.3053 96.5185C59.0413 96.5185 62.4166 94.4833 63.3677 91.0605C63.568 91.9294 63.6681 92.8185 63.6659 93.7101C63.6659 98.3629 59.9219 101.199 54.3053 101.199C48.6886 101.199 44.9433 98.3629 44.9433 93.7101C44.9412 92.8185 45.0412 91.9294 45.2416 91.0605C46.1926 94.4833 49.568 96.5185 54.3053 96.5185Z" fill="#DEBB7E"/>
<path d="M53.3683 77.7959H55.241C57.1136 83.4125 63.6659 86.2209 63.6659 93.7101C63.6659 98.3629 59.9219 101.199 54.3053 101.199C48.6886 101.199 44.9434 98.3629 44.9434 93.7101C44.9434 86.2209 51.497 83.4125 53.3683 77.7959Z" stroke="#45413C" stroke-width="1.5" stroke-linecap="round" stroke-linejoin="round"/>
<path opacity="0.15" d="M77.111 106.603C77.111 106.91 77.4531 107.213 78.1177 107.496C78.7823 107.78 79.7565 108.037 80.9845 108.253C82.2126 108.47 83.6705 108.642 85.275 108.759C86.8795 108.877 88.5993 108.937 90.336 108.937C92.0727 108.937 93.7924 108.877 95.397 108.759C97.0015 108.642 98.4594 108.47 99.6874 108.253C100.915 108.037 101.89 107.78 102.554 107.496C103.219 107.213 103.561 106.91 103.561 106.603C103.561 106.297 103.219 105.994 102.554 105.71C101.89 105.427 100.915 105.17 99.6874 104.953C98.4594 104.737 97.0015 104.565 95.397 104.448C93.7924 104.33 92.0727 104.27 90.336 104.27C88.5993 104.27 86.8795 104.33 85.275 104.448C83.6705 104.565 82.2126 104.737 80.9845 104.953C79.7565 105.17 78.7823 105.427 78.1177 105.71C77.4531 105.994 77.111 106.297 77.111 106.603Z" fill="#45413C"/>
<path opacity="0.15" d="M21.6051 105.868C21.6051 106.174 21.9472 106.477 22.6118 106.761C23.2764 107.044 24.2506 107.301 25.4786 107.518C26.7067 107.734 28.1646 107.906 29.7691 108.023C31.3736 108.141 33.0933 108.201 34.8301 108.201C36.5668 108.201 38.2865 108.141 39.891 108.023C41.4956 107.906 42.9535 107.734 44.1815 107.518C45.4096 107.301 46.3837 107.044 47.0483 106.761C47.713 106.477 48.055 106.174 48.055 105.868C48.055 105.561 47.713 105.258 47.0483 104.975C46.3837 104.692 45.4096 104.434 44.1815 104.218C42.9535 104.001 41.4956 103.829 39.891 103.712C38.2865 103.595 36.5668 103.534 34.8301 103.534C33.0933 103.534 31.3736 103.595 29.7691 103.712C28.1646 103.829 26.7067 104.001 25.4786 104.218C24.2506 104.434 23.2764 104.692 22.6118 104.975C21.9472 105.258 21.6051 105.561 21.6051 105.868Z" fill="#45413C"/>
<path d="M57.2403 75.2921C57.2403 76.0374 56.9448 76.7523 56.4187 77.2801C55.8925 77.808 55.1785 78.1057 54.4333 78.1081C48.2457 78.1081 41.3273 72.1023 41.3273 64.0652V63.1206C41.3273 62.3758 41.6232 61.6615 42.1499 61.1348C42.6765 60.6081 43.3908 60.3123 44.1357 60.3123C44.8805 60.3123 45.5948 60.6081 46.1214 61.1348C46.6481 61.6615 46.944 62.3758 46.944 63.1206V64.0652C46.944 69.2083 51.3792 72.4902 54.4333 72.4902C55.1761 72.4925 55.888 72.7883 56.4137 73.3131C56.9395 73.8379 57.2366 74.5492 57.2403 75.2921Z" fill="#D18660" stroke="#45413C" stroke-width="1.5" stroke-linecap="round" stroke-linejoin="round"/>
<path d="M53.9008 72.425C53.156 72.4284 52.443 72.7275 51.9187 73.2566C51.3945 73.7856 51.1019 74.5013 51.1053 75.2461C51.1086 75.9909 51.4078 76.7039 51.9368 77.2281C52.4659 77.7524 53.1816 78.045 53.9264 78.0416L56.1139 78.0327C56.5266 78.0306 56.9216 77.8649 57.2122 77.5719C57.5029 77.2789 57.6653 76.8825 57.664 76.4698L57.6525 73.9648C57.6504 73.5522 57.4847 73.1573 57.1916 72.8669C56.8985 72.5765 56.5022 72.4143 56.0896 72.416L53.9008 72.425Z" fill="#D18660" stroke="#45413C" stroke-width="1.5" stroke-linecap="round" stroke-linejoin="round"/>
<path d="M43.6608 75.4868L43.4406 100.288C42.3739 99.8441 41.2283 99.6207 40.0729 99.6315H35.9513L35.095 83.7121C35.0727 83.2092 34.8572 82.7343 34.4935 82.3863C34.1297 82.0384 33.6458 81.8441 33.1424 81.8441C32.639 81.8441 32.155 82.0384 31.7913 82.3863C31.4275 82.7343 31.212 83.2092 31.1897 83.7121L30.2937 100.269C29.2379 99.8367 28.1066 99.6192 26.9657 99.6289H22.8441L22.656 75.4868H43.6608Z" fill="#656769"/>
<path d="M22.688 79.3767H43.6262L43.6608 75.4868H22.6573L22.688 79.3767Z" fill="#525252"/>
<path d="M43.6608 75.4868L43.4406 100.288C42.3739 99.8441 41.2283 99.6207 40.0729 99.6315H35.9513L35.095 83.7121C35.0727 83.2092 34.8572 82.7343 34.4935 82.3863C34.1297 82.0384 33.6458 81.8441 33.1424 81.8441C32.639 81.8441 32.155 82.0384 31.7913 82.3863C31.4275 82.7343 31.212 83.2092 31.1897 83.7121L30.2937 100.269C29.2379 99.8367 28.1066 99.6192 26.9657 99.6289H22.8441L22.656 75.4868H43.6608Z" stroke="#45413C" stroke-width="1.5" stroke-linecap="round" stroke-linejoin="round"/>
<path d="M46.2477 104.312C46.2477 100.96 42.9722 99.6313 40.073 99.6313H35.9514V102.756C35.951 103.168 36.1144 103.564 36.4055 103.855C36.6966 104.147 37.0918 104.312 37.504 104.312H46.2477Z" fill="#87898C" stroke="#45413C" stroke-width="1.5" stroke-linecap="round" stroke-linejoin="round"/>
<path d="M33.143 104.312C33.143 100.96 29.8662 99.6313 26.9683 99.6313H22.8467V102.756C22.8465 102.96 22.8866 103.163 22.9647 103.351C23.0428 103.54 23.1573 103.712 23.3018 103.856C23.4462 104.001 23.6177 104.116 23.8065 104.194C23.9952 104.272 24.1976 104.312 24.4019 104.312H33.143Z" fill="#87898C" stroke="#45413C" stroke-width="1.5" stroke-linecap="round" stroke-linejoin="round"/>
<path d="M43.6608 63.0401H45.9942C46.1986 63.0403 46.4009 63.0002 46.5898 62.9221C46.7786 62.844 46.9502 62.7295 47.0948 62.5851C47.2393 62.4406 47.354 62.2691 47.4322 62.0804C47.5105 61.8916 47.5507 61.6892 47.5507 61.4849V61.1009C47.5514 59.1086 47.1596 57.1357 46.3977 55.2949C45.6359 53.4541 44.5188 51.7813 43.1105 50.3722C41.7021 48.9631 40.0299 47.8452 38.1894 47.0824C36.349 46.3196 34.3763 45.9269 32.384 45.9265C30.3916 45.926 28.4187 46.318 26.5778 47.0801C24.7369 47.8422 23.0642 48.9595 21.6552 50.3681C20.2462 51.7768 19.1285 53.4492 18.3659 55.2899C17.6034 57.1305 17.2109 59.1034 17.2109 61.0958V63.0401H22.656V75.4868H43.6608V63.0401Z" fill="#F0F0F0"/>
<path d="M32.384 45.9265C30.3916 45.926 28.4187 46.318 26.5778 47.0801C24.7369 47.8422 23.0642 48.9595 21.6552 50.3681C20.2462 51.7768 19.1285 53.4492 18.3659 55.2899C17.6034 57.1305 17.2109 59.1034 17.2109 61.0958V63.0401H17.2557C17.5443 59.3091 19.2018 55.8164 21.9096 53.2334C24.6173 50.6503 28.1842 49.1592 31.9247 49.0467C35.6651 48.9341 39.3152 50.208 42.1734 52.6235C45.0316 55.039 46.8961 58.4257 47.4086 62.1326C47.5026 61.9296 47.5511 61.7086 47.5507 61.4849V61.1009C47.5514 59.1086 47.1596 57.1357 46.3977 55.2949C45.6359 53.4541 44.5188 51.7813 43.1105 50.3722C41.7021 48.9631 40.0299 47.8452 38.1894 47.0824C36.349 46.3196 34.3763 45.9269 32.384 45.9265Z" fill="white"/>
<path d="M43.6608 63.0401H45.9942C46.1986 63.0403 46.4009 63.0002 46.5898 62.9221C46.7786 62.844 46.9502 62.7295 47.0948 62.5851C47.2393 62.4406 47.354 62.2691 47.4322 62.0804C47.5105 61.8916 47.5507 61.6892 47.5507 61.4849V61.1009C47.5514 59.1086 47.1596 57.1357 46.3977 55.2949C45.6359 53.4541 44.5188 51.7813 43.1105 50.3722C41.7021 48.9631 40.0299 47.8452 38.1894 47.0824C36.349 46.3196 34.3763 45.9269 32.384 45.9265V45.9265C30.3916 45.926 28.4187 46.318 26.5778 47.0801C24.7369 47.8422 23.0642 48.9595 21.6552 50.3681C20.2462 51.7768 19.1285 53.4492 18.3659 55.2899C17.6034 57.1305 17.2109 59.1034 17.2109 61.0958V63.0401H22.656V75.4868H43.6608V63.0401Z" stroke="#45413C" stroke-width="1.5" stroke-linecap="round" stroke-linejoin="round"/>
<path d="M32.768 52.1499L29.7792 65.1137C29.6238 65.7854 29.6963 66.4897 29.9853 67.1157L32.0499 71.5957C32.1125 71.7316 32.2131 71.8466 32.3394 71.9269C32.4658 72.0071 32.6126 72.0493 32.7623 72.0482C32.912 72.0471 33.0582 72.0029 33.1834 71.9208C33.3086 71.8387 33.4075 71.7223 33.4681 71.5854L35.4649 67.0913C35.7355 66.4828 35.8037 65.8036 35.6595 65.1534L32.768 52.1499Z" fill="#FF6242" stroke="#45413C" stroke-width="1.5" stroke-linecap="round" stroke-linejoin="round"/>
<path d="M43.6608 63.0401V57.595" stroke="#45413C" stroke-width="1.5" stroke-linecap="round" stroke-linejoin="round"/>
<path d="M22.6573 63.0401V57.595" stroke="#45413C" stroke-width="1.5" stroke-linecap="round" stroke-linejoin="round"/>
<path d="M36.4467 46.4819C36.1742 46.4088 35.9334 46.2477 35.7618 46.0236C35.5903 45.7996 35.4976 45.5251 35.4982 45.2429V41.3914H29.2557V45.289C29.2557 45.5564 29.168 45.8164 29.0062 46.0293C28.8444 46.2422 28.6173 46.3962 28.3597 46.4678L32.768 52.1498L37.0406 46.656C36.8461 46.592 36.6464 46.5357 36.4467 46.4819Z" fill="#D18660" stroke="#45413C" stroke-width="1.5" stroke-linecap="round" stroke-linejoin="round"/>
<path d="M32.7693 72.0449V75.4868" stroke="#45413C" stroke-width="1.5" stroke-linecap="round" stroke-linejoin="round"/>
<path d="M32.768 52.1499L36.8896 53.6948C37.125 53.7832 37.3782 53.8131 37.6277 53.7822C37.8772 53.7512 38.1154 53.6602 38.322 53.517C38.5287 53.3738 38.6975 53.1827 38.8141 52.96C38.9306 52.7372 38.9915 52.4896 38.9914 52.2382V47.4395" stroke="#45413C" stroke-width="1.5" stroke-linecap="round" stroke-linejoin="round"/>
<path d="M26.5459 47.0886V52.2381C26.546 52.4895 26.607 52.7372 26.7238 52.9599C26.8405 53.1826 27.0094 53.3737 27.2161 53.5169C27.4228 53.66 27.6611 53.751 27.9107 53.782C28.1602 53.8129 28.4135 53.783 28.6489 53.6947L32.768 52.1497" stroke="#45413C" stroke-width="1.5" stroke-linecap="round" stroke-linejoin="round"/>
<path d="M19.9424 82.4884C19.2227 82.4884 18.5325 82.2025 18.0236 81.6936C17.5147 81.1847 17.2288 80.4944 17.2288 79.7748V63.04H22.656V79.7748C22.6557 80.4943 22.3696 81.1844 21.8608 81.6932C21.352 82.202 20.662 82.488 19.9424 82.4884Z" fill="#D18660" stroke="#45413C" stroke-width="1.5" stroke-linecap="round" stroke-linejoin="round"/>
<path d="M86.6432 89.1342C86.4616 89.1342 86.2814 89.1026 86.1107 89.0408L86.8275 100.508C87.2405 100.422 87.6613 100.379 88.0832 100.38H92.672V89.1342H86.6432Z" fill="#FFDA8F"/>
<path d="M94.3066 100.38H98.5242L99.2282 89.0408C99.0579 89.1026 98.8781 89.1342 98.697 89.1342H92.672V100.608C93.2036 100.457 93.7538 100.38 94.3066 100.38Z" fill="#FFDA8F"/>
<path d="M86.1107 89.0408L86.336 92.644H92.672V89.1342H86.6432C86.4616 89.1342 86.2814 89.1026 86.1107 89.0408Z" fill="#FFBE3D"/>
<path d="M92.672 89.1342V92.644H99.0067L99.2307 89.0408C99.0605 89.1027 98.8807 89.1343 98.6995 89.1342H92.672Z" fill="#FFBE3D"/>
<path d="M94.3066 100.38H98.5242L99.2282 89.0408C99.0579 89.1026 98.8781 89.1342 98.697 89.1342H92.672V100.608C93.2036 100.457 93.7538 100.38 94.3066 100.38V100.38Z" stroke="#45413C" stroke-width="1.5" stroke-linecap="round" stroke-linejoin="round"/>
<path d="M102.181 50.7764C100.866 49.6195 99.3342 48.7355 97.6746 48.1755C96.015 47.6156 94.2607 47.391 92.5136 47.5147C90.7664 47.6385 89.0613 48.1081 87.4972 48.8963C85.9331 49.6845 84.5411 50.7757 83.4022 52.1063C83.6979 54.1006 84.1113 59.1169 84.1113 59.1169V74.7086H101.228V59.0926C101.157 56.2896 101.478 53.4906 102.181 50.7764Z" fill="#9F5AE5"/>
<path d="M93.4477 52.1499C96.3262 52.1454 99.1269 53.0847 101.421 54.8238C101.546 53.4537 101.8 52.0985 102.181 50.7764C100.866 49.6195 99.3342 48.7355 97.6746 48.1755C96.015 47.6156 94.2607 47.391 92.5136 47.5147C90.7664 47.6385 89.0613 48.1081 87.4972 48.8963C85.9331 49.6845 84.5411 50.7757 83.4022 52.1063C83.5469 53.083 83.7197 54.7854 83.8592 56.2676C85.0931 54.9649 86.5799 53.9277 88.2287 53.2197C89.8774 52.5116 91.6533 52.1476 93.4477 52.1499Z" fill="#BF8DF2"/>
<path d="M102.181 50.7764C100.866 49.6195 99.3342 48.7355 97.6746 48.1755C96.015 47.6156 94.2607 47.391 92.5136 47.5147C90.7664 47.6385 89.0613 48.1081 87.4972 48.8963C85.9331 49.6845 84.5411 50.7757 83.4022 52.1063C83.6979 54.1006 84.1113 59.1169 84.1113 59.1169V74.7086H101.228V59.0926C101.157 56.2896 101.478 53.4906 102.181 50.7764V50.7764Z" stroke="#45413C" stroke-width="1.5" stroke-linecap="round" stroke-linejoin="round"/>
<path d="M86.6432 89.1342C86.4616 89.1342 86.2814 89.1026 86.1107 89.0408L86.8275 100.508C87.2405 100.422 87.6613 100.379 88.0832 100.38H92.672V89.1342H86.6432Z" stroke="#45413C" stroke-width="1.5" stroke-linecap="round" stroke-linejoin="round"/>
<path d="M101.227 74.7085L100.211 88.0307C100.187 88.4259 100.013 88.7969 99.724 89.068C99.4355 89.3391 99.0545 89.49 98.6585 89.4899H86.6035C86.2076 89.49 85.8265 89.3391 85.538 89.068C85.2495 88.7969 85.0753 88.4259 85.0509 88.0307L84.1126 74.7085H101.227Z" fill="#9F5AE5" stroke="#45413C" stroke-width="1.5" stroke-linecap="round" stroke-linejoin="round"/>
<path d="M101.228 50.0122V80.5441C101.228 81.2661 101.514 81.9586 102.025 82.4692C102.536 82.9798 103.228 83.2666 103.95 83.2666C104.672 83.2666 105.365 82.9798 105.875 82.4692C106.386 81.9586 106.673 81.2661 106.673 80.5441V60.704C106.674 58.6185 106.181 56.5624 105.234 54.704C104.288 52.8456 102.915 51.2378 101.228 50.0122Z" fill="#FFDA8F" stroke="#45413C" stroke-width="1.5" stroke-linecap="round" stroke-linejoin="round"/>
<path d="M92.672 100.38H88.0832C83.4957 100.38 82.3488 105.048 82.3488 105.048H92.672V100.38Z" fill="#BF8256" stroke="#45413C" stroke-width="1.5" stroke-linecap="round" stroke-linejoin="round"/>
<path d="M98.8928 100.38H94.3065C89.719 100.38 88.5721 105.048 88.5721 105.048H97.3376C97.5419 105.048 97.7443 105.008 97.933 104.93C98.1218 104.852 98.2933 104.737 98.4377 104.592C98.5822 104.448 98.6967 104.276 98.7748 104.087C98.8528 103.899 98.893 103.696 98.8928 103.492V100.38Z" fill="#BF8256" stroke="#45413C" stroke-width="1.5" stroke-linecap="round" stroke-linejoin="round"/>
<path d="M80.2227 60.7066V62.9646C80.2227 68.1076 75.9321 71.3895 72.8793 71.3895C72.1345 71.3895 71.4202 71.6854 70.8936 72.2121C70.3669 72.7387 70.071 73.453 70.071 74.1978C70.071 74.9426 70.3669 75.657 70.8936 76.1836C71.4202 76.7103 72.1345 77.0062 72.8793 77.0062C75.1998 76.8728 77.4483 76.1516 79.4134 74.9102C81.3784 73.6688 82.9955 71.9481 84.1126 69.9098V51.3396C82.8779 52.5668 81.8985 54.0264 81.2308 55.6341C80.5632 57.2418 80.2206 58.9658 80.2227 60.7066Z" fill="#FFDA8F" stroke="#45413C" stroke-width="1.5" stroke-linecap="round" stroke-linejoin="round"/>
<path d="M84.1126 70.8198H101.227V74.7097H84.1126V70.8198Z" fill="#C0DCEB" stroke="#45413C" stroke-width="1.5" stroke-linecap="round" stroke-linejoin="round"/>
<path d="M95.0042 70.8198V74.7085" stroke="#45413C" stroke-width="1.5" stroke-linecap="round" stroke-linejoin="round"/>
<path d="M91.1142 70.8198V74.7085" stroke="#45413C" stroke-width="1.5" stroke-linecap="round" stroke-linejoin="round"/>
<path d="M97.9619 26.9538C98.6337 28.2322 99.7859 29.1913 101.165 29.6201C102.544 30.049 104.037 29.9125 105.315 29.2407C106.593 28.5688 107.553 27.4167 107.981 26.0377C108.41 24.6587 108.274 23.1659 107.602 21.8875C106.93 20.6092 105.778 19.6501 104.399 19.2212C103.02 18.7923 101.527 18.9288 100.249 19.6006C98.9704 20.2725 98.0113 21.4246 97.5825 22.8036C97.1536 24.1826 97.2901 25.6755 97.9619 26.9538Z" fill="#724F3D" stroke="#45413C" stroke-width="1.5" stroke-linecap="round" stroke-linejoin="round"/>
<path d="M83.3344 32.9779C83.3344 35.8666 84.4819 38.6369 86.5244 40.6794C88.567 42.722 91.3373 43.8695 94.2259 43.8695C97.1145 43.8695 99.8848 42.722 101.927 40.6794C103.97 38.6369 105.117 35.8666 105.117 32.9779C105.117 30.0893 103.97 27.319 101.927 25.2765C99.8848 23.2339 97.1145 22.0864 94.2259 22.0864C91.3373 22.0864 88.567 23.2339 86.5244 25.2765C84.4819 27.319 83.3344 30.0893 83.3344 32.9779Z" fill="#724F3D" stroke="#45413C" stroke-width="1.5" stroke-linecap="round" stroke-linejoin="round"/>
<path d="M83.3344 33.7561V51.6659C83.3343 51.8142 83.3767 51.9595 83.4565 52.0845C83.5363 52.2095 83.6503 52.3091 83.7849 52.3714C83.9195 52.4338 84.0692 52.4562 84.2161 52.4362C84.3631 52.4162 84.5013 52.3545 84.6144 52.2585C85.338 51.731 85.9436 51.0584 86.3928 50.2838C86.8419 49.5091 87.1247 48.6493 87.223 47.7593V33.7561H83.3344Z" fill="#724F3D" stroke="#45413C" stroke-width="1.5" stroke-linecap="round" stroke-linejoin="round"/>
<path d="M97.1161 48.0103C96.8494 47.9331 96.6149 47.7712 96.4482 47.5491C96.2815 47.3269 96.1916 47.0566 96.192 46.7789V42.313H90.7353V46.77C90.7351 47.0481 90.6443 47.3186 90.4767 47.5406C90.309 47.7625 90.0736 47.9238 89.8061 48C89.1587 48.1835 88.5266 48.4171 87.9155 48.6989C88.192 49.9613 88.8916 51.0912 89.8984 51.9013C90.9052 52.7115 92.1586 53.1532 93.4509 53.1532C94.7431 53.1532 95.9966 52.7115 97.0033 51.9013C98.0101 51.0912 98.7098 49.9613 98.9862 48.6989C98.3812 48.4223 97.756 48.1921 97.1161 48.0103Z" fill="#FFDA8F" stroke="#45413C" stroke-width="1.5" stroke-linecap="round" stroke-linejoin="round"/>
<path d="M87.2243 30.6445C88.8883 30.6445 89.4502 31.4228 90.336 31.4228C91.8689 31.0399 93.4299 30.7797 95.0041 30.6445C96.3405 30.6445 97.6768 32.1805 98.5753 33.4849C98.9552 34.0454 99.4661 34.5048 100.064 34.8233C100.661 35.1418 101.327 35.3098 102.004 35.3127V38.7175C101.94 38.7403 101.875 38.7591 101.809 38.7738C101.338 41.0363 100.044 43.0437 98.1789 44.4076C96.3133 45.7715 94.0082 46.3949 91.7095 46.1573C89.4108 45.9197 87.282 44.8378 85.7349 43.1212C84.1878 41.4045 83.3325 39.175 83.3344 36.8641V33.7562C83.3344 33.7562 85.5616 30.6445 87.2243 30.6445Z" fill="#FFDA8F" stroke="#45413C" stroke-width="1.5" stroke-linecap="round" stroke-linejoin="round"/>
<path d="M95.7811 38.0353C95.7811 38.3449 95.9041 38.6418 96.123 38.8607C96.342 39.0796 96.6389 39.2026 96.9485 39.2026C97.2581 39.2026 97.555 39.0796 97.7739 38.8607C97.9929 38.6418 98.1158 38.3449 98.1158 38.0353C98.1158 37.7257 97.9929 37.4288 97.7739 37.2098C97.555 36.9909 97.2581 36.8679 96.9485 36.8679C96.6389 36.8679 96.342 36.9909 96.123 37.2098C95.9041 37.4288 95.7811 37.7257 95.7811 38.0353Z" fill="#FFB59E"/>
<path d="M93.4477 40.832C92.7567 41.2928 91.9447 41.5387 91.1142 41.5387C90.2837 41.5387 89.4718 41.2928 88.7808 40.832" stroke="#45413C" stroke-width="1.5" stroke-linecap="round" stroke-linejoin="round"/>
<path d="M82.5574 33.7561H89.559V38.4243H82.5574V33.7561Z" fill="#00B8F0"/>
<path d="M83.3344 33.7561C83.1282 33.7564 82.9306 33.8386 82.7849 33.9845C82.6393 34.1304 82.5574 34.3282 82.5574 34.5343V37.646C82.5574 37.8522 82.6393 38.05 82.7849 38.1959C82.9306 38.3418 83.1282 38.4239 83.3344 38.4243H83.689L88.3571 33.7561H83.3344Z" fill="#4ACFFF"/>
<path d="M82.5574 33.7561H89.559V38.4243H82.5574V33.7561Z" stroke="#45413C" stroke-width="1.5" stroke-linecap="round" stroke-linejoin="round"/>
<path d="M92.6694 33.7561H99.671V38.4243H92.6694V33.7561Z" fill="#00B8F0"/>
<path d="M93.4477 33.7561C93.3455 33.7561 93.2443 33.7762 93.1499 33.8153C93.0554 33.8545 92.9696 33.9118 92.8974 33.984C92.8251 34.0563 92.7678 34.1421 92.7287 34.2365C92.6896 34.3309 92.6694 34.4321 92.6694 34.5343V37.646C92.6694 37.7482 92.6896 37.8494 92.7287 37.9438C92.7678 38.0383 92.8251 38.1241 92.8974 38.1963C92.9696 38.2686 93.0554 38.3259 93.1499 38.365C93.2443 38.4041 93.3455 38.4243 93.4477 38.4243H93.8022L98.4704 33.7561H93.4477Z" fill="#4ACFFF"/>
<path d="M92.6694 33.7561H99.671V38.4243H92.6694V33.7561Z" stroke="#45413C" stroke-width="1.5" stroke-linecap="round" stroke-linejoin="round"/>
<path d="M89.5577 35.3127H92.6694" stroke="#45413C" stroke-width="1.5" stroke-linecap="round" stroke-linejoin="round"/>
<path d="M98.1158 31.4229V51.666C98.1157 51.8144 98.1581 51.9597 98.238 52.0847C98.3178 52.2097 98.4317 52.3093 98.5664 52.3716C98.701 52.4339 98.8506 52.4564 98.9976 52.4364C99.1446 52.4164 99.2828 52.3547 99.3958 52.2587C100.119 51.7309 100.724 51.0582 101.173 50.2836C101.622 49.509 101.905 48.6494 102.003 47.7595V31.4229H98.1158Z" fill="#724F3D" stroke="#45413C" stroke-width="1.5" stroke-linecap="round" stroke-linejoin="round"/>
<path d="M101.228 29.8662H99.671C99.2585 29.8666 98.8629 30.0307 98.5713 30.3225C98.2797 30.6144 98.1158 31.0101 98.1158 31.4227C98.1158 31.8352 98.2797 32.2307 98.5714 32.5224C98.863 32.814 99.2586 32.9779 99.671 32.9779H101.228C101.432 32.9781 101.634 32.938 101.823 32.8599C102.012 32.7818 102.183 32.6673 102.328 32.5228C102.473 32.3784 102.587 32.2069 102.666 32.0181C102.744 31.8294 102.784 31.627 102.784 31.4227C102.784 31.0099 102.62 30.614 102.328 30.3221C102.036 30.0302 101.64 29.8662 101.228 29.8662Z" fill="#FF6242" stroke="#45413C" stroke-width="1.5" stroke-linecap="round" stroke-linejoin="round"/>
<path d="M54.3206 82.9058C54.197 82.9056 54.0745 82.9299 53.9603 82.9772C53.8461 83.0245 53.7423 83.0939 53.655 83.1815C53.5677 83.269 53.4985 83.373 53.4515 83.4873C53.4045 83.6017 53.3806 83.7242 53.3811 83.8478V84.7605C52.5656 84.9873 51.86 85.502 51.395 86.2092C50.9299 86.9164 50.7369 87.7682 50.8517 88.6067C50.9666 89.4453 51.3814 90.2139 52.0195 90.77C52.6575 91.3262 53.4755 91.6322 54.3219 91.6315C54.6435 91.6313 54.9579 91.7264 55.2254 91.9049C55.4929 92.0833 55.7014 92.3371 55.8247 92.6341C55.9479 92.9312 55.9803 93.2581 55.9177 93.5735C55.8551 93.8889 55.7004 94.1787 55.4731 94.4061C55.2458 94.6336 54.9562 94.7886 54.6408 94.8514C54.3254 94.9142 53.9985 94.8821 53.7014 94.7591C53.4043 94.6361 53.1503 94.4277 52.9716 94.1604C52.7929 93.893 52.6976 93.5787 52.6976 93.2571C52.6886 93.0134 52.5855 92.7827 52.4099 92.6135C52.2343 92.4443 52 92.3498 51.7561 92.3498C51.5123 92.3498 51.2779 92.4443 51.1024 92.6135C50.9268 92.7827 50.8237 93.0134 50.8147 93.2571C50.8176 94.0201 51.0693 94.7613 51.5315 95.3684C51.9937 95.9754 52.6413 96.4152 53.376 96.621V97.5362C53.376 97.7857 53.4751 98.025 53.6515 98.2014C53.828 98.3778 54.0673 98.477 54.3168 98.477C54.5663 98.477 54.8056 98.3778 54.982 98.2014C55.1585 98.025 55.2576 97.7857 55.2576 97.5362V96.6235C56.0742 96.3976 56.7812 95.883 57.2472 95.1753C57.7132 94.4676 57.9066 93.6149 57.7915 92.7754C57.6764 91.9359 57.2607 91.1667 56.6214 90.6106C55.9822 90.0544 55.1628 89.749 54.3155 89.7512C54.1021 89.7515 53.8907 89.7098 53.6935 89.6283C53.4963 89.5467 53.3171 89.4271 53.1662 89.2762C53.0153 89.1253 52.8956 88.9461 52.8141 88.7489C52.7326 88.5517 52.6908 88.3403 52.6912 88.1269C52.6925 87.6962 52.8642 87.2835 53.1688 86.9789C53.4734 86.6743 53.8861 86.5026 54.3168 86.5013C54.7473 86.5023 55.1598 86.6738 55.4642 86.9782C55.7686 87.2826 55.9401 87.6951 55.9411 88.1256C55.9411 88.3751 56.0402 88.6144 56.2166 88.7908C56.3931 88.9673 56.6324 89.0664 56.8819 89.0664C57.1314 89.0664 57.3707 88.9673 57.5471 88.7908C57.7236 88.6144 57.8227 88.3751 57.8227 88.1256C57.8258 87.3605 57.5758 86.6159 57.1116 86.0077C56.6474 85.3995 55.9951 84.9619 55.2563 84.763V83.8491C55.2566 83.6002 55.1584 83.3612 54.9831 83.1844C54.8078 83.0076 54.5696 82.9075 54.3206 82.9058Z" fill="#45413C"/>
<path d="M54.9786 40.0704C54.9777 38.365 55.3883 36.6845 56.1754 35.1716C56.9626 33.6587 58.1031 32.358 59.5001 31.3799C60.8972 30.4018 62.5095 29.7752 64.2004 29.5531C65.8913 29.3311 67.6109 29.5202 69.2131 30.1045C70.8153 30.6888 72.2529 31.6509 73.4039 32.9093C74.555 34.1677 75.3855 35.6852 75.825 37.333C76.2644 38.9808 76.2999 40.7103 75.9284 42.3748C75.5569 44.0392 74.7893 45.5895 73.6909 46.8941C72.2577 48.5925 71.4711 50.7428 71.4701 52.9651V54.2067H59.6941V52.9651C59.6942 50.7424 58.907 48.5915 57.472 46.8941C55.8586 44.9868 54.9749 42.5685 54.9786 40.0704Z" fill="#FFE500"/>
<path d="M65.5808 34.1759C63.1847 34.1783 60.8602 34.9932 58.987 36.4874C57.1138 37.9816 55.8027 40.0668 55.2678 42.4025C54.8949 40.8441 54.88 39.2215 55.2242 37.6566C55.5685 36.0916 56.2629 34.625 57.2554 33.367C58.2478 32.109 59.5125 31.0923 60.9544 30.3932C62.3962 29.6942 63.9778 29.3311 65.5801 29.3311C67.1825 29.3311 68.764 29.6942 70.2059 30.3932C71.6478 31.0923 72.9124 32.109 73.9049 33.367C74.8974 34.625 75.5918 36.0916 75.9361 37.6566C76.2803 39.2215 76.2654 40.8441 75.8925 42.4025C75.3576 40.0671 74.0467 37.982 72.1738 36.4878C70.3009 34.9936 67.9767 34.1786 65.5808 34.1759Z" fill="#FFF48C"/>
<path d="M54.9786 40.0704C54.9777 38.365 55.3883 36.6845 56.1754 35.1716C56.9626 33.6587 58.1031 32.358 59.5001 31.3799C60.8972 30.4018 62.5095 29.7752 64.2004 29.5531C65.8913 29.3311 67.6109 29.5202 69.2131 30.1045C70.8153 30.6888 72.2529 31.6509 73.4039 32.9093C74.555 34.1677 75.3855 35.6852 75.825 37.333C76.2644 38.9808 76.2999 40.7103 75.9284 42.3748C75.5569 44.0392 74.7893 45.5895 73.6909 46.8941C72.2577 48.5925 71.4711 50.7428 71.4701 52.9651V54.2067H59.6941V52.9651C59.6942 50.7424 58.907 48.5915 57.472 46.8941C55.8586 44.9868 54.9749 42.5685 54.9786 40.0704Z" stroke="#45413C" stroke-width="1.5" stroke-linejoin="round"/>
<path d="M62.0467 58.9185H69.12C69.4294 58.9185 69.7358 58.8575 70.0216 58.7391C70.3074 58.6206 70.5671 58.447 70.7858 58.2282C71.0045 58.0094 71.178 57.7496 71.2963 57.4637C71.4146 57.1778 71.4754 56.8714 71.4752 56.562V54.2068H59.6992V56.562C59.6992 57.1854 59.9462 57.7834 60.3862 58.2251C60.8262 58.6668 61.4233 58.9161 62.0467 58.9185Z" fill="#8CA4B8" stroke="#45413C" stroke-width="1.5" stroke-linejoin="round"/>
<path d="M62.0467 60.0961C62.0467 61.0334 62.419 61.9323 63.0818 62.595C63.7446 63.2578 64.6435 63.6301 65.5808 63.6301C66.5181 63.6301 67.417 63.2578 68.0797 62.595C68.7425 61.9323 69.1149 61.0334 69.1149 60.0961V58.9185H62.0467V60.0961Z" fill="#8CA4B8" stroke="#45413C" stroke-width="1.5" stroke-linejoin="round"/>
<path d="M65.5808 24.7566V22.4001" stroke="#45413C" stroke-width="1.5" stroke-linecap="round" stroke-linejoin="round"/>
<path d="M54.752 29.2418L53.0854 27.5752" stroke="#45413C" stroke-width="1.5" stroke-linecap="round" stroke-linejoin="round"/>
<path d="M50.2669 40.0706H47.9104" stroke="#45413C" stroke-width="1.5" stroke-linecap="round" stroke-linejoin="round"/>
<path d="M76.4096 29.2418L78.0749 27.5752" stroke="#45413C" stroke-width="1.5" stroke-linecap="round" stroke-linejoin="round"/>
<path d="M32.7885 22.1582C30.3035 22.1582 27.9203 23.1454 26.1632 24.9025C24.406 26.6596 23.4189 29.0428 23.4189 31.5278V33.4081C20.7437 33.4081 20.9267 38.0929 23.8874 38.0929H23.895C24.5611 40.2288 25.9714 42.0549 27.8696 43.2391C29.7679 44.4234 32.028 44.8872 34.2393 44.5462C36.4505 44.2053 38.466 43.0823 39.9194 41.3813C41.3728 39.6803 42.1676 37.5143 42.1594 35.2769V31.5278C42.1594 30.2973 41.917 29.0788 41.446 27.9419C40.9751 26.8051 40.2848 25.7721 39.4146 24.902C38.5444 24.032 37.5114 23.3418 36.3745 22.8711C35.2375 22.4003 34.019 22.158 32.7885 22.1582Z" fill="#D18660" stroke="#45413C" stroke-width="1.5" stroke-linecap="round" stroke-linejoin="round"/>
<path d="M31.1488 32.4646C30.9172 32.4646 30.6907 32.5333 30.4981 32.662C30.3055 32.7907 30.1554 32.9736 30.0668 33.1876C29.9781 33.4016 29.9549 33.6371 30.0001 33.8643C30.0453 34.0915 30.1568 34.3002 30.3206 34.464C30.4844 34.6278 30.6931 34.7393 30.9203 34.7845C31.1475 34.8297 31.383 34.8065 31.597 34.7178C31.811 34.6292 31.9939 34.4791 32.1226 34.2865C32.2513 34.0939 32.32 33.8674 32.32 33.6358C32.32 33.3252 32.1966 33.0273 31.977 32.8076C31.7573 32.588 31.4594 32.4646 31.1488 32.4646Z" fill="#45413C"/>
<path d="M38.1773 32.4646C37.9456 32.4646 37.7192 32.5333 37.5266 32.662C37.334 32.7907 37.1839 32.9736 37.0952 33.1876C37.0066 33.4016 36.9834 33.6371 37.0286 33.8643C37.0738 34.0915 37.1853 34.3002 37.3491 34.464C37.5129 34.6278 37.7216 34.7393 37.9488 34.7845C38.176 34.8297 38.4115 34.8065 38.6255 34.7178C38.8395 34.6292 39.0224 34.4791 39.1511 34.2865C39.2798 34.0939 39.3485 33.8674 39.3485 33.6358C39.3485 33.3252 39.2251 33.0273 39.0054 32.8076C38.7858 32.588 38.4879 32.4646 38.1773 32.4646Z" fill="#45413C"/>
<path d="M29.9776 37.3837C29.9776 37.569 29.9226 37.7502 29.8197 37.9043C29.7167 38.0584 29.5704 38.1785 29.3992 38.2494C29.228 38.3203 29.0396 38.3388 28.8578 38.3027C28.6761 38.2665 28.5091 38.1773 28.3781 38.0463C28.2471 37.9152 28.1578 37.7483 28.1217 37.5665C28.0855 37.3848 28.1041 37.1964 28.175 37.0252C28.2459 36.854 28.366 36.7076 28.5201 36.6047C28.6742 36.5017 28.8553 36.4468 29.0406 36.4468C29.2891 36.4468 29.5274 36.5455 29.7032 36.7212C29.8789 36.8969 29.9776 37.1352 29.9776 37.3837Z" fill="#BD704A"/>
<path d="M32.3213 38.9351C32.8803 39.4298 33.5824 39.7338 34.3257 39.8028C35.069 39.8718 35.8151 39.7024 36.4557 39.3191C36.6489 39.2056 36.8329 39.0772 37.0061 38.9351" stroke="#45413C" stroke-width="1.5" stroke-linecap="round" stroke-linejoin="round"/>
<path d="M41.5846 27.9041C38.5814 28.9941 35.4029 29.5209 32.2086 29.458C30.6139 29.4974 29.0204 29.3414 27.4637 28.9934C27.2129 28.945 26.9551 28.9473 26.7053 29.0003C26.4555 29.0532 26.2189 29.1557 26.0094 29.3016C25.7998 29.4475 25.6217 29.634 25.4854 29.8499C25.3491 30.0658 25.2575 30.3069 25.216 30.5588C24.992 32.018 24.5107 33.3479 22.5881 33.6308V29.9521C22.6772 28.6374 23.0899 27.3651 23.7896 26.2485C24.4893 25.1319 25.4541 24.2056 26.5984 23.5521C29.6435 21.7089 31.3907 21.1482 30.6214 19.561C30.8454 19.6417 33.3529 20.4263 32.6003 21.9495C32.6003 21.9495 34.6125 20.347 32.2086 17.1418C32.2086 17.1418 37.3913 18.7444 35.8208 21.9329C36.2012 21.6641 36.5093 21.3056 36.7179 20.8892C36.9264 20.4728 37.0289 20.0113 37.0163 19.5457C38.5666 20.2733 39.8451 21.4755 40.6664 22.9783C41.4878 24.4811 41.8094 26.2063 41.5846 27.9041Z" fill="#724F3D" stroke="#45413C" stroke-width="1.5" stroke-linecap="round" stroke-linejoin="round"/>
</svg>
