<svg width="128" height="128" viewBox="0 0 128 128" fill="none" xmlns="http://www.w3.org/2000/svg">
<path d="M64 116.922C92.277 116.922 115.2 93.9987 115.2 65.7217C115.2 37.4447 92.277 14.5217 64 14.5217C35.723 14.5217 12.8 37.4447 12.8 65.7217C12.8 93.9987 35.723 116.922 64 116.922Z" fill="#C7F0FF"/>
<path opacity="0.15" d="M64.279 113.914C69.5993 113.914 73.9123 113.105 73.9123 112.108C73.9123 111.11 69.5993 110.302 64.279 110.302C58.9587 110.302 54.6458 111.11 54.6458 112.108C54.6458 113.105 58.9587 113.914 64.279 113.914Z" fill="#525252"/>
<path d="M70.7379 66.898C68.8478 66.5488 66.9083 66.5644 65.024 66.9441V71.5124C65.9691 71.2289 66.9505 71.0845 67.9373 71.0836C70.6819 71.0778 73.3165 72.1626 75.2613 74.0993C77.2062 76.036 78.3021 78.6659 78.3078 81.4106C78.3136 84.1553 77.2288 86.7898 75.2921 88.7347C73.3554 90.6795 70.7255 91.7754 67.9808 91.7812C66.9795 91.7836 65.9833 91.6391 65.024 91.3524V95.9207C66.9295 96.2963 68.8903 96.2929 70.7945 95.9107C72.6986 95.5285 74.5089 94.775 76.1219 93.6932C77.7349 92.6114 79.119 91.2225 80.1952 89.6058C81.2714 87.9891 82.0186 86.1763 82.3942 84.2708C82.7698 82.3653 82.7664 80.4045 82.3842 78.5003C82.0021 76.5961 81.2486 74.7859 80.1668 73.1729C79.085 71.5599 77.6961 70.1758 76.0794 69.0996C74.4626 68.0234 72.6498 67.2761 70.7443 66.9005L70.7379 66.898Z" fill="#FFE500" stroke="#45413C" stroke-width="1.5" stroke-linecap="round" stroke-linejoin="round"/>
<path d="M69.4528 98.56C69.4527 98.9521 69.2971 99.3282 69.0202 99.6058L63.1066 105.519C62.8998 105.726 62.6363 105.867 62.3494 105.924C62.0625 105.981 61.7652 105.952 61.4949 105.84C61.2247 105.728 60.9938 105.539 60.8313 105.295C60.6689 105.052 60.5822 104.766 60.5824 104.474V81.4336H69.4528V98.56Z" fill="#FFE500" stroke="#45413C" stroke-width="1.5" stroke-linecap="round" stroke-linejoin="round"/>
<path d="M60.5824 81.4299V90.1224C62.0275 90.2312 63.5034 90.3003 65.0176 90.3003C66.5318 90.3003 68.0077 90.2312 69.4528 90.1224V81.4299H60.5824Z" fill="#EBCB00"/>
<path d="M69.4528 98.56C69.4527 98.9521 69.2971 99.3282 69.0202 99.6058L63.1066 105.519C62.8998 105.726 62.6363 105.867 62.3494 105.924C62.0625 105.981 61.7652 105.952 61.4949 105.84C61.2247 105.728 60.9938 105.539 60.8313 105.295C60.6689 105.052 60.5822 104.766 60.5824 104.474V81.4336H69.4528V98.56Z" stroke="#45413C" stroke-width="1.5" stroke-linecap="round" stroke-linejoin="round"/>
<path d="M38.4064 57.7754V71.081C38.4064 77.609 50.3206 82.9082 65.0176 82.9082C79.7145 82.9082 91.6288 77.6128 91.6288 71.081V57.7754H38.4064Z" fill="#FFE500" stroke="#45413C" stroke-width="1.5" stroke-linecap="round" stroke-linejoin="round"/>
<path d="M65.0176 63.0772C79.7145 63.0772 91.6288 60.7035 91.6288 57.7754C91.6288 54.8473 79.7145 52.4736 65.0176 52.4736C50.3206 52.4736 38.4064 54.8473 38.4064 57.7754C38.4064 60.7035 50.3206 63.0772 65.0176 63.0772Z" fill="#EBCB00" stroke="#45413C" stroke-width="1.5" stroke-linecap="round" stroke-linejoin="round"/>
<path d="M72.8354 12.0823L59.2265 45.0969C58.8848 45.9256 59.2797 46.8743 60.1085 47.216L84.1185 57.1132C84.9472 57.4548 85.896 57.0599 86.2376 56.2312L99.8466 23.2166C100.188 22.3879 99.7933 21.4391 98.9646 21.0975L74.9545 11.2003C74.1258 10.8587 73.177 11.2536 72.8354 12.0823Z" fill="white"/>
<path d="M72.8354 12.0823L59.2265 45.0969C58.8848 45.9256 59.2797 46.8743 60.1085 47.216L84.1185 57.1132C84.9472 57.4548 85.896 57.0599 86.2376 56.2312L99.8466 23.2166C100.188 22.3879 99.7933 21.4391 98.9646 21.0975L74.9545 11.2003C74.1258 10.8587 73.177 11.2536 72.8354 12.0823Z" stroke="#45413C" stroke-width="1.5" stroke-linecap="round" stroke-linejoin="round"/>
<path d="M66.2029 40.9511L83.4611 48.0641M79.2333 19.9873L92.7398 25.5553L79.2333 19.9873ZM72.3891 25.9444L89.6461 33.0587L72.3891 25.9444ZM69.2966 33.4478L86.5536 40.5607L69.2966 33.4478Z" stroke="#45413C" stroke-width="1.5" stroke-linecap="round" stroke-linejoin="round"/>
<path d="M72.9715 55.09C72.9421 55.1053 72.8973 55.1207 72.8678 55.1348L54.9478 61.714H54.9325L52.8473 62.4973C51.7248 62.3783 50.6457 62.2413 49.6256 62.098C48.3377 61.9245 47.0567 61.7025 45.7856 61.4324L43.3011 54.706L35.2 32.6772L34.0761 29.632C34.002 29.4321 33.968 29.2195 33.9762 29.0065C33.9844 28.7934 34.0346 28.584 34.1239 28.3904C34.2132 28.1968 34.3399 28.0227 34.4966 27.8782C34.6534 27.7337 34.8372 27.6215 35.0374 27.5482L59.4009 18.5741C59.6009 18.4999 59.8136 18.4659 60.0268 18.4741C60.2399 18.4823 60.4494 18.5324 60.6431 18.6218C60.8368 18.7111 61.011 18.8378 61.1557 18.9945C61.3003 19.1513 61.4126 19.3351 61.4861 19.5354L62.5792 22.5216L62.5945 22.5511L65.9648 31.7018L67.2 35.072L68.4429 38.4128V38.4282L71.5328 46.825L73.728 52.7693L73.8317 53.0509C73.9691 53.4368 73.9571 53.8602 73.7979 54.2376C73.6387 54.615 73.3438 54.9191 72.9715 55.09V55.09Z" fill="white"/>
<path d="M48.7334 55.3613L66.2502 48.914M72.9715 55.09C72.9421 55.1053 72.8973 55.1207 72.8678 55.1348L54.9478 61.714H54.9325L52.8473 62.4973C51.7248 62.3783 50.6457 62.2413 49.6256 62.098C48.3377 61.9245 47.0567 61.7025 45.7856 61.4324L43.3011 54.706L35.2 32.6772L34.0761 29.632C34.002 29.4321 33.968 29.2195 33.9762 29.0065C33.9844 28.7934 34.0346 28.584 34.1239 28.3904C34.2132 28.1968 34.3399 28.0227 34.4966 27.8782C34.6534 27.7337 34.8372 27.6215 35.0374 27.5482L59.4009 18.5741C59.6009 18.4999 59.8136 18.4659 60.0268 18.4741C60.2399 18.4823 60.4494 18.5324 60.6431 18.6218C60.8368 18.7111 61.011 18.8378 61.1557 18.9945C61.3003 19.1513 61.4126 19.3351 61.4861 19.5354L62.5792 22.5216L62.5945 22.5511L65.9648 31.7018L67.2 35.072L68.4429 38.4128V38.4282L71.5328 46.825L73.728 52.7693L73.8317 53.0509C73.9691 53.4368 73.9571 53.8602 73.7979 54.2376C73.6387 54.615 73.3438 54.9191 72.9715 55.09V55.09ZM44.1318 31.1117L57.8406 26.066L44.1318 31.1117ZM43.127 40.1293L60.6438 33.682L43.127 40.1293ZM45.9302 47.7453L63.447 41.298L45.9302 47.7453Z" stroke="#45413C" stroke-width="1.5" stroke-linecap="round" stroke-linejoin="round"/>
<path d="M81.28 34.6291L80.9997 37.8522L79.6979 53.3402L78.9299 62.2848C76.224 62.6253 73.2083 62.8621 69.9853 62.9798C68.3733 63.0387 66.7174 63.0682 65.0176 63.0682C60.6272 63.0682 56.4877 62.8621 52.8499 62.4922C51.7273 62.3731 50.6483 62.2362 49.6281 62.0928L50.2489 54.7891L50.3667 53.3402L51.0067 45.8752L51.7606 36.9459L51.8886 35.3933L52.1549 32.1549C52.1968 31.7276 52.4043 31.3336 52.733 31.0573C53.0617 30.781 53.4854 30.6443 53.9136 30.6765L65.9622 31.7005L79.7862 32.8691C80.0001 32.8859 80.2086 32.9448 80.3996 33.0425C80.5907 33.1402 80.7605 33.2747 80.8993 33.4383C81.0382 33.6019 81.1433 33.7913 81.2086 33.9957C81.2739 34.2001 81.2982 34.4153 81.28 34.6291V34.6291Z" fill="white"/>
<path d="M55.2345 53.5975L73.8342 55.1719M81.28 34.6291L80.9997 37.8522L79.6979 53.3402L78.9299 62.2848C76.224 62.6253 73.2083 62.8621 69.9853 62.9798C68.3733 63.0387 66.7174 63.0682 65.0176 63.0682C60.6272 63.0682 56.4877 62.8621 52.8499 62.4922C51.7273 62.3731 50.6483 62.2362 49.6281 62.0928L50.2489 54.7891L50.3667 53.3402L51.0067 45.8752L51.7606 36.9459L51.8886 35.3933L52.1549 32.1549C52.1968 31.7276 52.4043 31.3336 52.733 31.0573C53.0617 30.781 53.4854 30.6443 53.9136 30.6765L65.9622 31.7005L79.7862 32.8691C80.0001 32.8859 80.2086 32.9448 80.3996 33.0425C80.5907 33.1402 80.7605 33.2747 80.8993 33.4383C81.0382 33.6019 81.1433 33.7913 81.2086 33.9957C81.2739 34.2001 81.2982 34.4153 81.28 34.6291V34.6291ZM60.6464 37.7651L75.2025 38.9978L60.6464 37.7651ZM55.9193 45.5104L74.5177 47.0848L55.9193 45.5104Z" stroke="#45413C" stroke-width="1.5" stroke-linecap="round" stroke-linejoin="round"/>
</svg>

