<svg width="128" height="128" viewBox="0 0 128 128" fill="none" xmlns="http://www.w3.org/2000/svg">
<path d="M115.199 63.9995C115.2 56.3581 113.491 48.8134 110.196 41.9186C106.902 35.0239 102.106 28.9541 96.16 24.1542C90.2143 19.3543 83.2695 15.9462 75.8351 14.1798C68.4007 12.4133 60.6651 12.3334 53.1958 13.9458C45.7264 15.5581 38.7127 18.822 32.669 23.4979C26.6253 28.1738 21.7048 34.1433 18.2685 40.9684C14.8322 47.7936 12.9671 55.3013 12.8101 62.9411C12.6531 70.5809 14.2082 78.1589 17.3612 85.1195H110.637C113.649 78.4861 115.205 71.2845 115.199 63.9995Z" fill="#B8ECFF"/>
<path d="M17.3618 85.1185C21.4229 94.0836 27.9817 101.688 36.2531 107.022C44.5245 112.355 54.1579 115.192 63.9999 115.192C73.8418 115.192 83.4752 112.355 91.7466 107.022C100.018 101.688 106.577 94.0836 110.638 85.1185H17.3618Z" fill="#C0DCEB"/>
<path fill-rule="evenodd" clip-rule="evenodd" d="M13.4399 85.1191C13.4399 84.7657 13.7265 84.4791 14.0799 84.4791H113.92C114.273 84.4791 114.56 84.7657 114.56 85.1191C114.56 85.4726 114.273 85.7591 113.92 85.7591H14.0799C13.7265 85.7591 13.4399 85.4726 13.4399 85.1191Z" fill="#45413C"/>
<path fill-rule="evenodd" clip-rule="evenodd" d="M7.67969 85.1191C7.67969 84.7657 7.96622 84.4791 8.31969 84.4791H11.5197C11.8731 84.4791 12.1597 84.7657 12.1597 85.1191C12.1597 85.4726 11.8731 85.7591 11.5197 85.7591H8.31969C7.96622 85.7591 7.67969 85.4726 7.67969 85.1191Z" fill="#45413C"/>
<path fill-rule="evenodd" clip-rule="evenodd" d="M115.839 85.1191C115.839 84.7657 116.125 84.4791 116.479 84.4791H119.679C120.032 84.4791 120.319 84.7657 120.319 85.1191C120.319 85.4726 120.032 85.7591 119.679 85.7591H116.479C116.125 85.7591 115.839 85.4726 115.839 85.1191Z" fill="#45413C"/>
<path d="M63.1153 66.304H69.3975C69.6913 66.3033 69.9728 66.1863 70.1806 65.9785C70.3883 65.7708 70.5053 65.4893 70.506 65.1955C70.5092 65.0714 70.5216 64.9478 70.5431 64.8256H75.6478C75.6697 64.9478 75.6825 65.0714 75.6862 65.1955C75.6845 66.861 75.022 68.4578 73.8442 69.6354C72.6664 70.8129 71.0694 71.4751 69.4039 71.4764H63.1153C62.4393 71.4614 61.7961 71.1823 61.3234 70.6989C60.8506 70.2156 60.5859 69.5663 60.5859 68.8902C60.5859 68.2141 60.8506 67.5648 61.3234 67.0815C61.7961 66.5981 62.4393 66.319 63.1153 66.304Z" fill="#FFCEBF"/>
<path fill-rule="evenodd" clip-rule="evenodd" d="M69.9146 64.7141C69.9684 64.4081 70.2342 64.1849 70.5449 64.1849H75.6496C75.9594 64.1849 76.2248 64.4069 76.2795 64.712C76.307 64.8652 76.3231 65.0203 76.3277 65.176C76.3279 65.1825 76.328 65.189 76.328 65.1955C76.3261 67.0305 75.5962 68.7898 74.2985 70.0873C73.0008 71.3847 71.2413 72.1142 69.4062 72.1157H63.1171L63.1029 72.1156C62.2597 72.0968 61.4573 71.7487 60.8676 71.1457C60.2779 70.5428 59.9478 69.7329 59.9478 68.8895C59.9478 68.0461 60.2779 67.2363 60.8676 66.6333C61.4567 66.031 62.258 65.683 63.1002 65.6635C63.1011 65.6635 63.102 65.6635 63.1029 65.6635L63.1313 66.9431C63.1291 66.9432 63.1269 66.9432 63.1247 66.9433C62.6184 66.9563 62.137 67.1661 61.7828 67.5283C61.427 67.8921 61.2278 68.3807 61.2278 68.8895C61.2278 69.3984 61.427 69.887 61.7828 70.2508C62.137 70.613 62.6184 70.8228 63.1247 70.8357H69.4052C70.9012 70.8345 72.3356 70.2398 73.3935 69.1821C74.3874 68.1884 74.9728 66.8623 75.0412 65.4649H71.1265C71.0692 65.8284 70.8983 66.1671 70.6349 66.4304C70.3075 66.7578 69.8638 66.9422 69.4008 66.9433L69.3993 66.9433H63.1247M69.9146 64.7141C69.8876 64.8675 69.8721 65.0226 69.868 65.1782L69.9146 64.7141ZM69.868 65.1782L69.8678 65.1934L69.868 65.1782ZM69.8678 65.1934C69.8675 65.3179 69.8179 65.4373 69.7298 65.5254L69.8678 65.1934ZM69.7298 65.5254C69.6419 65.6133 69.5228 65.6629 69.3984 65.6633L69.7298 65.5254Z" fill="#45413C"/>
<path d="M98.591 62.6092C98.591 58.8852 97.1116 55.3136 94.4783 52.6803C91.845 50.047 88.2735 48.5676 84.5494 48.5676C80.8254 48.5676 77.2538 50.047 74.6205 52.6803C71.9872 55.3136 70.5078 58.8852 70.5078 62.6092V64.8262H74.2032V74.4339H93.4173L93.4237 64.8262H98.591V62.6092Z" fill="#6DD627"/>
<path d="M84.5494 48.5676C80.8255 48.568 77.2541 50.0475 74.6209 52.6807C71.9876 55.3139 70.5082 58.8853 70.5078 62.6092V64.8262H70.8253C71.5001 61.6874 73.2305 58.8747 75.7279 56.8571C78.2253 54.8396 81.3389 53.739 84.5494 53.739C87.76 53.739 90.8735 54.8396 93.3709 56.8571C95.8684 58.8747 97.5988 61.6874 98.2736 64.8262H98.591V62.6092C98.5907 58.8853 97.1112 55.3139 94.478 52.6807C91.8447 50.0475 88.2734 48.568 84.5494 48.5676Z" fill="#9CEB60"/>
<path fill-rule="evenodd" clip-rule="evenodd" d="M74.1673 52.2273C76.9207 49.4739 80.655 47.9271 84.5488 47.9271C88.4426 47.9271 92.1769 49.4739 94.9302 52.2273C97.6836 54.9806 99.2304 58.7149 99.2304 62.6087V64.8257C99.2304 65.1791 98.9438 65.4657 98.5904 65.4657H94.0626L94.0566 74.4338C94.0564 74.7871 93.7699 75.0734 93.4166 75.0734H74.2025C73.8491 75.0734 73.5625 74.7868 73.5625 74.4334V65.4657H70.5072C70.1537 65.4657 69.8672 65.1791 69.8672 64.8257V62.6087C69.8672 58.7149 71.414 54.9806 74.1673 52.2273ZM84.5488 49.2071C80.9945 49.2071 77.5857 50.6191 75.0724 53.1324C72.5591 55.6457 71.1472 59.0544 71.1472 62.6087V64.1857H74.2025C74.556 64.1857 74.8425 64.4722 74.8425 64.8257V73.7934H92.7771L92.783 64.8253C92.7833 64.472 93.0697 64.1857 93.423 64.1857H97.9504V62.6087C97.9504 59.0544 96.5384 55.6457 94.0251 53.1324C91.5119 50.6191 88.1031 49.2071 84.5488 49.2071Z" fill="#45413C"/>
<path fill-rule="evenodd" clip-rule="evenodd" d="M93.4159 59.7526C93.7693 59.7526 94.0559 60.0391 94.0559 60.3926V64.8265C94.0559 65.1799 93.7693 65.4665 93.4159 65.4665C93.0624 65.4665 92.7759 65.1799 92.7759 64.8265V60.3926C92.7759 60.0391 93.0624 59.7526 93.4159 59.7526Z" fill="#45413C"/>
<path fill-rule="evenodd" clip-rule="evenodd" d="M74.2001 59.7526C74.5535 59.7526 74.84 60.0391 74.84 60.3926V64.8265C74.84 65.1799 74.5535 65.4665 74.2001 65.4665C73.8466 65.4665 73.5601 65.1799 73.5601 64.8265V60.3926C73.5601 60.0391 73.8466 59.7526 74.2001 59.7526Z" fill="#45413C"/>
<path d="M86.0272 66.304H92.3082C92.602 66.3033 92.8836 66.1863 93.0913 65.9786C93.299 65.7708 93.416 65.4893 93.4167 65.1955C93.4204 65.0714 93.4332 64.9478 93.4551 64.8256H98.5534C98.5749 64.9478 98.5873 65.0714 98.5905 65.1955C98.5888 66.861 97.9263 68.4578 96.7485 69.6354C95.5707 70.813 93.9738 71.4751 92.3082 71.4764H86.0272C85.6828 71.4841 85.3402 71.4229 85.0198 71.2963C84.6993 71.1698 84.4073 70.9805 84.161 70.7396C83.9146 70.4987 83.7189 70.211 83.5853 69.8934C83.4516 69.5758 83.3828 69.2348 83.3828 68.8902C83.3828 68.5456 83.4516 68.2046 83.5853 67.887C83.7189 67.5694 83.9146 67.2817 84.161 67.0408C84.4073 66.7999 84.6993 66.6106 85.0198 66.4841C85.3402 66.3575 85.6828 66.2963 86.0272 66.304Z" fill="#FFCEBF"/>
<path fill-rule="evenodd" clip-rule="evenodd" d="M92.8221 64.712C92.8768 64.407 93.1421 64.1849 93.452 64.1849H98.5503C98.861 64.1849 99.1268 64.4081 99.1806 64.7141C99.2075 64.8675 99.2231 65.0226 99.2272 65.1782L99.2274 65.1955C99.2255 67.0306 98.4956 68.7899 97.1979 70.0873C95.9002 71.3848 94.1407 72.1143 92.3056 72.1158H86.0309C85.6037 72.1243 85.1791 72.0479 84.7817 71.891C84.3819 71.7332 84.0177 71.4971 83.7104 71.1966C83.4031 70.896 83.159 70.5372 82.9923 70.141C82.8256 69.7449 82.7397 69.3194 82.7397 68.8896C82.7397 68.4598 82.8256 68.0343 82.9923 67.6381C83.159 67.242 83.4031 66.8831 83.7104 66.5826C84.0177 66.2821 84.3819 66.046 84.7817 65.8881C85.1791 65.7312 85.6037 65.6548 86.0309 65.6633H92.3042C92.4286 65.6629 92.5477 65.6133 92.6356 65.5254C92.7237 65.4373 92.7733 65.3179 92.7736 65.1934L92.7739 65.176C92.7785 65.0204 92.7946 64.8653 92.8221 64.712Z" fill="#45413C"/>
<path d="M87.7276 48.9373C87.4461 48.8714 87.1953 48.7122 87.0159 48.4856C86.8365 48.259 86.739 47.9784 86.7394 47.6893V44.3242H80.9743V48.0977C80.9741 48.3676 80.8886 48.6305 80.7299 48.8489C80.5713 49.0673 80.3477 49.23 80.0911 49.3137C79.6537 49.4546 79.2243 49.6191 78.8047 49.8065C79.0866 50.9759 79.7689 52.0097 80.7334 52.7285C81.6979 53.4474 82.8836 53.8059 84.0848 53.7419C85.2859 53.6779 86.4268 53.1954 87.3094 52.3781C88.192 51.5608 88.7607 50.4603 88.9167 49.2676C88.525 49.1413 88.1286 49.0312 87.7276 48.9373Z" fill="#FFCEBF"/>
<path d="M80.3284 44.3254C80.3284 43.9688 80.6175 43.6797 80.9741 43.6797H86.7393C87.0959 43.6797 87.385 43.9688 87.385 44.3254L87.385 47.6914C87.3848 47.8346 87.4331 47.9737 87.522 48.086C87.6109 48.1983 87.7352 48.2772 87.8746 48.3098C88.2929 48.4077 88.7062 48.5225 89.1147 48.6542C89.4113 48.7498 89.5973 49.0436 89.5568 49.3526C89.3813 50.6949 88.7413 51.9333 87.748 52.8531C86.7547 53.7729 85.4708 54.3159 84.119 54.3879C82.7672 54.46 81.4328 54.0565 80.3474 53.2475C79.2619 52.4385 78.494 51.275 78.1768 49.959C78.1038 49.6564 78.2571 49.3449 78.5413 49.218C78.9818 49.0214 79.4325 48.8487 79.8916 48.7007C80.0184 48.6591 80.1289 48.5786 80.2073 48.4707C80.2859 48.3625 80.3282 48.2323 80.3284 48.0986V44.3254Z" fill="#45413C"/>
<path d="M83.8093 26.5182C86.1604 26.5199 88.4147 27.4551 90.0766 29.1182C91.7385 30.7813 92.672 33.0362 92.672 35.3873V36.57C93.1038 36.6498 93.4918 36.8839 93.7638 37.2285C94.0358 37.5732 94.1732 38.0049 94.1505 38.4434C94.1278 38.8819 93.9465 39.2971 93.6404 39.6118C93.3342 39.9266 92.9241 40.1192 92.4864 40.154C92.0383 42.3024 90.8095 44.2084 89.0377 45.5034C87.2659 46.7984 85.0768 47.3905 82.8938 47.1652C80.7107 46.9399 78.6887 45.9133 77.2187 44.2837C75.7487 42.6542 74.935 40.5375 74.9351 38.3428V35.3873C74.9351 34.2222 75.1646 33.0684 75.6107 31.9921C76.0567 30.9157 76.7105 29.9377 77.5346 29.1141C78.3587 28.2904 79.337 27.6373 80.4137 27.1918C81.4903 26.7464 82.6442 26.5175 83.8093 26.5182Z" fill="#FFCEBF"/>
<path fill-rule="evenodd" clip-rule="evenodd" d="M83.8082 27.1589C82.7272 27.1583 81.6566 27.3707 80.6577 27.7839C79.6587 28.1972 78.751 28.8033 77.9864 29.5675C77.2217 30.3317 76.6151 31.2391 76.2013 32.2378C75.7874 33.2365 75.5744 34.307 75.5744 35.388V38.3436C75.5744 40.3798 76.3293 42.3438 77.6933 43.8558C79.0572 45.3677 80.9333 46.3203 82.9588 46.5293C84.9844 46.7383 87.0154 46.189 88.6594 44.9874C90.3034 43.7858 91.4435 42.0174 91.8593 40.0241C91.9173 39.7459 92.1518 39.5393 92.4351 39.5168C92.718 39.4943 92.9831 39.3697 93.181 39.1663C93.3789 38.9629 93.4961 38.6944 93.5108 38.411C93.5254 38.1276 93.4366 37.8485 93.2608 37.6257C93.0849 37.4029 92.8341 37.2517 92.5551 37.2001C92.2516 37.144 92.0314 36.8793 92.0314 36.5707V35.388C92.0314 33.2066 91.1652 31.1143 89.6232 29.5713C88.0813 28.0282 85.9897 27.1605 83.8083 27.1589M80.1684 26.6012C81.3227 26.1236 82.5598 25.8782 83.809 25.8789L83.8091 25.8789C86.3299 25.8807 88.7468 26.8834 90.5287 28.6665C92.3105 30.4496 93.3114 32.8672 93.3114 35.388V36.1004C93.6828 36.2603 94.0115 36.5109 94.2655 36.8327C94.6337 37.2993 94.8198 37.8837 94.789 38.4772C94.7583 39.0707 94.5129 39.6328 94.0985 40.0588C93.798 40.3677 93.4235 40.5898 93.0145 40.7065C92.4679 42.8372 91.1978 44.7175 89.4147 46.0208C87.515 47.4093 85.168 48.0441 82.8274 47.8026C80.4869 47.561 78.319 46.4603 76.7429 44.7131C75.1668 42.966 74.2944 40.6965 74.2944 38.3435V35.388C74.2944 34.1388 74.5406 32.9018 75.0188 31.7478C75.497 30.5937 76.1979 29.5452 77.0815 28.6621C77.9651 27.779 79.014 27.0787 80.1684 26.6012Z" fill="#45413C"/>
<path d="M86.7632 39.4522C86.7632 39.7462 86.88 40.0282 87.0878 40.236C87.2957 40.4439 87.5777 40.5607 87.8717 40.5607C88.1656 40.5607 88.4476 40.4439 88.6555 40.236C88.8633 40.0282 88.9801 39.7462 88.9801 39.4522C88.9801 39.1582 88.8633 38.8763 88.6555 38.6684C88.4476 38.4605 88.1656 38.3438 87.8717 38.3438C87.5777 38.3438 87.2957 38.4605 87.0878 38.6684C86.88 38.8763 86.7632 39.1582 86.7632 39.4522Z" fill="#FFB59E"/>
<path fill-rule="evenodd" clip-rule="evenodd" d="M79.5816 41.7564C79.7777 41.4623 80.175 41.3828 80.4691 41.5788C81.0206 41.9464 81.6685 42.1425 82.3312 42.1425C82.9939 42.1425 83.6418 41.9464 84.1932 41.5788C84.4874 41.3828 84.8847 41.4623 85.0807 41.7564C85.2768 42.0506 85.1972 42.4479 84.9031 42.644C84.1414 43.1516 83.2465 43.4225 82.3312 43.4225C81.4158 43.4225 80.5209 43.1516 79.7593 42.644C79.4651 42.4479 79.3856 42.0506 79.5816 41.7564Z" fill="#45413C"/>
<path d="M90.4594 28.735C90.4594 28.735 91.198 22.8227 83.8034 22.8227C81.0318 22.8227 79.5073 22.4071 79.23 21.576C79.1998 21.4428 79.1431 21.3171 79.0632 21.2063C78.9833 21.0956 78.8819 21.0021 78.765 20.9315C78.6481 20.8608 78.5182 20.8145 78.383 20.7953C78.2478 20.776 78.1101 20.7843 77.9782 20.8195C74.8422 21.809 72.3462 26.289 74.9343 35.3872V35.3398C74.9394 34.8865 74.9792 34.4342 75.0534 33.9869C75.1929 33.1049 75.4661 32.2495 75.8636 31.4499C77.4943 29.8192 78.9881 31.9875 82.3225 31.9875C84.2812 31.9751 86.2369 31.8297 88.1759 31.5523C88.4069 31.5079 88.6445 31.5104 88.8746 31.5597C89.1046 31.609 89.3223 31.7041 89.5148 31.8393C89.7074 31.9745 89.8707 32.147 89.9952 32.3466C90.1196 32.5463 90.2026 32.7689 90.2393 33.0013C90.242 33.5832 90.4542 34.1447 90.8372 34.5829C91.2201 35.021 91.7481 35.3066 92.3244 35.3872H92.6713C92.6802 35.3706 94.1497 28.735 90.4594 28.735Z" fill="#614B44"/>
<path d="M83.0718 26.5185C85.574 26.4948 88.0634 26.8769 90.4433 27.65C90.2564 25.945 89.1876 22.8231 83.8116 22.8231C81.04 22.8231 79.5155 22.4076 79.2382 21.5764C79.2088 21.4444 79.1532 21.3197 79.0747 21.2095C78.9962 21.0994 78.8964 21.0061 78.7813 20.9352C78.6661 20.8643 78.5379 20.8173 78.4042 20.7968C78.2705 20.7763 78.1341 20.7829 78.003 20.8161C75.8052 21.5035 73.9224 23.9098 73.875 28.4129C76.758 27.0943 79.9024 26.4466 83.0718 26.5185Z" fill="#947063"/>
<path fill-rule="evenodd" clip-rule="evenodd" d="M77.8149 20.2019C78.03 20.1445 78.2545 20.131 78.475 20.1624C78.6954 20.1937 78.9073 20.2693 79.0978 20.3844C79.2884 20.4996 79.4538 20.652 79.5841 20.8326C79.7053 21.0007 79.7938 21.1899 79.8452 21.3904C79.8893 21.4923 80.0727 21.7092 80.7515 21.8943C81.4326 22.08 82.4405 22.1834 83.8053 22.1834C85.7387 22.1834 87.1943 22.5702 88.2822 23.1915C89.3744 23.8151 90.0586 24.654 90.4786 25.4932C90.8951 26.3255 91.048 27.1496 91.0989 27.7587C91.1111 27.9045 91.1175 28.0391 91.1202 28.1598C91.9314 28.3255 92.5199 28.8003 92.9108 29.4386C93.3733 30.1941 93.5447 31.149 93.5934 32.0199C93.6428 32.9043 93.5691 33.778 93.4849 34.4242C93.4425 34.7491 93.3969 35.021 93.3613 35.2136C93.3435 35.3099 93.3281 35.387 93.3167 35.4414C93.3111 35.4686 93.3062 35.4908 93.3025 35.5076L93.2968 35.532C93.296 35.5355 93.2944 35.5418 93.2925 35.5492C93.2917 35.5523 93.2896 35.5601 93.2867 35.5699C93.2851 35.5751 93.2809 35.5883 93.2782 35.5964C93.273 35.6109 93.253 35.6587 93.2366 35.6913C93.125 35.8986 92.9086 36.0279 92.6731 36.0279H92.3262C92.2966 36.0279 92.2669 36.0258 92.2376 36.0217C91.5089 35.9198 90.8413 35.5587 90.3571 35.0047C89.8854 34.465 89.6185 33.7773 89.6019 33.0619C89.5759 32.9287 89.5258 32.8013 89.4539 32.6859C89.3749 32.5592 89.2711 32.4496 89.1489 32.3637C89.0266 32.2779 88.8883 32.2175 88.7423 32.1862C88.5962 32.1549 88.4453 32.1533 88.2986 32.1815C88.2886 32.1834 88.2785 32.1851 88.2684 32.1866C86.3007 32.468 84.3161 32.6156 82.3284 32.6282L82.3243 32.6282C80.7903 32.6282 79.5961 32.197 78.6939 31.8712C78.5371 31.8146 78.3892 31.7612 78.2498 31.7138C77.7595 31.547 77.4193 31.4678 77.1332 31.4854C76.9052 31.4995 76.6693 31.5783 76.3906 31.8336C76.0479 32.5466 75.811 33.3059 75.6873 34.0876L75.6866 34.0922L75.6866 34.0922C75.618 34.5061 75.5811 34.9247 75.5762 35.3442V35.3879C75.5762 35.7072 75.3408 35.9777 75.0246 36.0218C74.7083 36.0659 74.4079 35.8701 74.3206 35.563C73.0068 30.9447 72.9596 27.42 73.697 24.8845C74.4384 22.3354 75.9812 20.7798 77.7874 20.2099C77.7965 20.207 77.8057 20.2044 77.8149 20.2019ZM74.8489 32.2115C74.9754 31.8548 75.1234 31.5055 75.2924 31.1657C75.3232 31.1037 75.3639 31.0471 75.4129 30.9981C75.9174 30.4936 76.4588 30.2447 77.0542 30.2079C77.611 30.1735 78.1584 30.3306 78.6622 30.502C78.8264 30.5579 78.9915 30.6171 79.1591 30.6772C80.0589 30.9997 81.0301 31.3479 82.3223 31.3482C84.2467 31.3359 86.1681 31.1933 88.0732 30.9215C88.3834 30.864 88.7019 30.8685 89.0105 30.9346C89.3245 31.0019 89.6217 31.1317 89.8845 31.3162C90.1473 31.5008 90.3702 31.7363 90.5401 32.0088C90.71 32.2812 90.8233 32.5851 90.8733 32.9023C90.8783 32.9343 90.881 32.9666 90.8811 32.999C90.8831 33.4271 91.0392 33.8401 91.3209 34.1624C91.5431 34.4167 91.8317 34.6011 92.1518 34.6967C92.1725 34.5681 92.1945 34.4208 92.2156 34.2588C92.2941 33.6561 92.3588 32.8679 92.3154 32.0913C92.2712 31.3012 92.1187 30.5962 91.8191 30.107C91.5468 29.6622 91.1468 29.3757 90.4613 29.3757C90.2777 29.3757 90.103 29.2969 89.9815 29.1593C89.8604 29.0222 89.8038 28.8398 89.826 28.6583C89.826 28.6579 89.8261 28.6576 89.8261 28.6572C89.8261 28.6572 89.8261 28.6571 89.8261 28.6571L89.8266 28.6521C89.8274 28.6453 89.8285 28.6332 89.83 28.6163C89.8328 28.5823 89.8365 28.5289 89.839 28.4589C89.844 28.3187 89.8441 28.1134 89.8233 27.8652C89.7816 27.3657 89.657 26.7118 89.3339 26.066C89.0142 25.4271 88.4966 24.7879 87.6475 24.303C86.7942 23.8157 85.5691 23.4634 83.8053 23.4634C82.3984 23.4634 81.2582 23.3591 80.4149 23.1292C79.6079 22.9092 78.8709 22.5171 78.6247 21.7793C78.618 21.7592 78.6123 21.7387 78.6076 21.7181C78.5965 21.6689 78.5755 21.6224 78.546 21.5815C78.5165 21.5406 78.479 21.506 78.4358 21.4799C78.3926 21.4538 78.3446 21.4367 78.2947 21.4296C78.2485 21.423 78.2015 21.4252 78.1561 21.4358C76.8323 21.8599 75.567 23.0383 74.9261 25.242C74.433 26.9373 74.3147 29.2343 74.8489 32.2115Z" fill="#45413C"/>
<path d="M74.604 36.8657C74.604 37.6495 74.9154 38.4013 75.4696 38.9555C76.0239 39.5098 76.7757 39.8212 77.5595 39.8212C78.3433 39.8212 79.0951 39.5098 79.6494 38.9555C80.2036 38.4013 80.515 37.6495 80.515 36.8657C80.515 36.0818 80.2036 35.3301 79.6494 34.7758C79.0951 34.2215 78.3433 33.9102 77.5595 33.9102C76.7757 33.9102 76.0239 34.2215 75.4696 34.7758C74.9154 35.3301 74.604 36.0818 74.604 36.8657Z" fill="#00B8F0"/>
<path d="M75.4674 38.9551C75.1929 38.6806 74.9751 38.3547 74.8266 37.9961C74.678 37.6374 74.6016 37.2531 74.6016 36.8649C74.6016 36.4767 74.678 36.0923 74.8266 35.7336C74.9751 35.375 75.1929 35.0491 75.4674 34.7746C75.7419 34.5001 76.0677 34.2824 76.4264 34.1338C76.785 33.9853 77.1694 33.9088 77.5576 33.9088C77.9458 33.9088 78.3302 33.9853 78.6888 34.1338C79.0475 34.2824 79.3733 34.5001 79.6478 34.7746L75.4674 38.9551Z" fill="#4ACFFF"/>
<path d="M83.4712 36.8657C83.4712 37.6495 83.7826 38.4013 84.3368 38.9555C84.8911 39.5098 85.6429 39.8212 86.4267 39.8212C87.2106 39.8212 87.9623 39.5098 88.5166 38.9555C89.0709 38.4013 89.3822 37.6495 89.3822 36.8657C89.3822 36.0818 89.0709 35.3301 88.5166 34.7758C87.9623 34.2215 87.2106 33.9102 86.4267 33.9102C85.6429 33.9102 84.8911 34.2215 84.3368 34.7758C83.7826 35.3301 83.4712 36.0818 83.4712 36.8657Z" fill="#00B8F0"/>
<path d="M84.337 38.9551C83.7826 38.4007 83.4712 37.6489 83.4712 36.8649C83.4712 36.0809 83.7826 35.329 84.337 34.7746C84.8914 34.2203 85.6432 33.9088 86.4272 33.9088C87.2112 33.9088 87.9631 34.2203 88.5175 34.7746L84.337 38.9551Z" fill="#4ACFFF"/>
<path fill-rule="evenodd" clip-rule="evenodd" d="M81.9874 36.0691C81.7693 36.0691 81.5598 36.1541 81.4033 36.306C81.2469 36.4579 81.1558 36.6648 81.1494 36.8828C81.139 37.2361 80.8441 37.5141 80.4908 37.5037C80.1375 37.4933 79.8595 37.1985 79.8699 36.8452C79.8861 36.2944 80.1163 35.7715 80.5117 35.3877C80.907 35.0038 81.4363 34.7891 81.9874 34.7891C82.5384 34.7891 83.0678 35.0038 83.4631 35.3877C83.8585 35.7715 84.0887 36.2944 84.1049 36.8452C84.1153 37.1985 83.8373 37.4933 83.484 37.5037C83.1307 37.5141 82.8358 37.2361 82.8254 36.8828C82.819 36.6648 82.7279 36.4579 82.5715 36.306C82.415 36.1541 82.2055 36.0691 81.9874 36.0691Z" fill="#45413C"/>
<path fill-rule="evenodd" clip-rule="evenodd" d="M75.0165 34.3226C75.6908 33.6483 76.6053 33.2695 77.5589 33.2695C78.5125 33.2695 79.427 33.6483 80.1013 34.3226C80.7756 34.9969 81.1544 35.9115 81.1544 36.8651C81.1544 37.8186 80.7756 38.7332 80.1013 39.4075C79.427 40.0818 78.5125 40.4606 77.5589 40.4606C76.6053 40.4606 75.6908 40.0818 75.0165 39.4075C74.3422 38.7332 73.9634 37.8186 73.9634 36.8651C73.9634 35.9115 74.3422 34.9969 75.0165 34.3226ZM77.5589 34.5495C76.9448 34.5495 76.3558 34.7935 75.9216 35.2277C75.4873 35.662 75.2434 36.2509 75.2434 36.8651C75.2434 37.4792 75.4873 38.0681 75.9216 38.5024C76.3558 38.9366 76.9448 39.1806 77.5589 39.1806C78.173 39.1806 78.762 38.9366 79.1962 38.5024C79.6305 38.0681 79.8744 37.4792 79.8744 36.8651C79.8744 36.2509 79.6305 35.662 79.1962 35.2277C78.762 34.7935 78.173 34.5495 77.5589 34.5495Z" fill="#45413C"/>
<path fill-rule="evenodd" clip-rule="evenodd" d="M83.8837 34.3226C84.558 33.6483 85.4725 33.2695 86.4261 33.2695C87.3797 33.2695 88.2942 33.6483 88.9685 34.3226C89.6428 34.9969 90.0216 35.9115 90.0216 36.8651C90.0216 37.8186 89.6428 38.7332 88.9685 39.4075C88.2942 40.0818 87.3797 40.4606 86.4261 40.4606C85.4725 40.4606 84.558 40.0818 83.8837 39.4075C83.2094 38.7332 82.8306 37.8186 82.8306 36.8651C82.8306 35.9115 83.2094 34.9969 83.8837 34.3226ZM86.4261 34.5495C85.812 34.5495 85.223 34.7935 84.7888 35.2277C84.3545 35.662 84.1106 36.2509 84.1106 36.8651C84.1106 37.4792 84.3545 38.0681 84.7888 38.5024C85.223 38.9366 85.812 39.1806 86.4261 39.1806C87.0402 39.1806 87.6292 38.9366 88.0634 38.5024C88.4977 38.0681 88.7416 37.4792 88.7416 36.8651C88.7416 36.2509 88.4977 35.662 88.0634 35.2277C87.6292 34.7935 87.0402 34.5495 86.4261 34.5495Z" fill="#45413C"/>
<path opacity="0.15" d="M23.2085 103.994C23.2085 104.285 24.3172 104.574 26.4713 104.843C28.6254 105.112 31.7827 105.356 35.7629 105.562C39.7431 105.768 44.4683 105.931 49.6688 106.043C54.8692 106.154 60.443 106.211 66.0719 106.211C71.7008 106.211 77.2745 106.154 82.475 106.043C87.6754 105.931 92.4006 105.768 96.3808 105.562C100.361 105.356 103.518 105.112 105.672 104.843C107.827 104.574 108.935 104.285 108.935 103.994C108.935 103.703 107.827 103.415 105.672 103.146C103.518 102.877 100.361 102.633 96.3808 102.427C92.4006 102.221 87.6754 102.058 82.475 101.946C77.2745 101.835 71.7008 101.777 66.0719 101.777C60.443 101.777 54.8692 101.835 49.6688 101.946C44.4683 102.058 39.7431 102.221 35.7629 102.427C31.7827 102.633 28.6254 102.877 26.4713 103.146C24.3172 103.415 23.2085 103.703 23.2085 103.994Z" fill="#45413C"/>
<path d="M105.24 74.4336H26.9038V99.56C26.9036 99.9482 26.98 100.333 27.1284 100.691C27.2769 101.05 27.4945 101.376 27.769 101.651C28.0435 101.925 28.3693 102.143 28.728 102.292C29.0867 102.44 29.4711 102.517 29.8593 102.517H102.284C103.068 102.516 103.82 102.205 104.374 101.65C104.929 101.096 105.24 100.344 105.24 99.56V74.4336Z" fill="#DEA47A"/>
<path d="M26.9038 74.4336H105.241V78.129H26.9038V74.4336Z" fill="#BF8256"/>
<path fill-rule="evenodd" clip-rule="evenodd" d="M26.2656 74.4343C26.2656 74.0808 26.5522 73.7943 26.9056 73.7943H105.242C105.595 73.7943 105.882 74.0808 105.882 74.4343V99.5607C105.882 100.514 105.503 101.429 104.829 102.103C104.155 102.778 103.24 103.157 102.286 103.158H29.8611C29.3888 103.158 28.9212 103.064 28.4848 102.884C28.0485 102.703 27.6521 102.438 27.3182 102.104C26.9843 101.77 26.7195 101.373 26.5389 100.937C26.3583 100.5 26.2654 100.033 26.2656 99.5607C26.2656 99.5607 26.2656 99.5607 26.2656 99.5607V74.4343ZM27.5456 75.0743V99.5607C27.5455 99.8649 27.6053 100.166 27.7216 100.447C27.8379 100.728 28.0084 100.984 28.2235 101.199C28.4385 101.414 28.6938 101.585 28.9748 101.701C29.2558 101.818 29.557 101.878 29.8611 101.878H102.286C102.286 101.878 102.286 101.878 102.286 101.878C102.9 101.877 103.489 101.633 103.923 101.199C104.358 100.764 104.602 100.175 104.602 99.5607V75.0743H27.5456Z" fill="#45413C"/>
<path d="M35.7734 74.4336H96.3737V102.517H35.7734V74.4336Z" fill="#F0D5A8"/>
<path d="M35.7734 74.4336H96.3737V78.129H35.7734V74.4336Z" fill="#DEBB7E"/>
<path fill-rule="evenodd" clip-rule="evenodd" d="M35.1328 74.4343C35.1328 74.0808 35.4194 73.7943 35.7728 73.7943H96.3731C96.7266 73.7943 97.0131 74.0808 97.0131 74.4343V102.518C97.0131 102.871 96.7266 103.158 96.3731 103.158H35.7728C35.4194 103.158 35.1328 102.871 35.1328 102.518V74.4343ZM36.4128 75.0743V101.878H95.7331V75.0743H36.4128Z" fill="#45413C"/>
<path d="M40.2056 78.8672H91.9382V98.0826H40.2056V78.8672Z" fill="#BF8256"/>
<path d="M87.5042 78.8672H44.6395C43.4635 78.8672 42.3358 79.3343 41.5042 80.1659C40.6727 80.9974 40.2056 82.1252 40.2056 83.3011V86.9965C40.2051 86.4139 40.3194 85.8369 40.542 85.2985C40.7646 84.7601 41.0911 84.2709 41.5029 83.8587C41.9147 83.4466 42.4036 83.1197 42.9418 82.8966C43.48 82.6735 44.0569 82.5587 44.6395 82.5587H87.5042C88.6802 82.5587 89.808 83.0259 90.6395 83.8574C91.471 84.6889 91.9382 85.8167 91.9382 86.9926V83.3011C91.9382 82.1252 91.471 80.9974 90.6395 80.1659C89.808 79.3343 88.6802 78.8672 87.5042 78.8672Z" fill="#915E3A"/>
<path fill-rule="evenodd" clip-rule="evenodd" d="M39.5649 78.8678C39.5649 78.5143 39.8515 78.2278 40.2049 78.2278H91.9374C92.2909 78.2278 92.5774 78.5143 92.5774 78.8678V98.0831C92.5774 98.4366 92.2909 98.7231 91.9374 98.7231H40.2049C39.8515 98.7231 39.5649 98.4366 39.5649 98.0831V78.8678ZM40.8449 79.5078V97.4431H91.2974V79.5078H40.8449Z" fill="#45413C"/>
<path d="M105.239 74.4334C105.631 74.4334 106.007 74.2776 106.284 74.0003C106.561 73.7231 106.717 73.3471 106.717 72.955C106.717 72.5629 106.561 72.1868 106.284 71.9096C106.007 71.6323 105.631 71.4766 105.239 71.4766H26.9027C26.5106 71.4766 26.1346 71.6323 25.8573 71.9096C25.5801 72.1868 25.4243 72.5629 25.4243 72.955C25.4243 73.3471 25.5801 73.7231 25.8573 74.0003C26.1346 74.2776 26.5106 74.4334 26.9027 74.4334H105.239Z" fill="#BF8256"/>
<path fill-rule="evenodd" clip-rule="evenodd" d="M25.4071 71.4577C25.8044 71.0605 26.3432 70.8373 26.905 70.8373H105.241C105.803 70.8373 106.342 71.0605 106.739 71.4577C107.136 71.855 107.359 72.3939 107.359 72.9557C107.359 73.5175 107.136 74.0564 106.739 74.4536C106.342 74.8509 105.803 75.0741 105.241 75.0741H26.905C26.3432 75.0741 25.8044 74.8509 25.4071 74.4536C25.0098 74.0564 24.7866 73.5175 24.7866 72.9557C24.7866 72.3939 25.0098 71.855 25.4071 71.4577ZM26.905 72.1173C26.6827 72.1173 26.4694 72.2056 26.3122 72.3628C26.155 72.5201 26.0666 72.7333 26.0666 72.9557C26.0666 73.178 26.155 73.3913 26.3122 73.5485C26.4694 73.7058 26.6827 73.7941 26.905 73.7941H105.241C105.463 73.7941 105.677 73.7058 105.834 73.5485C105.991 73.3913 106.079 73.178 106.079 72.9557C106.079 72.7333 105.991 72.5201 105.834 72.3628C105.677 72.2056 105.463 72.1173 105.241 72.1173H26.905Z" fill="#45413C"/>
<path d="M46.1189 68.5221H27.6484C27.6484 69.3059 27.9598 70.0577 28.5141 70.612C29.0684 71.1662 29.8201 71.4776 30.604 71.4776H46.1189V68.5221Z" fill="#C0DCEB"/>
<path fill-rule="evenodd" clip-rule="evenodd" d="M27.1953 68.069C27.3153 67.949 27.4781 67.8816 27.6478 67.8816H46.1182C46.4716 67.8816 46.7582 68.1681 46.7582 68.5216V71.4771C46.7582 71.8306 46.4716 72.1171 46.1182 72.1171H30.6033C29.6497 72.1171 28.7352 71.7383 28.0609 71.064C27.3866 70.3897 27.0078 69.4752 27.0078 68.5216C27.0078 68.3519 27.0752 68.1891 27.1953 68.069ZM28.378 69.1616C28.4855 69.5352 28.6862 69.8792 28.966 70.1589C29.4003 70.5932 29.9892 70.8371 30.6033 70.8371H45.4782V69.1616H28.378Z" fill="#45413C"/>
<path d="M54.985 71.4776H46.1172V68.5221H56.4634C56.5605 68.5219 56.6567 68.5409 56.7465 68.5779C56.8362 68.615 56.9178 68.6694 56.9865 68.738C57.0552 68.8066 57.1097 68.888 57.1469 68.9777C57.1841 69.0674 57.2033 69.1636 57.2033 69.2607C57.2033 69.5519 57.1459 69.8403 57.0344 70.1093C56.9229 70.3784 56.7595 70.6228 56.5535 70.8287C56.3475 71.0346 56.1029 71.1979 55.8338 71.3092C55.5647 71.4205 55.2763 71.4778 54.985 71.4776Z" fill="#E8F4FA"/>
<path fill-rule="evenodd" clip-rule="evenodd" d="M56.5029 69.169C56.491 69.1641 56.4781 69.1616 56.4652 69.1616L46.7578 69.1616V70.8371H54.9856C55.1928 70.8372 55.3983 70.7965 55.5898 70.7173C55.7812 70.6381 55.9552 70.522 56.1017 70.3755C56.2482 70.2291 56.3644 70.0552 56.4438 69.8638C56.5231 69.6724 56.5639 69.4673 56.5639 69.2601C56.5639 69.2472 56.5613 69.2344 56.5564 69.2224C56.5514 69.2104 56.5441 69.1995 56.535 69.1904C56.5258 69.1812 56.5149 69.174 56.5029 69.169ZM54.9853 72.1171C55.3606 72.1173 55.7323 72.0436 56.0791 71.9001C56.4259 71.7566 56.741 71.5462 57.0065 71.2809C57.272 71.0156 57.4826 70.7006 57.6262 70.3538C57.7699 70.0071 57.8439 69.6355 57.8439 69.2601C57.8439 69.0789 57.8081 68.8995 57.7387 68.732C57.6693 68.5646 57.5675 68.4126 57.4393 68.2845C57.311 68.1565 57.1587 68.055 56.9912 67.9858C56.8239 67.9168 56.6446 67.8814 56.4636 67.8816C56.4638 67.8816 56.4634 67.8816 56.4636 67.8816" fill="#45413C"/>
<path d="M41.6829 53.7422H26.1872C25.8415 53.7418 25.5005 53.8222 25.1914 53.9772C24.8824 54.1321 24.6139 54.3572 24.4074 54.6345C24.2009 54.9117 24.0622 55.2335 24.0023 55.574C23.9424 55.9144 23.963 56.2642 24.0624 56.5953L27.6464 68.5223H46.1168L41.6829 53.7422Z" fill="#ADC4D9"/>
<path d="M44.9538 54.7956L49.0728 68.5224H46.116L41.6821 53.7422H43.5381C43.856 53.7421 44.1655 53.8445 44.4206 54.0343C44.6756 54.2241 44.8626 54.4911 44.9538 54.7956Z" fill="#C0DCEB"/>
<path fill-rule="evenodd" clip-rule="evenodd" d="M44.0408 54.5471C43.8963 54.4395 43.7209 54.3815 43.5407 54.3816H42.5446L46.5945 67.8817H48.2149L44.3431 54.9789C44.2914 54.8063 44.1853 54.6547 44.0408 54.5471ZM45.5692 54.6114L49.6881 68.3378C49.7463 68.5316 49.7094 68.7414 49.5886 68.9037C49.4678 69.0661 49.2774 69.1617 49.0751 69.1617H46.1183C45.8357 69.1617 45.5865 68.9763 45.5053 68.7056L41.0714 53.9255C41.0133 53.7317 41.0502 53.5218 41.171 53.3595C41.2917 53.1972 41.4821 53.1016 41.6844 53.1016L43.5402 53.1016C43.5402 53.1016 43.5401 53.1016 43.5402 53.1016C43.9957 53.1014 44.4394 53.2482 44.8049 53.5202C45.1704 53.7922 45.4385 54.175 45.5692 54.6114C45.5692 54.6113 45.5692 54.6115 45.5692 54.6114Z" fill="#45413C"/>
<path d="M24.3184 57.4363H42.7913L41.6829 53.7422H26.1872C25.8414 53.742 25.5004 53.8226 25.1913 53.9777C24.8823 54.1328 24.6138 54.358 24.4074 54.6354C24.2009 54.9127 24.0622 55.2345 24.0023 55.5751C23.9424 55.9156 23.963 56.2654 24.0624 56.5966L24.3184 57.4363Z" fill="#C0DCEB"/>
<path fill-rule="evenodd" clip-rule="evenodd" d="M24.904 53.4044C25.3022 53.2048 25.7415 53.1011 26.187 53.1016C26.1871 53.1016 26.1868 53.1016 26.187 53.1016H41.6823C41.9649 53.1016 42.2141 53.287 42.2953 53.5577L46.7292 68.3378C46.7873 68.5316 46.7504 68.7414 46.6297 68.9038C46.5089 69.0661 46.3185 69.1617 46.1162 69.1617H27.6458C27.3633 69.1617 27.1142 68.9765 27.0329 68.7059L23.4489 56.7789C23.3207 56.3521 23.2941 55.9013 23.3713 55.4624C23.4485 55.0236 23.6273 54.6089 23.8935 54.2516C24.1596 53.8942 24.5057 53.6041 24.904 53.4044ZM26.1858 54.3816C25.9399 54.3813 25.6974 54.4385 25.4776 54.5487C25.2579 54.6588 25.0669 54.8189 24.9201 55.0161C24.7732 55.2133 24.6746 55.4421 24.632 55.6842C24.5894 55.9263 24.604 56.1751 24.6747 56.4105C24.6747 56.4105 24.6747 56.4105 24.6747 56.4105L28.1218 67.8817H45.256L41.2061 54.3816L26.1858 54.3816Z" fill="#45413C"/>
<path d="M36.0953 61.265C36.0975 61.0806 36.1463 60.8998 36.2371 60.7393C36.328 60.5789 36.458 60.444 36.615 60.3473C36.5148 60.2051 36.383 60.088 36.23 60.0051C36.077 59.9223 35.9069 59.876 35.7331 59.8698C35.358 59.8314 35.0009 60.0913 34.8102 60.0913C34.6194 60.0913 34.3263 59.875 34.0153 59.8801C33.8107 59.8861 33.6112 59.9451 33.4362 60.0512C33.2613 60.1573 33.1168 60.3069 33.0169 60.4855C32.856 60.8833 32.7996 61.3156 32.8531 61.7414C32.9067 62.1671 33.0684 62.572 33.3228 62.9175C33.525 63.2106 33.767 63.5396 34.0908 63.5281C34.4146 63.5166 34.5106 63.3297 34.8806 63.3297C35.2505 63.3297 35.3529 63.5281 35.6755 63.5217C35.998 63.5153 36.2131 63.2234 36.414 62.929C36.5577 62.7175 36.6702 62.4865 36.7481 62.243C36.555 62.1625 36.39 62.0267 36.2739 61.8527C36.1577 61.6787 36.0956 61.4742 36.0953 61.265Z" fill="#F0F0F0"/>
<path fill-rule="evenodd" clip-rule="evenodd" d="M35.7778 59.2304C36.0432 59.2428 36.3026 59.315 36.5365 59.4416C36.7763 59.5715 36.9828 59.755 37.1399 59.978C37.2416 60.1223 37.2792 60.3023 37.2437 60.4753C37.2082 60.6482 37.1028 60.7989 36.9525 60.8915C36.8874 60.9316 36.8335 60.9875 36.7958 61.054C36.7589 61.1193 36.7387 61.1927 36.7371 61.2676C36.738 61.3492 36.7626 61.4288 36.8079 61.4967C36.854 61.5657 36.9195 61.6196 36.9961 61.6516C37.3029 61.7794 37.4607 62.1208 37.3594 62.4373C37.2628 62.7392 37.1233 63.0257 36.9452 63.288L36.9444 63.2892C36.8471 63.4317 36.7064 63.6359 36.5273 63.8019C36.3383 63.9773 36.0606 64.1535 35.6899 64.1609C35.3903 64.1668 35.1755 64.0727 35.0591 64.0217C35.0532 64.0191 35.0476 64.0166 35.0422 64.0143C34.9501 63.9742 34.9314 63.969 34.8824 63.969C34.8278 63.969 34.807 63.9753 34.7255 64.0108C34.7185 64.0138 34.711 64.0171 34.703 64.0206C34.5943 64.0686 34.3938 64.1571 34.1153 64.167C33.7133 64.1813 33.4139 63.9788 33.2271 63.805C33.0461 63.6366 32.9011 63.4299 32.8031 63.288C32.4874 62.8563 32.2867 62.3513 32.22 61.8206C32.1528 61.2864 32.2235 60.7439 32.4254 60.2448C32.4354 60.22 32.447 60.1958 32.4601 60.1724C32.614 59.8973 32.8366 59.6667 33.1062 59.5032C33.3758 59.3398 33.6831 59.249 33.9982 59.2397L34.0065 59.2394L34.0065 59.2395C34.3005 59.2346 34.5562 59.3334 34.6937 59.3874C34.7224 59.3987 34.7456 59.408 34.7653 59.4158C34.7819 59.4224 34.7959 59.4281 34.8087 59.433C34.8241 59.4271 34.8375 59.4217 34.8529 59.4155C34.8806 59.4043 34.9148 59.3906 34.979 59.3664C35.1504 59.302 35.4429 59.2017 35.7778 59.2304ZM34.7349 59.4588C34.7349 59.4588 34.736 59.4585 34.738 59.458C34.7359 59.4586 34.7349 59.4589 34.7349 59.4588ZM34.8747 59.4566C34.8767 59.457 34.8778 59.4573 34.8778 59.4573C34.8779 59.4574 34.8769 59.4572 34.8747 59.4566ZM36.0971 61.2644L35.4571 61.2568C35.4602 60.9958 35.5222 60.7392 35.638 60.5061C35.5999 60.5097 35.5368 60.5242 35.4295 60.5645C35.3992 60.5759 35.3699 60.5875 35.3361 60.6009C35.3321 60.6024 35.3281 60.604 35.324 60.6056C35.2878 60.62 35.244 60.6372 35.2002 60.6529C35.1302 60.6781 34.9804 60.7306 34.812 60.7306C34.6561 60.7306 34.521 60.6888 34.4442 60.6625C34.3834 60.6418 34.3133 60.6137 34.2624 60.5934C34.2485 60.5878 34.236 60.5828 34.2256 60.5787C34.0972 60.5283 34.0491 60.5198 34.0302 60.5193C33.9382 60.523 33.8486 60.55 33.7699 60.5977C33.6996 60.6403 33.6401 60.6982 33.5955 60.7669C33.4883 61.0517 33.4519 61.3585 33.49 61.6608C33.5299 61.9781 33.6504 62.2799 33.84 62.5374C33.8439 62.5427 33.8477 62.548 33.8514 62.5534C33.9556 62.7044 34.0307 62.8043 34.0989 62.8678C34.1038 62.8723 34.1082 62.8763 34.1122 62.8797C34.1309 62.8731 34.1606 62.8606 34.2149 62.837C34.3548 62.7761 34.567 62.689 34.8824 62.689C35.2033 62.689 35.4207 62.783 35.5529 62.8405C35.6009 62.8614 35.6269 62.8719 35.6415 62.8771C35.6458 62.8735 35.6509 62.869 35.6569 62.8635C35.7162 62.8085 35.7834 62.7197 35.8867 62.5682C35.91 62.534 35.9321 62.4991 35.9532 62.4636C35.8754 62.3856 35.8051 62.2998 35.7433 62.2073C35.5571 61.9284 35.4575 61.6006 35.4571 61.2653L36.0971 61.2644ZM35.6239 62.89C35.6239 62.89 35.6243 62.8897 35.625 62.8894L35.6239 62.89ZM35.6569 62.8815C35.6593 62.8813 35.6619 62.8812 35.6645 62.8811C35.6636 62.8812 35.6629 62.8813 35.6622 62.8814C35.6609 62.8817 35.6596 62.8819 35.6569 62.8815ZM34.1397 62.9004C34.1397 62.9005 34.139 62.9002 34.1376 62.8993C34.139 62.9 34.1397 62.9004 34.1397 62.9004Z" fill="#45413C"/>
<path fill-rule="evenodd" clip-rule="evenodd" d="M36.1641 57.7245C36.4136 57.9748 36.413 58.38 36.1627 58.6296L35.7199 59.0712C35.4695 59.3208 35.0643 59.3202 34.8147 59.0699C34.5652 58.8196 34.5657 58.4143 34.816 58.1648L35.2589 57.7232C35.5092 57.4736 35.9145 57.4742 36.1641 57.7245Z" fill="#45413C"/>
<path d="M52.0312 43.3933H86.0268V67.0426H52.0312V43.3933Z" fill="#DAEDF7"/>
<path d="M83.0726 43.3906H54.9868C54.2028 43.391 53.4511 43.7026 52.8968 44.2571C52.3426 44.8116 52.0312 45.5635 52.0313 46.3474V50.0466C52.0312 49.2627 52.3426 48.5108 52.8968 47.9563C53.4511 47.4018 54.2028 47.0902 54.9868 47.0898H83.0726C83.8567 47.0898 84.6088 47.4013 85.1633 47.9559C85.7178 48.5104 86.0294 49.2624 86.0294 50.0466V46.35C86.0297 45.9615 85.9535 45.5767 85.805 45.2177C85.6566 44.8587 85.4388 44.5324 85.1642 44.2576C84.8896 43.9827 84.5636 43.7647 84.2047 43.6159C83.8458 43.4672 83.4611 43.3906 83.0726 43.3906Z" fill="white"/>
<path fill-rule="evenodd" clip-rule="evenodd" d="M51.3906 43.3939C51.3906 43.0404 51.6772 42.7539 52.0306 42.7539H86.0262C86.3796 42.7539 86.6662 43.0404 86.6662 43.3939V67.0432C86.6662 67.3966 86.3796 67.6832 86.0262 67.6832H52.0306C51.6772 67.6832 51.3906 67.3966 51.3906 67.0432V43.3939ZM52.6706 44.0339V66.4032H85.3862V44.0339H52.6706Z" fill="#45413C"/>
<path fill-rule="evenodd" clip-rule="evenodd" d="M55.8257 46.3509C55.8257 45.9975 56.1122 45.7109 56.4657 45.7109H81.5934C81.9468 45.7109 82.2334 45.9975 82.2334 46.3509C82.2334 46.7044 81.9468 46.9909 81.5934 46.9909H56.4657C56.1122 46.9909 55.8257 46.7044 55.8257 46.3509Z" fill="#45413C"/>
<path d="M74.94 71.4779H64.5938L65.1057 56.452C65.1674 55.7134 65.5042 55.025 66.0495 54.5231C66.5947 54.0212 67.3087 53.7425 68.0497 53.7422H70.003C70.744 53.7428 71.4578 54.0216 72.003 54.5235C72.5482 55.0253 72.8851 55.7135 72.947 56.452L74.94 71.4779Z" fill="#DAEDF7"/>
<path fill-rule="evenodd" clip-rule="evenodd" d="M68.0491 53.1016L70.0024 53.1016C70.9038 53.1023 71.7726 53.4415 72.4358 54.0519C73.0951 54.6587 73.5039 55.4896 73.5828 56.3817L75.5738 71.3931C75.5981 71.5759 75.5423 71.7603 75.4207 71.899C75.2992 72.0377 75.1238 72.1172 74.9394 72.1172H64.5931C64.4196 72.1172 64.2535 72.0468 64.1329 71.922C64.0123 71.7972 63.9476 71.6288 63.9535 71.4554L64.4655 56.4295C64.4659 56.419 64.4665 56.4086 64.4673 56.3981C64.5423 55.4997 64.9521 54.6622 65.6154 54.0516C66.2788 53.441 67.1476 53.102 68.0491 53.1016ZM70.0021 54.3816H68.0494C68.0493 54.3816 68.0495 54.3816 68.0494 54.3816C67.4689 54.3819 66.9094 54.6002 66.4823 54.9934C66.0587 55.3833 65.7957 55.9168 65.7442 56.4898L65.2553 70.8372H74.2089L72.312 56.5355C72.3106 56.5253 72.3095 56.515 72.3086 56.5048C72.2601 55.9262 71.9961 55.3869 71.5689 54.9937C71.1418 54.6006 70.5827 54.3821 70.0021 54.3816Z" fill="#45413C"/>
<path fill-rule="evenodd" clip-rule="evenodd" d="M56.4657 60.4908C56.8192 60.4908 57.1057 60.7774 57.1057 61.1308V62.6093C57.1057 62.9627 56.8192 63.2493 56.4657 63.2493C56.1122 63.2493 55.8257 62.9627 55.8257 62.6093V61.1308C55.8257 60.7774 56.1122 60.4908 56.4657 60.4908Z" fill="#45413C"/>
<path fill-rule="evenodd" clip-rule="evenodd" d="M59.4212 60.4908C59.7747 60.4908 60.0612 60.7774 60.0612 61.1308V62.6093C60.0612 62.9627 59.7747 63.2493 59.4212 63.2493C59.0678 63.2493 58.7812 62.9627 58.7812 62.6093V61.1308C58.7812 60.7774 59.0678 60.4908 59.4212 60.4908Z" fill="#45413C"/>
<path fill-rule="evenodd" clip-rule="evenodd" d="M62.3768 60.4908C62.7303 60.4908 63.0168 60.7774 63.0168 61.1308V62.6093C63.0168 62.9627 62.7303 63.2493 62.3768 63.2493C62.0234 63.2493 61.7368 62.9627 61.7368 62.6093V61.1308C61.7368 60.7774 62.0234 60.4908 62.3768 60.4908Z" fill="#45413C"/>
<path d="M26.6845 86.5538C26.6845 89.9817 25.1396 92.7606 23.2349 92.7606C21.3303 92.7606 19.7866 89.9817 19.7866 86.5538C20.0009 84.336 21.0501 82.2825 22.7217 80.8092C22.8592 80.6768 23.0427 80.6029 23.2337 80.6029C23.4246 80.6029 23.6081 80.6768 23.7456 80.8092C25.4188 82.2817 26.4694 84.3354 26.6845 86.5538Z" fill="#9CEB60"/>
<path fill-rule="evenodd" clip-rule="evenodd" d="M23.233 81.2435C23.2075 81.2435 23.1831 81.2534 23.1647 81.271C23.158 81.2775 23.1512 81.2838 23.1442 81.2899C21.6021 82.6491 20.6313 84.5409 20.426 86.5854C20.4307 88.1989 20.7971 89.6275 21.3554 90.6325C21.9293 91.6655 22.6199 92.1212 23.2343 92.1212C23.8488 92.1212 24.5397 91.6654 25.1139 90.6323C25.6725 89.6274 26.0392 88.1988 26.0439 86.5856C25.8377 84.5405 24.8656 82.6487 23.3222 81.2902C23.3151 81.284 23.3082 81.2776 23.3013 81.271C23.283 81.2534 23.2585 81.2435 23.233 81.2435ZM22.2888 80.3376C22.5443 80.0974 22.882 79.9635 23.233 79.9635C23.584 79.9635 23.9215 80.0974 24.177 80.3374C25.9667 81.9167 27.0905 84.1166 27.3209 86.4927C27.3229 86.5132 27.3239 86.5338 27.3239 86.5545C27.3239 88.3563 26.9192 90.0192 26.2327 91.2542C25.5583 92.4676 24.5245 93.4012 23.2343 93.4012C21.944 93.4012 20.9106 92.4675 20.2365 91.2541C19.5503 90.019 19.146 88.3562 19.146 86.5545C19.146 86.5339 19.147 86.5134 19.149 86.4929C19.3785 84.1174 20.5007 81.9177 22.2888 80.3376Z" fill="#45413C"/>
<path d="M23.2334 92.7615L18.9992 82.8735C18.9418 82.7389 18.8458 82.6243 18.7232 82.5444C18.6006 82.4644 18.4571 82.4227 18.3107 82.4245C18.1644 82.4263 18.0219 82.4715 17.9013 82.5544C17.7807 82.6373 17.6875 82.7542 17.6334 82.8901L16.9781 84.5273C16.4556 85.8367 16.474 87.3 17.0294 88.5959C17.5847 89.8918 18.6315 90.9144 19.94 91.4393L23.2334 92.7615Z" fill="#9CEB60"/>
<path fill-rule="evenodd" clip-rule="evenodd" d="M18.3023 81.7839C18.5754 81.7806 18.8434 81.8585 19.0722 82.0077C19.3008 82.1568 19.48 82.3704 19.5871 82.6214C19.5872 82.6216 19.587 82.6212 19.5871 82.6214L23.8211 92.5089C23.9231 92.747 23.8715 93.023 23.6905 93.2082C23.5095 93.3934 23.2347 93.4513 22.9944 93.3548L19.7011 92.0326C18.2353 91.4446 17.0625 90.299 16.4405 88.8474C15.8184 87.3956 15.7977 85.7564 16.383 84.2895L17.0381 82.6531C17.0382 82.6528 17.0383 82.6525 17.0384 82.6522C17.1394 82.3988 17.3133 82.181 17.5381 82.0264C17.7632 81.8716 18.0292 81.7872 18.3023 81.7839ZM18.3729 83.0798C18.3566 83.0692 18.3374 83.0636 18.3179 83.0638C18.2984 83.0641 18.2794 83.0701 18.2633 83.0812C18.2472 83.0922 18.2347 83.1078 18.2275 83.126L18.227 83.1274L17.5719 84.7638C17.5718 84.7639 17.5719 84.7637 17.5719 84.7638C17.1124 85.9157 17.1285 87.2033 17.617 88.3432C18.1055 89.4832 19.0265 90.3829 20.1776 90.8446L22.0354 91.5905L18.4098 83.1237C18.4021 83.1058 18.3893 83.0905 18.3729 83.0798Z" fill="#45413C"/>
<path d="M23.2344 92.7615L27.4699 82.8735C27.5273 82.7389 27.6233 82.6243 27.7459 82.5444C27.8685 82.4644 28.012 82.4227 28.1584 82.4245C28.3047 82.4263 28.4472 82.4715 28.5678 82.5544C28.6884 82.6373 28.7816 82.7542 28.8357 82.8901L29.491 84.5273C30.0138 85.8369 29.9953 87.3004 29.4397 88.5964C28.8841 89.8924 27.8368 90.9149 26.5278 91.4393L23.2344 92.7615Z" fill="#9CEB60"/>
<path fill-rule="evenodd" clip-rule="evenodd" d="M28.1475 83.0638C28.128 83.0636 28.1088 83.0692 28.0924 83.0798C28.0761 83.0905 28.0633 83.1058 28.0556 83.1237L24.4289 91.5904L26.2863 90.8447C27.4378 90.3834 28.3596 89.4838 28.8484 88.3436C29.3372 87.2035 29.3534 85.916 28.8936 84.7639L28.2384 83.1274L28.2379 83.126C28.2307 83.1078 28.2182 83.0922 28.2021 83.0812C28.186 83.0701 28.167 83.0641 28.1475 83.0638ZM27.3932 82.0077C27.622 81.8585 27.89 81.7806 28.1631 81.7839C28.4362 81.7872 28.7022 81.8716 28.9273 82.0264C29.1521 82.181 29.326 82.3988 29.427 82.6523C29.4271 82.6525 29.4272 82.6528 29.4273 82.6531L30.0821 84.2888C30.6677 85.7559 30.6473 87.3961 30.0249 88.848C29.4024 90.2999 28.2291 91.4453 26.7627 92.0327L23.4698 93.3548C23.2294 93.4513 22.9546 93.3934 22.7736 93.2082C22.5926 93.023 22.5411 92.7469 22.643 92.5089L26.8781 82.622C26.8782 82.6217 26.8783 82.6215 26.8784 82.6212C26.9855 82.3703 27.1647 82.1567 27.3932 82.0077Z" fill="#45413C"/>
<path d="M16.6087 92.1719C16.4096 92.1715 16.2125 92.2115 16.0293 92.2893C15.846 92.3671 15.6804 92.4812 15.5424 92.6247C15.4044 92.7682 15.2969 92.9382 15.2263 93.1243C15.1557 93.3104 15.1235 93.509 15.1316 93.7079C15.4234 102.028 18.0615 104 18.0615 104H28.4078C28.4078 104 31.0446 102.023 31.3377 93.7079C31.3454 93.509 31.313 93.3107 31.2422 93.1247C31.1715 92.9387 31.0639 92.7689 30.926 92.6255C30.7881 92.4821 30.6226 92.368 30.4395 92.29C30.2565 92.2121 30.0595 92.1719 29.8606 92.1719H16.6087Z" fill="#DEBB7E"/>
<path d="M23.2345 101.039C21.6953 101.013 20.1839 100.625 18.8216 99.9083C17.4593 99.1914 16.2842 98.165 15.3906 96.9115C16.1305 102.543 18.062 103.995 18.062 103.995H28.4082C28.4082 103.995 30.3385 102.542 31.0783 96.9115C30.1848 98.1651 29.0097 99.1915 27.6474 99.9085C26.2851 100.625 24.7737 101.013 23.2345 101.039Z" fill="#B89558"/>
<path fill-rule="evenodd" clip-rule="evenodd" d="M15.7785 91.6984C16.041 91.5869 16.3234 91.5296 16.6086 91.53C16.6088 91.53 16.6084 91.53 16.6086 91.53H29.86C30.1451 91.5301 30.4273 91.5876 30.6897 91.6993C30.952 91.811 31.1891 91.9745 31.3867 92.18C31.5843 92.3856 31.7385 92.6288 31.8398 92.8953C31.941 93.1615 31.9876 93.4453 31.9766 93.7298C31.9767 93.7294 31.9767 93.729 31.9767 93.7286L31.3371 93.706L31.9766 93.731C31.9766 93.7306 31.9766 93.7302 31.9766 93.7298C31.8277 97.951 31.0824 100.609 30.345 102.235C29.9762 103.048 29.6101 103.6 29.3239 103.959C29.1809 104.138 29.0583 104.268 28.9661 104.357C28.9199 104.402 28.8815 104.436 28.8519 104.461C28.8371 104.474 28.8245 104.484 28.8144 104.492L28.8009 104.503L28.7956 104.507L28.7932 104.509L28.7922 104.51C28.7917 104.51 28.7912 104.51 28.4072 103.998V103.358H28.1532C28.2001 103.308 28.2576 103.243 28.3236 103.16C28.5409 102.888 28.8524 102.427 29.1794 101.706C29.8336 100.264 30.5532 97.7764 30.6975 93.6835L30.6976 93.6811C30.702 93.5683 30.6835 93.4558 30.6434 93.3504C30.6033 93.2449 30.5423 93.1486 30.4641 93.0673C30.3859 92.9859 30.2921 92.9212 30.1882 92.877C30.0844 92.8328 29.9728 92.81 29.86 92.81H16.607C16.4943 92.8098 16.3826 92.8325 16.2789 92.8765C16.1751 92.9206 16.0813 92.9852 16.0031 93.0665C15.925 93.1478 15.8641 93.244 15.8241 93.3494C15.7841 93.4548 15.7658 93.5673 15.7704 93.6799L15.7706 93.6836C15.9142 97.7791 16.6339 100.266 17.2881 101.708C17.6152 102.428 17.9266 102.889 18.1439 103.161C18.21 103.243 18.2675 103.308 18.3144 103.358H18.0609V103.998C17.6777 104.511 17.6772 104.511 17.6766 104.51L17.6756 104.509L17.6732 104.508L17.6679 104.504L17.6544 104.493C17.6442 104.485 17.6316 104.475 17.6168 104.462C17.5872 104.437 17.5486 104.402 17.5025 104.358C17.4101 104.269 17.2874 104.139 17.1443 103.96C16.8579 103.602 16.4916 103.05 16.1226 102.237C15.385 100.612 14.6397 97.9536 14.4914 93.7301C14.4915 93.7308 14.4915 93.7314 14.4915 93.7321L15.131 93.706L14.4914 93.7285C14.4914 93.729 14.4914 93.7296 14.4914 93.7301C14.4801 93.4456 14.5263 93.1617 14.6273 92.8955C14.7285 92.6286 14.8827 92.385 15.0805 92.1793C15.2784 91.9735 15.5158 91.81 15.7785 91.6984ZM18.0609 103.998C18.4441 103.486 18.4446 103.486 18.4451 103.487L18.446 103.487L18.4476 103.489L18.4501 103.49L18.4523 103.492C18.4525 103.492 18.4497 103.491 18.4451 103.487C18.4359 103.479 18.418 103.463 18.3915 103.437C18.3706 103.417 18.3447 103.391 18.3144 103.358H28.1532C28.1228 103.391 28.0969 103.417 28.076 103.437C28.0494 103.463 28.031 103.479 28.0218 103.487C28.0172 103.491 28.0149 103.493 28.0151 103.493L28.0172 103.491L28.0197 103.489L28.0213 103.488L28.0218 103.487C28.0223 103.487 28.0232 103.486 28.4072 103.998L28.7912 104.51C28.6804 104.594 28.5456 104.638 28.4072 104.638H18.0609C17.9227 104.638 17.7883 104.594 17.6777 104.511L18.0609 103.998Z" fill="#45413C"/>
<path opacity="0.15" d="M11.3828 105.472C11.3828 106.06 12.7064 106.624 15.0625 107.04C17.4186 107.456 20.6141 107.689 23.946 107.689C27.278 107.689 30.4735 107.456 32.8296 107.04C35.1856 106.624 36.5092 106.06 36.5092 105.472C36.5092 104.884 35.1856 104.32 32.8296 103.905C30.4735 103.489 27.278 103.255 23.946 103.255C20.6141 103.255 17.4186 103.489 15.0625 103.905C12.7064 104.32 11.3828 104.884 11.3828 105.472Z" fill="#45413C"/>
</svg>

