<svg width="64" height="65" viewBox="0 0 64 65" fill="none" xmlns="http://www.w3.org/2000/svg">
<path d="M0 33C0 41.4869 3.37142 49.6263 9.37258 55.6274C15.3737 61.6286 23.5131 65 32 65C40.4869 65 48.6263 61.6286 54.6274 55.6274C60.6286 49.6263 64 41.4869 64 33C64 24.5131 60.6286 16.3737 54.6274 10.3726C48.6263 4.37142 40.4869 1 32 1C23.5131 1 15.3737 4.37142 9.37258 10.3726C3.37142 16.3737 0 24.5131 0 33Z" fill="#C7F0FF"/>
<path d="M23.6943 60.7344C23.6943 61.0527 24.5372 61.3579 26.0375 61.583C27.5378 61.808 29.5726 61.9344 31.6943 61.9344C33.8161 61.9344 35.8509 61.808 37.3512 61.583C38.8515 61.3579 39.6943 61.0527 39.6943 60.7344C39.6943 60.4162 38.8515 60.1109 37.3512 59.8859C35.8509 59.6609 33.8161 59.5344 31.6943 59.5344C29.5726 59.5344 27.5378 59.6609 26.0375 59.8859C24.5372 60.1109 23.6943 60.4162 23.6943 60.7344Z" fill="#45413C" fill-opacity="0.15"/>
<path d="M55.6943 29.6919C55.6943 29.3062 55.5411 28.9363 55.2683 28.6635C54.9956 28.3908 54.6257 28.2375 54.2399 28.2375H50.2543C49.7723 25.7629 48.7978 23.4105 47.3887 21.3199L50.2079 18.4999C50.4807 18.2272 50.6339 17.8573 50.6339 17.4715C50.6339 17.0858 50.4807 16.7159 50.2079 16.4431L47.1199 13.3607C46.8472 13.088 46.4773 12.9348 46.0915 12.9348C45.7058 12.9348 45.3359 13.088 45.0631 13.3607L42.2431 16.1799C40.1537 14.771 37.8023 13.7964 35.3287 13.3143V9.32874C35.3287 8.94293 35.1755 8.57292 34.9028 8.30004C34.6301 8.02716 34.2601 7.87375 33.8743 7.87354H29.5127C29.1269 7.87375 28.757 8.02716 28.4843 8.30004C28.2115 8.57292 28.0583 8.94293 28.0583 9.32874V13.3143C25.5845 13.7965 23.2329 14.771 21.1431 16.1799L18.3239 13.3607C18.0512 13.088 17.6813 12.9348 17.2955 12.9348C16.9098 12.9348 16.5399 13.088 16.2671 13.3607L13.1815 16.4463C13.0463 16.5813 12.939 16.7416 12.8658 16.918C12.7926 17.0945 12.7549 17.2837 12.7549 17.4747C12.7549 17.6658 12.7926 17.855 12.8658 18.0314C12.939 18.2079 13.0463 18.3682 13.1815 18.5031L15.9999 21.3199C14.591 23.4094 13.6164 25.7608 13.1343 28.2343H9.14954C8.95847 28.2342 8.76926 28.2718 8.59272 28.3448C8.41617 28.4179 8.25574 28.525 8.1206 28.66C7.98546 28.7951 7.87826 28.9555 7.80512 29.132C7.73198 29.3085 7.69434 29.4977 7.69434 29.6887V34.0559C7.69434 34.247 7.73198 34.4362 7.80512 34.6127C7.87826 34.7892 7.98546 34.9496 8.1206 35.0846C8.25574 35.2197 8.41617 35.3268 8.59272 35.3999C8.76926 35.4729 8.95847 35.5104 9.14954 35.5103H13.1351C13.617 37.9838 14.5912 40.3352 15.9999 42.4247L13.1807 45.2447C13.0455 45.3797 12.9382 45.54 12.865 45.7164C12.7918 45.8929 12.7541 46.0821 12.7541 46.2731C12.7541 46.4642 12.7918 46.6534 12.865 46.8298C12.9382 47.0063 13.0455 47.1666 13.1807 47.3015L16.2663 50.3871C16.5391 50.6599 16.909 50.8131 17.2947 50.8131C17.6805 50.8131 18.0504 50.6599 18.3231 50.3871L21.1423 47.5679C23.2323 48.9765 25.5839 49.951 28.0575 50.4335V54.4191C28.0575 54.8049 28.2108 55.1748 28.4835 55.4475C28.7563 55.7203 29.1262 55.8735 29.5119 55.8735H33.8759C34.2617 55.8735 34.6316 55.7203 34.9044 55.4475C35.1771 55.1748 35.3303 54.8049 35.3303 54.4191V50.4335C37.8038 49.9511 40.1551 48.9766 42.2447 47.5679L45.0647 50.3871C45.3375 50.6599 45.7074 50.8131 46.0931 50.8131C46.4789 50.8131 46.8488 50.6599 47.1215 50.3871L50.2071 47.3015C50.4799 47.0288 50.6331 46.6589 50.6331 46.2731C50.6331 45.8874 50.4799 45.5175 50.2071 45.2447L47.3879 42.4247C48.7966 40.3351 49.7711 37.9838 50.2535 35.5103H54.2399C54.6257 35.5103 54.9956 35.3571 55.2683 35.0843C55.5411 34.8116 55.6943 34.4417 55.6943 34.0559V29.6919ZM31.6943 42.7831C29.5366 42.7831 27.4274 42.1433 25.6333 40.9445C23.8392 39.7458 22.4409 38.0419 21.6152 36.0485C20.7895 34.055 20.5734 31.8614 20.9944 29.7452C21.4153 27.6289 22.4543 25.685 23.9801 24.1593C25.5058 22.6335 27.4497 21.5945 29.566 21.1736C31.6822 20.7526 33.8758 20.9687 35.8693 21.7944C37.8627 22.6201 39.5666 24.0184 40.7653 25.8125C41.9641 27.6066 42.6039 29.7158 42.6039 31.8735C42.604 33.3062 42.3219 34.7249 41.7737 36.0486C41.2255 37.3722 40.4219 38.5749 39.4088 39.588C38.3958 40.6011 37.193 41.4047 35.8694 41.9529C34.5457 42.5011 33.127 42.7832 31.6943 42.7831Z" fill="#C0DCEB"/>
<path d="M15.9999 21.3199C14.7745 23.1373 13.8762 25.1549 13.3455 27.2815C15.1866 24.0379 17.8546 21.3404 21.0777 19.4637C24.3008 17.587 27.9639 16.5983 31.6935 16.5983C35.4232 16.5983 39.0862 17.587 42.3093 19.4637C45.5324 21.3404 48.2004 24.0379 50.0415 27.2815C49.5114 25.155 48.6136 23.1374 47.3887 21.3199L50.2079 18.4999C50.4807 18.2272 50.6339 17.8573 50.6339 17.4715C50.6339 17.0858 50.4807 16.7159 50.2079 16.4431L47.1199 13.3607C46.8472 13.088 46.4772 12.9348 46.0915 12.9348C45.7058 12.9348 45.3359 13.088 45.0631 13.3607L42.2431 16.1799C40.1537 14.771 37.8023 13.7964 35.3287 13.3143V9.32874C35.3287 8.94293 35.1755 8.57292 34.9028 8.30004C34.6301 8.02716 34.2601 7.87375 33.8743 7.87354H29.5127C29.1269 7.87375 28.757 8.02716 28.4843 8.30004C28.2115 8.57292 28.0583 8.94293 28.0583 9.32874V13.3143C25.5845 13.7965 23.2329 14.771 21.1431 16.1799L18.3239 13.3607C18.0512 13.088 17.6812 12.9348 17.2955 12.9348C16.9098 12.9348 16.5399 13.088 16.2671 13.3607L13.1815 16.4463C13.0463 16.5813 12.939 16.7416 12.8658 16.918C12.7926 17.0945 12.7549 17.2837 12.7549 17.4747C12.7549 17.6658 12.7926 17.855 12.8658 18.0314C12.939 18.2079 13.0463 18.3682 13.1815 18.5031L15.9999 21.3199Z" fill="#DAEDF7"/>
<path d="M31.6943 42.7833C29.5366 42.7833 27.4273 42.1435 25.6332 40.9447C23.8391 39.746 22.4408 38.0421 21.6151 36.0486C20.7894 34.0552 20.5733 31.8616 20.9943 29.7454C21.4152 27.6291 22.4543 25.6852 23.98 24.1595C25.5058 22.6337 27.4497 21.5947 29.5659 21.1737C31.6822 20.7528 33.8757 20.9688 35.8692 21.7946C37.8627 22.6203 39.5665 24.0186 40.7653 25.8127C41.964 27.6067 42.6039 29.716 42.6039 31.8737C42.604 33.3064 42.3219 34.7251 41.7736 36.0488C41.2254 37.3724 40.4218 38.5751 39.4088 39.5882C38.3957 40.6013 37.193 41.4049 35.8693 41.9531C34.5457 42.5013 33.127 42.7834 31.6943 42.7833V42.7833Z" stroke="#45413C" stroke-width="1.6" stroke-linecap="round" stroke-linejoin="round"/>
<path d="M55.6943 29.6919C55.6943 29.3062 55.5411 28.9363 55.2683 28.6635C54.9956 28.3908 54.6257 28.2375 54.2399 28.2375H50.2543C49.7723 25.7629 48.7978 23.4105 47.3887 21.3199L50.2079 18.4999C50.4807 18.2272 50.6339 17.8573 50.6339 17.4715C50.6339 17.0858 50.4807 16.7159 50.2079 16.4431L47.1199 13.3607C46.8472 13.088 46.4773 12.9348 46.0915 12.9348C45.7058 12.9348 45.3359 13.088 45.0631 13.3607L42.2431 16.1799C40.1537 14.771 37.8023 13.7964 35.3287 13.3143V9.32874C35.3287 8.94293 35.1755 8.57292 34.9028 8.30004C34.6301 8.02716 34.2601 7.87375 33.8743 7.87354H29.5127C29.1269 7.87375 28.757 8.02716 28.4843 8.30004C28.2115 8.57292 28.0583 8.94293 28.0583 9.32874V13.3143C25.5845 13.7965 23.2329 14.771 21.1431 16.1799L18.3239 13.3607C18.0512 13.088 17.6813 12.9348 17.2955 12.9348C16.9098 12.9348 16.5399 13.088 16.2671 13.3607L13.1815 16.4463C13.0463 16.5813 12.939 16.7416 12.8658 16.918C12.7926 17.0945 12.7549 17.2837 12.7549 17.4747C12.7549 17.6658 12.7926 17.855 12.8658 18.0314C12.939 18.2079 13.0463 18.3682 13.1815 18.5031L15.9999 21.3199C14.591 23.4094 13.6164 25.7608 13.1343 28.2343H9.14954C8.95847 28.2342 8.76926 28.2718 8.59272 28.3448C8.41617 28.4179 8.25574 28.525 8.1206 28.66C7.98546 28.7951 7.87826 28.9555 7.80512 29.132C7.73198 29.3085 7.69434 29.4977 7.69434 29.6887V34.0559C7.69434 34.247 7.73198 34.4362 7.80512 34.6127C7.87826 34.7892 7.98546 34.9496 8.1206 35.0846C8.25574 35.2197 8.41617 35.3268 8.59272 35.3999C8.76926 35.4729 8.95847 35.5104 9.14954 35.5103H13.1351C13.617 37.9838 14.5912 40.3352 15.9999 42.4247L13.1807 45.2447C13.0455 45.3797 12.9382 45.54 12.865 45.7164C12.7918 45.8929 12.7541 46.0821 12.7541 46.2731C12.7541 46.4642 12.7918 46.6534 12.865 46.8298C12.9382 47.0063 13.0455 47.1666 13.1807 47.3015L16.2663 50.3871C16.5391 50.6599 16.909 50.8131 17.2947 50.8131C17.6805 50.8131 18.0504 50.6599 18.3231 50.3871L21.1423 47.5679C23.2323 48.9765 25.5839 49.951 28.0575 50.4335V54.4191C28.0575 54.8049 28.2108 55.1748 28.4835 55.4475C28.7563 55.7203 29.1262 55.8735 29.5119 55.8735H33.8759C34.2617 55.8735 34.6316 55.7203 34.9044 55.4475C35.1771 55.1748 35.3303 54.8049 35.3303 54.4191V50.4335C37.8038 49.9511 40.1551 48.9766 42.2447 47.5679L45.0647 50.3871C45.3375 50.6599 45.7074 50.8131 46.0931 50.8131C46.4789 50.8131 46.8488 50.6599 47.1215 50.3871L50.2071 47.3015C50.4799 47.0288 50.6331 46.6589 50.6331 46.2731C50.6331 45.8874 50.4799 45.5175 50.2071 45.2447L47.3879 42.4247C48.7966 40.3351 49.7711 37.9838 50.2535 35.5103H54.2399C54.6257 35.5103 54.9956 35.3571 55.2683 35.0843C55.5411 34.8116 55.6943 34.4417 55.6943 34.0559V29.6919ZM31.6943 42.7831C29.5366 42.7831 27.4274 42.1433 25.6333 40.9445C23.8392 39.7458 22.4409 38.0419 21.6152 36.0485C20.7895 34.055 20.5734 31.8614 20.9944 29.7452C21.4153 27.6289 22.4543 25.685 23.9801 24.1593C25.5058 22.6335 27.4497 21.5945 29.566 21.1736C31.6822 20.7526 33.8758 20.9687 35.8693 21.7944C37.8627 22.6201 39.5666 24.0184 40.7653 25.8125C41.9641 27.6066 42.6039 29.7158 42.6039 31.8735C42.604 33.3062 42.3219 34.7249 41.7737 36.0486C41.2255 37.3722 40.4219 38.5749 39.4088 39.588C38.3957 40.6011 37.193 41.4047 35.8694 41.9529C34.5457 42.5011 33.127 42.7832 31.6943 42.7831V42.7831Z" stroke="#45413C" stroke-width="1.6" stroke-linecap="round" stroke-linejoin="round"/>
<path d="M11.8904 52.6105C7.87763 52.6105 5.51523 47.4985 10.0192 42.2433C10.0921 42.1589 10.1917 42.1021 10.3015 42.0824C10.4113 42.0627 10.5244 42.0813 10.6221 42.1351C10.7198 42.1889 10.796 42.2746 10.838 42.3779C10.88 42.4812 10.8852 42.5958 10.8528 42.7025C10.472 43.9393 10.2544 45.4089 10.9864 46.2793C14.6752 50.6665 37.0424 23.8793 37.1176 23.7905C37.9176 22.8305 40.02 24.4137 40.9776 25.2113C41.9352 26.0089 43.864 27.9153 43.0664 28.8761C42.9904 28.9673 22.2912 52.9873 11.8904 52.6105Z" fill="#FFF48C" stroke="#45413C" stroke-width="1.6" stroke-linecap="round" stroke-linejoin="round"/>
<path d="M44.4847 33.8952L41.6191 27.4832L47.7231 22.0928L46.9047 33.012L44.4847 33.8952Z" fill="#FF6242"/>
<path d="M43.0631 30.7152C44.4303 29.952 45.8479 29.1 47.2663 28.1912L47.7239 22.0928L41.6191 27.48L43.0631 30.7152Z" fill="#E04122"/>
<path d="M31.9351 22.9743L38.7247 24.9639L43.3367 18.2759L32.5079 20.4839L31.9351 22.9743Z" fill="#FF6242"/>
<path d="M35.3169 23.9655L38.7241 24.9639L43.3377 18.2751L37.3161 19.5031L35.3169 23.9655Z" fill="#E04122"/>
<path d="M31.9351 22.9743L38.7247 24.9639L43.3367 18.2759L32.5079 20.4839L31.9351 22.9743Z" stroke="#45413C" stroke-width="1.6" stroke-linecap="round" stroke-linejoin="round"/>
<path d="M31.7538 19.4C31.8795 19.4228 31.9993 19.4712 32.1057 19.5421C32.212 19.613 32.3027 19.705 32.372 19.8124C32.4414 19.9198 32.488 20.0403 32.5089 20.1664C32.5299 20.2925 32.5247 20.4216 32.4938 20.5456L31.821 23.4672C31.7613 23.7251 31.6055 23.9505 31.3853 24.0975C31.1652 24.2445 30.8973 24.3021 30.6362 24.2584C30.5104 24.2355 30.3908 24.1871 30.2845 24.1161C30.1783 24.0451 30.0877 23.9531 30.0184 23.8457C29.9491 23.7384 29.9026 23.6179 29.8817 23.4919C29.8608 23.3658 29.866 23.2368 29.897 23.1128L30.569 20.1912C30.6287 19.9333 30.7845 19.7079 31.0046 19.5609C31.2248 19.4139 31.4927 19.3563 31.7538 19.4Z" fill="#FF866E" stroke="#45413C" stroke-width="1.6" stroke-linecap="round" stroke-linejoin="round"/>
<path d="M44.4847 33.8952L41.6191 27.4832L47.7231 22.0928L46.9047 33.012L44.4847 33.8952Z" stroke="#45413C" stroke-width="1.6" stroke-linecap="round" stroke-linejoin="round"/>
<path d="M48.0887 33.6135C48.0479 33.4919 47.9828 33.38 47.8974 33.2843C47.812 33.1887 47.708 33.1115 47.5918 33.0573C47.4756 33.0031 47.3496 32.9732 47.2214 32.9692C47.0932 32.9652 46.9656 32.9874 46.8463 33.0343L44.0071 34.0695C43.7582 34.1581 43.553 34.339 43.4338 34.5747C43.3147 34.8105 43.2908 35.083 43.3671 35.3359C43.4081 35.4573 43.4733 35.5692 43.5587 35.6647C43.6442 35.7601 43.7482 35.8373 43.8643 35.8914C43.9805 35.9456 44.1064 35.9756 44.2345 35.9797C44.3626 35.9837 44.4901 35.9618 44.6095 35.9151L47.4487 34.8751C47.6967 34.7869 47.9014 34.6068 48.0205 34.372C48.1396 34.1373 48.164 33.8657 48.0887 33.6135Z" fill="#FF866E" stroke="#45413C" stroke-width="1.6" stroke-linecap="round" stroke-linejoin="round"/>
<path d="M39.7046 35.5304C37.3934 38.1344 29.4742 40.844 27.0366 41.6328C26.9619 41.657 26.8821 41.6614 26.8052 41.6454C26.7283 41.6294 26.6569 41.5936 26.5981 41.5416C26.5392 41.4896 26.4949 41.4231 26.4695 41.3488C26.4442 41.2745 26.4386 41.1948 26.4534 41.1176C26.9334 38.6144 28.6254 30.5008 30.9334 27.8984C33.6798 24.8072 37.8638 24.0096 40.2854 26.12C42.707 28.2304 42.447 32.44 39.7046 35.5304Z" fill="#FF8A14" stroke="#45413C" stroke-width="1.6" stroke-linecap="round" stroke-linejoin="round"/>
<path d="M39.936 31.5991C38.6736 33.0215 34.5408 34.4983 32.8536 35.0583C32.7785 35.0831 32.6983 35.0878 32.6209 35.072C32.5434 35.0562 32.4715 35.0203 32.4122 34.9681C32.3529 34.9158 32.3083 34.849 32.2829 34.7741C32.2574 34.6993 32.252 34.6191 32.2672 34.5415C32.612 32.8079 33.5584 28.5679 34.8192 27.1463C36.4192 25.3431 38.8616 24.8775 40.2744 26.1063C41.6872 27.3351 41.536 29.7951 39.936 31.5991Z" fill="#FFE500" stroke="#45413C" stroke-width="1.6" stroke-linecap="round" stroke-linejoin="round"/>
<path d="M37.332 24.8352L41.9272 28.8352C42.8184 28.424 43.7944 27.9073 44.8216 27.3153L38.48 21.8C38.0216 22.8816 37.6296 23.9072 37.332 24.8352Z" fill="#FF6242" stroke="#45413C" stroke-width="1.6" stroke-linecap="round" stroke-linejoin="round"/>
<path d="M38.48 21.8L44.82 27.32C47.4538 25.7744 49.9917 24.071 52.42 22.2192C55.4813 19.9289 57.9841 16.9749 59.7403 13.5789C61.4965 10.1829 62.4605 6.43314 62.56 2.6112C62.5651 2.40541 62.5247 2.20105 62.4417 2.01267C62.3587 1.82428 62.2352 1.65653 62.0799 1.52137C61.9247 1.38621 61.7415 1.28697 61.5435 1.23073C61.3455 1.17449 61.1375 1.16263 60.9344 1.196C57.1402 1.77258 53.5237 3.19316 50.3514 5.35306C47.1791 7.51296 44.5319 10.3571 42.6048 13.676C41.0657 16.2975 39.6882 19.0105 38.48 21.8Z" fill="#E8F4FA"/>
<path d="M43.168 17.5417C45.2295 13.9932 48.0205 10.9225 51.3565 8.53247C54.6926 6.14244 58.4978 4.48746 62.5208 3.67687C62.5421 3.32221 62.5562 2.96701 62.5632 2.61127C62.5683 2.40551 62.5279 2.20117 62.4449 2.01282C62.3619 1.82446 62.2384 1.65675 62.0831 1.52165C61.9278 1.38655 61.7447 1.28739 61.5466 1.23125C61.3486 1.17511 61.1407 1.16337 60.9376 1.19687C57.1432 1.77313 53.5266 3.19357 50.3543 5.35351C47.182 7.51344 44.5348 10.3578 42.608 13.6769C41.0678 16.298 39.6893 19.0108 38.48 21.8001L40.1128 23.2201C41.0216 21.3761 42.0544 19.4545 43.168 17.5417Z" fill="white"/>
<path d="M38.48 21.8L44.82 27.32C47.4538 25.7744 49.9917 24.071 52.42 22.2192C55.4813 19.9289 57.9841 16.9749 59.7403 13.5789C61.4965 10.1829 62.4605 6.43314 62.56 2.6112V2.6112C62.5651 2.40541 62.5247 2.20105 62.4417 2.01267C62.3587 1.82428 62.2352 1.65653 62.0799 1.52137C61.9247 1.38621 61.7415 1.28697 61.5435 1.23073C61.3455 1.17449 61.1375 1.16263 60.9344 1.196V1.196C57.1402 1.77258 53.5237 3.19316 50.3514 5.35306C47.1791 7.51296 44.5319 10.3571 42.6048 13.676C41.0657 16.2975 39.6882 19.0105 38.48 21.8V21.8Z" stroke="#45413C" stroke-width="1.6" stroke-linecap="round" stroke-linejoin="round"/>
<path d="M51.6064 10.0641C51.6064 10.8288 51.9102 11.5621 52.4509 12.1028C52.9916 12.6435 53.725 12.9473 54.4896 12.9473C55.2543 12.9473 55.9877 12.6435 56.5284 12.1028C57.0691 11.5621 57.3728 10.8288 57.3728 10.0641C57.3728 9.29944 57.0691 8.56608 56.5284 8.02538C55.9877 7.48467 55.2543 7.18091 54.4896 7.18091C53.725 7.18091 52.9916 7.48467 52.4509 8.02538C51.9102 8.56608 51.6064 9.29944 51.6064 10.0641Z" fill="#00B8F0"/>
<path d="M52.2926 11.9311C52.0476 11.6426 51.8618 11.3086 51.7459 10.9483C51.63 10.5879 51.5862 10.2083 51.617 9.83102C51.6478 9.45375 51.7526 9.08624 51.9254 8.74948C52.0982 8.41271 52.3357 8.11329 52.6242 7.86829C52.9127 7.6233 53.2467 7.43754 53.607 7.32161C53.9674 7.20569 54.347 7.16187 54.7243 7.19266C55.1015 7.22345 55.4691 7.32825 55.8058 7.50107C56.1426 7.67389 56.442 7.91135 56.687 8.19989L52.2926 11.9311Z" fill="#4ACFFF"/>
<path d="M51.6064 10.0641C51.6064 10.8288 51.9102 11.5621 52.4509 12.1028C52.9916 12.6435 53.725 12.9473 54.4896 12.9473C55.2543 12.9473 55.9877 12.6435 56.5284 12.1028C57.0691 11.5621 57.3728 10.8288 57.3728 10.0641C57.3728 9.29944 57.0691 8.56608 56.5284 8.02538C55.9877 7.48467 55.2543 7.18091 54.4896 7.18091C53.725 7.18091 52.9916 7.48467 52.4509 8.02538C51.9102 8.56608 51.6064 9.29944 51.6064 10.0641Z" stroke="#45413C" stroke-width="1.6" stroke-linecap="round" stroke-linejoin="round"/>
</svg>

