<svg width="448" height="360" viewBox="0 0 448 360" fill="none" xmlns="http://www.w3.org/2000/svg">
<path d="M368 180.9C368.003 159.409 363.195 138.189 353.929 118.798C344.663 99.4064 331.175 82.3349 314.452 68.8353C297.73 55.3357 278.197 45.7503 257.288 40.7822C236.379 35.8141 214.623 35.5892 193.615 40.124C172.608 44.6589 152.881 53.8384 135.883 66.9895C118.885 80.1405 105.047 96.9295 95.382 116.125C85.7174 135.321 80.4719 156.437 80.0304 177.923C79.5889 199.41 83.9625 220.724 92.8304 240.3H355.17C363.64 221.644 368.015 201.389 368 180.9Z" fill="#C7F0FF"/>
<path d="M92.8304 240.3C104.252 265.514 122.699 286.902 145.962 301.903C169.226 316.904 196.32 324.882 224 324.882C251.68 324.882 278.774 316.904 302.038 301.903C325.301 286.902 343.748 265.514 355.17 240.3H92.8304Z" fill="#F2DFC2"/>
<path d="M83.6 240.3H364.4" stroke="#45413C" stroke-width="3" stroke-linecap="round" stroke-linejoin="round"/>
<path d="M67.4 240.3H76.4" stroke="#45413C" stroke-width="3" stroke-linecap="round" stroke-linejoin="round"/>
<path d="M371.6 240.3H380.6" stroke="#45413C" stroke-width="3" stroke-linecap="round" stroke-linejoin="round"/>
<path d="M143.673 156.316V141.12H119.733V156.316C108.997 158.982 99.4621 165.163 92.6449 173.875C85.8277 182.586 82.1204 193.328 82.1132 204.39V240.3H181.293V204.39C181.287 193.328 177.58 182.586 170.762 173.874C163.945 165.162 154.409 158.982 143.673 156.316Z" fill="#FFCEBF"/>
<path d="M181.009 199.289C178.332 199.386 175.801 200.528 173.955 202.469C172.11 204.409 171.097 206.996 171.134 209.673C171.171 212.351 172.255 214.908 174.154 216.797C176.053 218.686 178.615 219.757 181.293 219.78" stroke="#656769" stroke-width="3" stroke-linecap="round" stroke-linejoin="round"/>
<path d="M179.781 192.269C176.898 191.91 174.245 190.511 172.32 188.335C170.394 186.159 169.329 183.356 169.323 180.45C169.329 183.356 170.394 186.159 172.32 188.335C174.245 190.511 176.898 191.91 179.781 192.269Z" stroke="#656769" stroke-width="3" stroke-linecap="round" stroke-linejoin="round"/>
<path d="M119.733 153.043C127.541 155.386 135.865 155.386 143.673 153.043V141.12H119.733V153.043Z" fill="#FFB59E"/>
<path d="M143.673 156.316V141.12H119.733V156.316C108.997 158.982 99.4621 165.163 92.6449 173.875C85.8277 182.586 82.1204 193.328 82.1132 204.39V240.3H181.293V204.39C181.287 193.328 177.58 182.586 170.762 173.874C163.945 165.162 154.409 158.982 143.673 156.316Z" stroke="#45413C" stroke-width="3" stroke-linecap="round" stroke-linejoin="round"/>
<path d="M157.569 162.133C155.389 160.798 153.108 159.634 150.747 158.652C150.438 158.985 150.271 159.426 150.283 159.88C149.779 173.941 148.483 189 131.703 189C114.924 189 113.631 173.941 113.127 159.88C113.11 159.432 113.008 158.992 112.825 158.584C110.407 159.581 108.072 160.768 105.841 162.133C106.831 172.991 106.788 189.526 99.2132 199.26V240.3H164.193V199.26C156.622 189.526 156.579 172.991 157.569 162.133Z" fill="white" stroke="#45413C" stroke-width="3" stroke-linecap="round" stroke-linejoin="round"/>
<path d="M136.833 178.74C135.24 179.935 133.948 181.484 133.057 183.265C132.167 185.045 131.703 187.009 131.703 189C131.703 187.009 131.24 185.045 130.349 183.264C129.459 181.484 128.166 179.935 126.573 178.74" stroke="#45413C" stroke-width="3" stroke-linecap="round" stroke-linejoin="round"/>
<path d="M140.253 219.78C137.083 219.714 134.045 218.499 131.703 216.36C129.362 218.499 126.323 219.714 123.153 219.78" stroke="#45413C" stroke-width="3" stroke-linecap="round" stroke-linejoin="round"/>
<path d="M330.063 153.666L331.017 148.59C331.11 148.096 331.092 147.588 330.966 147.101C330.84 146.615 330.608 146.162 330.287 145.775C329.966 145.389 329.564 145.078 329.109 144.864C328.654 144.651 328.157 144.54 327.655 144.54H301.695C301.193 144.54 300.696 144.651 300.241 144.864C299.786 145.078 299.384 145.389 299.063 145.775C298.742 146.162 298.51 146.615 298.384 147.101C298.258 147.588 298.24 148.096 298.333 148.59L299.283 153.666C288.403 156.97 278.872 163.683 272.098 172.817C265.324 181.95 261.666 193.019 261.663 204.39V212.94H282.183V240.3H347.163V212.94H367.683V204.39C367.681 193.019 364.023 181.95 357.249 172.816C350.475 163.683 340.944 156.969 330.063 153.666Z" fill="#BF8DF2"/>
<path d="M330.063 153.666L331.017 148.59C331.11 148.096 331.092 147.588 330.966 147.101C330.84 146.615 330.608 146.162 330.287 145.775C329.966 145.389 329.564 145.078 329.109 144.864C328.654 144.651 328.157 144.54 327.655 144.54H301.695C301.193 144.54 300.696 144.651 300.241 144.864C299.786 145.078 299.384 145.389 299.063 145.775C298.742 146.162 298.51 146.615 298.384 147.101C298.258 147.588 298.24 148.096 298.333 148.59L299.283 153.666C288.403 156.97 278.872 163.683 272.098 172.817C265.324 181.95 261.666 193.019 261.663 204.39V212.94H262.16C263.811 200.178 270.052 188.453 279.717 179.958C289.382 171.462 301.81 166.776 314.679 166.776C327.547 166.776 339.975 171.462 349.64 179.958C359.306 188.453 365.547 200.178 367.197 212.94H367.687V204.39C367.684 193.018 364.026 181.949 357.251 172.815C350.476 163.682 340.945 156.968 330.063 153.666Z" fill="#DABFF5"/>
<path d="M330.063 153.666L331.017 148.59C331.11 148.096 331.092 147.588 330.966 147.101C330.84 146.615 330.608 146.162 330.287 145.775C329.966 145.389 329.564 145.078 329.109 144.864C328.654 144.651 328.157 144.54 327.655 144.54H301.695C301.193 144.54 300.696 144.651 300.241 144.864C299.786 145.078 299.384 145.389 299.063 145.775C298.742 146.162 298.51 146.615 298.384 147.101C298.258 147.588 298.24 148.096 298.333 148.59L299.283 153.666C288.403 156.97 278.872 163.683 272.098 172.817C265.324 181.95 261.666 193.019 261.663 204.39V212.94H282.183V240.3H347.163V212.94H367.683V204.39C367.681 193.019 364.023 181.95 357.249 172.816C350.475 163.683 340.944 156.969 330.063 153.666V153.666Z" stroke="#45413C" stroke-width="3" stroke-linecap="round" stroke-linejoin="round"/>
<path d="M282.183 199.26V240.3" stroke="#45413C" stroke-width="3" stroke-linecap="round" stroke-linejoin="round"/>
<path d="M347.163 199.26V240.3" stroke="#45413C" stroke-width="3" stroke-linecap="round" stroke-linejoin="round"/>
<path d="M293.037 156.06C283.719 160.252 275.804 167.039 270.241 175.61C264.677 184.18 261.699 194.172 261.663 204.39V240.3H300.993V173.61L293.037 156.06Z" fill="#B89558"/>
<path d="M298.966 169.139L293.037 156.06C283.719 160.252 275.804 167.039 270.241 175.61C264.677 184.18 261.699 194.172 261.663 204.39V219.78C261.665 208.464 265.286 197.444 271.998 188.333C278.709 179.221 288.159 172.496 298.966 169.139Z" fill="#DEBB7E"/>
<path d="M293.037 156.06C283.719 160.252 275.804 167.039 270.241 175.61C264.677 184.18 261.699 194.172 261.663 204.39V240.3H300.993V173.61L293.037 156.06Z" stroke="#45413C" stroke-width="3" stroke-linecap="round" stroke-linejoin="round"/>
<path d="M291.158 151.92C290.852 151.222 290.32 150.648 289.647 150.29C288.974 149.933 288.2 149.813 287.45 149.951C285.615 150.336 283.885 151.111 282.375 152.224C280.866 153.336 279.614 154.76 278.702 156.398C277.791 158.037 277.243 159.852 277.094 161.721C276.946 163.59 277.201 165.469 277.842 167.231L282.478 179.975C282.65 180.449 282.925 180.879 283.283 181.235C283.641 181.59 284.073 181.862 284.548 182.03C285.023 182.199 285.53 182.26 286.032 182.21C286.533 182.16 287.018 181.999 287.45 181.739L300.993 173.614L291.158 151.92Z" fill="white" stroke="#45413C" stroke-width="3" stroke-linecap="round" stroke-linejoin="round"/>
<path d="M282.183 199.26V240.3" stroke="#45413C" stroke-width="3" stroke-linecap="round" stroke-linejoin="round"/>
<path d="M336.32 156.06C345.638 160.252 353.552 167.039 359.116 175.61C364.679 184.181 367.656 194.172 367.69 204.39V240.3H328.353V173.61L336.32 156.06Z" fill="#DAEDF7"/>
<path d="M330.384 169.139L336.32 156.06C345.638 160.252 353.552 167.039 359.116 175.61C364.679 184.181 367.656 194.172 367.69 204.39V219.78C367.689 208.463 364.068 197.443 357.355 188.331C350.643 179.22 341.192 172.495 330.384 169.139Z" fill="white"/>
<path d="M336.32 156.06C345.638 160.252 353.552 167.039 359.116 175.61C364.679 184.181 367.656 194.172 367.69 204.39V240.3H328.353V173.61L336.32 156.06Z" stroke="#45413C" stroke-width="3" stroke-linecap="round" stroke-linejoin="round"/>
<path d="M338.192 151.92C338.498 151.222 339.03 150.648 339.703 150.29C340.376 149.933 341.15 149.813 341.9 149.951C343.734 150.338 345.463 151.114 346.972 152.227C348.48 153.339 349.732 154.763 350.643 156.401C351.553 158.039 352.102 159.854 352.251 161.722C352.401 163.59 352.147 165.469 351.508 167.231L346.872 179.975C346.7 180.449 346.425 180.879 346.067 181.235C345.709 181.59 345.277 181.862 344.802 182.03C344.327 182.199 343.82 182.26 343.318 182.21C342.817 182.16 342.332 181.999 341.9 181.739L328.353 173.614L338.192 151.92Z" fill="white" stroke="#45413C" stroke-width="3" stroke-linecap="round" stroke-linejoin="round"/>
<path d="M347.163 199.26V240.3" stroke="#45413C" stroke-width="3" stroke-linecap="round" stroke-linejoin="round"/>
<path d="M277.053 214.65C277.053 207.689 275.682 200.796 273.018 194.364C270.354 187.933 266.449 182.089 261.527 177.166C256.605 172.244 250.761 168.339 244.329 165.675C237.898 163.011 231.005 161.64 224.043 161.64C217.082 161.64 210.189 163.011 203.757 165.675C197.326 168.339 191.482 172.244 186.559 177.166C181.637 182.089 177.732 187.933 175.068 194.364C172.404 200.796 171.033 207.689 171.033 214.65V223.2H191.553V240.3H256.533V223.2H277.053V214.65Z" fill="#FF6242"/>
<path d="M224.043 161.64C209.984 161.641 196.502 167.226 186.561 177.167C176.619 187.109 171.034 200.591 171.033 214.65V223.2H171.292C172.562 210.089 178.668 197.921 188.42 189.067C198.173 180.213 210.873 175.308 224.045 175.308C237.217 175.308 249.917 180.213 259.67 189.067C269.422 197.921 275.528 210.089 276.798 223.2H277.053V214.65C277.053 200.591 271.468 187.108 261.527 177.166C251.586 167.225 238.102 161.64 224.043 161.64Z" fill="#FF866E"/>
<path d="M277.053 214.65C277.053 207.689 275.682 200.796 273.018 194.364C270.354 187.933 266.449 182.089 261.527 177.166C256.605 172.244 250.761 168.339 244.329 165.675C237.898 163.011 231.005 161.64 224.043 161.64C217.082 161.64 210.189 163.011 203.757 165.675C197.326 168.339 191.482 172.244 186.559 177.166C181.637 182.089 177.732 187.933 175.068 194.364C172.404 200.796 171.033 207.689 171.033 214.65V223.2H191.553V240.3H256.533V223.2H277.053V214.65Z" stroke="#45413C" stroke-width="3" stroke-linecap="round" stroke-linejoin="round"/>
<path d="M191.553 209.52V240.3" stroke="#45413C" stroke-width="3" stroke-linecap="round" stroke-linejoin="round"/>
<path d="M256.533 209.52V240.3" stroke="#45413C" stroke-width="3" stroke-linecap="round" stroke-linejoin="round"/>
<path d="M212.073 163.35C212.073 166.525 213.334 169.569 215.579 171.814C217.824 174.059 220.869 175.32 224.043 175.32C227.218 175.32 230.262 174.059 232.507 171.814C234.752 169.569 236.013 166.525 236.013 163.35V151.38H212.073V163.35Z" fill="#D18660"/>
<path d="M212.073 163.303C219.881 165.646 228.205 165.646 236.013 163.303V151.38H212.073V163.303Z" fill="#BD704A"/>
<path d="M212.073 163.35V151.38H236.013V163.35C236.013 166.525 234.752 169.569 232.507 171.814C230.262 174.059 227.218 175.32 224.043 175.32C220.869 175.32 217.824 174.059 215.579 171.814C213.334 169.569 212.073 166.525 212.073 163.35Z" stroke="#45413C" stroke-width="3" stroke-linecap="round" stroke-linejoin="round"/>
<path d="M174.453 223.2H191.557V240.3H174.453V223.2Z" fill="#D18660" stroke="#45413C" stroke-width="3" stroke-linecap="round" stroke-linejoin="round"/>
<path d="M256.533 223.2H273.633V240.3H256.533V223.2Z" fill="#D18660" stroke="#45413C" stroke-width="3" stroke-linecap="round" stroke-linejoin="round"/>
<path d="M116.313 125.73C116.313 131.397 111.723 137.7 106.053 137.7C100.383 137.7 95.7932 131.397 95.7932 125.73C95.7932 120.064 100.387 117.18 106.053 117.18C111.72 117.18 116.313 120.064 116.313 125.73Z" fill="#FFDF3D" stroke="#45413C" stroke-width="3" stroke-linecap="round" stroke-linejoin="round"/>
<path d="M116.313 141.12C116.313 146.786 111.723 153.09 106.053 153.09C100.383 153.09 95.7932 146.786 95.7932 141.12C95.7932 135.454 100.387 132.57 106.053 132.57C111.72 132.57 116.313 135.454 116.313 141.12Z" fill="#FFDF3D" stroke="#45413C" stroke-width="3" stroke-linecap="round" stroke-linejoin="round"/>
<path d="M167.613 105.21H165.903V96.6602C165.903 87.5898 162.3 78.8909 155.886 72.4772C149.472 66.0634 140.774 62.4602 131.703 62.4602C122.633 62.4602 113.934 66.0634 107.52 72.4772C101.106 78.8909 97.5032 87.5898 97.5032 96.6602V105.21H95.7932C91.0736 105.21 87.2432 110.185 87.2432 116.327C87.2432 122.469 91.0736 127.44 95.7932 127.44C97.2605 127.413 98.6823 126.926 99.8576 126.047C102.324 132.494 106.689 138.04 112.376 141.953C118.062 145.865 124.802 147.96 131.705 147.96C138.608 147.96 145.348 145.865 151.034 141.953C156.72 138.04 161.086 132.494 163.552 126.047C164.727 126.925 166.147 127.412 167.613 127.44C172.336 127.44 176.163 122.465 176.163 116.327C176.163 110.189 172.336 105.21 167.613 105.21Z" fill="#FFCEBF" stroke="#45413C" stroke-width="3" stroke-linecap="round" stroke-linejoin="round"/>
<path d="M121.4 128.455C124.173 131.097 127.857 132.571 131.687 132.571C135.517 132.571 139.201 131.097 141.974 128.455" stroke="#45413C" stroke-width="3" stroke-linecap="round" stroke-linejoin="round"/>
<path d="M150.513 108.63C150.091 107.614 149.377 106.746 148.462 106.135C147.547 105.524 146.471 105.198 145.371 105.198C144.27 105.198 143.195 105.524 142.279 106.135C141.364 106.746 140.65 107.614 140.228 108.63" stroke="#45413C" stroke-width="3" stroke-linecap="round" stroke-linejoin="round"/>
<path d="M123.2 108.63C122.777 107.614 122.063 106.747 121.147 106.136C120.232 105.526 119.156 105.2 118.056 105.2C116.955 105.2 115.88 105.526 114.964 106.136C114.049 106.747 113.334 107.614 112.911 108.63" stroke="#45413C" stroke-width="3" stroke-linecap="round" stroke-linejoin="round"/>
<path d="M107.763 119.743C107.763 120.305 107.874 120.861 108.089 121.38C108.304 121.899 108.619 122.37 109.016 122.768C109.413 123.165 109.884 123.48 110.403 123.695C110.922 123.91 111.478 124.02 112.04 124.02C112.602 124.02 113.158 123.91 113.677 123.695C114.196 123.48 114.667 123.165 115.064 122.768C115.461 122.37 115.776 121.899 115.991 121.38C116.206 120.861 116.317 120.305 116.317 119.743C116.317 119.182 116.206 118.626 115.991 118.107C115.776 117.588 115.461 117.116 115.064 116.719C114.667 116.322 114.196 116.007 113.677 115.792C113.158 115.577 112.602 115.467 112.04 115.467C111.478 115.467 110.922 115.577 110.403 115.792C109.884 116.007 109.413 116.322 109.016 116.719C108.619 117.116 108.304 117.588 108.089 118.107C107.874 118.626 107.763 119.182 107.763 119.743Z" fill="#FFB59E"/>
<path d="M147.097 119.743C147.097 120.305 147.207 120.86 147.422 121.379C147.637 121.897 147.952 122.368 148.348 122.765C148.745 123.162 149.216 123.477 149.735 123.691C150.253 123.906 150.809 124.017 151.37 124.017C151.931 124.017 152.487 123.906 153.005 123.691C153.524 123.477 153.995 123.162 154.392 122.765C154.788 122.368 155.103 121.897 155.318 121.379C155.533 120.86 155.643 120.305 155.643 119.743C155.643 119.182 155.533 118.627 155.318 118.108C155.103 117.59 154.788 117.119 154.392 116.722C153.995 116.325 153.524 116.01 153.005 115.795C152.487 115.581 151.931 115.47 151.37 115.47C150.809 115.47 150.253 115.581 149.735 115.795C149.216 116.01 148.745 116.325 148.348 116.722C147.952 117.119 147.637 117.59 147.422 118.108C147.207 118.627 147.097 119.182 147.097 119.743Z" fill="#FFB59E"/>
<path d="M95.7968 115.47C95.1202 115.47 94.4587 115.669 93.8958 116.045C93.3329 116.42 92.894 116.954 92.6346 117.579C92.3752 118.204 92.3069 118.892 92.4385 119.555C92.57 120.219 92.8955 120.829 93.3736 121.307C93.8518 121.786 94.4612 122.112 95.1247 122.244C95.7882 122.376 96.476 122.309 97.1011 122.05C97.7263 121.791 98.2606 121.353 98.6366 120.791C99.0125 120.228 99.2132 119.567 99.2132 118.89C99.2132 117.984 98.8534 117.114 98.2128 116.473C97.5722 115.832 96.7032 115.471 95.7968 115.47Z" fill="#45413C"/>
<path d="M167.613 115.47C166.937 115.47 166.276 115.671 165.713 116.047C165.151 116.422 164.712 116.957 164.454 117.581C164.195 118.206 164.127 118.894 164.259 119.557C164.391 120.221 164.717 120.83 165.195 121.309C165.673 121.787 166.283 122.113 166.946 122.244C167.609 122.376 168.297 122.309 168.922 122.05C169.547 121.791 170.081 121.353 170.457 120.79C170.833 120.228 171.033 119.567 171.033 118.89C171.034 118.441 170.946 117.996 170.774 117.581C170.602 117.166 170.35 116.789 170.033 116.471C169.715 116.153 169.338 115.901 168.923 115.73C168.507 115.558 168.062 115.47 167.613 115.47Z" fill="#45413C"/>
<path d="M131.703 57.3301C109.984 57.3301 92.3732 73.3429 92.3732 98.3701C92.3912 100.887 92.5812 103.4 92.942 105.89C93.8314 105.458 94.8045 105.226 95.7932 105.21C96.0433 105.228 96.2921 105.26 96.5384 105.307C96.8572 105.251 97.1796 105.219 97.5032 105.21C98.9893 105.318 100.38 105.984 101.395 107.075C102.411 108.165 102.976 109.599 102.979 111.089C104.269 106.569 104.516 101.815 103.699 97.1857C107.299 98.3881 113.235 93.2509 113.235 93.2509V85.0321C119.211 87.1097 125.407 88.4869 131.7 89.1361C137.994 88.4872 144.191 87.11 150.168 85.0321V93.2401C150.168 93.2401 156.097 98.3773 159.704 97.1749C158.887 101.804 159.133 106.558 160.424 111.078C160.426 109.589 160.992 108.155 162.006 107.065C163.021 105.975 164.411 105.308 165.896 105.199C166.221 105.208 166.544 105.24 166.864 105.296C167.11 105.25 167.357 105.217 167.606 105.199C168.596 105.215 169.57 105.447 170.461 105.88C170.82 103.389 171.009 100.876 171.026 98.3593C171.033 73.3429 153.44 57.3301 131.703 57.3301Z" fill="#FFDF3D" stroke="#45413C" stroke-width="3" stroke-linecap="round" stroke-linejoin="round"/>
<path d="M160.773 59.0401C160.773 75.0961 147.759 93.2401 131.703 93.2401C115.647 93.2401 102.633 75.0961 102.633 59.0401C102.633 42.9841 115.64 35.1001 131.703 35.1001C147.766 35.1001 160.773 42.9841 160.773 59.0401Z" fill="#FFDF3D"/>
<path d="M131.703 50.4901C145.092 50.4901 156.334 55.9945 159.715 67.1221C160.394 64.481 160.75 61.7671 160.773 59.0401C160.773 42.9841 147.759 35.1001 131.703 35.1001C115.647 35.1001 102.633 42.9841 102.633 59.0401C102.664 61.7679 103.027 64.4819 103.713 67.1221C107.076 55.9945 118.318 50.4901 131.703 50.4901Z" fill="#FFEF9E"/>
<path d="M160.773 59.0401C160.773 75.0961 147.759 93.2401 131.703 93.2401C115.647 93.2401 102.633 75.0961 102.633 59.0401C102.633 42.9841 115.64 35.1001 131.703 35.1001C147.766 35.1001 160.773 42.9841 160.773 59.0401Z" stroke="#45413C" stroke-width="3" stroke-linecap="round" stroke-linejoin="round"/>
<path d="M116.313 156.51C116.313 162.177 111.723 168.48 106.053 168.48C100.383 168.48 95.7932 162.177 95.7932 156.51C95.7932 150.844 100.387 147.96 106.053 147.96C111.72 147.96 116.313 150.84 116.313 156.51Z" fill="#FFDF3D" stroke="#45413C" stroke-width="3" stroke-linecap="round" stroke-linejoin="round"/>
<path d="M116.313 171.9C116.313 177.566 111.723 183.87 106.053 183.87C100.383 183.87 95.7932 177.566 95.7932 171.9C95.7932 166.234 100.387 163.35 106.053 163.35C111.72 163.35 116.313 166.234 116.313 171.9Z" fill="#FFDF3D" stroke="#45413C" stroke-width="3" stroke-linecap="round" stroke-linejoin="round"/>
<path d="M112.893 200.97C112.163 206.093 110.971 211.139 109.333 216.047C109.125 216.755 108.693 217.377 108.102 217.819C107.511 218.261 106.793 218.5 106.055 218.5C105.317 218.5 104.599 218.261 104.008 217.819C103.417 217.377 102.985 216.755 102.777 216.047C101.138 211.139 99.9454 206.093 99.2132 200.97C99.2132 196.247 101.334 194.13 106.053 194.13C110.773 194.13 112.893 196.247 112.893 200.97Z" fill="#FFDF3D" stroke="#45413C" stroke-width="3" stroke-linecap="round" stroke-linejoin="round"/>
<path d="M106.053 194.13C105.146 194.13 104.276 193.77 103.635 193.128C102.993 192.487 102.633 191.617 102.633 190.71V187.29C102.633 186.383 102.993 185.513 103.635 184.872C104.276 184.23 105.146 183.87 106.053 183.87C106.96 183.87 107.83 184.23 108.471 184.872C109.113 185.513 109.473 186.383 109.473 187.29V190.71C109.473 191.617 109.113 192.487 108.471 193.128C107.83 193.77 106.96 194.13 106.053 194.13Z" fill="#FF6242" stroke="#45413C" stroke-width="3" stroke-linecap="round" stroke-linejoin="round"/>
<path opacity="0.15" d="M169.824 308.92C169.824 309.74 171.225 310.553 173.948 311.311C176.67 312.07 180.661 312.759 185.692 313.339C190.722 313.919 196.695 314.38 203.268 314.694C209.841 315.008 216.885 315.169 224 315.169C231.115 315.169 238.159 315.008 244.732 314.694C251.305 314.38 257.278 313.919 262.308 313.339C267.339 312.759 271.33 312.07 274.052 311.311C276.775 310.553 278.176 309.74 278.176 308.92C278.176 308.099 276.775 307.286 274.052 306.528C271.33 305.77 267.339 305.081 262.308 304.501C257.278 303.92 251.305 303.46 244.732 303.146C238.159 302.832 231.115 302.67 224 302.67C216.885 302.67 209.841 302.832 203.268 303.146C196.695 303.46 190.722 303.92 185.692 304.501C180.661 305.081 176.67 305.77 173.948 306.528C171.225 307.286 169.824 308.099 169.824 308.92Z" fill="#45413C"/>
<path d="M138.568 167.227H309.435V288.083H138.568V167.227Z" fill="#DAEDF7"/>
<path d="M309.435 174.431V175.547H138.579V174.431C138.576 173.485 138.76 172.547 139.12 171.672C139.481 170.797 140.011 170.002 140.681 169.332C141.35 168.663 142.145 168.133 143.02 167.772C143.895 167.412 144.833 167.228 145.779 167.231H302.235C304.145 167.231 305.976 167.99 307.326 169.34C308.677 170.69 309.435 172.521 309.435 174.431Z" fill="white"/>
<path d="M138.579 279.72H309.435V280.872C309.43 282.78 308.669 284.608 307.32 285.957C305.971 287.306 304.143 288.067 302.235 288.072H145.779C143.87 288.072 142.038 287.314 140.688 285.963C139.338 284.613 138.579 282.782 138.579 280.872V279.72Z" fill="#C0DCEB"/>
<path d="M253.16 300.6C253.451 300.6 253.739 300.661 254.005 300.779C254.271 300.897 254.51 301.07 254.705 301.285C254.901 301.501 255.049 301.755 255.141 302.031C255.232 302.308 255.265 302.6 255.237 302.89C255.074 304.546 254.301 306.083 253.067 307.2C251.833 308.318 250.227 308.936 248.563 308.934H199.452C197.787 308.936 196.181 308.318 194.947 307.2C193.714 306.083 192.94 304.546 192.777 302.89C192.749 302.601 192.781 302.31 192.871 302.034C192.962 301.758 193.109 301.505 193.303 301.289C193.497 301.074 193.734 300.901 193.999 300.782C194.263 300.664 194.55 300.602 194.84 300.6H253.16Z" fill="#DAEDF7" stroke="#45413C" stroke-width="3" stroke-linecap="round" stroke-linejoin="round"/>
<path d="M138.568 167.227H309.435V288.083H138.568V167.227Z" stroke="#45413C" stroke-width="3" stroke-linecap="round" stroke-linejoin="round"/>
<path d="M249.006 308.92H198.994C204.16 295.142 206.482 260.014 207.13 248.238C207.19 247.177 207.656 246.179 208.43 245.451C209.204 244.722 210.229 244.319 211.292 244.325H236.708C237.771 244.319 238.795 244.722 239.57 245.451C240.344 246.179 240.81 247.177 240.87 248.238C241.518 260.014 243.84 295.142 249.006 308.92Z" fill="#DAEDF7" stroke="#45413C" stroke-width="3" stroke-linecap="round" stroke-linejoin="round"/>
<path d="M153.152 269.331V275.58" stroke="#45413C" stroke-width="3" stroke-linecap="round" stroke-linejoin="round"/>
<path d="M161.49 269.331V275.58" stroke="#45413C" stroke-width="3" stroke-linecap="round" stroke-linejoin="round"/>
<path d="M169.824 269.331V275.58" stroke="#45413C" stroke-width="3" stroke-linecap="round" stroke-linejoin="round"/>
<path d="M178.158 269.331V275.58" stroke="#45413C" stroke-width="3" stroke-linecap="round" stroke-linejoin="round"/>
<path d="M228.547 213.692C228.554 212.908 228.761 212.139 229.148 211.457C229.535 210.775 230.088 210.203 230.757 209.794C230.331 209.19 229.772 208.692 229.123 208.34C228.473 207.988 227.751 207.791 227.013 207.763C225.418 207.605 223.903 208.703 223.093 208.703C222.283 208.703 221.037 207.788 219.716 207.81C218.848 207.835 218.001 208.085 217.258 208.536C216.515 208.986 215.902 209.622 215.479 210.38C214.797 212.067 214.558 213.901 214.786 215.707C215.013 217.512 215.699 219.229 216.778 220.694C217.639 221.936 218.665 223.333 220.018 223.283C221.372 223.232 221.818 222.444 223.37 222.444C224.922 222.444 225.375 223.283 226.75 223.258C228.126 223.232 229.029 221.99 229.882 220.738C230.491 219.839 230.968 218.858 231.301 217.825C230.488 217.481 229.794 216.906 229.304 216.172C228.815 215.437 228.551 214.575 228.547 213.692Z" fill="#F0F0F0" stroke="#45413C" stroke-width="3" stroke-linejoin="round"/>
<path d="M225.04 202.45L226.92 200.567" stroke="#45413C" stroke-width="3" stroke-linecap="round" stroke-linejoin="round"/>
<path d="M151.071 175.561H294.848" stroke="#45413C" stroke-width="3" stroke-linecap="round" stroke-linejoin="round"/>
<path d="M258.261 115.452V106.895C258.261 97.8202 254.656 89.1172 248.24 82.7004C241.823 76.2836 233.12 72.6787 224.045 72.6787C214.97 72.6787 206.267 76.2836 199.85 82.7004C193.434 89.1172 189.829 97.8202 189.829 106.895V115.452C188.931 115.452 188.041 115.629 187.211 115.973C186.381 116.317 185.627 116.82 184.992 117.455C184.357 118.091 183.853 118.845 183.509 119.675C183.166 120.504 182.989 121.394 182.989 122.292C182.989 123.19 183.166 124.08 183.509 124.91C183.853 125.74 184.357 126.494 184.992 127.129C185.627 127.764 186.381 128.268 187.211 128.611C188.041 128.955 188.931 129.132 189.829 129.132C189.973 129.132 190.106 129.1 190.25 129.089C191.456 137.189 195.532 144.587 201.735 149.935C207.938 155.283 215.855 158.224 224.045 158.224C232.235 158.224 240.152 155.283 246.355 149.935C252.558 144.587 256.634 137.189 257.84 129.089C257.984 129.089 258.117 129.132 258.261 129.132C259.159 129.132 260.049 128.955 260.879 128.611C261.709 128.268 262.463 127.764 263.098 127.129C263.733 126.494 264.237 125.74 264.581 124.91C264.924 124.08 265.101 123.19 265.101 122.292C265.101 121.394 264.924 120.504 264.581 119.675C264.237 118.845 263.733 118.091 263.098 117.455C262.463 116.82 261.709 116.317 260.879 115.973C260.049 115.629 259.159 115.452 258.261 115.452Z" fill="#D18660"/>
<path d="M258.261 115.452V106.895C258.261 97.8202 254.656 89.1172 248.24 82.7004C241.823 76.2836 233.12 72.6787 224.045 72.6787C214.97 72.6787 206.267 76.2836 199.85 82.7004C193.434 89.1172 189.829 97.8202 189.829 106.895V115.452C188.931 115.452 188.041 115.629 187.211 115.973C186.381 116.317 185.627 116.82 184.992 117.455C184.357 118.091 183.853 118.845 183.509 119.675C183.166 120.504 182.989 121.394 182.989 122.292C182.989 123.19 183.166 124.08 183.509 124.91C183.853 125.74 184.357 126.494 184.992 127.129C185.627 127.764 186.381 128.268 187.211 128.611C188.041 128.955 188.931 129.132 189.829 129.132C189.973 129.132 190.106 129.1 190.25 129.089C191.456 137.189 195.532 144.587 201.735 149.935C207.938 155.283 215.855 158.224 224.045 158.224C232.235 158.224 240.152 155.283 246.355 149.935C252.558 144.587 256.634 137.189 257.84 129.089C257.984 129.089 258.117 129.132 258.261 129.132C259.159 129.132 260.049 128.955 260.879 128.611C261.709 128.268 262.463 127.764 263.098 127.129C263.733 126.494 264.237 125.74 264.581 124.91C264.924 124.08 265.101 123.19 265.101 122.292C265.101 121.394 264.924 120.504 264.581 119.675C264.237 118.845 263.733 118.091 263.098 117.455C262.463 116.82 261.709 116.317 260.879 115.973C260.049 115.629 259.159 115.452 258.261 115.452V115.452Z" stroke="#45413C" stroke-width="3" stroke-linecap="round" stroke-linejoin="round"/>
<path d="M200.092 129.993C200.092 130.554 200.203 131.11 200.418 131.629C200.633 132.148 200.948 132.62 201.345 133.017C201.742 133.414 202.214 133.729 202.733 133.944C203.251 134.159 203.808 134.269 204.369 134.269C204.931 134.269 205.487 134.159 206.006 133.944C206.525 133.729 206.996 133.414 207.393 133.017C207.79 132.62 208.105 132.148 208.32 131.629C208.535 131.11 208.646 130.554 208.646 129.993C208.646 129.431 208.535 128.875 208.32 128.356C208.105 127.837 207.79 127.366 207.393 126.968C206.996 126.571 206.525 126.256 206.006 126.041C205.487 125.826 204.931 125.716 204.369 125.716C203.808 125.716 203.251 125.826 202.733 126.041C202.214 126.256 201.742 126.571 201.345 126.968C200.948 127.366 200.633 127.837 200.418 128.356C200.203 128.875 200.092 129.431 200.092 129.993Z" fill="#BD704A"/>
<path d="M239.444 129.993C239.444 130.554 239.555 131.11 239.77 131.629C239.984 132.148 240.3 132.62 240.697 133.017C241.094 133.414 241.565 133.729 242.084 133.944C242.603 134.159 243.159 134.269 243.721 134.269C244.282 134.269 244.839 134.159 245.357 133.944C245.876 133.729 246.348 133.414 246.745 133.017C247.142 132.62 247.457 132.148 247.672 131.629C247.887 131.11 247.998 130.554 247.998 129.993C247.998 129.431 247.887 128.875 247.672 128.356C247.457 127.837 247.142 127.366 246.745 126.968C246.348 126.571 245.876 126.256 245.357 126.041C244.839 125.826 244.282 125.716 243.721 125.716C243.159 125.716 242.603 125.826 242.084 126.041C241.565 126.256 241.094 126.571 240.697 126.968C240.3 127.366 239.984 127.837 239.77 128.356C239.555 128.875 239.444 129.431 239.444 129.993Z" fill="#BD704A"/>
<path d="M213.751 138.679C216.526 141.323 220.212 142.797 224.045 142.797C227.878 142.797 231.564 141.323 234.339 138.679" stroke="#45413C" stroke-width="3" stroke-linecap="round" stroke-linejoin="round"/>
<path d="M242.864 118.872C242.44 117.857 241.725 116.989 240.81 116.379C239.894 115.769 238.818 115.443 237.718 115.443C236.617 115.443 235.542 115.769 234.626 116.379C233.71 116.989 232.995 117.857 232.572 118.872" stroke="#45413C" stroke-width="3" stroke-linecap="round" stroke-linejoin="round"/>
<path d="M215.461 118.872C215.037 117.857 214.322 116.989 213.407 116.379C212.491 115.769 211.415 115.443 210.315 115.443C209.214 115.443 208.138 115.769 207.223 116.379C206.307 116.989 205.592 117.857 205.168 118.872" stroke="#45413C" stroke-width="3" stroke-linecap="round" stroke-linejoin="round"/>
<path d="M261.685 96.7789V112.072C261.683 112.97 261.325 113.83 260.69 114.465C260.056 115.1 259.195 115.457 258.297 115.459C257.839 115.456 257.385 115.361 256.963 115.182C256.541 115.003 256.159 114.742 255.838 114.415C255.517 114.087 255.263 113.7 255.092 113.274C254.921 112.849 254.836 112.393 254.841 111.935C254.829 107.662 253.583 103.483 251.253 99.9016C248.922 96.32 245.607 93.488 241.705 91.7462C237.783 93.628 233.525 94.7098 229.18 94.9285H228.939C228.978 96.2377 228.711 97.5379 228.158 98.7254C227.605 99.913 226.783 100.955 225.757 101.769C224.755 102.748 223.547 103.491 222.22 103.941C220.894 104.392 219.483 104.539 218.092 104.371C217.812 104.327 217.548 104.214 217.323 104.042C217.098 103.87 216.92 103.644 216.804 103.386C216.689 103.127 216.639 102.844 216.661 102.561C216.683 102.279 216.775 102.006 216.93 101.769C217.344 100.984 217.583 100.119 217.631 99.2337C217.678 98.3479 217.532 97.4624 217.203 96.6385C215.493 91.6418 208.65 91.5049 208.65 91.5049L206.392 91.7425C202.491 93.4849 199.175 96.317 196.844 99.8984C194.513 103.48 193.266 107.658 193.252 111.931C193.258 112.39 193.173 112.845 193.002 113.271C192.831 113.697 192.578 114.084 192.257 114.412C191.936 114.739 191.553 115 191.131 115.179C190.709 115.359 190.255 115.452 189.796 115.456C188.899 115.453 188.039 115.095 187.404 114.46C186.769 113.826 186.412 112.966 186.409 112.068V96.7789C186.41 93.608 187.085 90.4736 188.388 87.5829C189.692 84.6921 191.594 82.111 193.969 80.0102C194.598 79.444 195.02 78.6837 195.168 77.8502C196.705 70.1498 209.056 64.127 224.043 64.127C239.03 64.127 251.349 70.1498 252.922 77.8502C253.067 78.6848 253.489 79.446 254.121 80.0102C256.497 82.1105 258.4 84.6915 259.704 87.5823C261.008 90.473 261.683 93.6077 261.685 96.7789Z" fill="#724F3D"/>
<path d="M228.939 94.9286C228.838 92.0882 227.197 89.7986 225.757 89.7986" stroke="#45413C" stroke-width="3" stroke-linecap="round" stroke-linejoin="round"/>
<path d="M254.107 80.0136C253.489 79.442 253.077 78.6829 252.933 77.8536C251.367 70.1316 239.044 64.1196 224.043 64.1196C209.042 64.1196 196.723 70.1316 195.157 77.8536C195.013 78.6829 194.601 79.442 193.983 80.0136C191.604 82.1081 189.699 84.686 188.396 87.5752C187.092 90.4643 186.419 93.5984 186.423 96.768V105.322C186.419 102.152 187.092 99.0179 188.396 96.1288C189.699 93.2396 191.604 90.6617 193.983 88.5672C194.601 87.9956 195.013 87.2365 195.157 86.4072C196.723 78.6888 209.046 72.6732 224.043 72.6732C239.041 72.6732 251.36 78.696 252.933 86.4C253.077 87.2293 253.489 87.9884 254.107 88.56C256.486 90.6545 258.391 93.2324 259.694 96.1216C260.998 99.0107 261.671 102.145 261.667 105.314V96.768C261.671 93.5984 260.998 90.4643 259.694 87.5752C258.391 84.686 256.486 82.1081 254.107 80.0136Z" fill="#A86C4D"/>
<path d="M261.685 96.7789V112.072C261.683 112.97 261.325 113.83 260.69 114.465C260.056 115.1 259.195 115.457 258.297 115.459C257.839 115.456 257.385 115.361 256.963 115.182C256.541 115.003 256.159 114.742 255.838 114.415C255.517 114.087 255.263 113.7 255.092 113.274C254.921 112.849 254.836 112.393 254.841 111.935C254.829 107.662 253.583 103.483 251.253 99.9016C248.922 96.32 245.607 93.488 241.705 91.7462C237.783 93.628 233.525 94.7098 229.18 94.9285H228.939C228.978 96.2377 228.711 97.5379 228.158 98.7254C227.605 99.913 226.783 100.955 225.757 101.769C224.755 102.748 223.547 103.491 222.22 103.941C220.894 104.392 219.483 104.539 218.092 104.371C217.812 104.327 217.548 104.214 217.323 104.042C217.098 103.87 216.92 103.644 216.804 103.386C216.689 103.127 216.639 102.844 216.661 102.561C216.683 102.279 216.775 102.006 216.93 101.769C217.344 100.984 217.583 100.119 217.631 99.2337C217.678 98.3479 217.532 97.4624 217.203 96.6386C215.493 91.6418 208.65 91.5049 208.65 91.5049L206.392 91.7425C202.491 93.4849 199.175 96.317 196.844 99.8984C194.513 103.48 193.266 107.658 193.252 111.931C193.258 112.39 193.173 112.845 193.002 113.271C192.831 113.697 192.578 114.084 192.257 114.412C191.936 114.739 191.553 115 191.131 115.179C190.709 115.359 190.255 115.452 189.796 115.456C188.899 115.453 188.039 115.095 187.404 114.46C186.769 113.826 186.412 112.966 186.409 112.068V96.7789C186.41 93.608 187.085 90.4736 188.388 87.5829C189.692 84.6921 191.594 82.111 193.969 80.0102C194.598 79.444 195.02 78.6837 195.168 77.8502C196.705 70.1498 209.056 64.127 224.043 64.127C239.03 64.127 251.349 70.1498 252.922 77.8502C253.067 78.6848 253.489 79.446 254.121 80.0102C256.497 82.1105 258.4 84.6915 259.704 87.5823C261.008 90.473 261.683 93.6077 261.685 96.7789V96.7789Z" stroke="#45413C" stroke-width="3" stroke-linecap="round" stroke-linejoin="round"/>
<path d="M329.89 56.6713C329.89 65.1746 322.996 130.237 314.493 130.237C305.99 130.237 299.096 65.1602 299.096 56.6713C299.096 48.1825 305.99 39.5605 314.493 39.5605C322.996 39.5605 329.89 48.1681 329.89 56.6713Z" fill="#614B44"/>
<path d="M314.493 51.5377C318.061 51.8098 321.444 53.2361 324.129 55.6008C326.815 57.9656 328.658 61.1404 329.379 64.6453C329.71 60.8689 329.89 58.0357 329.89 56.6713C329.89 48.1681 322.996 39.5605 314.493 39.5605C305.99 39.5605 299.096 48.1681 299.096 56.6713C299.096 58.0357 299.276 60.8689 299.607 64.6453C300.329 61.1404 302.171 57.9656 304.857 55.6008C307.543 53.2361 310.925 51.8098 314.493 51.5377Z" fill="#947063"/>
<path d="M329.89 56.6713C329.89 65.1746 322.996 130.237 314.493 130.237C305.99 130.237 299.096 65.1602 299.096 56.6713C299.096 48.1825 305.99 39.5605 314.493 39.5605C322.996 39.5605 329.89 48.1681 329.89 56.6713Z" stroke="#45413C" stroke-width="3" stroke-linejoin="round"/>
<path d="M348.711 104.505V95.9509C348.711 86.8757 345.106 78.1722 338.689 71.7551C332.272 65.338 323.568 61.7329 314.493 61.7329C305.418 61.7329 296.715 65.338 290.297 71.7551C283.88 78.1722 280.275 86.8757 280.275 95.9509V104.505C278.461 104.505 276.721 105.225 275.439 106.508C274.156 107.791 273.435 109.53 273.435 111.345C273.435 113.159 274.156 114.898 275.439 116.181C276.721 117.464 278.461 118.184 280.275 118.184C280.419 118.184 280.552 118.152 280.696 118.141C281.905 126.24 285.982 133.636 292.185 138.982C298.388 144.327 306.305 147.268 314.493 147.268C322.682 147.268 330.598 144.327 336.801 138.982C343.004 133.636 347.081 126.24 348.29 118.141C348.434 118.141 348.567 118.184 348.711 118.184C350.525 118.184 352.265 117.464 353.548 116.181C354.831 114.898 355.551 113.159 355.551 111.345C355.551 109.53 354.831 107.791 353.548 106.508C352.265 105.225 350.525 104.505 348.711 104.505Z" fill="#FFDA8F" stroke="#45413C" stroke-width="3" stroke-linecap="round" stroke-linejoin="round"/>
<path d="M290.542 119.049C290.542 120.183 290.993 121.271 291.795 122.073C292.597 122.875 293.685 123.325 294.819 123.325C295.953 123.325 297.041 122.875 297.843 122.073C298.645 121.271 299.096 120.183 299.096 119.049C299.096 117.914 298.645 116.826 297.843 116.024C297.041 115.222 295.953 114.772 294.819 114.772C293.685 114.772 292.597 115.222 291.795 116.024C290.993 116.826 290.542 117.914 290.542 119.049Z" fill="#FFBE3D"/>
<path d="M329.89 119.049C329.89 120.183 330.341 121.271 331.143 122.073C331.945 122.875 333.033 123.325 334.167 123.325C335.301 123.325 336.389 122.875 337.191 122.073C337.993 121.271 338.444 120.183 338.444 119.049C338.444 117.914 337.993 116.826 337.191 116.024C336.389 115.222 335.301 114.772 334.167 114.772C333.033 114.772 331.945 115.222 331.143 116.024C330.341 116.826 329.89 117.914 329.89 119.049Z" fill="#FFBE3D"/>
<path d="M324.76 127.735C322.005 130.39 318.327 131.873 314.5 131.873C310.674 131.873 306.996 130.39 304.24 127.735" stroke="#45413C" stroke-width="3" stroke-linecap="round" stroke-linejoin="round"/>
<path d="M305.94 107.928C305.518 106.914 304.805 106.049 303.892 105.439C302.979 104.83 301.906 104.505 300.808 104.505C299.71 104.505 298.637 104.83 297.724 105.439C296.81 106.049 296.098 106.914 295.676 107.928" stroke="#45413C" stroke-width="3" stroke-linecap="round" stroke-linejoin="round"/>
<path d="M333.314 107.928C332.891 106.915 332.179 106.049 331.265 105.44C330.352 104.831 329.278 104.507 328.18 104.507C327.083 104.507 326.009 104.831 325.096 105.44C324.182 106.049 323.469 106.915 323.047 107.928" stroke="#45413C" stroke-width="3" stroke-linecap="round" stroke-linejoin="round"/>
<path d="M280.275 104.505V102.795C280.275 102.795 280.275 99.3746 285.409 99.3746H309.36C310.263 99.3932 311.161 99.229 311.999 98.8919C312.837 98.5547 313.599 98.0516 314.238 97.4127C314.877 96.7738 315.38 96.0123 315.717 95.174C316.054 94.3357 316.218 93.4379 316.2 92.5346C316.2 86.321 316.2 74.4698 330.279 72.335C330.854 72.2483 331.441 72.2853 332.001 72.4434C332.56 72.6016 333.08 72.8772 333.524 73.252C333.969 73.6267 334.328 74.092 334.579 74.6167C334.829 75.1415 334.965 75.7136 334.977 76.295C335.128 85.1294 336.82 104.505 348.708 104.505C350.112 104.506 351.481 104.941 352.628 105.75C354.106 99.9412 354.237 93.8714 353.012 88.004C351.787 82.1365 349.238 76.6265 345.559 71.8943C341.88 67.1621 337.169 63.3329 331.784 60.6989C326.4 58.0648 320.485 56.6956 314.491 56.6956C308.497 56.6956 302.583 58.0648 297.198 60.6989C291.814 63.3329 287.103 67.1621 283.424 71.8943C279.745 76.6265 277.196 82.1365 275.971 88.004C274.745 93.8714 274.877 99.9412 276.355 105.75C277.502 104.94 278.871 104.505 280.275 104.505Z" fill="#614B44"/>
<path d="M314.493 70.3585C319.13 70.3528 323.732 71.1707 328.083 72.7741C328.774 72.5977 329.505 72.4501 330.283 72.3313C330.842 72.2485 331.413 72.2826 331.958 72.4315C332.504 72.5805 333.013 72.841 333.453 73.1965C333.893 73.5521 334.254 73.9951 334.514 74.4974C334.774 74.9997 334.927 75.5505 334.963 76.1149C339.723 79.0278 343.811 82.9185 346.955 87.5297C350.099 92.1409 352.228 97.3673 353.2 102.863C354.232 97.1917 354.005 91.3632 352.536 85.7893C351.067 80.2155 348.391 75.0325 344.698 70.6068C341.004 66.1812 336.384 62.6209 331.163 60.1777C325.942 57.7346 320.248 56.4683 314.484 56.4683C308.72 56.4683 303.026 57.7346 297.805 60.1777C292.584 62.6209 287.964 66.1812 284.271 70.6068C280.578 75.0325 277.902 80.2155 276.432 85.7893C274.963 91.3632 274.736 97.1917 275.768 102.863C277.372 93.757 282.133 85.5073 289.215 79.563C296.297 73.6186 305.247 70.3597 314.493 70.3585Z" fill="#947063"/>
<path d="M280.275 104.505V102.795C280.275 102.795 280.275 99.3746 285.409 99.3746H309.36C310.263 99.3932 311.161 99.229 311.999 98.8919C312.837 98.5547 313.599 98.0516 314.238 97.4127C314.877 96.7738 315.38 96.0123 315.717 95.174C316.054 94.3357 316.218 93.4379 316.2 92.5346C316.2 86.321 316.2 74.4698 330.279 72.335C330.854 72.2483 331.441 72.2853 332.001 72.4434C332.56 72.6016 333.08 72.8772 333.524 73.252C333.969 73.6267 334.328 74.092 334.579 74.6167C334.829 75.1415 334.965 75.7136 334.977 76.295C335.128 85.1294 336.82 104.505 348.708 104.505C350.112 104.506 351.481 104.941 352.628 105.75C354.106 99.9412 354.237 93.8714 353.012 88.004C351.787 82.1365 349.238 76.6265 345.559 71.8943C341.88 67.1621 337.169 63.3329 331.784 60.6989C326.4 58.0648 320.485 56.6956 314.491 56.6956C308.497 56.6956 302.583 58.0648 297.198 60.6989C291.814 63.3329 287.103 67.1621 283.424 71.8943C279.745 76.6265 277.196 82.1365 275.971 88.004C274.745 93.8714 274.877 99.9412 276.355 105.75C277.502 104.94 278.871 104.505 280.275 104.505V104.505Z" stroke="#45413C" stroke-width="3" stroke-linecap="round" stroke-linejoin="round"/>
<path d="M283.695 127.915C283.807 135.331 281.852 140.515 279.422 140.515C277.06 140.515 275.145 134.755 275.145 127.681C275.145 120.607 277.06 114.84 279.44 114.84" stroke="#45413C" stroke-width="3" stroke-linecap="round" stroke-linejoin="round"/>
<path d="M345.295 127.915C345.18 135.331 347.138 140.515 349.568 140.515C351.93 140.515 353.845 134.755 353.845 127.681C353.845 120.607 351.93 114.84 349.568 114.84" stroke="#45413C" stroke-width="3" stroke-linecap="round" stroke-linejoin="round"/>
<rect y="242" width="448" height="80" fill="url(#paint0_linear)"/>
<g filter="url(#filter0_d)">
<g filter="url(#filter1_d)">
<path d="M77.3333 265.539C78.9835 264.587 81.0165 264.587 82.6667 265.539L105.046 278.46C106.696 279.413 107.713 281.174 107.713 283.079V308.921C107.713 310.826 106.696 312.587 105.046 313.539L82.6667 326.46C81.0165 327.413 78.9835 327.413 77.3333 326.46L54.9539 313.539C53.3037 312.587 52.2872 310.826 52.2872 308.921V283.079C52.2872 281.174 53.3037 279.413 54.9539 278.46L77.3333 265.539Z" fill="#F4F0FF"/>
<path fill-rule="evenodd" clip-rule="evenodd" d="M104.127 279.268L82.3801 266.713C80.8881 265.851 79.05 265.851 77.558 266.713L55.811 279.268C54.319 280.13 53.3999 281.722 53.3999 283.444V308.556C53.3999 310.278 54.319 311.87 55.811 312.732L77.558 325.287C79.05 326.149 80.8881 326.149 82.3801 325.287L104.127 312.732C105.619 311.87 106.538 310.278 106.538 308.556V283.444C106.538 281.722 105.619 280.13 104.127 279.268ZM83.4134 264.923C81.282 263.692 78.6561 263.692 76.5247 264.923L54.7777 277.479C52.6463 278.709 51.3333 280.983 51.3333 283.444V308.556C51.3333 311.017 52.6463 313.291 54.7777 314.521L76.5247 327.077C78.6561 328.308 81.282 328.308 83.4134 327.077L105.16 314.521C107.292 313.291 108.605 311.017 108.605 308.556V283.444C108.605 280.983 107.292 278.709 105.16 277.479L83.4134 264.923Z" fill="#341394"/>
<path d="M64.0003 295.986C63.9049 280.351 85.1562 273.447 94.3207 287.975L87.2885 291.984C83.0434 285.065 72.503 287.539 72.1247 295.986C72.2383 303.77 82.5981 307.386 87.2889 299.986L94.3211 303.996C86.2446 317.812 64.4077 312.841 64.0003 295.986Z" fill="#341394"/>
<path d="M90.8037 291.446H92.1429L91.2278 300.156H89.8634L90.8037 291.446Z" fill="#341394"/>
<path d="M93.6725 291.446H95.0117L94.0966 300.156H92.7322L93.6725 291.446Z" fill="#341394"/>
<path d="M96 293.514H89.3037V294.788H96V293.514Z" fill="#341394"/>
<path d="M95.625 296.619H88.9287V297.893H95.625V296.619Z" fill="#341394"/>
</g>
<path d="M149.333 265.54C150.983 264.587 153.017 264.587 154.667 265.54L177.046 278.461C178.696 279.413 179.713 281.174 179.713 283.079V308.921C179.713 310.826 178.696 312.587 177.046 313.54L154.667 326.461C153.017 327.413 150.983 327.413 149.333 326.461L126.954 313.54C125.304 312.587 124.287 310.826 124.287 308.921V283.079C124.287 281.174 125.304 279.413 126.954 278.461L149.333 265.54Z" fill="#FFF1E4"/>
<path fill-rule="evenodd" clip-rule="evenodd" d="M176.127 279.268L154.38 266.713C152.888 265.851 151.05 265.851 149.558 266.713L127.811 279.268C126.319 280.13 125.4 281.722 125.4 283.444V308.556C125.4 310.278 126.319 311.87 127.811 312.732L149.558 325.287C151.05 326.149 152.888 326.149 154.38 325.287L176.127 312.732C177.619 311.87 178.538 310.278 178.538 308.556V283.444C178.538 281.722 177.619 280.13 176.127 279.268ZM155.413 264.923C153.282 263.692 150.656 263.692 148.525 264.923L126.778 277.479C124.646 278.709 123.333 280.983 123.333 283.444V308.556C123.333 311.017 124.646 313.291 126.778 314.521L148.525 327.077C150.656 328.308 153.282 328.308 155.413 327.077L177.16 314.521C179.292 313.291 180.605 311.017 180.605 308.556V283.444C180.605 280.983 179.292 278.709 177.16 277.479L155.413 264.923Z" fill="#EA2D2E"/>
<path d="M147.904 304.53C147.904 304.53 146.712 305.224 148.753 305.458C151.226 305.74 152.49 305.7 155.215 305.185C155.215 305.185 155.932 305.633 156.933 306.022C150.823 308.64 143.106 305.871 147.904 304.53ZM147.157 301.114C147.157 301.114 145.82 302.104 147.863 302.315C150.505 302.588 152.59 302.61 156.201 301.915C156.201 301.915 156.7 302.421 157.484 302.698C150.099 304.858 141.873 302.868 147.157 301.114Z" fill="#0074BD"/>
<path d="M153.451 295.318C154.957 297.051 153.056 298.61 153.056 298.61C153.056 298.61 156.878 296.637 155.123 294.166C153.483 291.862 152.226 290.718 159.032 286.771C159.032 286.771 148.349 289.438 153.451 295.318Z" fill="#EA2D2E"/>
<path d="M161.531 307.057C161.531 307.057 162.413 307.785 160.559 308.347C157.033 309.415 145.882 309.737 142.785 308.39C141.673 307.905 143.76 307.233 144.417 307.092C145.102 306.943 145.493 306.97 145.493 306.97C144.254 306.099 137.489 308.683 142.057 309.424C154.512 311.443 164.761 308.515 161.531 307.057ZM148.478 297.573C148.478 297.573 142.807 298.921 146.47 299.41C148.017 299.617 151.099 299.57 153.973 299.329C156.32 299.132 158.676 298.71 158.676 298.71C158.676 298.71 157.849 299.065 157.25 299.474C151.489 300.989 140.364 300.283 143.567 298.734C146.275 297.424 148.478 297.573 148.478 297.573ZM158.652 303.26C164.508 300.218 161.8 297.295 159.91 297.689C159.448 297.785 159.241 297.869 159.241 297.869C159.241 297.869 159.413 297.599 159.741 297.483C163.479 296.169 166.354 301.359 158.535 303.414C158.535 303.414 158.625 303.333 158.652 303.26Z" fill="#0074BD"/>
<path d="M155.123 280.397C155.123 280.397 158.365 283.641 152.047 288.627C146.981 292.629 150.892 294.91 152.045 297.517C149.088 294.849 146.918 292.5 148.373 290.313C150.51 287.105 156.431 285.549 155.123 280.397Z" fill="#EA2D2E"/>
<path d="M149.054 311.505C154.673 311.864 163.304 311.305 163.508 308.646C163.508 308.646 163.115 309.654 158.864 310.454C154.067 311.357 148.15 311.252 144.642 310.672C144.642 310.673 145.361 311.268 149.054 311.505Z" fill="#0074BD"/>
<path d="M221.333 265.54C222.983 264.587 225.017 264.587 226.667 265.54L249.046 278.461C250.696 279.413 251.713 281.174 251.713 283.079V308.921C251.713 310.826 250.696 312.587 249.046 313.54L226.667 326.461C225.017 327.413 222.983 327.413 221.333 326.461L198.954 313.54C197.304 312.587 196.287 310.826 196.287 308.921V283.079C196.287 281.174 197.304 279.413 198.954 278.461L221.333 265.54Z" fill="#DCEFFF"/>
<path fill-rule="evenodd" clip-rule="evenodd" d="M248.127 279.268L226.38 266.713C224.888 265.851 223.05 265.851 221.558 266.713L199.811 279.268C198.319 280.13 197.4 281.722 197.4 283.444V308.556C197.4 310.278 198.319 311.87 199.811 312.732L221.558 325.287C223.05 326.149 224.888 326.149 226.38 325.287L248.127 312.732C249.619 311.87 250.538 310.278 250.538 308.556V283.444C250.538 281.722 249.619 280.13 248.127 279.268ZM227.413 264.923C225.282 263.692 222.656 263.692 220.525 264.923L198.778 277.479C196.646 278.709 195.333 280.983 195.333 283.444V308.556C195.333 311.017 196.646 313.291 198.778 314.521L220.525 327.077C222.656 328.308 225.282 328.308 227.413 327.077L249.16 314.521C251.292 313.291 252.605 311.017 252.605 308.556V283.444C252.605 280.983 251.292 278.709 249.16 277.479L227.413 264.923Z" fill="#3770A0"/>
<path d="M223.809 280C222.49 280.006 221.23 280.118 220.121 280.312C216.855 280.882 216.262 282.077 216.262 284.28V287.19H223.98V288.159H216.262H213.365C211.122 288.159 209.158 289.493 208.543 292.03C207.835 294.938 207.803 296.752 208.543 299.789C209.092 302.049 210.402 303.659 212.646 303.659H215.299V300.171C215.299 297.651 217.504 295.429 220.121 295.429H227.831C229.977 295.429 231.69 293.681 231.69 291.549V284.28C231.69 282.211 229.925 280.657 227.831 280.312C226.505 280.093 225.129 279.994 223.809 280ZM219.635 282.34C220.433 282.34 221.084 282.995 221.084 283.8C221.084 284.601 220.433 285.25 219.635 285.25C218.835 285.25 218.187 284.601 218.187 283.8C218.187 282.995 218.835 282.34 219.635 282.34Z" fill="url(#paint1_linear)"/>
<path d="M232.652 288.159V291.549C232.652 294.178 230.4 296.39 227.831 296.39H220.121C218.009 296.39 216.262 298.177 216.262 300.269V307.539C216.262 309.607 218.081 310.824 220.121 311.418C222.564 312.128 224.907 312.257 227.831 311.418C229.774 310.861 231.69 309.742 231.69 307.539V304.629H223.98V303.659H231.69H235.549C237.792 303.659 238.628 302.112 239.408 299.789C240.214 297.397 240.18 295.098 239.408 292.03C238.854 289.821 237.795 288.159 235.549 288.159H232.652ZM228.316 306.569C229.117 306.569 229.765 307.217 229.765 308.019C229.765 308.824 229.117 309.478 228.316 309.478C227.519 309.478 226.868 308.824 226.868 308.019C226.868 307.217 227.519 306.569 228.316 306.569Z" fill="url(#paint2_linear)"/>
<path d="M291.935 267.065C294.443 265.585 297.557 265.585 300.065 267.065L318.623 278.012C321.061 279.451 322.558 282.071 322.558 284.902V307.098C322.558 309.929 321.062 312.55 318.623 313.988L300.065 324.936C297.557 326.415 294.443 326.415 291.935 324.936L273.377 313.988C270.939 312.55 269.442 309.929 269.442 307.098V284.902C269.442 282.071 270.939 279.451 273.377 278.012L291.935 267.065Z" fill="#FFF0F0"/>
<path fill-rule="evenodd" clip-rule="evenodd" d="M320.184 279.285L298.414 266.716C296.92 265.853 295.08 265.853 293.586 266.716L271.816 279.285C270.322 280.147 269.402 281.741 269.402 283.465V308.604C269.402 310.328 270.322 311.922 271.816 312.784L293.586 325.354C295.08 326.216 296.92 326.216 298.414 325.354L320.184 312.784C321.678 311.922 322.598 310.328 322.598 308.604V283.465C322.598 281.741 321.678 280.147 320.184 279.285ZM299.448 264.924C297.314 263.692 294.686 263.692 292.552 264.924L270.781 277.493C268.648 278.725 267.333 281.002 267.333 283.465V308.604C267.333 311.068 268.648 313.344 270.781 314.576L292.552 327.145C294.686 328.377 297.314 328.377 299.448 327.145L321.219 314.576C323.352 313.344 324.667 311.068 324.667 308.604V283.465C324.667 281.002 323.352 278.725 321.219 277.493L299.448 264.924Z" fill="#EB5757"/>
<g clip-path="url(#clip0)">
<path fill-rule="evenodd" clip-rule="evenodd" d="M286.522 312L310.178 310.39L312 286.47L304.792 301.121L286.522 312Z" fill="url(#paint3_linear)"/>
<path fill-rule="evenodd" clip-rule="evenodd" d="M302.645 303.635L310.217 310.374L308.184 296.301L302.645 303.635Z" fill="url(#paint4_linear)"/>
<path fill-rule="evenodd" clip-rule="evenodd" d="M286.601 311.969L310.244 310.374L295.348 309.201L286.601 311.969Z" fill="url(#paint5_linear)"/>
<path fill-rule="evenodd" clip-rule="evenodd" d="M282.155 301.503L286.622 311.973L290.343 299.748L282.155 301.503Z" fill="url(#paint6_linear)"/>
<path fill-rule="evenodd" clip-rule="evenodd" d="M289.421 299.437L302.644 303.675L299.22 290.226L289.421 299.437Z" fill="url(#paint7_linear)"/>
<path fill-rule="evenodd" clip-rule="evenodd" d="M299.381 291.191L311.223 290.416L301.961 282.829L299.381 291.191Z" fill="url(#paint8_linear)"/>
<path fill-rule="evenodd" clip-rule="evenodd" d="M298.007 280.084L306.892 280.124L301.444 283.143L298.007 280.084Z" fill="url(#paint9_linear)"/>
<path fill-rule="evenodd" clip-rule="evenodd" d="M280.436 296.458L280 305.604L282.282 301.43L280.436 296.458Z" fill="url(#paint10_linear)"/>
<path fill-rule="evenodd" clip-rule="evenodd" d="M280.313 296.301L282.171 301.584L290.246 299.769L299.46 291.185L302.061 282.902L297.962 280L291.001 282.612C288.807 284.658 284.551 288.705 284.398 288.781C284.245 288.858 281.588 293.898 280.313 296.301Z" fill="white"/>
<path fill-rule="evenodd" clip-rule="evenodd" d="M286.835 286.81C291.588 282.084 297.716 279.292 300.068 281.672C302.419 284.051 299.926 289.833 295.172 294.557C290.419 299.281 284.361 302.227 282.017 299.848C279.674 297.469 282.082 291.535 286.835 286.81Z" fill="url(#paint11_linear)"/>
<path fill-rule="evenodd" clip-rule="evenodd" d="M286.622 311.968L290.314 299.704L302.576 303.654C298.143 307.823 293.212 311.347 286.622 311.968Z" fill="url(#paint12_linear)"/>
<path fill-rule="evenodd" clip-rule="evenodd" d="M299.472 291.157L302.62 303.661C306.326 299.759 309.647 295.558 311.275 290.365L299.472 291.157Z" fill="url(#paint13_linear)"/>
<path fill-rule="evenodd" clip-rule="evenodd" d="M311.243 290.428C312.502 286.616 312.787 281.146 306.853 280.131L301.978 282.831L311.243 290.428Z" fill="url(#paint14_linear)"/>
<path fill-rule="evenodd" clip-rule="evenodd" d="M280 305.549C280.174 311.841 284.702 311.935 286.63 311.99L282.176 301.559L280 305.549Z" fill="#AA3E35"/>
<path fill-rule="evenodd" clip-rule="evenodd" d="M299.49 291.175C302.335 292.929 308.071 296.452 308.187 296.52C308.368 296.622 310.66 292.644 311.18 290.396L299.49 291.175Z" fill="url(#paint15_radial)"/>
<path fill-rule="evenodd" clip-rule="evenodd" d="M290.309 299.704L295.245 309.26C298.164 307.673 300.449 305.739 302.542 303.667L290.309 299.704Z" fill="url(#paint16_radial)"/>
<path fill-rule="evenodd" clip-rule="evenodd" d="M282.156 301.571L281.454 309.922C282.773 311.73 284.589 311.887 286.493 311.746C285.118 308.307 282.366 301.432 282.156 301.571Z" fill="url(#paint17_linear)"/>
<path fill-rule="evenodd" clip-rule="evenodd" d="M301.949 282.852L311.755 284.232C311.231 282.008 309.624 280.573 306.885 280.124L301.949 282.852Z" fill="url(#paint18_linear)"/>
</g>
<path d="M365.333 265.54C366.983 264.587 369.017 264.587 370.667 265.54L393.046 278.461C394.696 279.413 395.713 281.174 395.713 283.079V308.921C395.713 310.826 394.696 312.587 393.046 313.54L370.667 326.461C369.017 327.413 366.983 327.413 365.333 326.461L342.954 313.54C341.304 312.587 340.287 310.826 340.287 308.921V283.079C340.287 281.174 341.304 279.413 342.954 278.461L365.333 265.54Z" fill="#F9EFFF"/>
<path fill-rule="evenodd" clip-rule="evenodd" d="M392.127 279.268L370.38 266.713C368.888 265.851 367.05 265.851 365.558 266.713L343.811 279.268C342.319 280.13 341.4 281.722 341.4 283.444V308.556C341.4 310.278 342.319 311.87 343.811 312.732L365.558 325.287C367.05 326.149 368.888 326.149 370.38 325.287L392.127 312.732C393.619 311.87 394.538 310.278 394.538 308.556V283.444C394.538 281.722 393.619 280.13 392.127 279.268ZM371.413 264.923C369.282 263.692 366.656 263.692 364.525 264.923L342.778 277.479C340.646 278.709 339.333 280.983 339.333 283.444V308.556C339.333 311.017 340.646 313.291 342.778 314.521L364.525 327.077C366.656 328.308 369.282 328.308 371.413 327.077L393.16 314.521C395.292 313.291 396.605 311.017 396.605 308.556V283.444C396.605 280.983 395.292 278.709 393.16 277.479L371.413 264.923Z" fill="#7D41A4"/>
<g clip-path="url(#clip1)">
<path fill-rule="evenodd" clip-rule="evenodd" d="M369.017 280.081C366.692 280.905 364.448 283.31 362.284 287.296C359.039 293.276 354.847 301.773 360.619 308.501C363.289 311.613 367.698 313.45 373.484 310.541C378.133 308.204 379.425 301.496 377.757 298.345C374.314 291.843 370.822 290.24 369.887 286.208C369.263 283.52 368.973 281.477 369.017 280.081Z" fill="url(#paint19_linear)"/>
<path fill-rule="evenodd" clip-rule="evenodd" d="M369.017 280C366.68 280.833 364.436 283.238 362.284 287.216C359.056 293.183 354.847 301.692 360.619 308.42C363.289 311.532 367.641 312.538 370.056 310.692C371.631 309.489 372.702 308.342 373.318 305.925C374.005 303.234 373.478 299.611 373.117 297.946C372.66 295.84 372.511 293.529 372.668 291.011C372.613 290.944 372.571 290.893 372.544 290.859C371.287 289.321 370.316 287.98 369.886 286.127C369.263 283.439 368.973 281.397 369.017 280Z" fill="url(#paint20_linear)"/>
<path fill-rule="evenodd" clip-rule="evenodd" d="M367.082 281.047C364.906 282.767 363.287 285.652 362.227 289.702C360.637 295.778 360.465 301.38 361.026 304.639C362.113 310.956 367.749 313.354 373.53 310.414C377.087 308.604 378.569 304.72 378.49 300.504C378.409 296.138 369.973 291.191 368.479 287.547C367.483 285.118 367.017 282.952 367.082 281.047Z" fill="url(#paint21_linear)"/>
<path fill-rule="evenodd" clip-rule="evenodd" d="M372.6 292.437C375.21 295.785 375.779 298.115 374.307 299.428C372.098 301.397 366.698 302.682 363.338 300.3C361.099 298.712 360.251 295.304 360.796 290.078C359.871 292.009 359.09 293.965 358.451 295.946C357.812 297.927 357.625 300 357.891 302.166C358.692 303.785 360.639 304.867 363.731 305.411C368.371 306.227 372.761 305.824 375.708 304.339C377.672 303.348 378.601 302.363 378.495 301.382C378.566 299.933 378.119 298.553 377.154 297.244C376.19 295.934 374.672 294.332 372.6 292.437Z" fill="url(#paint22_linear)"/>
<path fill-rule="evenodd" clip-rule="evenodd" d="M362.4 289.094C362.378 291.512 362.999 293.81 364.264 295.989C366.162 299.257 368.377 302.487 371.692 305.164C373.901 306.948 375.667 307.525 376.989 306.893C375.903 308.836 374.749 309.788 373.526 309.749C371.692 309.691 369.455 308.889 365.871 304.582C363.482 301.711 361.848 298.996 360.968 296.435C361.107 295.419 361.255 294.407 361.412 293.4C361.568 292.392 361.897 290.957 362.4 289.094Z" fill="url(#paint23_linear)"/>
<path fill-rule="evenodd" clip-rule="evenodd" d="M368.006 292.412C368.208 294.382 368.975 297.532 368.006 299.629C367.037 301.727 362.56 305.516 363.796 308.854C365.032 312.192 368.043 311.443 369.932 309.904C371.82 308.366 372.832 305.865 373.056 304.106C373.28 302.347 372.519 298.962 372.272 296.018C372.107 294.055 372.219 292.372 372.608 290.969L372.029 290.241L368.622 289.232C368.076 290.039 367.87 291.099 368.006 292.412Z" fill="url(#paint24_linear)"/>
<path fill-rule="evenodd" clip-rule="evenodd" d="M369.222 282.657C368.119 283.123 367.074 284.047 366.088 285.427C364.608 287.498 363.854 288.739 364.412 292.844C364.784 295.58 365.05 298.098 365.211 300.396L369.982 286.533C369.807 285.826 369.661 285.188 369.544 284.619C369.428 284.049 369.32 283.395 369.222 282.657Z" fill="url(#paint25_linear)"/>
<path fill-rule="evenodd" clip-rule="evenodd" d="M369.973 286.505C368.762 287.212 367.823 288.66 367.157 290.85C366.491 293.04 365.882 296.102 365.33 300.035C366.066 297.533 366.555 295.721 366.796 294.599C367.157 292.916 367.281 290.536 368.239 288.92C368.879 287.842 369.456 287.037 369.973 286.505Z" fill="#330A4C" fill-opacity="0.316321"/>
<path fill-rule="evenodd" clip-rule="evenodd" d="M364.364 309.969C366.358 310.254 367.4 310.507 367.491 310.729C367.628 311.061 367.239 311.365 366.133 311.161C365.395 311.024 364.806 310.627 364.364 309.969Z" fill="white"/>
<path fill-rule="evenodd" clip-rule="evenodd" d="M365.366 282.657C364.269 283.967 363.319 285.356 362.516 286.823C361.712 288.291 361.138 289.385 360.793 290.107C360.686 290.646 360.634 291.441 360.636 292.491C360.639 293.542 360.73 294.71 360.909 295.996C361.066 293.478 361.546 291.034 362.35 288.664C363.154 286.294 364.159 284.291 365.366 282.657Z" fill="#EDEDED" fill-opacity="0.603261"/>
</g>
</g>
<defs>
<filter id="filter0_d" x="44" y="264" width="360" height="73.0692" filterUnits="userSpaceOnUse" color-interpolation-filters="sRGB">
<feFlood flood-opacity="0" result="BackgroundImageFix"/>
<feColorMatrix in="SourceAlpha" type="matrix" values="0 0 0 0 0 0 0 0 0 0 0 0 0 0 0 0 0 0 127 0"/>
<feMorphology radius="2" operator="dilate" in="SourceAlpha" result="effect1_dropShadow"/>
<feOffset dy="5"/>
<feGaussianBlur stdDeviation="1"/>
<feColorMatrix type="matrix" values="0 0 0 0 0.393437 0 0 0 0 0.265139 0 0 0 0 0.766667 0 0 0 0.2 0"/>
<feBlend mode="normal" in2="BackgroundImageFix" result="effect1_dropShadow"/>
<feBlend mode="normal" in="SourceGraphic" in2="effect1_dropShadow" result="shape"/>
</filter>
<filter id="filter1_d" x="24" y="244" width="112" height="112" filterUnits="userSpaceOnUse" color-interpolation-filters="sRGB">
<feFlood flood-opacity="0" result="BackgroundImageFix"/>
<feColorMatrix in="SourceAlpha" type="matrix" values="0 0 0 0 0 0 0 0 0 0 0 0 0 0 0 0 0 0 127 0"/>
<feOffset dy="4"/>
<feGaussianBlur stdDeviation="12"/>
<feColorMatrix type="matrix" values="0 0 0 0 1 0 0 0 0 1 0 0 0 0 1 0 0 0 1 0"/>
<feBlend mode="normal" in2="BackgroundImageFix" result="effect1_dropShadow"/>
<feBlend mode="normal" in="SourceGraphic" in2="effect1_dropShadow" result="shape"/>
</filter>
<linearGradient id="paint0_linear" x1="224" y1="242" x2="224" y2="282" gradientUnits="userSpaceOnUse">
<stop stop-color="#FAFAFF" stop-opacity="0"/>
<stop offset="1" stop-color="#FAFAFF"/>
</linearGradient>
<linearGradient id="paint1_linear" x1="208" y1="280" x2="225.633" y2="295.192" gradientUnits="userSpaceOnUse">
<stop stop-color="#5A9FD4"/>
<stop offset="1" stop-color="#306998"/>
</linearGradient>
<linearGradient id="paint2_linear" x1="228.131" y1="307.774" x2="221.838" y2="298.859" gradientUnits="userSpaceOnUse">
<stop stop-color="#FFD43B"/>
<stop offset="1" stop-color="#FFE873"/>
</linearGradient>
<linearGradient id="paint3_linear" x1="308.114" y1="314.909" x2="301.334" y2="302.972" gradientUnits="userSpaceOnUse">
<stop stop-color="#F68F71"/>
<stop offset="0.41" stop-color="#DC5242"/>
<stop offset="0.99" stop-color="#A72C32"/>
<stop offset="1" stop-color="#A72C32"/>
</linearGradient>
<linearGradient id="paint4_linear" x1="311.477" y1="304.871" x2="302.763" y2="299.038" gradientUnits="userSpaceOnUse">
<stop stop-color="#9B3F34"/>
<stop offset="0.99" stop-color="#A23E36"/>
<stop offset="1" stop-color="#A23E36"/>
</linearGradient>
<linearGradient id="paint5_linear" x1="3875.44" y1="911.993" x2="3820.91" y2="599.333" gradientUnits="userSpaceOnUse">
<stop stop-color="#9B3F34"/>
<stop offset="0.99" stop-color="#A23E36"/>
<stop offset="1" stop-color="#A23E36"/>
</linearGradient>
<linearGradient id="paint6_linear" x1="286.251" y1="300.632" x2="287.607" y2="309.421" gradientUnits="userSpaceOnUse">
<stop stop-color="white"/>
<stop offset="0.23" stop-color="#E28B6F"/>
<stop offset="0.46" stop-color="#DA6144"/>
<stop offset="0.99" stop-color="#A60003"/>
<stop offset="1" stop-color="#A60003"/>
</linearGradient>
<linearGradient id="paint7_linear" x1="295.526" y1="292.424" x2="296.026" y2="301.395" gradientUnits="userSpaceOnUse">
<stop stop-color="white"/>
<stop offset="0.23" stop-color="#E08A6D"/>
<stop offset="0.56" stop-color="#C14435"/>
<stop offset="0.99" stop-color="#B13430"/>
<stop offset="1" stop-color="#B13430"/>
</linearGradient>
<linearGradient id="paint8_linear" x1="303.758" y1="284.133" x2="305.255" y2="290.561" gradientUnits="userSpaceOnUse">
<stop stop-color="white"/>
<stop offset="0.18" stop-color="#DF8063"/>
<stop offset="0.4" stop-color="#C94D37"/>
<stop offset="0.99" stop-color="#B13430"/>
<stop offset="1" stop-color="#B13430"/>
</linearGradient>
<linearGradient id="paint9_linear" x1="299.217" y1="281.869" x2="305.634" y2="278.668" gradientUnits="userSpaceOnUse">
<stop stop-color="white"/>
<stop offset="0.54" stop-color="#C94838"/>
<stop offset="0.99" stop-color="#C12D2F"/>
<stop offset="1" stop-color="#C12D2F"/>
</linearGradient>
<linearGradient id="paint10_linear" x1="280.63" y1="298.392" x2="281.161" y2="303.689" gradientUnits="userSpaceOnUse">
<stop stop-color="white"/>
<stop offset="0.31" stop-color="#DA6548"/>
<stop offset="0.99" stop-color="#C14433"/>
<stop offset="1" stop-color="#C14433"/>
</linearGradient>
<linearGradient id="paint11_linear" x1="277.002" y1="305.122" x2="301.876" y2="279.614" gradientUnits="userSpaceOnUse">
<stop stop-color="#BD0012"/>
<stop offset="0.07" stop-color="white"/>
<stop offset="0.17" stop-color="white"/>
<stop offset="0.27" stop-color="#C95841"/>
<stop offset="0.33" stop-color="#983734"/>
<stop offset="0.46" stop-color="#AE4231"/>
<stop offset="0.72" stop-color="#B93E2F"/>
<stop offset="0.99" stop-color="#DE4E2B"/>
<stop offset="1" stop-color="#DE4E2B"/>
</linearGradient>
<linearGradient id="paint12_linear" x1="296.003" y1="307.7" x2="288.529" y2="305.862" gradientUnits="userSpaceOnUse">
<stop stop-color="#9F3633"/>
<stop offset="0.54" stop-color="#A73532"/>
<stop offset="0.99" stop-color="#B13439"/>
<stop offset="1" stop-color="#B13439"/>
</linearGradient>
<linearGradient id="paint13_linear" x1="308.834" y1="298.708" x2="302.18" y2="292.761" gradientUnits="userSpaceOnUse">
<stop stop-color="#923C36"/>
<stop offset="0.99" stop-color="#AA3531"/>
<stop offset="1" stop-color="#AA3531"/>
</linearGradient>
<linearGradient id="paint14_linear" x1="311.272" y1="287.764" x2="307.956" y2="284.228" gradientUnits="userSpaceOnUse">
<stop stop-color="#8D3E36"/>
<stop offset="0.99" stop-color="#AA3E37"/>
<stop offset="1" stop-color="#AA3E37"/>
</linearGradient>
<radialGradient id="paint15_radial" cx="0" cy="0" r="1" gradientUnits="userSpaceOnUse" gradientTransform="translate(303.23 292.858) scale(8.13365 8.15629)">
<stop stop-color="#B13430"/>
<stop offset="0.99" stop-color="#923834"/>
<stop offset="1" stop-color="#923834"/>
</radialGradient>
<radialGradient id="paint16_radial" cx="0" cy="0" r="1" gradientUnits="userSpaceOnUse" gradientTransform="translate(291.966 303.606) scale(10.8131 10.8432)">
<stop stop-color="#AE3531"/>
<stop offset="0.99" stop-color="#953A36"/>
<stop offset="1" stop-color="#953A36"/>
</radialGradient>
<linearGradient id="paint17_linear" x1="284.307" y1="311.961" x2="281.6" y2="302.798" gradientUnits="userSpaceOnUse">
<stop stop-color="#994939"/>
<stop offset="0.43" stop-color="#AA3A36"/>
<stop offset="0.99" stop-color="#B83936"/>
<stop offset="1" stop-color="#B83936"/>
</linearGradient>
<linearGradient id="paint18_linear" x1="304.976" y1="281.587" x2="311.022" y2="284.248" gradientUnits="userSpaceOnUse">
<stop stop-color="#B9392F"/>
<stop offset="0.44" stop-color="#A23A36"/>
<stop offset="0.99" stop-color="#8D463A"/>
<stop offset="1" stop-color="#8D463A"/>
</linearGradient>
<linearGradient id="paint19_linear" x1="368.569" y1="282.439" x2="367.459" y2="311.976" gradientUnits="userSpaceOnUse">
<stop stop-color="#D9D8DC"/>
<stop offset="1" stop-color="white" stop-opacity="0.385275"/>
</linearGradient>
<linearGradient id="paint20_linear" x1="369.071" y1="282.432" x2="357.469" y2="307.859" gradientUnits="userSpaceOnUse">
<stop stop-color="#8D67AF" stop-opacity="0.671932"/>
<stop offset="1" stop-color="#9F8DAF"/>
</linearGradient>
<linearGradient id="paint21_linear" x1="370.366" y1="290.67" x2="370.366" y2="311.117" gradientUnits="userSpaceOnUse">
<stop stop-color="#26053D" stop-opacity="0.761634"/>
<stop offset="1" stop-color="#B7B4B4" stop-opacity="0.277683"/>
</linearGradient>
<linearGradient id="paint22_linear" x1="359.874" y1="292.053" x2="365.08" y2="305.842" gradientUnits="userSpaceOnUse">
<stop stop-color="#91739F" stop-opacity="0.45955"/>
<stop offset="1" stop-color="#32054F" stop-opacity="0.539912"/>
</linearGradient>
<linearGradient id="paint23_linear" x1="373.788" y1="309.009" x2="359.474" y2="297.148" gradientUnits="userSpaceOnUse">
<stop stop-color="#463D49" stop-opacity="0.331182"/>
<stop offset="1" stop-color="#340A50" stop-opacity="0.821388"/>
</linearGradient>
<linearGradient id="paint24_linear" x1="370.846" y1="290.863" x2="360.75" y2="306.221" gradientUnits="userSpaceOnUse">
<stop stop-color="#715383" stop-opacity="0.145239"/>
<stop offset="1" stop-color="#F4F4F4" stop-opacity="0.233639"/>
</linearGradient>
<linearGradient id="paint25_linear" x1="371.811" y1="295.547" x2="364.662" y2="295.111" gradientUnits="userSpaceOnUse">
<stop stop-color="#A5A1A8" stop-opacity="0.356091"/>
<stop offset="1" stop-color="#370C50" stop-opacity="0.581975"/>
</linearGradient>
<clipPath id="clip0">
<rect width="32" height="32" fill="white" transform="translate(280 280)"/>
</clipPath>
<clipPath id="clip1">
<rect width="32" height="32" fill="white" transform="translate(352 280)"/>
</clipPath>
</defs>
</svg>

