<svg
  id="graphic-laptop-man-1"
  viewBox="0 0 140 140"
  fill="none"
  xmlns="http://www.w3.org/2000/svg"
>
  <path
    d="M70 128.1C79.8237 128.099 89.4738 125.511 97.9793 120.595C106.485 115.68 113.546 108.611 118.451 100.1H21.5488C26.4545 108.611 33.5153 115.68 42.0208 120.595C50.5263 125.511 60.1764 128.099 70 128.1Z"
    fill="#F2DFC2"
  />
  <path
    d="M18.9897 95.2C19.7541 96.88 20.6277 98.5082 21.5489 100.1H118.451C119.373 98.5082 120.246 96.88 121.011 95.2H18.9897Z"
    fill="#F2DFC2"
  />
  <path
    d="M126 72.1C126.001 63.7422 124.131 55.4902 120.528 47.9491C116.925 40.408 111.679 33.7691 105.176 28.5192C98.6726 23.2694 91.0768 19.5418 82.9454 17.6097C74.814 15.6777 66.3532 15.5902 58.1836 17.3538C50.014 19.1173 42.3428 22.6871 35.7324 27.8014C29.1221 32.9157 23.7404 39.4448 19.9819 46.9098C16.2234 54.3748 14.1835 62.5864 14.0118 70.9424C13.8401 79.2984 15.541 87.5869 18.9896 95.2H121.01C124.304 87.9448 126.006 80.068 126 72.1Z"
    fill="#C7F0FF"
  />
  <path
    d="M15.3999 95.2028H124.6"
    stroke="#45413C"
    stroke-width="1.4"
    stroke-linecap="round"
    stroke-linejoin="round"
  />
  <path
    d="M9.1001 95.2028H12.6001"
    stroke="#45413C"
    stroke-width="1.4"
    stroke-linecap="round"
    stroke-linejoin="round"
  />
  <path
    d="M127.4 95.2028H130.9"
    stroke="#45413C"
    stroke-width="1.4"
    stroke-linecap="round"
    stroke-linejoin="round"
  />
  <path
    opacity="0.15"
    d="M45.4999 105C45.4999 106.159 41.1739 107.1 35.1063 107.1C29.0387 107.1 25.8999 106.162 25.8999 105C25.8999 103.838 29.0373 102.9 35.1063 102.9C41.1753 102.9 45.4999 103.842 45.4999 105Z"
    fill="#45413C"
  />
  <path
    d="M69.3533 59.2747C63.0083 59.2747 56.9232 61.7951 52.4365 66.2815C47.9498 70.7679 45.429 76.8529 45.4287 83.1979V91.1583C45.4129 91.5014 45.3088 91.8347 45.1264 92.1258C44.944 92.4169 44.6895 92.656 44.3876 92.8199C44.0857 92.9838 43.7466 93.067 43.4031 93.0614C43.0597 93.0558 42.7234 92.9616 42.4271 92.7879L39.3471 90.9371C38.8243 90.623 38.2448 90.4151 37.6416 90.325C37.0385 90.235 36.4235 90.2646 35.8318 90.4122C34.6368 90.7103 33.6092 91.471 32.975 92.5268C32.6609 93.0495 32.453 93.6291 32.3629 94.2322C32.2729 94.8354 32.3025 95.4503 32.4501 96.042C32.7482 97.237 33.5089 98.2647 34.5647 98.8989C37.7063 100.786 39.7209 102.347 43.4113 102.347C45.7286 102.321 47.9815 101.58 49.8621 100.226C51.7427 98.8717 53.1593 96.9698 53.9183 94.7801H93.2779V83.1979C93.2775 76.8529 90.7567 70.7679 86.27 66.2815C81.7833 61.7951 75.6982 59.2747 69.3533 59.2747Z"
    fill="#FF6242"
  />
  <path
    d="M69.3533 59.2747C63.0084 59.2747 56.9232 61.7951 52.4366 66.2815C47.9499 70.7679 45.4291 76.8529 45.4287 83.1979V89.3719C45.4287 83.0267 47.9493 76.9413 52.4361 72.4546C56.9228 67.9679 63.0081 65.4473 69.3533 65.4473C75.6985 65.4473 81.7838 67.9679 86.2706 72.4546C90.7573 76.9413 93.2779 83.0267 93.2779 89.3719V83.1979C93.2775 76.8529 90.7568 70.7679 86.2701 66.2815C81.7834 61.7951 75.6983 59.2747 69.3533 59.2747Z"
    fill="#FF866E"
  />
  <path
    d="M69.3533 59.2747C63.0083 59.2747 56.9232 61.7951 52.4365 66.2815C47.9498 70.7679 45.429 76.8529 45.4287 83.1979V91.1583C45.4129 91.5014 45.3088 91.8347 45.1264 92.1258C44.944 92.4169 44.6895 92.656 44.3876 92.8199C44.0857 92.9838 43.7466 93.067 43.4031 93.0614C43.0597 93.0558 42.7234 92.9616 42.4271 92.7879L39.3471 90.9371C38.8243 90.623 38.2448 90.4151 37.6416 90.325C37.0385 90.235 36.4235 90.2646 35.8318 90.4122C34.6368 90.7103 33.6092 91.471 32.975 92.5268C32.6609 93.0495 32.453 93.6291 32.3629 94.2322C32.2729 94.8354 32.3025 95.4503 32.4501 96.042C32.7482 97.237 33.5089 98.2647 34.5647 98.8989C37.7063 100.786 39.7209 102.347 43.4113 102.347C45.7286 102.321 47.9815 101.58 49.8621 100.226C51.7427 98.8717 53.1593 96.9698 53.9183 94.7801H93.2779V83.1979C93.2775 76.8529 90.7567 70.7679 86.27 66.2815C81.7833 61.7951 75.6982 59.2747 69.3533 59.2747Z"
    stroke="#45413C"
    stroke-width="1.4"
    stroke-linecap="round"
    stroke-linejoin="round"
  />
  <path
    d="M71.2827 56.1876H67.4243C66.5548 56.1749 65.6915 56.3352 64.8845 56.6591C64.0775 56.9831 63.3429 57.4642 62.7236 58.0746C62.1042 58.685 61.6124 59.4124 61.2767 60.2146C60.9409 61.0168 60.7681 61.8777 60.7681 62.7473C60.7681 63.6169 60.9409 64.4778 61.2767 65.28C61.6124 66.0821 62.1042 66.8096 62.7236 67.42C63.3429 68.0303 64.0775 68.5115 64.8845 68.8355C65.6915 69.1594 66.5548 69.3197 67.4243 69.307H71.2827C72.1522 69.3197 73.0155 69.1594 73.8225 68.8355C74.6295 68.5115 75.3641 68.0303 75.9834 67.42C76.6028 66.8096 77.0946 66.0821 77.4303 65.28C77.7661 64.4778 77.9389 63.6169 77.9389 62.7473C77.9389 61.8777 77.7661 61.0168 77.4303 60.2146C77.0946 59.4124 76.6028 58.685 75.9834 58.0746C75.3641 57.4642 74.6295 56.9831 73.8225 56.6591C73.0155 56.3352 72.1522 56.1749 71.2827 56.1876Z"
    fill="#FFAA54"
    stroke="#45413C"
    stroke-width="1.4"
    stroke-linejoin="round"
  />
  <path
    d="M53.9185 94.7745V80.8837"
    stroke="#45413C"
    stroke-width="1.4"
    stroke-linecap="round"
    stroke-linejoin="round"
  />
  <path
    d="M84.7881 94.7745V80.8837"
    stroke="#45413C"
    stroke-width="1.4"
    stroke-linecap="round"
    stroke-linejoin="round"
  />
  <path
    d="M63.9507 53.8721V62.5059C63.9507 62.5059 63.8905 66.1739 69.3533 66.2201C74.8133 66.1739 74.7559 62.5059 74.7559 62.5059V53.8721H63.9507Z"
    fill="#D18660"
  />
  <path
    d="M63.9507 58.6601C63.9507 58.8743 64.0613 62.3183 69.3533 62.3631C74.6453 62.3183 74.7545 58.8743 74.7559 58.6601V53.8721H63.9507V58.6601Z"
    fill="#BD704A"
  />
  <path
    d="M63.9507 53.8721V62.5059C63.9507 62.5059 63.8905 66.1739 69.3533 66.2201C74.8133 66.1739 74.7559 62.5059 74.7559 62.5059V53.8721H63.9507Z"
    stroke="#45413C"
    stroke-width="1.4"
    stroke-linecap="round"
    stroke-linejoin="round"
  />
  <path
    d="M37.163 90.1447H35.175C34.5896 90.1511 34.0112 90.2727 33.4728 90.5026C32.9344 90.7326 32.4466 91.0663 32.0373 91.4848C31.6279 91.9033 31.3049 92.3983 31.0869 92.9416C30.8688 93.4849 30.7599 94.0659 30.7664 94.6513V98.9451C30.771 99.3459 30.9052 99.7345 31.149 100.053C31.3928 100.371 31.733 100.602 32.1188 100.71C34.7648 101.472 37.5718 101.472 40.2178 100.71C40.6039 100.602 40.9445 100.372 41.1884 100.053C41.4323 99.735 41.5663 99.3461 41.5702 98.9451V94.6513C41.5768 94.0659 41.4681 93.485 41.2502 92.9417C41.0323 92.3984 40.7095 91.9034 40.3002 91.4849C39.891 91.0664 39.4032 90.7326 38.8649 90.5027C38.3266 90.2727 37.7483 90.1511 37.163 90.1447Z"
    fill="#D18660"
    stroke="#45413C"
    stroke-width="1.4"
    stroke-linecap="round"
    stroke-linejoin="round"
  />
  <path
    d="M41.8306 104.035H30.7706C30.5478 104.036 30.3276 103.988 30.1251 103.896C29.9225 103.803 29.7425 103.667 29.5975 103.498C29.4524 103.329 29.3457 103.131 29.2848 102.917C29.2239 102.702 29.2102 102.478 29.2446 102.257L29.6352 99.7235C29.88 98.1306 30.6871 96.678 31.9102 95.6287C33.1334 94.5794 34.6918 94.0027 36.3034 94.0031C37.9149 94.003 39.4731 94.5798 40.6962 95.6291C41.9193 96.6783 42.7265 98.1307 42.9716 99.7235L43.3608 102.257C43.3953 102.478 43.3814 102.703 43.3203 102.918C43.2591 103.132 43.1521 103.331 43.0065 103.5C42.861 103.669 42.6805 103.805 42.4774 103.897C42.2744 103.989 42.0537 104.037 41.8306 104.035Z"
    fill="white"
  />
  <path
    d="M36.2992 97.09C34.6877 97.0897 33.1293 97.6663 31.9061 98.7156C30.6829 99.7649 29.8759 101.218 29.631 102.81L29.54 103.397C29.6792 103.593 29.863 103.753 30.0762 103.864C30.2895 103.975 30.526 104.034 30.7664 104.035H41.8264C42.0668 104.034 42.3034 103.975 42.5166 103.864C42.7299 103.753 42.9137 103.593 43.0528 103.397L42.9632 102.81C42.7182 101.218 41.9117 99.7665 40.6895 98.7174C39.4673 97.6682 37.91 97.0909 36.2992 97.09Z"
    fill="#E8F4FA"
  />
  <path
    d="M41.8306 104.035H30.7706C30.5478 104.036 30.3276 103.988 30.1251 103.896C29.9225 103.803 29.7425 103.667 29.5975 103.498C29.4524 103.329 29.3457 103.131 29.2848 102.917C29.2239 102.702 29.2102 102.478 29.2446 102.257L29.6352 99.7235C29.88 98.1306 30.6871 96.678 31.9102 95.6287C33.1334 94.5794 34.6918 94.0027 36.3034 94.0031V94.0031C37.9149 94.003 39.4731 94.5798 40.6962 95.6291C41.9193 96.6783 42.7265 98.1307 42.9716 99.7235L43.3608 102.257C43.3953 102.478 43.3814 102.703 43.3203 102.918C43.2591 103.132 43.1521 103.331 43.0065 103.5C42.861 103.669 42.6805 103.805 42.4774 103.897C42.2744 103.989 42.0537 104.037 41.8306 104.035V104.035Z"
    stroke="#45413C"
    stroke-width="1.4"
    stroke-linecap="round"
    stroke-linejoin="round"
  />
  <path
    d="M35.3965 97.7494C35.3965 97.954 35.4778 98.1502 35.6224 98.2949C35.7671 98.4396 35.9633 98.5208 36.1679 98.5208C36.3725 98.5208 36.5687 98.4396 36.7133 98.2949C36.858 98.1502 36.9393 97.954 36.9393 97.7494C36.9393 97.5448 36.858 97.3486 36.7133 97.204C36.5687 97.0593 36.3725 96.978 36.1679 96.978C35.9633 96.978 35.7671 97.0593 35.6224 97.204C35.4778 97.3486 35.3965 97.5448 35.3965 97.7494Z"
    fill="#45413C"
    stroke="#45413C"
    stroke-width="1.4"
    stroke-linecap="round"
    stroke-linejoin="round"
  />
  <path
    d="M84.7881 37.66V33.8058C84.7881 29.7122 83.1619 25.7863 80.2672 22.8917C77.3726 19.997 73.4467 18.3708 69.3531 18.3708C65.2594 18.3708 61.3335 19.997 58.4389 22.8917C55.5442 25.7863 53.9181 29.7122 53.9181 33.8058V37.66C53.0993 37.66 52.3141 37.9853 51.7352 38.5642C51.1563 39.1431 50.8311 39.9283 50.8311 40.747C50.8311 41.5658 51.1563 42.351 51.7352 42.9299C52.3141 43.5088 53.0993 43.834 53.9181 43.834C53.9825 43.834 54.0441 43.8186 54.1071 43.8144C54.6531 47.4674 56.4926 50.8028 59.2907 53.2137C62.0888 55.6247 65.6595 56.9508 69.3531 56.9508C73.0466 56.9508 76.6173 55.6247 79.4154 53.2137C82.2135 50.8028 84.053 47.4674 84.5991 43.8144C84.6635 43.8144 84.7237 43.834 84.7881 43.834C85.6068 43.834 86.392 43.5088 86.9709 42.9299C87.5498 42.351 87.8751 41.5658 87.8751 40.747C87.8751 39.9283 87.5498 39.1431 86.9709 38.5642C86.392 37.9853 85.6068 37.66 84.7881 37.66Z"
    fill="#D18660"
    stroke="#45413C"
    stroke-width="1.4"
    stroke-linecap="round"
    stroke-linejoin="round"
  />
  <path
    d="M77.8401 39.2085C77.6475 38.7518 77.3244 38.3621 76.9115 38.088C76.4985 37.814 76.0138 37.6678 75.5182 37.6678C75.0226 37.6678 74.5379 37.814 74.1249 38.088C73.7119 38.3621 73.3889 38.7518 73.1963 39.2085"
    stroke="#45413C"
    stroke-width="1.4"
    stroke-linecap="round"
    stroke-linejoin="round"
  />
  <path
    d="M65.5076 39.2085C65.3149 38.7518 64.9919 38.3621 64.5789 38.088C64.1659 37.814 63.6813 37.6678 63.1857 37.6678C62.69 37.6678 62.2054 37.814 61.7924 38.088C61.3794 38.3621 61.0564 38.7518 60.8638 39.2085"
    stroke="#45413C"
    stroke-width="1.4"
    stroke-linecap="round"
    stroke-linejoin="round"
  />
  <path
    d="M58.5493 44.2246C58.5493 44.7363 58.7526 45.227 59.1144 45.5888C59.4762 45.9506 59.9669 46.1538 60.4785 46.1538C60.9902 46.1538 61.4809 45.9506 61.8427 45.5888C62.2045 45.227 62.4077 44.7363 62.4077 44.2246C62.4077 43.713 62.2045 43.2223 61.8427 42.8605C61.4809 42.4987 60.9902 42.2954 60.4785 42.2954C59.9669 42.2954 59.4762 42.4987 59.1144 42.8605C58.7526 43.2223 58.5493 43.713 58.5493 44.2246Z"
    fill="#BD704A"
  />
  <path
    d="M76.3003 44.2246C76.3003 44.7363 76.5035 45.227 76.8653 45.5888C77.2271 45.9506 77.7178 46.1538 78.2295 46.1538C78.7411 46.1538 79.2318 45.9506 79.5936 45.5888C79.9554 45.227 80.1587 44.7363 80.1587 44.2246C80.1587 43.713 79.9554 43.2223 79.5936 42.8605C79.2318 42.4987 78.7411 42.2954 78.2295 42.2954C77.7178 42.2954 77.2271 42.4987 76.8653 42.8605C76.5035 43.2223 76.3003 43.713 76.3003 44.2246Z"
    fill="#BD704A"
  />
  <path
    d="M53.9182 34.7928C52.5084 39.4534 50.8312 63.14 69.3532 63.14C87.8752 63.14 86.198 39.4534 84.7882 34.7928V33.8058C84.7882 19.915 73.4258 13.3098 67.676 11.8972C68.9066 14.595 67.571 18.3708 67.0376 18.3708C67.0376 18.3708 64.7976 15.7486 63.1862 15.7528C64.498 21.4424 53.9182 18.2728 53.9182 33.8058V34.7928ZM78.6142 49.2408C75.4754 49.7644 73.2116 46.1608 69.3532 46.1608C65.4948 46.1608 63.231 49.7714 60.0922 49.2408C57.1676 48.7536 56.2338 39.2084 56.7154 34.0396C58.3436 34.5814 61.019 32.263 61.019 32.263V28.56C63.7161 29.4977 66.5129 30.1193 69.3532 30.4122C72.1941 30.1194 74.9913 29.4978 77.6888 28.56V32.2644C77.6888 32.2644 80.36 34.58 81.991 34.0396C82.4726 39.2084 81.5388 48.7536 78.6142 49.2408Z"
    fill="#724F3D"
  />
  <path
    d="M63.9226 19.95C65.9064 20.1488 68.355 23.4668 68.355 23.4668C69.0102 23.534 71.1032 19.3326 69.9076 16.0566C75.266 18.0465 79.9584 21.5 83.4512 26.0246C82.0957 22.6091 79.965 19.5553 77.2274 17.1041C74.4897 14.6529 71.22 12.8714 67.676 11.9C68.9066 14.5978 67.571 18.3736 67.0376 18.3736C67.0376 18.3736 64.7976 15.7514 63.1862 15.7556C64.3272 20.7032 56.476 18.9546 54.4082 28.6258C58.6908 23.66 64.575 24.6316 63.9226 19.95Z"
    fill="#A86C4D"
  />
  <path
    d="M53.9182 34.7928C52.5084 39.4534 50.8312 63.14 69.3532 63.14C87.8752 63.14 86.198 39.4534 84.7882 34.7928V33.8058C84.7882 19.915 73.4258 13.3098 67.676 11.8972C68.9066 14.595 67.571 18.3708 67.0376 18.3708C67.0376 18.3708 64.7976 15.7486 63.1862 15.7528C64.498 21.4424 53.9182 18.2728 53.9182 33.8058V34.7928ZM78.6142 49.2408C75.4754 49.7644 73.2116 46.1608 69.3532 46.1608C65.4948 46.1608 63.231 49.7714 60.0922 49.2408C57.1676 48.7536 56.2338 39.2084 56.7154 34.0396C58.3436 34.5814 61.019 32.263 61.019 32.263V28.56C63.7161 29.4977 66.5129 30.1193 69.3532 30.4122C72.1941 30.1194 74.9913 29.4978 77.6888 28.56V32.2644C77.6888 32.2644 80.36 34.58 81.991 34.0396C82.4726 39.2084 81.5388 48.7536 78.6142 49.2408Z"
    stroke="#45413C"
    stroke-width="1.4"
    stroke-linecap="round"
    stroke-linejoin="round"
  />
  <path
    d="M69.3535 54.7288C67.0379 54.7288 65.4951 56.2688 64.7237 54.7288C63.4791 52.241 66.2637 49.3276 69.3535 49.3276C72.4433 49.3276 75.2335 52.241 73.9847 54.7288C73.2119 56.28 71.6691 54.7288 69.3535 54.7288Z"
    fill="#D18660"
    stroke="#45413C"
    stroke-width="1.4"
    stroke-linecap="round"
    stroke-linejoin="round"
  />
  <path
    opacity="0.15"
    d="M114.108 115.347C114.108 116.824 101.128 118.021 82.9177 118.021C64.7079 118.021 55.2915 116.824 55.2915 115.347C55.2915 113.87 64.7065 112.675 82.9177 112.675C101.129 112.675 114.108 113.872 114.108 115.347Z"
    fill="#45413C"
  />
  <path
    d="M107.744 113.565H61.6311C60.8884 113.565 60.1763 113.27 59.6512 112.745C59.1261 112.22 58.8311 111.508 58.8311 110.765V109.11H110.544V110.765C110.544 111.508 110.249 112.22 109.724 112.745C109.199 113.27 108.487 113.565 107.744 113.565Z"
    fill="#8CA4B8"
    stroke="#45413C"
    stroke-width="1.4"
    stroke-linejoin="round"
  />
  <path
    d="M110.544 109.11H58.8309L56.2087 85.477C56.1472 84.976 56.1928 84.4676 56.3426 83.9856C56.4924 83.5036 56.743 83.0589 57.0776 82.681C57.4122 82.3031 57.8233 82.0006 58.2837 81.7935C58.744 81.5865 59.2431 81.4796 59.7479 81.48H109.652C110.157 81.4797 110.655 81.5864 111.115 81.7932C111.575 82 111.986 82.3021 112.321 82.6796C112.655 83.057 112.906 83.5012 113.056 83.9827C113.206 84.4642 113.252 84.9721 113.191 85.4728L110.544 109.11Z"
    fill="#ADC4D9"
  />
  <path
    d="M56.5936 88.9434C56.7062 88.6153 56.8701 88.3072 57.0794 88.0306C57.4141 87.6533 57.8249 87.3512 58.2849 87.1444C58.7449 86.9376 59.2435 86.8307 59.7478 86.8308H109.652C110.157 86.8307 110.655 86.9376 111.115 87.1444C111.575 87.3512 111.986 87.6533 112.321 88.0306C112.528 88.306 112.691 88.6121 112.804 88.9378L113.191 85.477C113.253 84.976 113.207 84.4676 113.057 83.9856C112.908 83.5036 112.657 83.0589 112.323 82.681C111.988 82.3031 111.577 82.0006 111.116 81.7935C110.656 81.5865 110.157 81.4796 109.652 81.48H59.7478C59.2435 81.4797 58.7448 81.5864 58.2848 81.7932C57.8247 82 57.4139 82.3021 57.0793 82.6796C56.7447 83.057 56.4941 83.5012 56.344 83.9827C56.1939 84.4642 56.1478 84.9721 56.2086 85.4728L56.5936 88.9434Z"
    fill="#C0DCEB"
  />
  <path
    d="M110.544 109.11H58.8309L56.2087 85.477C56.1472 84.976 56.1928 84.4676 56.3426 83.9856C56.4924 83.5036 56.743 83.0589 57.0776 82.681C57.4122 82.3031 57.8233 82.0006 58.2837 81.7935C58.744 81.5865 59.2431 81.4796 59.7479 81.48H109.652C110.157 81.4797 110.655 81.5864 111.115 81.7932C111.575 82 111.986 82.3021 112.321 82.6796C112.655 83.057 112.906 83.5012 113.056 83.9827C113.206 84.4642 113.252 84.9721 113.191 85.4728L110.544 109.11Z"
    stroke="#45413C"
    stroke-width="1.4"
    stroke-linejoin="round"
  />
  <path
    d="M87.5645 95.4954C87.5695 95.031 87.6924 94.5754 87.9216 94.1713C88.1508 93.7673 88.4788 93.4281 88.8749 93.1854C88.6236 92.8274 88.2929 92.5323 87.9087 92.3232C87.5245 92.1141 87.0972 91.9967 86.6601 91.98C85.7165 91.8848 84.8177 92.54 84.3389 92.54C83.8601 92.54 83.1209 91.9982 82.3383 92.0122C81.8243 92.0267 81.3228 92.1745 80.883 92.441C80.4432 92.7075 80.0802 93.0837 79.8295 93.5326C78.7599 95.389 79.5495 98.1372 80.5981 99.6436C81.1077 100.379 81.7181 101.207 82.5119 101.177C83.2805 101.146 83.5703 100.68 84.4985 100.68C85.4267 100.68 85.6871 101.177 86.5005 101.161C87.3139 101.146 87.8501 100.411 88.3555 99.6716C88.7172 99.1402 89.0001 98.5593 89.1955 97.9468C88.7136 97.7425 88.3023 97.4014 88.0124 96.9657C87.7225 96.53 87.5668 96.0188 87.5645 95.4954Z"
    fill="#F0F0F0"
    stroke="#45413C"
    stroke-width="1.4"
    stroke-linejoin="round"
  />
  <path
    d="M85.4883 88.8342L86.6013 87.7212"
    stroke="#45413C"
    stroke-width="1.4"
    stroke-linecap="round"
    stroke-linejoin="round"
  />
  <path
    d="M54.6727 122.685H43.3327C42.9031 122.685 42.4911 122.514 42.1873 122.21C41.8835 121.907 41.7129 121.495 41.7129 121.065V119.444H56.2925V121.065C56.2925 121.495 56.1218 121.907 55.8181 122.21C55.5143 122.514 55.1023 122.685 54.6727 122.685Z"
    fill="#E8F4FA"
    stroke="#45413C"
    stroke-width="1.4"
    stroke-linecap="round"
    stroke-linejoin="round"
  />
  <path
    d="M56.2927 119.444H41.7075L44.5789 110.828C44.6866 110.505 44.8933 110.224 45.1697 110.025C45.4462 109.826 45.7783 109.719 46.1189 109.719H51.8869C52.2276 109.719 52.5597 109.826 52.8361 110.025C53.1125 110.224 53.3193 110.505 53.4269 110.828L56.2927 119.444Z"
    fill="#00B8F0"
  />
  <path
    d="M51.884 109.719H46.116C45.7754 109.719 45.4433 109.826 45.1668 110.025C44.8904 110.224 44.6837 110.505 44.576 110.828L41.7046 119.444H42.6986L53.3834 110.736C53.263 110.436 53.056 110.18 52.7889 109.999C52.5218 109.818 52.2067 109.72 51.884 109.719Z"
    fill="#4ACFFF"
  />
  <path
    d="M56.2927 119.444H41.7075L44.5789 110.828C44.6866 110.505 44.8933 110.224 45.1697 110.025C45.4462 109.826 45.7783 109.719 46.1189 109.719H51.8869C52.2276 109.719 52.5597 109.826 52.8361 110.025C53.1125 110.224 53.3193 110.505 53.4269 110.828L56.2927 119.444Z"
    stroke="#45413C"
    stroke-width="1.4"
    stroke-linecap="round"
    stroke-linejoin="round"
  />
  <path
    d="M48.1895 111.952H49.8106"
    stroke="#45413C"
    stroke-width="1.4"
    stroke-linecap="round"
    stroke-linejoin="round"
  />
  <path
    d="M49.8105 119.444H53.0516V122.685H49.8105V119.444Z"
    fill="#BDBEC0"
    stroke="#45413C"
    stroke-width="1.4"
    stroke-linecap="round"
    stroke-linejoin="round"
  />
</svg>
