<svg width="96" height="96" viewBox="0 0 96 96" fill="none" xmlns="http://www.w3.org/2000/svg">
<path d="M9.6001 48.7431C9.6001 58.9274 13.6458 68.6946 20.8472 75.896C28.0486 83.0974 37.8158 87.1431 48.0001 87.1431C58.1844 87.1431 67.9516 83.0974 75.153 75.896C82.3544 68.6946 86.4001 58.9274 86.4001 48.7431C86.4001 38.5588 82.3544 28.7916 75.153 21.5902C67.9516 14.3888 58.1844 10.3431 48.0001 10.3431C37.8158 10.3431 28.0486 14.3888 20.8472 21.5902C13.6458 28.7916 9.6001 38.5588 9.6001 48.7431Z" fill="#C7F0FF" stroke="#C7F0FF" stroke-width="1.6"/>
<path opacity="0.15" d="M20.1658 72.8189C20.1658 73.3297 23.3474 73.8195 29.0108 74.1807C34.6741 74.5418 42.3553 74.7447 50.3645 74.7447C58.3737 74.7447 66.0549 74.5418 71.7182 74.1807C77.3816 73.8195 80.5632 73.3297 80.5632 72.8189C80.5632 72.3082 77.3816 71.8184 71.7182 71.4572C66.0549 71.0961 58.3737 70.8932 50.3645 70.8932C42.3553 70.8932 34.6741 71.0961 29.0108 71.4572C23.3474 71.8184 20.1658 72.3082 20.1658 72.8189Z" fill="#525252"/>
<path d="M47.8907 62.0602H21.7787C20.3656 62.0602 19.0104 61.4988 18.0112 60.4996C17.012 59.5004 16.4507 58.1452 16.4507 56.7322C16.4507 55.3191 17.012 53.9639 18.0112 52.9647C19.0104 51.9655 20.3656 51.4042 21.7787 51.4042H47.8907V62.0602Z" fill="#A6FBFF"/>
<path d="M47.8858 58.8922H21.7738C20.6383 58.8924 19.5326 58.529 18.6186 57.8553C17.7046 57.1815 17.0303 56.2329 16.6945 55.1482C16.4468 55.9458 16.3899 56.7904 16.5285 57.6139C16.6671 58.4375 16.9972 59.217 17.4923 59.8896C17.9874 60.5621 18.6336 61.109 19.3788 61.486C20.124 61.863 20.9473 62.0597 21.7825 62.0602H47.8945V58.4813" fill="#4AEFF7"/>
<path d="M47.8907 62.0602H21.7787C20.3656 62.0602 19.0104 61.4988 18.0112 60.4996C17.012 59.5004 16.4507 58.1452 16.4507 56.7322C16.4507 55.3191 17.012 53.9639 18.0112 52.9647C19.0104 51.9655 20.3656 51.4042 21.7787 51.4042H47.8907V62.0602Z" stroke="#45413C" stroke-width="1.6" stroke-linecap="round" stroke-linejoin="round"/>
<path d="M29.2869 62.0611H25.7867C24.3737 62.0611 23.0185 61.4998 22.0193 60.5006C21.0201 59.5014 20.4587 58.1462 20.4587 56.7331C20.4587 55.3201 21.0201 53.9649 22.0193 52.9657C23.0185 51.9665 24.3737 51.4052 25.7867 51.4052H29.2869C27.8738 51.4052 26.5186 51.9665 25.5194 52.9657C24.5202 53.9649 23.9589 55.3201 23.9589 56.7331C23.9589 58.1462 24.5202 59.5014 25.5194 60.5006C26.5186 61.4998 27.8738 62.0611 29.2869 62.0611Z" fill="#FFAA54" stroke="#45413C" stroke-width="1.6" stroke-linecap="round" stroke-linejoin="round"/>
<path d="M41.548 53.5987C40.7633 53.5987 40.0107 53.9105 39.4558 54.4653C38.901 55.0202 38.5892 55.7728 38.5892 56.5575C38.5892 57.3422 38.901 58.0947 39.4558 58.6496C40.0107 59.2045 40.7633 59.5162 41.548 59.5162H67.66C67.9739 59.5162 68.275 59.6409 68.497 59.8629C68.7189 60.0848 68.8437 60.3859 68.8437 60.6999C68.8437 61.0138 68.7189 61.3149 68.497 61.5368C68.275 61.7588 67.9739 61.8835 67.66 61.8835H41.548C40.1349 61.8835 38.7797 61.3222 37.7805 60.323C36.7813 59.3238 36.22 57.9686 36.22 56.5555C36.22 55.1425 36.7813 53.7873 37.7805 52.7881C38.7797 51.7889 40.1349 51.2275 41.548 51.2275H67.66C67.9739 51.2275 68.275 51.3522 68.497 51.5742C68.7189 51.7962 68.8437 52.0973 68.8437 52.4112C68.8437 52.7252 68.7189 53.0262 68.497 53.2482C68.275 53.4702 67.9739 53.5949 67.66 53.5949L41.548 53.5987Z" fill="#4AEFF7"/>
<path d="M36.2219 56.5575C36.2219 55.145 36.7831 53.7902 37.7819 52.7914C38.7807 51.7926 40.1354 51.2314 41.548 51.2314H67.66C67.9739 51.2314 68.275 51.3562 68.497 51.5781C68.719 51.8001 68.8437 52.1012 68.8437 52.4151C68.8437 52.7291 68.719 53.0301 68.497 53.2521C68.275 53.4741 67.9739 53.5988 67.66 53.5988H41.548C40.7638 53.5996 40.012 53.9116 39.4577 54.4664C38.9035 55.0212 38.5922 55.7733 38.5922 56.5575H36.2219Z" fill="#A6FBFF"/>
<path d="M41.548 53.5987C40.7633 53.5987 40.0107 53.9105 39.4558 54.4653C38.901 55.0202 38.5892 55.7728 38.5892 56.5575C38.5892 57.3422 38.901 58.0947 39.4558 58.6496C40.0107 59.2045 40.7633 59.5162 41.548 59.5162H67.66C67.9739 59.5162 68.275 59.6409 68.497 59.8629C68.7189 60.0848 68.8437 60.3859 68.8437 60.6999C68.8437 61.0138 68.7189 61.3149 68.497 61.5368C68.275 61.7588 67.9739 61.8835 67.66 61.8835H41.548C40.1349 61.8835 38.7797 61.3222 37.7805 60.323C36.7813 59.3238 36.22 57.9686 36.22 56.5555C36.22 55.1425 36.7813 53.7873 37.7805 52.7881C38.7797 51.7889 40.1349 51.2275 41.548 51.2275H67.66C67.9739 51.2275 68.275 51.3522 68.497 51.5742C68.7189 51.7962 68.8437 52.0973 68.8437 52.4112C68.8437 52.7252 68.7189 53.0262 68.497 53.2482C68.275 53.4702 67.9739 53.5949 67.66 53.5949L41.548 53.5987Z" stroke="#45413C" stroke-width="1.6" stroke-linecap="round" stroke-linejoin="round"/>
<path d="M67.6608 59.52V53.5988H41.5488C40.7641 53.5988 40.0115 53.9105 39.4567 54.4653C38.9018 55.0202 38.5901 55.7728 38.5901 56.5575C38.5901 57.3422 38.9018 58.0947 39.4567 58.6496C40.0115 59.2045 40.7641 59.5162 41.5488 59.5162L67.6608 59.52Z" fill="white" stroke="#45413C" stroke-width="1.6" stroke-linecap="round" stroke-linejoin="round"/>
<path d="M56.064 72.5626H29.952C28.539 72.5626 27.1838 72.0013 26.1846 71.0021C25.1854 70.0029 24.624 68.6477 24.624 67.2346C24.624 65.8215 25.1854 64.4663 26.1846 63.4671C27.1838 62.468 28.539 61.9066 29.952 61.9066H56.064V72.5626Z" fill="#4ACFFF"/>
<path d="M24.8641 65.6545C25.2012 66.7369 25.8755 67.6832 26.7887 68.355C27.7019 69.0269 28.8059 69.3892 29.9396 69.3889H56.0641V72.5626H29.9521C29.1168 72.5626 28.2932 72.3662 27.5478 71.9893C26.8024 71.6123 26.1561 71.0655 25.6609 70.3928C25.1657 69.7201 24.8356 68.9404 24.6972 68.1167C24.5588 67.293 24.616 66.4482 24.8641 65.6506" fill="#00B8F0"/>
<path d="M56.064 72.5626H29.952C28.539 72.5626 27.1838 72.0013 26.1846 71.0021C25.1854 70.0029 24.624 68.6477 24.624 67.2346C24.624 65.8215 25.1854 64.4663 26.1846 63.4671C27.1838 62.468 28.539 61.9066 29.952 61.9066H56.064V72.5626Z" stroke="#45413C" stroke-width="1.6" stroke-linecap="round" stroke-linejoin="round"/>
<path d="M37.4553 72.5626H33.9542C32.5411 72.5626 31.1859 72.0013 30.1868 71.0021C29.1876 70.0029 28.6262 68.6477 28.6262 67.2346C28.6262 65.8215 29.1876 64.4663 30.1868 63.4671C31.1859 62.468 32.5411 61.9066 33.9542 61.9066H37.4553C36.0423 61.9066 34.6871 62.468 33.6879 63.4671C32.6887 64.4663 32.1273 65.8215 32.1273 67.2346C32.1273 68.6477 32.6887 70.0029 33.6879 71.0021C34.6871 72.0013 36.0423 72.5626 37.4553 72.5626Z" fill="white" stroke="#45413C" stroke-width="1.6" stroke-linecap="round" stroke-linejoin="round"/>
<path d="M48.5492 64.251C47.7645 64.251 47.0119 64.5627 46.4571 65.1176C45.9022 65.6724 45.5905 66.425 45.5905 67.2097C45.5905 67.9944 45.9022 68.7469 46.4571 69.3018C47.0119 69.8567 47.7645 70.1684 48.5492 70.1684H74.6612C74.9751 70.1684 75.2762 70.2931 75.4982 70.5151C75.7202 70.7371 75.8449 71.0382 75.8449 71.3521C75.8449 71.666 75.7202 71.9671 75.4982 72.1891C75.2762 72.4111 74.9751 72.5358 74.6612 72.5358H48.5492C47.1361 72.5358 45.7809 71.9744 44.7817 70.9752C43.7825 69.976 43.2212 68.6208 43.2212 67.2078C43.2212 65.7947 43.7825 64.4395 44.7817 63.4403C45.7809 62.4411 47.1361 61.8798 48.5492 61.8798H74.6612C74.8166 61.8798 74.9706 61.9104 75.1142 61.9699C75.2578 62.0293 75.3883 62.1165 75.4982 62.2265C75.6081 62.3364 75.6953 62.4669 75.7548 62.6105C75.8143 62.7541 75.8449 62.908 75.8449 63.0634C75.8449 63.2189 75.8143 63.3728 75.7548 63.5164C75.6953 63.66 75.6081 63.7905 75.4982 63.9004C75.3883 64.0103 75.2578 64.0975 75.1142 64.157C74.9706 64.2165 74.8166 64.2471 74.6612 64.2471L48.5492 64.251Z" fill="#00B8F0"/>
<path d="M43.2231 67.2096C43.2231 65.7971 43.7843 64.4424 44.7831 63.4435C45.782 62.4447 47.1367 61.8835 48.5492 61.8835H74.6612C74.8167 61.8835 74.9706 61.9142 75.1142 61.9736C75.2578 62.0331 75.3883 62.1203 75.4982 62.2302C75.6081 62.3402 75.6953 62.4706 75.7548 62.6143C75.8143 62.7579 75.8449 62.9118 75.8449 63.0672C75.8449 63.2227 75.8143 63.3766 75.7548 63.5202C75.6953 63.6638 75.6081 63.7943 75.4982 63.9042C75.3883 64.0141 75.2578 64.1013 75.1142 64.1608C74.9706 64.2203 74.8167 64.2509 74.6612 64.2509H48.5492C47.7645 64.2509 47.012 64.5626 46.4571 65.1175C45.9022 65.6724 45.5905 66.4249 45.5905 67.2096H43.2231Z" fill="#4ACFFF"/>
<path d="M48.5492 64.251C47.7645 64.251 47.0119 64.5627 46.4571 65.1176C45.9022 65.6724 45.5905 66.425 45.5905 67.2097C45.5905 67.9944 45.9022 68.7469 46.4571 69.3018C47.0119 69.8567 47.7645 70.1684 48.5492 70.1684H74.6612C74.9751 70.1684 75.2762 70.2931 75.4982 70.5151C75.7202 70.7371 75.8449 71.0382 75.8449 71.3521C75.8449 71.666 75.7202 71.9671 75.4982 72.1891C75.2762 72.4111 74.9751 72.5358 74.6612 72.5358H48.5492C47.1361 72.5358 45.7809 71.9744 44.7817 70.9752C43.7825 69.976 43.2212 68.6208 43.2212 67.2078C43.2212 65.7947 43.7825 64.4395 44.7817 63.4403C45.7809 62.4411 47.1361 61.8798 48.5492 61.8798H74.6612C74.8166 61.8798 74.9706 61.9104 75.1142 61.9699C75.2578 62.0293 75.3883 62.1165 75.4982 62.2265C75.6081 62.3364 75.6953 62.4669 75.7548 62.6105C75.8143 62.7541 75.8449 62.908 75.8449 63.0634C75.8449 63.2189 75.8143 63.3728 75.7548 63.5164C75.6953 63.66 75.6081 63.7905 75.4982 63.9004C75.3883 64.0103 75.2578 64.0975 75.1142 64.157C74.9706 64.2165 74.8166 64.2471 74.6612 64.2471L48.5492 64.251Z" stroke="#45413C" stroke-width="1.6" stroke-linecap="round" stroke-linejoin="round"/>
<path d="M74.6623 70.1684V64.251H48.5503C47.7656 64.251 47.013 64.5627 46.4581 65.1176C45.9033 65.6724 45.5916 66.425 45.5916 67.2097C45.5916 67.9944 45.9033 68.747 46.4581 69.3018C47.013 69.8567 47.7656 70.1684 48.5503 70.1684H74.6623Z" fill="white" stroke="#45413C" stroke-width="1.6" stroke-linecap="round" stroke-linejoin="round"/>
<path d="M51.3245 51.2314H25.2125C23.7995 51.2314 22.4443 50.6701 21.4451 49.6709C20.4459 48.6717 19.8845 47.3165 19.8845 45.9034C19.8845 44.4904 20.4459 43.1352 21.4451 42.136C22.4443 41.1368 23.7995 40.5754 25.2125 40.5754H51.3245V51.2314Z" fill="#FF866E"/>
<path d="M51.3218 48.0577H25.2098C24.0743 48.0579 22.9686 47.6945 22.0546 47.0208C21.1406 46.3471 20.4663 45.3984 20.1304 44.3137C19.8814 45.1116 19.8236 45.9569 19.9615 46.7814C20.0995 47.6058 20.4295 48.3862 20.9247 49.0595C21.42 49.7329 22.0666 50.2803 22.8125 50.6576C23.5584 51.0349 24.3826 51.2315 25.2184 51.2315H51.3304V48.0577" fill="#FF6242"/>
<path d="M51.3245 51.2314H25.2125C23.7995 51.2314 22.4443 50.6701 21.4451 49.6709C20.4459 48.6717 19.8845 47.3165 19.8845 45.9034C19.8845 44.4904 20.4459 43.1352 21.4451 42.136C22.4443 41.1368 23.7995 40.5754 25.2125 40.5754H51.3245V51.2314Z" stroke="#45413C" stroke-width="1.6" stroke-linecap="round" stroke-linejoin="round"/>
<path d="M44.1398 42.9466C43.3551 42.9466 42.6025 43.2584 42.0476 43.8132C41.4928 44.3681 41.181 45.1207 41.181 45.9054C41.181 46.6901 41.4928 47.4426 42.0476 47.9975C42.6025 48.5524 43.3551 48.8641 44.1398 48.8641H70.2518C70.5657 48.8641 70.8668 48.9888 71.0888 49.2108C71.3107 49.4328 71.4354 49.7338 71.4354 50.0478C71.4354 50.3617 71.3107 50.6628 71.0888 50.8847C70.8668 51.1067 70.5657 51.2314 70.2518 51.2314H44.1398C42.7267 51.2314 41.3715 50.6701 40.3723 49.6709C39.3731 48.6717 38.8118 47.3165 38.8118 45.9034C38.8118 44.4904 39.3731 43.1352 40.3723 42.136C41.3715 41.1368 42.7267 40.5754 44.1398 40.5754H70.2518C70.5657 40.5754 70.8668 40.7001 71.0888 40.9221C71.3107 41.1441 71.4354 41.4452 71.4354 41.7591C71.4354 42.0731 71.3107 42.3741 71.0888 42.5961C70.8668 42.8181 70.5657 42.9428 70.2518 42.9428L44.1398 42.9466Z" fill="#FF6242"/>
<path d="M38.8137 45.9053C38.8137 44.4927 39.3749 43.138 40.3737 42.1392C41.3725 41.1404 42.7272 40.5792 44.1398 40.5792H70.2518C70.5657 40.5792 70.8668 40.7039 71.0888 40.9259C71.3108 41.1479 71.4355 41.449 71.4355 41.7629C71.4355 42.0768 71.3108 42.3779 71.0888 42.5999C70.8668 42.8219 70.5657 42.9466 70.2518 42.9466H44.1398C43.3556 42.9473 42.6038 43.2594 42.0495 43.8142C41.4953 44.369 41.184 45.1211 41.184 45.9053H38.8137Z" fill="#FF866E"/>
<path d="M44.1398 42.9466C43.3551 42.9466 42.6025 43.2584 42.0476 43.8132C41.4928 44.3681 41.181 45.1207 41.181 45.9054C41.181 46.6901 41.4928 47.4426 42.0476 47.9975C42.6025 48.5524 43.3551 48.8641 44.1398 48.8641H70.2518C70.5657 48.8641 70.8668 48.9888 71.0888 49.2108C71.3107 49.4328 71.4354 49.7338 71.4354 50.0478C71.4354 50.3617 71.3107 50.6628 71.0888 50.8847C70.8668 51.1067 70.5657 51.2314 70.2518 51.2314H44.1398C42.7267 51.2314 41.3715 50.6701 40.3723 49.6709C39.3731 48.6717 38.8118 47.3165 38.8118 45.9034C38.8118 44.4904 39.3731 43.1352 40.3723 42.136C41.3715 41.1368 42.7267 40.5754 44.1398 40.5754H70.2518C70.5657 40.5754 70.8668 40.7001 71.0888 40.9221C71.3107 41.1441 71.4354 41.4452 71.4354 41.7591C71.4354 42.0731 71.3107 42.3741 71.0888 42.5961C70.8668 42.8181 70.5657 42.9428 70.2518 42.9428L44.1398 42.9466Z" stroke="#45413C" stroke-width="1.6" stroke-linecap="round" stroke-linejoin="round"/>
<path d="M70.2538 48.8641V42.9467H44.1418C43.3571 42.9467 42.6046 43.2584 42.0497 43.8132C41.4948 44.3681 41.1831 45.1207 41.1831 45.9054C41.1831 46.6901 41.4948 47.4426 42.0497 47.9975C42.6046 48.5524 43.3571 48.8641 44.1418 48.8641H70.2538Z" fill="white" stroke="#45413C" stroke-width="1.6" stroke-linecap="round" stroke-linejoin="round"/>
<path d="M32.7217 51.2314H29.2206C27.8075 51.2314 26.4523 50.6701 25.4531 49.6709C24.4539 48.6717 23.8926 47.3165 23.8926 45.9034C23.8926 44.4904 24.4539 43.1352 25.4531 42.136C26.4523 41.1368 27.8075 40.5754 29.2206 40.5754H32.7217C31.3086 40.5754 29.9534 41.1368 28.9542 42.136C27.955 43.1352 27.3937 44.4904 27.3937 45.9034C27.3937 47.3165 27.955 48.6717 28.9542 49.6709C29.9534 50.6701 31.3086 51.2314 32.7217 51.2314Z" fill="#FFE500" stroke="#45413C" stroke-width="1.6" stroke-linecap="round" stroke-linejoin="round"/>
<path d="M53.4241 39.625C52.369 40.1776 51.1977 40.4717 50.0067 40.4831C48.8157 40.4944 47.639 40.2227 46.5735 39.6903C45.5083 40.2227 44.3317 40.4944 43.1409 40.4831C41.95 40.4717 40.7789 40.1776 39.7239 39.625C36.1527 37.7539 34.8625 34.7943 33.9707 28.5523C33.5444 25.5639 35.7217 22.5927 38.2081 20.881C39.427 20.0422 40.8559 19.5603 42.3338 19.4896C43.8118 19.4188 45.2801 19.7621 46.5735 20.4807C47.8671 19.7621 49.3356 19.4189 50.8137 19.4896C52.2918 19.5603 53.7208 20.0422 54.9399 20.881C57.4263 22.5927 59.6036 25.5639 59.1764 28.5523C58.2951 34.7223 57.0183 37.7415 53.4241 39.625Z" fill="#FF6242"/>
<path d="M46.7271 16.7828L47.64 16.9748C48.599 17.1802 49.589 17.1948 50.5536 17.0176C51.5181 16.8404 52.4384 16.475 53.2617 15.9422C54.085 15.4094 54.7954 14.7196 55.3521 13.9123C55.9089 13.1049 56.3012 12.1958 56.5066 11.2369L56.6986 10.3239C56.7508 10.0824 56.705 9.8301 56.5712 9.62237C56.4375 9.41464 56.2267 9.26851 55.9853 9.21607L55.0724 9.02407C54.1135 8.81849 53.1235 8.8038 52.1589 8.98086C51.1944 9.15792 50.2741 9.52325 49.4508 10.056C48.6274 10.5887 47.9171 11.2784 47.3603 12.0857C46.8035 12.893 46.4112 13.8021 46.2058 14.761L46.0138 15.674C45.9619 15.9156 46.0077 16.1679 46.1414 16.3757C46.2751 16.5835 46.4857 16.7299 46.7271 16.7828Z" fill="#6DD627"/>
<path d="M46.0801 16.2606C46.1406 16.3924 46.231 16.5082 46.3442 16.5989C46.4573 16.6896 46.5901 16.7525 46.7319 16.7828L47.6449 16.9748C48.6038 17.1805 49.5939 17.1953 50.5586 17.0182C51.5232 16.8411 52.4436 16.4757 53.267 15.9429C54.0904 15.41 54.8007 14.7202 55.3574 13.9127C55.9141 13.1052 56.3062 12.196 56.5114 11.2369L56.7034 10.3239C56.7338 10.1823 56.7307 10.0355 56.6946 9.89522C56.6584 9.75493 56.5901 9.62498 56.4951 9.51562L46.0801 16.2606Z" fill="#46B000"/>
<path d="M46.7271 16.7828L47.64 16.9748C48.599 17.1802 49.589 17.1948 50.5536 17.0176C51.5181 16.8404 52.4384 16.475 53.2617 15.9422C54.085 15.4094 54.7954 14.7196 55.3521 13.9123C55.9089 13.1049 56.3012 12.1958 56.5066 11.2369L56.6986 10.3239C56.7508 10.0824 56.705 9.8301 56.5712 9.62237C56.4375 9.41464 56.2267 9.26851 55.9853 9.21607L55.0724 9.02407C54.1135 8.81849 53.1235 8.8038 52.1589 8.98086C51.1944 9.15792 50.2741 9.52325 49.4508 10.056C48.6274 10.5887 47.9171 11.2784 47.3603 12.0857C46.8035 12.893 46.4112 13.8021 46.2058 14.761L46.0138 15.674C45.9619 15.9156 46.0077 16.1679 46.1414 16.3757C46.2751 16.5835 46.4857 16.7299 46.7271 16.7828V16.7828Z" stroke="#45413C" stroke-width="1.6" stroke-linecap="round" stroke-linejoin="round"/>
<path d="M44.7102 9.46667L46.5736 20.6468" stroke="#45413C" stroke-width="1.6" stroke-linecap="round" stroke-linejoin="round"/>
<path d="M34.2059 29.9434C34.6859 28.1799 36.651 26.6199 38.21 25.5437C39.4287 24.7056 40.857 24.2238 42.3343 24.1524C43.8117 24.081 45.2797 24.4229 46.5735 25.1395C47.8674 24.4229 49.3354 24.081 50.8128 24.1524C52.2901 24.2238 53.7183 24.7056 54.9371 25.5437C56.4971 26.6199 58.4622 28.1799 58.9412 29.9434L59.1764 28.5523C59.6036 25.5639 57.4263 22.5927 54.9399 20.881C53.7208 20.0422 52.2918 19.5603 50.8137 19.4896C49.3356 19.4189 47.8671 19.7621 46.5735 20.4807C45.2801 19.7621 43.8118 19.4188 42.3338 19.4896C40.8559 19.5603 39.427 20.0422 38.2081 20.881C35.7217 22.5927 33.5444 25.5639 33.9707 28.5523L34.2059 29.9434Z" fill="#FF866E"/>
<path d="M53.4241 39.625C52.369 40.1776 51.1977 40.4717 50.0067 40.4831C48.8157 40.4944 47.639 40.2227 46.5735 39.6903C45.5083 40.2227 44.3317 40.4944 43.1409 40.4831C41.95 40.4717 40.7789 40.1776 39.7239 39.625C36.1527 37.7539 34.8625 34.7943 33.9707 28.5523C33.5444 25.5639 35.7217 22.5927 38.2081 20.881C39.427 20.0422 40.8559 19.5603 42.3338 19.4896C43.8118 19.4188 45.2801 19.7621 46.5735 20.4807C47.8671 19.7621 49.3356 19.4189 50.8137 19.4896C52.2918 19.5603 53.7208 20.0422 54.9399 20.881C57.4263 22.5927 59.6036 25.5639 59.1764 28.5523C58.2951 34.7223 57.0183 37.7415 53.4241 39.625Z" stroke="#45413C" stroke-width="1.6" stroke-linecap="round" stroke-linejoin="round"/>
</svg>

