<svg
  id="graphic-mentoring"
  viewBox="0 0 66 66"
  fill="none"
  xmlns="http://www.w3.org/2000/svg"
>
  <path
    d="M1 33C1 41.4869 4.37142 49.6263 10.3726 55.6274C16.3737 61.6286 24.5131 65 33 65C41.4869 65 49.6263 61.6286 55.6274 55.6274C61.6286 49.6263 65 41.4869 65 33C65 24.5131 61.6286 16.3737 55.6274 10.3726C49.6263 4.37142 41.4869 1 33 1C24.5131 1 16.3737 4.37142 10.3726 10.3726C4.37142 16.3737 1 24.5131 1 33Z"
    fill="#E8F4FA"
    stroke="#DAEDF7"
    stroke-width="1.4"
    stroke-miterlimit="10"
  />
  <path
    d="M18.6161 38.2536L11.9601 44.9104C11.7442 45.1275 11.4686 45.2755 11.1684 45.3356C10.8682 45.3958 10.5569 45.3654 10.2741 45.2483C9.99117 45.1312 9.74946 44.9327 9.57961 44.678C9.40976 44.4232 9.31944 44.1238 9.3201 43.8176V38.2536H5.3201C4.83169 38.2539 4.34801 38.158 3.8967 37.9713C3.44538 37.7846 3.03527 37.5109 2.68981 37.1656C2.34434 36.8204 2.07029 36.4104 1.88331 35.9592C1.69634 35.508 1.6001 35.0244 1.6001 34.536V15.3264C1.6001 14.8381 1.69634 14.3545 1.88333 13.9033C2.07032 13.4522 2.34438 13.0423 2.68985 12.6971C3.03533 12.3519 3.44545 12.0782 3.89676 11.8916C4.34807 11.705 4.83173 11.6092 5.3201 11.6096H33.2641C34.2499 11.6096 35.1952 12.0012 35.8923 12.6982C36.5893 13.3953 36.9809 14.3407 36.9809 15.3264V34.536C36.9809 35.5219 36.5893 36.4673 35.8923 37.1645C35.1953 37.8616 34.2499 38.2534 33.2641 38.2536H18.6161Z"
    fill="white"
    stroke="#45413C"
    stroke-width="1.4"
    stroke-linecap="round"
    stroke-linejoin="round"
  />
  <path
    d="M27.1658 30.5832C27.2807 30.4683 27.3719 30.3319 27.4341 30.1818C27.4963 30.0317 27.5283 29.8709 27.5283 29.7084C27.5283 29.5459 27.4963 29.385 27.4341 29.2349C27.3719 29.0848 27.2807 28.9484 27.1658 28.8336L23.6658 25.3336C23.5498 25.2175 23.4847 25.0601 23.4847 24.896C23.4847 24.7319 23.5498 24.5745 23.6658 24.4584L27.1658 20.9584C27.2807 20.8435 27.3719 20.7071 27.4341 20.557C27.4963 20.4069 27.5283 20.246 27.5283 20.0836C27.5283 19.9211 27.4963 19.7602 27.4341 19.6101C27.3719 19.46 27.2807 19.3236 27.1658 19.2088L24.9778 17.0216C24.863 16.9066 24.7266 16.8155 24.5765 16.7533C24.4264 16.6911 24.2655 16.6591 24.103 16.6591C23.9405 16.6591 23.7796 16.6911 23.6295 16.7533C23.4794 16.8155 23.3431 16.9066 23.2282 17.0216L19.7282 20.52C19.6121 20.6359 19.4547 20.7011 19.2906 20.7011C19.1265 20.7011 18.9691 20.6359 18.853 20.52L15.353 17.02C15.2382 16.905 15.1018 16.8139 14.9517 16.7517C14.8016 16.6895 14.6407 16.6575 14.4782 16.6575C14.3157 16.6575 14.1548 16.6895 14.0047 16.7517C13.8546 16.8139 13.7183 16.905 13.6034 17.02L11.4162 19.2088C11.3013 19.3236 11.2101 19.46 11.1479 19.6101C11.0857 19.7602 11.0537 19.9211 11.0537 20.0836C11.0537 20.246 11.0857 20.4069 11.1479 20.557C11.2101 20.7071 11.3013 20.8435 11.4162 20.9584L14.9202 24.4584C15.0358 24.5747 15.1007 24.732 15.1007 24.896C15.1007 25.0599 15.0358 25.2173 14.9202 25.3336L11.4162 28.8336C11.3013 28.9484 11.2101 29.0848 11.1479 29.2349C11.0857 29.385 11.0537 29.5459 11.0537 29.7084C11.0537 29.8709 11.0857 30.0317 11.1479 30.1818C11.2101 30.3319 11.3013 30.4683 11.4162 30.5832L13.6034 32.7712C13.7183 32.8861 13.8546 32.9773 14.0047 33.0395C14.1548 33.1017 14.3157 33.1337 14.4782 33.1337C14.6407 33.1337 14.8016 33.1017 14.9517 33.0395C15.1018 32.9773 15.2382 32.8861 15.353 32.7712L18.853 29.2712C18.9691 29.1552 19.1265 29.0901 19.2906 29.0901C19.4547 29.0901 19.6121 29.1552 19.7282 29.2712L23.2282 32.7712C23.3431 32.8861 23.4794 32.9773 23.6295 33.0395C23.7796 33.1017 23.9405 33.1337 24.103 33.1337C24.2655 33.1337 24.4264 33.1017 24.5765 33.0395C24.7266 32.9773 24.863 32.8861 24.9778 32.7712L27.1658 30.5832Z"
    fill="#FF6242"
    stroke="#E04122"
    stroke-width="1.4"
    stroke-linecap="round"
    stroke-linejoin="round"
  />
  <path
    d="M47.9601 47.3144L54.5577 53.9112C54.7717 54.1253 55.0445 54.2711 55.3414 54.3302C55.6384 54.3893 55.9461 54.359 56.2258 54.2431C56.5056 54.1273 56.7446 53.931 56.9128 53.6793C57.0809 53.4275 57.1706 53.1315 57.1705 52.8288V47.3144H61.1409C62.1174 47.3131 63.0534 46.9243 63.7434 46.2334C64.4334 45.5425 64.8209 44.606 64.8209 43.6296V24.592C64.8209 23.6156 64.4333 22.6792 63.7433 21.9884C63.0533 21.2976 62.1173 20.909 61.1409 20.908H33.4417C32.4654 20.909 31.5293 21.2976 30.8393 21.9884C30.1493 22.6792 29.7617 23.6156 29.7617 24.592V43.632C29.7617 44.6084 30.1493 45.5449 30.8393 46.2358C31.5293 46.9267 32.4653 47.3155 33.4417 47.3168L47.9601 47.3144Z"
    fill="white"
    stroke="#45413C"
    stroke-width="1.4"
    stroke-linecap="round"
    stroke-linejoin="round"
  />
  <path
    d="M57.063 30.7536C57.3702 30.5008 57.5645 30.1363 57.603 29.7402C57.6416 29.3442 57.5213 28.949 57.2686 28.6416L55.5998 26.6136C55.4746 26.4615 55.3206 26.3355 55.1467 26.2428C54.9728 26.1501 54.7823 26.0927 54.5862 26.0737C54.3901 26.0546 54.1921 26.0744 54.0036 26.132C53.8152 26.1895 53.6399 26.2836 53.4878 26.4088L43.9278 34.2752L41.7822 31.668C41.5293 31.3608 41.1648 31.1665 40.7687 31.128C40.3727 31.0894 39.9775 31.2097 39.6702 31.4624L37.6398 33.1312C37.4876 33.2564 37.3616 33.4104 37.2689 33.5843C37.1763 33.7582 37.1188 33.9487 37.0998 34.1448C37.0808 34.3409 37.1006 34.5389 37.1581 34.7274C37.2156 34.9158 37.3097 35.0911 37.435 35.2432L39.5798 37.8504L42.2022 41.0368C42.455 41.3441 42.8195 41.5384 43.2156 41.5769C43.6116 41.6155 44.0068 41.4952 44.3142 41.2424L47.5014 38.62L57.063 30.7536Z"
    fill="#6DD627"
    stroke="#46B000"
    stroke-width="1.4"
    stroke-linecap="round"
    stroke-linejoin="round"
  />
</svg>
