<svg width="96" height="96" fill="none" xmlns="http://www.w3.org/2000/svg">
  <path fill="#EB5757" d="M0 0h96v96H0z"/>
  <path d="M29.5175 31.18v12.636h-3.078V31.18h3.078zM31.226 37.48c0-1.248.27-2.358.81-3.33.54-.984 1.29-1.746 2.25-2.286.972-.552 2.07-.828 3.294-.828 1.5 0 2.784.396 3.852 1.188 1.068.792 1.782 1.872 2.142 3.24H40.19c-.252-.528-.612-.93-1.08-1.206-.456-.276-.978-.414-1.566-.414-.948 0-1.716.33-2.304.99-.588.66-.882 1.542-.882 2.646 0 1.104.294 1.986.882 2.646.588.66 1.356.99 2.304.99.588 0 1.11-.138 1.566-.414.468-.276.828-.678 1.08-1.206h3.384c-.36 1.368-1.074 2.448-2.142 3.24-1.068.78-2.352 1.17-3.852 1.17-1.224 0-2.322-.27-3.294-.81-.96-.552-1.71-1.314-2.25-2.286s-.81-2.082-.81-3.33zM51.435 43.942c-1.188 0-2.28-.276-3.276-.828-.984-.552-1.77-1.32-2.358-2.304-.576-.996-.864-2.112-.864-3.348 0-1.236.288-2.346.864-3.33.588-.984 1.374-1.752 2.358-2.304.996-.552 2.088-.828 3.276-.828 1.188 0 2.274.276 3.258.828.996.552 1.776 1.32 2.34 2.304.576.984.864 2.094.864 3.33 0 1.236-.288 2.352-.864 3.348-.576.984-1.356 1.752-2.34 2.304-.984.552-2.07.828-3.258.828zm0-2.808c1.008 0 1.812-.336 2.412-1.008.612-.672.918-1.56.918-2.664 0-1.116-.306-2.004-.918-2.664-.6-.672-1.404-1.008-2.412-1.008-1.02 0-1.836.33-2.448.99-.6.66-.9 1.554-.9 2.682 0 1.116.3 2.01.9 2.682.612.66 1.428.99 2.448.99zM70.9134 43.816h-3.078l-5.148-7.794v7.794h-3.078V31.18h3.078l5.148 7.83v-7.83h3.078v12.636zM22.31 51.18v12.636h-3.078v-7.578l-2.826 7.578h-2.484l-2.844-7.596v7.596H8V51.18h3.636l3.546 8.748 3.51-8.748h3.618zM27.6014 51.18v12.636h-3.078V51.18h3.078zM34.404 63.942c-.924 0-1.752-.15-2.484-.45-.732-.3-1.32-.744-1.764-1.332-.432-.588-.66-1.296-.684-2.124h3.276c.048.468.21.828.486 1.08.276.24.636.36 1.08.36.456 0 .816-.102 1.08-.306.264-.216.396-.51.396-.882 0-.312-.108-.57-.324-.774-.204-.204-.462-.372-.774-.504-.3-.132-.732-.282-1.296-.45-.816-.252-1.482-.504-1.998-.756s-.96-.624-1.332-1.116c-.372-.492-.558-1.134-.558-1.926 0-1.176.426-2.094 1.278-2.754.852-.672 1.962-1.008 3.33-1.008 1.392 0 2.514.336 3.366 1.008.852.66 1.308 1.584 1.368 2.772h-3.33c-.024-.408-.174-.726-.45-.954-.276-.24-.63-.36-1.062-.36-.372 0-.672.102-.9.306-.228.192-.342.474-.342.846 0 .408.192.726.576.954.384.228.984.474 1.8.738.816.276 1.476.54 1.98.792.516.252.96.618 1.332 1.098.372.48.558 1.098.558 1.854 0 .72-.186 1.374-.558 1.962-.36.588-.888 1.056-1.584 1.404-.696.348-1.518.522-2.466.522zM45.4782 63.942c-.924 0-1.752-.15-2.484-.45-.732-.3-1.32-.744-1.764-1.332-.432-.588-.66-1.296-.684-2.124h3.2761c.048.468.21.828.486 1.08.276.24.6359.36 1.0799.36.456 0 .8161-.102 1.0801-.306.264-.216.396-.51.396-.882 0-.312-.1081-.57-.3241-.774-.204-.204-.4619-.372-.7739-.504-.3-.132-.7321-.282-1.2961-.45-.816-.252-1.482-.504-1.998-.756s-.96-.624-1.332-1.116c-.372-.492-.558-1.134-.558-1.926 0-1.176.426-2.094 1.278-2.754.852-.672 1.9621-1.008 3.3301-1.008 1.392 0 2.5139.336 3.3659 1.008.852.66 1.308 1.584 1.368 2.772h-3.33c-.024-.408-.174-.726-.45-.954-.276-.24-.63-.36-1.062-.36-.372 0-.6719.102-.8999.306-.228.192-.3421.474-.3421.846 0 .408.192.726.576.954.384.228.984.474 1.8.738.816.276 1.476.54 1.98.792.516.252.96.618 1.332 1.098.372.48.5581 1.098.5581 1.854 0 .72-.1861 1.374-.5581 1.962-.36.588-.888 1.056-1.584 1.404-.696.348-1.518.522-2.466.522zM55.0585 51.18v12.636h-3.078V51.18h3.078zM68.5931 63.816h-3.078l-5.148-7.794v7.794h-3.078V51.18h3.078l5.148 7.83v-7.83h3.078v12.636zM79.2122 55.176c-.228-.42-.558-.738-.99-.954-.42-.228-.918-.342-1.494-.342-.996 0-1.794.33-2.394.99-.6.648-.9 1.518-.9 2.61 0 1.164.312 2.076.936 2.736.636.648 1.506.972 2.61.972.756 0 1.392-.192 1.908-.576.528-.384.912-.936 1.152-1.656h-3.906v-2.268h6.696v2.862c-.228.768-.618 1.482-1.17 2.142-.54.66-1.23 1.194-2.07 1.602-.84.408-1.788.612-2.844.612-1.248 0-2.364-.27-3.348-.81-.972-.552-1.734-1.314-2.286-2.286-.54-.972-.81-2.082-.81-3.33 0-1.248.27-2.358.81-3.33.552-.984 1.314-1.746 2.286-2.286.972-.552 2.082-.828 3.33-.828 1.512 0 2.784.366 3.816 1.098 1.044.732 1.734 1.746 2.07 3.042h-3.402zM88.5852 50.73l-.36 8.622h-2.61l-.36-8.622h3.33zm-1.62 13.23c-.54 0-.984-.156-1.332-.468-.336-.324-.504-.72-.504-1.188 0-.48.168-.882.504-1.206.348-.324.792-.486 1.332-.486.528 0 .96.162 1.296.486.348.324.522.726.522 1.206 0 .468-.174.864-.522 1.188-.336.312-.768.468-1.296.468z" fill="#000"/>
</svg>
