<svg width="160" height="160" fill="none" xmlns="http://www.w3.org/2000/svg">
  <path d="M138.318 105.685a64.002 64.002 0 005.504-31.1118 63.9997 63.9997 0 00-33.207-51.4485 64.0002 64.0002 0 00-94.4399 51.4485 64.0015 64.0015 0 005.5033 31.1118H138.318z" fill="#C7F0FF"/>
  <path d="M17.6 105.685h124.8M10.4 105.685h4M145.6 105.685h4" stroke="#45413C" stroke-width="1.5" stroke-linecap="round" stroke-linejoin="round"/>
  <path d="M21.664 105.685a63.5792 63.5792 0 0023.4451 27.865 63.5792 63.5792 0 0069.7819 0 63.5777 63.5777 0 0023.445-27.865H21.664z" fill="#9CEB60"/>
  <path d="M140.53 105.685H19.7728" stroke="#45413C" stroke-width="1.5" stroke-linecap="round" stroke-linejoin="round"/>
  <path d="M103.52 125.275h12.022M96.5072 125.275h3.0048M91.4976 125.275h1.0016M53.3824 119.395h12.024M46.3696 119.395h3.0064M41.36 119.395h1.0016M72.1776 137.875H84.2M65.1632 137.875h3.0064M60.1536 137.875h1.0016" stroke="#6DD627" stroke-width="1.5" stroke-linecap="round"/>
  <path d="M46.7296 79.2096a6.2465 6.2465 0 01-1.632-12.3856l.1712-.0224a6.2465 6.2465 0 011.632 12.3856l-.1712.0224z" fill="#7029F5" stroke="#45413C" stroke-width="1.5" stroke-linecap="round" stroke-linejoin="round"/>
  <path d="M44.76 61.0866a4.5647 4.5647 0 01-5.0576-4l-.4048-3.4288a11.4448 11.4448 0 016.3136-11.5392 9.0828 9.0828 0 004.6755-10.7382 9.083 9.083 0 00-9.7955-6.4202l-.2368.0304A9.1362 9.1362 0 0032.56 35.0402a4.5553 4.5553 0 01-7.36 4.1152 4.5346 4.5346 0 01-1.7024-3.04 18.1106 18.1106 0 0115.4784-20.136l.48-.064a18.194 18.194 0 0119.5733 12.8902 18.1936 18.1936 0 01-9.3685 21.4826 2.3153 2.3153 0 00-1.3088 2.3104l.4032 3.4288a4.5901 4.5901 0 01-3.8752 5.0432l-.12.016z" fill="#7029F5" stroke="#31116F" stroke-width="1.5" stroke-linecap="round" stroke-linejoin="round"/>
  <g clip-path="url(#clip0)" fill="#7029F5" stroke="#31116F" stroke-width="2">
    <path d="M100.239 84.2909c2.113 0 4.539-1.7068 4.539-4.5233v-.386h.308v.386c0 2.5831-2.156 4.7226-4.847 4.7226-2.6923 0-4.8483-2.1395-4.8483-4.7226v-.386h.1904v.386c0 1.6862.6073 2.8893 1.609 3.6331.9484.7043 2.109.8902 3.0489.8902zM89.3845 68.3201c-2.351 0-4.4039 1.5743-4.8923 3.7546h-.5241c.4993-2.3101 2.6931-4.1218 5.4164-4.1218 2.7231 0 4.9159 1.8115 5.415 4.1218h-.5242c-.4886-2.1792-2.5408-3.7546-4.8908-3.7546zM110.157 68.3201c-2.35 0-4.402 1.5744-4.89 3.7546h-.525c.499-2.3103 2.692-4.1218 5.415-4.1218 2.724 0 4.917 1.8117 5.417 4.1218h-.524c-.489-2.1793-2.541-3.7546-4.893-3.7546zM117.027 97.0184l.002-.0005c1.629-.3696 2.847-1.377 3.626-2.9153.757-1.4948 1.093-3.4689 1.093-5.8395v-8.1372c0-2.9514.719-4.7687 1.886-5.7645 0-.0007.001-.0014.002-.002l.562-.4727h0l.007-.0057c.163-.1396.324-.2936.452-.4582.1-.1287.316-.4294.316-.8381 0-.3939-.189-.69-.316-.853-.136-.174-.304-.3269-.471-.4591l-.55-.4625c-.001-.0007-.002-.0013-.002-.002-1.167-.9959-1.886-2.8131-1.886-5.7645v-8.1373c0-2.7551-.322-4.9151-1.153-6.2393-.736-1.1746-2.064-2.0068-3.783-2.5969h2.145c2.149 0 3.631.6565 4.62 1.8454 1.018 1.2226 1.605 3.103 1.605 5.7986v8.5843c0 2.036.216 3.7142.713 4.9607.491 1.233 1.368 2.3374 2.561 3.3258-1.209 1.0046-2.094 2.1149-2.578 3.3449-.486 1.2355-.696 2.9076-.696 4.9412v8.5546c0 2.7159-.592 4.6039-1.617 5.8253-1.002 1.1939-2.483 1.8485-4.608 1.8485h-2.179l-.111-.0002.36-.0808zm-1.567-48.7855l.001-.0005-.001.0005zM83.0777 96.9483l-.0021-.0004c-1.6291-.3697-2.8471-1.3771-3.6263-2.9154-.7572-1.4947-1.0931-3.4689-1.0931-5.8394v-8.1373c0-2.9514-.7183-4.7686-1.8852-5.7644l-.0024-.0021-.5622-.4727h-.0001l-.0066-.0056c-.1632-.1397-.324-.2937-.4522-.4582-.1002-.1288-.3156-.4294-.3156-.8381 0-.394.1887-.6901.3156-.853.1356-.1741.3038-.3269.471-.4592l.5501-.4625.0024-.002c1.1669-.9959 1.8852-2.8131 1.8852-5.7645v-8.1372c0-2.7552.3224-4.9151 1.1529-6.2394.7367-1.1746 2.0645-2.0068 3.7839-2.5969h-2.1456c-2.1486 0-3.6304.6566-4.6201 1.8455-1.0176 1.2226-1.6045 3.1029-1.6045 5.7985v8.5844c0 2.0359-.216 3.7142-.713 4.9606-.4917 1.233-1.3681 2.3374-2.5613 3.3258 1.2094 1.0046 2.0944 2.1149 2.578 3.3449.4857 1.2355.6963 2.9076.6963 4.9413v8.5545c0 2.7159.592 4.604 1.6169 5.8253 1.0019 1.194 2.4824 1.8485 4.6077 1.8485h2.1793c.0375 0 .0744 0 .1105-.0002l-.3595-.0808zm1.5671-48.7854l-.0008-.0005.0008.0005z"/>
  </g>
  <defs>
    <clipPath id="clip0">
      <path fill="#fff" transform="translate(70.4 47)" d="M0 0h59.3346v51.2H0z"/>
    </clipPath>
  </defs>
</svg>
