<svg
  id="graphic-phone-chat"
  viewBox="0 0 96 96"
  fill="none"
  xmlns="http://www.w3.org/2000/svg"
>
  <path
    d="M8.32129 46.1194C8.32129 51.1621 9.31453 56.1555 11.2443 60.8144C13.1741 65.4733 16.0026 69.7065 19.5684 73.2723C23.1342 76.838 27.3673 79.6666 32.0262 81.5963C36.6851 83.5261 41.6785 84.5194 46.7213 84.5194C51.764 84.5194 56.7574 83.5261 61.4163 81.5963C66.0752 79.6666 70.3084 76.838 73.8742 73.2723C77.44 69.7065 80.2685 65.4733 82.1983 60.8144C84.128 56.1555 85.1213 51.1621 85.1213 46.1194C85.1213 41.0766 84.128 36.0832 82.1983 31.4243C80.2685 26.7654 77.44 22.5322 73.8742 18.9665C70.3084 15.4007 66.0752 12.5722 61.4163 10.6424C56.7574 8.71261 51.764 7.71936 46.7213 7.71936C41.6785 7.71936 36.6851 8.71261 32.0262 10.6424C27.3673 12.5722 23.1342 15.4007 19.5684 18.9665C16.0026 22.5322 13.1741 26.7654 11.2443 31.4243C9.31453 36.0832 8.32129 41.0766 8.32129 46.1194Z"
    fill="#E8F4FA"
  />
  <path
    fill-rule="evenodd"
    clip-rule="evenodd"
    d="M31.8431 10.1989C36.5602 8.24504 41.616 7.23938 46.7218 7.23938C51.8276 7.23938 56.8834 8.24504 61.6005 10.1989C66.3177 12.1528 70.6038 15.0167 74.2141 18.6271C77.8245 22.2374 80.6883 26.5235 82.6422 31.2406C84.5961 35.9578 85.6018 41.0136 85.6018 46.1194C85.6018 51.2252 84.5961 56.281 82.6422 60.9981C80.6883 65.7152 77.8245 70.0013 74.2141 73.6117C70.6038 77.222 66.3177 80.0859 61.6005 82.0398C56.8834 83.9937 51.8276 84.9994 46.7218 84.9994C41.616 84.9994 36.5602 83.9937 31.8431 82.0398C27.1259 80.0859 22.8398 77.222 19.2295 73.6117C15.6191 70.0013 12.7553 65.7152 10.8014 60.9981C8.84746 56.281 7.8418 51.2252 7.8418 46.1194C7.8418 41.0136 8.84746 35.9578 10.8014 31.2406C12.7553 26.5235 15.6191 22.2374 19.2295 18.6271C22.8398 15.0167 27.1259 12.1528 31.8431 10.1989ZM46.7218 8.19938C41.7421 8.19938 36.8111 9.18021 32.2104 11.0859C27.6098 12.9915 23.4295 15.7847 19.9083 19.3059C16.3871 22.8271 13.5939 27.0074 11.6883 31.608C9.78263 36.2087 8.8018 41.1397 8.8018 46.1194C8.8018 51.0991 9.78263 56.0301 11.6883 60.6307C13.5939 65.2314 16.3871 69.4117 19.9083 72.9329C23.4295 76.4541 27.6098 79.2472 32.2104 81.1529C36.8111 83.0585 41.7421 84.0394 46.7218 84.0394C51.7015 84.0394 56.6325 83.0585 61.2332 81.1529C65.8338 79.2472 70.0141 76.4541 73.5353 72.9329C77.0565 69.4117 79.8497 65.2314 81.7553 60.6307C83.661 56.0301 84.6418 51.0991 84.6418 46.1194C84.6418 41.1397 83.661 36.2087 81.7553 31.608C79.8497 27.0074 77.0565 22.8271 73.5353 19.3059C70.0141 15.7847 65.8338 12.9915 61.2332 11.0859C56.6325 9.18021 51.7015 8.19938 46.7218 8.19938Z"
    fill="#DAEDF7"
  />
  <path
    opacity="0.15"
    d="M39.4697 86.8406C39.4697 87.2225 40.2789 87.5888 41.7191 87.8589C43.1594 88.1289 45.1129 88.2806 47.1497 88.2806C49.1866 88.2806 51.14 88.1289 52.5803 87.8589C54.0206 87.5888 54.8297 87.2225 54.8297 86.8406C54.8297 86.4587 54.0206 86.0925 52.5803 85.8224C51.14 85.5523 49.1866 85.4006 47.1497 85.4006C45.1129 85.4006 43.1594 85.5523 41.7191 85.8224C40.2789 86.0925 39.4697 86.4587 39.4697 86.8406Z"
    fill="#45413C"
  />
  <path
    d="M68.2174 13.536C68.2151 13.0113 68.1096 12.4922 67.9067 12.0083C67.7038 11.5244 67.4076 11.0852 67.0349 10.7158C66.6623 10.3464 66.2206 10.054 65.735 9.85529C65.2493 9.6566 64.7293 9.5555 64.2046 9.55778H30.0958C29.5711 9.5555 29.0511 9.6566 28.5655 9.85529C28.0798 10.054 27.6381 10.3464 27.2655 10.7158C26.8929 11.0852 26.5966 11.5244 26.3938 12.0083C26.1909 12.4922 26.0853 13.0113 26.083 13.536V76.3747C26.0878 77.4342 26.5133 78.4485 27.2658 79.1943C28.0183 79.9402 29.0363 80.3566 30.0958 80.352H64.2046C65.2644 80.3564 66.2825 79.9396 67.035 79.1934C67.7875 78.4471 68.2128 77.4326 68.2174 76.3728V13.536ZM64.4993 65.76C64.4993 66.0146 64.3982 66.2588 64.2182 66.4388C64.0381 66.6189 63.7939 66.72 63.5393 66.72H30.7649C30.5103 66.72 30.2661 66.6189 30.0861 66.4388C29.9061 66.2588 29.8049 66.0146 29.8049 65.76V21.672C29.8049 21.4174 29.9061 21.1732 30.0861 20.9932C30.2661 20.8132 30.5103 20.712 30.7649 20.712H63.5355C63.7901 20.712 64.0343 20.8132 64.2143 20.9932C64.3943 21.1732 64.4955 21.4174 64.4955 21.672L64.4993 65.76Z"
    fill="white"
  />
  <path
    d="M64.2046 80.3521H30.0958C29.571 80.3543 29.0509 80.2532 28.5652 80.0545C28.0796 79.8557 27.6378 79.5632 27.2651 79.1937C26.8925 78.8242 26.5963 78.3849 26.3935 77.9009C26.1906 77.4169 26.0851 76.8977 26.083 76.3729V73.3911C26.0853 73.9158 26.1909 74.4349 26.3938 74.9188C26.5966 75.4027 26.8929 75.8419 27.2655 76.2113C27.6381 76.5807 28.0798 76.8731 28.5655 77.0718C29.0511 77.2705 29.5711 77.3716 30.0958 77.3694H64.2046C64.7293 77.3716 65.2493 77.2705 65.735 77.0718C66.2206 76.8731 66.6623 76.5807 67.0349 76.2113C67.4076 75.8419 67.7038 75.4027 67.9067 74.9188C68.1096 74.4349 68.2151 73.9158 68.2174 73.3911V76.3748C68.2123 77.4342 67.7868 78.4483 67.0343 79.1941C66.2819 79.9399 65.264 80.3564 64.2046 80.3521Z"
    fill="#E8F4FA"
  />
  <path
    fill-rule="evenodd"
    clip-rule="evenodd"
    d="M28.3832 9.41106C28.9269 9.18863 29.509 9.07539 30.0963 9.0778H64.2031C64.7905 9.07539 65.3726 9.18863 65.9162 9.41106C66.4602 9.63363 66.955 9.96116 67.3724 10.375C67.7898 10.7887 68.1216 11.2807 68.3489 11.8227C68.5761 12.3647 68.6944 12.9462 68.6969 13.534L68.6969 13.536L68.6969 76.3728L68.6969 76.3749C68.6918 77.562 68.2154 78.6984 67.3725 79.5342C66.5296 80.3701 65.3892 80.8369 64.2022 80.832H30.0974C28.9106 80.8372 27.7704 80.3707 26.9274 79.5353C26.0845 78.6998 25.608 77.5637 25.6025 76.3769L25.6025 76.3747V13.534C25.6051 12.9462 25.7234 12.3647 25.9506 11.8227C26.1779 11.2807 26.5097 10.7887 26.9271 10.375C27.3445 9.96116 27.8393 9.63363 28.3832 9.41106ZM30.0933 10.0378C29.6316 10.0358 29.1741 10.1247 28.7468 10.2996C28.3195 10.4744 27.9308 10.7317 27.6029 11.0567C27.2751 11.3817 27.0145 11.7682 26.8359 12.1939C26.6576 12.6194 26.5647 13.0758 26.5625 13.5371V76.3736C26.5671 77.3055 26.9414 78.1974 27.6032 78.8534C28.2654 79.5097 29.161 79.8761 30.0933 79.872H30.0953H64.2061C65.1386 79.8758 66.0344 79.5091 66.6965 78.8525C67.3584 78.1962 67.7326 77.304 67.7369 76.3719V13.5369C67.7348 13.0757 67.6419 12.6193 67.4635 12.1939C67.285 11.7682 67.0244 11.3817 66.6965 11.0567C66.3687 10.7317 65.98 10.4744 65.5527 10.2996C65.1254 10.1247 64.6679 10.0358 64.2062 10.0378L64.2041 10.0378L30.0933 10.0378ZM30.7645 21.192C30.6372 21.192 30.5151 21.2426 30.425 21.3326C30.335 21.4226 30.2845 21.5447 30.2845 21.672V65.76C30.2845 65.8873 30.335 66.0094 30.425 66.0994C30.5151 66.1895 30.6372 66.24 30.7645 66.24H63.5389C63.6662 66.24 63.7882 66.1895 63.8783 66.0994C63.9683 66.0094 64.0189 65.8873 64.0189 65.7601L64.015 21.6721C64.015 21.5448 63.9644 21.4226 63.8744 21.3326C63.7844 21.2426 63.6623 21.192 63.535 21.192H30.7645ZM29.7462 20.6538C30.0163 20.3837 30.3825 20.232 30.7645 20.232H63.535C63.9169 20.232 64.2832 20.3837 64.5533 20.6538C64.8233 20.9239 64.975 21.2901 64.975 21.672L64.9789 65.76C64.9789 66.1419 64.8271 66.5082 64.5571 66.7783C64.287 67.0483 63.9208 67.2 63.5389 67.2H30.7645C30.3825 67.2 30.0163 67.0483 29.7462 66.7783C29.4762 66.5082 29.3245 66.1419 29.3245 65.76V21.672C29.3245 21.2901 29.4762 20.9239 29.7462 20.6538Z"
    fill="#45413C"
  />
  <path
    d="M40.6282 13.5822C40.4402 13.5837 40.2568 13.6408 40.1012 13.7464C39.9455 13.852 39.8247 14.0014 39.7538 14.1755C39.6829 14.3497 39.6652 14.541 39.7029 14.7253C39.7406 14.9095 39.832 15.0785 39.9656 15.2109C40.0992 15.3432 40.2689 15.4331 40.4535 15.4691C40.6381 15.5052 40.8292 15.4857 41.0028 15.4133C41.1763 15.3408 41.3245 15.2186 41.4287 15.062C41.5329 14.9055 41.5884 14.7216 41.5882 14.5335C41.586 14.2804 41.4838 14.0384 41.304 13.8603C41.1242 13.6821 40.8813 13.5821 40.6282 13.5822Z"
    fill="#45413C"
  />
  <path
    fill-rule="evenodd"
    clip-rule="evenodd"
    d="M43.6602 14.5335C43.6602 14.2684 43.8751 14.0535 44.1402 14.0535H53.169C53.434 14.0535 53.649 14.2684 53.649 14.5335C53.649 14.7986 53.434 15.0135 53.169 15.0135H44.1402C43.8751 15.0135 43.6602 14.7986 43.6602 14.5335Z"
    fill="#45413C"
  />
  <path
    d="M43.7607 73.8883C43.7607 74.7794 44.1178 75.6341 44.7533 76.2642C45.3888 76.8943 46.2508 77.2483 47.1495 77.2483C48.0483 77.2483 48.9103 76.8943 49.5458 76.2642C50.1813 75.6341 50.5383 74.7794 50.5383 73.8883C50.5383 72.9972 50.1813 72.1426 49.5458 71.5124C48.9103 70.8823 48.0483 70.5283 47.1495 70.5283C46.2508 70.5283 45.3888 70.8823 44.7533 71.5124C44.1178 72.1426 43.7607 72.9972 43.7607 73.8883Z"
    fill="white"
  />
  <path
    fill-rule="evenodd"
    clip-rule="evenodd"
    d="M44.4158 71.1716C45.1417 70.4519 46.1253 70.0483 47.1501 70.0483C48.1748 70.0483 49.1584 70.4519 49.8843 71.1716C50.6102 71.8914 51.0189 72.8686 51.0189 73.8883C51.0189 74.9081 50.6102 75.8853 49.8843 76.6051C49.1584 77.3247 48.1748 77.7283 47.1501 77.7283C46.1253 77.7283 45.1417 77.3248 44.4158 76.6051C43.6899 75.8853 43.2812 74.9081 43.2812 73.8883C43.2812 72.8686 43.6899 71.8914 44.4158 71.1716ZM47.1501 71.0083C46.3773 71.0083 45.637 71.3128 45.0918 71.8533C44.5467 72.3937 44.2413 73.1258 44.2413 73.8883C44.2413 74.6508 44.5467 75.3829 45.0918 75.9234C45.637 76.4639 46.3773 76.7683 47.1501 76.7683C47.9228 76.7683 48.6631 76.4639 49.2083 75.9234C49.7534 75.3829 50.0589 74.6508 50.0589 73.8883C50.0589 73.1258 49.7534 72.3937 49.2083 71.8533C48.6631 71.3128 47.9228 71.0083 47.1501 71.0083Z"
    fill="#45413C"
  />
  <path
    d="M64.4991 65.76C64.4991 66.0146 64.3979 66.2588 64.2179 66.4389C64.0379 66.6189 63.7937 66.72 63.5391 66.72H30.7647C30.5101 66.72 30.2659 66.6189 30.0859 66.4389C29.9058 66.2588 29.8047 66.0146 29.8047 65.76V21.672C29.8047 21.4174 29.9058 21.1732 30.0859 20.9932C30.2659 20.8132 30.5101 20.712 30.7647 20.712H63.5352C63.7899 20.712 64.034 20.8132 64.2141 20.9932C64.3941 21.1732 64.4952 21.4174 64.4952 21.672L64.4991 65.76Z"
    fill="#4ACFFF"
  />
  <path
    d="M57.6792 20.714H30.7647C30.5101 20.714 30.2659 20.8151 30.0859 20.9952C29.9058 21.1752 29.8047 21.4194 29.8047 21.674V48.5924L57.6792 20.714Z"
    fill="#80DDFF"
  />
  <path
    fill-rule="evenodd"
    clip-rule="evenodd"
    d="M30.7642 21.1921C30.6369 21.1921 30.5148 21.2426 30.4248 21.3326C30.3348 21.4227 30.2842 21.5448 30.2842 21.6721V65.7601C30.2842 65.8874 30.3348 66.0094 30.4248 66.0995C30.5148 66.1895 30.6369 66.2401 30.7642 66.2401H63.5386C63.6659 66.2401 63.788 66.1895 63.878 66.0995C63.968 66.0094 64.0186 65.8874 64.0186 65.7601L64.0148 21.6721C64.0148 21.5448 63.9642 21.4227 63.8742 21.3326C63.7842 21.2426 63.6621 21.1921 63.5348 21.1921H30.7642ZM29.746 20.6538C30.016 20.3838 30.3823 20.2321 30.7642 20.2321H63.5348C63.9167 20.2321 64.283 20.3838 64.553 20.6538C64.8231 20.9239 64.9748 21.2901 64.9748 21.672C64.9748 21.672 64.9748 21.672 64.9748 21.672L64.9786 65.7601C64.9786 66.142 64.8269 66.5082 64.5569 66.7783C64.2868 67.0483 63.9205 67.2001 63.5386 67.2001H30.7642C30.3823 67.2001 30.016 67.0483 29.746 66.7783C29.4759 66.5082 29.3242 66.142 29.3242 65.7601V21.6721C29.3242 21.2901 29.4759 20.9239 29.746 20.6538Z"
    fill="#45413C"
  />
  <path d="M21.751 42.2698H67.5459V59.9213H21.751V42.2698Z" fill="white" />
  <path
    fill-rule="evenodd"
    clip-rule="evenodd"
    d="M21.2715 42.2698C21.2715 42.0047 21.4864 41.7898 21.7515 41.7898H67.5464C67.8115 41.7898 68.0264 42.0047 68.0264 42.2698V59.9213C68.0264 60.1864 67.8115 60.4013 67.5464 60.4013H21.7515C21.4864 60.4013 21.2715 60.1864 21.2715 59.9213V42.2698ZM22.2315 42.7498V59.4413H67.0664V42.7498H22.2315Z"
    fill="#45413C"
  />
  <path
    fill-rule="evenodd"
    clip-rule="evenodd"
    d="M33.1182 46.4851C33.1182 46.22 33.3331 46.0051 33.5982 46.0051H50.1898C50.4549 46.0051 50.6698 46.22 50.6698 46.4851C50.6698 46.7502 50.4549 46.9651 50.1898 46.9651H33.5982C33.3331 46.9651 33.1182 46.7502 33.1182 46.4851Z"
    fill="#45413C"
  />
  <path
    fill-rule="evenodd"
    clip-rule="evenodd"
    d="M28.8555 50.8416C28.8555 50.5765 29.0704 50.3616 29.3355 50.3616H50.5956C50.8607 50.3616 51.0756 50.5765 51.0756 50.8416C51.0756 51.1067 50.8607 51.3216 50.5956 51.3216H29.3355C29.0704 51.3216 28.8555 51.1067 28.8555 50.8416Z"
    fill="#45413C"
  />
  <path
    fill-rule="evenodd"
    clip-rule="evenodd"
    d="M28.8555 55.0637C28.8555 54.7986 29.0704 54.5837 29.3355 54.5837H50.5956C50.8607 54.5837 51.0756 54.7986 51.0756 55.0637C51.0756 55.3288 50.8607 55.5437 50.5956 55.5437H29.3355C29.0704 55.5437 28.8555 55.3288 28.8555 55.0637Z"
    fill="#45413C"
  />
  <path d="M33.418 31.2048H60.8816V35.0448H33.418V31.2048Z" fill="#DAEDF7" />
  <path
    fill-rule="evenodd"
    clip-rule="evenodd"
    d="M32.9385 31.2049C32.9385 30.9398 33.1534 30.7249 33.4185 30.7249H60.8822C61.1473 30.7249 61.3622 30.9398 61.3622 31.2049V35.0449C61.3622 35.3099 61.1473 35.5249 60.8822 35.5249H33.4185C33.1534 35.5249 32.9385 35.3099 32.9385 35.0449V31.2049ZM33.8985 31.6849V34.5649H60.4022V31.6849H33.8985Z"
    fill="#45413C"
  />
  <path d="M33.418 24.1843H60.8816V28.0243H33.418V24.1843Z" fill="#DAEDF7" />
  <path
    fill-rule="evenodd"
    clip-rule="evenodd"
    d="M32.9385 24.1843C32.9385 23.9192 33.1534 23.7043 33.4185 23.7043H60.8822C61.1473 23.7043 61.3622 23.9192 61.3622 24.1843V28.0243C61.3622 28.2894 61.1473 28.5043 60.8822 28.5043H33.4185C33.1534 28.5043 32.9385 28.2894 32.9385 28.0243V24.1843ZM33.8985 24.6643V27.5443H60.4022V24.6643H33.8985Z"
    fill="#45413C"
  />
  <path
    d="M81.6078 46.5667C81.5041 46.5034 81.4246 46.4071 81.3824 46.2932C81.3401 46.1793 81.3375 46.0545 81.3749 45.9389C81.4122 45.8233 81.4875 45.7236 81.5884 45.6561C81.6894 45.5885 81.8102 45.5569 81.9313 45.5663L87.1787 45.9715C87.26 45.9779 87.3389 46.0026 87.4094 46.0438C87.4799 46.085 87.5402 46.1416 87.5857 46.2094C87.6312 46.2771 87.6608 46.3543 87.6723 46.4351C87.6837 46.516 87.6768 46.5983 87.6519 46.6761L86.9022 49.0185C86.8771 49.0964 86.8347 49.1676 86.7781 49.2267C86.7216 49.2859 86.6524 49.3314 86.5757 49.36C86.499 49.3885 86.4169 49.3993 86.3354 49.3916C86.2539 49.3838 86.1753 49.3577 86.1054 49.3151L81.6078 46.5667Z"
    fill="#FFE500"
  />
  <path
    fill-rule="evenodd"
    clip-rule="evenodd"
    d="M81.8934 46.0449C81.8798 46.0438 81.8663 46.0474 81.855 46.0549C81.8437 46.0625 81.8353 46.0736 81.8311 46.0866C81.8269 46.0995 81.8272 46.1135 81.8319 46.1262C81.8367 46.139 81.8456 46.1498 81.8572 46.1568L86.3544 48.9051C86.3545 48.9051 86.3543 48.9051 86.3544 48.9051C86.3623 48.9098 86.3713 48.9129 86.3805 48.9138C86.3897 48.9146 86.3991 48.9134 86.4078 48.9102C86.4165 48.9069 86.4243 48.9018 86.4307 48.8951C86.4371 48.8884 86.4419 48.8804 86.4448 48.8716C86.4448 48.8716 86.4447 48.8717 86.4448 48.8716L87.1943 46.53C87.1943 46.53 87.1943 46.53 87.1943 46.53C87.1971 46.5212 87.1979 46.5118 87.1966 46.5026C87.1953 46.4934 87.1919 46.4847 87.1868 46.477C87.1816 46.4693 87.1748 46.4629 87.1668 46.4582C87.1588 46.4536 87.1499 46.4508 87.1408 46.45C87.1407 46.45 87.1408 46.45 87.1408 46.45L81.8934 46.0449ZM81.968 45.0878C81.7394 45.07 81.5115 45.1296 81.3209 45.2572C81.1303 45.3848 80.9883 45.5729 80.9177 45.7912C80.8471 46.0094 80.8521 46.2451 80.9319 46.4602C81.0116 46.6751 81.1615 46.857 81.3572 46.9764C81.3571 46.9763 81.3573 46.9764 81.3572 46.9764L85.8554 49.7252C85.9873 49.8055 86.1357 49.8548 86.2894 49.8694C86.443 49.8841 86.598 49.8637 86.7427 49.8099C86.8874 49.756 87.018 49.67 87.1246 49.5585C87.2313 49.4469 87.3113 49.3126 87.3586 49.1656L88.1086 46.8225C88.1555 46.6757 88.1687 46.5202 88.1471 46.3677C88.1254 46.2152 88.0696 46.0696 87.9837 45.9417C87.8978 45.8139 87.7841 45.7071 87.6512 45.6294C87.5182 45.5517 87.3694 45.505 87.2158 45.493L81.968 45.0878C81.9679 45.0878 81.9681 45.0878 81.968 45.0878Z"
    fill="#B58B00"
  />
  <path
    d="M75.2266 36.0307C75.1633 36.1344 75.067 36.2138 74.9531 36.2561C74.8392 36.2984 74.7144 36.301 74.5988 36.2636C74.4832 36.2262 74.3835 36.151 74.316 36.05C74.2484 35.9491 74.2168 35.8283 74.2263 35.7072L74.6314 30.4598C74.6376 30.3785 74.6622 30.2996 74.7033 30.2291C74.7444 30.1586 74.8009 30.0984 74.8686 30.0528C74.9363 30.0073 75.0135 29.9777 75.0942 29.9662C75.175 29.9547 75.2574 29.9617 75.3351 29.9866L77.6784 30.7363C77.7563 30.7614 77.8275 30.8038 77.8866 30.8603C77.9458 30.9169 77.9914 30.9861 78.0199 31.0628C78.0485 31.1395 78.0592 31.2216 78.0515 31.3031C78.0437 31.3846 78.0176 31.4632 77.9751 31.5331L75.2266 36.0307Z"
    fill="#FFE500"
  />
  <path
    fill-rule="evenodd"
    clip-rule="evenodd"
    d="M75.1881 30.4437C75.1794 30.4409 75.1701 30.4402 75.1611 30.4414C75.1521 30.4427 75.1434 30.446 75.1359 30.4511C75.1283 30.4562 75.122 30.463 75.1174 30.4709C75.1128 30.4787 75.11 30.4876 75.1093 30.4967L74.7042 35.7442C74.7031 35.7577 74.7066 35.7718 74.7142 35.783C74.7217 35.7943 74.7329 35.8028 74.7458 35.8069C74.7588 35.8111 74.7727 35.8108 74.7855 35.8061C74.7982 35.8014 74.809 35.7925 74.8161 35.7809L77.5643 31.2837C77.5644 31.2836 77.5643 31.2837 77.5643 31.2837C77.5691 31.2758 77.5721 31.2667 77.573 31.2576C77.5739 31.2483 77.5726 31.239 77.5694 31.2303C77.5662 31.2216 77.561 31.2137 77.5543 31.2073C77.5476 31.2009 77.5396 31.1962 77.5309 31.1933C77.5308 31.1933 77.5309 31.1933 77.5309 31.1933L75.1881 30.4437ZM75.4807 29.5294C75.334 29.4825 75.1786 29.4693 75.0261 29.491C74.8736 29.5126 74.7279 29.5686 74.6001 29.6545C74.4723 29.7405 74.3656 29.8543 74.288 29.9874C74.2104 30.1205 74.164 30.2693 74.1521 30.4229L73.7471 35.6697C73.7471 35.6696 73.7471 35.6699 73.7471 35.6697M75.4807 29.5294C75.4807 29.5294 75.4806 29.5294 75.4807 29.5294V29.5294Z"
    fill="#B58B00"
  />
  <path
    d="M78.9703 41.1677C78.8522 41.1962 78.7279 41.1841 78.6174 41.1335C78.5069 41.0828 78.4167 40.9964 78.3613 40.8882C78.3059 40.78 78.2885 40.6564 78.3119 40.5371C78.3353 40.4178 78.3981 40.3099 78.4903 40.2307L84.1054 35.4211C84.1673 35.368 84.2405 35.3296 84.3194 35.3088C84.3984 35.288 84.481 35.2854 84.5611 35.3011C84.6411 35.3168 84.7166 35.3505 84.7819 35.3995C84.8471 35.4485 84.9004 35.5117 84.9377 35.5843L86.5198 38.6563C86.5574 38.7291 86.578 38.8095 86.58 38.8914C86.5821 38.9733 86.5654 39.0546 86.5314 39.1291C86.4974 39.2037 86.4468 39.2695 86.3836 39.3216C86.3204 39.3738 86.2461 39.4108 86.1665 39.4301L78.9703 41.1677Z"
    fill="#FFE500"
  />
  <path
    fill-rule="evenodd"
    clip-rule="evenodd"
    d="M84.4682 35.7722C84.4593 35.7704 84.45 35.7707 84.4412 35.773C84.4324 35.7754 84.4242 35.7796 84.4172 35.7856L78.8027 40.5948C78.8026 40.5948 78.8027 40.5947 78.8027 40.5948C78.7923 40.6037 78.7851 40.6161 78.7824 40.6295C78.7798 40.6431 78.7818 40.6571 78.788 40.6694C78.7943 40.6816 78.8046 40.6915 78.8171 40.6972C78.8296 40.703 78.8438 40.7043 78.8572 40.7011L86.0534 38.9635C86.0623 38.9613 86.0707 38.9572 86.0777 38.9513C86.0848 38.9455 86.0905 38.9381 86.0943 38.9298C86.0981 38.9214 86.1 38.9123 86.0997 38.9032C86.0995 38.894 86.0972 38.885 86.093 38.8769L86.0926 38.8761L84.5105 35.8041C84.5063 35.7959 84.5002 35.7887 84.4929 35.7832C84.4856 35.7777 84.4772 35.7739 84.4682 35.7722ZM84.1968 34.8447C84.3458 34.8054 84.5018 34.8005 84.6529 34.8301C84.8041 34.8598 84.9467 34.9233 85.0698 35.0159C85.1929 35.1084 85.2935 35.2276 85.364 35.3645C85.364 35.3646 85.3639 35.3645 85.364 35.3645L86.9456 38.4357C86.9457 38.4359 86.9455 38.4355 86.9456 38.4357C87.0165 38.573 87.0556 38.7251 87.0594 38.8796C87.0632 39.0343 87.0318 39.1878 86.9676 39.3285C86.9033 39.4692 86.8079 39.5935 86.6885 39.692C86.5692 39.7904 86.4291 39.8604 86.2787 39.8967M86.2787 39.8967L79.0826 41.6342C79.0826 41.6342 79.0826 41.6342 79.0826 41.6342C78.8597 41.6881 78.6252 41.6654 78.4168 41.5697C78.2084 41.4741 78.0382 41.3112 77.9336 41.1071C77.8291 40.903 77.7963 40.6697 77.8404 40.4447C77.8846 40.2197 78.0031 40.0161 78.177 39.8667L78.1776 39.8662L83.7926 35.0566C83.7926 35.0566 83.7925 35.0566 83.7926 35.0566C83.9096 34.9564 84.0478 34.8839 84.1968 34.8447"
    fill="#B58B00"
  />
  <path
    d="M78.1188 53.6121C78.1136 53.1107 77.9352 52.6265 77.6138 52.2415C77.2924 51.8566 76.8478 51.5947 76.3553 51.5001V50.0841C76.3553 47.2771 75.2402 44.585 73.2553 42.6001C71.2704 40.6152 68.5783 39.5001 65.7713 39.5001C62.9642 39.5001 60.2721 40.6152 58.2873 42.6001C56.3024 44.585 55.1873 47.2771 55.1873 50.0841V51.4963C54.6723 51.592 54.2097 51.8715 53.8855 52.2828C53.5613 52.6941 53.3976 53.2092 53.4248 53.7323C53.452 54.2553 53.6684 54.7506 54.0336 55.126C54.3988 55.5015 54.8879 55.7314 55.41 55.7731C55.9063 58.1539 57.2074 60.2912 59.0944 61.8254C60.9814 63.3597 63.3393 64.1972 65.7713 64.1972C68.2033 64.1972 70.5611 63.3597 72.4482 61.8254C74.3352 60.2912 75.6363 58.1539 76.1326 55.7731C76.6729 55.724 77.1756 55.4755 77.5428 55.076C77.91 54.6765 78.1153 54.1547 78.1188 53.6121Z"
    fill="#FFDA8F"
  />
  <path
    fill-rule="evenodd"
    clip-rule="evenodd"
    d="M57.9474 42.2607C60.0223 40.1858 62.8365 39.0201 65.7708 39.0201C68.7052 39.0201 71.5193 40.1858 73.5942 42.2607C75.6691 44.3356 76.8348 47.1498 76.8348 50.0841V51.1348C77.2794 51.293 77.6762 51.5679 77.9818 51.9339C78.3742 52.4038 78.592 52.995 78.5983 53.6072L78.5984 53.6152H78.5983C78.5941 54.277 78.3436 54.9136 77.8957 55.4008C77.5292 55.7996 77.052 56.075 76.5294 56.1948C75.9635 58.5533 74.6372 60.6639 72.7505 62.1979C70.7779 63.8017 68.3131 64.6773 65.7708 64.6773C63.2285 64.6773 60.7637 63.8017 58.7911 62.1979C56.9053 60.6647 55.5793 58.5552 55.013 56.198C54.5117 56.0875 54.0506 55.8325 53.689 55.4607C53.2427 55.0019 52.9783 54.3965 52.945 53.7572C52.9117 53.118 53.1118 52.4884 53.5081 51.9857C53.82 51.59 54.2366 51.2941 54.7068 51.129V50.0841C54.7068 47.1498 55.8725 44.3356 57.9474 42.2607ZM65.7708 39.9801C63.0911 39.9801 60.5211 41.0447 58.6262 42.9395C56.7313 44.8344 55.6668 47.4044 55.6668 50.0841V51.4963C55.6668 51.7276 55.5019 51.926 55.2745 51.9682C54.874 52.0426 54.5142 52.26 54.262 52.58C54.0098 52.8999 53.8825 53.3005 53.9037 53.7073C53.9249 54.1141 54.0931 54.4994 54.3772 54.7914C54.6612 55.0834 55.0417 55.2622 55.4477 55.2946C55.6601 55.3116 55.8359 55.4665 55.8794 55.6751C56.3532 57.948 57.5953 59.9884 59.3967 61.453C61.1982 62.9177 63.4491 63.7173 65.7708 63.7173C68.0925 63.7173 70.3434 62.9177 72.1449 61.453C73.9463 59.9884 75.1884 57.948 75.6622 55.6751C75.7053 55.4685 75.8784 55.3142 76.0886 55.2951C76.5102 55.2568 76.9025 55.0629 77.1889 54.7512C77.4745 54.4405 77.6346 54.035 77.6383 53.6131C77.6334 53.2238 77.4944 52.8481 77.2449 52.5492C76.9944 52.2493 76.648 52.0452 76.2643 51.9715C76.0382 51.9281 75.8748 51.7303 75.8748 51.5001V50.0841C75.8748 47.4044 74.8103 44.8344 72.9154 42.9395C71.0205 41.0447 68.4506 39.9801 65.7708 39.9801Z"
    fill="#45413C"
  />
  <path
    d="M58.7148 54.9351C58.7148 55.2859 58.8542 55.6224 59.1023 55.8705C59.3504 56.1186 59.6869 56.2579 60.0377 56.2579C60.3886 56.2579 60.7251 56.1186 60.9731 55.8705C61.2212 55.6224 61.3606 55.2859 61.3606 54.9351C61.3606 54.5842 61.2212 54.2477 60.9731 53.9996C60.7251 53.7516 60.3886 53.6122 60.0377 53.6122C59.6869 53.6122 59.3504 53.7516 59.1023 53.9996C58.8542 54.2477 58.7148 54.5842 58.7148 54.9351Z"
    fill="#FFBE3D"
  />
  <path
    d="M70.1816 54.9351C70.1816 55.2859 70.321 55.6224 70.5691 55.8705C70.8172 56.1186 71.1537 56.2579 71.5045 56.2579C71.8554 56.2579 72.1919 56.1186 72.4399 55.8705C72.688 55.6224 72.8274 55.2859 72.8274 54.9351C72.8274 54.5842 72.688 54.2477 72.4399 53.9996C72.1919 53.7516 71.8554 53.6122 71.5045 53.6122C71.1537 53.6122 70.8172 53.7516 70.5691 53.9996C70.321 54.2477 70.1816 54.5842 70.1816 54.9351Z"
    fill="#FFBE3D"
  />
  <path
    fill-rule="evenodd"
    clip-rule="evenodd"
    d="M62.7261 57.837C62.8731 57.6164 63.1711 57.5566 63.3917 57.7036C64.0965 58.1731 64.9244 58.4237 65.7713 58.4237C66.6182 58.4237 67.4462 58.1731 68.151 57.7036C68.3716 57.5566 68.6696 57.6164 68.8166 57.837C68.9635 58.0576 68.9038 58.3556 68.6832 58.5026C67.8208 59.0771 66.8076 59.3837 65.7713 59.3837C64.735 59.3837 63.7219 59.0771 62.8594 58.5026C62.6388 58.3556 62.5791 58.0576 62.7261 57.837Z"
    fill="#45413C"
  />
  <path
    d="M71.5045 56.256C71.7661 56.2558 72.0218 56.1781 72.2392 56.0326C72.4566 55.8871 72.626 55.6804 72.726 55.4387C72.826 55.1969 72.852 54.931 72.8009 54.6744C72.7497 54.4179 72.6237 54.1823 72.4386 53.9974C72.2536 53.8124 72.0179 53.6865 71.7613 53.6356C71.5047 53.5846 71.2387 53.6109 70.9971 53.711C70.7554 53.8112 70.5489 53.9807 70.4035 54.1983C70.2582 54.4158 70.1807 54.6715 70.1807 54.9331"
    fill="#FFBE3D"
  />
  <path
    d="M78.1188 53.6121C78.1136 53.1107 77.9352 52.6265 77.6138 52.2415C77.2924 51.8566 76.8478 51.5947 76.3553 51.5001V50.0841C76.3553 47.2771 75.2402 44.585 73.2553 42.6001C71.2704 40.6152 68.5783 39.5001 65.7713 39.5001C62.9642 39.5001 60.2721 40.6152 58.2873 42.6001C56.3024 44.585 55.1873 47.2771 55.1873 50.0841V51.4963C54.6723 51.592 54.2097 51.8715 53.8855 52.2828C53.5613 52.6941 53.3976 53.2092 53.4248 53.7323C53.452 54.2553 53.6684 54.7506 54.0336 55.126C54.3988 55.5015 54.8879 55.7314 55.41 55.7731C55.9063 58.1539 57.2074 60.2912 59.0944 61.8254C60.9814 63.3597 63.3393 64.1972 65.7713 64.1972C68.2033 64.1972 70.5611 63.3597 72.4482 61.8254C74.3352 60.2912 75.6363 58.1539 76.1326 55.7731C76.6729 55.724 77.1756 55.4755 77.5428 55.076C77.91 54.6765 78.1153 54.1547 78.1188 53.6121Z"
    fill="#D18660"
  />
  <path
    fill-rule="evenodd"
    clip-rule="evenodd"
    d="M57.9474 42.2607C60.0223 40.1858 62.8365 39.0201 65.7708 39.0201C68.7052 39.0201 71.5193 40.1858 73.5942 42.2607C75.6691 44.3356 76.8348 47.1498 76.8348 50.0841V51.1348C77.2794 51.293 77.6762 51.5679 77.9818 51.9339C78.3742 52.4038 78.592 52.995 78.5983 53.6072L78.5984 53.6152H78.5983C78.5941 54.277 78.3436 54.9136 77.8957 55.4008C77.5292 55.7996 77.052 56.075 76.5294 56.1948C75.9635 58.5533 74.6372 60.6639 72.7505 62.1979C70.7779 63.8017 68.3131 64.6773 65.7708 64.6773C63.2285 64.6773 60.7637 63.8017 58.7911 62.1979C56.9053 60.6647 55.5793 58.5552 55.013 56.198C54.5117 56.0875 54.0506 55.8325 53.689 55.4607C53.2427 55.0019 52.9783 54.3965 52.945 53.7572C52.9117 53.118 53.1118 52.4884 53.5081 51.9857C53.82 51.59 54.2366 51.2941 54.7068 51.129V50.0841C54.7068 47.1498 55.8725 44.3356 57.9474 42.2607ZM65.7708 39.9801C63.0911 39.9801 60.5211 41.0447 58.6262 42.9395C56.7313 44.8344 55.6668 47.4044 55.6668 50.0841V51.4963C55.6668 51.7276 55.5019 51.926 55.2745 51.9682C54.874 52.0426 54.5142 52.26 54.262 52.58C54.0098 52.8999 53.8825 53.3005 53.9037 53.7073C53.9249 54.1141 54.0931 54.4994 54.3772 54.7914C54.6612 55.0834 55.0417 55.2622 55.4477 55.2946C55.6601 55.3116 55.8359 55.4665 55.8794 55.6751C56.3532 57.948 57.5953 59.9884 59.3967 61.453C61.1982 62.9177 63.4491 63.7173 65.7708 63.7173C68.0925 63.7173 70.3434 62.9177 72.1449 61.453C73.9463 59.9884 75.1884 57.948 75.6622 55.6751C75.7053 55.4685 75.8784 55.3142 76.0886 55.2951C76.5102 55.2568 76.9025 55.0629 77.1889 54.7512C77.4745 54.4405 77.6346 54.035 77.6383 53.6131C77.6334 53.2238 77.4944 52.8481 77.2449 52.5492C76.9944 52.2493 76.648 52.0452 76.2643 51.9715C76.0382 51.9281 75.8748 51.7303 75.8748 51.5001V50.0841C75.8748 47.4044 74.8103 44.8344 72.9154 42.9395C71.0205 41.0447 68.4506 39.9801 65.7708 39.9801Z"
    fill="#45413C"
  />
  <path
    d="M58.7148 54.9351C58.7148 55.2859 58.8542 55.6224 59.1023 55.8705C59.3504 56.1186 59.6869 56.2579 60.0377 56.2579C60.3886 56.2579 60.7251 56.1186 60.9731 55.8705C61.2212 55.6224 61.3606 55.2859 61.3606 54.9351C61.3606 54.5842 61.2212 54.2477 60.9731 53.9996C60.7251 53.7516 60.3886 53.6122 60.0377 53.6122C59.6869 53.6122 59.3504 53.7516 59.1023 53.9996C58.8542 54.2477 58.7148 54.5842 58.7148 54.9351Z"
    fill="#BD704A"
  />
  <path
    d="M70.1816 54.9351C70.1816 55.2859 70.321 55.6224 70.5691 55.8705C70.8172 56.1186 71.1537 56.2579 71.5045 56.2579C71.8554 56.2579 72.1919 56.1186 72.4399 55.8705C72.688 55.6224 72.8274 55.2859 72.8274 54.9351C72.8274 54.5842 72.688 54.2477 72.4399 53.9996C72.1919 53.7516 71.8554 53.6122 71.5045 53.6122C71.1537 53.6122 70.8172 53.7516 70.5691 53.9996C70.321 54.2477 70.1816 54.5842 70.1816 54.9351Z"
    fill="#BD704A"
  />
  <path
    fill-rule="evenodd"
    clip-rule="evenodd"
    d="M62.7261 57.837C62.8731 57.6164 63.1711 57.5566 63.3917 57.7036C64.0965 58.1731 64.9244 58.4237 65.7713 58.4237C66.6182 58.4237 67.4462 58.1731 68.151 57.7036C68.3716 57.5566 68.6696 57.6164 68.8166 57.837C68.9635 58.0576 68.9038 58.3556 68.6832 58.5026C67.8208 59.0771 66.8076 59.3837 65.7713 59.3837C64.735 59.3837 63.7219 59.0771 62.8594 58.5026C62.6388 58.3556 62.5791 58.0576 62.7261 57.837Z"
    fill="#45413C"
  />
  <path
    d="M60.4785 51.407C60.4785 51.5807 60.5127 51.7527 60.5792 51.9132C60.6457 52.0737 60.7431 52.2196 60.866 52.3424C60.9888 52.4652 61.1347 52.5627 61.2952 52.6292C61.4557 52.6957 61.6277 52.7299 61.8014 52.7299C61.9751 52.7299 62.1471 52.6957 62.3076 52.6292C62.4681 52.5627 62.614 52.4652 62.7368 52.3424C62.8597 52.2196 62.9571 52.0737 63.0236 51.9132C63.0901 51.7527 63.1243 51.5807 63.1243 51.407C63.1243 51.2333 63.0901 51.0612 63.0236 50.9007C62.9571 50.7402 62.8597 50.5944 62.7368 50.4716C62.614 50.3487 62.4681 50.2513 62.3076 50.1848C62.1471 50.1183 61.9751 50.0841 61.8014 50.0841C61.6277 50.0841 61.4557 50.1183 61.2952 50.1848C61.1347 50.2513 60.9888 50.3487 60.866 50.4716C60.7431 50.5944 60.6457 50.7402 60.5792 50.9007C60.5127 51.0612 60.4785 51.2333 60.4785 51.407Z"
    fill="#45413C"
  />
  <path
    d="M68.417 51.407C68.417 51.7578 68.5564 52.0943 68.8045 52.3424C69.0525 52.5905 69.389 52.7299 69.7399 52.7299C70.0907 52.7299 70.4272 52.5905 70.6753 52.3424C70.9234 52.0943 71.0628 51.7578 71.0628 51.407C71.0628 51.0561 70.9234 50.7197 70.6753 50.4716C70.4272 50.2235 70.0907 50.0841 69.7399 50.0841C69.389 50.0841 69.0525 50.2235 68.8045 50.4716C68.5564 50.7197 68.417 51.0561 68.417 51.407Z"
    fill="#45413C"
  />
  <path
    d="M74.5921 48.3197C75.0596 48.3212 75.5075 48.5076 75.8381 48.8382C76.1687 49.1687 76.3551 49.6167 76.3566 50.0842V51.4963C76.8702 51.5936 77.3312 51.8738 77.6541 52.2849C77.9769 52.6961 78.1398 53.2104 78.1125 53.7324C78.0852 54.2545 77.8696 54.7489 77.5056 55.1242C77.1416 55.4994 76.6539 55.73 76.1329 55.7731C75.6589 58.0462 74.4498 60.1001 72.6923 61.6176C75.9106 61.6447 79.0714 60.7644 81.8123 59.0774C82.018 58.9543 82.1974 58.7915 82.3399 58.5987C82.4824 58.4058 82.5854 58.1866 82.6428 57.9537C82.7001 57.7209 82.7109 57.479 82.6743 57.242C82.6377 57.0049 82.5545 56.7775 82.4295 56.5728C80.2882 53.1713 78.7041 49.4495 77.7371 45.5482C76.3796 40.2384 71.0679 35.9722 65.7755 35.9722C60.483 35.9722 55.1723 40.2384 53.8139 45.5482C52.8456 49.4497 51.2602 53.1715 49.1176 56.5728C48.9926 56.7775 48.9094 57.0049 48.8728 57.242C48.8362 57.479 48.8469 57.7209 48.9043 57.9537C48.9617 58.1866 49.0647 58.4058 49.2072 58.5987C49.3497 58.7915 49.5291 58.9543 49.7348 59.0774C52.4738 60.7631 55.6321 61.6435 58.8481 61.6176C57.0921 60.1005 55.8841 58.0477 55.4104 55.776C54.8882 55.7345 54.399 55.5047 54.0337 55.1293C53.6683 54.754 53.4519 54.2587 53.4245 53.7356C53.3972 53.2126 53.5608 52.6974 53.885 52.286C54.2091 51.8746 54.6717 51.595 55.1867 51.4992V50.0842C55.1879 49.6168 55.3741 49.1688 55.7045 48.8382C56.035 48.5076 56.4828 48.3212 56.9502 48.3197H74.5921Z"
    fill="#724F3D"
  />
  <path
    d="M65.7711 39.5002C71.0578 39.5002 75.6197 41.9808 77.7384 45.5664L77.7327 45.5482C76.3752 40.2384 71.0636 35.9722 65.7711 35.9722C60.4786 35.9722 55.1679 40.2384 53.8095 45.5482L53.8047 45.5664C55.9234 41.9808 60.4844 39.5002 65.7711 39.5002Z"
    fill="#A86C4D"
  />
  <path
    fill-rule="evenodd"
    clip-rule="evenodd"
    d="M53.3484 45.4292C54.758 39.9193 60.2509 35.4922 65.775 35.4922C71.2991 35.4922 76.793 39.9192 78.2016 45.4293L78.2025 45.4327C79.1573 49.2844 80.7212 52.9589 82.8353 56.3171L82.8388 56.3227C82.9968 56.5815 83.1019 56.8691 83.1482 57.1687C83.1944 57.4684 83.1809 57.7742 83.1084 58.0686C83.0358 58.363 82.9057 58.6401 82.7255 58.884C82.5459 59.127 82.3201 59.3321 82.0611 59.4877C79.2439 61.2209 75.9954 62.1255 72.6878 62.0976C72.488 62.0959 72.3101 61.9706 72.2412 61.7831C72.1723 61.5955 72.2269 61.3849 72.3781 61.2543C74.0558 59.8057 75.2101 57.8451 75.6626 55.6752C75.7059 55.4671 75.881 55.3123 76.0928 55.2948C76.4981 55.2612 76.8774 55.0819 77.1606 54.79C77.4437 54.4981 77.6114 54.1135 77.6327 53.7074C77.6539 53.3013 77.5272 52.9012 77.2761 52.5814C77.0249 52.2616 76.6664 52.0436 76.2668 51.968C76.0402 51.925 75.8761 51.727 75.8761 51.4963L75.8761 50.0857C75.8761 50.0855 75.8761 50.0853 75.8761 50.085C75.8748 49.7445 75.739 49.4184 75.4982 49.1776C75.2575 48.9368 74.9313 48.801 74.5908 48.7997H56.9505C56.6102 48.801 56.2842 48.9368 56.0436 49.1776C55.8029 49.4183 55.6673 49.7445 55.6662 50.0848V51.4992C55.6662 51.7305 55.5013 51.9289 55.274 51.9711C54.8734 52.0456 54.5136 52.2631 54.2615 52.5831C54.0094 52.903 53.8821 53.3037 53.9034 53.7106C53.9247 54.1174 54.093 54.5026 54.3772 54.7946C54.6613 55.0865 55.0418 55.2652 55.4479 55.2975C55.6604 55.3144 55.8363 55.4694 55.8798 55.678C56.332 57.8466 57.4852 59.8061 59.1615 61.2544C59.3127 61.385 59.3671 61.5957 59.2982 61.7832C59.2292 61.9708 59.0513 62.096 58.8515 62.0976C55.5462 62.1242 52.3003 61.2197 49.4851 59.4877C49.2261 59.3321 49.0003 59.127 48.8207 58.884C48.6405 58.6401 48.5104 58.363 48.4378 58.0686C48.3653 57.7742 48.3517 57.4684 48.398 57.1687C48.4443 56.8691 48.5494 56.5815 48.7074 56.3227L48.7109 56.317C50.8263 52.9589 52.3916 49.2845 53.3475 45.4326L53.3484 45.4292ZM54.2788 45.6655C53.2985 49.6149 51.6938 53.3824 49.5252 56.8256C49.4341 56.9755 49.3735 57.1419 49.3467 57.3152C49.3198 57.4896 49.3277 57.6676 49.3699 57.8389C49.4121 58.0102 49.4879 58.1715 49.5927 58.3134C49.6976 58.4553 49.8296 58.575 49.9809 58.6656L49.986 58.6687C52.3019 60.094 54.9264 60.927 57.6279 61.103C56.3567 59.7221 55.4544 58.0358 55.0134 56.2011C54.512 56.0907 54.0509 55.8358 53.6892 55.4641C53.2427 55.0054 52.9781 54.4 52.9447 53.7607C52.9113 53.1214 53.1113 52.4918 53.5075 51.9889C53.8193 51.5931 54.236 51.2972 54.7062 51.132V50.0842L54.7062 50.0829C54.7078 49.4887 54.9445 48.9192 55.3646 48.4989C55.7846 48.0786 56.3539 47.8416 56.9482 47.8397L56.9497 47.8397L74.5932 47.8397C75.1875 47.8416 75.7568 48.0786 76.1771 48.4988C76.5973 48.919 76.8342 49.4884 76.8361 50.0826L76.8361 50.0842L76.8361 51.1303C77.3051 51.2965 77.7204 51.5929 78.0311 51.9885C78.4257 52.491 78.6247 53.1195 78.5914 53.7575C78.558 54.3955 78.2945 54.9998 77.8496 55.4584C77.4892 55.83 77.0294 56.0855 76.5292 56.1971C76.0879 58.0337 75.1845 59.7216 73.9117 61.1035C76.6155 60.9284 79.2423 60.0953 81.5602 58.6687L81.5652 58.6656C81.7166 58.575 81.8485 58.4553 81.9534 58.3134C82.0583 58.1715 82.134 58.0102 82.1762 57.8389C82.2185 57.6676 82.2263 57.4896 82.1994 57.3152C82.1727 57.1419 82.112 56.9755 82.021 56.8255C79.8537 53.382 78.2502 49.6145 77.2711 45.6652C75.9641 40.5567 70.8353 36.4522 65.775 36.4522C60.7147 36.4522 55.5867 40.5567 54.2788 45.6655Z"
    fill="#45413C"
  />
</svg>
