<svg
  id="graphic-scratchpad"
  viewBox="0 0 48 48"
  fill="none"
  xmlns="http://www.w3.org/2000/svg"
>
  <path
    d="M0 24C0 30.3652 2.52856 36.4697 7.02944 40.9706C11.5303 45.4714 17.6348 48 24 48C30.3652 48 36.4697 45.4714 40.9706 40.9706C45.4714 36.4697 48 30.3652 48 24C48 17.6348 45.4714 11.5303 40.9706 7.02944C36.4697 2.52856 30.3652 0 24 0C17.6348 0 11.5303 2.52856 7.02944 7.02944C2.52856 11.5303 0 17.6348 0 24Z"
    fill="#6C63FF"
    fill-opacity="0.1"
  />
  <path
    opacity="0.15"
    d="M16.627 44.1708C16.627 44.313 16.8137 44.4539 17.1764 44.5853C17.5392 44.7167 18.0709 44.8361 18.7412 44.9366C19.4115 45.0372 20.2073 45.117 21.0831 45.1714C21.9589 45.2258 22.8976 45.2538 23.8456 45.2538C24.7935 45.2538 25.7322 45.2258 26.608 45.1714C27.4838 45.117 28.2796 45.0372 28.9499 44.9366C29.6202 44.8361 30.1519 44.7167 30.5147 44.5853C30.8774 44.4539 31.0642 44.313 31.0642 44.1708C31.0642 44.0286 30.8774 43.8878 30.5147 43.7564C30.1519 43.625 29.6202 43.5056 28.9499 43.405C28.2796 43.3045 27.4838 43.2247 26.608 43.1703C25.7322 43.1158 24.7935 43.0878 23.8456 43.0878C22.8976 43.0878 21.9589 43.1158 21.0831 43.1703C20.2073 43.2247 19.4115 43.3045 18.7412 43.405C18.0709 43.5056 17.5392 43.625 17.1764 43.7564C16.8137 43.8878 16.627 44.0286 16.627 44.1708Z"
    fill="#45413C"
  />
  <path
    d="M38.9442 10.5804C38.9442 10.1974 38.792 9.83007 38.5212 9.55923C38.2503 9.28839 37.883 9.13623 37.5 9.13623H12.0198C11.6369 9.13639 11.2697 9.28862 10.999 9.55944C10.7282 9.83026 10.5762 10.1975 10.5762 10.5804V36.06C10.5762 36.4429 10.7283 36.8101 10.999 37.0808C11.2697 37.3515 11.6369 37.5036 12.0198 37.5036H30.8442C35.0208 35.931 37.8504 33.2886 38.9442 29.2788V10.5804Z"
    fill="#FFF48C"
  />
  <path
    d="M38.9442 10.5804C38.9442 10.1974 38.792 9.83007 38.5212 9.55923C38.2503 9.28839 37.883 9.13623 37.5 9.13623H12.0198C11.6369 9.13639 11.2697 9.28862 10.999 9.55944C10.7282 9.83026 10.5762 10.1975 10.5762 10.5804V36.06C10.5762 36.4429 10.7283 36.8101 10.999 37.0808C11.2697 37.3515 11.6369 37.5036 12.0198 37.5036H30.8442C35.0208 35.931 37.8504 33.2886 38.9442 29.2788V10.5804Z"
    fill="#FFF48C"
    stroke="#45413C"
    stroke-width="1.4"
    stroke-linecap="round"
    stroke-linejoin="round"
  />
  <path
    d="M14.9614 18.0787L15.4318 18.5335C15.5824 18.679 15.7846 18.7587 15.994 18.7553C16.2033 18.7518 16.4028 18.6653 16.5484 18.5149L17.0032 18.0445C17.149 17.894 17.3486 17.8076 17.5581 17.8042C17.7676 17.8008 17.9699 17.8808 18.1204 18.0265L18.5908 18.4807C18.6653 18.5529 18.7533 18.6096 18.8497 18.6478C18.9462 18.6859 19.0492 18.7047 19.1529 18.703C19.2565 18.7013 19.3589 18.6793 19.454 18.638C19.5492 18.5968 19.6353 18.5372 19.7074 18.4627L20.1622 17.9923C20.308 17.8418 20.5076 17.7554 20.7171 17.752C20.9266 17.7486 21.1289 17.8286 21.2794 17.9743L21.841 18.4843C21.9156 18.5564 22.0036 18.6131 22.1 18.6512C22.1965 18.6893 22.2995 18.708 22.4032 18.7063C22.5069 18.7046 22.6092 18.6824 22.7043 18.6412C22.7995 18.5999 22.8855 18.5403 22.9576 18.4657L23.413 17.9959C23.4851 17.9213 23.5711 17.8616 23.6663 17.8203C23.7614 17.779 23.8638 17.7568 23.9675 17.7551C24.0712 17.7534 24.1742 17.7721 24.2707 17.8102C24.3671 17.8484 24.4551 17.9052 24.5296 17.9773L25.1296 18.5335C25.2802 18.679 25.4824 18.7587 25.6918 18.7553C25.9011 18.7518 26.1005 18.6653 26.2462 18.5149L26.7016 18.0445C26.7738 17.97 26.8599 17.9105 26.955 17.8692C27.0502 17.828 27.1525 17.8059 27.2562 17.8042C27.3599 17.8026 27.4629 17.8213 27.5593 17.8595C27.6558 17.8976 27.7437 17.9544 27.8182 18.0265L28.2886 18.4807C28.4392 18.6265 28.6414 18.7064 28.851 18.7031C29.0605 18.6997 29.26 18.6132 29.4058 18.4627L29.8606 17.9923C29.9328 17.9178 30.0189 17.8583 30.114 17.817C30.2092 17.7758 30.3115 17.7537 30.4152 17.752C30.5189 17.7504 30.6219 17.7691 30.7183 17.8073C30.8148 17.8454 30.9027 17.9022 30.9772 17.9743L31.5388 18.4843C31.6134 18.5564 31.7014 18.6131 31.7978 18.6512C31.8943 18.6893 31.9973 18.708 32.101 18.7063C32.2047 18.7046 32.307 18.6824 32.4021 18.6412C32.4973 18.5999 32.5833 18.5403 32.6554 18.4657L33.1108 17.9959C33.1829 17.9213 33.269 17.8616 33.3642 17.8203C33.4594 17.7789 33.5618 17.7568 33.6656 17.755C33.7693 17.7533 33.8724 17.7721 33.9689 17.8102C34.0654 17.8483 34.1535 17.9051 34.228 17.9773L34.6978 18.4321"
    stroke="#45413C"
    stroke-width="1.4"
    stroke-linecap="round"
    stroke-linejoin="round"
  />
  <path
    d="M14.9614 23.5452L15.4318 24C15.5063 24.0722 15.5943 24.129 15.6908 24.1671C15.7872 24.2053 15.8903 24.224 15.994 24.2223C16.0977 24.2206 16.2 24.1984 16.2952 24.1571C16.3903 24.1157 16.4764 24.0561 16.5484 23.9814L17.0032 23.5116C17.0753 23.437 17.1614 23.3773 17.2566 23.336C17.3518 23.2947 17.4542 23.2725 17.558 23.2708C17.6617 23.269 17.7648 23.2878 17.8613 23.3259C17.9578 23.3641 18.0459 23.4209 18.1204 23.493L18.5908 23.9478C18.6653 24.02 18.7533 24.0768 18.8498 24.1149C18.9462 24.1531 19.0493 24.1718 19.153 24.1701C19.2567 24.1684 19.359 24.1462 19.4542 24.1049C19.5493 24.0635 19.6354 24.0039 19.7074 23.9292L20.1598 23.46C20.2319 23.3854 20.318 23.3257 20.4132 23.2844C20.5084 23.2431 20.6108 23.2209 20.7146 23.2192C20.8183 23.2174 20.9214 23.2362 21.0179 23.2743C21.1144 23.3125 21.2025 23.3693 21.277 23.4414L21.8386 23.9514C21.9131 24.0236 22.0011 24.0804 22.0976 24.1185C22.194 24.1567 22.2971 24.1754 22.4008 24.1737C22.5045 24.172 22.6068 24.1498 22.702 24.1085C22.7971 24.0671 22.8832 24.0075 22.9552 23.9328L23.4106 23.463C23.4827 23.3885 23.5688 23.3289 23.6639 23.2876C23.7591 23.2463 23.8614 23.2242 23.9651 23.2225C24.0688 23.2207 24.1718 23.2395 24.2682 23.2775C24.3647 23.3156 24.4527 23.3723 24.5272 23.4444L25.1272 24.0006C25.2017 24.0728 25.2897 24.1296 25.3862 24.1677C25.4826 24.2059 25.5857 24.2246 25.6894 24.2229C25.7931 24.2212 25.8954 24.199 25.9906 24.1577C26.0857 24.1163 26.1718 24.0567 26.2438 23.982L26.6992 23.5122C26.7713 23.4376 26.8573 23.378 26.9525 23.3366C27.0476 23.2953 27.15 23.2731 27.2537 23.2714C27.3574 23.2697 27.4604 23.2884 27.5569 23.3266C27.6533 23.3647 27.7413 23.4215 27.8158 23.4936L28.2862 23.9484C28.3608 24.0206 28.4488 24.0774 28.5453 24.1156C28.6418 24.1537 28.7449 24.1725 28.8487 24.1707C28.9524 24.169 29.0548 24.1468 29.15 24.1055C29.2452 24.0642 29.3313 24.0045 29.4034 23.9298L29.8582 23.46C29.9303 23.3854 30.0163 23.3258 30.1115 23.2844C30.2066 23.2431 30.309 23.2209 30.4127 23.2192C30.5164 23.2175 30.6194 23.2362 30.7159 23.2744C30.8123 23.3125 30.9003 23.3693 30.9748 23.4414L31.5364 23.9514C31.6109 24.0236 31.6989 24.0804 31.7954 24.1185C31.8918 24.1567 31.9949 24.1754 32.0986 24.1737C32.2023 24.172 32.3046 24.1498 32.3998 24.1085C32.4949 24.0671 32.581 24.0075 32.653 23.9328L33.1084 23.463C33.2541 23.3125 33.4537 23.2259 33.6632 23.2224C33.8727 23.2189 34.075 23.2988 34.2256 23.4444L34.6954 23.8992"
    stroke="#45413C"
    stroke-width="1.4"
    stroke-linecap="round"
    stroke-linejoin="round"
  />
  <path
    d="M14.9614 29.0118L15.4318 29.4666C15.5063 29.5387 15.5943 29.5955 15.6907 29.6336C15.7872 29.6718 15.8902 29.6905 15.9939 29.6889C16.0975 29.6872 16.1999 29.6651 16.295 29.6239C16.3902 29.5827 16.4763 29.5231 16.5484 29.4486L17.0032 28.9782C17.149 28.8277 17.3485 28.7413 17.558 28.7378C17.7674 28.7343 17.9697 28.8141 18.1204 28.9596L18.5908 29.4144C18.6653 29.4865 18.7533 29.5433 18.8497 29.5814C18.9462 29.6196 19.0492 29.6383 19.1529 29.6367C19.2565 29.635 19.3589 29.6129 19.454 29.5717C19.5492 29.5305 19.6353 29.4709 19.7074 29.3964L20.1622 28.926C20.308 28.7755 20.5075 28.6891 20.717 28.6856C20.9264 28.6821 21.1287 28.7619 21.2794 28.9074L21.841 29.418C21.9155 29.4901 22.0035 29.5469 22.0999 29.585C22.1964 29.6232 22.2994 29.6419 22.4031 29.6403C22.5067 29.6386 22.6091 29.6165 22.7042 29.5753C22.7994 29.5341 22.8855 29.4745 22.9576 29.4L23.413 28.9296C23.4852 28.8551 23.5713 28.7955 23.6664 28.7543C23.7616 28.7131 23.8639 28.691 23.9676 28.6893C24.0713 28.6876 24.1743 28.7064 24.2707 28.7445C24.3672 28.7827 24.4551 28.8394 24.5296 28.9116L25.1296 29.4672"
    stroke="#45413C"
    stroke-width="1.4"
    stroke-linecap="round"
    stroke-linejoin="round"
  />
  <path
    d="M30.325 30.2153C30.2186 30.2557 30.1233 30.3207 30.0469 30.405C29.9705 30.4893 29.9151 30.5905 29.8854 30.7003C29.8556 30.8102 29.8524 30.9255 29.8758 31.0368C29.8992 31.1482 29.9487 31.2524 30.0202 31.3409C31.234 32.8559 31.3876 34.6145 30.8446 37.5047L34.1602 34.9385L37.3006 30.6359C37.3006 30.6359 33.3934 29.0399 30.325 30.2153Z"
    fill="#FFE500"
  />
  <path
    d="M30.8442 37.5048C30.8442 37.5048 33.1176 35.1222 32.1534 30.1362C32.1341 30.0363 32.1361 29.9335 32.1592 29.8344C32.1824 29.7354 32.2261 29.6423 32.2877 29.5613C32.3492 29.4803 32.4272 29.4133 32.5165 29.3645C32.6057 29.3157 32.7042 29.2863 32.8056 29.2782C37.5846 28.9038 38.9442 29.2782 38.9442 29.2782C37.8504 33.2898 35.0208 35.9322 30.8442 37.5048Z"
    fill="#FFFACF"
    stroke="#45413C"
    stroke-width="1.4"
    stroke-linecap="round"
    stroke-linejoin="round"
  />
  <path
    d="M31.0641 6.20398L24.6177 12.6504"
    stroke="#45413C"
    stroke-width="1.4"
    stroke-linecap="round"
    stroke-linejoin="round"
  />
  <path
    d="M30.1836 4.07832C30.1836 4.87572 30.5004 5.64046 31.0642 6.2043C31.6281 6.76815 32.3928 7.08492 33.1902 7.08492C33.9876 7.08492 34.7523 6.76815 35.3162 6.2043C35.88 5.64046 36.1968 4.87572 36.1968 4.07832C36.1968 3.28092 35.88 2.51618 35.3162 1.95233C34.7523 1.38848 33.9876 1.07172 33.1902 1.07172C32.3928 1.07172 31.6281 1.38848 31.0642 1.95233C30.5004 2.51618 30.1836 3.28092 30.1836 4.07832Z"
    fill="#FF6242"
  />
  <path
    d="M33.1899 5.76003C32.5076 5.75983 31.8457 5.5277 31.3128 5.10173C30.7799 4.67576 30.4076 4.08127 30.2571 3.41583C30.158 3.85577 30.1591 4.31237 30.2604 4.75182C30.3617 5.19126 30.5605 5.60229 30.8422 5.95447C31.1239 6.30666 31.4812 6.59096 31.8876 6.78634C32.294 6.98172 32.7392 7.08317 33.1902 7.08317C33.6412 7.08317 34.0863 6.98172 34.4928 6.78634C34.8992 6.59096 35.2565 6.30666 35.5382 5.95447C35.8199 5.60229 36.0187 5.19126 36.12 4.75182C36.2213 4.31237 36.2224 3.85577 36.1233 3.41583C35.9727 4.08131 35.6003 4.67582 35.0672 5.10178C34.5342 5.52775 33.8722 5.75986 33.1899 5.76003Z"
    fill="#E04122"
  />
  <path
    d="M30.1836 4.07832C30.1836 4.87572 30.5004 5.64046 31.0642 6.2043C31.6281 6.76815 32.3928 7.08492 33.1902 7.08492C33.9876 7.08492 34.7523 6.76815 35.3162 6.2043C35.88 5.64046 36.1968 4.87572 36.1968 4.07832C36.1968 3.28092 35.88 2.51618 35.3162 1.95233C34.7523 1.38848 33.9876 1.07172 33.1902 1.07172C32.3928 1.07172 31.6281 1.38848 31.0642 1.95233C30.5004 2.51618 30.1836 3.28092 30.1836 4.07832V4.07832Z"
    stroke="#45413C"
    stroke-width="1.4"
    stroke-linecap="round"
    stroke-linejoin="round"
  />
</svg>
