<svg width="241" height="240" viewBox="0 0 241 240" fill="none" xmlns="http://www.w3.org/2000/svg">
<path d="M216.496 123C216.498 108.672 213.293 94.5258 207.116 81.5982C200.938 68.6706 191.946 57.2896 180.797 48.2899C169.649 39.2901 156.628 32.8999 142.688 29.5878C128.749 26.2757 114.244 26.1258 100.239 29.149C86.2344 32.1722 73.0837 38.2919 61.7517 47.0593C50.4197 55.8267 41.1939 67.0193 34.7508 79.8165C28.3077 92.6136 24.8107 106.691 24.5164 121.015C24.222 135.34 27.1377 149.549 33.0497 162.6H207.942C213.59 150.163 216.507 136.659 216.496 123Z" fill="#C7F0FF"/>
<path d="M33.0508 162.6C40.6653 179.409 52.9632 193.668 68.472 203.668C83.9809 213.669 102.044 218.988 120.497 218.988C138.951 218.988 157.013 213.669 172.522 203.668C188.031 193.668 200.329 179.409 207.944 162.6H33.0508Z" fill="#CCF7AD"/>
<path d="M26.8984 162.6H214.098" stroke="#45413C" stroke-width="1.5" stroke-linecap="round" stroke-linejoin="round"/>
<path d="M16.0977 162.6H22.0977" stroke="#45413C" stroke-width="1.5" stroke-linecap="round" stroke-linejoin="round"/>
<path d="M218.898 162.6H224.898" stroke="#45413C" stroke-width="1.5" stroke-linecap="round" stroke-linejoin="round"/>
<path d="M142.338 24.6933C142.337 24.0562 142.502 23.4298 142.815 22.875C143.128 22.3203 143.579 21.856 144.125 21.5274C144.671 21.1988 145.293 21.0171 145.929 20.9999C146.566 20.9827 147.197 21.1306 147.759 21.4293L173.843 35.2389C174.436 35.553 174.932 36.0229 175.278 36.598C175.625 37.1731 175.807 37.8316 175.807 38.5029C175.807 39.1741 175.625 39.8326 175.278 40.4077C174.932 40.9828 174.436 41.4527 173.843 41.7669L142.338 58.4469V24.6933Z" fill="#FF6242"/>
<path d="M142.338 44.2989L159.167 27.4677L147.759 21.4293C147.197 21.1306 146.566 20.9827 145.929 20.9999C145.293 21.0171 144.671 21.1988 144.125 21.5274C143.579 21.856 143.128 22.3203 142.815 22.875C142.502 23.4298 142.337 24.0562 142.338 24.6933V44.2989Z" fill="#FF866E"/>
<path d="M84.7207 162.6L136.606 78.2851C137.003 77.6402 137.558 77.1077 138.219 76.7384C138.88 76.3691 139.624 76.1753 140.382 76.1755H144.291C145.048 76.1749 145.793 76.3685 146.454 76.7378C147.115 77.1072 147.67 77.6399 148.066 78.2851L199.954 162.6H84.7207Z" fill="#6DD627" stroke="#45413C" stroke-width="1.5" stroke-linecap="round" stroke-linejoin="round"/>
<path d="M84.7207 162.6H141.747L114.133 114.806L84.7207 162.6Z" fill="#46B000"/>
<path d="M44.8301 162.6L67.2365 123.816C67.4312 123.479 67.7111 123.199 68.0481 123.005C68.3851 122.81 68.7674 122.708 69.1565 122.708C69.5456 122.708 69.9278 122.81 70.2648 123.005C70.6019 123.199 70.8818 123.479 71.0765 123.816L93.4853 162.6H44.8301Z" fill="#6DD627"/>
<path d="M60.9336 162.6H93.4848L77.2104 134.431L60.9336 162.6Z" fill="#46B000"/>
<path d="M84.7207 162.6L136.606 78.2851C137.003 77.6402 137.558 77.1077 138.219 76.7384C138.88 76.3691 139.624 76.1753 140.382 76.1755H144.291C145.048 76.1749 145.793 76.3685 146.454 76.7378C147.115 77.1072 147.67 77.6399 148.066 78.2851L199.954 162.6H84.7207Z" stroke="#45413C" stroke-width="1.5" stroke-linecap="round" stroke-linejoin="round"/>
<path d="M44.8301 162.6L67.2365 123.816C67.4312 123.479 67.7111 123.199 68.0481 123.005C68.3851 122.81 68.7674 122.708 69.1565 122.708C69.5456 122.708 69.9278 122.81 70.2648 123.005C70.6019 123.199 70.8818 123.479 71.0765 123.816L93.4853 162.6H44.8301Z" stroke="#45413C" stroke-width="1.5" stroke-linecap="round" stroke-linejoin="round"/>
<path d="M69.7988 162.6L98.5988 112.737C98.793 112.4 99.0728 112.119 99.4099 111.925C99.7469 111.73 100.129 111.627 100.519 111.627C100.908 111.627 101.291 111.73 101.628 111.925C101.965 112.119 102.245 112.4 102.439 112.737L131.239 162.6H69.7988Z" fill="#6DD627" stroke="#45413C" stroke-width="1.5" stroke-linecap="round" stroke-linejoin="round"/>
<path d="M77.0996 55.8233C75.9489 55.8295 74.8095 56.0501 73.7396 56.4737C73.1647 52.8153 71.3022 49.4824 68.4876 47.0756C65.673 44.6687 62.0914 43.3462 58.388 43.3462C54.6847 43.3462 51.103 44.6687 48.2885 47.0756C45.4739 49.4824 43.6113 52.8153 43.0364 56.4737C41.9665 56.0501 40.8271 55.8295 39.6764 55.8233C37.194 55.8233 34.8132 56.8095 33.0579 58.5648C31.3025 60.3201 30.3164 62.7009 30.3164 65.1833C30.3164 67.6658 31.3025 70.0465 33.0579 71.8018C34.8132 73.5572 37.194 74.5433 39.6764 74.5433H77.1164C79.5988 74.5433 81.9796 73.5572 83.7349 71.8018C85.4903 70.0465 86.4764 67.6658 86.4764 65.1833C86.4764 62.7009 85.4903 60.3201 83.7349 58.5648C81.9796 56.8095 79.5988 55.8233 77.1164 55.8233H77.0996Z" fill="white" stroke="#45413C" stroke-width="1.5" stroke-linejoin="round"/>
<path d="M77.0996 55.8233C75.9489 55.8295 74.8095 56.0501 73.7396 56.4737C73.1647 52.8153 71.3022 49.4824 68.4876 47.0756C65.673 44.6687 62.0914 43.3462 58.388 43.3462C54.6847 43.3462 51.103 44.6687 48.2885 47.0756C45.4739 49.4824 43.6113 52.8153 43.0364 56.4737C41.9665 56.0501 40.8271 55.8295 39.6764 55.8233C37.194 55.8233 34.8132 56.8095 33.0579 58.5648C31.3025 60.3201 30.3164 62.7009 30.3164 65.1833C30.3164 67.6658 31.3025 70.0465 33.0579 71.8018C34.8132 73.5572 37.194 74.5433 39.6764 74.5433H77.1164C79.5988 74.5433 81.9796 73.5572 83.7349 71.8018C85.4903 70.0465 86.4764 67.6658 86.4764 65.1833C86.4764 62.7009 85.4903 60.3201 83.7349 58.5648C81.9796 56.8095 79.5988 55.8233 77.1164 55.8233H77.0996Z" fill="white" stroke="#45413C" stroke-width="1.5" stroke-linejoin="round"/>
<path d="M142.338 76.1761V58.4473" stroke="#45413C" stroke-width="1.5" stroke-linecap="round" stroke-linejoin="round"/>
<path d="M142.338 24.6933C142.337 24.0562 142.502 23.4298 142.815 22.875C143.128 22.3203 143.579 21.856 144.125 21.5274C144.671 21.1988 145.293 21.0171 145.929 20.9999C146.566 20.9827 147.197 21.1306 147.759 21.4293L173.843 35.2389C174.436 35.553 174.932 36.0229 175.278 36.598C175.624 37.1731 175.807 37.8316 175.807 38.5029C175.807 39.1741 175.624 39.8326 175.278 40.4077C174.932 40.9828 174.436 41.4527 173.843 41.7669L142.338 58.4469V24.6933Z" stroke="#45413C" stroke-width="1.5" stroke-linecap="round" stroke-linejoin="round"/>
<path d="M129.575 116.037C129.775 116.305 130.034 116.524 130.332 116.677C130.629 116.831 130.957 116.915 131.292 116.923C131.626 116.932 131.959 116.864 132.263 116.726C132.568 116.588 132.838 116.383 133.052 116.126L140.634 107.025C140.842 106.776 141.102 106.575 141.396 106.437C141.691 106.3 142.012 106.228 142.337 106.228C142.661 106.228 142.982 106.3 143.277 106.437C143.571 106.575 143.831 106.776 144.039 107.025L151.623 116.126C151.837 116.383 152.107 116.588 152.411 116.726C152.716 116.864 153.048 116.932 153.382 116.923C153.717 116.915 154.045 116.83 154.342 116.677C154.639 116.524 154.898 116.305 155.099 116.037L163.998 104.172L148.067 78.2851C147.67 77.6399 147.115 77.1072 146.454 76.7378C145.793 76.3685 145.049 76.1749 144.291 76.1755H140.382C139.625 76.1753 138.88 76.3691 138.219 76.7384C137.558 77.1077 137.003 77.6402 136.607 78.2851L120.678 104.172L129.575 116.037Z" fill="#F0F0F0" stroke="#45413C" stroke-width="1.5" stroke-linecap="round" stroke-linejoin="round"/>
</svg>

