<svg width="160" height="161" viewBox="0 0 160 161" fill="none" xmlns="http://www.w3.org/2000/svg">
<path d="M10 80.6833C10 99.2485 17.375 117.053 30.5025 130.181C43.6301 143.308 61.4348 150.683 80 150.683C98.5652 150.683 116.37 143.308 129.497 130.181C142.625 117.053 150 99.2485 150 80.6833C150 62.1182 142.625 44.3134 129.497 31.1858C116.37 18.0583 98.5652 10.6833 80 10.6833C61.4348 10.6833 43.6301 18.0583 30.5025 31.1858C17.375 44.3134 10 62.1182 10 80.6833Z" fill="#C7F0FF"/>
<path d="M61.8312 141.352C61.8312 142.049 63.6749 142.716 66.9568 143.208C70.2387 143.701 74.6899 143.977 79.3312 143.977C83.9725 143.977 88.4237 143.701 91.7055 143.208C94.9874 142.716 96.8312 142.049 96.8312 141.352C96.8312 140.656 94.9874 139.988 91.7055 139.496C88.4237 139.004 83.9725 138.727 79.3312 138.727C74.6899 138.727 70.2387 139.004 66.9568 139.496C63.6749 139.988 61.8312 140.656 61.8312 141.352Z" fill="#45413C"/>
<path d="M131.832 73.4471C131.832 72.6033 131.496 71.7941 130.9 71.1974C130.303 70.6008 129.494 70.2656 128.65 70.2656H119.932C118.877 64.8524 116.746 59.7064 113.663 55.1333L119.83 48.9646C120.427 48.3679 120.762 47.5587 120.762 46.715C120.762 45.8712 120.427 45.062 119.83 44.4653L113.075 37.7226C112.479 37.126 111.669 36.7908 110.826 36.7908C109.982 36.7908 109.173 37.126 108.576 37.7226L102.407 43.8896C97.8365 40.8074 92.6928 38.6757 87.2819 37.6211V28.9026C87.2819 28.0586 86.9468 27.2492 86.3502 26.6523C85.7536 26.0554 84.9444 25.7198 84.1004 25.7193H74.5594C73.7155 25.7198 72.9062 26.0554 72.3096 26.6523C71.7131 27.2492 71.3779 28.0586 71.3779 28.9026V37.6211C65.9665 38.6759 60.8223 40.8076 56.2509 43.8896L50.0839 37.7226C49.4873 37.126 48.6781 36.7908 47.8343 36.7908C46.9905 36.7908 46.1813 37.126 45.5847 37.7226L38.8349 44.4723C38.5391 44.7675 38.3044 45.1182 38.1442 45.5042C37.9841 45.8902 37.9017 46.304 37.9017 46.722C37.9017 47.1399 37.9841 47.5537 38.1442 47.9397C38.3044 48.3257 38.5391 48.6764 38.8349 48.9716L45.0002 55.1333C41.918 59.704 39.7863 64.8476 38.7317 70.2586H30.0149C29.597 70.2583 29.1831 70.3405 28.7969 70.5003C28.4107 70.66 28.0597 70.8943 27.7641 71.1898C27.4685 71.4853 27.234 71.8361 27.074 72.2222C26.914 72.6083 26.8317 73.0221 26.8317 73.4401V82.9933C26.8317 83.4113 26.914 83.8251 27.074 84.2112C27.234 84.5974 27.4685 84.9482 27.7641 85.2436C28.0597 85.5391 28.4107 85.7734 28.7969 85.9332C29.1831 86.0929 29.597 86.1751 30.0149 86.1748H38.7334C39.7875 91.5856 41.9186 96.7293 45.0002 101.3L38.8332 107.469C38.5373 107.764 38.3026 108.115 38.1425 108.501C37.9823 108.887 37.8999 109.301 37.8999 109.718C37.8999 110.136 37.9823 110.55 38.1425 110.936C38.3026 111.322 38.5373 111.673 38.8332 111.968L45.5829 118.718C46.1796 119.314 46.9888 119.65 47.8325 119.65C48.6763 119.65 49.4855 119.314 50.0822 118.718L56.2492 112.551C60.8209 115.632 65.965 117.764 71.3762 118.819V127.538C71.3762 128.382 71.7114 129.191 72.308 129.787C72.9047 130.384 73.7139 130.719 74.5577 130.719H84.1039C84.9477 130.719 85.7569 130.384 86.3536 129.787C86.9502 129.191 87.2854 128.382 87.2854 127.538V118.819C92.6961 117.764 97.8397 115.632 102.411 112.551L108.579 118.718C109.176 119.314 109.985 119.65 110.829 119.65C111.673 119.65 112.482 119.314 113.079 118.718L119.828 111.968C120.425 111.371 120.76 110.562 120.76 109.718C120.76 108.875 120.425 108.065 119.828 107.469L113.661 101.3C116.743 96.7291 118.875 91.5856 119.93 86.1748H128.65C129.494 86.1748 130.303 85.8396 130.9 85.243C131.496 84.6463 131.832 83.8371 131.832 82.9933V73.4471ZM79.3317 102.084C74.6117 102.084 69.9977 100.684 66.0731 98.0621C62.1486 95.4398 59.0898 91.7127 57.2835 87.352C55.4772 82.9913 55.0046 78.1929 55.9255 73.5635C56.8463 68.9342 59.1192 64.6819 62.4567 61.3444C65.7943 58.0069 70.0466 55.734 74.6759 54.8131C79.3052 53.8923 84.1036 54.3649 88.4643 56.1712C92.825 57.9774 96.5522 61.0362 99.1745 64.9608C101.797 68.8853 103.196 73.4993 103.196 78.2193C103.197 81.3534 102.58 84.4567 101.38 87.3522C100.181 90.2478 98.4232 92.8787 96.2071 95.0948C93.991 97.3109 91.3601 99.0687 88.4646 100.268C85.5691 101.467 82.4657 102.084 79.3317 102.084Z" fill="#C0DCEB"/>
<path d="M45.0002 55.1333C42.3197 59.1088 40.3546 63.5222 39.1937 68.1743C43.2211 61.079 49.0574 55.1781 56.108 51.0728C63.1585 46.9676 71.1713 44.8048 79.33 44.8048C87.4886 44.8048 95.5015 46.9676 102.552 51.0728C109.603 55.1781 115.439 61.079 119.466 68.1743C118.307 63.5224 116.343 59.109 113.663 55.1333L119.83 48.9646C120.427 48.3679 120.762 47.5587 120.762 46.715C120.762 45.8712 120.427 45.062 119.83 44.4653L113.075 37.7226C112.479 37.126 111.669 36.7908 110.826 36.7908C109.982 36.7908 109.173 37.126 108.576 37.7226L102.407 43.8896C97.8366 40.8074 92.6929 38.6757 87.282 37.6211V28.9026C87.282 28.0586 86.9469 27.2492 86.3503 26.6523C85.7537 26.0554 84.9444 25.7198 84.1005 25.7193H74.5595C73.7155 25.7198 72.9063 26.0554 72.3097 26.6523C71.7131 27.2492 71.378 28.0586 71.378 28.9026V37.6211C65.9666 38.6759 60.8224 40.8076 56.251 43.8896L50.084 37.7226C49.4873 37.126 48.6781 36.7908 47.8344 36.7908C46.9906 36.7908 46.1814 37.126 45.5847 37.7226L38.835 44.4723C38.5392 44.7675 38.3044 45.1182 38.1443 45.5042C37.9842 45.8902 37.9017 46.304 37.9017 46.722C37.9017 47.1399 37.9842 47.5537 38.1443 47.9397C38.3044 48.3257 38.5392 48.6764 38.835 48.9716L45.0002 55.1333Z" fill="#DAEDF7"/>
<path d="M79.3317 102.084C74.6117 102.084 69.9977 100.684 66.0731 98.0621C62.1486 95.4398 59.0898 91.7127 57.2835 87.352C55.4773 82.9912 55.0047 78.1928 55.9255 73.5635C56.8463 68.9342 59.1192 64.6819 62.4568 61.3444C65.7943 58.0068 70.0466 55.7339 74.6759 54.8131C79.3052 53.8923 84.1036 54.3649 88.4643 56.1712C92.825 57.9774 96.5522 61.0362 99.1745 64.9608C101.797 68.8853 103.196 73.4993 103.196 78.2193C103.197 81.3533 102.58 84.4567 101.38 87.3522C100.181 90.2477 98.4232 92.8787 96.2071 95.0948C93.991 97.3108 91.3601 99.0687 88.4646 100.268C85.5691 101.467 82.4657 102.084 79.3317 102.084V102.084Z" stroke="#45413C" stroke-width="1.5" stroke-linecap="round" stroke-linejoin="round"/>
<path d="M131.832 73.4471C131.832 72.6033 131.496 71.7941 130.9 71.1974C130.303 70.6008 129.494 70.2656 128.65 70.2656H119.932C118.877 64.8524 116.746 59.7064 113.663 55.1333L119.83 48.9646C120.427 48.3679 120.762 47.5587 120.762 46.715C120.762 45.8712 120.427 45.062 119.83 44.4653L113.075 37.7226C112.479 37.126 111.669 36.7908 110.826 36.7908C109.982 36.7908 109.173 37.126 108.576 37.7226L102.407 43.8896C97.8365 40.8074 92.6928 38.6757 87.2819 37.6211V28.9026C87.2819 28.0586 86.9468 27.2492 86.3502 26.6523C85.7536 26.0554 84.9444 25.7198 84.1004 25.7193H74.5594C73.7155 25.7198 72.9062 26.0554 72.3096 26.6523C71.7131 27.2492 71.3779 28.0586 71.3779 28.9026V37.6211C65.9665 38.6759 60.8223 40.8076 56.2509 43.8896L50.0839 37.7226C49.4873 37.126 48.6781 36.7908 47.8343 36.7908C46.9905 36.7908 46.1813 37.126 45.5847 37.7226L38.8349 44.4723C38.5391 44.7675 38.3044 45.1182 38.1442 45.5042C37.9841 45.8902 37.9017 46.304 37.9017 46.722C37.9017 47.1399 37.9841 47.5537 38.1442 47.9397C38.3044 48.3257 38.5391 48.6764 38.8349 48.9716L45.0002 55.1333C41.918 59.704 39.7863 64.8476 38.7317 70.2586H30.0149C29.597 70.2583 29.1831 70.3405 28.7969 70.5003C28.4107 70.66 28.0597 70.8943 27.7641 71.1898C27.4685 71.4853 27.234 71.8361 27.074 72.2222C26.914 72.6083 26.8317 73.0221 26.8317 73.4401V82.9933C26.8317 83.4113 26.914 83.8251 27.074 84.2112C27.234 84.5974 27.4685 84.9482 27.7641 85.2436C28.0597 85.5391 28.4107 85.7734 28.7969 85.9332C29.1831 86.0929 29.597 86.1751 30.0149 86.1748H38.7334C39.7875 91.5856 41.9186 96.7293 45.0002 101.3L38.8332 107.469C38.5373 107.764 38.3026 108.115 38.1425 108.501C37.9823 108.887 37.8999 109.301 37.8999 109.718C37.8999 110.136 37.9823 110.55 38.1425 110.936C38.3026 111.322 38.5373 111.673 38.8332 111.968L45.5829 118.718C46.1796 119.314 46.9888 119.65 47.8325 119.65C48.6763 119.65 49.4855 119.314 50.0822 118.718L56.2492 112.551C60.8209 115.632 65.965 117.764 71.3762 118.819V127.538C71.3762 128.382 71.7114 129.191 72.308 129.787C72.9047 130.384 73.7139 130.719 74.5577 130.719H84.1039C84.9477 130.719 85.7569 130.384 86.3536 129.787C86.9502 129.191 87.2854 128.382 87.2854 127.538V118.819C92.6961 117.764 97.8397 115.632 102.411 112.551L108.579 118.718C109.176 119.314 109.985 119.65 110.829 119.65C111.673 119.65 112.482 119.314 113.079 118.718L119.828 111.968C120.425 111.371 120.76 110.562 120.76 109.718C120.76 108.875 120.425 108.065 119.828 107.469L113.661 101.3C116.743 96.7291 118.875 91.5856 119.93 86.1748H128.65C129.494 86.1748 130.303 85.8396 130.9 85.243C131.496 84.6463 131.832 83.8371 131.832 82.9933V73.4471ZM79.3317 102.084C74.6117 102.084 69.9977 100.684 66.0731 98.0621C62.1486 95.4399 59.0898 91.7127 57.2835 87.352C55.4772 82.9913 55.0046 78.1929 55.9255 73.5635C56.8463 68.9342 59.1192 64.6819 62.4567 61.3444C65.7943 58.0069 70.0466 55.734 74.6759 54.8131C79.3052 53.8923 84.1036 54.3649 88.4643 56.1712C92.825 57.9774 96.5522 61.0362 99.1745 64.9608C101.797 68.8853 103.196 73.4993 103.196 78.2193C103.197 81.3534 102.58 84.4567 101.38 87.3522C100.181 90.2478 98.4232 92.8787 96.2071 95.0948C93.991 97.3109 91.3601 99.0687 88.4646 100.268C85.5691 101.467 82.4657 102.084 79.3317 102.084V102.084Z" stroke="#45413C" stroke-width="1.5" stroke-linecap="round" stroke-linejoin="round"/>
<path d="M36.0105 123.581C27.2325 123.581 22.0647 112.399 31.9172 100.903C32.0766 100.718 32.2946 100.594 32.5347 100.551C32.7748 100.508 33.0224 100.548 33.236 100.666C33.4497 100.784 33.6164 100.971 33.7083 101.197C33.8002 101.423 33.8116 101.674 33.7407 101.907C32.9077 104.613 32.4317 107.828 34.033 109.732C42.1022 119.329 91.0305 60.7316 91.195 60.5373C92.945 58.4373 97.544 61.9006 99.6387 63.6453C101.733 65.3901 105.953 69.5603 104.208 71.6621C104.042 71.8616 58.7622 124.405 36.0105 123.581Z" fill="#FFF48C" stroke="#45413C" stroke-width="1.5" stroke-linecap="round" stroke-linejoin="round"/>
<path d="M107.31 82.6416L101.042 68.6154L114.394 56.8239L112.604 80.7096L107.31 82.6416Z" fill="#FF6242"/>
<path d="M104.2 75.6853C107.191 74.0158 110.292 72.1521 113.395 70.1641L114.396 56.8239L101.042 68.6083L104.2 75.6853Z" fill="#E04122"/>
<path d="M79.8583 58.7523L94.7105 63.1046L104.799 48.4746L81.1113 53.3046L79.8583 58.7523Z" fill="#FF6242"/>
<path d="M87.2557 60.9205L94.709 63.1045L104.801 48.4727L91.629 51.159L87.2557 60.9205Z" fill="#E04122"/>
<path d="M79.8583 58.7523L94.7105 63.1046L104.799 48.4746L81.1113 53.3046L79.8583 58.7523Z" stroke="#45413C" stroke-width="1.5" stroke-linecap="round" stroke-linejoin="round"/>
<path d="M79.461 50.9333C79.7361 50.9831 79.9981 51.0889 80.2308 51.2441C80.4634 51.3993 80.6617 51.6005 80.8135 51.8354C80.9652 52.0703 81.0671 52.3339 81.1129 52.6097C81.1587 52.8856 81.1474 53.1679 81.0797 53.4393L79.608 59.8303C79.4774 60.3944 79.1366 60.8875 78.655 61.2091C78.1734 61.5307 77.5874 61.6566 77.0162 61.561C76.7412 61.5109 76.4794 61.405 76.247 61.2497C76.0146 61.0945 75.8164 60.8932 75.6649 60.6583C75.5133 60.4234 75.4116 60.16 75.3659 59.8842C75.3202 59.6084 75.3315 59.3262 75.3992 59.055L76.8692 52.664C76.9998 52.0999 77.3406 51.6067 77.8222 51.2851C78.3038 50.9636 78.8899 50.8377 79.461 50.9333Z" fill="#FF866E" stroke="#45413C" stroke-width="1.5" stroke-linecap="round" stroke-linejoin="round"/>
<path d="M107.31 82.6416L101.042 68.6154L114.394 56.8239L112.604 80.7096L107.31 82.6416Z" stroke="#45413C" stroke-width="1.5" stroke-linecap="round" stroke-linejoin="round"/>
<path d="M115.194 82.0256C115.105 81.7597 114.962 81.5148 114.776 81.3056C114.589 81.0964 114.361 80.9275 114.107 80.809C113.853 80.6905 113.577 80.6249 113.297 80.6162C113.017 80.6076 112.737 80.656 112.476 80.7586L106.266 83.0231C105.721 83.2169 105.272 83.6126 105.012 84.1283C104.751 84.644 104.699 85.2402 104.866 85.7934C104.955 86.059 105.098 86.3036 105.285 86.5125C105.472 86.7214 105.699 86.8902 105.953 87.0086C106.207 87.1271 106.483 87.1927 106.763 87.2016C107.043 87.2105 107.322 87.1625 107.583 87.0604L113.794 84.7854C114.337 84.5924 114.784 84.1984 115.045 83.6849C115.305 83.1714 115.359 82.5774 115.194 82.0256Z" fill="#FF866E" stroke="#45413C" stroke-width="1.5" stroke-linecap="round" stroke-linejoin="round"/>
<path d="M96.854 86.2185C91.7982 91.9147 74.475 97.842 69.1427 99.5675C68.9793 99.6204 68.8048 99.6299 68.6366 99.5949C68.4684 99.5599 68.3122 99.4817 68.1834 99.3679C68.0546 99.2541 67.9577 99.1088 67.9022 98.9461C67.8467 98.7835 67.8346 98.6092 67.867 98.4405C68.917 92.9647 72.6182 75.2162 77.667 69.5235C83.6747 62.7615 92.8272 61.0167 98.1245 65.6332C103.422 70.2497 102.853 79.4582 96.854 86.2185Z" fill="#FF8A14" stroke="#45413C" stroke-width="1.5" stroke-linecap="round" stroke-linejoin="round"/>
<path d="M97.3598 77.619C94.5983 80.7305 85.5578 83.961 81.8671 85.186C81.7029 85.2402 81.5274 85.2505 81.358 85.2159C81.1886 85.1813 81.0312 85.1029 80.9015 84.9886C80.7718 84.8743 80.6743 84.728 80.6186 84.5643C80.563 84.4006 80.5511 84.2252 80.5843 84.0555C81.3386 80.2633 83.4088 70.9883 86.1668 67.8785C89.6668 63.934 95.0096 62.9155 98.1 65.6035C101.191 68.2915 100.86 73.6728 97.3598 77.619Z" fill="#FFE500" stroke="#45413C" stroke-width="1.5" stroke-linecap="round" stroke-linejoin="round"/>
<path d="M91.6637 62.8228L101.716 71.5728C103.665 70.6733 105.8 69.5428 108.047 68.2478L94.1749 56.1833C93.1722 58.5493 92.3147 60.7928 91.6637 62.8228Z" fill="#FF6242" stroke="#45413C" stroke-width="1.5" stroke-linecap="round" stroke-linejoin="round"/>
<path d="M94.1747 56.1833L108.043 68.2583C113.805 64.8773 119.357 61.1512 124.668 57.1003C131.365 52.0904 136.84 45.6285 140.682 38.1997C144.523 30.7709 146.632 22.5683 146.85 14.2078C146.861 13.7577 146.772 13.3106 146.591 12.8985C146.409 12.4865 146.139 12.1195 145.8 11.8238C145.46 11.5282 145.059 11.3111 144.626 11.1881C144.193 11.065 143.738 11.0391 143.294 11.1121C134.994 12.3734 127.083 15.4809 120.143 20.2057C113.204 24.9304 107.413 31.1521 103.198 38.4121C99.831 44.1466 96.8177 50.0814 94.1747 56.1833Z" fill="#E8F4FA"/>
<path d="M104.43 46.868C108.939 39.1057 115.044 32.3886 122.342 27.1604C129.64 21.9322 137.964 18.3119 146.764 16.5388C146.811 15.7629 146.842 14.9859 146.857 14.2078C146.868 13.7577 146.78 13.3107 146.598 12.8986C146.416 12.4866 146.146 12.1197 145.807 11.8242C145.467 11.5287 145.066 11.3118 144.633 11.189C144.2 11.0662 143.745 11.0405 143.301 11.1138C135.001 12.3743 127.089 15.4815 120.15 20.2064C113.21 24.9313 107.42 31.1533 103.205 38.4138C99.8356 44.1475 96.82 50.0817 94.1747 56.1833L97.7464 59.2895C99.7344 55.2558 101.994 51.0523 104.43 46.868Z" fill="white"/>
<path d="M94.1747 56.1833L108.043 68.2583C113.805 64.8773 119.357 61.1512 124.668 57.1003C131.365 52.0904 136.84 45.6285 140.682 38.1997C144.523 30.7709 146.632 22.5683 146.85 14.2078V14.2078C146.861 13.7577 146.772 13.3106 146.591 12.8985C146.409 12.4865 146.139 12.1195 145.8 11.8238C145.46 11.5282 145.059 11.3111 144.626 11.1881C144.193 11.065 143.738 11.0391 143.294 11.1121V11.1121C134.994 12.3734 127.083 15.4809 120.143 20.2057C113.204 24.9304 107.413 31.1521 103.198 38.4121C99.831 44.1466 96.8177 50.0814 94.1747 56.1833V56.1833Z" stroke="#45413C" stroke-width="1.5" stroke-linecap="round" stroke-linejoin="round"/>
<path d="M122.889 30.5109C122.889 32.1836 123.554 33.7878 124.736 34.9706C125.919 36.1534 127.523 36.8179 129.196 36.8179C130.869 36.8179 132.473 36.1534 133.656 34.9706C134.839 33.7878 135.503 32.1836 135.503 30.5109C135.503 28.8381 134.839 27.2339 133.656 26.0511C132.473 24.8683 130.869 24.2039 129.196 24.2039C127.523 24.2039 125.919 24.8683 124.736 26.0511C123.554 27.2339 122.889 28.8381 122.889 30.5109Z" fill="#00B8F0"/>
<path d="M124.391 34.5952C123.855 33.9641 123.448 33.2335 123.195 32.4453C122.941 31.657 122.845 30.8266 122.913 30.0013C122.98 29.176 123.209 28.3721 123.587 27.6355C123.965 26.8988 124.485 26.2438 125.116 25.7079C125.747 25.1719 126.478 24.7656 127.266 24.512C128.054 24.2584 128.885 24.1626 129.71 24.2299C130.535 24.2973 131.339 24.5265 132.076 24.9046C132.812 25.2826 133.467 25.8021 134.003 26.4332L124.391 34.5952Z" fill="#4ACFFF"/>
<path d="M122.889 30.5109C122.889 32.1836 123.554 33.7878 124.736 34.9706C125.919 36.1534 127.523 36.8179 129.196 36.8179C130.869 36.8179 132.473 36.1534 133.656 34.9706C134.839 33.7878 135.503 32.1836 135.503 30.5109C135.503 28.8381 134.839 27.2339 133.656 26.0511C132.473 24.8683 130.869 24.2039 129.196 24.2039C127.523 24.2039 125.919 24.8683 124.736 26.0511C123.554 27.2339 122.889 28.8381 122.889 30.5109Z" stroke="#45413C" stroke-width="1.5" stroke-linecap="round" stroke-linejoin="round"/>
</svg>

