<svg width="240" height="240" viewBox="0 0 240 240" fill="none" xmlns="http://www.w3.org/2000/svg">
<g clip-path="url(#clip0)">
<path d="M80.7318 209.547C103.965 219.961 130.384 220.719 154.177 211.655C177.969 202.59 197.187 184.445 207.601 161.212C218.015 137.978 218.773 111.559 209.709 87.7666C200.644 63.9741 182.499 44.7569 159.266 34.3426C136.032 23.9284 109.613 23.1701 85.8209 32.2347C62.0283 41.2992 42.8111 59.4441 32.3969 82.6776C21.9826 105.911 21.2244 132.33 30.2889 156.123C39.3535 179.915 57.4984 199.132 80.7318 209.547Z" fill="#C7F0FF"/>
<path opacity="0.15" d="M38.9209 207.979C38.9209 209.25 47.3365 210.469 62.3163 211.368C77.2961 212.267 97.613 212.772 118.798 212.772C139.982 212.772 160.299 212.267 175.279 211.368C190.259 210.469 198.674 209.25 198.674 207.979C198.674 206.708 190.259 205.489 175.279 204.59C160.299 203.691 139.982 203.186 118.798 203.186C97.613 203.186 77.2961 203.691 62.3163 204.59C47.3365 205.489 38.9209 206.708 38.9209 207.979Z" fill="#45413C"/>
<path d="M101.226 147.274L107.617 206.381H129.982L136.371 147.274H101.226Z" fill="#D18660"/>
<path d="M131.881 188.808L136.371 147.274H101.226L105.716 188.808H131.881Z" fill="#FF6196"/>
<path d="M135.334 156.859L136.371 147.274H101.226L102.262 156.859H135.334Z" fill="#E0366F"/>
<path d="M118.799 160.054V206.381" stroke="#45413C" stroke-width="1.5" stroke-linecap="round" stroke-linejoin="round"/>
<path d="M105.718 188.808H131.883" stroke="#45413C" stroke-width="1.5" stroke-linecap="round" stroke-linejoin="round"/>
<path d="M101.226 147.274L107.617 206.381H129.982L136.371 147.274H101.226Z" stroke="#45413C" stroke-width="1.5" stroke-linecap="round" stroke-linejoin="round"/>
<path d="M135.517 206.381C136.079 206.382 136.632 206.234 137.118 205.954C137.605 205.673 138.01 205.269 138.29 204.782C138.571 204.295 138.718 203.743 138.717 203.181C138.716 202.618 138.567 202.067 138.284 201.581C137.445 200.122 136.235 198.91 134.778 198.067C133.32 197.224 131.666 196.781 129.983 196.781H128.384C127.124 196.781 125.877 197.029 124.713 197.512C123.549 197.994 122.492 198.702 121.601 199.593C120.711 200.485 120.005 201.543 119.524 202.708C119.043 203.873 118.797 205.121 118.799 206.381H135.517Z" fill="white" stroke="#45413C" stroke-width="1.5" stroke-linecap="round" stroke-linejoin="round"/>
<path d="M118.802 206.381C118.801 203.839 117.79 201.402 115.993 199.606C114.195 197.809 111.758 196.8 109.216 196.8H107.62C105.937 196.8 104.282 197.243 102.825 198.086C101.367 198.929 100.157 200.141 99.3165 201.6C99.0332 202.086 98.8832 202.638 98.8818 203.2C98.8804 203.762 99.0276 204.315 99.3085 204.802C99.5893 205.289 99.9939 205.694 100.481 205.974C100.969 206.255 101.521 206.402 102.084 206.4L118.802 206.381Z" fill="white" stroke="#45413C" stroke-width="1.5" stroke-linecap="round" stroke-linejoin="round"/>
<path d="M147.556 116.921C147.591 113.123 146.873 109.355 145.443 105.836C144.014 102.316 141.901 99.1153 139.228 96.4171C136.554 93.7189 133.372 91.5772 129.866 90.1156C126.36 88.6539 122.599 87.9014 118.801 87.9014C115.002 87.9014 111.241 88.6539 107.735 90.1156C104.229 91.5772 101.048 93.7189 98.3739 96.4171C95.7003 99.1153 93.5877 102.316 92.1581 105.836C90.7286 109.355 90.0104 113.123 90.0451 116.921V123.31H101.227V147.274H136.372V123.31H147.556V116.921Z" fill="#F0F0F0"/>
<path d="M118.798 88.1641C111.172 88.1647 103.858 91.1947 98.4658 96.5876C93.0733 101.98 90.0439 109.294 90.0439 116.921V123.31C90.1132 115.729 93.1733 108.482 98.5585 103.146C103.944 97.8093 111.218 94.8156 118.8 94.8156C126.381 94.8156 133.655 97.8093 139.041 103.146C144.426 108.482 147.486 115.729 147.555 123.31V116.921C147.555 109.294 144.525 101.98 139.132 96.5874C133.739 91.1946 126.425 88.1647 118.798 88.1641Z" fill="white"/>
<path d="M147.556 116.921C147.591 113.123 146.873 109.355 145.443 105.836C144.014 102.316 141.901 99.1153 139.228 96.4171C136.554 93.7189 133.372 91.5772 129.866 90.1156C126.36 88.6539 122.599 87.9014 118.801 87.9014C115.002 87.9014 111.241 88.6539 107.735 90.1156C104.229 91.5772 101.048 93.7189 98.3739 96.4171C95.7003 99.1153 93.5877 102.316 92.1581 105.836C90.7286 109.355 90.0104 113.123 90.0451 116.921V123.31H101.227V147.274H136.372V123.31H147.556V116.921Z" stroke="#45413C" stroke-width="1.5" stroke-linecap="round" stroke-linejoin="round"/>
<path d="M112.409 107.335C111.559 107.319 110.715 107.472 109.925 107.786C109.135 108.099 108.416 108.567 107.809 109.162C107.203 109.757 106.721 110.467 106.392 111.251C106.063 112.034 105.894 112.875 105.894 113.725C105.894 114.575 106.063 115.416 106.392 116.2C106.721 116.983 107.203 117.693 107.809 118.288C108.416 118.883 109.135 119.351 109.925 119.665C110.715 119.979 111.559 120.132 112.409 120.115V115.315" stroke="#00AED9" stroke-width="1.5" stroke-linecap="round" stroke-linejoin="round"/>
<path d="M125.19 120.115C126.864 120.083 128.458 119.395 129.629 118.2C130.801 117.006 131.458 115.399 131.458 113.725C131.458 112.052 130.801 110.445 129.629 109.25C128.458 108.055 126.864 107.368 125.19 107.335V112.135" stroke="#48CF3E" stroke-width="1.5" stroke-linecap="round" stroke-linejoin="round"/>
<path d="M117.202 107.335V112.128" stroke="#FF4064" stroke-width="1.5" stroke-linecap="round" stroke-linejoin="round"/>
<path d="M120.4 115.322V120.115" stroke="#FFB700" stroke-width="1.5" stroke-linecap="round" stroke-linejoin="round"/>
<path d="M117.661 141.826L107.998 139.596C106.071 139.158 104.35 138.076 103.12 136.529C101.89 134.982 101.223 133.062 101.23 131.086V123.31H90.0441V131.086C90.029 135.591 91.5496 139.968 94.3554 143.493C97.1611 147.019 101.084 149.483 105.478 150.48L115.136 152.71C115.856 152.89 116.605 152.924 117.339 152.812C118.073 152.699 118.777 152.442 119.41 152.054C120.044 151.667 120.593 151.157 121.028 150.555C121.462 149.953 121.772 149.27 121.939 148.547C122.107 147.824 122.129 147.074 122.004 146.343C121.879 145.611 121.609 144.911 121.211 144.285C120.813 143.658 120.294 143.117 119.684 142.693C119.075 142.269 118.387 141.971 117.661 141.816V141.826Z" fill="#D18660" stroke="#45413C" stroke-width="1.5" stroke-linecap="round" stroke-linejoin="round"/>
<path d="M119.941 141.826L129.601 139.596C131.529 139.158 133.249 138.076 134.48 136.529C135.71 134.982 136.377 133.062 136.369 131.086V123.31H147.553V131.086C147.568 135.591 146.048 139.967 143.242 143.492C140.437 147.018 136.515 149.482 132.121 150.48L122.464 152.71C121.743 152.892 120.993 152.928 120.257 152.817C119.522 152.705 118.816 152.448 118.182 152.061C117.547 151.673 116.996 151.163 116.561 150.56C116.125 149.957 115.815 149.274 115.647 148.549C115.479 147.825 115.458 147.074 115.584 146.341C115.71 145.608 115.98 144.908 116.38 144.281C116.78 143.654 117.301 143.113 117.912 142.69C118.524 142.266 119.214 141.969 119.941 141.816V141.826Z" fill="#D18660" stroke="#45413C" stroke-width="1.5" stroke-linecap="round" stroke-linejoin="round"/>
<path d="M147.559 123.309V115.322" stroke="#45413C" stroke-width="1.5" stroke-linecap="round" stroke-linejoin="round"/>
<path d="M83.6535 145.68V203.018H69.2727L68.0103 163.255C67.9606 161.928 67.3986 160.673 66.4425 159.752C65.4863 158.831 64.2104 158.316 62.8827 158.316C61.5551 158.316 60.2792 158.831 59.323 159.752C58.3669 160.673 57.8049 161.928 57.7551 163.255L56.4927 203.018H42.1191V145.68H83.6535Z" fill="#00B8F0"/>
<path d="M42.1191 145.675H83.6535V153.662H42.1191V145.675Z" fill="#009FD9"/>
<path d="M83.6535 145.68V203.018H69.2727L68.0103 163.255C67.9606 161.928 67.3986 160.673 66.4425 159.752C65.4863 158.831 64.2104 158.316 62.8827 158.316C61.5551 158.316 60.2792 158.831 59.323 159.752C58.3669 160.673 57.8049 161.928 57.7551 163.255L56.4927 203.018H42.1191V145.68H83.6535Z" stroke="#45413C" stroke-width="1.5" stroke-linecap="round" stroke-linejoin="round"/>
<path d="M41.3835 206.381C40.8345 206.388 40.2928 206.254 39.8111 205.991C39.3293 205.727 38.9239 205.344 38.6341 204.877C38.3443 204.411 38.1799 203.878 38.1571 203.329C38.1342 202.78 38.2535 202.235 38.5035 201.746C39.3335 200.245 40.5512 198.994 42.0296 198.124C43.508 197.254 45.1929 196.797 46.9083 196.8H48.5067C50.2215 196.798 51.9055 197.256 53.383 198.126C54.8605 198.997 56.0774 200.248 56.9067 201.749C57.1562 202.237 57.2755 202.781 57.2532 203.328C57.2308 203.876 57.0676 204.408 56.7792 204.874C56.4908 205.34 56.087 205.724 55.6069 205.988C55.1268 206.253 54.5867 206.389 54.0387 206.383L41.3835 206.381Z" fill="#915E3A" stroke="#45413C" stroke-width="1.5" stroke-linecap="round" stroke-linejoin="round"/>
<path d="M71.735 206.381C71.186 206.388 70.6444 206.254 70.1626 205.991C69.6809 205.727 69.2754 205.344 68.9856 204.877C68.6958 204.411 68.5315 203.878 68.5086 203.329C68.4857 202.78 68.6051 202.235 68.855 201.746C69.685 200.245 70.9028 198.994 72.3812 198.124C73.8596 197.254 75.5444 196.797 77.2599 196.8H78.8583C80.5731 196.798 82.2571 197.256 83.7346 198.126C85.2121 198.997 86.429 200.248 87.2583 201.749C87.5082 202.238 87.6276 202.783 87.6047 203.331C87.5818 203.88 87.4175 204.413 87.1277 204.88C86.8379 205.346 86.4324 205.73 85.9507 205.993C85.4689 206.256 84.9273 206.391 84.3783 206.383L71.735 206.381Z" fill="#915E3A" stroke="#45413C" stroke-width="1.5" stroke-linecap="round" stroke-linejoin="round"/>
<path d="M30.9375 120.115V123.31H42.1215V145.68H83.6559V123.31H94.8399V120.115C94.8399 111.641 91.4737 103.514 85.4816 97.5224C79.4896 91.5303 71.3627 88.1641 62.8887 88.1641C54.4147 88.1641 46.2878 91.5303 40.2958 97.5224C34.3038 103.514 30.9375 111.641 30.9375 120.115Z" fill="#F0F0F0"/>
<path d="M62.8815 88.1641C54.4099 88.1698 46.2871 91.5381 40.2975 97.5291C34.3078 103.52 30.9413 111.644 30.9375 120.115V123.31H31.1007C31.8942 115.43 35.5857 108.127 41.4592 102.815C47.3327 97.5033 54.9696 94.5622 62.8887 94.5622C70.8078 94.5622 78.4447 97.5033 84.3182 102.815C90.1917 108.127 93.8832 115.43 94.6767 123.31H94.8399V120.115C94.8323 111.642 91.4626 103.519 85.4707 97.5282C79.4787 91.5377 71.3544 88.1698 62.8815 88.1641Z" fill="white"/>
<path d="M30.9375 120.115V123.31H42.1215V145.68H83.6559V123.31H94.8399V120.115C94.838 113.234 92.6139 106.537 88.4987 101.022C84.3836 95.5063 78.5974 91.4672 72.0015 89.5057C69.051 88.6033 65.9813 88.151 62.8959 88.1641C54.4218 88.166 46.2953 91.5327 40.3026 97.5241C34.3098 103.515 30.9413 111.641 30.9375 120.115V120.115Z" stroke="#45413C" stroke-width="1.5" stroke-linecap="round" stroke-linejoin="round"/>
<path d="M71.6011 89.3881C71.0791 89.2344 70.6209 88.9155 70.2955 88.4793C69.9701 88.0431 69.7949 87.5131 69.7963 86.9689V76.5985H55.9723V87.3049C55.972 87.7597 55.8236 88.202 55.5495 88.5649C55.2753 88.9277 54.8905 89.1915 54.4531 89.3161C54.6763 91.0393 55.9243 97.7497 62.8891 97.7497C69.6619 97.7497 71.5483 91.4233 71.9947 89.5057L71.6011 89.3881Z" fill="#D18660" stroke="#45413C" stroke-width="1.5" stroke-linecap="round" stroke-linejoin="round"/>
<path d="M127.408 89.5199C126.894 89.36 126.444 89.0395 126.125 88.6055C125.806 88.1715 125.634 87.6466 125.635 87.1079V76.6079H111.811L111.799 87.1679C111.799 87.7027 111.629 88.2236 111.313 88.6551C110.997 89.0866 110.552 89.4063 110.042 89.5679C109.817 89.6399 109.593 89.7143 109.37 89.7911C109.744 92.0195 110.896 94.0431 112.621 95.5025C114.346 96.962 116.533 97.7628 118.792 97.7628C121.052 97.7628 123.239 96.962 124.964 95.5025C126.689 94.0431 127.841 92.0195 128.215 89.7911C127.956 89.6831 127.682 89.5943 127.408 89.5199Z" fill="#D18660" stroke="#45413C" stroke-width="1.5" stroke-linecap="round" stroke-linejoin="round"/>
<path d="M42.1143 113.726V123.31" stroke="#45413C" stroke-width="1.5" stroke-linecap="round" stroke-linejoin="round"/>
<path d="M83.6523 113.726V123.31" stroke="#45413C" stroke-width="1.5" stroke-linecap="round" stroke-linejoin="round"/>
<path d="M85.2513 66.48C85.2449 65.5693 84.9231 64.689 84.3407 63.9889C83.7583 63.2887 82.9512 62.8121 82.0569 62.64V60.084C82.0569 54.9995 80.037 50.1233 76.4417 46.528C72.8464 42.9327 67.9702 40.9128 62.8857 40.9128C57.8011 40.9128 52.9249 42.9327 49.3296 46.528C45.7343 50.1233 43.7144 54.9995 43.7144 60.084V62.64C42.784 62.816 41.9488 63.3233 41.3637 64.0679C40.7787 64.8126 40.4834 65.744 40.5326 66.6897C40.5819 67.6354 40.9722 68.5312 41.6314 69.2111C42.2906 69.891 43.1739 70.3088 44.1176 70.3872C45.0187 74.6981 47.3763 78.5673 50.7941 81.3446C54.2119 84.1219 58.4817 85.6379 62.8857 85.6379C67.2896 85.6379 71.5594 84.1219 74.9772 81.3446C78.395 78.5673 80.7526 74.6981 81.6537 70.3872C82.6311 70.298 83.5404 69.8488 84.2052 69.1268C84.87 68.4047 85.2428 67.4615 85.2513 66.48Z" fill="#D18660" stroke="#45413C" stroke-width="1.5" stroke-linecap="round" stroke-linejoin="round"/>
<path d="M58.0959 62.4815C58.0959 62.9562 57.9552 63.4202 57.6914 63.8149C57.4277 64.2096 57.0529 64.5172 56.6143 64.6989C56.1758 64.8805 55.6932 64.928 55.2277 64.8354C54.7621 64.7428 54.3345 64.5143 53.9988 64.1786C53.6632 63.843 53.4346 63.4153 53.342 62.9498C53.2494 62.4842 53.2969 62.0016 53.4786 61.5631C53.6602 61.1246 53.9679 60.7497 54.3625 60.486C54.7572 60.2223 55.2212 60.0815 55.6959 60.0815C56.3324 60.0815 56.9429 60.3344 57.393 60.7845C57.8431 61.2346 58.0959 61.845 58.0959 62.4815Z" fill="#45413C"/>
<path d="M67.6807 62.4815C67.6807 62.9562 67.8214 63.4202 68.0851 63.8149C68.3489 64.2096 68.7237 64.5172 69.1622 64.6989C69.6008 64.8805 70.0833 64.928 70.5489 64.8354C71.0144 64.7428 71.4421 64.5143 71.7777 64.1786C72.1134 63.843 72.342 63.4153 72.4346 62.9498C72.5272 62.4842 72.4796 62.0016 72.298 61.5631C72.1163 61.1246 71.8087 60.7497 71.414 60.486C71.0194 60.2223 70.5553 60.0815 70.0807 60.0815C69.4441 60.0815 68.8337 60.3344 68.3836 60.7845C67.9335 61.2346 67.6807 61.845 67.6807 62.4815Z" fill="#45413C"/>
<path d="M54.8977 68.8801C54.8977 69.3548 54.7569 69.8188 54.4932 70.2135C54.2295 70.6081 53.8546 70.9158 53.4161 71.0974C52.9776 71.2791 52.495 71.3266 52.0294 71.234C51.5639 71.1414 51.1362 70.9128 50.8006 70.5772C50.465 70.2415 50.2364 69.8139 50.1438 69.3483C50.0512 68.8828 50.0987 68.4002 50.2803 67.9617C50.462 67.5231 50.7696 67.1483 51.1643 66.8846C51.559 66.6209 52.023 66.4801 52.4977 66.4801C53.1342 66.4801 53.7446 66.733 54.1947 67.183C54.6448 67.6331 54.8977 68.2436 54.8977 68.8801Z" fill="#BD704A"/>
<path d="M75.6691 68.8801C75.6691 69.3548 75.5284 69.8188 75.2647 70.2135C75.001 70.6081 74.6261 70.9158 74.1876 71.0974C73.749 71.2791 73.2665 71.3266 72.8009 71.234C72.3354 71.1414 71.9077 70.9128 71.5721 70.5772C71.2364 70.2415 71.0079 69.8139 70.9153 69.3483C70.8227 68.8828 70.8702 68.4002 71.0518 67.9617C71.2335 67.5231 71.5411 67.1483 71.9358 66.8846C72.3305 66.6209 72.7945 66.4801 73.2691 66.4801C73.9057 66.4801 74.5161 66.733 74.9662 67.183C75.4163 67.6331 75.6691 68.2436 75.6691 68.8801Z" fill="#BD704A"/>
<path d="M58.0957 74.6088C59.515 75.555 61.1827 76.06 62.8885 76.06C64.5943 76.06 66.262 75.555 67.6813 74.6088" stroke="#45413C" stroke-width="1.5" stroke-linecap="round" stroke-linejoin="round"/>
<path d="M83.6535 55.2911C83.6535 49.7833 81.4656 44.5011 77.571 40.6065C73.6764 36.7119 68.3941 34.5239 62.8863 34.5239C57.3785 34.5239 52.0963 36.7119 48.2017 40.6065C44.3071 44.5011 42.1191 49.7833 42.1191 55.2911V61.6799C44.5982 61.0579 46.8988 59.8681 48.8393 58.2046C50.7799 56.541 52.3072 54.4493 53.3007 52.0943C62.2503 58.1231 74.0679 56.8799 83.6535 55.2911Z" fill="#724F3D"/>
<path d="M62.8815 42.5112C67.0228 42.5123 71.0693 43.7519 74.5006 46.0708C77.9319 48.3897 80.5912 51.6818 82.1367 55.524C82.6407 55.4472 83.1591 55.3728 83.6487 55.284C83.6487 49.7762 81.4607 44.494 77.5661 40.5994C73.6715 36.7048 68.3893 34.5168 62.8815 34.5168C57.3737 34.5168 52.0914 36.7048 48.1968 40.5994C44.3022 44.494 42.1143 49.7762 42.1143 55.284V61.68L42.1959 61.6536C42.6018 56.4452 44.957 51.5814 48.7914 48.0331C52.6258 44.4848 57.6572 42.513 62.8815 42.5112Z" fill="#A86C4D"/>
<path d="M83.6535 55.2911C83.6535 49.7833 81.4656 44.5011 77.571 40.6065C73.6764 36.7119 68.3941 34.5239 62.8863 34.5239C57.3785 34.5239 52.0963 36.7119 48.2017 40.6065C44.3071 44.5011 42.1191 49.7833 42.1191 55.2911V61.6799C44.5982 61.0579 46.8988 59.8681 48.8393 58.2046C50.7798 56.541 52.3072 54.4493 53.3007 52.0943C62.2503 58.1231 74.0679 56.8799 83.6535 55.2911Z" stroke="#45413C" stroke-width="1.5" stroke-linecap="round" stroke-linejoin="round"/>
<path d="M50.1074 48.9023C50.9211 50.1917 52.0125 51.2831 53.3018 52.0967" stroke="#45413C" stroke-width="1.5" stroke-linecap="round" stroke-linejoin="round"/>
<path d="M83.655 126.506C83.655 126.926 83.5724 127.341 83.4119 127.729C83.2514 128.116 83.0161 128.469 82.7194 128.765C82.4228 129.062 82.0707 129.297 81.6831 129.458C81.2955 129.618 80.8801 129.701 80.4607 129.701H70.0806C68.6179 129.731 67.2253 130.333 66.2016 131.379C65.1779 132.424 64.6045 133.829 64.6045 135.292C64.6045 136.755 65.1779 138.159 66.2016 139.205C67.2253 140.25 68.6179 140.852 70.0806 140.882H80.4654C84.2784 140.882 87.9353 139.368 90.6317 136.672C93.3281 133.976 94.8432 130.319 94.8439 126.506V123.31H83.6599L83.655 126.506Z" fill="#D18660" stroke="#45413C" stroke-width="1.5" stroke-linecap="round" stroke-linejoin="round"/>
<path d="M56.4969 107.335C54.8236 107.368 53.2298 108.055 52.0579 109.25C50.886 110.445 50.2295 112.052 50.2295 113.725C50.2295 115.399 50.886 117.006 52.0579 118.2C53.2298 119.395 54.8236 120.083 56.4969 120.115V115.315" stroke="#00AED9" stroke-width="1.5" stroke-linecap="round" stroke-linejoin="round"/>
<path d="M69.2773 120.115C70.1269 120.132 70.9712 119.979 71.7609 119.665C72.5506 119.351 73.2698 118.883 73.8765 118.288C74.4831 117.693 74.965 116.983 75.294 116.2C75.623 115.416 75.7924 114.575 75.7924 113.725C75.7924 112.875 75.623 112.034 75.294 111.251C74.965 110.467 74.4831 109.757 73.8765 109.162C73.2698 108.567 72.5506 108.099 71.7609 107.786C70.9712 107.472 70.1269 107.319 69.2773 107.335V112.135" stroke="#48CF3E" stroke-width="1.5" stroke-linecap="round" stroke-linejoin="round"/>
<path d="M61.2891 107.335V112.128" stroke="#FF4064" stroke-width="1.5" stroke-linecap="round" stroke-linejoin="round"/>
<path d="M64.4873 115.322V120.115" stroke="#FFB700" stroke-width="1.5" stroke-linecap="round" stroke-linejoin="round"/>
<path d="M42.119 123.31V135.418C42.1177 137.653 42.6689 139.854 43.7237 141.825C44.7784 143.796 46.304 145.475 48.1646 146.714L49.2134 147.413C49.2542 147.442 49.283 147.478 49.3238 147.504L42.4406 156.338L41.9606 156.019C38.5661 153.761 35.7828 150.698 33.8587 147.104C31.9345 143.509 30.9293 139.495 30.9326 135.418V123.31H42.119Z" fill="#D18660" stroke="#45413C" stroke-width="1.5" stroke-linecap="round" stroke-linejoin="round"/>
<path d="M153.945 145.68V203.018H168.324L169.586 163.255C169.636 161.928 170.198 160.673 171.154 159.752C172.11 158.831 173.386 158.316 174.714 158.316C176.041 158.316 177.317 158.831 178.273 159.752C179.23 160.673 179.792 161.928 179.841 163.255L181.104 203.018H195.482V145.68H153.945Z" fill="#FFCEBF" stroke="#45413C" stroke-width="1.5" stroke-linecap="round" stroke-linejoin="round"/>
<path d="M169.181 176.028L169.586 163.255C169.636 161.928 170.198 160.673 171.154 159.752C172.11 158.831 173.386 158.316 174.714 158.316C176.041 158.316 177.317 158.831 178.273 159.752C179.23 160.673 179.792 161.928 179.841 163.255L180.247 176.028H195.482V145.68H153.945V176.028H169.181Z" fill="#DEBB7E"/>
<path d="M153.945 145.675H195.48V153.662H153.945V145.675Z" fill="#B89558"/>
<path d="M169.181 176.028L169.586 163.255C169.636 161.928 170.198 160.673 171.154 159.752C172.11 158.831 173.386 158.316 174.714 158.316C176.041 158.316 177.317 158.831 178.273 159.752C179.23 160.673 179.792 161.928 179.841 163.255L180.247 176.028H195.482V145.68H153.945V176.028H169.181Z" stroke="#45413C" stroke-width="1.5" stroke-linecap="round" stroke-linejoin="round"/>
<path d="M152.349 176.028H171.52V184.015H152.349V176.028Z" fill="#F0D5A8" stroke="#45413C" stroke-width="1.5" stroke-linecap="round" stroke-linejoin="round"/>
<path d="M177.91 176.028H197.081V184.015H177.91V176.028Z" fill="#F0D5A8" stroke="#45413C" stroke-width="1.5" stroke-linecap="round" stroke-linejoin="round"/>
<path d="M196.218 206.381C196.766 206.386 197.306 206.25 197.785 205.985C198.265 205.721 198.669 205.337 198.957 204.871C199.245 204.405 199.408 203.873 199.43 203.325C199.452 202.778 199.333 202.234 199.084 201.746C198.255 200.247 197.039 198.997 195.563 198.127C194.087 197.257 192.404 196.799 190.691 196.8H189.092C187.377 196.797 185.693 197.255 184.216 198.125C182.738 198.996 181.521 200.247 180.692 201.749C180.442 202.236 180.322 202.78 180.344 203.328C180.366 203.876 180.529 204.408 180.817 204.875C181.106 205.341 181.509 205.725 181.99 205.989C182.47 206.253 183.01 206.389 183.558 206.383L196.218 206.381Z" fill="#915E3A" stroke="#45413C" stroke-width="1.5" stroke-linecap="round" stroke-linejoin="round"/>
<path d="M165.863 206.381C166.412 206.388 166.953 206.254 167.435 205.991C167.917 205.727 168.322 205.344 168.612 204.877C168.902 204.411 169.066 203.878 169.089 203.329C169.112 202.78 168.993 202.235 168.743 201.746C167.913 200.245 166.695 198.994 165.216 198.124C163.738 197.254 162.053 196.797 160.338 196.8H158.739C157.025 196.798 155.341 197.256 153.863 198.126C152.386 198.997 151.169 200.248 150.339 201.749C150.089 202.238 149.97 202.783 149.993 203.331C150.016 203.88 150.18 204.413 150.47 204.88C150.76 205.346 151.165 205.73 151.647 205.993C152.129 206.256 152.67 206.391 153.219 206.383L165.863 206.381Z" fill="#915E3A" stroke="#45413C" stroke-width="1.5" stroke-linecap="round" stroke-linejoin="round"/>
<path d="M206.665 120.115V123.309H195.483V145.68H153.946V123.309H142.765V120.115C142.728 115.896 143.528 111.712 145.117 107.803C146.706 103.895 149.054 100.34 152.024 97.3434C154.995 94.3471 158.529 91.9687 162.424 90.3457C166.318 88.7226 170.496 87.887 174.715 87.887C178.934 87.887 183.111 88.7226 187.006 90.3457C190.9 91.9687 194.435 94.3471 197.405 97.3434C200.376 100.34 202.724 103.895 204.313 107.803C205.902 111.712 206.701 115.896 206.665 120.115Z" fill="#F0F0F0"/>
<path d="M174.72 88.1641C166.247 88.1698 158.123 91.5377 152.131 97.5284C146.14 103.519 142.771 111.643 142.764 120.115V123.31H142.924C143.718 115.43 147.409 108.127 153.283 102.815C159.156 97.5033 166.793 94.5622 174.712 94.5622C182.632 94.5622 190.268 97.5033 196.142 102.815C202.015 108.127 205.707 115.43 206.5 123.31H206.664V120.115C206.66 111.644 203.293 103.52 197.304 97.5291C191.314 91.5381 183.191 88.1698 174.72 88.1641Z" fill="white"/>
<path d="M206.665 120.115V123.309H195.483V145.68H153.946V123.309H142.765V120.115C142.728 115.896 143.528 111.712 145.117 107.803C146.706 103.895 149.054 100.34 152.024 97.3434C154.995 94.3471 158.529 91.9687 162.424 90.3457C166.318 88.7226 170.496 87.887 174.715 87.887C178.934 87.887 183.111 88.7226 187.006 90.3457C190.9 91.9687 194.435 94.3471 197.405 97.3434C200.376 100.34 202.724 103.895 204.313 107.803C205.902 111.712 206.701 115.896 206.665 120.115V120.115Z" stroke="#45413C" stroke-width="1.5" stroke-linecap="round" stroke-linejoin="round"/>
<path d="M183.121 89.3065C182.593 89.1568 182.129 88.8387 181.798 88.4007C181.468 87.9626 181.29 87.4286 181.292 86.8801V76.5985H167.473V87.0769C167.47 87.6145 167.296 88.1373 166.976 88.569C166.656 89.0008 166.206 89.3189 165.692 89.4769L165.601 89.5057C166.049 91.4257 167.933 97.7497 174.706 97.7497C181.666 97.7497 182.919 91.0297 183.142 89.3161L183.121 89.3065Z" fill="#FFCEBF" stroke="#45413C" stroke-width="1.5" stroke-linecap="round" stroke-linejoin="round"/>
<path d="M195.483 113.726V123.31" stroke="#45413C" stroke-width="1.5" stroke-linecap="round" stroke-linejoin="round"/>
<path d="M153.945 113.726V123.31" stroke="#45413C" stroke-width="1.5" stroke-linecap="round" stroke-linejoin="round"/>
<path d="M153.945 126.506C153.945 127.354 154.282 128.166 154.881 128.765C155.48 129.364 156.292 129.701 157.14 129.701H167.52C168.264 129.685 169.003 129.819 169.695 130.093C170.387 130.367 171.017 130.776 171.549 131.297C172.08 131.817 172.502 132.439 172.791 133.125C173.079 133.811 173.228 134.547 173.228 135.292C173.228 136.036 173.079 136.772 172.791 137.458C172.502 138.144 172.08 138.766 171.549 139.286C171.017 139.807 170.387 140.216 169.695 140.491C169.003 140.765 168.264 140.898 167.52 140.882H157.14C155.252 140.882 153.382 140.511 151.638 139.788C149.894 139.066 148.309 138.007 146.974 136.672C145.639 135.337 144.58 133.752 143.858 132.008C143.136 130.264 142.764 128.394 142.764 126.506V123.31H153.945V126.506Z" fill="#FFCEBF" stroke="#45413C" stroke-width="1.5" stroke-linecap="round" stroke-linejoin="round"/>
<path d="M152.349 66.48C152.355 65.569 152.677 64.6884 153.26 63.9882C153.843 63.288 154.651 62.8116 155.545 62.64V60.084C155.602 55.037 157.646 50.2158 161.235 46.6668C164.824 43.1178 169.668 41.1273 174.715 41.1273C179.763 41.1273 184.607 43.1178 188.195 46.6668C191.784 50.2158 193.829 55.037 193.885 60.084V62.64C194.816 62.816 195.651 63.3233 196.236 64.0679C196.821 64.8125 197.116 65.744 197.067 66.6897C197.018 67.6354 196.628 68.5312 195.968 69.2111C195.309 69.891 194.426 70.3088 193.482 70.3872C192.581 74.698 190.224 78.5673 186.806 81.3446C183.388 84.1219 179.118 85.6379 174.714 85.6379C170.31 85.6379 166.041 84.1219 162.623 81.3446C159.205 78.5673 156.847 74.698 155.946 70.3872C154.969 70.298 154.059 69.8487 153.395 69.1267C152.73 68.4047 152.357 67.4614 152.349 66.48Z" fill="#FFCEBF" stroke="#45413C" stroke-width="1.5" stroke-linecap="round" stroke-linejoin="round"/>
<path d="M179.507 62.4815C179.507 62.9562 179.648 63.4202 179.911 63.8149C180.175 64.2096 180.55 64.5172 180.988 64.6989C181.427 64.8805 181.909 64.928 182.375 64.8354C182.841 64.7428 183.268 64.5143 183.604 64.1786C183.94 63.843 184.168 63.4153 184.261 62.9498C184.353 62.4842 184.306 62.0016 184.124 61.5631C183.942 61.1246 183.635 60.7497 183.24 60.486C182.846 60.2223 182.382 60.0815 181.907 60.0815C181.27 60.0815 180.66 60.3344 180.21 60.7845C179.76 61.2346 179.507 61.845 179.507 62.4815Z" fill="#45413C"/>
<path d="M169.922 62.4815C169.922 62.9562 169.781 63.4202 169.518 63.8149C169.254 64.2096 168.879 64.5172 168.441 64.6989C168.002 64.8805 167.519 64.928 167.054 64.8354C166.588 64.7428 166.161 64.5143 165.825 64.1786C165.489 63.843 165.261 63.4153 165.168 62.9498C165.076 62.4842 165.123 62.0016 165.305 61.5631C165.486 61.1246 165.794 60.7497 166.189 60.486C166.583 60.2223 167.047 60.0815 167.522 60.0815C168.159 60.0815 168.769 60.3344 169.219 60.7845C169.669 61.2346 169.922 61.845 169.922 62.4815Z" fill="#45413C"/>
<path d="M182.7 68.8801C182.7 69.3548 182.841 69.8188 183.105 70.2135C183.368 70.6081 183.743 70.9158 184.182 71.0974C184.62 71.2791 185.103 71.3266 185.568 71.234C186.034 71.1414 186.462 70.9128 186.797 70.5772C187.133 70.2415 187.361 69.8139 187.454 69.3483C187.547 68.8828 187.499 68.4002 187.318 67.9617C187.136 67.5231 186.828 67.1483 186.434 66.8846C186.039 66.6209 185.575 66.4801 185.1 66.4801C184.464 66.4801 183.853 66.733 183.403 67.183C182.953 67.6331 182.7 68.2436 182.7 68.8801Z" fill="#FFB59E"/>
<path d="M161.934 68.8801C161.934 69.3548 162.074 69.8188 162.338 70.2135C162.602 70.6081 162.977 70.9158 163.415 71.0974C163.854 71.2791 164.336 71.3266 164.802 71.234C165.267 71.1414 165.695 70.9128 166.031 70.5772C166.366 70.2415 166.595 69.8139 166.687 69.3483C166.78 68.8828 166.733 68.4002 166.551 67.9617C166.369 67.5231 166.062 67.1483 165.667 66.8846C165.272 66.6209 164.808 66.4801 164.334 66.4801C163.697 66.4801 163.087 66.733 162.637 67.183C162.186 67.6331 161.934 68.2436 161.934 68.8801Z" fill="#FFB59E"/>
<path d="M169.922 74.6088C171.341 75.555 173.009 76.06 174.715 76.06C176.42 76.06 178.088 75.555 179.507 74.6088" stroke="#45413C" stroke-width="1.5" stroke-linecap="round" stroke-linejoin="round"/>
<path d="M174.72 40.9152C179.804 40.9152 184.68 42.9347 188.276 46.5294C191.871 50.1242 193.891 54.9999 193.891 60.084V61.8384C192.493 61.8189 191.158 61.2517 190.174 60.2585C189.189 59.2654 188.633 57.9256 188.626 56.5272C188.546 56.0262 188.367 55.5463 188.099 55.1157C187.831 54.6852 187.479 54.3128 187.064 54.0206C186.65 53.7284 186.181 53.5223 185.685 53.4144C185.189 53.3066 184.677 53.2992 184.179 53.3928C181.063 54.0087 177.896 54.3237 174.72 54.3336C171.545 54.3239 168.379 54.0088 165.264 53.3928C164.765 53.2971 164.251 53.3028 163.753 53.4096C163.256 53.5164 162.785 53.7221 162.368 54.0145C161.952 54.3069 161.599 54.68 161.329 55.1116C161.06 55.5433 160.88 56.0246 160.8 56.5272C160.794 57.9254 160.238 59.2652 159.254 60.2584C158.27 61.2516 156.935 61.8189 155.537 61.8384V60.084C155.537 57.5655 156.033 55.0717 156.998 52.7451C157.962 50.4185 159.375 48.3047 161.157 46.5245C162.938 44.7443 165.053 43.3326 167.38 42.3702C169.708 41.4077 172.202 40.9133 174.72 40.9152Z" fill="#FFBE3D" stroke="#45413C" stroke-width="1.5" stroke-linecap="round" stroke-linejoin="round"/>
<path d="M199.539 57.2832C199.856 58.5012 199.931 59.7698 199.758 61.0167C199.586 62.2635 199.169 63.4642 198.532 64.55C197.896 65.6358 197.051 66.5856 196.047 67.345C195.043 68.1044 193.9 68.6586 192.682 68.976L187.707 70.2744C187.571 70.31 187.427 70.2999 187.297 70.2456C187.168 70.1912 187.06 70.0957 186.99 69.9738C186.921 69.8519 186.893 69.7104 186.912 69.5712C186.931 69.432 186.995 69.303 187.095 69.204C188.07 68.2369 188.771 67.0287 189.127 65.7024C189.483 64.3761 189.482 62.9791 189.123 61.6536C188.853 60.821 188.273 60.1245 187.502 59.7092C186.732 59.2938 185.831 59.1917 184.987 59.424C183.258 59.8318 181.456 59.8231 179.73 59.3987C178.005 58.9742 176.404 58.1461 175.061 56.9825C173.718 55.8189 172.671 54.353 172.005 52.7054C171.339 51.0578 171.073 49.2757 171.231 47.5056C171.404 45.1998 172.306 43.009 173.807 41.2503C175.308 39.4916 177.33 38.2563 179.58 37.7232C183.269 36.7606 187.189 37.3025 190.478 39.2297C193.767 41.1569 196.156 44.3116 197.119 48L199.539 57.2832Z" fill="#724F3D"/>
<path d="M199.539 57.2832C199.856 58.5012 199.931 59.7698 199.758 61.0167C199.586 62.2635 199.169 63.4642 198.532 64.55C197.896 65.6358 197.051 66.5856 196.047 67.345C195.043 68.1044 193.9 68.6586 192.682 68.976L187.707 70.2744C187.571 70.31 187.427 70.2999 187.297 70.2456C187.168 70.1912 187.06 70.0957 186.99 69.9738C186.921 69.8519 186.893 69.7104 186.912 69.5712C186.931 69.432 186.995 69.303 187.095 69.204C188.07 68.2369 188.771 67.0287 189.127 65.7024C189.483 64.3761 189.482 62.9791 189.123 61.6536C188.853 60.821 188.273 60.1245 187.502 59.7092C186.732 59.2938 185.831 59.1917 184.987 59.424C183.258 59.8318 181.456 59.8231 179.73 59.3987C178.005 58.9742 176.404 58.1461 175.061 56.9825C173.718 55.8189 172.671 54.353 172.005 52.7054C171.339 51.0578 171.073 49.2757 171.231 47.5056C171.404 45.1998 172.306 43.009 173.807 41.2503C175.308 39.4916 177.33 38.2563 179.58 37.7232C183.269 36.7606 187.189 37.3025 190.478 39.2297C193.767 41.1569 196.156 44.3116 197.119 48L199.539 57.2832Z" fill="#FFBE3D"/>
<path d="M171.229 47.5056C171.403 45.1999 172.306 43.0094 173.808 41.2508C175.309 39.4923 177.331 38.2569 179.581 37.7232C183.269 36.7606 187.189 37.3025 190.478 39.2297C193.768 41.1569 196.157 44.3116 197.12 48L199.539 57.276C199.932 58.7737 199.954 60.3445 199.604 61.8528L199.578 61.8384L197.691 54.6384C197.215 52.8112 196.384 51.0957 195.245 49.5899C194.106 48.084 192.681 46.8173 191.052 45.8621C189.424 44.9069 187.623 44.2819 185.752 44.0228C183.882 43.7637 181.979 43.8755 180.152 44.352C178.17 44.9229 176.377 46.0128 174.958 47.509C173.538 49.0051 172.544 50.8533 172.078 52.8624C171.384 51.1668 171.093 49.3329 171.229 47.5056Z" fill="#FFDA8F"/>
<path d="M199.539 57.2832C199.856 58.5012 199.931 59.7698 199.758 61.0167C199.586 62.2635 199.169 63.4642 198.532 64.55C197.896 65.6358 197.051 66.5856 196.047 67.345C195.043 68.1044 193.9 68.6586 192.682 68.976L187.707 70.2744C187.571 70.31 187.427 70.2999 187.297 70.2456C187.168 70.1912 187.06 70.0957 186.99 69.9738C186.921 69.8519 186.893 69.7104 186.912 69.5712C186.931 69.432 186.995 69.303 187.095 69.204C188.07 68.2369 188.771 67.0287 189.127 65.7024C189.483 64.3761 189.482 62.9791 189.123 61.6536C188.853 60.821 188.273 60.1245 187.502 59.7092C186.732 59.2938 185.831 59.1917 184.987 59.424C183.258 59.8318 181.456 59.8231 179.73 59.3987C178.005 58.9742 176.404 58.1461 175.061 56.9825C173.718 55.8189 172.671 54.353 172.005 52.7054C171.339 51.0578 171.073 49.2757 171.231 47.5056C171.404 45.1998 172.306 43.009 173.807 41.2503C175.308 39.4916 177.33 38.2563 179.58 37.7232C183.269 36.7606 187.189 37.3025 190.478 39.2297C193.767 41.1569 196.156 44.3116 197.119 48L199.539 57.2832Z" stroke="#45413C" stroke-width="1.5" stroke-linecap="round" stroke-linejoin="round"/>
<path d="M197.93 51.0984C198.252 52.3274 199.048 53.3786 200.144 54.0215C201.24 54.6643 202.546 54.8465 203.776 54.528" stroke="#45413C" stroke-width="1.5" stroke-linecap="round" stroke-linejoin="round"/>
<path d="M168.322 107.335C167.472 107.319 166.628 107.472 165.838 107.786C165.048 108.099 164.329 108.567 163.723 109.162C163.116 109.757 162.634 110.467 162.305 111.251C161.976 112.034 161.807 112.875 161.807 113.725C161.807 114.575 161.976 115.416 162.305 116.2C162.634 116.983 163.116 117.693 163.723 118.288C164.329 118.883 165.048 119.351 165.838 119.665C166.628 119.979 167.472 120.132 168.322 120.115V115.315" stroke="#00AED9" stroke-width="1.5" stroke-linecap="round" stroke-linejoin="round"/>
<path d="M181.104 120.115C182.777 120.083 184.371 119.395 185.543 118.2C186.714 117.006 187.371 115.399 187.371 113.725C187.371 112.052 186.714 110.445 185.543 109.25C184.371 108.055 182.777 107.368 181.104 107.335V112.135" stroke="#48CF3E" stroke-width="1.5" stroke-linecap="round" stroke-linejoin="round"/>
<path d="M173.115 107.335V112.128" stroke="#FF4064" stroke-width="1.5" stroke-linecap="round" stroke-linejoin="round"/>
<path d="M176.309 115.322V120.115" stroke="#FFB700" stroke-width="1.5" stroke-linecap="round" stroke-linejoin="round"/>
<path d="M195.484 123.31V135.418C195.484 137.653 194.933 139.854 193.878 141.825C192.822 143.796 191.297 145.476 189.436 146.714L188.387 147.413C188.346 147.442 188.317 147.478 188.276 147.504L195.16 156.338L195.64 156.019C199.034 153.761 201.817 150.698 203.74 147.103C205.664 143.509 206.669 139.494 206.665 135.418V123.31H195.484Z" fill="#FFCEBF" stroke="#45413C" stroke-width="1.5" stroke-linecap="round" stroke-linejoin="round"/>
<path d="M136.372 123.31V113.726" stroke="#45413C" stroke-width="1.5" stroke-linecap="round" stroke-linejoin="round"/>
<path d="M101.226 123.31V113.726" stroke="#45413C" stroke-width="1.5" stroke-linecap="round" stroke-linejoin="round"/>
<path d="M128.497 33.4992C128.497 38.7672 123.377 77.3784 118.957 77.3784C114.536 77.3784 109.419 38.7672 109.419 33.4992C109.419 28.2312 113.689 22.0536 118.957 22.0536C124.225 22.0536 128.497 28.2312 128.497 33.4992Z" fill="#724F3D" stroke="#45413C" stroke-width="1.5" stroke-linecap="round" stroke-linejoin="round"/>
<path d="M143.76 56.4C143.76 71.1504 132.656 85.0152 118.959 85.0152C105.262 85.0152 94.1595 71.1432 94.1595 56.4C94.0693 53.1183 94.6489 49.8527 95.8631 46.8026C97.0773 43.7525 98.9006 40.9819 101.222 38.6601C103.542 36.3383 106.312 34.5139 109.362 33.2986C112.412 32.0832 115.677 31.5022 118.959 31.5912C122.241 31.5019 125.506 32.0826 128.556 33.2978C131.606 34.5131 134.376 36.3373 136.697 38.6592C139.019 40.981 140.842 43.7517 142.056 46.802C143.271 49.8523 143.851 53.1181 143.76 56.4Z" fill="#724F3D"/>
<path d="M118.959 39.2232C124.928 39.0589 130.744 41.1211 135.276 45.0084C139.809 48.8958 142.733 54.3303 143.48 60.2544C143.656 58.977 143.75 57.6895 143.76 56.4C143.851 53.1181 143.271 49.8523 142.056 46.802C140.842 43.7517 139.019 40.981 136.697 38.6592C134.376 36.3373 131.606 34.5131 128.556 33.2978C125.506 32.0826 122.241 31.5019 118.959 31.5912C115.677 31.5022 112.412 32.0832 109.362 33.2986C106.312 34.5139 103.542 36.3383 101.222 38.6601C98.9006 40.9819 97.0773 43.7525 95.8631 46.8026C94.6489 49.8527 94.0693 53.1184 94.1595 56.4C94.1699 57.6919 94.2637 58.9818 94.4403 60.2616C95.1854 54.3366 98.1084 48.9007 102.64 45.0119C107.172 41.1232 112.989 39.0597 118.959 39.2232Z" fill="#A86C4D"/>
<path d="M143.76 56.4C143.76 71.1504 132.656 85.0152 118.959 85.0152C105.262 85.0152 94.1595 71.1432 94.1595 56.4C94.0693 53.1183 94.6489 49.8527 95.8631 46.8026C97.0773 43.7525 98.9006 40.9819 101.222 38.6601C103.542 36.3383 106.312 34.5139 109.362 33.2986C112.412 32.0832 115.677 31.5022 118.959 31.5912C122.241 31.5019 125.506 32.0826 128.556 33.2978C131.606 34.5131 134.376 36.3373 136.697 38.6592C139.019 40.981 140.842 43.7517 142.056 46.802C143.271 49.8523 143.851 53.1181 143.76 56.4Z" stroke="#45413C" stroke-width="1.5" stroke-linecap="round" stroke-linejoin="round"/>
<path d="M141.058 66.5688C141.048 67.5505 140.675 68.4938 140.01 69.216C139.345 69.9383 138.436 70.3881 137.458 70.4784C136.562 74.7656 134.217 78.6137 130.818 81.3759C127.419 84.1381 123.173 85.6459 118.793 85.6459C114.413 85.6459 110.167 84.1381 106.768 81.3759C103.369 78.6137 101.024 74.7656 100.128 70.4784C99.1507 70.3881 98.2413 69.9383 97.5763 69.216C96.9112 68.4938 96.5378 67.5505 96.5283 66.5688C96.5355 65.6631 96.8562 64.7879 97.436 64.0922C98.0158 63.3964 98.8188 62.9231 99.7083 62.7528V61.8312C105.708 61.8312 126.735 60.6528 126.735 44.3112C126.735 44.3112 128.326 60.2088 137.864 60.2088V62.7528C138.756 62.9201 139.562 63.3922 140.145 64.0882C140.727 64.7843 141.05 65.6611 141.058 66.5688Z" fill="#D18660" stroke="#45413C" stroke-width="1.5" stroke-linecap="round" stroke-linejoin="round"/>
<path d="M107.515 68.3161C107.515 68.8221 107.716 69.3074 108.073 69.6652C108.431 70.0231 108.917 70.2241 109.423 70.2241C109.929 70.2241 110.414 70.0231 110.772 69.6652C111.13 69.3074 111.331 68.8221 111.331 68.3161C111.331 67.81 111.13 67.3247 110.772 66.9669C110.414 66.6091 109.929 66.4081 109.423 66.4081C108.917 66.4081 108.431 66.6091 108.073 66.9669C107.716 67.3247 107.515 67.81 107.515 68.3161Z" fill="#BD704A"/>
<path d="M126.592 68.3161C126.592 68.8221 126.793 69.3074 127.151 69.6652C127.508 70.0231 127.994 70.2241 128.5 70.2241C129.006 70.2241 129.491 70.0231 129.849 69.6652C130.207 69.3074 130.408 68.8221 130.408 68.3161C130.408 67.81 130.207 67.3247 129.849 66.9669C129.491 66.6091 129.006 66.4081 128.5 66.4081C127.994 66.4081 127.508 66.6091 127.151 66.9669C126.793 67.3247 126.592 67.81 126.592 68.3161Z" fill="#BD704A"/>
<path d="M114.189 73.7375C115.602 74.679 117.262 75.1813 118.959 75.1813C120.657 75.1813 122.317 74.679 123.729 73.7375" stroke="#45413C" stroke-width="1.5" stroke-linecap="round" stroke-linejoin="round"/>
<path d="M110.059 61.9584C110.059 62.5911 110.31 63.1978 110.757 63.6452C111.205 64.0926 111.811 64.3439 112.444 64.3439C113.077 64.3439 113.684 64.0926 114.131 63.6452C114.578 63.1978 114.83 62.5911 114.83 61.9584C114.83 61.3257 114.578 60.7189 114.131 60.2715C113.684 59.8241 113.077 59.5728 112.444 59.5728C111.811 59.5728 111.205 59.8241 110.757 60.2715C110.31 60.7189 110.059 61.3257 110.059 61.9584Z" fill="#45413C"/>
<path d="M122.773 61.9584C122.773 62.5911 123.025 63.1978 123.472 63.6452C123.92 64.0926 124.526 64.3439 125.159 64.3439C125.792 64.3439 126.399 64.0926 126.846 63.6452C127.293 63.1978 127.545 62.5911 127.545 61.9584C127.545 61.3257 127.293 60.7189 126.846 60.2715C126.399 59.8241 125.792 59.5728 125.159 59.5728C124.526 59.5728 123.92 59.8241 123.472 60.2715C123.025 60.7189 122.773 61.3257 122.773 61.9584Z" fill="#45413C"/>
</g>
<defs>
<clipPath id="clip0">
<rect width="240" height="240" fill="white"/>
</clipPath>
</defs>
</svg>

