<svg viewBox="0 0 42 42" fill="none" xmlns="http://www.w3.org/2000/svg">
<path d="M19.25 1.01041C20.3329 0.3852 21.6671 0.3852 22.75 1.01042L37.4365 9.48969C38.5194 10.1149 39.1865 11.2703 39.1865 12.5208V29.4793C39.1865 30.7298 38.5194 31.8852 37.4365 32.5104L22.75 40.9897C21.6671 41.6149 20.3329 41.6149 19.25 40.9897L4.56348 32.5104C3.48057 31.8852 2.81348 30.7298 2.81348 29.4793V12.5208C2.81348 11.2703 3.48057 10.1149 4.56348 9.48969L19.25 1.01041Z" fill="white"/>
<path fill-rule="evenodd" clip-rule="evenodd" d="M36.8334 10.0198L22.5619 1.78017C21.5828 1.21489 20.3765 1.21489 19.3974 1.78017L5.12595 10.0198C4.14686 10.5851 3.54371 11.6298 3.54371 12.7603V29.2396C3.54371 30.3702 4.14686 31.4149 5.12595 31.9802L19.3974 40.2198C20.3765 40.7851 21.5828 40.7851 22.5619 40.2198L36.8334 31.9802C37.8125 31.4149 38.4157 30.3702 38.4157 29.2397V12.7603C38.4157 11.6298 37.8125 10.5851 36.8334 10.0198ZM23.24 0.605659C21.8413 -0.201886 20.1181 -0.201887 18.7193 0.605659L4.44785 8.84531C3.04914 9.65285 2.1875 11.1453 2.1875 12.7603V29.2396C2.1875 30.8547 3.04914 32.3471 4.44785 33.1547L18.7193 41.3943C20.118 42.2019 21.8413 42.2019 23.24 41.3943L37.5115 33.1547C38.9102 32.3471 39.7719 30.8547 39.7719 29.2397V12.7603C39.7719 11.1453 38.9102 9.65285 37.5115 8.84531L23.24 0.605659Z" fill="black"/>
<g clip-path="url(#clip0)">
<path d="M22.2398 23.2206C22.2398 23.9321 21.6238 24.3767 21.0782 24.3767C20.5327 24.3767 19.8781 24.1557 19.8781 23.2206V22.7659H19.1594V23.2206C19.1594 24.2561 20.0205 25.0984 21.0782 25.0984C22.1359 25.0984 22.997 24.2561 22.997 23.2206V22.7659H22.2398V23.2206Z" fill="#130B43"/>
<path d="M16.2035 21.0246C16.2035 20.3452 16.7928 19.7926 17.5167 19.7926C18.2402 19.7926 18.8295 20.3456 18.8295 21.0246H19.6567C19.6567 19.9168 18.6972 19.0159 17.5167 19.0159C16.3363 19.0159 15.3763 19.9168 15.3763 21.0246H16.2035Z" fill="#130B43"/>
<path d="M23.0201 21.0246C23.0201 20.3452 23.6093 19.7926 24.3328 19.7926C25.0568 19.7926 25.6461 20.3456 25.6461 21.0246H26.4733C26.4733 19.9168 25.5133 19.0159 24.3328 19.0159C23.1524 19.0159 22.1929 19.9168 22.1929 21.0246H23.0201Z" fill="#130B43"/>
<path fill-rule="evenodd" clip-rule="evenodd" d="M27.8081 18.3893V15.7192C27.8081 14.8194 27.6987 14.1951 27.4799 13.8463C27.2611 13.4974 26.8056 13.2285 26.1134 13.0394C25.9044 12.9807 25.7999 12.8862 25.7999 12.7558C25.7999 12.5797 26.035 12.4917 26.5052 12.4917H27.2203C27.9975 12.4917 28.5868 12.7329 28.9885 13.2154C29.3901 13.6979 29.5909 14.4021 29.5909 15.328V18.1448C29.5909 18.7968 29.6611 19.2988 29.8015 19.6509C29.9419 20.003 30.2015 20.3323 30.5803 20.6388C30.6913 20.73 30.7468 20.805 30.7468 20.8637C30.7468 20.9224 30.6913 20.9974 30.5803 21.0886C30.195 21.4016 29.9338 21.7325 29.7966 22.0814C29.6595 22.4302 29.5909 22.9306 29.5909 23.5826V26.3896C29.5909 27.322 29.3885 28.0295 28.9836 28.512C28.5787 28.9945 27.9909 29.2357 27.2203 29.2357H26.5052C26.1983 29.2357 26.004 29.221 25.9224 29.1917C25.8407 29.1623 25.7999 29.089 25.7999 28.9716C25.7999 28.8086 25.9077 28.701 26.1232 28.6489L26.515 28.5609C27.3771 28.3652 27.8081 27.5144 27.8081 26.0082V23.3381C27.8081 22.3275 28.053 21.6135 28.5428 21.1962L28.7289 21.0397C28.8203 20.9615 28.866 20.9028 28.866 20.8637C28.866 20.8181 28.8203 20.7594 28.7289 20.6877L28.5428 20.5312C28.053 20.1139 27.8081 19.3999 27.8081 18.3893Z" fill="#130B43"/>
<path fill-rule="evenodd" clip-rule="evenodd" d="M14.2262 18.3663V15.6963C14.2262 14.7965 14.3356 14.1722 14.5544 13.8233C14.7732 13.4745 15.2287 13.2055 15.9209 13.0165C16.1299 12.9578 16.2344 12.8632 16.2344 12.7328C16.2344 12.5568 15.9993 12.4688 15.5291 12.4688H14.814C14.0368 12.4688 13.4475 12.71 13.0458 13.1925C12.6442 13.675 12.4434 14.3792 12.4434 15.3051V18.1218C12.4434 18.7738 12.3732 19.2759 12.2328 19.628C12.0924 19.9801 11.8328 20.3093 11.454 20.6158C11.343 20.7071 11.2875 20.7821 11.2875 20.8408C11.2875 20.8994 11.343 20.9744 11.454 21.0657C11.8393 21.3787 12.1005 21.7096 12.2377 22.0584C12.3748 22.4072 12.4434 22.9077 12.4434 23.5597V26.3667C12.4434 27.2991 12.6458 28.0065 13.0507 28.489C13.4556 28.9715 14.0434 29.2128 14.814 29.2128H15.5291C15.836 29.2128 16.0303 29.1981 16.1119 29.1687C16.1936 29.1394 16.2344 29.066 16.2344 28.9487C16.2344 28.7857 16.1266 28.6781 15.9111 28.6259L15.5193 28.5379C14.6572 28.3423 14.2262 27.4914 14.2262 25.9852V23.3152C14.2262 22.3045 13.9813 21.5906 13.4915 21.1733L13.3054 21.0168C13.214 20.9386 13.1683 20.8799 13.1683 20.8408C13.1683 20.7951 13.214 20.7364 13.3054 20.6647L13.4915 20.5082C13.9813 20.0909 14.2262 19.377 14.2262 18.3663Z" fill="#130B43"/>
</g>
<defs>
<clipPath id="clip0">
<rect width="19.4692" height="16.8" fill="white" transform="translate(11.2875 12.4688)"/>
</clipPath>
</defs>
</svg>

