<svg id="comment" xmlns="http://www.w3.org/2000/svg" viewBox="0 0 24 24">
  <defs>
    <style>
      .a {
        fill: none;
        stroke: currentColor;
        stroke-linecap: round;
        stroke-linejoin: round;
        stroke-width: 1.5px;
      }
    </style>
  </defs>
  <title>conversation-chat-1</title>
  <path
    class="a"
    d="M11.25,18.75a1.5,1.5,0,0,1-1.5-1.5V9.75a1.5,1.5,0,0,1,1.5-1.5h10.5a1.5,1.5,0,0,1,1.5,1.5v7.5a1.5,1.5,0,0,1-1.5,1.5h-1.5v4.5l-4.5-4.5Z"
  />
  <path
    class="a"
    d="M6.75,12.75l-3,3v-4.5H2.25a1.5,1.5,0,0,1-1.5-1.5V2.25A1.5,1.5,0,0,1,2.25.75h10.5a1.5,1.5,0,0,1,1.5,1.5v3"
  />
</svg>
