<svg id="exercism-face" viewBox="0 0 48 48" fill="none" xmlns="http://www.w3.org/2000/svg">
<path d="M26.8338 29.0756C26.8338 30.7019 25.426 31.7181 24.1789 31.7181C22.9319 31.7181 21.4359 31.2129 21.4359 29.0756V28.0361H19.7931V29.0756C19.7931 31.4425 21.7614 33.3676 24.1789 33.3676C26.5965 33.3676 28.5648 31.4425 28.5648 29.0756V28.0361H26.8338V29.0756Z" fill="black"/>
<path d="M13.0367 24.0561C13.0367 22.5031 14.3836 21.2401 16.0385 21.2401C17.6922 21.2401 19.0391 22.5041 19.0391 24.0561H20.9298C20.9298 21.5239 18.7367 19.4647 16.0385 19.4647C13.3402 19.4647 11.146 21.5239 11.146 24.0561H13.0367Z" fill="black"/>
<path d="M28.6174 24.0561C28.6174 22.5031 29.9643 21.2401 31.618 21.2401C33.2729 21.2401 34.6198 22.5041 34.6198 24.0561H36.5105C36.5105 21.5239 34.3163 19.4647 31.618 19.4647C28.9198 19.4647 26.7267 21.5239 26.7267 24.0561H28.6174Z" fill="black"/>
<path fill-rule="evenodd" clip-rule="evenodd" d="M39.5614 18.0328V11.9298C39.5614 9.87313 39.3113 8.44614 38.8113 7.6488C38.3112 6.85146 37.2701 6.2367 35.6878 5.8045C35.2101 5.67037 34.9713 5.45427 34.9713 5.1562C34.9713 4.75381 35.5087 4.55261 36.5834 4.55261H38.2179C39.9942 4.55261 41.3414 5.10403 42.2594 6.20689C43.1774 7.30975 43.6364 8.91931 43.6364 11.0356V17.4739C43.6364 18.9642 43.7969 20.1118 44.1178 20.9166C44.4387 21.7214 45.0321 22.474 45.8978 23.1744C46.1516 23.3831 46.2785 23.5545 46.2785 23.6886C46.2785 23.8227 46.1516 23.9941 45.8978 24.2028C45.0172 24.9182 44.4201 25.6745 44.1066 26.4718C43.7931 27.2692 43.6364 28.413 43.6364 29.9033V36.3193C43.6364 38.4505 43.1737 40.0675 42.2482 41.1703C41.3227 42.2732 39.9793 42.8246 38.2179 42.8246H36.5834C35.8819 42.8246 35.4378 42.7911 35.2512 42.724C35.0646 42.657 34.9713 42.4893 34.9713 42.221C34.9713 41.8484 35.2176 41.6025 35.7102 41.4833L36.6058 41.2821C38.5762 40.835 39.5614 38.8901 39.5614 35.4474V29.3445C39.5614 27.0344 40.1211 25.4025 41.2406 24.4487L41.6661 24.091C41.875 23.9122 41.9795 23.778 41.9795 23.6886C41.9795 23.5843 41.875 23.4502 41.6661 23.2862L41.2406 22.9285C40.1211 21.9747 39.5614 20.3428 39.5614 18.0328Z" fill="black"/>
<path fill-rule="evenodd" clip-rule="evenodd" d="M8.51714 17.9802V11.8772C8.51714 9.82051 8.76717 8.39352 9.26722 7.59619C9.76728 6.79885 10.8084 6.18409 12.3907 5.75189C12.8683 5.61776 13.1072 5.40166 13.1072 5.10359C13.1072 4.70119 12.5698 4.5 11.4951 4.5H9.86057C8.08425 4.5 6.73711 5.05142 5.8191 6.15428C4.90108 7.25714 4.44208 8.86669 4.44208 10.983V17.4213C4.44208 18.9116 4.28162 20.0592 3.96069 20.864C3.63976 21.6688 3.04642 22.4214 2.18065 23.1218C1.92689 23.3305 1.80001 23.5019 1.80001 23.636C1.80001 23.7701 1.92689 23.9415 2.18065 24.1502C3.06135 24.8655 3.65842 25.6219 3.97189 26.4192C4.28535 27.2166 4.44208 28.3604 4.44208 29.8507V36.2667C4.44208 38.3979 4.90482 40.0149 5.83029 41.1177C6.75577 42.2206 8.09918 42.772 9.86057 42.772H11.4951C12.1966 42.772 12.6407 42.7385 12.8273 42.6714C13.0139 42.6043 13.1072 42.4367 13.1072 42.1684C13.1072 41.7958 12.8609 41.5499 12.3683 41.4307L11.4727 41.2295C9.50231 40.7824 8.51714 38.8375 8.51714 35.3948V29.2919C8.51714 26.9818 7.95739 25.3499 6.83786 24.3961L6.41244 24.0384C6.20346 23.8596 6.09898 23.7254 6.09898 23.636C6.09898 23.5317 6.20346 23.3975 6.41244 23.2336L6.83786 22.8759C7.95739 21.9221 8.51714 20.2902 8.51714 17.9802Z" fill="black"/>
<defs>
</defs>
</svg>
