<svg
  id="mentoring-challenge"
  xmlns="http://www.w3.org/2000/svg"
  viewBox="0 0 24 24"
>
  <defs>
    <style>
      .a {
        fill: none;
        stroke: currentColor;
        stroke-linecap: round;
        stroke-linejoin: round;
        stroke-width: 1.5px;
      }
    </style>
  </defs>
  <title>question-help-message</title>
  <path
    class="a"
    d="M21.75,18.75H11.25l-6,4.5v-4.5h-3a1.5,1.5,0,0,1-1.5-1.5v-15A1.5,1.5,0,0,1,2.25.75h19.5a1.5,1.5,0,0,1,1.5,1.5v15A1.5,1.5,0,0,1,21.75,18.75Z"
  />
  <path class="a" d="M9,6.75a3,3,0,1,1,4,2.829,1.5,1.5,0,0,0-1,1.415v.256" />
  <path
    class="a"
    d="M12,14.25a.375.375,0,1,0,.375.375A.375.375,0,0,0,12,14.25h0"
  />
</svg>
