<svg
  id="sample-track"
  viewBox="0 0 96 96"
  fill="none"
  xmlns="http://www.w3.org/2000/svg"
>
  <path
    fill-rule="evenodd"
    clip-rule="evenodd"
    d="M84.1907 22.9024L51.5701 4.06896C49.3322 2.77689 46.575 2.77689 44.337 4.06896L11.7165 22.9024C9.47853 24.1945 8.09991 26.5824 8.09991 29.1665V66.8335C8.09991 69.4176 9.47853 71.8055 11.7165 73.0975L44.337 91.931C46.575 93.2231 49.3322 93.2231 51.5701 91.931L84.1907 73.0975C86.4286 71.8055 87.8072 69.4176 87.8072 66.8335V29.1665C87.8072 26.5824 86.4286 24.1945 84.1907 22.9024ZM53.1201 1.38436C49.923 -0.461454 45.9841 -0.461455 42.7871 1.38436L10.1665 20.2178C6.96946 22.0637 5 25.4749 5 29.1665V66.8335C5 70.5251 6.96946 73.9363 10.1665 75.7821L42.7871 94.6156C45.9841 96.4614 49.923 96.4614 53.1201 94.6156L85.7406 75.7821C88.9377 73.9363 90.9072 70.5251 90.9072 66.8335V29.1665C90.9072 25.4749 88.9377 22.0637 85.7406 20.2178L53.1201 1.38436Z"
    fill="#7F5DB6"
  />
  <g opacity="0.405" filter="url(#filter0_f)">
    <path
      d="M69.653 48C69.653 59.9842 59.9378 69.6994 47.9536 69.6994C35.9694 69.6994 26.2543 59.9842 26.2543 48C26.2543 36.0158 35.9694 26.3007 47.9536 26.3007C59.9378 26.3007 69.653 36.0158 69.653 48Z"
      fill="#211F46"
      fill-opacity="0.996078"
    />
    <path
      d="M69.653 48C69.653 59.9842 59.9378 69.6994 47.9536 69.6994C35.9694 69.6994 26.2543 59.9842 26.2543 48C26.2543 36.0158 35.9694 26.3007 47.9536 26.3007C59.9378 26.3007 69.653 36.0158 69.653 48Z"
      stroke="#0A0B1B"
      stroke-width="0.78948"
    />
  </g>
  <path
    d="M69.653 48C69.653 59.9842 59.9378 69.6994 47.9536 69.6994C35.9694 69.6994 26.2543 59.9842 26.2543 48C26.2543 36.0158 35.9694 26.3007 47.9536 26.3007C59.9378 26.3007 69.653 36.0158 69.653 48Z"
    fill="url(#paint0_linear)"
    stroke="url(#paint1_linear)"
    stroke-width="1.25045"
  />
  <path
    fill-rule="evenodd"
    clip-rule="evenodd"
    d="M40.4955 63.2419C40.4955 63.2419 42.3329 63.3706 44.6965 63.1644C45.6537 63.0808 49.2881 62.7275 52.0052 62.1376C52.0052 62.1376 55.3181 61.4358 57.0904 60.7893C58.9449 60.1128 59.954 59.5386 60.4082 58.725C60.3884 58.5583 60.5481 57.9672 59.6929 57.6121C57.5065 56.7043 54.9707 56.8685 49.9531 56.7632C44.3888 56.574 42.5378 55.652 41.5517 54.9095C40.6062 54.1562 41.0817 52.0722 45.1331 50.2364C47.1739 49.2589 55.1741 47.4549 55.1741 47.4549C52.4798 46.1366 47.4557 43.8191 46.423 43.3186C45.5172 42.8797 44.0677 42.2188 43.7535 41.4192C43.3972 40.6516 44.5948 39.9903 45.2637 39.801C47.4181 39.1858 50.4595 38.8035 53.2275 38.7606C54.6189 38.739 54.8447 38.6504 54.8447 38.6504C56.7645 38.3351 58.0283 37.0349 57.5018 34.9758C57.0291 32.874 54.536 31.639 52.1668 32.0665C49.9357 32.4692 44.5583 34.0154 44.5583 34.0154C51.2052 33.9584 52.3177 34.0682 52.8146 34.7559C53.108 35.162 52.6812 35.7189 50.9085 36.0054C48.9786 36.3175 44.9668 36.6932 44.9668 36.6932C41.1183 36.9194 38.4074 36.9346 37.5943 38.6386C37.0631 39.7519 38.1607 40.7361 38.6418 41.3522C40.6749 43.5902 43.6114 44.7973 45.5017 45.6862C46.2129 46.0206 48.2996 46.6522 48.2996 46.6522C42.1674 46.3183 37.7439 48.1823 35.149 50.3283C32.2142 53.0155 33.5125 56.2185 39.5251 58.1906C43.0765 59.3554 44.8377 59.9033 50.135 59.4311C53.2552 59.2646 53.7471 59.3637 53.7782 59.6171C53.822 59.9739 50.3126 60.8603 49.3545 61.1338C46.917 61.8298 40.5275 63.2351 40.4955 63.2419Z"
    fill="white"
  />
  <defs>
    <filter
      id="filter0_f"
      x="24.234"
      y="24.2804"
      width="47.4392"
      height="47.4392"
      filterUnits="userSpaceOnUse"
      color-interpolation-filters="sRGB"
    >
      <feFlood flood-opacity="0" result="BackgroundImageFix" />
      <feBlend
        mode="normal"
        in="SourceGraphic"
        in2="BackgroundImageFix"
        result="shape"
      />
      <feGaussianBlur stdDeviation="0.812749" result="effect1_foregroundBlur" />
    </filter>
    <linearGradient
      id="paint0_linear"
      x1="37.1649"
      y1="35.0396"
      x2="64.0642"
      y2="72.0051"
      gradientUnits="userSpaceOnUse"
    >
      <stop stop-color="#8381C5" />
      <stop offset="0.566394" stop-color="#7E55B3" stop-opacity="0.996078" />
      <stop offset="1" stop-color="#A52ECB" stop-opacity="0.992157" />
    </linearGradient>
    <linearGradient
      id="paint1_linear"
      x1="65.624"
      y1="60.6256"
      x2="40.7695"
      y2="30.3166"
      gradientUnits="userSpaceOnUse"
    >
      <stop stop-color="#411F5D" />
      <stop offset="1" stop-color="#5B2A85" />
    </linearGradient>
  </defs>
</svg>
