<svg width="23" height="21" viewBox="0 0 23 21" fill="none" xmlns="http://www.w3.org/2000/svg">
<path fill-rule="evenodd" clip-rule="evenodd" d="M7.5625 10.5C9.5559 10.5 11.1719 8.88403 11.1719 6.89062C11.1719 4.89722 9.5559 3.28125 7.5625 3.28125C5.5691 3.28125 3.95312 4.89722 3.95312 6.89062C3.95312 8.88403 5.5691 10.5 7.5625 10.5Z" stroke="#000000" stroke-width="1.5" stroke-linecap="round" stroke-linejoin="round"/>
<path d="M1.65625 17.7188C1.65625 14.4568 4.30057 11.8125 7.5625 11.8125C10.8244 11.8125 13.4688 14.4568 13.4688 17.7188" stroke="#000000" stroke-width="1.5" stroke-linecap="round" stroke-linejoin="round"/>
<path fill-rule="evenodd" clip-rule="evenodd" d="M16.5112 11.8125C18.1422 11.8125 19.4644 10.4903 19.4644 8.85938C19.4644 7.22841 18.1422 5.90625 16.5112 5.90625C14.8803 5.90625 13.5581 7.22841 13.5581 8.85938C13.5581 10.4903 14.8803 11.8125 16.5112 11.8125Z" stroke="#000000" stroke-width="1.5" stroke-linecap="round" stroke-linejoin="round"/>
<path d="M14.8364 13.1846C16.3195 12.638 17.976 12.8507 19.2728 13.7543C20.5696 14.6579 21.3429 16.1383 21.3438 17.7188" stroke="#000000" stroke-width="1.5" stroke-linecap="round" stroke-linejoin="round"/>
</svg>

