<svg width="32" height="32" viewBox="0 0 32 32" fill="none" xmlns="http://www.w3.org/2000/svg">
<path fill-rule="evenodd" clip-rule="evenodd" d="M5.99902 27C7.93202 27 9.49902 25.433 9.49902 23.5C9.49902 21.567 7.93202 20 5.99902 20C4.06603 20 2.49902 21.567 2.49902 23.5C2.49902 25.433 4.06603 27 5.99902 27Z" stroke="#000000" stroke-width="2" stroke-linecap="round" stroke-linejoin="round"/>
<path d="M10.999 31C10.0142 29.1534 8.09179 28 5.99902 28C3.90626 28 1.98386 29.1534 0.999023 31" stroke="#000000" stroke-width="2" stroke-linecap="round" stroke-linejoin="round"/>
<path fill-rule="evenodd" clip-rule="evenodd" d="M25.999 27C27.932 27 29.499 25.433 29.499 23.5C29.499 21.567 27.932 20 25.999 20C24.066 20 22.499 21.567 22.499 23.5C22.499 25.433 24.066 27 25.999 27Z" stroke="#000000" stroke-width="2" stroke-linecap="round" stroke-linejoin="round"/>
<path d="M30.999 31C30.0142 29.1534 28.0918 28 25.999 28C23.9063 28 21.9839 29.1534 20.999 31" stroke="#000000" stroke-width="2" stroke-linecap="round" stroke-linejoin="round"/>
<path fill-rule="evenodd" clip-rule="evenodd" d="M15.999 8C17.932 8 19.499 6.433 19.499 4.5C19.499 2.567 17.932 1 15.999 1C14.066 1 12.499 2.567 12.499 4.5C12.499 6.433 14.066 8 15.999 8Z" stroke="#000000" stroke-width="2" stroke-linecap="round" stroke-linejoin="round"/>
<path d="M20.3307 11.0001C19.2493 9.73033 17.6653 8.99878 15.9974 8.99878C14.3295 8.99878 12.7455 9.73033 11.6641 11.0001" stroke="#000000" stroke-width="2" stroke-linecap="round" stroke-linejoin="round"/>
<path d="M12.0674 26.276C14.621 27.2495 17.445 27.241 19.9927 26.252" stroke="#000000" stroke-width="2" stroke-linecap="round" stroke-linejoin="round"/>
<path d="M8.46471 8C6.25216 10.0722 4.99708 12.9686 4.99805 16C4.99805 16.3373 5.01805 16.6667 5.04871 17" stroke="#000000" stroke-width="2" stroke-linecap="round" stroke-linejoin="round"/>
<path d="M26.9482 17C26.9776 16.6693 26.9989 16.3333 26.9989 16C27.0003 12.9685 25.7452 10.0719 23.5322 8" stroke="#000000" stroke-width="2" stroke-linecap="round" stroke-linejoin="round"/>
</svg>

