<svg
  id="confetti"
  viewBox="0 0 128 128"
  fill="none"
  xmlns="http://www.w3.org/2000/svg"
>
  <g clip-path="url(#a)">
    <path
      d="M5.637 75.679a51.201 51.201 0 0087.404 36.204A51.2 51.2 0 105.637 75.679z"
      fill="#FBFCFE"
    />
    <path
      opacity=".15"
      d="M78.725 117.504c0 1.416-9.499 2.56-21.216 2.56s-22.304-1.144-22.304-2.56c0-1.416 10.587-2.56 22.304-2.56 11.717 0 21.216 1.152 21.216 2.56z"
      fill="#45413C"
    />
    <path
      d="M22.216 86.897l37.152 26.88a1.348 1.348 0 001.568.014 1.353 1.353 0 00.529-1.476l-12.37-44.16-26.88 18.742z"
      fill="#9CEB60"
    />
    <path
      d="M44.608 85.248a42.358 42.358 0 01-11.668 9.407l3.11 2.249a37.461 37.461 0 002.532-1.613 49.93 49.93 0 008.618-7.739 51.279 51.279 0 005.327-7.146L51.2 75.67a45.357 45.357 0 01-6.592 9.578zM50.277 93.379a45.507 45.507 0 01-8.622 7.58l2.994 2.166a50.063 50.063 0 008.22-7.44 52.255 52.255 0 002.926-3.616l-1.21-4.319a48.32 48.32 0 01-4.308 5.629zM56.17 102.971a48.817 48.817 0 01-4.992 4.877l2.876 2.081a52.729 52.729 0 004.703-4.65c.188-.213.37-.425.553-.64l-1.143-4.085a42.336 42.336 0 01-1.997 2.417z"
      fill="#BF8DF2"
      stroke="#45413C"
      stroke-width="1.4"
      stroke-linecap="round"
      stroke-linejoin="round"
    />
    <path
      d="M22.216 86.897l37.152 26.88a1.348 1.348 0 001.568.014 1.353 1.353 0 00.529-1.476l-12.37-44.16-26.88 18.742z"
      stroke="#45413C"
      stroke-width="1.4"
      stroke-linecap="round"
      stroke-linejoin="round"
    />
    <path
      d="M22.216 86.895c1.187 1.703 3.741 2.348 7.101 1.795 3.36-.554 7.25-2.26 10.814-4.746 3.565-2.485 6.512-5.545 8.193-8.506 1.68-2.961 1.958-5.582.771-7.284-1.187-1.703-3.741-2.348-7.101-1.795-3.36.553-7.25 2.26-10.814 4.746-3.565 2.485-6.512 5.545-8.193 8.506-1.68 2.961-1.958 5.581-.771 7.284z"
      fill="#EBCB00"
    />
    <path
      d="M49.824 70.747c-3.566-1.28-9.843.391-15.744 4.51-5.9 4.12-9.642 9.431-9.68 13.219a4.322 4.322 0 01-2.175-1.58c-2.473-3.545 1.536-10.615 8.96-15.79 7.424-5.175 15.443-6.496 17.92-2.944.507.764.759 1.669.719 2.585z"
      fill="#FFE500"
    />
    <path
      d="M22.216 86.895c1.187 1.703 3.741 2.348 7.101 1.795 3.36-.554 7.25-2.26 10.814-4.746 3.565-2.485 6.512-5.545 8.193-8.506 1.68-2.961 1.958-5.582.771-7.284-1.187-1.703-3.741-2.348-7.101-1.795-3.36.553-7.25 2.26-10.814 4.746-3.565 2.485-6.512 5.545-8.193 8.506-1.68 2.961-1.958 5.581-.771 7.284v0z"
      stroke="#45413C"
      stroke-width="1.4"
      stroke-linecap="round"
      stroke-linejoin="round"
    />
    <path
      d="M65.936 49.14l-4.158 45.664a1.353 1.353 0 002.327 1.058L95.77 62.696 65.936 49.139z"
      fill="#BF8DF2"
    />
    <path
      d="M78.779 67.557a42.368 42.368 0 01-14.044-5.235l-.346 3.822c.858.474 1.745.93 2.68 1.354a49.898 49.898 0 0011.05 3.465c2.921.568 5.887.882 8.863.936l3.4-3.561a45.257 45.257 0 01-11.603-.78zM74.68 76.581a45.46 45.46 0 01-10.92-3.548l-.335 3.68a50.079 50.079 0 0010.591 3.273c1.549.302 3.085.512 4.608.672l3.096-3.244a48.582 48.582 0 01-7.04-.833zM69.435 86.544a49.168 49.168 0 01-6.74-1.804l-.323 3.535a52.556 52.556 0 006.4 1.674c.279.055.554.103.832.151l2.928-3.072a43.31 43.31 0 01-3.097-.484z"
      fill="#9CEB60"
      stroke="#45413C"
      stroke-width="1.4"
      stroke-linecap="round"
      stroke-linejoin="round"
    />
    <path
      d="M65.936 49.14l-4.158 45.664a1.353 1.353 0 002.327 1.058L95.77 62.696 65.936 49.139z"
      stroke="#45413C"
      stroke-width="1.4"
      stroke-linecap="round"
      stroke-linejoin="round"
    />
    <path
      d="M77.615 63.043c3.956 1.798 8.09 2.77 11.495 2.706 3.405-.065 5.8-1.163 6.658-3.053.859-1.89.11-4.416-2.08-7.023-2.19-2.608-5.642-5.082-9.598-6.88-3.957-1.797-8.092-2.77-11.496-2.706-3.405.065-5.8 1.163-6.658 3.053-.859 1.89-.11 4.416 2.08 7.023 2.19 2.608 5.642 5.082 9.599 6.88z"
      fill="#EBCB00"
    />
    <path
      d="M93.912 64.64c-.723-3.718-5.36-8.266-11.915-11.245-6.556-2.978-13.032-3.475-16.309-1.575a4.324 4.324 0 01.247-2.68c1.792-3.935 9.916-4.097 18.154-.348 8.239 3.75 13.467 9.968 11.68 13.904a4.33 4.33 0 01-1.857 1.944z"
      fill="#FFE500"
    />
    <path
      d="M77.615 63.043c3.956 1.798 8.09 2.77 11.495 2.706 3.405-.065 5.8-1.163 6.658-3.053.859-1.89.11-4.416-2.08-7.023-2.19-2.608-5.642-5.082-9.598-6.88-3.957-1.797-8.092-2.77-11.496-2.706-3.405.065-5.8 1.163-6.658 3.053-.859 1.89-.11 4.416 2.08 7.023 2.19 2.608 5.642 5.082 9.599 6.88v0z"
      stroke="#45413C"
      stroke-width="1.4"
      stroke-linecap="round"
      stroke-linejoin="round"
    />
    <path
      d="M104.489 31.786a1.278 1.278 0 01-.102 1.417 9.898 9.898 0 01-6.882 3.902 1.28 1.28 0 01-1.267-.64L94.66 33.68a1.28 1.28 0 01.855-1.886 9.73 9.73 0 005.339-3.026 1.274 1.274 0 011.091-.411 1.28 1.28 0 01.972.644l1.572 2.784zM47.237 31.786a1.28 1.28 0 01-.102 1.417 9.899 9.899 0 01-6.881 3.902 1.28 1.28 0 01-1.269-.64l-1.578-2.784a1.28 1.28 0 01.856-1.886 9.729 9.729 0 005.34-3.026 1.28 1.28 0 012.056.233l1.578 2.784z"
      fill="#00F5BC"
      stroke="#45413C"
      stroke-width="1.4"
      stroke-linecap="round"
      stroke-linejoin="round"
    />
    <path
      d="M77.976 54.026a1.28 1.28 0 01-1.32-.52 9.9 9.9 0 01-1.665-7.734 1.28 1.28 0 01.99-1.024l3.13-.672a1.28 1.28 0 011.535 1.38 9.728 9.728 0 001.298 6 1.279 1.279 0 01-.838 1.893l-3.13.677zM22.291 20.899a1.28 1.28 0 01-1.32-.521 9.902 9.902 0 01-1.665-7.734 1.28 1.28 0 01.99-1.024l3.133-.667a1.28 1.28 0 011.536 1.381 9.728 9.728 0 001.29 6 1.28 1.28 0 01-.84 1.893l-3.124.672z"
      fill="#FF6196"
      stroke="#45413C"
      stroke-width="1.4"
      stroke-linecap="round"
      stroke-linejoin="round"
    />
    <path
      d="M12.717 27.18a1.28 1.28 0 00-1.419-.079 9.905 9.905 0 00-4.747 6.329 1.28 1.28 0 00.473 1.339l2.56 1.92a1.28 1.28 0 001.98-.61 9.728 9.728 0 013.683-4.909 1.28 1.28 0 00.03-2.07l-2.56-1.92z"
      fill="#BF8DF2"
      stroke="#45413C"
      stroke-width="1.4"
      stroke-linecap="round"
      stroke-linejoin="round"
    />
    <path
      d="M33.285 67.981a1.28 1.28 0 011.416-.113 9.9 9.9 0 014.893 6.215 1.28 1.28 0 01-.441 1.35l-2.514 1.98a1.28 1.28 0 01-1.993-.562 9.729 9.729 0 00-3.793-4.821 1.279 1.279 0 01-.08-2.069l2.512-1.98zM69.27 21.398a1.28 1.28 0 00-.517 1.322 9.897 9.897 0 004.524 6.487 1.28 1.28 0 001.421-.03l2.619-1.83a1.279 1.279 0 00.042-2.07 9.729 9.729 0 01-3.51-5.034 1.28 1.28 0 00-1.958-.677l-2.62 1.832z"
      fill="#4AEFF7"
      stroke="#45413C"
      stroke-width="1.4"
      stroke-linecap="round"
      stroke-linejoin="round"
    />
    <path
      d="M55.87 17.113a1.28 1.28 0 01-.674 1.251 9.899 9.899 0 01-7.876.737 1.28 1.28 0 01-.896-1.103l-.298-3.186a1.28 1.28 0 011.555-1.372 9.736 9.736 0 006.11-.573 1.279 1.279 0 011.78 1.057l.3 3.19z"
      fill="#FF8A14"
      stroke="#45413C"
      stroke-width="1.4"
      stroke-linecap="round"
      stroke-linejoin="round"
    />
    <path
      d="M88.44 16.456a1.28 1.28 0 01-.384-1.366 9.897 9.897 0 015.13-6.016 1.28 1.28 0 011.409.166l2.432 2.075a1.28 1.28 0 01-.159 2.065 9.738 9.738 0 00-3.98 4.672 1.28 1.28 0 01-2.013.485l-2.434-2.081zM22.578 53.971a1.28 1.28 0 01-.384-1.365 9.896 9.896 0 015.129-6.016 1.28 1.28 0 011.408.166l2.432 2.075a1.28 1.28 0 01-.158 2.064 9.727 9.727 0 00-3.98 4.672 1.281 1.281 0 01-2.013.486l-2.434-2.082z"
      fill="#FFF48C"
      stroke="#45413C"
      stroke-width="1.4"
      stroke-linecap="round"
      stroke-linejoin="round"
    />
    <path
      d="M4.926 45.445v-1.231M7.537 46.528l.87-.871M8.618 49.14H9.85M7.537 51.752l.87.87M4.926 52.833v1.232M2.313 51.752l-.87.87M1.231 49.14H0M2.313 46.528l-.87-.871M75.201 2.353V1.12M77.813 3.434l.87-.87M78.894 6.045h1.231M77.813 8.658l.87.87M75.201 9.74v1.23M72.59 8.658l-.871.87M71.507 6.045h-1.231M72.59 3.434l-.871-.87M106.282 63.779v-1.23M108.895 64.862l.87-.87M109.977 67.473h1.231M108.895 70.085l.87.87M106.282 71.167v1.231M103.671 70.085l-.87.87M102.589 67.473h-1.231M103.671 64.862l-.87-.87"
      stroke="#4ACFFF"
      stroke-width="1.4"
      stroke-linecap="round"
      stroke-linejoin="round"
    />
    <path
      d="M70.57 44.302l-1.415-.496a1.64 1.64 0 01-1.008-2.093l.45-1.28a1.644 1.644 0 00-1.007-2.093l-1.28-.45a1.641 1.641 0 01-1.007-2.092l.45-1.28a1.64 1.64 0 00-1.007-2.093l-1.28-.45a1.644 1.644 0 01-1.007-2.092l.45-1.28a1.64 1.64 0 00-1.007-2.091l-1.28-.45M41.965 66.326l-1.05-1.074a1.638 1.638 0 01.027-2.32l.971-.952a1.642 1.642 0 00.027-2.322l-.95-.973a1.642 1.642 0 01.025-2.32l.973-.951a1.643 1.643 0 00.027-2.322l-.951-.972a1.644 1.644 0 01.025-2.322l.973-.95a1.642 1.642 0 00.026-2.322l-.95-.972M22.217 73.233l-1.484.217a1.641 1.641 0 01-1.864-1.386l-.197-1.346a1.642 1.642 0 00-1.863-1.386l-1.346.198a1.64 1.64 0 01-1.863-1.385l-.197-1.346a1.642 1.642 0 00-1.864-1.386l-1.345.199a1.642 1.642 0 01-1.862-1.387l-.199-1.345a1.641 1.641 0 00-1.856-1.385l-1.351.201M113.669 43.375l-.403 1.447a1.643 1.643 0 01-2.021 1.14l-1.311-.365a1.64 1.64 0 00-2.022 1.142l-.365 1.31a1.643 1.643 0 01-2.021 1.14l-1.311-.365a1.644 1.644 0 00-2.022 1.142l-.365 1.31a1.643 1.643 0 01-2.021 1.14l-1.31-.365a1.642 1.642 0 00-2.023 1.142l-.365 1.31"
      stroke="#FFAA54"
      stroke-width="1.4"
      stroke-linecap="round"
      stroke-linejoin="round"
    />
  </g>
  <defs>
    <clipPath id="clip0"><path fill="#fff" d="M0 0h128v128H0z" /></clipPath>
  </defs>
</svg>
