<svg width="104" height="104" viewBox="0 0 104 104" fill="none" xmlns="http://www.w3.org/2000/svg">
<path d="M0.800781 52C0.800781 65.5791 6.19505 78.6021 15.7969 88.2039C25.3988 97.8058 38.4217 103.2 52.0008 103.2C65.5799 103.2 78.6028 97.8058 88.2046 88.2039C97.8065 78.6021 103.201 65.5791 103.201 52C103.201 38.421 97.8065 25.398 88.2046 15.7962C78.6028 6.19432 65.5799 0.800049 52.0008 0.800049C38.4217 0.800049 25.3988 6.19432 15.7969 15.7962C6.19505 25.398 0.800781 38.421 0.800781 52Z" fill="#130B43"/>
<path d="M19.8263 83.3767C13.4058 83.3767 9.62593 75.1975 16.8323 66.7892C16.9489 66.6541 17.1084 66.5632 17.284 66.5317C17.4596 66.5002 17.6407 66.5299 17.797 66.616C17.9532 66.7021 18.0752 66.8393 18.1424 67.0045C18.2096 67.1698 18.2179 67.3532 18.1661 67.5239C17.5568 69.5028 17.2087 71.8541 18.3799 73.2468C24.2819 80.2663 60.0695 37.4068 60.1898 37.2647C61.4698 35.7287 64.8336 38.2618 66.3658 39.538C67.8979 40.8141 70.984 43.8644 69.7079 45.4016C69.5863 45.5476 36.4675 83.9796 19.8263 83.3767Z" fill="#FFF48C" stroke="#45413C" stroke-width="1.6" stroke-linecap="round" stroke-linejoin="round"/>
<path d="M71.9756 53.4324L67.3906 43.1732L77.157 34.5486L75.8476 52.0193L71.9756 53.4324Z" fill="#FF6242"/>
<path d="M69.701 48.3444C71.8885 47.1233 74.1567 45.7601 76.4262 44.306L77.1583 34.5486L67.3906 43.1681L69.701 48.3444Z" fill="#E04122"/>
<path d="M51.8965 35.9591L62.7598 39.1425L70.139 28.4417L52.813 31.9745L51.8965 35.9591Z" fill="#FF6242"/>
<path d="M57.3086 37.545L62.7601 39.1424L70.1419 28.4403L60.5073 30.4051L57.3086 37.545Z" fill="#E04122"/>
<path d="M51.8965 35.9591L62.7598 39.1425L70.139 28.4417L52.813 31.9745L51.8965 35.9591Z" stroke="#45413C" stroke-width="1.6" stroke-linecap="round" stroke-linejoin="round"/>
<path d="M51.6072 30.2401C51.8085 30.2766 52.0001 30.3539 52.1702 30.4674C52.3404 30.581 52.4855 30.7282 52.5964 30.9C52.7074 31.0718 52.782 31.2645 52.8155 31.4663C52.849 31.6681 52.8407 31.8746 52.7912 32.0731L51.7147 36.7476C51.6192 37.1603 51.3699 37.5209 51.0177 37.7562C50.6655 37.9914 50.2368 38.0834 49.819 38.0135C49.6179 37.9769 49.4264 37.8994 49.2564 37.7859C49.0864 37.6723 48.9415 37.5251 48.8306 37.3533C48.7198 37.1815 48.6453 36.9888 48.6119 36.7871C48.5785 36.5854 48.5868 36.3789 48.6363 36.1806L49.7115 31.506C49.807 31.0934 50.0563 30.7327 50.4085 30.4975C50.7608 30.2623 51.1895 30.1702 51.6072 30.2401Z" fill="#FF866E" stroke="#45413C" stroke-width="1.6" stroke-linecap="round" stroke-linejoin="round"/>
<path d="M71.9756 53.4324L67.3906 43.1732L77.157 34.5486L75.8476 52.0193L71.9756 53.4324Z" stroke="#45413C" stroke-width="1.6" stroke-linecap="round" stroke-linejoin="round"/>
<path d="M77.7439 52.9818C77.6786 52.7873 77.5745 52.6081 77.4378 52.4551C77.3011 52.3022 77.1347 52.1786 76.9488 52.0919C76.7629 52.0052 76.5612 51.9572 76.3562 51.9509C76.1511 51.9446 75.9469 51.98 75.756 52.0551L71.2133 53.7114C70.8151 53.8531 70.4867 54.1425 70.2961 54.5197C70.1055 54.8969 70.0672 55.333 70.1893 55.7376C70.2549 55.9319 70.3592 56.1109 70.4959 56.2636C70.6327 56.4164 70.799 56.5399 70.9849 56.6265C71.1707 56.7131 71.3722 56.7612 71.5771 56.7677C71.782 56.7742 71.9862 56.739 72.1771 56.6644L76.7199 55.0004C77.1167 54.8592 77.4442 54.5711 77.6347 54.1954C77.8253 53.8198 77.8643 53.3854 77.7439 52.9818Z" fill="#FF866E" stroke="#45413C" stroke-width="1.6" stroke-linecap="round" stroke-linejoin="round"/>
<path d="M64.3282 56.0487C60.6302 60.2151 47.9595 64.5504 44.0594 65.8125C43.9398 65.8512 43.8122 65.8581 43.6892 65.8325C43.5661 65.8069 43.4519 65.7497 43.3577 65.6665C43.2635 65.5833 43.1926 65.477 43.152 65.358C43.1114 65.2391 43.1026 65.1116 43.1262 64.9882C43.8942 60.9831 46.6014 48.0013 50.2942 43.8375C54.6885 38.8915 61.3829 37.6154 65.2574 40.992C69.132 44.3687 68.716 51.104 64.3282 56.0487Z" fill="#FF8A14" stroke="#45413C" stroke-width="1.6" stroke-linecap="round" stroke-linejoin="round"/>
<path d="M64.6976 49.7587C62.6778 52.0345 56.0653 54.3974 53.3658 55.2934C53.2457 55.3331 53.1173 55.3406 52.9934 55.3153C52.8695 55.29 52.7544 55.2326 52.6595 55.149C52.5647 55.0654 52.4933 54.9584 52.4526 54.8387C52.4119 54.719 52.4033 54.5907 52.4275 54.4665C52.9792 51.6928 54.4934 44.9088 56.5107 42.6342C59.0707 39.7491 62.9786 39.0041 65.239 40.9702C67.4995 42.9363 67.2576 46.8723 64.6976 49.7587Z" fill="#FFE500" stroke="#45413C" stroke-width="1.6" stroke-linecap="round" stroke-linejoin="round"/>
<path d="M60.5312 38.9364L67.8836 45.3364C69.3095 44.6785 70.8711 43.8516 72.5146 42.9044L62.368 34.0801C61.6346 35.8106 61.0074 37.4516 60.5312 38.9364Z" fill="#FF6242" stroke="#45413C" stroke-width="1.6" stroke-linecap="round" stroke-linejoin="round"/>
<path d="M62.3691 34.08L72.5131 42.912C76.7272 40.439 80.7879 37.7136 84.6731 34.7507C89.5713 31.0863 93.5757 26.3599 96.3856 20.9262C99.1955 15.4926 100.738 9.49303 100.897 3.37792C100.905 3.04866 100.841 2.72167 100.708 2.42026C100.575 2.11886 100.377 1.85045 100.129 1.6342C99.8807 1.41794 99.5876 1.25915 99.2708 1.16917C98.9539 1.07918 98.6212 1.06021 98.2962 1.1136C92.2254 2.03613 86.439 4.30906 81.3634 7.7649C76.2877 11.2207 72.0522 15.7714 68.9688 21.0816C66.5063 25.276 64.3023 29.6169 62.3691 34.08Z" fill="#E8F4FA"/>
<path d="M69.8699 27.2666C73.1683 21.589 77.6339 16.6759 82.9716 12.8519C88.3093 9.02783 94.3976 6.37987 100.834 5.08292C100.869 4.51546 100.891 3.94714 100.902 3.37796C100.91 3.04875 100.846 2.72179 100.713 2.42043C100.58 2.11907 100.383 1.85073 100.134 1.63457C99.8857 1.4184 99.5926 1.25975 99.2758 1.16992C98.959 1.0801 98.6262 1.06132 98.3013 1.11492C92.2304 2.03693 86.4438 4.30964 81.368 7.76554C76.2923 11.2214 72.0569 15.7724 68.9739 21.0829C66.5097 25.2768 64.304 29.6172 62.3691 34.08L64.9816 36.352C66.4357 33.4016 68.0882 30.3271 69.8699 27.2666Z" fill="white"/>
<path d="M62.3691 34.08L72.5131 42.912C76.7272 40.439 80.7879 37.7136 84.6731 34.7507C89.5713 31.0863 93.5757 26.3599 96.3856 20.9262C99.1955 15.4926 100.738 9.49303 100.897 3.37792V3.37792C100.905 3.04866 100.841 2.72167 100.708 2.42026C100.575 2.11886 100.377 1.85045 100.129 1.6342C99.8807 1.41794 99.5876 1.25915 99.2708 1.16917C98.9539 1.07918 98.6212 1.06021 98.2962 1.1136V1.1136C92.2254 2.03613 86.439 4.30906 81.3634 7.7649C76.2877 11.2207 72.0522 15.7714 68.9688 21.0816C66.5063 25.276 64.3023 29.6169 62.3691 34.08V34.08Z" stroke="#45413C" stroke-width="1.6" stroke-linecap="round" stroke-linejoin="round"/>
<path d="M83.3711 15.3025C83.3711 16.5259 83.8571 17.6993 84.7222 18.5644C85.5874 19.4295 86.7607 19.9156 87.9842 19.9156C89.2077 19.9156 90.3811 19.4295 91.2462 18.5644C92.1113 17.6993 92.5973 16.5259 92.5973 15.3025C92.5973 14.079 92.1113 12.9056 91.2462 12.0405C90.3811 11.1754 89.2077 10.6893 87.9842 10.6893C86.7607 10.6893 85.5874 11.1754 84.7222 12.0405C83.8571 12.9056 83.3711 14.079 83.3711 15.3025Z" fill="#00B8F0"/>
<path d="M84.4693 18.29C84.0773 17.8283 83.7801 17.294 83.5947 16.7175C83.4092 16.1409 83.3391 15.5335 83.3883 14.9299C83.4376 14.3263 83.6053 13.7383 83.8818 13.1994C84.1583 12.6606 84.5382 12.1815 84.9999 11.7895C85.4616 11.3975 85.9959 11.1003 86.5725 10.9148C87.149 10.7294 87.7564 10.6593 88.36 10.7085C88.9636 10.7578 89.5517 10.9255 90.0905 11.202C90.6293 11.4785 91.1084 11.8584 91.5004 12.3201L84.4693 18.29Z" fill="#4ACFFF"/>
<path d="M83.3711 15.3025C83.3711 16.5259 83.8571 17.6993 84.7222 18.5644C85.5874 19.4295 86.7607 19.9156 87.9842 19.9156C89.2077 19.9156 90.3811 19.4295 91.2462 18.5644C92.1113 17.6993 92.5973 16.5259 92.5973 15.3025C92.5973 14.079 92.1113 12.9056 91.2462 12.0405C90.3811 11.1754 89.2077 10.6893 87.9842 10.6893C86.7607 10.6893 85.5874 11.1754 84.7222 12.0405C83.8571 12.9056 83.3711 14.079 83.3711 15.3025Z" stroke="#45413C" stroke-width="1.6" stroke-linecap="round" stroke-linejoin="round"/>
</svg>
