<svg width="65" height="64" viewBox="0 0 65 64" fill="none" xmlns="http://www.w3.org/2000/svg">
<path d="M0 30.506C-6.06028e-08 34.5121 0.801053 38.4789 2.35742 42.1801C3.91379 45.8812 6.19499 49.2442 9.07079 52.0769C11.9466 54.9097 15.3606 57.1567 19.118 58.6898C22.8755 60.2229 26.9026 61.0119 30.9696 61.0119C35.0366 61.0119 39.0638 60.2229 42.8212 58.6898C46.5786 57.1567 49.9926 54.9097 52.8684 52.0769C55.7442 49.2442 58.0254 45.8812 59.5818 42.1801C61.1381 38.4789 61.9392 34.5121 61.9392 30.506C61.9392 26.4999 61.1381 22.533 59.5818 18.8318C58.0254 15.1307 55.7442 11.7677 52.8684 8.93499C49.9926 6.10225 46.5786 3.8552 42.8212 2.32213C39.0638 0.78906 35.0366 0 30.9696 0C26.9026 0 22.8755 0.78906 19.118 2.32213C15.3606 3.8552 11.9466 6.10225 9.07079 8.93499C6.19499 11.7677 3.91379 15.1307 2.35742 18.8318C0.801053 22.533 -6.06028e-08 26.4999 0 30.506Z" fill="#C7F0FF"/>
<path opacity="0.15" d="M25.1211 62.856C25.1211 63.1594 25.7737 63.4504 26.9352 63.6649C28.0968 63.8795 29.6723 64 31.315 64C32.9577 64 34.5332 63.8795 35.6948 63.6649C36.8564 63.4504 37.5089 63.1594 37.5089 62.856C37.5089 62.5526 36.8564 62.2616 35.6948 62.0471C34.5332 61.8326 32.9577 61.712 31.315 61.712C29.6723 61.712 28.0968 61.8326 26.9352 62.0471C25.7737 62.2616 25.1211 62.5526 25.1211 62.856Z" fill="#45413C"/>
<path d="M48.3056 4.6209C48.3038 4.20406 48.2186 3.79166 48.055 3.40724C47.8914 3.02283 47.6525 2.67392 47.352 2.38045C47.0514 2.08698 46.6952 1.85468 46.3035 1.69684C45.9119 1.53899 45.4925 1.45867 45.0693 1.46048H17.5605C17.1374 1.45867 16.718 1.53899 16.3263 1.69684C15.9347 1.85468 15.5784 2.08698 15.2779 2.38045C14.9774 2.67392 14.7385 3.02283 14.5748 3.40724C14.4112 3.79166 14.326 4.20406 14.3242 4.6209V54.5416C14.3281 55.3833 14.6712 56.1891 15.2782 56.7816C15.8851 57.3741 16.706 57.7049 17.5605 57.7013H45.0693C45.924 57.7047 46.7451 57.3736 47.352 56.7808C47.9589 56.188 48.3019 55.382 48.3056 54.5401V4.6209ZM45.307 46.109C45.307 46.3113 45.2254 46.5053 45.0802 46.6483C44.935 46.7913 44.7381 46.8717 44.5327 46.8717H18.1002C17.8948 46.8717 17.6979 46.7913 17.5527 46.6483C17.4075 46.5053 17.3259 46.3113 17.3259 46.109V11.0843C17.3259 10.8821 17.4075 10.6881 17.5527 10.5451C17.6979 10.4021 17.8948 10.3217 18.1002 10.3217H44.5296C44.735 10.3217 44.9319 10.4021 45.0771 10.5451C45.2223 10.6881 45.3039 10.8821 45.3039 11.0843L45.307 46.109Z" fill="white"/>
<path d="M45.0693 57.7012H17.5605C17.1373 57.703 16.7179 57.6227 16.3261 57.4648C15.9344 57.3069 15.5781 57.0745 15.2776 56.781C14.9771 56.4874 14.7382 56.1384 14.5746 55.7539C14.411 55.3694 14.3259 54.957 14.3242 54.5401V52.1713C14.326 52.5881 14.4112 53.0005 14.5748 53.3849C14.7385 53.7693 14.9774 54.1182 15.2779 54.4117C15.5784 54.7052 15.9347 54.9375 16.3263 55.0953C16.718 55.2532 17.1374 55.3335 17.5605 55.3317H45.0693C45.4925 55.3335 45.9119 55.2532 46.3035 55.0953C46.6952 54.9375 47.0514 54.7052 47.352 54.4117C47.6525 54.1182 47.8914 53.7693 48.055 53.3849C48.2186 53.0005 48.3038 52.5881 48.3056 52.1713V54.5416C48.3015 55.3832 47.9583 56.1888 47.3515 56.7813C46.7446 57.3738 45.9237 57.7047 45.0693 57.7012Z" fill="#E8F4FA"/>
<path fill-rule="evenodd" clip-rule="evenodd" d="M17.561 1.07254H45.0682C45.5412 1.07063 46.0101 1.16045 46.4482 1.33701C46.8866 1.51369 47.2857 1.77384 47.6227 2.10288C47.9596 2.43194 48.2278 2.82347 48.4116 3.25527C48.5954 3.68708 48.6911 4.15055 48.6932 4.61914L48.6932 4.62084L48.6932 54.54L48.6932 54.5417C48.689 55.4884 48.3033 56.3935 47.6227 57.0582C46.9426 57.7226 46.0237 58.0927 45.0684 58.0891C45.0681 58.0891 45.0677 58.0891 45.0674 58.0891H17.5619C17.5616 58.0891 17.5613 58.0891 17.561 58.0891C16.6058 58.0929 15.6871 57.7231 15.0069 57.0591C14.3263 56.3946 13.9404 55.4898 13.936 54.5434L13.936 54.5416V4.61914C13.9381 4.15055 14.0338 3.68709 14.2176 3.25527C14.4014 2.82347 14.6696 2.43194 15.0066 2.10288C15.3435 1.77384 15.7427 1.51369 16.181 1.33701C16.6191 1.16045 17.088 1.07063 17.561 1.07254ZM17.5586 1.84829C17.1855 1.8467 16.816 1.91751 16.471 2.05653C16.1261 2.19556 15.8127 2.39999 15.5486 2.65789C15.2845 2.91578 15.0749 3.22207 14.9314 3.5591C14.7881 3.89586 14.7135 4.25691 14.7118 4.62171V54.5406C14.7154 55.2773 15.0158 55.9836 15.5488 56.504C16.0822 57.0248 16.8051 57.3166 17.5586 57.3133L17.5602 57.3133L45.069 57.3133L45.0705 57.3133C45.8243 57.3164 46.5472 57.0244 47.0807 56.5033C47.6137 55.9826 47.914 55.276 47.9174 54.5392C47.9174 54.5389 47.9174 54.5386 47.9174 54.5383V4.62254C47.9174 4.62226 47.9174 4.62199 47.9174 4.62172C47.9157 4.25692 47.8411 3.89586 47.6978 3.5591C47.5543 3.22206 47.3447 2.91578 47.0807 2.65789C46.8166 2.39999 46.5032 2.19556 46.1582 2.05653C45.8133 1.91751 45.4437 1.8467 45.0706 1.84829L45.069 1.8483L17.5586 1.84829ZM18.0999 10.7095C17.9955 10.7095 17.8966 10.7504 17.8246 10.8213C17.7528 10.8921 17.7135 10.9868 17.7135 11.0843V46.109C17.7135 46.2064 17.7528 46.3012 17.8246 46.3719C17.8966 46.4428 17.9955 46.4837 18.0999 46.4837H44.5324C44.6368 46.4837 44.7357 46.4428 44.8077 46.3719C44.8795 46.3012 44.9188 46.2064 44.9188 46.109L44.9157 11.0843C44.9157 10.9868 44.8764 10.8921 44.8046 10.8213C44.7326 10.7504 44.6337 10.7095 44.5293 10.7095H18.0999ZM17.2802 10.2687C17.4986 10.0536 17.7935 9.93376 18.0999 9.93376H44.5293C44.8357 9.93376 45.1306 10.0536 45.349 10.2687C45.5676 10.484 45.6915 10.7772 45.6915 11.0843L45.6946 46.109C45.6946 46.416 45.5707 46.7093 45.3521 46.9246C45.1337 47.1397 44.8388 47.2595 44.5324 47.2595H18.0999C17.7935 47.2595 17.4986 47.1397 17.2802 46.9246C17.0616 46.7093 16.9378 46.416 16.9378 46.109V11.0843C16.9378 10.7772 17.0616 10.484 17.2802 10.2687Z" fill="#45413C"/>
<path d="M26.0553 4.65747C25.9036 4.65868 25.7557 4.70409 25.6302 4.78798C25.5047 4.87187 25.4072 4.99049 25.3501 5.12888C25.2929 5.26727 25.2786 5.41923 25.309 5.5656C25.3394 5.71197 25.4131 5.8462 25.5209 5.95137C25.6286 6.05653 25.7655 6.12792 25.9144 6.15654C26.0633 6.18515 26.2174 6.16971 26.3574 6.11216C26.4973 6.0546 26.6169 5.95752 26.7009 5.83314C26.7849 5.70876 26.8297 5.56266 26.8295 5.41326C26.8277 5.21218 26.7453 5.01996 26.6003 4.87841C26.4553 4.73687 26.2594 4.65746 26.0553 4.65747Z" fill="#45413C"/>
<path fill-rule="evenodd" clip-rule="evenodd" d="M28.5 5.41327C28.5 5.19905 28.6737 5.02539 28.8879 5.02539H36.1696C36.3838 5.02539 36.5575 5.19905 36.5575 5.41327C36.5575 5.62749 36.3838 5.80115 36.1696 5.80115H28.8879C28.6737 5.80115 28.5 5.62749 28.5 5.41327Z" fill="#45413C"/>
<path d="M28.5815 52.5664C28.5815 53.2743 28.8695 53.9532 29.382 54.4538C29.8946 54.9544 30.5898 55.2356 31.3146 55.2356C32.0395 55.2356 32.7346 54.9544 33.2472 54.4538C33.7597 53.9532 34.0477 53.2743 34.0477 52.5664C34.0477 51.8584 33.7597 51.1795 33.2472 50.6789C32.7346 50.1783 32.0395 49.8971 31.3146 49.8971C30.5898 49.8971 29.8946 50.1783 29.382 50.6789C28.8695 51.1795 28.5815 51.8584 28.5815 52.5664Z" fill="white"/>
<path fill-rule="evenodd" clip-rule="evenodd" d="M29.1112 50.4014C29.6972 49.8291 30.49 49.5092 31.3148 49.5092C32.1396 49.5092 32.9324 49.8291 33.5184 50.4014C34.1046 50.9739 34.4357 51.7525 34.4357 52.5663C34.4357 53.3801 34.1046 54.1587 33.5184 54.7313C32.9324 55.3035 32.1396 55.6235 31.3148 55.6235C30.49 55.6235 29.6972 55.3035 29.1112 54.7313C28.5249 54.1587 28.1938 53.3801 28.1938 52.5663C28.1938 51.7525 28.5249 50.9739 29.1112 50.4014ZM31.3148 50.2849C30.6899 50.2849 30.0924 50.5274 29.6532 50.9563C29.2144 51.3849 28.9696 51.9642 28.9696 52.5663C28.9696 53.1684 29.2144 53.7477 29.6532 54.1763C30.0924 54.6052 30.6899 54.8477 31.3148 54.8477C31.9397 54.8477 32.5372 54.6052 32.9764 54.1763C33.4152 53.7477 33.66 53.1684 33.66 52.5663C33.66 51.9642 33.4152 51.3849 32.9764 50.9563C32.5372 50.5274 31.9397 50.2849 31.3148 50.2849Z" fill="#45413C"/>
<path d="M45.3067 46.109C45.3067 46.3112 45.2251 46.5052 45.0799 46.6482C44.9347 46.7913 44.7378 46.8716 44.5325 46.8716H18.0999C17.8946 46.8716 17.6977 46.7913 17.5525 46.6482C17.4073 46.5052 17.3257 46.3112 17.3257 46.109V11.0843C17.3257 10.882 17.4073 10.6881 17.5525 10.545C17.6977 10.402 17.8946 10.3217 18.0999 10.3217H44.5294C44.7347 10.3217 44.9317 10.402 45.0768 10.545C45.222 10.6881 45.3036 10.882 45.3036 11.0843L45.3067 46.109Z" fill="#4ACFFF"/>
<path d="M39.8065 10.3232H18.0999C17.8946 10.3232 17.6977 10.4036 17.5525 10.5466C17.4073 10.6896 17.3257 10.8836 17.3257 11.0859V32.4706L39.8065 10.3232Z" fill="#80DDFF"/>
<path fill-rule="evenodd" clip-rule="evenodd" d="M18.1001 10.7096C17.9958 10.7096 17.8969 10.7505 17.8248 10.8214C17.753 10.8922 17.7137 10.9869 17.7137 11.0844V46.109C17.7137 46.2065 17.753 46.3012 17.8248 46.372C17.8969 46.4429 17.9958 46.4838 18.1001 46.4838H44.5327C44.637 46.4838 44.7359 46.4429 44.8079 46.372C44.8798 46.3012 44.919 46.2065 44.919 46.1091L44.9159 11.0844C44.9159 10.9869 44.8767 10.8922 44.8048 10.8214C44.7328 10.7505 44.6339 10.7096 44.5296 10.7096H18.1001ZM17.2804 10.2688C17.4988 10.0537 17.7938 9.93384 18.1001 9.93384H44.5296C44.8359 9.93384 45.1308 10.0537 45.3492 10.2688C45.5678 10.4841 45.6917 10.7773 45.6917 11.0843C45.6917 11.0843 45.6917 11.0843 45.6917 11.0843L45.6948 46.109C45.6948 46.4161 45.5709 46.7093 45.3523 46.9246C45.1339 47.1397 44.839 47.2596 44.5327 47.2596H18.1001C17.7938 47.2596 17.4988 47.1397 17.2804 46.9246C17.0619 46.7093 16.938 46.4161 16.938 46.109V11.0844C16.938 10.7773 17.0619 10.4841 17.2804 10.2688Z" fill="#45413C"/>
<path d="M10.8306 27.4478H47.7641V41.4706H10.8306V27.4478Z" fill="white"/>
<path fill-rule="evenodd" clip-rule="evenodd" d="M10.4429 27.4477C10.4429 27.2335 10.6165 27.0598 10.8308 27.0598H47.7643C47.9785 27.0598 48.1522 27.2335 48.1522 27.4477V41.4705C48.1522 41.6847 47.9785 41.8584 47.7643 41.8584H10.8308C10.6165 41.8584 10.4429 41.6847 10.4429 41.4705V27.4477ZM11.2186 27.8356V41.0826H47.3764V27.8356H11.2186Z" fill="#45413C"/>
<path fill-rule="evenodd" clip-rule="evenodd" d="M19.9976 30.7966C19.9976 30.5824 20.1712 30.4087 20.3854 30.4087H33.7666C33.9808 30.4087 34.1545 30.5824 34.1545 30.7966C34.1545 31.0108 33.9808 31.1845 33.7666 31.1845H20.3854C20.1712 31.1845 19.9976 31.0108 19.9976 30.7966Z" fill="#45413C"/>
<path fill-rule="evenodd" clip-rule="evenodd" d="M16.5596 34.2574C16.5596 34.0432 16.7332 33.8695 16.9474 33.8695H34.0938C34.308 33.8695 34.4816 34.0432 34.4816 34.2574C34.4816 34.4716 34.308 34.6453 34.0938 34.6453H16.9474C16.7332 34.6453 16.5596 34.4716 16.5596 34.2574Z" fill="#45413C"/>
<path fill-rule="evenodd" clip-rule="evenodd" d="M16.5596 37.6115C16.5596 37.3973 16.7332 37.2236 16.9474 37.2236H34.0938C34.308 37.2236 34.4816 37.3973 34.4816 37.6115C34.4816 37.8257 34.308 37.9994 34.0938 37.9994H16.9474C16.7332 37.9994 16.5596 37.8257 16.5596 37.6115Z" fill="#45413C"/>
<path d="M20.2402 18.6575H42.3897V21.7081H20.2402V18.6575Z" fill="#DAEDF7"/>
<path fill-rule="evenodd" clip-rule="evenodd" d="M19.8521 18.6574C19.8521 18.4432 20.0257 18.2695 20.2399 18.2695H42.3894C42.6036 18.2695 42.7773 18.4432 42.7773 18.6574V21.708C42.7773 21.9222 42.6036 22.0959 42.3894 22.0959H20.2399C20.0257 22.0959 19.8521 21.9222 19.8521 21.708V18.6574ZM20.6278 19.0453V21.3201H42.0015V19.0453H20.6278Z" fill="#45413C"/>
<path d="M20.2402 13.0802H42.3897V16.1308H20.2402V13.0802Z" fill="#DAEDF7"/>
<path fill-rule="evenodd" clip-rule="evenodd" d="M19.8521 13.0801C19.8521 12.8659 20.0257 12.6923 20.2399 12.6923H42.3894C42.6036 12.6923 42.7773 12.8659 42.7773 13.0801V16.1307C42.7773 16.345 42.6036 16.5186 42.3894 16.5186H20.2399C20.0257 16.5186 19.8521 16.345 19.8521 16.1307V13.0801ZM20.6278 13.468V15.7429H42.0015V13.468H20.6278Z" fill="#45413C"/>
<path d="M59.1045 30.8614C59.0209 30.8112 58.9568 30.7346 58.9227 30.6442C58.8886 30.5537 58.8865 30.4545 58.9167 30.3627C58.9468 30.2708 59.0075 30.1917 59.0889 30.138C59.1703 30.0843 59.2677 30.0592 59.3654 30.0667L63.5974 30.3886C63.6631 30.3937 63.7267 30.4133 63.7835 30.446C63.8404 30.4788 63.889 30.5237 63.9257 30.5776C63.9624 30.6314 63.9863 30.6927 63.9955 30.7569C64.0048 30.8211 63.9992 30.8866 63.9791 30.9484L63.3745 32.8092C63.3542 32.8711 63.32 32.9277 63.2744 32.9747C63.2288 33.0216 63.173 33.0578 63.1111 33.0805C63.0493 33.1032 62.983 33.1118 62.9173 33.1056C62.8516 33.0994 62.7882 33.0787 62.7318 33.0449L59.1045 30.8614Z" fill="#FFE500"/>
<path fill-rule="evenodd" clip-rule="evenodd" d="M59.3358 30.4534C59.3235 30.4525 59.3118 30.4557 59.3026 30.4618C59.2936 30.4677 59.288 30.4757 59.2854 30.4836C59.2828 30.4914 59.283 30.4996 59.2859 30.5074C59.2889 30.5152 59.2949 30.5231 59.3044 30.5288L62.9314 32.7121C62.9314 32.7121 62.9314 32.7121 62.9314 32.7121C62.9379 32.716 62.9456 32.7186 62.9538 32.7194C62.962 32.7201 62.9703 32.719 62.9778 32.7163C62.9852 32.7136 62.9915 32.7094 62.9963 32.7044C63.001 32.6996 63.0041 32.6942 63.0059 32.6888C63.0059 32.6888 63.0059 32.6888 63.0059 32.6888L63.6104 30.8286C63.6104 30.8285 63.6104 30.8286 63.6104 30.8286C63.6121 30.8232 63.6126 30.8176 63.6118 30.8122C63.611 30.8068 63.609 30.8012 63.6054 30.796C63.6018 30.7908 63.5967 30.7859 63.5902 30.7821C63.5837 30.7784 63.576 30.7759 63.5678 30.7752C63.5677 30.7752 63.5678 30.7753 63.5678 30.7752L59.3358 30.4534ZM59.3952 29.6799C59.2121 29.6659 59.0292 29.7129 58.8756 29.8141C58.7218 29.9155 58.606 30.0658 58.5483 30.2416C58.4906 30.4175 58.4947 30.6076 58.5599 30.7808C58.6251 30.9539 58.7471 31.099 58.9048 31.1938C58.9047 31.1937 58.9049 31.1938 58.9048 31.1938L62.532 33.3771L62.5326 33.3775C62.6389 33.4412 62.7581 33.4802 62.8812 33.4917C63.0044 33.5033 63.1287 33.4872 63.2449 33.4446C63.3611 33.402 63.4665 33.3338 63.5529 33.2447C63.6394 33.1557 63.7046 33.048 63.7433 32.9297L64.3482 31.0682C64.3866 30.95 64.3974 30.8245 64.3796 30.7015C64.3619 30.5786 64.3162 30.4615 64.2463 30.359C64.1765 30.2565 64.0844 30.1715 63.9772 30.1098C63.8701 30.0481 63.7506 30.0113 63.6276 30.0018L59.3952 29.6799C59.3951 29.6799 59.3953 29.6799 59.3952 29.6799Z" fill="#B58B00"/>
<path d="M53.9585 22.4913C53.9075 22.5737 53.8298 22.6368 53.7379 22.6703C53.646 22.7039 53.5454 22.706 53.4522 22.6763C53.3589 22.6466 53.2786 22.5868 53.2241 22.5066C53.1696 22.4264 53.1441 22.3305 53.1517 22.2343L53.4784 18.0656C53.4835 18.001 53.5033 17.9383 53.5365 17.8823C53.5696 17.8263 53.6152 17.7785 53.6698 17.7423C53.7244 17.7061 53.7866 17.6826 53.8518 17.6735C53.9169 17.6643 53.9833 17.6699 54.046 17.6896L55.9359 18.2853C55.9987 18.3052 56.0561 18.3389 56.1038 18.3838C56.1515 18.4287 56.1883 18.4837 56.2113 18.5446C56.2343 18.6056 56.243 18.6708 56.2368 18.7355C56.2305 18.8003 56.2094 18.8627 56.1751 18.9183L53.9585 22.4913Z" fill="#FFE500"/>
<path fill-rule="evenodd" clip-rule="evenodd" d="M53.9294 18.0596C53.9218 18.0572 53.9136 18.0565 53.9056 18.0577C53.8975 18.0588 53.8902 18.0616 53.8841 18.0657C53.878 18.0697 53.8734 18.0747 53.8704 18.0799C53.8673 18.0851 53.8656 18.0906 53.8652 18.0959L53.5385 22.2646C53.5379 22.2724 53.5398 22.2811 53.5449 22.2887C53.5502 22.2964 53.5587 22.3032 53.57 22.3068C53.5813 22.3104 53.5938 22.3101 53.6048 22.3061C53.6159 22.3021 53.6239 22.295 53.6287 22.2872L55.8452 18.7145C55.8452 18.7145 55.8452 18.7146 55.8452 18.7145C55.8484 18.7093 55.8503 18.7036 55.8508 18.6982C55.8513 18.6928 55.8506 18.6872 55.8486 18.6818C55.8465 18.6764 55.843 18.671 55.838 18.6662C55.8329 18.6615 55.8265 18.6575 55.8189 18.6551C55.8188 18.6551 55.8189 18.6551 55.8189 18.6551L53.9294 18.0596ZM54.1626 17.3198C54.0449 17.2826 53.9203 17.2723 53.7981 17.2894C53.6758 17.3065 53.5587 17.3507 53.4556 17.419C53.3525 17.4873 53.2659 17.5781 53.2027 17.6849C53.1396 17.7916 53.1015 17.9115 53.0918 18.0354L52.7651 22.2036C52.7651 22.2035 52.7651 22.2037 52.7651 22.2036M54.1626 17.3198C54.1627 17.3198 54.1626 17.3197 54.1626 17.3198V17.3198Z" fill="#B58B00"/>
<path d="M56.9782 26.5722C56.8829 26.5949 56.7826 26.5853 56.6935 26.5451C56.6044 26.5048 56.5317 26.4362 56.487 26.3502C56.4423 26.2643 56.4283 26.1661 56.4471 26.0713C56.466 25.9766 56.5167 25.8908 56.591 25.8279L61.1196 22.007C61.1696 21.9648 61.2286 21.9343 61.2922 21.9178C61.3559 21.9013 61.4225 21.8992 61.4871 21.9117C61.5517 21.9242 61.6126 21.9509 61.6652 21.9899C61.7178 22.0288 61.7607 22.079 61.7908 22.1367L63.0668 24.5771C63.0972 24.635 63.1138 24.6988 63.1154 24.7639C63.117 24.829 63.1036 24.8936 63.0762 24.9528C63.0487 25.012 63.008 25.0643 62.957 25.1057C62.906 25.1471 62.8461 25.1766 62.7819 25.1918L56.9782 26.5722Z" fill="#FFE500"/>
<path fill-rule="evenodd" clip-rule="evenodd" d="M61.4132 22.2925C61.4053 22.291 61.397 22.2912 61.3893 22.2932C61.3816 22.2952 61.3748 22.2988 61.3695 22.3034L56.8413 26.1239C56.8413 26.1239 56.8414 26.1239 56.8413 26.1239C56.8334 26.1307 56.8288 26.1391 56.8272 26.147C56.8257 26.155 56.8267 26.1634 56.8308 26.1712C56.835 26.1792 56.8424 26.1868 56.853 26.1916C56.8637 26.1964 56.8762 26.1977 56.8881 26.1948L62.6918 24.8144C62.6996 24.8126 62.7066 24.8091 62.7121 24.8046C62.7176 24.8001 62.7215 24.7949 62.7239 24.7896C62.7264 24.7843 62.7275 24.7788 62.7273 24.7735C62.7272 24.7682 62.7259 24.7627 62.7231 24.7574L61.4468 22.3163C61.444 22.3111 61.4398 22.3058 61.434 22.3015C61.4282 22.2972 61.4212 22.294 61.4132 22.2925ZM61.1946 21.5423C61.3141 21.5113 61.4391 21.5074 61.5603 21.5308C61.6816 21.5542 61.7963 21.6044 61.8957 21.6781C61.9951 21.7517 62.0768 21.8469 62.1343 21.9569C62.1343 21.957 62.1342 21.9568 62.1343 21.9569L63.4099 24.3967C63.4099 24.3968 63.4098 24.3966 63.4099 24.3967C63.4678 24.507 63.4997 24.6295 63.5029 24.7542C63.506 24.879 63.4802 25.0027 63.4278 25.1158C63.3753 25.229 63.2977 25.3283 63.2012 25.4067C63.1048 25.485 62.9919 25.5405 62.8713 25.5691C62.8713 25.5691 62.8713 25.5691 62.8713 25.5691L57.0676 26.9495C56.889 26.992 56.701 26.9742 56.5335 26.8985C56.3659 26.8227 56.2278 26.6931 56.1426 26.5292C56.0573 26.3651 56.0303 26.177 56.0664 25.9955C56.1026 25.814 56.1995 25.6508 56.3401 25.5318L60.8691 21.7106C60.9637 21.6307 61.075 21.5733 61.1946 21.5423Z" fill="#B58B00"/>
<path d="M56.3312 36.5042C56.3277 36.1042 56.1838 35.7178 55.9238 35.4105C55.6638 35.1032 55.3038 34.8941 54.905 34.8187V33.6946C54.8624 31.4873 53.9423 29.3846 52.3425 27.8385C50.7427 26.2923 48.5909 25.4261 46.3497 25.4261C44.1084 25.4261 41.9567 26.2923 40.3569 27.8385C38.7571 29.3846 37.837 31.4873 37.7943 33.6946V34.8218C37.3785 34.8985 37.0051 35.1213 36.7434 35.4487C36.4817 35.7762 36.3495 36.186 36.3715 36.6022C36.3934 37.0184 36.568 37.4125 36.8627 37.7115C37.1574 38.0105 37.5523 38.1939 37.9739 38.2278C38.3759 40.1233 39.4281 41.8246 40.9536 43.0459C42.4791 44.2672 44.385 44.9338 46.3508 44.9338C48.3167 44.9338 50.2225 44.2672 51.7481 43.0459C53.2736 41.8246 54.3258 40.1233 54.7277 38.2278C55.1647 38.1882 55.571 37.9897 55.8674 37.671C56.1638 37.3524 56.3292 36.9364 56.3312 36.5042Z" fill="#D18660"/>
<path fill-rule="evenodd" clip-rule="evenodd" d="M40.0875 27.5595C41.7602 25.9429 44.0089 25.0382 46.3499 25.0382C48.6908 25.0382 50.9395 25.9429 52.6122 27.5595C54.2851 29.1763 55.2484 31.3763 55.293 33.687L55.2931 33.6945V34.5224C55.6519 34.6485 55.9727 34.8676 56.2201 35.1599C56.5382 35.5358 56.715 36.0096 56.7192 36.5008L56.7193 36.5059H56.7192C56.7168 37.0363 56.5138 37.5458 56.1516 37.9352C55.8551 38.2538 55.4695 38.4734 55.0478 38.569C54.5887 40.4479 53.5153 42.1281 51.9907 43.3486C50.3959 44.6253 48.4044 45.3216 46.351 45.3216C44.2977 45.3216 42.3062 44.6253 40.7114 43.3486C39.1874 42.1286 38.1143 40.4494 37.6548 38.5715C37.2509 38.4832 36.8789 38.2802 36.5867 37.9838C36.2259 37.6178 36.0113 37.1342 35.9843 36.6226C35.9574 36.1109 36.1199 35.6077 36.4405 35.2065C36.6925 34.8913 37.0283 34.6559 37.4066 34.5243V33.6945L37.4067 33.687C37.4513 31.3763 38.4146 29.1763 40.0875 27.5595ZM46.3499 25.814C44.2084 25.814 42.1535 26.6416 40.6266 28.1173C39.1008 29.5919 38.224 31.5958 38.1824 33.6983V34.8217C38.1824 35.0088 38.0489 35.1692 37.8649 35.2032C37.5399 35.2631 37.2494 35.437 37.0466 35.6908C36.8438 35.9445 36.7421 36.261 36.759 36.5817C36.7759 36.9024 36.9104 37.2072 37.1391 37.4392C37.3679 37.6713 37.6755 37.8146 38.0052 37.8411C38.1763 37.8548 38.318 37.9794 38.3536 38.1473C38.7367 39.9542 39.74 41.5773 41.1962 42.743C42.6525 43.9089 44.4728 44.5459 46.351 44.5459C48.2293 44.5459 50.0495 43.9089 51.5058 42.743C52.962 41.5773 53.9653 39.9542 54.3485 38.1473C54.3838 37.9808 54.5234 37.8568 54.6929 37.8414C55.0355 37.8104 55.3528 37.6548 55.5836 37.4068C55.8136 37.1595 55.9413 36.838 55.9435 36.5049C55.9402 36.197 55.8292 35.8989 55.6279 35.661C55.4259 35.4223 55.1453 35.2588 54.8331 35.1998C54.65 35.1652 54.5173 35.0051 54.5173 34.8187V33.6983C54.4757 31.5958 53.5989 29.5919 52.0731 28.1173C50.5462 26.6416 48.4913 25.814 46.3499 25.814Z" fill="#45413C"/>
<path fill-rule="evenodd" clip-rule="evenodd" d="M40.0875 27.5595C41.7602 25.9429 44.0089 25.0382 46.3499 25.0382C48.6908 25.0382 50.9395 25.9429 52.6122 27.5595C54.2851 29.1763 55.2484 31.3763 55.293 33.687L55.2931 33.6945V34.5224C55.6519 34.6485 55.9727 34.8676 56.2201 35.1599C56.5382 35.5358 56.715 36.0096 56.7192 36.5008L56.7193 36.5059H56.7192C56.7168 37.0363 56.5138 37.5458 56.1516 37.9352C55.8551 38.2538 55.4695 38.4734 55.0478 38.569C54.5887 40.4479 53.5153 42.1281 51.9907 43.3486C50.3959 44.6253 48.4044 45.3216 46.351 45.3216C44.2977 45.3216 42.3062 44.6253 40.7114 43.3486C39.1874 42.1286 38.1143 40.4494 37.6548 38.5715C37.2509 38.4832 36.8789 38.2802 36.5867 37.9838C36.2259 37.6178 36.0113 37.1342 35.9843 36.6226C35.9574 36.1109 36.1199 35.6077 36.4405 35.2065C36.6925 34.8913 37.0283 34.6559 37.4066 34.5243V33.6945L37.4067 33.687C37.4513 31.3763 38.4146 29.1763 40.0875 27.5595ZM46.3499 25.814C44.2084 25.814 42.1535 26.6416 40.6266 28.1173C39.1008 29.5919 38.224 31.5958 38.1824 33.6983V34.8217C38.1824 35.0088 38.0489 35.1692 37.8649 35.2032C37.5399 35.2631 37.2494 35.437 37.0466 35.6908C36.8438 35.9445 36.7421 36.261 36.759 36.5817C36.7759 36.9024 36.9104 37.2072 37.1391 37.4392C37.3679 37.6713 37.6755 37.8146 38.0052 37.8411C38.1763 37.8548 38.318 37.9794 38.3536 38.1473C38.7367 39.9542 39.74 41.5773 41.1962 42.743C42.6525 43.9089 44.4728 44.5459 46.351 44.5459C48.2293 44.5459 50.0495 43.9089 51.5058 42.743C52.962 41.5773 53.9653 39.9542 54.3485 38.1473C54.3838 37.9808 54.5234 37.8568 54.6929 37.8414C55.0355 37.8104 55.3528 37.6548 55.5836 37.4068C55.8136 37.1595 55.9413 36.838 55.9435 36.5049C55.9402 36.197 55.8292 35.8989 55.6279 35.661C55.4259 35.4223 55.1453 35.2588 54.8331 35.1998C54.65 35.1652 54.5173 35.0051 54.5173 34.8187V33.6983C54.4757 31.5958 53.5989 29.5919 52.0731 28.1173C50.5462 26.6416 48.4913 25.814 46.3499 25.814Z" fill="#45413C"/>
<path d="M42.0708 34.7478C42.0708 35.0271 42.1834 35.295 42.384 35.4925C42.5845 35.6901 42.8564 35.801 43.14 35.801C43.4236 35.801 43.6956 35.6901 43.8961 35.4925C44.0966 35.295 44.2092 35.0271 44.2092 34.7478C44.2092 34.4685 44.0966 34.2006 43.8961 34.0031C43.6956 33.8055 43.4236 33.6946 43.14 33.6946C42.8564 33.6946 42.5845 33.8055 42.384 34.0031C42.1834 34.2006 42.0708 34.4685 42.0708 34.7478Z" fill="#45413C"/>
<path d="M48.4883 34.7478C48.4883 35.0271 48.6009 35.295 48.8015 35.4925C49.002 35.6901 49.2739 35.801 49.5575 35.801C49.8411 35.801 50.113 35.6901 50.3136 35.4925C50.5141 35.295 50.6267 35.0271 50.6267 34.7478C50.6267 34.4685 50.5141 34.2006 50.3136 34.0031C50.113 33.8055 49.8411 33.6946 49.5575 33.6946C49.2739 33.6946 49.002 33.8055 48.8015 34.0031C48.6009 34.2006 48.4883 34.4685 48.4883 34.7478Z" fill="#45413C"/>
<path d="M40.6445 37.5574C40.6445 37.8367 40.7572 38.1046 40.9577 38.3021C41.1582 38.4996 41.4302 38.6106 41.7138 38.6106C41.9973 38.6106 42.2693 38.4996 42.4698 38.3021C42.6703 38.1046 42.783 37.8367 42.783 37.5574C42.783 37.278 42.6703 37.0101 42.4698 36.8126C42.2693 36.6151 41.9973 36.5042 41.7138 36.5042C41.4302 36.5042 41.1582 36.6151 40.9577 36.8126C40.7572 37.0101 40.6445 37.278 40.6445 37.5574Z" fill="#BD704A"/>
<path d="M49.9146 37.5574C49.9146 37.8367 50.0272 38.1046 50.2277 38.3021C50.4282 38.4996 50.7002 38.6106 50.9838 38.6106C51.2673 38.6106 51.5393 38.4996 51.7398 38.3021C51.9403 38.1046 52.053 37.8367 52.053 37.5574C52.053 37.278 51.9403 37.0101 51.7398 36.8126C51.5393 36.6151 51.2673 36.5042 50.9838 36.5042C50.7002 36.5042 50.4282 36.6151 50.2277 36.8126C50.0272 37.0101 49.9146 37.278 49.9146 37.5574Z" fill="#BD704A"/>
<path fill-rule="evenodd" clip-rule="evenodd" d="M43.8859 39.8712C44.0035 39.6921 44.244 39.6423 44.4231 39.7598C44.9929 40.134 45.6631 40.334 46.349 40.334C47.035 40.334 47.7051 40.134 48.275 39.7598C48.4541 39.6423 48.6945 39.6921 48.8121 39.8712C48.9297 40.0503 48.8798 40.2908 48.7007 40.4083C48.0038 40.8659 47.1855 41.1097 46.349 41.1097C45.5125 41.1097 44.6943 40.8659 43.9973 40.4083C43.8182 40.2908 43.7684 40.0503 43.8859 39.8712Z" fill="#45413C"/>
<path d="M56.3314 28.7778C56.3314 28.0399 56.1839 27.3092 55.8972 26.6275C55.6105 25.9458 55.1903 25.3264 54.6605 24.8046C54.1308 24.2829 53.5019 23.8691 52.8098 23.5868C52.1177 23.3045 51.3759 23.1592 50.6268 23.1593H44.2099C43.8317 23.1593 43.4689 23.0113 43.2015 22.7479C42.934 22.4844 42.7838 22.1271 42.7838 21.7545H40.6445C39.5507 21.7551 38.4986 22.1684 37.7046 22.9095C36.9106 23.6506 36.435 24.6631 36.3755 25.739C36.316 26.8149 36.6772 27.8723 37.3848 28.694C38.0924 29.5156 39.0927 30.039 40.18 30.1566C40.6995 31.6545 41.9902 32.9922 43.4999 32.9922H45.4092C45.4419 32.9918 45.4734 32.9804 45.4986 32.9599C45.5238 32.9394 45.5412 32.9111 45.5478 32.8796C45.5544 32.8481 45.5498 32.8153 45.5349 32.7866C45.52 32.758 45.4956 32.7353 45.4657 32.7222C44.9493 32.5064 44.5025 32.1559 44.1735 31.7083C43.8445 31.2607 43.6459 30.7332 43.599 30.1826H50.6299L54.6993 34.191C54.7655 34.2563 54.844 34.3081 54.9305 34.3434C55.017 34.3788 55.1097 34.3969 55.2033 34.397H55.6214C55.8105 34.3968 55.9917 34.3227 56.1254 34.191C56.2591 34.0593 56.3343 33.8808 56.3345 33.6946L56.3314 28.7778Z" fill="#724F3D"/>
<path d="M40.1767 30.1567C39.3631 30.0667 38.5928 29.7481 37.9578 29.239C37.3228 28.73 36.8498 28.0518 36.5951 27.2853C36.4493 27.7701 36.3712 28.2722 36.3628 28.7778V33.6946C36.3628 33.8809 36.4379 34.0595 36.5716 34.1913C36.7054 34.323 36.8867 34.397 37.0759 34.397H37.494C37.5876 34.397 37.6803 34.3788 37.7668 34.3435C37.8533 34.3081 37.9318 34.2563 37.998 34.1911L40.8263 31.4043C40.5513 31.0206 40.3327 30.6005 40.1767 30.1567Z" fill="#724F3D"/>
<path fill-rule="evenodd" clip-rule="evenodd" d="M36.5897 26.8975C36.7588 26.8951 36.91 27.0025 36.9633 27.163C37.1943 27.858 37.6234 28.4738 38.2006 28.9365C38.7778 29.3992 39.4786 29.6892 40.2195 29.7712L40.1769 30.1567L40.5428 30.0281C40.6866 30.4372 40.8882 30.8245 41.1418 31.1785C41.253 31.3337 41.2347 31.5467 41.0987 31.6807L38.2706 34.4672C38.1682 34.5683 38.0468 34.6482 37.9137 34.7026C37.7805 34.757 37.638 34.7849 37.4942 34.7849H37.0761C36.7859 34.7849 36.5065 34.6715 36.2996 34.4676C36.0925 34.2636 35.9751 33.9857 35.9751 33.6946V28.7714C35.9841 28.2301 36.0678 27.6926 36.2238 27.1737C36.2725 27.0117 36.4205 26.8999 36.5897 26.8975ZM39.8955 30.5096C39.0975 30.3799 38.3457 30.047 37.7154 29.5417C37.3443 29.2443 37.0237 28.8937 36.7632 28.5035C36.7566 28.5958 36.7525 28.6884 36.7509 28.7811V33.6946C36.7509 33.7762 36.7837 33.8555 36.844 33.915C36.9046 33.9746 36.9879 34.0092 37.0761 34.0092H37.4941C37.4941 34.0092 37.4941 34.0092 37.4941 34.0092C37.5375 34.0092 37.5805 34.0007 37.6203 33.9844C37.6601 33.9682 37.6959 33.9445 37.7257 33.915L40.3255 31.3535C40.1575 31.0852 40.0135 30.8029 39.8955 30.5096Z" fill="#45413C"/>
<path d="M44.923 26.2039C48.7691 26.1627 52.5969 26.7318 56.2594 27.8893C56.0444 26.5703 55.3594 25.3699 54.3272 24.5033C53.2949 23.6368 51.9831 23.1609 50.6268 23.1609H44.2099C43.8317 23.1609 43.4689 23.0129 43.2015 22.7494C42.934 22.486 42.7838 22.1287 42.7838 21.7561H40.6445C39.9864 21.756 39.3372 21.9055 38.7473 22.1929C38.1574 22.4803 37.6428 22.8979 37.2435 23.4132C36.8443 23.9285 36.571 24.5276 36.4452 25.1638C36.3193 25.8001 36.3442 26.4564 36.5178 27.0817C39.2785 26.4868 42.0971 26.1924 44.923 26.2039Z" fill="#A86C4D"/>
<path fill-rule="evenodd" clip-rule="evenodd" d="M40.6442 21.3667L42.7835 21.3667C42.9977 21.3667 43.1713 21.5404 43.1713 21.7546C43.1713 22.0224 43.2793 22.2804 43.4734 22.4716C43.6676 22.663 43.9324 22.7715 44.2096 22.7715H50.6265C50.6265 22.7715 50.6264 22.7715 50.6265 22.7715C51.4257 22.7714 52.2173 22.9264 52.956 23.2277C53.6948 23.529 54.3664 23.9709 54.9324 24.5284C55.4984 25.0858 55.9477 25.748 56.2544 26.4772C56.561 27.2063 56.719 27.988 56.719 28.7776M56.719 28.7776L56.7221 33.695C56.7218 33.9859 56.6043 34.2635 56.3973 34.4674C56.1906 34.671 55.9115 34.7846 55.6215 34.7849H55.203C55.0592 34.7849 54.9167 34.7569 54.7835 34.7025C54.6504 34.6482 54.529 34.5683 54.4266 34.4672L50.4706 30.5705H44.0561C44.1388 30.8959 44.2841 31.2044 44.4857 31.4787C44.7727 31.869 45.1629 32.1755 45.6149 32.3643L45.6212 32.3669C45.7312 32.4152 45.8224 32.4996 45.8786 32.6074C45.9348 32.7154 45.9521 32.8396 45.9271 32.9591C45.9021 33.0786 45.8366 33.1849 45.7429 33.261C45.6494 33.337 45.5331 33.3786 45.4135 33.3801L45.4089 33.3801L43.4996 33.3801C41.8401 33.3801 40.4952 32.0039 39.8977 30.5101C38.8069 30.3352 37.8105 29.7831 37.0906 28.9472C36.318 28.0501 35.9228 26.8944 35.9879 25.7177C36.0529 24.541 36.5731 23.4348 37.4397 22.626C38.306 21.8174 39.453 21.3673 40.6442 21.3667M40.6442 22.1425C40.6442 22.1425 40.6443 22.1425 40.6442 22.1425C39.6479 22.143 38.6906 22.5196 37.969 23.1931C37.2475 23.8665 36.8164 24.7854 36.7625 25.7605C36.7086 26.7355 37.0358 27.6947 37.6784 28.4409C38.3212 29.1873 39.231 29.6639 40.2214 29.7711C40.3705 29.7872 40.497 29.8879 40.5461 30.0296C41.0378 31.4472 42.2232 32.6043 43.4996 32.6043H44.5057C44.2624 32.4129 44.0452 32.1891 43.8607 31.9381C43.4896 31.4333 43.2652 30.8377 43.2123 30.2155C43.203 30.1073 43.2396 30.0002 43.3131 29.9202C43.3865 29.8403 43.4901 29.7947 43.5987 29.7947H50.6296C50.7315 29.7947 50.8292 29.8348 50.9018 29.9063L54.9712 33.9148C55.0011 33.9442 55.0371 33.9681 55.0769 33.9844C55.1167 34.0007 55.1596 34.0091 55.203 34.0091C55.2031 34.0091 55.203 34.0091 55.203 34.0091H55.6207C55.7089 34.009 55.7923 33.9744 55.8529 33.9147C55.9132 33.8554 55.9461 33.7762 55.9463 33.6949C55.9463 33.6946 55.9463 33.6944 55.9463 33.6942M40.6442 22.1425H42.4385H40.6442ZM42.4385 22.1425C42.513 22.4744 42.6821 22.7811 42.929 23.0243C43.2696 23.3598 43.7304 23.5473 44.2096 23.5473H50.6265C51.3255 23.5472 52.0175 23.6827 52.663 23.946C53.3085 24.2093 53.8946 24.5951 54.388 25.0811C54.8815 25.567 55.2726 26.1437 55.5393 26.7779C55.806 27.4121 55.9432 28.0917 55.9432 28.7778L55.9463 33.6942" fill="#45413C"/>
</svg>

