<svg width="15" height="14" viewBox="0 0 15 14" fill="none" xmlns="http://www.w3.org/2000/svg">
<path d="M8.408 0.164C9.624 0.164 10.6747 0.388 11.56 0.835999C12.4453 1.284 13.1173 1.91333 13.576 2.724C14.0453 3.524 14.28 4.45733 14.28 5.524C14.28 6.37733 14.1307 7.19333 13.832 7.972C13.544 8.75067 13.1227 9.38533 12.568 9.876C12.024 10.3667 11.3787 10.612 10.632 10.612C10.088 10.612 9.66133 10.4947 9.352 10.26C9.04267 10.0147 8.85067 9.67333 8.776 9.236C8.44533 9.66267 8.02933 9.99867 7.528 10.244C7.02667 10.4893 6.504 10.612 5.96 10.612C5.13867 10.612 4.49333 10.3667 4.024 9.876C3.56533 9.37467 3.336 8.69733 3.336 7.844C3.336 7.03333 3.50133 6.276 3.832 5.572C4.17333 4.868 4.648 4.308 5.256 3.892C5.864 3.46533 6.54667 3.252 7.304 3.252C8.232 3.252 8.88267 3.56667 9.256 4.196L9.4 3.396H10.984L10.184 7.972C10.152 8.196 10.136 8.39333 10.136 8.564C10.136 8.84133 10.1893 9.04933 10.296 9.188C10.4133 9.32667 10.616 9.396 10.904 9.396C11.3093 9.396 11.656 9.19867 11.944 8.804C12.232 8.39867 12.4453 7.90267 12.584 7.316C12.7333 6.72933 12.808 6.15867 12.808 5.604C12.808 4.24933 12.4133 3.21467 11.624 2.5C10.8347 1.78533 9.688 1.428 8.184 1.428C6.92533 1.428 5.79467 1.72667 4.792 2.324C3.8 2.92133 3.02133 3.74267 2.456 4.788C1.89067 5.83333 1.608 6.996 1.608 8.276C1.608 9.64133 2.01333 10.6813 2.824 11.396C3.63467 12.1107 4.792 12.468 6.296 12.468C7.30933 12.468 8.19467 12.2813 8.952 11.908L9.192 13.124C8.22133 13.54 7.13333 13.748 5.928 13.748C4.76533 13.748 3.74667 13.5293 2.872 13.092C1.99733 12.6547 1.32 12.0307 0.84 11.22C0.36 10.42 0.12 9.48667 0.12 8.42C0.12 6.89467 0.472 5.50267 1.176 4.244C1.89067 2.98533 2.87733 1.99333 4.136 1.268C5.39467 0.532 6.81867 0.164 8.408 0.164ZM6.52 9.204C6.968 9.204 7.37333 9.076 7.736 8.82C8.10933 8.55333 8.40267 8.20667 8.616 7.78C8.82933 7.34267 8.936 6.87867 8.936 6.388C8.936 5.876 8.792 5.46 8.504 5.14C8.22667 4.80933 7.832 4.644 7.32 4.644C6.86133 4.644 6.456 4.788 6.104 5.076C5.76267 5.35333 5.496 5.716 5.304 6.164C5.12267 6.612 5.032 7.08133 5.032 7.572C5.032 8.07333 5.15467 8.47333 5.4 8.772C5.64533 9.06 6.01867 9.204 6.52 9.204Z" fill="#000000"/>
</svg>
