<svg viewBox="0 0 22 22" fill="none" xmlns="http://www.w3.org/2000/svg">
<path d="M7.76861 9.61921L6.85161 8.70571C5.33265 9.43364 3.51982 9.12524 2.32703 7.93598C1.13423 6.74672 0.820444 4.93482 1.54386 3.41371L2.79073 4.65708C3.12371 4.99806 3.61418 5.1339 4.07513 5.0128C4.53608 4.8917 4.89645 4.53233 5.01884 4.07172C5.14123 3.61112 5.00677 3.12027 4.66673 2.78633L3.42073 1.54383C4.93921 0.817612 6.75049 1.12672 7.94217 2.31545C9.13384 3.50418 9.44744 5.31469 8.72498 6.83496L9.57373 7.68108" stroke="#000000" stroke-width="1.5" stroke-linecap="round" stroke-linejoin="round"/>
<path d="M13.9041 11.994L15.1483 13.2348C16.6669 12.5076 18.4788 12.816 19.6714 14.0046C20.8639 15.1931 21.1782 17.0041 20.4561 18.525L19.2092 17.2825C18.691 16.7737 17.8598 16.7769 17.3456 17.2897C16.8313 17.8025 16.8258 18.6337 17.3332 19.1533L18.5792 20.3958C17.0609 21.1216 15.2501 20.8125 14.0585 19.6241C12.867 18.4357 12.5531 16.6257 13.275 15.1055L12.0307 13.8648" stroke="#000000" stroke-width="1.5" stroke-linecap="round" stroke-linejoin="round"/>
<path fill-rule="evenodd" clip-rule="evenodd" d="M1.76436 20.275V20.275C1.39551 19.9083 1.18811 19.4096 1.18811 18.8895C1.18811 18.3693 1.39551 17.8706 1.76436 17.5039L5.87249 13.4036C6.1286 13.1483 6.543 13.1483 6.79911 13.4036L8.65236 15.2508C8.77504 15.3732 8.84398 15.5394 8.84398 15.7128C8.84398 15.8861 8.77504 16.0523 8.65236 16.1748L4.54336 20.275C3.77492 21.0399 2.5328 21.0399 1.76436 20.275Z" stroke="#000000" stroke-width="1.5" stroke-linecap="round" stroke-linejoin="round"/>
<path fill-rule="evenodd" clip-rule="evenodd" d="M15.0127 1.53945L20.4561 6.96445C20.7019 7.20897 20.84 7.54134 20.84 7.88801C20.84 8.23468 20.7019 8.56705 20.4561 8.81157L18.6037 10.6604C18.0915 11.1711 17.2627 11.1711 16.7505 10.6604L11.3071 5.23545C11.0614 4.99093 10.9232 4.65855 10.9232 4.31188C10.9232 3.96522 11.0614 3.63284 11.3071 3.38832L13.1595 1.5412C13.6712 1.03008 14.5 1.0293 15.0127 1.53945Z" stroke="#000000" stroke-width="1.5" stroke-linecap="round" stroke-linejoin="round"/>
<path d="M14.0861 8.00488L7.63824 14.2401" stroke="#000000" stroke-width="1.5" stroke-linecap="round" stroke-linejoin="round"/>
</svg>

