<svg width="155" height="28" viewBox="0 0 155 28" fill="none" xmlns="http://www.w3.org/2000/svg">
<g clip-path="url(#clip0)">
<path d="M19.5663 17.9198C19.5663 19.1056 18.5398 19.8467 17.6305 19.8467C16.7212 19.8467 15.6303 19.4782 15.6303 17.9198V17.1619H14.4324V17.9198C14.4324 19.6457 15.8676 21.0494 17.6305 21.0494C19.3933 21.0494 20.8285 19.6457 20.8285 17.9198V17.1619H19.5663V17.9198Z" fill="#130B43"/>
<path d="M9.50593 14.2597C9.50593 13.1273 10.488 12.2064 11.6947 12.2064C12.9005 12.2064 13.8826 13.1281 13.8826 14.2597H15.2613C15.2613 12.4134 13.6621 10.9119 11.6947 10.9119C9.72723 10.9119 8.12726 12.4134 8.12726 14.2597H9.50593Z" fill="#130B43"/>
<path d="M20.8669 14.2597C20.8669 13.1273 21.849 12.2064 23.0548 12.2064C24.2615 12.2064 25.2436 13.1281 25.2436 14.2597H26.6223C26.6223 12.4134 25.0223 10.9119 23.0548 10.9119C21.0874 10.9119 19.4882 12.4134 19.4882 14.2597H20.8669Z" fill="#130B43"/>
<path fill-rule="evenodd" clip-rule="evenodd" d="M28.8468 9.86761V5.41754C28.8468 3.91787 28.6645 2.87736 28.2998 2.29597C27.9352 1.71457 27.1761 1.26631 26.0223 0.951165C25.674 0.853361 25.4999 0.69579 25.4999 0.478447C25.4999 0.185034 25.8917 0.0383301 26.6754 0.0383301H27.8672C29.1624 0.0383301 30.1447 0.440408 30.8141 1.24458C31.4835 2.04874 31.8182 3.22238 31.8182 4.76551V9.46009C31.8182 10.5468 31.9352 11.3836 32.1692 11.9704C32.4032 12.5572 32.8359 13.106 33.4671 13.6168C33.6522 13.7689 33.7447 13.8939 33.7447 13.9917C33.7447 14.0895 33.6522 14.2144 33.4671 14.3666C32.825 14.8882 32.3896 15.4397 32.161 16.0211C31.9325 16.6025 31.8182 17.4365 31.8182 18.5232V23.2015C31.8182 24.7555 31.4808 25.9346 30.8059 26.7388C30.1311 27.5429 29.1515 27.945 27.8672 27.945H26.6754C26.1638 27.945 25.84 27.9206 25.704 27.8716C25.5679 27.8227 25.4999 27.7005 25.4999 27.5049C25.4999 27.2332 25.6795 27.0539 26.0386 26.967L26.6917 26.8203C28.1284 26.4942 28.8468 25.0761 28.8468 22.5658V18.1157C28.8468 16.4313 29.2549 15.2414 30.0713 14.5459L30.3815 14.2851C30.5338 14.1547 30.61 14.0569 30.61 13.9917C30.61 13.9156 30.5338 13.8178 30.3815 13.6983L30.0713 13.4374C29.2549 12.7419 28.8468 11.552 28.8468 9.86761Z" fill="#130B43"/>
<path fill-rule="evenodd" clip-rule="evenodd" d="M6.21041 9.82928V5.37921C6.21041 3.87954 6.39272 2.83903 6.75734 2.25764C7.12197 1.67624 7.88113 1.22798 9.03487 0.912835C9.38317 0.815031 9.55731 0.65746 9.55731 0.440117C9.55731 0.146704 9.16548 0 8.38181 0H7.18999C5.89476 0 4.91247 0.402078 4.24309 1.20625C3.5737 2.01041 3.23901 3.18405 3.23901 4.72718V9.42176C3.23901 10.5085 3.12201 11.3452 2.888 11.9321C2.65399 12.5189 2.22134 13.0677 1.59005 13.5784C1.40502 13.7306 1.31251 13.8555 1.31251 13.9533C1.31251 14.0511 1.40502 14.1761 1.59005 14.3282C2.23223 14.8499 2.66759 15.4014 2.89616 15.9828C3.12473 16.5642 3.23901 17.3982 3.23901 18.4849V23.1632C3.23901 24.7172 3.57642 25.8963 4.25125 26.7004C4.92607 27.5046 5.90565 27.9067 7.18999 27.9067H8.38181C8.89338 27.9067 9.21718 27.8822 9.35323 27.8333C9.48929 27.7844 9.55731 27.6622 9.55731 27.4666C9.55731 27.1949 9.37772 27.0156 9.01854 26.9286L8.36549 26.7819C6.92876 26.4559 6.21041 25.0378 6.21041 22.5275V18.0774C6.21041 16.393 5.80226 15.2031 4.98593 14.5076L4.67573 14.2467C4.52335 14.1163 4.44716 14.0185 4.44716 13.9533C4.44716 13.8773 4.52335 13.7795 4.67573 13.6599L4.98593 13.3991C5.80226 12.7036 6.21041 11.5137 6.21041 9.82928Z" fill="#130B43"/>
</g>
<path fill-rule="evenodd" clip-rule="evenodd" d="M110.43 6.38277C110.43 7.91578 111.296 8.68228 113.029 8.68228C114.568 8.68228 115.338 7.91578 115.338 6.38277C115.338 4.84976 114.568 4.08325 113.029 4.08325C111.296 4.08325 110.43 4.84976 110.43 6.38277ZM76.1066 18.0874C77.5845 20.3654 80.3974 20.745 84.5451 19.2264C86 25.206 71.4509 25.7755 71.4509 16.6637C72.0182 8.47447 79.3074 8.47447 82.2173 10.1145C85.5513 11.8167 86 16.0942 83.0902 17.5179C82.2055 17.9973 79.8776 18.1872 76.1066 18.0874ZM76.1066 14.9552C76.9796 11.2535 80.4714 12.6772 80.4714 14.101C80.4714 14.1155 80.4721 14.1316 80.4729 14.1489C80.4882 14.4702 80.524 15.2254 76.1066 14.9552ZM95.8818 13.0521C93.8631 12.7714 92.6924 13.0618 92.3699 13.9233C92.0475 14.7848 91.9499 17.8823 92.0773 23.2157C89.9137 23.5683 88.548 23.1811 87.9801 22.0541C87.4122 20.9272 87.2171 18.2169 87.3948 13.9233C87.5899 11.6002 88.5654 10.1482 90.3214 9.56746C91.5038 9.17637 94.3183 8.95918 95.5892 10.1482C96.0001 10.5327 96.0976 11.5007 95.8818 13.0521ZM117.349 22.9231C115.328 24.297 112.232 23.4253 111.479 22.3457C110.499 20.9401 110.206 16.8983 110.599 10.2204C112.701 9.97866 114.07 10.1711 114.708 10.7978C115.522 11.5988 115.52 14.9923 115.519 17.2215C115.518 18.2059 115.518 18.9632 115.588 19.17C115.887 20.0527 116.67 20.3414 117.936 20.0361C117.951 21.6843 117.756 22.6466 117.349 22.9231ZM101.455 16.3469C101.455 12.3695 106.051 12.3695 108.349 14.0741C108.349 14.0108 108.353 13.9246 108.359 13.8196C108.43 12.4942 108.662 8.18491 101.742 9.50583C98.8701 10.3612 96.8595 13.4974 96.8595 16.3603C96.8595 19.7698 98.5829 22.0507 101.742 23.1912C109.498 24.3316 108.349 18.6197 108.349 18.6197C106.338 20.0402 101.455 20.3243 101.455 16.3469ZM57.0874 9.60013C61.2772 9.16297 62.5887 11.411 63.3619 12.7363C63.5957 13.1371 63.7803 13.4535 63.9804 13.5857C63.9804 13.5857 65.9908 11.5929 66.278 9.60013C70.8734 9.41034 70.8734 11.7827 66.278 16.7173C68.0013 19.3743 69.5331 20.7977 70.8734 20.9875C70.5862 23.265 68.4922 23.7989 66.5652 22.9803C64.5548 22.1263 63.1187 19.2794 63.1187 19.2794C61.9699 19.2794 60.8211 22.9803 60.8211 23.265C55.8428 23.4548 55.747 20.9875 60.5339 15.8632C58.2362 13.2061 57.0874 11.1185 57.0874 9.60013ZM55.0943 19.2264C50.9465 20.745 48.1336 20.3654 46.6557 18.0874C50.4268 18.1872 52.7547 17.9973 53.6393 17.5179C56.5492 16.0942 56.1005 11.8167 52.7664 10.1145C49.8566 8.47447 42.5674 8.47447 42 16.6637C42 25.7755 56.5492 25.206 55.0943 19.2264ZM51.0205 14.101C51.0205 12.6772 47.5287 11.2535 46.6557 14.9552C51.0732 15.2254 51.0373 14.4702 51.0221 14.1489L51.0221 14.1489C51.0213 14.1316 51.0205 14.1155 51.0205 14.101ZM130.346 13.9531C131.774 7.59943 120.638 8.17704 119.496 12.7979C118.751 17.3184 121.771 17.7851 123.962 18.1237C125.131 18.3043 126.063 18.4485 126.063 19.1516C126.063 21.1732 121.209 20.018 119.782 19.1516C118.068 24.9277 128.633 25.5053 130.346 20.5956C131.075 18.2624 130.399 16.5078 128.919 15.686C128.024 15.1893 127.073 15.079 126.219 14.9798C125.162 14.8572 124.253 14.7516 123.779 13.9531C123.208 12.7979 126.634 11.9315 130.346 13.9531ZM137.769 19.7287C137.83 20.9173 137.895 22.1977 137.895 23.511C132.82 24.2779 132.885 21.2172 132.973 17.1051C132.985 16.5484 132.997 15.9724 132.997 15.384C132.997 8.70827 141.353 7.54728 143.946 11.6108C146.539 7.83753 154.606 8.12778 154.606 16.4432V23.511C149.809 24.0968 149.708 21.7695 149.708 18.867C149.708 18.4351 149.712 18.0294 149.715 17.6492C149.74 14.453 149.751 13.062 147.691 13.062C146.009 13.2739 146.015 14.9787 146.029 18.634C146.034 19.9854 146.041 21.6033 145.963 23.511C141.641 24.0915 141.641 22.0597 141.641 20.028C141.641 19.6172 141.645 19.2091 141.65 18.8086C141.684 15.7103 141.713 13.062 139.624 13.062C137.429 13.062 137.575 15.926 137.769 19.7287Z" fill="#130B43"/>
<defs>
<clipPath id="clip0">
<rect width="32.4486" height="28" fill="white" transform="translate(1.3125)"/>
</clipPath>
</defs>
</svg>

