<svg id="exercises" xmlns="http://www.w3.org/2000/svg" viewBox="0 0 24 24">
  <defs>
    <style>
      .cls-1 {
        fill:none;
        stroke:currentColor;
        stroke-linecap:round;
        stroke-linejoin:round;
        stroke-width:1.5px;
      }
    </style>
  </defs>
  <title>fitness-weights</title>
  <line class="cls-1" x1="8.25" y1="11.5" x2="15.75" y2="11.5"/>
  <path class="cls-1" d="M6.75,17.5A1.5,1.5,0,0,1,5.25,16V7a1.5,1.5,0,0,1,3,0v9A1.5,1.5,0,0,1,6.75,17.5Z"/>
  <line class="cls-1" x1="2.25" y1="11.5" x2="0.75" y2="11.5"/>
  <path class="cls-1" d="M3.75,8.5A1.5,1.5,0,0,0,2.25,10v3a1.5,1.5,0,0,0,3,0V10A1.5,1.5,0,0,0,3.75,8.5Z"/>
  <path class="cls-1" d="M17.25,17.5a1.5,1.5,0,0,0,1.5-1.5V7a1.5,1.5,0,0,0-3,0v9A1.5,1.5,0,0,0,17.25,17.5Z"/>
  <line class="cls-1" x1="21.75" y1="11.5" x2="23.25" y2="11.5"/>
  <path class="cls-1" d="M20.25,8.5a1.5,1.5,0,0,1,1.5,1.5v3a1.5,1.5,0,0,1-3,0V10A1.5,1.5,0,0,1,20.25,8.5Z"/>
</svg>