<svg id="external-link" viewBox="0 0 13 13" fill="none" xmlns="http://www.w3.org/2000/svg">
  <path fill-rule="evenodd" clip-rule="evenodd" d="M13 1.17659V11.8234C13 12.4732 12.4743 13 11.8234 13H1.17659C0.526775 13 0 12.4743 0 11.8234V1.17659C0 0.526777 0.525713 0 1.17659 0H11.8234C12.4732 0 13 0.525716 13 1.17659ZM11.8182 1.18182V11.8182H1.18182V1.18182H11.8182ZM10.0455 7.09091C10.3718 7.09091 10.6364 6.82635 10.6364 6.5V2.95455C10.6364 2.6282 10.3718 2.36364 10.0455 2.36364H6.5C6.17365 2.36364 5.90909 2.6282 5.90909 2.95455C5.90909 3.2809 6.17365 3.54545 6.5 3.54545H8.61546L3.71853 8.4458C3.48776 8.67656 3.48776 9.05071 3.71853 9.28147C3.94929 9.51224 4.32343 9.51224 4.5542 9.28147L9.45455 4.38399V6.5C9.45455 6.82635 9.7191 7.09091 10.0455 7.09091Z" fill="currentColor"/>
</svg>