<svg
  id="external-site-youtube"
  viewBox="0 0 32 32"
  fill="none"
  xmlns="http://www.w3.org/2000/svg"
>
  <path
    fill-rule="evenodd"
    clip-rule="evenodd"
    d="M31.6807 9.93564C31.6807 9.93564 31.3678 7.84548 30.4082 6.92475C29.1918 5.7169 27.8276 5.71117 27.2021 5.64039C22.7243 5.33337 16.0071 5.33337 16.0071 5.33337H15.9929C15.9929 5.33337 9.27609 5.33337 4.79787 5.64039C4.17244 5.71117 2.80889 5.7169 1.59182 6.92475C0.632178 7.84548 0.32 9.93564 0.32 9.93564C0.32 9.93564 0 12.3901 0 14.8446V17.1461C0 19.6002 0.32 22.0547 0.32 22.0547C0.32 22.0547 0.632178 24.1448 1.59182 25.0656C2.80889 26.2737 4.40782 26.235 5.12 26.3617C7.68036 26.5946 16 26.6667 16 26.6667C16 26.6667 22.7243 26.6569 27.2021 26.3503C27.8276 26.2795 29.1918 26.2737 30.4082 25.0656C31.3678 24.1448 31.6807 22.0547 31.6807 22.0547C31.6807 22.0547 32 19.6002 32 17.1461V14.8446C32 12.3901 31.6807 9.93564 31.6807 9.93564ZM12.6965 19.9342L12.6951 11.4121L21.3415 15.6878L12.6965 19.9342Z"
    fill="#FF0000"
  />
</svg>
