<svg
  id="gold-star"
  viewBox="0 0 24 24"
  fill="none"
  xmlns="http://www.w3.org/2000/svg"
>
  <path
    fill-rule="evenodd"
    clip-rule="evenodd"
    d="M12.4333 5.51801L14.4223 9.49501L18.2483 9.87801C18.4346 9.89626 18.5937 10.0203 18.6568 10.1966C18.7199 10.3728 18.6757 10.5697 18.5433 10.702L15.3903 13.854L16.5593 18.137C16.6091 18.3213 16.5463 18.5176 16.3987 18.6387C16.2511 18.7597 16.0462 18.783 15.8753 18.698L12.0003 16.76L8.12527 18.7C7.95443 18.7853 7.7494 18.7622 7.60184 18.641C7.45428 18.5198 7.39177 18.3232 7.44227 18.139L8.61027 13.854L5.45727 10.7C5.32487 10.5677 5.28067 10.3708 5.34377 10.1946C5.40687 10.0183 5.56595 9.89426 5.75227 9.87601L9.57827 9.49301L11.5673 5.51601C11.6496 5.35212 11.8175 5.24885 12.0009 5.24927C12.1843 5.24969 12.3517 5.35375 12.4333 5.51801Z"
    fill="#F69605"
    stroke="#F69605"
    stroke-width="1.5"
    stroke-linecap="round"
    stroke-linejoin="round"
  />
</svg>
