<svg xmlns="http://www.w3.org/2000/svg" viewBox="0 0 24 24"><defs><style>.a,.b{fill:none;stroke:#000000;stroke-linejoin:round;stroke-width:1.5px;}.b{stroke-linecap:round;}</style></defs><title>cursor-choose-1</title><path class="a" d="M11.711,18.71l-5.1-5.1a2.277,2.277,0,1,1,3.221-3.22l3.245,3.244,6.076-8.1a2.277,2.277,0,0,1,3.643,2.733l-7.652,10.2A2.276,2.276,0,0,1,11.711,18.71Z"/><path class="b" d="M11.705,8.537l2.253-3.006a2.28,2.28,0,0,1,2.449-.823"/><path class="b" d="M8.891,19.246a2.277,2.277,0,0,1-2.373-.536l-5.1-5.1A2.277,2.277,0,0,1,3.782,9.85"/></svg>
