<svg viewBox="0 0 36 36" fill="none" xmlns="http://www.w3.org/2000/svg">
<path fill-rule="evenodd" clip-rule="evenodd" d="M31.125 13.5565H25.5833L28.3542 8.75124C28.9582 7.70501 28.5998 6.3672 27.5535 5.76312L23.7619 3.57562C22.7156 2.97159 21.3778 3.33003 20.7738 4.37624L18 9.18145L15.2292 4.36895C14.6251 3.32274 13.2873 2.96429 12.241 3.56833L8.44938 5.75583C7.94449 6.04545 7.57585 6.52435 7.42504 7.08653C7.27423 7.64871 7.35369 8.24781 7.64583 8.75124L10.4167 13.5565H4.875C3.66688 13.5565 2.6875 14.5358 2.6875 15.744V20.119C2.6875 21.3271 3.66688 22.3065 4.875 22.3065H10.4167L7.64583 27.1102C7.35415 27.6135 7.27495 28.2123 7.42574 28.7741C7.57653 29.3359 7.94489 29.8145 8.44938 30.1042L12.241 32.2917C13.2873 32.8957 14.6251 32.5372 15.2292 31.491L18 26.6815L20.7708 31.4852C21.3749 32.5314 22.7127 32.8899 23.759 32.2858L27.5506 30.0983C28.5968 29.4942 28.9553 28.1564 28.3513 27.1102L25.5804 22.3065H31.125C32.3331 22.3065 33.3125 21.3271 33.3125 20.119V15.744C33.3125 14.5358 32.3331 13.5565 31.125 13.5565Z" stroke="#000000" stroke-width="2.5" stroke-linecap="round" stroke-linejoin="round"/>
</svg>
