<svg width="33" height="32" viewBox="0 0 33 32" fill="none" xmlns="http://www.w3.org/2000/svg">
<path d="M24.333 12V8.55866C24.2074 4.26413 20.6277 0.882538 16.333 1.00133C12.0383 0.882538 8.45862 4.26413 8.33301 8.55866V12" stroke="#A9A6BD" stroke-width="1.5" stroke-linecap="round" stroke-linejoin="round"/>
<path fill-rule="evenodd" clip-rule="evenodd" d="M16.333 15.0013C19.0944 15.0013 21.333 12.7628 21.333 10.0013C21.333 7.23992 19.0944 5.00134 16.333 5.00134C13.5716 5.00134 11.333 7.23992 11.333 10.0013C11.333 12.7628 13.5716 15.0013 16.333 15.0013Z" stroke="#A9A6BD" stroke-width="1.5" stroke-linecap="round" stroke-linejoin="round"/>
<path fill-rule="evenodd" clip-rule="evenodd" d="M16.333 31.0013L4.62901 27.016C3.88796 26.8322 3.35885 26.179 3.33301 25.416V16.6813C3.37865 16.1096 3.68677 15.5914 4.16723 15.2782C4.64769 14.965 5.2462 14.8923 5.78767 15.0813L16.333 18.7346V31.0013Z" stroke="#A9A6BD" stroke-width="1.5" stroke-linecap="round" stroke-linejoin="round"/>
<path fill-rule="evenodd" clip-rule="evenodd" d="M28.037 27.016L16.333 31.0013V18.7347L26.8783 15.0853C27.4198 14.8963 28.0183 14.969 28.4988 15.2822C28.9792 15.5954 29.2874 16.1136 29.333 16.6853V25.424C29.3037 26.184 28.7753 26.8331 28.037 27.016Z" stroke="#A9A6BD" stroke-width="1.5" stroke-linecap="round" stroke-linejoin="round"/>
<path d="M21.333 21.0013L24.333 20.0013" stroke="#A9A6BD" stroke-width="1.5" stroke-linecap="round" stroke-linejoin="round"/>
</svg>

