<svg width="32" height="32" viewBox="0 0 32 32" fill="none" xmlns="http://www.w3.org/2000/svg">
<path fill-rule="evenodd" clip-rule="evenodd" d="M7 23C9.20914 23 11 21.2091 11 19C11 16.7909 9.20914 15 7 15C4.79086 15 3 16.7909 3 19C3 21.2091 4.79086 23 7 23Z" stroke="url(#paint0_linear)" stroke-width="1.5" stroke-linecap="round" stroke-linejoin="round"/>
<path d="M1 31C1 27.6863 3.68629 25 7 25C10.3137 25 13 27.6863 13 31" stroke="url(#paint1_linear)" stroke-width="1.5" stroke-linecap="round" stroke-linejoin="round"/>
<path d="M28.4653 17C29.3037 18.4564 29.1424 20.2814 28.0616 21.5682C26.9808 22.8549 25.211 23.329 23.6318 22.7547C22.0525 22.1805 21.0005 20.6804 20.9987 19" stroke="url(#paint2_linear)" stroke-width="1.5" stroke-linecap="round" stroke-linejoin="round"/>
<path d="M19 31C19 27.6863 21.6863 25 25 25C28.3137 25 31 27.6863 31 31" stroke="url(#paint3_linear)" stroke-width="1.5" stroke-linecap="round" stroke-linejoin="round"/>
<path fill-rule="evenodd" clip-rule="evenodd" d="M11 13H15V19L21 13H27V1H11V13V13Z" stroke="url(#paint4_linear)" stroke-width="1.5" stroke-linecap="round" stroke-linejoin="round"/>
<path d="M15 5H23" stroke="url(#paint5_linear)" stroke-width="1.5" stroke-linecap="round" stroke-linejoin="round"/>
<path d="M15 9H23" stroke="url(#paint6_linear)" stroke-width="1.5" stroke-linecap="round" stroke-linejoin="round"/>
<defs>
<linearGradient id="paint0_linear" x1="7" y1="15" x2="7" y2="23" gradientUnits="userSpaceOnUse">
<stop stop-color="#2200FF"/>
<stop offset="1" stop-color="#9E00FF"/>
</linearGradient>
<linearGradient id="paint1_linear" x1="7" y1="25" x2="7" y2="31" gradientUnits="userSpaceOnUse">
<stop stop-color="#2200FF"/>
<stop offset="1" stop-color="#9E00FF"/>
</linearGradient>
<linearGradient id="paint2_linear" x1="24.9987" y1="17" x2="24.9987" y2="22.9957" gradientUnits="userSpaceOnUse">
<stop stop-color="#2200FF"/>
<stop offset="1" stop-color="#9E00FF"/>
</linearGradient>
<linearGradient id="paint3_linear" x1="25" y1="25" x2="25" y2="31" gradientUnits="userSpaceOnUse">
<stop stop-color="#2200FF"/>
<stop offset="1" stop-color="#9E00FF"/>
</linearGradient>
<linearGradient id="paint4_linear" x1="19" y1="1" x2="19" y2="19" gradientUnits="userSpaceOnUse">
<stop stop-color="#2200FF"/>
<stop offset="1" stop-color="#9E00FF"/>
</linearGradient>
<linearGradient id="paint5_linear" x1="19" y1="5" x2="19" y2="6.33333" gradientUnits="userSpaceOnUse">
<stop stop-color="#2200FF"/>
<stop offset="1" stop-color="#9E00FF"/>
</linearGradient>
<linearGradient id="paint6_linear" x1="19" y1="9" x2="19" y2="10.3333" gradientUnits="userSpaceOnUse">
<stop stop-color="#2200FF"/>
<stop offset="1" stop-color="#9E00FF"/>
</linearGradient>
</defs>
</svg>

