<svg width="21" height="21" viewBox="0 0 21 21" fill="none" xmlns="http://www.w3.org/2000/svg">
<path d="M8.82175 8.3125C8.08128 7.47962 7.02069 7.00216 5.90625 7H4.59375C2.41913 7 0.65625 8.76288 0.65625 10.9375C0.65625 13.1121 2.41913 14.875 4.59375 14.875H5.90625C7.02059 14.8724 8.08101 14.395 8.82175 13.5625" stroke="#000000" stroke-width="1.5" stroke-linecap="round" stroke-linejoin="round"/>
<path d="M12.1783 8.3125C12.9187 7.47953 13.9793 7.00205 15.0938 7H16.4063C18.5809 7 20.3438 8.76288 20.3438 10.9375C20.3438 13.1121 18.5809 14.875 16.4063 14.875H15.0938C13.9794 14.8726 12.9189 14.3952 12.1783 13.5625" stroke="#000000" stroke-width="1.5" stroke-linecap="round" stroke-linejoin="round"/>
<path d="M5.90625 10.9366H15.0938" stroke="#000000" stroke-width="1.5" stroke-linecap="round" stroke-linejoin="round"/>
</svg>

