<svg
  id="mentoring-soft-skills"
  xmlns="http://www.w3.org/2000/svg"
  viewBox="0 0 24 24"
>
  <defs>
    <style>
      .a {
        fill: none;
        stroke: currentColor;
        stroke-linecap: round;
        stroke-linejoin: round;
        stroke-width: 1.5px;
      }
    </style>
  </defs>
  <title>business-deal-handshake</title>
  <line class="a" x1="20.29" y1="14.34" x2="15.13" y2="15.326" />
  <path
    class="a"
    d="M14.416,8.478,10.948,9.624a1.151,1.151,0,0,1-1.405-.611,1.164,1.164,0,0,1,.529-1.53l3.359-1.689a2.343,2.343,0,0,1,1.861-.108l4.973,1.819"
  />
  <path
    class="a"
    d="M3.685,14.348H6.13l3.512,3.936A1.342,1.342,0,0,0,12,17.408v-.615l.175.07a1.656,1.656,0,0,0,2.271-1.537h.489a1.468,1.468,0,0,0,1.174-2.348L12.97,8.956"
  />
  <path
    class="a"
    d="M10.583,7.225l-.358-.295A2.1,2.1,0,0,0,8.98,6.521a2.081,2.081,0,0,0-.779.151L3.75,8.452"
  />
  <path
    class="a"
    d="M.75,6.75h2a.961.961,0,0,1,1,.916v6.417a.962.962,0,0,1-1,.917h-2"
  />
  <path
    class="a"
    d="M23.25,15h-2a.962.962,0,0,1-1-.917V7.666a.961.961,0,0,1,1-.916h2"
  />
  <line class="a" x1="12" y1="16.793" x2="11.022" y2="15.815" />
  <line class="a" x1="14.446" y1="15.326" x2="12.978" y2="13.858" />
</svg>
