<svg width="33" height="33" viewBox="0 0 33 33" fill="none" xmlns="http://www.w3.org/2000/svg">
<path fill-rule="evenodd" clip-rule="evenodd" d="M15.334 25.5C14.2294 25.5 13.334 24.6046 13.334 23.5V13.5C13.334 12.3954 14.2294 11.5 15.334 11.5H29.334C30.4386 11.5 31.334 12.3954 31.334 13.5V23.5C31.334 24.6046 30.4386 25.5 29.334 25.5H27.334V31.5L21.334 25.5H15.334Z" stroke="#000000" stroke-width="1.5" stroke-linecap="round" stroke-linejoin="round"/>
<path d="M9.33398 17.5L5.33398 21.5V15.5H3.33398C2.22941 15.5 1.33398 14.6046 1.33398 13.5V3.5C1.33398 2.39543 2.22941 1.5 3.33398 1.5H17.334C18.4386 1.5 19.334 2.39543 19.334 3.5V7.5" stroke="#000000" stroke-width="1.5" stroke-linecap="round" stroke-linejoin="round"/>
</svg>

