<svg width="18" height="17" viewBox="0 0 18 17" fill="none" xmlns="http://www.w3.org/2000/svg">
<path fill-rule="evenodd" clip-rule="evenodd" d="M8.5 13C7.94772 13 7.5 12.5523 7.5 12V7C7.5 6.44772 7.94772 6 8.5 6H15.5C16.0523 6 16.5 6.44772 16.5 7V12C16.5 12.5523 16.0523 13 15.5 13H14.5V16L11.5 13H8.5Z" stroke="#000000" stroke-width="1.5" stroke-linecap="round" stroke-linejoin="round"/>
<path d="M5.5 9L3.5 11V8H2.5C1.94772 8 1.5 7.55228 1.5 7V2C1.5 1.44772 1.94772 1 2.5 1H9.5C10.0523 1 10.5 1.44772 10.5 2V4" stroke="#000000" stroke-width="1.5" stroke-linecap="round" stroke-linejoin="round"/>
</svg>

