<svg width="32" height="32" viewBox="0 0 32 32" fill="none" xmlns="http://www.w3.org/2000/svg">
<path fill-rule="evenodd" clip-rule="evenodd" d="M16 31.0001C24.2843 31.0001 31 24.2843 31 16.0001C31 7.71579 24.2843 1.00006 16 1.00006C7.71573 1.00006 1 7.71579 1 16.0001C1 24.2843 7.71573 31.0001 16 31.0001Z" stroke="black" stroke-width="2" stroke-linecap="round" stroke-linejoin="round"/>
<path d="M11 11.5001C11.2761 11.5001 11.5 11.7239 11.5 12.0001C11.5 12.2762 11.2761 12.5001 11 12.5001C10.7239 12.5001 10.5 12.2762 10.5 12.0001C10.5 11.7239 10.7239 11.5001 11 11.5001" stroke="black" stroke-width="2" stroke-linecap="round" stroke-linejoin="round"/>
<path d="M21 11.5001C21.2761 11.5001 21.5 11.7239 21.5 12.0001C21.5 12.2762 21.2761 12.5001 21 12.5001C20.7239 12.5001 20.5 12.2762 20.5 12.0001C20.5 11.7239 20.7239 11.5001 21 11.5001" stroke="black" stroke-width="2" stroke-linecap="round" stroke-linejoin="round"/>
<path d="M10 21.0001H22" stroke="black" stroke-width="2" stroke-linecap="round" stroke-linejoin="round"/>
</svg>

