<svg width="60" height="52" viewBox="0 0 60 52" fill="none" xmlns="http://www.w3.org/2000/svg">
<path d="M30.2386 32.5807C32.3525 32.5807 34.7784 34.2875 34.7784 37.104V37.49H35.0864V37.104C35.0864 34.5209 32.9304 32.3814 30.2386 32.3814C27.5467 32.3814 25.3907 34.5209 25.3907 37.104V37.49H25.5811V37.104C25.5811 35.4178 26.1884 34.2147 27.1902 33.4709C28.1386 32.7666 29.2991 32.5807 30.2386 32.5807Z" fill="#000000" stroke="#000000" stroke-width="2"/>
<path d="M19.3845 21.3201C17.0334 21.3201 14.9806 22.8944 14.4922 25.0747H13.9681C14.4674 22.7646 16.6611 20.9529 19.3845 20.9529C22.1076 20.9529 24.3004 22.7644 24.7995 25.0747H24.2753C23.7867 22.8955 21.7345 21.3201 19.3845 21.3201Z" fill="#000000" stroke="#000000" stroke-width="2"/>
<path d="M36.1566 26.0747C36.1566 24.004 37.9525 22.3201 40.1574 22.3201C42.3639 22.3201 44.1597 24.0054 44.1597 26.0747H46.6807C46.6807 22.6985 43.7551 19.9529 40.1574 19.9529C36.5598 19.9529 33.6356 22.6985 33.6356 26.0747H36.1566Z" fill="#000000"/>
<path fill-rule="evenodd" clip-rule="evenodd" d="M50.7483 18.0436V9.90633C50.7483 7.16409 50.415 5.26143 49.7482 4.19832C49.0815 3.1352 47.6933 2.31552 45.5836 1.73925C44.9467 1.56041 44.6283 1.27228 44.6283 0.874853C44.6283 0.338327 45.3448 0.0700684 46.7778 0.0700684H48.9571C51.3255 0.0700684 53.1217 0.805297 54.3457 2.27578C55.5698 3.74625 56.1818 5.89233 56.1818 8.71406V17.2984C56.1818 19.2856 56.3957 20.8156 56.8236 21.8887C57.2515 22.9617 58.0427 23.9652 59.197 24.8992C59.5354 25.1774 59.7045 25.4059 59.7045 25.5847C59.7045 25.7636 59.5354 25.9921 59.197 26.2703C58.0227 27.2241 57.2267 28.2326 56.8087 29.2957C56.3907 30.3588 56.1818 31.8839 56.1818 33.871V42.4256C56.1818 45.2672 55.5648 47.4232 54.3308 48.8937C53.0969 50.3642 51.3056 51.0994 48.9571 51.0994H46.7778C45.8424 51.0994 45.2503 51.0547 45.0015 50.9653C44.7527 50.8759 44.6283 50.6523 44.6283 50.2946C44.6283 49.7978 44.9567 49.47 45.6135 49.311L46.8076 49.0427C49.4348 48.4466 50.7483 45.8534 50.7483 41.2631V33.1259C50.7483 30.0458 51.4947 27.8699 52.9874 26.5982L53.5546 26.1213C53.8333 25.8828 53.9726 25.704 53.9726 25.5847C53.9726 25.4456 53.8333 25.2668 53.5546 25.0482L52.9874 24.5713C51.4947 23.2995 50.7483 21.1237 50.7483 18.0436Z" fill="#000000"/>
<path fill-rule="evenodd" clip-rule="evenodd" d="M9.35615 17.9735V9.83626C9.35615 7.09402 9.68951 5.19137 10.3563 4.12825C11.023 3.06513 12.4112 2.24545 14.5209 1.66918C15.1578 1.49034 15.4762 1.20221 15.4762 0.804785C15.4762 0.268259 14.7597 0 13.3267 0H11.1474C8.77896 0 6.98277 0.735228 5.75875 2.20571C4.53474 3.67619 3.92274 5.82226 3.92274 8.64399V17.2284C3.92274 19.2155 3.70879 20.7456 3.28088 21.8186C2.85297 22.8917 2.06185 23.8952 0.907495 24.8291C0.569148 25.1073 0.399979 25.3358 0.399979 25.5147C0.399979 25.6935 0.569148 25.922 0.907495 26.2002C2.08175 27.154 2.87785 28.1625 3.29581 29.2256C3.71376 30.2887 3.92274 31.8138 3.92274 33.801V42.3555C3.92274 45.1971 4.53971 47.3531 5.77368 48.8236C7.00765 50.2941 8.79886 51.0293 11.1474 51.0293H13.3267C14.2621 51.0293 14.8542 50.9846 15.103 50.8952C15.3518 50.8058 15.4762 50.5822 15.4762 50.2246C15.4762 49.7278 15.1478 49.3999 14.491 49.2409L13.2969 48.9727C10.6697 48.3765 9.35615 45.7834 9.35615 41.1931V33.0558C9.35615 29.9757 8.60981 27.7999 7.1171 26.5281L6.54988 26.0512C6.27124 25.8127 6.13193 25.6339 6.13193 25.5147C6.13193 25.3756 6.27124 25.1967 6.54988 24.9781L7.1171 24.5012C8.60981 23.2295 9.35615 21.0536 9.35615 17.9735Z" fill="#000000"/>
</svg>

