<svg width="64" height="64" viewBox="0 0 64 64" fill="none" xmlns="http://www.w3.org/2000/svg">
<g clip-path="url(#clip0)">
<path d="M32.2386 38.5807C34.3525 38.5807 36.7784 40.2875 36.7784 43.104V43.49H37.0864V43.104C37.0864 40.5209 34.9304 38.3814 32.2386 38.3814C29.5467 38.3814 27.3907 40.5209 27.3907 43.104V43.49H27.5811V43.104C27.5811 41.4178 28.1884 40.2147 29.1902 39.4709C30.1386 38.7666 31.2991 38.5807 32.2386 38.5807Z" fill="#000000" stroke="#000000" stroke-width="2"/>
<path d="M21.3845 27.3201C19.0334 27.3201 16.9806 28.8944 16.4922 31.0747H15.9681C16.4674 28.7646 18.6611 26.9529 21.3845 26.9529C24.1076 26.9529 26.3004 28.7644 26.7995 31.0747H26.2753C25.7867 28.8955 23.7345 27.3201 21.3845 27.3201Z" fill="#000000" stroke="#000000" stroke-width="2"/>
<path d="M38.1566 32.0747C38.1566 30.004 39.9525 28.3201 42.1574 28.3201C44.3639 28.3201 46.1597 30.0054 46.1597 32.0747H48.6807C48.6807 28.6985 45.7551 25.9529 42.1574 25.9529C38.5598 25.9529 35.6356 28.6985 35.6356 32.0747H38.1566Z" fill="#000000"/>
<path fill-rule="evenodd" clip-rule="evenodd" d="M52.7483 24.0436V15.9063C52.7483 13.1641 52.415 11.2614 51.7482 10.1983C51.0815 9.1352 49.6933 8.31552 47.5836 7.73925C46.9467 7.56041 46.6283 7.27228 46.6283 6.87485C46.6283 6.33833 47.3448 6.07007 48.7778 6.07007H50.9571C53.3255 6.07007 55.1217 6.8053 56.3457 8.27578C57.5698 9.74625 58.1818 11.8923 58.1818 14.7141V23.2984C58.1818 25.2856 58.3957 26.8156 58.8236 27.8887C59.2515 28.9617 60.0427 29.9652 61.197 30.8992C61.5354 31.1774 61.7045 31.4059 61.7045 31.5847C61.7045 31.7636 61.5354 31.9921 61.197 32.2703C60.0227 33.2241 59.2267 34.2326 58.8087 35.2957C58.3907 36.3588 58.1818 37.8839 58.1818 39.871V48.4256C58.1818 51.2672 57.5648 53.4232 56.3308 54.8937C55.0969 56.3642 53.3056 57.0994 50.9571 57.0994H48.7778C47.8424 57.0994 47.2503 57.0547 47.0015 56.9653C46.7527 56.8759 46.6283 56.6523 46.6283 56.2946C46.6283 55.7978 46.9567 55.47 47.6135 55.311L48.8076 55.0427C51.4348 54.4466 52.7483 51.8534 52.7483 47.2631V39.1259C52.7483 36.0458 53.4947 33.8699 54.9874 32.5982L55.5546 32.1213C55.8333 31.8828 55.9726 31.704 55.9726 31.5847C55.9726 31.4456 55.8333 31.2668 55.5546 31.0482L54.9874 30.5713C53.4947 29.2995 52.7483 27.1237 52.7483 24.0436Z" fill="#000000"/>
<path fill-rule="evenodd" clip-rule="evenodd" d="M11.3561 23.9735V15.8363C11.3561 13.094 11.6895 11.1914 12.3563 10.1282C13.023 9.06513 14.4112 8.24545 16.5209 7.66918C17.1578 7.49034 17.4762 7.20221 17.4762 6.80479C17.4762 6.26826 16.7597 6 15.3267 6H13.1474C10.779 6 8.98277 6.73523 7.75875 8.20571C6.53474 9.67619 5.92274 11.8223 5.92274 14.644V23.2284C5.92274 25.2155 5.70879 26.7456 5.28088 27.8186C4.85297 28.8917 4.06185 29.8952 2.90749 30.8291C2.56915 31.1073 2.39998 31.3358 2.39998 31.5147C2.39998 31.6935 2.56915 31.922 2.90749 32.2002C4.08175 33.154 4.87785 34.1625 5.29581 35.2256C5.71376 36.2887 5.92274 37.8138 5.92274 39.801V48.3555C5.92274 51.1971 6.53971 53.3531 7.77368 54.8236C9.00765 56.2941 10.7989 57.0293 13.1474 57.0293H15.3267C16.2621 57.0293 16.8542 56.9846 17.103 56.8952C17.3518 56.8058 17.4762 56.5822 17.4762 56.2246C17.4762 55.7278 17.1478 55.3999 16.491 55.2409L15.2969 54.9727C12.6697 54.3765 11.3561 51.7834 11.3561 47.1931V39.0558C11.3561 35.9757 10.6098 33.7999 9.1171 32.5281L8.54988 32.0512C8.27124 31.8127 8.13193 31.6339 8.13193 31.5147C8.13193 31.3756 8.27124 31.1967 8.54988 30.9781L9.1171 30.5012C10.6098 29.2295 11.3561 27.0536 11.3561 23.9735Z" fill="#000000"/>
</g>
<defs>
<clipPath id="clip0">
<rect width="59.3346" height="51.2" fill="white" transform="translate(2.40002 6)"/>
</clipPath>
</defs>
</svg>

