<svg
  id="sample-exercise-rocket"
  viewBox="0 0 118 118"
  fill="none"
  xmlns="http://www.w3.org/2000/svg"
>
  <path
    d="M7.79053 64.441C7.79053 76.9592 12.7634 88.9647 21.6151 97.8164C30.4668 106.668 42.4723 111.641 54.9905 111.641C67.5087 111.641 79.5142 106.668 88.366 97.8164C97.2177 88.9647 102.191 76.9592 102.191 64.441C102.191 51.9228 97.2177 39.9173 88.366 31.0656C79.5142 22.2138 67.5087 17.241 54.9905 17.241C42.4723 17.241 30.4668 22.2138 21.6151 31.0656C12.7634 39.9173 7.79053 51.9228 7.79053 64.441Z"
    fill="#E0E4FE"
  />
  <path
    d="M56.0939 27.0279C56.1932 26.5966 56.4119 26.2019 56.7249 25.8889C57.0379 25.5759 57.4326 25.3573 57.8639 25.2579L61.4145 24.4319C61.4794 24.4168 61.5373 24.3802 61.5787 24.328C61.6201 24.2759 61.6427 24.2112 61.6427 24.1446C61.6427 24.078 61.6201 24.0133 61.5787 23.9611C61.5373 23.909 61.4794 23.8724 61.4145 23.8573L57.8639 23.0383C57.4326 22.939 57.0379 22.7203 56.7249 22.4073C56.4119 22.0944 56.1932 21.6997 56.0939 21.2683L55.275 17.7201C55.2599 17.6552 55.2233 17.5973 55.1711 17.5559C55.1189 17.5145 55.0543 17.4919 54.9876 17.4919C54.921 17.4919 54.8564 17.5145 54.8042 17.5559C54.752 17.5973 54.7154 17.6552 54.7003 17.7201L53.8814 21.2683C53.782 21.6997 53.5634 22.0944 53.2504 22.4073C52.9374 22.7203 52.5427 22.939 52.1114 23.0383L48.5631 23.8573C48.4982 23.8724 48.4404 23.909 48.3989 23.9611C48.3575 24.0133 48.335 24.078 48.335 24.1446C48.335 24.2112 48.3575 24.2759 48.3989 24.328C48.4404 24.3802 48.4982 24.4168 48.5631 24.4319L52.1114 25.2508C52.5427 25.3502 52.9374 25.5689 53.2504 25.8818C53.5634 26.1948 53.782 26.5895 53.8814 27.0208L54.7003 30.5703C54.7154 30.6352 54.752 30.693 54.8042 30.7345C54.8564 30.7759 54.921 30.7984 54.9876 30.7984C55.0543 30.7984 55.1189 30.7759 55.1711 30.7345C55.2233 30.693 55.2599 30.6352 55.275 30.5703L56.0939 27.0279Z"
    fill="#FFDF3D"
    stroke="#45413C"
    stroke-width="1.4"
    stroke-linecap="round"
    stroke-linejoin="round"
  />
  <path
    d="M94.1986 81.1014C94.3438 80.4733 94.6625 79.8987 95.1183 79.4428C95.5741 78.987 96.1488 78.6683 96.7769 78.5231L101.952 77.329C102.047 77.3074 102.132 77.2542 102.193 77.1781C102.254 77.102 102.287 77.0075 102.287 76.9101C102.287 76.8126 102.254 76.7181 102.193 76.642C102.132 76.5659 102.047 76.5127 101.952 76.4912L96.7769 75.297C96.1488 75.1523 95.574 74.8339 95.1181 74.3782C94.6622 73.9226 94.3436 73.3479 94.1986 72.7199L93.0045 67.5479C92.9829 67.4529 92.9297 67.3681 92.8536 67.3073C92.7775 67.2465 92.683 67.2133 92.5855 67.2133C92.4881 67.2133 92.3936 67.2465 92.3175 67.3073C92.2414 67.3681 92.1882 67.4529 92.1667 67.5479L90.9784 72.7199C90.8332 73.348 90.5145 73.9227 90.0587 74.3785C89.6029 74.8343 89.0282 75.153 88.4001 75.2982L83.2281 76.4912C83.1331 76.5127 83.0483 76.5659 82.9875 76.642C82.9267 76.7181 82.8936 76.8126 82.8936 76.9101C82.8936 77.0075 82.9267 77.102 82.9875 77.1781C83.0483 77.2542 83.1331 77.3074 83.2281 77.329L88.4001 78.5231C89.0282 78.6683 89.6029 78.987 90.0587 79.4428C90.5145 79.8987 90.8332 80.4733 90.9784 81.1014L92.1714 86.2757C92.1929 86.3707 92.2461 86.4556 92.3222 86.5164C92.3983 86.5772 92.4929 86.6103 92.5903 86.6103C92.6877 86.6103 92.7822 86.5772 92.8583 86.5164C92.9345 86.4556 92.9876 86.3707 93.0092 86.2757L94.1986 81.1014Z"
    fill="#FFDF3D"
    stroke="#45413C"
    stroke-width="1.4"
    stroke-linecap="round"
    stroke-linejoin="round"
  />
  <path
    d="M20.8982 51.9519C20.9767 51.6124 21.1489 51.3018 21.3953 51.0554C21.6417 50.8091 21.9523 50.6368 22.2917 50.5583L25.0883 49.9128C25.1374 49.8985 25.1804 49.8687 25.2111 49.8279C25.2417 49.787 25.2583 49.7373 25.2583 49.6863C25.2583 49.6352 25.2417 49.5855 25.2111 49.5447C25.1804 49.5038 25.1374 49.474 25.0883 49.4597L22.2917 48.8154C21.9522 48.737 21.6416 48.5648 21.3952 48.3184C21.1488 48.072 20.9766 47.7614 20.8982 47.4219L20.2527 44.6264C20.2384 44.5774 20.2086 44.5344 20.1677 44.5037C20.1269 44.4731 20.0772 44.4565 20.0261 44.4565C19.9751 44.4565 19.9254 44.4731 19.8845 44.5037C19.8437 44.5344 19.8139 44.5774 19.7996 44.6264L19.1553 47.4219C19.0768 47.7613 18.9045 48.0719 18.6582 48.3183C18.4118 48.5646 18.1012 48.7369 17.7617 48.8154L14.9663 49.4597C14.9173 49.474 14.8742 49.5038 14.8436 49.5447C14.8129 49.5855 14.7964 49.6352 14.7964 49.6863C14.7964 49.7373 14.8129 49.787 14.8436 49.8279C14.8742 49.8687 14.9173 49.8985 14.9663 49.9128L17.7617 50.5583C18.1012 50.6368 18.4118 50.8091 18.6582 51.0554C18.9045 51.3018 19.0768 51.6124 19.1553 51.9519L19.7996 54.7485C19.8139 54.7975 19.8437 54.8406 19.8845 54.8712C19.9254 54.9018 19.9751 54.9184 20.0261 54.9184C20.0772 54.9184 20.1269 54.9018 20.1677 54.8712C20.2086 54.8406 20.2384 54.7975 20.2527 54.7485L20.8982 51.9519Z"
    fill="#FFDF3D"
    stroke="#45413C"
    stroke-width="1.4"
    stroke-linecap="round"
    stroke-linejoin="round"
  />
  <path
    d="M44.3763 78.588L37.9961 72.1936C34.9272 73.341 32.1094 75.0717 29.6983 77.29C27.1707 79.8164 24.7022 87.7472 23.6449 91.4795C23.6058 91.6773 23.616 91.8816 23.6746 92.0745C23.7332 92.2673 23.8385 92.4428 23.981 92.5853C24.1236 92.7279 24.299 92.8331 24.4919 92.8917C24.6848 92.9504 24.8891 92.9606 25.0869 92.9215C28.8192 91.8654 36.75 89.4004 39.2787 86.874C41.4963 84.4665 43.2273 81.6529 44.3763 78.588Z"
    fill="#FFF48C"
    stroke="#45413C"
    stroke-width="1.4"
    stroke-linecap="round"
    stroke-linejoin="round"
  />
  <path
    d="M41.9809 76.1867C41.9809 76.1867 39.5147 82.6401 34.1138 83.8838C33.9199 83.91 33.7226 83.891 33.5373 83.8284C33.352 83.7657 33.1837 83.6611 33.0455 83.5226C32.9072 83.3842 32.8029 83.2157 32.7405 83.0303C32.6782 82.8448 32.6595 82.6475 32.686 82.4537C33.9321 77.0528 40.3867 74.589 40.3867 74.589L41.9809 76.1867Z"
    fill="#FFE500"
    stroke="#45413C"
    stroke-width="1.4"
    stroke-linecap="round"
    stroke-linejoin="round"
  />
  <path
    d="M50.1252 89.1018L45.5103 84.488C43.2942 85.3174 41.2595 86.5675 39.5182 88.1696C37.6916 89.9962 35.9074 95.7216 35.144 98.4238C35.1156 98.5667 35.1228 98.7144 35.1651 98.8539C35.2074 98.9933 35.2835 99.1202 35.3865 99.2232C35.4895 99.3262 35.6164 99.4023 35.7558 99.4446C35.8953 99.4869 36.043 99.4942 36.1859 99.4657C38.8834 98.7035 44.6146 96.9217 46.4413 95.0998C48.045 93.357 49.296 91.3202 50.1252 89.1018Z"
    fill="#FFF48C"
    stroke="#45413C"
    stroke-width="1.4"
    stroke-linecap="round"
    stroke-linejoin="round"
  />
  <path
    d="M48.3943 87.3708C48.3943 87.3708 46.6102 92.04 42.7091 92.9321C42.5689 92.9513 42.4261 92.9377 42.292 92.8926C42.158 92.8474 42.0361 92.7718 41.9361 92.6716C41.8361 92.5715 41.7607 92.4496 41.7156 92.3155C41.6706 92.1813 41.6572 92.0386 41.6766 91.8984C42.5769 87.9962 47.2403 86.2155 47.2403 86.2155L48.3943 87.3708Z"
    fill="#FFE500"
    stroke="#45413C"
    stroke-width="1.4"
    stroke-linecap="round"
    stroke-linejoin="round"
  />
  <path
    d="M32.0856 71.062L27.4706 66.4446C25.2545 67.274 23.2198 68.5242 21.4785 70.1262C19.6519 71.9517 17.8678 77.6783 17.1031 80.3805C17.075 80.5233 17.0825 80.6709 17.1249 80.8102C17.1673 80.9495 17.2434 81.0762 17.3463 81.1792C17.4493 81.2821 17.576 81.3582 17.7153 81.4006C17.8546 81.443 18.0022 81.4505 18.145 81.4224C20.8425 80.6589 26.575 78.8783 28.4016 77.0564C30.0049 75.3147 31.2559 73.2791 32.0856 71.062Z"
    fill="#FFF48C"
    stroke="#45413C"
    stroke-width="1.4"
    stroke-linecap="round"
    stroke-linejoin="round"
  />
  <path
    d="M30.3543 69.3297C30.3543 69.3297 28.5725 73.9943 24.6691 74.8923C24.5288 74.9114 24.3861 74.8978 24.2519 74.8526C24.1178 74.8075 23.9959 74.7319 23.8958 74.6318C23.7958 74.5317 23.7202 74.4098 23.675 74.2757C23.6298 74.1416 23.6162 73.9988 23.6354 73.8586C24.5357 69.9551 29.2003 68.1757 29.2003 68.1757L30.3543 69.3297Z"
    fill="#FFE500"
    stroke="#45413C"
    stroke-width="1.4"
    stroke-linecap="round"
    stroke-linejoin="round"
  />
  <path
    d="M26.4698 66.4777C26.3408 66.3497 26.2467 66.1907 26.1967 66.0159C26.1467 65.8411 26.1424 65.6564 26.1842 65.4795C26.226 65.3026 26.3125 65.1394 26.4355 65.0055C26.5584 64.8716 26.7137 64.7715 26.8864 64.7148L31.2701 63.2551L35.2821 67.2671L33.8224 71.6461C33.7658 71.819 33.6657 71.9745 33.5317 72.0976C33.3977 72.2207 33.2343 72.3074 33.0572 72.3492C32.8801 72.391 32.6952 72.3866 32.5203 72.3364C32.3454 72.2862 32.1863 72.192 32.0583 72.0626L26.4698 66.4777Z"
    fill="#87898C"
  />
  <path
    d="M33.2689 65.2599L31.2629 63.2539L26.8839 64.7136C26.7112 64.7703 26.556 64.8704 26.433 65.0043C26.3101 65.1382 26.2236 65.3014 26.1818 65.4783C26.14 65.6552 26.1443 65.8399 26.1943 66.0147C26.2443 66.1895 26.3383 66.3485 26.4674 66.4765L29.264 69.266L33.2689 65.2599Z"
    fill="#BDBEC0"
  />
  <path
    d="M31.27 59.2455C31.0059 59.5086 30.7965 59.8212 30.6535 60.1654C30.5106 60.5097 30.437 60.8787 30.437 61.2515C30.437 61.6242 30.5106 61.9933 30.6535 62.3375C30.7965 62.6817 31.0059 62.9944 31.27 63.2575L35.282 67.2695C35.5451 67.5335 35.8577 67.743 36.2019 67.8859C36.5462 68.0288 36.9152 68.1024 37.288 68.1024C37.6607 68.1024 38.0298 68.0288 38.374 67.8859C38.7182 67.743 39.0309 67.5335 39.294 67.2695L62.3642 44.1828L54.3401 36.1647L31.27 59.2455Z"
    fill="#F0F0F0"
  />
  <path
    d="M58.3545 40.1731L54.3425 36.1611L31.27 59.2455C31.0059 59.5086 30.7965 59.8212 30.6535 60.1654C30.5106 60.5097 30.437 60.8787 30.437 61.2515C30.437 61.6242 30.5106 61.9932 30.6535 62.3375C30.7965 62.6817 31.0059 62.9944 31.27 63.2575L33.276 65.2635L58.3545 40.1731Z"
    fill="white"
  />
  <path
    d="M65.3724 33.158C64.3694 32.1562 58.3561 32.1562 54.3477 36.1647L62.3717 44.1828C66.373 40.1731 66.373 34.1598 65.3724 33.158Z"
    fill="#F0F0F0"
  />
  <path
    d="M65.3724 33.158C64.3694 32.1562 58.3561 32.1562 54.3477 36.1647L58.3597 40.1767L65.3724 33.158Z"
    fill="white"
  />
  <path
    d="M31.27 59.2455C31.0059 59.5086 30.7965 59.8212 30.6535 60.1654C30.5106 60.5097 30.437 60.8787 30.437 61.2515C30.437 61.6242 30.5106 61.9933 30.6535 62.3375C30.7965 62.6817 31.0059 62.9944 31.27 63.2575L35.282 67.2695C35.5451 67.5335 35.8577 67.743 36.2019 67.8859C36.5462 68.0288 36.9152 68.1024 37.288 68.1024C37.6607 68.1024 38.0298 68.0288 38.374 67.8859C38.7182 67.743 39.0309 67.5335 39.294 67.2695L62.3642 44.1828L54.3401 36.1647L31.27 59.2455Z"
    stroke="#45413C"
    stroke-width="1.4"
    stroke-linecap="round"
    stroke-linejoin="round"
  />
  <path
    d="M65.3724 33.158C64.3694 32.1562 58.3561 32.1562 54.3477 36.1647L62.3717 44.1828C66.373 40.1731 66.373 34.1598 65.3724 33.158Z"
    stroke="#45413C"
    stroke-width="1.4"
    stroke-linecap="round"
    stroke-linejoin="round"
  />
  <path
    d="M26.4698 66.4777C26.3408 66.3497 26.2467 66.1907 26.1967 66.0159C26.1467 65.8411 26.1424 65.6564 26.1842 65.4795C26.226 65.3026 26.3125 65.1394 26.4355 65.0055C26.5584 64.8716 26.7137 64.7715 26.8864 64.7148L31.2701 63.2551L35.2821 67.2671L33.8224 71.6461C33.7658 71.819 33.6657 71.9745 33.5317 72.0976C33.3977 72.2207 33.2343 72.3074 33.0572 72.3492C32.8801 72.391 32.6952 72.3866 32.5203 72.3364C32.3454 72.2862 32.1863 72.192 32.0583 72.0626L26.4698 66.4777Z"
    stroke="#45413C"
    stroke-width="1.4"
    stroke-linecap="round"
    stroke-linejoin="round"
  />
  <path
    d="M44.5099 84.5187C44.3791 84.3908 44.2836 84.2313 44.2326 84.0557C44.1816 83.88 44.1768 83.6942 44.2187 83.5161C44.2606 83.3381 44.3477 83.1739 44.4717 83.0394C44.5957 82.905 44.7524 82.8048 44.9264 82.7487L49.3054 81.289L53.3174 85.301L51.8542 89.68C51.7974 89.8526 51.6971 90.0078 51.5632 90.1306C51.4292 90.2534 51.266 90.3398 51.0891 90.3814C50.9122 90.4231 50.7276 90.4187 50.5529 90.3686C50.3782 90.3185 50.2192 90.2244 50.0913 90.0954L44.5099 84.5187Z"
    fill="#87898C"
  />
  <path
    d="M53.3139 85.3046L51.3079 83.2986L47.2959 87.3106L50.0866 90.1001C50.2148 90.2302 50.3743 90.3251 50.5499 90.3756C50.7255 90.426 50.9111 90.4303 51.0888 90.3881C51.2665 90.3459 51.4303 90.2585 51.5644 90.1345C51.6985 90.0104 51.7983 89.8539 51.8542 89.68L53.3139 85.3046Z"
    fill="#656769"
  />
  <path
    d="M49.3051 77.29C49.0411 77.5531 48.8316 77.8657 48.6887 78.21C48.5457 78.5542 48.4722 78.9233 48.4722 79.296C48.4722 79.6687 48.5457 80.0378 48.6887 80.382C48.8316 80.7263 49.0411 81.0389 49.3051 81.302L53.3171 85.314C53.5802 85.578 53.8929 85.7875 54.2371 85.9305C54.5813 86.0734 54.9504 86.147 55.3231 86.147C55.6959 86.147 56.0649 86.0734 56.4092 85.9305C56.7534 85.7875 57.066 85.578 57.3291 85.314L80.404 62.2226L72.3859 54.1986L49.3051 77.29Z"
    fill="#F0F0F0"
  />
  <path
    d="M51.3101 83.2998L53.3161 85.3058C53.5792 85.5698 53.8918 85.7793 54.236 85.9222C54.5803 86.0651 54.9493 86.1387 55.3221 86.1387C55.6948 86.1387 56.0639 86.0651 56.4081 85.9222C56.7523 85.7793 57.065 85.5698 57.3281 85.3058L80.4041 62.2226L76.3921 58.2106L51.3101 83.2998Z"
    fill="#BDBEC0"
  />
  <path
    d="M83.411 51.1978C82.4091 50.196 76.3959 50.196 72.3862 54.2045L80.4043 62.2285C84.414 58.2141 84.414 52.2008 83.411 51.1978Z"
    fill="#F0F0F0"
  />
  <path
    d="M76.3955 58.2141L80.4075 62.2261C84.4195 58.2141 84.4195 52.2044 83.4141 51.2014L76.3955 58.2141Z"
    fill="#BDBEC0"
  />
  <path
    d="M49.3051 77.29C49.0411 77.5531 48.8316 77.8657 48.6887 78.21C48.5457 78.5542 48.4722 78.9233 48.4722 79.296C48.4722 79.6687 48.5457 80.0378 48.6887 80.382C48.8316 80.7263 49.0411 81.0389 49.3051 81.302L53.3171 85.314C53.5802 85.578 53.8929 85.7875 54.2371 85.9305C54.5813 86.0734 54.9504 86.147 55.3231 86.147C55.6959 86.147 56.0649 86.0734 56.4092 85.9305C56.7534 85.7875 57.066 85.578 57.3291 85.314L80.404 62.2226L72.3859 54.1986L49.3051 77.29Z"
    stroke="#45413C"
    stroke-width="1.4"
    stroke-linecap="round"
    stroke-linejoin="round"
  />
  <path
    d="M83.411 51.1978C82.4091 50.196 76.3959 50.196 72.3862 54.2045L80.4043 62.2285C84.414 58.2141 84.414 52.2008 83.411 51.1978Z"
    stroke="#45413C"
    stroke-width="1.4"
    stroke-linecap="round"
    stroke-linejoin="round"
  />
  <path
    d="M44.5099 84.5187C44.3791 84.3908 44.2836 84.2313 44.2326 84.0557C44.1816 83.88 44.1768 83.6942 44.2187 83.5161C44.2606 83.3381 44.3477 83.1739 44.4717 83.0394C44.5957 82.905 44.7524 82.8048 44.9264 82.7487L49.3054 81.289L53.3174 85.301L51.8542 89.68C51.7974 89.8526 51.6971 90.0078 51.5632 90.1306C51.4292 90.2534 51.266 90.3398 51.0891 90.3814C50.9122 90.4231 50.7276 90.4187 50.5529 90.3686C50.3782 90.3185 50.2192 90.2244 50.0913 90.0954L44.5099 84.5187Z"
    stroke="#45413C"
    stroke-width="1.4"
    stroke-linecap="round"
    stroke-linejoin="round"
  />
  <path
    d="M34.4879 74.4958C34.3588 74.3678 34.2648 74.2087 34.2148 74.034C34.1648 73.8592 34.1605 73.6745 34.2023 73.4976C34.2441 73.3207 34.3306 73.1575 34.4535 73.0236C34.5765 72.8897 34.7317 72.7896 34.9044 72.7329L39.2822 71.272L45.3002 77.29L43.8406 81.669C43.7839 81.8417 43.6838 81.997 43.5498 82.1199C43.4159 82.2428 43.2527 82.3293 43.0758 82.3711C42.8989 82.4129 42.7142 82.4086 42.5395 82.3586C42.3647 82.3086 42.2057 82.2146 42.0777 82.0855L34.4879 74.4958Z"
    fill="#87898C"
  />
  <path
    d="M42.2892 74.2798L39.2825 71.272L34.9035 72.7317C34.7309 72.7885 34.5758 72.8887 34.453 73.0227C34.3302 73.1567 34.2438 73.3199 34.2021 73.4968C34.1605 73.6737 34.1649 73.8583 34.215 74.033C34.265 74.2077 34.3591 74.3667 34.4882 74.4946L38.2807 78.2871L42.2892 74.2798Z"
    fill="#BDBEC0"
  />
  <path
    d="M34.4879 74.4958C34.3588 74.3678 34.2648 74.2087 34.2148 74.034C34.1648 73.8592 34.1605 73.6745 34.2023 73.4976C34.2441 73.3207 34.3306 73.1575 34.4535 73.0236C34.5765 72.8897 34.7317 72.7896 34.9044 72.7329L39.2822 71.272L45.3002 77.29L43.8406 81.669C43.7839 81.8417 43.6838 81.997 43.5498 82.1199C43.4159 82.2428 43.2527 82.3293 43.0758 82.3711C42.8989 82.4129 42.7142 82.4086 42.5395 82.3586C42.3647 82.3086 42.2057 82.2146 42.0777 82.0855L34.4879 74.4958Z"
    stroke="#45413C"
    stroke-width="1.4"
    stroke-linecap="round"
    stroke-linejoin="round"
  />
  <path
    d="M91.1045 11.4332L105.138 25.4646C108.145 22.4579 112.155 10.4314 109.15 7.42475C106.146 4.41811 94.1111 8.42657 91.1045 11.4332Z"
    fill="#F0F0F0"
  />
  <path
    d="M109.15 7.4234C106.144 4.41676 94.116 8.4264 91.1094 11.4354L98.1257 18.4505L109.15 7.4234Z"
    fill="white"
  />
  <path
    d="M91.1045 11.4332L105.138 25.4646C108.145 22.4579 112.155 10.4314 109.15 7.42475C106.146 4.41811 94.1111 8.42657 91.1045 11.4332Z"
    stroke="#45413C"
    stroke-width="1.4"
    stroke-linecap="round"
    stroke-linejoin="round"
  />
  <path
    d="M34.4879 74.4958C34.3588 74.3678 34.2648 74.2087 34.2148 74.034C34.1648 73.8592 34.1605 73.6745 34.2023 73.4976C34.2441 73.3207 34.3306 73.1575 34.4535 73.0236C34.5765 72.8897 34.7317 72.7896 34.9044 72.7329L39.2822 71.272L45.3002 77.29L43.8406 81.669C43.7839 81.8417 43.6838 81.997 43.5498 82.1199C43.4159 82.2428 43.2527 82.3293 43.0758 82.3711C42.8989 82.4129 42.7142 82.4086 42.5395 82.3586C42.3647 82.3086 42.2057 82.2146 42.0777 82.0855L34.4879 74.4958Z"
    stroke="#45413C"
    stroke-width="1.4"
    stroke-linecap="round"
    stroke-linejoin="round"
  />
  <path
    d="M33.2288 57.2819L41.2458 65.3059L39.2822 67.26C39.0191 67.524 38.7065 67.7335 38.3623 67.8765C38.018 68.0194 37.649 68.093 37.2762 68.093C36.9035 68.093 36.5344 68.0194 36.1902 67.8765C35.846 67.7335 35.5333 67.524 35.2702 67.26L31.2582 63.248C30.9942 62.9849 30.7847 62.6723 30.6418 62.328C30.4989 61.9838 30.4253 61.6148 30.4253 61.242C30.4253 60.8693 30.4989 60.5002 30.6418 60.156C30.7847 59.8118 30.9942 59.4991 31.2582 59.236L33.2288 57.2819Z"
    fill="#87898C"
  />
  <path
    d="M37.2372 61.2916L33.2252 57.2796L31.27 59.2455C31.0059 59.5086 30.7965 59.8212 30.6535 60.1654C30.5106 60.5097 30.437 60.8787 30.437 61.2514C30.437 61.6242 30.5106 61.9932 30.6535 62.3375C30.7965 62.6817 31.0059 62.9943 31.27 63.2574L33.276 65.2634L37.2372 61.2916Z"
    fill="#BDBEC0"
  />
  <path
    d="M33.2288 57.2819L41.2458 65.3059L39.2822 67.26C39.0191 67.524 38.7065 67.7335 38.3623 67.8765C38.018 68.0194 37.649 68.093 37.2762 68.093C36.9035 68.093 36.5344 68.0194 36.1902 67.8765C35.846 67.7335 35.5333 67.524 35.2702 67.26L31.2582 63.248C30.9942 62.9849 30.7847 62.6723 30.6418 62.328C30.4989 61.9838 30.4253 61.6148 30.4253 61.242C30.4253 60.8693 30.4989 60.5002 30.6418 60.156C30.7847 59.8118 30.9942 59.4991 31.2582 59.236L33.2288 57.2819Z"
    stroke="#45413C"
    stroke-width="1.4"
    stroke-linecap="round"
    stroke-linejoin="round"
  />
  <path
    d="M51.2688 75.323L59.2929 83.347L57.3281 85.3105C57.065 85.5745 56.7524 85.784 56.4082 85.9269C56.0639 86.0699 55.6949 86.1434 55.3221 86.1434C54.9494 86.1434 54.5804 86.0699 54.2361 85.9269C53.8919 85.784 53.5792 85.5745 53.3161 85.3105L49.3041 81.2985C49.0401 81.0354 48.8306 80.7228 48.6877 80.3785C48.5448 80.0343 48.4712 79.6652 48.4712 79.2925C48.4712 78.9198 48.5448 78.5507 48.6877 78.2065C48.8306 77.8622 49.0401 77.5496 49.3041 77.2865L51.2688 75.323Z"
    fill="#87898C"
  />
  <path
    d="M51.3101 83.2998L53.3161 85.3058C53.5792 85.5698 53.8918 85.7793 54.236 85.9222C54.5803 86.0651 54.9493 86.1387 55.3221 86.1387C55.6948 86.1387 56.0638 86.0651 56.4081 85.9222C56.7523 85.7793 57.065 85.5698 57.3281 85.3058L59.2928 83.3422L55.2808 79.3302L51.3101 83.2998Z"
    fill="#656769"
  />
  <path
    d="M51.2688 75.323L59.2929 83.347L57.3281 85.3105C57.065 85.5745 56.7524 85.784 56.4082 85.9269C56.0639 86.0699 55.6949 86.1434 55.3221 86.1434C54.9494 86.1434 54.5804 86.0699 54.2361 85.9269C53.8919 85.784 53.5792 85.5745 53.3161 85.3105L49.3041 81.2985C49.0401 81.0354 48.8306 80.7228 48.6877 80.3785C48.5448 80.0343 48.4712 79.6652 48.4712 79.2925C48.4712 78.9198 48.5448 78.5507 48.6877 78.2065C48.8306 77.8622 49.0401 77.5496 49.3041 77.2865L51.2688 75.323Z"
    stroke="#45413C"
    stroke-width="1.4"
    stroke-linecap="round"
    stroke-linejoin="round"
  />
  <path
    d="M91.1042 11.433L105.138 25.4644L95.3687 35.2336C94.0511 36.5519 92.4443 37.545 90.6759 38.1341L90.0399 38.3465C88.2719 38.9358 86.6652 39.9284 85.347 41.2457L49.3051 77.29C49.042 77.554 48.7294 77.7635 48.3851 77.9065C48.0409 78.0494 47.6718 78.123 47.2991 78.123C46.9264 78.123 46.5573 78.0494 46.2131 77.9065C45.8688 77.7635 45.5562 77.554 45.2931 77.29L39.2822 71.272C39.0182 71.0089 38.8087 70.6963 38.6657 70.3521C38.5228 70.0078 38.4492 69.6388 38.4492 69.266C38.4492 68.8933 38.5228 68.5242 38.6657 68.18C38.8087 67.8358 39.0182 67.5231 39.2822 67.26L75.3229 31.224C76.6409 29.9063 77.6335 28.2995 78.2222 26.5311L78.4346 25.8951C79.0244 24.1271 80.0174 22.5205 81.335 21.2023L91.1042 11.433Z"
    fill="#F0F0F0"
  />
  <path
    d="M98.1205 18.4481L91.1042 11.433L81.335 21.2023C80.0174 22.5205 79.0244 24.1271 78.4346 25.8951L78.2222 26.5311C77.6335 28.2995 76.6409 29.9063 75.3229 31.224L39.2822 67.26C39.0182 67.5231 38.8087 67.8358 38.6657 68.18C38.5228 68.5242 38.4492 68.8933 38.4492 69.266C38.4492 69.6388 38.5228 70.0078 38.6657 70.3521C38.8087 70.6963 39.0182 71.0089 39.2822 71.272L42.2888 74.2787L98.1205 18.4481Z"
    fill="white"
  />
  <path
    d="M91.1042 11.433L105.138 25.4644L95.3687 35.2336C94.0511 36.5519 92.4443 37.545 90.6759 38.1341L90.0399 38.3465C88.2719 38.9358 86.6653 39.9284 85.347 41.2457L49.3051 77.29C49.042 77.554 48.7294 77.7635 48.3851 77.9065C48.0409 78.0494 47.6718 78.123 47.2991 78.123C46.9264 78.123 46.5573 78.0494 46.2131 77.9065C45.8688 77.7635 45.5562 77.554 45.2931 77.29L39.2822 71.272C39.0182 71.0089 38.8087 70.6963 38.6657 70.3521C38.5228 70.0078 38.4492 69.6388 38.4492 69.266C38.4492 68.8933 38.5228 68.5242 38.6657 68.18C38.8087 67.8358 39.0182 67.5231 39.2822 67.26L75.3229 31.224C76.6409 29.9063 77.6335 28.2995 78.2222 26.5311L78.4346 25.8951C79.0244 24.1271 80.0174 22.5205 81.335 21.2023L91.1042 11.433Z"
    stroke="#45413C"
    stroke-width="1.4"
    stroke-linecap="round"
    stroke-linejoin="round"
  />
  <path
    d="M79.5745 23.4502C79.1042 24.2199 78.7218 25.04 78.4346 25.8951L78.2234 26.5311C77.9359 27.3865 77.5536 28.207 77.0835 28.9773L87.5926 39.4852C88.3611 39.0162 89.1801 38.6355 90.034 38.35L90.67 38.1376C91.5257 37.8509 92.3463 37.4685 93.1162 36.9977L79.5745 23.4502Z"
    fill="#BDBEC0"
  />
  <path
    d="M86.3465 30.2222L79.5745 23.4502C79.1042 24.2199 78.7218 25.04 78.4346 25.8951L78.2234 26.5311C77.9359 27.3865 77.5536 28.207 77.0835 28.9773L82.338 34.2318L86.3465 30.2222Z"
    fill="#E0E0E0"
  />
  <path
    d="M79.5745 23.4502C79.1042 24.2199 78.7218 25.04 78.4346 25.8951L78.2234 26.5311C77.9359 27.3865 77.5536 28.207 77.0835 28.9773L87.5926 39.4852C88.3611 39.0162 89.1801 38.6355 90.034 38.35L90.67 38.1376C91.5257 37.8509 92.3463 37.4685 93.1162 36.9977L79.5745 23.4502Z"
    stroke="#45413C"
    stroke-width="1.4"
    stroke-linecap="round"
    stroke-linejoin="round"
  />
  <path
    d="M41.2459 65.3L51.2689 75.323L49.3053 77.29C49.0422 77.554 48.7296 77.7635 48.3854 77.9065C48.0411 78.0494 47.6721 78.123 47.2993 78.123C46.9266 78.123 46.5575 78.0494 46.2133 77.9065C45.8691 77.7635 45.5564 77.554 45.2933 77.29L39.2753 71.272C39.0113 71.0089 38.8018 70.6963 38.6589 70.3521C38.516 70.0078 38.4424 69.6388 38.4424 69.266C38.4424 68.8933 38.516 68.5242 38.6589 68.18C38.8018 67.8358 39.0113 67.5231 39.2753 67.26L41.2459 65.3Z"
    fill="#87898C"
  />
  <path
    d="M46.2563 70.3115L41.2448 65.3L39.2836 67.26C39.0196 67.5231 38.8101 67.8358 38.6672 68.18C38.5243 68.5242 38.4507 68.8933 38.4507 69.266C38.4507 69.6388 38.5243 70.0078 38.6672 70.3521C38.8101 70.6963 39.0196 71.0089 39.2836 71.272L42.2891 74.2787L46.2563 70.3115Z"
    fill="#BDBEC0"
  />
  <path
    d="M41.2459 65.3L51.2689 75.323L49.3053 77.29C49.0422 77.554 48.7296 77.7635 48.3854 77.9065C48.0411 78.0494 47.6721 78.123 47.2993 78.123C46.9266 78.123 46.5575 78.0494 46.2133 77.9065C45.8691 77.7635 45.5564 77.554 45.2933 77.29V77.29L39.2753 71.272C39.0113 71.0089 38.8018 70.6963 38.6589 70.3521C38.516 70.0078 38.4424 69.6388 38.4424 69.266C38.4424 68.8933 38.516 68.5242 38.6589 68.18C38.8018 67.8358 39.0113 67.5231 39.2753 67.26L41.2459 65.3Z"
    stroke="#45413C"
    stroke-width="1.4"
    stroke-linecap="round"
    stroke-linejoin="round"
  />
  <path
    d="M62.3179 44.2278L74.0368 32.5089L84.0595 42.5315L72.3405 54.2505L62.3179 44.2278Z"
    fill="#87898C"
  />
  <path
    d="M62.3174 44.2292L74.0363 32.5102L79.0477 37.5216L67.3287 49.2405L62.3174 44.2292Z"
    fill="#BDBEC0"
  />
  <path
    d="M62.3179 44.2278L74.0368 32.5089L84.0595 42.5315L72.3405 54.2505L62.3179 44.2278Z"
    stroke="#45413C"
    stroke-width="1.4"
    stroke-linecap="round"
    stroke-linejoin="round"
  />
</svg>
