<svg width="48" height="48" viewBox="0 0 48 48" fill="none" xmlns="http://www.w3.org/2000/svg">
<path d="M1.50195 46.5C3.13083 46.7016 4.78416 46.5369 6.34124 46.0179C7.89831 45.4988 9.31981 44.6386 10.502 43.5C11.3546 44.4444 12.3959 45.1994 13.5587 45.7161C14.7214 46.2329 15.9796 46.4999 17.252 46.4999C18.5243 46.4999 19.7825 46.2329 20.9452 45.7161C22.108 45.1994 23.1493 44.4444 24.002 43.5C24.8546 44.4444 25.8959 45.1994 27.0587 45.7161C28.2214 46.2329 29.4796 46.4999 30.752 46.4999C32.0243 46.4999 33.2825 46.2329 34.4453 45.7161C35.608 45.1994 36.6493 44.4444 37.502 43.5C38.6841 44.6386 40.1056 45.4988 41.6627 46.0179C43.2197 46.5369 44.8731 46.7016 46.502 46.5" stroke="black" stroke-width="2.5" stroke-linecap="round" stroke-linejoin="round"/>
<path d="M40.5021 15.168C38.3264 15.1761 36.1736 15.6128 34.1667 16.4531C32.1598 17.2934 30.3381 18.5209 28.8056 20.0654C27.2732 21.6099 26.0601 23.4412 25.2355 25.4546C24.411 27.4681 23.9912 29.6243 24.0001 31.8C26.1758 31.7916 28.3285 31.3547 30.3353 30.5143C32.3421 29.6739 34.1637 28.4464 35.6961 26.902C37.2285 25.3575 38.4416 23.5263 39.2662 21.513C40.0909 19.4997 40.5108 17.3436 40.5021 15.168V15.168Z" stroke="black" stroke-width="2.5" stroke-linecap="round" stroke-linejoin="round"/>
<path d="M28.3417 20.556C29.4742 17.2933 29.6698 13.7785 28.9062 10.4104C28.1426 7.04217 26.4505 3.95534 24.0217 1.5C21.5834 3.96431 19.8875 7.06484 19.1278 10.4473C18.3681 13.8298 18.5753 17.3577 19.7257 20.628" stroke="black" stroke-width="2.5" stroke-linecap="round" stroke-linejoin="round"/>
<path d="M7.50209 15.168C9.67748 15.1766 11.8299 15.6137 13.8363 16.4542C15.8428 17.2948 17.664 18.5223 19.196 20.0668C20.728 21.6112 21.9408 23.4424 22.7651 25.4555C23.5894 27.4687 24.009 29.6246 24.0001 31.8C21.8247 31.7913 19.6723 31.3542 17.6659 30.5137C15.6594 29.6732 13.8382 28.4456 12.3062 26.9012C10.7742 25.3567 9.56137 23.5256 8.73708 21.5124C7.9128 19.4992 7.49315 17.3434 7.50209 15.168V15.168Z" stroke="black" stroke-width="2.5" stroke-linecap="round" stroke-linejoin="round"/>
<path d="M24.002 39V31.798" stroke="black" stroke-width="2.5" stroke-linecap="round" stroke-linejoin="round"/>
</svg>

