<svg width="24" height="24" viewBox="0 0 24 24" fill="none" xmlns="http://www.w3.org/2000/svg">
<path d="M12 4.56995C8.76415 2.58635 5.07682 1.45865 1.285 1.29295C1.14573 1.28702 1.01003 1.33791 0.909 1.43395C0.808198 1.52908 0.750742 1.66134 0.75 1.79995V18.5419C0.750282 18.816 0.966244 19.0412 1.24 19.0529C4.71166 18.5584 8.23635 19.4806 11.021 21.6119C11.3307 21.7403 11.6682 21.7868 12.001 21.7469" stroke="#000000" stroke-width="1.5" stroke-linecap="round" stroke-linejoin="round"/>
<path d="M12 4.56995C15.2359 2.58635 18.9232 1.45865 22.715 1.29295C22.8543 1.28702 22.99 1.33791 23.091 1.43395C23.1926 1.5298 23.2501 1.6633 23.25 1.80295V18.5419C23.2497 18.816 23.0338 19.0412 22.76 19.0529C19.2884 18.5584 15.7637 19.4806 12.979 21.6119C12.6693 21.7403 12.3319 21.7868 11.999 21.7469" stroke="#000000" stroke-width="1.5" stroke-linecap="round" stroke-linejoin="round"/>
<path d="M12 4.56982V21.7568" stroke="#000000" stroke-width="1.5" stroke-linecap="round" stroke-linejoin="round"/>
<path d="M2.25 18.974V22.2C2.24957 22.3555 2.31992 22.5027 2.44116 22.6C2.56239 22.6973 2.72133 22.7341 2.873 22.7C5.87501 22.074 8.93342 21.7584 12 21.758C14.8863 21.7565 17.7641 22.0707 20.582 22.695C20.7336 22.7283 20.8921 22.6912 21.0131 22.594C21.1341 22.4969 21.2047 22.3502 21.205 22.195V18.958" stroke="#000000" stroke-width="1.5" stroke-linecap="round" stroke-linejoin="round"/>
</svg>

