<svg width="24" height="25" viewBox="0 0 24 25" fill="none" xmlns="http://www.w3.org/2000/svg">
<path fill-rule="evenodd" clip-rule="evenodd" d="M5.25 23C7.73528 23 9.75 20.9853 9.75 18.5C9.75 16.0147 7.73528 14 5.25 14C2.76472 14 0.75 16.0147 0.75 18.5C0.75 20.9853 2.76472 23 5.25 23Z" stroke="#000000" stroke-width="1.5" stroke-linecap="round" stroke-linejoin="round"/>
<path d="M9.75013 18.4999V4.62489C9.75205 3.31016 8.78106 2.19679 7.47828 2.01992C6.1755 1.84305 4.94281 2.65724 4.59413 3.92489L0.911133 17.3049" stroke="#000000" stroke-width="1.5" stroke-linecap="round" stroke-linejoin="round"/>
<path fill-rule="evenodd" clip-rule="evenodd" d="M18.75 23C21.2353 23 23.25 20.9853 23.25 18.5C23.25 16.0147 21.2353 14 18.75 14C16.2647 14 14.25 16.0147 14.25 18.5C14.25 20.9853 16.2647 23 18.75 23Z" stroke="#000000" stroke-width="1.5" stroke-linecap="round" stroke-linejoin="round"/>
<path d="M14.25 18.4999V4.62489C14.2481 3.31016 15.2191 2.19679 16.5219 2.01992C17.8246 1.84305 19.0573 2.65724 19.406 3.92489L23.089 17.3019" stroke="#000000" stroke-width="1.5" stroke-linecap="round" stroke-linejoin="round"/>
<path fill-rule="evenodd" clip-rule="evenodd" d="M9.75 9.5H14.25V12.5H9.75V9.5Z" stroke="#000000" stroke-width="1.5" stroke-linecap="round" stroke-linejoin="round"/>
</svg>

