<svg width="24" height="25" viewBox="0 0 24 25" fill="none" xmlns="http://www.w3.org/2000/svg">
<path fill-rule="evenodd" clip-rule="evenodd" d="M22.5 21.7529C22.5 22.5814 21.8284 23.2529 21 23.2529H3C2.17157 23.2529 1.5 22.5814 1.5 21.7529V2.25293C1.5 1.4245 2.17157 0.75293 3 0.75293H18.045C18.4367 0.752975 18.8128 0.906227 19.093 1.17993L22.048 4.06193C22.3372 4.34439 22.5002 4.73165 22.5 5.13593V21.7529Z" stroke="#000000" stroke-width="1.5" stroke-linecap="round" stroke-linejoin="round"/>
<path d="M10.5 8.25305H9.75C8.97999 8.20077 8.31122 8.77769 8.25 9.54705V10.794C8.2377 11.2469 7.98244 11.6581 7.582 11.87L6 12.78L7.582 13.689C7.98214 13.9013 8.23728 14.3123 8.25 14.765V16.013C8.31121 16.7823 8.98016 17.3589 9.75 17.306H10.5" stroke="#000000" stroke-width="1.5" stroke-linecap="round" stroke-linejoin="round"/>
<path d="M13.5 8.25287H14.25C15.0202 8.20003 15.6893 8.77725 15.75 9.54687V10.7939C15.7623 11.2468 16.0176 11.6579 16.418 11.8699L18 12.7799L16.418 13.6889C16.0179 13.9011 15.7627 14.3121 15.75 14.7649V16.0129C15.6888 16.7821 15.0198 17.3587 14.25 17.3059H13.5" stroke="#000000" stroke-width="1.5" stroke-linecap="round" stroke-linejoin="round"/>
</svg>

