<svg width="40" height="40" viewBox="0 0 40 40" fill="none" xmlns="http://www.w3.org/2000/svg">
<path fill-rule="evenodd" clip-rule="evenodd" d="M20 38C29.9411 38 38 29.9411 38 20C38 10.0589 29.9411 2 20 2C10.0589 2 2 10.0589 2 20C2 29.9411 10.0589 38 20 38ZM20 40C31.0457 40 40 31.0457 40 20C40 8.9543 31.0457 0 20 0C8.9543 0 0 8.9543 0 20C0 31.0457 8.9543 40 20 40Z" fill="#130B43"/>
<path d="M22.0152 21.1661L12.3692 30.8121C11.7835 31.3977 10.834 31.3977 10.2482 30.8121L9.18723 29.7511C8.60165 29.1654 8.60165 28.2159 9.18723 27.6301L18.8332 17.9841" stroke="#130B43" stroke-width="2" stroke-linecap="round" stroke-linejoin="round"/>
<path fill-rule="evenodd" clip-rule="evenodd" d="M16.1817 15.3322C15.596 14.7464 15.596 13.7966 16.1818 13.2108L20.2025 9.1903C20.7882 8.60453 21.738 8.60454 22.3238 9.19034L30.8089 17.6758C31.3947 18.2616 31.3947 19.2113 30.8089 19.7971L26.7882 23.8176C26.2024 24.4034 25.2526 24.4034 24.6669 23.8176L16.1817 15.3322Z" stroke="#130B43" stroke-width="2" stroke-linecap="round" stroke-linejoin="round"/>
</svg>

