<svg height='300px' width='300px'  fill="#000000" xmlns="http://www.w3.org/2000/svg" xmlns:xlink="http://www.w3.org/1999/xlink" version="1.1" x="0px" y="0px" viewBox="0 0 48 48" enable-background="new 0 0 48 48" xml:space="preserve"><g><path d="M45.13,43.449c-2.272-0.299-3.986-2.211-3.986-4.449s1.714-4.15,3.986-4.449c0.41-0.054,0.744-0.354,0.842-0.755   c0.098-0.4-0.062-0.821-0.4-1.057C44.887,32.263,44.051,32,43.217,32h-12.32C34.556,29.697,37,25.634,37,21v-4c0-0.553-0.448-1-1-1   s-1,0.447-1,1v3.5V21c0,6.065-4.935,11-11,11s-11-4.935-11-11v-0.5V17c0-0.553-0.448-1-1-1s-1,0.447-1,1v4   c0,4.634,2.444,8.697,6.104,11H6.073C3.827,32,2,33.794,2,36v6c0,2.206,1.827,4,4.073,4h37.144c0.834,0,1.67-0.263,2.355-0.739   c0.338-0.235,0.498-0.656,0.4-1.057C45.874,43.803,45.54,43.503,45.13,43.449z M6.073,44C4.93,44,4,43.103,4,42v-6   c0-1.103,0.93-2,2.073-2h35.472c-1.233,1.005-2.076,2.438-2.321,4.045C39.15,38.027,39.08,38,39,38H8c-0.552,0-1,0.447-1,1   s0.448,1,1,1h31c0.08,0,0.15-0.027,0.225-0.045c0.245,1.605,1.088,3.04,2.321,4.045H6.073z M17.5,25   c1.338,0,2.529-0.599,3.354-1.529L23.2,26.6c0.188,0.252,0.485,0.4,0.8,0.4s0.611-0.148,0.8-0.4l2.347-3.129   C27.971,24.401,29.162,25,30.5,25c2.481,0,4.5-2.019,4.5-4.5c0-1.018-0.353-1.947-0.924-2.702l0.816-3.431l5.732-4.586   c0.281-0.225,0.419-0.583,0.363-0.938c-0.057-0.355-0.3-0.652-0.637-0.779l-16-6c-0.049-0.019-0.1-0.014-0.15-0.023   C24.134,2.025,24.07,2.008,24,2.008c-0.069,0-0.133,0.018-0.201,0.032c-0.05,0.01-0.101,0.005-0.15,0.023l-16,6   C7.312,8.19,7.069,8.487,7.012,8.843C6.956,9.198,7.094,9.557,7.375,9.781l5.732,4.586l0.816,3.431   C13.353,18.553,13,19.482,13,20.5C13,22.981,15.019,25,17.5,25z M17.5,23c-1.378,0-2.5-1.121-2.5-2.5s1.122-2.5,2.5-2.5   s2.5,1.121,2.5,2.5S18.878,23,17.5,23z M24,24.333L23,23h2L24,24.333z M30.5,23c-1.378,0-2.5-1.121-2.5-2.5s1.122-2.5,2.5-2.5   s2.5,1.121,2.5,2.5S31.878,23,30.5,23z M9.999,9.318L24,4.068l14.001,5.25l-4.626,3.701c-0.174,0.14-0.297,0.333-0.348,0.55   l-0.676,2.84C31.785,16.151,31.161,16,30.5,16c-2.481,0-4.5,2.019-4.5,4.5c0,0.171,0.032,0.334,0.051,0.5h-4.102   C21.968,20.834,22,20.671,22,20.5c0-2.481-2.019-4.5-4.5-4.5c-0.661,0-1.285,0.151-1.851,0.409l-0.676-2.84   c-0.051-0.217-0.174-0.41-0.348-0.55L9.999,9.318z M18.5,20.5c0,0.553-0.448,1-1,1s-1-0.447-1-1s0.448-1,1-1S18.5,19.947,18.5,20.5   z M31.5,20.5c0,0.553-0.448,1-1,1s-1-0.447-1-1s0.448-1,1-1S31.5,19.947,31.5,20.5z"></path></g></svg>
