<svg width="24" height="25" viewBox="0 0 24 25" fill="none" xmlns="http://www.w3.org/2000/svg">
<path fill-rule="evenodd" clip-rule="evenodd" d="M12 19.802C16.5563 19.802 20.25 16.1084 20.25 11.552C20.25 6.99565 16.5563 3.302 12 3.302C7.44365 3.302 3.75 6.99565 3.75 11.552C3.75 16.1084 7.44365 19.802 12 19.802Z" stroke="#000000" stroke-width="1.5" stroke-linecap="round" stroke-linejoin="round"/>
<path d="M19.707 14.5C19.8861 14.5335 20.0679 14.5502 20.25 14.55C21.9069 14.55 23.25 13.2069 23.25 11.55C23.25 9.89319 21.9069 8.55005 20.25 8.55005C20.0679 8.5504 19.8862 8.56714 19.707 8.60005" stroke="#000000" stroke-width="1.5" stroke-linecap="round" stroke-linejoin="round"/>
<path d="M18.4079 6.35316C18.526 6.21455 18.6315 6.06562 18.7229 5.90816C19.2588 4.97927 19.2585 3.83504 18.722 2.90649C18.1855 1.97795 17.1944 1.40615 16.122 1.40649C15.0496 1.40684 14.0588 1.97927 13.5229 2.90816C13.4313 3.06727 13.355 3.23468 13.2949 3.40816" stroke="#000000" stroke-width="1.5" stroke-linecap="round" stroke-linejoin="round"/>
<path d="M10.7003 3.40012C10.6399 3.22662 10.5632 3.05921 10.4713 2.90012C9.64288 1.46418 7.80725 0.97169 6.37131 1.80012C4.93537 2.62854 4.44288 4.46418 5.27131 5.90012C5.36278 6.05758 5.4682 6.20651 5.58631 6.34512" stroke="#000000" stroke-width="1.5" stroke-linecap="round" stroke-linejoin="round"/>
<path d="M4.294 8.60005C4.11453 8.56714 3.93246 8.5504 3.75 8.55005C2.09315 8.55005 0.75 9.89319 0.75 11.55C0.75 13.2069 2.09315 14.55 3.75 14.55C3.93249 14.5502 4.1146 14.5335 4.294 14.5" stroke="#000000" stroke-width="1.5" stroke-linecap="round" stroke-linejoin="round"/>
<path d="M5.59229 16.7512C5.47417 16.8902 5.36875 17.0394 5.27729 17.1972C4.70311 18.1823 4.73699 19.4077 5.36471 20.3596C5.99243 21.3114 7.10547 21.8251 8.23707 21.6853C9.36866 21.5455 10.3232 20.7762 10.7003 19.7002" stroke="#000000" stroke-width="1.5" stroke-linecap="round" stroke-linejoin="round"/>
<path d="M13.2998 19.7002C13.6759 20.777 14.6301 21.5475 15.762 21.6882C16.8939 21.8289 18.0077 21.3155 18.636 20.3635C19.2642 19.4115 19.2983 18.1856 18.7238 17.2002C18.6323 17.0424 18.5269 16.8931 18.4088 16.7542" stroke="#000000" stroke-width="1.5" stroke-linecap="round" stroke-linejoin="round"/>
<path d="M12 19.802V23.552" stroke="#000000" stroke-width="1.5" stroke-linecap="round" stroke-linejoin="round"/>
<path fill-rule="evenodd" clip-rule="evenodd" d="M9 13.802C10.2426 13.802 11.25 12.7946 11.25 11.552C11.25 10.3094 10.2426 9.302 9 9.302C7.75736 9.302 6.75 10.3094 6.75 11.552C6.75 12.7946 7.75736 13.802 9 13.802Z" stroke="#000000" stroke-width="1.5" stroke-linecap="round" stroke-linejoin="round"/>
<path fill-rule="evenodd" clip-rule="evenodd" d="M15 13.802C16.2426 13.802 17.25 12.7946 17.25 11.552C17.25 10.3094 16.2426 9.302 15 9.302C13.7574 9.302 12.75 10.3094 12.75 11.552C12.75 12.7946 13.7574 13.802 15 13.802Z" stroke="#000000" stroke-width="1.5" stroke-linecap="round" stroke-linejoin="round"/>
</svg>

