<svg id="up-to-date" width="48" height="48" viewBox="0 0 48 48" fill="none" xmlns="http://www.w3.org/2000/svg">
<path d="M40.4983 2.5L36.5603 6.436L38.5283 9.39L34.5923 12.344" stroke="#E41919" stroke-width="2" stroke-linecap="round" stroke-linejoin="round"/>
<path d="M7.49805 2.48389L11.436 6.42189L9.46605 9.37389L13.404 12.3279" stroke="#E41919" stroke-width="2" stroke-linecap="round" stroke-linejoin="round"/>
<path d="M24.654 1.5L22.686 4.452L24.654 6.422" stroke="#E41919" stroke-width="2" stroke-linecap="round" stroke-linejoin="round"/>
<path d="M15.656 21.9719V23.9719C15.7337 26.2741 15.1365 28.5488 13.938 30.5159" stroke="#E41919" stroke-width="2" stroke-linecap="round" stroke-linejoin="round"/>
<path d="M32.1502 21.9719V23.9719C32.073 26.2743 32.6709 28.549 33.8702 30.5159" stroke="#E41919" stroke-width="2" stroke-linecap="round" stroke-linejoin="round"/>
<path d="M15.6802 22.4001C18.8409 22.3771 21.8382 20.9922 23.9042 18.6001C25.9702 20.9922 28.9675 22.3771 32.1282 22.4001" stroke="#E41919" stroke-width="2" stroke-linecap="round" stroke-linejoin="round"/>
<path fill-rule="evenodd" clip-rule="evenodd" d="M23.9038 30C28.4602 30 32.1538 26.3063 32.1538 21.75C32.1538 17.1937 28.4602 13.5 23.9038 13.5C19.3475 13.5 15.6538 17.1937 15.6538 21.75C15.6538 26.3063 19.3475 30 23.9038 30Z" stroke="#E41919" stroke-width="2" stroke-linecap="round" stroke-linejoin="round"/>
<path d="M37.3999 46.5001C37.3966 40.9859 34.0356 36.0295 28.9139 33.9861L23.9039 39.0001L18.8899 33.9861C13.7667 36.0282 10.4039 40.9849 10.3999 46.5001" stroke="#E41919" stroke-width="2" stroke-linecap="round" stroke-linejoin="round"/>
</svg>