<svg width="24" height="24" viewBox="0 0 24 24" fill="none" xmlns="http://www.w3.org/2000/svg">
<path d="M18.362 7.00001C17.2808 5.69042 15.8219 4.74639 14.1842 4.29678C12.5466 3.84716 10.8101 3.91388 9.21183 4.48781C7.61353 5.06174 6.23128 6.11492 5.25377 7.5036C4.27626 8.89228 3.75111 10.5488 3.75 12.247V14.5" stroke="black" stroke-width="1.5" stroke-linecap="round" stroke-linejoin="round"/>
<path d="M6 17.908C7.13379 19.1094 8.60214 19.9428 10.2149 20.3002C11.8277 20.6576 13.5107 20.5227 15.0459 19.9128C16.5811 19.3029 17.8979 18.2462 18.8257 16.8795C19.7535 15.5127 20.2497 13.8989 20.25 12.247V10.747" stroke="black" stroke-width="1.5" stroke-linecap="round" stroke-linejoin="round"/>
<path d="M0.75 11.497L3.75 14.497L6.75 11.497" stroke="black" stroke-width="1.5" stroke-linecap="round" stroke-linejoin="round"/>
<path d="M23.25 13.747L20.25 10.747L17.25 13.747" stroke="black" stroke-width="1.5" stroke-linecap="round" stroke-linejoin="round"/>
<path d="M9 13.0931L10.4292 14.7749C10.4834 14.842 10.5561 14.8975 10.6414 14.9366C10.7267 14.9757 10.822 14.9974 10.9194 14.9998C11.0168 15.0022 11.1135 14.9853 11.2014 14.9504C11.2893 14.9156 11.366 14.8639 11.4249 14.7995L16 10" stroke="black" stroke-width="1.5" stroke-linecap="round" stroke-linejoin="round"/>
</svg>

