<svg xmlns="http://www.w3.org/2000/svg" height="168" widt="139" viewBox="0 0 168.39 139.53" class="ml-10"><path d="M2.11 20.49a35.59 35.59 0 01-1.27-3.58 11.91 11.91 0 01-.58-3.29c0-.23.66-.67 1-.67s1 .36 1.05.61c0 1 .17 1.91.28 2.86l.31 2.87a5.94 5.94 0 01.15 1c0 .14-.34.33-.55.37s-.36-.16-.39-.17zM4 25.53c.76 0 .89.6 1.07 1.06.41 1 .55 2 .87 3a14.47 14.47 0 00.53 2.11c.23.48.12.81-.41 1.21a.35.35 0 01-.32 0c-.44-.76-.79-1.52-1.14-2.29l-.54-1.15c-.16-.4-.34-.79-.53-1.19s-.36-.6-.54-.91A1.34 1.34 0 014 25.53zM.46 6.5C.39 6 .28 5.32.25 4.67s0-1.24-.08-1.61A12.61 12.61 0 010 .94C0 .6.42.25.72 0c.1-.07.48.2.73.31 1.06.49.63 1.3.6 2A31.77 31.77 0 001.63 6c.07.91-.15 1-1 .7-.18-.07-.23-.31-.17-.2zM18.93 55.19c-1-.95-1.95-1.72-2.79-2.57a14.1 14.1 0 01-2-2.64c-.12-.19.26-.89.57-1.07s1.08-.17 1.23 0c1 1.62 2.12 3.2 3.22 4.79a3.83 3.83 0 01.57.83c0 .13-.16.46-.33.58a.68.68 0 01-.47.08zM22.9 58.84c.7-.31 1.08.13 1.45.45a21.61 21.61 0 012.13 2.35 9.82 9.82 0 001.41 1.66c.42.32.47.67.17 1.25a.35.35 0 01-.3.12 25 25 0 01-2.06-1.53c-.63-.56-1.25-1.12-2-1.64-.29-.21-.6-.38-.9-.57a1.32 1.32 0 01.1-2.09zM10.82 43.68c-.67-.78-1.5-2.26-2-2.84a12.09 12.09 0 01-1.23-1.73 1.69 1.69 0 01.18-1.18c0-.11.51-.07.78-.1 1.12-.11 1.17.81 1.52 1.46s1 2.69 1.45 3.36.39 1-.56 1.12c-.08.03-.25-.15-.14-.09zM49.15 79.25c-1.34-.43-2.51-.73-3.61-1.18a20.21 20.21 0 01-2.95-1.55c-.19-.12-.14-.92.07-1.2s.91-.62 1.13-.49c.83.49 1.64 1 2.45 1.53s1.65 1 2.48 1.5a4.07 4.07 0 01.86.51c.1.1.05.48-.06.66s-.35.21-.37.22zM54.25 81c.52-.56 1-.27 1.49-.12a19.83 19.83 0 012.9 1.31 11.49 11.49 0 001.93 1c.52.14.7.45.64 1.1 0 .08-.17.23-.23.22-1.75-.29-3.21-1-4.93-1.38-.34-.08-.7-.1-1-.16a1.35 1.35 0 01-.8-1.97zM37 72.18c-.91-.46-2.34-1.37-3-1.71a7.94 7.94 0 01-1.83-1.06 1.72 1.72 0 01-.35-1.13c0-.12.42-.29.65-.43 1-.61 1.39.24 2 .69s2.13 1.95 2.79 2.37.74.75 0 1.28c-.19.08-.41-.02-.26-.01zM86.1 90.8a37.12 37.12 0 01-3.79 0 19.32 19.32 0 01-3.31-.45c-.21 0-.43-.82-.33-1.17s.66-.87.91-.82c1.9.34 3.76.91 5.66 1.26a3.88 3.88 0 011 .21c.13.06.19.44.15.64s-.27.31-.29.33zM91.5 90.88c.32-.69.89-.59 1.39-.57a28.4 28.4 0 013.16.39 14.8 14.8 0 002.15.41c.53 0 .79.24.92.88 0 .08-.09.27-.16.28-1.74.17-3.35 0-5.11.13-.35 0-.69.09-1 .14a1.36 1.36 0 01-1.35-1.66zM72.28 88.15c-1-.11-2.68-.44-3.4-.53a11.06 11.06 0 01-2.07-.35c-.33-.11-.58-.56-.75-.92 0-.11.29-.42.46-.64.7-.92 1.39-.29 2.11-.09s2.68 1.09 3.44 1.26c.91.18 1 .43.41 1.21-.08.11-.32.09-.2.06zM124.86 91.44c-1.35.4-2.48.82-3.65 1a16 16 0 01-3.3.43c-.22 0-.64-.68-.63-1s.4-1 .65-1c1.93-.11 3.86-.17 5.78-.31a4.35 4.35 0 011-.06c.14 0 .3.36.32.57s-.16.34-.17.37zM130 90c.1-.76.67-.84 1.15-1a31.64 31.64 0 013.11-.6 10.83 10.83 0 002.15-.33c.49-.18.82 0 1.16.52a.35.35 0 01-.06.32c-1.58.76-3.17 1.11-4.8 1.78-.33.13-.64.31-1 .46A1.34 1.34 0 01130 90zM110.83 92.62c-1 .18-2.7.3-3.41.38a11.59 11.59 0 01-2.09.26c-.34 0-.71-.37-1-.67-.08-.09.16-.49.26-.74.41-1.08 1.26-.68 2-.69s2.88.37 3.67.29 1 .16.72 1.06c.02.12-.26.18-.15.11zM160 76.22c-.37.61-.78 1.11-1.14 1.63a11.85 11.85 0 01-1.16 1.43c-.39.4-.78.81-1.2 1.19s-.89.7-1.36 1c-.19.12-.9-.23-1.08-.54s-.2-1.09 0-1.23l1.15-.83 1.09-.87c.78-.55 1.48-1.18 2.21-1.81a6.4 6.4 0 01.73-.66c.12-.07.47.09.61.24s.15.42.15.45zM162.83 71.67c-.47-.61-.09-1 .11-1.47.44-.92 1.06-1.75 1.54-2.67a7.08 7.08 0 001-1.85c.13-.51.44-.68 1.09-.67.08 0 .25.16.23.22a24.66 24.66 0 01-1.58 5c-.13.33-.21.69-.31 1a1.33 1.33 0 01-2.08.44zM148.67 84.65c-.82.62-2.34 1.38-2.95 1.79a11.25 11.25 0 01-1.84 1.06 1.61 1.61 0 01-1.15-.25c-.11 0 0-.51 0-.78 0-1.15.89-1.11 1.57-1.4s2.74-.86 3.43-1.24 1-.32 1.09.63c-.02.14-.21.29-.15.19zM156.85 43.27a18.31 18.31 0 013.54 1.53 10.77 10.77 0 012.67 2.2c.15.17-.1.93-.39 1.15s-1 .34-1.21.17a26 26 0 00-4.25-3.63 5.05 5.05 0 01-.82-.54c-.09-.1 0-.47.08-.65s.36-.22.38-.23zM151.7 41.76c-.45.62-1 .43-1.44.33-1-.16-2-.49-3-.72a9.09 9.09 0 00-2.09-.5c-.52 0-.77-.25-.9-.9 0-.08.1-.27.17-.27a35.75 35.75 0 015.16.21h1.09a1.33 1.33 0 011.01 1.85zM166.54 53.37c.13.22.27.49.42.78s.23.62.35.93c.21.62.46 1.21.55 1.57a10.63 10.63 0 01.53 2.14 1.77 1.77 0 01-.66 1c-.09.08-.49-.15-.75-.24-.54-.19-.71-.47-.75-.81a9.11 9.11 0 01-.08-1.06 15 15 0 00-.52-3.45c-.37-.8-.21-1 .74-1 .13.01.27.22.17.14zM118.63 42.15c1.33-.46 2.44-.89 3.58-1.19a19.2 19.2 0 013.25-.62c.22 0 .69.63.71 1s-.33 1.05-.58 1.08c-1.93.27-3.87.4-5.8.61a4.28 4.28 0 01-1 .09c-.14 0-.32-.36-.34-.57a.61.61 0 01.18-.4zM113.45 43.68c-.1.75-.68.82-1.16 1a25.11 25.11 0 01-3.14.54 14 14 0 00-2.16.26c-.51.17-.82 0-1.14-.55a.33.33 0 01.06-.31c1.61-.71 3.2-1 4.85-1.65.32-.13.63-.3.95-.45a1.35 1.35 0 011.74 1.16zM132.52 40c1-.28 2.67-.54 3.37-.71a10.08 10.08 0 012.08-.41 1.7 1.7 0 011 .61c.08.08-.13.49-.22.76-.34 1.1-1.2.74-1.94.81s-2.88-.09-3.65 0-1.05 0-.82-1c.05-.06.28-.13.18-.06zM82.61 55.65a37.41 37.41 0 012.63-2.76A16.44 16.44 0 0188 51c.2-.1.88.32 1 .65s.1 1.09-.11 1.21c-.82.49-1.62 1-2.45 1.47s-1.6 1-2.41 1.57a5.41 5.41 0 01-.82.56c-.13.05-.45-.15-.57-.32a.67.67 0 01-.03-.49zM79.05 59.7c.33.68-.12 1-.41 1.43a26 26 0 01-2.2 2.26 13 13 0 00-1.55 1.51c-.31.43-.64.51-1.24.26-.08 0-.17-.23-.14-.28a18.06 18.06 0 011.4-2.15c.48-.7 1-1.36 1.5-2.09a10.71 10.71 0 00.52-.94 1.34 1.34 0 012.12 0zM94.6 48.25c.87-.53 2.4-1.29 3.05-1.62a10.15 10.15 0 011.88-1 1.69 1.69 0 011.15.32c.11.06 0 .51 0 .78 0 1.16-1 1-1.64 1.32-.37.14-1.07.3-1.76.48a14 14 0 00-1.73.57c-.83.39-1 .26-1.07-.7-.01-.11.19-.25.12-.15zM61.92 88c.17-1.41.33-2.59.56-3.76a20.3 20.3 0 011.05-3.17c.1-.21.9-.28 1.22-.11s.73.8.64 1c-.35.9-.72 1.78-1.11 2.66l-1.06 2.69a4.49 4.49 0 01-.36.93c-.08.12-.46.13-.65.06s-.27-.3-.29-.3zM61.14 93.32c.64.4.48 1 .42 1.45a28.24 28.24 0 01-.73 3.09 13.41 13.41 0 00-.61 2.09c0 .53-.3.77-.95.84-.08 0-.26-.12-.26-.18 0-1.76.29-3.35.38-5.11v-1.06a1.33 1.33 0 011.75-1.12zM67 74.86c.36-1 1-2.52 1.33-3.18a12.07 12.07 0 01.84-2 1.63 1.63 0 011.09-.48c.12 0 .33.39.49.6.69.9-.05 1.43-.42 2.07-.19.34-.65.9-1.06 1.49a13.83 13.83 0 00-1 1.54c-.38.83-.63.83-1.27.13v-.17zM57.85 126.49c-.3-1.38-.56-2.54-.73-3.72a19.28 19.28 0 01-.17-3.31c0-.22.73-.59 1.08-.55s1 .47 1 .72c0 1.94-.12 3.87-.17 5.81a4.25 4.25 0 010 1c0 .13-.4.27-.61.26s-.38-.2-.4-.21zM58.72 131.81c.73.21.73.79.8 1.28a24.33 24.33 0 01.11 3.2 14.68 14.68 0 00-.08 2.19c.09.53-.12.82-.73 1a.32.32 0 01-.3-.12c-.43-1.69-.5-3.31-.89-5-.08-.35-.21-.68-.32-1-.21-.66.39-1.48 1.41-1.55zM57.74 112.42c-.09-1-.11-2.71-.15-3.43a12.55 12.55 0 01-.11-2.11c0-.34.42-.68.75-.92.1-.07.47.2.71.32 1.05.49.59 1.31.54 2s-.54 2.85-.53 3.64-.23 1-1.11.64c-.12-.01-.16-.25-.1-.14z"></path></svg>
