<svg xmlns="http://www.w3.org/2000/svg" fill="none" viewBox="0 0 24 24" id="Ai-Redo-Spark--Streamline-Ultimate" height="24" width="24"><desc>Ai Redo Spark Streamline Icon: https://streamlinehq.com</desc><path fill="#000000" fill-rule="evenodd" d="M5.11611 5.11318c-3.80195 3.80194 -3.80195 9.96612 0 13.76802 3.80194 3.802 9.96609 3.802 13.76809 0 2.3413 -2.3413 3.2417 -5.5781 2.6979 -8.6114 -0.0974 -0.54362 0.2642 -1.06331 0.8079 -1.16077 0.5436 -0.09746 1.0633 0.26422 1.1607 0.80784 0.6544 3.64993 -0.4286 7.55493 -3.2523 10.37863 -4.583 4.5829 -12.01351 4.5829 -16.59651 0 -4.58299 -4.583 -4.58299 -12.01354 0 -16.59654C7.77859 -0.377731 14.1084 -0.828097 18.6829 2.34787l1.3104 -1.31038c0.2145 -0.214497 0.5371 -0.278663 0.8173 -0.162578 0.2803 0.116086 0.463 0.389568 0.463 0.692908v3.83955c0 0.41421 -0.3358 0.75 -0.75 0.75h-3.8395c-0.3034 0 -0.5769 -0.18274 -0.6929 -0.46299 -0.1161 -0.28026 -0.052 -0.60285 0.1625 -0.81734l1.087 -1.08694C13.4733 1.37944 8.40882 1.82047 5.11611 5.11318Zm7.62119 0.88802c-0.0691 -0.35181 -0.3775 -0.60555 -0.736 -0.60555s-0.6669 0.25374 -0.7359 0.60555c-0.5199 2.64869 -2.60027 4.7479 -5.16078 5.2627 -0.35023 0.0704 -0.60219 0.378 -0.60219 0.7352 0 0.3573 0.25196 0.6649 0.60219 0.7353 2.56091 0.5149 4.64038 2.611 5.16018 5.2593 0.069 0.3518 0.3774 0.6056 0.736 0.6056 0.3585 0 0.6669 -0.2538 0.7359 -0.6056 0.5198 -2.6482 2.5998 -4.7444 5.1608 -5.2593 0.3502 -0.0704 0.6021 -0.378 0.6021 -0.7353 0 -0.3572 -0.2519 -0.6648 -0.6021 -0.7352 -2.5605 -0.5148 -4.6404 -2.61392 -5.1602 -5.2627Z" clip-rule="evenodd" stroke-width="1"></path></svg>