<svg xmlns="http://www.w3.org/2000/svg" version="1.1" xmlns:xlink="http://www.w3.org/1999/xlink" xmlns:svgjs="http://svgjs.dev/svgjs" viewBox="0 0 800 800" opacity="0.19"><defs><linearGradient x1="50%" y1="0%" x2="50%" y2="100%" id="ssscribble-grad"><stop stop-color="hsl(0, 0%, 100%)" stop-opacity="1" offset="0%"></stop><stop stop-color="hsl(0, 0%, 100%)" stop-opacity="1" offset="100%"></stop></linearGradient></defs><g fill="none" stroke-width="1.5" stroke="hsl(0, 0%, 100%)" stroke-linecap="round"><path d="M669.92 403.68C831.08 436.54 1021.91 492.94 1093.21 569.09 997.98 642.2 805.41 724.98 645.86 798.67 606.99 840.55 694.93 838.24 835.93 775.53 956.27 680.33 985.1 572.75 920.72 514.04 788.79 558.46 640.65 707.5 517.39 904.12 428.96 1031.69 387.07 1011.03 375.98 845.47 389.43 674.49 405.96 641.91 411.57 801.46 419.93 1020.59 409.19 1099.56 376.33 951.01 343.47 725.76 290.04 649.63 219.71 781.29 152.13 991.07 75.82 1077.61 5.42 974.73 -40.42 764.84 -52.65 604.78 -14.87 585.1 57.74 697.67 158.7 846.74 247.56 938.44 268.87 936.58 201.08 841.59 46.52 704.72 -128.68 556.39 -246.1 442.26 -231.31 370.22 -95.85 330.24 78.01 314.79 160.55 304.65 76.58 302.49 -120.91 288.35 -282.07 255.49 -274.53 222.63 -106.14 172.62 86.27 112.81 166.7 60.97 89.43 16.63 -72.17 -0.34 -212.76 14.73 -235.75 74.74 -137.97 172.42 31.59 258.65 190.61 306.48 283.85 265.3 296.24 130.54 244.1 -57.48 168.05 -204.28 57.04 -153.56 33.16 123.74 88.89 -151.3 136.43 -295.68 179.85 -226.27 212.71 -1.04 245.58 147.56 266.32 75.3 280.75 -131.13 302.23 -278.03 331.54 -226.79 382.69 -31.74 457.59 157.92 565.61 208.08 700.32 114.75 827.01 -47.65 926.33 -157.74 957.01 -159.12 906.84 -57.35 786.78 97.38 651.43 243.23 587.86 356.6 640.32 413.05 805 428.13 990.7 411.39 1086.68 388.39 1018.93 377.26 839.19 363.06 677.46 370.83 669.92 403.68Q669.92 403.68 669.92 403.68" opacity="0.73"></path><path d="M635.92 603.61C782.26 634.13 964.24 672.9 1056.98 712.87 1006.69 744.78 845.5 762.32 672.44 750.97 572.72 716.59 587.51 647.59 686.43 557.34 820.16 490.15 915.46 466.06 939.09 522.26 890.76 654.93 788.3 830.09 667.76 970.45 543.03 998.98 443.12 896.09 372.55 719.57 322.18 603.05 291.4 636.5 268.49 817.43 251.8 1010.85 230.75 1061.95 200.23 917.01 169.72 705.07 131.19 612.05 90.33 703.9 55.7 899.21 30.98 1031.49 28.47 1006.4 46.15 845.01 95.82 655.49 173.51 544.93 247.03 555.84 305.68 660.08 314.02 783.98 250.39 879.17 118.91 897.57 -46.58 847.35 -177.27 745.69 -219.43 627.12 -142.08 519.35 8.61 418.36 152.43 343.59 190.94 290.48 86.42 244.51 -101.72 208.77 -248.07 178.26 -247.46 147.75 -101.76 123.9 83.97 112.31 195.01 107.87 170.71 127.13 44.4 175.23 -110 230.11 -197.35 298.45 -180.16 353.09 -70.11 356.3 83.67 294.11 223.53 158.94 336.8 -75.16 256.32 -28.25 181.16 191.86 140.19 194.62 123.27 45 127.14 -162.07 136.19 -265.74 157.9 -178.96 188.41 32.95 218.93 177.94 256.8 133.08 305.29 -48.54 358.97 -217.72 431.4 -233.84 525.25 -94.98 623.83 103.9 733 234.18 832.64 237.45 894.72 128.88 905.24 -10.1 848.6 -102.78 748.74 -119.02 631.13 -51.13 552.85 63.06 567.43 200.33 682.15 319.6 858.93 406.87 1007.6 471.1 1049.27 509.08 950.01 534.71 776.04 552.3 636.53 573.11 635.92 603.61Q635.92 603.61 635.92 603.61" opacity="0.12"></path><path d="M601.92 582.19C733.73 610.36 904.37 624.64 1012.19 622.18 1003.41 615.42 882.82 586.25 718.03 535.57 580.28 487.44 526.23 436.92 560 408.43 660.18 428.19 772.79 505 854.72 639.28 891.48 790.5 869.46 918.15 805.43 962.46 710.74 901.29 609.64 757.41 518.56 609.43 430.95 559.43 362.16 647.25 310.57 834.13 263.1 997.25 226.45 1023.08 198.28 883.01 170.12 685.15 151.77 579.55 146.11 632.81 144.59 801.26 162.14 957.87 200.94 1002.31 243.21 913.52 297.91 744.25 349.2 585.48 369.81 498.62 351.4 509.97 277.72 588.68 158.88 701.75 12.87 792.34 -116.63 835.47 -179.72 833.07 -150.94 786.46 -33.83 717.85 110.31 631.76 214.86 550.47 212.78 484.35 94.09 418.16 -82.26 370.23 -214.07 342.05 -219.47 313.89 -96.26 306.81 77.22 319.87 208.5 332.87 232.76 362.92 153.67 400.2 14.06 420.01 -108.09 420.24 -160.86 379.25 -130.76 292.72 -29.72 161.7 101.5 11.72 235.45 -103.92 336.18 -148.68 394.73 -91.17 414.73 38.25 405.6 182.27 385.23 250.44 352.42 185.39 328.16 12.77 319.63 -166.56 311.06 -230.73 320.38 -130.88 348.55 66.95 376.72 207.07 422.4 187 484.09 34.77 545.73 -141.25 621.23 -213.07 702.85 -142.45 772.03 26.16 827.55 195.31 850.96 285.82 835.83 270.85 775.53 176.6 678.5 62.3 584.19 -35.06 516.54 -71.44 515.77 -47.79 597.87 24.1 745.29 121 905.54 217.94 1005.28 317.44 997.05 397.84 876.64 457.72 714.02 513.31 596.52 554.03 601.92 582.19Q601.92 582.19 601.92 582.19" opacity="0.26"></path><path d="M567.92 362.7C685.52 388.52 842.76 394.99 959.29 384.85 986.18 377.05 910.36 359.12 771.83 341.93 622.55 343.57 518.61 367.72 484.87 429.03 521.98 523.66 603.81 650.08 694.94 784.46 779.09 883.97 826.52 921.76 834.15 872.79 808.99 759.08 757.37 620.64 694.71 529.15 621.22 545.09 552.92 670.5 496.73 849.18 440.11 979.37 398 982.97 372.18 849.01 346.36 665.94 338.05 552.09 345.98 569.82 353.48 702.7 374.81 862.09 403.56 957.59 421.47 946.89 430.57 835.64 415.93 681.72 368.51 539.1 284.01 459.15 166.03 450.45 41.05 503.93 -71.38 585.87 -135.38 663.6 -128.52 731.25 -47.73 764.79 82.62 767.29 202.22 749.29 263.34 714.73 226.49 675.97 99.99 632.04 -62.47 594.64 -180.07 568.82 -190.52 543 -89.18 529.98 67.51 525.21 208.45 515.28 272.59 502.88 244.63 476.14 141.95 428.91 17.88 352.85 -77.54 245.42 -120.3 127.9 -94.1 8.89 -15.97 -78.44 96.87 -103.6 213.85 -54.29 314.15 61.43 396.49 188.47 450.08 276.58 481.39 268.38 496.22 153.98 502.78 -20.09 510.53 -162.94 514.51 -190.68 527.66 -82.1 553.48 100.94 579.3 234.95 616.57 236.62 661.27 116.43 702.22 -52.29 742.63 -163.03 772.55 -160.07 785.98 -49.66 774.91 111.92 732.36 252.53 671.86 328.39 591.95 321.21 512.94 255.55 468.65 155.01 473.07 65.66 542.71 10.82 665.02 -10.69 812.25 7.67 933.86 50.77 980.73 112.7 931.29 177.61 800.32 234.1 653.58 292.93 557.47 336.88 567.92 362.7Q567.92 362.7 567.92 362.7" opacity="0.62"></path><path d="M533.94 183.75C637.76 207.22 779.94 225.48 899.04 242.36 953.97 264.05 922.01 293.55 821.75 339.16 685.88 399.55 559.48 483.43 474.56 588.58 443.79 693.97 465.83 793.52 521.37 861 599.54 875.28 672.01 827.6 724.59 723.85 760.95 606.22 770.41 511.1 759.15 487.56 734.25 557.74 700.1 701.49 664.93 860.21 626.47 956.85 593.75 941.68 570.28 815.02 540.25 588.45 514.52 680.74 494.46 874.64 465.05 929.93 416.93 893.41 344.4 788.32 255.64 648.02 149.47 520.38 40.54 434.59 -45.76 398.45 -95.62 410.02 -89.3 449.66 -28.81 510.84 76.53 567.81 195.19 608.94 278.24 644.21 296.84 659.26 232.86 657.45 104.7 651.62 -42.23 635.54 -146.05 612.07 -160.62 588.59 -80.07 558.85 56.46 520.41 197.04 477.95 289.38 420.2 308.88 344.26 255.44 262.45 157.77 166.83 54.02 69.47 -32.99 -6.34 -73.54 -51.61 -64.76 -46.23 -13.35 8.78 67.24 108.6 157.77 224.46 254.58 305.11 339.49 320.57 407.53 248.08 467.17 108.58 511.7 -47.99 545.41 -149.76 575.55 -145.69 601.19 -32.62 624.66 135.02 648.13 261.68 668.33 281.6 682.46 194.03 693.02 44.36 691.19 -86.02 672.24 -139 644.88 -98.25 598.63 17.91 537.99 159.98 460.18 325.92 472.22 310.52 617.85 208.38 746.04 139.4 864.78 94.18 935.44 74.47 933.17 69.54 854.2 82.74 722.69 105.31 595.21 132.69 519.39 160.27 533.92 183.74Q533.94 183.75 533.94 183.75" opacity="0.73"></path><path d="M499.65 239.75C589.8 260.87 715.63 292.98 831.87 336.68 906.46 382.53 913.48 442.98 856.82 517.34 753.41 591.8 632.93 672.97 524.49 749.19 443.52 803.21 403.72 828.48 401.53 811.26 432.51 755.79 480.8 664.75 531.69 559.51 586.44 479.63 627.99 447.47 653.14 486.38 671.77 591.48 675.56 734.65 668.03 864.94 657.7 929.3 640.95 899.11 619.82 780.91 598.7 629.2 574.2 511.52 544.69 473.43 512.38 525.57 470.16 638.56 414.93 762.61 353.16 859.3 276.82 891.27 189.52 856.04 106.07 766.26 27.46 649.78 -31.21 536.34 -56.71 438.57 -41.95 374.84 17.02 343.98 103.45 341.39 204.99 357.23 292.91 378.68 334.09 408.83 315.04 431.34 232.3 440.88 107.92 450.78 -22.19 445.78 -112.34 424.65 -129.58 403.54 -67.92 367.29 46.55 317.56 177.95 268.19 285.18 207.25 341.83 140.48 338.65 82.43 284.79 31.78 203.29 1.8 109.68 0.09 33.41 33.48 -12.13 103.55 -27.45 189.3 -8.77 280.74 33.82 348.54 95.52 361.8 163.99 310.9 229.56 198.74 297.63 59.21 355.67 -65.8 401.36 -126.13 446.19 -96.22 479.44 17.14 500.56 168.84 521.69 287.07 529.69 321.59 524.69 265.4 518.85 143.28 499.24 12.12 467.78 -77.5 438.82 -100.95 405.14 -49.85 375.99 52.01 365.95 179.26 377.6 295.35 420.61 378.51 493.85 423.42 595.17 428.48 710.78 407.01 814.26 363.35 887.08 316.97 905.74 279.12 864.57 241.37 769.36 219.36 646.12 213.34 539.79 209.48 482.41 218.62 499.65 239.75Q499.65 239.75 499.65 239.75" opacity="0.62"></path><path d="M465.93 470.12C543.57 488.9 652.51 520.34 760.76 562.1 845.39 602.41 881.99 649.49 866.34 697.32 804.91 735.74 712.67 763.99 610.64 772.48 511.11 759.23 431.97 718.24 379.47 650.19 353.02 573.14 350.68 492.5 363.95 429.68 391.8 408.77 421.99 437.93 447.44 520.51 475.15 638.12 492.7 764.73 498.25 861.85 503.33 896.94 496.7 855.62 477.92 746.95 459.14 611.62 429.11 497.98 388.61 441.66 347.64 456.71 295.94 531.64 235.69 636.37 177.69 744.93 116.58 821.38 59.79 850.22 17.58 830.98 -7.03 769.42 -5.19 683.94 22.69 584.22 79.57 490.71 159.54 413.62 242.03 350.18 317.42 307.23 365.09 280.14 366.98 264.13 319.68 254.9 227.81 246.21 112.31 240.37 -0.42 229.35 -78.06 210.58 -97.79 191.8 -53.88 166.15 37.33 136.58 152.65 109.85 262.37 84.92 342.94 68.39 382.43 62.94 377.34 74.96 337.31 109.46 269.84 157.61 195.72 224.16 129.83 299.28 73.46 360.14 40.06 399.44 29.25 399.12 35.38 350.73 57.78 257.44 89.18 135.12 128.47 16.63 168.31 -68.98 203.6 -91.28 240.39 -42.21 269.29 67.62 288.07 202.95 306.86 311.62 314.63 356.74 313.25 328.9 313.38 239.03 307.69 123.1 300.94 19.26 302.08 -49.55 310.6 -61.87 333.4 -21.41 373.14 60.96 433.49 163.85 514.47 265.52 604.97 358.18 701.35 426.12 788.38 468.31 847.97 488.76 869.92 491.44 844.21 485.56 777.41 470.28 678.39 457.35 570.32 452.46 486.34 446.11 446.21 451.33 465.91 470.11Q465.93 470.12 465.93 470.12" opacity="0.86"></path><path d="M431.91 624.09C593.07 656.95 776.75 690.81 845.85 697.68 773.08 673.99 609.44 586.68 453.77 455.92 340.11 377.23 294.68 404.74 284.91 577.88 299.5 783.57 300.72 861.55 267.86 712.94 235 487.71 171.17 407.32 99.63 512.49 52.45 701.61 46.59 805.65 117.19 779.1 229.78 654.84 358.58 506.17 407.25 393 314.07 294.69 117.07 235.08 -44.08 202.22 -36.54 169.36 130.19 166.35 316.85 207.72 418.26 263.94 395.08 361.33 306.71 442.52 190.83 426 119.81 287.1 102.97 73.9 110.1 -55.35 140.93 11.71 173.79 236.94 206.65 385.55 238.43 320.89 288.26 139.28 362.04 -9.76 484.35 -2.41 643.3 119.33 774.74 293.16 832.77 431.77 755.45 512.4 592.87 562.48 439.45 591.23 431.91 624.09Q431.91 624.09 431.91 624.09" opacity="0.63"></path><path d="M397.94 534.52C529.78 562.69 693.65 553.76 793.35 505.93 797.16 455.18 706.39 379.94 579.97 325.93 443.83 347.07 341.57 460.16 278.02 642.66 231.85 792.97 201.21 819.08 173.05 679.02 144.88 481.16 121.86 373.3 119.21 407.79 133.95 548.3 192.25 686.99 291.47 753.68 380.98 748.28 441.87 680.13 417.41 599.31 297.07 505.31 121.78 437.1 -10.05 408.94 -15.49 380.77 106.59 395.31 271.48 440.5 408.61 472.5 464.24 496.7 449.64 465.18 382.34 361.58 312 193.03 269.9 31.87 232.18 -23.28 228.52 73.11 256.69 270.95 284.84 411.06 342.16 396.4 428.69 266.75 519.59 104.88 633.89 21.65 738.12 37.43 789.66 128.35 763.92 247.55 647.45 347.11 503.21 443.76 392.52 506.35 397.92 534.51Q397.94 534.52 397.94 534.52" opacity="0.11"></path><path d="M363.94 298.72C467.75 322.19 604.01 314.68 711.82 289.28 768.69 277.41 753.34 277.82 689.98 320.77 594.36 411.82 497.8 551.26 421.95 697.65 348.76 785.49 299.49 771.67 276.02 645.02 252.55 477.37 257.1 358.82 289.61 335.45 324.78 403.93 384.71 513.61 449.57 608.44 482.16 681.99 472.61 705.04 398.54 693.16 273.52 663.91 127.75 629.36 23.94 605.89 9.37 582.42 89.51 572.25 217.72 560.82 354.35 532.03 454.34 472.34 504.56 368.04 502.78 175.16 444.31 82.82 464.51 304.95 487.97 431.64 539.22 455.01 607.09 384.39 666.49 255.2 721.71 140.65 744.98 80.35 725.53 68.16 650.45 104.38 531.04 156.93 420.03 223.01 349.39 275.24 363.92 298.71Q363.94 298.72 363.94 298.72" opacity="0.87"></path><path d="M329.81 172.96C407.31 191.74 511.42 211.01 608.08 238.37 687.18 276.25 724.37 338.55 723 429.59 693.88 530.98 646.61 641.3 599.25 727.26 546.25 758.84 506.15 719.61 487.37 610.97 468.59 475.63 472.92 362.19 493.37 302.78 508.19 303.26 526.16 349.89 530.66 412.72 507.42 488.51 450.31 545.27 357.46 574.22 247.03 597.21 135.31 597.75 57.81 578.97 38.24 560.2 82.53 523.87 167.87 468.34 275.89 406.86 378.59 320.79 457.77 220.38 518.11 132.94 553.72 66.4 574.05 52.15 585.63 97.8 597.22 203.63 616 338.97 634.77 447.61 658.96 494.45 679.93 476.64 692.14 404.44 685.83 314.04 650.1 237.26 595.54 170.83 512.75 137.83 418.5 132.49 346.92 137.68 310.24 154.18 329.81 172.96Q329.81 172.96 329.81 172.96" opacity="0.70"></path><path d="M295.94 294.05C427.78 322.21 578.03 427.1 653.12 576.57 679.01 690.09 650.37 717.08 622.21 577.02 594.04 379.14 571.68 267.1 508.86 264.76 396.86 333.78 223.78 385.71 91.94 357.54 86.51 329.37 206.53 226.45 340.8 120.51 471.55 85.93 551.11 175.14 579.28 373.02 607.45 513.08 578.89 508.93 485.05 432.32 387.7 319.76 290.51 265.88 295.94 294.05Q295.94 294.05 295.94 294.05" opacity="0.22"></path><path d="M261.92 530.25C453.26 567.81 601.14 694.93 563.59 543.01 526.03 293.79 317.26 219.76 125.92 182.2 149.94 144.65 348.68 157.79 386.24 407.01 423.79 558.93 285.94 492.7 261.92 530.25Q261.92 530.25 261.92 530.25" opacity="0.11"></path></g></svg>