<svg xmlns="http://www.w3.org/2000/svg" fill="none" viewBox="0 0 14 14" id="Government-Building-2--Streamline-Flex-Neon" height="14" width="14" style="background-color: #ffffff">
  <desc>
    Government Building 2 Streamline Icon: https://streamlinehq.com
  </desc>
  <g id="government-building-2--government-building-travel-places">
    <path id="Vector 572" stroke="#000cfe" stroke-linecap="round" stroke-linejoin="round" d="m6.99951 10.3159 0 2.537" stroke-width="1"></path>
    <path id="Vector 576" stroke="#000cfe" stroke-linecap="round" stroke-linejoin="round" d="m4.06982 10.3159 0 2.537" stroke-width="1"></path>
    <path id="Vector 577" stroke="#000cfe" stroke-linecap="round" stroke-linejoin="round" d="m9.89404 10.3159 0 2.537" stroke-width="1"></path>
    <path id="Vector 578" stroke="#000cfe" stroke-linecap="round" stroke-linejoin="round" d="M6.81817 4.21875c0.00005 -1.23276 -0.0289 -2.35836 0.18611 -3.429583 0.69226 -0.052223 1.31448 -0.052223 2.00674 0 0.10574 0.463473 0.18972 1.099293 0 1.670683 -0.794 0.12441 -1.42256 0.11241 -2.18549 0" stroke-width="1"></path>
    <path id="Subtract" stroke="#c71dff" stroke-linecap="round" stroke-linejoin="round" d="M11.5633 7.81125c0.462 0.05961 0.8133 0.4375 0.8407 0.90256 0.0646 1.09826 0.1536 3.10399 0.0451 4.48819 -3.64063 -0.2041 -7.25756 -0.2041 -10.89822 0 -0.10846 -1.3842 -0.0195 -3.38993 0.04513 -4.48819 0.02737 -0.46506 0.37867 -0.84295 0.8407 -0.90256 3.07012 -0.39612 6.05646 -0.39612 9.12659 0Z" stroke-width="1"></path>
    <path id="Vector 579" stroke="#c71dff" stroke-linecap="round" stroke-linejoin="round" d="M13.25 13.25c-4.17859 -0.2682 -8.32141 -0.2682 -12.5 0" stroke-width="1"></path>
    <path id="Subtract_2" stroke="#c71dff" d="M11.6651 7.82974c-0.0243 -0.76824 -0.0554 -1.77654 -0.0772 -2.49097 -0.0155 -0.50646 -0.4072 -0.9216 -0.9126 -0.95757 -2.47554 -0.17617 -4.92762 -0.17492 -7.40349 0.00375 -0.48261 0.03482 -0.85285 0.41796 -0.86164 0.90175 -0.01087 0.59812 -0.01725 1.39706 -0.02283 2.09636 -0.00121 0.15113 -0.00238 0.2976 -0.00355 0.43638 0.0175 -0.00324 0.03517 -0.00601 0.05301 -0.00832 3.07012 -0.39611 6.05646 -0.39611 9.1266 0.00001 0.0345 0.00445 0.0685 0.01069 0.1017 0.01861Z" stroke-width="1"></path>
  </g>
</svg>