<svg xmlns="http://www.w3.org/2000/svg" fill="none" viewBox="0 0 14 14" id="Notepad-List--Streamline-Flex-Neon.svg" height="14" width="14"><desc>Notepad List Streamline Icon: https://streamlinehq.com</desc><g id="notepad-list--content-notes-book-notepad-notebook-list-text-bullet"><path id="Intersect" stroke="#c71dff" stroke-linecap="round" stroke-linejoin="round" d="M0.959062 10.7693c0.162588 1.4393 1.331378 2.5819 2.778028 2.653C4.77947 13.4734 5.8434 13.5 7 13.5s2.22053 -0.0266 3.2629 -0.0777c1.4467 -0.0711 2.6155 -1.2137 2.778 -2.653 0.1142 -1.01075 0.2091 -2.04768 0.2091 -3.10436 0 -1.05669 -0.0949 -2.09362 -0.2091 -3.10438 -0.1625 -1.43924 -1.3313 -2.58193 -2.778 -2.65294C9.22053 1.85645 8.1566 1.82983 7 1.82983s-2.22053 0.02662 -3.26291 0.07779c-1.44665 0.07101 -2.61544 1.2137 -2.778028 2.65294C0.844879 5.57132 0.75 6.60825 0.75 7.66494c0 1.05668 0.094879 2.09361 0.209062 3.10436Z" stroke-width="1"></path><path id="Line 3" stroke="#000cfe" stroke-linecap="round" stroke-linejoin="round" d="m4.25195 0.5 0 2.26562" stroke-width="1"></path><path id="Line 5" stroke="#000cfe" stroke-linecap="round" stroke-linejoin="round" d="m7 0.5 0 2.26562" stroke-width="1"></path><path id="Line 6" stroke="#000cfe" stroke-linecap="round" stroke-linejoin="round" d="m9.74805 0.5 0 2.26562" stroke-width="1"></path><path id="Vector 829" stroke="#000cfe" stroke-linecap="round" stroke-linejoin="round" d="m6 6.5 4 0" stroke-width="1"></path><path id="Vector 1000" stroke="#000cfe" stroke-linecap="round" stroke-linejoin="round" d="M4 6.5h-0.5" stroke-width="1"></path><path id="Vector 830" stroke="#000cfe" stroke-linecap="round" stroke-linejoin="round" d="M6 9.5h2.5" stroke-width="1"></path><path id="Vector 1001" stroke="#000cfe" stroke-linecap="round" stroke-linejoin="round" d="M4 9.5h-0.5" stroke-width="1"></path></g></svg>