<svg xmlns="http://www.w3.org/2000/svg" fill="none" viewBox="-1 -1 28 28" id="Document-Certificate--Streamline-Flex-Neon" height="28" width="28"><desc>Document Certificate Streamline Icon: https://streamlinehq.com</desc><g id="document-certificate--document-contract-license-permission-award"><path id="Intersect" stroke="#c71dff" stroke-linecap="round" stroke-linejoin="round" d="M13 19.09607142857143c-2.773847142857143 0 -5.479444285714286 -0.24495714285714285 -8.087727142857144 -0.4720857142857143C3.135451428571429 18.469118571428574 1.676335142857143 17.098714285714287 1.4167084285714286 15.334168571428572 1.162874142857143 13.608975714285714 0.9285714285714286 11.830167142857144 0.9285714285714286 10.012284285714287c0 -1.8178642857142857 0.23430271428571428 -3.596672857142857 0.48813514285714293 -5.321865714285714C1.6763332857142859 2.925872857142857 3.135451428571429 1.555463 4.912272857142858 1.4006627142857142 7.520555714285714 1.1734245714285714 10.226152857142857 0.9285714285714286 13 0.9285714285714286c2.773847142857143 0 5.479462857142858 0.24485314285714285 8.08767142857143 0.47209128571428577 1.7769142857142857 0.15480214285714286 3.2360714285714285 1.525210142857143 3.4957000000000003 3.289755857142857 0.15172857142857143 1.0312157142857143 0.2964 2.0815785714285715 0.38832857142857147 3.148005714285714" stroke-width="2"></path><path id="Vector 1166" stroke="#000cfe" stroke-linecap="round" stroke-linejoin="round" d="M6.5 5.33611h11.375" stroke-width="2"></path><path id="Vector 1167" stroke="#000cfe" stroke-linecap="round" stroke-linejoin="round" d="M6.5 10.056502857142858h3.25" stroke-width="2"></path><path id="Vector" stroke="#000cfe" stroke-linecap="round" stroke-linejoin="round" d="M23.4871 18.684714285714286c0.19741428571428574 2.023542857142857 0.22174285714285716 4.056185714285714 0.05237142857142857 6.081771428571429 -0.022285714285714287 0.26594285714285715 -0.33261428571428575 0.3985428571428572 -0.5400571428571429 0.23102857142857142l-1.8796142857142857 -1.5182142857142857c-0.29547142857142855 -0.23882857142857142 -0.7177857142857144 -0.23882857142857142 -1.013442857142857 0l-1.8794285714285714 1.5182142857142857c-0.20746142857142857 0.16751428571428573 -0.5178828571428572 0.03491428571428572 -0.5401128571428572 -0.23102857142857142 -0.16933428571428571 -2.0255857142857145 -0.14509857142857144 -4.058228571428572 0.05224142857142857 -6.081771428571429" stroke-width="2"></path><path id="Vector_2" stroke="#000cfe" stroke-linecap="round" stroke-linejoin="round" d="M20.6141 19.573542857142858c2.4622 0 4.458257142857143 -1.9961500000000003 4.458257142857143 -4.458405714285714 0 -2.4622742857142854 -1.996057142857143 -4.458331428571429 -4.458257142857143 -4.458331428571429 -2.4623485714285716 0 -4.458405714285714 1.996057142857143 -4.458405714285714 4.458331428571429 0 2.4622557142857144 1.996057142857143 4.458405714285714 4.458405714285714 4.458405714285714Z" stroke-width="2"></path><path id="vector" stroke="#000cfe" stroke-linecap="round" stroke-linejoin="round" d="M20.613171428571427 15.713267142857145c-0.3303857142857143 0 -0.5981857142857143 -0.2677814285714286 -0.5981857142857143 -0.5980928571428572s0.2678 -0.5980928571428572 0.5981857142857143 -0.5980928571428572" stroke-width="2"></path><path id="vector_2" stroke="#000cfe" stroke-linecap="round" stroke-linejoin="round" d="M20.613914285714287 15.713267142857145c0.3303857142857143 0 0.5981857142857143 -0.2677814285714286 0.5981857142857143 -0.5980928571428572s-0.2678 -0.5980928571428572 -0.5981857142857143 -0.5980928571428572" stroke-width="2"></path></g></svg>