<svg xmlns="http://www.w3.org/2000/svg" fill="none" viewBox="0 0 14 14" id="Check-Thick--Streamline-Flex-Neon.svg" height="14" width="14"><desc>Check Thick Streamline Icon: https://streamlinehq.com</desc><g id="check-thick--check-form-validation-checkmark-success-add-addition-1-tick"><path id="Vector (Stroke)" fill-rule="evenodd" stroke="#c71dff" stroke-linecap="round" stroke-linejoin="round" d="M12.7868 1.33594c0.6627 0.73045 0.6077 1.85976 -0.1228 2.52238 -1.3725 1.24511 -2.2897 2.26096 -3.04476 3.43949 -0.76212 1.18955 -1.40801 2.62111 -2.15035 4.75349 -0.20369 0.5852 -0.69612 1.0229 -1.30109 1.1566 -0.60497 0.1337 -1.236 -0.0557 -1.66731 -0.5005L1.25375 9.35917C0.567196 8.65116 0.584589 7.52065 1.2926 6.8341c0.708 -0.68656 1.83852 -0.66916 2.52507 0.03884l1.30246 1.34317c0.45671 -1.05297 0.93865 -1.98133 1.49194 -2.84494 0.98348 -1.53506 2.14334 -2.78913 3.65243 -4.15805 0.7304 -0.662623 1.8597 -0.607633 2.5223 0.12282Z" clip-rule="evenodd" stroke-width="1"></path></g></svg>