<svg width="100" height="100" viewBox="0 0 100 100" fill="none" xmlns="http://www.w3.org/2000/svg">
<path d="M94.5455 52.0087C94.5463 45.3604 93.0591 38.7963 90.1927 32.7976C87.3264 26.799 83.1537 21.5182 77.9808 17.3422C72.8077 13.1661 66.7656 10.201 60.2975 8.664C53.8294 7.1272 47.0992 7.05761 40.6006 8.46051C34.1021 9.86331 27.9999 12.703 22.7417 16.7711C17.4835 20.8393 13.2026 26.0329 10.2129 31.971C7.22321 37.909 5.60051 44.4409 5.46391 51.0878C5.32741 57.7346 6.68031 64.3278 9.42361 70.3837H90.5765C93.1967 64.6125 94.5501 58.3468 94.5455 52.0087Z" fill="#B8ECFF"/>
<path d="M79.8455 64.7073C79.8051 59.1692 77.5768 53.8717 73.6464 49.9698C69.716 46.0678 64.4023 43.8782 58.864 43.8782C53.3258 43.8782 48.012 46.0678 44.0816 49.9698C40.1512 53.8717 37.9228 59.1692 37.8825 64.7073V68.0972H46.0043V74.8648H71.7159V68.0972H79.8455V64.7073Z" fill="#87898C"/>
<path d="M58.859 43.7265C56.1036 43.7263 53.3752 44.269 50.8297 45.3233C48.284 46.3775 45.9709 47.923 44.0226 49.8712C42.0741 51.8196 40.5286 54.1325 39.4741 56.6781C38.4198 59.2237 37.877 61.9521 37.877 64.7074V68.0974H37.9449C38.2812 62.7792 40.6309 57.7889 44.5159 54.1416C48.401 50.4944 53.5297 48.4643 58.8584 48.4643C64.1871 48.4643 69.3159 50.4944 73.2009 54.1416C77.0861 57.7889 79.4358 62.7792 79.772 68.0974H79.8455V64.7074C79.8455 61.9516 79.3026 59.223 78.2478 56.6771C77.1931 54.1312 75.6472 51.818 73.6983 49.8697C71.7495 47.9214 69.436 46.376 66.8897 45.3219C64.3436 44.2679 61.6147 43.7258 58.859 43.7265Z" fill="#87898C"/>
<path d="M79.8455 64.7073C79.8051 59.1692 77.5768 53.8717 73.6464 49.9698C69.716 46.0678 64.4023 43.8782 58.864 43.8782C53.3258 43.8782 48.012 46.0678 44.0816 49.9698C40.1512 53.8717 37.9228 59.1692 37.8825 64.7073V68.0972H46.0043V74.8648H71.7159V68.0972H79.8455V64.7073Z" stroke="#45413C" stroke-linecap="round" stroke-linejoin="round"/>
<path d="M54.1206 44.4036C54.1396 45.6477 54.6472 46.8342 55.5337 47.7072C56.4201 48.5802 57.6144 49.0695 58.8585 49.0695C60.1027 49.0695 61.2969 48.5802 62.1834 47.7072C63.0698 46.8342 63.5773 45.6477 63.5965 44.4036V39.6651H54.1206V44.4036Z" fill="#BF8256"/>
<path d="M54.1206 44.3847C57.2112 45.3112 60.5058 45.3112 63.5965 44.3847V39.6651H54.1206V44.3847Z" fill="#BF8256"/>
<path d="M58.8591 49.141C57.6026 49.141 56.3974 48.6419 55.5088 47.7536C54.6202 46.8651 54.1208 45.6601 54.1206 44.4036V39.6651H63.5965V44.4036C63.5962 45.6599 63.0969 46.8648 62.2086 47.7531C61.3202 48.6416 60.1154 49.1407 58.8591 49.141Z" stroke="#45413C" stroke-linecap="round" stroke-linejoin="round"/>
<path d="M72.3841 25.4729V22.0919C72.3517 18.5274 70.9131 15.1199 68.381 12.6109C65.8491 10.1017 62.4286 8.694 58.864 8.694C55.2994 8.694 51.8789 10.1017 49.347 12.6109C46.8149 15.1199 45.3762 18.5274 45.3439 22.0919V25.4729C44.6267 25.4729 43.939 25.7578 43.4319 26.2649C42.9249 26.772 42.64 27.4598 42.64 28.1768C42.64 28.894 42.9249 29.5817 43.4319 30.0888C43.939 30.5959 44.6267 30.8807 45.3439 30.8807C45.4007 30.8807 45.4553 30.8674 45.5098 30.864C45.9869 34.0646 47.5977 36.9874 50.0487 39.1002C52.4997 41.213 55.628 42.3751 58.864 42.3751C62.0999 42.3751 65.2282 41.213 67.6793 39.1002C70.1303 36.9874 71.7411 34.0646 72.2182 30.864C72.275 30.864 72.3295 30.8807 72.3841 30.8807C73.1012 30.8807 73.7889 30.5959 74.296 30.0888C74.8031 29.5817 75.088 28.894 75.088 28.1768C75.088 27.4598 74.8031 26.772 74.296 26.2649C73.7889 25.7578 73.1012 25.4729 72.3841 25.4729Z" fill="#BF8256" stroke="#45413C" stroke-linecap="round" stroke-linejoin="round"/>
<path d="M51.0848 32.9087C52.0184 32.9087 52.7753 32.1517 52.7753 31.2182C52.7753 30.2845 52.0184 29.5277 51.0848 29.5277C50.1511 29.5277 49.3943 30.2845 49.3943 31.2182C49.3943 32.1517 50.1511 32.9087 51.0848 32.9087Z" fill="#BF8256"/>
<path d="M66.6333 32.9087C67.5668 32.9087 68.3238 32.1517 68.3238 31.2182C68.3238 30.2845 67.5668 29.5277 66.6333 29.5277C65.6996 29.5277 64.9428 30.2845 64.9428 31.2182C64.9428 32.1517 65.6996 32.9087 66.6333 32.9087Z" fill="#BF8256"/>
<path d="M56.1551 35.3375C56.9259 35.9534 57.8833 36.2889 58.8701 36.2889C59.8568 36.2889 60.8142 35.9534 61.5852 35.3375" stroke="#45413C" stroke-linecap="round" stroke-linejoin="round"/>
<path d="M66.2947 26.8249C66.1275 26.4234 65.8452 26.0803 65.4832 25.8391C65.1214 25.5978 64.6962 25.4689 64.2612 25.4689C63.8262 25.4689 63.4011 25.5978 63.0391 25.8391C62.6773 26.0803 62.3949 26.4234 62.2277 26.8249" stroke="#45413C" stroke-linecap="round" stroke-linejoin="round"/>
<path d="M55.4668 26.8249C55.2996 26.4234 55.0173 26.0803 54.6553 25.8391C54.2935 25.5978 53.8682 25.4689 53.4333 25.4689C52.9984 25.4689 52.5732 25.5978 52.2112 25.8391C51.8493 26.0803 51.567 26.4234 51.3998 26.8249" stroke="#45413C" stroke-linecap="round" stroke-linejoin="round"/>
<path d="M71.4108 12.7663C71.356 12.6796 71.3224 12.5811 71.3127 12.479C71.3031 12.3768 71.3176 12.2739 71.3551 12.1783C71.5853 11.5656 71.703 10.9164 71.7025 10.2618C71.697 9.43701 71.5085 8.62371 71.1507 7.88061C70.7929 7.13731 70.2747 6.48291 69.6334 5.96421C69.5046 5.86781 69.3456 5.82011 69.1851 5.82971C69.0244 5.83931 68.8722 5.90541 68.7559 6.01661C68.2722 6.42541 67.7358 6.76741 67.1611 7.03331C67.1634 6.23351 67.0027 5.44161 66.6889 4.70581C66.6534 4.61101 66.5967 4.52551 66.5232 4.45581C66.4498 4.38611 66.3615 4.33391 66.265 4.30341C66.1684 4.27281 66.0662 4.26461 65.966 4.27931C65.8659 4.29401 65.7703 4.33141 65.6867 4.38841C64.8834 4.96621 63.9059 5.25011 62.9182 5.19251C60.721 5.08111 60.1018 4.51651 54.8053 4.51651C50.8519 4.51651 48.1391 6.94761 48.8307 9.26951C48.8661 9.38961 48.8676 9.51701 48.8352 9.63781C48.8028 9.75871 48.7377 9.86821 48.6469 9.95441C47.1755 11.3392 46.0029 13.0104 45.2014 14.8653C44.3998 16.7202 43.9864 18.7194 43.9864 20.74V24.7958C43.9864 25.1544 44.1288 25.4983 44.3824 25.7518C44.6358 26.0053 44.9797 26.1478 45.3383 26.1478C45.6968 26.1478 46.0407 26.0053 46.2943 25.7518C46.5478 25.4983 46.6903 25.1544 46.6903 24.7958C46.6893 22.8419 47.1596 20.9167 48.0613 19.1833C48.9629 17.4499 50.2694 15.9597 51.8698 14.8388C52.1252 14.6603 52.4344 14.5753 52.7452 14.5982C53.0561 14.6211 53.3494 14.7506 53.5759 14.9646C54.3836 15.6646 55.4241 16.0368 56.4925 16.0081C57.1519 16.0122 57.8048 15.8779 58.4091 15.6139C58.5618 15.5446 58.7353 15.5368 58.8935 15.5922C59.0518 15.6476 59.1826 15.7619 59.2588 15.9112C59.8159 16.8153 60.6064 17.5525 61.5471 18.0453C62.4877 18.5382 63.5437 18.7685 64.6042 18.712C65.8008 18.7224 66.9796 18.4219 68.0253 17.84C68.1726 17.7474 68.3496 17.7139 68.5207 17.7463C68.6917 17.7788 68.8442 17.8747 68.9474 18.0149C70.303 20.0163 71.0274 22.3784 71.0266 24.7958C71.0266 24.9733 71.0615 25.1492 71.1295 25.3132C71.1975 25.4772 71.297 25.6262 71.4225 25.7518C71.5481 25.8774 71.6971 25.9769 71.8611 26.0449C72.0252 26.1128 72.201 26.1478 72.3785 26.1478C72.556 26.1478 72.7319 26.1128 72.8959 26.0449C73.0599 25.9769 73.209 25.8774 73.3345 25.7518C73.46 25.6262 73.5597 25.4772 73.6276 25.3132C73.6955 25.1492 73.7305 24.9733 73.7305 24.7958V20.7399C73.7343 17.9151 72.9293 15.1483 71.4108 12.7663Z" fill="#614B44"/>
<path d="M48.6436 12.5447C48.7344 12.4587 48.7995 12.3494 48.8319 12.2288C48.8644 12.1081 48.8628 11.9808 48.8273 11.8609C48.1358 9.53899 50.8486 7.10679 54.802 7.10679C60.0985 7.10679 60.7176 7.67029 62.9148 7.78279C63.9025 7.84129 64.8802 7.55769 65.6833 6.97989C65.767 6.92279 65.8625 6.88539 65.9626 6.87069C66.0629 6.85589 66.1651 6.86419 66.2617 6.89479C66.3582 6.92529 66.4465 6.97739 66.52 7.04709C66.5934 7.11689 66.6501 7.20239 66.6856 7.29729C66.9008 7.82709 67.0504 8.38139 67.1311 8.94769C67.1403 9.02179 67.1679 9.09269 67.2112 9.15369C67.2547 9.21459 67.3125 9.26389 67.3796 9.29699C67.4468 9.33009 67.5211 9.34599 67.5958 9.34339C67.6706 9.34069 67.7436 9.31949 67.8082 9.28179C68.1426 9.08769 68.459 8.86409 68.7536 8.61359C68.87 8.50249 69.0221 8.43619 69.1828 8.42659C69.3434 8.41699 69.5023 8.46469 69.6312 8.56129C70.5743 9.33269 71.2446 10.3867 71.5433 11.5681C71.6476 11.1431 71.7003 10.7071 71.7003 10.2696C71.6947 9.44469 71.5063 8.63139 71.1485 7.88829C70.7907 7.14519 70.2725 6.49069 69.6312 5.97209C69.5023 5.87549 69.3434 5.82779 69.1828 5.83739C69.0221 5.84699 68.87 5.91329 68.7536 6.02439C68.27 6.43309 67.7335 6.77509 67.1589 7.04109C67.1611 6.24119 67.0004 5.44929 66.6867 4.71359C66.6512 4.61879 66.5945 4.53329 66.5211 4.46359C66.4476 4.39379 66.3593 4.34169 66.2628 4.31119C66.1662 4.28059 66.064 4.27239 65.9637 4.28709C65.8636 4.30179 65.7681 4.33919 65.6844 4.39619C64.8812 4.97399 63.9036 5.25789 62.9159 5.20029C60.7187 5.08889 60.0996 4.52429 54.8031 4.52429C50.8497 4.52429 48.1369 6.95539 48.8284 9.27729C48.8639 9.39729 48.8654 9.52479 48.833 9.64559C48.8006 9.76649 48.7355 9.87599 48.6447 9.96219C47.1746 11.3463 46.003 13.0164 45.2019 14.8698C44.4008 16.7232 43.9871 18.7209 43.9864 20.74V23.3292C43.9861 21.3089 44.3992 19.3101 45.2001 17.4554C46.001 15.6009 47.1728 13.9296 48.6436 12.5447Z" fill="#A86C4D"/>
<path d="M71.4108 12.7663C71.356 12.6796 71.3224 12.5811 71.3127 12.479C71.3031 12.3768 71.3176 12.2739 71.3551 12.1783C71.5853 11.5656 71.703 10.9164 71.7025 10.2618C71.697 9.43701 71.5085 8.62371 71.1507 7.88061C70.7929 7.13731 70.2747 6.48291 69.6334 5.96421C69.5046 5.86781 69.3456 5.82011 69.1851 5.82971C69.0244 5.83931 68.8722 5.90541 68.7559 6.01661C68.2722 6.42541 67.7358 6.76741 67.1611 7.03331C67.1634 6.23351 67.0027 5.44161 66.6889 4.70581C66.6534 4.61101 66.5967 4.52551 66.5232 4.45581C66.4498 4.38611 66.3615 4.33391 66.265 4.30341C66.1684 4.27281 66.0662 4.26461 65.966 4.27931C65.8659 4.29401 65.7703 4.33141 65.6867 4.38841C64.8834 4.96621 63.9059 5.25011 62.9182 5.19251C60.721 5.08111 60.1018 4.51651 54.8053 4.51651C50.8519 4.51651 48.1391 6.94761 48.8307 9.26951C48.8661 9.38961 48.8676 9.51701 48.8352 9.63781C48.8028 9.75871 48.7377 9.86821 48.6469 9.95441C47.1755 11.3392 46.0029 13.0104 45.2014 14.8653C44.3998 16.7202 43.9864 18.7194 43.9864 20.74V24.7958C43.9864 25.1544 44.1288 25.4983 44.3824 25.7518C44.6358 26.0053 44.9797 26.1478 45.3383 26.1478C45.6968 26.1478 46.0407 26.0053 46.2943 25.7518C46.5478 25.4983 46.6903 25.1544 46.6903 24.7958C46.6893 22.8419 47.1596 20.9167 48.0613 19.1833C48.9629 17.4499 50.2694 15.9597 51.8698 14.8388C52.1252 14.6603 52.4344 14.5753 52.7452 14.5982C53.0561 14.6211 53.3494 14.7506 53.5759 14.9646C54.3836 15.6646 55.4241 16.0368 56.4925 16.0081C57.1519 16.0122 57.8048 15.8779 58.4091 15.6139C58.5618 15.5446 58.7353 15.5368 58.8935 15.5922C59.0518 15.6476 59.1826 15.7619 59.2588 15.9112C59.8159 16.8153 60.6064 17.5525 61.5471 18.0453C62.4877 18.5382 63.5437 18.7685 64.6042 18.712C65.8008 18.7224 66.9796 18.4219 68.0253 17.84C68.1726 17.7474 68.3496 17.7139 68.5207 17.7463C68.6917 17.7788 68.8442 17.8747 68.9474 18.0149C70.303 20.0163 71.0274 22.3784 71.0266 24.7958C71.0266 24.9733 71.0615 25.1492 71.1295 25.3132C71.1975 25.4772 71.297 25.6262 71.4225 25.7518C71.5481 25.8774 71.6971 25.9769 71.8611 26.0449C72.0252 26.1128 72.201 26.1478 72.3785 26.1478C72.556 26.1478 72.7319 26.1128 72.8959 26.0449C73.0599 25.9769 73.209 25.8774 73.3345 25.7518C73.46 25.6262 73.5597 25.4772 73.6276 25.3132C73.6955 25.1492 73.7305 24.9733 73.7305 24.7958V20.7399C73.7343 17.9151 72.9293 15.1483 71.4108 12.7663Z" stroke="#45413C" stroke-linecap="round" stroke-linejoin="round"/>
<path d="M67.16 7.03329C65.1677 8.29059 60.8869 7.89639 60.8869 7.89639" stroke="#45413C" stroke-linecap="round" stroke-linejoin="round"/>
<path d="M58.859 32.2327V32.9087" stroke="#45413C" stroke-linecap="round" stroke-linejoin="round"/>
<path d="M56.831 32.2327V32.9087" stroke="#45413C" stroke-linecap="round" stroke-linejoin="round"/>
<path d="M54.802 32.9087V33.5847" stroke="#45413C" stroke-linecap="round" stroke-linejoin="round"/>
<path d="M60.8869 32.2327V32.9087" stroke="#45413C" stroke-linecap="round" stroke-linejoin="round"/>
<path d="M62.9148 32.9087V33.5847" stroke="#45413C" stroke-linecap="round" stroke-linejoin="round"/>
<path d="M64.2668 34.9366V35.6126" stroke="#45413C" stroke-linecap="round" stroke-linejoin="round"/>
<path d="M53.45 34.9366V35.6126" stroke="#45413C" stroke-linecap="round" stroke-linejoin="round"/>
<path d="M9.42349 70.3837C12.9568 78.1836 18.6632 84.7997 25.8596 89.4401C33.0559 94.0805 41.4373 96.5484 50 96.5484C58.5627 96.5484 66.9441 94.0805 74.1404 89.4401C81.3368 84.7997 87.0432 78.1836 90.5765 70.3837H9.42349Z" fill="#DAEDF7"/>
<path d="M6.56821 70.3837H93.4318" stroke="#45413C" stroke-linecap="round" stroke-linejoin="round"/>
<path d="M1.55679 70.3837H4.34089" stroke="#45413C" stroke-linecap="round" stroke-linejoin="round"/>
<path d="M95.6591 70.3837H98.4432" stroke="#45413C" stroke-linecap="round" stroke-linejoin="round"/>
<path opacity="0.15" d="M59.535 91.3679C73.7394 91.3679 85.2544 90.3074 85.2544 88.9992C85.2544 87.691 73.7394 86.6305 59.535 86.6305C45.3305 86.6305 33.8155 87.691 33.8155 88.9992C33.8155 90.3074 45.3305 91.3679 59.535 91.3679Z" fill="#45413C"/>
<path d="M81.4045 84.5992H36.3112L36.8758 86.6038C36.9736 86.9979 37.2005 87.3479 37.5205 87.598C37.8403 87.8481 38.2348 87.9839 38.6409 87.9836H79.0782C79.4834 87.9838 79.8771 87.8484 80.1966 87.5989C80.516 87.3495 80.7428 87.0003 80.841 86.6071L81.4045 84.5992Z" fill="#BDBEC0" stroke="#45413C" stroke-linejoin="round"/>
<path d="M83.2242 83.3887C83.2239 83.7099 83.0962 84.0177 82.869 84.2447C82.6418 84.4717 82.3338 84.5992 82.0126 84.5992H35.7043C35.3832 84.5992 35.0753 84.4717 34.8483 84.2446C34.6212 84.0177 34.4937 83.7098 34.4937 83.3887V55.6937C34.4937 55.103 34.7284 54.5364 35.1461 54.1188C35.5637 53.7011 36.1303 53.4664 36.721 53.4664H80.997C81.5876 53.4664 82.1541 53.701 82.5719 54.1188C82.9896 54.5364 83.2242 55.103 83.2242 55.6937V83.3887Z" fill="#F8F8F8"/>
<path d="M83.2242 55.6937C83.2242 55.103 82.9896 54.5364 82.5719 54.1188C82.1541 53.7011 81.5876 53.4664 80.997 53.4664H36.721C36.1303 53.4664 35.5637 53.701 35.1461 54.1188C34.7284 54.5364 34.4937 55.103 34.4937 55.6937V62.7352C34.4937 61.7596 35.2844 59.5569 36.26 59.5569H81.458C82.4336 59.5569 83.2242 61.7596 83.2242 62.7352V55.6937Z" fill="white"/>
<path d="M83.2242 83.3887C83.2239 83.7099 83.0962 84.0177 82.869 84.2447C82.6418 84.4717 82.3338 84.5992 82.0126 84.5992H35.7043C35.3832 84.5992 35.0753 84.4717 34.8483 84.2446C34.6212 84.0177 34.4937 83.7098 34.4937 83.3887V55.6937C34.4937 55.103 34.7284 54.5364 35.1461 54.1188C35.5637 53.7011 36.1303 53.4664 36.721 53.4664H80.997C81.5876 53.4664 82.1541 53.701 82.5719 54.1188C82.9896 54.5364 83.2242 55.103 83.2242 55.6937V83.3887Z" stroke="#45413C" stroke-linejoin="round"/>
<path d="M62.123 71.6577C62.1181 71.2508 62.1985 70.8475 62.3591 70.4736C62.5197 70.0998 62.7568 69.7638 63.0552 69.4872C62.924 69.1633 62.7138 68.8775 62.4438 68.6557C62.1738 68.434 61.8525 68.2833 61.5094 68.2176C61.0512 68.2153 60.602 68.3459 60.2164 68.5936C59.8308 68.8413 59.5253 69.1953 59.3367 69.613C59.1482 69.1953 58.8426 68.8413 58.457 68.5936C58.0714 68.3459 57.6223 68.2153 57.164 68.2176C55.8277 68.3769 54.9568 70.201 55.2074 72.2924C55.4579 74.3838 56.7386 75.9485 58.0694 75.7904C58.3249 75.7508 58.5694 75.6587 58.7875 75.52C59.0056 75.3812 59.1926 75.1987 59.3367 74.9841C59.481 75.1988 59.668 75.3814 59.8864 75.5202C60.1047 75.659 60.3495 75.7509 60.6052 75.7904C61.5785 75.9017 62.5228 75.0932 63.0552 73.8304C62.7564 73.5536 62.5191 73.2172 62.3585 72.8429C62.1979 72.4686 62.1176 72.0648 62.123 71.6577Z" fill="white" stroke="#45413C" stroke-linejoin="round"/>
<path d="M61.025 63.9702C60.7082 64.2357 60.4552 64.5689 60.2845 64.9454C60.1139 65.3218 60.0302 65.7319 60.0394 66.1452C60.4441 66.2299 60.8627 66.2221 61.264 66.1221C61.6651 66.0222 62.0385 65.8328 62.3561 65.5681C62.6738 65.3034 62.9274 64.9703 63.098 64.5936C63.2686 64.217 63.3518 63.8066 63.3414 63.3934C62.9367 63.3098 62.5185 63.3184 62.1176 63.4182C61.7166 63.5181 61.3433 63.7067 61.025 63.9702Z" fill="white" stroke="#45413C" stroke-linejoin="round"/>
<path d="M83.2086 71.0641L86.5106 71.0117C86.7772 71.0073 87.0421 71.0555 87.2901 71.1535C87.5381 71.2516 87.7644 71.3976 87.956 71.5832C88.1475 71.7687 88.3006 71.9902 88.4064 72.235C88.5123 72.4797 88.5689 72.7429 88.573 73.0096L88.6387 77.0699C88.6428 77.3367 88.5944 77.6017 88.4961 77.8497C88.3978 78.0977 88.2516 78.3239 88.0659 78.5154C87.8801 78.707 87.6585 78.86 87.4136 78.9659C87.1687 79.0718 86.9053 79.1283 86.6386 79.1324L83.3356 79.1847C82.6914 79.2023 82.0627 78.9866 81.5651 78.5774C81.0674 78.1681 80.7343 77.5928 80.6272 76.9575C80.4543 75.7707 80.4349 74.5666 80.5693 73.3749C80.6566 72.7362 80.9718 72.1506 81.4568 71.7259C81.9419 71.3013 82.5639 71.0662 83.2086 71.0641Z" fill="#BF8256"/>
<path d="M83.1708 73.6533L86.5696 73.5998C87.0245 73.5887 87.4704 73.7276 87.8385 73.9951C88.2066 74.2626 88.4765 74.6438 88.6064 75.0799L88.573 73.0096C88.5689 72.7429 88.5123 72.4797 88.4064 72.235C88.3006 71.9902 88.1475 71.7687 87.956 71.5831C87.7644 71.3976 87.5381 71.2516 87.2901 71.1535C87.0421 71.0555 86.7772 71.0073 86.5106 71.0117L83.2086 71.0641C82.5642 71.0667 81.9424 71.3022 81.4579 71.727C80.9732 72.1519 80.6585 72.7374 80.5715 73.376C80.4928 74.1347 80.4772 74.8987 80.5248 75.6601C80.6866 75.0827 81.0327 74.5741 81.5105 74.2119C81.9881 73.8495 82.5712 73.6534 83.1708 73.6533Z" fill="#E09F7E"/>
<path d="M83.2086 71.0641L86.5106 71.0117C86.7772 71.0073 87.0421 71.0555 87.2901 71.1535C87.5381 71.2516 87.7644 71.3976 87.956 71.5832C88.1475 71.7687 88.3006 71.9902 88.4064 72.235C88.5123 72.4797 88.5689 72.7429 88.573 73.0096L88.6387 77.0699C88.6428 77.3367 88.5944 77.6017 88.4961 77.8497C88.3978 78.0977 88.2516 78.3239 88.0659 78.5154C87.8801 78.707 87.6585 78.86 87.4136 78.9659C87.1687 79.0718 86.9053 79.1283 86.6386 79.1324L83.3356 79.1847C82.6914 79.2023 82.0627 78.9866 81.5651 78.5774C81.0674 78.1681 80.7343 77.5928 80.6272 76.9575C80.4543 75.7707 80.4349 74.5666 80.5693 73.3749C80.6566 72.7362 80.9718 72.1506 81.4568 71.7259C81.9419 71.3013 82.5639 71.0662 83.2086 71.0641Z" stroke="#45413C" stroke-linecap="round" stroke-linejoin="round"/>
<path d="M36.3702 65.6017L33.0694 65.4903C32.8028 65.4812 32.5406 65.4195 32.298 65.309C32.0552 65.1985 31.8367 65.0412 31.6547 64.8461C31.4729 64.6511 31.3311 64.422 31.2378 64.1722C31.1443 63.9224 31.1011 63.6566 31.1105 63.39L31.2508 59.3319C31.2696 58.7937 31.5015 58.285 31.8954 57.9177C32.2893 57.5503 32.8129 57.3544 33.3511 57.373L36.6519 57.4844C37.2961 57.4994 37.9131 57.7465 38.3894 58.1803C38.8659 58.6142 39.1695 59.2054 39.2445 59.8453C39.3565 61.0381 39.3145 62.2403 39.1198 63.4223C39.0014 64.0562 38.6579 64.6258 38.1527 65.0264C37.6473 65.4268 37.0143 65.6312 36.3702 65.6017Z" fill="#BF8256"/>
<path d="M36.5384 63.0169L33.1407 62.8989C32.6853 62.8873 32.2464 62.7261 31.8919 62.44C31.5375 62.154 31.2871 61.7591 31.1796 61.3164L31.1072 63.3867C31.0978 63.6538 31.1412 63.9201 31.235 64.1703C31.3289 64.4207 31.4711 64.6499 31.6537 64.8451C31.8364 65.0402 32.0558 65.1973 32.2992 65.3075C32.5428 65.4177 32.8056 65.4786 33.0727 65.487L36.3736 65.5983C37.0166 65.6272 37.6484 65.4229 38.153 65.0232C38.6575 64.6234 39.0008 64.055 39.1198 63.4223C39.2371 62.6687 39.2915 61.9065 39.2824 61.1438C39.0924 61.713 38.7213 62.2042 38.2258 62.5424C37.7302 62.8806 37.1375 63.0473 36.5384 63.0169Z" fill="#BF8256"/>
<path d="M36.3702 65.6017L33.0694 65.4903C32.8028 65.4812 32.5406 65.4195 32.298 65.309C32.0552 65.1985 31.8367 65.0412 31.6547 64.8461C31.4729 64.6511 31.3311 64.422 31.2378 64.1722C31.1443 63.9224 31.1011 63.6566 31.1105 63.39L31.2508 59.3319C31.2696 58.7937 31.5015 58.285 31.8954 57.9177C32.2893 57.5503 32.8129 57.3544 33.3511 57.373L36.6519 57.4844C37.2961 57.4994 37.9131 57.7465 38.3894 58.1803C38.8659 58.6142 39.1695 59.2054 39.2445 59.8453C39.3565 61.0381 39.3145 62.2403 39.1198 63.4223C39.0014 64.0562 38.6579 64.6258 38.1527 65.0264C37.6473 65.4268 37.0143 65.6312 36.3702 65.6017Z" stroke="#45413C" stroke-linecap="round" stroke-linejoin="round"/>
<path d="M49.5545 75.9685L46.7582 80.1636C46.6903 80.2655 46.6513 80.384 46.6455 80.5064C46.6396 80.6288 46.667 80.7505 46.7249 80.8585C46.7827 80.9664 46.8688 81.0567 46.9739 81.1198C47.0789 81.1827 47.1992 81.2159 47.3217 81.216H52.9144C53.0369 81.2159 53.1572 81.1827 53.2623 81.1198C53.3673 81.0567 53.4534 80.9664 53.5112 80.8585C53.5691 80.7505 53.5965 80.6288 53.5906 80.5064C53.5848 80.384 53.5458 80.2655 53.4779 80.1636L50.6815 75.9685C50.6197 75.8757 50.536 75.7996 50.4377 75.7469C50.3393 75.6944 50.2295 75.6667 50.118 75.6667C50.0066 75.6667 49.8968 75.6944 49.7984 75.7469C49.7001 75.7996 49.6164 75.8757 49.5545 75.9685Z" fill="#FF6242" stroke="#45413C" stroke-linecap="round" stroke-linejoin="round"/>
<path d="M44.708 71.063L48.2338 73.0775C47.791 73.8522 47.1053 74.4596 46.2829 74.8056C45.4604 75.1515 44.5467 75.217 43.6833 74.9917C42.8199 74.7664 42.0548 74.2629 41.5062 73.5592C40.9576 72.8554 40.6561 71.9905 40.6484 71.0983C40.6406 70.2059 40.927 69.336 41.4632 68.6228C41.9994 67.9095 42.7557 67.3929 43.6151 67.1526C44.4745 66.9122 45.389 66.9617 46.2174 67.2933C47.0459 67.625 47.742 68.2202 48.1981 68.9872L44.708 71.063Z" fill="#FFE500" stroke="#45413C" stroke-linecap="round" stroke-linejoin="round"/>
<path d="M49.4432 71.1832C49.4113 71.1832 49.3807 71.1705 49.3581 71.1479C49.3356 71.1254 49.3229 71.0948 49.3229 71.063C49.3229 71.031 49.3356 71.0005 49.3581 70.9779C49.3807 70.9554 49.4113 70.9427 49.4432 70.9427C49.475 70.9427 49.5057 70.9554 49.5283 70.9779C49.5508 71.0005 49.5635 71.031 49.5635 71.063C49.5635 71.0948 49.5508 71.1255 49.5283 71.1479C49.5057 71.1706 49.475 71.1832 49.4432 71.1832Z" fill="#FFE500"/>
<path d="M49.4432 70.387C49.3092 70.387 49.1783 70.4266 49.0669 70.5011C48.9555 70.5755 48.8688 70.6814 48.8175 70.8052C48.7663 70.929 48.753 71.0652 48.7792 71.1965C48.8054 71.3279 48.87 71.4485 48.9648 71.5432C49.0596 71.6378 49.1804 71.7022 49.3118 71.7283C49.4432 71.7542 49.5794 71.7407 49.7031 71.6893C49.8267 71.6378 49.9324 71.5509 50.0067 71.4394C50.081 71.3279 50.1205 71.1969 50.1203 71.063C50.1203 70.9741 50.1028 70.886 50.0687 70.8039C50.0346 70.7219 49.9847 70.6474 49.9219 70.5846C49.859 70.5217 49.7844 70.472 49.7022 70.4381C49.62 70.4041 49.5321 70.3868 49.4432 70.387Z" fill="#45413C"/>
<path d="M52.1538 71.1832C52.1299 71.1835 52.1066 71.1766 52.0866 71.1635C52.0667 71.1504 52.0511 71.1317 52.0419 71.1097C52.0326 71.0878 52.0301 71.0635 52.0345 71.0401C52.0391 71.0168 52.0504 70.9953 52.0672 70.9783C52.0839 70.9614 52.1054 70.9498 52.1287 70.945C52.1521 70.9404 52.1764 70.9427 52.1984 70.9517C52.2205 70.9607 52.2393 70.9762 52.2525 70.996C52.2658 71.0159 52.2729 71.0391 52.2729 71.063C52.2729 71.0946 52.2603 71.1251 52.2381 71.1476C52.2158 71.1701 52.1855 71.1829 52.1538 71.1832Z" fill="#FFE500"/>
<path d="M52.1527 70.387C52.0187 70.387 51.8877 70.4266 51.7764 70.5011C51.665 70.5755 51.5782 70.6814 51.527 70.8052C51.4758 70.929 51.4624 71.0652 51.4886 71.1965C51.5149 71.3279 51.5795 71.4485 51.6742 71.5432C51.769 71.6378 51.8898 71.7022 52.0213 71.7283C52.1527 71.7542 52.2889 71.7407 52.4125 71.6893C52.5362 71.6378 52.6419 71.5509 52.7162 71.4394C52.7904 71.3279 52.83 71.1969 52.8298 71.063C52.8294 70.8836 52.7579 70.7116 52.631 70.5849C52.5041 70.4582 52.3321 70.387 52.1527 70.387Z" fill="#45413C"/>
<path d="M74.8074 78.0111L72.0667 79.6548C71.9615 79.718 71.841 79.7516 71.7181 79.7516C71.5953 79.7516 71.4748 79.7181 71.3696 79.6548L68.6289 78.0111C68.5376 77.9559 68.4604 77.8802 68.4037 77.7899C68.347 77.6996 68.3124 77.5971 68.3026 77.491L67.7246 71.1266C67.716 71.0329 67.7272 70.9385 67.7571 70.8494C67.7872 70.7602 67.8353 70.6783 67.8988 70.6088C67.9622 70.5395 68.0393 70.4839 68.1253 70.4459C68.2113 70.4079 68.3043 70.3882 68.3984 70.3882H75.0379C75.1314 70.389 75.2237 70.4093 75.3091 70.4476C75.3944 70.4859 75.471 70.5416 75.5338 70.6109C75.5966 70.6803 75.6442 70.762 75.6739 70.8507C75.7036 70.9394 75.7145 71.0334 75.706 71.1266L75.1281 77.491C75.1188 77.5967 75.085 77.6987 75.0293 77.789C74.9736 77.8793 74.8978 77.9554 74.8074 78.0111Z" fill="#FF8A14" stroke="#45413C" stroke-linecap="round" stroke-linejoin="round"/>
<path d="M60.9504 56.3385C60.9605 56.264 60.9865 56.1926 61.0266 56.129C61.0665 56.0654 61.1198 56.0112 61.1826 55.97C61.2454 55.9286 61.3163 55.9014 61.3905 55.8898C61.4648 55.8783 61.5406 55.8828 61.613 55.903C61.7834 55.9584 61.9254 56.0783 62.0083 56.2371L63.5864 59.7774H63.6008L64.2156 57.079C64.2299 57.0071 64.2586 56.9388 64.2998 56.8781C64.341 56.8174 64.3939 56.7655 64.4554 56.7257C64.5169 56.6859 64.586 56.6586 64.6581 56.6458C64.7304 56.633 64.8045 56.6349 64.876 56.6512C64.9475 56.6674 65.015 56.6979 65.0745 56.7408C65.1341 56.7836 65.1844 56.8379 65.2226 56.9005C65.2608 56.9632 65.2861 57.0328 65.297 57.1053C65.3078 57.1779 65.304 57.2519 65.2858 57.3229L64.3659 61.381C64.3562 61.4563 64.3304 61.5286 64.2901 61.5928C64.2499 61.6572 64.1961 61.712 64.1325 61.7534C64.069 61.795 63.9972 61.8221 63.9221 61.8333C63.8471 61.8443 63.7705 61.8389 63.6977 61.8176C63.528 61.7611 63.3865 61.6415 63.3024 61.4835L61.7188 57.9822H61.7043L61.0974 60.6382C61.0813 60.7088 61.0516 60.7755 61.0098 60.8346C60.968 60.8937 60.915 60.9439 60.8538 60.9824C60.7926 61.021 60.7243 61.0471 60.653 61.0594C60.5817 61.0715 60.5087 61.0696 60.4381 61.0536C60.3675 61.0376 60.3008 61.0078 60.2418 60.9661C60.1828 60.9242 60.1324 60.8712 60.0939 60.8101C60.0554 60.7488 60.0292 60.6805 60.0169 60.6093C60.0048 60.5379 60.0067 60.4649 60.0227 60.3943L60.9504 56.3385Z" fill="#45413C"/>
<path d="M73.5178 59.2384C73.5311 59.1644 73.5598 59.0942 73.6019 59.0319C73.644 58.9697 73.6985 58.917 73.7621 58.877C73.8258 58.8371 73.897 58.8109 73.9714 58.8001C74.0456 58.7891 74.1214 58.7939 74.1937 58.8141L75.3787 59.0836C75.7288 59.1388 76.0624 59.27 76.3564 59.468C76.6503 59.666 76.8973 59.9259 77.0801 60.2296C77.2629 60.5333 77.377 60.8733 77.4143 61.2257C77.4517 61.5781 77.4114 61.9345 77.2963 62.2697C77.2456 62.6035 77.1238 62.9225 76.9395 63.2055C76.7552 63.4884 76.5126 63.7286 76.2278 63.91C75.943 64.0914 75.6228 64.2099 75.2885 64.2573C74.9541 64.3048 74.6136 64.2802 74.2895 64.1852L73.0523 63.9023C72.9772 63.8917 72.9052 63.8653 72.841 63.825C72.7768 63.7846 72.7219 63.7311 72.6798 63.668C72.6378 63.605 72.6095 63.5336 72.5969 63.4589C72.5843 63.384 72.5878 63.3075 72.6068 63.2341L73.5178 59.2384ZM73.7806 63.0314L74.5 63.1996C75.421 63.4101 75.9956 62.8276 76.1916 61.9746C76.2691 61.7815 76.3028 61.5735 76.2897 61.3659C76.2768 61.1582 76.2178 60.9559 76.1169 60.774C76.016 60.5921 75.8758 60.4348 75.7064 60.3138C75.5371 60.1929 75.343 60.1111 75.1381 60.0747L74.4877 59.9266L73.7806 63.0314Z" fill="#45413C"/>
<path d="M78.2596 60.3943C78.266 60.3133 78.29 60.2345 78.3301 60.1637C78.3701 60.0929 78.4252 60.0316 78.4915 59.9844C78.5578 59.9372 78.6335 59.905 78.7136 59.8902C78.7935 59.8754 78.8758 59.8784 78.9545 59.8988L80.7252 60.303C80.7928 60.3135 80.8575 60.3381 80.915 60.3753C80.9726 60.4125 81.0214 60.4613 81.0589 60.5187C81.0962 60.5761 81.1209 60.6407 81.1316 60.7083C81.1422 60.7759 81.1385 60.845 81.1206 60.9111C81.107 60.9778 81.0797 61.041 81.0404 61.0967C81.0012 61.1524 80.9508 61.1994 80.8926 61.2348C80.8344 61.2701 80.7694 61.293 80.7019 61.3021C80.6345 61.3112 80.5657 61.3062 80.5003 61.2875L79.2441 61.0024L79.008 62.0447L80.1795 62.3087C80.2481 62.3187 80.3138 62.3431 80.3724 62.3801C80.431 62.4171 80.4812 62.466 80.5196 62.5236C80.5582 62.5812 80.5842 62.6463 80.596 62.7146C80.6078 62.7829 80.6052 62.8529 80.5882 62.9201C80.5733 62.9873 80.5448 63.0508 80.5043 63.1066C80.4638 63.1624 80.4124 63.2093 80.3532 63.2444C80.2938 63.2794 80.228 63.3019 80.1596 63.3105C80.0912 63.3191 80.0218 63.3136 79.9557 63.2942L78.7841 63.027L78.5369 64.1128L79.8577 64.4135C79.9253 64.4243 79.9899 64.4491 80.0472 64.4864C80.1047 64.5237 80.1536 64.5727 80.1909 64.6301C80.2281 64.6875 80.2529 64.7521 80.2636 64.8197C80.2743 64.8874 80.2707 64.9565 80.253 65.0226C80.2392 65.0892 80.2118 65.1522 80.1727 65.2078C80.1335 65.2633 80.0833 65.3103 80.0253 65.3457C79.9673 65.381 79.9026 65.4041 79.8352 65.4135C79.7679 65.4228 79.6993 65.4183 79.6338 65.4001L77.793 64.9814C77.7201 64.9688 77.6506 64.9413 77.5888 64.9004C77.5271 64.8597 77.4744 64.8066 77.4343 64.7443C77.3941 64.6822 77.3673 64.6125 77.3553 64.5394C77.3435 64.4664 77.3469 64.3916 77.3654 64.3199L78.2596 60.3943Z" fill="#45413C"/>
<path d="M60.9504 56.3385C60.9605 56.264 60.9865 56.1926 61.0266 56.129C61.0665 56.0654 61.1198 56.0112 61.1826 55.97C61.2454 55.9286 61.3163 55.9014 61.3905 55.8898C61.4648 55.8783 61.5406 55.8828 61.613 55.903C61.7834 55.9584 61.9254 56.0783 62.0083 56.2371L63.5864 59.7774H63.6008L64.2156 57.079C64.2299 57.0071 64.2586 56.9388 64.2998 56.8781C64.341 56.8174 64.3939 56.7655 64.4554 56.7257C64.5169 56.6859 64.586 56.6586 64.6581 56.6458C64.7304 56.633 64.8045 56.6349 64.876 56.6512C64.9475 56.6674 65.015 56.6979 65.0745 56.7408C65.1341 56.7836 65.1844 56.8379 65.2226 56.9005C65.2608 56.9632 65.2861 57.0328 65.297 57.1053C65.3078 57.1779 65.304 57.2519 65.2858 57.3229L64.3659 61.381C64.3562 61.4563 64.3304 61.5286 64.2901 61.5928C64.2499 61.6572 64.1961 61.712 64.1325 61.7534C64.069 61.795 63.9972 61.8221 63.9221 61.8333C63.8471 61.8443 63.7705 61.8389 63.6977 61.8176C63.528 61.7611 63.3865 61.6415 63.3024 61.4835L61.7188 57.9822H61.7043L61.0974 60.6382C61.0813 60.7088 61.0516 60.7755 61.0098 60.8346C60.968 60.8937 60.915 60.9439 60.8538 60.9824C60.7926 61.021 60.7243 61.0471 60.653 61.0594C60.5817 61.0715 60.5087 61.0696 60.4381 61.0536C60.3675 61.0376 60.3008 61.0078 60.2418 60.9661C60.1828 60.9242 60.1324 60.8712 60.0939 60.8101C60.0554 60.7488 60.0292 60.6805 60.0169 60.6093C60.0048 60.5379 60.0067 60.4649 60.0227 60.3943L60.9504 56.3385Z" stroke="#45413C"/>
<path d="M73.5178 59.2384C73.5311 59.1644 73.5598 59.0942 73.6019 59.0319C73.644 58.9697 73.6985 58.917 73.7621 58.877C73.8258 58.8371 73.897 58.8109 73.9714 58.8001C74.0456 58.7891 74.1214 58.7939 74.1937 58.8141L75.3787 59.0836C75.7288 59.1388 76.0624 59.27 76.3564 59.468C76.6503 59.666 76.8973 59.9259 77.0801 60.2296C77.2629 60.5333 77.377 60.8733 77.4143 61.2257C77.4517 61.5781 77.4114 61.9345 77.2963 62.2697C77.2456 62.6035 77.1238 62.9225 76.9395 63.2055C76.7552 63.4884 76.5126 63.7286 76.2278 63.91C75.943 64.0914 75.6228 64.2099 75.2885 64.2573C74.9541 64.3048 74.6136 64.2802 74.2895 64.1852L73.0523 63.9023C72.9772 63.8917 72.9052 63.8653 72.841 63.825C72.7768 63.7846 72.7219 63.7311 72.6798 63.668C72.6378 63.605 72.6095 63.5336 72.5969 63.4589C72.5843 63.384 72.5878 63.3075 72.6068 63.2341L73.5178 59.2384ZM73.7806 63.0314L74.5 63.1996C75.421 63.4101 75.9956 62.8276 76.1916 61.9746C76.2691 61.7815 76.3028 61.5735 76.2897 61.3659C76.2768 61.1582 76.2178 60.9559 76.1169 60.774C76.016 60.5921 75.8758 60.4348 75.7064 60.3138C75.5371 60.1929 75.343 60.1111 75.1381 60.0747L74.4877 59.9266L73.7806 63.0314Z" stroke="#45413C"/>
<path d="M78.2596 60.3943C78.266 60.3133 78.29 60.2345 78.3301 60.1637C78.3701 60.0929 78.4252 60.0316 78.4915 59.9844C78.5578 59.9372 78.6335 59.905 78.7136 59.8902C78.7935 59.8754 78.8758 59.8784 78.9545 59.8988L80.7252 60.303C80.7928 60.3135 80.8575 60.3381 80.915 60.3753C80.9726 60.4125 81.0214 60.4613 81.0589 60.5187C81.0962 60.5761 81.1209 60.6407 81.1316 60.7083C81.1422 60.7759 81.1385 60.845 81.1206 60.9111C81.107 60.9778 81.0797 61.041 81.0404 61.0967C81.0012 61.1524 80.9508 61.1994 80.8926 61.2348C80.8344 61.2701 80.7694 61.293 80.7019 61.3021C80.6345 61.3112 80.5657 61.3062 80.5003 61.2875L79.2441 61.0024L79.008 62.0447L80.1795 62.3087C80.2481 62.3187 80.3138 62.3431 80.3724 62.3801C80.431 62.4171 80.4812 62.466 80.5196 62.5236C80.5582 62.5812 80.5842 62.6463 80.596 62.7146C80.6078 62.7829 80.6052 62.8529 80.5882 62.9201C80.5733 62.9873 80.5448 63.0508 80.5043 63.1066C80.4638 63.1624 80.4124 63.2093 80.3532 63.2444C80.2938 63.2794 80.228 63.3019 80.1596 63.3105C80.0912 63.3191 80.0218 63.3136 79.9557 63.2942L78.7841 63.027L78.5369 64.1128L79.8577 64.4135C79.9253 64.4243 79.9899 64.4491 80.0472 64.4864C80.1047 64.5237 80.1536 64.5727 80.1909 64.6301C80.2281 64.6875 80.2529 64.7521 80.2636 64.8197C80.2743 64.8874 80.2707 64.9565 80.253 65.0226C80.2392 65.0892 80.2118 65.1522 80.1727 65.2078C80.1335 65.2633 80.0833 65.3103 80.0253 65.3457C79.9673 65.381 79.9026 65.4041 79.8352 65.4135C79.7679 65.4228 79.6993 65.4183 79.6338 65.4001L77.793 64.9814C77.7201 64.9688 77.6506 64.9413 77.5888 64.9004C77.5271 64.8597 77.4744 64.8066 77.4343 64.7443C77.3941 64.6822 77.3673 64.6125 77.3553 64.5394C77.3435 64.4664 77.3469 64.3916 77.3654 64.3199L78.2596 60.3943Z" stroke="#45413C"/>
<path d="M66.4384 58.2461L69.3795 57.5267L71.7181 59.4477L70.9664 62.7474L68.0264 63.4657L65.6878 61.5447L66.4384 58.2461Z" fill="#9CEB60" stroke="#45413C" stroke-linecap="round" stroke-linejoin="round"/>
<path d="M50.1225 63.6183C54.2341 63.6183 57.5672 62.4062 57.5672 60.9111C57.5672 59.416 54.2341 58.2038 50.1225 58.2038C46.011 58.2038 42.6778 59.4159 42.6778 60.9111C42.6778 62.4063 46.011 63.6183 50.1225 63.6183Z" fill="#00B8F0" stroke="#45413C" stroke-linecap="round" stroke-linejoin="round"/>
<path d="M22.9765 45.9193C21.3473 47.5474 25.4198 49.9907 25.4198 52.4341C25.4198 54.256 22.9765 54.8841 22.9765 56.5066" stroke="#45413C" stroke-linecap="round" stroke-linejoin="round"/>
<path d="M17.2747 42.6608C15.6454 44.29 19.718 46.7334 19.718 49.1767C19.718 50.9975 17.2747 51.62 17.2747 53.2492" stroke="#45413C" stroke-linecap="round" stroke-linejoin="round"/>
<path opacity="0.15" d="M18.9262 85.9534C23.0378 85.9534 26.3709 84.8929 26.3709 83.5847C26.3709 82.2764 23.0378 81.216 18.9262 81.216C14.8147 81.216 11.4815 82.2764 11.4815 83.5847C11.4815 84.8929 14.8147 85.9534 18.9262 85.9534Z" fill="#45413C"/>
<path d="M22.4631 82.569H15.3893C15.0582 82.5686 14.7387 82.4471 14.4911 82.2274C14.2435 82.0077 14.0849 81.705 14.0451 81.3763L12.1586 65.6495H25.6949L23.8017 81.3774C23.7621 81.705 23.6041 82.0069 23.3577 82.2263C23.1112 82.4457 22.7931 82.5676 22.4631 82.569Z" fill="#FFFEF2"/>
<path d="M12.4014 67.6786H25.451L25.6949 65.6485H12.1586L12.4014 67.6786Z" fill="#F7E5C6"/>
<path d="M22.4631 82.569H15.3893C15.0582 82.5686 14.7387 82.4471 14.4911 82.2274C14.2435 82.0077 14.0849 81.705 14.0451 81.3763L12.1586 65.6495H25.6949L23.8017 81.3774C23.7621 81.705 23.6041 82.0069 23.3577 82.2263C23.1112 82.4457 22.7931 82.5676 22.4631 82.569Z" stroke="#45413C" stroke-linejoin="round"/>
<path d="M25.6949 65.6495H12.1586C11.9803 65.6503 11.8037 65.6157 11.6389 65.548C11.474 65.4803 11.3241 65.3806 11.1979 65.2548C11.0716 65.129 10.9715 64.9794 10.9032 64.8147C10.8349 64.6501 10.7999 64.4736 10.8 64.2953C10.7999 64.1174 10.8348 63.9413 10.9028 63.7769C10.9707 63.6125 11.0705 63.4632 11.1963 63.3375C11.3221 63.2116 11.4714 63.1119 11.6358 63.0439C11.8002 62.9759 11.9763 62.941 12.1542 62.9411H25.6949C25.8726 62.9411 26.0487 62.9762 26.2129 63.0442C26.3772 63.1123 26.5263 63.2121 26.6521 63.3378C26.7777 63.4636 26.8773 63.6129 26.9453 63.7772C27.0132 63.9415 27.0481 64.1176 27.048 64.2953C27.0481 64.4731 27.0132 64.6492 26.9453 64.8135C26.8773 64.9777 26.7777 65.1271 26.6521 65.2528C26.5263 65.3785 26.3772 65.4783 26.2129 65.5463C26.0487 65.6145 25.8726 65.6495 25.6949 65.6495Z" fill="#FFFEF2" stroke="#45413C" stroke-linejoin="round"/>
<path d="M25.6949 62.9412H12.1586L12.7232 60.5948C12.7941 60.299 12.9625 60.0357 13.2013 59.8474C13.4401 59.6591 13.7354 59.5568 14.0396 59.5569H23.8139C24.118 59.5571 24.4131 59.6597 24.6518 59.8479C24.8905 60.0362 25.0591 60.2992 25.1303 60.5948L25.6949 62.9412Z" fill="#FFFEF2" stroke="#45413C" stroke-linejoin="round"/>
<path d="M22.0076 72.7957C22.0079 73.4054 21.8272 74.0014 21.4886 74.5083C21.15 75.0153 20.6686 75.4104 20.1054 75.6437C19.5421 75.877 18.9224 75.938 18.3245 75.819C17.7266 75.6999 17.1774 75.4062 16.7465 74.9749C16.3156 74.5437 16.0223 73.9943 15.9037 73.3964C15.7851 72.7983 15.8464 72.1786 16.0802 71.6155C16.3138 71.0525 16.7094 70.5714 17.2165 70.2332C17.7238 69.8949 18.3199 69.7147 18.9295 69.7153C19.7461 69.716 20.5291 70.0407 21.1062 70.6184C21.6833 71.1959 22.0076 71.9791 22.0076 72.7957Z" fill="#00DBA8" stroke="#45413C" stroke-linecap="round" stroke-linejoin="round"/>
</svg>
