<svg xmlns="http://www.w3.org/2000/svg" fill="none" viewBox="-0.5 -0.5 14 14" id="Brain--Streamline-Sharp-Neon.svg" height="14" width="14"><desc>Brain Streamline Icon: https://streamlinehq.com</desc><g id="brain--medical-health-brain"><path id="Union" stroke="#000cfe" d="m6.500000000000001 9.657591666666669 0 -6.3152645833333345c0 -1.0119958333333334 0.8204083333333334 -1.8323770833333335 1.8324041666666668 -1.8323770833333335 1.0119958333333334 0 1.8323500000000004 0.8203812500000002 1.8323500000000004 1.8323825000000002l0 0.001370416666666667V3.9653791666666676c1.0238041666666668 0.3865279166666667 1.7518583333333335 1.3755300000000001 1.7518583333333335 2.534566666666667 0 1.1590583333333335 -0.7280541666666668 2.1480875000000004 -1.7518583333333335 2.5346208333333333v0.6221041666666668l0 0.0009208333333333334c0 1.0119958333333334 -0.8203541666666667 1.8324041666666668 -1.8323500000000004 1.8324041666666668S6.500000000000001 10.669641666666669 6.500000000000001 9.657591666666669Z" stroke-width="1"></path><path id="Ellipse 9" stroke="#000cfe" d="M8.328070833333335 5.186859166666667c1.009666666666667 0 1.8281791666666671 -0.8184908333333335 1.8281791666666671 -1.8281575000000003" stroke-width="1"></path><path id="Ellipse 10" stroke="#000cfe" d="M6.500000000000001 6.005675000000001c0 1.009666666666667 0.8184583333333334 1.8281250000000002 1.8281250000000002 1.8281250000000002" stroke-width="1"></path><path id="Ellipse 11" stroke="#000cfe" d="M10.156250000000002 9.661762500000002c0 -0.4858208333333334 -0.1895291666666667 -0.9273875000000001 -0.49865833333333337 -1.2548250000000003" stroke-width="1"></path><path id="Union_2" stroke="#c71dff" d="m6.499945833333334 9.657591666666669 0 -6.3152645833333345c0 -1.0119958333333334 -0.8203541666666667 -1.8323770833333335 -1.8323716666666667 -1.8323770833333335 -1.0119958333333334 0 -1.8323825000000002 0.8203812500000002 -1.8323825000000002 1.8323825000000002l0 0.001370416666666667V3.9653791666666676C1.811425416666667 4.351907083333334 1.0833333333333335 5.340909166666667 1.0833333333333335 6.499945833333334c0 1.1590583333333335 0.7280920833333335 2.1480875000000004 1.7518583333333335 2.5346208333333333v0.6221041666666668l0 0.0009208333333333334c0 1.0119958333333334 0.8203866666666667 1.8324041666666668 1.8323825000000002 1.8324041666666668 1.0120175 0 1.8323716666666667 -0.8203541666666667 1.8323716666666667 -1.8324041666666668Z" stroke-width="1"></path><path id="Ellipse 3" stroke="#c71dff" d="M4.6719075000000005 5.186859166666667C3.6622462500000004 5.186859166666667 2.8437500000000004 4.368368333333334 2.8437500000000004 3.358701666666667" stroke-width="1"></path><path id="Ellipse 5" stroke="#c71dff" d="M6.500000000000001 6.005675000000001c0 1.009666666666667 -0.8184583333333334 1.8281250000000002 -1.8281250000000002 1.8281250000000002" stroke-width="1"></path><path id="Ellipse 8" stroke="#c71dff" d="M2.8437500000000004 9.661762500000002c0 -0.4858208333333334 0.1895129166666667 -0.9273875000000001 0.4986475 -1.2548250000000003" stroke-width="1"></path></g></svg>