<svg xmlns="http://www.w3.org/2000/svg" fill="none" viewBox="0 0 100 100" id="Geek-Coding-1--Streamline-Ux.svg"><desc>Geek Coding 1 Streamline Illustration: https://streamlinehq.com</desc><path fill="#e3d3fe00" d="M90.083 50.922c0.0008 -5.9699 -1.3347 -11.8642 -3.9086 -17.2507 -2.5738 -5.3865 -6.3207 -10.1285 -10.9658 -13.8784 -4.6452 -3.7499 -10.0708 -6.4125 -15.8789 -7.7926 -5.8081 -1.38 -11.8515 -1.4425 -17.687 -0.1828 -5.8354 1.2597 -11.3149 3.8096 -16.0365 7.4626 -4.7217 3.6531 -8.5658 8.3167 -11.2504 13.6489 -2.6846 5.3321 -4.1417 11.1976 -4.2643 17.1661 -0.12269 5.9686 1.0922 11.889 3.5555 17.3269h72.872c2.3533 -5.1822 3.5686 -10.8085 3.564 -16.5Z" stroke-width="1"></path><path stroke="#e3d3fe" stroke-linecap="round" stroke-linejoin="round" d="M11.083 67.422h78" stroke-width="1"></path><path stroke="#e3d3fe" stroke-linecap="round" stroke-linejoin="round" d="M6.58301 67.422h2.5" stroke-width="1"></path><path stroke="#e3d3fe" stroke-linecap="round" stroke-linejoin="round" d="M91.083 67.422h2.5" stroke-width="1"></path><path fill="#e3d3fe00" d="M58.646 86.264c12.755 0 23.095 -0.9523 23.095 -2.127 0 -1.1747 -10.34 -2.127 -23.095 -2.127 -12.755 0 -23.095 0.9523 -23.095 2.127 0 1.1747 10.34 2.127 23.095 2.127Z" stroke-width="1"></path><path fill="#e3d3feab" d="M76.878 62.562c-0.0362 -4.973 -2.0372 -9.7301 -5.5665 -13.2338 -3.5294 -3.5037 -8.3008 -5.47 -13.274 -5.47 -4.9732 0 -9.7446 1.9663 -13.274 5.47 -3.5293 3.5037 -5.5303 8.2608 -5.5665 13.2338V65.6h7.293v6.077h23.095V65.6h7.293v-3.038Z" stroke-width="1"></path><path stroke="#e3d3fe" stroke-linecap="round" stroke-linejoin="round" d="M76.878 62.562c-0.0362 -4.973 -2.0372 -9.7301 -5.5665 -13.2338 -3.5294 -3.5037 -8.3008 -5.47 -13.274 -5.47 -4.9732 0 -9.7446 1.9663 -13.274 5.47 -3.5293 3.5037 -5.5303 8.2608 -5.5665 13.2338V65.6h7.293v6.077h23.095V65.6h7.293v-3.038Z" stroke-width="1"></path><path fill="#ffffff" d="M53.784 44.33c0 1.1282 0.4482 2.2102 1.246 3.008 0.7977 0.7978 1.8798 1.246 3.008 1.246s2.2102 -0.4482 3.008 -1.246c0.7978 -0.7978 1.246 -1.8798 1.246 -3.008v-4.255h-8.508v4.255Z" stroke-width="1"></path><path stroke="#e3d3fe" stroke-linecap="round" stroke-linejoin="round" d="M53.784 44.33v-4.255h8.508v4.255c0 1.1282 -0.4482 2.2102 -1.246 3.008 -0.7978 0.7978 -1.8798 1.246 -3.008 1.246s-2.2103 -0.4482 -3.008 -1.246c-0.7978 -0.7978 -1.246 -1.8798 -1.246 -3.008v0Z" stroke-width="1"></path><path fill="#ffffff" stroke="#e3d3fe" stroke-linecap="round" stroke-linejoin="round" d="M70.193 27.312v-3.038c0 -3.2237 -1.2806 -6.3154 -3.5601 -8.5949 -2.2795 -2.2795 -5.3712 -3.5601 -8.5949 -3.5601 -3.2237 0 -6.3154 1.2806 -8.5949 3.5601 -2.2795 2.2795 -3.5601 5.3712 -3.5601 8.5949v3.038c-0.6363 0.0129 -1.2423 0.2747 -1.6877 0.7293 -0.4455 0.4546 -0.695 1.0657 -0.695 1.7022 0 0.6365 0.2495 1.2476 0.695 1.7021 0.4454 0.4546 1.0514 0.7165 1.6877 0.7294 0.051 0 0.1 -0.012 0.149 -0.016 0.4294 2.8771 1.8777 5.5043 4.0813 7.4033 2.2035 1.8991 5.0157 2.9437 7.9247 2.9437 2.9089 0 5.7212 -1.0446 7.9247 -2.9437 2.2035 -1.899 3.6519 -4.5262 4.0813 -7.4033 0.05 0 0.1 0.016 0.149 0.016 0.6363 -0.0129 1.2422 -0.2748 1.6877 -0.7294 0.4455 -0.4545 0.695 -1.0656 0.695 -1.7021 0 -0.6365 -0.2495 -1.2476 -0.695 -1.7022 -0.4455 -0.4546 -1.0514 -0.7164 -1.6877 -0.7293v0Z" stroke-width="1"></path><path fill="#e3d3feab" d="M70.193 27.92c0 1.4507 -0.5763 2.842 -1.6021 3.8679 -1.0259 1.0258 -2.4172 1.6021 -3.8679 1.6021 -1.4507 0 -2.8421 -0.5763 -3.8679 -1.6021 -1.0258 -1.0259 -1.6021 -2.4172 -1.6021 -3.8679v-0.608c0.0003 -0.6447 0.2565 -1.2629 0.7123 -1.7187 0.4559 -0.4558 1.074 -0.7121 1.7187 -0.7123h8.509v3.039Z" stroke-width="1"></path><path fill="#e3d3feab" d="M56.822 27.92c0.0098 0.7245 -0.1244 1.4437 -0.3949 2.1159 -0.2705 0.6721 -0.6718 1.2839 -1.1807 1.7997 -0.5088 0.5158 -1.1151 0.9253 -1.7835 1.2049 -0.6685 0.2795 -1.3858 0.4234 -2.1104 0.4234 -0.7245 0 -1.4419 -0.1439 -2.1103 -0.4234 -0.6685 -0.2796 -1.2748 -0.6891 -1.7836 -1.2049 -0.5089 -0.5158 -0.9102 -1.1276 -1.1807 -1.7997 -0.2705 -0.6722 -0.4047 -1.3914 -0.3949 -2.1159v-3.039h8.508c0.3192 0 0.6354 0.0629 0.9303 0.185 0.295 0.1222 0.5629 0.3013 0.7887 0.527 0.2257 0.2257 0.4048 0.4937 0.527 0.7887 0.1221 0.2949 0.185 0.611 0.185 0.9303v0.608Z" stroke-width="1"></path><path stroke="#e3d3fe" stroke-linecap="round" stroke-linejoin="round" d="M54.381 35.565c0.9857 0.9396 2.2952 1.4638 3.657 1.4638 1.3618 0 2.6713 -0.5242 3.657 -1.4638" stroke-width="1"></path><path stroke="#e3d3fe" stroke-linecap="round" stroke-linejoin="round" d="M56.822 27.92c0.0098 0.7245 -0.1244 1.4437 -0.3949 2.1159 -0.2705 0.6721 -0.6718 1.2839 -1.1807 1.7997 -0.5088 0.5158 -1.1151 0.9253 -1.7835 1.2049 -0.6685 0.2795 -1.3858 0.4234 -2.1104 0.4234 -0.7245 0 -1.4419 -0.1439 -2.1103 -0.4234 -0.6685 -0.2796 -1.2748 -0.6891 -1.7836 -1.2049 -0.5089 -0.5158 -0.9102 -1.1276 -1.1807 -1.7997 -0.2705 -0.6722 -0.4047 -1.3914 -0.3949 -2.1159v-3.039h8.508c0.3192 0 0.6354 0.0629 0.9303 0.185 0.295 0.1222 0.5629 0.3013 0.7887 0.527 0.2257 0.2257 0.4048 0.4937 0.527 0.7887 0.1221 0.2949 0.185 0.611 0.185 0.9303v0.608Z" stroke-width="1"></path><path stroke="#e3d3fe" stroke-linecap="round" stroke-linejoin="round" d="M70.193 27.92c0 1.4507 -0.5763 2.842 -1.6021 3.8679 -1.0259 1.0258 -2.4172 1.6021 -3.8679 1.6021 -1.4507 0 -2.8421 -0.5763 -3.8679 -1.6021 -1.0258 -1.0259 -1.6021 -2.4172 -1.6021 -3.8679v-0.608c0.0003 -0.6447 0.2565 -1.2629 0.7123 -1.7187 0.4559 -0.4558 1.074 -0.7121 1.7187 -0.7123h8.509v3.039Z" stroke-width="1"></path><path stroke="#e3d3fe" stroke-linecap="round" stroke-linejoin="round" d="M56.822 27.92h2.431" stroke-width="1"></path><path fill="#ffffff" d="M58.038 10.3s1.215 -1.22001 4.862 -1.22001C75.613 9.07999 77.337 27.211 68.073 29c-0.1809 0.0286 -0.3659 0.0154 -0.5409 -0.0385 -0.1751 -0.0539 -0.3354 -0.1472 -0.4688 -0.2727 -0.1334 -0.1255 -0.2363 -0.2798 -0.3008 -0.4512 -0.0646 -0.1714 -0.089 -0.3553 -0.0715 -0.5376 0.912 -12.125 -7.482 -11.239 -8.653 -8.9 -1.171 -2.342 -9.566 -3.228 -8.653 8.9 0.0176 0.1826 -0.0069 0.3668 -0.0716 0.5384 -0.0647 0.1717 -0.1679 0.3262 -0.3016 0.4518 -0.1338 0.1255 -0.2945 0.2187 -0.4699 0.2724 -0.1754 0.0537 -0.3608 0.0665 -0.5419 0.0374 -9.261 -1.789 -7.537 -19.92001 5.176 -19.92001 3.646 0 4.862 1.22001 4.862 1.22001Z" stroke-width="1"></path><path stroke="#e3d3fe" stroke-linecap="round" stroke-linejoin="round" d="M58.038 10.3s1.215 -1.22001 4.862 -1.22001C75.613 9.07999 77.337 27.211 68.073 29c-0.1809 0.0286 -0.3659 0.0154 -0.5409 -0.0385 -0.1751 -0.0539 -0.3354 -0.1472 -0.4688 -0.2727 -0.1334 -0.1255 -0.2363 -0.2798 -0.3008 -0.4512 -0.0646 -0.1714 -0.089 -0.3553 -0.0715 -0.5376 0.912 -12.125 -7.482 -11.239 -8.653 -8.9 -1.171 -2.342 -9.566 -3.228 -8.653 8.9 0.0176 0.1826 -0.0069 0.3668 -0.0716 0.5384 -0.0647 0.1717 -0.1679 0.3262 -0.3016 0.4518 -0.1338 0.1255 -0.2945 0.2187 -0.4699 0.2724 -0.1754 0.0537 -0.3608 0.0665 -0.5419 0.0374 -9.261 -1.789 -7.537 -19.92001 5.176 -19.92001 3.646 0 4.862 1.22001 4.862 1.22001Z" stroke-width="1"></path><path stroke="#e3d3fe" stroke-linecap="round" stroke-linejoin="round" d="M65.331 28.528c-0.1504 -0.361 -0.4044 -0.6693 -0.7298 -0.8862 -0.3253 -0.2169 -0.7076 -0.3326 -1.0987 -0.3326 -0.391 0 -0.7733 0.1157 -1.0987 0.3326s-0.5793 0.5252 -0.7298 0.8862" stroke-width="1"></path><path stroke="#e3d3fe" stroke-linecap="round" stroke-linejoin="round" d="M54.4 28.528c-0.1503 -0.361 -0.4041 -0.6695 -0.7294 -0.8865 -0.3253 -0.2169 -0.7076 -0.3327 -1.0986 -0.3327 -0.3911 0 -0.7733 0.1158 -1.0986 0.3327 -0.3254 0.217 -0.5792 0.5255 -0.7294 0.8865" stroke-width="1"></path><path fill="#ffffff" stroke="#e3d3fe" stroke-linejoin="round" d="M78.285 80.187H37.791l0.507 1.8c0.0883 0.3533 0.2921 0.6669 0.5791 0.891 0.2871 0.2242 0.6407 0.3459 1.0049 0.346h36.312c0.3641 -0.0001 0.7178 -0.1218 1.0048 -0.346 0.287 -0.2241 0.4909 -0.5377 0.5792 -0.891l0.507 -1.8Z" stroke-width="1"></path><path fill="#ffffff" d="M79.917 79.1c-0.0003 0.2884 -0.115 0.5648 -0.319 0.7687 -0.204 0.2038 -0.4806 0.3183 -0.769 0.3183H37.246c-0.1428 0 -0.2841 -0.0281 -0.416 -0.0828 -0.1319 -0.0546 -0.2517 -0.1347 -0.3526 -0.2356 -0.101 -0.1009 -0.181 -0.2208 -0.2357 -0.3526 -0.0546 -0.1319 -0.0827 -0.2733 -0.0827 -0.416V54.23c0 -0.5305 0.2107 -1.0392 0.5858 -1.4142 0.3751 -0.3751 0.8838 -0.5858 1.4142 -0.5858h39.758c0.5304 0 1.0391 0.2107 1.4142 0.5858 0.3751 0.375 0.5858 0.8837 0.5858 1.4142V79.1Z" stroke-width="1"></path><path stroke="#e3d3fe" stroke-linejoin="round" d="M79.917 79.1c-0.0003 0.2884 -0.115 0.5648 -0.319 0.7687 -0.204 0.2038 -0.4806 0.3183 -0.769 0.3183H37.246c-0.1428 0 -0.2841 -0.0281 -0.416 -0.0828 -0.1319 -0.0546 -0.2517 -0.1347 -0.3526 -0.2356 -0.101 -0.1009 -0.181 -0.2208 -0.2357 -0.3526 -0.0546 -0.1319 -0.0827 -0.2733 -0.0827 -0.416V54.23c0 -0.5305 0.2107 -1.0392 0.5858 -1.4142 0.3751 -0.3751 0.8838 -0.5858 1.4142 -0.5858h39.758c0.5304 0 1.0391 0.2107 1.4142 0.5858 0.3751 0.375 0.5858 0.8837 0.5858 1.4142V79.1Z" stroke-width="1"></path><path fill="#e3d3feab" stroke="#e3d3fe" stroke-linejoin="round" d="M60.969 68.566c-0.0044 -0.3653 0.0679 -0.7275 0.212 -1.0632 0.1442 -0.3357 0.3571 -0.6374 0.625 -0.8858 -0.1173 -0.2911 -0.3059 -0.548 -0.5484 -0.7472 -0.2426 -0.1992 -0.5313 -0.3343 -0.8396 -0.3928 -0.4115 -0.0019 -0.8147 0.1154 -1.1609 0.3377 -0.3463 0.2224 -0.6207 0.5403 -0.7901 0.9153 -0.1692 -0.3751 -0.4436 -0.6932 -0.7899 -0.9156 -0.3462 -0.2224 -0.7496 -0.3396 -1.1611 -0.3374 -1.2 0.143 -1.982 1.781 -1.757 3.658 0.225 1.877 1.375 3.284 2.57 3.141 0.2294 -0.0352 0.449 -0.1176 0.6449 -0.242 0.1959 -0.1245 0.3638 -0.2883 0.4931 -0.481 0.1294 0.1929 0.2974 0.3568 0.4935 0.4812 0.1961 0.1245 0.4159 0.2068 0.6455 0.2418 0.874 0.105 1.722 -0.626 2.2 -1.759 -0.2683 -0.2485 -0.4814 -0.5506 -0.6256 -0.8867 -0.1441 -0.336 -0.2162 -0.6986 -0.2114 -1.0643Z" stroke-width="1"></path><path fill="#e3d3feab" stroke="#e3d3fe" stroke-linejoin="round" d="M59.986 61.663c-0.2846 0.2382 -0.512 0.5375 -0.6652 0.8756 -0.1532 0.3381 -0.2283 0.7063 -0.2198 1.0774 0.3634 0.0761 0.7393 0.0691 1.0995 -0.0206 0.3603 -0.0898 0.6956 -0.2599 0.9808 -0.4976 0.2853 -0.2376 0.513 -0.5368 0.6662 -0.875 0.1532 -0.3382 0.2279 -0.7067 0.2185 -1.0778 -0.3634 -0.0752 -0.739 -0.0677 -1.099 0.022 -0.3601 0.0897 -0.6953 0.2592 -0.981 0.496Z" stroke-width="1"></path><path fill="#ffffff" d="m79.9 68.033 2.965 -0.048c0.2394 -0.0039 0.4772 0.0395 0.6999 0.1276 0.2226 0.0881 0.4257 0.2191 0.5977 0.3857s0.3095 0.3655 0.4046 0.5852c0.0951 0.2197 0.146 0.4561 0.1498 0.6955l0.059 3.646c0.0038 0.2394 -0.0395 0.4772 -0.1276 0.6999 -0.0881 0.2226 -0.2192 0.4257 -0.3858 0.5977 -0.1666 0.172 -0.3654 0.3094 -0.5851 0.4046 -0.2198 0.0951 -0.4561 0.146 -0.6955 0.1498l-2.965 0.048c-0.5785 0.016 -1.1434 -0.1776 -1.5905 -0.5451 -0.447 -0.3675 -0.7463 -0.8842 -0.8425 -1.4549 -0.1553 -1.0654 -0.1728 -2.1462 -0.052 -3.216 0.0781 -0.5734 0.3608 -1.0992 0.7959 -1.4807 0.4351 -0.3815 0.9934 -0.5929 1.5721 -0.5953Z" stroke-width="1"></path><path stroke="#e3d3fe" stroke-linecap="round" stroke-linejoin="round" d="m79.9 68.033 2.965 -0.048c0.2394 -0.0039 0.4772 0.0395 0.6999 0.1276 0.2226 0.0881 0.4257 0.2191 0.5977 0.3857s0.3095 0.3655 0.4046 0.5852c0.0951 0.2197 0.146 0.4561 0.1498 0.6955l0.059 3.646c0.0038 0.2394 -0.0395 0.4772 -0.1276 0.6999 -0.0881 0.2226 -0.2192 0.4257 -0.3858 0.5977 -0.1666 0.172 -0.3654 0.3094 -0.5851 0.4046 -0.2198 0.0951 -0.4561 0.146 -0.6955 0.1498l-2.965 0.048c-0.5785 0.016 -1.1434 -0.1776 -1.5905 -0.5451 -0.447 -0.3675 -0.7463 -0.8842 -0.8425 -1.4549 -0.1553 -1.0654 -0.1728 -2.1462 -0.052 -3.216 0.0781 -0.5734 0.3608 -1.0992 0.7959 -1.4807 0.4351 -0.3815 0.9934 -0.5929 1.5721 -0.5953v0Z" stroke-width="1"></path><path fill="#ffffff" d="m37.844 63.127 -2.964 -0.1c-0.2393 -0.0082 -0.4747 -0.0634 -0.6926 -0.1625 -0.218 -0.0992 -0.4143 -0.2403 -0.5776 -0.4154 -0.1634 -0.1751 -0.2906 -0.3806 -0.3745 -0.6049 -0.0839 -0.2243 -0.1227 -0.4629 -0.1143 -0.7022l0.127 -3.644c0.0083 -0.2393 0.0636 -0.4746 0.1628 -0.6925 0.0992 -0.2179 0.2403 -0.4141 0.4154 -0.5774 0.175 -0.1634 0.3805 -0.2906 0.6047 -0.3746 0.2243 -0.0839 0.4628 -0.1228 0.7021 -0.1145l2.964 0.1c0.5784 0.0134 1.1325 0.2353 1.5602 0.6249 0.4278 0.3895 0.7005 0.9205 0.7678 1.4951 0.1011 1.072 0.0638 2.1525 -0.111 3.215 -0.1071 0.5686 -0.4161 1.0793 -0.8699 1.4382 -0.4539 0.3588 -1.0221 0.5417 -1.6001 0.5148Z" stroke-width="1"></path><path stroke="#e3d3fe" stroke-linecap="round" stroke-linejoin="round" d="m37.844 63.127 -2.964 -0.1c-0.2393 -0.0082 -0.4747 -0.0634 -0.6926 -0.1625 -0.218 -0.0992 -0.4143 -0.2403 -0.5776 -0.4154 -0.1634 -0.1751 -0.2906 -0.3806 -0.3745 -0.6049 -0.0839 -0.2243 -0.1227 -0.4629 -0.1143 -0.7022l0.127 -3.644c0.0083 -0.2393 0.0636 -0.4746 0.1628 -0.6925 0.0992 -0.2179 0.2403 -0.4141 0.4154 -0.5774 0.175 -0.1634 0.3805 -0.2906 0.6047 -0.3746 0.2243 -0.0839 0.4628 -0.1228 0.7021 -0.1145l2.964 0.1c0.5784 0.0134 1.1325 0.2353 1.5602 0.6249 0.4278 0.3895 0.7005 0.9205 0.7678 1.4951 0.1011 1.072 0.0638 2.1525 -0.111 3.215 -0.1071 0.5686 -0.4161 1.0793 -0.8699 1.4382 -0.4539 0.3588 -1.0221 0.5417 -1.6001 0.5148v0Z" stroke-width="1"></path><path fill="#e3d3feab" stroke="#e3d3fe" stroke-linecap="round" stroke-linejoin="round" d="M49.688 72.437 47.177 76.2c-0.0613 0.0914 -0.0966 0.1978 -0.1021 0.3077 -0.0054 0.11 0.0191 0.2193 0.0709 0.3164 0.0519 0.0971 0.1292 0.1782 0.2236 0.2347 0.0945 0.0566 0.2025 0.0863 0.3126 0.0862H52.7c0.11 0 0.218 -0.0299 0.3124 -0.0864 0.0943 -0.0565 0.1716 -0.1376 0.2235 -0.2346 0.052 -0.097 0.0766 -0.2063 0.0713 -0.3161 -0.0052 -0.1099 -0.0402 -0.2163 -0.1012 -0.3079L50.7 72.437c-0.0554 -0.0835 -0.1305 -0.1521 -0.2188 -0.1995 -0.0883 -0.0474 -0.187 -0.0722 -0.2872 -0.0722 -0.1002 0 -0.1989 0.0248 -0.2872 0.0722 -0.0883 0.0474 -0.1634 0.116 -0.2188 0.1995v0Z" stroke-width="1"></path><path fill="#e3d3feab" stroke="#e3d3fe" stroke-linecap="round" stroke-linejoin="round" d="m45.331 68.032 3.169 1.809c-0.3975 0.696 -1.0132 1.2416 -1.7519 1.5526 -0.7387 0.311 -1.5593 0.3699 -2.3348 0.1678 -0.7756 -0.2022 -1.463 -0.6542 -1.9559 -1.2862 -0.4929 -0.6319 -0.764 -1.4087 -0.7712 -2.2102 -0.0072 -0.8014 0.2499 -1.5829 0.7314 -2.2237 0.4814 -0.6407 1.1606 -1.105 1.9324 -1.321 0.7718 -0.2161 1.5933 -0.1718 2.3375 0.1258 0.7442 0.2977 1.3696 0.8322 1.7795 1.5209l-3.136 1.865Z" stroke-width="1"></path><path fill="#e3d3fe" d="M49.585 67.424c-0.1203 0 -0.2378 0.0356 -0.3378 0.1024 -0.1 0.0669 -0.1779 0.1618 -0.2239 0.2729 -0.046 0.1111 -0.0581 0.2333 -0.0346 0.3513 0.0234 0.1179 0.0813 0.2263 0.1664 0.3113 0.085 0.085 0.1933 0.1429 0.3113 0.1664 0.1179 0.0235 0.2402 0.0114 0.3513 -0.0346s0.206 -0.1239 0.2728 -0.2239c0.0668 -0.1 0.1025 -0.2176 0.1025 -0.3378 0 -0.1613 -0.0641 -0.3159 -0.1781 -0.4299 -0.114 -0.1141 -0.2687 -0.1781 -0.4299 -0.1781Z" stroke-width="1"></path><path fill="#e3d3fe" d="M52.016 67.424c-0.1203 0 -0.2378 0.0356 -0.3378 0.1024 -0.1 0.0669 -0.1779 0.1618 -0.2239 0.2729 -0.046 0.1111 -0.0581 0.2333 -0.0346 0.3513 0.0234 0.1179 0.0813 0.2263 0.1664 0.3113 0.085 0.085 0.1933 0.1429 0.3113 0.1664 0.1179 0.0235 0.2402 0.0114 0.3513 -0.0346s0.206 -0.1239 0.2728 -0.2239c0.0668 -0.1 0.1025 -0.2176 0.1025 -0.3378 0 -0.1613 -0.0641 -0.3159 -0.1781 -0.4299 -0.114 -0.1141 -0.2687 -0.1781 -0.4299 -0.1781Z" stroke-width="1"></path><path fill="#e3d3feab" stroke="#e3d3fe" stroke-linecap="round" stroke-linejoin="round" d="M72.359 74.268 69.9 75.745c-0.0945 0.0569 -0.2027 0.0869 -0.313 0.0869 -0.1103 0 -0.2185 -0.03 -0.313 -0.0869l-2.461 -1.477c-0.0819 -0.0494 -0.1511 -0.1172 -0.202 -0.1982 -0.0509 -0.0809 -0.082 -0.1726 -0.091 -0.2678L66 68.087c-0.0076 -0.0841 0.0023 -0.1689 0.0292 -0.2489 0.027 -0.08 0.0703 -0.1536 0.1272 -0.216 0.0569 -0.0623 0.1262 -0.1122 0.2034 -0.1463 0.0773 -0.0341 0.1608 -0.0517 0.2452 -0.0518h5.962c0.0844 0.0001 0.1679 0.0177 0.2452 0.0518 0.0772 0.0341 0.1465 0.084 0.2034 0.1463 0.0569 0.0624 0.1002 0.136 0.1271 0.216 0.027 0.08 0.0369 0.1648 0.0293 0.2489l-0.52 5.713c-0.0084 0.0956 -0.0394 0.1878 -0.0903 0.2692 -0.0509 0.0813 -0.1204 0.1494 -0.2027 0.1988v0Z" stroke-width="1"></path><path fill="#e3d3fe" d="M59.916 54.81c0.009 -0.0674 0.0324 -0.1321 0.0687 -0.1897 0.0362 -0.0575 0.0845 -0.1065 0.1415 -0.1436 0.057 -0.0372 0.1213 -0.0615 0.1886 -0.0715 0.0673 -0.01 0.1359 -0.0053 0.2012 0.0138 0.1532 0.0494 0.2807 0.1572 0.355 0.3l1.411 3.181h0.012l0.553 -2.424c0.0135 -0.064 0.0397 -0.1247 0.0769 -0.1786 0.0372 -0.0538 0.0848 -0.0996 0.1399 -0.1349 0.0552 -0.0352 0.1168 -0.0591 0.1813 -0.0703 0.0644 -0.0112 0.1305 -0.0095 0.1943 0.0051s0.124 0.0418 0.1772 0.0799 0.0982 0.0865 0.1326 0.1422c0.0343 0.0557 0.0571 0.1177 0.0672 0.1824 0.0101 0.0646 0.0073 0.1306 -0.0084 0.1942l-0.83 3.641c-0.0089 0.0669 -0.0321 0.1311 -0.068 0.1883 -0.036 0.0572 -0.0838 0.106 -0.1402 0.1431 -0.0564 0.037 -0.1202 0.0616 -0.1869 0.0718 -0.0667 0.0103 -0.1349 0.0062 -0.1999 -0.0122 -0.1525 -0.0507 -0.2796 -0.1581 -0.355 -0.3l-1.422 -3.144h-0.013l-0.545 2.392c-0.0114 0.0661 -0.0361 0.1292 -0.0727 0.1854s-0.0842 0.1044 -0.1401 0.1416c-0.0558 0.0372 -0.1186 0.0627 -0.1845 0.0748 -0.066 0.0122 -0.1338 0.0108 -0.1992 -0.0041 -0.0654 -0.0149 -0.127 -0.043 -0.1813 -0.0825 -0.0542 -0.0395 -0.0998 -0.0896 -0.134 -0.1473 -0.0342 -0.0577 -0.0563 -0.1218 -0.0649 -0.1883 -0.0086 -0.0665 -0.0036 -0.1341 0.0147 -0.1986l0.83 -3.647Z" stroke-width="1"></path><path fill="#e3d3fe" d="M71.2 57.413c0.0119 -0.0663 0.0375 -0.1295 0.0752 -0.1853 0.0376 -0.0559 0.0866 -0.1033 0.1436 -0.1391 0.0571 -0.0359 0.121 -0.0595 0.1876 -0.0692 0.0667 -0.0097 0.1347 -0.0055 0.1996 0.0126l1.065 0.243c0.3148 0.049 0.6151 0.1664 0.8796 0.3439 0.2646 0.1775 0.4871 0.4108 0.6519 0.6835 0.1648 0.2727 0.2679 0.5781 0.302 0.8949 0.0341 0.3168 -0.0015 0.6372 -0.1045 0.9387 -0.0458 0.2997 -0.1551 0.5861 -0.3206 0.84 -0.1656 0.254 -0.3835 0.4696 -0.6392 0.6325 -0.2556 0.1629 -0.5432 0.2692 -0.8433 0.3119 -0.3001 0.0427 -0.6059 0.0207 -0.8969 -0.0644l-1.119 -0.256c-0.0675 -0.0094 -0.1322 -0.0329 -0.19 -0.0691 -0.0577 -0.0363 -0.1071 -0.0843 -0.1449 -0.141 -0.0378 -0.0567 -0.0631 -0.1208 -0.0743 -0.188 -0.0113 -0.0672 -0.0081 -0.136 0.0092 -0.2019l0.819 -3.587Zm0.235 3.407 0.648 0.147c0.1733 0.0423 0.3537 0.0464 0.5288 0.012 0.175 -0.0343 0.3405 -0.1063 0.485 -0.2109 0.1444 -0.1046 0.2645 -0.2394 0.3517 -0.395 0.0872 -0.1556 0.1396 -0.3283 0.1535 -0.5061 0.0698 -0.1735 0.1001 -0.3603 0.0886 -0.5469 -0.0116 -0.1866 -0.0646 -0.3683 -0.1552 -0.5318 -0.0906 -0.1636 -0.2166 -0.3048 -0.3687 -0.4135 -0.1521 -0.1087 -0.3266 -0.1821 -0.5107 -0.2148l-0.584 -0.132 -0.637 2.792Z" stroke-width="1"></path><path fill="#e3d3fe" d="M75.459 58.451c0.0058 -0.0731 0.0275 -0.144 0.0637 -0.2078 0.0362 -0.0637 0.086 -0.1187 0.1458 -0.1611 0.0599 -0.0423 0.1283 -0.071 0.2004 -0.084 0.0722 -0.013 0.1463 -0.01 0.2171 0.0089l1.59 0.362c0.0607 0.0097 0.1188 0.032 0.1703 0.0655 0.0516 0.0335 0.0956 0.0774 0.1291 0.129 0.0336 0.0515 0.0559 0.1095 0.0657 0.1702 0.0097 0.0607 0.0066 0.1228 -0.0091 0.1823 -0.0124 0.0598 -0.037 0.1165 -0.0722 0.1664 -0.0353 0.05 -0.0804 0.0921 -0.1327 0.1238 -0.0523 0.0318 -0.1105 0.0524 -0.1711 0.0606 -0.0605 0.0082 -0.1222 0.0038 -0.181 -0.0128L76.347 59l-0.213 0.936 1.052 0.24c0.0616 0.009 0.1206 0.0308 0.1731 0.0641 0.0526 0.0332 0.0976 0.0772 0.1321 0.1289 0.0345 0.0518 0.0578 0.1102 0.0682 0.1715 0.0105 0.0614 0.008 0.1242 -0.0074 0.1845 -0.0134 0.0604 -0.039 0.1174 -0.0754 0.1675 -0.0363 0.05 -0.0825 0.0921 -0.1357 0.1236 -0.0533 0.0315 -0.1124 0.0518 -0.1738 0.0595 -0.0614 0.0077 -0.1237 0.0027 -0.1831 -0.0146l-1.052 -0.24 -0.222 0.975 1.186 0.27c0.0607 0.0097 0.1187 0.032 0.1703 0.0655 0.0515 0.0335 0.0954 0.0775 0.1289 0.129 0.0334 0.0516 0.0557 0.1096 0.0653 0.1703 0.0096 0.0607 0.0064 0.1228 -0.0095 0.1822 -0.0124 0.0597 -0.037 0.1163 -0.0721 0.1662 -0.0352 0.0499 -0.0803 0.0921 -0.1324 0.1238 -0.0521 0.0318 -0.1102 0.0526 -0.1707 0.061 -0.0604 0.0084 -0.122 0.0043 -0.1808 -0.012l-1.655 -0.377c-0.0655 -0.0113 -0.1279 -0.0361 -0.1834 -0.0727 -0.0554 -0.0366 -0.1027 -0.0844 -0.1387 -0.1402 -0.0361 -0.0558 -0.0602 -0.1185 -0.0709 -0.1841 -0.0106 -0.0656 -0.0076 -0.1327 0.009 -0.197l0.803 -3.53Z" stroke-width="1"></path><path fill="#e3d3feab" stroke="#e3d3fe" stroke-linecap="round" stroke-linejoin="round" d="m64.845 56.522 2.64 -0.645 2.1 1.725 -0.675 2.963 -2.64 0.645 -2.1 -1.725 0.675 -2.963Z" stroke-width="1"></path><path fill="#e3d3feab" stroke="#e3d3fe" stroke-linecap="round" stroke-linejoin="round" d="M50.193 61.347c3.692 0 6.685 -1.0884 6.685 -2.431s-2.993 -2.431 -6.685 -2.431c-3.692 0 -6.685 1.0884 -6.685 2.431s2.993 2.431 6.685 2.431Z" stroke-width="1"></path><path stroke="#e3d3fe" stroke-linecap="round" stroke-linejoin="round" d="M25.817 45.453c-1.463 1.463 2.194 3.657 2.194 5.851 0 1.635 -2.194 2.194 -2.194 3.657" stroke-width="1"></path><path stroke="#e3d3fe" stroke-linecap="round" stroke-linejoin="round" d="M20.7 42.528c-1.462 1.463 2.194 3.657 2.194 5.851 0 1.635 -2.194 2.194 -2.194 3.656" stroke-width="1"></path><path fill="#e3d3fe00" d="M22.18 81.402c3.692 0 6.685 -0.9523 6.685 -2.127 0 -1.1747 -2.993 -2.127 -6.685 -2.127 -3.692 0 -6.685 0.9523 -6.685 2.127 0 1.1747 2.993 2.127 6.685 2.127Z" stroke-width="1"></path><path fill="#ffffff" d="M25.356 78.364H19c-0.2962 -0.0016 -0.5816 -0.1113 -0.8026 -0.3085 -0.221 -0.1973 -0.3623 -0.4684 -0.3974 -0.7625L16.1 63.17h12.158l-1.7 14.123c-0.0351 0.2944 -0.1768 0.5659 -0.3982 0.7631 -0.2214 0.1973 -0.5073 0.3068 -0.8038 0.3079Z" stroke-width="1"></path><path stroke="#e3d3fe" stroke-linejoin="round" d="M25.356 78.364H19c-0.2962 -0.0016 -0.5816 -0.1113 -0.8026 -0.3085 -0.221 -0.1973 -0.3623 -0.4684 -0.3974 -0.7625L16.1 63.17h12.158l-1.7 14.123c-0.0351 0.2944 -0.1768 0.5659 -0.3982 0.7631 -0.2214 0.1973 -0.5073 0.3068 -0.8038 0.3079Z" stroke-width="1"></path><path fill="#ffffff" stroke="#e3d3fe" stroke-linejoin="round" d="M28.258 63.17H16.1c-0.3225 0 -0.6318 -0.1281 -0.8598 -0.3562 -0.2281 -0.228 -0.3562 -0.5373 -0.3562 -0.8598 0.0003 -0.3223 0.1285 -0.6314 0.3565 -0.8592 0.228 -0.2278 0.5372 -0.3558 0.8595 -0.3558h12.158c0.3222 0 0.6313 0.128 0.8591 0.3558 0.2279 0.2279 0.3559 0.5369 0.3559 0.8592 0.0001 0.1596 -0.0312 0.3177 -0.0922 0.4653 -0.061 0.1475 -0.1505 0.2815 -0.2633 0.3945 -0.1128 0.1129 -0.2468 0.2025 -0.3943 0.2636 -0.1475 0.0611 -0.3056 0.0926 -0.4652 0.0926Z" stroke-width="1"></path><path fill="#ffffff" stroke="#e3d3fe" stroke-linejoin="round" d="M28.258 60.739H16.1l0.507 -2.108c0.064 -0.2653 0.2153 -0.5014 0.4297 -0.6703 0.2144 -0.1689 0.4794 -0.2607 0.7523 -0.2607h8.777c0.2729 0 0.5379 0.0918 0.7523 0.2607 0.2144 0.1689 0.3657 0.405 0.4297 0.6703l0.51 2.108Z" stroke-width="1"></path><path fill="#e3d3feab" stroke="#e3d3fe" stroke-linecap="round" stroke-linejoin="round" d="M24.947 69.588c0 0.5472 -0.1623 1.0822 -0.4663 1.5372 -0.3041 0.4551 -0.7362 0.8097 -1.2418 1.0192 -0.5056 0.2094 -1.062 0.2642 -1.5987 0.1574 -0.5368 -0.1067 -1.0298 -0.3703 -1.4168 -0.7573 -0.3869 -0.3869 -0.6505 -0.88 -0.7572 -1.4167 -0.1068 -0.5367 -0.052 -1.0931 0.1574 -1.5987s0.5641 -0.9378 1.0191 -1.2418c0.4551 -0.304 0.99 -0.4663 1.5373 -0.4663 0.7338 0 1.4376 0.2915 1.9566 0.8104 0.5189 0.5189 0.8104 1.2227 0.8104 1.9566v0Z" stroke-width="1"></path></svg>