<svg xmlns="http://www.w3.org/2000/svg" fill="none" viewBox="-1 -1 28 28" id="Task-List-Edit--Streamline-Flex-Neon" height="28" width="28"><desc>Task List Edit Streamline Icon: https://streamlinehq.com</desc><g id="task-list-edit--task-list-edit-work"><path id="Vector" stroke="#000cfe" stroke-linecap="round" stroke-linejoin="round" d="M17.753895714285715 24.015457142857144 24.306285714285714 17.811597142857142c1.0892142857142857 -1.031197142857143 1.0050857142857144 -2.8566385714285714 -0.18571428571428572 -4.027177142857143 -1.1625714285714286 -1.1429785714285716 -2.9359571428571427 -1.221517142857143 -3.960728571428571 -0.1754257142857143L13.785998571428573 20.114714285714285l-1.0486728571428572 3.9083571428571426c-0.15676142857142858 0.5842571428571428 0.42965000000000003 1.175757142857143 1.0159871428571428 1.0247714285714284l3.9970357142857145 -1.028857142857143" stroke-width="2"></path><path id="Vector_2" stroke="#000cfe" stroke-linecap="round" stroke-linejoin="round" d="m6.080267142857143 8.227904285714287 1.7080885714285714 1.5884328571428572c0.8037714285714286 -2.082061428571429 1.47316 -2.9957014285714285 2.9891642857142857 -4.235845714285714" stroke-width="2"></path><path id="Vector_3" stroke="#000cfe" stroke-linecap="round" stroke-linejoin="round" d="m6.080267142857143 15.194901428571429 1.7080885714285714 1.5884514285714286c0.8037714285714286 -2.08208 1.47316 -2.9957200000000004 2.9891642857142857 -4.235845714285714" stroke-width="2"></path><path id="Intersect" stroke="#c71dff" stroke-linecap="round" stroke-linejoin="round" d="M21.284714285714287 8.41178C19.33137142857143 5.416672857142857 17.988062857142857 3.7693871428571426 15.58636857142857 1.7571505714285716 14.98108857142857 1.2500242857142856 14.21732 0.971555 13.427885714285715 0.9535165714285715 12.703785714285713 0.9369712857142859 11.94815142857143 0.9285714285714286 11.142745714285715 0.9285714285714286c-2.5214614285714285 0 -4.555162857142857 0.08232342857142858 -6.660085714285715 0.2391832857142857C2.6945657142857145 1.3010047142857142 1.2852004285714285 2.7359428571428572 1.1780618571428572 4.5258014285714285 1.0145478571428572 7.257435714285714 0.9284581428571429 10.092550000000001 0.9284581428571429 13c0 2.9074314285714284 0.0860897142857143 5.742657142857143 0.2496037142857143 8.474142857142857 0.10713857142857143 1.7899142857142858 1.5164481428571428 3.2249285714285714 3.3045424285714287 3.3580857142857146 1.1482528571428572 0.08561428571428573 2.2753157142857146 0.14894285714285713 3.4719100000000003 0.18887142857142858" stroke-width="2"></path></g></svg>