<svg xmlns="http://www.w3.org/2000/svg" fill="none" viewBox="-0.65 -0.65 14 14" id="Bank--Streamline-Flex-Neon"><desc>Bank Streamline Icon: https://streamlinehq.com</desc><g id="bank--institution-saving-bank-payment-finance"><path id="Vector 200" stroke="#000cfe" stroke-linecap="round" stroke-linejoin="round" d="M2.5584240714285715 9.28116v-4.563835714285714" stroke-width="1.3"></path><path id="Vector 201" stroke="#000cfe" stroke-linecap="round" stroke-linejoin="round" d="M6.3504445 9.28116v-4.563835714285714" stroke-width="1.3"></path><path id="Vector 202" stroke="#000cfe" stroke-linecap="round" stroke-linejoin="round" d="M10.141585000000001 9.28116v-4.563835714285714" stroke-width="1.3"></path><path id="Vector 204" stroke="#c71dff" stroke-linecap="round" stroke-linejoin="round" d="M5.999307642857143 0.7484472857142858C4.060997357142857 1.532717642857143 2.1540470000000003 2.622976357142857 0.79877285 4.0192052857142855c-0.26668004285714286 0.2747463571428571 -0.05229587857142857 0.6982641428571429 0.3382309357142857 0.6982641428571429H11.562987142857143c0.390525 0 0.6048828571428571 -0.4235177857142857 0.33827357142857145 -0.6982641428571429 -1.3552714285714285 -1.3962289285714287 -3.2622580714285716 -2.486487642857143 -5.200568357142857 -3.2707580000000003 -0.22438178571428571 -0.09078685714285714 -0.47700292857142856 -0.09078685714285714 -0.7013847142857143 0Z" stroke-width="1.3"></path><path id="Vector 205" stroke="#c71dff" stroke-linecap="round" stroke-linejoin="round" d="M2.558841357142857 9.281341428571428c-1.1017975714285715 0 -1.6343539285714286 0.822325 -1.8182444857142854 1.8297071428571428 -0.09063445714285714 0.49647928571428573 0.3469585571428571 0.9086850000000001 0.8704253428571429 0.9086850000000001H11.089186428571429c0.5235121428571428 0 0.9611178571428572 -0.4122057142857143 0.8704035714285715 -0.9086850000000001 -0.18387785714285712 -1.0073821428571428 -0.7163707142857142 -1.8297071428571428 -1.8181864285714286 -1.8297071428571428H2.558841357142857Z" stroke-width="1.3"></path></g></svg>