<svg viewBox="0 0 100 100" xmlns="http://www.w3.org/2000/svg" id="Chatting-With-Bot-1--Streamline-Ux.svg"><desc>Chatting With Bot 1 Streamline Illustration: https://streamlinehq.com</desc><path d="M11.43 50a40 40 0 1 0 80 0 40 40 0 1 0 -80 0Z" fill="#e3d3fe00" stroke-width="1"></path><path d="M83.043 43.688a2.12 2.12 0 0 1 -2.121 2.121H38.505a2.12 2.12 0 0 1 -2.121 -2.121V20.359a2.12 2.12 0 0 1 2.121 -2.121h42.417a2.12 2.12 0 0 1 2.121 2.121v10.6l6.915 7.779a1.06 1.06 0 0 1 -0.793 1.765h-6.122Z" fill="#ffffff" stroke="#e3d3fe" stroke-linecap="round" stroke-linejoin="round" stroke-width="1"></path><path d="m76.68 25.661 -15.906 0" fill="none" stroke="#e3d3fe" stroke-linecap="round" stroke-linejoin="round" stroke-width="1"></path><path d="m76.68 30.963 -15.906 0" fill="none" stroke="#e3d3fe" stroke-linecap="round" stroke-linejoin="round" stroke-width="1"></path><path d="m69.611 36.265 -8.837 0" fill="none" stroke="#e3d3fe" stroke-linecap="round" stroke-linejoin="round" stroke-width="1"></path><path d="M16.681 80.633a2.4 2.4 0 0 0 2.395 2.4h47.9a2.4 2.4 0 0 0 2.4 -2.4V54.287a2.4 2.4 0 0 0 -2.4 -2.395h-47.9a2.4 2.4 0 0 0 -2.395 2.395v11.976l-7.808 8.784a1.2 1.2 0 0 0 0.9 1.994h6.913Z" fill="#ffffff" stroke="#e3d3fe" stroke-linecap="round" stroke-linejoin="round" stroke-width="1"></path><path d="m63.385 63.031 -17.963 0" fill="none" stroke="#e3d3fe" stroke-linecap="round" stroke-linejoin="round" stroke-width="1"></path><path d="m63.385 69.019 -17.963 0" fill="none" stroke="#e3d3fe" stroke-linecap="round" stroke-linejoin="round" stroke-width="1"></path><path d="m55.402 75.007 -9.98 0" fill="none" stroke="#e3d3fe" stroke-linecap="round" stroke-linejoin="round" stroke-width="1"></path><path d="M39.828 31.788a8.248 8.248 0 1 0 16.496 0 8.248 8.248 0 1 0 -16.496 0Z" fill="#e3d3feab" stroke="#e3d3fe" stroke-linecap="round" stroke-linejoin="round" stroke-width="1"></path><path d="M45.422 31.6a2.654 2.654 0 1 0 5.308 0v-1.33a2.654 2.654 0 1 0 -5.308 0Z" fill="#ffffff" stroke-width="1"></path><path d="M45.422 31.6a2.654 2.654 0 1 0 5.308 0v-1.33a2.654 2.654 0 1 0 -5.308 0Z" fill="none" stroke="#e3d3fe" stroke-linecap="round" stroke-linejoin="round" stroke-width="1"></path><path d="M42.565 37.925a8.249 8.249 0 0 0 11.022 0 5.97 5.97 0 0 0 -11.022 0Z" fill="#ffffff" stroke="#e3d3fe" stroke-linecap="round" stroke-linejoin="round" stroke-width="1"></path><path d="M45.444 29.927a2.653 2.653 0 0 1 4.836 -1.134 4.835 4.835 0 0 1 -4.836 1.134Z" fill="#ffffff" stroke="#e3d3fe" stroke-linecap="round" stroke-linejoin="round" stroke-width="1"></path><path d="M20.534 66.741a9.314 9.314 0 1 0 18.628 0 9.314 9.314 0 1 0 -18.628 0Z" fill="#e3d3feab" stroke="#e3d3fe" stroke-linecap="round" stroke-linejoin="round" stroke-width="1"></path><path d="m24.518 63.357 10.661 0 0 8.815 -10.661 0Z" fill="#ffffff" stroke-width="1"></path><path d="m24.518 63.357 10.661 0 0 8.815 -10.661 0Z" fill="none" stroke="#e3d3fe" stroke-linecap="round" stroke-linejoin="round" stroke-width="1"></path><path d="M35.179 64.679v6.171a1.321 1.321 0 0 1 -1.323 1.322H25.84a1.321 1.321 0 0 1 -1.322 -1.322v-6.171a1.321 1.321 0 0 1 1.322 -1.322h8.016c0.053 0 0.1 0.005 0.155 0.009a1.322 1.322 0 0 1 1.168 1.313Z" fill="none" stroke="#e3d3fe" stroke-linecap="round" stroke-linejoin="round" stroke-width="1"></path><path d="m29.848 63.357 0 -1.616" fill="none" stroke="#e3d3fe" stroke-linecap="round" stroke-linejoin="round" stroke-width="1"></path><path d="M28.726 60.686a1.122 1.122 0 1 0 2.244 0 1.122 1.122 0 1 0 -2.244 0Z" fill="#ffffff" stroke="#e3d3fe" stroke-linecap="round" stroke-linejoin="round" stroke-width="1"></path><path d="m28.548 73.918 0 -1.746 2.601 0 0 1.732" fill="none" stroke="#e3d3fe" stroke-linecap="round" stroke-linejoin="round" stroke-width="1"></path><path d="M27.092 67.352a1.378 1.378 0 1 0 2.756 0 1.378 1.378 0 1 0 -2.756 0Z" fill="#e3d3feab" stroke="#e3d3fe" stroke-linecap="round" stroke-linejoin="round" stroke-width="1"></path><path d="M29.849 67.352a1.378 1.378 0 1 0 2.756 0 1.378 1.378 0 1 0 -2.756 0Z" fill="#e3d3feab" stroke="#e3d3fe" stroke-linecap="round" stroke-linejoin="round" stroke-width="1"></path></svg>