<svg xmlns="http://www.w3.org/2000/svg" fill="none" viewBox="-0.65 -0.65 14 14" id="Memes-Comment-Reply--Streamline-Flex-Neon"><desc>Memes Comment Reply Streamline Icon: https://streamlinehq.com</desc><g id="memes-comment-reply"><path id="Subtract" fill-rule="evenodd" stroke="#c71dff" stroke-linejoin="round" d="M5.9510567142857145 12.246428571428572c-7.528804928571428 0 -5.585765707142857 -7.777362071428572 -4.189593928571429 -11.18462692857143l2.1963652142857146 1.9497947142857142c0.9104085714285715 -0.4443911428571428 3.3681125714285716 -0.5393236428571428 4.2238839285714285 -0.21107399999999998L9.546317857142858 0.45357142857142857s1.7721035714285713 2.274651642857143 2.339975 4.853849285714285c-0.009615714285714286 -0.0023222857142857147 -0.019322142857142857 -0.004318000000000001 -0.02921 -0.005987142857142857 -1.013097142857143 -0.17109621428571428 -1.9076307142857143 -0.10588171428571429 -2.912255142857143 0.01543957142857143 -0.19335750000000002 0.02334985714285714 -0.35153599999999996 0.16866507142857143 -0.3776707857142857 0.36165971428571425 -0.08291285714285714 0.6124756428571428 -0.04103914285714286 1.1849281428571428 0.12857842857142857 1.7713597142857143 0.08225064285714286 0.284353 0.3233510714285714 0.4923971428571428 0.6149975000000001 0.5428796428571429 0.7259864285714286 0.1256574285714286 1.4249399999999999 0.1256574285714286 2.1509264285714287 0 0.2916464285714286 -0.0504825 0.532765 -0.2585266428571429 0.6149521428571428 -0.5428796428571429 0.018596428571428573 -0.06406242857142858 0.03556 -0.12796157142857142 0.05107214285714286 -0.19177l0.10749642857142856 0.9124315C12.502242857142857 11.789047142857141 7.947396928571429 12.246428571428572 5.9510567142857145 12.246428571428572ZM2.9706025714285715 5.678532857142858c0.026125714285714283 -0.19299464285714285 0.1843132857142857 -0.33830985714285716 0.3776617142857143 -0.36165971428571425 1.0046062857142857 -0.12132128571428571 1.8991942857142856 -0.18653578571428572 2.9122642142857145 -0.01543957142857143 0.17889764285714285 0.03021692857142857 0.31913285714285716 0.17086942857142856 0.3444602857142857 0.3505290714285714 0.08777514285714286 0.6225086428571429 0.04717142857142857 1.2030256428571429 -0.1249045 1.7979299285714285 -0.08225064285714286 0.284353 -0.32334199999999996 0.4923971428571428 -0.6150065714285714 0.5428796428571429 -0.7259319999999999 0.1256574285714286 -1.424958142857143 0.1256574285714286 -2.150890142857143 0 -0.2916645714285714 -0.0504825 -0.5327559285714285 -0.2585266428571429 -0.6150065714285714 -0.5428796428571429 -0.16962664285714285 -0.5864315714285715 -0.21150035714285714 -1.1588840714285713 -0.12857842857142857 -1.7713597142857143Z" clip-rule="evenodd" stroke-width="1.3"></path><path id="Vector 2607" stroke="#000cfe" stroke-linecap="round" stroke-linejoin="round" d="M0.45357142857142857 6.458548714285714c0.8497479285714286 -0.23715435714285713 1.6259537857142856 -0.23715435714285713 2.475701714285714 0" stroke-width="1.3"></path><path id="Vector 2608" stroke="#000cfe" stroke-linejoin="round" d="M6.649647428571429 6.249279928571428c0.6561001428571429 -0.2600687857142857 1.2382772142857144 -0.2600687857142857 1.8943773571428573 0" stroke-width="1.3"></path><path id="Vector 2609" stroke="#c71dff" stroke-linecap="round" stroke-linejoin="round" d="M3.6746361428571426 9.540421428571427c0.40784235714285716 0.3280228571428571 1.3260977142857142 0.8117114285714286 2.673858 0.6065157142857143" stroke-width="1.3"></path><path id="Rectangle 82" stroke="#000cfe" stroke-linejoin="round" d="M2.9706025714285715 5.678532857142858c0.026125714285714283 -0.19299464285714285 0.1843132857142857 -0.33830985714285716 0.3776617142857143 -0.36165971428571425 1.0046062857142857 -0.12132128571428571 1.8991942857142856 -0.18653578571428572 2.9122642142857145 -0.01543957142857143 0.17889764285714285 0.03021692857142857 0.31913285714285716 0.17086942857142856 0.3444602857142857 0.3505290714285714 0.08777514285714286 0.6225086428571429 0.04717142857142857 1.2030256428571429 -0.1249045 1.7979299285714285 -0.08225064285714286 0.284353 -0.32334199999999996 0.4923971428571428 -0.6150065714285714 0.5428796428571429 -0.7259319999999999 0.1256574285714286 -1.424958142857143 0.1256574285714286 -2.150890142857143 0 -0.2916645714285714 -0.0504825 -0.5327559285714285 -0.25853571428571426 -0.6150065714285714 -0.5428796428571429 -0.16962664285714285 -0.5864315714285715 -0.2114912857142857 -1.1588840714285713 -0.12857842857142857 -1.7713597142857143Z" stroke-width="1.3"></path><path id="Rectangle 83" stroke="#000cfe" stroke-linejoin="round" d="M8.567156928571428 5.678532857142858c0.026134785714285715 -0.19299464285714285 0.1843132857142857 -0.33830985714285716 0.3776707857142857 -0.36165971428571425 1.0046244285714288 -0.12132128571428571 1.8991580000000001 -0.18653578571428572 2.912255142857143 -0.01543957142857143 0.17888857142857142 0.03021692857142857 0.31913285714285716 0.17086942857142856 0.34444214285714286 0.3505290714285714 0.08781142857142857 0.6225086428571429 0.04717142857142857 1.2030256428571429 -0.12491357142857142 1.7979299285714285 -0.08218714285714286 0.284353 -0.3233057142857143 0.4923971428571428 -0.6149521428571428 0.5428796428571429 -0.7259864285714286 0.1256574285714286 -1.4249399999999999 0.1256574285714286 -2.1509264285714287 0 -0.2916464285714286 -0.0504825 -0.5327468571428572 -0.25853571428571426 -0.6149975000000001 -0.5428796428571429 -0.16961757142857142 -0.5864315714285715 -0.2114912857142857 -1.1588840714285713 -0.12857842857142857 -1.7713597142857143Z" stroke-width="1.3"></path></g></svg>