<svg xmlns="http://www.w3.org/2000/svg" fill="none" viewBox="0 0 14 14" id="Global-Learning--Streamline-Flex-Neon" height="14" width="14" style="background-color: #ffffff">
  <desc>
    Global Learning Streamline Icon: https://streamlinehq.com
  </desc>
  <g id="global-learning--global-learning-education">
    <path id="Ellipse 1560" stroke="#c71dff" stroke-linecap="round" d="M10.9677 6.23428c0.0149 -0.16105 0.0225 -0.32422 0.0225 -0.48916C10.9902 2.84832 8.64192 0.5 5.74512 0.5S0.5 2.84832 0.5 5.74512c0 2.31741 1.50289 4.28378 3.58718 4.97768" stroke-width="1"></path>
    <path id="Ellipse 1561" stroke="#c71dff" stroke-linecap="round" stroke-linejoin="round" d="M7.73546 6.45497c0.0256 -0.23214 0.03956 -0.4691 0.03956 -0.70985C7.77502 2.84832 5.7536 0.5 5.7536 0.5S3.73218 2.84832 3.73218 5.74512c0 1.04224 0.26167 2.01348 0.59672 2.82989" stroke-width="1"></path>
    <path id="Vector" stroke="#c71dff" stroke-linecap="round" stroke-linejoin="round" d="M0.5 5.74445h10.4902" stroke-width="1"></path>
    <path id="Ellipse 347" stroke="#000cfe" stroke-linecap="round" stroke-linejoin="round" d="M6.073 12.3105v-2.3061" stroke-width="1"></path>
    <path id="Intersect" stroke="#000cfe" stroke-linecap="round" stroke-linejoin="round" d="M11.7734 11.2135c0 0.4356 -0.0349 0.8622 -0.0743 1.2768 -0.0457 0.4802 -0.4244 0.8725 -0.9029 0.9331 -0.3288 0.0417 -0.6661 0.0766 -1.00965 0.0766 -0.3436 0 -0.68084 -0.0349 -1.00967 -0.0766 -0.47851 -0.0606 -0.85723 -0.4529 -0.90286 -0.9331 -0.03939 -0.4146 -0.07434 -0.8412 -0.07434 -1.2768" stroke-width="1"></path>
    <path id="Intersect_2" stroke="#000cfe" stroke-linecap="round" stroke-linejoin="round" d="M6.2953 9.69638c-0.29613 0.17763 -0.29596 0.43232 -0.00116 0.61042 0.40813 0.2466 0.83007 0.5027 1.32036 0.7374 0.49028 0.2347 1.02522 0.4367 1.54035 0.6321 0.37209 0.1412 0.90405 0.1412 1.27505 -0.0005 0.5112 -0.1954 1.0406 -0.3979 1.5287 -0.6316 0.4881 -0.2336 0.9112 -0.4871 1.3192 -0.7318 0.2961 -0.1777 0.2959 -0.4323 0.0011 -0.61044 -0.4081 -0.24661 -0.83 -0.5027 -1.3203 -0.73742 -0.4903 -0.23472 -1.0252 -0.43672 -1.5404 -0.6321 -0.3721 -0.14114 -0.90398 -0.14122 -1.27501 0.00055 -0.51118 0.19532 -1.04063 0.39789 -1.52869 0.63155 -0.48807 0.23365 -0.91121 0.48712 -1.3192 0.73184Z" stroke-width="1"></path>
  </g>
</svg>