<svg xmlns="http://www.w3.org/2000/svg" fill="none" viewBox="-0.7 -0.7 14 14" id="Share-Code--Streamline-Flex-Neon" height="14" width="14" style="background-color: #ffffff"><desc>Share Code Streamline Icon: https://streamlinehq.com</desc><g id="share-code--code-angle-programming-share"><path id="Vector" stroke="#000cfe" stroke-linecap="round" stroke-linejoin="round" d="m7.875 4.5 1.35 -4.05" stroke-width="1"></path><path id="Vector_2" stroke="#000cfe" stroke-linecap="round" stroke-linejoin="round" d="M6.3 4.05c-0.54 -0.27 -1.08 -0.81 -1.35 -1.349982C5.22 2.16 5.760000000000001 1.62 6.3 1.35" stroke-width="1"></path><path id="Vector_3" stroke="#000cfe" stroke-linecap="round" stroke-linejoin="round" d="M10.8 4.05c0.54 -0.27 1.08 -0.81 1.35 -1.349982C11.879999999999999 2.16 11.34 1.62 10.8 1.35" stroke-width="1"></path><path id="Vector 111" stroke="#c71dff" stroke-linecap="round" stroke-linejoin="round" d="m0.7922790000000001 5.552676 0.641655 -0.039699000000000005c0.740511 -0.045819 1.483659 0.023094 2.203119 0.2043l1.0654020000000002 0.268326c0.578682 0.14574600000000001 0.962649 0.694206 0.901584 1.287828v0c-0.07148700000000001 0.694917 -0.718587 1.1825100000000002 -1.406277 1.059633L3.19266 8.153478l3.5438400000000003 0.635508 3.67065 -0.8712c0.59382 -0.140922 1.1916900000000001 0.21684599999999998 1.3482 0.8066880000000001v0c0.14535 0.547866 -0.13923000000000002 1.118376 -0.66438 1.331766l-2.93616 1.19295c-1.428255 0.5803200000000001 -3.019752 0.61668 -4.473018 0.10215L0.6376464000000001 10.27359" stroke-width="1"></path></g></svg>