<svg xmlns="http://www.w3.org/2000/svg" fill="none" viewBox="0 0 14 14" id="Html-Five--Streamline-Flex-Neon.svg" height="14" width="14"><desc>Html Five Streamline Icon: https://streamlinehq.com</desc><g id="html-five--language-five-code-programming-html"><path id="Vector" stroke="#000cfe" stroke-linecap="round" stroke-linejoin="round" d="M9.5 3.52637s-1.51882 -0.25 -2.5 -0.25c-0.98118 0 -2.5 0.25 -2.5 0.25l0.5 2.5h4v2.5l-1.4 1.05c-0.35556 0.26666 -0.84444 0.26666 -1.2 0l-1.4 -1.05" stroke-width="1"></path><path id="Vector_2" stroke="#c71dff" stroke-linecap="round" stroke-linejoin="round" d="M12.1259 9.4747c-0.0966 0.35654 -0.2929 0.6774 -0.569 0.9282 -0.4643 0.4217 -1.2241 1.1002 -1.81017 1.5656 -0.46752 0.3713 -1.07714 0.8078 -1.60326 1.1737 -0.68621 0.4771 -1.60073 0.4771 -2.28694 0 -0.52612 -0.3659 -1.13574 -0.8024 -1.60326 -1.1737 -0.58604 -0.4654 -1.34591 -1.1439 -1.81019 -1.5656 -0.27608 -0.2508 -0.47241 -0.57166 -0.56893 -0.92821 -0.24518 -0.90563 -0.73091 -2.75582 -0.980127 -4.08908 -0.142433 -0.762 -0.274354 -1.71222 -0.379005 -2.55338C0.373698 1.69632 1.24684 0.694331 2.41332 0.638131 3.80185 0.571232 5.60731 0.5 7 0.5c1.39269 0 3.1982 0.071232 4.5867 0.138131 1.1665 0.0562 2.0396 1.058189 1.8983 2.194099 -0.1047 0.84116 -0.2366 1.79138 -0.379 2.55338 -0.2492 1.33326 -0.735 3.18345 -0.9801 4.08909Z" stroke-width="1"></path></g></svg>