<svg xmlns="http://www.w3.org/2000/svg" fill="none" viewBox="-0.65 -0.65 14 14" id="Daily-Calendar--Streamline-Flex-Neon"><desc>Daily Calendar Streamline Icon: https://streamlinehq.com</desc><g id="daily-calendar--one-calendar-date-day-month"><path id="Intersect" stroke="#c71dff" stroke-linecap="round" stroke-linejoin="round" d="M0.8371758357142857 9.57199c0.15053945000000002 1.2928600000000001 1.2421951642857143 2.3194735714285715 2.5921053785714285 2.3820664285714286 0.9330417857142858 0.04318 1.8861767857142857 0.06567714285714286 2.9206280714285717 0.06567714285714286 1.0344603571428572 0 1.9875862857142859 -0.022497142857142858 2.9206371428571427 -0.06567714285714286 1.3499192857142857 -0.06259285714285714 2.441575 -1.0892064285714287 2.59207 -2.3820664285714286 0.20909642857142857 -1.79578 0.20909642857142857 -3.3250232857142854 0 -5.120776071428571 -0.150495 -1.2929144285714285 -1.2421507142857142 -2.3194645 -2.59207 -2.3820482857142857 -0.9330417857142858 -0.04326164285714286 -1.8861767857142857 -0.06574064285714286 -2.9206371428571427 -0.06574064285714286 -1.0344512857142856 0 -1.9875862857142859 0.022479 -2.9206280714285717 0.06574064285714286 -1.3499102142857142 0.06258378571428572 -2.4415659285714284 1.0891338571428573 -2.5921053785714285 2.3820482857142857 -0.20909189285714286 1.7957527857142856 -0.20909098571428572 3.3249960714285716 0 5.120776071428571Z" stroke-width="1.3"></path><path id="Line 3" stroke="#000cfe" stroke-linecap="round" stroke-linejoin="round" d="m3.857126071428571 0.6803571428571429 0 2.494642857142857" stroke-width="1.3"></path><path id="Line 4" stroke="#000cfe" stroke-linecap="round" stroke-linejoin="round" d="m8.842873928571429 0.6803571428571429 0 2.494642857142857" stroke-width="1.3"></path><path id="Vector 2" stroke="#000cfe" stroke-linecap="round" stroke-linejoin="round" d="m6.3508890000000005 5.472529785714285 0 4.084583071428572" stroke-width="1.3"></path><path id="Vector 3" stroke="#000cfe" stroke-linecap="round" stroke-linejoin="round" d="m4.989340142857143 6.493691428571429 0.3403872142857143 0c0.5639707142857143 0 1.0211616428571428 -0.4571909285714286 1.0211616428571428 -1.0211616428571428v0" stroke-width="1.3"></path><path id="Vector 1" stroke="#000cfe" stroke-linecap="round" stroke-linejoin="round" d="M7.712483214285715 9.556931428571428H4.989403642857143" stroke-width="1.3"></path></g></svg>