<?xml version="1.0" encoding="UTF-8"?>
<svg version="1.1" xmlns="http://www.w3.org/2000/svg" width="194" height="144">
<path d="M0 0 C1.33509361 0.49941101 1.33509361 0.49941101 2.69715881 1.00891113 C5.60764527 2.0996113 8.51265636 3.20419437 11.41796875 4.30859375 C14.48056768 5.45958505 17.54455458 6.60682946 20.60858154 7.75401306 C22.72040016 8.54501902 24.83176443 9.33723902 26.94268799 10.13063049 C38.4239986 14.44280934 49.95005123 18.62990756 61.48046875 22.80859375 C63.41776443 23.51169043 65.35502136 24.21489386 67.29223633 24.91821289 C71.7294802 26.52888912 76.16728365 28.13801296 80.60546875 29.74609375 C77.52559538 33.11992435 73.97096911 34.37215034 69.76171875 35.91796875 C68.99621704 36.20464417 68.23071533 36.49131958 67.4420166 36.78668213 C65.82631543 37.38908068 64.20904174 37.98727606 62.59033203 38.58154297 C60.10985092 39.4944809 57.63690589 40.42597615 55.1640625 41.359375 C53.59286728 41.94253739 52.02126572 42.52460637 50.44921875 43.10546875 C49.70853149 43.385578 48.96784424 43.66568726 48.20471191 43.95428467 C42.9500214 45.86094463 42.9500214 45.86094463 39.60546875 44.74609375 C38.86296875 43.96234375 38.12046875 43.17859375 37.35546875 42.37109375 C32.287988 37.53395303 26.26134948 36.21615338 19.54296875 35.12109375 C18.79619873 34.99629639 18.04942871 34.87149902 17.2800293 34.74291992 C-6.60122988 30.90899454 -43.88080782 27.88645386 -65.7109375 40.69140625 C-68.55919631 42.64270786 -68.55919631 42.64270786 -70.39453125 45.74609375 C-76.82953125 44.26109375 -76.82953125 44.26109375 -83.39453125 42.74609375 C-85.31811778 48.51685334 -85.76043404 52.45790781 -85.76953125 58.37109375 C-85.79402344 59.21671875 -85.81851563 60.06234375 -85.84375 60.93359375 C-85.96899162 65.93859672 -85.96899162 65.93859672 -83.37890625 70.03125 C-82.7240625 70.59714844 -82.06921875 71.16304688 -81.39453125 71.74609375 C-81.07421875 74.078125 -81.07421875 74.078125 -81.26953125 76.55859375 C-81.50718667 79.80827327 -81.34008925 81.93510408 -80.42578125 85.109375 C-77.98205946 93.72719691 -78.19990189 103.08986999 -82.32421875 111.109375 C-83.39453125 112.74609375 -83.39453125 112.74609375 -85.39453125 114.74609375 C-94.48376716 115.95799187 -103.63969286 112.37025404 -110.875 106.85546875 C-112.39453125 104.74609375 -112.39453125 104.74609375 -112.44140625 102.1171875 C-111.39453125 99.74609375 -111.39453125 99.74609375 -109.28515625 98.59375 C-108.41375 98.33464844 -107.54234375 98.07554688 -106.64453125 97.80859375 C-100.52354995 95.64001752 -98.11737694 93.02770459 -95.08203125 87.24609375 C-93.91029872 82.98524817 -94.27723196 79.37524451 -95.08203125 75.05859375 C-95.18515625 73.96546875 -95.28828125 72.87234375 -95.39453125 71.74609375 C-94.91056885 71.28823486 -94.42660645 70.83037598 -93.92797852 70.35864258 C-92.16973768 68.82676042 -92.16973768 68.82676042 -92.08569336 66.3894043 C-92.1141333 65.479729 -92.14257324 64.57005371 -92.171875 63.6328125 C-92.19991211 62.13137695 -92.19991211 62.13137695 -92.22851562 60.59960938 C-92.27975586 59.03243164 -92.27975586 59.03243164 -92.33203125 57.43359375 C-92.69794987 44.95343312 -92.69794987 44.95343312 -90.39453125 39.74609375 C-90.99515381 39.51422363 -91.59577637 39.28235352 -92.21459961 39.04345703 C-94.92325299 37.99316822 -97.6276336 36.93228984 -100.33203125 35.87109375 C-101.27755859 35.50628906 -102.22308594 35.14148437 -103.19726562 34.765625 C-104.09638672 34.41113281 -104.99550781 34.05664062 -105.921875 33.69140625 C-106.75452881 33.36672363 -107.58718262 33.04204102 -108.44506836 32.70751953 C-110.39453125 31.74609375 -110.39453125 31.74609375 -111.39453125 29.74609375 C-110.86361374 29.55611816 -110.33269623 29.36614258 -109.78569031 29.17041016 C-104.01515579 27.10494929 -98.24600564 25.03565203 -92.47750854 22.96450806 C-90.21717121 22.1534211 -87.95653132 21.34317681 -85.69558716 20.53378296 C-73.35941957 16.11650142 -61.0483395 11.65231185 -48.81640625 6.953125 C-46.85720506 6.20500656 -44.89797716 5.45695805 -42.9387207 4.70898438 C-39.26472733 3.30520784 -35.60149038 1.87698873 -31.94213867 0.43554688 C-30.26907126 -0.20535148 -28.59566842 -0.84537513 -26.921875 -1.484375 C-26.18640442 -1.78240524 -25.45093384 -2.08043549 -24.69317627 -2.38749695 C-15.87897462 -5.69557819 -8.47757995 -3.26568032 0 0 Z " fill="#FFFFFF" transform="translate(113.39453125,4.25390625)"/>
<path d="M0 0 C2.70060915 0.00315378 5.40011153 -0.02037723 8.10058594 -0.0456543 C40.8947202 -0.16466895 40.8947202 -0.16466895 52.96777344 7.31567383 C55.3603526 10.90454257 55.2319519 12.5891271 55.27636719 16.85473633 C55.30150391 18.15797852 55.32664062 19.4612207 55.35253906 20.80395508 C55.3810898 22.86400028 55.40511982 24.92397492 55.42407227 26.98413086 C55.51153167 34.94774205 55.61145321 42.00000657 58.96777344 49.31567383 C60.45277344 49.81067383 60.45277344 49.81067383 61.96777344 50.31567383 C61.35127152 54.32293629 59.18200973 56.99431939 56.96777344 60.31567383 C55.80888266 63.70894288 55.82825201 66.98458647 55.79199219 70.55004883 C55.76814453 71.7643457 55.74429688 72.97864258 55.71972656 74.22973633 C55.67702315 76.77123636 55.64562952 79.31295353 55.62597656 81.85473633 C55.33177381 94.7996575 55.33177381 94.7996575 50.96777344 100.31567383 C47.06019468 103.70401725 43.70894249 103.64486548 38.65527344 103.50317383 C37.40101563 103.47610352 36.14675781 103.4490332 34.85449219 103.42114258 C33.42556641 103.36893555 33.42556641 103.36893555 31.96777344 103.31567383 C31.96777344 101.99567383 31.96777344 100.67567383 31.96777344 99.31567383 C33.69303385 98.69718424 35.41829427 98.07869466 37.14355469 97.46020508 C39.71802898 95.84495675 40.59158386 94.00768129 41.96777344 91.31567383 C42.43205372 88.68685313 42.43205372 88.68685313 42.40917969 85.92895508 C42.43560547 84.90737305 42.46203125 83.88579102 42.48925781 82.83325195 C42.50279297 81.77557617 42.51632813 80.71790039 42.53027344 79.62817383 C42.8860973 58.39734996 42.8860973 58.39734996 48.96777344 52.31567383 C48.16339844 51.32567383 47.35902344 50.33567383 46.53027344 49.31567383 C43.64094452 45.32448218 43.22393577 42.18275811 42.96777344 37.31567383 C19.6423266 26.6826323 -5.84384688 25.1023945 -29.96972656 34.00317383 C-31.0925 34.44016602 -32.21527344 34.8771582 -33.37207031 35.32739258 C-36.03222656 36.31567383 -36.03222656 36.31567383 -38.03222656 36.31567383 C-38.05349609 37.16838867 -38.05349609 37.16838867 -38.07519531 38.03833008 C-38.46156986 44.29342065 -40.0389863 47.50330736 -44.03222656 52.31567383 C-43.41347656 52.97567383 -42.79472656 53.63567383 -42.15722656 54.31567383 C-36.51369965 62.28300594 -37.68333958 72.59788625 -37.64160156 81.93676758 C-37.50781007 90.44029743 -37.50781007 90.44029743 -33.03222656 97.31567383 C-31.19997709 98.6081241 -31.19997709 98.6081241 -29.28222656 99.19067383 C-27.67347656 99.74754883 -27.67347656 99.74754883 -26.03222656 100.31567383 C-26.36222656 101.30567383 -26.69222656 102.29567383 -27.03222656 103.31567383 C-29.09406289 103.39718127 -31.15684005 103.45509323 -33.21972656 103.50317383 C-34.94255859 103.55538086 -34.94255859 103.55538086 -36.70019531 103.60864258 C-41.58856393 103.17883291 -44.05030018 101.40670315 -47.28222656 97.81567383 C-50.08297426 93.81460568 -50.17057121 90.69752963 -50.24316406 85.92504883 C-50.27152344 84.65790039 -50.29988281 83.39075195 -50.32910156 82.08520508 C-50.3836969 79.42108262 -50.42523436 76.75753605 -50.46191406 74.09301758 C-50.45806257 63.43166819 -50.45806257 63.43166819 -55.78222656 54.62817383 C-56.19472656 54.19504883 -56.60722656 53.76192383 -57.03222656 53.31567383 C-56.90358398 49.45639648 -54.34982917 47.21267708 -52.03222656 44.31567383 C-50.77413536 40.77000766 -50.89097407 37.23526065 -50.85644531 33.50317383 C-50.83325799 32.16722038 -50.80914111 30.8312828 -50.78417969 29.49536133 C-50.74902522 27.40182666 -50.71968315 25.30888239 -50.70629883 23.21508789 C-50.69080688 21.18540425 -50.6506158 19.15740965 -50.60644531 17.12817383 C-50.59186279 15.91774414 -50.57728027 14.70731445 -50.56225586 13.46020508 C-49.93479744 9.73765119 -48.97988311 8.59405244 -46.03222656 6.31567383 C-31.68710703 -0.0185348 -15.39491153 -0.03742011 0 0 Z " fill="#FFFFFF" transform="translate(96.0322265625,39.684326171875)"/>
<path d="M0 0 C3.35452391 2.23634927 4.92936948 4.32602325 6.8125 7.875 C6.8125 9.195 6.8125 10.515 6.8125 11.875 C4.8325 11.875 2.8525 11.875 0.8125 11.875 C0.52375 11.070625 0.235 10.26625 -0.0625 9.4375 C-0.92012568 6.7423532 -0.92012568 6.7423532 -3.1875 5.875 C-6.60288144 5.29130557 -6.60288144 5.29130557 -10.1875 5.875 C-11.54926581 7.85575027 -12.88343116 9.85579663 -14.1875 11.875 C-17.4375 12.25 -17.4375 12.25 -20.1875 11.875 C-19.91440064 7.96057587 -19.43757787 6.1723899 -16.875 3.125 C-11.42146175 -1.44075296 -6.95943424 -2.45627091 0 0 Z " fill="#FFFFFF" transform="translate(125.1875,81.125)"/>
<path d="M0 0 C3.73793297 2.65808567 5.27272822 5.73392643 6.8125 10 C6.8125 10.66 6.8125 11.32 6.8125 12 C4.0625 12.375 4.0625 12.375 0.8125 12 C0.173125 11.01 -0.46625 10.02 -1.125 9 C-1.805625 8.01 -2.48625 7.02 -3.1875 6 C-6.79843762 5.42985196 -9.0035821 5.17125747 -12.0625 7.3125 C-13.37296123 9.11785467 -13.37296123 9.11785467 -14.1875 12 C-16.1675 12 -18.1475 12 -20.1875 12 C-19.94849616 5.90540206 -19.94849616 5.90540206 -17.890625 3.45703125 C-12.28200796 -1.27697471 -7.00764901 -2.19847812 0 0 Z " fill="#FFFFFF" transform="translate(84.1875,81)"/>
<path d="M0 0 C1.65 0 3.3 0 5 0 C5.66 2.64 6.32 5.28 7 8 C12.28199593 9.19988045 12.28199593 9.19988045 17 7 C18.2188121 3.44327821 18.2188121 3.44327821 19 0 C20.65 0 22.3 0 24 0 C24.45543387 5.69292334 23.68246386 8.6015015 20 13 C17.01187638 15.34781141 13.78088812 15.41825081 10.03125 15.3203125 C5.93877448 14.67496059 3.08060094 12.42442851 0.625 9.1875 C-0.25805234 6.09681682 -0.12279902 3.1927746 0 0 Z " fill="#FFFFFF" transform="translate(87,103)"/>
</svg>
