<svg viewBox="-0.5 -0.5 14 14" fill="none" xmlns="http://www.w3.org/2000/svg" id="Album--Streamline-Solar-Ar.svg" height="14" width="14"><desc>Album Streamline Icon: https://streamlinehq.com</desc><path d="M1.2910679166666668 7.471208333333334c-0.24159958333333337 -1.713616666666667 -0.3623966666666667 -2.5703979166666673 0.15102208333333336 -3.124967083333334C1.9555087500000004 3.791666666666667 2.8695225000000004 3.791666666666667 4.697544583333334 3.791666666666667h3.6049054166666674c1.8280166666666668 0 2.7420250000000004 0 3.255470833333334 0.5545745833333334 0.5133916666666667 0.5545691666666667 0.39260000000000006 1.411350416666667 0.1510166666666667 3.124967083333334l-0.22912500000000002 1.6250000000000002c-0.18947500000000003 1.3438208333333335 -0.28415833333333335 2.0157041666666666 -0.7701416666666667 2.4181083333333335C10.223687500000002 11.916666666666668 9.506900000000002 11.916666666666668 8.073325 11.916666666666668H4.926653333333333c-1.433547916666667 0 -2.1503245833333335 0 -2.6363025 -0.40235000000000004 -0.48597791666666673 -0.40240416666666673 -0.5807100000000001 -1.0742875000000003 -0.7701741666666667 -2.4181083333333335l-0.22910875000000003 -1.6250000000000002Z" stroke="#cf00fb" stroke-width="1"></path><path d="M10.59602916666667 3.791666666666667c0.12382500000000002 -0.7067504166666667 -0.4200083333333334 -1.354166666666667 -1.1375000000000002 -1.354166666666667H3.541449166666667C2.8239304166666668 2.4375000000000004 2.280091666666667 3.08491625 2.403932916666667 3.791666666666667" stroke="#cf00fb" stroke-width="1"></path><path d="M9.479166666666668 2.4375000000000004c0.015383333333333336 -0.14033500000000002 0.023075000000000002 -0.21051875000000003 0.023183333333333334 -0.26847708333333337 0.0011916666666666668 -0.55446625 -0.41643333333333343 -1.0203429166666669 -0.9677416666666668 -1.0795037500000002C8.476975000000001 1.0833333333333335 8.406395833333335 1.0833333333333335 8.265183333333335 1.0833333333333335H4.734735416666667c-0.14118 0 -0.2117754166666667 0 -0.26940875000000003 0.006185833333333334 -0.5512975 0.05916083333333334 -0.9689387500000002 0.5250375 -0.9677308333333335 1.0794983333333334 0.00012458333333333334 0.05796375 0.0078108333333333346 0.12813666666666668 0.02317791666666667 0.2684825" stroke="#cf00fb" stroke-width="1"></path><path stroke="#cf00fb" d="M8.125000000000002 6.229166666666668a0.8125000000000001 0.8125000000000001 0 1 0 1.6250000000000002 0 0.8125000000000001 0.8125000000000001 0 1 0 -1.6250000000000002 0" stroke-width="1"></path><path d="m10.833333333333336 10.833333333333336 -1.562275 -1.163825c-0.5038041666666667 -0.3752666666666667 -1.2540666666666669 -0.41264166666666674 -1.8086250000000001 -0.09007916666666668l-0.14451666666666668 0.08406666666666668c-0.3853958333333334 0.22419583333333337 -0.9096750000000001 0.18660416666666668 -1.2427458333333334 -0.08910416666666668l-2.079025 -1.7208208333333335c-0.41496000000000005 -0.3434708333333334 -1.0805870833333335 -0.3618333333333334 -1.5222350000000002 -0.04197916666666667l-0.7171287500000001 0.5194041666666668" stroke="#cf00fb" stroke-linecap="round" stroke-width="1"></path></svg>