<svg height="14" viewBox="0 0 89 14" width="89" xmlns="http://www.w3.org/2000/svg"><path clip-rule="evenodd" d="m2.78513 13.7921c-.21478-.1674-.34649-.3839-.39512-.6494s-.01823-.5596.09119-.8823l1.15496-3.44347-2.936048-2.11999c-.279624-.20423-.480224-.42685-.6017994-.66785-.1175231-.24509-.1296807-.50038-.0364727-.76589.0891551-.26143.2512561-.45545.4863021-.58208.235047-.12663.520748-.1879.857108-.18381l3.60472.03063 1.09418-3.47408c.10537-.334945.25328-.594326.44375-.77814.19452-.1838132.42957-.27572.70514-.27572.27152 0 .50251.0919068.69298.27572.19452.183814.34447.443195.44983.77814l1.09418 3.47408 3.59867-.03063c.3404-.00409.6281.05718.8632.18381.235.12663.3971.3227.4863.5882.0932.26551.081.51877-.0365.75977s-.3181.46362-.6018.66785l-2.9361 2.11999 1.155 3.44347c.1094.3227.1398.6168.0912.8823-.0446.2655-.1763.482-.3951.6494-.2229.1716-.4681.237-.7356.1961-.2634-.0367-.5369-.1593-.8206-.3676l-2.90566-2.1629-2.91782 2.1629c-.27962.2083-.55317.3309-.82063.3676-.26342.0409-.50657-.0245-.72946-.1961zm18.49997 0c-.2147-.1674-.3465-.3839-.3951-.6494s-.0182-.5596.0912-.8823l1.155-3.44347-2.9361-2.11999c-.2796-.20423-.4802-.42685-.6018-.66785-.1175-.24509-.1297-.50038-.0365-.76589.0892-.26143.2513-.45545.4863-.58208.2351-.12663.5208-.1879.8572-.18381l3.6047.03063 1.0941-3.47408c.1054-.334945.2533-.594326.4438-.77814.1945-.1838132.4296-.27572.7051-.27572.2716 0 .5026.0919068.693.27572.1945.183814.3445.443195.4499.77814l1.0941 3.47408 3.5987-.03063c.3404-.00409.6281.05718.8632.18381.235.12663.3971.3227.4863.5882.0932.26551.081.51877-.0365.75977s-.3181.46362-.6018.66785l-2.9361 2.11999 1.155 3.44347c.1094.3227.1398.6168.0912.8823-.0446.2655-.1763.482-.3951.6494-.2229.1716-.4681.237-.7356.1961-.2634-.0367-.5369-.1593-.8206-.3676l-2.9057-2.1629-2.9178 2.1629c-.2796.2083-.5531.3309-.8206.3676-.2634.0409-.5066-.0245-.7295-.1961zm18.1049-.6494c.0486.2655.1804.482.3951.6494.2229.1716.4661.237.7295.1961.2675-.0367.541-.1593.8206-.3676l2.9178-2.1629 2.9057 2.1629c.2837.2083.5572.3309.8206.3676.2675.0409.5127-.0245.7356-.1961.2188-.1674.3505-.3839.3951-.6494.0486-.2655.0182-.5596-.0912-.8823l-1.155-3.44347 2.9361-2.11999c.2837-.20423.4843-.42685.6018-.66785s.1297-.49426.0365-.75977c-.0892-.2655-.2513-.46157-.4863-.5882-.2351-.12663-.5228-.1879-.8632-.18381l-3.5987.03063-1.0941-3.47408c-.1054-.334945-.2554-.594326-.4499-.77814-.1904-.1838132-.4214-.27572-.693-.27572-.2755 0-.5106.0919068-.7051.27572-.1905.183814-.3384.443195-.4438.77814l-1.0941 3.47408-3.6047-.03063c-.3364-.00409-.6221.05718-.8572.18381-.235.12663-.3971.32065-.4863.58208-.0932.26551-.081.5208.0365.76589.1216.241.3222.46362.6018.66785l2.9361 2.11999-1.155 3.44347c-.1094.3227-.1398.6168-.0912.8823zm18.8951.6494c-.2147-.1674-.3465-.3839-.3951-.6494s-.0182-.5596.0912-.8823l1.155-3.44347-2.9361-2.11999c-.2796-.20423-.4802-.42685-.6018-.66785-.1175-.24509-.1297-.50038-.0365-.76589.0892-.26143.2513-.45545.4863-.58208.2351-.12663.5208-.1879.8572-.18381l3.6047.03063 1.0941-3.47408c.1054-.334945.2533-.594326.4438-.77814.1945-.1838132.4296-.27572.7051-.27572.2716 0 .5026.0919068.693.27572.1945.183814.3445.443195.4499.77814l1.0941 3.47408 3.5987-.03063c.3404-.00409.6281.05718.8632.18381.235.12663.3971.3227.4863.5882.0932.26551.081.51877-.0365.75977s-.3181.46362-.6018.66785l-2.9361 2.11999 1.155 3.44347c.1094.3227.1398.6168.0912.8823-.0446.2655-.1763.482-.3951.6494-.2229.1716-.4681.237-.7356.1961-.2634-.0367-.5369-.1593-.8206-.3676l-2.9057-2.1629-2.9178 2.1629c-.2796.2083-.5531.3309-.8206.3676-.2634.0409-.5066-.0245-.7295-.1961zm18.1049-.6494c.0486.2655.1804.482.3951.6494.2229.1716.4661.237.7295.1961.2675-.0367.541-.1593.8206-.3676l2.9178-2.1629 2.9057 2.1629c.2837.2083.5572.3309.8206.3676.2675.0409.5127-.0245.7356-.1961.2188-.1674.3505-.3839.3951-.6494.0486-.2655.0182-.5596-.0912-.8823l-1.155-3.44347 2.9361-2.11999c.2837-.20423.4843-.42685.6018-.66785s.1297-.49426.0365-.75977c-.0892-.2655-.2513-.46157-.4863-.5882-.2351-.12663-.5228-.1879-.8632-.18381l-3.5987.03063-1.0941-3.47408c-.1054-.334945-.2554-.594326-.4499-.77814-.1904-.1838132-.4214-.27572-.693-.27572-.2755 0-.5106.0919068-.7051.27572-.1905.183814-.3384.443195-.4438.77814l-1.0941 3.47408-3.6047-.03063c-.3364-.00409-.6221.05718-.8572.18381-.235.12663-.3971.32065-.4863.58208-.0932.26551-.081.5208.0365.76589.1216.241.3222.46362.6018.66785l2.9361 2.11999-1.155 3.44347c-.1094.3227-.1398.6168-.0912.8823z" fill="#ffdf0a" fill-rule="evenodd"/></svg>
