<svg xmlns="http://www.w3.org/2000/svg" fill="none" viewBox="0 0 14 14" id="Lego--Streamline-Flex-Neon.svg" height="14" width="14"><desc>Lego Streamline Icon: https://streamlinehq.com</desc><g id="lego--lego-block-brick-imagination-module-connection"><path id="Rectangle 177410" stroke="#C71DFF" stroke-linejoin="round" d="m2.62635 5.08712 -1.58754 0.82655c-0.33074 0.17219 -0.5382 0.5141 -0.5382 0.88698v3.16728c0 0.33177 0.163608 0.64337 0.442923 0.82227 1.038007 0.6651 2.114057 1.2229 3.255007 1.6941 0.25986 0.1073 0.55321 0.0933 0.80497 -0.0318 2.68486 -1.3345 5.34379 -2.71456 7.97639 -4.14913 0.3207 -0.17471 0.5196 -0.51098 0.5196 -0.87611V4.32012c0 -0.37208 -0.2066 -0.71339 -0.5362 -0.88595l-2.2155 -1.15976M5.00286 3.84979l2.19455 -1.14258" stroke-width="1"></path><path id="Rectangle 177413" stroke="#C71DFF" stroke-linejoin="round" d="M13.4995 3.71484c-2.8022 1.53671 -5.6344 3.01075 -8.49599 4.43315 -0.25176 0.12514 -0.54511 0.13907 -0.80497 0.03175C2.89448 7.64121 1.6752 6.98953 0.50061 6.19384" stroke-width="1"></path><path id="Rectangle 177412" stroke="#C71DFF" stroke-linecap="round" stroke-linejoin="round" d="m4.60809 8.34375 0 4.02935" stroke-width="1"></path><path id="Vector_2" stroke="#000CFE" stroke-linecap="round" stroke-linejoin="round" d="M9.00328 3.83994c1.13332 0 1.77082 -0.43156 1.77082 -1.19878s-0.6375 -1.19878 -1.77082 -1.19878c-1.13335 0 -1.77086 0.43156 -1.77086 1.19878s0.63751 1.19878 1.77086 1.19878Z" stroke-width="1"></path><path id="Vector_2_2" stroke="#000CFE" stroke-linecap="round" stroke-linejoin="round" d="M4.39488 6.2374c1.13335 0 1.77086 -0.43156 1.77086 -1.19878s-0.63751 -1.19878 -1.77086 -1.19878 -1.77086 0.43156 -1.77086 1.19878 0.63751 1.19878 1.77086 1.19878Z" stroke-width="1"></path></g></svg>