<svg xmlns="http://www.w3.org/2000/svg" fill="none" viewBox="0 0 100 100" id="Chemistry-Teacher-4--Streamline-Ux.svg"><desc>Chemistry Teacher 4 Streamline Illustration: https://streamlinehq.com</desc><path fill="#e3d3fe00" d="M90 49.958c0.0008 -5.9698 -1.3347 -11.8642 -3.9086 -17.2507 -2.5738 -5.3865 -6.3207 -10.1285 -10.9658 -13.8784 -4.6452 -3.7499 -10.0708 -6.4125 -15.8789 -7.7925 -5.8081 -1.38008 -11.8515 -1.44255 -17.687 -0.1829 -5.8354 1.2597 -11.3149 3.8096 -16.0365 7.4626 -4.7217 3.6531 -8.5658 8.3167 -11.2504 13.6489 -2.6846 5.3321 -4.1417 11.1976 -4.2644 17.1661 -0.1226 5.9686 1.0923 11.889 3.5556 17.3269h72.872c2.3534 -5.1821 3.5687 -10.8085 3.564 -16.5Z" stroke-width="1"></path><path stroke="#e3d3fe" stroke-linecap="round" stroke-linejoin="round" d="M10.5 66.458h78" stroke-width="1"></path><path stroke="#e3d3fe" stroke-linecap="round" stroke-linejoin="round" d="M6 66.458h2.5" stroke-width="1"></path><path stroke="#e3d3fe" stroke-linecap="round" stroke-linejoin="round" d="M90.5 66.458H93" stroke-width="1"></path><path fill="#e3d3feab" stroke="#e3d3fe" stroke-linecap="round" stroke-linejoin="round" d="M44.264 75.878H27.623v3.994h16.641v-3.994Z" stroke-width="1"></path><path fill="#ffffff" stroke="#e3d3fe" stroke-linecap="round" stroke-linejoin="round" d="M47.592 71.884H30.951v3.994h16.641v-3.994Z" stroke-width="1"></path><path fill="#ffffff" stroke="#e3d3fe" stroke-linecap="round" stroke-linejoin="round" d="M45.595 67.891H28.954v3.994h16.641v-3.994Z" stroke-width="1"></path><path fill="#e3d3feab" stroke="#e3d3fe" stroke-linecap="round" stroke-linejoin="round" d="M28.3583 68.3427 13.7837 76.374l1.9276 3.4981 14.5746 -8.0314 -1.9276 -3.498Z" stroke-width="1"></path><path fill="#ffffff" d="M44.778 52.684v5.556H18.384v-5.556h-4.168v16.669h4.168v-8.335h26.394v8.335h4.167V52.684h-4.167Z" stroke-width="1"></path><path fill="#e3d3feab" d="M55.891 52.684H9.271c-0.53044 0 -1.03914 -0.2107 -1.41422 -0.5858 -0.37507 -0.3751 -0.58578 -0.8838 -0.58578 -1.4142V22.733c0 -0.5304 0.21071 -1.0391 0.58578 -1.4142 0.37508 -0.3751 0.88378 -0.5858 1.41422 -0.5858h44.62c0.5304 0 1.0391 0.2107 1.4142 0.5858s0.5858 0.8838 0.5858 1.4142v29.951Z" stroke-width="1"></path><path stroke="#e3d3fe" stroke-linecap="round" stroke-linejoin="round" d="M55.891 52.684H9.271c-0.53044 0 -1.03914 -0.2107 -1.41422 -0.5858 -0.37507 -0.3751 -0.58578 -0.8838 -0.58578 -1.4142V22.733c0 -0.5304 0.21071 -1.0391 0.58578 -1.4142 0.37508 -0.3751 0.88378 -0.5858 1.41422 -0.5858h44.62c0.5304 0 1.0391 0.2107 1.4142 0.5858s0.5858 0.8838 0.5858 1.4142v29.951Z" stroke-width="1"></path><path stroke="#e3d3fe" stroke-linecap="round" stroke-linejoin="round" d="M44.778 52.684v5.556H18.384v-5.556h-4.168v16.669h4.168v-8.335h26.394v8.335h4.167V52.684h-4.167Z" stroke-width="1"></path><path stroke="#e3d3fe" stroke-linecap="round" stroke-linejoin="round" d="m31.675 32.446 4.684 -4.683" stroke-width="1"></path><path fill="#ffffff" stroke="#e3d3fe" stroke-linecap="round" stroke-linejoin="round" d="M37.832 28.374c1.1509 0 2.084 -0.933 2.084 -2.084s-0.9331 -2.084 -2.084 -2.084c-1.151 0 -2.084 0.933 -2.084 2.084s0.933 2.084 2.084 2.084Z" stroke-width="1"></path><path stroke="#e3d3fe" stroke-linecap="round" stroke-linejoin="round" d="m32.36 40.266 4.693 4.693" stroke-width="1"></path><path fill="#ffffff" stroke="#e3d3fe" stroke-linecap="round" stroke-linejoin="round" d="M38.527 48.516c1.151 0 2.084 -0.933 2.084 -2.084s-0.933 -2.084 -2.084 -2.084 -2.084 0.933 -2.084 2.084 0.933 2.084 2.084 2.084Z" stroke-width="1"></path><path stroke="#e3d3fe" stroke-linecap="round" stroke-linejoin="round" d="m24.559 32.465 -3.509 -3.509" stroke-width="1"></path><path fill="#ffffff" stroke="#e3d3fe" stroke-linecap="round" stroke-linejoin="round" d="M19.078 29.762c1.5342 0 2.778 -1.2438 2.778 -2.778 0 -1.5343 -1.2438 -2.778 -2.778 -2.778 -1.5343 0 -2.778 1.2437 -2.778 2.778 0 1.5342 1.2437 2.778 2.778 2.778Z" stroke-width="1"></path><path stroke="#e3d3fe" stroke-linecap="round" stroke-linejoin="round" d="m23.856 40.266 -4.693 4.693" stroke-width="1"></path><path fill="#ffffff" stroke="#e3d3fe" stroke-linecap="round" stroke-linejoin="round" d="M17.689 48.516c1.1509 0 2.084 -0.933 2.084 -2.084s-0.9331 -2.084 -2.084 -2.084c-1.151 0 -2.084 0.933 -2.084 2.084s0.933 2.084 2.084 2.084Z" stroke-width="1"></path><path fill="#ffffff" stroke="#e3d3fe" stroke-linecap="round" stroke-linejoin="round" d="M28.108 42.265c3.0691 0 5.557 -2.488 5.557 -5.557 0 -3.069 -2.4879 -5.557 -5.557 -5.557 -3.069 0 -5.557 2.488 -5.557 5.557 0 3.069 2.488 5.557 5.557 5.557Z" stroke-width="1"></path><path stroke="#e3d3fe" stroke-linecap="round" stroke-linejoin="round" d="M33.665 36.708h4.167" stroke-width="1"></path><path fill="#ffffff" stroke="#e3d3fe" stroke-linecap="round" stroke-linejoin="round" d="M41.305 40.181c1.9181 0 3.473 -1.5549 3.473 -3.473s-1.5549 -3.473 -3.473 -3.473 -3.473 1.5549 -3.473 3.473 1.5549 3.473 3.473 3.473Z" stroke-width="1"></path><path fill="#e3d3feab" d="M65.408 83.542c13.2074 0 23.914 -1.0705 23.914 -2.391S78.6154 78.76 65.408 78.76c-13.2073 0 -23.914 1.0705 -23.914 2.391s10.7067 2.391 23.914 2.391Z" stroke-width="1"></path><path fill="#ffffff" d="M70.382 79.872H44.6c-0.2652 0 -0.5196 -0.1054 -0.7071 -0.2929 -0.1876 -0.1876 -0.2929 -0.4419 -0.2929 -0.7071V56.759h26.782v23.113Z" stroke-width="1"></path><path stroke="#e3d3fe" stroke-linecap="round" stroke-linejoin="round" d="M70.382 79.872H44.6c-0.2652 0 -0.5196 -0.1054 -0.7071 -0.2929 -0.1876 -0.1876 -0.2929 -0.4419 -0.2929 -0.7071V56.759h26.782v23.113Z" stroke-width="1"></path><path fill="#ffffff" d="M87.6 56.759H70.382v11.478H87.6V56.759Z" stroke-width="1"></path><path stroke="#e3d3fe" stroke-linecap="round" stroke-linejoin="round" d="M87.6 56.759H70.382v11.478H87.6V56.759Z" stroke-width="1"></path><path fill="#ffffff" stroke="#e3d3fe" stroke-linecap="round" stroke-linejoin="round" d="M86.6 79.872H70.382V68.237H87.6v10.635c0 0.2652 -0.1053 0.5196 -0.2929 0.7071 -0.1875 0.1875 -0.4419 0.2929 -0.7071 0.2929Z" stroke-width="1"></path><path fill="#e3d3feab" stroke="#e3d3fe" stroke-linecap="round" stroke-linejoin="round" d="M81.994 60.585h-6.007c-0.2473 -0.0002 -0.4896 -0.0691 -0.6999 -0.1991 -0.2104 -0.13 -0.3804 -0.3159 -0.4911 -0.5369l-1.545 -3.09H84.73l-1.545 3.09c-0.1108 0.221 -0.2808 0.4069 -0.4911 0.5369 -0.2103 0.13 -0.4527 0.1989 -0.6999 0.1991v0Z" stroke-width="1"></path><path fill="#e3d3feab" stroke="#e3d3fe" stroke-linecap="round" stroke-linejoin="round" d="M81.994 72.064h-6.007c-0.2473 -0.0002 -0.4896 -0.0691 -0.6999 -0.199 -0.2104 -0.13 -0.3804 -0.3159 -0.4911 -0.537l-1.545 -3.091H84.73l-1.545 3.091c-0.1108 0.2211 -0.2808 0.407 -0.4911 0.537 -0.2103 0.1299 -0.4527 0.1988 -0.6999 0.199Z" stroke-width="1"></path><path fill="#ffffff" stroke="#e3d3fe" stroke-linecap="round" stroke-linejoin="round" d="M70.382 60.585H43.599V75.89h26.783V60.585Z" stroke-width="1"></path><path stroke="#e3d3fe" stroke-linecap="round" stroke-linejoin="round" d="M56.99 60.585V75.89" stroke-width="1"></path><path fill="#ffffff" stroke="#e3d3fe" stroke-linecap="round" stroke-linejoin="round" d="M60.714 33.235h-5.512v7.32h5.512v-7.32Z" stroke-width="1"></path><path fill="#ffffff" d="M66.628 53.238v3.337H49.272l0.011 -3.337H44.6V51.9c0.043 -3.5123 1.4684 -6.8662 3.9673 -9.3348 2.499 -2.4685 5.8701 -3.8528 9.3827 -3.8528s6.8837 1.3843 9.3826 3.8528C69.8315 45.0338 71.257 48.3877 71.3 51.9v1.335l-4.672 0.003Z" stroke-width="1"></path><path stroke="#e3d3fe" stroke-linecap="round" stroke-linejoin="round" d="M66.628 53.238v3.337H49.272l0.011 -3.337H44.6V51.9c0.043 -3.5123 1.4684 -6.8662 3.9673 -9.3348 2.499 -2.4685 5.8701 -3.8528 9.3827 -3.8528s6.8837 1.3843 9.3826 3.8528C69.8315 45.0338 71.257 48.3877 71.3 51.9v1.335l-4.672 0.003Z" stroke-width="1"></path><path fill="#e3d3feab" stroke="#e3d3fe" stroke-linecap="round" stroke-linejoin="round" d="M54.613 38.973c-0.9234 0.2386 -1.8185 0.5755 -2.67 1.005v16.6h2.67V38.973Z" stroke-width="1"></path><path fill="#e3d3feab" stroke="#e3d3fe" stroke-linecap="round" stroke-linejoin="round" d="M63.958 39.978c-0.8515 -0.4296 -1.7466 -0.7666 -2.67 -1.005v17.6h2.67V39.978Z" stroke-width="1"></path><path fill="#e3d3feab" stroke="#e3d3fe" stroke-linecap="round" stroke-linejoin="round" d="M59.286 38.385h-2.67v2.67h2.67v-2.67Z" stroke-width="1"></path><path fill="#e3d3feab" stroke="#e3d3fe" stroke-linecap="round" stroke-linejoin="round" d="m59.2859 38.385 3.438 -1.146c0.1625 -0.0545 0.3398 -0.0443 0.4949 0.0285 0.1552 0.0728 0.2763 0.2026 0.3381 0.3625 0.5419 1.6915 0.5384 3.5106 -0.0099 5.2 -0.027 0.103 -0.0782 0.198 -0.1493 0.2772 -0.071 0.0793 -0.16 0.1404 -0.2595 0.1784 -0.0994 0.0379 -0.2065 0.0516 -0.3123 0.0398 -0.1058 -0.0117 -0.2072 -0.0486 -0.296 -0.1074l-3.244 -2.163v-2.67Z" stroke-width="1"></path><path fill="#e3d3feab" stroke="#e3d3fe" stroke-linecap="round" stroke-linejoin="round" d="m56.616 38.385 -3.439 -1.146c-0.1625 -0.0545 -0.3398 -0.0443 -0.4949 0.0285 -0.1552 0.0728 -0.2763 0.2026 -0.3381 0.3625 -0.5419 1.6915 -0.5384 3.5106 0.01 5.2 0.0269 0.103 0.0781 0.198 0.1492 0.2772 0.0711 0.0793 0.16 0.1404 0.2595 0.1784 0.0994 0.0379 0.2065 0.0516 0.3123 0.0398 0.1058 -0.0117 0.2073 -0.0486 0.296 -0.1074l3.245 -2.163v-2.67Z" stroke-width="1"></path><path stroke="#e3d3fe" stroke-linecap="round" stroke-linejoin="round" d="M49.2729 48.565v4.673" stroke-width="1"></path><path stroke="#e3d3fe" stroke-linecap="round" stroke-linejoin="round" d="M66.628 48.565v4.673" stroke-width="1"></path><path fill="#ffffff" stroke="#e3d3fe" stroke-linecap="round" stroke-linejoin="round" d="M67.3 28.455c-0.0036 -0.3798 -0.1385 -0.7467 -0.3819 -1.0383 -0.2433 -0.2917 -0.5801 -0.4901 -0.9531 -0.5617v-1.07c-0.0236 -2.109 -0.8779 -4.1237 -2.3776 -5.6067 -1.4997 -1.483 -3.5238 -2.3148 -5.6329 -2.3148 -2.1092 0 -4.1332 0.8318 -5.6329 2.3148 -1.4997 1.483 -2.354 3.4977 -2.3776 5.6067v1.069c-0.3901 0.0719 -0.7407 0.2832 -0.9865 0.5946 -0.2458 0.3113 -0.3699 0.7014 -0.3492 1.0976 0.0207 0.3961 0.1848 0.7712 0.4616 1.0552 0.2769 0.2841 0.6476 0.4577 1.0431 0.4886 0.376 1.8016 1.3609 3.4188 2.7891 4.5796 1.4282 1.1609 3.2125 1.7946 5.0529 1.7946 1.8404 0 3.6247 -0.6337 5.0529 -1.7946 1.4282 -1.1608 2.4131 -2.778 2.7891 -4.5796 0.409 -0.0368 0.7896 -0.2247 1.0675 -0.527 0.2779 -0.3023 0.4332 -0.6974 0.4355 -1.108v0Z" stroke-width="1"></path><path fill="#e3d3fe" d="M54.947 27.787c0.5528 0 1.001 -0.4482 1.001 -1.001s-0.4482 -1.001 -1.001 -1.001c-0.5529 0 -1.001 0.4482 -1.001 1.001s0.4481 1.001 1.001 1.001Z" stroke-width="1"></path><path fill="#e3d3fe" d="M60.954 27.787c0.5528 0 1.001 -0.4482 1.001 -1.001s-0.4482 -1.001 -1.001 -1.001 -1.001 0.4482 -1.001 1.001 0.4482 1.001 1.001 1.001Z" stroke-width="1"></path><path fill="#e3d3feab" d="M53.612 30.457c0.5528 0 1.001 -0.4482 1.001 -1.001 0 -0.5529 -0.4482 -1.001 -1.001 -1.001 -0.5529 0 -1.001 0.4481 -1.001 1.001 0 0.5528 0.4481 1.001 1.001 1.001Z" stroke-width="1"></path><path fill="#e3d3feab" d="M62.289 30.457c0.5528 0 1.001 -0.4482 1.001 -1.001 0 -0.5529 -0.4482 -1.001 -1.001 -1.001 -0.5529 0 -1.001 0.4481 -1.001 1.001 0 0.5528 0.4481 1.001 1.001 1.001Z" stroke-width="1"></path><path fill="#ffffff" d="M66.628 23.782c-0.0245 -2.2853 -0.9496 -4.4686 -2.5742 -6.076 -1.6247 -1.6073 -3.8179 -2.5089 -6.1033 -2.5089s-4.4786 0.9016 -6.1032 2.5089c-1.6247 1.6074 -2.5498 3.7907 -2.5743 6.076v2.671c1.207 -0.8083 2.1467 -1.9569 2.7 -3.3 0.2211 -0.5414 0.6167 -0.9935 1.1239 -1.2846 0.5072 -0.2911 1.0971 -0.4046 1.6761 -0.3224 2.1056 0.315 4.2464 0.315 6.352 0 0.5791 -0.0818 1.1689 0.032 1.6761 0.3233 0.5071 0.2912 0.9027 0.7433 1.1239 1.2847 0.5531 1.3432 1.4929 2.4918 2.7 3.3l0.003 -2.672Z" stroke-width="1"></path><path stroke="#e3d3fe" stroke-linecap="round" stroke-linejoin="round" d="M66.628 23.782c-0.0245 -2.2853 -0.9496 -4.4686 -2.5742 -6.076 -1.6247 -1.6073 -3.8179 -2.5089 -6.1033 -2.5089s-4.4786 0.9016 -6.1032 2.5089c-1.6247 1.6074 -2.5498 3.7907 -2.5743 6.076v2.671c1.207 -0.8083 2.1467 -1.9569 2.7 -3.3 0.2211 -0.5414 0.6167 -0.9935 1.1239 -1.2846 0.5072 -0.2911 1.0971 -0.4046 1.6761 -0.3224 2.1056 0.315 4.2464 0.315 6.352 0 0.5791 -0.0818 1.1689 0.032 1.6761 0.3233 0.5071 0.2912 0.9027 0.7433 1.1239 1.2847 0.5531 1.3432 1.4929 2.4918 2.7 3.3l0.003 -2.672Z" stroke-width="1"></path><path stroke="#e3d3fe" stroke-linecap="round" stroke-linejoin="round" d="M55.948 31.854c0.5931 0.3951 1.2898 0.6059 2.0025 0.6059 0.7127 0 1.4094 -0.2108 2.0025 -0.6059" stroke-width="1"></path><path fill="#e3d3fe" d="M57.951 43.893c0.3689 0 0.668 -0.2991 0.668 -0.668 0 -0.369 -0.2991 -0.668 -0.668 -0.668 -0.369 0 -0.668 0.299 -0.668 0.668 0 0.3689 0.299 0.668 0.668 0.668Z" stroke-width="1"></path><path fill="#e3d3fe" d="M57.951 48.566c0.3689 0 0.668 -0.2991 0.668 -0.668 0 -0.3689 -0.2991 -0.668 -0.668 -0.668 -0.369 0 -0.668 0.2991 -0.668 0.668 0 0.3689 0.299 0.668 0.668 0.668Z" stroke-width="1"></path><path fill="#ffffff" d="M42.642 56.759h45.914c0.7611 0 1.4911 -0.3024 2.0294 -0.8406 0.5382 -0.5382 0.8406 -1.2682 0.8406 -2.0294 0 -0.3769 -0.0743 -0.75 -0.2185 -1.0982 -0.1443 -0.3481 -0.3557 -0.6644 -0.6222 -0.9309 -0.2665 -0.2664 -0.5829 -0.4777 -0.9311 -0.6218 -0.3482 -0.1441 -0.7214 -0.2182 -1.0982 -0.2181H42.642c-0.3769 -0.0001 -0.7501 0.074 -1.0983 0.2181 -0.3482 0.1441 -0.6645 0.3554 -0.9311 0.6218 -0.2665 0.2665 -0.4779 0.5828 -0.6221 0.9309 -0.1443 0.3482 -0.2185 0.7213 -0.2185 1.0982 0 0.7612 0.3023 1.4912 0.8406 2.0294 0.5382 0.5382 1.2682 0.8406 2.0294 0.8406Z" stroke-width="1"></path><path stroke="#e3d3fe" stroke-linecap="round" stroke-linejoin="round" d="M42.642 56.759h45.914c0.7611 0 1.4911 -0.3024 2.0294 -0.8406 0.5382 -0.5382 0.8406 -1.2682 0.8406 -2.0294v0c0 -0.3769 -0.0743 -0.75 -0.2185 -1.0982 -0.1443 -0.3481 -0.3557 -0.6644 -0.6222 -0.9309 -0.2665 -0.2664 -0.5829 -0.4777 -0.9311 -0.6218 -0.3482 -0.1441 -0.7214 -0.2182 -1.0982 -0.2181H42.642c-0.3769 -0.0001 -0.7501 0.074 -1.0983 0.2181 -0.3482 0.1441 -0.6645 0.3554 -0.9311 0.6218 -0.2665 0.2665 -0.4779 0.5828 -0.6221 0.9309 -0.1443 0.3482 -0.2185 0.7213 -0.2185 1.0982v0c0 0.7612 0.3023 1.4912 0.8406 2.0294 0.5382 0.5382 1.2682 0.8406 2.0294 0.8406v0Z" stroke-width="1"></path><path fill="#e3d3feab" stroke="#e3d3fe" stroke-linecap="round" stroke-linejoin="round" d="M81.751 40.636c0 3.088 -1.39 5.591 -3.106 5.591s-3.106 -2.5 -3.106 -5.591c0 -2.337 1.778 -4.338 2.644 -5.174 0.124 -0.1198 0.2896 -0.1867 0.462 -0.1867s0.338 0.0669 0.462 0.1867c0.866 0.838 2.644 2.838 2.644 5.174Z" stroke-width="1"></path><path fill="#ffffff" stroke="#e3d3fe" stroke-linecap="round" stroke-linejoin="round" d="M83.438 51.02h-9.585l-1.306 -3.92c-0.0333 -0.1001 -0.0423 -0.2067 -0.0263 -0.3109 0.016 -0.1043 0.0565 -0.2032 0.1182 -0.2888 0.0617 -0.0855 0.1429 -0.1552 0.2367 -0.2032 0.0939 -0.048 0.1979 -0.0731 0.3034 -0.0731h10.933c0.1054 -0.0001 0.2094 0.025 0.3033 0.073 0.0939 0.0481 0.175 0.1177 0.2366 0.2033 0.0617 0.0856 0.1021 0.1846 0.1179 0.2889 0.0158 0.1042 0.0066 0.2108 -0.0268 0.3108l-1.305 3.92Z" stroke-width="1"></path><path fill="#e3d3feab" stroke="#e3d3fe" stroke-linecap="round" stroke-linejoin="round" d="m78.645 46.227 -3.814 -8.907c-0.052 -0.1209 -0.1386 -0.2237 -0.249 -0.2955 -0.1103 -0.0717 -0.2394 -0.1091 -0.371 -0.1075 -0.1316 0.0016 -0.2598 0.0422 -0.3684 0.1166 -0.1085 0.0744 -0.1926 0.1792 -0.2416 0.3014l-0.59 1.475c-0.2339 0.5842 -0.3505 1.2088 -0.343 1.8381 0.0075 0.6293 0.1389 1.251 0.3866 1.8295 0.2478 0.5785 0.607 1.1026 1.0573 1.5422 0.4503 0.4397 0.9828 0.7863 1.5671 1.0202l2.966 1.187Z" stroke-width="1"></path><path fill="#e3d3feab" stroke="#e3d3fe" stroke-linecap="round" stroke-linejoin="round" d="m78.645 46.227 3.815 -8.907c0.0519 -0.1209 0.1386 -0.2237 0.2489 -0.2955 0.1103 -0.0717 0.2395 -0.1091 0.3711 -0.1075 0.1316 0.0016 0.2597 0.0422 0.3683 0.1166 0.1086 0.0744 0.1927 0.1792 0.2417 0.3014l0.59 1.475c0.2339 0.5842 0.3504 1.2088 0.3429 1.8381 -0.0075 0.6293 -0.1388 1.251 -0.3866 1.8295 -0.2477 0.5785 -0.607 1.1026 -1.0573 1.5422 -0.4503 0.4397 -0.9828 0.7863 -1.567 1.0202l-2.967 1.187Z" stroke-width="1"></path></svg>