<svg xmlns="http://www.w3.org/2000/svg" fill="none" viewBox="0 0 14 14" id="Lightbulb-On--Streamline-Flex-Neon.svg" height="14" width="14"><desc>Lightbulb On Streamline Icon: https://streamlinehq.com</desc><g id="lightbulb-on--lighting-light-shine-incandescent-bulb-lights"><path id="Vector" stroke="#c71dff" stroke-linecap="round" stroke-linejoin="round" d="M4.03011 8.93024c-0.3225 -0.49454 -0.52399 -1.20618 -0.55086 -1.79596 0 -2.12563 1.19566 -3.32129 3.57129 -3.32129 2.12562 0 3.57126 1.19566 3.57126 3.32129 -0.0268 0.58978 -0.2283 1.30142 -0.5508 1.79596 -0.57593 0.88309 -1.3004 1.57526 -1.3004 2.62616 -0.50572 -0.1077 -0.79614 -0.1615 -1.72006 -0.1615 -0.67393 0 -1.21435 0.0538 -1.72006 0.1615 0 -1.0509 -0.72447 -1.74307 -1.30037 -2.62616Z" stroke-width="1"></path><path id="Subtract" stroke="#000cfe" stroke-linecap="round" stroke-linejoin="round" d="M5.33288 11.5558c-0.00204 0.0685 -0.00317 0.1372 -0.00317 0.2062 0 0.3095 0.02259 0.6132 0.04942 0.909 0.01869 0.1957 0.09292 0.378 0.21057 0.5174 0.11766 0.1394 0.27181 0.2275 0.43732 0.2501 0.25181 0.0328 0.75997 0.0615 1.02355 0.0615 0.26358 0 0.77198 -0.0284 1.02356 -0.0618 0.1655 -0.0225 0.31965 -0.1107 0.43731 -0.2501 0.11766 -0.1394 0.19188 -0.3217 0.21057 -0.5173 0.02683 -0.2954 0.04942 -0.599 0.04942 -0.9088 0 -0.069 -0.00112 -0.1377 -0.00316 -0.2061 -0.50506 -0.1073 -1.04487 -0.161 -1.71779 -0.161 -0.92243 0 -1.2134 0.0536 -1.7176 0.1609Z" stroke-width="1"></path><path id="Line 10" stroke="#000cfe" stroke-linecap="round" d="m7.05029 9.42078 0 1.97412" stroke-width="1"></path><path id="Vector 2593" stroke="#000cfe" stroke-linecap="round" stroke-linejoin="round" d="M5.95398 8.0813c0.19082 0.45141 0.46475 0.85755 0.70866 1.15158 0.20785 0.25055 0.56792 0.25055 0.77577 0 0.24391 -0.29403 0.51785 -0.70017 0.70867 -1.15158" stroke-width="1"></path><path id="Vector_2" stroke="#000cfe" stroke-linecap="round" stroke-linejoin="round" d="m2.40381 2.40381 0.38302 0.38302" stroke-width="1"></path><path id="Vector_3" stroke="#000cfe" stroke-linecap="round" stroke-linejoin="round" d="m7.00012 0.5 0 0.54167" stroke-width="1"></path><path id="Vector_4" stroke="#000cfe" stroke-linecap="round" stroke-linejoin="round" d="m13.5001 7 -0.5416 0" stroke-width="1"></path><path id="Vector_5" stroke="#000cfe" stroke-linecap="round" stroke-linejoin="round" d="M1.04175 7 0.50008 7" stroke-width="1"></path><path id="Vector_6" stroke="#000cfe" stroke-linecap="round" stroke-linejoin="round" d="m11.5963 2.40381 -0.383 0.38302" stroke-width="1"></path></g></svg>