<svg xmlns="http://www.w3.org/2000/svg" fill="none" viewBox="0 0 100 100" id="Repair-Technician-1-4--Streamline-Ux.svg"><desc>Repair Technician 1 4 Streamline Illustration: https://streamlinehq.com</desc><path fill="#e3d3fe00" d="M49.987 92.9089c22.0914 0 40 -17.9086 40 -40s-17.9086 -40 -40 -40 -40 17.9086 -40 40 17.9086 40 40 40Z" stroke-width="1"></path><path fill="#e3d3feab" d="M60.473 72.5047c18.5104 0 33.516 -0.938 33.516 -2.095 0 -1.157 -15.0056 -2.095 -33.516 -2.095 -18.5104 0 -33.516 0.938 -33.516 2.095 0 1.157 15.0056 2.095 33.516 2.095Z" stroke-width="1"></path><path fill="#ffffff" stroke="#e3d3fe" stroke-linecap="round" stroke-linejoin="round" d="M86.752 24.3518H31.4c-0.5304 0 -1.0391 0.2107 -1.4142 0.5858s-0.5858 0.8838 -0.5858 1.4142v35.679h59.352v-35.679c0 -0.5304 -0.2107 -1.0391 -0.5858 -1.4142s-0.8838 -0.5858 -1.4142 -0.5858Z" stroke-width="1"></path><path fill="#e3d3feab" stroke="#e3d3fe" stroke-linecap="round" stroke-linejoin="round" d="M84.562 28.5408H33.648l-0.058 33.49h50.972v-33.49Z" stroke-width="1"></path><path fill="#ffffff" stroke="#e3d3fe" stroke-linecap="round" stroke-linejoin="round" d="M58.289 32.2288c-1.2625 0.0003 -2.5012 -0.3427 -3.5837 -0.9923 -1.0825 -0.6497 -1.9678 -1.5815 -2.5613 -2.6957h-6.251l-2.681 1.551c-0.1532 0.0879 -0.2874 0.2053 -0.3951 0.3452 -0.1077 0.14 -0.1868 0.2999 -0.2326 0.4704 -0.0458 0.1706 -0.0574 0.3485 -0.0343 0.5236 0.0231 0.1751 0.0805 0.3439 0.169 0.4968l2.018 3.494c0.0881 0.1531 0.2056 0.2873 0.3457 0.3949 0.1401 0.1076 0.3001 0.1865 0.4707 0.2322 0.1706 0.0457 0.3486 0.0573 0.5238 0.0341 0.1751 -0.0232 0.3439 -0.0807 0.4968 -0.1692l2.72 -1.569c1.5641 1.554 3.5046 2.6755 5.632 3.255v3.14c0 0.3567 0.1417 0.6988 0.3939 0.951 0.2523 0.2523 0.5944 0.394 0.9511 0.394h4.035c0.3567 0 0.6988 -0.1417 0.951 -0.394 0.2523 -0.2522 0.394 -0.5943 0.394 -0.951v-3.14c2.1271 -0.5784 4.0677 -1.6989 5.632 -3.252L70 35.9138c0.1528 0.0885 0.3217 0.146 0.4968 0.1692 0.1751 0.0232 0.3531 0.0116 0.5238 -0.0341 0.1706 -0.0457 0.3306 -0.1246 0.4707 -0.2322 0.14 -0.1076 0.2575 -0.2418 0.3457 -0.3949l2.017 -3.494c0.0884 -0.1529 0.1458 -0.3216 0.1689 -0.4966 0.0231 -0.1751 0.0114 -0.3529 -0.0343 -0.5234 -0.0456 -0.1706 -0.1245 -0.3304 -0.232 -0.4704 -0.1076 -0.14 -0.2417 -0.2575 -0.3946 -0.3456l-2.682 -1.551h-6.247c-0.5932 1.1143 -1.4783 2.0462 -2.5607 2.6959 -1.0823 0.6496 -2.321 0.9926 -3.5833 0.9921v0Z" stroke-width="1"></path><path fill="#ffffff" stroke="#e3d3fe" stroke-linecap="round" stroke-linejoin="round" d="m48.694 41.7778 -1.614 -2.8c-0.0704 -0.1225 -0.1644 -0.2299 -0.2764 -0.316 -0.112 -0.086 -0.24 -0.1491 -0.3765 -0.1857 -0.1365 -0.0365 -0.2788 -0.0457 -0.4189 -0.027 -0.14 0.0186 -0.275 0.0647 -0.3972 0.1357l-2.177 1.255c-1.2499 -1.2412 -2.8004 -2.1371 -4.5 -2.6v-2.509c0 -0.2854 -0.1134 -0.5591 -0.3152 -0.7609 -0.2017 -0.2017 -0.4754 -0.3151 -0.7608 -0.3151h-3.234c-0.2094 0.0001 -0.4142 0.0612 -0.5893 0.176 -0.1752 0.1147 -0.313 0.2781 -0.3967 0.47l-0.014 8.164c0.8111 -0.4567 1.7277 -0.6928 2.6584 -0.6848 0.9308 0.008 1.8432 0.2597 2.6464 0.7302 0.8031 0.4704 1.469 1.1431 1.9312 1.9511 0.4621 0.8079 0.7045 1.7229 0.7029 2.6537 -0.0016 0.9308 -0.2471 1.8449 -0.7121 2.6513 -0.465 0.8063 -1.1331 1.4767 -1.9379 1.9444s-1.7181 0.7163 -2.6488 0.721c-0.9308 0.0048 -1.8466 -0.2345 -2.6561 -0.6939l-0.014 8.052c0.0664 0.2216 0.2025 0.4158 0.388 0.554 0.1856 0.1382 0.4107 0.2128 0.642 0.213h3.229c0.2855 -0.0003 0.5591 -0.1139 0.7609 -0.3158 0.2018 -0.202 0.3151 -0.4757 0.3151 -0.7612v-2.511c1.6993 -0.4636 3.2497 -1.3593 4.5 -2.6l2.177 1.255c0.1222 0.0708 0.2572 0.1168 0.3972 0.1354 0.1401 0.0186 0.2824 0.0093 0.4188 -0.0272 0.1365 -0.0365 0.2644 -0.0995 0.3764 -0.1855 0.1121 -0.0861 0.2061 -0.1933 0.2766 -0.3157l1.614 -2.8c0.0707 -0.1223 0.1166 -0.2572 0.1351 -0.3972 0.0185 -0.14 0.0092 -0.2823 -0.0273 -0.4187 -0.0365 -0.1365 -0.0995 -0.2643 -0.1854 -0.3764 -0.0859 -0.1121 -0.1931 -0.2061 -0.3154 -0.2767l-2.174 -1.257c0.4447 -1.7048 0.4447 -3.4952 0 -5.2l2.178 -1.258c0.1224 -0.0706 0.2296 -0.1645 0.3157 -0.2765 0.086 -0.1121 0.1491 -0.2399 0.1857 -0.3764 0.0366 -0.1364 0.046 -0.2787 0.0275 -0.4187 -0.0184 -0.1401 -0.0643 -0.2751 -0.1349 -0.3974v0Z" stroke-width="1"></path><path fill="#ffffff" stroke="#e3d3fe" stroke-linecap="round" stroke-linejoin="round" d="M84.562 51.0877c-0.8095 0.47 -1.7285 0.7183 -2.6645 0.72 -0.936 0.0017 -1.8559 -0.2433 -2.6671 -0.7103 -0.8111 -0.4671 -1.4849 -1.1396 -1.9534 -1.9499 -0.4685 -0.8103 -0.7151 -1.7298 -0.7151 -2.6658 0 -0.936 0.2466 -1.8555 0.7151 -2.6658 0.4685 -0.8103 1.1423 -1.4829 1.9534 -1.9499 0.8112 -0.467 1.7311 -0.712 2.6671 -0.7103 0.936 0.0017 1.855 0.25 2.6645 0.72v-7.942c-0.0419 -0.2514 -0.1716 -0.4799 -0.3661 -0.6446 -0.1944 -0.1648 -0.441 -0.2553 -0.6959 -0.2554h-3.228c-0.2842 0.001 -0.5564 0.1145 -0.7572 0.3155 -0.2009 0.201 -0.314 0.4733 -0.3148 0.7575v2.512c-1.7014 0.4629 -3.2538 1.3587 -4.506 2.6l-2.176 -1.255c-0.1222 -0.0708 -0.2572 -0.1168 -0.3972 -0.1354 -0.1401 -0.0186 -0.2824 -0.0094 -0.4188 0.0271 -0.1365 0.0365 -0.2644 0.0996 -0.3765 0.1856 -0.112 0.086 -0.206 0.1933 -0.2765 0.3157l-1.615 2.8c-0.0707 0.1223 -0.1165 0.2573 -0.1349 0.3974 -0.0185 0.14 -0.0091 0.2823 0.0275 0.4187 0.0366 0.1365 0.0997 0.2643 0.1857 0.3764 0.086 0.112 0.1933 0.2059 0.3157 0.2765L72 43.8797c-0.4448 1.7048 -0.4448 3.4952 0 5.2l-2.174 1.257c-0.1224 0.0705 -0.2296 0.1645 -0.3157 0.2765 -0.086 0.112 -0.1491 0.2399 -0.1857 0.3763 -0.0366 0.1365 -0.046 0.2788 -0.0275 0.4188 0.0184 0.14 0.0642 0.2751 0.1349 0.3974l1.615 2.795c0.07 0.1226 0.1635 0.2302 0.2752 0.3167 0.1117 0.0864 0.2393 0.15 0.3755 0.187 0.1363 0.0371 0.2785 0.0469 0.4186 0.0289 0.1401 -0.0179 0.2752 -0.0633 0.3977 -0.1336l2.176 -1.255c1.2522 1.2413 2.8046 2.1371 4.506 2.6v2.512c0 0.2854 0.1134 0.559 0.3151 0.7608 0.2018 0.2018 0.4755 0.3152 0.7609 0.3152H83.5c0.2549 -0.0001 0.5015 -0.0906 0.6959 -0.2554 0.1945 -0.1648 0.3242 -0.3932 0.3661 -0.6446v-7.945Z" stroke-width="1"></path><path fill="#ffffff" stroke="#e3d3fe" stroke-linecap="round" stroke-linejoin="round" d="m66.724 55.6537 -1.45 -0.837c0.2973 -1.1375 0.2973 -2.3324 0 -3.47l1.45 -0.837c0.0816 -0.0471 0.1531 -0.1098 0.2104 -0.1846 0.0573 -0.0747 0.0994 -0.16 0.1237 -0.2511 0.0243 -0.091 0.0305 -0.1859 0.0181 -0.2793 -0.0124 -0.0934 -0.043 -0.1834 -0.0902 -0.265l-1.076 -1.863c-0.047 -0.0816 -0.1097 -0.1532 -0.1844 -0.2106 -0.0748 -0.0574 -0.1601 -0.0995 -0.2512 -0.1238 -0.091 -0.0244 -0.186 -0.0305 -0.2794 -0.0181 -0.0934 0.0125 -0.1835 0.0432 -0.265 0.0905l-1.45 0.836c-0.8336 -0.8271 -1.8671 -1.4245 -3 -1.734v-1.675c0 -0.0942 -0.0186 -0.1875 -0.0547 -0.2746 -0.0361 -0.087 -0.089 -0.1661 -0.1557 -0.2327 -0.0666 -0.0666 -0.1458 -0.1194 -0.2329 -0.1554 -0.0871 -0.0359 -0.1804 -0.0544 -0.2747 -0.0543h-2.156c-0.1902 0 -0.3725 0.0756 -0.507 0.21 -0.1345 0.1345 -0.21 0.3169 -0.21 0.507v1.675c-1.133 0.3093 -2.1665 0.9067 -3 1.734l-1.45 -0.836c-0.0815 -0.0473 -0.1715 -0.078 -0.265 -0.0905 -0.0934 -0.0124 -0.1883 -0.0063 -0.2794 0.0181 -0.091 0.0243 -0.1764 0.0664 -0.2511 0.1238 -0.0748 0.0574 -0.1375 0.129 -0.1845 0.2106l-1.08 1.863c-0.0473 0.0816 -0.0781 0.1716 -0.0905 0.265 -0.0124 0.0934 -0.0063 0.1884 0.018 0.2794 0.0244 0.0911 0.0664 0.1764 0.1238 0.2512 0.0574 0.0747 0.129 0.1374 0.2107 0.1844l1.45 0.837c-0.2987 1.1374 -0.2987 2.3327 0 3.47l-1.45 0.837c-0.0816 0.0472 -0.1531 0.1099 -0.2104 0.1847 -0.0573 0.0747 -0.0993 0.16 -0.1237 0.2511 -0.0243 0.091 -0.0305 0.1859 -0.0181 0.2793 0.0124 0.0934 0.043 0.1834 0.0902 0.2649l1.076 1.866c0.047 0.0817 0.1097 0.1533 0.1845 0.2107 0.0747 0.0574 0.1601 0.0995 0.2511 0.1238 0.0911 0.0244 0.186 0.0305 0.2794 0.0181 0.0935 -0.0125 0.1835 -0.0432 0.265 -0.0906l1.45 -0.836c0.8335 0.8274 1.867 1.4248 3 1.734v1.675c0 0.1902 0.0755 0.3726 0.21 0.507 0.1345 0.1345 0.3168 0.21 0.507 0.21h2.152c0.0943 0.0002 0.1876 -0.0183 0.2747 -0.0542 0.0871 -0.036 0.1663 -0.0888 0.233 -0.1554 0.0666 -0.0666 0.1195 -0.1457 0.1556 -0.2327 0.0361 -0.0871 0.0547 -0.1804 0.0547 -0.2747v-1.678c1.1329 -0.3094 2.1664 -0.9068 3 -1.734l1.45 0.836c0.0815 0.0474 0.1716 0.0781 0.265 0.0906 0.0934 0.0124 0.1884 0.0063 0.2794 -0.0181 0.0911 -0.0243 0.1764 -0.0664 0.2512 -0.1238 0.0747 -0.0574 0.1374 -0.129 0.1844 -0.2107l1.076 -1.863c0.096 -0.1637 0.1231 -0.3587 0.0755 -0.5424 -0.0476 -0.1837 -0.1661 -0.3411 -0.3295 -0.4376v0Zm-8.042 0.979c-0.7023 0 -1.3889 -0.2082 -1.9728 -0.5984 -0.584 -0.3902 -1.0391 -0.9448 -1.3079 -1.5936 -0.2688 -0.6489 -0.3391 -1.3629 -0.2021 -2.0517 0.1371 -0.6888 0.4753 -1.3216 0.9719 -1.8182 0.4966 -0.4966 1.1293 -0.8348 1.8181 -0.9718 0.6889 -0.137 1.4029 -0.0667 2.0517 0.202 0.6489 0.2688 1.2035 0.724 1.5937 1.3079 0.3901 0.584 0.5984 1.2705 0.5984 1.9728 0.0001 0.4664 -0.0916 0.9282 -0.27 1.3591 -0.1784 0.4309 -0.44 0.8224 -0.7698 1.1522 -0.3297 0.3297 -0.7212 0.5913 -1.1521 0.7697 -0.4309 0.1784 -0.8927 0.2702 -1.3591 0.27v0Z" stroke-width="1"></path><path fill="#ffffff" stroke="#e3d3fe" stroke-linecap="round" stroke-linejoin="round" d="M93.989 66.2208H24.164v-3.19c0 -0.2653 0.1054 -0.5196 0.2929 -0.7071 0.1875 -0.1876 0.4419 -0.2929 0.7071 -0.2929h67.825c0.2652 0 0.5196 0.1053 0.7071 0.2929 0.1875 0.1875 0.2929 0.4418 0.2929 0.7071v3.19Z" stroke-width="1"></path><path fill="#ffffff" stroke="#e3d3fe" stroke-linecap="round" stroke-linejoin="round" d="M93.989 66.2207c-6.4853 1.8528 -13.1972 2.7929 -19.942 2.793H44.106c-6.7448 0.0001 -13.4567 -0.94 -19.942 -2.793h69.825Z" stroke-width="1"></path><path fill="#e3d3feab" d="M24.171 88.515c8.7051 0 15.762 -0.8144 15.762 -1.819 0 -1.0047 -7.0569 -1.819 -15.762 -1.819 -8.7051 0 -15.76197 0.8143 -15.76197 1.819 0 1.0046 7.05687 1.819 15.76197 1.819Z" stroke-width="1"></path><path fill="#ffffff" stroke="#e3d3fe" stroke-linecap="round" stroke-linejoin="round" d="m54.331 45.9499 -11.944 0.095v-4.61H54.3c0.5985 -0.0045 1.1744 0.2287 1.601 0.6486 0.4266 0.4198 0.669 0.9919 0.674 1.5904 0.0025 0.2969 -0.0536 0.5914 -0.1651 0.8665 -0.1115 0.2752 -0.2761 0.5257 -0.4846 0.7371 -0.2085 0.2114 -0.4566 0.3797 -0.7301 0.495 -0.2736 0.1154 -0.5673 0.1757 -0.8642 0.1774v0Z" stroke-width="1"></path><path fill="#e3d3feab" stroke="#e3d3fe" stroke-linecap="round" stroke-linejoin="round" d="M18.716 47.6779s-1.112 3.393 -0.059 5.607l-2.474 9.715 13.744 3.52 3.227 -12c3.186 -0.94 1.937 -8.475 1.937 -8.475h7.49v-4.626H20.132c-4.459 0 -7.982 4.624 -7.982 4.624l3.751 3.5c0.3038 -0.4982 0.7134 -0.9236 1.1999 -1.2459 0.4864 -0.3223 1.0379 -0.5336 1.6151 -0.6191v0Z" stroke-width="1"></path><path fill="#ffffff" stroke="#e3d3fe" stroke-linecap="round" stroke-linejoin="round" d="M32.461 41.421c-0.1106 -0.0001 -0.22 -0.022 -0.3221 -0.0645 -0.1021 -0.0424 -0.1949 -0.1045 -0.273 -0.1828 -0.0781 -0.0783 -0.14 -0.1712 -0.1822 -0.2734 -0.0422 -0.1022 -0.0638 -0.2117 -0.0637 -0.3223v-2.964h-5.705v2.955c-0.0005 0.2256 -0.0905 0.4418 -0.2502 0.6012 -0.1598 0.1593 -0.3762 0.2488 -0.6018 0.2488 -0.1126 0.549 -0.1016 1.1161 0.0322 1.6602 0.1337 0.5442 0.3869 1.0518 0.7411 1.486 0.3542 0.4343 0.8006 0.7842 1.3068 1.0246 0.5062 0.2403 1.0596 0.365 1.6199 0.365 0.5604 0 1.1137 -0.1247 1.6199 -0.365 0.5063 -0.2404 0.9527 -0.5903 1.3069 -1.0246 0.3542 -0.4342 0.6073 -0.9418 0.7411 -1.486 0.1337 -0.5441 0.1447 -1.1112 0.0321 -1.6602l-0.002 0.002Z" stroke-width="1"></path><path fill="#ffffff" stroke="#e3d3fe" stroke-linecap="round" stroke-linejoin="round" d="m19.832 71.1 -4.119 12.611c-0.719 -0.526 -6.27898 -1.067 -6.27898 -1.067L16.183 63l13.744 3.52c6.532 2.985 5.2 10.483 5.32 17.535l-6.018 -0.1s0.044 -1.575 -0.1 -5.539c-0.195 -5.532 -5.95 -6.568 -9.297 -7.316Z" stroke-width="1"></path><path fill="#e3d3feab" stroke="#e3d3fe" stroke-linecap="round" stroke-linejoin="round" d="M17.729 86.3459c0.005 -2.7 -2.634 -3.778 -4.972 -3.783l-3.32298 -0.007v2.519c-0.00039 0.1648 0.03169 0.328 0.09441 0.4804 0.06271 0.1523 0.15484 0.2908 0.27111 0.4076 0.11628 0.1167 0.25446 0.2094 0.40656 0.2727 0.1521 0.0633 0.3152 0.096 0.4799 0.0963l7.043 0.014Z" stroke-width="1"></path><path fill="#e3d3feab" stroke="#e3d3fe" stroke-linecap="round" stroke-linejoin="round" d="M37.527 86.3459c0.006 -2.7 -2.634 -3.778 -4.971 -3.783l-3.324 -0.007v2.519c-0.0004 0.1648 0.0317 0.328 0.0944 0.4804 0.0627 0.1523 0.1548 0.2908 0.2711 0.4076 0.1163 0.1167 0.2544 0.2094 0.4065 0.2727 0.1521 0.0633 0.3152 0.096 0.48 0.0963l7.043 0.014Z" stroke-width="1"></path><path fill="#ffffff" stroke="#e3d3fe" stroke-linecap="round" stroke-linejoin="round" d="m32.461 41.4209 -6.951 22.32 2.924 0.749 7.116 -23.069h-3.089Z" stroke-width="1"></path><path fill="#ffffff" stroke="#e3d3fe" stroke-linecap="round" stroke-linejoin="round" d="m21.941 41.4219 -3.744 20.446 2.926 0.749 3.936 -21.198 -3.118 0.003Z" stroke-width="1"></path><path fill="#ffffff" stroke="#e3d3fe" stroke-linecap="round" stroke-linejoin="round" d="m19.8982 48.882 -0.1824 1.0026c-0.0988 0.5433 0.2616 1.0639 0.8049 1.1628l2.4882 0.4526c0.5434 0.0988 1.064 -0.2615 1.1628 -0.8049l0.1824 -1.0025c0.0988 -0.5434 -0.2615 -1.064 -0.8049 -1.1628l-2.4882 -0.4527c-0.5433 -0.0988 -1.0639 0.2615 -1.1628 0.8049Z" stroke-width="1"></path><path fill="#ffffff" stroke="#e3d3fe" stroke-linecap="round" stroke-linejoin="round" d="m28.6542 50.6296 -0.2529 0.9871c-0.1371 0.535 0.1855 1.0798 0.7206 1.2169l2.4489 0.6273c0.535 0.1371 1.0798 -0.1855 1.2169 -0.7206l0.2528 -0.9871c0.1371 -0.535 -0.1855 -1.0798 -0.7206 -1.2169l-2.4489 -0.6273c-0.535 -0.137 -1.0798 0.1856 -1.2168 0.7206Z" stroke-width="1"></path><path fill="#ffffff" stroke="#e3d3fe" stroke-linecap="round" stroke-linejoin="round" d="m16.183 63.0001 13.744 3.52 0.806 -2.999 -13.78 -3.545 -0.77 3.024Z" stroke-width="1"></path><path fill="#ffffff" stroke="#e3d3fe" stroke-linecap="round" stroke-linejoin="round" d="m15.668 49.323 -1.44 1.671c-3.017 3.433 -4.18 6.554 -3.556 9.535 0.1233 0.5877 0.0081 1.2003 -0.3202 1.7031 -0.3284 0.5028 -0.84307 0.8545 -1.43079 0.9779 -0.58772 0.1233 -1.20036 0.0081 -1.70314 -0.3203 -0.50279 -0.3284 -0.85453 -0.843 -0.97786 -1.4307 -0.926 -4.413 0.617 -8.938 4.58499 -13.455l1.549 -1.752 3.294 3.071Z" stroke-width="1"></path><path fill="#e3d3feab" stroke="#e3d3fe" stroke-linecap="round" stroke-linejoin="round" d="m35.0284 70.9572 -2.5089 0.3185c-0.5479 0.0695 -0.9357 0.5701 -0.8661 1.118l0.6035 4.7548c0.0696 0.5479 0.5701 0.9357 1.118 0.8661l2.5089 -0.3184c0.5479 -0.0696 0.9356 -0.5701 0.8661 -1.118l-0.6036 -4.7548c-0.0695 -0.5479 -0.57 -0.9357 -1.1179 -0.8662Z" stroke-width="1"></path><path stroke="#e3d3fe" stroke-linecap="round" stroke-linejoin="round" d="m31.908 74.3959 4.493 -0.57" stroke-width="1"></path><path fill="#e3d3feab" stroke="#e3d3fe" stroke-linecap="round" stroke-linejoin="round" d="m11.8581 71.406 -1.1894 4.6431c-0.137 0.535 0.1856 1.0798 0.7206 1.2169l2.4489 0.6273c0.535 0.137 1.0798 -0.1856 1.2169 -0.7206l1.1894 -4.6431c0.137 -0.535 -0.1856 -1.0798 -0.7206 -1.2168l-2.4489 -0.6274c-0.5351 -0.137 -1.0799 0.1856 -1.2169 0.7206Z" stroke-width="1"></path><path stroke="#e3d3fe" stroke-linecap="round" stroke-linejoin="round" d="m11.357 73.3621 4.387 1.124" stroke-width="1"></path><path fill="#ffffff" stroke="#e3d3fe" stroke-linecap="round" stroke-linejoin="round" d="M29.884 22.1331c-1.9928 0 -3.904 0.7916 -5.3132 2.2008 -1.4091 1.4091 -2.2008 3.3203 -2.2008 5.3132v1.5c-2.146 0 -2 3.757 0.375 3.757h0.006c0.5335 1.713 1.6639 3.1778 3.1857 4.1281 1.5219 0.9503 3.3342 1.3231 5.1075 1.0506 1.7734 -0.2725 3.3902 -1.1722 4.5565 -2.5356 1.1663 -1.3634 1.8047 -3.1 1.7993 -4.8941v-3.006c0 -0.987 -0.1944 -1.9642 -0.5722 -2.876 -0.3777 -0.9118 -0.9313 -1.7402 -1.6293 -2.438 -0.6979 -0.6977 -1.5265 -1.2512 -2.4384 -1.6286 -0.9119 -0.3775 -1.8892 -0.5717 -2.8761 -0.5714v0Z" stroke-width="1"></path><path fill="#e3d3fe" d="M28.569 32.2772c0.5186 0 0.939 -0.4204 0.939 -0.939s-0.4204 -0.939 -0.939 -0.939 -0.939 0.4204 -0.939 0.939 0.4204 0.939 0.939 0.939Z" stroke-width="1"></path><path fill="#e3d3fe" d="M35.144 31.3382c0.0002 0.186 -0.0548 0.3678 -0.158 0.5226 -0.1032 0.1547 -0.25 0.2754 -0.4218 0.3466 -0.1718 0.0713 -0.3609 0.09 -0.5433 0.0538 -0.1825 -0.0363 -0.35 -0.1258 -0.4816 -0.2573 -0.1315 -0.1316 -0.221 -0.2992 -0.2573 -0.4816 -0.0362 -0.1824 -0.0175 -0.3715 0.0538 -0.5433 0.0712 -0.1718 0.1919 -0.3186 0.3466 -0.4218 0.1547 -0.1032 0.3366 -0.1582 0.5226 -0.158 0.1233 0 0.2454 0.0243 0.3593 0.0714 0.114 0.0472 0.2175 0.1164 0.3047 0.2036 0.0872 0.0872 0.1563 0.1907 0.2035 0.3046 0.0472 0.114 0.0715 0.2361 0.0715 0.3594Z" stroke-width="1"></path><path fill="#e3d3feab" d="M27.63 34.344c0 0.1488 -0.0441 0.2942 -0.1267 0.4178 -0.0827 0.1237 -0.2001 0.2201 -0.3375 0.277 -0.1374 0.0569 -0.2886 0.0718 -0.4345 0.0428 -0.1459 -0.029 -0.2799 -0.1006 -0.385 -0.2058 -0.1052 -0.1052 -0.1768 -0.2392 -0.2058 -0.3851 -0.0291 -0.1458 -0.0142 -0.297 0.0428 -0.4344 0.0569 -0.1374 0.1533 -0.2549 0.2769 -0.3375 0.1237 -0.0827 0.2691 -0.1268 0.4178 -0.1268 0.1995 0 0.3907 0.0793 0.5318 0.2203 0.141 0.141 0.2202 0.3323 0.2202 0.5317Z" stroke-width="1"></path><path stroke="#e3d3fe" stroke-linecap="round" stroke-linejoin="round" d="M29.508 35.5881c0.4481 0.3972 1.011 0.6414 1.6072 0.6974 0.5962 0.0559 1.1947 -0.0794 1.7088 -0.3864 0.1552 -0.0914 0.3027 -0.1954 0.441 -0.311" stroke-width="1"></path><path fill="#ffffff" stroke="#e3d3fe" stroke-linejoin="round" d="M24.614 31.9c0.0016 -0.7962 0.319 -1.5593 0.8826 -2.1217 0.5635 -0.5624 1.3272 -0.8783 2.1234 -0.8783h9.792c0.1861 0.0016 0.3703 -0.0384 0.5389 -0.1172 0.1686 -0.0789 0.3174 -0.1944 0.4355 -0.3383 0.118 -0.1439 0.2024 -0.3124 0.2468 -0.4932 0.0444 -0.1807 0.0478 -0.3691 0.0098 -0.5513 -0.454 -2.2822 -1.742 -4.3134 -3.6126 -5.6974 -1.8705 -1.384 -4.1896 -2.0215 -6.5048 -1.7882 -2.3152 0.2333 -4.4604 1.3206 -6.0173 3.05 -1.5569 1.7294 -2.4137 3.9767 -2.4033 6.3036v11.02c0.0024 0.1905 0.0479 0.378 0.133 0.5485 0.085 0.1706 0.2075 0.3197 0.3583 0.4362 0.1507 0.1165 0.3259 0.1975 0.5123 0.2369 0.1865 0.0393 0.3794 0.036 0.5644 -0.0096 0.8222 -0.1815 1.5594 -0.6344 2.0929 -1.2858 0.5335 -0.6514 0.8322 -1.4634 0.8481 -2.3052V31.9Z" stroke-width="1"></path><path stroke="#e3d3fe" stroke-linecap="round" stroke-linejoin="round" d="M29.874 28.8959v-3.006" stroke-width="1"></path><path stroke="#e3d3fe" stroke-linecap="round" stroke-linejoin="round" d="m26.861 28.9999 0.007 -3.11" stroke-width="1"></path><path stroke="#e3d3fe" stroke-linecap="round" stroke-linejoin="round" d="M32.88 28.8959v-3.006" stroke-width="1"></path><path stroke="#e3d3fe" stroke-linecap="round" stroke-linejoin="round" d="M35.885 28.8959v-3.006" stroke-width="1"></path><path stroke="#e3d3fe" stroke-linecap="round" stroke-linejoin="round" d="M19.943 28.896h25.873" stroke-width="1"></path><path fill="#e3d3feab" stroke="#e3d3fe" stroke-linecap="round" stroke-linejoin="round" d="M19.943 28.8999c0 -5.246 3.782 -9.636 9.028 -9.636s9.968 4.39 9.968 9.636H19.943Z" stroke-width="1"></path><path fill="#e3d3feab" stroke="#e3d3fe" stroke-linecap="round" stroke-linejoin="round" d="M50.318 15.7999c0.8682 -2.4511 2.4747 -4.5729 4.5984 -6.0734 2.1237 -1.50051 4.6603 -2.30599 7.2606 -2.3056l-3.6 10.188 2.908 4.364 5 -1.569 3.6 -10.188c2.0252 1.6327 3.4939 3.8536 4.2035 6.3564 0.7096 2.5027 0.6252 5.164 -0.2416 7.6167s-2.4733 4.5761 -4.5979 6.0772 -4.6626 2.306 -7.264 2.3037l-9.327 26.4c-0.1839 0.5194 -0.4682 0.9975 -0.8368 1.4069 -0.3686 0.4095 -0.8143 0.7424 -1.3115 0.9797 -0.4973 0.2372 -1.0364 0.3742 -1.5866 0.4031 -0.5502 0.0289 -1.1007 -0.0509 -1.6201 -0.2347 -0.5194 -0.1839 -0.9975 -0.4682 -1.4069 -0.8368 -0.4095 -0.3686 -0.7424 -0.8143 -0.9797 -1.3115 -0.2372 -0.4973 -0.3742 -1.0364 -0.4031 -1.5866 -0.0289 -0.5502 0.0508 -1.1007 0.2347 -1.6201l9.326 -26.4c-2.0222 -1.6343 -3.4884 -3.855 -4.1968 -6.3567 -0.7084 -2.5017 -0.6243 -5.1614 0.2408 -7.6133v0Z" stroke-width="1"></path><path fill="#ffffff" stroke="#e3d3fe" stroke-linecap="round" stroke-linejoin="round" d="M47.6 56.5539c-0.1371 0.393 -0.1128 0.8244 0.0676 1.1995 0.1803 0.3752 0.502 0.6636 0.8946 0.802 0.3926 0.1384 0.8241 0.1156 1.1998 -0.0636 0.3758 -0.1791 0.6653 -0.4998 0.805 -0.8919l8.856 -25.067 -2.967 -1.048 -8.856 25.069Z" stroke-width="1"></path><path fill="#ffffff" stroke="#e3d3fe" stroke-linecap="round" stroke-linejoin="round" d="m59.4 43.1849 -0.458 2.215c-0.0589 0.2905 -0.2191 0.5506 -0.4522 0.7338 -0.233 0.1832 -0.5236 0.2775 -0.8198 0.2662l-1.27 -0.055c-0.1812 -0.0071 -0.3587 -0.0535 -0.5203 -0.136 -0.1615 -0.0825 -0.3031 -0.1991 -0.4151 -0.3418 -0.112 -0.1427 -0.1916 -0.308 -0.2333 -0.4845 -0.0417 -0.1766 -0.0445 -0.36 -0.0083 -0.5377l0.541 -2.62c0.0367 -0.178 0.1118 -0.3457 0.2199 -0.4917 0.1082 -0.146 0.2468 -0.2667 0.4063 -0.3537 0.1595 -0.087 0.3361 -0.1382 0.5173 -0.15 0.1813 -0.0119 0.363 0.0159 0.5325 0.0814l1.182 0.457c0.2765 0.1058 0.5064 0.3063 0.6489 0.5658 0.1425 0.2595 0.1882 0.5611 0.1291 0.8512v0Z" stroke-width="1"></path></svg>