<svg xmlns="http://www.w3.org/2000/svg" fill="none" viewBox="-0.7 -0.7 14 14" id="Chat-Bubble-Video-Call-Square--Streamline-Flex-Neon" height="14" width="14" style="background-color: #ffffff"><desc>Chat Bubble Video Call Square Streamline Icon: https://streamlinehq.com</desc><g id="chat-bubble-video-call-square--chat-bubble-video-call-square-messages-camera"><path id="Union" stroke="#c71dff" stroke-linecap="round" stroke-linejoin="round" d="M2.464677 9.49284c-0.8041860000000001 -0.07479 -1.480068 -0.663039 -1.5914268 -1.462977C0.7458228 7.1145000000000005 0.675 6.173442 0.675 5.204745c0 -1.002906 0.0708489 -1.989738 0.20727720000000002 -2.934549C0.9901800000000001 1.522953 1.6001100000000001 0.958923 2.3509800000000003 0.8800596 3.6194580000000003 0.7468272 4.944726 0.675 6.3 0.675c1.351062 0 2.652921 0.0761517 3.92256 0.20742839999999999 0.76365 0.0789606 1.3838400000000002 0.6547086000000001 1.49229 1.4147406 0.13374000000000003 0.9375030000000001 0.21015 1.913346 0.21015 2.907576 0 0.986364 -0.08352 1.9453049999999998 -0.21501 2.8763549999999998 -0.10935 0.774549 -0.73944 1.36566 -1.5176699999999999 1.4447699999999999 -1.257345 0.12771 -2.553588 0.20862 -3.89232 0.20862 -0.032049 0 -0.064071 -0.00009 -0.096084 -0.00018 -0.943992 1.08585 -1.667745 1.62252 -2.932758 2.19069v-2.35746c-0.20511 -0.01854 -0.409041 -0.03762 -0.6117210000000001 -0.056519999999999994 -0.065052 -0.006030000000000001 -0.129969 -0.01215 -0.19476000000000002 -0.018179999999999998Z" stroke-width="1"></path><path id="Union_2" stroke="#000cfe" stroke-linecap="round" stroke-linejoin="round" d="M3.377412 2.9923200000000003c0.197469 -0.214893 0.45585 -0.35046000000000005 0.733005 -0.384588 0.863325 -0.10101600000000001 1.7117280000000001 -0.101106 2.575053 0 0.277155 0.034128000000000006 0.535527 0.169695 0.733005 0.384588 0.197469 0.214884 0.322389 0.496422 0.354375 0.798705 0.004806 0.046683 0.009369 0.093285 0.013698 0.139806 0.25083 -0.14513399999999999 0.519363 -0.279756 0.798597 -0.39203099999999996 0.367524 -0.14778000000000002 0.772155 0.028746000000000004 0.884745 0.408537 0.09846 0.332262 0.18054 0.7642260000000001 0.18054 1.256409s-0.08208 0.9241380000000001 -0.18054 1.256409c-0.11259 0.379791 -0.517221 0.556308 -0.884745 0.408537 -0.279171 -0.112248 -0.547641 -0.246834 -0.798417 -0.391932 -0.004266000000000001 0.046548000000000006 -0.008757000000000001 0.09318599999999999 -0.013482000000000001 0.139896 -0.031986 0.302283 -0.156906 0.583821 -0.354375 0.798705 -0.19747800000000001 0.214893 -0.455859 0.35046000000000005 -0.733005 0.384588 -0.863487 0.100935 -1.711962 0.101034 -2.5754490000000003 0 -0.277155 -0.034128000000000006 -0.535536 -0.169695 -0.733005 -0.384588 -0.197469 -0.214884 -0.322389 -0.496422 -0.354375 -0.798705 -0.09809100000000001 -0.9533159999999999 -0.098001 -1.8723150000000002 0 -2.825631 0.031986 -0.302283 0.156906 -0.583821 0.354375 -0.798705Z" stroke-width="1"></path></g></svg>