<svg xmlns="http://www.w3.org/2000/svg" fill="none" viewBox="-0.65 -0.65 14 14" id="Watch-Square-Time--Streamline-Flex-Neon"><desc>Watch Square Time Streamline Icon: https://streamlinehq.com</desc><g id="watch-square-time--device-timepiece-watch-square-time-clock-analog"><g id="Subtract"><path stroke="#000cfe" stroke-linecap="round" stroke-linejoin="round" d="M6.349664357142857 12.246428571428572c0.4197531428571429 0 0.8305255714285714 -0.08227785714285714 1.2289880714285715 -0.17018 0.41500878571428573 -0.09153071428571428 0.7324271428571428 -0.45048714285714286 0.7637870714285714 -0.874395 0.014033499999999999 -0.18968357142857142 0.0283845 -0.43415857142857145 0.041837428571428574 -0.8391071428571429l0 -0.17879785714285715C7.721908428571428 10.257064285714286 7.042422142857143 10.31875 6.35 10.31875c-0.6925945 0 -1.3722440714285715 -0.06168571428571429 -2.0347577142857145 -0.13489214285714285l0 0.1823357142857143c0.0133985 0.4031342857142857 0.027667857142857143 0.6467928571428571 0.041628785714285715 0.8356600000000001 0.03133271428571429 0.4239078571428571 0.34879642857142856 0.7828642857142857 0.7638052142857144 0.874395 0.3984625 0.08790214285714286 0.8092349285714286 0.17018 1.2289880714285715 0.17018Z" stroke-width="1.3"></path><path stroke="#000cfe" stroke-linecap="round" stroke-linejoin="round" d="m4.315133428571429 2.5161330714285715 0 -0.11584214285714287c0.014305642857142857 -0.43076585714285714 0.029618214285714286 -0.6929392142857144 0.04449535714285715 -0.9019449285714286 0.030171571428571426 -0.42393507142857145 0.3460659285714286 -0.7830284785714285 0.7610656428571428 -0.8745727999999999C5.519156928571428 0.5358783142857143 5.929938428571429 0.45357142857142857 6.3496825 0.45357142857142857c0.4197531428571429 0 0.8305255714285714 0.08230688571428571 1.228997142857143 0.17020177142857143 0.4149997142857143 0.09154432142857143 0.7308396428571429 0.4506468 0.7610021428571428 0.8745818714285715 0.014949714285714287 0.21011242857142856 0.03034392857142857 0.4734287857142857 0.044722142857142856 0.9064171428571428l0 0.1113155C7.721990071428571 2.442926642857143 7.0424675 2.38125 6.35 2.38125c-0.6926307857142857 0 -1.372316642857143 0.061712928571428564 -2.0348665714285716 0.13488307142857142Z" stroke-width="1.3"></path></g><path id="Intersect" stroke="#c71dff" stroke-linecap="round" stroke-linejoin="round" d="M2.5226191428571427 4.199264071428571c0.09437007142857143 -0.8711202142857143 0.7940221428571428 -1.5706997142857142 1.6647250714285713 -1.668861642857143C4.8901984999999994 2.4511635 5.612765 2.38125 6.35 2.38125c0.737235 0 1.4598015 0.0699135 2.1626557857142856 0.14915242857142857 0.8707392142857143 0.09816192857142857 1.5703277857142859 0.7977323571428572 1.664761357142857 1.668861642857143 0.07565571428571428 0.6990352142857142 0.14133285714285715 1.4176102857142858 0.14133285714285715 2.1507359285714287s-0.06567714285714286 1.4517007142857143 -0.14133285714285715 2.1507359285714287c-0.09443357142857142 0.8711383571428571 -0.7940221428571428 1.5707269285714287 -1.664761357142857 1.6688797857142856 -0.7028542857142858 0.07919357142857143 -1.4254207857142855 0.1491342857142857 -2.1626557857142856 0.1491342857142857 -0.737235 0 -1.4598015 -0.06994071428571429 -2.1626557857142856 -0.1491342857142857 -0.8707029285714285 -0.09815285714285715 -1.5703550000000002 -0.7977414285714285 -1.6647250714285713 -1.6688797857142856C2.446881785714286 7.801700714285715 2.38125 7.0831256428571425 2.38125 6.35s0.06563178571428571 -1.4517007142857143 0.14136914285714286 -2.1507359285714287Z" stroke-width="1.3"></path><path id="Vector 975" stroke="#000cfe" stroke-linecap="round" stroke-linejoin="round" d="M6.35 3.96875V6.35l1.5875 1.5875" stroke-width="1.3"></path></g></svg>