<svg xmlns="http://www.w3.org/2000/svg" fill="none" viewBox="-0.65 -0.65 14 14" id="Waving-Hand--Streamline-Flex-Neon"><desc>Waving Hand Streamline Icon: https://streamlinehq.com</desc><g id="waving-hand"><path id="Vector 527" stroke="#000cfe" stroke-linecap="round" stroke-linejoin="round" d="M11.240044285714285 0.45357142857142857c0.17335499999999998 0.11964035 0.5965371428571428 0.4713605 0.9025164285714286 0.921131" stroke-width="1.3"></path><path id="Vector 528" stroke="#000cfe" stroke-linecap="round" stroke-linejoin="round" d="M0.5803872785714286 3.964377571428572C0.5054872142857143 4.272588428571428 0.41524645714285713 5.024219785714285 0.6534803142857143 5.565103714285714" stroke-width="1.3"></path><path id="Vector 107" stroke="#c71dff" stroke-linecap="round" stroke-linejoin="round" d="m5.894124428571429 3.2289659285714283 0 3.2762099285714283m0 -3.2762099285714283v-0.7227479285714287c0 -0.609772357142857 0.4943112142857143 -1.1040926428571427 1.1040835714285715 -1.1040926428571427 0.609772357142857 0 1.1040926428571427 0.49432028571428566 1.1040926428571427 1.1040926428571427v1.3785940714285714m-2.2081762142857144 -0.6558461428571428c0 -0.6430735714285714 -0.5213168571428571 -1.1643813571428572 -1.1643813571428572 -1.1643813571428572 -0.5940062142857143 0 -1.0944587857142858 0.44723957142857146 -1.1532144285714285 1.0383247857142857 -0.16738599999999998 1.6839111428571427 -0.23368907142857143 3.0061625714285714 -0.11162392857142858 4.840949714285714L2.0683855 7.425962142857142c-0.5605961428571429 -0.20788992857142857 -1.18779925 0.03972378571428572 -1.4551904928571429 0.5745117142857142 -0.24238040714285716 0.48475899999999994 -0.12060827142857142 1.072496857142857 0.29442863571428574 1.4210211428571429L4.271409142857142 12.246428571428572m3.8308914999999994 -8.3616165c0.0006259285714285714 -0.6395175714285715 0.5192485714285714 -1.1577592142857143 1.1589022142857144 -1.1577592142857143 0.59563 0 1.0958285714285714 0.4495527857142857 1.1448142857142858 1.0431235714285714 0.21100142857142856 2.5591044285714286 0.39905214285714286 7.098392857142858 -0.9788071428571428 8.476252142857142M8.102300642857143 3.884812071428571l0 2.5961521428571426" stroke-width="1.3"></path><path id="Vector 526" stroke="#c71dff" stroke-linecap="round" stroke-linejoin="round" d="M3.4717717857142856 7.943922571428572c1.198499 0 2.1095244285714285 0.4222024285714286 2.5488809285714287 1.3801452857142857" stroke-width="1.3"></path></g></svg>