<svg xmlns="http://www.w3.org/2000/svg" fill="none" viewBox="0 0 14 14" id="Horizontal-Text-Box--Streamline-Flex-Neon.svg" height="14" width="14"><desc>Horizontal Text Box Streamline Icon: https://streamlinehq.com</desc><g id="horizontal-text-box--horizontal-text-box-paragraph-article-portrait"><path id="Subtract" stroke="#C71DFF" stroke-linecap="round" stroke-linejoin="round" d="M1.75 3C2.55 3 3 2.55 3 1.75l0 -0.00158c0.30314 -0.1542 0.63333 -0.25462 0.97596 -0.29418C4.95944 1.34384 5.9696 1.25 7 1.25c1.0304 0 2.03964 0.09476 3.024 0.20332 0.3427 0.03956 0.6729 0.13998 0.976 0.29418l0 0.0025c0 0.8 0.45 1.25 1.25 1.25 0.0023 0 0.0047 0 0.007 -0.00001 0.158 0.30786 0.2604 0.64383 0.2998 0.99253 0.1049 0.97888 0.1932 1.98352 0.1932 3.00748 0 1.02396 -0.0883 2.0286 -0.1932 3.0066 -0.0394 0.349 -0.142 0.6853 -0.3002 0.9934l-0.0066 0c-0.8 0 -1.25 0.45 -1.25 1.25l0 0.0016c-0.3031 0.1542 -0.6333 0.2546 -0.976 0.2942 -0.98344 0.1104 -1.9936 0.2042 -3.024 0.2042s-2.03964 -0.0938 -3.02404 -0.2042c-0.34264 -0.0396 -0.67282 -0.14 -0.97596 -0.2942l0 -0.0016c0 -0.8 -0.45 -1.25 -1.25 -1.25l-0.00656 0c-0.15829 -0.3081 -0.26084 -0.6444 -0.30024 -0.9934C1.33832 9.0286 1.25 8.02488 1.25 7c0 -1.02488 0.08832 -2.02952 0.1932 -3.00656 0.0394 -0.34905 0.14196 -0.68534 0.30023 -0.99345C1.74562 3 1.74781 3 1.75 3Z" stroke-width="1"></path><path id="Vector_2" stroke="#000CFE" stroke-linecap="round" stroke-linejoin="round" d="M1.75 3C2.55 3 3 2.55 3 1.75S2.55 0.5 1.75 0.5 0.5 0.95 0.5 1.75 0.95 3 1.75 3Z" stroke-width="1"></path><path id="Vector_2_2" stroke="#000CFE" stroke-linecap="round" stroke-linejoin="round" d="M1.75 13.5c0.8 0 1.25 -0.45 1.25 -1.25S2.55 11 1.75 11 0.5 11.45 0.5 12.25s0.45 1.25 1.25 1.25Z" stroke-width="1"></path><path id="Vector_2_3" stroke="#000CFE" stroke-linecap="round" stroke-linejoin="round" d="M12.25 3c0.8 0 1.25 -0.45 1.25 -1.25S13.05 0.5 12.25 0.5 11 0.95 11 1.75 11.45 3 12.25 3Z" stroke-width="1"></path><path id="Vector_2_4" stroke="#000CFE" stroke-linecap="round" stroke-linejoin="round" d="M12.25 13.5c0.8 0 1.25 -0.45 1.25 -1.25S13.05 11 12.25 11 11 11.45 11 12.25s0.45 1.25 1.25 1.25Z" stroke-width="1"></path><path id="Vector 2" stroke="#000CFE" stroke-linecap="round" stroke-linejoin="round" d="M3.93008 7.73653c0.14183 -0.70568 0.56987 -3.4045 1.41855 -3.4045 0.84867 0 1.27671 2.69882 1.41854 3.4045" stroke-width="1"></path><path id="Vector 3" stroke="#000CFE" stroke-linecap="round" stroke-linejoin="round" d="M4.30835 6.60156h2.08053" stroke-width="1"></path><path id="Vector 1061" stroke="#000CFE" stroke-linecap="round" stroke-linejoin="round" d="m4.13827 9.66895 5.93133 0" stroke-width="1"></path><path id="Vector 1063" stroke="#000CFE" stroke-linecap="round" stroke-linejoin="round" d="m8.44538 5.10742 1.62422 0" stroke-width="1"></path><path id="Vector 1064" stroke="#000CFE" stroke-linecap="round" stroke-linejoin="round" d="m8.44537 7.3877 1.62423 0" stroke-width="1"></path></g></svg>