<svg width="100" height="80" viewBox="0 0 100 80" fill="none" xmlns="http://www.w3.org/2000/svg">
<g clip-path="url(#clip0_36_26)">
<path d="M183.337 3.33125V-30H166.675V-46.6687H150V-55H166.675V-80H141.675V-63.3375H125V-46.6687H75V-63.3375H58.3375V-80H33.3375V-55H50V-46.6687H33.3375V-30H16.675V3.33125H0V61.6625H25V28.3313H33.3375V61.6625H50V78.3313H91.675V53.3313H58.3375V45H141.675V53.3313H108.337V78.3313H150V61.6625H166.675V28.3313H175V61.6625H200V3.33125H183.337ZM75 -5H50V-30H75V-5ZM150 -5H125V-30H150V-5Z" fill="#7029F5"/>
</g>
<defs>
<clipPath id="clip0_36_26">
<rect width="100" height="80" fill="white"/>
</clipPath>
</defs>
</svg>
