<svg width="100" height="80" viewBox="0 0 100 80" fill="none" xmlns="http://www.w3.org/2000/svg">
<g clip-path="url(#clip0_36_6)">
<path d="M183.337 83.3313V50H166.675V33.3313H150V25H166.675V0H141.675V16.6625H125V33.3313H75V16.6625H58.3375V0H33.3375V25H50V33.3313H33.3375V50H16.675V83.3313H0V141.663H25V108.331H33.3375V141.663H50V158.331H91.675V133.331H58.3375V125H141.675V133.331H108.337V158.331H150V141.663H166.675V108.331H175V141.663H200V83.3313H183.337ZM75 75H50V50H75V75ZM150 75H125V50H150V75Z" fill="#000"/>
</g>
<defs>
<clipPath id="clip0_36_6">
<rect width="100" height="80" fill="white"/>
</clipPath>
</defs>
</svg>
