<svg width="100" height="80" viewBox="0 0 100 80" fill="none" xmlns="http://www.w3.org/2000/svg">
<g clip-path="url(#clip0_36_22)">
<path d="M83.3375 83.3313V50H66.675V33.3313H50V25H66.675V0H41.675V16.6625H25V33.3313H-25V16.6625H-41.6625V0H-66.6625V25H-50V33.3313H-66.6625V50H-83.325V83.3313H-100V141.663H-75V108.331H-66.6625V141.663H-50V158.331H-8.325V133.331H-41.6625V125H41.675V133.331H8.3375V158.331H50V141.663H66.675V108.331H75V141.663H100V83.3313H83.3375ZM-25 75H-50V50H-25V75ZM50 75H25V50H50V75Z" fill="#7029F5"/>
</g>
<defs>
<clipPath id="clip0_36_22">
<rect width="100" height="80" fill="white"/>
</clipPath>
</defs>
</svg>
