<svg width="100" height="80" viewBox="0 0 100 80" fill="none" xmlns="http://www.w3.org/2000/svg">
<g clip-path="url(#clip0_36_30)">
<path d="M83.3375 3.33125V-30H66.675V-46.6687H50V-55H66.675V-80H41.675V-63.3375H25V-46.6687H-25V-63.3375H-41.6625V-80H-66.6625V-55H-50V-46.6687H-66.6625V-30H-83.325V3.33125H-100V61.6625H-75V28.3313H-66.6625V61.6625H-50V78.3313H-8.325V53.3313H-41.6625V45H41.675V53.3313H8.3375V78.3313H50V61.6625H66.675V28.3313H75V61.6625H100V3.33125H83.3375ZM-25 -5H-50V-30H-25V-5ZM50 -5H25V-30H50V-5Z" fill="#7029F5"/>
</g>
<defs>
<clipPath id="clip0_36_30">
<rect width="100" height="80" fill="white"/>
</clipPath>
</defs>
</svg>
